999
LibreDWG fb9d2fd7
  0
SECTION
  2
HEADER
  9
$ACADVER
  1
AC1015
  9
$ACADMAINTVER
 70
     0
  9
$DWGCODEPAGE
  3
ANSI_1252
  9
$INSBASE
 10
0
 20
0
 30
0
  9
$EXTMIN
 10
0
 20
0
 30
0
  9
$EXTMAX
 10
420
 20
297
 30
0
  9
$LIMMIN
 10
0
 20
0
  9
$LIMMAX
 10
420
 20
297
  9
$ORTHOMODE
 70
     0
  9
$REGENMODE
 70
     1
  9
$FILLMODE
 70
     1
  9
$QTEXTMODE
 70
     0
  9
$MIRRTEXT
 70
     1
  9
$LTSCALE
 40
1
  9
$ATTMODE
 70
     1
  9
$TEXTSIZE
 40
2.5
  9
$TRACEWID
 40
1
  9
$TEXTSTYLE
  7
Standard
  9
$CLAYER
  8
0
  9
$CELTYPE
  6
ByLayer
  9
$CECOLOR
 62
   256
  9
$CELTSCALE
 40
1
  9
$DISPSILH
 70
     0
  9
$DIMSCALE
 40
1
  9
$DIMASZ
 40
2.5
  9
$DIMEXO
 40
0.625
  9
$DIMDLI
 40
3.75
  9
$DIMRND
 40
0
  9
$DIMDLE
 40
0
  9
$DIMEXE
 40
1.25
  9
$DIMTP
 40
0
  9
$DIMTM
 40
0
  9
$DIMTXT
 40
2.5
  9
$DIMCEN
 40
2.5
  9
$DIMTSZ
 40
0
  9
$DIMTOL
 70
     0
  9
$DIMLIM
 70
     0
  9
$DIMTIH
 70
     0
  9
$DIMTOH
 70
     0
  9
$DIMSE1
 70
     0
  9
$DIMSE2
 70
     0
  9
$DIMTAD
 70
     1
  9
$DIMZIN
 70
     8
  9
$DIMBLK
  1

  9
$DIMASO
 70
     1
  9
$DIMSHO
 70
     1
  9
$DIMPOST
  1

  9
$DIMAPOST
  1

  9
$DIMALT
 70
     0
  9
$DIMALTD
 70
     3
  9
$DIMALTF
 40
0.03937007874016
  9
$DIMLFAC
 40
1
  9
$DIMTOFL
 70
     1
  9
$DIMTVP
 40
0
  9
$DIMTIX
 70
     0
  9
$DIMSOXD
 70
     0
  9
$DIMSAH
 70
     0
  9
$DIMBLK1
  1

  9
$DIMBLK2
  1

  9
$DIMSTYLE
  2
ISO-25
  9
$DIMCLRD
 70
     0
  9
$DIMCLRE
 70
     0
  9
$DIMCLRT
 70
     0
  9
$DIMTFAC
 40
1
  9
$DIMGAP
 40
0.625
  9
$DIMJUST
 70
     0
  9
$DIMSD1
 70
     0
  9
$DIMSD2
 70
     0
  9
$DIMTOLJ
 70
     0
  9
$DIMTZIN
 70
     8
  9
$DIMALTZ
 70
     0
  9
$DIMALTTZ
 70
     0
  9
$DIMUPT
 70
     0
  9
$DIMDEC
 70
     2
  9
$DIMTDEC
 70
     2
  9
$DIMALTU
 70
     2
  9
$DIMALTTD
 70
     3
  9
$DIMTXSTY
  7
Standard
  9
$DIMAUNIT
 70
     0
  9
$DIMADEC
 70
     0
  9
$DIMALTRND
 40
0
  9
$DIMAZIN
 70
     0
  9
$DIMDSEP
 70
    44
  9
$DIMATFIT
 70
     3
  9
$DIMFRAC
 70
     0
  9
$DIMLDRBLK
  1

  9
$DIMLUNIT
 70
     2
  9
$DIMLWD
 70
    -2
  9
$DIMLWE
 70
    -2
  9
$DIMTMOVE
 70
     0
  9
$LUNITS
 70
     2
  9
$LUPREC
 70
     4
  9
$AXISMODE
 70
     0
  9
$AXISUNIT
 10
0
 20
0
  9
$SKETCHINC
 40
1
  9
$FILLETRAD
 40
10
  9
$AUNITS
 70
     0
  9
$AUPREC
 70
     0
  9
$MENU
  1
.
  9
$ELEVATION
 40
0
  9
$PELEVATION
 40
0
  9
$THICKNESS
 40
0
  9
$LIMCHECK
 70
     0
  9
$CHAMFERA
 40
10
  9
$CHAMFERB
 40
10
  9
$CHAMFERC
 40
20
  9
$CHAMFERD
 40
0
  9
$SKPOLY
 70
     0
  9
$TDCREATE
 40
2451930.468000000
  9
$TDUCREATE
 40
2451930.468000000
  9
$TDUPDATE
 40
2451930.666000000
  9
$TDUUPDATE
 40
2451930.666000000
  9
$TDINDWG
 40
0.000000010
  9
$TDUSRTIMER
 40
0.000000010
  9
$USRTIMER
 70
     1
  9
$ANGBASE
 50
0
  9
$ANGDIR
 70
     0
  9
$PDMODE
 70
     0
  9
$PDSIZE
 40
0
  9
$PLINEWID
 40
0
  9
$SPLFRAME
 70
     0
  9
$SPLINETYPE
 70
     6
  9
$SPLINESEGS
 70
     8
  9
$HANDSEED
  5
342
  9
$SURFTAB1
 70
     6
  9
$SURFTAB2
 70
     6
  9
$SURFTYPE
 70
     6
  9
$SURFU
 70
     6
  9
$SURFV
 70
     6
  9
$UCSBASE
  2

  9
$UCSNAME
  2

  9
$UCSORG
 10
0
 20
0
 30
0
  9
$UCSXDIR
 10
1
 20
0
 30
0
  9
$UCSYDIR
 10
0
 20
1
 30
0
  9
$UCSORTHOREF
  2

  9
$UCSORTHOVIEW
 70
     0
  9
$UCSORGTOP
 10
0
 20
0
 30
0
  9
$UCSORGBOTTOM
 10
0
 20
0
 30
0
  9
$UCSORGLEFT
 10
0
 20
0
 30
0
  9
$UCSORGRIGHT
 10
0
 20
0
 30
0
  9
$UCSORGFRONT
 10
0
 20
0
 30
0
  9
$UCSORGBACK
 10
0
 20
0
 30
0
  9
$PUCSBASE
  2

  9
$PUCSNAME
  2

  9
$PUCSORG
 10
0
 20
0
 30
0
  9
$PUCSXDIR
 10
1
 20
0
 30
0
  9
$PUCSYDIR
 10
0
 20
1
 30
0
  9
$PUCSORTHOREF
  2

  9
$PUCSORTHOVIEW
 70
     0
  9
$PUCSORGTOP
 10
0
 20
0
 30
0
  9
$PUCSORGBOTTOM
 10
0
 20
0
 30
0
  9
$PUCSORGLEFT
 10
0
 20
0
 30
0
  9
$PUCSORGRIGHT
 10
0
 20
0
 30
0
  9
$PUCSORGFRONT
 10
0
 20
0
 30
0
  9
$PUCSORGBACK
 10
0
 20
0
 30
0
  9
$USERI1
 70
     0
  9
$USERI2
 70
     0
  9
$USERI3
 70
     0
  9
$USERI4
 70
     0
  9
$USERI5
 70
     0
  9
$USERR1
 40
0
  9
$USERR2
 40
0
  9
$USERR3
 40
0
  9
$USERR4
 40
0
  9
$USERR5
 40
0
  9
$WORLDVIEW
 70
     1
  9
$SHADEDGE
 70
     3
  9
$SHADEDIF
 70
    70
  9
$TILEMODE
 70
     1
  9
$MAXACTVP
 70
    64
  9
$PINSBASE
 10
0
 20
0
 30
0
  9
$PLIMCHECK
 70
     0
  9
$PEXTMIN
 10
1E+20
 20
1E+20
 30
1E+20
  9
$PEXTMAX
 10
-1E+20
 20
-1E+20
 30
-1E+20
  9
$PLIMMIN
 10
0
 20
0
  9
$PLIMMAX
 10
420
 20
297
  9
$UNITMODE
 70
     0
  9
$VISRETAIN
 70
     1
  9
$PLINEGEN
 70
     0
  9
$PSLTSCALE
 70
     1
  9
$TREEDEPTH
 70
  3020
  9
$CMLSTYLE
  2
Standard
  9
$CMLJUST
 70
     0
  9
$CMLSCALE
 40
20
  9
$PROXYGRAPHICS
 70
     1
  9
$MEASUREMENT
 70
     1
  9
$CELWEIGHT
370
    -1
  9
$ENDCAPS
280
     0
  9
$JOINSTYLE
280
     0
  9
$LWDISPLAY
290
     0
  9
$INSUNITS
 70
     4
  9
$HYPERLINKBASE
  1

  9
$STYLESHEET
  1

  9
$XEDIT
290
     1
  9
$CEPSNTYPE
380
     0
  9
$PSTYLEMODE
290
     1
  9
$FINGERPRINTGUID
  2
{FAEB1C30-E019-11D5-929B-00C0DF256EC4}
  9
$VERSIONGUID
  2
{FAEB1C32-E019-11D5-929B-00C0DF256EC4}
  9
$EXTNAMES
290
     1
  9
$PSVPSCALE
 40
0
  9
$OLESTARTUP
290
     0
  0
ENDSEC
  0
SECTION
  2
CLASSES
  0
CLASS
  1
ACDBDICTIONARYWDFLT
  2
AcDbDictionaryWithDefault
  3
ObjectDBX Classes
 90
        0
280
     0
281
     0
  0
CLASS
  1
IMAGEDEF
  2
AcDbRasterImageDef
  3
ISM
 90
        0
280
     0
281
     0
  0
CLASS
  1
IMAGE
  2
AcDbRasterImage
  3
ISM
 90
      127
280
     0
281
     1
  0
CLASS
  1
RASTERVARIABLES
  2
AcDbRasterVariables
  3
ISM
 90
        0
280
     0
281
     0
  0
CLASS
  1
IMAGEDEF_REACTOR
  2
AcDbRasterImageDefReactor
  3
ISM
 90
        1
280
     0
281
     0
  0
CLASS
  1
ACDBPLACEHOLDER
  2
AcDbPlaceHolder
  3
ObjectDBX Classes
 90
        0
280
     0
281
     0
  0
CLASS
  1
LAYOUT
  2
AcDbLayout
  3
ObjectDBX Classes
 90
        0
280
     0
281
     0
  0
ENDSEC
  0
SECTION
  2
TABLES
  0
TABLE
  2
VPORT
  5
8
330
0
100
AcDbSymbolTable
 70
     2
  0
VPORT
  5
29
330
8
100
AcDbSymbolTableRecord
100
AcDbViewportTableRecord
  2
*Active
 70
     0
 10
0
 20
0
 11
1
 21
1
 12
210
 22
142.5
 13
0
 23
0
 14
10
 24
10
 15
10
 25
10
 16
0
 26
0
 36
1
 17
0
 27
0
 37
0
 40
270.3
 41
1.972972972850329
 42
50
 43
0
 44
0
 50
0
 51
0
 71
     0
 72
   100
 73
     1
 74
     3
 75
     0
 76
     0
 77
     0
 78
     0
281
     0
 65
     1
110
0
120
0
130
0
111
1
121
0
131
0
112
0
122
1
132
0
 79
     0
146
0
  0
ENDTAB
  0
TABLE
  2
LTYPE
  5
5
330
0
100
AcDbSymbolTable
 70
     6
  0
LTYPE
  5
14
330
5
100
AcDbSymbolTableRecord
100
AcDbLinetypeTableRecord
  2
ByBlock
 70
     0
  3

 72
    65
 73
     0
 40
0
  0
LTYPE
  5
15
330
5
100
AcDbSymbolTableRecord
100
AcDbLinetypeTableRecord
  2
ByLayer
 70
     0
  3

 72
    65
 73
     0
 40
0
  0
LTYPE
  5
16
330
5
100
AcDbSymbolTableRecord
100
AcDbLinetypeTableRecord
  2
Continuous
 70
     0
  3
Solid line
 72
    65
 73
     0
 40
0
  0
LTYPE
  5
3B
330
5
100
AcDbSymbolTableRecord
100
AcDbLinetypeTableRecord
  2
Caddy_Solid
 70
     0
  3
____________
 72
    65
 73
     0
 40
0
  0
LTYPE
  5
3C
330
5
100
AcDbSymbolTableRecord
100
AcDbLinetypeTableRecord
  2
Caddy_Dot
 70
     0
  3
. . . . . . 
 72
    65
 73
     2
 40
2
 49
0.5
 74
     0
 49
-1.5
 74
     0
  0
LTYPE
  5
3D
330
5
100
AcDbSymbolTableRecord
100
AcDbLinetypeTableRecord
  2
Caddy_Dash
 70
     0
  3
_ _ _ _ _ _ 
 72
    65
 73
     2
 40
3.5
 49
2
 74
     0
 49
-1.5
 74
     0
  0
LTYPE
  5
3E
330
5
100
AcDbSymbolTableRecord
100
AcDbLinetypeTableRecord
  2
Caddy_Dashdot
 70
     0
  3
_ . _ . _ . 
 72
    65
 73
     4
 40
5.5
 49
0.5
 74
     0
 49
-1.5
 74
     0
 49
2
 74
     0
 49
-1.5
 74
     0
  0
LTYPE
  5
3F
330
5
100
AcDbSymbolTableRecord
100
AcDbLinetypeTableRecord
  2
Caddy_Dashdotdot
 70
     0
  3
_ . . _ . . 
 72
    65
 73
     6
 40
7.5
 49
2
 74
     0
 49
-1.5
 74
     0
 49
0.5
 74
     0
 49
-1.5
 74
     0
 49
0.5
 74
     0
 49
-1.5
 74
     0
  0
ENDTAB
  0
TABLE
  2
LAYER
  5
2
330
0
100
AcDbSymbolTable
 70
     1
  0
LAYER
  5
10
330
2
100
AcDbSymbolTableRecord
100
AcDbLayerTableRecord
  2
0
 70
     8
 62
     7
  6
Continuous
290
     1
370
    -3
390
F
  0
ENDTAB
  0
TABLE
  2
STYLE
  5
3
330
0
100
AcDbSymbolTable
 70
    17
  0
STYLE
  5
11
330
3
100
AcDbSymbolTableRecord
100
AcDbTextStyleTableRecord
  2
Standard
 70
     0
 40
0
 41
1
 50
0
 71
     0
 42
2.5
  3
txt
  4

  0
STYLE
  5
2B
330
3
100
AcDbSymbolTableRecord
100
AcDbTextStyleTableRecord
  2
Caddy_Vectorfont1p
 70
     0
 40
0
 41
0.9
 50
0
 71
     0
 42
0.2
  3
isocp___.ttf
  4

1001
ACAD
1000
ISOCP
1071
        0
  0
STYLE
  5
2C
330
3
100
AcDbSymbolTableRecord
100
AcDbTextStyleTableRecord
  2
Caddy_Vectorfont1n
 70
     0
 40
0
 41
1.100000023841858
 50
0
 71
     0
 42
0.2
  3

  4

1001
ACAD
1000
ISOCP
1071
        0
  0
STYLE
  5
2D
330
3
100
AcDbSymbolTableRecord
100
AcDbTextStyleTableRecord
  2
Caddy_Vectorfont2p
 70
     0
 40
0
 41
1.35
 50
0
 71
     0
 42
0.2
  3

  4

1001
ACAD
1000
ARIAL
1071
        0
  0
STYLE
  5
2E
330
3
100
AcDbSymbolTableRecord
100
AcDbTextStyleTableRecord
  2
Caddy_Vectorfont2n
 70
     0
 40
0
 41
1.549999952316284
 50
0
 71
     0
 42
0.2
  3

  4

1001
ACAD
1000
ARIAL
1071
        0
  0
STYLE
  5
2F
330
3
100
AcDbSymbolTableRecord
100
AcDbTextStyleTableRecord
  2
Caddy_Vectorfont3p
 70
     0
 40
0
 41
1.3
 50
0
 71
     0
 42
0.2
  3

  4

1001
ACAD
1000
Swis721 BdOul BT
1071
        0
  0
STYLE
  5
30
330
3
100
AcDbSymbolTableRecord
100
AcDbTextStyleTableRecord
  2
Caddy_Vectorfont3n
 70
     0
 40
0
 41
1.5
 50
0
 71
     0
 42
0.2
  3

  4

1001
ACAD
1000
Swis721 BdOul BT
1071
        0
  0
STYLE
  5
31
330
3
100
AcDbSymbolTableRecord
100
AcDbTextStyleTableRecord
  2
Caddy_Vectorfont4p
 70
     0
 40
0
 41
1.1
 50
0
 71
     0
 42
0.2
  3

  4

1001
ACAD
1000
COMPLEX
1071
        0
  0
STYLE
  5
32
330
3
100
AcDbSymbolTableRecord
100
AcDbTextStyleTableRecord
  2
Caddy_Vectorfont4n
 70
     0
 40
0
 41
1.299999952316284
 50
0
 71
     0
 42
0.2
  3

  4

1001
ACAD
1000
COMPLEX
1071
        0
  0
STYLE
  5
33
330
3
100
AcDbSymbolTableRecord
100
AcDbTextStyleTableRecord
  2
Caddy_Vectorfont5p
 70
     0
 40
0
 41
1
 50
0
 71
     0
 42
0.2
  3

  4

1001
ACAD
1000
COMPLEX
1071
        0
  0
STYLE
  5
34
330
3
100
AcDbSymbolTableRecord
100
AcDbTextStyleTableRecord
  2
Caddy_Vectorfont5n
 70
     0
 40
0
 41
1.200000047683716
 50
0
 71
     0
 42
0.2
  3

  4

1001
ACAD
1000
COMPLEX
1071
        0
  0
STYLE
  5
35
330
3
100
AcDbSymbolTableRecord
100
AcDbTextStyleTableRecord
  2
Caddy_Vectorfont6p
 70
     0
 40
0
 41
0.9
 50
0
 71
     0
 42
0.2
  3

  4

1001
ACAD
1000
TXT
1071
        0
  0
STYLE
  5
36
330
3
100
AcDbSymbolTableRecord
100
AcDbTextStyleTableRecord
  2
Caddy_Vectorfont6n
 70
     0
 40
0
 41
1.100000023841858
 50
0
 71
     0
 42
0.2
  3

  4

1001
ACAD
1000
TXT
1071
        0
  0
STYLE
  5
37
330
3
100
AcDbSymbolTableRecord
100
AcDbTextStyleTableRecord
  2
Caddy_Vectorfont7p
 70
     0
 40
0
 41
1.3
 50
0
 71
     0
 42
0.2
  3

  4

1001
ACAD
1000
Swis721 BdOul BT
1071
        0
  0
STYLE
  5
38
330
3
100
AcDbSymbolTableRecord
100
AcDbTextStyleTableRecord
  2
Caddy_Vectorfont7n
 70
     0
 40
0
 41
1.5
 50
0
 71
     0
 42
0.2
  3

  4

1001
ACAD
1000
Swis721 BdOul BT
1071
        0
  0
STYLE
  5
39
330
3
100
AcDbSymbolTableRecord
100
AcDbTextStyleTableRecord
  2
Caddy_Vectorfont8p
 70
     0
 40
0
 41
1.5
 50
0
 71
     0
 42
0.2
  3

  4

1001
ACAD
1000
TXT
1071
        0
  0
STYLE
  5
3A
330
3
100
AcDbSymbolTableRecord
100
AcDbTextStyleTableRecord
  2
Caddy_Vectorfont8n
 70
     0
 40
0
 41
1.700000047683716
 50
0
 71
     0
 42
0.2
  3

  4

1001
ACAD
1000
TXT
1071
        0
  0
ENDTAB
  0
TABLE
  2
VIEW
  5
6
330
0
100
AcDbSymbolTable
 70
     0
  0
ENDTAB
  0
TABLE
  2
UCS
  5
7
330
0
100
AcDbSymbolTable
 70
     0
  0
ENDTAB
  0
TABLE
  2
APPID
  5
9
330
0
100
AcDbSymbolTable
 70
     2
  0
APPID
  5
12
330
9
100
AcDbSymbolTableRecord
100
AcDbRegAppTableRecord
  2
ACAD
 70
     0
  0
APPID
  5
2A
330
9
100
AcDbSymbolTableRecord
100
AcDbRegAppTableRecord
  2
ODA
 70
     0
  0
ENDTAB
  0
TABLE
  2
DIMSTYLE
  5
A
330
0
100
AcDbSymbolTable
 70
     1
100
AcDbDimStyleTable
 71
     0
  0
DIMSTYLE
105
27
330
A
100
AcDbSymbolTableRecord
100
AcDbDimStyleTableRecord
  2
ISO-25
 70
     0
 41
2.5
 42
0.625
 43
3.75
 44
1.25
 73
     0
 74
     0
 77
     1
 78
     8
140
2.5
141
2.5
143
0.03937007874016
144
1
146
1
147
0.625
171
     3
172
     1
176
     0
177
     0
178
     0
271
     2
272
     2
273
     2
274
     3
277
     2
278
    44
283
     0
284
     8
289
     3
340
11
371
    -2
372
    -2
341
0
342
0
343
0
344
0
  0
ENDTAB
  0
TABLE
  2
VX
  5
B
330
0
100
AcDbSymbolTable
 70
     1
100
AcDbVXTable
  0
VX_TABLE_RECORD
  5
341
330
B
100
AcDbSymbolTableRecord
100
AcDbVXTableRecord
  2

 70
     0
290
     0
338
0
340
0
  0
ENDTAB
  0
TABLE
  2
BLOCK_RECORD
  5
1
330
0
100
AcDbSymbolTable
 70
    36
  0
BLOCK_RECORD
  5
1F
330
1
100
AcDbSymbolTableRecord
100
AcDbBlockTableRecord
  2
*Model_Space
340
22
  0
BLOCK_RECORD
  5
1B
330
1
100
AcDbSymbolTableRecord
100
AcDbBlockTableRecord
  2
*Paper_Space
340
1E
  0
BLOCK_RECORD
  5
23
330
1
100
AcDbSymbolTableRecord
100
AcDbBlockTableRecord
  2
*Paper_Space0
340
26
  0
BLOCK_RECORD
  5
40
330
1
100
AcDbSymbolTableRecord
100
AcDbBlockTableRecord
  2
Blk1
340
0
102
{BLKREFS
331
43
102
}
  0
BLOCK_RECORD
  5
AC
330
1
100
AcDbSymbolTableRecord
100
AcDbBlockTableRecord
  2
Blk2
340
0
102
{BLKREFS
331
AF
102
}
  0
BLOCK_RECORD
  5
BB
330
1
100
AcDbSymbolTableRecord
100
AcDbBlockTableRecord
  2
Blk3
340
0
102
{BLKREFS
331
BE
102
}
  0
BLOCK_RECORD
  5
CC
330
1
100
AcDbSymbolTableRecord
100
AcDbBlockTableRecord
  2
Blk4
340
0
102
{BLKREFS
331
CF
102
}
  0
BLOCK_RECORD
  5
DB
330
1
100
AcDbSymbolTableRecord
100
AcDbBlockTableRecord
  2
Blk5
340
0
102
{BLKREFS
331
DE
102
}
  0
BLOCK_RECORD
  5
EF
330
1
100
AcDbSymbolTableRecord
100
AcDbBlockTableRecord
  2
Blk6
340
0
102
{BLKREFS
331
F2
102
}
  0
BLOCK_RECORD
  5
104
330
1
100
AcDbSymbolTableRecord
100
AcDbBlockTableRecord
  2
Blk7
340
0
102
{BLKREFS
331
107
102
}
  0
BLOCK_RECORD
  5
124
330
1
100
AcDbSymbolTableRecord
100
AcDbBlockTableRecord
  2
Blk8
340
0
102
{BLKREFS
331
127
102
}
  0
BLOCK_RECORD
  5
130
330
1
100
AcDbSymbolTableRecord
100
AcDbBlockTableRecord
  2
Blk9
340
0
102
{BLKREFS
331
133
102
}
  0
BLOCK_RECORD
  5
13E
330
1
100
AcDbSymbolTableRecord
100
AcDbBlockTableRecord
  2
Blk10
340
0
102
{BLKREFS
331
141
102
}
  0
BLOCK_RECORD
  5
14C
330
1
100
AcDbSymbolTableRecord
100
AcDbBlockTableRecord
  2
Blk11
340
0
102
{BLKREFS
331
14F
102
}
  0
BLOCK_RECORD
  5
15C
330
1
100
AcDbSymbolTableRecord
100
AcDbBlockTableRecord
  2
Blk12
340
0
102
{BLKREFS
331
15F
102
}
  0
BLOCK_RECORD
  5
171
330
1
100
AcDbSymbolTableRecord
100
AcDbBlockTableRecord
  2
Blk13
340
0
102
{BLKREFS
331
174
102
}
  0
BLOCK_RECORD
  5
189
330
1
100
AcDbSymbolTableRecord
100
AcDbBlockTableRecord
  2
Blk14
340
0
102
{BLKREFS
331
18C
102
}
  0
BLOCK_RECORD
  5
195
330
1
100
AcDbSymbolTableRecord
100
AcDbBlockTableRecord
  2
Blk15
340
0
102
{BLKREFS
331
198
102
}
  0
BLOCK_RECORD
  5
1A1
330
1
100
AcDbSymbolTableRecord
100
AcDbBlockTableRecord
  2
Blk16
340
0
102
{BLKREFS
331
1A4
102
}
  0
BLOCK_RECORD
  5
1CD
330
1
100
AcDbSymbolTableRecord
100
AcDbBlockTableRecord
  2
Blk17
340
0
102
{BLKREFS
331
1D0
102
}
  0
BLOCK_RECORD
  5
1F5
330
1
100
AcDbSymbolTableRecord
100
AcDbBlockTableRecord
  2
Blk18
340
0
102
{BLKREFS
331
1F8
102
}
  0
BLOCK_RECORD
  5
209
330
1
100
AcDbSymbolTableRecord
100
AcDbBlockTableRecord
  2
Blk19
340
0
102
{BLKREFS
331
20C
102
}
  0
BLOCK_RECORD
  5
217
330
1
100
AcDbSymbolTableRecord
100
AcDbBlockTableRecord
  2
Blk20
340
0
102
{BLKREFS
331
21A
102
}
  0
BLOCK_RECORD
  5
220
330
1
100
AcDbSymbolTableRecord
100
AcDbBlockTableRecord
  2
Blk21
340
0
102
{BLKREFS
331
223
102
}
  0
BLOCK_RECORD
  5
23B
330
1
100
AcDbSymbolTableRecord
100
AcDbBlockTableRecord
  2
Blk22
340
0
102
{BLKREFS
331
23E
102
}
  0
BLOCK_RECORD
  5
25E
330
1
100
AcDbSymbolTableRecord
100
AcDbBlockTableRecord
  2
Blk23
340
0
102
{BLKREFS
331
261
102
}
  0
BLOCK_RECORD
  5
262
330
1
100
AcDbSymbolTableRecord
100
AcDbBlockTableRecord
  2
Blk24
340
0
102
{BLKREFS
331
265
102
}
  0
BLOCK_RECORD
  5
26A
330
1
100
AcDbSymbolTableRecord
100
AcDbBlockTableRecord
  2
Blk25
340
0
102
{BLKREFS
331
26D
102
}
  0
BLOCK_RECORD
  5
272
330
1
100
AcDbSymbolTableRecord
100
AcDbBlockTableRecord
  2
Blk26
340
0
102
{BLKREFS
331
275
102
}
  0
BLOCK_RECORD
  5
27A
330
1
100
AcDbSymbolTableRecord
100
AcDbBlockTableRecord
  2
Blk27
340
0
102
{BLKREFS
331
27D
102
}
  0
BLOCK_RECORD
  5
282
330
1
100
AcDbSymbolTableRecord
100
AcDbBlockTableRecord
  2
Blk28
340
0
102
{BLKREFS
331
285
102
}
  0
BLOCK_RECORD
  5
28A
330
1
100
AcDbSymbolTableRecord
100
AcDbBlockTableRecord
  2
Blk29
340
0
102
{BLKREFS
331
28D
102
}
  0
BLOCK_RECORD
  5
2C2
330
1
100
AcDbSymbolTableRecord
100
AcDbBlockTableRecord
  2
Blk30
340
0
102
{BLKREFS
331
2C5
102
}
  0
BLOCK_RECORD
  5
2DA
330
1
100
AcDbSymbolTableRecord
100
AcDbBlockTableRecord
  2
Blk31
340
0
102
{BLKREFS
331
2DD
102
}
  0
BLOCK_RECORD
  5
309
330
1
100
AcDbSymbolTableRecord
100
AcDbBlockTableRecord
  2
Blk32
340
0
102
{BLKREFS
331
30C
102
}
  0
BLOCK_RECORD
  5
318
330
1
100
AcDbSymbolTableRecord
100
AcDbBlockTableRecord
  2
Blk33
340
0
102
{BLKREFS
331
31B
102
}
  0
BLOCK_RECORD
  5
329
330
1
100
AcDbSymbolTableRecord
100
AcDbBlockTableRecord
  2
Blk34
340
0
102
{BLKREFS
331
32C
102
}
  0
BLOCK_RECORD
  5
335
330
1
100
AcDbSymbolTableRecord
100
AcDbBlockTableRecord
  2
Blk35
340
0
102
{BLKREFS
331
338
102
}
  0
ENDTAB
  0
ENDSEC
  0
SECTION
  2
BLOCKS
  0
BLOCK
  5
1C
330
1B
100
AcDbEntity
 67
     1
  8
0
100
AcDbBlockBegin
  2
*Paper_Space
 70
     0
 10
0
 20
0
 30
0
  3
*Paper_Space
  1

  0
ENDBLK
  5
1D
330
1B
100
AcDbEntity
 67
     1
  8
0
100
AcDbBlockEnd
  0
BLOCK
  5
20
330
1F
100
AcDbEntity
  8
0
100
AcDbBlockBegin
  2
*Model_Space
 70
     0
 10
0
 20
0
 30
0
  3
*Model_Space
  1

  0
ENDBLK
  5
21
330
1F
100
AcDbEntity
  8
0
100
AcDbBlockEnd
  0
BLOCK
  5
24
330
23
100
AcDbEntity
  8
0
100
AcDbBlockBegin
  2
*Paper_Space0
 70
     0
 10
0
 20
0
 30
0
  3
*Paper_Space0
  1

  0
ENDBLK
  5
25
330
23
100
AcDbEntity
  8
0
100
AcDbBlockEnd
  0
BLOCK
  5
41
330
40
100
AcDbEntity
  8
0
100
AcDbBlockBegin
  2
Blk1
 70
     0
 10
0
 20
0
 30
0
  3
Blk1
  1

  0
LINE
  5
44
330
40
100
AcDbEntity
  8
0
  6
Caddy_Solid
370
    50
100
AcDbLine
 10
10
 20
10
 30
0
 11
10
 21
275
 31
0
  0
LINE
  5
45
330
40
100
AcDbEntity
  8
0
  6
Caddy_Solid
370
    50
100
AcDbLine
 10
10
 20
275
 30
0
 11
410
 21
275
 31
0
  0
LINE
  5
46
330
40
100
AcDbEntity
  8
0
  6
Caddy_Solid
370
    50
100
AcDbLine
 10
410
 20
275
 30
0
 11
410
 21
10
 31
0
  0
LINE
  5
47
330
40
100
AcDbEntity
  8
0
  6
Caddy_Solid
370
    25
100
AcDbLine
 10
50
 20
270
 30
0
 11
50
 21
275
 31
0
  0
TEXT
  5
48
330
40
100
AcDbEntity
  8
0
370
    25
100
AcDbText
 10
29.14336390228272
 20
271.2000122070312
 30
0
 40
2.449981689453125
  1
0
 41
0.9
  7
Caddy_Vectorfont1p
 72
     1
 11
30
 21
271.2000122070312
 31
0
100
AcDbText
  0
TEXT
  5
49
330
40
100
AcDbEntity
  8
0
370
    25
100
AcDbText
 10
30
 20
265.2000122070312
 30
0
 40
2.449981689453125
  1

 41
0.9
  7
Caddy_Vectorfont1p
 72
     1
 11
30
 21
265.2000122070312
 31
0
100
AcDbText
  0
LINE
  5
4A
330
40
100
AcDbEntity
  8
0
  6
Caddy_Solid
370
    25
100
AcDbLine
 10
90
 20
270
 30
0
 11
90
 21
275
 31
0
  0
LINE
  5
4B
330
40
100
AcDbEntity
  8
0
  6
Caddy_Solid
370
    25
100
AcDbLine
 10
130
 20
270
 30
0
 11
130
 21
275
 31
0
  0
LINE
  5
4C
330
40
100
AcDbEntity
  8
0
  6
Caddy_Solid
370
    25
100
AcDbLine
 10
170
 20
270
 30
0
 11
170
 21
275
 31
0
  0
LINE
  5
4D
330
40
100
AcDbEntity
  8
0
  6
Caddy_Solid
370
    25
100
AcDbLine
 10
210
 20
270
 30
0
 11
210
 21
275
 31
0
  0
LINE
  5
4E
330
40
100
AcDbEntity
  8
0
  6
Caddy_Solid
370
    25
100
AcDbLine
 10
250
 20
270
 30
0
 11
250
 21
275
 31
0
  0
LINE
  5
4F
330
40
100
AcDbEntity
  8
0
  6
Caddy_Solid
370
    25
100
AcDbLine
 10
290
 20
270
 30
0
 11
290
 21
275
 31
0
  0
LINE
  5
50
330
40
100
AcDbEntity
  8
0
  6
Caddy_Solid
370
    25
100
AcDbLine
 10
330
 20
270
 30
0
 11
330
 21
275
 31
0
  0
LINE
  5
51
330
40
100
AcDbEntity
  8
0
  6
Caddy_Solid
370
    25
100
AcDbLine
 10
370
 20
270
 30
0
 11
370
 21
275
 31
0
  0
TEXT
  5
52
330
40
100
AcDbEntity
  8
0
370
    25
100
AcDbText
 10
69.38369947662353
 20
271.2000122070312
 30
0
 40
2.449981689453125
  1
1
 41
0.9
  7
Caddy_Vectorfont1p
 72
     1
 11
69.99999237060547
 21
271.2000122070312
 31
0
100
AcDbText
  0
TEXT
  5
53
330
40
100
AcDbEntity
  8
0
370
    25
100
AcDbText
 10
109.1610037704468
 20
271.2000122070312
 30
0
 40
2.449981689453125
  1
2
 41
0.9
  7
Caddy_Vectorfont1p
 72
     1
 11
110
 21
271.2000122070312
 31
0
100
AcDbText
  0
TEXT
  5
54
330
40
100
AcDbEntity
  8
0
370
    25
100
AcDbText
 10
149.1312364929199
 20
271.2000122070312
 30
0
 40
2.449981689453125
  1
3
 41
0.9
  7
Caddy_Vectorfont1p
 72
     1
 11
150
 21
271.2000122070312
 31
0
100
AcDbText
  0
TEXT
  5
55
330
40
100
AcDbEntity
  8
0
370
    25
100
AcDbText
 10
189.0364222015381
 20
271.2000122070312
 30
0
 40
2.449981689453125
  1
4
 41
0.9
  7
Caddy_Vectorfont1p
 72
     1
 11
190
 21
271.2000122070312
 31
0
100
AcDbText
  0
TEXT
  5
56
330
40
100
AcDbEntity
  8
0
370
    25
100
AcDbText
 10
229.1433639022827
 20
271.2000122070312
 30
0
 40
2.449981689453125
  1
5
 41
0.9
  7
Caddy_Vectorfont1p
 72
     1
 11
230
 21
271.2000122070312
 31
0
100
AcDbText
  0
TEXT
  5
57
330
40
100
AcDbEntity
  8
0
370
    25
100
AcDbText
 10
269.1433639022827
 20
271.2000122070312
 30
0
 40
2.449981689453125
  1
6
 41
0.9
  7
Caddy_Vectorfont1p
 72
     1
 11
270
 21
271.2000122070312
 31
0
100
AcDbText
  0
TEXT
  5
58
330
40
100
AcDbEntity
  8
0
370
    25
100
AcDbText
 10
309.140056427002
 20
271.2000122070312
 30
0
 40
2.449981689453125
  1
7
 41
0.9
  7
Caddy_Vectorfont1p
 72
     1
 11
310
 21
271.2000122070312
 31
0
100
AcDbText
  0
TEXT
  5
59
330
40
100
AcDbEntity
  8
0
370
    25
100
AcDbText
 10
349.1433639022827
 20
271.2000122070312
 30
0
 40
2.449981689453125
  1
8
 41
0.9
  7
Caddy_Vectorfont1p
 72
     1
 11
350
 21
271.2000122070312
 31
0
100
AcDbText
  0
TEXT
  5
5A
330
40
100
AcDbEntity
  8
0
370
    25
100
AcDbText
 10
389.1433639022827
 20
271.2000122070312
 30
0
 40
2.449981689453125
  1
9
 41
0.9
  7
Caddy_Vectorfont1p
 72
     1
 11
390
 21
271.2000122070312
 31
0
100
AcDbText
  0
TEXT
  5
5B
330
40
100
AcDbEntity
  8
0
370
    25
100
AcDbText
 10
70
 20
265.2000122070312
 30
0
 40
2.449981689453125
  1

 41
0.9
  7
Caddy_Vectorfont1p
 72
     1
 11
70
 21
265.2000122070312
 31
0
100
AcDbText
  0
TEXT
  5
5C
330
40
100
AcDbEntity
  8
0
370
    25
100
AcDbText
 10
110
 20
265.2000122070312
 30
0
 40
2.449981689453125
  1

 41
0.9
  7
Caddy_Vectorfont1p
 72
     1
 11
110
 21
265.2000122070312
 31
0
100
AcDbText
  0
TEXT
  5
5D
330
40
100
AcDbEntity
  8
0
370
    25
100
AcDbText
 10
150
 20
265.2000122070312
 30
0
 40
2.449981689453125
  1

 41
0.9
  7
Caddy_Vectorfont1p
 72
     1
 11
150
 21
265.2000122070312
 31
0
100
AcDbText
  0
TEXT
  5
5E
330
40
100
AcDbEntity
  8
0
370
    25
100
AcDbText
 10
190
 20
265.2000122070312
 30
0
 40
2.449981689453125
  1

 41
0.9
  7
Caddy_Vectorfont1p
 72
     1
 11
190
 21
265.2000122070312
 31
0
100
AcDbText
  0
TEXT
  5
5F
330
40
100
AcDbEntity
  8
0
370
    25
100
AcDbText
 10
230
 20
265.2000122070312
 30
0
 40
2.449981689453125
  1

 41
0.9
  7
Caddy_Vectorfont1p
 72
     1
 11
230
 21
265.2000122070312
 31
0
100
AcDbText
  0
TEXT
  5
60
330
40
100
AcDbEntity
  8
0
370
    25
100
AcDbText
 10
270.0000305175781
 20
265.2000122070312
 30
0
 40
2.449981689453125
  1

 41
0.9
  7
Caddy_Vectorfont1p
 72
     1
 11
270.0000305175781
 21
265.2000122070312
 31
0
100
AcDbText
  0
TEXT
  5
61
330
40
100
AcDbEntity
  8
0
370
    25
100
AcDbText
 10
310.0000305175781
 20
265.2000122070312
 30
0
 40
2.449981689453125
  1

 41
0.9
  7
Caddy_Vectorfont1p
 72
     1
 11
310.0000305175781
 21
265.2000122070312
 31
0
100
AcDbText
  0
TEXT
  5
62
330
40
100
AcDbEntity
  8
0
370
    25
100
AcDbText
 10
350.0000305175781
 20
265.2000122070312
 30
0
 40
2.449981689453125
  1

 41
0.9
  7
Caddy_Vectorfont1p
 72
     1
 11
350.0000305175781
 21
265.2000122070312
 31
0
100
AcDbText
  0
TEXT
  5
63
330
40
100
AcDbEntity
  8
0
370
    25
100
AcDbText
 10
390.0000305175781
 20
265.2000122070312
 30
0
 40
2.449981689453125
  1

 41
0.9
  7
Caddy_Vectorfont1p
 72
     1
 11
390.0000305175781
 21
265.2000122070312
 31
0
100
AcDbText
  0
LINE
  5
64
330
40
100
AcDbEntity
  8
0
  6
Caddy_Solid
370
    25
100
AcDbLine
 10
15
 20
270
 30
0
 11
15
 21
30
 31
0
  0
LINE
  5
65
330
40
100
AcDbEntity
  8
0
  6
Caddy_Solid
370
    25
100
AcDbLine
 10
405
 20
270
 30
0
 11
405
 21
30
 31
0
  0
LINE
  5
66
330
40
100
AcDbEntity
  8
0
  6
Caddy_Solid
370
    25
100
AcDbLine
 10
15
 20
230
 30
0
 11
10
 21
230
 31
0
  0
LINE
  5
67
330
40
100
AcDbEntity
  8
0
  6
Caddy_Solid
370
    25
100
AcDbLine
 10
15
 20
190
 30
0
 11
10
 21
190
 31
0
  0
LINE
  5
68
330
40
100
AcDbEntity
  8
0
  6
Caddy_Solid
370
    25
100
AcDbLine
 10
15
 20
150
 30
0
 11
10
 21
150
 31
0
  0
LINE
  5
69
330
40
100
AcDbEntity
  8
0
  6
Caddy_Solid
370
    25
100
AcDbLine
 10
10
 20
110
 30
0
 11
15
 21
110
 31
0
  0
LINE
  5
6A
330
40
100
AcDbEntity
  8
0
  6
Caddy_Solid
370
    25
100
AcDbLine
 10
10
 20
70
 30
0
 11
15
 21
70
 31
0
  0
TEXT
  5
6B
330
40
100
AcDbEntity
  8
0
370
    25
100
AcDbText
 10
11.39750137329102
 20
248.6999969482422
 30
0
 40
2.449996948242188
  1
A
 41
0.9
  7
Caddy_Vectorfont1p
 72
     1
 11
12.5
 21
248.6999969482422
 31
0
100
AcDbText
  0
TEXT
  5
6C
330
40
100
AcDbEntity
  8
0
370
    25
100
AcDbText
 10
11.52098121948242
 20
208.6999969482422
 30
0
 40
2.449996948242188
  1
B
 41
0.9
  7
Caddy_Vectorfont1p
 72
     1
 11
12.5
 21
208.6999969482422
 31
0
100
AcDbText
  0
TEXT
  5
6D
330
40
100
AcDbEntity
  8
0
370
    25
100
AcDbText
 10
11.65548605194092
 20
168.6999969482422
 30
0
 40
2.449996948242188
  1
C
 41
0.9
  7
Caddy_Vectorfont1p
 72
     1
 11
12.5
 21
168.6999969482422
 31
0
100
AcDbText
  0
TEXT
  5
6E
330
40
100
AcDbEntity
  8
0
370
    25
100
AcDbText
 10
11.52098121948242
 20
128.6999969482422
 30
0
 40
2.449996948242188
  1
D
 41
0.9
  7
Caddy_Vectorfont1p
 72
     1
 11
12.5
 21
128.6999969482422
 31
0
100
AcDbText
  0
TEXT
  5
6F
330
40
100
AcDbEntity
  8
0
370
    25
100
AcDbText
 10
11.65548342208862
 20
88.69999694824219
 30
0
 40
2.450004577636719
  1
E
 41
0.9
  7
Caddy_Vectorfont1p
 72
     1
 11
12.5
 21
88.69999694824219
 31
0
100
AcDbText
  0
TEXT
  5
70
330
40
100
AcDbEntity
  8
0
370
    25
100
AcDbText
 10
11.65548473701477
 20
48.70000076293945
 30
0
 40
2.450000762939453
  1
F
 41
0.9
  7
Caddy_Vectorfont1p
 72
     1
 11
12.5
 21
48.70000076293945
 31
0
100
AcDbText
  0
LINE
  5
71
330
40
100
AcDbEntity
  8
0
  6
Caddy_Solid
370
    25
100
AcDbLine
 10
410
 20
230
 30
0
 11
405
 21
230
 31
0
  0
LINE
  5
72
330
40
100
AcDbEntity
  8
0
  6
Caddy_Solid
370
    25
100
AcDbLine
 10
410
 20
190
 30
0
 11
405
 21
190
 31
0
  0
LINE
  5
73
330
40
100
AcDbEntity
  8
0
  6
Caddy_Solid
370
    25
100
AcDbLine
 10
410
 20
150
 30
0
 11
405
 21
150
 31
0
  0
LINE
  5
74
330
40
100
AcDbEntity
  8
0
  6
Caddy_Solid
370
    25
100
AcDbLine
 10
405
 20
110
 30
0
 11
410
 21
110
 31
0
  0
LINE
  5
75
330
40
100
AcDbEntity
  8
0
  6
Caddy_Solid
370
    25
100
AcDbLine
 10
405
 20
70
 30
0
 11
410
 21
70
 31
0
  0
TEXT
  5
76
330
40
100
AcDbEntity
  8
0
370
    25
100
AcDbText
 10
406.397501373291
 20
248.6999969482422
 30
0
 40
2.449996948242188
  1
A
 41
0.9
  7
Caddy_Vectorfont1p
 72
     1
 11
407.5
 21
248.6999969482422
 31
0
100
AcDbText
  0
TEXT
  5
77
330
40
100
AcDbEntity
  8
0
370
    25
100
AcDbText
 10
406.5209812194824
 20
208.6999969482422
 30
0
 40
2.449996948242188
  1
B
 41
0.9
  7
Caddy_Vectorfont1p
 72
     1
 11
407.5
 21
208.6999969482422
 31
0
100
AcDbText
  0
TEXT
  5
78
330
40
100
AcDbEntity
  8
0
370
    25
100
AcDbText
 10
406.6554860519409
 20
168.6999969482422
 30
0
 40
2.449996948242188
  1
C
 41
0.9
  7
Caddy_Vectorfont1p
 72
     1
 11
407.5
 21
168.6999969482422
 31
0
100
AcDbText
  0
TEXT
  5
79
330
40
100
AcDbEntity
  8
0
370
    25
100
AcDbText
 10
406.5209812194824
 20
128.6999969482422
 30
0
 40
2.449996948242188
  1
D
 41
0.9
  7
Caddy_Vectorfont1p
 72
     1
 11
407.5
 21
128.6999969482422
 31
0
100
AcDbText
  0
TEXT
  5
7A
330
40
100
AcDbEntity
  8
0
370
    25
100
AcDbText
 10
406.6554834220887
 20
88.69999694824219
 30
0
 40
2.450004577636719
  1
E
 41
0.9
  7
Caddy_Vectorfont1p
 72
     1
 11
407.5
 21
88.69999694824219
 31
0
100
AcDbText
  0
TEXT
  5
7B
330
40
100
AcDbEntity
  8
0
370
    25
100
AcDbText
 10
406.6554847370148
 20
48.70000076293945
 30
0
 40
2.450000762939453
  1
F
 41
0.9
  7
Caddy_Vectorfont1p
 72
     1
 11
407.5
 21
48.70000076293945
 31
0
100
AcDbText
  0
LINE
  5
7C
330
40
100
AcDbEntity
  8
0
  6
Caddy_Solid
370
    25
100
AcDbLine
 10
15
 20
270
 30
0
 11
405
 21
270
 31
0
  0
LINE
  5
7D
330
40
100
AcDbEntity
  8
0
  6
Caddy_Solid
370
    50
100
AcDbLine
 10
410
 20
10
 30
0
 11
10
 21
10
 31
0
  0
LINE
  5
7E
330
40
100
AcDbEntity
  8
0
  6
Caddy_Solid
370
    50
100
AcDbLine
 10
10
 20
30
 30
0
 11
410
 21
30
 31
0
  0
LINE
  5
7F
330
40
100
AcDbEntity
  8
0
  6
Caddy_Solid
370
    25
100
AcDbLine
 10
260
 20
20
 30
0
 11
410
 21
20
 31
0
  0
LINE
  5
80
330
40
100
AcDbEntity
  8
0
  6
Caddy_Solid
370
    25
100
AcDbLine
 10
10
 20
30
 30
0
 11
15
 21
30
 31
0
  0
LINE
  5
81
330
40
100
AcDbEntity
  8
0
  6
Caddy_Solid
370
    25
100
AcDbLine
 10
405
 20
30
 30
0
 11
410
 21
30
 31
0
  0
LINE
  5
82
330
40
100
AcDbEntity
  8
0
  6
Caddy_Solid
370
    50
100
AcDbLine
 10
65
 20
30
 30
0
 11
65
 21
10
 31
0
  0
TEXT
  5
83
330
40
100
AcDbEntity
  8
0
370
    25
100
AcDbText
 10
69.19999694824219
 20
14.19999980926514
 30
0
 40
2.449999809265137
  1
Kassepakker
 41
0.9
  7
Caddy_Vectorfont1p
 11
0
 21
0
 31
0
100
AcDbText
  0
TEXT
  5
84
330
40
100
AcDbEntity
  8
0
370
    25
100
AcDbText
 10
69.19999694824219
 20
23.20000076293945
 30
0
 40
2.44999885559082
  1
MPN - GUIDED BY VISION
 41
0.9
  7
Caddy_Vectorfont1p
 11
0
 21
0
 31
0
100
AcDbText
  0
TEXT
  5
85
330
40
100
AcDbEntity
  8
0
370
    25
100
AcDbText
 10
69.19999694824219
 20
18.70000076293945
 30
0
 40
2.44999885559082
  1
Søris
 41
0.9
  7
Caddy_Vectorfont1p
 11
0
 21
0
 31
0
100
AcDbText
  0
LINE
  5
86
330
40
100
AcDbEntity
  8
0
  6
Caddy_Solid
370
    50
100
AcDbLine
 10
160
 20
30
 30
0
 11
160
 21
10
 31
0
  0
TEXT
  5
87
330
40
100
AcDbEntity
  8
0
370
    25
100
AcDbText
 10
164.1999969482422
 20
23.20000076293945
 30
0
 40
2.44999885559082
  1
Nødstopsrelæ
 41
0.9
  7
Caddy_Vectorfont1p
 11
0
 21
0
 31
0
100
AcDbText
  0
TEXT
  5
88
330
40
100
AcDbEntity
  8
0
370
    25
100
AcDbText
 10
164.1999969482422
 20
18.70000076293945
 30
0
 40
2.44999885559082
  1

 41
0.9
  7
Caddy_Vectorfont1p
 11
0
 21
0
 31
0
100
AcDbText
  0
TEXT
  5
89
330
40
100
AcDbEntity
  8
0
370
    25
100
AcDbText
 10
164.1999969482422
 20
14.19999980926514
 30
0
 40
2.449999809265137
  1

 41
0.9
  7
Caddy_Vectorfont1p
 11
0
 21
0
 31
0
100
AcDbText
  0
LINE
  5
8A
330
40
100
AcDbEntity
  8
0
  6
Caddy_Solid
370
    50
100
AcDbLine
 10
260
 20
30
 30
0
 11
260
 21
10
 31
0
  0
TEXT
  5
8B
330
40
100
AcDbEntity
  8
0
370
    25
100
AcDbText
 10
261.2000122070312
 20
26.20000076293945
 30
0
 40
2.44999885559082
  1
Projekt:
 41
0.9
  7
Caddy_Vectorfont1p
 11
0
 21
0
 31
0
100
AcDbText
  0
TEXT
  5
8C
330
40
100
AcDbEntity
  8
0
370
    25
100
AcDbText
 10
261.2000122070312
 20
16.20000076293945
 30
0
 40
2.44999885559082
  1
Dato:
 41
0.9
  7
Caddy_Vectorfont1p
 11
0
 21
0
 31
0
100
AcDbText
  0
LINE
  5
8D
330
40
100
AcDbEntity
  8
0
  6
Caddy_Solid
370
    25
100
AcDbLine
 10
290
 20
30
 30
0
 11
290
 21
10
 31
0
  0
TEXT
  5
8E
330
40
100
AcDbEntity
  8
0
370
    25
100
AcDbText
 10
291.2000122070312
 20
16.20000076293945
 30
0
 40
2.44999885559082
  1
Funkt.:
 41
0.9
  7
Caddy_Vectorfont1p
 11
0
 21
0
 31
0
100
AcDbText
  0
TEXT
  5
8F
330
40
100
AcDbEntity
  8
0
370
    25
100
AcDbText
 10
291.2000122070312
 20
26.20000076293945
 30
0
 40
2.44999885559082
  1
Tegn. nr.:
 41
0.9
  7
Caddy_Vectorfont1p
 11
0
 21
0
 31
0
100
AcDbText
  0
TEXT
  5
90
330
40
100
AcDbEntity
  8
0
370
    25
100
AcDbText
 10
256.7441815986633
 20
21.70000076293945
 30
0
 40
2.44999885559082
  1
Servo_kassepakker
 41
0.9
  7
Caddy_Vectorfont1p
 72
     2
 11
286.2999877929688
 21
21.70000076293945
 31
0
100
AcDbText
  0
TEXT
  5
91
330
40
100
AcDbEntity
  8
0
370
    25
100
AcDbText
 10
269.9807535458565
 20
11.69999980926514
 30
0
 40
2.449999809265137
  1
31-05-2005
 41
0.9
  7
Caddy_Vectorfont1p
 72
     2
 11
286.2999572753906
 21
11.69999980926514
 31
0
100
AcDbText
  0
LINE
  5
92
330
40
100
AcDbEntity
  8
0
  6
Caddy_Solid
370
    25
100
AcDbLine
 10
320
 20
20
 30
0
 11
320
 21
10
 31
0
  0
TEXT
  5
93
330
40
100
AcDbEntity
  8
0
370
    25
100
AcDbText
 10
321.2000122070312
 20
16.20000076293945
 30
0
 40
2.44999885559082
  1
Plac.:
 41
0.9
  7
Caddy_Vectorfont1p
 11
0
 21
0
 31
0
100
AcDbText
  0
TEXT
  5
94
330
40
100
AcDbEntity
  8
0
370
    25
100
AcDbText
 10
314.9527328978539
 20
11.69999980926514
 30
0
 40
2.449999809265137
  1
=
 41
0.9
  7
Caddy_Vectorfont1p
 72
     2
 11
316.2999877929688
 21
11.69999980926514
 31
0
100
AcDbText
  0
LINE
  5
95
330
40
100
AcDbEntity
  8
0
  6
Caddy_Solid
370
    25
100
AcDbLine
 10
382.5
 20
20
 30
0
 11
382.5
 21
30
 31
0
  0
LINE
  5
96
330
40
100
AcDbEntity
  8
0
  6
Caddy_Solid
370
    25
100
AcDbLine
 10
382.5
 20
10
 30
0
 11
382.5
 21
20
 31
0
  0
TEXT
  5
97
330
40
100
AcDbEntity
  8
0
370
    25
100
AcDbText
 10
349.952763415432
 20
11.69999980926514
 30
0
 40
2.449999809265137
  1
+
 41
0.9
  7
Caddy_Vectorfont1p
 72
     2
 11
351.3000183105469
 21
11.69999980926514
 31
0
100
AcDbText
  0
LINE
  5
98
330
40
100
AcDbEntity
  8
0
  6
Caddy_Solid
370
    25
100
AcDbLine
 10
355
 20
10
 30
0
 11
355
 21
20
 31
0
  0
LINE
  5
99
330
40
100
AcDbEntity
  8
0
  6
Caddy_Solid
370
    25
100
AcDbLine
 10
355
 20
20
 30
0
 11
355
 21
30
 31
0
  0
TEXT
  5
9A
330
40
100
AcDbEntity
  8
0
370
    25
100
AcDbText
 10
356.2000122070312
 20
26.20000076293945
 30
0
 40
2.44999885559082
  1
Rev.:
 41
0.9
  7
Caddy_Vectorfont1p
 11
0
 21
0
 31
0
100
AcDbText
  0
LINE
  5
9B
330
40
100
AcDbEntity
  8
0
  6
Caddy_Solid
370
    25
100
AcDbLine
 10
337.5
 20
20
 30
0
 11
337.5
 21
30
 31
0
  0
TEXT
  5
9C
330
40
100
AcDbEntity
  8
0
370
    35
100
AcDbText
 10
333.5
 20
21.75
 30
0
 40
3.5
  1

 41
0.9
  7
Caddy_Vectorfont1p
 72
     2
 11
333.5
 21
21.75
 31
0
100
AcDbText
  0
TEXT
  5
9D
330
40
100
AcDbEntity
  8
0
370
    25
100
AcDbText
 10
338.7000122070312
 20
26.20000076293945
 30
0
 40
2.44999885559082
  1
Init.:
 41
0.9
  7
Caddy_Vectorfont1p
 11
0
 21
0
 31
0
100
AcDbText
  0
TEXT
  5
9E
330
40
100
AcDbEntity
  8
0
370
    25
100
AcDbText
 10
351.3000183105469
 20
21.70000076293945
 30
0
 40
2.44999885559082
  1

 41
0.9
  7
Caddy_Vectorfont1p
 72
     2
 11
351.3000183105469
 21
21.70000076293945
 31
0
100
AcDbText
  0
TEXT
  5
9F
330
40
100
AcDbEntity
  8
0
370
    25
100
AcDbText
 10
378.8000183105469
 20
21.70000076293945
 30
0
 40
2.44999885559082
  1

 41
0.9
  7
Caddy_Vectorfont1p
 72
     2
 11
378.8000183105469
 21
21.70000076293945
 31
0
100
AcDbText
  0
TEXT
  5
A0
330
40
100
AcDbEntity
  8
0
370
    35
100
AcDbText
 10
401.2907
 20
21.75
 30
0
 40
3.5
  1
8
 41
0.9
  7
Caddy_Vectorfont1p
 72
     2
 11
403.25
 21
21.75
 31
0
100
AcDbText
  0
TEXT
  5
A1
330
40
100
AcDbEntity
  8
0
370
    35
100
AcDbText
 10
405.25
 20
21.75
 30
0
 40
3.5
  1

 41
0.9
  7
Caddy_Vectorfont1p
 11
0
 21
0
 31
0
100
AcDbText
  0
TEXT
  5
A2
330
40
100
AcDbEntity
  8
0
370
    25
100
AcDbText
 10
383.7000122070312
 20
26.20000076293945
 30
0
 40
2.44999885559082
  1
Blad:
 41
0.9
  7
Caddy_Vectorfont1p
 11
0
 21
0
 31
0
100
AcDbText
  0
TEXT
  5
A3
330
40
100
AcDbEntity
  8
0
370
    25
100
AcDbText
 10
404.9285084173202
 20
11.69999980926514
 30
0
 40
2.449999809265137
  1
9
 41
0.9
  7
Caddy_Vectorfont1p
 72
     2
 11
406.3000183105469
 21
11.69999980926514
 31
0
100
AcDbText
  0
TEXT
  5
A4
330
40
100
AcDbEntity
  8
0
370
    25
100
AcDbText
 10
383.7000122070312
 20
16.20000076293945
 30
0
 40
2.44999885559082
  1
Næste blad:
 41
0.9
  7
Caddy_Vectorfont1p
 11
0
 21
0
 31
0
100
AcDbText
  0
TEXT
  5
A5
330
40
100
AcDbEntity
  8
0
370
    25
100
AcDbText
 10
356.2000122070312
 20
16.20000076293945
 30
0
 40
2.44999885559082
  1
Antal blade:
 41
0.9
  7
Caddy_Vectorfont1p
 11
0
 21
0
 31
0
100
AcDbText
  0
TEXT
  5
A6
330
40
100
AcDbEntity
  8
0
370
    25
100
AcDbText
 10
376.202528512764
 20
11.69999980926514
 30
0
 40
2.449999809265137
  1
31
 41
0.9
  7
Caddy_Vectorfont1p
 72
     2
 11
378.8000183105469
 21
11.69999980926514
 31
0
100
AcDbText
  0
IMAGE
  5
A9
330
40
100
AcDbEntity
  8
0
 92
        8
310
0000000000000000
100
AcDbRasterImage
 90
        0
 10
12
 20
15
 30
0
 11
0.04549509366636931
 21
0
 31
0
 12
0
 22
0.04843332647489241
 32
0
 13
51
 23
10
340
A8
 70
     3
280
     0
281
    50
282
    50
283
     0
360
AB
 71
     1
 14
-0.5
 24
-0.5
 14
50.5
 24
9.5
  0
ENDBLK
  5
42
330
40
100
AcDbEntity
  8
0
100
AcDbBlockEnd
  0
BLOCK
  5
AD
330
AC
100
AcDbEntity
  8
0
100
AcDbBlockBegin
  2
Blk2
 70
     2
 10
0
 20
0
 30
0
  3
Blk2
  1

  0
LINE
  5
B0
330
AC
100
AcDbEntity
  8
0
  6
Caddy_Solid
370
    25
100
AcDbLine
 10
32.5
 20
250
 30
0
 11
30.25
 21
251.25
 31
0
  0
LINE
  5
B1
330
AC
100
AcDbEntity
  8
0
  6
Caddy_Solid
370
    25
100
AcDbLine
 10
32.5
 20
250
 30
0
 11
30.25
 21
248.75
 31
0
  0
ATTDEF
  5
B4
330
AC
100
AcDbEntity
  8
0
370
    25
100
AcDbText
 10
34.26500701904297
 20
250.9000091552734
 30
0
 40
2.449996948242188
  1
0708
 41
0.9
  7
Caddy_Vectorfont1p
 11
0
 21
0
 31
0
100
AcDbAttributeDefinition
  3
Produkt (-)
  2
$TAG160010
 70
     0
  0
ATTDEF
  5
B6
330
AC
100
AcDbEntity
  8
0
370
    25
100
AcDbText
 10
10.48679448699951
 20
248.9499969482422
 30
0
 40
2.449996948242188
  1
7.7
 41
0.9
  7
Caddy_Vectorfont1p
 72
     2
 11
27.78499794006348
 21
248.9499969482422
 31
0
100
AcDbAttributeDefinition
  3
Side/strømvej reference
  2
$TAG160500
 70
     0
  0
ATTDEF
  5
B8
330
AC
100
AcDbEntity
  8
0
370
    25
100
AcDbText
 10
34.26500701904297
 20
257.9000244140625
 30
0
 40
2.449981689453125
  1
=
 41
0.9
  7
Caddy_Vectorfont1p
 11
0
 21
0
 31
0
100
AcDbAttributeDefinition
  3
Funktion (=)
  2
$TAG140020
 70
     0
  0
ATTDEF
  5
BA
330
AC
100
AcDbEntity
  8
0
370
    25
100
AcDbText
 10
34.26500701904297
 20
254.4000091552734
 30
0
 40
2.449996948242188
  1
+
 41
0.9
  7
Caddy_Vectorfont1p
 11
0
 21
0
 31
0
100
AcDbAttributeDefinition
  3
Placering (+)
  2
$TAG140050
 70
     0
  0
ENDBLK
  5
AE
330
AC
100
AcDbEntity
  8
0
100
AcDbBlockEnd
  0
BLOCK
  5
BC
330
BB
100
AcDbEntity
  8
0
100
AcDbBlockBegin
  2
Blk3
 70
     2
 10
0
 20
0
 30
0
  3
Blk3
  1

  0
LINE
  5
BF
330
BB
100
AcDbEntity
  8
0
  6
Caddy_Solid
370
    25
100
AcDbLine
 10
382.5
 20
250
 30
0
 11
380.25
 21
251.25
 31
0
  0
LINE
  5
C0
330
BB
100
AcDbEntity
  8
0
  6
Caddy_Solid
370
    25
100
AcDbLine
 10
382.5
 20
250
 30
0
 11
380.25
 21
248.75
 31
0
  0
ATTDEF
  5
C3
330
BB
100
AcDbEntity
  8
0
370
    25
100
AcDbText
 10
360.9785756317139
 20
250.9000091552734
 30
0
 40
2.449996948242188
  1
0708
 41
0.9
  7
Caddy_Vectorfont1p
 72
     2
 11
377.7850646972656
 21
250.9000091552734
 31
0
100
AcDbAttributeDefinition
  3
Produkt (-)
  2
$TAG160010
 70
     0
  0
ATTDEF
  5
C5
330
BB
100
AcDbEntity
  8
0
370
    25
100
AcDbText
 10
383.3650207519531
 20
248.9499969482422
 30
0
 40
2.449996948242188
  1
11.0
 41
0.9
  7
Caddy_Vectorfont1p
 11
0
 21
0
 31
0
100
AcDbAttributeDefinition
  3
Side/strømvej reference
  2
$TAG160500
 70
     0
  0
ATTDEF
  5
C7
330
BB
100
AcDbEntity
  8
0
370
    25
100
AcDbText
 10
360.2421547729492
 20
257.9000244140625
 30
0
 40
2.449981689453125
  1
=
 41
0.9
  7
Caddy_Vectorfont1p
 72
     2
 11
377.7850036621094
 21
257.9000244140625
 31
0
100
AcDbAttributeDefinition
  3
Funktion (=)
  2
$TAG140020
 70
     0
  0
ATTDEF
  5
C9
330
BB
100
AcDbEntity
  8
0
370
    25
100
AcDbText
 10
360.242045513916
 20
254.4000091552734
 30
0
 40
2.449996948242188
  1
+
 41
0.9
  7
Caddy_Vectorfont1p
 72
     2
 11
377.7850036621094
 21
254.4000091552734
 31
0
100
AcDbAttributeDefinition
  3
Placering (+)
  2
$TAG140050
 70
     0
  0
ENDBLK
  5
BD
330
BB
100
AcDbEntity
  8
0
100
AcDbBlockEnd
  0
BLOCK
  5
CD
330
CC
100
AcDbEntity
  8
0
100
AcDbBlockBegin
  2
Blk4
 70
     2
 10
0
 20
0
 30
0
  3
Blk4
  1

  0
LINE
  5
D0
330
CC
100
AcDbEntity
  8
0
  6
Caddy_Solid
370
    25
100
AcDbLine
 10
37.5
 20
70
 30
0
 11
35.25
 21
71.25
 31
0
  0
LINE
  5
D1
330
CC
100
AcDbEntity
  8
0
  6
Caddy_Solid
370
    25
100
AcDbLine
 10
37.5
 20
70
 30
0
 11
35.25
 21
68.75
 31
0
  0
ATTDEF
  5
D4
330
CC
100
AcDbEntity
  8
0
370
    25
100
AcDbText
 10
39.26500701904297
 20
70.89999389648438
 30
0
 40
2.450004577636719
  1
0707
 41
0.9
  7
Caddy_Vectorfont1p
 11
0
 21
0
 31
0
100
AcDbAttributeDefinition
  3
Produkt (-)
  2
$TAG160010
 70
     0
  0
ATTDEF
  5
D6
330
CC
100
AcDbEntity
  8
0
370
    25
100
AcDbText
 10
15.48673871231079
 20
68.94999694824219
 30
0
 40
2.450004577636719
  1
7.9
 41
0.9
  7
Caddy_Vectorfont1p
 72
     2
 11
32.78499603271484
 21
68.94999694824219
 31
0
100
AcDbAttributeDefinition
  3
Side/strømvej reference
  2
$TAG160500
 70
     0
  0
ATTDEF
  5
D8
330
CC
100
AcDbEntity
  8
0
370
    25
100
AcDbText
 10
39.26500701904297
 20
77.89999389648438
 30
0
 40
2.450004577636719
  1
=
 41
0.9
  7
Caddy_Vectorfont1p
 11
0
 21
0
 31
0
100
AcDbAttributeDefinition
  3
Funktion (=)
  2
$TAG140020
 70
     0
  0
ATTDEF
  5
DA
330
CC
100
AcDbEntity
  8
0
370
    25
100
AcDbText
 10
39.26500701904297
 20
74.39999389648438
 30
0
 40
2.450004577636719
  1
+
 41
0.9
  7
Caddy_Vectorfont1p
 11
0
 21
0
 31
0
100
AcDbAttributeDefinition
  3
Placering (+)
  2
$TAG140050
 70
     0
  0
ENDBLK
  5
CE
330
CC
100
AcDbEntity
  8
0
100
AcDbBlockEnd
  0
BLOCK
  5
DC
330
DB
100
AcDbEntity
  8
0
100
AcDbBlockBegin
  2
Blk5
 70
     2
 10
0
 20
0
 30
0
  3
Blk5
  1

  0
LINE
  5
DF
330
DB
100
AcDbEntity
  8
0
  6
Caddy_Solid
370
    25
100
AcDbLine
 10
387.5
 20
70
 30
0
 11
385.25
 21
71.25
 31
0
  0
LINE
  5
E0
330
DB
100
AcDbEntity
  8
0
  6
Caddy_Solid
370
    25
100
AcDbLine
 10
387.5
 20
70
 30
0
 11
385.25
 21
68.75
 31
0
  0
ATTDEF
  5
E3
330
DB
100
AcDbEntity
  8
0
370
    25
100
AcDbText
 10
365.9785232955933
 20
70.89999389648438
 30
0
 40
2.450004577636719
  1
0707
 41
0.9
  7
Caddy_Vectorfont1p
 72
     2
 11
382.7850646972656
 21
70.89999389648438
 31
0
100
AcDbAttributeDefinition
  3
Produkt (-)
  2
$TAG160010
 70
     0
  0
ATTDEF
  5
E5
330
DB
100
AcDbEntity
  8
0
370
    25
100
AcDbText
 10
388.3650207519531
 20
68.94999694824219
 30
0
 40
2.450004577636719
  1
11.0
 41
0.9
  7
Caddy_Vectorfont1p
 11
0
 21
0
 31
0
100
AcDbAttributeDefinition
  3
Side/strømvej reference
  2
$TAG160500
 70
     0
  0
ATTDEF
  5
E7
330
DB
100
AcDbEntity
  8
0
370
    25
100
AcDbText
 10
365.2419908843994
 20
77.89999389648438
 30
0
 40
2.450004577636719
  1
=
 41
0.9
  7
Caddy_Vectorfont1p
 72
     2
 11
382.7850036621094
 21
77.89999389648438
 31
0
100
AcDbAttributeDefinition
  3
Funktion (=)
  2
$TAG140020
 70
     0
  0
ATTDEF
  5
E9
330
DB
100
AcDbEntity
  8
0
370
    25
100
AcDbText
 10
365.2419908843994
 20
74.39999389648438
 30
0
 40
2.450004577636719
  1
+
 41
0.9
  7
Caddy_Vectorfont1p
 72
     2
 11
382.7850036621094
 21
74.39999389648438
 31
0
100
AcDbAttributeDefinition
  3
Placering (+)
  2
$TAG140050
 70
     0
  0
ENDBLK
  5
DD
330
DB
100
AcDbEntity
  8
0
100
AcDbBlockEnd
  0
BLOCK
  5
F0
330
EF
100
AcDbEntity
  8
0
100
AcDbBlockBegin
  2
Blk6
 70
     2
 10
0
 20
0
 30
0
  3
Blk6
  1

  0
LINE
  5
F3
330
EF
100
AcDbEntity
  8
0
  6
Caddy_Solid
370
    25
100
AcDbLine
 10
150
 20
217.5
 30
0
 11
150
 21
220
 31
0
  0
LINE
  5
F4
330
EF
100
AcDbEntity
  8
0
  6
Caddy_Solid
370
    25
100
AcDbLine
 10
150
 20
212.5
 30
0
 11
150
 21
210
 31
0
  0
LINE
  5
F5
330
EF
100
AcDbEntity
  8
0
  6
Caddy_Solid
370
    25
100
AcDbLine
 10
150
 20
217.5
 30
0
 11
152.5
 21
217.5
 31
0
  0
LINE
  5
F6
330
EF
100
AcDbEntity
  8
0
  6
Caddy_Solid
370
    25
100
AcDbLine
 10
150
 20
212.5
 30
0
 11
152.1838073730469
 21
218.5
 31
0
  0
ATTDEF
  5
F9
330
EF
100
AcDbEntity
  8
0
370
    25
100
AcDbText
 10
127.1935414520264
 20
213.8000030517578
 30
0
 40
2.449996948242188
  1
K0804
 41
0.9
  7
Caddy_Vectorfont1p
 72
     2
 11
144.0000305175781
 21
213.8000030517578
 31
0
100
AcDbAttributeDefinition
  3
Produkt (-)
  2
$TAG160010
 70
     0
  0
ATTDEF
  5
FB
330
EF
100
AcDbEntity
  8
0
370
    25
100
AcDbText
 10
126.7018118057251
 20
210.3000030517578
 30
0
 40
2.449996948242188
  1
8.4
 41
0.9
  7
Caddy_Vectorfont1p
 72
     2
 11
144.0000152587891
 21
210.3000030517578
 31
0
100
AcDbAttributeDefinition
  3
Side/strømvej reference
  2
$TAG160500
 70
     0
  0
ATTDEF
  5
FD
330
EF
100
AcDbEntity
  8
0
370
    25
100
AcDbText
 10
149.0500030517578
 20
219.4000091552734
 30
0
 40
2.449996948242188
  1
21
 50
90
 41
0.9
  7
Caddy_Vectorfont1p
 11
0
 21
0
 31
0
100
AcDbAttributeDefinition
  3
Tilslutningstekst 00
  2
$TAG175000_00
 70
     0
  0
ATTDEF
  5
FF
330
EF
100
AcDbEntity
  8
0
370
    25
100
AcDbText
 10
149.0500030517578
 20
187.9658327224732
 30
0
 40
2.449996948242188
  1
22
 50
90
 41
0.9
  7
Caddy_Vectorfont1p
 72
     2
 11
149.0500030517578
 21
210.9000091552734
 31
0
100
AcDbAttributeDefinition
  3
Tilslutningstekst 01
  2
$TAG175000_01
 70
     0
  0
ATTDEF
  5
101
330
EF
100
AcDbEntity
  8
0
370
    25
100
AcDbText
 10
126.4570571105957
 20
220.8000030517578
 30
0
 40
2.449996948242188
  1
=
 41
0.9
  7
Caddy_Vectorfont1p
 72
     2
 11
144.0000152587891
 21
220.8000030517578
 31
0
100
AcDbAttributeDefinition
  3
Funktion (=)
  2
$TAG140020
 70
     0
  0
ATTDEF
  5
103
330
EF
100
AcDbEntity
  8
0
370
    25
100
AcDbText
 10
126.4570418518067
 20
217.3000030517578
 30
0
 40
2.449996948242188
  1
+
 41
0.9
  7
Caddy_Vectorfont1p
 72
     2
 11
144
 21
217.3000030517578
 31
0
100
AcDbAttributeDefinition
  3
Placering (+)
  2
$TAG140050
 70
     0
  0
ENDBLK
  5
F1
330
EF
100
AcDbEntity
  8
0
100
AcDbBlockEnd
  0
BLOCK
  5
105
330
104
100
AcDbEntity
  8
0
100
AcDbBlockBegin
  2
Blk7
 70
     2
 10
0
 20
0
 30
0
  3
Blk7
  1

  0
LINE
  5
108
330
104
100
AcDbEntity
  8
0
  6
Caddy_Solid
370
    25
100
AcDbLine
 10
150
 20
192.5
 30
0
 11
150
 21
195
 31
0
  0
LINE
  5
109
330
104
100
AcDbEntity
  8
0
  6
Caddy_Solid
370
    25
100
AcDbLine
 10
150
 20
187.5
 30
0
 11
150
 21
185
 31
0
  0
LINE
  5
10A
330
104
100
AcDbEntity
  8
0
  6
Caddy_Solid
370
    25
100
AcDbLine
 10
150
 20
192.5
 30
0
 11
152.5
 21
192.5
 31
0
  0
LINE
  5
10B
330
104
100
AcDbEntity
  8
0
  6
Caddy_Solid
370
    25
100
AcDbLine
 10
150
 20
187.5
 30
0
 11
152.1838073730469
 21
193.5
 31
0
  0
ATTDEF
  5
10E
330
104
100
AcDbEntity
  8
0
370
    25
100
AcDbText
 10
127.1935414520264
 20
188.8000030517578
 30
0
 40
2.449996948242188
  1
K0805
 41
0.9
  7
Caddy_Vectorfont1p
 72
     2
 11
144.0000305175781
 21
188.8000030517578
 31
0
100
AcDbAttributeDefinition
  3
Produkt (-)
  2
$TAG160010
 70
     0
  0
ATTDEF
  5
110
330
104
100
AcDbEntity
  8
0
370
    25
100
AcDbText
 10
126.7018118057251
 20
185.3000030517578
 30
0
 40
2.449996948242188
  1
8.5
 41
0.9
  7
Caddy_Vectorfont1p
 72
     2
 11
144.0000152587891
 21
185.3000030517578
 31
0
100
AcDbAttributeDefinition
  3
Side/strømvej reference
  2
$TAG160500
 70
     0
  0
ATTDEF
  5
112
330
104
100
AcDbEntity
  8
0
370
    25
100
AcDbText
 10
149.0500030517578
 20
194.4000091552734
 30
0
 40
2.449996948242188
  1
21
 50
90
 41
0.9
  7
Caddy_Vectorfont1p
 11
0
 21
0
 31
0
100
AcDbAttributeDefinition
  3
Tilslutningstekst 00
  2
$TAG175000_00
 70
     0
  0
ATTDEF
  5
114
330
104
100
AcDbEntity
  8
0
370
    25
100
AcDbText
 10
149.0500030517578
 20
162.9658327224732
 30
0
 40
2.449996948242188
  1
22
 50
90
 41
0.9
  7
Caddy_Vectorfont1p
 72
     2
 11
149.0500030517578
 21
185.9000091552734
 31
0
100
AcDbAttributeDefinition
  3
Tilslutningstekst 01
  2
$TAG175000_01
 70
     0
  0
ATTDEF
  5
116
330
104
100
AcDbEntity
  8
0
370
    25
100
AcDbText
 10
126.4570571105957
 20
195.8000030517578
 30
0
 40
2.449996948242188
  1
=
 41
0.9
  7
Caddy_Vectorfont1p
 72
     2
 11
144.0000152587891
 21
195.8000030517578
 31
0
100
AcDbAttributeDefinition
  3
Funktion (=)
  2
$TAG140020
 70
     0
  0
ATTDEF
  5
118
330
104
100
AcDbEntity
  8
0
370
    25
100
AcDbText
 10
126.4570418518067
 20
192.3000030517578
 30
0
 40
2.449996948242188
  1
+
 41
0.9
  7
Caddy_Vectorfont1p
 72
     2
 11
144
 21
192.3000030517578
 31
0
100
AcDbAttributeDefinition
  3
Placering (+)
  2
$TAG140050
 70
     0
  0
ENDBLK
  5
106
330
104
100
AcDbEntity
  8
0
100
AcDbBlockEnd
  0
BLOCK
  5
125
330
124
100
AcDbEntity
  8
0
100
AcDbBlockBegin
  2
Blk8
 70
     2
 10
0
 20
0
 30
0
  3
Blk8
  1

  0
LINE
  5
128
330
124
100
AcDbEntity
  8
0
  6
Caddy_Solid
370
    25
100
AcDbLine
 10
372.5
 20
195
 30
0
 11
370.25
 21
196.25
 31
0
  0
LINE
  5
129
330
124
100
AcDbEntity
  8
0
  6
Caddy_Solid
370
    25
100
AcDbLine
 10
372.5
 20
195
 30
0
 11
370.25
 21
193.75
 31
0
  0
LINE
  5
12A
330
124
100
AcDbEntity
  8
0
  6
Caddy_Solid
370
    25
100
AcDbLine
 10
370
 20
195
 30
0
 11
372.5
 21
195
 31
0
  0
ATTDEF
  5
12D
330
124
100
AcDbEntity
  8
0
370
    25
100
AcDbText
 10
350.6935109344482
 20
195.9000091552734
 30
0
 40
2.449996948242188
  1
0812
 41
0.9
  7
Caddy_Vectorfont1p
 72
     2
 11
367.5
 21
195.9000091552734
 31
0
100
AcDbAttributeDefinition
  3
Produkt (-)
  2
$TAG160010
 70
     0
  0
ATTDEF
  5
12F
330
124
100
AcDbEntity
  8
0
370
    25
100
AcDbText
 10
374.6500244140625
 20
193.8499908447266
 30
0
 40
2.449996948242188
  1
11.2
 41
0.9
  7
Caddy_Vectorfont1p
 11
0
 21
0
 31
0
100
AcDbAttributeDefinition
  3
Side/strømvej reference
  2
$TAG160500
 70
     0
  0
ENDBLK
  5
126
330
124
100
AcDbEntity
  8
0
100
AcDbBlockEnd
  0
BLOCK
  5
131
330
130
100
AcDbEntity
  8
0
100
AcDbBlockBegin
  2
Blk9
 70
     2
 10
0
 20
0
 30
0
  3
Blk9
  1

  0
LINE
  5
134
330
130
100
AcDbEntity
  8
0
  6
Caddy_Solid
370
    25
100
AcDbLine
 10
377.5
 20
105
 30
0
 11
375.25
 21
106.25
 31
0
  0
LINE
  5
135
330
130
100
AcDbEntity
  8
0
  6
Caddy_Solid
370
    25
100
AcDbLine
 10
377.5
 20
105
 30
0
 11
375.25
 21
103.75
 31
0
  0
LINE
  5
136
330
130
100
AcDbEntity
  8
0
  6
Caddy_Solid
370
    25
100
AcDbLine
 10
375
 20
105
 30
0
 11
377.5
 21
105
 31
0
  0
ATTDEF
  5
139
330
130
100
AcDbEntity
  8
0
370
    25
100
AcDbText
 10
355.6934280807495
 20
105.8999938964844
 30
0
 40
2.450004577636719
  1
0813
 41
0.9
  7
Caddy_Vectorfont1p
 72
     2
 11
372.4999694824219
 21
105.8999938964844
 31
0
100
AcDbAttributeDefinition
  3
Produkt (-)
  2
$TAG160010
 70
     0
  0
ATTDEF
  5
13B
330
130
100
AcDbEntity
  8
0
370
    25
100
AcDbText
 10
379.6500244140625
 20
103.8499908447266
 30
0
 40
2.450004577636719
  1
11.2
 41
0.9
  7
Caddy_Vectorfont1p
 11
0
 21
0
 31
0
100
AcDbAttributeDefinition
  3
Side/strømvej reference
  2
$TAG160500
 70
     0
  0
ENDBLK
  5
132
330
130
100
AcDbEntity
  8
0
100
AcDbBlockEnd
  0
BLOCK
  5
13F
330
13E
100
AcDbEntity
  8
0
100
AcDbBlockBegin
  2
Blk10
 70
     2
 10
0
 20
0
 30
0
  3
Blk10
  1

  0
LINE
  5
142
330
13E
100
AcDbEntity
  8
0
  6
Caddy_Solid
370
    25
100
AcDbLine
 10
357.5
 20
200
 30
0
 11
355.25
 21
201.25
 31
0
  0
LINE
  5
143
330
13E
100
AcDbEntity
  8
0
  6
Caddy_Solid
370
    25
100
AcDbLine
 10
357.5
 20
200
 30
0
 11
355.25
 21
198.75
 31
0
  0
LINE
  5
144
330
13E
100
AcDbEntity
  8
0
  6
Caddy_Solid
370
    25
100
AcDbLine
 10
355
 20
200
 30
0
 11
357.5
 21
200
 31
0
  0
ATTDEF
  5
147
330
13E
100
AcDbEntity
  8
0
370
    25
100
AcDbText
 10
335.6935109344482
 20
200.9000091552734
 30
0
 40
2.449996948242188
  1
0810
 41
0.9
  7
Caddy_Vectorfont1p
 72
     2
 11
352.5
 21
200.9000091552734
 31
0
100
AcDbAttributeDefinition
  3
Produkt (-)
  2
$TAG160010
 70
     0
  0
ATTDEF
  5
149
330
13E
100
AcDbEntity
  8
0
370
    25
100
AcDbText
 10
359.6500244140625
 20
198.8499908447266
 30
0
 40
2.449996948242188
  1
9.1
 41
0.9
  7
Caddy_Vectorfont1p
 11
0
 21
0
 31
0
100
AcDbAttributeDefinition
  3
Side/strømvej reference
  2
$TAG160500
 70
     0
  0
ENDBLK
  5
140
330
13E
100
AcDbEntity
  8
0
100
AcDbBlockEnd
  0
BLOCK
  5
14D
330
14C
100
AcDbEntity
  8
0
100
AcDbBlockBegin
  2
Blk11
 70
     2
 10
0
 20
0
 30
0
  3
Blk11
  1

  0
LINE
  5
150
330
14C
100
AcDbEntity
  8
0
  6
Caddy_Solid
370
    25
100
AcDbLine
 10
357.5
 20
100
 30
0
 11
355.25
 21
101.25
 31
0
  0
LINE
  5
151
330
14C
100
AcDbEntity
  8
0
  6
Caddy_Solid
370
    25
100
AcDbLine
 10
357.5
 20
100
 30
0
 11
355.25
 21
98.75
 31
0
  0
LINE
  5
152
330
14C
100
AcDbEntity
  8
0
  6
Caddy_Solid
370
    25
100
AcDbLine
 10
355
 20
100
 30
0
 11
357.5
 21
100
 31
0
  0
ATTDEF
  5
155
330
14C
100
AcDbEntity
  8
0
370
    25
100
AcDbText
 10
335.6934585983277
 20
100.8999938964844
 30
0
 40
2.450004577636719
  1
0811
 41
0.9
  7
Caddy_Vectorfont1p
 72
     2
 11
352.5
 21
100.8999938964844
 31
0
100
AcDbAttributeDefinition
  3
Produkt (-)
  2
$TAG160010
 70
     0
  0
ATTDEF
  5
157
330
14C
100
AcDbEntity
  8
0
370
    25
100
AcDbText
 10
359.6500244140625
 20
98.84999084472656
 30
0
 40
2.450004577636719
  1
9.0
 41
0.9
  7
Caddy_Vectorfont1p
 11
0
 21
0
 31
0
100
AcDbAttributeDefinition
  3
Side/strømvej reference
  2
$TAG160500
 70
     0
  0
ENDBLK
  5
14E
330
14C
100
AcDbEntity
  8
0
100
AcDbBlockEnd
  0
BLOCK
  5
15D
330
15C
100
AcDbEntity
  8
0
100
AcDbBlockBegin
  2
Blk12
 70
     2
 10
0
 20
0
 30
0
  3
Blk12
  1

  0
LINE
  5
160
330
15C
100
AcDbEntity
  8
0
  6
Caddy_Solid
370
    25
100
AcDbLine
 10
195
 20
87.5
 30
0
 11
195
 21
92.5
 31
0
  0
LINE
  5
161
330
15C
100
AcDbEntity
  8
0
  6
Caddy_Solid
370
    25
100
AcDbLine
 10
195
 20
92.5
 30
0
 11
185
 21
92.5
 31
0
  0
LINE
  5
162
330
15C
100
AcDbEntity
  8
0
  6
Caddy_Solid
370
    25
100
AcDbLine
 10
185
 20
92.5
 30
0
 11
185
 21
87.5
 31
0
  0
LINE
  5
163
330
15C
100
AcDbEntity
  8
0
  6
Caddy_Solid
370
    25
100
AcDbLine
 10
185
 20
87.5
 30
0
 11
195
 21
87.5
 31
0
  0
LINE
  5
164
330
15C
100
AcDbEntity
  8
0
  6
Caddy_Solid
370
    25
100
AcDbLine
 10
190
 20
92.5
 30
0
 11
190
 21
95
 31
0
  0
LINE
  5
165
330
15C
100
AcDbEntity
  8
0
  6
Caddy_Solid
370
    25
100
AcDbLine
 10
190
 20
87.5
 30
0
 11
190
 21
85
 31
0
  0
ATTDEF
  5
168
330
15C
100
AcDbEntity
  8
0
370
    25
100
AcDbText
 10
165.6934891159058
 20
88.80000305175781
 30
0
 40
2.450004577636719
  1
K0804
 41
0.9
  7
Caddy_Vectorfont1p
 72
     2
 11
182.5000305175781
 21
88.80000305175781
 31
0
100
AcDbAttributeDefinition
  3
Produkt (-)
  2
$TAG160010
 70
     0
  0
ATTDEF
  5
16A
330
15C
100
AcDbEntity
  8
0
370
    25
100
AcDbText
 10
164.9570024810791
 20
81.80000305175781
 30
0
 40
2.450004577636719
  1

 41
0.9
  7
Caddy_Vectorfont1p
 72
     2
 11
182.5000152587891
 21
81.80000305175781
 31
0
100
AcDbAttributeDefinition
  3
Type
  2
$TAG160040
 70
     0
  0
ATTDEF
  5
16C
330
15C
100
AcDbEntity
  8
0
370
    25
100
AcDbText
 10
165.201757938385
 20
85.30000305175781
 30
0
 40
2.450004577636719
  1

 41
0.9
  7
Caddy_Vectorfont1p
 72
     2
 11
182.5000152587891
 21
85.30000305175781
 31
0
100
AcDbAttributeDefinition
  3
Beskrivelse 00
  2
$TAG160030
 70
     0
  0
ATTDEF
  5
16E
330
15C
100
AcDbEntity
  8
0
370
    25
100
AcDbText
 10
189.0500030517578
 20
93.39999389648438
 30
0
 40
2.450004577636719
  1
A1
 50
90
 41
0.9
  7
Caddy_Vectorfont1p
 11
0
 21
0
 31
0
100
AcDbAttributeDefinition
  3
Tilslutningstekst 00
  2
$TAG175000_00
 70
     0
  0
ATTDEF
  5
170
330
15C
100
AcDbEntity
  8
0
370
    25
100
AcDbText
 10
189.0500030517578
 20
62.96576130447388
 30
0
 40
2.450004577636719
  1
A2
 50
90
 41
0.9
  7
Caddy_Vectorfont1p
 72
     2
 11
189.0500030517578
 21
85.90000915527344
 31
0
100
AcDbAttributeDefinition
  3
Tilslutningstekst 01
  2
$TAG175000_01
 70
     0
  0
ENDBLK
  5
15E
330
15C
100
AcDbEntity
  8
0
100
AcDbBlockEnd
  0
BLOCK
  5
172
330
171
100
AcDbEntity
  8
0
100
AcDbBlockBegin
  2
Blk13
 70
     2
 10
0
 20
0
 30
0
  3
Blk13
  1

  0
LINE
  5
175
330
171
100
AcDbEntity
  8
0
  6
Caddy_Solid
370
    25
100
AcDbLine
 10
215
 20
87.5
 30
0
 11
215
 21
92.5
 31
0
  0
LINE
  5
176
330
171
100
AcDbEntity
  8
0
  6
Caddy_Solid
370
    25
100
AcDbLine
 10
215
 20
92.5
 30
0
 11
205
 21
92.5
 31
0
  0
LINE
  5
177
330
171
100
AcDbEntity
  8
0
  6
Caddy_Solid
370
    25
100
AcDbLine
 10
205
 20
92.5
 30
0
 11
205
 21
87.5
 31
0
  0
LINE
  5
178
330
171
100
AcDbEntity
  8
0
  6
Caddy_Solid
370
    25
100
AcDbLine
 10
205
 20
87.5
 30
0
 11
215
 21
87.5
 31
0
  0
LINE
  5
179
330
171
100
AcDbEntity
  8
0
  6
Caddy_Solid
370
    25
100
AcDbLine
 10
210
 20
92.5
 30
0
 11
210
 21
95
 31
0
  0
LINE
  5
17A
330
171
100
AcDbEntity
  8
0
  6
Caddy_Solid
370
    25
100
AcDbLine
 10
210
 20
87.5
 30
0
 11
210
 21
85
 31
0
  0
ATTDEF
  5
17D
330
171
100
AcDbEntity
  8
0
370
    25
100
AcDbText
 10
185.6934891159058
 20
88.80000305175781
 30
0
 40
2.450004577636719
  1
K0805
 41
0.9
  7
Caddy_Vectorfont1p
 72
     2
 11
202.5000305175781
 21
88.80000305175781
 31
0
100
AcDbAttributeDefinition
  3
Produkt (-)
  2
$TAG160010
 70
     0
  0
ATTDEF
  5
17F
330
171
100
AcDbEntity
  8
0
370
    25
100
AcDbText
 10
184.9570024810791
 20
81.80000305175781
 30
0
 40
2.450004577636719
  1

 41
0.9
  7
Caddy_Vectorfont1p
 72
     2
 11
202.5000152587891
 21
81.80000305175781
 31
0
100
AcDbAttributeDefinition
  3
Type
  2
$TAG160040
 70
     0
  0
ATTDEF
  5
181
330
171
100
AcDbEntity
  8
0
370
    25
100
AcDbText
 10
185.201757938385
 20
85.30000305175781
 30
0
 40
2.450004577636719
  1

 41
0.9
  7
Caddy_Vectorfont1p
 72
     2
 11
202.5000152587891
 21
85.30000305175781
 31
0
100
AcDbAttributeDefinition
  3
Beskrivelse 00
  2
$TAG160030
 70
     0
  0
ATTDEF
  5
183
330
171
100
AcDbEntity
  8
0
370
    25
100
AcDbText
 10
209.0500030517578
 20
93.39999389648438
 30
0
 40
2.450004577636719
  1
A1
 50
90
 41
0.9
  7
Caddy_Vectorfont1p
 11
0
 21
0
 31
0
100
AcDbAttributeDefinition
  3
Tilslutningstekst 00
  2
$TAG175000_00
 70
     0
  0
ATTDEF
  5
185
330
171
100
AcDbEntity
  8
0
370
    25
100
AcDbText
 10
209.0500030517578
 20
62.96576130447388
 30
0
 40
2.450004577636719
  1
A2
 50
90
 41
0.9
  7
Caddy_Vectorfont1p
 72
     2
 11
209.0500030517578
 21
85.90000915527344
 31
0
100
AcDbAttributeDefinition
  3
Tilslutningstekst 01
  2
$TAG175000_01
 70
     0
  0
ENDBLK
  5
173
330
171
100
AcDbEntity
  8
0
100
AcDbBlockEnd
  0
BLOCK
  5
18A
330
189
100
AcDbEntity
  8
0
100
AcDbBlockBegin
  2
Blk14
 70
     2
 10
0
 20
0
 30
0
  3
Blk14
  1

  0
LINE
  5
18D
330
189
100
AcDbEntity
  8
0
  6
Caddy_Solid
370
    25
100
AcDbLine
 10
342.5
 20
95
 30
0
 11
340.25
 21
96.25
 31
0
  0
LINE
  5
18E
330
189
100
AcDbEntity
  8
0
  6
Caddy_Solid
370
    25
100
AcDbLine
 10
342.5
 20
95
 30
0
 11
340.25
 21
93.75
 31
0
  0
LINE
  5
18F
330
189
100
AcDbEntity
  8
0
  6
Caddy_Solid
370
    25
100
AcDbLine
 10
340
 20
95
 30
0
 11
342.5
 21
95
 31
0
  0
ATTDEF
  5
192
330
189
100
AcDbEntity
  8
0
370
    25
100
AcDbText
 10
320.6934585983277
 20
95.89999389648438
 30
0
 40
2.450004577636719
  1
0809
 41
0.9
  7
Caddy_Vectorfont1p
 72
     2
 11
337.5
 21
95.89999389648438
 31
0
100
AcDbAttributeDefinition
  3
Produkt (-)
  2
$TAG160010
 70
     0
  0
ATTDEF
  5
194
330
189
100
AcDbEntity
  8
0
370
    25
100
AcDbText
 10
344.6500244140625
 20
93.84999084472656
 30
0
 40
2.450004577636719
  1
11.4
 41
0.9
  7
Caddy_Vectorfont1p
 11
0
 21
0
 31
0
100
AcDbAttributeDefinition
  3
Side/strømvej reference
  2
$TAG160500
 70
     0
  0
ENDBLK
  5
18B
330
189
100
AcDbEntity
  8
0
100
AcDbBlockEnd
  0
BLOCK
  5
196
330
195
100
AcDbEntity
  8
0
100
AcDbBlockBegin
  2
Blk15
 70
     2
 10
0
 20
0
 30
0
  3
Blk15
  1

  0
LINE
  5
199
330
195
100
AcDbEntity
  8
0
  6
Caddy_Solid
370
    25
100
AcDbLine
 10
202.5
 20
240
 30
0
 11
200.25
 21
241.25
 31
0
  0
LINE
  5
19A
330
195
100
AcDbEntity
  8
0
  6
Caddy_Solid
370
    25
100
AcDbLine
 10
202.5
 20
240
 30
0
 11
200.25
 21
238.75
 31
0
  0
LINE
  5
19B
330
195
100
AcDbEntity
  8
0
  6
Caddy_Solid
370
    25
100
AcDbLine
 10
200
 20
240
 30
0
 11
202.5
 21
240
 31
0
  0
ATTDEF
  5
19E
330
195
100
AcDbEntity
  8
0
370
    25
100
AcDbText
 10
180.6935414520264
 20
240.9000091552734
 30
0
 40
2.449996948242188
  1
0802
 41
0.9
  7
Caddy_Vectorfont1p
 72
     2
 11
197.5000305175781
 21
240.9000091552734
 31
0
100
AcDbAttributeDefinition
  3
Produkt (-)
  2
$TAG160010
 70
     0
  0
ATTDEF
  5
1A0
330
195
100
AcDbEntity
  8
0
370
    25
100
AcDbText
 10
204.6500091552734
 20
238.8499908447266
 30
0
 40
2.449996948242188
  1
11.3
 41
0.9
  7
Caddy_Vectorfont1p
 11
0
 21
0
 31
0
100
AcDbAttributeDefinition
  3
Side/strømvej reference
  2
$TAG160500
 70
     0
  0
ENDBLK
  5
197
330
195
100
AcDbEntity
  8
0
100
AcDbBlockEnd
  0
BLOCK
  5
1A2
330
1A1
100
AcDbEntity
  8
0
100
AcDbBlockBegin
  2
Blk16
 70
     2
 10
0
 20
0
 30
0
  3
Blk16
  1

  0
LINE
  5
1A5
330
1A1
100
AcDbEntity
  8
0
  6
Caddy_Solid
370
    25
100
AcDbLine
 10
202.5
 20
235
 30
0
 11
200.25
 21
236.25
 31
0
  0
LINE
  5
1A6
330
1A1
100
AcDbEntity
  8
0
  6
Caddy_Solid
370
    25
100
AcDbLine
 10
202.5
 20
235
 30
0
 11
200.25
 21
233.75
 31
0
  0
LINE
  5
1A7
330
1A1
100
AcDbEntity
  8
0
  6
Caddy_Solid
370
    25
100
AcDbLine
 10
200
 20
235
 30
0
 11
202.5
 21
235
 31
0
  0
ATTDEF
  5
1AA
330
1A1
100
AcDbEntity
  8
0
370
    25
100
AcDbText
 10
180.6935261932373
 20
235.9000091552734
 30
0
 40
2.449996948242188
  1
0805
 41
0.9
  7
Caddy_Vectorfont1p
 72
     2
 11
197.5000152587891
 21
235.9000091552734
 31
0
100
AcDbAttributeDefinition
  3
Produkt (-)
  2
$TAG160010
 70
     0
  0
ATTDEF
  5
1AC
330
1A1
100
AcDbEntity
  8
0
370
    25
100
AcDbText
 10
204.6500091552734
 20
233.8499908447266
 30
0
 40
2.449996948242188
  1
11.3
 41
0.9
  7
Caddy_Vectorfont1p
 11
0
 21
0
 31
0
100
AcDbAttributeDefinition
  3
Side/strømvej reference
  2
$TAG160500
 70
     0
  0
ENDBLK
  5
1A3
330
1A1
100
AcDbEntity
  8
0
100
AcDbBlockEnd
  0
BLOCK
  5
1CE
330
1CD
100
AcDbEntity
  8
0
100
AcDbBlockBegin
  2
Blk17
 70
     2
 10
0
 20
0
 30
0
  3
Blk17
  1

  0
CIRCLE
  5
1D1
330
1CD
100
AcDbEntity
  8
0
  6
Caddy_Solid
370
    25
100
AcDbCircle
 10
235
 20
117.5
 30
0
 40
0.75
  0
LINE
  5
1D2
330
1CD
100
AcDbEntity
  8
0
  6
Caddy_Solid
370
    25
100
AcDbLine
 10
235
 20
118.25
 30
0
 11
235
 21
120
 31
0
  0
LINE
  5
1D3
330
1CD
100
AcDbEntity
  8
0
  6
Caddy_Solid
370
    25
100
AcDbLine
 10
235
 20
115
 30
0
 11
235
 21
116.75
 31
0
  0
ATTDEF
  5
1D6
330
1CD
100
AcDbEntity
  8
0
370
    25
100
AcDbText
 10
213.2434616500855
 20
116.3000030517578
 30
0
 40
2.450004577636719
  1
X12
 41
0.9
  7
Caddy_Vectorfont1p
 72
     2
 11
230.0500030517578
 21
116.3000030517578
 31
0
100
AcDbAttributeDefinition
  3
Produkt (-)
  2
$TAG160010
 70
     0
  0
ATTDEF
  5
1D8
330
1CD
100
AcDbEntity
  8
0
370
    25
100
AcDbText
 10
234.0999908447266
 20
119.1999969482422
 30
0
 40
2.450004577636719
  1
2
 50
90
 41
0.9
  7
Caddy_Vectorfont1p
 11
0
 21
0
 31
0
100
AcDbAttributeDefinition
  3
Klemmenummer
  2
$TAG160400
 70
     0
  0
ATTDEF
  5
1DA
330
1CD
100
AcDbEntity
  8
0
370
    25
100
AcDbText
 10
237.5999908447266
 20
119.1999969482422
 30
0
 40
2.450004577636719
  1
207
 50
90
 41
0.9
  7
Caddy_Vectorfont1p
 11
0
 21
0
 31
0
100
AcDbAttributeDefinition
  3
Sorteringsindeks
  2
$TAG160410
 70
     0
  0
ATTDEF
  5
1DC
330
1CD
100
AcDbEntity
  8
0
370
    25
100
AcDbText
 10
212.7517457313538
 20
112.8000030517578
 30
0
 40
2.450004577636719
  1

 41
0.9
  7
Caddy_Vectorfont1p
 72
     2
 11
230.0500030517578
 21
112.8000030517578
 31
0
100
AcDbAttributeDefinition
  3
Beskrivelse 00
  2
$TAG160030
 70
     0
  0
ATTDEF
  5
1DE
330
1CD
100
AcDbEntity
  8
0
370
    25
100
AcDbText
 10
212.5070055328369
 20
107.8000030517578
 30
0
 40
2.450004577636719
  1
AB1RR235U2GR
 41
0.9
  7
Caddy_Vectorfont1p
 72
     2
 11
230.0500183105469
 21
107.8000030517578
 31
0
100
AcDbAttributeDefinition
  3
Type
  2
$TAG160040
 70
     0
  0
ATTDEF
  5
1E0
330
1CD
100
AcDbEntity
  8
0
370
    25
100
AcDbText
 10
212.5069902740478
 20
123.3000030517578
 30
0
 40
2.450004577636719
  1
=
 41
0.9
  7
Caddy_Vectorfont1p
 72
     2
 11
230.0500030517578
 21
123.3000030517578
 31
0
100
AcDbAttributeDefinition
  3
Funktion (=)
  2
$TAG140020
 70
     0
  0
ATTDEF
  5
1E2
330
1CD
100
AcDbEntity
  8
0
370
    25
100
AcDbText
 10
212.5069750152588
 20
119.8000030517578
 30
0
 40
2.450004577636719
  1
+
 41
0.9
  7
Caddy_Vectorfont1p
 72
     2
 11
230.0499877929688
 21
119.8000030517578
 31
0
100
AcDbAttributeDefinition
  3
Placering (+)
  2
$TAG140050
 70
     0
  0
ENDBLK
  5
1CF
330
1CD
100
AcDbEntity
  8
0
100
AcDbBlockEnd
  0
BLOCK
  5
1F6
330
1F5
100
AcDbEntity
  8
0
100
AcDbBlockBegin
  2
Blk18
 70
     2
 10
0
 20
0
 30
0
  3
Blk18
  1

  0
ATTDEF
  5
1FB
330
1F5
100
AcDbEntity
  8
0
370
    25
100
AcDbText
 10
249.5017609901428
 20
94.69999694824219
 30
0
 40
2.450004577636719
  1

 41
0.9
  7
Caddy_Vectorfont1p
 72
     2
 11
266.8000183105469
 21
94.69999694824219
 31
0
100
AcDbAttributeDefinition
  3
Beskrivelse 00
  2
$TAG160030
 70
     0
  0
ATTDEF
  5
1FD
330
1F5
100
AcDbEntity
  8
0
370
    25
100
AcDbText
 10
249.2570055328369
 20
91.19999694824219
 30
0
 40
2.450004577636719
  1

 41
0.9
  7
Caddy_Vectorfont1p
 72
     2
 11
266.8000183105469
 21
91.19999694824219
 31
0
100
AcDbAttributeDefinition
  3
Type
  2
$TAG160040
 70
     0
  0
TEXT
  5
1FE
330
1F5
100
AcDbEntity
  8
0
370
    25
100
AcDbText
 10
265.7000122070312
 20
85.69999694824219
 30
0
 40
2.450004577636719
  1
Digital
 41
0.9
  7
Caddy_Vectorfont1p
 11
0
 21
0
 31
0
100
AcDbText
  0
TEXT
  5
1FF
330
1F5
100
AcDbEntity
  8
0
370
    25
100
AcDbText
 10
265.7000122070312
 20
82.19999694824219
 30
0
 40
2.450004577636719
  1
Indgang
 41
0.9
  7
Caddy_Vectorfont1p
 11
0
 21
0
 31
0
100
AcDbText
  0
TEXT
  5
200
330
1F5
100
AcDbEntity
  8
0
370
    25
100
AcDbText
 10
265.7000122070312
 20
78.69999694824219
 30
0
 40
2.450004577636719
  1

 41
0.9
  7
Caddy_Vectorfont1p
 11
0
 21
0
 31
0
100
AcDbText
  0
ATTDEF
  5
202
330
1F5
100
AcDbEntity
  8
0
370
    25
100
AcDbText
 10
264.9934463912964
 20
90.15000915527344
 30
0
 40
2.450004577636719
  1
D1307-A2
 41
0.9
  7
Caddy_Vectorfont1p
 72
     2
 11
281.7999877929688
 21
90.15000915527344
 31
0
100
AcDbAttributeDefinition
  3
Signaladresse
  2
$TAG175100
 70
     0
  0
ATTDEF
  5
204
330
1F5
100
AcDbEntity
  8
0
370
    25
100
AcDbText
 10
247.9851928276062
 20
84.14999389648438
 30
0
 40
2.450004577636719
  1

 41
0.9
  7
Caddy_Vectorfont1p
 72
     2
 11
264.3000183105469
 21
84.14999389648438
 31
0
100
AcDbAttributeDefinition
  3
Signalbeskrivelse
  2
$TAG175110
 70
     0
  0
ATTDEF
  5
206
330
1F5
100
AcDbEntity
  8
0
370
    25
100
AcDbText
 10
247.4934769088745
 20
81.14999389648438
 30
0
 40
2.450004577636719
  1

 41
0.9
  7
Caddy_Vectorfont1p
 72
     2
 11
264.3000183105469
 21
81.14999389648438
 31
0
100
AcDbAttributeDefinition
  3
Signalbemærkning
  2
$TAG175120
 70
     0
  0
ATTDEF
  5
208
330
1F5
100
AcDbEntity
  8
0
370
    25
100
AcDbText
 10
247.0017609901428
 20
77.64999389648438
 30
0
 40
2.450004577636719
  1

 41
0.9
  7
Caddy_Vectorfont1p
 72
     2
 11
264.3000183105469
 21
77.64999389648438
 31
0
100
AcDbAttributeDefinition
  3
Side/strømvej reference
  2
$TAG160500
 70
     0
  0
INSERT
  5
20C
330
1F5
100
AcDbEntity
  8
0
100
AcDbBlockReference
  2
Blk19
 10
0
 20
0
 30
1
  0
LINE
  5
211
330
1F5
100
AcDbEntity
  8
0
  6
Caddy_Solid
370
    25
100
AcDbLine
 10
265
 20
90
 30
0
 11
285
 21
90
 31
0
  0
LINE
  5
212
330
1F5
100
AcDbEntity
  8
0
  6
Caddy_Solid
370
    25
100
AcDbLine
 10
265
 20
85
 30
0
 11
285
 21
85
 31
0
  0
LINE
  5
213
330
1F5
100
AcDbEntity
  8
0
  6
Caddy_Solid
370
    25
100
AcDbLine
 10
281
 20
83.5
 30
0
 11
278.5
 21
81
 31
0
  0
LINE
  5
214
330
1F5
100
AcDbEntity
  8
0
  6
Caddy_Solid
370
    25
100
AcDbLine
 10
278.5
 20
81
 30
0
 11
283.5
 21
81
 31
0
  0
LINE
  5
215
330
1F5
100
AcDbEntity
  8
0
  6
Caddy_Solid
370
    25
100
AcDbLine
 10
283.5
 20
81
 30
0
 11
281
 21
83.5
 31
0
  0
LINE
  5
216
330
1F5
100
AcDbEntity
  8
0
  6
Caddy_Solid
370
    25
100
AcDbLine
 10
277.5
 20
90
 30
0
 11
277.5
 21
80
 31
0
  0
INSERT
  5
21A
330
1F5
100
AcDbEntity
  8
0
100
AcDbBlockReference
  2
Blk20
 10
0
 20
0
 30
1
  0
ATTDEF
  5
21D
330
1F5
100
AcDbEntity
  8
0
370
    25
100
AcDbText
 10
269.0499877929688
 20
98.4000244140625
 30
0
 40
2.450004577636719
  1

 50
90
 41
0.9
  7
Caddy_Vectorfont1p
 11
0
 21
0
 31
0
100
AcDbAttributeDefinition
  3
Tilslutningstekst 00
  2
$TAG175000_00
 70
     0
  0
ATTDEF
  5
21F
330
1F5
100
AcDbEntity
  8
0
370
    25
100
AcDbText
 10
244.1534500534058
 20
89.52500915527344
 30
0
 40
2.450004577636719
  1
#00000031
 41
0.9
  7
Caddy_Vectorfont1p
 72
     2
 11
260.9599914550781
 21
89.52500915527344
 31
0
100
AcDbAttributeDefinition
  3
Produkt (-)
  2
$TAG160010
 70
     0
  0
ENDBLK
  5
1F7
330
1F5
100
AcDbEntity
  8
0
100
AcDbBlockEnd
  0
BLOCK
  5
20A
330
209
100
AcDbEntity
  8
0
100
AcDbBlockBegin
  2
Blk19
 70
     0
 10
0
 20
0
 30
0
  3
Blk19
  1

  0
LINE
  5
20D
330
209
100
AcDbEntity
  8
0
  6
Caddy_Solid
370
    25
100
AcDbLine
 10
265
 20
80
 30
0
 11
285
 21
80
 31
0
  0
LINE
  5
20E
330
209
100
AcDbEntity
  8
0
  6
Caddy_Solid
370
    25
100
AcDbLine
 10
285
 20
80
 30
0
 11
285
 21
95
 31
0
  0
LINE
  5
20F
330
209
100
AcDbEntity
  8
0
  6
Caddy_Solid
370
    25
100
AcDbLine
 10
285
 20
95
 30
0
 11
265
 21
95
 31
0
  0
LINE
  5
210
330
209
100
AcDbEntity
  8
0
  6
Caddy_Solid
370
    25
100
AcDbLine
 10
265
 20
95
 30
0
 11
265
 21
80
 31
0
  0
ENDBLK
  5
20B
330
209
100
AcDbEntity
  8
0
100
AcDbBlockEnd
  0
BLOCK
  5
218
330
217
100
AcDbEntity
  8
0
100
AcDbBlockBegin
  2
Blk20
 70
     0
 10
0
 20
0
 30
0
  3
Blk20
  1

  0
LINE
  5
21B
330
217
100
AcDbEntity
  8
0
  6
Caddy_Solid
370
    25
100
AcDbLine
 10
270
 20
100
 30
0
 11
270
 21
95
 31
0
  0
ENDBLK
  5
219
330
217
100
AcDbEntity
  8
0
100
AcDbBlockEnd
  0
BLOCK
  5
221
330
220
100
AcDbEntity
  8
0
100
AcDbBlockBegin
  2
Blk21
 70
     2
 10
0
 20
0
 30
0
  3
Blk21
  1

  0
LINE
  5
224
330
220
100
AcDbEntity
  8
0
  6
Caddy_Solid
370
    25
100
AcDbLine
 10
235
 20
82.5
 30
0
 11
235
 21
87.5
 31
0
  0
LINE
  5
225
330
220
100
AcDbEntity
  8
0
  6
Caddy_Solid
370
    25
100
AcDbLine
 10
235
 20
87.5
 30
0
 11
225
 21
87.5
 31
0
  0
LINE
  5
226
330
220
100
AcDbEntity
  8
0
  6
Caddy_Solid
370
    25
100
AcDbLine
 10
225
 20
87.5
 30
0
 11
225
 21
82.5
 31
0
  0
LINE
  5
227
330
220
100
AcDbEntity
  8
0
  6
Caddy_Solid
370
    25
100
AcDbLine
 10
225
 20
82.5
 30
0
 11
235
 21
82.5
 31
0
  0
LINE
  5
228
330
220
100
AcDbEntity
  8
0
  6
Caddy_Solid
370
    25
100
AcDbLine
 10
230
 20
87.5
 30
0
 11
230
 21
90
 31
0
  0
LINE
  5
229
330
220
100
AcDbEntity
  8
0
  6
Caddy_Solid
370
    25
100
AcDbLine
 10
230
 20
82.5
 30
0
 11
230
 21
80
 31
0
  0
LINE
  5
22A
330
220
100
AcDbEntity
  8
0
  6
Caddy_Solid
370
    25
100
AcDbLine
 10
238
 20
88.5
 30
0
 11
242
 21
88.5
 31
0
  0
LINE
  5
22B
330
220
100
AcDbEntity
  8
0
  6
Caddy_Solid
370
    25
100
AcDbLine
 10
242
 20
88.5
 30
0
 11
238
 21
81.5
 31
0
  0
LINE
  5
22C
330
220
100
AcDbEntity
  8
0
  6
Caddy_Solid
370
    25
100
AcDbLine
 10
242
 20
81.5
 30
0
 11
238
 21
88.5
 31
0
  0
LINE
  5
22D
330
220
100
AcDbEntity
  8
0
  6
Caddy_Solid
370
    25
100
AcDbLine
 10
238
 20
81.5
 30
0
 11
242
 21
81.5
 31
0
  0
LINE
  5
22E
330
220
100
AcDbEntity
  8
0
  6
Caddy_Solid
370
    25
100
AcDbLine
 10
235
 20
85
 30
0
 11
236.5
 21
85
 31
0
  0
LINE
  5
22F
330
220
100
AcDbEntity
  8
0
  6
Caddy_Solid
370
    25
100
AcDbLine
 10
237.5
 20
85
 30
0
 11
239
 21
85
 31
0
  0
ATTDEF
  5
232
330
220
100
AcDbEntity
  8
0
370
    25
100
AcDbText
 10
229.0999908447266
 20
88.40000915527344
 30
0
 40
2.450004577636719
  1

 50
90
 41
0.9
  7
Caddy_Vectorfont1p
 11
0
 21
0
 31
0
100
AcDbAttributeDefinition
  3
Tilslutningstekst 00
  2
$TAG175000_00
 70
     0
  0
ATTDEF
  5
234
330
220
100
AcDbEntity
  8
0
370
    25
100
AcDbText
 10
229.0999908447266
 20
57.96576130447388
 30
0
 40
2.450004577636719
  1

 50
90
 41
0.9
  7
Caddy_Vectorfont1p
 72
     2
 11
229.0999908447266
 21
80.90000915527344
 31
0
100
AcDbAttributeDefinition
  3
Tilslutningstekst 01
  2
$TAG175000_01
 70
     0
  0
ATTDEF
  5
236
330
220
100
AcDbEntity
  8
0
370
    25
100
AcDbText
 10
206.3934708053589
 20
83.80000305175781
 30
0
 40
2.450004577636719
  1
Y0805
 41
0.9
  7
Caddy_Vectorfont1p
 72
     2
 11
223.2000122070312
 21
83.80000305175781
 31
0
100
AcDbAttributeDefinition
  3
Produkt (-)
  2
$TAG160010
 70
     0
  0
ATTDEF
  5
238
330
220
100
AcDbEntity
  8
0
370
    25
100
AcDbText
 10
205.6569841705322
 20
76.80000305175781
 30
0
 40
2.450004577636719
  1

 41
0.9
  7
Caddy_Vectorfont1p
 72
     2
 11
223.1999969482422
 21
76.80000305175781
 31
0
100
AcDbAttributeDefinition
  3
Type
  2
$TAG160040
 70
     0
  0
ATTDEF
  5
23A
330
220
100
AcDbEntity
  8
0
370
    25
100
AcDbText
 10
205.9017396278381
 20
80.30000305175781
 30
0
 40
2.450004577636719
  1

 41
0.9
  7
Caddy_Vectorfont1p
 72
     2
 11
223.1999969482422
 21
80.30000305175781
 31
0
100
AcDbAttributeDefinition
  3
Beskrivelse 00
  2
$TAG160030
 70
     0
  0
ENDBLK
  5
222
330
220
100
AcDbEntity
  8
0
100
AcDbBlockEnd
  0
BLOCK
  5
23C
330
23B
100
AcDbEntity
  8
0
100
AcDbBlockBegin
  2
Blk22
 70
     2
 10
0
 20
0
 30
0
  3
Blk22
  1

  0
LINE
  5
23F
330
23B
100
AcDbEntity
  8
0
  6
Caddy_Solid
370
    25
100
AcDbLine
 10
235
 20
97.5
 30
0
 11
235
 21
107.5
 31
0
  0
LINE
  5
240
330
23B
100
AcDbEntity
  8
0
  6
Caddy_Solid
370
    25
100
AcDbLine
 10
234.25
 20
107.5
 30
0
 11
235.75
 21
107.5
 31
0
  0
LINE
  5
241
330
23B
100
AcDbEntity
  8
0
  6
Caddy_Solid
370
    25
100
AcDbLine
 10
234.5
 20
103.5
 30
0
 11
234.5
 21
107.5
 31
0
  0
LINE
  5
242
330
23B
100
AcDbEntity
  8
0
  6
Caddy_Solid
370
    25
100
AcDbLine
 10
235.5
 20
103.5
 30
0
 11
235.5
 21
107.5
 31
0
  0
LINE
  5
243
330
23B
100
AcDbEntity
  8
0
  6
Caddy_Solid
370
    25
100
AcDbLine
 10
235.75
 20
103.5
 30
0
 11
235.75
 21
107.5
 31
0
  0
LINE
  5
244
330
23B
100
AcDbEntity
  8
0
  6
Caddy_Solid
370
    25
100
AcDbLine
 10
235.25
 20
103.5
 30
0
 11
235.25
 21
107.5
 31
0
  0
LINE
  5
245
330
23B
100
AcDbEntity
  8
0
  6
Caddy_Solid
370
    25
100
AcDbLine
 10
234.75
 20
103.5
 30
0
 11
234.75
 21
107.5
 31
0
  0
LINE
  5
246
330
23B
100
AcDbEntity
  8
0
  6
Caddy_Solid
370
    25
100
AcDbLine
 10
234.25
 20
103.5
 30
0
 11
234.25
 21
107.5
 31
0
  0
ELLIPSE
  5
247
330
23B
100
AcDbEntity
  8
0
  6
Caddy_Solid
370
    25
100
AcDbEllipse
 10
235
 20
107.5
 30
0
 11
2
 21
0
 31
0
210
0
220
0
230
1
 40
1
 41
0
 42
3.141592653589793
  0
LINE
  5
248
330
23B
100
AcDbEntity
  8
0
  6
Caddy_Solid
370
    25
100
AcDbLine
 10
235
 20
109.5
 30
0
 11
235
 21
115
 31
0
  0
LINE
  5
249
330
23B
100
AcDbEntity
  8
0
  6
Caddy_Solid
370
    25
100
AcDbLine
 10
234.25
 20
103.5
 30
0
 11
235.75
 21
103.5
 31
0
  0
ATTDEF
  5
24C
330
23B
100
AcDbEntity
  8
0
370
    25
100
AcDbText
 10
213.6934738571167
 20
106.3000030517578
 30
0
 40
2.450004577636719
  1
8X5.1
 41
0.9
  7
Caddy_Vectorfont1p
 72
     2
 11
230.5000152587891
 21
106.3000030517578
 31
0
100
AcDbAttributeDefinition
  3
Produkt (-)
  2
$TAG160010
 70
     0
  0
ATTDEF
  5
24E
330
23B
100
AcDbEntity
  8
0
370
    25
100
AcDbText
 10
212.5569780670166
 20
99.30000305175781
 30
0
 40
2.450004577636719
  1

 41
0.9
  7
Caddy_Vectorfont1p
 72
     2
 11
230.0999908447266
 21
99.30000305175781
 31
0
100
AcDbAttributeDefinition
  3
Type
  2
$TAG160040
 70
     0
  0
ATTDEF
  5
250
330
23B
100
AcDbEntity
  8
0
370
    25
100
AcDbText
 10
212.8017335243225
 20
102.8000030517578
 30
0
 40
2.450004577636719
  1

 41
0.9
  7
Caddy_Vectorfont1p
 72
     2
 11
230.0999908447266
 21
102.8000030517578
 31
0
100
AcDbAttributeDefinition
  3
Beskrivelse 00
  2
$TAG160030
 70
     0
  0
ATTDEF
  5
252
330
23B
100
AcDbEntity
  8
0
370
    25
100
AcDbText
 10
234.0500030517578
 20
110.3999938964844
 30
0
 40
2.450004577636719
  1

 50
90
 41
0.9
  7
Caddy_Vectorfont1p
 11
0
 21
0
 31
0
100
AcDbAttributeDefinition
  3
Tilslutningstekst 00
  2
$TAG175000_00
 70
     0
  0
ATTDEF
  5
254
330
23B
100
AcDbEntity
  8
0
370
    25
100
AcDbText
 10
234.0500030517578
 20
78.96576130447389
 30
0
 40
2.450004577636719
  1

 50
90
 41
0.9
  7
Caddy_Vectorfont1p
 72
     2
 11
234.0500030517578
 21
101.9000091552734
 31
0
100
AcDbAttributeDefinition
  3
Tilslutningstekst 01
  2
$TAG175000_01
 70
     0
  0
ENDBLK
  5
23D
330
23B
100
AcDbEntity
  8
0
100
AcDbBlockEnd
  0
BLOCK
  5
25F
330
25E
100
AcDbEntity
  8
0
100
AcDbBlockBegin
  2
Blk23
 70
     2
 10
0
 20
0
 30
0
  3
Blk23
  1

  0
INSERT
  5
265
330
25E
100
AcDbEntity
  8
0
100
AcDbBlockReference
  2
Blk24
 10
0
 20
0
 30
1
  0
INSERT
  5
26D
330
25E
100
AcDbEntity
  8
0
100
AcDbBlockReference
  2
Blk25
 10
0
 20
0
 30
1
  0
INSERT
  5
275
330
25E
100
AcDbEntity
  8
0
100
AcDbBlockReference
  2
Blk26
 10
0
 20
0
 30
1
  0
INSERT
  5
27D
330
25E
100
AcDbEntity
  8
0
100
AcDbBlockReference
  2
Blk27
 10
0
 20
0
 30
1
  0
INSERT
  5
285
330
25E
100
AcDbEntity
  8
0
100
AcDbBlockReference
  2
Blk28
 10
0
 20
0
 30
1
  0
INSERT
  5
28D
330
25E
100
AcDbEntity
  8
0
100
AcDbBlockReference
  2
Blk29
 10
0
 20
0
 30
1
  0
TEXT
  5
292
330
25E
100
AcDbEntity
  8
0
370
    25
100
AcDbText
 10
353.647827696991
 20
151.3999938964844
 30
0
 40
1.400009155273438
  1
1
 41
0.9
  7
Caddy_Vectorfont1p
 72
     1
 11
354
 21
151.3999938964844
 31
0
100
AcDbText
  0
TEXT
  5
293
330
25E
100
AcDbEntity
  8
0
370
    25
100
AcDbText
 10
353.5205668647766
 20
149.3999938964844
 30
0
 40
1.400009155273438
  1
2
 41
0.9
  7
Caddy_Vectorfont1p
 72
     1
 11
354
 21
149.3999938964844
 31
0
100
AcDbText
  0
TEXT
  5
294
330
25E
100
AcDbEntity
  8
0
370
    25
100
AcDbText
 10
353.5035567535401
 20
147.3999938964844
 30
0
 40
1.400009155273438
  1
3
 41
0.9
  7
Caddy_Vectorfont1p
 72
     1
 11
354
 21
147.3999938964844
 31
0
100
AcDbText
  0
TEXT
  5
295
330
25E
100
AcDbEntity
  8
0
370
    25
100
AcDbText
 10
353.449376399231
 20
145.3999938964844
 30
0
 40
1.400009155273438
  1
4
 41
0.9
  7
Caddy_Vectorfont1p
 72
     1
 11
354
 21
145.3999938964844
 31
0
100
AcDbText
  0
TEXT
  5
296
330
25E
100
AcDbEntity
  8
0
370
    25
100
AcDbText
 10
353.5104867988587
 20
143.3999938964844
 30
0
 40
1.400009155273438
  1
5
 41
0.9
  7
Caddy_Vectorfont1p
 72
     1
 11
354
 21
143.3999938964844
 31
0
100
AcDbText
  0
TEXT
  5
297
330
25E
100
AcDbEntity
  8
0
370
    25
100
AcDbText
 10
353.5104867988587
 20
141.3999938964844
 30
0
 40
1.400009155273438
  1
6
 41
0.9
  7
Caddy_Vectorfont1p
 72
     1
 11
354
 21
141.3999938964844
 31
0
100
AcDbText
  0
TEXT
  5
298
330
25E
100
AcDbEntity
  8
0
370
    25
100
AcDbText
 10
324.2999877929688
 20
135.7000122070312
 30
0
 40
2.449996948242188
  1
42
 50
90
 41
0.9
  7
Caddy_Vectorfont1p
 11
0
 21
0
 31
0
100
AcDbText
  0
TEXT
  5
299
330
25E
100
AcDbEntity
  8
0
370
    25
100
AcDbText
 10
124.3000030517578
 20
155.6999969482422
 30
0
 40
2.449996948242188
  1
41
 50
90
 41
0.9
  7
Caddy_Vectorfont1p
 11
0
 21
0
 31
0
100
AcDbText
  0
LINE
  5
29A
330
25E
100
AcDbEntity
  8
0
  6
Caddy_Solid
370
    25
100
AcDbLine
 10
61
 20
155
 30
0
 11
374
 21
155
 31
0
  0
LINE
  5
29B
330
25E
100
AcDbEntity
  8
0
  6
Caddy_Solid
370
    25
100
AcDbLine
 10
374
 20
140
 30
0
 11
374
 21
155
 31
0
  0
LINE
  5
29C
330
25E
100
AcDbEntity
  8
0
  6
Caddy_Solid
370
    25
100
AcDbLine
 10
61
 20
140
 30
0
 11
374
 21
140
 31
0
  0
LINE
  5
29D
330
25E
100
AcDbEntity
  8
0
  6
Caddy_Solid
370
    25
100
AcDbLine
 10
61
 20
155
 30
0
 11
61
 21
140
 31
0
  0
TEXT
  5
29E
330
25E
100
AcDbEntity
  8
0
370
    25
100
AcDbText
 10
50.51130258026123
 20
146.4499969482422
 30
0
 40
2.449996948242188
  1
K0801
 41
0.9
  7
Caddy_Vectorfont1p
 72
     2
 11
58.50000762939453
 21
146.4499969482422
 31
0
100
AcDbText
  0
TEXT
  5
29F
330
25E
100
AcDbEntity
  8
0
370
    25
100
AcDbText
 10
44.63057490539551
 20
139.4499969482422
 30
0
 40
2.449996948242188
  1
G9SA-301
 41
0.9
  7
Caddy_Vectorfont1p
 72
     2
 11
58.50000762939453
 21
139.4499969482422
 31
0
100
AcDbText
  0
TEXT
  5
2A0
330
25E
100
AcDbEntity
  8
0
370
    25
100
AcDbText
 10
37.06082314910888
 20
142.9499969482422
 30
0
 40
2.449996948242188
  1
NØDSTOPRELÆ
 41
0.9
  7
Caddy_Vectorfont1p
 72
     2
 11
58.5000114440918
 21
142.9499969482422
 31
0
100
AcDbText
  0
TEXT
  5
2A1
330
25E
100
AcDbEntity
  8
0
370
    25
100
AcDbText
 10
358.6700570220947
 20
146.4499969482422
 30
0
 40
2.449996948242188
  1
G9SA-301
 41
0.9
 51
25
  7
Caddy_Vectorfont1p
 72
     2
 11
372.5394897460938
 21
146.4499969482422
 31
0
100
AcDbText
  0
ATTDEF
  5
2A4
330
25E
100
AcDbEntity
  8
0
370
    25
100
AcDbText
 10
69.09999084472656
 20
115.4658174636841
 30
0
 40
2.449996948242188
  1
A2
 50
90
 41
0.9
  7
Caddy_Vectorfont1p
 72
     2
 11
69.09999084472656
 21
138.3999938964844
 31
0
100
AcDbAttributeDefinition
  3
Tilslutningstekst 01
  2
$TAG175000_01
 70
     0
  0
ATTDEF
  5
2A6
330
25E
100
AcDbEntity
  8
0
370
    25
100
AcDbText
 10
189.0999908447266
 20
114.9763233322144
 30
0
 40
2.449996948242188
  1
24
 50
90
 41
0.9
  7
Caddy_Vectorfont1p
 72
     2
 11
189.0999908447266
 21
138.4000091552734
 31
0
100
AcDbAttributeDefinition
  3
Tilslutningstekst 08
  2
$TAG175000_08
 70
     0
  0
ATTDEF
  5
2A8
330
25E
100
AcDbEntity
  8
0
370
    25
100
AcDbText
 10
269.0999755859375
 20
115.4680529785156
 30
0
 40
2.449996948242188
  1
34
 50
90
 41
0.9
  7
Caddy_Vectorfont1p
 72
     2
 11
269.0999755859375
 21
138.4000244140625
 31
0
100
AcDbAttributeDefinition
  3
Tilslutningstekst 10
  2
$TAG175000_10
 70
     0
  0
TEXT
  5
2A9
330
25E
100
AcDbEntity
  8
0
370
    25
100
AcDbText
 10
57.15275812225342
 20
153.4499969482422
 30
0
 40
2.449996948242188
  1
=
 41
0.9
  7
Caddy_Vectorfont1p
 72
     2
 11
58.5000114440918
 21
153.4499969482422
 31
0
100
AcDbText
  0
TEXT
  5
2AA
330
25E
100
AcDbEntity
  8
0
370
    25
100
AcDbText
 10
57.15276193695068
 20
149.9499969482422
 30
0
 40
2.449996948242188
  1
+
 41
0.9
  7
Caddy_Vectorfont1p
 72
     2
 11
58.50001525878906
 21
149.9499969482422
 31
0
100
AcDbText
  0
ENDBLK
  5
260
330
25E
100
AcDbEntity
  8
0
100
AcDbBlockEnd
  0
BLOCK
  5
263
330
262
100
AcDbEntity
  8
0
100
AcDbBlockBegin
  2
Blk24
 70
     0
 10
0
 20
0
 30
0
  3
Blk24
  1

  0
LINE
  5
266
330
262
100
AcDbEntity
  8
0
  6
Caddy_Solid
370
    25
100
AcDbLine
 10
352
 20
153
 30
0
 11
353
 21
153
 31
0
  0
LINE
  5
267
330
262
100
AcDbEntity
  8
0
  6
Caddy_Solid
370
    25
100
AcDbLine
 10
353
 20
153
 30
0
 11
353
 21
151
 31
0
  0
LINE
  5
268
330
262
100
AcDbEntity
  8
0
  6
Caddy_Solid
370
    25
100
AcDbLine
 10
353
 20
151
 30
0
 11
352
 21
151
 31
0
  0
LINE
  5
269
330
262
100
AcDbEntity
  8
0
  6
Caddy_Solid
370
    25
100
AcDbLine
 10
352
 20
151
 30
0
 11
352
 21
153
 31
0
  0
ENDBLK
  5
264
330
262
100
AcDbEntity
  8
0
100
AcDbBlockEnd
  0
BLOCK
  5
26B
330
26A
100
AcDbEntity
  8
0
100
AcDbBlockBegin
  2
Blk25
 70
     0
 10
0
 20
0
 30
0
  3
Blk25
  1

  0
LINE
  5
26E
330
26A
100
AcDbEntity
  8
0
  6
Caddy_Solid
370
    25
100
AcDbLine
 10
352
 20
151
 30
0
 11
353
 21
151
 31
0
  0
LINE
  5
26F
330
26A
100
AcDbEntity
  8
0
  6
Caddy_Solid
370
    25
100
AcDbLine
 10
353
 20
151
 30
0
 11
353
 21
149
 31
0
  0
LINE
  5
270
330
26A
100
AcDbEntity
  8
0
  6
Caddy_Solid
370
    25
100
AcDbLine
 10
353
 20
149
 30
0
 11
352
 21
149
 31
0
  0
LINE
  5
271
330
26A
100
AcDbEntity
  8
0
  6
Caddy_Solid
370
    25
100
AcDbLine
 10
352
 20
149
 30
0
 11
352
 21
151
 31
0
  0
ENDBLK
  5
26C
330
26A
100
AcDbEntity
  8
0
100
AcDbBlockEnd
  0
BLOCK
  5
273
330
272
100
AcDbEntity
  8
0
100
AcDbBlockBegin
  2
Blk26
 70
     0
 10
0
 20
0
 30
0
  3
Blk26
  1

  0
LINE
  5
276
330
272
100
AcDbEntity
  8
0
  6
Caddy_Solid
370
    25
100
AcDbLine
 10
352
 20
149
 30
0
 11
353
 21
149
 31
0
  0
LINE
  5
277
330
272
100
AcDbEntity
  8
0
  6
Caddy_Solid
370
    25
100
AcDbLine
 10
353
 20
149
 30
0
 11
353
 21
147
 31
0
  0
LINE
  5
278
330
272
100
AcDbEntity
  8
0
  6
Caddy_Solid
370
    25
100
AcDbLine
 10
353
 20
147
 30
0
 11
352
 21
147
 31
0
  0
LINE
  5
279
330
272
100
AcDbEntity
  8
0
  6
Caddy_Solid
370
    25
100
AcDbLine
 10
352
 20
147
 30
0
 11
352
 21
149
 31
0
  0
ENDBLK
  5
274
330
272
100
AcDbEntity
  8
0
100
AcDbBlockEnd
  0
BLOCK
  5
27B
330
27A
100
AcDbEntity
  8
0
100
AcDbBlockBegin
  2
Blk27
 70
     0
 10
0
 20
0
 30
0
  3
Blk27
  1

  0
LINE
  5
27E
330
27A
100
AcDbEntity
  8
0
  6
Caddy_Solid
370
    25
100
AcDbLine
 10
352
 20
147
 30
0
 11
353
 21
147
 31
0
  0
LINE
  5
27F
330
27A
100
AcDbEntity
  8
0
  6
Caddy_Solid
370
    25
100
AcDbLine
 10
353
 20
147
 30
0
 11
353
 21
145
 31
0
  0
LINE
  5
280
330
27A
100
AcDbEntity
  8
0
  6
Caddy_Solid
370
    25
100
AcDbLine
 10
353
 20
145
 30
0
 11
352
 21
145
 31
0
  0
LINE
  5
281
330
27A
100
AcDbEntity
  8
0
  6
Caddy_Solid
370
    25
100
AcDbLine
 10
352
 20
145
 30
0
 11
352
 21
147
 31
0
  0
ENDBLK
  5
27C
330
27A
100
AcDbEntity
  8
0
100
AcDbBlockEnd
  0
BLOCK
  5
283
330
282
100
AcDbEntity
  8
0
100
AcDbBlockBegin
  2
Blk28
 70
     0
 10
0
 20
0
 30
0
  3
Blk28
  1

  0
LINE
  5
286
330
282
100
AcDbEntity
  8
0
  6
Caddy_Solid
370
    25
100
AcDbLine
 10
352
 20
145
 30
0
 11
353
 21
145
 31
0
  0
LINE
  5
287
330
282
100
AcDbEntity
  8
0
  6
Caddy_Solid
370
    25
100
AcDbLine
 10
353
 20
145
 30
0
 11
353
 21
143
 31
0
  0
LINE
  5
288
330
282
100
AcDbEntity
  8
0
  6
Caddy_Solid
370
    25
100
AcDbLine
 10
353
 20
143
 30
0
 11
352
 21
143
 31
0
  0
LINE
  5
289
330
282
100
AcDbEntity
  8
0
  6
Caddy_Solid
370
    25
100
AcDbLine
 10
352
 20
143
 30
0
 11
352
 21
145
 31
0
  0
ENDBLK
  5
284
330
282
100
AcDbEntity
  8
0
100
AcDbBlockEnd
  0
BLOCK
  5
28B
330
28A
100
AcDbEntity
  8
0
100
AcDbBlockBegin
  2
Blk29
 70
     0
 10
0
 20
0
 30
0
  3
Blk29
  1

  0
LINE
  5
28E
330
28A
100
AcDbEntity
  8
0
  6
Caddy_Solid
370
    25
100
AcDbLine
 10
352
 20
143
 30
0
 11
353
 21
143
 31
0
  0
LINE
  5
28F
330
28A
100
AcDbEntity
  8
0
  6
Caddy_Solid
370
    25
100
AcDbLine
 10
353
 20
143
 30
0
 11
353
 21
141
 31
0
  0
LINE
  5
290
330
28A
100
AcDbEntity
  8
0
  6
Caddy_Solid
370
    25
100
AcDbLine
 10
353
 20
141
 30
0
 11
352
 21
141
 31
0
  0
LINE
  5
291
330
28A
100
AcDbEntity
  8
0
  6
Caddy_Solid
370
    25
100
AcDbLine
 10
352
 20
141
 30
0
 11
352
 21
143
 31
0
  0
ENDBLK
  5
28C
330
28A
100
AcDbEntity
  8
0
100
AcDbBlockEnd
  0
BLOCK
  5
2C3
330
2C2
100
AcDbEntity
  8
0
100
AcDbBlockBegin
  2
Blk30
 70
     2
 10
0
 20
0
 30
0
  3
Blk30
  1

  0
CIRCLE
  5
2C6
330
2C2
100
AcDbEntity
  8
0
  6
Caddy_Solid
370
    25
100
AcDbCircle
 10
230
 20
117.5
 30
0
 40
0.75
  0
LINE
  5
2C7
330
2C2
100
AcDbEntity
  8
0
  6
Caddy_Solid
370
    25
100
AcDbLine
 10
230
 20
118.25
 30
0
 11
230
 21
120
 31
0
  0
LINE
  5
2C8
330
2C2
100
AcDbEntity
  8
0
  6
Caddy_Solid
370
    25
100
AcDbLine
 10
230
 20
115
 30
0
 11
230
 21
116.75
 31
0
  0
ATTDEF
  5
2CB
330
2C2
100
AcDbEntity
  8
0
370
    25
100
AcDbText
 10
208.2434616500855
 20
116.3000030517578
 30
0
 40
2.450004577636719
  1
X8
 41
0.9
  7
Caddy_Vectorfont1p
 72
     2
 11
225.0500030517578
 21
116.3000030517578
 31
0
100
AcDbAttributeDefinition
  3
Produkt (-)
  2
$TAG160010
 70
     0
  0
ATTDEF
  5
2CD
330
2C2
100
AcDbEntity
  8
0
370
    25
100
AcDbText
 10
229.0999908447266
 20
119.1999969482422
 30
0
 40
2.450004577636719
  1
1
 50
90
 41
0.9
  7
Caddy_Vectorfont1p
 11
0
 21
0
 31
0
100
AcDbAttributeDefinition
  3
Klemmenummer
  2
$TAG160400
 70
     0
  0
ATTDEF
  5
2CF
330
2C2
100
AcDbEntity
  8
0
370
    25
100
AcDbText
 10
232.5999908447266
 20
119.1999969482422
 30
0
 40
2.450004577636719
  1
207
 50
90
 41
0.9
  7
Caddy_Vectorfont1p
 11
0
 21
0
 31
0
100
AcDbAttributeDefinition
  3
Sorteringsindeks
  2
$TAG160410
 70
     0
  0
ATTDEF
  5
2D1
330
2C2
100
AcDbEntity
  8
0
370
    25
100
AcDbText
 10
207.7517457313538
 20
112.8000030517578
 30
0
 40
2.450004577636719
  1

 41
0.9
  7
Caddy_Vectorfont1p
 72
     2
 11
225.0500030517578
 21
112.8000030517578
 31
0
100
AcDbAttributeDefinition
  3
Beskrivelse 00
  2
$TAG160030
 70
     0
  0
ATTDEF
  5
2D3
330
2C2
100
AcDbEntity
  8
0
370
    25
100
AcDbText
 10
207.5070055328369
 20
107.8000030517578
 30
0
 40
2.450004577636719
  1
AB1RR235U2GR
 41
0.9
  7
Caddy_Vectorfont1p
 72
     2
 11
225.0500183105469
 21
107.8000030517578
 31
0
100
AcDbAttributeDefinition
  3
Type
  2
$TAG160040
 70
     0
  0
ATTDEF
  5
2D5
330
2C2
100
AcDbEntity
  8
0
370
    25
100
AcDbText
 10
207.5069902740478
 20
123.3000030517578
 30
0
 40
2.450004577636719
  1
=
 41
0.9
  7
Caddy_Vectorfont1p
 72
     2
 11
225.0500030517578
 21
123.3000030517578
 31
0
100
AcDbAttributeDefinition
  3
Funktion (=)
  2
$TAG140020
 70
     0
  0
ATTDEF
  5
2D7
330
2C2
100
AcDbEntity
  8
0
370
    25
100
AcDbText
 10
207.5069750152588
 20
119.8000030517578
 30
0
 40
2.450004577636719
  1
+
 41
0.9
  7
Caddy_Vectorfont1p
 72
     2
 11
225.0499877929688
 21
119.8000030517578
 31
0
100
AcDbAttributeDefinition
  3
Placering (+)
  2
$TAG140050
 70
     0
  0
ENDBLK
  5
2C4
330
2C2
100
AcDbEntity
  8
0
100
AcDbBlockEnd
  0
BLOCK
  5
2DB
330
2DA
100
AcDbEntity
  8
0
100
AcDbBlockBegin
  2
Blk31
 70
     2
 10
0
 20
0
 30
0
  3
Blk31
  1

  0
LINE
  5
2DE
330
2DA
100
AcDbEntity
  8
0
  6
Caddy_Solid
370
    25
100
AcDbLine
 10
230
 20
97.5
 30
0
 11
230
 21
107.5
 31
0
  0
LINE
  5
2DF
330
2DA
100
AcDbEntity
  8
0
  6
Caddy_Solid
370
    25
100
AcDbLine
 10
229.25
 20
107.5
 30
0
 11
230.75
 21
107.5
 31
0
  0
LINE
  5
2E0
330
2DA
100
AcDbEntity
  8
0
  6
Caddy_Solid
370
    25
100
AcDbLine
 10
229.5
 20
103.5
 30
0
 11
229.5
 21
107.5
 31
0
  0
LINE
  5
2E1
330
2DA
100
AcDbEntity
  8
0
  6
Caddy_Solid
370
    25
100
AcDbLine
 10
230.5
 20
103.5
 30
0
 11
230.5
 21
107.5
 31
0
  0
LINE
  5
2E2
330
2DA
100
AcDbEntity
  8
0
  6
Caddy_Solid
370
    25
100
AcDbLine
 10
230.75
 20
103.5
 30
0
 11
230.75
 21
107.5
 31
0
  0
LINE
  5
2E3
330
2DA
100
AcDbEntity
  8
0
  6
Caddy_Solid
370
    25
100
AcDbLine
 10
230.25
 20
103.5
 30
0
 11
230.25
 21
107.5
 31
0
  0
LINE
  5
2E4
330
2DA
100
AcDbEntity
  8
0
  6
Caddy_Solid
370
    25
100
AcDbLine
 10
229.75
 20
103.5
 30
0
 11
229.75
 21
107.5
 31
0
  0
LINE
  5
2E5
330
2DA
100
AcDbEntity
  8
0
  6
Caddy_Solid
370
    25
100
AcDbLine
 10
229.25
 20
103.5
 30
0
 11
229.25
 21
107.5
 31
0
  0
ELLIPSE
  5
2E6
330
2DA
100
AcDbEntity
  8
0
  6
Caddy_Solid
370
    25
100
AcDbEllipse
 10
230
 20
107.5
 30
0
 11
2
 21
0
 31
0
210
0
220
0
230
1
 40
1
 41
0
 42
3.141592653589793
  0
LINE
  5
2E7
330
2DA
100
AcDbEntity
  8
0
  6
Caddy_Solid
370
    25
100
AcDbLine
 10
230
 20
109.5
 30
0
 11
230
 21
115
 31
0
  0
LINE
  5
2E8
330
2DA
100
AcDbEntity
  8
0
  6
Caddy_Solid
370
    25
100
AcDbLine
 10
229.25
 20
103.5
 30
0
 11
230.75
 21
103.5
 31
0
  0
ATTDEF
  5
2EB
330
2DA
100
AcDbEntity
  8
0
370
    25
100
AcDbText
 10
208.6934738571167
 20
106.3000030517578
 30
0
 40
2.450004577636719
  1
8X5.2
 41
0.9
  7
Caddy_Vectorfont1p
 72
     2
 11
225.5000152587891
 21
106.3000030517578
 31
0
100
AcDbAttributeDefinition
  3
Produkt (-)
  2
$TAG160010
 70
     0
  0
ATTDEF
  5
2ED
330
2DA
100
AcDbEntity
  8
0
370
    25
100
AcDbText
 10
207.5569780670166
 20
99.30000305175781
 30
0
 40
2.450004577636719
  1

 41
0.9
  7
Caddy_Vectorfont1p
 72
     2
 11
225.0999908447266
 21
99.30000305175781
 31
0
100
AcDbAttributeDefinition
  3
Type
  2
$TAG160040
 70
     0
  0
ATTDEF
  5
2EF
330
2DA
100
AcDbEntity
  8
0
370
    25
100
AcDbText
 10
207.8017335243225
 20
102.8000030517578
 30
0
 40
2.450004577636719
  1

 41
0.9
  7
Caddy_Vectorfont1p
 72
     2
 11
225.0999908447266
 21
102.8000030517578
 31
0
100
AcDbAttributeDefinition
  3
Beskrivelse 00
  2
$TAG160030
 70
     0
  0
ATTDEF
  5
2F1
330
2DA
100
AcDbEntity
  8
0
370
    25
100
AcDbText
 10
229.0500030517578
 20
110.3999938964844
 30
0
 40
2.450004577636719
  1

 50
90
 41
0.9
  7
Caddy_Vectorfont1p
 11
0
 21
0
 31
0
100
AcDbAttributeDefinition
  3
Tilslutningstekst 00
  2
$TAG175000_00
 70
     0
  0
ATTDEF
  5
2F3
330
2DA
100
AcDbEntity
  8
0
370
    25
100
AcDbText
 10
229.0500030517578
 20
78.96576130447389
 30
0
 40
2.450004577636719
  1

 50
90
 41
0.9
  7
Caddy_Vectorfont1p
 72
     2
 11
229.0500030517578
 21
101.9000091552734
 31
0
100
AcDbAttributeDefinition
  3
Tilslutningstekst 01
  2
$TAG175000_01
 70
     0
  0
ENDBLK
  5
2DC
330
2DA
100
AcDbEntity
  8
0
100
AcDbBlockEnd
  0
BLOCK
  5
30A
330
309
100
AcDbEntity
  8
0
100
AcDbBlockBegin
  2
Blk32
 70
     2
 10
0
 20
0
 30
0
  3
Blk32
  1

  0
LINE
  5
30D
330
309
100
AcDbEntity
  8
0
  6
Caddy_Solid
370
    25
100
AcDbLine
 10
327.5
 20
215
 30
0
 11
325.25
 21
216.25
 31
0
  0
LINE
  5
30E
330
309
100
AcDbEntity
  8
0
  6
Caddy_Solid
370
    25
100
AcDbLine
 10
327.5
 20
215
 30
0
 11
325.25
 21
213.75
 31
0
  0
LINE
  5
30F
330
309
100
AcDbEntity
  8
0
  6
Caddy_Solid
370
    25
100
AcDbLine
 10
325
 20
215
 30
0
 11
327.5
 21
215
 31
0
  0
ATTDEF
  5
312
330
309
100
AcDbEntity
  8
0
370
    25
100
AcDbText
 10
305.6935109344482
 20
215.9000091552734
 30
0
 40
2.449996948242188
  1
0709
 41
0.9
  7
Caddy_Vectorfont1p
 72
     2
 11
322.5
 21
215.9000091552734
 31
0
100
AcDbAttributeDefinition
  3
Produkt (-)
  2
$TAG160010
 70
     0
  0
ATTDEF
  5
314
330
309
100
AcDbEntity
  8
0
370
    25
100
AcDbText
 10
329.6500244140625
 20
213.8499908447266
 30
0
 40
2.449996948242188
  1
7.7
 41
0.9
  7
Caddy_Vectorfont1p
 11
0
 21
0
 31
0
100
AcDbAttributeDefinition
  3
Side/strømvej reference
  2
$TAG160500
 70
     0
  0
ENDBLK
  5
30B
330
309
100
AcDbEntity
  8
0
100
AcDbBlockEnd
  0
BLOCK
  5
319
330
318
100
AcDbEntity
  8
0
100
AcDbBlockBegin
  2
Blk33
 70
     2
 10
0
 20
0
 30
0
  3
Blk33
  1

  0
LINE
  5
31C
330
318
100
AcDbEntity
  8
0
  6
Caddy_Solid
370
    25
100
AcDbLine
 10
327.5
 20
85
 30
0
 11
325.25
 21
86.25
 31
0
  0
LINE
  5
31D
330
318
100
AcDbEntity
  8
0
  6
Caddy_Solid
370
    25
100
AcDbLine
 10
327.5
 20
85
 30
0
 11
325.25
 21
83.75
 31
0
  0
LINE
  5
31E
330
318
100
AcDbEntity
  8
0
  6
Caddy_Solid
370
    25
100
AcDbLine
 10
325
 20
85
 30
0
 11
327.5
 21
85
 31
0
  0
ATTDEF
  5
321
330
318
100
AcDbEntity
  8
0
370
    25
100
AcDbText
 10
305.6934585983277
 20
85.90000915527344
 30
0
 40
2.450004577636719
  1
0710
 41
0.9
  7
Caddy_Vectorfont1p
 72
     2
 11
322.5
 21
85.90000915527344
 31
0
100
AcDbAttributeDefinition
  3
Produkt (-)
  2
$TAG160010
 70
     0
  0
ATTDEF
  5
323
330
318
100
AcDbEntity
  8
0
370
    25
100
AcDbText
 10
329.6500244140625
 20
83.84999084472656
 30
0
 40
2.450004577636719
  1
7.7
 41
0.9
  7
Caddy_Vectorfont1p
 11
0
 21
0
 31
0
100
AcDbAttributeDefinition
  3
Side/strømvej reference
  2
$TAG160500
 70
     0
  0
ENDBLK
  5
31A
330
318
100
AcDbEntity
  8
0
100
AcDbBlockEnd
  0
BLOCK
  5
32A
330
329
100
AcDbEntity
  8
0
100
AcDbBlockBegin
  2
Blk34
 70
     0
 10
0
 20
0
 30
0
  3
Blk34
  1

  0
TEXT
  5
32D
330
329
100
AcDbEntity
  8
0
370
    25
100
AcDbText
 10
190.6999969482422
 20
50.70000076293945
 30
0
 40
2.450000762939453
  1
8.3
 41
0.9
  7
Caddy_Vectorfont1p
 11
0
 21
0
 31
0
100
AcDbText
  0
TEXT
  5
32E
330
329
100
AcDbEntity
  8
0
370
    25
100
AcDbText
 10
175.3000030517578
 20
50.70000076293945
 30
0
 40
2.450000762939453
  1
6.1
 41
0.9
  7
Caddy_Vectorfont1p
 11
0
 21
0
 31
0
100
AcDbText
  0
TEXT
  5
32F
330
329
100
AcDbEntity
  8
0
370
    25
100
AcDbText
 10
177.120985798645
 20
55.70000076293945
 30
0
 40
2.450000762939453
  1
H
 41
0.9
  7
Caddy_Vectorfont1p
 72
     1
 11
178.1000061035156
 21
55.70000076293945
 31
0
100
AcDbText
  0
TEXT
  5
330
330
329
100
AcDbEntity
  8
0
370
    25
100
AcDbText
 10
185.1709735916138
 20
55.70000076293945
 30
0
 40
2.450000762939453
  1
S
 41
0.9
  7
Caddy_Vectorfont1p
 72
     1
 11
186.1499938964844
 21
55.70000076293945
 31
0
100
AcDbText
  0
TEXT
  5
331
330
329
100
AcDbEntity
  8
0
370
    25
100
AcDbText
 10
192.5209796951294
 20
55.70000076293945
 30
0
 40
2.450000762939453
  1
B
 41
0.9
  7
Caddy_Vectorfont1p
 72
     1
 11
193.5
 21
55.70000076293945
 31
0
100
AcDbText
  0
LINE
  5
332
330
329
100
AcDbEntity
  8
0
  6
Caddy_Solid
370
    25
100
AcDbLine
 10
174.6000061035156
 20
55
 30
0
 11
197
 21
55
 31
0
  0
LINE
  5
333
330
329
100
AcDbEntity
  8
0
  6
Caddy_Solid
370
    25
100
AcDbLine
 10
190
 20
58.5
 30
0
 11
190
 21
40
 31
0
  0
LINE
  5
334
330
329
100
AcDbEntity
  8
0
  6
Caddy_Solid
370
    25
100
AcDbLine
 10
182.3000030517578
 20
58.5
 30
0
 11
182.3000030517578
 21
40
 31
0
  0
ENDBLK
  5
32B
330
329
100
AcDbEntity
  8
0
100
AcDbBlockEnd
  0
BLOCK
  5
336
330
335
100
AcDbEntity
  8
0
100
AcDbBlockBegin
  2
Blk35
 70
     0
 10
0
 20
0
 30
0
  3
Blk35
  1

  0
TEXT
  5
339
330
335
100
AcDbEntity
  8
0
370
    25
100
AcDbText
 10
210.6999969482422
 20
50.70000076293945
 30
0
 40
2.450000762939453
  1
8.3
 41
0.9
  7
Caddy_Vectorfont1p
 11
0
 21
0
 31
0
100
AcDbText
  0
TEXT
  5
33A
330
335
100
AcDbEntity
  8
0
370
    25
100
AcDbText
 10
195.3000030517578
 20
50.70000076293945
 30
0
 40
2.450000762939453
  1
6.1
 41
0.9
  7
Caddy_Vectorfont1p
 11
0
 21
0
 31
0
100
AcDbText
  0
TEXT
  5
33B
330
335
100
AcDbEntity
  8
0
370
    25
100
AcDbText
 10
197.120985798645
 20
55.70000076293945
 30
0
 40
2.450000762939453
  1
H
 41
0.9
  7
Caddy_Vectorfont1p
 72
     1
 11
198.1000061035156
 21
55.70000076293945
 31
0
100
AcDbText
  0
TEXT
  5
33C
330
335
100
AcDbEntity
  8
0
370
    25
100
AcDbText
 10
205.1709735916138
 20
55.70000076293945
 30
0
 40
2.450000762939453
  1
S
 41
0.9
  7
Caddy_Vectorfont1p
 72
     1
 11
206.1499938964844
 21
55.70000076293945
 31
0
100
AcDbText
  0
TEXT
  5
33D
330
335
100
AcDbEntity
  8
0
370
    25
100
AcDbText
 10
212.5209796951294
 20
55.70000076293945
 30
0
 40
2.450000762939453
  1
B
 41
0.9
  7
Caddy_Vectorfont1p
 72
     1
 11
213.5
 21
55.70000076293945
 31
0
100
AcDbText
  0
LINE
  5
33E
330
335
100
AcDbEntity
  8
0
  6
Caddy_Solid
370
    25
100
AcDbLine
 10
194.6000061035156
 20
55
 30
0
 11
217
 21
55
 31
0
  0
LINE
  5
33F
330
335
100
AcDbEntity
  8
0
  6
Caddy_Solid
370
    25
100
AcDbLine
 10
210
 20
58.5
 30
0
 11
210
 21
40
 31
0
  0
LINE
  5
340
330
335
100
AcDbEntity
  8
0
  6
Caddy_Solid
370
    25
100
AcDbLine
 10
202.3000030517578
 20
58.5
 30
0
 11
202.3000030517578
 21
40
 31
0
  0
ENDBLK
  5
337
330
335
100
AcDbEntity
  8
0
100
AcDbBlockEnd
  0
ENDSEC
  0
SECTION
  2
ENTITIES
  0
INSERT
  5
43
330
1F
100
AcDbEntity
  8
0
100
AcDbBlockReference
  2
Blk1
 10
0
 20
0
 30
1
  0
INSERT
  5
AF
330
1F
100
AcDbEntity
  8
0
100
AcDbBlockReference
 66
     1
  2
Blk2
 10
0
 20
0
 30
1
  0
ATTRIB
  5
B2
330
AF
100
AcDbEntity
  8
0
370
    25
100
AcDbText
 10
34.26500701904297
 20
250.9000091552734
 30
0
 40
2.449996948242188
  1
0708
 41
0.9
  7
Caddy_Vectorfont1p
 11
0
 21
0
 31
0
100
AcDbAttribute
  2
$TAG160010
 70
     0
  0
SEQEND
  5
B3
330
AF
100
AcDbEntity
  8
0
  0
INSERT
  5
BE
330
1F
100
AcDbEntity
  8
0
100
AcDbBlockReference
 66
     1
  2
Blk3
 10
0
 20
0
 30
1
  0
ATTRIB
  5
C1
330
BE
100
AcDbEntity
  8
0
370
    25
100
AcDbText
 10
371.2670928161621
 20
250.9000091552734
 30
0
 40
2.449996948242188
  1
0708
 41
0.9
  7
Caddy_Vectorfont1p
 72
     2
 11
377.7850646972656
 21
250.9000091552734
 31
0
100
AcDbAttribute
  2
$TAG160010
 70
     0
  0
SEQEND
  5
C2
330
BE
100
AcDbEntity
  8
0
  0
LINE
  5
CA
330
1F
100
AcDbEntity
  8
0
  6
Caddy_Solid
370
    25
100
AcDbLine
 10
32.5
 20
250
 30
0
 11
70
 21
250
 31
0
  0
LINE
  5
CB
330
1F
100
AcDbEntity
  8
0
  6
Caddy_Solid
370
    25
100
AcDbLine
 10
70
 20
250
 30
0
 11
382.5
 21
250
 31
0
  0
INSERT
  5
CF
330
1F
100
AcDbEntity
  8
0
100
AcDbBlockReference
 66
     1
  2
Blk4
 10
0
 20
0
 30
1
  0
ATTRIB
  5
D2
330
CF
100
AcDbEntity
  8
0
370
    25
100
AcDbText
 10
39.26500701904297
 20
70.89999389648438
 30
0
 40
2.450004577636719
  1
0707
 41
0.9
  7
Caddy_Vectorfont1p
 11
0
 21
0
 31
0
100
AcDbAttribute
  2
$TAG160010
 70
     0
  0
SEQEND
  5
D3
330
CF
100
AcDbEntity
  8
0
  0
INSERT
  5
DE
330
1F
100
AcDbEntity
  8
0
100
AcDbBlockReference
 66
     1
  2
Blk5
 10
0
 20
0
 30
1
  0
ATTRIB
  5
E1
330
DE
100
AcDbEntity
  8
0
370
    25
100
AcDbText
 10
376.2604575065613
 20
70.89999389648438
 30
0
 40
2.450004577636719
  1
0707
 41
0.9
  7
Caddy_Vectorfont1p
 72
     2
 11
382.7850646972656
 21
70.89999389648438
 31
0
100
AcDbAttribute
  2
$TAG160010
 70
     0
  0
SEQEND
  5
E2
330
DE
100
AcDbEntity
  8
0
  0
LINE
  5
EA
330
1F
100
AcDbEntity
  8
0
  6
Caddy_Solid
370
    25
100
AcDbLine
 10
37.5
 20
70
 30
0
 11
70
 21
70
 31
0
  0
LINE
  5
EB
330
1F
100
AcDbEntity
  8
0
  6
Caddy_Solid
370
    25
100
AcDbLine
 10
70
 20
70
 30
0
 11
190
 21
70
 31
0
  0
LINE
  5
EC
330
1F
100
AcDbEntity
  8
0
  6
Caddy_Solid
370
    25
100
AcDbLine
 10
190
 20
70
 30
0
 11
210
 21
70
 31
0
  0
LINE
  5
ED
330
1F
100
AcDbEntity
  8
0
  6
Caddy_Solid
370
    25
100
AcDbLine
 10
210
 20
70
 30
0
 11
255
 21
70
 31
0
  0
LINE
  5
EE
330
1F
100
AcDbEntity
  8
0
  6
Caddy_Solid
370
    25
100
AcDbLine
 10
255
 20
70
 30
0
 11
387.5
 21
70
 31
0
  0
INSERT
  5
F2
330
1F
100
AcDbEntity
  8
0
100
AcDbBlockReference
 66
     1
  2
Blk6
 10
0
 20
0
 30
1
  0
ATTRIB
  5
F7
330
F2
100
AcDbEntity
  8
0
370
    25
100
AcDbText
 10
135.3013163528443
 20
213.8000030517578
 30
0
 40
2.449996948242188
  1
K0804
 41
0.9
  7
Caddy_Vectorfont1p
 72
     2
 11
144.0000305175781
 21
213.8000030517578
 31
0
100
AcDbAttribute
  2
$TAG160010
 70
     0
  0
SEQEND
  5
F8
330
F2
100
AcDbEntity
  8
0
  0
INSERT
  5
107
330
1F
100
AcDbEntity
  8
0
100
AcDbBlockReference
 66
     1
  2
Blk7
 10
0
 20
0
 30
1
  0
ATTRIB
  5
10C
330
107
100
AcDbEntity
  8
0
370
    25
100
AcDbText
 10
135.521816078186
 20
188.8000030517578
 30
0
 40
2.449996948242188
  1
K0805
 41
0.9
  7
Caddy_Vectorfont1p
 72
     2
 11
144.0000305175781
 21
188.8000030517578
 31
0
100
AcDbAttribute
  2
$TAG160010
 70
     0
  0
SEQEND
  5
10D
330
107
100
AcDbEntity
  8
0
  0
LINE
  5
119
330
1F
100
AcDbEntity
  8
0
  6
Caddy_Solid
370
    25
100
AcDbLine
 10
150
 20
155
 30
0
 11
150
 21
185
 31
0
  0
TEXT
  5
11A
330
1F
100
AcDbEntity
  8
0
370
    25
100
AcDbText
 10
149.5
 20
170
 30
0
 40
1.75
  1

 50
90
 41
0.9
  7
Caddy_Vectorfont1p
 72
     1
 11
149.5
 21
170
 31
0
100
AcDbText
  0
LINE
  5
11B
330
1F
100
AcDbEntity
  8
0
  6
Caddy_Solid
370
    25
100
AcDbLine
 10
150
 20
195
 30
0
 11
150
 21
210
 31
0
  0
TEXT
  5
11C
330
1F
100
AcDbEntity
  8
0
370
    25
100
AcDbText
 10
149.5
 20
199.9713375
 30
0
 40
1.75
  1
0804
 50
90
 41
0.9
  7
Caddy_Vectorfont1p
 72
     1
 11
149.5
 21
202.5
 31
0
100
AcDbText
  0
CIRCLE
  5
11D
330
1F
100
AcDbEntity
  8
0
370
    40
100
AcDbCircle
 10
70
 20
250
 30
0
 40
0.8
  0
CIRCLE
  5
11E
330
1F
100
AcDbEntity
  8
0
370
    40
100
AcDbCircle
 10
70
 20
250
 30
0
 40
0.6
  0
CIRCLE
  5
11F
330
1F
100
AcDbEntity
  8
0
370
    40
100
AcDbCircle
 10
70
 20
250
 30
0
 40
0.4
  0
LINE
  5
120
330
1F
100
AcDbEntity
  8
0
  6
Caddy_Solid
370
    25
100
AcDbLine
 10
110
 20
155
 30
0
 11
110
 21
240
 31
0
  0
TEXT
  5
121
330
1F
100
AcDbEntity
  8
0
370
    25
100
AcDbText
 10
109.5
 20
197.5
 30
0
 40
1.75
  1

 50
90
 41
0.9
  7
Caddy_Vectorfont1p
 72
     1
 11
109.5
 21
197.5
 31
0
100
AcDbText
  0
LINE
  5
122
330
1F
100
AcDbEntity
  8
0
  6
Caddy_Solid
370
    25
100
AcDbLine
 10
150
 20
220
 30
0
 11
150
 21
235
 31
0
  0
TEXT
  5
123
330
1F
100
AcDbEntity
  8
0
370
    25
100
AcDbText
 10
149.5
 20
225.0500875
 30
0
 40
1.75
  1
0805
 50
90
 41
0.9
  7
Caddy_Vectorfont1p
 72
     1
 11
149.5
 21
227.5
 31
0
100
AcDbText
  0
INSERT
  5
127
330
1F
100
AcDbEntity
  8
0
100
AcDbBlockReference
 66
     1
  2
Blk8
 10
0
 20
0
 30
1
  0
ATTRIB
  5
12B
330
127
100
AcDbEntity
  8
0
370
    25
100
AcDbText
 10
361.4891774871826
 20
195.9000091552734
 30
0
 40
2.449996948242188
  1
0812
 41
0.9
  7
Caddy_Vectorfont1p
 72
     2
 11
367.5
 21
195.9000091552734
 31
0
100
AcDbAttribute
  2
$TAG160010
 70
     0
  0
SEQEND
  5
12C
330
127
100
AcDbEntity
  8
0
  0
INSERT
  5
133
330
1F
100
AcDbEntity
  8
0
100
AcDbBlockReference
 66
     1
  2
Blk9
 10
0
 20
0
 30
1
  0
ATTRIB
  5
137
330
133
100
AcDbEntity
  8
0
370
    25
100
AcDbText
 10
366.4736932228088
 20
105.8999938964844
 30
0
 40
2.450004577636719
  1
0813
 41
0.9
  7
Caddy_Vectorfont1p
 72
     2
 11
372.4999694824219
 21
105.8999938964844
 31
0
100
AcDbAttribute
  2
$TAG160010
 70
     0
  0
SEQEND
  5
138
330
133
100
AcDbEntity
  8
0
  0
LINE
  5
13C
330
1F
100
AcDbEntity
  8
0
  6
Caddy_Solid
370
    25
100
AcDbLine
 10
360
 20
105
 30
0
 11
375
 21
105
 31
0
  0
TEXT
  5
13D
330
1F
100
AcDbEntity
  8
0
370
    25
100
AcDbText
 10
367.5
 20
105.5
 30
0
 40
1.75
  1

 41
0.9
  7
Caddy_Vectorfont1p
 72
     1
 11
367.5
 21
105.5
 31
0
100
AcDbText
  0
INSERT
  5
141
330
1F
100
AcDbEntity
  8
0
100
AcDbBlockReference
 66
     1
  2
Blk10
 10
0
 20
0
 30
1
  0
ATTRIB
  5
145
330
141
100
AcDbEntity
  8
0
370
    25
100
AcDbText
 10
346.4737425064087
 20
200.9000091552734
 30
0
 40
2.449996948242188
  1
0810
 41
0.9
  7
Caddy_Vectorfont1p
 72
     2
 11
352.5
 21
200.9000091552734
 31
0
100
AcDbAttribute
  2
$TAG160010
 70
     0
  0
SEQEND
  5
146
330
141
100
AcDbEntity
  8
0
  0
LINE
  5
14A
330
1F
100
AcDbEntity
  8
0
  6
Caddy_Solid
370
    25
100
AcDbLine
 10
340
 20
200
 30
0
 11
355
 21
200
 31
0
  0
TEXT
  5
14B
330
1F
100
AcDbEntity
  8
0
370
    25
100
AcDbText
 10
347.5
 20
200.5
 30
0
 40
1.75
  1

 41
0.9
  7
Caddy_Vectorfont1p
 72
     1
 11
347.5
 21
200.5
 31
0
100
AcDbText
  0
INSERT
  5
14F
330
1F
100
AcDbEntity
  8
0
100
AcDbBlockReference
 66
     1
  2
Blk11
 10
0
 20
0
 30
1
  0
ATTRIB
  5
153
330
14F
100
AcDbEntity
  8
0
370
    25
100
AcDbText
 10
346.9632346549988
 20
100.8999938964844
 30
0
 40
2.450004577636719
  1
0811
 41
0.9
  7
Caddy_Vectorfont1p
 72
     2
 11
352.5
 21
100.8999938964844
 31
0
100
AcDbAttribute
  2
$TAG160010
 70
     0
  0
SEQEND
  5
154
330
14F
100
AcDbEntity
  8
0
  0
LINE
  5
158
330
1F
100
AcDbEntity
  8
0
  6
Caddy_Solid
370
    25
100
AcDbLine
 10
340
 20
100
 30
0
 11
355
 21
100
 31
0
  0
TEXT
  5
159
330
1F
100
AcDbEntity
  8
0
370
    25
100
AcDbText
 10
347.5
 20
100.5
 30
0
 40
1.75
  1

 41
0.9
  7
Caddy_Vectorfont1p
 72
     1
 11
347.5
 21
100.5
 31
0
100
AcDbText
  0
LINE
  5
15A
330
1F
100
AcDbEntity
  8
0
  6
Caddy_Solid
370
    25
100
AcDbLine
 10
360
 20
195
 30
0
 11
370
 21
195
 31
0
  0
TEXT
  5
15B
330
1F
100
AcDbEntity
  8
0
370
    25
100
AcDbText
 10
365
 20
195.5
 30
0
 40
1.75
  1

 41
0.9
  7
Caddy_Vectorfont1p
 72
     1
 11
365
 21
195.5
 31
0
100
AcDbText
  0
INSERT
  5
15F
330
1F
100
AcDbEntity
  8
0
100
AcDbBlockReference
 66
     1
  2
Blk12
 10
0
 20
0
 30
1
  0
ATTRIB
  5
166
330
15F
100
AcDbEntity
  8
0
370
    25
100
AcDbText
 10
173.801289264679
 20
88.80000305175781
 30
0
 40
2.450004577636719
  1
K0804
 41
0.9
  7
Caddy_Vectorfont1p
 72
     2
 11
182.5000305175781
 21
88.80000305175781
 31
0
100
AcDbAttribute
  2
$TAG160010
 70
     0
  0
SEQEND
  5
167
330
15F
100
AcDbEntity
  8
0
  0
INSERT
  5
174
330
1F
100
AcDbEntity
  8
0
100
AcDbBlockReference
 66
     1
  2
Blk13
 10
0
 20
0
 30
1
  0
ATTRIB
  5
17B
330
174
100
AcDbEntity
  8
0
370
    25
100
AcDbText
 10
194.0217896766663
 20
88.80000305175781
 30
0
 40
2.450004577636719
  1
K0805
 41
0.9
  7
Caddy_Vectorfont1p
 72
     2
 11
202.5000305175781
 21
88.80000305175781
 31
0
100
AcDbAttribute
  2
$TAG160010
 70
     0
  0
SEQEND
  5
17C
330
174
100
AcDbEntity
  8
0
  0
LINE
  5
186
330
1F
100
AcDbEntity
  8
0
  6
Caddy_Solid
370
    25
100
AcDbLine
 10
325
 20
95
 30
0
 11
340
 21
95
 31
0
  0
TEXT
  5
187
330
1F
100
AcDbEntity
  8
0
370
    25
100
AcDbText
 10
332.5
 20
95.5
 30
0
 40
1.75
  1

 41
0.9
  7
Caddy_Vectorfont1p
 72
     1
 11
332.5
 21
95.5
 31
0
100
AcDbText
  0
LINE
  5
188
330
1F
100
AcDbEntity
  8
0
  6
Caddy_Solid
370
    25
100
AcDbLine
 10
325
 20
95
 30
0
 11
325
 21
140
 31
0
  0
INSERT
  5
18C
330
1F
100
AcDbEntity
  8
0
100
AcDbBlockReference
 66
     1
  2
Blk14
 10
0
 20
0
 30
1
  0
ATTRIB
  5
190
330
18C
100
AcDbEntity
  8
0
370
    25
100
AcDbText
 10
330.9820078216553
 20
95.89999389648438
 30
0
 40
2.450004577636719
  1
0809
 41
0.9
  7
Caddy_Vectorfont1p
 72
     2
 11
337.5
 21
95.89999389648438
 31
0
100
AcDbAttribute
  2
$TAG160010
 70
     0
  0
SEQEND
  5
191
330
18C
100
AcDbEntity
  8
0
  0
INSERT
  5
198
330
1F
100
AcDbEntity
  8
0
100
AcDbBlockReference
 66
     1
  2
Blk15
 10
0
 20
0
 30
1
  0
ATTRIB
  5
19C
330
198
100
AcDbEntity
  8
0
370
    25
100
AcDbText
 10
190.9974936172485
 20
240.9000091552734
 30
0
 40
2.449996948242188
  1
0802
 41
0.9
  7
Caddy_Vectorfont1p
 72
     2
 11
197.5000305175781
 21
240.9000091552734
 31
0
100
AcDbAttribute
  2
$TAG160010
 70
     0
  0
SEQEND
  5
19D
330
198
100
AcDbEntity
  8
0
  0
INSERT
  5
1A4
330
1F
100
AcDbEntity
  8
0
100
AcDbBlockReference
 66
     1
  2
Blk16
 10
0
 20
0
 30
1
  0
ATTRIB
  5
1A8
330
1A4
100
AcDbEntity
  8
0
370
    25
100
AcDbText
 10
190.9820433776856
 20
235.9000091552734
 30
0
 40
2.449996948242188
  1
0805
 41
0.9
  7
Caddy_Vectorfont1p
 72
     2
 11
197.5000152587891
 21
235.9000091552734
 31
0
100
AcDbAttribute
  2
$TAG160010
 70
     0
  0
SEQEND
  5
1A9
330
1A4
100
AcDbEntity
  8
0
  0
LINE
  5
1AD
330
1F
100
AcDbEntity
  8
0
  6
Caddy_Solid
370
    25
100
AcDbLine
 10
150
 20
235
 30
0
 11
200
 21
235
 31
0
  0
TEXT
  5
1AE
330
1F
100
AcDbEntity
  8
0
370
    25
100
AcDbText
 10
172.5500875
 20
235.5
 30
0
 40
1.75
  1
0805
 41
0.9
  7
Caddy_Vectorfont1p
 72
     1
 11
175
 21
235.5
 31
0
100
AcDbText
  0
LINE
  5
1AF
330
1F
100
AcDbEntity
  8
0
  6
Caddy_Solid
370
    25
100
AcDbLine
 10
110
 20
240
 30
0
 11
200
 21
240
 31
0
  0
TEXT
  5
1B0
330
1F
100
AcDbEntity
  8
0
370
    25
100
AcDbText
 10
145
 20
240.5
 30
0
 40
1.75
  1

 41
0.9
  7
Caddy_Vectorfont1p
 72
     1
 11
145
 21
240.5
 31
0
100
AcDbText
  0
LINE
  5
1B1
330
1F
100
AcDbEntity
  8
0
  6
Caddy_Solid
370
    25
100
AcDbLine
 10
270
 20
140
 30
0
 11
270
 21
100
 31
0
  0
LINE
  5
1B2
330
1F
100
AcDbEntity
  8
0
  6
Caddy_Solid
370
    25
100
AcDbLine
 10
190
 20
100
 30
0
 11
210
 21
100
 31
0
  0
TEXT
  5
1B3
330
1F
100
AcDbEntity
  8
0
370
    25
100
AcDbText
 10
197.5500875
 20
100.5
 30
0
 40
1.75
  1
0806
 41
0.9
  7
Caddy_Vectorfont1p
 72
     1
 11
200
 21
100.5
 31
0
100
AcDbText
  0
LINE
  5
1B4
330
1F
100
AcDbEntity
  8
0
  6
Caddy_Solid
370
    25
100
AcDbLine
 10
100
 20
155
 30
0
 11
100
 21
170
 31
0
  0
TEXT
  5
1B5
330
1F
100
AcDbEntity
  8
0
370
    25
100
AcDbText
 10
99.5
 20
162.5
 30
0
 40
1.75
  1

 50
90
 41
0.9
  7
Caddy_Vectorfont1p
 72
     1
 11
99.5
 21
162.5
 31
0
100
AcDbText
  0
LINE
  5
1B6
330
1F
100
AcDbEntity
  8
0
  6
Caddy_Solid
370
    25
100
AcDbLine
 10
125
 20
155
 30
0
 11
125
 21
170
 31
0
  0
LINE
  5
1B7
330
1F
100
AcDbEntity
  8
0
  6
Caddy_Solid
370
    25
100
AcDbLine
 10
105
 20
170
 30
0
 11
115
 21
170
 31
0
  0
LINE
  5
1B8
330
1F
100
AcDbEntity
  8
0
  6
Caddy_Solid
370
    25
100
AcDbLine
 10
115
 20
170
 30
0
 11
125
 21
170
 31
0
  0
LINE
  5
1B9
330
1F
100
AcDbEntity
  8
0
  6
Caddy_Solid
370
    25
100
AcDbLine
 10
100
 20
170
 30
0
 11
105
 21
170
 31
0
  0
LINE
  5
1BA
330
1F
100
AcDbEntity
  8
0
  6
Caddy_Solid
370
    25
100
AcDbLine
 10
105
 20
170
 30
0
 11
115
 21
170
 31
0
  0
CIRCLE
  5
1BB
330
1F
100
AcDbEntity
  8
0
370
    40
100
AcDbCircle
 10
100
 20
170
 30
0
 40
0.8
  0
CIRCLE
  5
1BC
330
1F
100
AcDbEntity
  8
0
370
    40
100
AcDbCircle
 10
100
 20
170
 30
0
 40
0.6
  0
CIRCLE
  5
1BD
330
1F
100
AcDbEntity
  8
0
370
    40
100
AcDbCircle
 10
100
 20
170
 30
0
 40
0.4
  0
LINE
  5
1BE
330
1F
100
AcDbEntity
  8
0
  6
Caddy_Solid
370
    25
100
AcDbLine
 10
90
 20
155
 30
0
 11
90
 21
170
 31
0
  0
TEXT
  5
1BF
330
1F
100
AcDbEntity
  8
0
370
    25
100
AcDbText
 10
89.5
 20
162.5
 30
0
 40
1.75
  1

 50
90
 41
0.9
  7
Caddy_Vectorfont1p
 72
     1
 11
89.5
 21
162.5
 31
0
100
AcDbText
  0
LINE
  5
1C0
330
1F
100
AcDbEntity
  8
0
  6
Caddy_Solid
370
    25
100
AcDbLine
 10
90
 20
170
 30
0
 11
100
 21
170
 31
0
  0
TEXT
  5
1C1
330
1F
100
AcDbEntity
  8
0
370
    25
100
AcDbText
 10
95
 20
170.5
 30
0
 40
1.75
  1

 41
0.9
  7
Caddy_Vectorfont1p
 72
     1
 11
95
 21
170.5
 31
0
100
AcDbText
  0
CIRCLE
  5
1C2
330
1F
100
AcDbEntity
  8
0
370
    40
100
AcDbCircle
 10
90
 20
170
 30
0
 40
0.8
  0
CIRCLE
  5
1C3
330
1F
100
AcDbEntity
  8
0
370
    40
100
AcDbCircle
 10
90
 20
170
 30
0
 40
0.6
  0
CIRCLE
  5
1C4
330
1F
100
AcDbEntity
  8
0
370
    40
100
AcDbCircle
 10
90
 20
170
 30
0
 40
0.4
  0
CIRCLE
  5
1C5
330
1F
100
AcDbEntity
  8
0
370
    40
100
AcDbCircle
 10
190
 20
70
 30
0
 40
0.8
  0
CIRCLE
  5
1C6
330
1F
100
AcDbEntity
  8
0
370
    40
100
AcDbCircle
 10
190
 20
70
 30
0
 40
0.6
  0
CIRCLE
  5
1C7
330
1F
100
AcDbEntity
  8
0
370
    40
100
AcDbCircle
 10
190
 20
70
 30
0
 40
0.4
  0
CIRCLE
  5
1C8
330
1F
100
AcDbEntity
  8
0
370
    40
100
AcDbCircle
 10
210
 20
70
 30
0
 40
0.8
  0
CIRCLE
  5
1C9
330
1F
100
AcDbEntity
  8
0
370
    40
100
AcDbCircle
 10
210
 20
70
 30
0
 40
0.6
  0
CIRCLE
  5
1CA
330
1F
100
AcDbEntity
  8
0
370
    40
100
AcDbCircle
 10
210
 20
70
 30
0
 40
0.4
  0
LINE
  5
1CB
330
1F
100
AcDbEntity
  8
0
  6
Caddy_Solid
370
    25
100
AcDbLine
 10
260
 20
275
 30
0
 11
235
 21
275
 31
0
  0
TEXT
  5
1CC
330
1F
100
AcDbEntity
  8
0
370
    25
100
AcDbText
 10
247.5
 20
275.5
 30
0
 40
1.75
  1

 41
0.9
  7
Caddy_Vectorfont1p
 72
     1
 11
247.5
 21
275.5
 31
0
100
AcDbText
  0
INSERT
  5
1D0
330
1F
100
AcDbEntity
  8
0
100
AcDbBlockReference
 66
     1
  2
Blk17
 10
0
 20
0
 30
1
  0
ATTRIB
  5
1D4
330
1D0
100
AcDbEntity
  8
0
370
    25
100
AcDbText
 10
225.2651441116333
 20
116.3000030517578
 30
0
 40
2.450004577636719
  1
X12
 41
0.9
  7
Caddy_Vectorfont1p
 72
     2
 11
230.0500030517578
 21
116.3000030517578
 31
0
100
AcDbAttribute
  2
$TAG160010
 70
     0
  0
SEQEND
  5
1D5
330
1D0
100
AcDbEntity
  8
0
  0
CIRCLE
  5
1E3
330
1F
100
AcDbEntity
  8
0
370
    40
100
AcDbCircle
 10
190
 20
100
 30
0
 40
0.8
  0
CIRCLE
  5
1E4
330
1F
100
AcDbEntity
  8
0
370
    40
100
AcDbCircle
 10
190
 20
100
 30
0
 40
0.6
  0
CIRCLE
  5
1E5
330
1F
100
AcDbEntity
  8
0
370
    40
100
AcDbCircle
 10
190
 20
100
 30
0
 40
0.4
  0
LINE
  5
1E6
330
1F
100
AcDbEntity
  8
0
  6
Caddy_Solid
370
    25
100
AcDbLine
 10
70
 20
155
 30
0
 11
70
 21
170
 31
0
  0
LINE
  5
1E7
330
1F
100
AcDbEntity
  8
0
  6
Caddy_Solid
370
    25
100
AcDbLine
 10
70
 20
170
 30
0
 11
70
 21
250
 31
0
  0
CIRCLE
  5
1E8
330
1F
100
AcDbEntity
  8
0
370
    40
100
AcDbCircle
 10
70
 20
170
 30
0
 40
0.8
  0
CIRCLE
  5
1E9
330
1F
100
AcDbEntity
  8
0
370
    40
100
AcDbCircle
 10
70
 20
170
 30
0
 40
0.6
  0
CIRCLE
  5
1EA
330
1F
100
AcDbEntity
  8
0
370
    40
100
AcDbCircle
 10
70
 20
170
 30
0
 40
0.4
  0
LINE
  5
1EB
330
1F
100
AcDbEntity
  8
0
  6
Caddy_Solid
370
    25
100
AcDbLine
 10
70
 20
170
 30
0
 11
90
 21
170
 31
0
  0
TEXT
  5
1EC
330
1F
100
AcDbEntity
  8
0
370
    25
100
AcDbText
 10
75
 20
170.5
 30
0
 40
1.75
  1

 41
0.9
  7
Caddy_Vectorfont1p
 72
     1
 11
75
 21
170.5
 31
0
100
AcDbText
  0
LINE
  5
1ED
330
1F
100
AcDbEntity
  8
0
  6
Caddy_Solid
370
    25
100
AcDbLine
 10
70
 20
140
 30
0
 11
70
 21
70
 31
0
  0
CIRCLE
  5
1EE
330
1F
100
AcDbEntity
  8
0
370
    40
100
AcDbCircle
 10
70
 20
70
 30
0
 40
0.8
  0
CIRCLE
  5
1EF
330
1F
100
AcDbEntity
  8
0
370
    40
100
AcDbCircle
 10
70
 20
70
 30
0
 40
0.6
  0
CIRCLE
  5
1F0
330
1F
100
AcDbEntity
  8
0
370
    40
100
AcDbCircle
 10
70
 20
70
 30
0
 40
0.4
  0
LINE
  5
1F1
330
1F
100
AcDbEntity
  8
0
  6
Caddy_Solid
370
    25
100
AcDbLine
 10
340
 20
155
 30
0
 11
340
 21
200
 31
0
  0
LINE
  5
1F2
330
1F
100
AcDbEntity
  8
0
  6
Caddy_Solid
370
    25
100
AcDbLine
 10
340
 20
100
 30
0
 11
340
 21
140
 31
0
  0
LINE
  5
1F3
330
1F
100
AcDbEntity
  8
0
  6
Caddy_Solid
370
    25
100
AcDbLine
 10
360
 20
105
 30
0
 11
360
 21
140
 31
0
  0
LINE
  5
1F4
330
1F
100
AcDbEntity
  8
0
  6
Caddy_Solid
370
    25
100
AcDbLine
 10
360
 20
155
 30
0
 11
360
 21
195
 31
0
  0
INSERT
  5
1F8
330
1F
100
AcDbEntity
  8
0
100
AcDbBlockReference
 66
     1
  2
Blk18
 10
0
 20
0
 30
1
  0
ATTRIB
  5
1F9
330
1F8
100
AcDbEntity
  8
0
370
    25
100
AcDbText
 10
266.8000183105469
 20
94.69999694824219
 30
0
 40
2.450004577636719
  1

 41
0.9
  7
Caddy_Vectorfont1p
 72
     2
 11
266.8000183105469
 21
94.69999694824219
 31
0
100
AcDbAttribute
  2
$TAG160030
 70
     0
  0
SEQEND
  5
1FA
330
1F8
100
AcDbEntity
  8
0
  0
INSERT
  5
223
330
1F
100
AcDbEntity
  8
0
100
AcDbBlockReference
 66
     1
  2
Blk21
 10
0
 20
0
 30
1
  0
ATTRIB
  5
230
330
223
100
AcDbEntity
  8
0
370
    25
100
AcDbText
 10
229.0999908447266
 20
88.40000915527344
 30
0
 40
2.450004577636719
  1

 50
90
 41
0.9
  7
Caddy_Vectorfont1p
 11
0
 21
0
 31
0
100
AcDbAttribute
  2
$TAG175000_00
 70
     0
  0
SEQEND
  5
231
330
223
100
AcDbEntity
  8
0
  0
INSERT
  5
23E
330
1F
100
AcDbEntity
  8
0
100
AcDbBlockReference
 66
     1
  2
Blk22
 10
0
 20
0
 30
1
  0
ATTRIB
  5
24A
330
23E
100
AcDbEntity
  8
0
370
    25
100
AcDbText
 10
223.2477567085266
 20
106.3000030517578
 30
0
 40
2.450004577636719
  1
8X5.1
 41
0.9
  7
Caddy_Vectorfont1p
 72
     2
 11
230.5000152587891
 21
106.3000030517578
 31
0
100
AcDbAttribute
  2
$TAG160010
 70
     0
  0
SEQEND
  5
24B
330
23E
100
AcDbEntity
  8
0
  0
ATTDEF
  5
255
330
1F
100
AcDbEntity
  8
0
370
    25
100
AcDbText
 10
69.09999084472656
 20
155.9000091552734
 30
0
 40
2.449996948242188
  1
A1
 50
90
 41
0.9
  7
Caddy_Vectorfont1p
 11
0
 21
0
 31
0
100
AcDbAttributeDefinition
  3
Tilslutningstekst 00
  2
$TAG175000_00
 70
     0
  0
ATTDEF
  5
256
330
1F
100
AcDbEntity
  8
0
370
    25
100
AcDbText
 10
89.09999084472656
 20
155.9000091552734
 30
0
 40
2.449996948242188
  1
23
 50
90
 41
0.9
  7
Caddy_Vectorfont1p
 11
0
 21
0
 31
0
100
AcDbAttributeDefinition
  3
Tilslutningstekst 03
  2
$TAG175000_03
 70
     0
  0
ATTDEF
  5
257
330
1F
100
AcDbEntity
  8
0
370
    25
100
AcDbText
 10
99.09999084472656
 20
155.9000091552734
 30
0
 40
2.449996948242188
  1
33
 50
90
 41
0.9
  7
Caddy_Vectorfont1p
 11
0
 21
0
 31
0
100
AcDbAttributeDefinition
  3
Tilslutningstekst 04
  2
$TAG175000_04
 70
     0
  0
ATTDEF
  5
258
330
1F
100
AcDbEntity
  8
0
370
    25
100
AcDbText
 10
109.0999908447266
 20
155.9000091552734
 30
0
 40
2.449996948242188
  1
T31
 50
90
 41
0.9
  7
Caddy_Vectorfont1p
 11
0
 21
0
 31
0
100
AcDbAttributeDefinition
  3
Tilslutningstekst 05
  2
$TAG175000_05
 70
     0
  0
ATTDEF
  5
259
330
1F
100
AcDbEntity
  8
0
370
    25
100
AcDbText
 10
149.0999908447266
 20
155.9000091552734
 30
0
 40
2.449996948242188
  1
T32
 50
90
 41
0.9
  7
Caddy_Vectorfont1p
 11
0
 21
0
 31
0
100
AcDbAttributeDefinition
  3
Tilslutningstekst 07
  2
$TAG175000_07
 70
     0
  0
ATTDEF
  5
25A
330
1F
100
AcDbEntity
  8
0
370
    25
100
AcDbText
 10
339.0999755859375
 20
155.9000244140625
 30
0
 40
2.449996948242188
  1
T11
 50
90
 41
0.9
  7
Caddy_Vectorfont1p
 11
0
 21
0
 31
0
100
AcDbAttributeDefinition
  3
Tilslutningstekst 11
  2
$TAG175000_11
 70
     0
  0
ATTDEF
  5
25B
330
1F
100
AcDbEntity
  8
0
370
    25
100
AcDbText
 10
339.0999755859375
 20
115.4834574417114
 30
0
 40
2.449996948242188
  1
T21
 50
90
 41
0.9
  7
Caddy_Vectorfont1p
 72
     2
 11
339.0999755859375
 21
138.3999938964844
 31
0
100
AcDbAttributeDefinition
  3
Tilslutningstekst 12
  2
$TAG175000_12
 70
     0
  0
ATTDEF
  5
25C
330
1F
100
AcDbEntity
  8
0
370
    25
100
AcDbText
 10
359.0999755859375
 20
155.9000244140625
 30
0
 40
2.449996948242188
  1
T12
 50
90
 41
0.9
  7
Caddy_Vectorfont1p
 11
0
 21
0
 31
0
100
AcDbAttributeDefinition
  3
Tilslutningstekst 13
  2
$TAG175000_13
 70
     0
  0
ATTDEF
  5
25D
330
1F
100
AcDbEntity
  8
0
370
    25
100
AcDbText
 10
359.0999755859375
 20
115.2475227355957
 30
0
 40
2.449996948242188
  1
T22
 50
90
 41
0.9
  7
Caddy_Vectorfont1p
 72
     2
 11
359.0999755859375
 21
138.3999938964844
 31
0
100
AcDbAttributeDefinition
  3
Tilslutningstekst 14
  2
$TAG175000_14
 70
     0
  0
INSERT
  5
261
330
1F
100
AcDbEntity
  8
0
100
AcDbBlockReference
 66
     1
  2
Blk23
 10
0
 20
0
 30
1
  0
ATTRIB
  5
2A2
330
261
100
AcDbEntity
  8
0
370
    25
100
AcDbText
 10
69.09999084472656
 20
134.8389233322144
 30
0
 40
2.449996948242188
  1
A2
 50
90
 41
0.9
  7
Caddy_Vectorfont1p
 72
     2
 11
69.09999084472656
 21
138.3999938964844
 31
0
100
AcDbAttribute
  2
$TAG175000_01
 70
     0
  0
SEQEND
  5
2A3
330
261
100
AcDbEntity
  8
0
  0
LINE
  5
2AB
330
1F
100
AcDbEntity
  8
0
  6
Caddy_Solid
370
    25
100
AcDbLine
 10
190
 20
100
 30
0
 11
190
 21
125
 31
0
  0
TEXT
  5
2AC
330
1F
100
AcDbEntity
  8
0
370
    25
100
AcDbText
 10
189.5
 20
110.0500875
 30
0
 40
1.75
  1
0806
 50
90
 41
0.9
  7
Caddy_Vectorfont1p
 72
     1
 11
189.5
 21
112.5
 31
0
100
AcDbText
  0
LINE
  5
2AD
330
1F
100
AcDbEntity
  8
0
  6
Caddy_Solid
370
    25
100
AcDbLine
 10
190
 20
130
 30
0
 11
230
 21
130
 31
0
  0
TEXT
  5
2AE
330
1F
100
AcDbEntity
  8
0
370
    25
100
AcDbText
 10
207.5500875
 20
130.5
 30
0
 40
1.75
  1
0806
 41
0.9
  7
Caddy_Vectorfont1p
 72
     1
 11
210
 21
130.5
 31
0
100
AcDbText
  0
LINE
  5
2AF
330
1F
100
AcDbEntity
  8
0
  6
Caddy_Solid
370
    25
100
AcDbLine
 10
230
 20
75
 30
0
 11
230
 21
80
 31
0
  0
LINE
  5
2B0
330
1F
100
AcDbEntity
  8
0
  6
Caddy_Solid
370
    25
100
AcDbLine
 10
230
 20
75
 30
0
 11
245
 21
75
 31
0
  0
LINE
  5
2B1
330
1F
100
AcDbEntity
  8
0
  6
Caddy_Solid
370
    25
100
AcDbLine
 10
245
 20
75
 30
0
 11
245
 21
95
 31
0
  0
LINE
  5
2B2
330
1F
100
AcDbEntity
  8
0
  6
Caddy_Solid
370
    25
100
AcDbLine
 10
245
 20
95
 30
0
 11
235
 21
95
 31
0
  0
LINE
  5
2B3
330
1F
100
AcDbEntity
  8
0
  6
Caddy_Solid
370
    25
100
AcDbLine
 10
235
 20
95
 30
0
 11
235
 21
100
 31
0
  0
LINE
  5
2B4
330
1F
100
AcDbEntity
  8
0
  6
Caddy_Solid
370
    25
100
AcDbLine
 10
235
 20
130
 30
0
 11
255
 21
130
 31
0
  0
TEXT
  5
2B5
330
1F
100
AcDbEntity
  8
0
370
    25
100
AcDbText
 10
245
 20
130.5
 30
0
 40
1.75
  1

 41
0.9
  7
Caddy_Vectorfont1p
 72
     1
 11
245
 21
130.5
 31
0
100
AcDbText
  0
LINE
  5
2B6
330
1F
100
AcDbEntity
  8
0
  6
Caddy_Solid
370
    25
100
AcDbLine
 10
255
 20
130
 30
0
 11
255
 21
70
 31
0
  0
TEXT
  5
2B7
330
1F
100
AcDbEntity
  8
0
370
    25
100
AcDbText
 10
254.5
 20
100
 30
0
 40
1.75
  1

 50
90
 41
0.9
  7
Caddy_Vectorfont1p
 72
     1
 11
254.5
 21
100
 31
0
100
AcDbText
  0
CIRCLE
  5
2B8
330
1F
100
AcDbEntity
  8
0
370
    40
100
AcDbCircle
 10
255
 20
70
 30
0
 40
0.8
  0
CIRCLE
  5
2B9
330
1F
100
AcDbEntity
  8
0
370
    40
100
AcDbCircle
 10
255
 20
70
 30
0
 40
0.6
  0
CIRCLE
  5
2BA
330
1F
100
AcDbEntity
  8
0
370
    40
100
AcDbCircle
 10
255
 20
70
 30
0
 40
0.4
  0
LINE
  5
2BB
330
1F
100
AcDbEntity
  8
0
  6
Caddy_Solid
370
    25
100
AcDbLine
 10
235
 20
110
 30
0
 11
235
 21
115
 31
0
  0
LINE
  5
2BC
330
1F
100
AcDbEntity
  8
0
  6
Caddy_Solid
370
    25
100
AcDbLine
 10
235
 20
120
 30
0
 11
235
 21
130
 31
0
  0
TEXT
  5
2BD
330
1F
100
AcDbEntity
  8
0
370
    25
100
AcDbText
 10
234.5
 20
125
 30
0
 40
1.75
  1

 50
90
 41
0.9
  7
Caddy_Vectorfont1p
 72
     1
 11
234.5
 21
125
 31
0
100
AcDbText
  0
TEXT
  5
2BE
330
1F
100
AcDbEntity
  8
0
370
    25
100
AcDbText
 10
69.39999389648438
 20
220.6000061035156
 30
0
 40
2.099990844726562
  1
0708
 50
90
 41
0.9
  7
Caddy_Vectorfont1p
 11
0
 21
0
 31
0
100
AcDbText
  0
TEXT
  5
2BF
330
1F
100
AcDbEntity
  8
0
370
    25
100
AcDbText
 10
109.3999938964844
 20
220.6000061035156
 30
0
 40
2.099990844726562
  1
0802
 50
90
 41
0.9
  7
Caddy_Vectorfont1p
 11
0
 21
0
 31
0
100
AcDbText
  0
TEXT
  5
2C0
330
1F
100
AcDbEntity
  8
0
370
    25
100
AcDbText
 10
149.3999938964844
 20
170.6000061035156
 30
0
 40
2.099990844726562
  1
0803
 50
90
 41
0.9
  7
Caddy_Vectorfont1p
 11
0
 21
0
 31
0
100
AcDbText
  0
TEXT
  5
2C1
330
1F
100
AcDbEntity
  8
0
370
    25
100
AcDbText
 10
69.40000152587891
 20
100.5999984741211
 30
0
 40
2.099998474121094
  1
0707
 50
90
 41
0.9
  7
Caddy_Vectorfont1p
 11
0
 21
0
 31
0
100
AcDbText
  0
INSERT
  5
2C5
330
1F
100
AcDbEntity
  8
0
100
AcDbBlockReference
 66
     1
  2
Blk30
 10
0
 20
0
 30
1
  0
ATTRIB
  5
2C9
330
2C5
100
AcDbEntity
  8
0
370
    25
100
AcDbText
 10
221.4734863693237
 20
116.3000030517578
 30
0
 40
2.450004577636719
  1
X8
 41
0.9
  7
Caddy_Vectorfont1p
 72
     2
 11
225.0500030517578
 21
116.3000030517578
 31
0
100
AcDbAttribute
  2
$TAG160010
 70
     0
  0
SEQEND
  5
2CA
330
2C5
100
AcDbEntity
  8
0
  0
LINE
  5
2D8
330
1F
100
AcDbEntity
  8
0
  6
Caddy_Solid
370
    25
100
AcDbLine
 10
230
 20
120
 30
0
 11
230
 21
130
 31
0
  0
TEXT
  5
2D9
330
1F
100
AcDbEntity
  8
0
370
    25
100
AcDbText
 10
229.5
 20
122.5500875
 30
0
 40
1.75
  1
0806
 50
90
 41
0.9
  7
Caddy_Vectorfont1p
 72
     1
 11
229.5
 21
125
 31
0
100
AcDbText
  0
INSERT
  5
2DD
330
1F
100
AcDbEntity
  8
0
100
AcDbBlockReference
 66
     1
  2
Blk31
 10
0
 20
0
 30
1
  0
ATTRIB
  5
2E9
330
2DD
100
AcDbEntity
  8
0
370
    25
100
AcDbText
 10
217.7736808227539
 20
106.3000030517578
 30
0
 40
2.450004577636719
  1
8X5.2
 41
0.9
  7
Caddy_Vectorfont1p
 72
     2
 11
225.5000152587891
 21
106.3000030517578
 31
0
100
AcDbAttribute
  2
$TAG160010
 70
     0
  0
SEQEND
  5
2EA
330
2DD
100
AcDbEntity
  8
0
  0
LINE
  5
2F4
330
1F
100
AcDbEntity
  8
0
  6
Caddy_Solid
370
    25
100
AcDbLine
 10
230
 20
90
 30
0
 11
230
 21
100
 31
0
  0
TEXT
  5
2F5
330
1F
100
AcDbEntity
  8
0
370
    25
100
AcDbText
 10
269.3999938964844
 20
115.6000061035156
 30
0
 40
2.099998474121094
  1
0808
 50
90
 41
0.9
  7
Caddy_Vectorfont1p
 11
0
 21
0
 31
0
100
AcDbText
  0
TEXT
  5
2F6
330
1F
100
AcDbEntity
  8
0
370
    25
100
AcDbText
 10
339.3999938964844
 20
175.6000061035156
 30
0
 40
2.099990844726562
  1
0810
 50
90
 41
0.9
  7
Caddy_Vectorfont1p
 11
0
 21
0
 31
0
100
AcDbText
  0
TEXT
  5
2F7
330
1F
100
AcDbEntity
  8
0
370
    25
100
AcDbText
 10
324.3999938964844
 20
115.6000061035156
 30
0
 40
2.099998474121094
  1
0809
 50
90
 41
0.9
  7
Caddy_Vectorfont1p
 11
0
 21
0
 31
0
100
AcDbText
  0
TEXT
  5
2F8
330
1F
100
AcDbEntity
  8
0
370
    25
100
AcDbText
 10
339.3999938964844
 20
115.6000061035156
 30
0
 40
2.099998474121094
  1
0811
 50
90
 41
0.9
  7
Caddy_Vectorfont1p
 11
0
 21
0
 31
0
100
AcDbText
  0
TEXT
  5
2F9
330
1F
100
AcDbEntity
  8
0
370
    25
100
AcDbText
 10
359.3999938964844
 20
115.6000061035156
 30
0
 40
2.099998474121094
  1
0813
 50
90
 41
0.9
  7
Caddy_Vectorfont1p
 11
0
 21
0
 31
0
100
AcDbText
  0
TEXT
  5
2FA
330
1F
100
AcDbEntity
  8
0
370
    25
100
AcDbText
 10
359.3999938964844
 20
175.6000061035156
 30
0
 40
2.099990844726562
  1
0812
 50
90
 41
0.9
  7
Caddy_Vectorfont1p
 11
0
 21
0
 31
0
100
AcDbText
  0
LINE
  5
2FB
330
1F
100
AcDbEntity
  8
0
  6
Caddy_Solid
370
    25
100
AcDbLine
 10
210
 20
70
 30
0
 11
210
 21
85
 31
0
  0
TEXT
  5
2FC
330
1F
100
AcDbEntity
  8
0
370
    25
100
AcDbText
 10
209.5
 20
77.5
 30
0
 40
1.75
  1

 50
90
 41
0.9
  7
Caddy_Vectorfont1p
 72
     1
 11
209.5
 21
77.5
 31
0
100
AcDbText
  0
LINE
  5
2FD
330
1F
100
AcDbEntity
  8
0
  6
Caddy_Solid
370
    25
100
AcDbLine
 10
210
 20
95
 30
0
 11
210
 21
100
 31
0
  0
TEXT
  5
2FE
330
1F
100
AcDbEntity
  8
0
370
    25
100
AcDbText
 10
209.5
 20
97.5
 30
0
 40
1.75
  1

 50
90
 41
0.9
  7
Caddy_Vectorfont1p
 72
     1
 11
209.5
 21
97.5
 31
0
100
AcDbText
  0
LINE
  5
2FF
330
1F
100
AcDbEntity
  8
0
  6
Caddy_Solid
370
    25
100
AcDbLine
 10
190
 20
70
 30
0
 11
190
 21
85
 31
0
  0
TEXT
  5
300
330
1F
100
AcDbEntity
  8
0
370
    25
100
AcDbText
 10
189.5
 20
77.5
 30
0
 40
1.75
  1

 50
90
 41
0.9
  7
Caddy_Vectorfont1p
 72
     1
 11
189.5
 21
77.5
 31
0
100
AcDbText
  0
LINE
  5
301
330
1F
100
AcDbEntity
  8
0
  6
Caddy_Solid
370
    25
100
AcDbLine
 10
190
 20
95
 30
0
 11
190
 21
100
 31
0
  0
TEXT
  5
302
330
1F
100
AcDbEntity
  8
0
370
    25
100
AcDbText
 10
189.5
 20
97.5
 30
0
 40
1.75
  1

 50
90
 41
0.9
  7
Caddy_Vectorfont1p
 72
     1
 11
189.5
 21
97.5
 31
0
100
AcDbText
  0
TEXT
  5
303
330
1F
100
AcDbEntity
  8
0
370
    25
100
AcDbText
 10
110.6999969482422
 20
45.70000076293945
 30
0
 40
2.450000762939453
  1
Nødstop relæ
 41
0.9
  7
Caddy_Vectorfont1p
 11
0
 21
0
 31
0
100
AcDbText
  0
LINE
  5
304
330
1F
100
AcDbEntity
  8
0
  6
Caddy_Solid
370
    25
100
AcDbLine
 10
190
 20
125
 30
0
 11
190
 21
130
 31
0
  0
LINE
  5
305
330
1F
100
AcDbEntity
  8
0
  6
Caddy_Solid
370
    25
100
AcDbLine
 10
190
 20
130
 30
0
 11
190
 21
140
 31
0
  0
CIRCLE
  5
306
330
1F
100
AcDbEntity
  8
0
370
    40
100
AcDbCircle
 10
190
 20
130
 30
0
 40
0.8
  0
CIRCLE
  5
307
330
1F
100
AcDbEntity
  8
0
370
    40
100
AcDbCircle
 10
190
 20
130
 30
0
 40
0.6
  0
CIRCLE
  5
308
330
1F
100
AcDbEntity
  8
0
370
    40
100
AcDbCircle
 10
190
 20
130
 30
0
 40
0.4
  0
INSERT
  5
30C
330
1F
100
AcDbEntity
  8
0
100
AcDbBlockReference
 66
     1
  2
Blk32
 10
0
 20
0
 30
1
  0
ATTRIB
  5
310
330
30C
100
AcDbEntity
  8
0
370
    25
100
AcDbText
 10
315.9820281188965
 20
215.9000091552734
 30
0
 40
2.449996948242188
  1
0709
 41
0.9
  7
Caddy_Vectorfont1p
 72
     2
 11
322.5
 21
215.9000091552734
 31
0
100
AcDbAttribute
  2
$TAG160010
 70
     0
  0
SEQEND
  5
311
330
30C
100
AcDbEntity
  8
0
  0
LINE
  5
315
330
1F
100
AcDbEntity
  8
0
  6
Caddy_Solid
370
    25
100
AcDbLine
 10
310
 20
215
 30
0
 11
325
 21
215
 31
0
  0
TEXT
  5
316
330
1F
100
AcDbEntity
  8
0
370
    25
100
AcDbText
 10
317.5
 20
215.5
 30
0
 40
1.75
  1

 41
0.9
  7
Caddy_Vectorfont1p
 72
     1
 11
317.5
 21
215.5
 31
0
100
AcDbText
  0
LINE
  5
317
330
1F
100
AcDbEntity
  8
0
  6
Caddy_Solid
370
    25
100
AcDbLine
 10
310
 20
215
 30
0
 11
310
 21
155
 31
0
  0
INSERT
  5
31B
330
1F
100
AcDbEntity
  8
0
100
AcDbBlockReference
 66
     1
  2
Blk33
 10
0
 20
0
 30
1
  0
ATTRIB
  5
31F
330
31B
100
AcDbEntity
  8
0
370
    25
100
AcDbText
 10
316.473723740387
 20
85.90000915527344
 30
0
 40
2.450004577636719
  1
0710
 41
0.9
  7
Caddy_Vectorfont1p
 72
     2
 11
322.5
 21
85.90000915527344
 31
0
100
AcDbAttribute
  2
$TAG160010
 70
     0
  0
SEQEND
  5
320
330
31B
100
AcDbEntity
  8
0
  0
LINE
  5
324
330
1F
100
AcDbEntity
  8
0
  6
Caddy_Solid
370
    25
100
AcDbLine
 10
310
 20
85
 30
0
 11
325
 21
85
 31
0
  0
TEXT
  5
325
330
1F
100
AcDbEntity
  8
0
370
    25
100
AcDbText
 10
317.5
 20
85.5
 30
0
 40
1.75
  1

 41
0.9
  7
Caddy_Vectorfont1p
 72
     1
 11
317.5
 21
85.5
 31
0
100
AcDbText
  0
LINE
  5
326
330
1F
100
AcDbEntity
  8
0
  6
Caddy_Solid
370
    25
100
AcDbLine
 10
310
 20
140
 30
0
 11
310
 21
85
 31
0
  0
TEXT
  5
327
330
1F
100
AcDbEntity
  8
0
370
    25
100
AcDbText
 10
309.2000122070312
 20
155.7999877929688
 30
0
 40
2.800003051757812
  1
13
 50
90
 41
0.9
  7
Caddy_Vectorfont1p
 11
0
 21
0
 31
0
100
AcDbText
  0
TEXT
  5
328
330
1F
100
AcDbEntity
  8
0
370
    25
100
AcDbText
 10
309.2000122070312
 20
135.7999877929688
 30
0
 40
2.800003051757812
  1
14
 50
90
 41
0.9
  7
Caddy_Vectorfont1p
 11
0
 21
0
 31
0
100
AcDbText
  0
INSERT
  5
32C
330
1F
100
AcDbEntity
  8
0
100
AcDbBlockReference
  2
Blk34
 10
0
 20
0
 30
1
  0
INSERT
  5
338
330
1F
100
AcDbEntity
  8
0
100
AcDbBlockReference
  2
Blk35
 10
0
 20
0
 30
1
  0
ENDSEC
  0
SECTION
  2
OBJECTS
  0
DICTIONARY
  5
C
330
0
100
AcDbDictionary
281
     1
  3
ACAD_GROUP
350
D
  3
ACAD_PLOTSTYLENAME
350
E
  3
ACAD_MLINESTYLE
350
17
  3
ACAD_PLOTSETTINGS
350
19
  3
ACAD_LAYOUT
350
1A
  3
ACAD_IMAGE_DICT
350
A7
  3
ACAD_IMAGE_VARS
350
AA
  0
DICTIONARY
  5
D
102
{ACAD_REACTORS
330
C
102
}
330
C
100
AcDbDictionary
281
     1
  0
ACDBDICTIONARYWDFLT
  5
E
102
{ACAD_REACTORS
330
C
102
}
330
C
100
AcDbDictionary
281
     1
  3
Normal
350
F
100
AcDbDictionaryWithDefault
340
F
  0
ACDBPLACEHOLDER
  5
F
102
{ACAD_REACTORS
330
E
102
}
330
E
  0
DICTIONARY
  5
17
102
{ACAD_REACTORS
330
C
102
}
330
C
100
AcDbDictionary
281
     1
  3
Standard
350
18
  0
MLINESTYLE
  5
18
102
{ACAD_REACTORS
330
17
102
}
330
17
100
AcDbMlineStyle
  2
Standard
 70
     0
  3

 62
   256
 51
90
 52
90
 71
     2
 49
0.5
 62
   256
  6
BYLAYER
 49
-0.5
 62
   256
  6
BYLAYER
  0
DICTIONARY
  5
19
102
{ACAD_REACTORS
330
C
102
}
330
C
100
AcDbDictionary
281
     1
  0
DICTIONARY
  5
1A
102
{ACAD_REACTORS
330
C
102
}
330
C
100
AcDbDictionary
281
     1
  3
Layout1
350
1E
  3
Model
350
22
  3
Layout2
350
26
  0
LAYOUT
  5
1E
102
{ACAD_REACTORS
330
1A
102
}
330
1A
100
AcDbPlotSettings
  1

  2

  4

  6

 40
0
 41
0
 42
0
 43
0
 44
0
 45
0
 46
0
 47
0
 48
0
 49
0
140
0
141
0
  6

142
1
143
1
 70
   688
 72
     0
 73
     0
 74
     5
  7

 75
    16
147
1
148
0
149
0
100
AcDbLayout
  1
Layout1
 70
     1
 71
     1
 10
0
 20
0
 11
420
 21
297
 12
0
 22
0
 32
0
 14
1E+20
 24
1E+20
 34
1E+20
 15
-1E+20
 25
-1E+20
 35
-1E+20
146
0
 13
0
 23
0
 33
0
 16
1
 26
0
 36
0
 17
0
 27
1
 37
0
 76
     0
330
1B
  0
LAYOUT
  5
22
102
{ACAD_REACTORS
330
1A
102
}
330
1A
100
AcDbPlotSettings
  1

  2

  4

  6

 40
0
 41
0
 42
0
 43
0
 44
0
 45
0
 46
0
 47
0
 48
0
 49
0
140
0
141
0
  6

142
1
143
1
 70
  1712
 72
     0
 73
     0
 74
     0
  7

 75
     0
147
1
148
0
149
0
100
AcDbLayout
  1
Model
 70
     1
 71
     0
 10
0
 20
0
 11
0
 21
0
 12
0
 22
0
 32
0
 14
0
 24
0
 34
0
 15
420
 25
297
 35
0
146
0
 13
0
 23
0
 33
0
 16
1
 26
0
 36
0
 17
0
 27
1
 37
0
 76
     0
330
1F
  0
LAYOUT
  5
26
102
{ACAD_REACTORS
330
1A
102
}
330
1A
100
AcDbPlotSettings
  1

  2

  4

  6

 40
0
 41
0
 42
0
 43
0
 44
0
 45
0
 46
0
 47
0
 48
0
 49
0
140
0
141
0
  6

142
1
143
1
 70
   688
 72
     0
 73
     0
 74
     5
  7

 75
    16
147
1
148
0
149
0
100
AcDbLayout
  1
Layout2
 70
     1
 71
     2
 10
0
 20
0
 11
0
 21
0
 12
0
 22
0
 32
0
 14
0
 24
0
 34
0
 15
0
 25
0
 35
0
146
0
 13
0
 23
0
 33
0
 16
1
 26
0
 36
0
 17
0
 27
1
 37
0
 76
     0
330
23
  0
DICTIONARY
  5
A7
102
{ACAD_REACTORS
330
C
102
}
330
C
100
AcDbDictionary
281
     1
  3
Image2
350
A8
  0
IMAGEDEF
  5
A8
102
{ACAD_REACTORS
330
A7
330
AB
102
}
330
A7
100
AcDbRasterImageDef
 90
        0
  1
.\Nødstopsrelæ - 0008 - Kredsskema - 0008 - Image1.bmp
 10
51
 20
10
 11
0.0196078431372549
 21
0.0196078431372549
280
     1
281
     1
  0
RASTERVARIABLES
  5
AA
102
{ACAD_REACTORS
330
C
102
}
330
C
100
AcDbRasterVariables
 90
        0
 70
     0
 71
     1
 72
     1
  0
IMAGEDEF_REACTOR
  5
AB
330
A9
100
AcDbRasterImageDefReactor
 90
        2
330
A9
  0
ENDSEC
  0
EOF
