999
LibreDWG fb9d2fd7
  0
SECTION
  2
HEADER
  9
$ACADVER
  1
AC1015
  9
$ACADMAINTVER
 70
     0
  9
$DWGCODEPAGE
  3
ANSI_1252
  9
$INSBASE
 10
0
 20
0
 30
0
  9
$EXTMIN
 10
0
 20
0
 30
0
  9
$EXTMAX
 10
420
 20
297
 30
0
  9
$LIMMIN
 10
0
 20
0
  9
$LIMMAX
 10
420
 20
297
  9
$ORTHOMODE
 70
     0
  9
$REGENMODE
 70
     1
  9
$FILLMODE
 70
     1
  9
$QTEXTMODE
 70
     0
  9
$MIRRTEXT
 70
     1
  9
$LTSCALE
 40
1
  9
$ATTMODE
 70
     1
  9
$TEXTSIZE
 40
2.5
  9
$TRACEWID
 40
1
  9
$TEXTSTYLE
  7
Standard
  9
$CLAYER
  8
0
  9
$CELTYPE
  6
ByLayer
  9
$CECOLOR
 62
   256
  9
$CELTSCALE
 40
1
  9
$DISPSILH
 70
     0
  9
$DIMSCALE
 40
1
  9
$DIMASZ
 40
2.5
  9
$DIMEXO
 40
0.625
  9
$DIMDLI
 40
3.75
  9
$DIMRND
 40
0
  9
$DIMDLE
 40
0
  9
$DIMEXE
 40
1.25
  9
$DIMTP
 40
0
  9
$DIMTM
 40
0
  9
$DIMTXT
 40
2.5
  9
$DIMCEN
 40
2.5
  9
$DIMTSZ
 40
0
  9
$DIMTOL
 70
     0
  9
$DIMLIM
 70
     0
  9
$DIMTIH
 70
     0
  9
$DIMTOH
 70
     0
  9
$DIMSE1
 70
     0
  9
$DIMSE2
 70
     0
  9
$DIMTAD
 70
     1
  9
$DIMZIN
 70
     8
  9
$DIMBLK
  1

  9
$DIMASO
 70
     1
  9
$DIMSHO
 70
     1
  9
$DIMPOST
  1

  9
$DIMAPOST
  1

  9
$DIMALT
 70
     0
  9
$DIMALTD
 70
     3
  9
$DIMALTF
 40
0.03937007874016
  9
$DIMLFAC
 40
1
  9
$DIMTOFL
 70
     1
  9
$DIMTVP
 40
0
  9
$DIMTIX
 70
     0
  9
$DIMSOXD
 70
     0
  9
$DIMSAH
 70
     0
  9
$DIMBLK1
  1

  9
$DIMBLK2
  1

  9
$DIMSTYLE
  2
ISO-25
  9
$DIMCLRD
 70
     0
  9
$DIMCLRE
 70
     0
  9
$DIMCLRT
 70
     0
  9
$DIMTFAC
 40
1
  9
$DIMGAP
 40
0.625
  9
$DIMJUST
 70
     0
  9
$DIMSD1
 70
     0
  9
$DIMSD2
 70
     0
  9
$DIMTOLJ
 70
     0
  9
$DIMTZIN
 70
     8
  9
$DIMALTZ
 70
     0
  9
$DIMALTTZ
 70
     0
  9
$DIMUPT
 70
     0
  9
$DIMDEC
 70
     2
  9
$DIMTDEC
 70
     2
  9
$DIMALTU
 70
     2
  9
$DIMALTTD
 70
     3
  9
$DIMTXSTY
  7
Standard
  9
$DIMAUNIT
 70
     0
  9
$DIMADEC
 70
     0
  9
$DIMALTRND
 40
0
  9
$DIMAZIN
 70
     0
  9
$DIMDSEP
 70
    44
  9
$DIMATFIT
 70
     3
  9
$DIMFRAC
 70
     0
  9
$DIMLDRBLK
  1

  9
$DIMLUNIT
 70
     2
  9
$DIMLWD
 70
    -2
  9
$DIMLWE
 70
    -2
  9
$DIMTMOVE
 70
     0
  9
$LUNITS
 70
     2
  9
$LUPREC
 70
     4
  9
$AXISMODE
 70
     0
  9
$AXISUNIT
 10
0
 20
0
  9
$SKETCHINC
 40
1
  9
$FILLETRAD
 40
10
  9
$AUNITS
 70
     0
  9
$AUPREC
 70
     0
  9
$MENU
  1
.
  9
$ELEVATION
 40
0
  9
$PELEVATION
 40
0
  9
$THICKNESS
 40
0
  9
$LIMCHECK
 70
     0
  9
$CHAMFERA
 40
10
  9
$CHAMFERB
 40
10
  9
$CHAMFERC
 40
20
  9
$CHAMFERD
 40
0
  9
$SKPOLY
 70
     0
  9
$TDCREATE
 40
2451930.468000000
  9
$TDUCREATE
 40
2451930.468000000
  9
$TDUPDATE
 40
2451930.666000000
  9
$TDUUPDATE
 40
2451930.666000000
  9
$TDINDWG
 40
0.000000010
  9
$TDUSRTIMER
 40
0.000000010
  9
$USRTIMER
 70
     1
  9
$ANGBASE
 50
0
  9
$ANGDIR
 70
     0
  9
$PDMODE
 70
     0
  9
$PDSIZE
 40
0
  9
$PLINEWID
 40
0
  9
$SPLFRAME
 70
     0
  9
$SPLINETYPE
 70
     6
  9
$SPLINESEGS
 70
     8
  9
$HANDSEED
  5
3C0
  9
$SURFTAB1
 70
     6
  9
$SURFTAB2
 70
     6
  9
$SURFTYPE
 70
     6
  9
$SURFU
 70
     6
  9
$SURFV
 70
     6
  9
$UCSBASE
  2

  9
$UCSNAME
  2

  9
$UCSORG
 10
0
 20
0
 30
0
  9
$UCSXDIR
 10
1
 20
0
 30
0
  9
$UCSYDIR
 10
0
 20
1
 30
0
  9
$UCSORTHOREF
  2

  9
$UCSORTHOVIEW
 70
     0
  9
$UCSORGTOP
 10
0
 20
0
 30
0
  9
$UCSORGBOTTOM
 10
0
 20
0
 30
0
  9
$UCSORGLEFT
 10
0
 20
0
 30
0
  9
$UCSORGRIGHT
 10
0
 20
0
 30
0
  9
$UCSORGFRONT
 10
0
 20
0
 30
0
  9
$UCSORGBACK
 10
0
 20
0
 30
0
  9
$PUCSBASE
  2

  9
$PUCSNAME
  2

  9
$PUCSORG
 10
0
 20
0
 30
0
  9
$PUCSXDIR
 10
1
 20
0
 30
0
  9
$PUCSYDIR
 10
0
 20
1
 30
0
  9
$PUCSORTHOREF
  2

  9
$PUCSORTHOVIEW
 70
     0
  9
$PUCSORGTOP
 10
0
 20
0
 30
0
  9
$PUCSORGBOTTOM
 10
0
 20
0
 30
0
  9
$PUCSORGLEFT
 10
0
 20
0
 30
0
  9
$PUCSORGRIGHT
 10
0
 20
0
 30
0
  9
$PUCSORGFRONT
 10
0
 20
0
 30
0
  9
$PUCSORGBACK
 10
0
 20
0
 30
0
  9
$USERI1
 70
     0
  9
$USERI2
 70
     0
  9
$USERI3
 70
     0
  9
$USERI4
 70
     0
  9
$USERI5
 70
     0
  9
$USERR1
 40
0
  9
$USERR2
 40
0
  9
$USERR3
 40
0
  9
$USERR4
 40
0
  9
$USERR5
 40
0
  9
$WORLDVIEW
 70
     1
  9
$SHADEDGE
 70
     3
  9
$SHADEDIF
 70
    70
  9
$TILEMODE
 70
     1
  9
$MAXACTVP
 70
    64
  9
$PINSBASE
 10
0
 20
0
 30
0
  9
$PLIMCHECK
 70
     0
  9
$PEXTMIN
 10
1E+20
 20
1E+20
 30
1E+20
  9
$PEXTMAX
 10
-1E+20
 20
-1E+20
 30
-1E+20
  9
$PLIMMIN
 10
0
 20
0
  9
$PLIMMAX
 10
420
 20
297
  9
$UNITMODE
 70
     0
  9
$VISRETAIN
 70
     1
  9
$PLINEGEN
 70
     0
  9
$PSLTSCALE
 70
     1
  9
$TREEDEPTH
 70
  3020
  9
$CMLSTYLE
  2
Standard
  9
$CMLJUST
 70
     0
  9
$CMLSCALE
 40
20
  9
$PROXYGRAPHICS
 70
     1
  9
$MEASUREMENT
 70
     1
  9
$CELWEIGHT
370
    -1
  9
$ENDCAPS
280
     0
  9
$JOINSTYLE
280
     0
  9
$LWDISPLAY
290
     0
  9
$INSUNITS
 70
     4
  9
$HYPERLINKBASE
  1

  9
$STYLESHEET
  1

  9
$XEDIT
290
     1
  9
$CEPSNTYPE
380
     0
  9
$PSTYLEMODE
290
     1
  9
$FINGERPRINTGUID
  2
{FAEB1C30-E019-11D5-929B-00C0DF256EC4}
  9
$VERSIONGUID
  2
{FAEB1C32-E019-11D5-929B-00C0DF256EC4}
  9
$EXTNAMES
290
     1
  9
$PSVPSCALE
 40
0
  9
$OLESTARTUP
290
     0
  0
ENDSEC
  0
SECTION
  2
CLASSES
  0
CLASS
  1
ACDBDICTIONARYWDFLT
  2
AcDbDictionaryWithDefault
  3
ObjectDBX Classes
 90
        0
280
     0
281
     0
  0
CLASS
  1
IMAGEDEF
  2
AcDbRasterImageDef
  3
ISM
 90
        0
280
     0
281
     0
  0
CLASS
  1
IMAGE
  2
AcDbRasterImage
  3
ISM
 90
      127
280
     0
281
     1
  0
CLASS
  1
RASTERVARIABLES
  2
AcDbRasterVariables
  3
ISM
 90
        0
280
     0
281
     0
  0
CLASS
  1
IMAGEDEF_REACTOR
  2
AcDbRasterImageDefReactor
  3
ISM
 90
        1
280
     0
281
     0
  0
CLASS
  1
ACDBPLACEHOLDER
  2
AcDbPlaceHolder
  3
ObjectDBX Classes
 90
        0
280
     0
281
     0
  0
CLASS
  1
LAYOUT
  2
AcDbLayout
  3
ObjectDBX Classes
 90
        0
280
     0
281
     0
  0
ENDSEC
  0
SECTION
  2
TABLES
  0
TABLE
  2
VPORT
  5
8
330
0
100
AcDbSymbolTable
 70
     2
  0
VPORT
  5
29
330
8
100
AcDbSymbolTableRecord
100
AcDbViewportTableRecord
  2
*Active
 70
     0
 10
0
 20
0
 11
1
 21
1
 12
210
 22
142.5
 13
0
 23
0
 14
10
 24
10
 15
10
 25
10
 16
0
 26
0
 36
1
 17
0
 27
0
 37
0
 40
270.3
 41
1.972972972850329
 42
50
 43
0
 44
0
 50
0
 51
0
 71
     0
 72
   100
 73
     1
 74
     3
 75
     0
 76
     0
 77
     0
 78
     0
281
     0
 65
     1
110
0
120
0
130
0
111
1
121
0
131
0
112
0
122
1
132
0
 79
     0
146
0
  0
ENDTAB
  0
TABLE
  2
LTYPE
  5
5
330
0
100
AcDbSymbolTable
 70
     6
  0
LTYPE
  5
14
330
5
100
AcDbSymbolTableRecord
100
AcDbLinetypeTableRecord
  2
ByBlock
 70
     0
  3

 72
    65
 73
     0
 40
0
  0
LTYPE
  5
15
330
5
100
AcDbSymbolTableRecord
100
AcDbLinetypeTableRecord
  2
ByLayer
 70
     0
  3

 72
    65
 73
     0
 40
0
  0
LTYPE
  5
16
330
5
100
AcDbSymbolTableRecord
100
AcDbLinetypeTableRecord
  2
Continuous
 70
     0
  3
Solid line
 72
    65
 73
     0
 40
0
  0
LTYPE
  5
3B
330
5
100
AcDbSymbolTableRecord
100
AcDbLinetypeTableRecord
  2
Caddy_Solid
 70
     0
  3
____________
 72
    65
 73
     0
 40
0
  0
LTYPE
  5
3C
330
5
100
AcDbSymbolTableRecord
100
AcDbLinetypeTableRecord
  2
Caddy_Dot
 70
     0
  3
. . . . . . 
 72
    65
 73
     2
 40
2
 49
0.5
 74
     0
 49
-1.5
 74
     0
  0
LTYPE
  5
3D
330
5
100
AcDbSymbolTableRecord
100
AcDbLinetypeTableRecord
  2
Caddy_Dash
 70
     0
  3
_ _ _ _ _ _ 
 72
    65
 73
     2
 40
3.5
 49
2
 74
     0
 49
-1.5
 74
     0
  0
LTYPE
  5
3E
330
5
100
AcDbSymbolTableRecord
100
AcDbLinetypeTableRecord
  2
Caddy_Dashdot
 70
     0
  3
_ . _ . _ . 
 72
    65
 73
     4
 40
5.5
 49
0.5
 74
     0
 49
-1.5
 74
     0
 49
2
 74
     0
 49
-1.5
 74
     0
  0
LTYPE
  5
3F
330
5
100
AcDbSymbolTableRecord
100
AcDbLinetypeTableRecord
  2
Caddy_Dashdotdot
 70
     0
  3
_ . . _ . . 
 72
    65
 73
     6
 40
7.5
 49
2
 74
     0
 49
-1.5
 74
     0
 49
0.5
 74
     0
 49
-1.5
 74
     0
 49
0.5
 74
     0
 49
-1.5
 74
     0
  0
ENDTAB
  0
TABLE
  2
LAYER
  5
2
330
0
100
AcDbSymbolTable
 70
     2
  0
LAYER
  5
10
330
2
100
AcDbSymbolTableRecord
100
AcDbLayerTableRecord
  2
0
 70
     8
 62
     7
  6
Continuous
290
     1
370
    -3
390
F
  0
LAYER
  5
B4
330
2
100
AcDbSymbolTableRecord
100
AcDbLayerTableRecord
  2
2
 70
     8
 62
     7
  6
Continuous
290
     1
370
    -3
390
F
  0
ENDTAB
  0
TABLE
  2
STYLE
  5
3
330
0
100
AcDbSymbolTable
 70
    17
  0
STYLE
  5
11
330
3
100
AcDbSymbolTableRecord
100
AcDbTextStyleTableRecord
  2
Standard
 70
     0
 40
0
 41
1
 50
0
 71
     0
 42
2.5
  3
txt
  4

  0
STYLE
  5
2B
330
3
100
AcDbSymbolTableRecord
100
AcDbTextStyleTableRecord
  2
Caddy_Vectorfont1p
 70
     0
 40
0
 41
0.9
 50
0
 71
     0
 42
0.2
  3
isocp___.ttf
  4

1001
ACAD
1000
ISOCP
1071
        0
  0
STYLE
  5
2C
330
3
100
AcDbSymbolTableRecord
100
AcDbTextStyleTableRecord
  2
Caddy_Vectorfont1n
 70
     0
 40
0
 41
1.100000023841858
 50
0
 71
     0
 42
0.2
  3

  4

1001
ACAD
1000
ISOCP
1071
        0
  0
STYLE
  5
2D
330
3
100
AcDbSymbolTableRecord
100
AcDbTextStyleTableRecord
  2
Caddy_Vectorfont2p
 70
     0
 40
0
 41
1.35
 50
0
 71
     0
 42
0.2
  3

  4

1001
ACAD
1000
ARIAL
1071
        0
  0
STYLE
  5
2E
330
3
100
AcDbSymbolTableRecord
100
AcDbTextStyleTableRecord
  2
Caddy_Vectorfont2n
 70
     0
 40
0
 41
1.549999952316284
 50
0
 71
     0
 42
0.2
  3

  4

1001
ACAD
1000
ARIAL
1071
        0
  0
STYLE
  5
2F
330
3
100
AcDbSymbolTableRecord
100
AcDbTextStyleTableRecord
  2
Caddy_Vectorfont3p
 70
     0
 40
0
 41
1.3
 50
0
 71
     0
 42
0.2
  3

  4

1001
ACAD
1000
Swis721 BdOul BT
1071
        0
  0
STYLE
  5
30
330
3
100
AcDbSymbolTableRecord
100
AcDbTextStyleTableRecord
  2
Caddy_Vectorfont3n
 70
     0
 40
0
 41
1.5
 50
0
 71
     0
 42
0.2
  3

  4

1001
ACAD
1000
Swis721 BdOul BT
1071
        0
  0
STYLE
  5
31
330
3
100
AcDbSymbolTableRecord
100
AcDbTextStyleTableRecord
  2
Caddy_Vectorfont4p
 70
     0
 40
0
 41
1.1
 50
0
 71
     0
 42
0.2
  3

  4

1001
ACAD
1000
COMPLEX
1071
        0
  0
STYLE
  5
32
330
3
100
AcDbSymbolTableRecord
100
AcDbTextStyleTableRecord
  2
Caddy_Vectorfont4n
 70
     0
 40
0
 41
1.299999952316284
 50
0
 71
     0
 42
0.2
  3

  4

1001
ACAD
1000
COMPLEX
1071
        0
  0
STYLE
  5
33
330
3
100
AcDbSymbolTableRecord
100
AcDbTextStyleTableRecord
  2
Caddy_Vectorfont5p
 70
     0
 40
0
 41
1
 50
0
 71
     0
 42
0.2
  3

  4

1001
ACAD
1000
COMPLEX
1071
        0
  0
STYLE
  5
34
330
3
100
AcDbSymbolTableRecord
100
AcDbTextStyleTableRecord
  2
Caddy_Vectorfont5n
 70
     0
 40
0
 41
1.200000047683716
 50
0
 71
     0
 42
0.2
  3

  4

1001
ACAD
1000
COMPLEX
1071
        0
  0
STYLE
  5
35
330
3
100
AcDbSymbolTableRecord
100
AcDbTextStyleTableRecord
  2
Caddy_Vectorfont6p
 70
     0
 40
0
 41
0.9
 50
0
 71
     0
 42
0.2
  3

  4

1001
ACAD
1000
TXT
1071
        0
  0
STYLE
  5
36
330
3
100
AcDbSymbolTableRecord
100
AcDbTextStyleTableRecord
  2
Caddy_Vectorfont6n
 70
     0
 40
0
 41
1.100000023841858
 50
0
 71
     0
 42
0.2
  3

  4

1001
ACAD
1000
TXT
1071
        0
  0
STYLE
  5
37
330
3
100
AcDbSymbolTableRecord
100
AcDbTextStyleTableRecord
  2
Caddy_Vectorfont7p
 70
     0
 40
0
 41
1.3
 50
0
 71
     0
 42
0.2
  3

  4

1001
ACAD
1000
Swis721 BdOul BT
1071
        0
  0
STYLE
  5
38
330
3
100
AcDbSymbolTableRecord
100
AcDbTextStyleTableRecord
  2
Caddy_Vectorfont7n
 70
     0
 40
0
 41
1.5
 50
0
 71
     0
 42
0.2
  3

  4

1001
ACAD
1000
Swis721 BdOul BT
1071
        0
  0
STYLE
  5
39
330
3
100
AcDbSymbolTableRecord
100
AcDbTextStyleTableRecord
  2
Caddy_Vectorfont8p
 70
     0
 40
0
 41
1.5
 50
0
 71
     0
 42
0.2
  3

  4

1001
ACAD
1000
TXT
1071
        0
  0
STYLE
  5
3A
330
3
100
AcDbSymbolTableRecord
100
AcDbTextStyleTableRecord
  2
Caddy_Vectorfont8n
 70
     0
 40
0
 41
1.700000047683716
 50
0
 71
     0
 42
0.2
  3

  4

1001
ACAD
1000
TXT
1071
        0
  0
ENDTAB
  0
TABLE
  2
VIEW
  5
6
330
0
100
AcDbSymbolTable
 70
     0
  0
ENDTAB
  0
TABLE
  2
UCS
  5
7
330
0
100
AcDbSymbolTable
 70
     0
  0
ENDTAB
  0
TABLE
  2
APPID
  5
9
330
0
100
AcDbSymbolTable
 70
     2
  0
APPID
  5
12
330
9
100
AcDbSymbolTableRecord
100
AcDbRegAppTableRecord
  2
ACAD
 70
     0
  0
APPID
  5
2A
330
9
100
AcDbSymbolTableRecord
100
AcDbRegAppTableRecord
  2
ODA
 70
     0
  0
ENDTAB
  0
TABLE
  2
DIMSTYLE
  5
A
330
0
100
AcDbSymbolTable
 70
     1
100
AcDbDimStyleTable
 71
     0
  0
DIMSTYLE
105
27
330
A
100
AcDbSymbolTableRecord
100
AcDbDimStyleTableRecord
  2
ISO-25
 70
     0
 41
2.5
 42
0.625
 43
3.75
 44
1.25
 73
     0
 74
     0
 77
     1
 78
     8
140
2.5
141
2.5
143
0.03937007874016
144
1
146
1
147
0.625
171
     3
172
     1
176
     0
177
     0
178
     0
271
     2
272
     2
273
     2
274
     3
277
     2
278
    44
283
     0
284
     8
289
     3
340
11
371
    -2
372
    -2
341
0
342
0
343
0
344
0
  0
ENDTAB
  0
TABLE
  2
VX
  5
B
330
0
100
AcDbSymbolTable
 70
     1
100
AcDbVXTable
  0
VX_TABLE_RECORD
  5
3BF
330
B
100
AcDbSymbolTableRecord
100
AcDbVXTableRecord
  2

 70
     0
290
     0
338
0
340
0
  0
ENDTAB
  0
TABLE
  2
BLOCK_RECORD
  5
1
330
0
100
AcDbSymbolTable
 70
    28
  0
BLOCK_RECORD
  5
1F
330
1
100
AcDbSymbolTableRecord
100
AcDbBlockTableRecord
  2
*Model_Space
340
22
  0
BLOCK_RECORD
  5
1B
330
1
100
AcDbSymbolTableRecord
100
AcDbBlockTableRecord
  2
*Paper_Space
340
1E
  0
BLOCK_RECORD
  5
23
330
1
100
AcDbSymbolTableRecord
100
AcDbBlockTableRecord
  2
*Paper_Space0
340
26
  0
BLOCK_RECORD
  5
40
330
1
100
AcDbSymbolTableRecord
100
AcDbBlockTableRecord
  2
Blk1
340
0
102
{BLKREFS
331
43
102
}
  0
BLOCK_RECORD
  5
AD
330
1
100
AcDbSymbolTableRecord
100
AcDbBlockTableRecord
  2
Blk2
340
0
102
{BLKREFS
331
B0
102
}
  0
BLOCK_RECORD
  5
C4
330
1
100
AcDbSymbolTableRecord
100
AcDbBlockTableRecord
  2
Blk3
340
0
102
{BLKREFS
331
C7
102
}
  0
BLOCK_RECORD
  5
DA
330
1
100
AcDbSymbolTableRecord
100
AcDbBlockTableRecord
  2
Blk4
340
0
102
{BLKREFS
331
DD
102
}
  0
BLOCK_RECORD
  5
F0
330
1
100
AcDbSymbolTableRecord
100
AcDbBlockTableRecord
  2
Blk5
340
0
102
{BLKREFS
331
F3
102
}
  0
BLOCK_RECORD
  5
18C
330
1
100
AcDbSymbolTableRecord
100
AcDbBlockTableRecord
  2
Blk6
340
0
102
{BLKREFS
331
18F
102
}
  0
BLOCK_RECORD
  5
1B9
330
1
100
AcDbSymbolTableRecord
100
AcDbBlockTableRecord
  2
Blk7
340
0
102
{BLKREFS
331
1BC
102
}
  0
BLOCK_RECORD
  5
1D0
330
1
100
AcDbSymbolTableRecord
100
AcDbBlockTableRecord
  2
Blk8
340
0
102
{BLKREFS
331
1D3
102
}
  0
BLOCK_RECORD
  5
216
330
1
100
AcDbSymbolTableRecord
100
AcDbBlockTableRecord
  2
Blk9
340
0
102
{BLKREFS
331
219
102
}
  0
BLOCK_RECORD
  5
22C
330
1
100
AcDbSymbolTableRecord
100
AcDbBlockTableRecord
  2
Blk10
340
0
102
{BLKREFS
331
22F
102
}
  0
BLOCK_RECORD
  5
242
330
1
100
AcDbSymbolTableRecord
100
AcDbBlockTableRecord
  2
Blk11
340
0
102
{BLKREFS
331
245
102
}
  0
BLOCK_RECORD
  5
258
330
1
100
AcDbSymbolTableRecord
100
AcDbBlockTableRecord
  2
Blk12
340
0
102
{BLKREFS
331
25B
102
}
  0
BLOCK_RECORD
  5
27D
330
1
100
AcDbSymbolTableRecord
100
AcDbBlockTableRecord
  2
Blk13
340
0
102
{BLKREFS
331
280
102
}
  0
BLOCK_RECORD
  5
293
330
1
100
AcDbSymbolTableRecord
100
AcDbBlockTableRecord
  2
Blk14
340
0
102
{BLKREFS
331
296
102
}
  0
BLOCK_RECORD
  5
2A2
330
1
100
AcDbSymbolTableRecord
100
AcDbBlockTableRecord
  2
Blk15
340
0
102
{BLKREFS
331
2A5
102
}
  0
BLOCK_RECORD
  5
2B1
330
1
100
AcDbSymbolTableRecord
100
AcDbBlockTableRecord
  2
Blk16
340
0
102
{BLKREFS
331
2B4
102
}
  0
BLOCK_RECORD
  5
2C0
330
1
100
AcDbSymbolTableRecord
100
AcDbBlockTableRecord
  2
Blk17
340
0
102
{BLKREFS
331
2C3
102
}
  0
BLOCK_RECORD
  5
2D1
330
1
100
AcDbSymbolTableRecord
100
AcDbBlockTableRecord
  2
Blk18
340
0
102
{BLKREFS
331
2D4
102
}
  0
BLOCK_RECORD
  5
2E0
330
1
100
AcDbSymbolTableRecord
100
AcDbBlockTableRecord
  2
Blk19
340
0
102
{BLKREFS
331
2E3
102
}
  0
BLOCK_RECORD
  5
2FF
330
1
100
AcDbSymbolTableRecord
100
AcDbBlockTableRecord
  2
Blk20
340
0
102
{BLKREFS
331
302
102
}
  0
BLOCK_RECORD
  5
315
330
1
100
AcDbSymbolTableRecord
100
AcDbBlockTableRecord
  2
Blk21
340
0
102
{BLKREFS
331
318
102
}
  0
BLOCK_RECORD
  5
32B
330
1
100
AcDbSymbolTableRecord
100
AcDbBlockTableRecord
  2
Blk22
340
0
102
{BLKREFS
331
32E
102
}
  0
BLOCK_RECORD
  5
341
330
1
100
AcDbSymbolTableRecord
100
AcDbBlockTableRecord
  2
Blk23
340
0
102
{BLKREFS
331
344
102
}
  0
BLOCK_RECORD
  5
35D
330
1
100
AcDbSymbolTableRecord
100
AcDbBlockTableRecord
  2
Blk24
340
0
102
{BLKREFS
331
360
102
}
  0
BLOCK_RECORD
  5
373
330
1
100
AcDbSymbolTableRecord
100
AcDbBlockTableRecord
  2
Blk25
340
0
102
{BLKREFS
331
376
102
}
  0
BLOCK_RECORD
  5
389
330
1
100
AcDbSymbolTableRecord
100
AcDbBlockTableRecord
  2
Blk26
340
0
102
{BLKREFS
331
38C
102
}
  0
BLOCK_RECORD
  5
39F
330
1
100
AcDbSymbolTableRecord
100
AcDbBlockTableRecord
  2
Blk27
340
0
102
{BLKREFS
331
3A2
102
}
  0
ENDTAB
  0
ENDSEC
  0
SECTION
  2
BLOCKS
  0
BLOCK
  5
1C
330
1B
100
AcDbEntity
 67
     1
  8
0
100
AcDbBlockBegin
  2
*Paper_Space
 70
     0
 10
0
 20
0
 30
0
  3
*Paper_Space
  1

  0
ENDBLK
  5
1D
330
1B
100
AcDbEntity
 67
     1
  8
0
100
AcDbBlockEnd
  0
BLOCK
  5
20
330
1F
100
AcDbEntity
  8
0
100
AcDbBlockBegin
  2
*Model_Space
 70
     0
 10
0
 20
0
 30
0
  3
*Model_Space
  1

  0
ENDBLK
  5
21
330
1F
100
AcDbEntity
  8
0
100
AcDbBlockEnd
  0
BLOCK
  5
24
330
23
100
AcDbEntity
  8
0
100
AcDbBlockBegin
  2
*Paper_Space0
 70
     0
 10
0
 20
0
 30
0
  3
*Paper_Space0
  1

  0
ENDBLK
  5
25
330
23
100
AcDbEntity
  8
0
100
AcDbBlockEnd
  0
BLOCK
  5
41
330
40
100
AcDbEntity
  8
0
100
AcDbBlockBegin
  2
Blk1
 70
     0
 10
0
 20
0
 30
0
  3
Blk1
  1

  0
LINE
  5
44
330
40
100
AcDbEntity
  8
0
  6
Caddy_Solid
370
    50
100
AcDbLine
 10
10
 20
10
 30
0
 11
10
 21
275
 31
0
  0
LINE
  5
45
330
40
100
AcDbEntity
  8
0
  6
Caddy_Solid
370
    50
100
AcDbLine
 10
10
 20
275
 30
0
 11
410
 21
275
 31
0
  0
LINE
  5
46
330
40
100
AcDbEntity
  8
0
  6
Caddy_Solid
370
    50
100
AcDbLine
 10
410
 20
275
 30
0
 11
410
 21
10
 31
0
  0
LINE
  5
47
330
40
100
AcDbEntity
  8
0
  6
Caddy_Solid
370
    25
100
AcDbLine
 10
50
 20
270
 30
0
 11
50
 21
275
 31
0
  0
TEXT
  5
48
330
40
100
AcDbEntity
  8
0
370
    25
100
AcDbText
 10
29.14336390228272
 20
271.2000122070312
 30
0
 40
2.449981689453125
  1
0
 41
0.9
  7
Caddy_Vectorfont1p
 72
     1
 11
30
 21
271.2000122070312
 31
0
100
AcDbText
  0
TEXT
  5
49
330
40
100
AcDbEntity
  8
0
370
    25
100
AcDbText
 10
30
 20
265.2000122070312
 30
0
 40
2.449981689453125
  1

 41
0.9
  7
Caddy_Vectorfont1p
 72
     1
 11
30
 21
265.2000122070312
 31
0
100
AcDbText
  0
LINE
  5
4A
330
40
100
AcDbEntity
  8
0
  6
Caddy_Solid
370
    25
100
AcDbLine
 10
90
 20
270
 30
0
 11
90
 21
275
 31
0
  0
LINE
  5
4B
330
40
100
AcDbEntity
  8
0
  6
Caddy_Solid
370
    25
100
AcDbLine
 10
130
 20
270
 30
0
 11
130
 21
275
 31
0
  0
LINE
  5
4C
330
40
100
AcDbEntity
  8
0
  6
Caddy_Solid
370
    25
100
AcDbLine
 10
170
 20
270
 30
0
 11
170
 21
275
 31
0
  0
LINE
  5
4D
330
40
100
AcDbEntity
  8
0
  6
Caddy_Solid
370
    25
100
AcDbLine
 10
210
 20
270
 30
0
 11
210
 21
275
 31
0
  0
LINE
  5
4E
330
40
100
AcDbEntity
  8
0
  6
Caddy_Solid
370
    25
100
AcDbLine
 10
250
 20
270
 30
0
 11
250
 21
275
 31
0
  0
LINE
  5
4F
330
40
100
AcDbEntity
  8
0
  6
Caddy_Solid
370
    25
100
AcDbLine
 10
290
 20
270
 30
0
 11
290
 21
275
 31
0
  0
LINE
  5
50
330
40
100
AcDbEntity
  8
0
  6
Caddy_Solid
370
    25
100
AcDbLine
 10
330
 20
270
 30
0
 11
330
 21
275
 31
0
  0
LINE
  5
51
330
40
100
AcDbEntity
  8
0
  6
Caddy_Solid
370
    25
100
AcDbLine
 10
370
 20
270
 30
0
 11
370
 21
275
 31
0
  0
TEXT
  5
52
330
40
100
AcDbEntity
  8
0
370
    25
100
AcDbText
 10
69.38369947662353
 20
271.2000122070312
 30
0
 40
2.449981689453125
  1
1
 41
0.9
  7
Caddy_Vectorfont1p
 72
     1
 11
69.99999237060547
 21
271.2000122070312
 31
0
100
AcDbText
  0
TEXT
  5
53
330
40
100
AcDbEntity
  8
0
370
    25
100
AcDbText
 10
109.1610037704468
 20
271.2000122070312
 30
0
 40
2.449981689453125
  1
2
 41
0.9
  7
Caddy_Vectorfont1p
 72
     1
 11
110
 21
271.2000122070312
 31
0
100
AcDbText
  0
TEXT
  5
54
330
40
100
AcDbEntity
  8
0
370
    25
100
AcDbText
 10
149.1312364929199
 20
271.2000122070312
 30
0
 40
2.449981689453125
  1
3
 41
0.9
  7
Caddy_Vectorfont1p
 72
     1
 11
150
 21
271.2000122070312
 31
0
100
AcDbText
  0
TEXT
  5
55
330
40
100
AcDbEntity
  8
0
370
    25
100
AcDbText
 10
189.0364222015381
 20
271.2000122070312
 30
0
 40
2.449981689453125
  1
4
 41
0.9
  7
Caddy_Vectorfont1p
 72
     1
 11
190
 21
271.2000122070312
 31
0
100
AcDbText
  0
TEXT
  5
56
330
40
100
AcDbEntity
  8
0
370
    25
100
AcDbText
 10
229.1433639022827
 20
271.2000122070312
 30
0
 40
2.449981689453125
  1
5
 41
0.9
  7
Caddy_Vectorfont1p
 72
     1
 11
230
 21
271.2000122070312
 31
0
100
AcDbText
  0
TEXT
  5
57
330
40
100
AcDbEntity
  8
0
370
    25
100
AcDbText
 10
269.1433639022827
 20
271.2000122070312
 30
0
 40
2.449981689453125
  1
6
 41
0.9
  7
Caddy_Vectorfont1p
 72
     1
 11
270
 21
271.2000122070312
 31
0
100
AcDbText
  0
TEXT
  5
58
330
40
100
AcDbEntity
  8
0
370
    25
100
AcDbText
 10
309.140056427002
 20
271.2000122070312
 30
0
 40
2.449981689453125
  1
7
 41
0.9
  7
Caddy_Vectorfont1p
 72
     1
 11
310
 21
271.2000122070312
 31
0
100
AcDbText
  0
TEXT
  5
59
330
40
100
AcDbEntity
  8
0
370
    25
100
AcDbText
 10
349.1433639022827
 20
271.2000122070312
 30
0
 40
2.449981689453125
  1
8
 41
0.9
  7
Caddy_Vectorfont1p
 72
     1
 11
350
 21
271.2000122070312
 31
0
100
AcDbText
  0
TEXT
  5
5A
330
40
100
AcDbEntity
  8
0
370
    25
100
AcDbText
 10
389.1433639022827
 20
271.2000122070312
 30
0
 40
2.449981689453125
  1
9
 41
0.9
  7
Caddy_Vectorfont1p
 72
     1
 11
390
 21
271.2000122070312
 31
0
100
AcDbText
  0
TEXT
  5
5B
330
40
100
AcDbEntity
  8
0
370
    25
100
AcDbText
 10
70
 20
265.2000122070312
 30
0
 40
2.449981689453125
  1

 41
0.9
  7
Caddy_Vectorfont1p
 72
     1
 11
70
 21
265.2000122070312
 31
0
100
AcDbText
  0
TEXT
  5
5C
330
40
100
AcDbEntity
  8
0
370
    25
100
AcDbText
 10
110
 20
265.2000122070312
 30
0
 40
2.449981689453125
  1

 41
0.9
  7
Caddy_Vectorfont1p
 72
     1
 11
110
 21
265.2000122070312
 31
0
100
AcDbText
  0
TEXT
  5
5D
330
40
100
AcDbEntity
  8
0
370
    25
100
AcDbText
 10
150
 20
265.2000122070312
 30
0
 40
2.449981689453125
  1

 41
0.9
  7
Caddy_Vectorfont1p
 72
     1
 11
150
 21
265.2000122070312
 31
0
100
AcDbText
  0
TEXT
  5
5E
330
40
100
AcDbEntity
  8
0
370
    25
100
AcDbText
 10
190
 20
265.2000122070312
 30
0
 40
2.449981689453125
  1

 41
0.9
  7
Caddy_Vectorfont1p
 72
     1
 11
190
 21
265.2000122070312
 31
0
100
AcDbText
  0
TEXT
  5
5F
330
40
100
AcDbEntity
  8
0
370
    25
100
AcDbText
 10
230
 20
265.2000122070312
 30
0
 40
2.449981689453125
  1

 41
0.9
  7
Caddy_Vectorfont1p
 72
     1
 11
230
 21
265.2000122070312
 31
0
100
AcDbText
  0
TEXT
  5
60
330
40
100
AcDbEntity
  8
0
370
    25
100
AcDbText
 10
270.0000305175781
 20
265.2000122070312
 30
0
 40
2.449981689453125
  1

 41
0.9
  7
Caddy_Vectorfont1p
 72
     1
 11
270.0000305175781
 21
265.2000122070312
 31
0
100
AcDbText
  0
TEXT
  5
61
330
40
100
AcDbEntity
  8
0
370
    25
100
AcDbText
 10
310.0000305175781
 20
265.2000122070312
 30
0
 40
2.449981689453125
  1

 41
0.9
  7
Caddy_Vectorfont1p
 72
     1
 11
310.0000305175781
 21
265.2000122070312
 31
0
100
AcDbText
  0
TEXT
  5
62
330
40
100
AcDbEntity
  8
0
370
    25
100
AcDbText
 10
350.0000305175781
 20
265.2000122070312
 30
0
 40
2.449981689453125
  1

 41
0.9
  7
Caddy_Vectorfont1p
 72
     1
 11
350.0000305175781
 21
265.2000122070312
 31
0
100
AcDbText
  0
TEXT
  5
63
330
40
100
AcDbEntity
  8
0
370
    25
100
AcDbText
 10
390.0000305175781
 20
265.2000122070312
 30
0
 40
2.449981689453125
  1

 41
0.9
  7
Caddy_Vectorfont1p
 72
     1
 11
390.0000305175781
 21
265.2000122070312
 31
0
100
AcDbText
  0
LINE
  5
64
330
40
100
AcDbEntity
  8
0
  6
Caddy_Solid
370
    25
100
AcDbLine
 10
15
 20
270
 30
0
 11
15
 21
30
 31
0
  0
LINE
  5
65
330
40
100
AcDbEntity
  8
0
  6
Caddy_Solid
370
    25
100
AcDbLine
 10
405
 20
270
 30
0
 11
405
 21
30
 31
0
  0
LINE
  5
66
330
40
100
AcDbEntity
  8
0
  6
Caddy_Solid
370
    25
100
AcDbLine
 10
15
 20
230
 30
0
 11
10
 21
230
 31
0
  0
LINE
  5
67
330
40
100
AcDbEntity
  8
0
  6
Caddy_Solid
370
    25
100
AcDbLine
 10
15
 20
190
 30
0
 11
10
 21
190
 31
0
  0
LINE
  5
68
330
40
100
AcDbEntity
  8
0
  6
Caddy_Solid
370
    25
100
AcDbLine
 10
15
 20
150
 30
0
 11
10
 21
150
 31
0
  0
LINE
  5
69
330
40
100
AcDbEntity
  8
0
  6
Caddy_Solid
370
    25
100
AcDbLine
 10
10
 20
110
 30
0
 11
15
 21
110
 31
0
  0
LINE
  5
6A
330
40
100
AcDbEntity
  8
0
  6
Caddy_Solid
370
    25
100
AcDbLine
 10
10
 20
70
 30
0
 11
15
 21
70
 31
0
  0
TEXT
  5
6B
330
40
100
AcDbEntity
  8
0
370
    25
100
AcDbText
 10
11.39750137329102
 20
248.6999969482422
 30
0
 40
2.449996948242188
  1
A
 41
0.9
  7
Caddy_Vectorfont1p
 72
     1
 11
12.5
 21
248.6999969482422
 31
0
100
AcDbText
  0
TEXT
  5
6C
330
40
100
AcDbEntity
  8
0
370
    25
100
AcDbText
 10
11.52098121948242
 20
208.6999969482422
 30
0
 40
2.449996948242188
  1
B
 41
0.9
  7
Caddy_Vectorfont1p
 72
     1
 11
12.5
 21
208.6999969482422
 31
0
100
AcDbText
  0
TEXT
  5
6D
330
40
100
AcDbEntity
  8
0
370
    25
100
AcDbText
 10
11.65548605194092
 20
168.6999969482422
 30
0
 40
2.449996948242188
  1
C
 41
0.9
  7
Caddy_Vectorfont1p
 72
     1
 11
12.5
 21
168.6999969482422
 31
0
100
AcDbText
  0
TEXT
  5
6E
330
40
100
AcDbEntity
  8
0
370
    25
100
AcDbText
 10
11.52098121948242
 20
128.6999969482422
 30
0
 40
2.449996948242188
  1
D
 41
0.9
  7
Caddy_Vectorfont1p
 72
     1
 11
12.5
 21
128.6999969482422
 31
0
100
AcDbText
  0
TEXT
  5
6F
330
40
100
AcDbEntity
  8
0
370
    25
100
AcDbText
 10
11.65548342208862
 20
88.69999694824219
 30
0
 40
2.450004577636719
  1
E
 41
0.9
  7
Caddy_Vectorfont1p
 72
     1
 11
12.5
 21
88.69999694824219
 31
0
100
AcDbText
  0
TEXT
  5
70
330
40
100
AcDbEntity
  8
0
370
    25
100
AcDbText
 10
11.65548473701477
 20
48.70000076293945
 30
0
 40
2.450000762939453
  1
F
 41
0.9
  7
Caddy_Vectorfont1p
 72
     1
 11
12.5
 21
48.70000076293945
 31
0
100
AcDbText
  0
LINE
  5
71
330
40
100
AcDbEntity
  8
0
  6
Caddy_Solid
370
    25
100
AcDbLine
 10
410
 20
230
 30
0
 11
405
 21
230
 31
0
  0
LINE
  5
72
330
40
100
AcDbEntity
  8
0
  6
Caddy_Solid
370
    25
100
AcDbLine
 10
410
 20
190
 30
0
 11
405
 21
190
 31
0
  0
LINE
  5
73
330
40
100
AcDbEntity
  8
0
  6
Caddy_Solid
370
    25
100
AcDbLine
 10
410
 20
150
 30
0
 11
405
 21
150
 31
0
  0
LINE
  5
74
330
40
100
AcDbEntity
  8
0
  6
Caddy_Solid
370
    25
100
AcDbLine
 10
405
 20
110
 30
0
 11
410
 21
110
 31
0
  0
LINE
  5
75
330
40
100
AcDbEntity
  8
0
  6
Caddy_Solid
370
    25
100
AcDbLine
 10
405
 20
70
 30
0
 11
410
 21
70
 31
0
  0
TEXT
  5
76
330
40
100
AcDbEntity
  8
0
370
    25
100
AcDbText
 10
406.397501373291
 20
248.6999969482422
 30
0
 40
2.449996948242188
  1
A
 41
0.9
  7
Caddy_Vectorfont1p
 72
     1
 11
407.5
 21
248.6999969482422
 31
0
100
AcDbText
  0
TEXT
  5
77
330
40
100
AcDbEntity
  8
0
370
    25
100
AcDbText
 10
406.5209812194824
 20
208.6999969482422
 30
0
 40
2.449996948242188
  1
B
 41
0.9
  7
Caddy_Vectorfont1p
 72
     1
 11
407.5
 21
208.6999969482422
 31
0
100
AcDbText
  0
TEXT
  5
78
330
40
100
AcDbEntity
  8
0
370
    25
100
AcDbText
 10
406.6554860519409
 20
168.6999969482422
 30
0
 40
2.449996948242188
  1
C
 41
0.9
  7
Caddy_Vectorfont1p
 72
     1
 11
407.5
 21
168.6999969482422
 31
0
100
AcDbText
  0
TEXT
  5
79
330
40
100
AcDbEntity
  8
0
370
    25
100
AcDbText
 10
406.5209812194824
 20
128.6999969482422
 30
0
 40
2.449996948242188
  1
D
 41
0.9
  7
Caddy_Vectorfont1p
 72
     1
 11
407.5
 21
128.6999969482422
 31
0
100
AcDbText
  0
TEXT
  5
7A
330
40
100
AcDbEntity
  8
0
370
    25
100
AcDbText
 10
406.6554834220887
 20
88.69999694824219
 30
0
 40
2.450004577636719
  1
E
 41
0.9
  7
Caddy_Vectorfont1p
 72
     1
 11
407.5
 21
88.69999694824219
 31
0
100
AcDbText
  0
TEXT
  5
7B
330
40
100
AcDbEntity
  8
0
370
    25
100
AcDbText
 10
406.6554847370148
 20
48.70000076293945
 30
0
 40
2.450000762939453
  1
F
 41
0.9
  7
Caddy_Vectorfont1p
 72
     1
 11
407.5
 21
48.70000076293945
 31
0
100
AcDbText
  0
LINE
  5
7C
330
40
100
AcDbEntity
  8
0
  6
Caddy_Solid
370
    25
100
AcDbLine
 10
15
 20
270
 30
0
 11
405
 21
270
 31
0
  0
LINE
  5
7D
330
40
100
AcDbEntity
  8
0
  6
Caddy_Solid
370
    50
100
AcDbLine
 10
410
 20
10
 30
0
 11
10
 21
10
 31
0
  0
LINE
  5
7E
330
40
100
AcDbEntity
  8
0
  6
Caddy_Solid
370
    50
100
AcDbLine
 10
10
 20
30
 30
0
 11
410
 21
30
 31
0
  0
LINE
  5
7F
330
40
100
AcDbEntity
  8
0
  6
Caddy_Solid
370
    25
100
AcDbLine
 10
260
 20
20
 30
0
 11
410
 21
20
 31
0
  0
LINE
  5
80
330
40
100
AcDbEntity
  8
0
  6
Caddy_Solid
370
    25
100
AcDbLine
 10
10
 20
30
 30
0
 11
15
 21
30
 31
0
  0
LINE
  5
81
330
40
100
AcDbEntity
  8
0
  6
Caddy_Solid
370
    25
100
AcDbLine
 10
405
 20
30
 30
0
 11
410
 21
30
 31
0
  0
LINE
  5
82
330
40
100
AcDbEntity
  8
0
  6
Caddy_Solid
370
    50
100
AcDbLine
 10
65
 20
30
 30
0
 11
65
 21
10
 31
0
  0
TEXT
  5
83
330
40
100
AcDbEntity
  8
0
370
    25
100
AcDbText
 10
69.19999694824219
 20
14.19999980926514
 30
0
 40
2.449999809265137
  1
Kassepakker
 41
0.9
  7
Caddy_Vectorfont1p
 11
0
 21
0
 31
0
100
AcDbText
  0
TEXT
  5
84
330
40
100
AcDbEntity
  8
0
370
    25
100
AcDbText
 10
69.19999694824219
 20
23.20000076293945
 30
0
 40
2.44999885559082
  1
MPN - GUIDED BY VISION
 41
0.9
  7
Caddy_Vectorfont1p
 11
0
 21
0
 31
0
100
AcDbText
  0
TEXT
  5
85
330
40
100
AcDbEntity
  8
0
370
    25
100
AcDbText
 10
69.19999694824219
 20
18.70000076293945
 30
0
 40
2.44999885559082
  1
Søris
 41
0.9
  7
Caddy_Vectorfont1p
 11
0
 21
0
 31
0
100
AcDbText
  0
LINE
  5
86
330
40
100
AcDbEntity
  8
0
  6
Caddy_Solid
370
    50
100
AcDbLine
 10
160
 20
30
 30
0
 11
160
 21
10
 31
0
  0
TEXT
  5
87
330
40
100
AcDbEntity
  8
0
370
    25
100
AcDbText
 10
164.1999969482422
 20
23.20000076293945
 30
0
 40
2.44999885559082
  1
Kasseløfter
 41
0.9
  7
Caddy_Vectorfont1p
 11
0
 21
0
 31
0
100
AcDbText
  0
TEXT
  5
88
330
40
100
AcDbEntity
  8
0
370
    25
100
AcDbText
 10
164.1999969482422
 20
18.70000076293945
 30
0
 40
2.44999885559082
  1
Vibrator
 41
0.9
  7
Caddy_Vectorfont1p
 11
0
 21
0
 31
0
100
AcDbText
  0
TEXT
  5
89
330
40
100
AcDbEntity
  8
0
370
    25
100
AcDbText
 10
164.1999969482422
 20
14.19999980926514
 30
0
 40
2.449999809265137
  1

 41
0.9
  7
Caddy_Vectorfont1p
 11
0
 21
0
 31
0
100
AcDbText
  0
LINE
  5
8A
330
40
100
AcDbEntity
  8
0
  6
Caddy_Solid
370
    50
100
AcDbLine
 10
260
 20
30
 30
0
 11
260
 21
10
 31
0
  0
TEXT
  5
8B
330
40
100
AcDbEntity
  8
0
370
    25
100
AcDbText
 10
261.2000122070312
 20
26.20000076293945
 30
0
 40
2.44999885559082
  1
Projekt:
 41
0.9
  7
Caddy_Vectorfont1p
 11
0
 21
0
 31
0
100
AcDbText
  0
TEXT
  5
8C
330
40
100
AcDbEntity
  8
0
370
    25
100
AcDbText
 10
261.2000122070312
 20
16.20000076293945
 30
0
 40
2.44999885559082
  1
Dato:
 41
0.9
  7
Caddy_Vectorfont1p
 11
0
 21
0
 31
0
100
AcDbText
  0
LINE
  5
8D
330
40
100
AcDbEntity
  8
0
  6
Caddy_Solid
370
    25
100
AcDbLine
 10
290
 20
30
 30
0
 11
290
 21
10
 31
0
  0
TEXT
  5
8E
330
40
100
AcDbEntity
  8
0
370
    25
100
AcDbText
 10
291.2000122070312
 20
16.20000076293945
 30
0
 40
2.44999885559082
  1
Funkt.:
 41
0.9
  7
Caddy_Vectorfont1p
 11
0
 21
0
 31
0
100
AcDbText
  0
TEXT
  5
8F
330
40
100
AcDbEntity
  8
0
370
    25
100
AcDbText
 10
291.2000122070312
 20
26.20000076293945
 30
0
 40
2.44999885559082
  1
Tegn. nr.:
 41
0.9
  7
Caddy_Vectorfont1p
 11
0
 21
0
 31
0
100
AcDbText
  0
TEXT
  5
90
330
40
100
AcDbEntity
  8
0
370
    25
100
AcDbText
 10
256.7441815986633
 20
21.70000076293945
 30
0
 40
2.44999885559082
  1
Servo_kassepakker
 41
0.9
  7
Caddy_Vectorfont1p
 72
     2
 11
286.2999877929688
 21
21.70000076293945
 31
0
100
AcDbText
  0
TEXT
  5
91
330
40
100
AcDbEntity
  8
0
370
    25
100
AcDbText
 10
269.7359680473328
 20
11.69999980926514
 30
0
 40
2.449999809265137
  1
24-10-2005
 41
0.9
  7
Caddy_Vectorfont1p
 72
     2
 11
286.2999267578125
 21
11.69999980926514
 31
0
100
AcDbText
  0
LINE
  5
92
330
40
100
AcDbEntity
  8
0
  6
Caddy_Solid
370
    25
100
AcDbLine
 10
320
 20
20
 30
0
 11
320
 21
10
 31
0
  0
TEXT
  5
93
330
40
100
AcDbEntity
  8
0
370
    25
100
AcDbText
 10
321.2000122070312
 20
16.20000076293945
 30
0
 40
2.44999885559082
  1
Plac.:
 41
0.9
  7
Caddy_Vectorfont1p
 11
0
 21
0
 31
0
100
AcDbText
  0
TEXT
  5
94
330
40
100
AcDbEntity
  8
0
370
    25
100
AcDbText
 10
314.9527328978539
 20
11.69999980926514
 30
0
 40
2.449999809265137
  1
=
 41
0.9
  7
Caddy_Vectorfont1p
 72
     2
 11
316.2999877929688
 21
11.69999980926514
 31
0
100
AcDbText
  0
LINE
  5
95
330
40
100
AcDbEntity
  8
0
  6
Caddy_Solid
370
    25
100
AcDbLine
 10
382.5
 20
20
 30
0
 11
382.5
 21
30
 31
0
  0
LINE
  5
96
330
40
100
AcDbEntity
  8
0
  6
Caddy_Solid
370
    25
100
AcDbLine
 10
382.5
 20
10
 30
0
 11
382.5
 21
20
 31
0
  0
TEXT
  5
97
330
40
100
AcDbEntity
  8
0
370
    25
100
AcDbText
 10
349.952763415432
 20
11.69999980926514
 30
0
 40
2.449999809265137
  1
+
 41
0.9
  7
Caddy_Vectorfont1p
 72
     2
 11
351.3000183105469
 21
11.69999980926514
 31
0
100
AcDbText
  0
LINE
  5
98
330
40
100
AcDbEntity
  8
0
  6
Caddy_Solid
370
    25
100
AcDbLine
 10
355
 20
10
 30
0
 11
355
 21
20
 31
0
  0
LINE
  5
99
330
40
100
AcDbEntity
  8
0
  6
Caddy_Solid
370
    25
100
AcDbLine
 10
355
 20
20
 30
0
 11
355
 21
30
 31
0
  0
TEXT
  5
9A
330
40
100
AcDbEntity
  8
0
370
    25
100
AcDbText
 10
356.2000122070312
 20
26.20000076293945
 30
0
 40
2.44999885559082
  1
Rev.:
 41
0.9
  7
Caddy_Vectorfont1p
 11
0
 21
0
 31
0
100
AcDbText
  0
LINE
  5
9B
330
40
100
AcDbEntity
  8
0
  6
Caddy_Solid
370
    25
100
AcDbLine
 10
337.5
 20
20
 30
0
 11
337.5
 21
30
 31
0
  0
TEXT
  5
9C
330
40
100
AcDbEntity
  8
0
370
    35
100
AcDbText
 10
333.5
 20
21.75
 30
0
 40
3.5
  1

 41
0.9
  7
Caddy_Vectorfont1p
 72
     2
 11
333.5
 21
21.75
 31
0
100
AcDbText
  0
TEXT
  5
9D
330
40
100
AcDbEntity
  8
0
370
    25
100
AcDbText
 10
338.7000122070312
 20
26.20000076293945
 30
0
 40
2.44999885559082
  1
Init.:
 41
0.9
  7
Caddy_Vectorfont1p
 11
0
 21
0
 31
0
100
AcDbText
  0
TEXT
  5
9E
330
40
100
AcDbEntity
  8
0
370
    25
100
AcDbText
 10
351.3000183105469
 20
21.70000076293945
 30
0
 40
2.44999885559082
  1

 41
0.9
  7
Caddy_Vectorfont1p
 72
     2
 11
351.3000183105469
 21
21.70000076293945
 31
0
100
AcDbText
  0
TEXT
  5
9F
330
40
100
AcDbEntity
  8
0
370
    25
100
AcDbText
 10
378.8000183105469
 20
21.70000076293945
 30
0
 40
2.44999885559082
  1

 41
0.9
  7
Caddy_Vectorfont1p
 72
     2
 11
378.8000183105469
 21
21.70000076293945
 31
0
100
AcDbText
  0
TEXT
  5
A0
330
40
100
AcDbEntity
  8
0
370
    35
100
AcDbText
 10
398.84
 20
21.75
 30
0
 40
3.5
  1
36
 41
0.9
  7
Caddy_Vectorfont1p
 72
     2
 11
403.25
 21
21.75
 31
0
100
AcDbText
  0
TEXT
  5
A1
330
40
100
AcDbEntity
  8
0
370
    35
100
AcDbText
 10
405.25
 20
21.75
 30
0
 40
3.5
  1

 41
0.9
  7
Caddy_Vectorfont1p
 11
0
 21
0
 31
0
100
AcDbText
  0
TEXT
  5
A2
330
40
100
AcDbEntity
  8
0
370
    25
100
AcDbText
 10
383.7000122070312
 20
26.20000076293945
 30
0
 40
2.44999885559082
  1
Blad:
 41
0.9
  7
Caddy_Vectorfont1p
 11
0
 21
0
 31
0
100
AcDbText
  0
TEXT
  5
A3
330
40
100
AcDbEntity
  8
0
370
    25
100
AcDbText
 10
403.2064035513878
 20
11.69999980926514
 30
0
 40
2.449999809265137
  1
37
 41
0.9
  7
Caddy_Vectorfont1p
 72
     2
 11
406.3000183105469
 21
11.69999980926514
 31
0
100
AcDbText
  0
TEXT
  5
A4
330
40
100
AcDbEntity
  8
0
370
    25
100
AcDbText
 10
383.7000122070312
 20
16.20000076293945
 30
0
 40
2.44999885559082
  1
Næste blad:
 41
0.9
  7
Caddy_Vectorfont1p
 11
0
 21
0
 31
0
100
AcDbText
  0
TEXT
  5
A5
330
40
100
AcDbEntity
  8
0
370
    25
100
AcDbText
 10
356.2000122070312
 20
16.20000076293945
 30
0
 40
2.44999885559082
  1
Antal blade:
 41
0.9
  7
Caddy_Vectorfont1p
 11
0
 21
0
 31
0
100
AcDbText
  0
TEXT
  5
A6
330
40
100
AcDbEntity
  8
0
370
    25
100
AcDbText
 10
376.202528512764
 20
11.69999980926514
 30
0
 40
2.449999809265137
  1
31
 41
0.9
  7
Caddy_Vectorfont1p
 72
     2
 11
378.8000183105469
 21
11.69999980926514
 31
0
100
AcDbText
  0
IMAGE
  5
A9
330
40
100
AcDbEntity
  8
0
 92
        8
310
0000000000000000
100
AcDbRasterImage
 90
        0
 10
12
 20
15
 30
0
 11
0.04549509366636931
 21
0
 31
0
 12
0
 22
0.04843332647489241
 32
0
 13
51
 23
10
340
A8
 70
     3
280
     0
281
    50
282
    50
283
     0
360
AB
 71
     1
 14
-0.5
 24
-0.5
 14
50.5
 24
9.5
  0
ENDBLK
  5
42
330
40
100
AcDbEntity
  8
0
100
AcDbBlockEnd
  0
BLOCK
  5
AE
330
AD
100
AcDbEntity
  8
0
100
AcDbBlockBegin
  2
Blk2
 70
     2
 10
0
 20
0
 30
0
  3
Blk2
  1

  0
CIRCLE
  5
B1
330
AD
100
AcDbEntity
  8
0
  6
Caddy_Solid
370
    25
100
AcDbCircle
 10
70
 20
102.5
 30
0
 40
0.75
  0
LINE
  5
B2
330
AD
100
AcDbEntity
  8
0
  6
Caddy_Solid
370
    25
100
AcDbLine
 10
70
 20
103.25
 30
0
 11
70
 21
105
 31
0
  0
LINE
  5
B3
330
AD
100
AcDbEntity
  8
0
  6
Caddy_Solid
370
    25
100
AcDbLine
 10
70
 20
100
 30
0
 11
70
 21
101.75
 31
0
  0
ATTDEF
  5
B7
330
AD
100
AcDbEntity
  8
2
370
    25
100
AcDbText
 10
48.24345402069092
 20
101.3000030517578
 30
0
 40
2.450004577636719
  1
-X20
 41
0.9
  7
Caddy_Vectorfont1p
 72
     2
 11
65.04999542236328
 21
101.3000030517578
 31
0
100
AcDbAttributeDefinition
  3
Produkt (-)
  2
$TAG160010
 70
     0
  0
ATTDEF
  5
B9
330
AD
100
AcDbEntity
  8
2
370
    25
100
AcDbText
 10
69.09999084472656
 20
104.1999969482422
 30
0
 40
2.450004577636719
  1
8V2
 50
90
 41
0.9
  7
Caddy_Vectorfont1p
 11
0
 21
0
 31
0
100
AcDbAttributeDefinition
  3
Klemmenummer
  2
$TAG160400
 70
     0
  0
ATTDEF
  5
BB
330
AD
100
AcDbEntity
  8
0
370
    25
100
AcDbText
 10
72.59999084472656
 20
104.1999969482422
 30
0
 40
2.450004577636719
  1
2
 50
90
 41
0.9
  7
Caddy_Vectorfont1p
 11
0
 21
0
 31
0
100
AcDbAttributeDefinition
  3
Sorteringsindeks
  2
$TAG160410
 70
     0
  0
ATTDEF
  5
BD
330
AD
100
AcDbEntity
  8
2
370
    25
100
AcDbText
 10
47.75173810195923
 20
97.80000305175781
 30
0
 40
2.450004577636719
  1

 41
0.9
  7
Caddy_Vectorfont1p
 72
     2
 11
65.04999542236328
 21
97.80000305175781
 31
0
100
AcDbAttributeDefinition
  3
Beskrivelse 00
  2
$TAG160030
 70
     0
  0
ATTDEF
  5
BF
330
AD
100
AcDbEntity
  8
2
370
    25
100
AcDbText
 10
47.50698264465332
 20
92.80000305175781
 30
0
 40
2.450004577636719
  1
AB1RR235U2GR
 41
0.9
  7
Caddy_Vectorfont1p
 72
     2
 11
65.04999542236328
 21
92.80000305175781
 31
0
100
AcDbAttributeDefinition
  3
Type
  2
$TAG160040
 70
     0
  0
ATTDEF
  5
C1
330
AD
100
AcDbEntity
  8
2
370
    25
100
AcDbText
 10
47.50699027404785
 20
108.3000030517578
 30
0
 40
2.450004577636719
  1
=
 41
0.9
  7
Caddy_Vectorfont1p
 72
     2
 11
65.05000305175781
 21
108.3000030517578
 31
0
100
AcDbAttributeDefinition
  3
Funktion (=)
  2
$TAG140020
 70
     0
  0
ATTDEF
  5
C3
330
AD
100
AcDbEntity
  8
2
370
    25
100
AcDbText
 10
47.50699027404785
 20
104.8000030517578
 30
0
 40
2.450004577636719
  1
+
 41
0.9
  7
Caddy_Vectorfont1p
 72
     2
 11
65.05000305175781
 21
104.8000030517578
 31
0
100
AcDbAttributeDefinition
  3
Placering (+)
  2
$TAG140050
 70
     0
  0
ENDBLK
  5
AF
330
AD
100
AcDbEntity
  8
0
100
AcDbBlockEnd
  0
BLOCK
  5
C5
330
C4
100
AcDbEntity
  8
0
100
AcDbBlockBegin
  2
Blk3
 70
     2
 10
0
 20
0
 30
0
  3
Blk3
  1

  0
CIRCLE
  5
C8
330
C4
100
AcDbEntity
  8
0
  6
Caddy_Solid
370
    25
100
AcDbCircle
 10
75
 20
102.5
 30
0
 40
0.75
  0
LINE
  5
C9
330
C4
100
AcDbEntity
  8
0
  6
Caddy_Solid
370
    25
100
AcDbLine
 10
75
 20
103.25
 30
0
 11
75
 21
105
 31
0
  0
LINE
  5
CA
330
C4
100
AcDbEntity
  8
0
  6
Caddy_Solid
370
    25
100
AcDbLine
 10
75
 20
100
 30
0
 11
75
 21
101.75
 31
0
  0
ATTDEF
  5
CD
330
C4
100
AcDbEntity
  8
2
370
    25
100
AcDbText
 10
53.24346165008545
 20
101.3000030517578
 30
0
 40
2.450004577636719
  1
-X20
 41
0.9
  7
Caddy_Vectorfont1p
 72
     2
 11
70.05000305175781
 21
101.3000030517578
 31
0
100
AcDbAttributeDefinition
  3
Produkt (-)
  2
$TAG160010
 70
     0
  0
ATTDEF
  5
CF
330
C4
100
AcDbEntity
  8
2
370
    25
100
AcDbText
 10
74.09999084472656
 20
104.1999969482422
 30
0
 40
2.450004577636719
  1
8W2
 50
90
 41
0.9
  7
Caddy_Vectorfont1p
 11
0
 21
0
 31
0
100
AcDbAttributeDefinition
  3
Klemmenummer
  2
$TAG160400
 70
     0
  0
ATTDEF
  5
D1
330
C4
100
AcDbEntity
  8
0
370
    25
100
AcDbText
 10
77.59999084472656
 20
104.1999969482422
 30
0
 40
2.450004577636719
  1
3
 50
90
 41
0.9
  7
Caddy_Vectorfont1p
 11
0
 21
0
 31
0
100
AcDbAttributeDefinition
  3
Sorteringsindeks
  2
$TAG160410
 70
     0
  0
ATTDEF
  5
D3
330
C4
100
AcDbEntity
  8
2
370
    25
100
AcDbText
 10
52.75173810195923
 20
97.80000305175781
 30
0
 40
2.450004577636719
  1

 41
0.9
  7
Caddy_Vectorfont1p
 72
     2
 11
70.04999542236328
 21
97.80000305175781
 31
0
100
AcDbAttributeDefinition
  3
Beskrivelse 00
  2
$TAG160030
 70
     0
  0
ATTDEF
  5
D5
330
C4
100
AcDbEntity
  8
2
370
    25
100
AcDbText
 10
52.50699027404785
 20
92.80000305175781
 30
0
 40
2.450004577636719
  1
AB1RR235U2GR
 41
0.9
  7
Caddy_Vectorfont1p
 72
     2
 11
70.05000305175781
 21
92.80000305175781
 31
0
100
AcDbAttributeDefinition
  3
Type
  2
$TAG160040
 70
     0
  0
ATTDEF
  5
D7
330
C4
100
AcDbEntity
  8
2
370
    25
100
AcDbText
 10
52.50699027404785
 20
108.3000030517578
 30
0
 40
2.450004577636719
  1
=
 41
0.9
  7
Caddy_Vectorfont1p
 72
     2
 11
70.05000305175781
 21
108.3000030517578
 31
0
100
AcDbAttributeDefinition
  3
Funktion (=)
  2
$TAG140020
 70
     0
  0
ATTDEF
  5
D9
330
C4
100
AcDbEntity
  8
2
370
    25
100
AcDbText
 10
52.50698264465332
 20
104.8000030517578
 30
0
 40
2.450004577636719
  1
+
 41
0.9
  7
Caddy_Vectorfont1p
 72
     2
 11
70.04999542236328
 21
104.8000030517578
 31
0
100
AcDbAttributeDefinition
  3
Placering (+)
  2
$TAG140050
 70
     0
  0
ENDBLK
  5
C6
330
C4
100
AcDbEntity
  8
0
100
AcDbBlockEnd
  0
BLOCK
  5
DB
330
DA
100
AcDbEntity
  8
0
100
AcDbBlockBegin
  2
Blk4
 70
     2
 10
0
 20
0
 30
0
  3
Blk4
  1

  0
CIRCLE
  5
DE
330
DA
100
AcDbEntity
  8
0
  6
Caddy_Solid
370
    25
100
AcDbCircle
 10
65
 20
102.5
 30
0
 40
0.75
  0
LINE
  5
DF
330
DA
100
AcDbEntity
  8
0
  6
Caddy_Solid
370
    25
100
AcDbLine
 10
65
 20
103.25
 30
0
 11
65
 21
105
 31
0
  0
LINE
  5
E0
330
DA
100
AcDbEntity
  8
0
  6
Caddy_Solid
370
    25
100
AcDbLine
 10
65
 20
100
 30
0
 11
65
 21
101.75
 31
0
  0
ATTDEF
  5
E3
330
DA
100
AcDbEntity
  8
2
370
    25
100
AcDbText
 10
43.24345783538818
 20
101.3000030517578
 30
0
 40
2.450004577636719
  1
X36
 41
0.9
  7
Caddy_Vectorfont1p
 72
     2
 11
60.04999923706055
 21
101.3000030517578
 31
0
100
AcDbAttributeDefinition
  3
Produkt (-)
  2
$TAG160010
 70
     0
  0
ATTDEF
  5
E5
330
DA
100
AcDbEntity
  8
2
370
    25
100
AcDbText
 10
64.09999084472656
 20
104.1999969482422
 30
0
 40
2.450004577636719
  1
8U2
 50
90
 41
0.9
  7
Caddy_Vectorfont1p
 11
0
 21
0
 31
0
100
AcDbAttributeDefinition
  3
Klemmenummer
  2
$TAG160400
 70
     0
  0
ATTDEF
  5
E7
330
DA
100
AcDbEntity
  8
0
370
    25
100
AcDbText
 10
67.59999084472656
 20
104.1999969482422
 30
0
 40
2.450004577636719
  1
1
 50
90
 41
0.9
  7
Caddy_Vectorfont1p
 11
0
 21
0
 31
0
100
AcDbAttributeDefinition
  3
Sorteringsindeks
  2
$TAG160410
 70
     0
  0
ATTDEF
  5
E9
330
DA
100
AcDbEntity
  8
2
370
    25
100
AcDbText
 10
42.75174191665649
 20
97.80000305175781
 30
0
 40
2.450004577636719
  1

 41
0.9
  7
Caddy_Vectorfont1p
 72
     2
 11
60.04999923706055
 21
97.80000305175781
 31
0
100
AcDbAttributeDefinition
  3
Beskrivelse 00
  2
$TAG160030
 70
     0
  0
ATTDEF
  5
EB
330
DA
100
AcDbEntity
  8
2
370
    25
100
AcDbText
 10
42.50698264465332
 20
92.80000305175781
 30
0
 40
2.450004577636719
  1
AB1RR235U2GR
 41
0.9
  7
Caddy_Vectorfont1p
 72
     2
 11
60.04999542236328
 21
92.80000305175781
 31
0
100
AcDbAttributeDefinition
  3
Type
  2
$TAG160040
 70
     0
  0
ATTDEF
  5
ED
330
DA
100
AcDbEntity
  8
2
370
    25
100
AcDbText
 10
42.50698645935059
 20
108.3000030517578
 30
0
 40
2.450004577636719
  1
=
 41
0.9
  7
Caddy_Vectorfont1p
 72
     2
 11
60.04999923706055
 21
108.3000030517578
 31
0
100
AcDbAttributeDefinition
  3
Funktion (=)
  2
$TAG140020
 70
     0
  0
ATTDEF
  5
EF
330
DA
100
AcDbEntity
  8
2
370
    25
100
AcDbText
 10
42.50699027404785
 20
104.8000030517578
 30
0
 40
2.450004577636719
  1
+
 41
0.9
  7
Caddy_Vectorfont1p
 72
     2
 11
60.05000305175781
 21
104.8000030517578
 31
0
100
AcDbAttributeDefinition
  3
Placering (+)
  2
$TAG140050
 70
     0
  0
ENDBLK
  5
DC
330
DA
100
AcDbEntity
  8
0
100
AcDbBlockEnd
  0
BLOCK
  5
F1
330
F0
100
AcDbEntity
  8
0
100
AcDbBlockBegin
  2
Blk5
 70
     2
 10
0
 20
0
 30
0
  3
Blk5
  1

  0
LINE
  5
F4
330
F0
100
AcDbEntity
  8
0
  6
Caddy_Solid
370
    25
100
AcDbLine
 10
64.13397216796875
 20
226.5
 30
0
 11
62.40191650390625
 21
225.5
 31
0
  0
LINE
  5
F5
330
F0
100
AcDbEntity
  8
0
  6
Caddy_Solid
370
    25
100
AcDbLine
 10
62.40191650390625
 20
225.5
 30
0
 11
61.40191650390625
 21
227.2320556640625
 31
0
  0
LINE
  5
F6
330
F0
100
AcDbEntity
  8
0
  6
Caddy_Solid
370
    25
100
AcDbLine
 10
61.40191650390625
 20
227.2320556640625
 30
0
 11
63.13397216796875
 21
228.2320556640625
 31
0
  0
LINE
  5
F7
330
F0
100
AcDbEntity
  8
0
  6
Caddy_Solid
370
    25
100
AcDbLine
 10
69.13397216796875
 20
226.5
 30
0
 11
67.40191650390625
 21
225.5
 31
0
  0
LINE
  5
F8
330
F0
100
AcDbEntity
  8
0
  6
Caddy_Solid
370
    25
100
AcDbLine
 10
67.40191650390625
 20
225.5
 30
0
 11
66.40191650390625
 21
227.2320556640625
 31
0
  0
LINE
  5
F9
330
F0
100
AcDbEntity
  8
0
  6
Caddy_Solid
370
    25
100
AcDbLine
 10
66.40191650390625
 20
227.2320556640625
 30
0
 11
68.13397216796875
 21
228.2320556640625
 31
0
  0
LINE
  5
FA
330
F0
100
AcDbEntity
  8
0
  6
Caddy_Solid
370
    25
100
AcDbLine
 10
74.13397216796875
 20
226.5
 30
0
 11
72.40191650390625
 21
225.5
 31
0
  0
LINE
  5
FB
330
F0
100
AcDbEntity
  8
0
  6
Caddy_Solid
370
    25
100
AcDbLine
 10
72.40191650390625
 20
225.5
 30
0
 11
71.40191650390625
 21
227.2320556640625
 31
0
  0
LINE
  5
FC
330
F0
100
AcDbEntity
  8
0
  6
Caddy_Solid
370
    25
100
AcDbLine
 10
71.40191650390625
 20
227.2320556640625
 30
0
 11
73.13397216796875
 21
228.2320556640625
 31
0
  0
LINE
  5
FD
330
F0
100
AcDbEntity
  8
0
  6
Caddy_Solid
370
    25
100
AcDbLine
 10
63.9393310546875
 20
228.9393310546875
 30
0
 11
66.0606689453125
 21
231.0606689453125
 31
0
  0
LINE
  5
FE
330
F0
100
AcDbEntity
  8
0
  6
Caddy_Solid
370
    25
100
AcDbLine
 10
63.9393310546875
 20
231.0606689453125
 30
0
 11
66.0606689453125
 21
228.9393310546875
 31
0
  0
LINE
  5
FF
330
F0
100
AcDbEntity
  8
0
  6
Caddy_Solid
370
    25
100
AcDbLine
 10
62.83493041992188
 20
225.75
 30
0
 11
61.83493041992188
 21
227.4820556640625
 31
0
  0
LINE
  5
100
330
F0
100
AcDbEntity
  8
0
  6
Caddy_Solid
370
    25
100
AcDbLine
 10
63.2679443359375
 20
226
 30
0
 11
62.2679443359375
 21
227.7320556640625
 31
0
  0
LINE
  5
101
330
F0
100
AcDbEntity
  8
0
  6
Caddy_Solid
370
    25
100
AcDbLine
 10
63.70095825195312
 20
226.25
 30
0
 11
62.70095825195312
 21
227.9820556640625
 31
0
  0
LINE
  5
102
330
F0
100
AcDbEntity
  8
0
  6
Caddy_Solid
370
    25
100
AcDbLine
 10
62.61843872070312
 20
225.625
 30
0
 11
61.61843872070312
 21
227.3570556640625
 31
0
  0
LINE
  5
103
330
F0
100
AcDbEntity
  8
0
  6
Caddy_Solid
370
    25
100
AcDbLine
 10
63.05145263671875
 20
225.875
 30
0
 11
62.05145263671875
 21
227.6070556640625
 31
0
  0
LINE
  5
104
330
F0
100
AcDbEntity
  8
0
  6
Caddy_Solid
370
    25
100
AcDbLine
 10
63.48446655273438
 20
226.125
 30
0
 11
62.48446655273438
 21
227.8570556640625
 31
0
  0
LINE
  5
105
330
F0
100
AcDbEntity
  8
0
  6
Caddy_Solid
370
    25
100
AcDbLine
 10
63.91748046875
 20
226.375
 30
0
 11
62.91748046875
 21
228.1070556640625
 31
0
  0
LINE
  5
106
330
F0
100
AcDbEntity
  8
0
  6
Caddy_Solid
370
    25
100
AcDbLine
 10
62.488525390625
 20
225.5499877929688
 30
0
 11
61.488525390625
 21
227.2820434570312
 31
0
  0
LINE
  5
107
330
F0
100
AcDbEntity
  8
0
  6
Caddy_Solid
370
    25
100
AcDbLine
 10
62.70501708984375
 20
225.6749877929688
 30
0
 11
61.70501708984375
 21
227.4070434570312
 31
0
  0
LINE
  5
108
330
F0
100
AcDbEntity
  8
0
  6
Caddy_Solid
370
    25
100
AcDbLine
 10
62.92153930664062
 20
225.7999877929688
 30
0
 11
61.92153930664062
 21
227.5320434570312
 31
0
  0
LINE
  5
109
330
F0
100
AcDbEntity
  8
0
  6
Caddy_Solid
370
    25
100
AcDbLine
 10
63.1380615234375
 20
225.9249877929688
 30
0
 11
62.1380615234375
 21
227.6570434570312
 31
0
  0
LINE
  5
10A
330
F0
100
AcDbEntity
  8
0
  6
Caddy_Solid
370
    25
100
AcDbLine
 10
63.35455322265625
 20
226.0499877929688
 30
0
 11
62.35455322265625
 21
227.7820434570312
 31
0
  0
LINE
  5
10B
330
F0
100
AcDbEntity
  8
0
  6
Caddy_Solid
370
    25
100
AcDbLine
 10
63.571044921875
 20
226.1749877929688
 30
0
 11
62.571044921875
 21
227.9070434570312
 31
0
  0
LINE
  5
10C
330
F0
100
AcDbEntity
  8
0
  6
Caddy_Solid
370
    25
100
AcDbLine
 10
63.78756713867188
 20
226.2999877929688
 30
0
 11
62.78756713867188
 21
228.0320434570312
 31
0
  0
LINE
  5
10D
330
F0
100
AcDbEntity
  8
0
  6
Caddy_Solid
370
    25
100
AcDbLine
 10
64.00408935546875
 20
226.4249877929688
 30
0
 11
63.00408935546875
 21
228.1570434570312
 31
0
  0
LINE
  5
10E
330
F0
100
AcDbEntity
  8
0
  6
Caddy_Solid
370
    25
100
AcDbLine
 10
68.9393310546875
 20
228.9393310546875
 30
0
 11
71.0606689453125
 21
231.0606689453125
 31
0
  0
LINE
  5
10F
330
F0
100
AcDbEntity
  8
0
  6
Caddy_Solid
370
    25
100
AcDbLine
 10
68.9393310546875
 20
231.0606689453125
 30
0
 11
71.0606689453125
 21
228.9393310546875
 31
0
  0
LINE
  5
110
330
F0
100
AcDbEntity
  8
0
  6
Caddy_Solid
370
    25
100
AcDbLine
 10
67.83493041992188
 20
225.75
 30
0
 11
66.83493041992188
 21
227.4820556640625
 31
0
  0
LINE
  5
111
330
F0
100
AcDbEntity
  8
0
  6
Caddy_Solid
370
    25
100
AcDbLine
 10
68.2679443359375
 20
226
 30
0
 11
67.2679443359375
 21
227.7320556640625
 31
0
  0
LINE
  5
112
330
F0
100
AcDbEntity
  8
0
  6
Caddy_Solid
370
    25
100
AcDbLine
 10
68.70095825195312
 20
226.25
 30
0
 11
67.70095825195312
 21
227.9820556640625
 31
0
  0
LINE
  5
113
330
F0
100
AcDbEntity
  8
0
  6
Caddy_Solid
370
    25
100
AcDbLine
 10
67.61843872070312
 20
225.625
 30
0
 11
66.61843872070312
 21
227.3570556640625
 31
0
  0
LINE
  5
114
330
F0
100
AcDbEntity
  8
0
  6
Caddy_Solid
370
    25
100
AcDbLine
 10
68.05145263671875
 20
225.875
 30
0
 11
67.05145263671875
 21
227.6070556640625
 31
0
  0
LINE
  5
115
330
F0
100
AcDbEntity
  8
0
  6
Caddy_Solid
370
    25
100
AcDbLine
 10
68.48446655273438
 20
226.125
 30
0
 11
67.48446655273438
 21
227.8570556640625
 31
0
  0
LINE
  5
116
330
F0
100
AcDbEntity
  8
0
  6
Caddy_Solid
370
    25
100
AcDbLine
 10
68.91748046875
 20
226.375
 30
0
 11
67.91748046875
 21
228.1070556640625
 31
0
  0
LINE
  5
117
330
F0
100
AcDbEntity
  8
0
  6
Caddy_Solid
370
    25
100
AcDbLine
 10
67.488525390625
 20
225.5499877929688
 30
0
 11
66.488525390625
 21
227.2820434570312
 31
0
  0
LINE
  5
118
330
F0
100
AcDbEntity
  8
0
  6
Caddy_Solid
370
    25
100
AcDbLine
 10
67.70501708984375
 20
225.6749877929688
 30
0
 11
66.70501708984375
 21
227.4070434570312
 31
0
  0
LINE
  5
119
330
F0
100
AcDbEntity
  8
0
  6
Caddy_Solid
370
    25
100
AcDbLine
 10
67.92153930664062
 20
225.7999877929688
 30
0
 11
66.92153930664062
 21
227.5320434570312
 31
0
  0
LINE
  5
11A
330
F0
100
AcDbEntity
  8
0
  6
Caddy_Solid
370
    25
100
AcDbLine
 10
68.1380615234375
 20
225.9249877929688
 30
0
 11
67.1380615234375
 21
227.6570434570312
 31
0
  0
LINE
  5
11B
330
F0
100
AcDbEntity
  8
0
  6
Caddy_Solid
370
    25
100
AcDbLine
 10
68.35455322265625
 20
226.0499877929688
 30
0
 11
67.35455322265625
 21
227.7820434570312
 31
0
  0
LINE
  5
11C
330
F0
100
AcDbEntity
  8
0
  6
Caddy_Solid
370
    25
100
AcDbLine
 10
68.571044921875
 20
226.1749877929688
 30
0
 11
67.571044921875
 21
227.9070434570312
 31
0
  0
LINE
  5
11D
330
F0
100
AcDbEntity
  8
0
  6
Caddy_Solid
370
    25
100
AcDbLine
 10
68.78756713867188
 20
226.2999877929688
 30
0
 11
67.78756713867188
 21
228.0320434570312
 31
0
  0
LINE
  5
11E
330
F0
100
AcDbEntity
  8
0
  6
Caddy_Solid
370
    25
100
AcDbLine
 10
69.00408935546875
 20
226.4249877929688
 30
0
 11
68.00408935546875
 21
228.1570434570312
 31
0
  0
LINE
  5
11F
330
F0
100
AcDbEntity
  8
0
  6
Caddy_Solid
370
    25
100
AcDbLine
 10
73.9393310546875
 20
228.9393310546875
 30
0
 11
76.0606689453125
 21
231.0606689453125
 31
0
  0
LINE
  5
120
330
F0
100
AcDbEntity
  8
0
  6
Caddy_Solid
370
    25
100
AcDbLine
 10
73.9393310546875
 20
231.0606689453125
 30
0
 11
76.0606689453125
 21
228.9393310546875
 31
0
  0
LINE
  5
121
330
F0
100
AcDbEntity
  8
0
  6
Caddy_Solid
370
    25
100
AcDbLine
 10
72.83493041992188
 20
225.75
 30
0
 11
71.83493041992188
 21
227.4820556640625
 31
0
  0
LINE
  5
122
330
F0
100
AcDbEntity
  8
0
  6
Caddy_Solid
370
    25
100
AcDbLine
 10
73.2679443359375
 20
226
 30
0
 11
72.2679443359375
 21
227.7320556640625
 31
0
  0
LINE
  5
123
330
F0
100
AcDbEntity
  8
0
  6
Caddy_Solid
370
    25
100
AcDbLine
 10
73.70095825195312
 20
226.25
 30
0
 11
72.70095825195312
 21
227.9820556640625
 31
0
  0
LINE
  5
124
330
F0
100
AcDbEntity
  8
0
  6
Caddy_Solid
370
    25
100
AcDbLine
 10
72.61843872070312
 20
225.625
 30
0
 11
71.61843872070312
 21
227.3570556640625
 31
0
  0
LINE
  5
125
330
F0
100
AcDbEntity
  8
0
  6
Caddy_Solid
370
    25
100
AcDbLine
 10
73.05145263671875
 20
225.875
 30
0
 11
72.05145263671875
 21
227.6070556640625
 31
0
  0
LINE
  5
126
330
F0
100
AcDbEntity
  8
0
  6
Caddy_Solid
370
    25
100
AcDbLine
 10
73.48446655273438
 20
226.125
 30
0
 11
72.48446655273438
 21
227.8570556640625
 31
0
  0
LINE
  5
127
330
F0
100
AcDbEntity
  8
0
  6
Caddy_Solid
370
    25
100
AcDbLine
 10
73.91748046875
 20
226.375
 30
0
 11
72.91748046875
 21
228.1070556640625
 31
0
  0
LINE
  5
128
330
F0
100
AcDbEntity
  8
0
  6
Caddy_Solid
370
    25
100
AcDbLine
 10
72.488525390625
 20
225.5499877929688
 30
0
 11
71.488525390625
 21
227.2820434570312
 31
0
  0
LINE
  5
129
330
F0
100
AcDbEntity
  8
0
  6
Caddy_Solid
370
    25
100
AcDbLine
 10
72.70501708984375
 20
225.6749877929688
 30
0
 11
71.70501708984375
 21
227.4070434570312
 31
0
  0
LINE
  5
12A
330
F0
100
AcDbEntity
  8
0
  6
Caddy_Solid
370
    25
100
AcDbLine
 10
72.92153930664062
 20
225.7999877929688
 30
0
 11
71.92153930664062
 21
227.5320434570312
 31
0
  0
LINE
  5
12B
330
F0
100
AcDbEntity
  8
0
  6
Caddy_Solid
370
    25
100
AcDbLine
 10
73.1380615234375
 20
225.9249877929688
 30
0
 11
72.1380615234375
 21
227.6570434570312
 31
0
  0
LINE
  5
12C
330
F0
100
AcDbEntity
  8
0
  6
Caddy_Solid
370
    25
100
AcDbLine
 10
73.35455322265625
 20
226.0499877929688
 30
0
 11
72.35455322265625
 21
227.7820434570312
 31
0
  0
LINE
  5
12D
330
F0
100
AcDbEntity
  8
0
  6
Caddy_Solid
370
    25
100
AcDbLine
 10
73.571044921875
 20
226.1749877929688
 30
0
 11
72.571044921875
 21
227.9070434570312
 31
0
  0
LINE
  5
12E
330
F0
100
AcDbEntity
  8
0
  6
Caddy_Solid
370
    25
100
AcDbLine
 10
73.78756713867188
 20
226.2999877929688
 30
0
 11
72.78756713867188
 21
228.0320434570312
 31
0
  0
LINE
  5
12F
330
F0
100
AcDbEntity
  8
0
  6
Caddy_Solid
370
    25
100
AcDbLine
 10
74.00408935546875
 20
226.4249877929688
 30
0
 11
73.00408935546875
 21
228.1570434570312
 31
0
  0
LINE
  5
130
330
F0
100
AcDbEntity
  8
0
  6
Caddy_Solid
370
    25
100
AcDbLine
 10
65
 20
230
 30
0
 11
65
 21
235
 31
0
  0
LINE
  5
131
330
F0
100
AcDbEntity
  8
0
  6
Caddy_Solid
370
    25
100
AcDbLine
 10
65
 20
225
 30
0
 11
65
 21
220
 31
0
  0
LINE
  5
132
330
F0
100
AcDbEntity
  8
0
  6
Caddy_Solid
370
    25
100
AcDbLine
 10
65
 20
225
 30
0
 11
61.58493041992188
 21
230.9150695800781
 31
0
  0
LINE
  5
133
330
F0
100
AcDbEntity
  8
0
  6
Caddy_Solid
370
    25
100
AcDbLine
 10
70
 20
230
 30
0
 11
70
 21
235
 31
0
  0
LINE
  5
134
330
F0
100
AcDbEntity
  8
0
  6
Caddy_Solid
370
    25
100
AcDbLine
 10
70
 20
225
 30
0
 11
70
 21
220
 31
0
  0
LINE
  5
135
330
F0
100
AcDbEntity
  8
0
  6
Caddy_Solid
370
    25
100
AcDbLine
 10
70
 20
225
 30
0
 11
66.58493041992188
 21
230.9150695800781
 31
0
  0
LINE
  5
136
330
F0
100
AcDbEntity
  8
0
  6
Caddy_Solid
370
    25
100
AcDbLine
 10
75
 20
230
 30
0
 11
75
 21
235
 31
0
  0
LINE
  5
137
330
F0
100
AcDbEntity
  8
0
  6
Caddy_Solid
370
    25
100
AcDbLine
 10
75
 20
225
 30
0
 11
75
 21
220
 31
0
  0
LINE
  5
138
330
F0
100
AcDbEntity
  8
0
  6
Caddy_Solid
370
    25
100
AcDbLine
 10
75
 20
225
 30
0
 11
71.58493041992188
 21
230.9150695800781
 31
0
  0
LINE
  5
139
330
F0
100
AcDbEntity
  8
0
  6
Caddy_Solid
370
    25
100
AcDbLine
 10
57.5
 20
230
 30
0
 11
52.5
 21
230
 31
0
  0
LINE
  5
13A
330
F0
100
AcDbEntity
  8
0
  6
Caddy_Solid
370
    25
100
AcDbLine
 10
57.5
 20
225
 30
0
 11
57.5
 21
230
 31
0
  0
LINE
  5
13B
330
F0
100
AcDbEntity
  8
0
  6
Caddy_Solid
370
    25
100
AcDbLine
 10
52.5
 20
225
 30
0
 11
57.5
 21
225
 31
0
  0
LINE
  5
13C
330
F0
100
AcDbEntity
  8
0
  6
Caddy_Solid
370
    25
100
AcDbLine
 10
52.5
 20
230
 30
0
 11
52.5
 21
225
 31
0
  0
LINE
  5
13D
330
F0
100
AcDbEntity
  8
0
  6
Caddy_Solid
370
    25
100
AcDbLine
 10
53
 20
227.5
 30
0
 11
57
 21
227.5
 31
0
  0
LINE
  5
13E
330
F0
100
AcDbEntity
  8
0
  6
Caddy_Solid
370
    25
100
AcDbLine
 10
55
 20
225.5
 30
0
 11
55
 21
230
 31
0
  0
LINE
  5
13F
330
F0
100
AcDbEntity
  8
0
  6
Caddy_Solid
370
    25
100
AcDbLine
 10
55
 20
225.5
 30
0
 11
55
 21
223.5
 31
0
  0
LINE
  5
140
330
F0
100
AcDbEntity
  8
0
  6
Caddy_Solid
370
    25
100
AcDbLine
 10
51
 20
227.5
 30
0
 11
53
 21
227.5
 31
0
  0
LINE
  5
141
330
F0
100
AcDbEntity
  8
0
  6
Caddy_Solid
370
    25
100
AcDbLine
 10
48
 20
227.5
 30
0
 11
50
 21
227.5
 31
0
  0
LINE
  5
142
330
F0
100
AcDbEntity
  8
0
  6
Caddy_Solid
370
    25
100
AcDbLine
 10
45
 20
227.5
 30
0
 11
47
 21
227.5
 31
0
  0
LINE
  5
143
330
F0
100
AcDbEntity
  8
0
  6
Caddy_Solid
370
    25
100
AcDbLine
 10
45
 20
228.75
 30
0
 11
45
 21
226.25
 31
0
  0
LINE
  5
144
330
F0
100
AcDbEntity
  8
0
  6
Caddy_Solid
370
    25
100
AcDbLine
 10
57
 20
227.5
 30
0
 11
59
 21
227.5
 31
0
  0
LINE
  5
145
330
F0
100
AcDbEntity
  8
0
  6
Caddy_Solid
370
    25
100
AcDbLine
 10
60
 20
227.5
 30
0
 11
62
 21
227.5
 31
0
  0
LINE
  5
146
330
F0
100
AcDbEntity
  8
0
  6
Caddy_Solid
370
    25
100
AcDbLine
 10
63
 20
227.5
 30
0
 11
64.5
 21
227.5
 31
0
  0
LINE
  5
147
330
F0
100
AcDbEntity
  8
0
  6
Caddy_Solid
370
    25
100
AcDbLine
 10
65.5
 20
227.5
 30
0
 11
68
 21
227.5
 31
0
  0
LINE
  5
148
330
F0
100
AcDbEntity
  8
0
  6
Caddy_Solid
370
    25
100
AcDbLine
 10
68.5
 20
227.5
 30
0
 11
69.5
 21
227.5
 31
0
  0
LINE
  5
149
330
F0
100
AcDbEntity
  8
0
  6
Caddy_Solid
370
    25
100
AcDbLine
 10
55
 20
222.5
 30
0
 11
55
 21
220.5
 31
0
  0
LINE
  5
14A
330
F0
100
AcDbEntity
  8
0
  6
Caddy_Solid
370
    25
100
AcDbLine
 10
55
 20
219.5
 30
0
 11
55
 21
217.5
 31
0
  0
LINE
  5
14B
330
F0
100
AcDbEntity
  8
0
  6
Caddy_Solid
370
    25
100
AcDbLine
 10
55
 20
217.5
 30
0
 11
57
 21
217.5
 31
0
  0
LINE
  5
14C
330
F0
100
AcDbEntity
  8
0
  6
Caddy_Solid
370
    25
100
AcDbLine
 10
58
 20
217.5
 30
0
 11
60
 21
217.5
 31
0
  0
LINE
  5
14D
330
F0
100
AcDbEntity
  8
0
  6
Caddy_Solid
370
    25
100
AcDbLine
 10
58
 20
212.5
 30
0
 11
60
 21
212.5
 31
0
  0
LINE
  5
14E
330
F0
100
AcDbEntity
  8
0
  6
Caddy_Solid
370
    25
100
AcDbLine
 10
55
 20
212.5
 30
0
 11
57
 21
212.5
 31
0
  0
LINE
  5
14F
330
F0
100
AcDbEntity
  8
0
  6
Caddy_Solid
370
    25
100
AcDbLine
 10
55
 20
213.5
 30
0
 11
55
 21
212.5
 31
0
  0
LINE
  5
150
330
F0
100
AcDbEntity
  8
0
  6
Caddy_Solid
370
    25
100
AcDbLine
 10
55
 20
216.5
 30
0
 11
55
 21
214.5
 31
0
  0
LINE
  5
151
330
F0
100
AcDbEntity
  8
0
  6
Caddy_Solid
370
    25
100
AcDbLine
 10
60
 20
220
 30
0
 11
60
 21
210
 31
0
  0
LINE
  5
152
330
F0
100
AcDbEntity
  8
0
  6
Caddy_Solid
370
    25
100
AcDbLine
 10
80
 20
220
 30
0
 11
60
 21
220
 31
0
  0
LINE
  5
153
330
F0
100
AcDbEntity
  8
0
  6
Caddy_Solid
370
    25
100
AcDbLine
 10
65
 20
218.75
 30
0
 11
67.5
 21
218.75
 31
0
  0
LINE
  5
154
330
F0
100
AcDbEntity
  8
0
  6
Caddy_Solid
370
    25
100
AcDbLine
 10
67.5
 20
218.75
 30
0
 11
67.5
 21
216.25
 31
0
  0
LINE
  5
155
330
F0
100
AcDbEntity
  8
0
  6
Caddy_Solid
370
    25
100
AcDbLine
 10
67.5
 20
216.25
 30
0
 11
65
 21
216.25
 31
0
  0
LINE
  5
156
330
F0
100
AcDbEntity
  8
0
  6
Caddy_Solid
370
    25
100
AcDbLine
 10
65
 20
215
 30
0
 11
65
 21
216.25
 31
0
  0
LINE
  5
157
330
F0
100
AcDbEntity
  8
0
  6
Caddy_Solid
370
    25
100
AcDbLine
 10
70
 20
215
 30
0
 11
70
 21
216.25
 31
0
  0
LINE
  5
158
330
F0
100
AcDbEntity
  8
0
  6
Caddy_Solid
370
    25
100
AcDbLine
 10
72.5
 20
216.25
 30
0
 11
70
 21
216.25
 31
0
  0
LINE
  5
159
330
F0
100
AcDbEntity
  8
0
  6
Caddy_Solid
370
    25
100
AcDbLine
 10
72.5
 20
218.75
 30
0
 11
72.5
 21
216.25
 31
0
  0
LINE
  5
15A
330
F0
100
AcDbEntity
  8
0
  6
Caddy_Solid
370
    25
100
AcDbLine
 10
70
 20
218.75
 30
0
 11
72.5
 21
218.75
 31
0
  0
LINE
  5
15B
330
F0
100
AcDbEntity
  8
0
  6
Caddy_Solid
370
    25
100
AcDbLine
 10
75
 20
218.75
 30
0
 11
77.5
 21
218.75
 31
0
  0
LINE
  5
15C
330
F0
100
AcDbEntity
  8
0
  6
Caddy_Solid
370
    25
100
AcDbLine
 10
77.5
 20
218.75
 30
0
 11
77.5
 21
216.25
 31
0
  0
LINE
  5
15D
330
F0
100
AcDbEntity
  8
0
  6
Caddy_Solid
370
    25
100
AcDbLine
 10
77.5
 20
216.25
 30
0
 11
75
 21
216.25
 31
0
  0
LINE
  5
15E
330
F0
100
AcDbEntity
  8
0
  6
Caddy_Solid
370
    25
100
AcDbLine
 10
75
 20
215
 30
0
 11
75
 21
216.25
 31
0
  0
LINE
  5
15F
330
F0
100
AcDbEntity
  8
0
  6
Caddy_Solid
370
    25
100
AcDbLine
 10
80
 20
220
 30
0
 11
80
 21
210
 31
0
  0
LINE
  5
160
330
F0
100
AcDbEntity
  8
0
  6
Caddy_Solid
370
    25
100
AcDbLine
 10
80
 20
215
 30
0
 11
60
 21
215
 31
0
  0
LINE
  5
161
330
F0
100
AcDbEntity
  8
0
  6
Caddy_Solid
370
    25
100
AcDbLine
 10
60
 20
210
 30
0
 11
80
 21
210
 31
0
  0
LINE
  5
162
330
F0
100
AcDbEntity
  8
0
  6
Caddy_Solid
370
    25
100
AcDbLine
 10
75
 20
210
 30
0
 11
75
 21
205
 31
0
  0
LINE
  5
163
330
F0
100
AcDbEntity
  8
0
  6
Caddy_Solid
370
    25
100
AcDbLine
 10
70
 20
210
 30
0
 11
70
 21
205
 31
0
  0
LINE
  5
164
330
F0
100
AcDbEntity
  8
0
  6
Caddy_Solid
370
    25
100
AcDbLine
 10
65
 20
210
 30
0
 11
65
 21
205
 31
0
  0
LINE
  5
165
330
F0
100
AcDbEntity
  8
0
  6
Caddy_Solid
370
    25
100
AcDbLine
 10
64.800048828125
 20
211.2000122070312
 30
0
 11
65.45654296875
 21
213.6499938964844
 31
0
  0
LINE
  5
166
330
F0
100
AcDbEntity
  8
0
  6
Caddy_Solid
370
    25
100
AcDbLine
 10
67.4033203125
 20
212.4249877929688
 30
0
 11
66.062744140625
 21
213.2999877929688
 31
0
  0
LINE
  5
167
330
F0
100
AcDbEntity
  8
0
  6
Caddy_Solid
370
    25
100
AcDbLine
 10
65.59384155273438
 20
211.5499877929688
 30
0
 11
67.4033203125
 21
212.4249877929688
 31
0
  0
LINE
  5
168
330
F0
100
AcDbEntity
  8
0
  6
Caddy_Solid
370
    25
100
AcDbLine
 10
69.800048828125
 20
211.2000122070312
 30
0
 11
70.45654296875
 21
213.6499938964844
 31
0
  0
LINE
  5
169
330
F0
100
AcDbEntity
  8
0
  6
Caddy_Solid
370
    25
100
AcDbLine
 10
72.4033203125
 20
212.4249877929688
 30
0
 11
71.062744140625
 21
213.2999877929688
 31
0
  0
LINE
  5
16A
330
F0
100
AcDbEntity
  8
0
  6
Caddy_Solid
370
    25
100
AcDbLine
 10
70.59384155273438
 20
211.5499877929688
 30
0
 11
72.4033203125
 21
212.4249877929688
 31
0
  0
LINE
  5
16B
330
F0
100
AcDbEntity
  8
0
  6
Caddy_Solid
370
    25
100
AcDbLine
 10
74.800048828125
 20
211.2000122070312
 30
0
 11
75.45654296875
 21
213.6499938964844
 31
0
  0
LINE
  5
16C
330
F0
100
AcDbEntity
  8
0
  6
Caddy_Solid
370
    25
100
AcDbLine
 10
77.4033203125
 20
212.4249877929688
 30
0
 11
76.062744140625
 21
213.2999877929688
 31
0
  0
LINE
  5
16D
330
F0
100
AcDbEntity
  8
0
  6
Caddy_Solid
370
    25
100
AcDbLine
 10
75.59384155273438
 20
211.5499877929688
 30
0
 11
77.4033203125
 21
212.4249877929688
 31
0
  0
LINE
  5
16E
330
F0
100
AcDbEntity
  8
0
  6
Caddy_Solid
370
    25
100
AcDbLine
 10
65
 20
218.75
 30
0
 11
65
 21
220
 31
0
  0
LINE
  5
16F
330
F0
100
AcDbEntity
  8
0
  6
Caddy_Solid
370
    25
100
AcDbLine
 10
70
 20
218.75
 30
0
 11
70
 21
220
 31
0
  0
LINE
  5
170
330
F0
100
AcDbEntity
  8
0
  6
Caddy_Solid
370
    25
100
AcDbLine
 10
75
 20
218.75
 30
0
 11
75
 21
220
 31
0
  0
LINE
  5
171
330
F0
100
AcDbEntity
  8
0
  6
Caddy_Solid
370
    25
100
AcDbLine
 10
72
 20
227.5
 30
0
 11
70.5
 21
227.5
 31
0
  0
ATTDEF
  5
174
330
F0
100
AcDbEntity
  8
0
370
    25
100
AcDbText
 10
35.69352237854004
 20
213.8000030517578
 30
0
 40
2.449996948242188
  1
F3601
 41
0.9
  7
Caddy_Vectorfont1p
 72
     2
 11
52.5000114440918
 21
213.8000030517578
 31
0
100
AcDbAttributeDefinition
  3
Produkt (-)
  2
$TAG160010
 70
     0
  0
ATTDEF
  5
176
330
F0
100
AcDbEntity
  8
0
370
    25
100
AcDbText
 10
34.95705329589844
 20
206.8000030517578
 30
0
 40
2.449996948242188
  1
LUCA1XBL;LUFC00;LUB12;LU9BN11C
 41
0.9
  7
Caddy_Vectorfont1p
 72
     2
 11
52.5000114440918
 21
206.8000030517578
 31
0
100
AcDbAttributeDefinition
  3
Type
  2
$TAG160040
 70
     0
  0
ATTDEF
  5
178
330
F0
100
AcDbEntity
  8
0
370
    25
100
AcDbText
 10
35.20180799102783
 20
210.3000030517578
 30
0
 40
2.449996948242188
  1
0,76A
 41
0.9
  7
Caddy_Vectorfont1p
 72
     2
 11
52.5000114440918
 21
210.3000030517578
 31
0
100
AcDbAttributeDefinition
  3
Beskrivelse 00
  2
$TAG160030
 70
     0
  0
ATTDEF
  5
17A
330
F0
100
AcDbEntity
  8
0
370
    25
100
AcDbText
 10
64.05000305175781
 20
231.9000091552734
 30
0
 40
2.449996948242188
  1
1
 50
90
 41
0.9
  7
Caddy_Vectorfont1p
 11
0
 21
0
 31
0
100
AcDbAttributeDefinition
  3
Tilslutningstekst 00
  2
$TAG175000_00
 70
     0
  0
ATTDEF
  5
17C
330
F0
100
AcDbEntity
  8
0
370
    25
100
AcDbText
 10
64.05000305175781
 20
185.4658327224732
 30
0
 40
2.449996948242188
  1

 50
90
 41
0.9
  7
Caddy_Vectorfont1p
 72
     2
 11
64.05000305175781
 21
208.4000091552734
 31
0
100
AcDbAttributeDefinition
  3
Tilslutningstekst 01
  2
$TAG175000_01
 70
     0
  0
ATTDEF
  5
17E
330
F0
100
AcDbEntity
  8
0
370
    25
100
AcDbText
 10
69.05000305175781
 20
231.9000091552734
 30
0
 40
2.449996948242188
  1
3
 50
90
 41
0.9
  7
Caddy_Vectorfont1p
 11
0
 21
0
 31
0
100
AcDbAttributeDefinition
  3
Tilslutningstekst 02
  2
$TAG175000_02
 70
     0
  0
ATTDEF
  5
180
330
F0
100
AcDbEntity
  8
0
370
    25
100
AcDbText
 10
69.05000305175781
 20
184.9763080734253
 30
0
 40
2.449996948242188
  1

 50
90
 41
0.9
  7
Caddy_Vectorfont1p
 72
     2
 11
69.05000305175781
 21
208.3999938964844
 31
0
100
AcDbAttributeDefinition
  3
Tilslutningstekst 03
  2
$TAG175000_03
 70
     0
  0
ATTDEF
  5
182
330
F0
100
AcDbEntity
  8
0
370
    25
100
AcDbText
 10
74.05000305175781
 20
231.9000091552734
 30
0
 40
2.449996948242188
  1
5
 50
90
 41
0.9
  7
Caddy_Vectorfont1p
 11
0
 21
0
 31
0
100
AcDbAttributeDefinition
  3
Tilslutningstekst 04
  2
$TAG175000_04
 70
     0
  0
ATTDEF
  5
184
330
F0
100
AcDbEntity
  8
0
370
    25
100
AcDbText
 10
74.05000305175781
 20
184.9763080734253
 30
0
 40
2.449996948242188
  1

 50
90
 41
0.9
  7
Caddy_Vectorfont1p
 72
     2
 11
74.05000305175781
 21
208.3999938964844
 31
0
100
AcDbAttributeDefinition
  3
Tilslutningstekst 05
  2
$TAG175000_05
 70
     0
  0
ATTDEF
  5
186
330
F0
100
AcDbEntity
  8
0
370
    25
100
AcDbText
 10
34.95705329589844
 20
220.8000030517578
 30
0
 40
2.449996948242188
  1
=
 41
0.9
  7
Caddy_Vectorfont1p
 72
     2
 11
52.5000114440918
 21
220.8000030517578
 31
0
100
AcDbAttributeDefinition
  3
Funktion (=)
  2
$TAG140020
 70
     0
  0
ATTDEF
  5
188
330
F0
100
AcDbEntity
  8
0
370
    25
100
AcDbText
 10
34.95705711059571
 20
217.3000030517578
 30
0
 40
2.449996948242188
  1
+
 41
0.9
  7
Caddy_Vectorfont1p
 72
     2
 11
52.50001525878906
 21
217.3000030517578
 31
0
100
AcDbAttributeDefinition
  3
Placering (+)
  2
$TAG140050
 70
     0
  0
ENDBLK
  5
F2
330
F0
100
AcDbEntity
  8
0
100
AcDbBlockEnd
  0
BLOCK
  5
18D
330
18C
100
AcDbEntity
  8
0
100
AcDbBlockBegin
  2
Blk6
 70
     2
 10
0
 20
0
 30
0
  3
Blk6
  1

  0
LINE
  5
190
330
18C
100
AcDbEntity
  8
0
  6
Caddy_Solid
370
    25
100
AcDbLine
 10
75
 20
202.5
 30
0
 11
75
 21
205
 31
0
  0
LINE
  5
191
330
18C
100
AcDbEntity
  8
0
  6
Caddy_Solid
370
    25
100
AcDbLine
 10
75
 20
197.5
 30
0
 11
75
 21
195
 31
0
  0
LINE
  5
192
330
18C
100
AcDbEntity
  8
0
  6
Caddy_Solid
370
    25
100
AcDbLine
 10
75
 20
197.5
 30
0
 11
71.58493041992188
 21
203.4150695800781
 31
0
  0
LINE
  5
193
330
18C
100
AcDbEntity
  8
0
  6
Caddy_Solid
370
    25
100
AcDbLine
 10
70
 20
202.5
 30
0
 11
70
 21
205
 31
0
  0
LINE
  5
194
330
18C
100
AcDbEntity
  8
0
  6
Caddy_Solid
370
    25
100
AcDbLine
 10
70
 20
197.5
 30
0
 11
70
 21
195
 31
0
  0
LINE
  5
195
330
18C
100
AcDbEntity
  8
0
  6
Caddy_Solid
370
    25
100
AcDbLine
 10
70
 20
197.5
 30
0
 11
66.58493041992188
 21
203.4150695800781
 31
0
  0
LINE
  5
196
330
18C
100
AcDbEntity
  8
0
  6
Caddy_Solid
370
    25
100
AcDbLine
 10
65
 20
202.5
 30
0
 11
65
 21
205
 31
0
  0
LINE
  5
197
330
18C
100
AcDbEntity
  8
0
  6
Caddy_Solid
370
    25
100
AcDbLine
 10
65
 20
197.5
 30
0
 11
65
 21
195
 31
0
  0
LINE
  5
198
330
18C
100
AcDbEntity
  8
0
  6
Caddy_Solid
370
    25
100
AcDbLine
 10
65
 20
197.5
 30
0
 11
61.58493041992188
 21
203.4150695800781
 31
0
  0
ELLIPSE
  5
199
330
18C
100
AcDbEntity
  8
0
  6
Caddy_Solid
370
    25
100
AcDbEllipse
 10
70
 20
203.75
 30
0
 11
1.25
 21
0
 31
0
210
0
220
0
230
1
 40
1
 41
1.570796326794897
 42
4.71238898038469
  0
ELLIPSE
  5
19A
330
18C
100
AcDbEntity
  8
0
  6
Caddy_Solid
370
    25
100
AcDbEllipse
 10
75
 20
203.75
 30
0
 11
1.25
 21
0
 31
0
210
0
220
0
230
1
 40
1
 41
1.570796326794897
 42
4.71238898038469
  0
ELLIPSE
  5
19B
330
18C
100
AcDbEntity
  8
0
  6
Caddy_Solid
370
    25
100
AcDbEllipse
 10
65
 20
203.75
 30
0
 11
1.25
 21
0
 31
0
210
0
220
0
230
1
 40
1
 41
1.570796326794897
 42
4.71238898038469
  0
LINE
  5
19C
330
18C
100
AcDbEntity
  8
0
  6
Caddy_Solid
370
    25
100
AcDbLine
 10
63.556640625
 20
200
 30
0
 11
65
 21
200
 31
0
  0
LINE
  5
19D
330
18C
100
AcDbEntity
  8
0
  6
Caddy_Solid
370
    25
100
AcDbLine
 10
66
 20
200
 30
0
 11
68
 21
200
 31
0
  0
LINE
  5
19E
330
18C
100
AcDbEntity
  8
0
  6
Caddy_Solid
370
    25
100
AcDbLine
 10
69
 20
200
 30
0
 11
71
 21
200
 31
0
  0
LINE
  5
19F
330
18C
100
AcDbEntity
  8
0
  6
Caddy_Solid
370
    25
100
AcDbLine
 10
72
 20
200
 30
0
 11
73.556640625
 21
200
 31
0
  0
ATTDEF
  5
1A2
330
18C
100
AcDbEntity
  8
0
370
    25
100
AcDbText
 10
42.19352237854004
 20
198.8000030517578
 30
0
 40
2.449996948242188
  1
27F1.2
 41
0.9
  7
Caddy_Vectorfont1p
 72
     2
 11
59.0000114440918
 21
198.8000030517578
 31
0
100
AcDbAttributeDefinition
  3
Produkt (-)
  2
$TAG160010
 70
     0
  0
ATTDEF
  5
1A4
330
18C
100
AcDbEntity
  8
0
370
    25
100
AcDbText
 10
41.70180799102783
 20
195.3000030517578
 30
0
 40
2.449996948242188
  1

 41
0.9
  7
Caddy_Vectorfont1p
 72
     2
 11
59.0000114440918
 21
195.3000030517578
 31
0
100
AcDbAttributeDefinition
  3
Side/strømvej reference
  2
$TAG160500
 70
     0
  0
ATTDEF
  5
1A6
330
18C
100
AcDbEntity
  8
0
370
    25
100
AcDbText
 10
64.05000305175781
 20
205.9000091552734
 30
0
 40
2.449996948242188
  1

 50
90
 41
0.9
  7
Caddy_Vectorfont1p
 11
0
 21
0
 31
0
100
AcDbAttributeDefinition
  3
Tilslutningstekst 00
  2
$TAG175000_00
 70
     0
  0
ATTDEF
  5
1A8
330
18C
100
AcDbEntity
  8
0
370
    25
100
AcDbText
 10
64.05000305175781
 20
172.9658327224732
 30
0
 40
2.449996948242188
  1
2
 50
90
 41
0.9
  7
Caddy_Vectorfont1p
 72
     2
 11
64.05000305175781
 21
195.9000091552734
 31
0
100
AcDbAttributeDefinition
  3
Tilslutningstekst 01
  2
$TAG175000_01
 70
     0
  0
ATTDEF
  5
1AA
330
18C
100
AcDbEntity
  8
0
370
    25
100
AcDbText
 10
69.05000305175781
 20
205.9000091552734
 30
0
 40
2.449996948242188
  1

 50
90
 41
0.9
  7
Caddy_Vectorfont1p
 11
0
 21
0
 31
0
100
AcDbAttributeDefinition
  3
Tilslutningstekst 02
  2
$TAG175000_02
 70
     0
  0
ATTDEF
  5
1AC
330
18C
100
AcDbEntity
  8
0
370
    25
100
AcDbText
 10
69.05000305175781
 20
172.4763080734253
 30
0
 40
2.449996948242188
  1
4
 50
90
 41
0.9
  7
Caddy_Vectorfont1p
 72
     2
 11
69.05000305175781
 21
195.8999938964844
 31
0
100
AcDbAttributeDefinition
  3
Tilslutningstekst 03
  2
$TAG175000_03
 70
     0
  0
ATTDEF
  5
1AE
330
18C
100
AcDbEntity
  8
0
370
    25
100
AcDbText
 10
74.05000305175781
 20
205.9000091552734
 30
0
 40
2.449996948242188
  1

 50
90
 41
0.9
  7
Caddy_Vectorfont1p
 11
0
 21
0
 31
0
100
AcDbAttributeDefinition
  3
Tilslutningstekst 04
  2
$TAG175000_04
 70
     0
  0
ATTDEF
  5
1B0
330
18C
100
AcDbEntity
  8
0
370
    25
100
AcDbText
 10
74.05000305175781
 20
172.4763080734253
 30
0
 40
2.449996948242188
  1
6
 50
90
 41
0.9
  7
Caddy_Vectorfont1p
 72
     2
 11
74.05000305175781
 21
195.8999938964844
 31
0
100
AcDbAttributeDefinition
  3
Tilslutningstekst 05
  2
$TAG175000_05
 70
     0
  0
ATTDEF
  5
1B2
330
18C
100
AcDbEntity
  8
0
370
    25
100
AcDbText
 10
41.45705329589844
 20
205.8000030517578
 30
0
 40
2.449996948242188
  1
=
 41
0.9
  7
Caddy_Vectorfont1p
 72
     2
 11
59.0000114440918
 21
205.8000030517578
 31
0
100
AcDbAttributeDefinition
  3
Funktion (=)
  2
$TAG140020
 70
     0
  0
ATTDEF
  5
1B4
330
18C
100
AcDbEntity
  8
0
370
    25
100
AcDbText
 10
41.45705711059571
 20
202.3000030517578
 30
0
 40
2.449996948242188
  1
+
 41
0.9
  7
Caddy_Vectorfont1p
 72
     2
 11
59.00001525878906
 21
202.3000030517578
 31
0
100
AcDbAttributeDefinition
  3
Placering (+)
  2
$TAG140050
 70
     0
  0
ATTDEF
  5
1B6
330
18C
100
AcDbEntity
  8
0
370
    25
100
AcDbText
 10
31.50179578399658
 20
197.5574798583984
 30
0
 40
2.449996948242188
  1

 41
0.9
  7
Caddy_Vectorfont1p
 72
     2
 11
48.79999923706055
 21
197.5574798583984
 31
0
100
AcDbAttributeDefinition
  3
Beskrivelse 00
  2
$TAG160030
 70
     0
  0
ATTDEF
  5
1B8
330
18C
100
AcDbEntity
  8
0
370
    25
100
AcDbText
 10
31.25704108886719
 20
194.0574798583984
 30
0
 40
2.449996948242188
  1

 41
0.9
  7
Caddy_Vectorfont1p
 72
     2
 11
48.79999923706055
 21
194.0574798583984
 31
0
100
AcDbAttributeDefinition
  3
Type
  2
$TAG160040
 70
     0
  0
ENDBLK
  5
18E
330
18C
100
AcDbEntity
  8
0
100
AcDbBlockEnd
  0
BLOCK
  5
1BA
330
1B9
100
AcDbEntity
  8
0
100
AcDbBlockBegin
  2
Blk7
 70
     2
 10
0
 20
0
 30
0
  3
Blk7
  1

  0
CIRCLE
  5
1BD
330
1B9
100
AcDbEntity
  8
0
  6
Caddy_Solid
370
    25
100
AcDbCircle
 10
80
 20
102.5
 30
0
 40
0.75
  0
LINE
  5
1BE
330
1B9
100
AcDbEntity
  8
0
  6
Caddy_Solid
370
    25
100
AcDbLine
 10
80
 20
103.25
 30
0
 11
80
 21
105
 31
0
  0
LINE
  5
1BF
330
1B9
100
AcDbEntity
  8
0
  6
Caddy_Solid
370
    25
100
AcDbLine
 10
80
 20
100
 30
0
 11
80
 21
101.75
 31
0
  0
ATTDEF
  5
1C2
330
1B9
100
AcDbEntity
  8
2
370
    25
100
AcDbText
 10
58.24345402069092
 20
101.3000030517578
 30
0
 40
2.450004577636719
  1
-X20
 41
0.9
  7
Caddy_Vectorfont1p
 72
     2
 11
75.04999542236328
 21
101.3000030517578
 31
0
100
AcDbAttributeDefinition
  3
Produkt (-)
  2
$TAG160010
 70
     0
  0
ATTDEF
  5
1C4
330
1B9
100
AcDbEntity
  8
2
370
    25
100
AcDbText
 10
79.09999084472656
 20
104.1999969482422
 30
0
 40
2.450004577636719
  1
PE
 50
90
 41
0.9
  7
Caddy_Vectorfont1p
 11
0
 21
0
 31
0
100
AcDbAttributeDefinition
  3
Klemmenummer
  2
$TAG160400
 70
     0
  0
ATTDEF
  5
1C6
330
1B9
100
AcDbEntity
  8
0
370
    25
100
AcDbText
 10
82.59999084472656
 20
104.1999969482422
 30
0
 40
2.450004577636719
  1
5
 50
90
 41
0.9
  7
Caddy_Vectorfont1p
 11
0
 21
0
 31
0
100
AcDbAttributeDefinition
  3
Sorteringsindeks
  2
$TAG160410
 70
     0
  0
ATTDEF
  5
1C8
330
1B9
100
AcDbEntity
  8
2
370
    25
100
AcDbText
 10
57.75173810195923
 20
97.80000305175781
 30
0
 40
2.450004577636719
  1

 41
0.9
  7
Caddy_Vectorfont1p
 72
     2
 11
75.04999542236328
 21
97.80000305175781
 31
0
100
AcDbAttributeDefinition
  3
Beskrivelse 00
  2
$TAG160030
 70
     0
  0
ATTDEF
  5
1CA
330
1B9
100
AcDbEntity
  8
2
370
    25
100
AcDbText
 10
57.50699790344238
 20
92.80000305175781
 30
0
 40
2.450004577636719
  1
AB1RRTP235U2
 41
0.9
  7
Caddy_Vectorfont1p
 72
     2
 11
75.05001068115234
 21
92.80000305175781
 31
0
100
AcDbAttributeDefinition
  3
Type
  2
$TAG160040
 70
     0
  0
ATTDEF
  5
1CC
330
1B9
100
AcDbEntity
  8
2
370
    25
100
AcDbText
 10
57.50699027404785
 20
108.3000030517578
 30
0
 40
2.450004577636719
  1
=
 41
0.9
  7
Caddy_Vectorfont1p
 72
     2
 11
75.05000305175781
 21
108.3000030517578
 31
0
100
AcDbAttributeDefinition
  3
Funktion (=)
  2
$TAG140020
 70
     0
  0
ATTDEF
  5
1CE
330
1B9
100
AcDbEntity
  8
2
370
    25
100
AcDbText
 10
57.50698264465332
 20
104.8000030517578
 30
0
 40
2.450004577636719
  1
+
 41
0.9
  7
Caddy_Vectorfont1p
 72
     2
 11
75.04999542236328
 21
104.8000030517578
 31
0
100
AcDbAttributeDefinition
  3
Placering (+)
  2
$TAG140050
 70
     0
  0
ENDBLK
  5
1BB
330
1B9
100
AcDbEntity
  8
0
100
AcDbBlockEnd
  0
BLOCK
  5
1D1
330
1D0
100
AcDbEntity
  8
0
100
AcDbBlockBegin
  2
Blk8
 70
     2
 10
0
 20
0
 30
0
  3
Blk8
  1

  0
LINE
  5
1D4
330
1D0
100
AcDbEntity
  8
0
  6
Caddy_Solid
370
    25
100
AcDbLine
 10
65
 20
75.59016418457031
 30
0
 11
65
 21
80
 31
0
  0
LINE
  5
1D5
330
1D0
100
AcDbEntity
  8
0
  6
Caddy_Solid
370
    25
100
AcDbLine
 10
75
 20
75.59016418457031
 30
0
 11
75
 21
80
 31
0
  0
CIRCLE
  5
1D6
330
1D0
100
AcDbEntity
  8
0
  6
Caddy_Solid
370
    25
100
AcDbCircle
 10
70
 20
70
 30
0
 40
7.5
  0
LINE
  5
1D7
330
1D0
100
AcDbEntity
  8
0
  6
Caddy_Solid
370
    25
100
AcDbLine
 10
80
 20
80
 30
0
 11
80
 21
72.5
 31
0
  0
LINE
  5
1D8
330
1D0
100
AcDbEntity
  8
0
  6
Caddy_Solid
370
    25
100
AcDbLine
 10
77.07107543945312
 20
72.5
 30
0
 11
80
 21
72.5
 31
0
  0
LINE
  5
1D9
330
1D0
100
AcDbEntity
  8
0
  6
Caddy_Solid
370
    25
100
AcDbLine
 10
66.86248779296875
 20
69.9324951171875
 30
0
 11
67.38751220703125
 21
69.9324951171875
 31
0
  0
LINE
  5
1DA
330
1D0
100
AcDbEntity
  8
0
  6
Caddy_Solid
370
    25
100
AcDbLine
 10
67.38751220703125
 20
69.9324951171875
 30
0
 11
67.47500610351562
 21
69.91499328613281
 31
0
  0
LINE
  5
1DB
330
1D0
100
AcDbEntity
  8
0
  6
Caddy_Solid
370
    25
100
AcDbLine
 10
67.47500610351562
 20
69.91499328613281
 30
0
 11
67.5625
 21
69.89750671386719
 31
0
  0
LINE
  5
1DC
330
1D0
100
AcDbEntity
  8
0
  6
Caddy_Solid
370
    25
100
AcDbLine
 10
67.5625
 20
69.89750671386719
 30
0
 11
67.64999389648438
 21
69.86250305175781
 31
0
  0
LINE
  5
1DD
330
1D0
100
AcDbEntity
  8
0
  6
Caddy_Solid
370
    25
100
AcDbLine
 10
67.64999389648438
 20
69.86250305175781
 30
0
 11
67.73748779296875
 21
69.79249572753906
 31
0
  0
LINE
  5
1DE
330
1D0
100
AcDbEntity
  8
0
  6
Caddy_Solid
370
    25
100
AcDbLine
 10
67.73748779296875
 20
69.79249572753906
 30
0
 11
67.82501220703125
 21
69.6875
 31
0
  0
LINE
  5
1DF
330
1D0
100
AcDbEntity
  8
0
  6
Caddy_Solid
370
    25
100
AcDbLine
 10
67.82501220703125
 20
69.6875
 30
0
 11
67.87750244140625
 21
69.58250427246094
 31
0
  0
LINE
  5
1E0
330
1D0
100
AcDbEntity
  8
0
  6
Caddy_Solid
370
    25
100
AcDbLine
 10
67.87750244140625
 20
69.58250427246094
 30
0
 11
67.89501953125
 21
69.4949951171875
 31
0
  0
LINE
  5
1E1
330
1D0
100
AcDbEntity
  8
0
  6
Caddy_Solid
370
    25
100
AcDbLine
 10
67.89501953125
 20
69.4949951171875
 30
0
 11
67.91250610351562
 21
69.40750122070312
 31
0
  0
LINE
  5
1E2
330
1D0
100
AcDbEntity
  8
0
  6
Caddy_Solid
370
    25
100
AcDbLine
 10
67.91250610351562
 20
69.40750122070312
 30
0
 11
67.91250610351562
 21
69.32000732421875
 31
0
  0
LINE
  5
1E3
330
1D0
100
AcDbEntity
  8
0
  6
Caddy_Solid
370
    25
100
AcDbLine
 10
67.91250610351562
 20
69.32000732421875
 30
0
 11
67.89501953125
 21
69.23249816894531
 31
0
  0
LINE
  5
1E4
330
1D0
100
AcDbEntity
  8
0
  6
Caddy_Solid
370
    25
100
AcDbLine
 10
67.89501953125
 20
69.23249816894531
 30
0
 11
67.87750244140625
 21
69.14500427246094
 31
0
  0
LINE
  5
1E5
330
1D0
100
AcDbEntity
  8
0
  6
Caddy_Solid
370
    25
100
AcDbLine
 10
67.87750244140625
 20
69.14500427246094
 30
0
 11
67.82501220703125
 21
69.03999328613281
 31
0
  0
LINE
  5
1E6
330
1D0
100
AcDbEntity
  8
0
  6
Caddy_Solid
370
    25
100
AcDbLine
 10
67.82501220703125
 20
69.03999328613281
 30
0
 11
67.73748779296875
 21
68.93499755859375
 31
0
  0
LINE
  5
1E7
330
1D0
100
AcDbEntity
  8
0
  6
Caddy_Solid
370
    25
100
AcDbLine
 10
67.73748779296875
 20
68.93499755859375
 30
0
 11
67.64999389648438
 21
68.88250732421875
 31
0
  0
LINE
  5
1E8
330
1D0
100
AcDbEntity
  8
0
  6
Caddy_Solid
370
    25
100
AcDbLine
 10
67.64999389648438
 20
68.88250732421875
 30
0
 11
67.5625
 21
68.83000183105469
 31
0
  0
LINE
  5
1E9
330
1D0
100
AcDbEntity
  8
0
  6
Caddy_Solid
370
    25
100
AcDbLine
 10
67.5625
 20
68.83000183105469
 30
0
 11
67.47500610351562
 21
68.8125
 31
0
  0
LINE
  5
1EA
330
1D0
100
AcDbEntity
  8
0
  6
Caddy_Solid
370
    25
100
AcDbLine
 10
67.47500610351562
 20
68.8125
 30
0
 11
67.38751220703125
 21
68.79499816894531
 31
0
  0
LINE
  5
1EB
330
1D0
100
AcDbEntity
  8
0
  6
Caddy_Solid
370
    25
100
AcDbLine
 10
67.38751220703125
 20
68.79499816894531
 30
0
 11
67.21249389648438
 21
68.79499816894531
 31
0
  0
LINE
  5
1EC
330
1D0
100
AcDbEntity
  8
0
  6
Caddy_Solid
370
    25
100
AcDbLine
 10
67.21249389648438
 20
68.79499816894531
 30
0
 11
67.38751220703125
 21
68.79499816894531
 31
0
  0
LINE
  5
1ED
330
1D0
100
AcDbEntity
  8
0
  6
Caddy_Solid
370
    25
100
AcDbLine
 10
67.38751220703125
 20
68.79499816894531
 30
0
 11
67.47500610351562
 21
68.77749633789062
 31
0
  0
LINE
  5
1EE
330
1D0
100
AcDbEntity
  8
0
  6
Caddy_Solid
370
    25
100
AcDbLine
 10
67.47500610351562
 20
68.77749633789062
 30
0
 11
67.5625
 21
68.75999450683594
 31
0
  0
LINE
  5
1EF
330
1D0
100
AcDbEntity
  8
0
  6
Caddy_Solid
370
    25
100
AcDbLine
 10
67.5625
 20
68.75999450683594
 30
0
 11
67.64999389648438
 21
68.70750427246094
 31
0
  0
LINE
  5
1F0
330
1D0
100
AcDbEntity
  8
0
  6
Caddy_Solid
370
    25
100
AcDbLine
 10
67.64999389648438
 20
68.70750427246094
 30
0
 11
67.73748779296875
 21
68.65499877929688
 31
0
  0
LINE
  5
1F1
330
1D0
100
AcDbEntity
  8
0
  6
Caddy_Solid
370
    25
100
AcDbLine
 10
67.73748779296875
 20
68.65499877929688
 30
0
 11
67.82501220703125
 21
68.55000305175781
 31
0
  0
LINE
  5
1F2
330
1D0
100
AcDbEntity
  8
0
  6
Caddy_Solid
370
    25
100
AcDbLine
 10
67.82501220703125
 20
68.55000305175781
 30
0
 11
67.87750244140625
 21
68.44500732421875
 31
0
  0
LINE
  5
1F3
330
1D0
100
AcDbEntity
  8
0
  6
Caddy_Solid
370
    25
100
AcDbLine
 10
67.87750244140625
 20
68.44500732421875
 30
0
 11
67.89501953125
 21
68.35749816894531
 31
0
  0
LINE
  5
1F4
330
1D0
100
AcDbEntity
  8
0
  6
Caddy_Solid
370
    25
100
AcDbLine
 10
67.89501953125
 20
68.35749816894531
 30
0
 11
67.91250610351562
 21
68.27000427246094
 31
0
  0
LINE
  5
1F5
330
1D0
100
AcDbEntity
  8
0
  6
Caddy_Solid
370
    25
100
AcDbLine
 10
67.91250610351562
 20
68.27000427246094
 30
0
 11
67.91250610351562
 21
68.00750732421875
 31
0
  0
LINE
  5
1F6
330
1D0
100
AcDbEntity
  8
0
  6
Caddy_Solid
370
    25
100
AcDbLine
 10
67.91250610351562
 20
68.00750732421875
 30
0
 11
67.89501953125
 21
67.91999816894531
 31
0
  0
LINE
  5
1F7
330
1D0
100
AcDbEntity
  8
0
  6
Caddy_Solid
370
    25
100
AcDbLine
 10
67.89501953125
 20
67.91999816894531
 30
0
 11
67.87750244140625
 21
67.83250427246094
 31
0
  0
LINE
  5
1F8
330
1D0
100
AcDbEntity
  8
0
  6
Caddy_Solid
370
    25
100
AcDbLine
 10
67.87750244140625
 20
67.83250427246094
 30
0
 11
67.82501220703125
 21
67.72749328613281
 31
0
  0
LINE
  5
1F9
330
1D0
100
AcDbEntity
  8
0
  6
Caddy_Solid
370
    25
100
AcDbLine
 10
67.82501220703125
 20
67.72749328613281
 30
0
 11
67.73748779296875
 21
67.62249755859375
 31
0
  0
LINE
  5
1FA
330
1D0
100
AcDbEntity
  8
0
  6
Caddy_Solid
370
    25
100
AcDbLine
 10
67.73748779296875
 20
67.62249755859375
 30
0
 11
67.64999389648438
 21
67.57000732421875
 31
0
  0
LINE
  5
1FB
330
1D0
100
AcDbEntity
  8
0
  6
Caddy_Solid
370
    25
100
AcDbLine
 10
67.64999389648438
 20
67.57000732421875
 30
0
 11
67.5625
 21
67.51750183105469
 31
0
  0
LINE
  5
1FC
330
1D0
100
AcDbEntity
  8
0
  6
Caddy_Solid
370
    25
100
AcDbLine
 10
67.5625
 20
67.51750183105469
 30
0
 11
67.47500610351562
 21
67.5
 31
0
  0
LINE
  5
1FD
330
1D0
100
AcDbEntity
  8
0
  6
Caddy_Solid
370
    25
100
AcDbLine
 10
67.47500610351562
 20
67.5
 30
0
 11
67.38751220703125
 21
67.48249816894531
 31
0
  0
LINE
  5
1FE
330
1D0
100
AcDbEntity
  8
0
  6
Caddy_Solid
370
    25
100
AcDbLine
 10
67.38751220703125
 20
67.48249816894531
 30
0
 11
66.86248779296875
 21
67.48249816894531
 31
0
  0
LINE
  5
1FF
330
1D0
100
AcDbEntity
  8
0
  6
Caddy_Solid
370
    25
100
AcDbLine
 10
69.29998779296875
 20
71.19999694824219
 30
0
 11
69.29998779296875
 21
73.64999389648438
 31
0
  0
LINE
  5
200
330
1D0
100
AcDbEntity
  8
0
  6
Caddy_Solid
370
    25
100
AcDbLine
 10
69.29998779296875
 20
73.64999389648438
 30
0
 11
70
 21
72.25
 31
0
  0
LINE
  5
201
330
1D0
100
AcDbEntity
  8
0
  6
Caddy_Solid
370
    25
100
AcDbLine
 10
70
 20
72.25
 30
0
 11
70.70001220703125
 21
73.64999389648438
 31
0
  0
LINE
  5
202
330
1D0
100
AcDbEntity
  8
0
  6
Caddy_Solid
370
    25
100
AcDbLine
 10
70.70001220703125
 20
73.64999389648438
 30
0
 11
70.70001220703125
 21
71.19999694824219
 31
0
  0
ELLIPSE
  5
203
330
1D0
100
AcDbEntity
  8
0
  6
Caddy_Solid
370
    25
100
AcDbEllipse
 10
70.1898193359375
 20
68.16004943847656
 30
0
 11
1.237436890602112
 21
0
 31
0
210
0
220
0
230
1
 40
1
 41
0.7853981633974483
 42
2.86329311862484
  0
ELLIPSE
  5
204
330
1D0
100
AcDbEntity
  8
0
  6
Caddy_Solid
370
    25
100
AcDbEllipse
 10
72.98980712890625
 20
68.86004638671875
 30
0
 11
1.237436890602112
 21
0
 31
0
210
0
220
0
230
1
 40
1
 41
-2.356194490192345
 42
-0.3217503397301411
  0
LINE
  5
205
330
1D0
100
AcDbEntity
  8
0
  6
Caddy_Solid
370
    25
100
AcDbLine
 10
71.0648193359375
 20
69.03504943847656
 30
0
 11
72.11480712890625
 21
67.98504638671875
 31
0
  0
LINE
  5
206
330
1D0
100
AcDbEntity
  8
0
  6
Caddy_Solid
370
    25
100
AcDbLine
 10
70
 20
77.5
 30
0
 11
70
 21
80
 31
0
  0
ATTDEF
  5
209
330
1D0
100
AcDbEntity
  8
0
370
    25
100
AcDbText
 10
43.19347004241943
 20
68.80000305175781
 30
0
 40
2.450004577636719
  1
M3601
 41
0.9
  7
Caddy_Vectorfont1p
 72
     2
 11
60.0000114440918
 21
68.80000305175781
 31
0
100
AcDbAttributeDefinition
  3
Produkt (-)
  2
$TAG160010
 70
     0
  0
ATTDEF
  5
20B
330
1D0
100
AcDbEntity
  8
0
370
    25
100
AcDbText
 10
42.45702598114013
 20
61.80000686645508
 30
0
 40
2.450000762939453
  1

 41
0.9
  7
Caddy_Vectorfont1p
 72
     2
 11
60.0000114440918
 21
61.80000686645508
 31
0
100
AcDbAttributeDefinition
  3
Type
  2
$TAG160040
 70
     0
  0
ATTDEF
  5
20D
330
1D0
100
AcDbEntity
  8
0
370
    25
100
AcDbText
 10
42.70175412368774
 20
65.30000305175781
 30
0
 40
2.450004577636719
  1

 41
0.9
  7
Caddy_Vectorfont1p
 72
     2
 11
60.0000114440918
 21
65.30000305175781
 31
0
100
AcDbAttributeDefinition
  3
Beskrivelse 00
  2
$TAG160030
 70
     0
  0
ATTDEF
  5
20F
330
1D0
100
AcDbEntity
  8
0
370
    25
100
AcDbText
 10
64.09999084472656
 20
78.39999389648438
 30
0
 40
2.450004577636719
  1
U1
 50
90
 41
0.9
  7
Caddy_Vectorfont1p
 11
0
 21
0
 31
0
100
AcDbAttributeDefinition
  3
Tilslutningstekst 00
  2
$TAG175000_00
 70
     0
  0
ATTDEF
  5
211
330
1D0
100
AcDbEntity
  8
0
370
    25
100
AcDbText
 10
69.09999084472656
 20
78.39999389648438
 30
0
 40
2.450004577636719
  1
V1
 50
90
 41
0.9
  7
Caddy_Vectorfont1p
 11
0
 21
0
 31
0
100
AcDbAttributeDefinition
  3
Tilslutningstekst 01
  2
$TAG175000_01
 70
     0
  0
ATTDEF
  5
213
330
1D0
100
AcDbEntity
  8
0
370
    25
100
AcDbText
 10
74.09999084472656
 20
78.39999389648438
 30
0
 40
2.450004577636719
  1
W1
 50
90
 41
0.9
  7
Caddy_Vectorfont1p
 11
0
 21
0
 31
0
100
AcDbAttributeDefinition
  3
Tilslutningstekst 02
  2
$TAG175000_02
 70
     0
  0
ATTDEF
  5
215
330
1D0
100
AcDbEntity
  8
0
370
    25
100
AcDbText
 10
79.09999084472656
 20
78.39999389648438
 30
0
 40
2.450004577636719
  1

 50
90
 41
0.9
  7
Caddy_Vectorfont1p
 11
0
 21
0
 31
0
100
AcDbAttributeDefinition
  3
Tilslutningstekst 03
  2
$TAG175000_03
 70
     0
  0
ENDBLK
  5
1D2
330
1D0
100
AcDbEntity
  8
0
100
AcDbBlockEnd
  0
BLOCK
  5
217
330
216
100
AcDbEntity
  8
0
100
AcDbBlockBegin
  2
Blk9
 70
     2
 10
0
 20
0
 30
0
  3
Blk9
  1

  0
ATTDEF
  5
21C
330
216
100
AcDbEntity
  8
0
370
    25
100
AcDbText
 10
90.69999694824219
 20
85.69999694824219
 30
0
 40
2.450004577636719
  1
W3601.1
 41
0.9
  7
Caddy_Vectorfont1p
 11
0
 21
0
 31
0
100
AcDbAttributeDefinition
  3
Produkt (-)
  2
$TAG160010
 70
     0
  0
ATTDEF
  5
21E
330
216
100
AcDbEntity
  8
0
370
    25
100
AcDbText
 10
90.69999694824219
 20
80.69999694824219
 30
0
 40
2.450004577636719
  1

 41
0.9
  7
Caddy_Vectorfont1p
 11
0
 21
0
 31
0
100
AcDbAttributeDefinition
  3
Beskrivelse 00
  2
$TAG160030
 70
     0
  0
ATTDEF
  5
220
330
216
100
AcDbEntity
  8
0
370
    25
100
AcDbText
 10
90.69999694824219
 20
75.69999694824219
 30
0
 40
2.450004577636719
  1

 41
0.9
  7
Caddy_Vectorfont1p
 11
0
 21
0
 31
0
100
AcDbAttributeDefinition
  3
Kabeldimension
  2
$TAG160200
 70
     0
  0
ATTDEF
  5
222
330
216
100
AcDbEntity
  8
0
370
    25
100
AcDbText
 10
90.69999694824219
 20
70.69999694824219
 30
0
 40
2.450004577636719
  1

 41
0.9
  7
Caddy_Vectorfont1p
 11
0
 21
0
 31
0
100
AcDbAttributeDefinition
  3
Type
  2
$TAG160040
 70
     0
  0
ATTDEF
  5
224
330
216
100
AcDbEntity
  8
0
370
    25
100
AcDbText
 10
90.69999694824219
 20
65.69999694824219
 30
0
 40
2.450004577636719
  1

 41
0.9
  7
Caddy_Vectorfont1p
 11
0
 21
0
 31
0
100
AcDbAttributeDefinition
  3
Længde
  2
$TAG160101
 70
     0
  0
ATTDEF
  5
226
330
216
100
AcDbEntity
  8
0
370
    25
100
AcDbText
 10
65.69999694824219
 20
85.69999694824219
 30
0
 40
2.450004577636719
  1
1
 41
0.9
  7
Caddy_Vectorfont1p
 11
0
 21
0
 31
0
100
AcDbAttributeDefinition
  3
Kabelkorenummer
  2
$TAG160210
 70
     0
  0
ATTDEF
  5
228
330
216
100
AcDbEntity
  8
0
370
    25
100
AcDbText
 10
65.69999694824219
 20
80.69999694824219
 30
0
 40
2.450004577636719
  1

 41
0.9
  7
Caddy_Vectorfont1p
 11
0
 21
0
 31
0
100
AcDbAttributeDefinition
  3
Kabelkorefarve
  2
$TAG160220
 70
     0
  0
ATTDEF
  5
22A
330
216
100
AcDbEntity
  8
0
370
    25
100
AcDbText
 10
65.69999694824219
 20
75.69999694824219
 30
0
 40
2.450004577636719
  1

 41
0.9
  7
Caddy_Vectorfont1p
 11
0
 21
0
 31
0
100
AcDbAttributeDefinition
  3
Kabelkoretværsnit
  2
$TAG160230
 70
     0
  0
LINE
  5
22B
330
216
100
AcDbEntity
  8
0
  6
Caddy_Solid
370
    25
100
AcDbLine
 10
65
 20
85.5
 30
0
 11
65
 21
84.5
 31
0
  0
ENDBLK
  5
218
330
216
100
AcDbEntity
  8
0
100
AcDbBlockEnd
  0
BLOCK
  5
22D
330
22C
100
AcDbEntity
  8
0
100
AcDbBlockBegin
  2
Blk10
 70
     2
 10
0
 20
0
 30
0
  3
Blk10
  1

  0
ATTDEF
  5
232
330
22C
100
AcDbEntity
  8
0
370
    25
100
AcDbText
 10
90.69999694824219
 20
85.69999694824219
 30
0
 40
2.450004577636719
  1
W3601.1
 41
0.9
  7
Caddy_Vectorfont1p
 11
0
 21
0
 31
0
100
AcDbAttributeDefinition
  3
Produkt (-)
  2
$TAG160010
 70
     0
  0
ATTDEF
  5
234
330
22C
100
AcDbEntity
  8
0
370
    25
100
AcDbText
 10
90.69999694824219
 20
80.69999694824219
 30
0
 40
2.450004577636719
  1

 41
0.9
  7
Caddy_Vectorfont1p
 11
0
 21
0
 31
0
100
AcDbAttributeDefinition
  3
Beskrivelse 00
  2
$TAG160030
 70
     0
  0
ATTDEF
  5
236
330
22C
100
AcDbEntity
  8
0
370
    25
100
AcDbText
 10
90.69999694824219
 20
75.69999694824219
 30
0
 40
2.450004577636719
  1

 41
0.9
  7
Caddy_Vectorfont1p
 11
0
 21
0
 31
0
100
AcDbAttributeDefinition
  3
Kabeldimension
  2
$TAG160200
 70
     0
  0
ATTDEF
  5
238
330
22C
100
AcDbEntity
  8
0
370
    25
100
AcDbText
 10
90.69999694824219
 20
70.69999694824219
 30
0
 40
2.450004577636719
  1

 41
0.9
  7
Caddy_Vectorfont1p
 11
0
 21
0
 31
0
100
AcDbAttributeDefinition
  3
Type
  2
$TAG160040
 70
     0
  0
ATTDEF
  5
23A
330
22C
100
AcDbEntity
  8
0
370
    25
100
AcDbText
 10
90.69999694824219
 20
65.69999694824219
 30
0
 40
2.450004577636719
  1

 41
0.9
  7
Caddy_Vectorfont1p
 11
0
 21
0
 31
0
100
AcDbAttributeDefinition
  3
Længde
  2
$TAG160101
 70
     0
  0
ATTDEF
  5
23C
330
22C
100
AcDbEntity
  8
0
370
    25
100
AcDbText
 10
70.69999694824219
 20
85.69999694824219
 30
0
 40
2.450004577636719
  1
2
 41
0.9
  7
Caddy_Vectorfont1p
 11
0
 21
0
 31
0
100
AcDbAttributeDefinition
  3
Kabelkorenummer
  2
$TAG160210
 70
     0
  0
ATTDEF
  5
23E
330
22C
100
AcDbEntity
  8
0
370
    25
100
AcDbText
 10
70.69999694824219
 20
80.69999694824219
 30
0
 40
2.450004577636719
  1

 41
0.9
  7
Caddy_Vectorfont1p
 11
0
 21
0
 31
0
100
AcDbAttributeDefinition
  3
Kabelkorefarve
  2
$TAG160220
 70
     0
  0
ATTDEF
  5
240
330
22C
100
AcDbEntity
  8
0
370
    25
100
AcDbText
 10
70.69999694824219
 20
75.69999694824219
 30
0
 40
2.450004577636719
  1

 41
0.9
  7
Caddy_Vectorfont1p
 11
0
 21
0
 31
0
100
AcDbAttributeDefinition
  3
Kabelkoretværsnit
  2
$TAG160230
 70
     0
  0
LINE
  5
241
330
22C
100
AcDbEntity
  8
0
  6
Caddy_Solid
370
    25
100
AcDbLine
 10
70
 20
85.5
 30
0
 11
70
 21
84.5
 31
0
  0
ENDBLK
  5
22E
330
22C
100
AcDbEntity
  8
0
100
AcDbBlockEnd
  0
BLOCK
  5
243
330
242
100
AcDbEntity
  8
0
100
AcDbBlockBegin
  2
Blk11
 70
     2
 10
0
 20
0
 30
0
  3
Blk11
  1

  0
ATTDEF
  5
248
330
242
100
AcDbEntity
  8
0
370
    25
100
AcDbText
 10
90.69999694824219
 20
85.69999694824219
 30
0
 40
2.450004577636719
  1
W3601.1
 41
0.9
  7
Caddy_Vectorfont1p
 11
0
 21
0
 31
0
100
AcDbAttributeDefinition
  3
Produkt (-)
  2
$TAG160010
 70
     0
  0
ATTDEF
  5
24A
330
242
100
AcDbEntity
  8
0
370
    25
100
AcDbText
 10
90.69999694824219
 20
80.69999694824219
 30
0
 40
2.450004577636719
  1

 41
0.9
  7
Caddy_Vectorfont1p
 11
0
 21
0
 31
0
100
AcDbAttributeDefinition
  3
Beskrivelse 00
  2
$TAG160030
 70
     0
  0
ATTDEF
  5
24C
330
242
100
AcDbEntity
  8
0
370
    25
100
AcDbText
 10
90.69999694824219
 20
75.69999694824219
 30
0
 40
2.450004577636719
  1

 41
0.9
  7
Caddy_Vectorfont1p
 11
0
 21
0
 31
0
100
AcDbAttributeDefinition
  3
Kabeldimension
  2
$TAG160200
 70
     0
  0
ATTDEF
  5
24E
330
242
100
AcDbEntity
  8
0
370
    25
100
AcDbText
 10
90.69999694824219
 20
70.69999694824219
 30
0
 40
2.450004577636719
  1

 41
0.9
  7
Caddy_Vectorfont1p
 11
0
 21
0
 31
0
100
AcDbAttributeDefinition
  3
Type
  2
$TAG160040
 70
     0
  0
ATTDEF
  5
250
330
242
100
AcDbEntity
  8
0
370
    25
100
AcDbText
 10
90.69999694824219
 20
65.69999694824219
 30
0
 40
2.450004577636719
  1

 41
0.9
  7
Caddy_Vectorfont1p
 11
0
 21
0
 31
0
100
AcDbAttributeDefinition
  3
Længde
  2
$TAG160101
 70
     0
  0
ATTDEF
  5
252
330
242
100
AcDbEntity
  8
0
370
    25
100
AcDbText
 10
75.69999694824219
 20
85.69999694824219
 30
0
 40
2.450004577636719
  1
3
 41
0.9
  7
Caddy_Vectorfont1p
 11
0
 21
0
 31
0
100
AcDbAttributeDefinition
  3
Kabelkorenummer
  2
$TAG160210
 70
     0
  0
ATTDEF
  5
254
330
242
100
AcDbEntity
  8
0
370
    25
100
AcDbText
 10
75.69999694824219
 20
80.69999694824219
 30
0
 40
2.450004577636719
  1

 41
0.9
  7
Caddy_Vectorfont1p
 11
0
 21
0
 31
0
100
AcDbAttributeDefinition
  3
Kabelkorefarve
  2
$TAG160220
 70
     0
  0
ATTDEF
  5
256
330
242
100
AcDbEntity
  8
0
370
    25
100
AcDbText
 10
75.69999694824219
 20
75.69999694824219
 30
0
 40
2.450004577636719
  1

 41
0.9
  7
Caddy_Vectorfont1p
 11
0
 21
0
 31
0
100
AcDbAttributeDefinition
  3
Kabelkoretværsnit
  2
$TAG160230
 70
     0
  0
LINE
  5
257
330
242
100
AcDbEntity
  8
0
  6
Caddy_Solid
370
    25
100
AcDbLine
 10
75
 20
85.5
 30
0
 11
75
 21
84.5
 31
0
  0
ENDBLK
  5
244
330
242
100
AcDbEntity
  8
0
100
AcDbBlockEnd
  0
BLOCK
  5
259
330
258
100
AcDbEntity
  8
0
100
AcDbBlockBegin
  2
Blk12
 70
     2
 10
0
 20
0
 30
0
  3
Blk12
  1

  0
ATTDEF
  5
25E
330
258
100
AcDbEntity
  8
0
370
    25
100
AcDbText
 10
90.69999694824219
 20
85.69999694824219
 30
0
 40
2.450004577636719
  1
W3601.1
 41
0.9
  7
Caddy_Vectorfont1p
 11
0
 21
0
 31
0
100
AcDbAttributeDefinition
  3
Produkt (-)
  2
$TAG160010
 70
     0
  0
ATTDEF
  5
260
330
258
100
AcDbEntity
  8
0
370
    25
100
AcDbText
 10
90.69999694824219
 20
80.69999694824219
 30
0
 40
2.450004577636719
  1

 41
0.9
  7
Caddy_Vectorfont1p
 11
0
 21
0
 31
0
100
AcDbAttributeDefinition
  3
Beskrivelse 00
  2
$TAG160030
 70
     0
  0
ATTDEF
  5
262
330
258
100
AcDbEntity
  8
0
370
    25
100
AcDbText
 10
90.69999694824219
 20
75.69999694824219
 30
0
 40
2.450004577636719
  1

 41
0.9
  7
Caddy_Vectorfont1p
 11
0
 21
0
 31
0
100
AcDbAttributeDefinition
  3
Kabeldimension
  2
$TAG160200
 70
     0
  0
ATTDEF
  5
264
330
258
100
AcDbEntity
  8
0
370
    25
100
AcDbText
 10
90.69999694824219
 20
70.69999694824219
 30
0
 40
2.450004577636719
  1

 41
0.9
  7
Caddy_Vectorfont1p
 11
0
 21
0
 31
0
100
AcDbAttributeDefinition
  3
Type
  2
$TAG160040
 70
     0
  0
ATTDEF
  5
266
330
258
100
AcDbEntity
  8
0
370
    25
100
AcDbText
 10
90.69999694824219
 20
65.69999694824219
 30
0
 40
2.450004577636719
  1

 41
0.9
  7
Caddy_Vectorfont1p
 11
0
 21
0
 31
0
100
AcDbAttributeDefinition
  3
Længde
  2
$TAG160101
 70
     0
  0
ATTDEF
  5
268
330
258
100
AcDbEntity
  8
0
370
    25
100
AcDbText
 10
80.69999694824219
 20
85.69999694824219
 30
0
 40
2.450004577636719
  1
PE
 41
0.9
  7
Caddy_Vectorfont1p
 11
0
 21
0
 31
0
100
AcDbAttributeDefinition
  3
Kabelkorenummer
  2
$TAG160210
 70
     0
  0
ATTDEF
  5
26A
330
258
100
AcDbEntity
  8
0
370
    25
100
AcDbText
 10
80.69999694824219
 20
80.69999694824219
 30
0
 40
2.450004577636719
  1

 41
0.9
  7
Caddy_Vectorfont1p
 11
0
 21
0
 31
0
100
AcDbAttributeDefinition
  3
Kabelkorefarve
  2
$TAG160220
 70
     0
  0
ATTDEF
  5
26C
330
258
100
AcDbEntity
  8
0
370
    25
100
AcDbText
 10
80.69999694824219
 20
75.69999694824219
 30
0
 40
2.450004577636719
  1

 41
0.9
  7
Caddy_Vectorfont1p
 11
0
 21
0
 31
0
100
AcDbAttributeDefinition
  3
Kabelkoretværsnit
  2
$TAG160230
 70
     0
  0
LINE
  5
26D
330
258
100
AcDbEntity
  8
0
  6
Caddy_Solid
370
    25
100
AcDbLine
 10
80
 20
85.5
 30
0
 11
80
 21
84.5
 31
0
  0
ENDBLK
  5
25A
330
258
100
AcDbEntity
  8
0
100
AcDbBlockEnd
  0
BLOCK
  5
27E
330
27D
100
AcDbEntity
  8
0
100
AcDbBlockBegin
  2
Blk13
 70
     2
 10
0
 20
0
 30
0
  3
Blk13
  1

  0
LINE
  5
281
330
27D
100
AcDbEntity
  8
0
  6
Caddy_Solid
370
    25
100
AcDbLine
 10
97.5
 20
195
 30
0
 11
99.75
 21
193.75
 31
0
  0
LINE
  5
282
330
27D
100
AcDbEntity
  8
0
  6
Caddy_Solid
370
    25
100
AcDbLine
 10
97.5
 20
195
 30
0
 11
99.75
 21
196.25
 31
0
  0
LINE
  5
283
330
27D
100
AcDbEntity
  8
0
  6
Caddy_Solid
370
    25
100
AcDbLine
 10
100
 20
195
 30
0
 11
97.5
 21
195
 31
0
  0
ATTDEF
  5
286
330
27D
100
AcDbEntity
  8
0
370
    25
100
AcDbText
 10
101.5999908447266
 20
195.9000091552734
 30
0
 40
2.449996948242188
  1
0707
 41
0.9
  7
Caddy_Vectorfont1p
 11
0
 21
0
 31
0
100
AcDbAttributeDefinition
  3
Produkt (-)
  2
$TAG160010
 70
     0
  0
ATTDEF
  5
288
330
27D
100
AcDbEntity
  8
0
370
    25
100
AcDbText
 10
77.70180417633057
 20
193.9499969482422
 30
0
 40
2.449996948242188
  1
37.4
 41
0.9
  7
Caddy_Vectorfont1p
 72
     2
 11
95.00000762939453
 21
193.9499969482422
 31
0
100
AcDbAttributeDefinition
  3
Side/strømvej reference
  2
$TAG160500
 70
     0
  0
ATTDEF
  5
28A
330
27D
100
AcDbEntity
  8
0
370
    25
100
AcDbText
 10
101.5999908447266
 20
202.9000091552734
 30
0
 40
2.449996948242188
  1
=
 41
0.9
  7
Caddy_Vectorfont1p
 11
0
 21
0
 31
0
100
AcDbAttributeDefinition
  3
Funktion (=)
  2
$TAG140020
 70
     0
  0
ATTDEF
  5
28C
330
27D
100
AcDbEntity
  8
0
370
    25
100
AcDbText
 10
101.5999908447266
 20
199.4000091552734
 30
0
 40
2.449996948242188
  1
+
 41
0.9
  7
Caddy_Vectorfont1p
 11
0
 21
0
 31
0
100
AcDbAttributeDefinition
  3
Placering (+)
  2
$TAG140050
 70
     0
  0
ENDBLK
  5
27F
330
27D
100
AcDbEntity
  8
0
100
AcDbBlockEnd
  0
BLOCK
  5
294
330
293
100
AcDbEntity
  8
0
100
AcDbBlockBegin
  2
Blk14
 70
     2
 10
0
 20
0
 30
0
  3
Blk14
  1

  0
LINE
  5
297
330
293
100
AcDbEntity
  8
0
  6
Caddy_Solid
370
    25
100
AcDbLine
 10
30
 20
260
 30
0
 11
27.75
 21
261.25
 31
0
  0
LINE
  5
298
330
293
100
AcDbEntity
  8
0
  6
Caddy_Solid
370
    25
100
AcDbLine
 10
30
 20
260
 30
0
 11
27.75
 21
258.75
 31
0
  0
ATTDEF
  5
29B
330
293
100
AcDbEntity
  8
0
370
    25
100
AcDbText
 10
31.76500701904297
 20
260.9000244140625
 30
0
 40
2.449981689453125
  1
3L1
 41
0.9
  7
Caddy_Vectorfont1p
 11
0
 21
0
 31
0
100
AcDbAttributeDefinition
  3
Produkt (-)
  2
$TAG160010
 70
     0
  0
ATTDEF
  5
29D
330
293
100
AcDbEntity
  8
0
370
    25
100
AcDbText
 10
7.986917480468747
 20
258.9500122070312
 30
0
 40
2.449981689453125
  1
33.2
 41
0.9
  7
Caddy_Vectorfont1p
 72
     2
 11
25.28501319885254
 21
258.9500122070312
 31
0
100
AcDbAttributeDefinition
  3
Side/strømvej reference
  2
$TAG160500
 70
     0
  0
ATTDEF
  5
29F
330
293
100
AcDbEntity
  8
0
370
    25
100
AcDbText
 10
31.76500701904297
 20
267.9000244140625
 30
0
 40
2.449981689453125
  1
=
 41
0.9
  7
Caddy_Vectorfont1p
 11
0
 21
0
 31
0
100
AcDbAttributeDefinition
  3
Funktion (=)
  2
$TAG140020
 70
     0
  0
ATTDEF
  5
2A1
330
293
100
AcDbEntity
  8
0
370
    25
100
AcDbText
 10
31.76500701904297
 20
264.4000244140625
 30
0
 40
2.449981689453125
  1
+
 41
0.9
  7
Caddy_Vectorfont1p
 11
0
 21
0
 31
0
100
AcDbAttributeDefinition
  3
Placering (+)
  2
$TAG140050
 70
     0
  0
ENDBLK
  5
295
330
293
100
AcDbEntity
  8
0
100
AcDbBlockEnd
  0
BLOCK
  5
2A3
330
2A2
100
AcDbEntity
  8
0
100
AcDbBlockBegin
  2
Blk15
 70
     2
 10
0
 20
0
 30
0
  3
Blk15
  1

  0
LINE
  5
2A6
330
2A2
100
AcDbEntity
  8
0
  6
Caddy_Solid
370
    25
100
AcDbLine
 10
115
 20
260
 30
0
 11
112.75
 21
261.25
 31
0
  0
LINE
  5
2A7
330
2A2
100
AcDbEntity
  8
0
  6
Caddy_Solid
370
    25
100
AcDbLine
 10
115
 20
260
 30
0
 11
112.75
 21
258.75
 31
0
  0
ATTDEF
  5
2AA
330
2A2
100
AcDbEntity
  8
0
370
    25
100
AcDbText
 10
93.47861926879882
 20
260.9000244140625
 30
0
 40
2.449981689453125
  1
3L1
 41
0.9
  7
Caddy_Vectorfont1p
 72
     2
 11
110.2850036621094
 21
260.9000244140625
 31
0
100
AcDbAttributeDefinition
  3
Produkt (-)
  2
$TAG160010
 70
     0
  0
ATTDEF
  5
2AC
330
2A2
100
AcDbEntity
  8
0
370
    25
100
AcDbText
 10
115.8650131225586
 20
258.9500122070312
 30
0
 40
2.449981689453125
  1

 41
0.9
  7
Caddy_Vectorfont1p
 11
0
 21
0
 31
0
100
AcDbAttributeDefinition
  3
Side/strømvej reference
  2
$TAG160500
 70
     0
  0
ATTDEF
  5
2AE
330
2A2
100
AcDbEntity
  8
0
370
    25
100
AcDbText
 10
92.74217003173828
 20
267.9000244140625
 30
0
 40
2.449981689453125
  1
=
 41
0.9
  7
Caddy_Vectorfont1p
 72
     2
 11
110.2850189208984
 21
267.9000244140625
 31
0
100
AcDbAttributeDefinition
  3
Funktion (=)
  2
$TAG140020
 70
     0
  0
ATTDEF
  5
2B0
330
2A2
100
AcDbEntity
  8
0
370
    25
100
AcDbText
 10
92.74216240234375
 20
264.4000244140625
 30
0
 40
2.449981689453125
  1
+
 41
0.9
  7
Caddy_Vectorfont1p
 72
     2
 11
110.2850112915039
 21
264.4000244140625
 31
0
100
AcDbAttributeDefinition
  3
Placering (+)
  2
$TAG140050
 70
     0
  0
ENDBLK
  5
2A4
330
2A2
100
AcDbEntity
  8
0
100
AcDbBlockEnd
  0
BLOCK
  5
2B2
330
2B1
100
AcDbEntity
  8
0
100
AcDbBlockBegin
  2
Blk16
 70
     2
 10
0
 20
0
 30
0
  3
Blk16
  1

  0
LINE
  5
2B5
330
2B1
100
AcDbEntity
  8
0
  6
Caddy_Solid
370
    25
100
AcDbLine
 10
30
 20
255
 30
0
 11
27.75
 21
256.25
 31
0
  0
LINE
  5
2B6
330
2B1
100
AcDbEntity
  8
0
  6
Caddy_Solid
370
    25
100
AcDbLine
 10
30
 20
255
 30
0
 11
27.75
 21
253.75
 31
0
  0
ATTDEF
  5
2B9
330
2B1
100
AcDbEntity
  8
0
370
    25
100
AcDbText
 10
31.76500701904297
 20
255.9000091552734
 30
0
 40
2.449996948242188
  1
3L2
 41
0.9
  7
Caddy_Vectorfont1p
 11
0
 21
0
 31
0
100
AcDbAttributeDefinition
  3
Produkt (-)
  2
$TAG160010
 70
     0
  0
ATTDEF
  5
2BB
330
2B1
100
AcDbEntity
  8
0
370
    25
100
AcDbText
 10
7.986809745788577
 20
253.9499969482422
 30
0
 40
2.449996948242188
  1
33.2
 41
0.9
  7
Caddy_Vectorfont1p
 72
     2
 11
25.28501319885254
 21
253.9499969482422
 31
0
100
AcDbAttributeDefinition
  3
Side/strømvej reference
  2
$TAG160500
 70
     0
  0
ATTDEF
  5
2BD
330
2B1
100
AcDbEntity
  8
0
370
    25
100
AcDbText
 10
31.76500701904297
 20
262.9000244140625
 30
0
 40
2.449981689453125
  1
=
 41
0.9
  7
Caddy_Vectorfont1p
 11
0
 21
0
 31
0
100
AcDbAttributeDefinition
  3
Funktion (=)
  2
$TAG140020
 70
     0
  0
ATTDEF
  5
2BF
330
2B1
100
AcDbEntity
  8
0
370
    25
100
AcDbText
 10
31.76500701904297
 20
259.4000244140625
 30
0
 40
2.449981689453125
  1
+
 41
0.9
  7
Caddy_Vectorfont1p
 11
0
 21
0
 31
0
100
AcDbAttributeDefinition
  3
Placering (+)
  2
$TAG140050
 70
     0
  0
ENDBLK
  5
2B3
330
2B1
100
AcDbEntity
  8
0
100
AcDbBlockEnd
  0
BLOCK
  5
2C1
330
2C0
100
AcDbEntity
  8
0
100
AcDbBlockBegin
  2
Blk17
 70
     2
 10
0
 20
0
 30
0
  3
Blk17
  1

  0
LINE
  5
2C4
330
2C0
100
AcDbEntity
  8
0
  6
Caddy_Solid
370
    25
100
AcDbLine
 10
115
 20
255
 30
0
 11
112.75
 21
256.25
 31
0
  0
LINE
  5
2C5
330
2C0
100
AcDbEntity
  8
0
  6
Caddy_Solid
370
    25
100
AcDbLine
 10
115
 20
255
 30
0
 11
112.75
 21
253.75
 31
0
  0
ATTDEF
  5
2C8
330
2C0
100
AcDbEntity
  8
0
370
    25
100
AcDbText
 10
93.47852222595215
 20
255.9000091552734
 30
0
 40
2.449996948242188
  1
3L2
 41
0.9
  7
Caddy_Vectorfont1p
 72
     2
 11
110.2850112915039
 21
255.9000091552734
 31
0
100
AcDbAttributeDefinition
  3
Produkt (-)
  2
$TAG160010
 70
     0
  0
ATTDEF
  5
2CA
330
2C0
100
AcDbEntity
  8
0
370
    25
100
AcDbText
 10
115.8650131225586
 20
253.9499969482422
 30
0
 40
2.449996948242188
  1

 41
0.9
  7
Caddy_Vectorfont1p
 11
0
 21
0
 31
0
100
AcDbAttributeDefinition
  3
Side/strømvej reference
  2
$TAG160500
 70
     0
  0
ATTDEF
  5
2CC
330
2C0
100
AcDbEntity
  8
0
370
    25
100
AcDbText
 10
92.74217003173828
 20
262.9000244140625
 30
0
 40
2.449981689453125
  1
=
 41
0.9
  7
Caddy_Vectorfont1p
 72
     2
 11
110.2850189208984
 21
262.9000244140625
 31
0
100
AcDbAttributeDefinition
  3
Funktion (=)
  2
$TAG140020
 70
     0
  0
ATTDEF
  5
2CE
330
2C0
100
AcDbEntity
  8
0
370
    25
100
AcDbText
 10
92.74216240234375
 20
259.4000244140625
 30
0
 40
2.449981689453125
  1
+
 41
0.9
  7
Caddy_Vectorfont1p
 72
     2
 11
110.2850112915039
 21
259.4000244140625
 31
0
100
AcDbAttributeDefinition
  3
Placering (+)
  2
$TAG140050
 70
     0
  0
ENDBLK
  5
2C2
330
2C0
100
AcDbEntity
  8
0
100
AcDbBlockEnd
  0
BLOCK
  5
2D2
330
2D1
100
AcDbEntity
  8
0
100
AcDbBlockBegin
  2
Blk18
 70
     2
 10
0
 20
0
 30
0
  3
Blk18
  1

  0
LINE
  5
2D5
330
2D1
100
AcDbEntity
  8
0
  6
Caddy_Solid
370
    25
100
AcDbLine
 10
30
 20
250
 30
0
 11
27.75
 21
251.25
 31
0
  0
LINE
  5
2D6
330
2D1
100
AcDbEntity
  8
0
  6
Caddy_Solid
370
    25
100
AcDbLine
 10
30
 20
250
 30
0
 11
27.75
 21
248.75
 31
0
  0
ATTDEF
  5
2D9
330
2D1
100
AcDbEntity
  8
0
370
    25
100
AcDbText
 10
31.76500701904297
 20
250.9000091552734
 30
0
 40
2.449996948242188
  1
3L3
 41
0.9
  7
Caddy_Vectorfont1p
 11
0
 21
0
 31
0
100
AcDbAttributeDefinition
  3
Produkt (-)
  2
$TAG160010
 70
     0
  0
ATTDEF
  5
2DB
330
2D1
100
AcDbEntity
  8
0
370
    25
100
AcDbText
 10
7.986809745788577
 20
248.9499969482422
 30
0
 40
2.449996948242188
  1
33.2
 41
0.9
  7
Caddy_Vectorfont1p
 72
     2
 11
25.28501319885254
 21
248.9499969482422
 31
0
100
AcDbAttributeDefinition
  3
Side/strømvej reference
  2
$TAG160500
 70
     0
  0
ATTDEF
  5
2DD
330
2D1
100
AcDbEntity
  8
0
370
    25
100
AcDbText
 10
31.76500701904297
 20
257.9000244140625
 30
0
 40
2.449981689453125
  1
=
 41
0.9
  7
Caddy_Vectorfont1p
 11
0
 21
0
 31
0
100
AcDbAttributeDefinition
  3
Funktion (=)
  2
$TAG140020
 70
     0
  0
ATTDEF
  5
2DF
330
2D1
100
AcDbEntity
  8
0
370
    25
100
AcDbText
 10
31.76500701904297
 20
254.4000091552734
 30
0
 40
2.449996948242188
  1
+
 41
0.9
  7
Caddy_Vectorfont1p
 11
0
 21
0
 31
0
100
AcDbAttributeDefinition
  3
Placering (+)
  2
$TAG140050
 70
     0
  0
ENDBLK
  5
2D3
330
2D1
100
AcDbEntity
  8
0
100
AcDbBlockEnd
  0
BLOCK
  5
2E1
330
2E0
100
AcDbEntity
  8
0
100
AcDbBlockBegin
  2
Blk19
 70
     2
 10
0
 20
0
 30
0
  3
Blk19
  1

  0
LINE
  5
2E4
330
2E0
100
AcDbEntity
  8
0
  6
Caddy_Solid
370
    25
100
AcDbLine
 10
115
 20
250
 30
0
 11
112.75
 21
251.25
 31
0
  0
LINE
  5
2E5
330
2E0
100
AcDbEntity
  8
0
  6
Caddy_Solid
370
    25
100
AcDbLine
 10
115
 20
250
 30
0
 11
112.75
 21
248.75
 31
0
  0
ATTDEF
  5
2E8
330
2E0
100
AcDbEntity
  8
0
370
    25
100
AcDbText
 10
93.47852222595215
 20
250.9000091552734
 30
0
 40
2.449996948242188
  1
3L3
 41
0.9
  7
Caddy_Vectorfont1p
 72
     2
 11
110.2850112915039
 21
250.9000091552734
 31
0
100
AcDbAttributeDefinition
  3
Produkt (-)
  2
$TAG160010
 70
     0
  0
ATTDEF
  5
2EA
330
2E0
100
AcDbEntity
  8
0
370
    25
100
AcDbText
 10
115.8650131225586
 20
248.9499969482422
 30
0
 40
2.449996948242188
  1

 41
0.9
  7
Caddy_Vectorfont1p
 11
0
 21
0
 31
0
100
AcDbAttributeDefinition
  3
Side/strømvej reference
  2
$TAG160500
 70
     0
  0
ATTDEF
  5
2EC
330
2E0
100
AcDbEntity
  8
0
370
    25
100
AcDbText
 10
92.74217003173828
 20
257.9000244140625
 30
0
 40
2.449981689453125
  1
=
 41
0.9
  7
Caddy_Vectorfont1p
 72
     2
 11
110.2850189208984
 21
257.9000244140625
 31
0
100
AcDbAttributeDefinition
  3
Funktion (=)
  2
$TAG140020
 70
     0
  0
ATTDEF
  5
2EE
330
2E0
100
AcDbEntity
  8
0
370
    25
100
AcDbText
 10
92.74205314331056
 20
254.4000091552734
 30
0
 40
2.449996948242188
  1
+
 41
0.9
  7
Caddy_Vectorfont1p
 72
     2
 11
110.2850112915039
 21
254.4000091552734
 31
0
100
AcDbAttributeDefinition
  3
Placering (+)
  2
$TAG140050
 70
     0
  0
ENDBLK
  5
2E2
330
2E0
100
AcDbEntity
  8
0
100
AcDbBlockEnd
  0
BLOCK
  5
300
330
2FF
100
AcDbEntity
  8
0
100
AcDbBlockBegin
  2
Blk20
 70
     2
 10
0
 20
0
 30
0
  3
Blk20
  1

  0
CIRCLE
  5
303
330
2FF
100
AcDbEntity
  8
0
  6
Caddy_Solid
370
    25
100
AcDbCircle
 10
70
 20
137.5
 30
0
 40
0.75
  0
LINE
  5
304
330
2FF
100
AcDbEntity
  8
0
  6
Caddy_Solid
370
    25
100
AcDbLine
 10
70
 20
138.25
 30
0
 11
70
 21
140
 31
0
  0
LINE
  5
305
330
2FF
100
AcDbEntity
  8
0
  6
Caddy_Solid
370
    25
100
AcDbLine
 10
70
 20
135
 30
0
 11
70
 21
136.75
 31
0
  0
ATTDEF
  5
308
330
2FF
100
AcDbEntity
  8
2
370
    25
100
AcDbText
 10
48.24350635681152
 20
136.3000030517578
 30
0
 40
2.449996948242188
  1
-X20
 41
0.9
  7
Caddy_Vectorfont1p
 72
     2
 11
65.04999542236328
 21
136.3000030517578
 31
0
100
AcDbAttributeDefinition
  3
Produkt (-)
  2
$TAG160010
 70
     0
  0
ATTDEF
  5
30A
330
2FF
100
AcDbEntity
  8
2
370
    25
100
AcDbText
 10
69.09999084472656
 20
139.1999969482422
 30
0
 40
2.449996948242188
  1
8V2
 50
90
 41
0.9
  7
Caddy_Vectorfont1p
 11
0
 21
0
 31
0
100
AcDbAttributeDefinition
  3
Klemmenummer
  2
$TAG160400
 70
     0
  0
ATTDEF
  5
30C
330
2FF
100
AcDbEntity
  8
0
370
    25
100
AcDbText
 10
72.59999084472656
 20
139.1999969482422
 30
0
 40
2.449996948242188
  1
2
 50
90
 41
0.9
  7
Caddy_Vectorfont1p
 11
0
 21
0
 31
0
100
AcDbAttributeDefinition
  3
Sorteringsindeks
  2
$TAG160410
 70
     0
  0
ATTDEF
  5
30E
330
2FF
100
AcDbEntity
  8
2
370
    25
100
AcDbText
 10
47.75179196929932
 20
132.8000030517578
 30
0
 40
2.449996948242188
  1

 41
0.9
  7
Caddy_Vectorfont1p
 72
     2
 11
65.04999542236328
 21
132.8000030517578
 31
0
100
AcDbAttributeDefinition
  3
Beskrivelse 00
  2
$TAG160030
 70
     0
  0
ATTDEF
  5
310
330
2FF
100
AcDbEntity
  8
2
370
    25
100
AcDbText
 10
47.50703727416992
 20
127.8000030517578
 30
0
 40
2.449996948242188
  1
AB1RR235U2GR
 41
0.9
  7
Caddy_Vectorfont1p
 72
     2
 11
65.04999542236328
 21
127.8000030517578
 31
0
100
AcDbAttributeDefinition
  3
Type
  2
$TAG160040
 70
     0
  0
ATTDEF
  5
312
330
2FF
100
AcDbEntity
  8
2
370
    25
100
AcDbText
 10
47.50704490356446
 20
143.3000030517578
 30
0
 40
2.449996948242188
  1
=
 41
0.9
  7
Caddy_Vectorfont1p
 72
     2
 11
65.05000305175781
 21
143.3000030517578
 31
0
100
AcDbAttributeDefinition
  3
Funktion (=)
  2
$TAG140020
 70
     0
  0
ATTDEF
  5
314
330
2FF
100
AcDbEntity
  8
2
370
    25
100
AcDbText
 10
47.50704490356446
 20
139.8000030517578
 30
0
 40
2.449996948242188
  1
+
 41
0.9
  7
Caddy_Vectorfont1p
 72
     2
 11
65.05000305175781
 21
139.8000030517578
 31
0
100
AcDbAttributeDefinition
  3
Placering (+)
  2
$TAG140050
 70
     0
  0
ENDBLK
  5
301
330
2FF
100
AcDbEntity
  8
0
100
AcDbBlockEnd
  0
BLOCK
  5
316
330
315
100
AcDbEntity
  8
0
100
AcDbBlockBegin
  2
Blk21
 70
     2
 10
0
 20
0
 30
0
  3
Blk21
  1

  0
CIRCLE
  5
319
330
315
100
AcDbEntity
  8
0
  6
Caddy_Solid
370
    25
100
AcDbCircle
 10
75
 20
137.5
 30
0
 40
0.75
  0
LINE
  5
31A
330
315
100
AcDbEntity
  8
0
  6
Caddy_Solid
370
    25
100
AcDbLine
 10
75
 20
138.25
 30
0
 11
75
 21
140
 31
0
  0
LINE
  5
31B
330
315
100
AcDbEntity
  8
0
  6
Caddy_Solid
370
    25
100
AcDbLine
 10
75
 20
135
 30
0
 11
75
 21
136.75
 31
0
  0
ATTDEF
  5
31E
330
315
100
AcDbEntity
  8
2
370
    25
100
AcDbText
 10
53.24351398620605
 20
136.3000030517578
 30
0
 40
2.449996948242188
  1
-X20
 41
0.9
  7
Caddy_Vectorfont1p
 72
     2
 11
70.05000305175781
 21
136.3000030517578
 31
0
100
AcDbAttributeDefinition
  3
Produkt (-)
  2
$TAG160010
 70
     0
  0
ATTDEF
  5
320
330
315
100
AcDbEntity
  8
2
370
    25
100
AcDbText
 10
74.09999084472656
 20
139.1999969482422
 30
0
 40
2.449996948242188
  1
8W2
 50
90
 41
0.9
  7
Caddy_Vectorfont1p
 11
0
 21
0
 31
0
100
AcDbAttributeDefinition
  3
Klemmenummer
  2
$TAG160400
 70
     0
  0
ATTDEF
  5
322
330
315
100
AcDbEntity
  8
0
370
    25
100
AcDbText
 10
77.59999084472656
 20
139.1999969482422
 30
0
 40
2.449996948242188
  1
3
 50
90
 41
0.9
  7
Caddy_Vectorfont1p
 11
0
 21
0
 31
0
100
AcDbAttributeDefinition
  3
Sorteringsindeks
  2
$TAG160410
 70
     0
  0
ATTDEF
  5
324
330
315
100
AcDbEntity
  8
2
370
    25
100
AcDbText
 10
52.75179196929932
 20
132.8000030517578
 30
0
 40
2.449996948242188
  1

 41
0.9
  7
Caddy_Vectorfont1p
 72
     2
 11
70.04999542236328
 21
132.8000030517578
 31
0
100
AcDbAttributeDefinition
  3
Beskrivelse 00
  2
$TAG160030
 70
     0
  0
ATTDEF
  5
326
330
315
100
AcDbEntity
  8
2
370
    25
100
AcDbText
 10
52.50704490356446
 20
127.8000030517578
 30
0
 40
2.449996948242188
  1
AB1RR235U2GR
 41
0.9
  7
Caddy_Vectorfont1p
 72
     2
 11
70.05000305175781
 21
127.8000030517578
 31
0
100
AcDbAttributeDefinition
  3
Type
  2
$TAG160040
 70
     0
  0
ATTDEF
  5
328
330
315
100
AcDbEntity
  8
2
370
    25
100
AcDbText
 10
52.50704490356446
 20
143.3000030517578
 30
0
 40
2.449996948242188
  1
=
 41
0.9
  7
Caddy_Vectorfont1p
 72
     2
 11
70.05000305175781
 21
143.3000030517578
 31
0
100
AcDbAttributeDefinition
  3
Funktion (=)
  2
$TAG140020
 70
     0
  0
ATTDEF
  5
32A
330
315
100
AcDbEntity
  8
2
370
    25
100
AcDbText
 10
52.50703727416992
 20
139.8000030517578
 30
0
 40
2.449996948242188
  1
+
 41
0.9
  7
Caddy_Vectorfont1p
 72
     2
 11
70.04999542236328
 21
139.8000030517578
 31
0
100
AcDbAttributeDefinition
  3
Placering (+)
  2
$TAG140050
 70
     0
  0
ENDBLK
  5
317
330
315
100
AcDbEntity
  8
0
100
AcDbBlockEnd
  0
BLOCK
  5
32C
330
32B
100
AcDbEntity
  8
0
100
AcDbBlockBegin
  2
Blk22
 70
     2
 10
0
 20
0
 30
0
  3
Blk22
  1

  0
CIRCLE
  5
32F
330
32B
100
AcDbEntity
  8
0
  6
Caddy_Solid
370
    25
100
AcDbCircle
 10
65
 20
137.5
 30
0
 40
0.75
  0
LINE
  5
330
330
32B
100
AcDbEntity
  8
0
  6
Caddy_Solid
370
    25
100
AcDbLine
 10
65
 20
138.25
 30
0
 11
65
 21
140
 31
0
  0
LINE
  5
331
330
32B
100
AcDbEntity
  8
0
  6
Caddy_Solid
370
    25
100
AcDbLine
 10
65
 20
135
 30
0
 11
65
 21
136.75
 31
0
  0
ATTDEF
  5
334
330
32B
100
AcDbEntity
  8
2
370
    25
100
AcDbText
 10
43.24351017150879
 20
136.3000030517578
 30
0
 40
2.449996948242188
  1
X36
 41
0.9
  7
Caddy_Vectorfont1p
 72
     2
 11
60.04999923706055
 21
136.3000030517578
 31
0
100
AcDbAttributeDefinition
  3
Produkt (-)
  2
$TAG160010
 70
     0
  0
ATTDEF
  5
336
330
32B
100
AcDbEntity
  8
2
370
    25
100
AcDbText
 10
64.09999084472656
 20
139.1999969482422
 30
0
 40
2.449996948242188
  1
8U2
 50
90
 41
0.9
  7
Caddy_Vectorfont1p
 11
0
 21
0
 31
0
100
AcDbAttributeDefinition
  3
Klemmenummer
  2
$TAG160400
 70
     0
  0
ATTDEF
  5
338
330
32B
100
AcDbEntity
  8
0
370
    25
100
AcDbText
 10
67.59999084472656
 20
139.1999969482422
 30
0
 40
2.449996948242188
  1
1
 50
90
 41
0.9
  7
Caddy_Vectorfont1p
 11
0
 21
0
 31
0
100
AcDbAttributeDefinition
  3
Sorteringsindeks
  2
$TAG160410
 70
     0
  0
ATTDEF
  5
33A
330
32B
100
AcDbEntity
  8
2
370
    25
100
AcDbText
 10
42.75179578399658
 20
132.8000030517578
 30
0
 40
2.449996948242188
  1

 41
0.9
  7
Caddy_Vectorfont1p
 72
     2
 11
60.04999923706055
 21
132.8000030517578
 31
0
100
AcDbAttributeDefinition
  3
Beskrivelse 00
  2
$TAG160030
 70
     0
  0
ATTDEF
  5
33C
330
32B
100
AcDbEntity
  8
2
370
    25
100
AcDbText
 10
42.50703727416992
 20
127.8000030517578
 30
0
 40
2.449996948242188
  1
AB1RR235U2GR
 41
0.9
  7
Caddy_Vectorfont1p
 72
     2
 11
60.04999542236328
 21
127.8000030517578
 31
0
100
AcDbAttributeDefinition
  3
Type
  2
$TAG160040
 70
     0
  0
ATTDEF
  5
33E
330
32B
100
AcDbEntity
  8
2
370
    25
100
AcDbText
 10
42.50704108886719
 20
143.3000030517578
 30
0
 40
2.449996948242188
  1
=
 41
0.9
  7
Caddy_Vectorfont1p
 72
     2
 11
60.04999923706055
 21
143.3000030517578
 31
0
100
AcDbAttributeDefinition
  3
Funktion (=)
  2
$TAG140020
 70
     0
  0
ATTDEF
  5
340
330
32B
100
AcDbEntity
  8
2
370
    25
100
AcDbText
 10
42.50704490356446
 20
139.8000030517578
 30
0
 40
2.449996948242188
  1
+
 41
0.9
  7
Caddy_Vectorfont1p
 72
     2
 11
60.05000305175781
 21
139.8000030517578
 31
0
100
AcDbAttributeDefinition
  3
Placering (+)
  2
$TAG140050
 70
     0
  0
ENDBLK
  5
32D
330
32B
100
AcDbEntity
  8
0
100
AcDbBlockEnd
  0
BLOCK
  5
342
330
341
100
AcDbEntity
  8
0
100
AcDbBlockBegin
  2
Blk23
 70
     2
 10
0
 20
0
 30
0
  3
Blk23
  1

  0
CIRCLE
  5
345
330
341
100
AcDbEntity
  8
0
  6
Caddy_Solid
370
    25
100
AcDbCircle
 10
80
 20
137.5
 30
0
 40
0.75
  0
LINE
  5
346
330
341
100
AcDbEntity
  8
0
  6
Caddy_Solid
370
    25
100
AcDbLine
 10
80
 20
138.25
 30
0
 11
80
 21
140
 31
0
  0
LINE
  5
347
330
341
100
AcDbEntity
  8
0
  6
Caddy_Solid
370
    25
100
AcDbLine
 10
80
 20
135
 30
0
 11
80
 21
136.75
 31
0
  0
ATTDEF
  5
34A
330
341
100
AcDbEntity
  8
2
370
    25
100
AcDbText
 10
58.24350635681152
 20
136.3000030517578
 30
0
 40
2.449996948242188
  1
-X20
 41
0.9
  7
Caddy_Vectorfont1p
 72
     2
 11
75.04999542236328
 21
136.3000030517578
 31
0
100
AcDbAttributeDefinition
  3
Produkt (-)
  2
$TAG160010
 70
     0
  0
ATTDEF
  5
34C
330
341
100
AcDbEntity
  8
2
370
    25
100
AcDbText
 10
79.09999084472656
 20
139.1999969482422
 30
0
 40
2.449996948242188
  1
PE
 50
90
 41
0.9
  7
Caddy_Vectorfont1p
 11
0
 21
0
 31
0
100
AcDbAttributeDefinition
  3
Klemmenummer
  2
$TAG160400
 70
     0
  0
ATTDEF
  5
34E
330
341
100
AcDbEntity
  8
0
370
    25
100
AcDbText
 10
82.59999084472656
 20
139.1999969482422
 30
0
 40
2.449996948242188
  1
5
 50
90
 41
0.9
  7
Caddy_Vectorfont1p
 11
0
 21
0
 31
0
100
AcDbAttributeDefinition
  3
Sorteringsindeks
  2
$TAG160410
 70
     0
  0
ATTDEF
  5
350
330
341
100
AcDbEntity
  8
2
370
    25
100
AcDbText
 10
57.75179196929932
 20
132.8000030517578
 30
0
 40
2.449996948242188
  1

 41
0.9
  7
Caddy_Vectorfont1p
 72
     2
 11
75.04999542236328
 21
132.8000030517578
 31
0
100
AcDbAttributeDefinition
  3
Beskrivelse 00
  2
$TAG160030
 70
     0
  0
ATTDEF
  5
352
330
341
100
AcDbEntity
  8
2
370
    25
100
AcDbText
 10
57.50705253295899
 20
127.8000030517578
 30
0
 40
2.449996948242188
  1
AB1RRTP235U2
 41
0.9
  7
Caddy_Vectorfont1p
 72
     2
 11
75.05001068115234
 21
127.8000030517578
 31
0
100
AcDbAttributeDefinition
  3
Type
  2
$TAG160040
 70
     0
  0
ATTDEF
  5
354
330
341
100
AcDbEntity
  8
2
370
    25
100
AcDbText
 10
57.50704490356446
 20
143.3000030517578
 30
0
 40
2.449996948242188
  1
=
 41
0.9
  7
Caddy_Vectorfont1p
 72
     2
 11
75.05000305175781
 21
143.3000030517578
 31
0
100
AcDbAttributeDefinition
  3
Funktion (=)
  2
$TAG140020
 70
     0
  0
ATTDEF
  5
356
330
341
100
AcDbEntity
  8
2
370
    25
100
AcDbText
 10
57.50703727416992
 20
139.8000030517578
 30
0
 40
2.449996948242188
  1
+
 41
0.9
  7
Caddy_Vectorfont1p
 72
     2
 11
75.04999542236328
 21
139.8000030517578
 31
0
100
AcDbAttributeDefinition
  3
Placering (+)
  2
$TAG140050
 70
     0
  0
ENDBLK
  5
343
330
341
100
AcDbEntity
  8
0
100
AcDbBlockEnd
  0
BLOCK
  5
35E
330
35D
100
AcDbEntity
  8
0
100
AcDbBlockBegin
  2
Blk24
 70
     2
 10
0
 20
0
 30
0
  3
Blk24
  1

  0
ATTDEF
  5
363
330
35D
100
AcDbEntity
  8
0
370
    25
100
AcDbText
 10
90.69999694824219
 20
130.6999969482422
 30
0
 40
2.449996948242188
  1
W3601
 41
0.9
  7
Caddy_Vectorfont1p
 11
0
 21
0
 31
0
100
AcDbAttributeDefinition
  3
Produkt (-)
  2
$TAG160010
 70
     0
  0
ATTDEF
  5
365
330
35D
100
AcDbEntity
  8
0
370
    25
100
AcDbText
 10
90.69999694824219
 20
125.6999969482422
 30
0
 40
2.449996948242188
  1

 41
0.9
  7
Caddy_Vectorfont1p
 11
0
 21
0
 31
0
100
AcDbAttributeDefinition
  3
Beskrivelse 00
  2
$TAG160030
 70
     0
  0
ATTDEF
  5
367
330
35D
100
AcDbEntity
  8
0
370
    25
100
AcDbText
 10
90.69999694824219
 20
120.6999969482422
 30
0
 40
2.450004577636719
  1

 41
0.9
  7
Caddy_Vectorfont1p
 11
0
 21
0
 31
0
100
AcDbAttributeDefinition
  3
Kabeldimension
  2
$TAG160200
 70
     0
  0
ATTDEF
  5
369
330
35D
100
AcDbEntity
  8
0
370
    25
100
AcDbText
 10
90.69999694824219
 20
115.6999969482422
 30
0
 40
2.450004577636719
  1

 41
0.9
  7
Caddy_Vectorfont1p
 11
0
 21
0
 31
0
100
AcDbAttributeDefinition
  3
Type
  2
$TAG160040
 70
     0
  0
ATTDEF
  5
36B
330
35D
100
AcDbEntity
  8
0
370
    25
100
AcDbText
 10
90.69999694824219
 20
110.6999969482422
 30
0
 40
2.450004577636719
  1

 41
0.9
  7
Caddy_Vectorfont1p
 11
0
 21
0
 31
0
100
AcDbAttributeDefinition
  3
Længde
  2
$TAG160101
 70
     0
  0
ATTDEF
  5
36D
330
35D
100
AcDbEntity
  8
0
370
    25
100
AcDbText
 10
65.69999694824219
 20
130.6999969482422
 30
0
 40
2.449996948242188
  1
1
 41
0.9
  7
Caddy_Vectorfont1p
 11
0
 21
0
 31
0
100
AcDbAttributeDefinition
  3
Kabelkorenummer
  2
$TAG160210
 70
     0
  0
ATTDEF
  5
36F
330
35D
100
AcDbEntity
  8
0
370
    25
100
AcDbText
 10
65.69999694824219
 20
125.6999969482422
 30
0
 40
2.449996948242188
  1

 41
0.9
  7
Caddy_Vectorfont1p
 11
0
 21
0
 31
0
100
AcDbAttributeDefinition
  3
Kabelkorefarve
  2
$TAG160220
 70
     0
  0
ATTDEF
  5
371
330
35D
100
AcDbEntity
  8
0
370
    25
100
AcDbText
 10
65.69999694824219
 20
120.6999969482422
 30
0
 40
2.450004577636719
  1

 41
0.9
  7
Caddy_Vectorfont1p
 11
0
 21
0
 31
0
100
AcDbAttributeDefinition
  3
Kabelkoretværsnit
  2
$TAG160230
 70
     0
  0
LINE
  5
372
330
35D
100
AcDbEntity
  8
0
  6
Caddy_Solid
370
    25
100
AcDbLine
 10
65
 20
130.5
 30
0
 11
65
 21
129.5
 31
0
  0
ENDBLK
  5
35F
330
35D
100
AcDbEntity
  8
0
100
AcDbBlockEnd
  0
BLOCK
  5
374
330
373
100
AcDbEntity
  8
0
100
AcDbBlockBegin
  2
Blk25
 70
     2
 10
0
 20
0
 30
0
  3
Blk25
  1

  0
ATTDEF
  5
379
330
373
100
AcDbEntity
  8
0
370
    25
100
AcDbText
 10
90.69999694824219
 20
130.6999969482422
 30
0
 40
2.449996948242188
  1
W3601
 41
0.9
  7
Caddy_Vectorfont1p
 11
0
 21
0
 31
0
100
AcDbAttributeDefinition
  3
Produkt (-)
  2
$TAG160010
 70
     0
  0
ATTDEF
  5
37B
330
373
100
AcDbEntity
  8
0
370
    25
100
AcDbText
 10
90.69999694824219
 20
125.6999969482422
 30
0
 40
2.449996948242188
  1

 41
0.9
  7
Caddy_Vectorfont1p
 11
0
 21
0
 31
0
100
AcDbAttributeDefinition
  3
Beskrivelse 00
  2
$TAG160030
 70
     0
  0
ATTDEF
  5
37D
330
373
100
AcDbEntity
  8
0
370
    25
100
AcDbText
 10
90.69999694824219
 20
120.6999969482422
 30
0
 40
2.450004577636719
  1

 41
0.9
  7
Caddy_Vectorfont1p
 11
0
 21
0
 31
0
100
AcDbAttributeDefinition
  3
Kabeldimension
  2
$TAG160200
 70
     0
  0
ATTDEF
  5
37F
330
373
100
AcDbEntity
  8
0
370
    25
100
AcDbText
 10
90.69999694824219
 20
115.6999969482422
 30
0
 40
2.450004577636719
  1

 41
0.9
  7
Caddy_Vectorfont1p
 11
0
 21
0
 31
0
100
AcDbAttributeDefinition
  3
Type
  2
$TAG160040
 70
     0
  0
ATTDEF
  5
381
330
373
100
AcDbEntity
  8
0
370
    25
100
AcDbText
 10
90.69999694824219
 20
110.6999969482422
 30
0
 40
2.450004577636719
  1

 41
0.9
  7
Caddy_Vectorfont1p
 11
0
 21
0
 31
0
100
AcDbAttributeDefinition
  3
Længde
  2
$TAG160101
 70
     0
  0
ATTDEF
  5
383
330
373
100
AcDbEntity
  8
0
370
    25
100
AcDbText
 10
70.69999694824219
 20
130.6999969482422
 30
0
 40
2.449996948242188
  1
2
 41
0.9
  7
Caddy_Vectorfont1p
 11
0
 21
0
 31
0
100
AcDbAttributeDefinition
  3
Kabelkorenummer
  2
$TAG160210
 70
     0
  0
ATTDEF
  5
385
330
373
100
AcDbEntity
  8
0
370
    25
100
AcDbText
 10
70.69999694824219
 20
125.6999969482422
 30
0
 40
2.449996948242188
  1

 41
0.9
  7
Caddy_Vectorfont1p
 11
0
 21
0
 31
0
100
AcDbAttributeDefinition
  3
Kabelkorefarve
  2
$TAG160220
 70
     0
  0
ATTDEF
  5
387
330
373
100
AcDbEntity
  8
0
370
    25
100
AcDbText
 10
70.69999694824219
 20
120.6999969482422
 30
0
 40
2.450004577636719
  1

 41
0.9
  7
Caddy_Vectorfont1p
 11
0
 21
0
 31
0
100
AcDbAttributeDefinition
  3
Kabelkoretværsnit
  2
$TAG160230
 70
     0
  0
LINE
  5
388
330
373
100
AcDbEntity
  8
0
  6
Caddy_Solid
370
    25
100
AcDbLine
 10
70
 20
130.5
 30
0
 11
70
 21
129.5
 31
0
  0
ENDBLK
  5
375
330
373
100
AcDbEntity
  8
0
100
AcDbBlockEnd
  0
BLOCK
  5
38A
330
389
100
AcDbEntity
  8
0
100
AcDbBlockBegin
  2
Blk26
 70
     2
 10
0
 20
0
 30
0
  3
Blk26
  1

  0
ATTDEF
  5
38F
330
389
100
AcDbEntity
  8
0
370
    25
100
AcDbText
 10
90.69999694824219
 20
130.6999969482422
 30
0
 40
2.449996948242188
  1
W3601
 41
0.9
  7
Caddy_Vectorfont1p
 11
0
 21
0
 31
0
100
AcDbAttributeDefinition
  3
Produkt (-)
  2
$TAG160010
 70
     0
  0
ATTDEF
  5
391
330
389
100
AcDbEntity
  8
0
370
    25
100
AcDbText
 10
90.69999694824219
 20
125.6999969482422
 30
0
 40
2.449996948242188
  1

 41
0.9
  7
Caddy_Vectorfont1p
 11
0
 21
0
 31
0
100
AcDbAttributeDefinition
  3
Beskrivelse 00
  2
$TAG160030
 70
     0
  0
ATTDEF
  5
393
330
389
100
AcDbEntity
  8
0
370
    25
100
AcDbText
 10
90.69999694824219
 20
120.6999969482422
 30
0
 40
2.450004577636719
  1

 41
0.9
  7
Caddy_Vectorfont1p
 11
0
 21
0
 31
0
100
AcDbAttributeDefinition
  3
Kabeldimension
  2
$TAG160200
 70
     0
  0
ATTDEF
  5
395
330
389
100
AcDbEntity
  8
0
370
    25
100
AcDbText
 10
90.69999694824219
 20
115.6999969482422
 30
0
 40
2.450004577636719
  1

 41
0.9
  7
Caddy_Vectorfont1p
 11
0
 21
0
 31
0
100
AcDbAttributeDefinition
  3
Type
  2
$TAG160040
 70
     0
  0
ATTDEF
  5
397
330
389
100
AcDbEntity
  8
0
370
    25
100
AcDbText
 10
90.69999694824219
 20
110.6999969482422
 30
0
 40
2.450004577636719
  1

 41
0.9
  7
Caddy_Vectorfont1p
 11
0
 21
0
 31
0
100
AcDbAttributeDefinition
  3
Længde
  2
$TAG160101
 70
     0
  0
ATTDEF
  5
399
330
389
100
AcDbEntity
  8
0
370
    25
100
AcDbText
 10
75.69999694824219
 20
130.6999969482422
 30
0
 40
2.449996948242188
  1
3
 41
0.9
  7
Caddy_Vectorfont1p
 11
0
 21
0
 31
0
100
AcDbAttributeDefinition
  3
Kabelkorenummer
  2
$TAG160210
 70
     0
  0
ATTDEF
  5
39B
330
389
100
AcDbEntity
  8
0
370
    25
100
AcDbText
 10
75.69999694824219
 20
125.6999969482422
 30
0
 40
2.449996948242188
  1

 41
0.9
  7
Caddy_Vectorfont1p
 11
0
 21
0
 31
0
100
AcDbAttributeDefinition
  3
Kabelkorefarve
  2
$TAG160220
 70
     0
  0
ATTDEF
  5
39D
330
389
100
AcDbEntity
  8
0
370
    25
100
AcDbText
 10
75.69999694824219
 20
120.6999969482422
 30
0
 40
2.450004577636719
  1

 41
0.9
  7
Caddy_Vectorfont1p
 11
0
 21
0
 31
0
100
AcDbAttributeDefinition
  3
Kabelkoretværsnit
  2
$TAG160230
 70
     0
  0
LINE
  5
39E
330
389
100
AcDbEntity
  8
0
  6
Caddy_Solid
370
    25
100
AcDbLine
 10
75
 20
130.5
 30
0
 11
75
 21
129.5
 31
0
  0
ENDBLK
  5
38B
330
389
100
AcDbEntity
  8
0
100
AcDbBlockEnd
  0
BLOCK
  5
3A0
330
39F
100
AcDbEntity
  8
0
100
AcDbBlockBegin
  2
Blk27
 70
     2
 10
0
 20
0
 30
0
  3
Blk27
  1

  0
ATTDEF
  5
3A5
330
39F
100
AcDbEntity
  8
0
370
    25
100
AcDbText
 10
90.69999694824219
 20
130.6999969482422
 30
0
 40
2.449996948242188
  1
W3601
 41
0.9
  7
Caddy_Vectorfont1p
 11
0
 21
0
 31
0
100
AcDbAttributeDefinition
  3
Produkt (-)
  2
$TAG160010
 70
     0
  0
ATTDEF
  5
3A7
330
39F
100
AcDbEntity
  8
0
370
    25
100
AcDbText
 10
90.69999694824219
 20
125.6999969482422
 30
0
 40
2.449996948242188
  1

 41
0.9
  7
Caddy_Vectorfont1p
 11
0
 21
0
 31
0
100
AcDbAttributeDefinition
  3
Beskrivelse 00
  2
$TAG160030
 70
     0
  0
ATTDEF
  5
3A9
330
39F
100
AcDbEntity
  8
0
370
    25
100
AcDbText
 10
90.69999694824219
 20
120.6999969482422
 30
0
 40
2.450004577636719
  1

 41
0.9
  7
Caddy_Vectorfont1p
 11
0
 21
0
 31
0
100
AcDbAttributeDefinition
  3
Kabeldimension
  2
$TAG160200
 70
     0
  0
ATTDEF
  5
3AB
330
39F
100
AcDbEntity
  8
0
370
    25
100
AcDbText
 10
90.69999694824219
 20
115.6999969482422
 30
0
 40
2.450004577636719
  1

 41
0.9
  7
Caddy_Vectorfont1p
 11
0
 21
0
 31
0
100
AcDbAttributeDefinition
  3
Type
  2
$TAG160040
 70
     0
  0
ATTDEF
  5
3AD
330
39F
100
AcDbEntity
  8
0
370
    25
100
AcDbText
 10
90.69999694824219
 20
110.6999969482422
 30
0
 40
2.450004577636719
  1

 41
0.9
  7
Caddy_Vectorfont1p
 11
0
 21
0
 31
0
100
AcDbAttributeDefinition
  3
Længde
  2
$TAG160101
 70
     0
  0
ATTDEF
  5
3AF
330
39F
100
AcDbEntity
  8
0
370
    25
100
AcDbText
 10
80.69999694824219
 20
130.6999969482422
 30
0
 40
2.449996948242188
  1
PE
 41
0.9
  7
Caddy_Vectorfont1p
 11
0
 21
0
 31
0
100
AcDbAttributeDefinition
  3
Kabelkorenummer
  2
$TAG160210
 70
     0
  0
ATTDEF
  5
3B1
330
39F
100
AcDbEntity
  8
0
370
    25
100
AcDbText
 10
80.69999694824219
 20
125.6999969482422
 30
0
 40
2.449996948242188
  1

 41
0.9
  7
Caddy_Vectorfont1p
 11
0
 21
0
 31
0
100
AcDbAttributeDefinition
  3
Kabelkorefarve
  2
$TAG160220
 70
     0
  0
ATTDEF
  5
3B3
330
39F
100
AcDbEntity
  8
0
370
    25
100
AcDbText
 10
80.69999694824219
 20
120.6999969482422
 30
0
 40
2.450004577636719
  1

 41
0.9
  7
Caddy_Vectorfont1p
 11
0
 21
0
 31
0
100
AcDbAttributeDefinition
  3
Kabelkoretværsnit
  2
$TAG160230
 70
     0
  0
LINE
  5
3B4
330
39F
100
AcDbEntity
  8
0
  6
Caddy_Solid
370
    25
100
AcDbLine
 10
80
 20
130.5
 30
0
 11
80
 21
129.5
 31
0
  0
ENDBLK
  5
3A1
330
39F
100
AcDbEntity
  8
0
100
AcDbBlockEnd
  0
ENDSEC
  0
SECTION
  2
ENTITIES
  0
INSERT
  5
43
330
1F
100
AcDbEntity
  8
0
100
AcDbBlockReference
  2
Blk1
 10
0
 20
0
 30
1
  0
TEXT
  5
AC
330
1F
100
AcDbEntity
  8
0
370
    25
100
AcDbText
 10
17.04999923706055
 20
259.7000122070312
 30
0
 40
2.449981689453125
  1

 41
0.9
  7
Caddy_Vectorfont1p
 72
     2
 11
17.04999923706055
 21
259.7000122070312
 31
0
100
AcDbText
  0
INSERT
  5
B0
330
1F
100
AcDbEntity
  8
0
100
AcDbBlockReference
 66
     1
  2
Blk2
 10
0
 20
0
 30
1
  0
ATTRIB
  5
B5
330
B0
100
AcDbEntity
  8
2
370
    25
100
AcDbText
 10
58.04249232940674
 20
101.3000030517578
 30
0
 40
2.450004577636719
  1
-X20
 41
0.9
  7
Caddy_Vectorfont1p
 72
     2
 11
65.04999542236328
 21
101.3000030517578
 31
0
100
AcDbAttribute
  2
$TAG160010
 70
     0
  0
SEQEND
  5
B6
330
B0
100
AcDbEntity
  8
0
  0
INSERT
  5
C7
330
1F
100
AcDbEntity
  8
0
100
AcDbBlockReference
 66
     1
  2
Blk3
 10
0
 20
0
 30
1
  0
ATTRIB
  5
CB
330
C7
100
AcDbEntity
  8
2
370
    25
100
AcDbText
 10
63.04249995880127
 20
101.3000030517578
 30
0
 40
2.450004577636719
  1
-X20
 41
0.9
  7
Caddy_Vectorfont1p
 72
     2
 11
70.05000305175781
 21
101.3000030517578
 31
0
100
AcDbAttribute
  2
$TAG160010
 70
     0
  0
SEQEND
  5
CC
330
C7
100
AcDbEntity
  8
0
  0
INSERT
  5
DD
330
1F
100
AcDbEntity
  8
0
100
AcDbBlockReference
 66
     1
  2
Blk4
 10
0
 20
0
 30
1
  0
ATTRIB
  5
E1
330
DD
100
AcDbEntity
  8
2
370
    25
100
AcDbText
 10
54.75798934936523
 20
101.3000030517578
 30
0
 40
2.450004577636719
  1
X36
 41
0.9
  7
Caddy_Vectorfont1p
 72
     2
 11
60.04999923706055
 21
101.3000030517578
 31
0
100
AcDbAttribute
  2
$TAG160010
 70
     0
  0
SEQEND
  5
E2
330
DD
100
AcDbEntity
  8
0
  0
INSERT
  5
F3
330
1F
100
AcDbEntity
  8
0
100
AcDbBlockReference
 66
     1
  2
Blk5
 10
0
 20
0
 30
1
  0
ATTRIB
  5
172
330
F3
100
AcDbEntity
  8
0
370
    25
100
AcDbText
 10
44.75606109008789
 20
213.8000030517578
 30
0
 40
2.449996948242188
  1
F3601
 41
0.9
  7
Caddy_Vectorfont1p
 72
     2
 11
52.5000114440918
 21
213.8000030517578
 31
0
100
AcDbAttribute
  2
$TAG160010
 70
     0
  0
SEQEND
  5
173
330
F3
100
AcDbEntity
  8
0
  0
LINE
  5
189
330
1F
100
AcDbEntity
  8
0
  6
Caddy_Solid
370
    25
100
AcDbLine
 10
65
 20
205
 30
0
 11
65
 21
205
 31
0
  0
LINE
  5
18A
330
1F
100
AcDbEntity
  8
0
  6
Caddy_Solid
370
    25
100
AcDbLine
 10
70
 20
205
 30
0
 11
70
 21
205
 31
0
  0
LINE
  5
18B
330
1F
100
AcDbEntity
  8
0
  6
Caddy_Solid
370
    25
100
AcDbLine
 10
75
 20
205
 30
0
 11
75
 21
205
 31
0
  0
INSERT
  5
18F
330
1F
100
AcDbEntity
  8
0
100
AcDbBlockReference
 66
     1
  2
Blk6
 10
0
 20
0
 30
1
  0
ATTRIB
  5
1A0
330
18F
100
AcDbEntity
  8
0
370
    25
100
AcDbText
 10
50.53943698272705
 20
198.8000030517578
 30
0
 40
2.449996948242188
  1
27F1.2
 41
0.9
  7
Caddy_Vectorfont1p
 72
     2
 11
59.0000114440918
 21
198.8000030517578
 31
0
100
AcDbAttribute
  2
$TAG160010
 70
     0
  0
SEQEND
  5
1A1
330
18F
100
AcDbEntity
  8
0
  0
INSERT
  5
1BC
330
1F
100
AcDbEntity
  8
0
100
AcDbBlockReference
 66
     1
  2
Blk7
 10
0
 20
0
 30
1
  0
ATTRIB
  5
1C0
330
1BC
100
AcDbEntity
  8
2
370
    25
100
AcDbText
 10
68.04249232940674
 20
101.3000030517578
 30
0
 40
2.450004577636719
  1
-X20
 41
0.9
  7
Caddy_Vectorfont1p
 72
     2
 11
75.04999542236328
 21
101.3000030517578
 31
0
100
AcDbAttribute
  2
$TAG160010
 70
     0
  0
SEQEND
  5
1C1
330
1BC
100
AcDbEntity
  8
0
  0
TEXT
  5
1CF
330
1F
100
AcDbEntity
  8
0
370
    25
100
AcDbText
 10
58.84820902729034
 20
45.70000076293945
 30
0
 40
2.450000762939453
  1
På Kasseløfter
 41
0.9
  7
Caddy_Vectorfont1p
 72
     1
 11
70
 21
45.70000076293945
 31
0
100
AcDbText
  0
INSERT
  5
1D3
330
1F
100
AcDbEntity
  8
0
100
AcDbBlockReference
 66
     1
  2
Blk8
 10
0
 20
0
 30
1
  0
ATTRIB
  5
207
330
1D3
100
AcDbEntity
  8
0
370
    25
100
AcDbText
 10
51.76652606048584
 20
68.80000305175781
 30
0
 40
2.450004577636719
  1
M3601
 41
0.9
  7
Caddy_Vectorfont1p
 72
     2
 11
60.0000114440918
 21
68.80000305175781
 31
0
100
AcDbAttribute
  2
$TAG160010
 70
     0
  0
SEQEND
  5
208
330
1D3
100
AcDbEntity
  8
0
  0
INSERT
  5
219
330
1F
100
AcDbEntity
  8
0
100
AcDbBlockReference
 66
     1
  2
Blk9
 10
0
 20
0
 30
1
  0
ATTRIB
  5
21A
330
219
100
AcDbEntity
  8
0
370
    25
100
AcDbText
 10
90.69999694824219
 20
85.69999694824219
 30
0
 40
2.450004577636719
  1
W3601.1
 41
0.9
  7
Caddy_Vectorfont1p
 11
0
 21
0
 31
0
100
AcDbAttribute
  2
$TAG160010
 70
     0
  0
SEQEND
  5
21B
330
219
100
AcDbEntity
  8
0
  0
INSERT
  5
22F
330
1F
100
AcDbEntity
  8
0
100
AcDbBlockReference
 66
     1
  2
Blk10
 10
0
 20
0
 30
1
  0
ATTRIB
  5
230
330
22F
100
AcDbEntity
  8
0
370
    25
100
AcDbText
 10
90.69999694824219
 20
85.69999694824219
 30
0
 40
2.450004577636719
  1
W3601.1
 41
0.9
  7
Caddy_Vectorfont1p
 11
0
 21
0
 31
0
100
AcDbAttribute
  2
$TAG160010
 70
     0
  0
SEQEND
  5
231
330
22F
100
AcDbEntity
  8
0
  0
INSERT
  5
245
330
1F
100
AcDbEntity
  8
0
100
AcDbBlockReference
 66
     1
  2
Blk11
 10
0
 20
0
 30
1
  0
ATTRIB
  5
246
330
245
100
AcDbEntity
  8
0
370
    25
100
AcDbText
 10
90.69999694824219
 20
85.69999694824219
 30
0
 40
2.450004577636719
  1
W3601.1
 41
0.9
  7
Caddy_Vectorfont1p
 11
0
 21
0
 31
0
100
AcDbAttribute
  2
$TAG160010
 70
     0
  0
SEQEND
  5
247
330
245
100
AcDbEntity
  8
0
  0
INSERT
  5
25B
330
1F
100
AcDbEntity
  8
0
100
AcDbBlockReference
 66
     1
  2
Blk12
 10
0
 20
0
 30
1
  0
ATTRIB
  5
25C
330
25B
100
AcDbEntity
  8
0
370
    25
100
AcDbText
 10
90.69999694824219
 20
85.69999694824219
 30
0
 40
2.450004577636719
  1
W3601.1
 41
0.9
  7
Caddy_Vectorfont1p
 11
0
 21
0
 31
0
100
AcDbAttribute
  2
$TAG160010
 70
     0
  0
SEQEND
  5
25D
330
25B
100
AcDbEntity
  8
0
  0
LINE
  5
26E
330
1F
100
AcDbEntity
  8
0
  6
Caddy_Solid
370
    25
100
AcDbLine
 10
55
 20
85
 30
0
 11
90
 21
85
 31
0
  0
LINE
  5
26F
330
1F
100
AcDbEntity
  8
0
  6
Caddy_Dashdotdot
370
    25
100
AcDbLine
 10
80
 20
80
 30
0
 11
80
 21
84.5
 31
0
  0
LINE
  5
270
330
1F
100
AcDbEntity
  8
0
  6
Caddy_Dashdotdot
370
    25
100
AcDbLine
 10
75
 20
80
 30
0
 11
75
 21
84.5
 31
0
  0
LINE
  5
271
330
1F
100
AcDbEntity
  8
0
  6
Caddy_Dashdotdot
370
    25
100
AcDbLine
 10
70
 20
80
 30
0
 11
70
 21
84.5
 31
0
  0
LINE
  5
272
330
1F
100
AcDbEntity
  8
0
  6
Caddy_Dashdotdot
370
    25
100
AcDbLine
 10
65
 20
80
 30
0
 11
65
 21
84.5
 31
0
  0
LINE
  5
273
330
1F
100
AcDbEntity
  8
0
  6
Caddy_Solid
370
    25
100
AcDbLine
 10
65
 20
235
 30
0
 11
65
 21
260
 31
0
  0
TEXT
  5
274
330
1F
100
AcDbEntity
  8
0
370
    25
100
AcDbText
 10
64.5
 20
245.047725
 30
0
 40
1.75
  1
0607
 50
90
 41
0.9
  7
Caddy_Vectorfont1p
 72
     1
 11
64.5
 21
247.5
 31
0
100
AcDbText
  0
LINE
  5
275
330
1F
100
AcDbEntity
  8
0
  6
Caddy_Solid
370
    25
100
AcDbLine
 10
70
 20
235
 30
0
 11
70
 21
255
 31
0
  0
TEXT
  5
276
330
1F
100
AcDbEntity
  8
0
370
    25
100
AcDbText
 10
69.5
 20
242.5500875
 30
0
 40
1.75
  1
0608
 50
90
 41
0.9
  7
Caddy_Vectorfont1p
 72
     1
 11
69.5
 21
245
 31
0
100
AcDbText
  0
LINE
  5
277
330
1F
100
AcDbEntity
  8
0
  6
Caddy_Solid
370
    25
100
AcDbLine
 10
75
 20
235
 30
0
 11
75
 21
250
 31
0
  0
TEXT
  5
278
330
1F
100
AcDbEntity
  8
0
370
    25
100
AcDbText
 10
74.5
 20
240.0500875
 30
0
 40
1.75
  1
0609
 50
90
 41
0.9
  7
Caddy_Vectorfont1p
 72
     1
 11
74.5
 21
242.5
 31
0
100
AcDbText
  0
LINE
  5
279
330
1F
100
AcDbEntity
  8
0
  6
Caddy_Solid
370
    25
100
AcDbLine
 10
80
 20
85
 30
0
 11
80
 21
100
 31
0
  0
LINE
  5
27A
330
1F
100
AcDbEntity
  8
0
  6
Caddy_Solid
370
    25
100
AcDbLine
 10
65
 20
85.5
 30
0
 11
65
 21
100
 31
0
  0
LINE
  5
27B
330
1F
100
AcDbEntity
  8
0
  6
Caddy_Solid
370
    25
100
AcDbLine
 10
70
 20
85.5
 30
0
 11
70
 21
100
 31
0
  0
LINE
  5
27C
330
1F
100
AcDbEntity
  8
0
  6
Caddy_Solid
370
    25
100
AcDbLine
 10
75
 20
85.5
 30
0
 11
75
 21
100
 31
0
  0
INSERT
  5
280
330
1F
100
AcDbEntity
  8
0
100
AcDbBlockReference
 66
     1
  2
Blk13
 10
0
 20
0
 30
1
  0
ATTRIB
  5
284
330
280
100
AcDbEntity
  8
0
370
    25
100
AcDbText
 10
101.5999908447266
 20
195.9000091552734
 30
0
 40
2.449996948242188
  1
0707
 41
0.9
  7
Caddy_Vectorfont1p
 11
0
 21
0
 31
0
100
AcDbAttribute
  2
$TAG160010
 70
     0
  0
SEQEND
  5
285
330
280
100
AcDbEntity
  8
0
  0
LINE
  5
28D
330
1F
100
AcDbEntity
  8
0
  6
Caddy_Solid
370
    25
100
AcDbLine
 10
100
 20
195
 30
0
 11
110
 21
195
 31
0
  0
LINE
  5
28E
330
1F
100
AcDbEntity
  8
0
  6
Caddy_Solid
370
    25
100
AcDbLine
 10
110
 20
195
 30
0
 11
110
 21
215
 31
0
  0
LINE
  5
28F
330
1F
100
AcDbEntity
  8
0
  6
Caddy_Solid
370
    25
100
AcDbLine
 10
110
 20
215
 30
0
 11
80
 21
215
 31
0
  0
TEXT
  5
290
330
1F
100
AcDbEntity
  8
0
370
    25
100
AcDbText
 10
63.74992555370331
 20
50.70000076293945
 30
0
 40
2.450000762939453
  1
Vibrator
 41
0.9
  7
Caddy_Vectorfont1p
 72
     1
 11
70
 21
50.70000076293945
 31
0
100
AcDbText
  0
TEXT
  5
291
330
1F
100
AcDbEntity
  8
0
370
    25
100
AcDbText
 10
17.04999923706055
 20
259.7000122070312
 30
0
 40
2.449981689453125
  1

 41
0.9
  7
Caddy_Vectorfont1p
 72
     2
 11
17.04999923706055
 21
259.7000122070312
 31
0
100
AcDbText
  0
TEXT
  5
292
330
1F
100
AcDbEntity
  8
0
370
    25
100
AcDbText
 10
22.04999923706055
 20
259.7000122070312
 30
0
 40
2.449981689453125
  1

 41
0.9
  7
Caddy_Vectorfont1p
 72
     2
 11
22.04999923706055
 21
259.7000122070312
 31
0
100
AcDbText
  0
INSERT
  5
296
330
1F
100
AcDbEntity
  8
0
100
AcDbBlockReference
 66
     1
  2
Blk14
 10
0
 20
0
 30
1
  0
ATTRIB
  5
299
330
296
100
AcDbEntity
  8
0
370
    25
100
AcDbText
 10
31.76500701904297
 20
260.9000244140625
 30
0
 40
2.449981689453125
  1
3L1
 41
0.9
  7
Caddy_Vectorfont1p
 11
0
 21
0
 31
0
100
AcDbAttribute
  2
$TAG160010
 70
     0
  0
SEQEND
  5
29A
330
296
100
AcDbEntity
  8
0
  0
INSERT
  5
2A5
330
1F
100
AcDbEntity
  8
0
100
AcDbBlockReference
 66
     1
  2
Blk15
 10
0
 20
0
 30
1
  0
ATTRIB
  5
2A8
330
2A5
100
AcDbEntity
  8
0
370
    25
100
AcDbText
 10
105.9720558959961
 20
260.9000244140625
 30
0
 40
2.449981689453125
  1
3L1
 41
0.9
  7
Caddy_Vectorfont1p
 72
     2
 11
110.2850036621094
 21
260.9000244140625
 31
0
100
AcDbAttribute
  2
$TAG160010
 70
     0
  0
SEQEND
  5
2A9
330
2A5
100
AcDbEntity
  8
0
  0
INSERT
  5
2B4
330
1F
100
AcDbEntity
  8
0
100
AcDbBlockReference
 66
     1
  2
Blk16
 10
0
 20
0
 30
1
  0
ATTRIB
  5
2B7
330
2B4
100
AcDbEntity
  8
0
370
    25
100
AcDbText
 10
31.76500701904297
 20
255.9000091552734
 30
0
 40
2.449996948242188
  1
3L2
 41
0.9
  7
Caddy_Vectorfont1p
 11
0
 21
0
 31
0
100
AcDbAttribute
  2
$TAG160010
 70
     0
  0
SEQEND
  5
2B8
330
2B4
100
AcDbEntity
  8
0
  0
INSERT
  5
2C3
330
1F
100
AcDbEntity
  8
0
100
AcDbBlockReference
 66
     1
  2
Blk17
 10
0
 20
0
 30
1
  0
ATTRIB
  5
2C6
330
2C3
100
AcDbEntity
  8
0
370
    25
100
AcDbText
 10
105.4979622543335
 20
255.9000091552734
 30
0
 40
2.449996948242188
  1
3L2
 41
0.9
  7
Caddy_Vectorfont1p
 72
     2
 11
110.2850112915039
 21
255.9000091552734
 31
0
100
AcDbAttribute
  2
$TAG160010
 70
     0
  0
SEQEND
  5
2C7
330
2C3
100
AcDbEntity
  8
0
  0
LINE
  5
2CF
330
1F
100
AcDbEntity
  8
0
  6
Caddy_Solid
370
    25
100
AcDbLine
 10
30
 20
255
 30
0
 11
70
 21
255
 31
0
  0
LINE
  5
2D0
330
1F
100
AcDbEntity
  8
0
  6
Caddy_Solid
370
    25
100
AcDbLine
 10
70
 20
255
 30
0
 11
115
 21
255
 31
0
  0
INSERT
  5
2D4
330
1F
100
AcDbEntity
  8
0
100
AcDbBlockReference
 66
     1
  2
Blk18
 10
0
 20
0
 30
1
  0
ATTRIB
  5
2D7
330
2D4
100
AcDbEntity
  8
0
370
    25
100
AcDbText
 10
31.76500701904297
 20
250.9000091552734
 30
0
 40
2.449996948242188
  1
3L3
 41
0.9
  7
Caddy_Vectorfont1p
 11
0
 21
0
 31
0
100
AcDbAttribute
  2
$TAG160010
 70
     0
  0
SEQEND
  5
2D8
330
2D4
100
AcDbEntity
  8
0
  0
INSERT
  5
2E3
330
1F
100
AcDbEntity
  8
0
100
AcDbBlockReference
 66
     1
  2
Blk19
 10
0
 20
0
 30
1
  0
ATTRIB
  5
2E6
330
2E3
100
AcDbEntity
  8
0
370
    25
100
AcDbText
 10
105.4825272735596
 20
250.9000091552734
 30
0
 40
2.449996948242188
  1
3L3
 41
0.9
  7
Caddy_Vectorfont1p
 72
     2
 11
110.2850112915039
 21
250.9000091552734
 31
0
100
AcDbAttribute
  2
$TAG160010
 70
     0
  0
SEQEND
  5
2E7
330
2E3
100
AcDbEntity
  8
0
  0
LINE
  5
2EF
330
1F
100
AcDbEntity
  8
0
  6
Caddy_Solid
370
    25
100
AcDbLine
 10
30
 20
250
 30
0
 11
75
 21
250
 31
0
  0
LINE
  5
2F0
330
1F
100
AcDbEntity
  8
0
  6
Caddy_Solid
370
    25
100
AcDbLine
 10
75
 20
250
 30
0
 11
115
 21
250
 31
0
  0
CIRCLE
  5
2F1
330
1F
100
AcDbEntity
  8
0
370
    40
100
AcDbCircle
 10
65
 20
260
 30
0
 40
0.8
  0
CIRCLE
  5
2F2
330
1F
100
AcDbEntity
  8
0
370
    40
100
AcDbCircle
 10
65
 20
260
 30
0
 40
0.6
  0
CIRCLE
  5
2F3
330
1F
100
AcDbEntity
  8
0
370
    40
100
AcDbCircle
 10
65
 20
260
 30
0
 40
0.4
  0
LINE
  5
2F4
330
1F
100
AcDbEntity
  8
0
  6
Caddy_Solid
370
    25
100
AcDbLine
 10
30
 20
260
 30
0
 11
65
 21
260
 31
0
  0
TEXT
  5
2F5
330
1F
100
AcDbEntity
  8
0
370
    25
100
AcDbText
 10
45.047725
 20
260.5
 30
0
 40
1.75
  1
0607
 41
0.9
  7
Caddy_Vectorfont1p
 72
     1
 11
47.5
 21
260.5
 31
0
100
AcDbText
  0
LINE
  5
2F6
330
1F
100
AcDbEntity
  8
0
  6
Caddy_Solid
370
    25
100
AcDbLine
 10
65
 20
260
 30
0
 11
115
 21
260
 31
0
  0
TEXT
  5
2F7
330
1F
100
AcDbEntity
  8
0
370
    25
100
AcDbText
 10
87.547725
 20
260.5
 30
0
 40
1.75
  1
0607
 41
0.9
  7
Caddy_Vectorfont1p
 72
     1
 11
90
 21
260.5
 31
0
100
AcDbText
  0
CIRCLE
  5
2F8
330
1F
100
AcDbEntity
  8
0
370
    40
100
AcDbCircle
 10
70
 20
255
 30
0
 40
0.8
  0
CIRCLE
  5
2F9
330
1F
100
AcDbEntity
  8
0
370
    40
100
AcDbCircle
 10
70
 20
255
 30
0
 40
0.6
  0
CIRCLE
  5
2FA
330
1F
100
AcDbEntity
  8
0
370
    40
100
AcDbCircle
 10
70
 20
255
 30
0
 40
0.4
  0
CIRCLE
  5
2FB
330
1F
100
AcDbEntity
  8
0
370
    40
100
AcDbCircle
 10
75
 20
250
 30
0
 40
0.8
  0
CIRCLE
  5
2FC
330
1F
100
AcDbEntity
  8
0
370
    40
100
AcDbCircle
 10
75
 20
250
 30
0
 40
0.6
  0
CIRCLE
  5
2FD
330
1F
100
AcDbEntity
  8
0
370
    40
100
AcDbCircle
 10
75
 20
250
 30
0
 40
0.4
  0
TEXT
  5
2FE
330
1F
100
AcDbEntity
  8
0
370
    25
100
AcDbText
 10
84.29675684394836
 20
80.69999694824219
 30
0
 40
2.450004577636719
  1
4x1,5 jz
 41
0.9
  7
Caddy_Vectorfont1p
 72
     1
 11
90
 21
80.69999694824219
 31
0
100
AcDbText
  0
INSERT
  5
302
330
1F
100
AcDbEntity
  8
0
100
AcDbBlockReference
 66
     1
  2
Blk20
 10
0
 20
0
 30
1
  0
ATTRIB
  5
306
330
302
100
AcDbEntity
  8
2
370
    25
100
AcDbText
 10
58.04251415100098
 20
136.3000030517578
 30
0
 40
2.449996948242188
  1
-X20
 41
0.9
  7
Caddy_Vectorfont1p
 72
     2
 11
65.04999542236328
 21
136.3000030517578
 31
0
100
AcDbAttribute
  2
$TAG160010
 70
     0
  0
SEQEND
  5
307
330
302
100
AcDbEntity
  8
0
  0
INSERT
  5
318
330
1F
100
AcDbEntity
  8
0
100
AcDbBlockReference
 66
     1
  2
Blk21
 10
0
 20
0
 30
1
  0
ATTRIB
  5
31C
330
318
100
AcDbEntity
  8
2
370
    25
100
AcDbText
 10
63.04252178039551
 20
136.3000030517578
 30
0
 40
2.449996948242188
  1
-X20
 41
0.9
  7
Caddy_Vectorfont1p
 72
     2
 11
70.05000305175781
 21
136.3000030517578
 31
0
100
AcDbAttribute
  2
$TAG160010
 70
     0
  0
SEQEND
  5
31D
330
318
100
AcDbEntity
  8
0
  0
INSERT
  5
32E
330
1F
100
AcDbEntity
  8
0
100
AcDbBlockReference
 66
     1
  2
Blk22
 10
0
 20
0
 30
1
  0
ATTRIB
  5
332
330
32E
100
AcDbEntity
  8
2
370
    25
100
AcDbText
 10
54.75800582885742
 20
136.3000030517578
 30
0
 40
2.449996948242188
  1
X36
 41
0.9
  7
Caddy_Vectorfont1p
 72
     2
 11
60.04999923706055
 21
136.3000030517578
 31
0
100
AcDbAttribute
  2
$TAG160010
 70
     0
  0
SEQEND
  5
333
330
32E
100
AcDbEntity
  8
0
  0
INSERT
  5
344
330
1F
100
AcDbEntity
  8
0
100
AcDbBlockReference
 66
     1
  2
Blk23
 10
0
 20
0
 30
1
  0
ATTRIB
  5
348
330
344
100
AcDbEntity
  8
2
370
    25
100
AcDbText
 10
68.04251415100097
 20
136.3000030517578
 30
0
 40
2.449996948242188
  1
-X20
 41
0.9
  7
Caddy_Vectorfont1p
 72
     2
 11
75.04999542236328
 21
136.3000030517578
 31
0
100
AcDbAttribute
  2
$TAG160010
 70
     0
  0
SEQEND
  5
349
330
344
100
AcDbEntity
  8
0
  0
LINE
  5
357
330
1F
100
AcDbEntity
  8
0
  6
Caddy_Solid
370
    25
100
AcDbLine
 10
75
 20
140
 30
0
 11
75
 21
195
 31
0
  0
TEXT
  5
358
330
1F
100
AcDbEntity
  8
0
370
    25
100
AcDbText
 10
74.5
 20
165.041425
 30
0
 40
1.75
  1
3603
 50
90
 41
0.9
  7
Caddy_Vectorfont1p
 72
     1
 11
74.5
 21
167.5
 31
0
100
AcDbText
  0
LINE
  5
359
330
1F
100
AcDbEntity
  8
0
  6
Caddy_Solid
370
    25
100
AcDbLine
 10
65
 20
140
 30
0
 11
65
 21
195
 31
0
  0
TEXT
  5
35A
330
1F
100
AcDbEntity
  8
0
370
    25
100
AcDbText
 10
64.5
 20
165.21625
 30
0
 40
1.75
  1
3601
 50
90
 41
0.9
  7
Caddy_Vectorfont1p
 72
     1
 11
64.5
 21
167.5
 31
0
100
AcDbText
  0
LINE
  5
35B
330
1F
100
AcDbEntity
  8
0
  6
Caddy_Solid
370
    25
100
AcDbLine
 10
70
 20
140
 30
0
 11
70
 21
195
 31
0
  0
TEXT
  5
35C
330
1F
100
AcDbEntity
  8
0
370
    25
100
AcDbText
 10
69.5
 20
165.0469375
 30
0
 40
1.75
  1
3602
 50
90
 41
0.9
  7
Caddy_Vectorfont1p
 72
     1
 11
69.5
 21
167.5
 31
0
100
AcDbText
  0
INSERT
  5
360
330
1F
100
AcDbEntity
  8
0
100
AcDbBlockReference
 66
     1
  2
Blk24
 10
0
 20
0
 30
1
  0
ATTRIB
  5
361
330
360
100
AcDbEntity
  8
0
370
    25
100
AcDbText
 10
90.69999694824219
 20
130.6999969482422
 30
0
 40
2.449996948242188
  1
W3601
 41
0.9
  7
Caddy_Vectorfont1p
 11
0
 21
0
 31
0
100
AcDbAttribute
  2
$TAG160010
 70
     0
  0
SEQEND
  5
362
330
360
100
AcDbEntity
  8
0
  0
INSERT
  5
376
330
1F
100
AcDbEntity
  8
0
100
AcDbBlockReference
 66
     1
  2
Blk25
 10
0
 20
0
 30
1
  0
ATTRIB
  5
377
330
376
100
AcDbEntity
  8
0
370
    25
100
AcDbText
 10
90.69999694824219
 20
130.6999969482422
 30
0
 40
2.449996948242188
  1
W3601
 41
0.9
  7
Caddy_Vectorfont1p
 11
0
 21
0
 31
0
100
AcDbAttribute
  2
$TAG160010
 70
     0
  0
SEQEND
  5
378
330
376
100
AcDbEntity
  8
0
  0
INSERT
  5
38C
330
1F
100
AcDbEntity
  8
0
100
AcDbBlockReference
 66
     1
  2
Blk26
 10
0
 20
0
 30
1
  0
ATTRIB
  5
38D
330
38C
100
AcDbEntity
  8
0
370
    25
100
AcDbText
 10
90.69999694824219
 20
130.6999969482422
 30
0
 40
2.449996948242188
  1
W3601
 41
0.9
  7
Caddy_Vectorfont1p
 11
0
 21
0
 31
0
100
AcDbAttribute
  2
$TAG160010
 70
     0
  0
SEQEND
  5
38E
330
38C
100
AcDbEntity
  8
0
  0
INSERT
  5
3A2
330
1F
100
AcDbEntity
  8
0
100
AcDbBlockReference
 66
     1
  2
Blk27
 10
0
 20
0
 30
1
  0
ATTRIB
  5
3A3
330
3A2
100
AcDbEntity
  8
0
370
    25
100
AcDbText
 10
90.69999694824219
 20
130.6999969482422
 30
0
 40
2.449996948242188
  1
W3601
 41
0.9
  7
Caddy_Vectorfont1p
 11
0
 21
0
 31
0
100
AcDbAttribute
  2
$TAG160010
 70
     0
  0
SEQEND
  5
3A4
330
3A2
100
AcDbEntity
  8
0
  0
LINE
  5
3B5
330
1F
100
AcDbEntity
  8
0
  6
Caddy_Solid
370
    25
100
AcDbLine
 10
55
 20
130
 30
0
 11
90
 21
130
 31
0
  0
LINE
  5
3B6
330
1F
100
AcDbEntity
  8
0
  6
Caddy_Solid
370
    25
100
AcDbLine
 10
75
 20
105
 30
0
 11
75
 21
129.5
 31
0
  0
LINE
  5
3B7
330
1F
100
AcDbEntity
  8
0
  6
Caddy_Solid
370
    25
100
AcDbLine
 10
75
 20
130.5
 30
0
 11
75
 21
135
 31
0
  0
LINE
  5
3B8
330
1F
100
AcDbEntity
  8
0
  6
Caddy_Solid
370
    25
100
AcDbLine
 10
70
 20
105
 30
0
 11
70
 21
129.5
 31
0
  0
LINE
  5
3B9
330
1F
100
AcDbEntity
  8
0
  6
Caddy_Solid
370
    25
100
AcDbLine
 10
70
 20
130.5
 30
0
 11
70
 21
135
 31
0
  0
LINE
  5
3BA
330
1F
100
AcDbEntity
  8
0
  6
Caddy_Solid
370
    25
100
AcDbLine
 10
80
 20
105
 30
0
 11
80
 21
129.5
 31
0
  0
LINE
  5
3BB
330
1F
100
AcDbEntity
  8
0
  6
Caddy_Solid
370
    25
100
AcDbLine
 10
80
 20
130.5
 30
0
 11
80
 21
135
 31
0
  0
TEXT
  5
3BC
330
1F
100
AcDbEntity
  8
0
370
    25
100
AcDbText
 10
89.29677460403443
 20
125.6999969482422
 30
0
 40
2.449996948242188
  1
4x1,5 jz
 41
0.9
  7
Caddy_Vectorfont1p
 72
     1
 11
95
 21
125.6999969482422
 31
0
100
AcDbText
  0
LINE
  5
3BD
330
1F
100
AcDbEntity
  8
0
  6
Caddy_Solid
370
    25
100
AcDbLine
 10
65
 20
105
 30
0
 11
65
 21
129.5
 31
0
  0
LINE
  5
3BE
330
1F
100
AcDbEntity
  8
0
  6
Caddy_Solid
370
    25
100
AcDbLine
 10
65
 20
130.5
 30
0
 11
65
 21
135
 31
0
  0
ENDSEC
  0
SECTION
  2
OBJECTS
  0
DICTIONARY
  5
C
330
0
100
AcDbDictionary
281
     1
  3
ACAD_GROUP
350
D
  3
ACAD_PLOTSTYLENAME
350
E
  3
ACAD_MLINESTYLE
350
17
  3
ACAD_PLOTSETTINGS
350
19
  3
ACAD_LAYOUT
350
1A
  3
ACAD_IMAGE_DICT
350
A7
  3
ACAD_IMAGE_VARS
350
AA
  0
DICTIONARY
  5
D
102
{ACAD_REACTORS
330
C
102
}
330
C
100
AcDbDictionary
281
     1
  0
ACDBDICTIONARYWDFLT
  5
E
102
{ACAD_REACTORS
330
C
102
}
330
C
100
AcDbDictionary
281
     1
  3
Normal
350
F
100
AcDbDictionaryWithDefault
340
F
  0
ACDBPLACEHOLDER
  5
F
102
{ACAD_REACTORS
330
E
102
}
330
E
  0
DICTIONARY
  5
17
102
{ACAD_REACTORS
330
C
102
}
330
C
100
AcDbDictionary
281
     1
  3
Standard
350
18
  0
MLINESTYLE
  5
18
102
{ACAD_REACTORS
330
17
102
}
330
17
100
AcDbMlineStyle
  2
Standard
 70
     0
  3

 62
   256
 51
90
 52
90
 71
     2
 49
0.5
 62
   256
  6
BYLAYER
 49
-0.5
 62
   256
  6
BYLAYER
  0
DICTIONARY
  5
19
102
{ACAD_REACTORS
330
C
102
}
330
C
100
AcDbDictionary
281
     1
  0
DICTIONARY
  5
1A
102
{ACAD_REACTORS
330
C
102
}
330
C
100
AcDbDictionary
281
     1
  3
Layout1
350
1E
  3
Model
350
22
  3
Layout2
350
26
  0
LAYOUT
  5
1E
102
{ACAD_REACTORS
330
1A
102
}
330
1A
100
AcDbPlotSettings
  1

  2

  4

  6

 40
0
 41
0
 42
0
 43
0
 44
0
 45
0
 46
0
 47
0
 48
0
 49
0
140
0
141
0
  6

142
1
143
1
 70
   688
 72
     0
 73
     0
 74
     5
  7

 75
    16
147
1
148
0
149
0
100
AcDbLayout
  1
Layout1
 70
     1
 71
     1
 10
0
 20
0
 11
420
 21
297
 12
0
 22
0
 32
0
 14
1E+20
 24
1E+20
 34
1E+20
 15
-1E+20
 25
-1E+20
 35
-1E+20
146
0
 13
0
 23
0
 33
0
 16
1
 26
0
 36
0
 17
0
 27
1
 37
0
 76
     0
330
1B
  0
LAYOUT
  5
22
102
{ACAD_REACTORS
330
1A
102
}
330
1A
100
AcDbPlotSettings
  1

  2

  4

  6

 40
0
 41
0
 42
0
 43
0
 44
0
 45
0
 46
0
 47
0
 48
0
 49
0
140
0
141
0
  6

142
1
143
1
 70
  1712
 72
     0
 73
     0
 74
     0
  7

 75
     0
147
1
148
0
149
0
100
AcDbLayout
  1
Model
 70
     1
 71
     0
 10
0
 20
0
 11
0
 21
0
 12
0
 22
0
 32
0
 14
0
 24
0
 34
0
 15
420
 25
297
 35
0
146
0
 13
0
 23
0
 33
0
 16
1
 26
0
 36
0
 17
0
 27
1
 37
0
 76
     0
330
1F
  0
LAYOUT
  5
26
102
{ACAD_REACTORS
330
1A
102
}
330
1A
100
AcDbPlotSettings
  1

  2

  4

  6

 40
0
 41
0
 42
0
 43
0
 44
0
 45
0
 46
0
 47
0
 48
0
 49
0
140
0
141
0
  6

142
1
143
1
 70
   688
 72
     0
 73
     0
 74
     5
  7

 75
    16
147
1
148
0
149
0
100
AcDbLayout
  1
Layout2
 70
     1
 71
     2
 10
0
 20
0
 11
0
 21
0
 12
0
 22
0
 32
0
 14
0
 24
0
 34
0
 15
0
 25
0
 35
0
146
0
 13
0
 23
0
 33
0
 16
1
 26
0
 36
0
 17
0
 27
1
 37
0
 76
     0
330
23
  0
DICTIONARY
  5
A7
102
{ACAD_REACTORS
330
C
102
}
330
C
100
AcDbDictionary
281
     1
  3
Image2
350
A8
  0
IMAGEDEF
  5
A8
102
{ACAD_REACTORS
330
A7
330
AB
102
}
330
A7
100
AcDbRasterImageDef
 90
        0
  1
.\KasseløfterVibrator- 0036 - Kredsskema - 0036 - Image1.bmp
 10
51
 20
10
 11
0.0196078431372549
 21
0.0196078431372549
280
     1
281
     1
  0
RASTERVARIABLES
  5
AA
102
{ACAD_REACTORS
330
C
102
}
330
C
100
AcDbRasterVariables
 90
        0
 70
     0
 71
     1
 72
     1
  0
IMAGEDEF_REACTOR
  5
AB
330
A9
100
AcDbRasterImageDefReactor
 90
        2
330
A9
  0
ENDSEC
  0
EOF
