999
LibreDWG fb9d2fd7
  0
SECTION
  2
HEADER
  9
$ACADVER
  1
AC1015
  9
$ACADMAINTVER
 70
     0
  9
$DWGCODEPAGE
  3
ANSI_1252
  9
$INSBASE
 10
0
 20
0
 30
0
  9
$EXTMIN
 10
0
 20
0
 30
0
  9
$EXTMAX
 10
420
 20
297
 30
0
  9
$LIMMIN
 10
0
 20
0
  9
$LIMMAX
 10
420
 20
297
  9
$ORTHOMODE
 70
     0
  9
$REGENMODE
 70
     1
  9
$FILLMODE
 70
     1
  9
$QTEXTMODE
 70
     0
  9
$MIRRTEXT
 70
     1
  9
$LTSCALE
 40
1
  9
$ATTMODE
 70
     1
  9
$TEXTSIZE
 40
2.5
  9
$TRACEWID
 40
1
  9
$TEXTSTYLE
  7
Standard
  9
$CLAYER
  8
0
  9
$CELTYPE
  6
ByLayer
  9
$CECOLOR
 62
   256
  9
$CELTSCALE
 40
1
  9
$DISPSILH
 70
     0
  9
$DIMSCALE
 40
1
  9
$DIMASZ
 40
2.5
  9
$DIMEXO
 40
0.625
  9
$DIMDLI
 40
3.75
  9
$DIMRND
 40
0
  9
$DIMDLE
 40
0
  9
$DIMEXE
 40
1.25
  9
$DIMTP
 40
0
  9
$DIMTM
 40
0
  9
$DIMTXT
 40
2.5
  9
$DIMCEN
 40
2.5
  9
$DIMTSZ
 40
0
  9
$DIMTOL
 70
     0
  9
$DIMLIM
 70
     0
  9
$DIMTIH
 70
     0
  9
$DIMTOH
 70
     0
  9
$DIMSE1
 70
     0
  9
$DIMSE2
 70
     0
  9
$DIMTAD
 70
     1
  9
$DIMZIN
 70
     8
  9
$DIMBLK
  1

  9
$DIMASO
 70
     1
  9
$DIMSHO
 70
     1
  9
$DIMPOST
  1

  9
$DIMAPOST
  1

  9
$DIMALT
 70
     0
  9
$DIMALTD
 70
     3
  9
$DIMALTF
 40
0.03937007874016
  9
$DIMLFAC
 40
1
  9
$DIMTOFL
 70
     1
  9
$DIMTVP
 40
0
  9
$DIMTIX
 70
     0
  9
$DIMSOXD
 70
     0
  9
$DIMSAH
 70
     0
  9
$DIMBLK1
  1

  9
$DIMBLK2
  1

  9
$DIMSTYLE
  2
ISO-25
  9
$DIMCLRD
 70
     0
  9
$DIMCLRE
 70
     0
  9
$DIMCLRT
 70
     0
  9
$DIMTFAC
 40
1
  9
$DIMGAP
 40
0.625
  9
$DIMJUST
 70
     0
  9
$DIMSD1
 70
     0
  9
$DIMSD2
 70
     0
  9
$DIMTOLJ
 70
     0
  9
$DIMTZIN
 70
     8
  9
$DIMALTZ
 70
     0
  9
$DIMALTTZ
 70
     0
  9
$DIMUPT
 70
     0
  9
$DIMDEC
 70
     2
  9
$DIMTDEC
 70
     2
  9
$DIMALTU
 70
     2
  9
$DIMALTTD
 70
     3
  9
$DIMTXSTY
  7
Standard
  9
$DIMAUNIT
 70
     0
  9
$DIMADEC
 70
     0
  9
$DIMALTRND
 40
0
  9
$DIMAZIN
 70
     0
  9
$DIMDSEP
 70
    44
  9
$DIMATFIT
 70
     3
  9
$DIMFRAC
 70
     0
  9
$DIMLDRBLK
  1

  9
$DIMLUNIT
 70
     2
  9
$DIMLWD
 70
    -2
  9
$DIMLWE
 70
    -2
  9
$DIMTMOVE
 70
     0
  9
$LUNITS
 70
     2
  9
$LUPREC
 70
     4
  9
$AXISMODE
 70
     0
  9
$AXISUNIT
 10
0
 20
0
  9
$SKETCHINC
 40
1
  9
$FILLETRAD
 40
10
  9
$AUNITS
 70
     0
  9
$AUPREC
 70
     0
  9
$MENU
  1
.
  9
$ELEVATION
 40
0
  9
$PELEVATION
 40
0
  9
$THICKNESS
 40
0
  9
$LIMCHECK
 70
     0
  9
$CHAMFERA
 40
10
  9
$CHAMFERB
 40
10
  9
$CHAMFERC
 40
20
  9
$CHAMFERD
 40
0
  9
$SKPOLY
 70
     0
  9
$TDCREATE
 40
2451930.468000000
  9
$TDUCREATE
 40
2451930.468000000
  9
$TDUPDATE
 40
2451930.666000000
  9
$TDUUPDATE
 40
2451930.666000000
  9
$TDINDWG
 40
0.000000010
  9
$TDUSRTIMER
 40
0.000000010
  9
$USRTIMER
 70
     1
  9
$ANGBASE
 50
0
  9
$ANGDIR
 70
     0
  9
$PDMODE
 70
     0
  9
$PDSIZE
 40
0
  9
$PLINEWID
 40
0
  9
$SPLFRAME
 70
     0
  9
$SPLINETYPE
 70
     6
  9
$SPLINESEGS
 70
     8
  9
$HANDSEED
  5
345
  9
$SURFTAB1
 70
     6
  9
$SURFTAB2
 70
     6
  9
$SURFTYPE
 70
     6
  9
$SURFU
 70
     6
  9
$SURFV
 70
     6
  9
$UCSBASE
  2

  9
$UCSNAME
  2

  9
$UCSORG
 10
0
 20
0
 30
0
  9
$UCSXDIR
 10
1
 20
0
 30
0
  9
$UCSYDIR
 10
0
 20
1
 30
0
  9
$UCSORTHOREF
  2

  9
$UCSORTHOVIEW
 70
     0
  9
$UCSORGTOP
 10
0
 20
0
 30
0
  9
$UCSORGBOTTOM
 10
0
 20
0
 30
0
  9
$UCSORGLEFT
 10
0
 20
0
 30
0
  9
$UCSORGRIGHT
 10
0
 20
0
 30
0
  9
$UCSORGFRONT
 10
0
 20
0
 30
0
  9
$UCSORGBACK
 10
0
 20
0
 30
0
  9
$PUCSBASE
  2

  9
$PUCSNAME
  2

  9
$PUCSORG
 10
0
 20
0
 30
0
  9
$PUCSXDIR
 10
1
 20
0
 30
0
  9
$PUCSYDIR
 10
0
 20
1
 30
0
  9
$PUCSORTHOREF
  2

  9
$PUCSORTHOVIEW
 70
     0
  9
$PUCSORGTOP
 10
0
 20
0
 30
0
  9
$PUCSORGBOTTOM
 10
0
 20
0
 30
0
  9
$PUCSORGLEFT
 10
0
 20
0
 30
0
  9
$PUCSORGRIGHT
 10
0
 20
0
 30
0
  9
$PUCSORGFRONT
 10
0
 20
0
 30
0
  9
$PUCSORGBACK
 10
0
 20
0
 30
0
  9
$USERI1
 70
     0
  9
$USERI2
 70
     0
  9
$USERI3
 70
     0
  9
$USERI4
 70
     0
  9
$USERI5
 70
     0
  9
$USERR1
 40
0
  9
$USERR2
 40
0
  9
$USERR3
 40
0
  9
$USERR4
 40
0
  9
$USERR5
 40
0
  9
$WORLDVIEW
 70
     1
  9
$SHADEDGE
 70
     3
  9
$SHADEDIF
 70
    70
  9
$TILEMODE
 70
     1
  9
$MAXACTVP
 70
    64
  9
$PINSBASE
 10
0
 20
0
 30
0
  9
$PLIMCHECK
 70
     0
  9
$PEXTMIN
 10
1E+20
 20
1E+20
 30
1E+20
  9
$PEXTMAX
 10
-1E+20
 20
-1E+20
 30
-1E+20
  9
$PLIMMIN
 10
0
 20
0
  9
$PLIMMAX
 10
420
 20
297
  9
$UNITMODE
 70
     0
  9
$VISRETAIN
 70
     1
  9
$PLINEGEN
 70
     0
  9
$PSLTSCALE
 70
     1
  9
$TREEDEPTH
 70
  3020
  9
$CMLSTYLE
  2
Standard
  9
$CMLJUST
 70
     0
  9
$CMLSCALE
 40
20
  9
$PROXYGRAPHICS
 70
     1
  9
$MEASUREMENT
 70
     1
  9
$CELWEIGHT
370
    -1
  9
$ENDCAPS
280
     0
  9
$JOINSTYLE
280
     0
  9
$LWDISPLAY
290
     0
  9
$INSUNITS
 70
     4
  9
$HYPERLINKBASE
  1

  9
$STYLESHEET
  1

  9
$XEDIT
290
     1
  9
$CEPSNTYPE
380
     0
  9
$PSTYLEMODE
290
     1
  9
$FINGERPRINTGUID
  2
{FAEB1C30-E019-11D5-929B-00C0DF256EC4}
  9
$VERSIONGUID
  2
{FAEB1C32-E019-11D5-929B-00C0DF256EC4}
  9
$EXTNAMES
290
     1
  9
$PSVPSCALE
 40
0
  9
$OLESTARTUP
290
     0
  0
ENDSEC
  0
SECTION
  2
CLASSES
  0
CLASS
  1
ACDBDICTIONARYWDFLT
  2
AcDbDictionaryWithDefault
  3
ObjectDBX Classes
 90
        0
280
     0
281
     0
  0
CLASS
  1
IMAGEDEF
  2
AcDbRasterImageDef
  3
ISM
 90
        0
280
     0
281
     0
  0
CLASS
  1
IMAGE
  2
AcDbRasterImage
  3
ISM
 90
      127
280
     0
281
     1
  0
CLASS
  1
RASTERVARIABLES
  2
AcDbRasterVariables
  3
ISM
 90
        0
280
     0
281
     0
  0
CLASS
  1
IMAGEDEF_REACTOR
  2
AcDbRasterImageDefReactor
  3
ISM
 90
        1
280
     0
281
     0
  0
CLASS
  1
ACDBPLACEHOLDER
  2
AcDbPlaceHolder
  3
ObjectDBX Classes
 90
        0
280
     0
281
     0
  0
CLASS
  1
LAYOUT
  2
AcDbLayout
  3
ObjectDBX Classes
 90
        0
280
     0
281
     0
  0
ENDSEC
  0
SECTION
  2
TABLES
  0
TABLE
  2
VPORT
  5
8
330
0
100
AcDbSymbolTable
 70
     2
  0
VPORT
  5
29
330
8
100
AcDbSymbolTableRecord
100
AcDbViewportTableRecord
  2
*Active
 70
     0
 10
0
 20
0
 11
1
 21
1
 12
210
 22
142.5
 13
0
 23
0
 14
10
 24
10
 15
10
 25
10
 16
0
 26
0
 36
1
 17
0
 27
0
 37
0
 40
270.3
 41
1.972972972850329
 42
50
 43
0
 44
0
 50
0
 51
0
 71
     0
 72
   100
 73
     1
 74
     3
 75
     0
 76
     0
 77
     0
 78
     0
281
     0
 65
     1
110
0
120
0
130
0
111
1
121
0
131
0
112
0
122
1
132
0
 79
     0
146
0
  0
ENDTAB
  0
TABLE
  2
LTYPE
  5
5
330
0
100
AcDbSymbolTable
 70
     6
  0
LTYPE
  5
14
330
5
100
AcDbSymbolTableRecord
100
AcDbLinetypeTableRecord
  2
ByBlock
 70
     0
  3

 72
    65
 73
     0
 40
0
  0
LTYPE
  5
15
330
5
100
AcDbSymbolTableRecord
100
AcDbLinetypeTableRecord
  2
ByLayer
 70
     0
  3

 72
    65
 73
     0
 40
0
  0
LTYPE
  5
16
330
5
100
AcDbSymbolTableRecord
100
AcDbLinetypeTableRecord
  2
Continuous
 70
     0
  3
Solid line
 72
    65
 73
     0
 40
0
  0
LTYPE
  5
3B
330
5
100
AcDbSymbolTableRecord
100
AcDbLinetypeTableRecord
  2
Caddy_Solid
 70
     0
  3
____________
 72
    65
 73
     0
 40
0
  0
LTYPE
  5
3C
330
5
100
AcDbSymbolTableRecord
100
AcDbLinetypeTableRecord
  2
Caddy_Dot
 70
     0
  3
. . . . . . 
 72
    65
 73
     2
 40
2
 49
0.5
 74
     0
 49
-1.5
 74
     0
  0
LTYPE
  5
3D
330
5
100
AcDbSymbolTableRecord
100
AcDbLinetypeTableRecord
  2
Caddy_Dash
 70
     0
  3
_ _ _ _ _ _ 
 72
    65
 73
     2
 40
3.5
 49
2
 74
     0
 49
-1.5
 74
     0
  0
LTYPE
  5
3E
330
5
100
AcDbSymbolTableRecord
100
AcDbLinetypeTableRecord
  2
Caddy_Dashdot
 70
     0
  3
_ . _ . _ . 
 72
    65
 73
     4
 40
5.5
 49
0.5
 74
     0
 49
-1.5
 74
     0
 49
2
 74
     0
 49
-1.5
 74
     0
  0
LTYPE
  5
3F
330
5
100
AcDbSymbolTableRecord
100
AcDbLinetypeTableRecord
  2
Caddy_Dashdotdot
 70
     0
  3
_ . . _ . . 
 72
    65
 73
     6
 40
7.5
 49
2
 74
     0
 49
-1.5
 74
     0
 49
0.5
 74
     0
 49
-1.5
 74
     0
 49
0.5
 74
     0
 49
-1.5
 74
     0
  0
ENDTAB
  0
TABLE
  2
LAYER
  5
2
330
0
100
AcDbSymbolTable
 70
     2
  0
LAYER
  5
10
330
2
100
AcDbSymbolTableRecord
100
AcDbLayerTableRecord
  2
0
 70
     8
 62
     7
  6
Continuous
290
     1
370
    -3
390
F
  0
LAYER
  5
B6
330
2
100
AcDbSymbolTableRecord
100
AcDbLayerTableRecord
  2
2
 70
     8
 62
     7
  6
Continuous
290
     1
370
    -3
390
F
  0
ENDTAB
  0
TABLE
  2
STYLE
  5
3
330
0
100
AcDbSymbolTable
 70
    17
  0
STYLE
  5
11
330
3
100
AcDbSymbolTableRecord
100
AcDbTextStyleTableRecord
  2
Standard
 70
     0
 40
0
 41
1
 50
0
 71
     0
 42
2.5
  3
txt
  4

  0
STYLE
  5
2B
330
3
100
AcDbSymbolTableRecord
100
AcDbTextStyleTableRecord
  2
Caddy_Vectorfont1p
 70
     0
 40
0
 41
0.9
 50
0
 71
     0
 42
0.2
  3
isocp___.ttf
  4

1001
ACAD
1000
ISOCP
1071
        0
  0
STYLE
  5
2C
330
3
100
AcDbSymbolTableRecord
100
AcDbTextStyleTableRecord
  2
Caddy_Vectorfont1n
 70
     0
 40
0
 41
1.100000023841858
 50
0
 71
     0
 42
0.2
  3

  4

1001
ACAD
1000
ISOCP
1071
        0
  0
STYLE
  5
2D
330
3
100
AcDbSymbolTableRecord
100
AcDbTextStyleTableRecord
  2
Caddy_Vectorfont2p
 70
     0
 40
0
 41
1.35
 50
0
 71
     0
 42
0.2
  3

  4

1001
ACAD
1000
ARIAL
1071
        0
  0
STYLE
  5
2E
330
3
100
AcDbSymbolTableRecord
100
AcDbTextStyleTableRecord
  2
Caddy_Vectorfont2n
 70
     0
 40
0
 41
1.549999952316284
 50
0
 71
     0
 42
0.2
  3

  4

1001
ACAD
1000
ARIAL
1071
        0
  0
STYLE
  5
2F
330
3
100
AcDbSymbolTableRecord
100
AcDbTextStyleTableRecord
  2
Caddy_Vectorfont3p
 70
     0
 40
0
 41
1.3
 50
0
 71
     0
 42
0.2
  3

  4

1001
ACAD
1000
Swis721 BdOul BT
1071
        0
  0
STYLE
  5
30
330
3
100
AcDbSymbolTableRecord
100
AcDbTextStyleTableRecord
  2
Caddy_Vectorfont3n
 70
     0
 40
0
 41
1.5
 50
0
 71
     0
 42
0.2
  3

  4

1001
ACAD
1000
Swis721 BdOul BT
1071
        0
  0
STYLE
  5
31
330
3
100
AcDbSymbolTableRecord
100
AcDbTextStyleTableRecord
  2
Caddy_Vectorfont4p
 70
     0
 40
0
 41
1.1
 50
0
 71
     0
 42
0.2
  3

  4

1001
ACAD
1000
COMPLEX
1071
        0
  0
STYLE
  5
32
330
3
100
AcDbSymbolTableRecord
100
AcDbTextStyleTableRecord
  2
Caddy_Vectorfont4n
 70
     0
 40
0
 41
1.299999952316284
 50
0
 71
     0
 42
0.2
  3

  4

1001
ACAD
1000
COMPLEX
1071
        0
  0
STYLE
  5
33
330
3
100
AcDbSymbolTableRecord
100
AcDbTextStyleTableRecord
  2
Caddy_Vectorfont5p
 70
     0
 40
0
 41
1
 50
0
 71
     0
 42
0.2
  3

  4

1001
ACAD
1000
COMPLEX
1071
        0
  0
STYLE
  5
34
330
3
100
AcDbSymbolTableRecord
100
AcDbTextStyleTableRecord
  2
Caddy_Vectorfont5n
 70
     0
 40
0
 41
1.200000047683716
 50
0
 71
     0
 42
0.2
  3

  4

1001
ACAD
1000
COMPLEX
1071
        0
  0
STYLE
  5
35
330
3
100
AcDbSymbolTableRecord
100
AcDbTextStyleTableRecord
  2
Caddy_Vectorfont6p
 70
     0
 40
0
 41
0.9
 50
0
 71
     0
 42
0.2
  3

  4

1001
ACAD
1000
TXT
1071
        0
  0
STYLE
  5
36
330
3
100
AcDbSymbolTableRecord
100
AcDbTextStyleTableRecord
  2
Caddy_Vectorfont6n
 70
     0
 40
0
 41
1.100000023841858
 50
0
 71
     0
 42
0.2
  3

  4

1001
ACAD
1000
TXT
1071
        0
  0
STYLE
  5
37
330
3
100
AcDbSymbolTableRecord
100
AcDbTextStyleTableRecord
  2
Caddy_Vectorfont7p
 70
     0
 40
0
 41
1.3
 50
0
 71
     0
 42
0.2
  3

  4

1001
ACAD
1000
Swis721 BdOul BT
1071
        0
  0
STYLE
  5
38
330
3
100
AcDbSymbolTableRecord
100
AcDbTextStyleTableRecord
  2
Caddy_Vectorfont7n
 70
     0
 40
0
 41
1.5
 50
0
 71
     0
 42
0.2
  3

  4

1001
ACAD
1000
Swis721 BdOul BT
1071
        0
  0
STYLE
  5
39
330
3
100
AcDbSymbolTableRecord
100
AcDbTextStyleTableRecord
  2
Caddy_Vectorfont8p
 70
     0
 40
0
 41
1.5
 50
0
 71
     0
 42
0.2
  3

  4

1001
ACAD
1000
TXT
1071
        0
  0
STYLE
  5
3A
330
3
100
AcDbSymbolTableRecord
100
AcDbTextStyleTableRecord
  2
Caddy_Vectorfont8n
 70
     0
 40
0
 41
1.700000047683716
 50
0
 71
     0
 42
0.2
  3

  4

1001
ACAD
1000
TXT
1071
        0
  0
ENDTAB
  0
TABLE
  2
VIEW
  5
6
330
0
100
AcDbSymbolTable
 70
     0
  0
ENDTAB
  0
TABLE
  2
UCS
  5
7
330
0
100
AcDbSymbolTable
 70
     0
  0
ENDTAB
  0
TABLE
  2
APPID
  5
9
330
0
100
AcDbSymbolTable
 70
     2
  0
APPID
  5
12
330
9
100
AcDbSymbolTableRecord
100
AcDbRegAppTableRecord
  2
ACAD
 70
     0
  0
APPID
  5
2A
330
9
100
AcDbSymbolTableRecord
100
AcDbRegAppTableRecord
  2
ODA
 70
     0
  0
ENDTAB
  0
TABLE
  2
DIMSTYLE
  5
A
330
0
100
AcDbSymbolTable
 70
     1
100
AcDbDimStyleTable
 71
     0
  0
DIMSTYLE
105
27
330
A
100
AcDbSymbolTableRecord
100
AcDbDimStyleTableRecord
  2
ISO-25
 70
     0
 41
2.5
 42
0.625
 43
3.75
 44
1.25
 73
     0
 74
     0
 77
     1
 78
     8
140
2.5
141
2.5
143
0.03937007874016
144
1
146
1
147
0.625
171
     3
172
     1
176
     0
177
     0
178
     0
271
     2
272
     2
273
     2
274
     3
277
     2
278
    44
283
     0
284
     8
289
     3
340
11
371
    -2
372
    -2
341
0
342
0
343
0
344
0
  0
ENDTAB
  0
TABLE
  2
VX
  5
B
330
0
100
AcDbSymbolTable
 70
     1
100
AcDbVXTable
  0
VX_TABLE_RECORD
  5
344
330
B
100
AcDbSymbolTableRecord
100
AcDbVXTableRecord
  2

 70
     0
290
     0
338
0
340
0
  0
ENDTAB
  0
TABLE
  2
BLOCK_RECORD
  5
1
330
0
100
AcDbSymbolTable
 70
    29
  0
BLOCK_RECORD
  5
1F
330
1
100
AcDbSymbolTableRecord
100
AcDbBlockTableRecord
  2
*Model_Space
340
22
  0
BLOCK_RECORD
  5
1B
330
1
100
AcDbSymbolTableRecord
100
AcDbBlockTableRecord
  2
*Paper_Space
340
1E
  0
BLOCK_RECORD
  5
23
330
1
100
AcDbSymbolTableRecord
100
AcDbBlockTableRecord
  2
*Paper_Space0
340
26
  0
BLOCK_RECORD
  5
40
330
1
100
AcDbSymbolTableRecord
100
AcDbBlockTableRecord
  2
Blk1
340
0
102
{BLKREFS
331
43
102
}
  0
BLOCK_RECORD
  5
4F
330
1
100
AcDbSymbolTableRecord
100
AcDbBlockTableRecord
  2
Blk2
340
0
102
{BLKREFS
331
52
102
}
  0
BLOCK_RECORD
  5
60
330
1
100
AcDbSymbolTableRecord
100
AcDbBlockTableRecord
  2
Blk3
340
0
102
{BLKREFS
331
63
102
}
  0
BLOCK_RECORD
  5
6F
330
1
100
AcDbSymbolTableRecord
100
AcDbBlockTableRecord
  2
Blk4
340
0
102
{BLKREFS
331
72
102
}
  0
BLOCK_RECORD
  5
8A
330
1
100
AcDbSymbolTableRecord
100
AcDbBlockTableRecord
  2
Blk5
340
0
102
{BLKREFS
331
8D
102
}
  0
BLOCK_RECORD
  5
8E
330
1
100
AcDbSymbolTableRecord
100
AcDbBlockTableRecord
  2
Blk6
340
0
102
{BLKREFS
331
91
102
}
  0
BLOCK_RECORD
  5
AF
330
1
100
AcDbSymbolTableRecord
100
AcDbBlockTableRecord
  2
Blk7
340
0
102
{BLKREFS
331
B2
102
}
  0
BLOCK_RECORD
  5
C6
330
1
100
AcDbSymbolTableRecord
100
AcDbBlockTableRecord
  2
Blk8
340
0
102
{BLKREFS
331
C9
102
}
  0
BLOCK_RECORD
  5
DC
330
1
100
AcDbSymbolTableRecord
100
AcDbBlockTableRecord
  2
Blk9
340
0
102
{BLKREFS
331
DF
102
}
  0
BLOCK_RECORD
  5
F2
330
1
100
AcDbSymbolTableRecord
100
AcDbBlockTableRecord
  2
Blk10
340
0
102
{BLKREFS
331
F5
102
}
  0
BLOCK_RECORD
  5
108
330
1
100
AcDbSymbolTableRecord
100
AcDbBlockTableRecord
  2
Blk11
340
0
102
{BLKREFS
331
10B
102
}
  0
BLOCK_RECORD
  5
120
330
1
100
AcDbSymbolTableRecord
100
AcDbBlockTableRecord
  2
Blk12
340
0
102
{BLKREFS
331
123
102
}
  0
BLOCK_RECORD
  5
136
330
1
100
AcDbSymbolTableRecord
100
AcDbBlockTableRecord
  2
Blk13
340
0
102
{BLKREFS
331
139
102
}
  0
BLOCK_RECORD
  5
14C
330
1
100
AcDbSymbolTableRecord
100
AcDbBlockTableRecord
  2
Blk14
340
0
102
{BLKREFS
331
14F
102
}
  0
BLOCK_RECORD
  5
162
330
1
100
AcDbSymbolTableRecord
100
AcDbBlockTableRecord
  2
Blk15
340
0
102
{BLKREFS
331
165
102
}
  0
BLOCK_RECORD
  5
188
330
1
100
AcDbSymbolTableRecord
100
AcDbBlockTableRecord
  2
Blk16
340
0
102
{BLKREFS
331
18B
102
}
  0
BLOCK_RECORD
  5
19E
330
1
100
AcDbSymbolTableRecord
100
AcDbBlockTableRecord
  2
Blk17
340
0
102
{BLKREFS
331
1A1
102
}
  0
BLOCK_RECORD
  5
1BD
330
1
100
AcDbSymbolTableRecord
100
AcDbBlockTableRecord
  2
Blk18
340
0
102
{BLKREFS
331
1C0
102
}
  0
BLOCK_RECORD
  5
1D3
330
1
100
AcDbSymbolTableRecord
100
AcDbBlockTableRecord
  2
Blk19
340
0
102
{BLKREFS
331
1D6
102
}
  0
BLOCK_RECORD
  5
1E9
330
1
100
AcDbSymbolTableRecord
100
AcDbBlockTableRecord
  2
Blk20
340
0
102
{BLKREFS
331
1EC
102
}
  0
BLOCK_RECORD
  5
1FF
330
1
100
AcDbSymbolTableRecord
100
AcDbBlockTableRecord
  2
Blk21
340
0
102
{BLKREFS
331
202
102
}
  0
BLOCK_RECORD
  5
215
330
1
100
AcDbSymbolTableRecord
100
AcDbBlockTableRecord
  2
Blk22
340
0
102
{BLKREFS
331
218
102
}
  0
BLOCK_RECORD
  5
22D
330
1
100
AcDbSymbolTableRecord
100
AcDbBlockTableRecord
  2
Blk23
340
0
102
{BLKREFS
331
230
102
}
  0
BLOCK_RECORD
  5
243
330
1
100
AcDbSymbolTableRecord
100
AcDbBlockTableRecord
  2
Blk24
340
0
102
{BLKREFS
331
246
102
}
  0
BLOCK_RECORD
  5
259
330
1
100
AcDbSymbolTableRecord
100
AcDbBlockTableRecord
  2
Blk25
340
0
102
{BLKREFS
331
25C
102
}
  0
BLOCK_RECORD
  5
26F
330
1
100
AcDbSymbolTableRecord
100
AcDbBlockTableRecord
  2
Blk26
340
0
102
{BLKREFS
331
272
102
}
  0
BLOCK_RECORD
  5
2CA
330
1
100
AcDbSymbolTableRecord
100
AcDbBlockTableRecord
  2
Blk27
340
0
102
{BLKREFS
331
2CD
102
}
  0
BLOCK_RECORD
  5
2D8
330
1
100
AcDbSymbolTableRecord
100
AcDbBlockTableRecord
  2
Blk28
340
0
102
{BLKREFS
331
2DB
102
}
  0
ENDTAB
  0
ENDSEC
  0
SECTION
  2
BLOCKS
  0
BLOCK
  5
1C
330
1B
100
AcDbEntity
 67
     1
  8
0
100
AcDbBlockBegin
  2
*Paper_Space
 70
     0
 10
0
 20
0
 30
0
  3
*Paper_Space
  1

  0
ENDBLK
  5
1D
330
1B
100
AcDbEntity
 67
     1
  8
0
100
AcDbBlockEnd
  0
BLOCK
  5
20
330
1F
100
AcDbEntity
  8
0
100
AcDbBlockBegin
  2
*Model_Space
 70
     0
 10
0
 20
0
 30
0
  3
*Model_Space
  1

  0
ENDBLK
  5
21
330
1F
100
AcDbEntity
  8
0
100
AcDbBlockEnd
  0
BLOCK
  5
24
330
23
100
AcDbEntity
  8
0
100
AcDbBlockBegin
  2
*Paper_Space0
 70
     0
 10
0
 20
0
 30
0
  3
*Paper_Space0
  1

  0
ENDBLK
  5
25
330
23
100
AcDbEntity
  8
0
100
AcDbBlockEnd
  0
BLOCK
  5
41
330
40
100
AcDbEntity
  8
0
100
AcDbBlockBegin
  2
Blk1
 70
     2
 10
0
 20
0
 30
0
  3
Blk1
  1

  0
LINE
  5
44
330
40
100
AcDbEntity
  8
0
  6
Caddy_Solid
370
    25
100
AcDbLine
 10
27.5
 20
260
 30
0
 11
25.25
 21
261.25
 31
0
  0
LINE
  5
45
330
40
100
AcDbEntity
  8
0
  6
Caddy_Solid
370
    25
100
AcDbLine
 10
27.5
 20
260
 30
0
 11
25.25
 21
258.75
 31
0
  0
ATTDEF
  5
48
330
40
100
AcDbEntity
  8
0
370
    25
100
AcDbText
 10
29.26500701904297
 20
260.9000244140625
 30
0
 40
2.449981689453125
  1
0708
 41
0.9
  7
Caddy_Vectorfont1p
 11
0
 21
0
 31
0
100
AcDbAttributeDefinition
  3
Produkt (-)
  2
$TAG160010
 70
     0
  0
ATTDEF
  5
4A
330
40
100
AcDbEntity
  8
0
370
    25
100
AcDbText
 10
5.486902221679685
 20
258.9500122070312
 30
0
 40
2.449981689453125
  1
13.9
 41
0.9
  7
Caddy_Vectorfont1p
 72
     2
 11
22.78499794006348
 21
258.9500122070312
 31
0
100
AcDbAttributeDefinition
  3
Side/strømvej reference
  2
$TAG160500
 70
     0
  0
ATTDEF
  5
4C
330
40
100
AcDbEntity
  8
0
370
    25
100
AcDbText
 10
29.26500701904297
 20
267.9000244140625
 30
0
 40
2.449981689453125
  1
=
 41
0.9
  7
Caddy_Vectorfont1p
 11
0
 21
0
 31
0
100
AcDbAttributeDefinition
  3
Funktion (=)
  2
$TAG140020
 70
     0
  0
ATTDEF
  5
4E
330
40
100
AcDbEntity
  8
0
370
    25
100
AcDbText
 10
29.26500701904297
 20
264.4000244140625
 30
0
 40
2.449981689453125
  1
+
 41
0.9
  7
Caddy_Vectorfont1p
 11
0
 21
0
 31
0
100
AcDbAttributeDefinition
  3
Placering (+)
  2
$TAG140050
 70
     0
  0
ENDBLK
  5
42
330
40
100
AcDbEntity
  8
0
100
AcDbBlockEnd
  0
BLOCK
  5
50
330
4F
100
AcDbEntity
  8
0
100
AcDbBlockBegin
  2
Blk2
 70
     2
 10
0
 20
0
 30
0
  3
Blk2
  1

  0
LINE
  5
53
330
4F
100
AcDbEntity
  8
0
  6
Caddy_Solid
370
    25
100
AcDbLine
 10
392.5
 20
260
 30
0
 11
390.25
 21
261.25
 31
0
  0
LINE
  5
54
330
4F
100
AcDbEntity
  8
0
  6
Caddy_Solid
370
    25
100
AcDbLine
 10
392.5
 20
260
 30
0
 11
390.25
 21
258.75
 31
0
  0
ATTDEF
  5
57
330
4F
100
AcDbEntity
  8
0
370
    25
100
AcDbText
 10
370.9786803039551
 20
260.9000244140625
 30
0
 40
2.449981689453125
  1
0708
 41
0.9
  7
Caddy_Vectorfont1p
 72
     2
 11
387.7850646972656
 21
260.9000244140625
 31
0
100
AcDbAttributeDefinition
  3
Produkt (-)
  2
$TAG160010
 70
     0
  0
ATTDEF
  5
59
330
4F
100
AcDbEntity
  8
0
370
    25
100
AcDbText
 10
393.3650207519531
 20
258.9500122070312
 30
0
 40
2.449981689453125
  1
17.3
 41
0.9
  7
Caddy_Vectorfont1p
 11
0
 21
0
 31
0
100
AcDbAttributeDefinition
  3
Side/strømvej reference
  2
$TAG160500
 70
     0
  0
ATTDEF
  5
5B
330
4F
100
AcDbEntity
  8
0
370
    25
100
AcDbText
 10
370.2421547729492
 20
267.9000244140625
 30
0
 40
2.449981689453125
  1
=
 41
0.9
  7
Caddy_Vectorfont1p
 72
     2
 11
387.7850036621094
 21
267.9000244140625
 31
0
100
AcDbAttributeDefinition
  3
Funktion (=)
  2
$TAG140020
 70
     0
  0
ATTDEF
  5
5D
330
4F
100
AcDbEntity
  8
0
370
    25
100
AcDbText
 10
370.2421547729492
 20
264.4000244140625
 30
0
 40
2.449981689453125
  1
+
 41
0.9
  7
Caddy_Vectorfont1p
 72
     2
 11
387.7850036621094
 21
264.4000244140625
 31
0
100
AcDbAttributeDefinition
  3
Placering (+)
  2
$TAG140050
 70
     0
  0
ENDBLK
  5
51
330
4F
100
AcDbEntity
  8
0
100
AcDbBlockEnd
  0
BLOCK
  5
61
330
60
100
AcDbEntity
  8
0
100
AcDbBlockBegin
  2
Blk3
 70
     2
 10
0
 20
0
 30
0
  3
Blk3
  1

  0
LINE
  5
64
330
60
100
AcDbEntity
  8
0
  6
Caddy_Solid
370
    25
100
AcDbLine
 10
27.5
 20
255
 30
0
 11
25.25
 21
256.25
 31
0
  0
LINE
  5
65
330
60
100
AcDbEntity
  8
0
  6
Caddy_Solid
370
    25
100
AcDbLine
 10
27.5
 20
255
 30
0
 11
25.25
 21
253.75
 31
0
  0
ATTDEF
  5
68
330
60
100
AcDbEntity
  8
0
370
    25
100
AcDbText
 10
29.26500701904297
 20
255.9000091552734
 30
0
 40
2.449996948242188
  1
0707
 41
0.9
  7
Caddy_Vectorfont1p
 11
0
 21
0
 31
0
100
AcDbAttributeDefinition
  3
Produkt (-)
  2
$TAG160010
 70
     0
  0
ATTDEF
  5
6A
330
60
100
AcDbEntity
  8
0
370
    25
100
AcDbText
 10
5.486794486999514
 20
253.9499969482422
 30
0
 40
2.449996948242188
  1
13.9
 41
0.9
  7
Caddy_Vectorfont1p
 72
     2
 11
22.78499794006348
 21
253.9499969482422
 31
0
100
AcDbAttributeDefinition
  3
Side/strømvej reference
  2
$TAG160500
 70
     0
  0
ATTDEF
  5
6C
330
60
100
AcDbEntity
  8
0
370
    25
100
AcDbText
 10
29.26500701904297
 20
262.9000244140625
 30
0
 40
2.449981689453125
  1
=
 41
0.9
  7
Caddy_Vectorfont1p
 11
0
 21
0
 31
0
100
AcDbAttributeDefinition
  3
Funktion (=)
  2
$TAG140020
 70
     0
  0
ATTDEF
  5
6E
330
60
100
AcDbEntity
  8
0
370
    25
100
AcDbText
 10
29.26500701904297
 20
259.4000244140625
 30
0
 40
2.449981689453125
  1
+
 41
0.9
  7
Caddy_Vectorfont1p
 11
0
 21
0
 31
0
100
AcDbAttributeDefinition
  3
Placering (+)
  2
$TAG140050
 70
     0
  0
ENDBLK
  5
62
330
60
100
AcDbEntity
  8
0
100
AcDbBlockEnd
  0
BLOCK
  5
70
330
6F
100
AcDbEntity
  8
0
100
AcDbBlockBegin
  2
Blk4
 70
     2
 10
0
 20
0
 30
0
  3
Blk4
  1

  0
LINE
  5
73
330
6F
100
AcDbEntity
  8
0
  6
Caddy_Solid
370
    25
100
AcDbLine
 10
392.5
 20
255
 30
0
 11
390.25
 21
256.25
 31
0
  0
LINE
  5
74
330
6F
100
AcDbEntity
  8
0
  6
Caddy_Solid
370
    25
100
AcDbLine
 10
392.5
 20
255
 30
0
 11
390.25
 21
253.75
 31
0
  0
ATTDEF
  5
77
330
6F
100
AcDbEntity
  8
0
370
    25
100
AcDbText
 10
370.9785756317139
 20
255.9000091552734
 30
0
 40
2.449996948242188
  1
0707
 41
0.9
  7
Caddy_Vectorfont1p
 72
     2
 11
387.7850646972656
 21
255.9000091552734
 31
0
100
AcDbAttributeDefinition
  3
Produkt (-)
  2
$TAG160010
 70
     0
  0
ATTDEF
  5
79
330
6F
100
AcDbEntity
  8
0
370
    25
100
AcDbText
 10
393.3650207519531
 20
253.9499969482422
 30
0
 40
2.449996948242188
  1
17.7
 41
0.9
  7
Caddy_Vectorfont1p
 11
0
 21
0
 31
0
100
AcDbAttributeDefinition
  3
Side/strømvej reference
  2
$TAG160500
 70
     0
  0
ATTDEF
  5
7B
330
6F
100
AcDbEntity
  8
0
370
    25
100
AcDbText
 10
370.2421547729492
 20
262.9000244140625
 30
0
 40
2.449981689453125
  1
=
 41
0.9
  7
Caddy_Vectorfont1p
 72
     2
 11
387.7850036621094
 21
262.9000244140625
 31
0
100
AcDbAttributeDefinition
  3
Funktion (=)
  2
$TAG140020
 70
     0
  0
ATTDEF
  5
7D
330
6F
100
AcDbEntity
  8
0
370
    25
100
AcDbText
 10
370.2421547729492
 20
259.4000244140625
 30
0
 40
2.449981689453125
  1
+
 41
0.9
  7
Caddy_Vectorfont1p
 72
     2
 11
387.7850036621094
 21
259.4000244140625
 31
0
100
AcDbAttributeDefinition
  3
Placering (+)
  2
$TAG140050
 70
     0
  0
ENDBLK
  5
71
330
6F
100
AcDbEntity
  8
0
100
AcDbBlockEnd
  0
BLOCK
  5
8B
330
8A
100
AcDbEntity
  8
0
100
AcDbBlockBegin
  2
Blk5
 70
     0
 10
0
 20
0
 30
0
  3
Blk5
  1

  0
INSERT
  5
91
330
8A
100
AcDbEntity
  8
0
100
AcDbBlockReference
  2
Blk6
 10
0
 20
0
 30
1
  0
LINE
  5
AB
330
8A
100
AcDbEntity
  8
0
  6
Caddy_Solid
370
    25
100
AcDbLine
 10
100
 20
138
 30
0
 11
95
 21
148
 31
0
  0
LINE
  5
AC
330
8A
100
AcDbEntity
  8
0
  6
Caddy_Solid
370
    25
100
AcDbLine
 10
95
 20
148
 30
0
 11
140
 21
148
 31
0
  0
LINE
  5
AD
330
8A
100
AcDbEntity
  8
0
  6
Caddy_Solid
370
    25
100
AcDbLine
 10
145
 20
148
 30
0
 11
140
 21
138
 31
0
  0
LINE
  5
AE
330
8A
100
AcDbEntity
  8
0
  6
Caddy_Solid
370
    25
100
AcDbLine
 10
135
 20
138
 30
0
 11
100
 21
138
 31
0
  0
INSERT
  5
B2
330
8A
100
AcDbEntity
  8
0
100
AcDbBlockReference
 66
     1
  2
Blk7
 10
0
 20
0
 30
1
  0
ATTRIB
  5
B7
330
B2
100
AcDbEntity
  8
2
370
    25
100
AcDbText
 10
88.52761354675293
 20
144.3000030517578
 30
0
 40
2.449996948242188
  1
-X17
 41
0.9
  7
Caddy_Vectorfont1p
 72
     2
 11
95.04999542236328
 21
144.3000030517578
 31
0
100
AcDbAttribute
  2
$TAG160010
 70
     0
  0
SEQEND
  5
B8
330
B2
100
AcDbEntity
  8
0
  0
INSERT
  5
C9
330
8A
100
AcDbEntity
  8
0
100
AcDbBlockReference
 66
     1
  2
Blk8
 10
0
 20
0
 30
1
  0
ATTRIB
  5
CD
330
C9
100
AcDbEntity
  8
2
370
    25
100
AcDbText
 10
98.52761354675293
 20
144.3000030517578
 30
0
 40
2.449996948242188
  1
-X17
 41
0.9
  7
Caddy_Vectorfont1p
 72
     2
 11
105.0499954223633
 21
144.3000030517578
 31
0
100
AcDbAttribute
  2
$TAG160010
 70
     0
  0
SEQEND
  5
CE
330
C9
100
AcDbEntity
  8
0
  0
INSERT
  5
DF
330
8A
100
AcDbEntity
  8
0
100
AcDbBlockReference
 66
     1
  2
Blk9
 10
0
 20
0
 30
1
  0
ATTRIB
  5
E3
330
DF
100
AcDbEntity
  8
2
370
    25
100
AcDbText
 10
108.5276135467529
 20
144.3000030517578
 30
0
 40
2.449996948242188
  1
-X17
 41
0.9
  7
Caddy_Vectorfont1p
 72
     2
 11
115.0499954223633
 21
144.3000030517578
 31
0
100
AcDbAttribute
  2
$TAG160010
 70
     0
  0
SEQEND
  5
E4
330
DF
100
AcDbEntity
  8
0
  0
INSERT
  5
F5
330
8A
100
AcDbEntity
  8
0
100
AcDbBlockReference
 66
     1
  2
Blk10
 10
0
 20
0
 30
1
  0
ATTRIB
  5
F9
330
F5
100
AcDbEntity
  8
2
370
    25
100
AcDbText
 10
118.5276135467529
 20
144.3000030517578
 30
0
 40
2.449996948242188
  1
-X17
 41
0.9
  7
Caddy_Vectorfont1p
 72
     2
 11
125.0499954223633
 21
144.3000030517578
 31
0
100
AcDbAttribute
  2
$TAG160010
 70
     0
  0
SEQEND
  5
FA
330
F5
100
AcDbEntity
  8
0
  0
INSERT
  5
10B
330
8A
100
AcDbEntity
  8
0
100
AcDbBlockReference
 66
     1
  2
Blk11
 10
0
 20
0
 30
1
  0
ATTRIB
  5
10F
330
10B
100
AcDbEntity
  8
2
370
    25
100
AcDbText
 10
128.5276364349365
 20
144.3000030517578
 30
0
 40
2.449996948242188
  1
-X17
 41
0.9
  7
Caddy_Vectorfont1p
 72
     2
 11
135.0500183105469
 21
144.3000030517578
 31
0
100
AcDbAttribute
  2
$TAG160010
 70
     0
  0
SEQEND
  5
110
330
10B
100
AcDbEntity
  8
0
  0
LINE
  5
11E
330
8A
100
AcDbEntity
  8
0
  6
Caddy_Solid
370
    25
100
AcDbLine
 10
140
 20
148
 30
0
 11
145
 21
148
 31
0
  0
LINE
  5
11F
330
8A
100
AcDbEntity
  8
0
  6
Caddy_Solid
370
    25
100
AcDbLine
 10
135
 20
138
 30
0
 11
140
 21
138
 31
0
  0
INSERT
  5
123
330
8A
100
AcDbEntity
  8
0
100
AcDbBlockReference
 66
     1
  2
Blk12
 10
0
 20
0
 30
1
  0
ATTRIB
  5
127
330
123
100
AcDbEntity
  8
2
370
    25
100
AcDbText
 10
93.52761354675293
 20
139.3000030517578
 30
0
 40
2.449996948242188
  1
-X17
 41
0.9
  7
Caddy_Vectorfont1p
 72
     2
 11
100.0499954223633
 21
139.3000030517578
 31
0
100
AcDbAttribute
  2
$TAG160010
 70
     0
  0
SEQEND
  5
128
330
123
100
AcDbEntity
  8
0
  0
INSERT
  5
139
330
8A
100
AcDbEntity
  8
0
100
AcDbBlockReference
 66
     1
  2
Blk13
 10
0
 20
0
 30
1
  0
ATTRIB
  5
13D
330
139
100
AcDbEntity
  8
2
370
    25
100
AcDbText
 10
103.5276135467529
 20
139.3000030517578
 30
0
 40
2.449996948242188
  1
-X17
 41
0.9
  7
Caddy_Vectorfont1p
 72
     2
 11
110.0499954223633
 21
139.3000030517578
 31
0
100
AcDbAttribute
  2
$TAG160010
 70
     0
  0
SEQEND
  5
13E
330
139
100
AcDbEntity
  8
0
  0
INSERT
  5
14F
330
8A
100
AcDbEntity
  8
0
100
AcDbBlockReference
 66
     1
  2
Blk14
 10
0
 20
0
 30
1
  0
ATTRIB
  5
153
330
14F
100
AcDbEntity
  8
2
370
    25
100
AcDbText
 10
113.5276135467529
 20
139.3000030517578
 30
0
 40
2.449996948242188
  1
-X17
 41
0.9
  7
Caddy_Vectorfont1p
 72
     2
 11
120.0499954223633
 21
139.3000030517578
 31
0
100
AcDbAttribute
  2
$TAG160010
 70
     0
  0
SEQEND
  5
154
330
14F
100
AcDbEntity
  8
0
  0
INSERT
  5
165
330
8A
100
AcDbEntity
  8
0
100
AcDbBlockReference
 66
     1
  2
Blk15
 10
0
 20
0
 30
1
  0
ATTRIB
  5
169
330
165
100
AcDbEntity
  8
2
370
    25
100
AcDbText
 10
123.5276211761475
 20
139.3000030517578
 30
0
 40
2.449996948242188
  1
-X17
 41
0.9
  7
Caddy_Vectorfont1p
 72
     2
 11
130.0500030517578
 21
139.3000030517578
 31
0
100
AcDbAttribute
  2
$TAG160010
 70
     0
  0
SEQEND
  5
16A
330
165
100
AcDbEntity
  8
0
  0
TEXT
  5
178
330
8A
100
AcDbEntity
  8
0
370
    25
100
AcDbText
 10
98.01000213623047
 20
143.6000061035156
 30
0
 40
2.099990844726562
  1
1
 41
0.9
  7
Caddy_Vectorfont1p
 11
0
 21
0
 31
0
100
AcDbText
  0
TEXT
  5
179
330
8A
100
AcDbEntity
  8
0
370
    25
100
AcDbText
 10
108.0100021362305
 20
143.6000061035156
 30
0
 40
2.099990844726562
  1
2
 41
0.9
  7
Caddy_Vectorfont1p
 11
0
 21
0
 31
0
100
AcDbText
  0
TEXT
  5
17A
330
8A
100
AcDbEntity
  8
0
370
    25
100
AcDbText
 10
118.0100021362305
 20
143.6000061035156
 30
0
 40
2.099990844726562
  1
3
 41
0.9
  7
Caddy_Vectorfont1p
 11
0
 21
0
 31
0
100
AcDbText
  0
TEXT
  5
17B
330
8A
100
AcDbEntity
  8
0
370
    25
100
AcDbText
 10
128.0099945068359
 20
143.6000061035156
 30
0
 40
2.099990844726562
  1
4
 41
0.9
  7
Caddy_Vectorfont1p
 11
0
 21
0
 31
0
100
AcDbText
  0
TEXT
  5
17C
330
8A
100
AcDbEntity
  8
0
370
    25
100
AcDbText
 10
138.0099945068359
 20
143.6000061035156
 30
0
 40
2.099990844726562
  1
5
 41
0.9
  7
Caddy_Vectorfont1p
 11
0
 21
0
 31
0
100
AcDbText
  0
TEXT
  5
17D
330
8A
100
AcDbEntity
  8
0
370
    25
100
AcDbText
 10
103.0100021362305
 20
138.6000061035156
 30
0
 40
2.099990844726562
  1
6
 41
0.9
  7
Caddy_Vectorfont1p
 11
0
 21
0
 31
0
100
AcDbText
  0
TEXT
  5
17E
330
8A
100
AcDbEntity
  8
0
370
    25
100
AcDbText
 10
113.0100021362305
 20
138.6000061035156
 30
0
 40
2.099990844726562
  1
7
 41
0.9
  7
Caddy_Vectorfont1p
 11
0
 21
0
 31
0
100
AcDbText
  0
TEXT
  5
17F
330
8A
100
AcDbEntity
  8
0
370
    25
100
AcDbText
 10
123.0100021362305
 20
138.6000061035156
 30
0
 40
2.099990844726562
  1
8
 41
0.9
  7
Caddy_Vectorfont1p
 11
0
 21
0
 31
0
100
AcDbText
  0
TEXT
  5
180
330
8A
100
AcDbEntity
  8
0
370
    25
100
AcDbText
 10
133.0099945068359
 20
138.6000061035156
 30
0
 40
2.099990844726562
  1
9
 41
0.9
  7
Caddy_Vectorfont1p
 11
0
 21
0
 31
0
100
AcDbText
  0
LINE
  5
181
330
8A
100
AcDbEntity
  8
0
  6
Caddy_Solid
370
    25
100
AcDbLine
 10
100
 20
115
 30
0
 11
100
 21
145
 31
0
  0
LINE
  5
182
330
8A
100
AcDbEntity
  8
0
  6
Caddy_Solid
370
    25
100
AcDbLine
 10
110
 20
120
 30
0
 11
110
 21
145
 31
0
  0
LINE
  5
183
330
8A
100
AcDbEntity
  8
0
  6
Caddy_Solid
370
    25
100
AcDbLine
 10
110
 20
120
 30
0
 11
180
 21
120
 31
0
  0
LINE
  5
184
330
8A
100
AcDbEntity
  8
0
  6
Caddy_Solid
370
    25
100
AcDbLine
 10
120
 20
143
 30
0
 11
120
 21
145
 31
0
  0
LINE
  5
185
330
8A
100
AcDbEntity
  8
0
  6
Caddy_Solid
370
    25
100
AcDbLine
 10
100
 20
115
 30
0
 11
180
 21
115
 31
0
  0
LINE
  5
186
330
8A
100
AcDbEntity
  8
0
  6
Caddy_Solid
370
    25
100
AcDbLine
 10
180
 20
90
 30
0
 11
140
 21
90
 31
0
  0
LINE
  5
187
330
8A
100
AcDbEntity
  8
0
  6
Caddy_Solid
370
    25
100
AcDbLine
 10
76
 20
155
 30
0
 11
85
 21
155
 31
0
  0
INSERT
  5
18B
330
8A
100
AcDbEntity
  8
0
100
AcDbBlockReference
 66
     1
  2
Blk16
 10
0
 20
0
 30
1
  0
ATTRIB
  5
18F
330
18B
100
AcDbEntity
  8
2
370
    25
100
AcDbText
 10
68.52761354675293
 20
191.3000030517578
 30
0
 40
2.449996948242188
  1
-X17
 41
0.9
  7
Caddy_Vectorfont1p
 72
     2
 11
75.04999542236328
 21
191.3000030517578
 31
0
100
AcDbAttribute
  2
$TAG160010
 70
     0
  0
SEQEND
  5
190
330
18B
100
AcDbEntity
  8
0
  0
INSERT
  5
1A1
330
8A
100
AcDbEntity
  8
0
100
AcDbBlockReference
 66
     1
  2
Blk17
 10
0
 20
0
 30
1
  0
ATTRIB
  5
1A5
330
1A1
100
AcDbEntity
  8
2
370
    25
100
AcDbText
 10
73.52761354675293
 20
191.3000030517578
 30
0
 40
2.449996948242188
  1
-X17
 41
0.9
  7
Caddy_Vectorfont1p
 72
     2
 11
80.04999542236328
 21
191.3000030517578
 31
0
100
AcDbAttribute
  2
$TAG160010
 70
     0
  0
SEQEND
  5
1A6
330
1A1
100
AcDbEntity
  8
0
  0
TEXT
  5
1B4
330
8A
100
AcDbEntity
  8
0
370
    25
100
AcDbText
 10
79.01000213623047
 20
185.6000061035156
 30
0
 40
2.099990844726562
  1
+
 41
0.9
  7
Caddy_Vectorfont1p
 11
0
 21
0
 31
0
100
AcDbText
  0
TEXT
  5
1B5
330
8A
100
AcDbEntity
  8
0
370
    25
100
AcDbText
 10
77.59999847412109
 20
171.6000061035156
 30
0
 40
2.099990844726562
  1
24Vdc
 41
0.9
  7
Caddy_Vectorfont1p
 11
0
 21
0
 31
0
100
AcDbText
  0
LINE
  5
1B6
330
8A
100
AcDbEntity
  8
0
  6
Caddy_Solid
370
    25
100
AcDbLine
 10
85
 20
155
 30
0
 11
91
 21
155
 31
0
  0
TEXT
  5
1B7
330
8A
100
AcDbEntity
  8
0
370
    25
100
AcDbText
 10
97.59999847412109
 20
171.6000061035156
 30
0
 40
2.099990844726562
  1
MOXA
 41
0.9
  7
Caddy_Vectorfont1p
 11
0
 21
0
 31
0
100
AcDbText
  0
TEXT
  5
1B8
330
8A
100
AcDbEntity
  8
0
370
    25
100
AcDbText
 10
125.5999984741211
 20
171.6000061035156
 30
0
 40
2.099990844726562
  1
Nport 6110
 41
0.9
  7
Caddy_Vectorfont1p
 11
0
 21
0
 31
0
100
AcDbText
  0
LINE
  5
1B9
330
8A
100
AcDbEntity
  8
0
  6
Caddy_Solid
370
    25
100
AcDbLine
 10
100
 20
155
 30
0
 11
95
 21
165
 31
0
  0
LINE
  5
1BA
330
8A
100
AcDbEntity
  8
0
  6
Caddy_Solid
370
    25
100
AcDbLine
 10
95
 20
165
 30
0
 11
140
 21
165
 31
0
  0
LINE
  5
1BB
330
8A
100
AcDbEntity
  8
0
  6
Caddy_Solid
370
    25
100
AcDbLine
 10
145
 20
165
 30
0
 11
140
 21
155
 31
0
  0
LINE
  5
1BC
330
8A
100
AcDbEntity
  8
0
  6
Caddy_Solid
370
    25
100
AcDbLine
 10
135
 20
155
 30
0
 11
100
 21
155
 31
0
  0
INSERT
  5
1C0
330
8A
100
AcDbEntity
  8
0
100
AcDbBlockReference
 66
     1
  2
Blk18
 10
0
 20
0
 30
1
  0
ATTRIB
  5
1C4
330
1C0
100
AcDbEntity
  8
2
370
    25
100
AcDbText
 10
88.52761354675293
 20
161.3000030517578
 30
0
 40
2.449996948242188
  1
-X17
 41
0.9
  7
Caddy_Vectorfont1p
 72
     2
 11
95.04999542236328
 21
161.3000030517578
 31
0
100
AcDbAttribute
  2
$TAG160010
 70
     0
  0
SEQEND
  5
1C5
330
1C0
100
AcDbEntity
  8
0
  0
INSERT
  5
1D6
330
8A
100
AcDbEntity
  8
0
100
AcDbBlockReference
 66
     1
  2
Blk19
 10
0
 20
0
 30
1
  0
ATTRIB
  5
1DA
330
1D6
100
AcDbEntity
  8
2
370
    25
100
AcDbText
 10
98.52761354675293
 20
161.3000030517578
 30
0
 40
2.449996948242188
  1
-X17
 41
0.9
  7
Caddy_Vectorfont1p
 72
     2
 11
105.0499954223633
 21
161.3000030517578
 31
0
100
AcDbAttribute
  2
$TAG160010
 70
     0
  0
SEQEND
  5
1DB
330
1D6
100
AcDbEntity
  8
0
  0
INSERT
  5
1EC
330
8A
100
AcDbEntity
  8
0
100
AcDbBlockReference
 66
     1
  2
Blk20
 10
0
 20
0
 30
1
  0
ATTRIB
  5
1F0
330
1EC
100
AcDbEntity
  8
2
370
    25
100
AcDbText
 10
108.5276135467529
 20
161.3000030517578
 30
0
 40
2.449996948242188
  1
-X17
 41
0.9
  7
Caddy_Vectorfont1p
 72
     2
 11
115.0499954223633
 21
161.3000030517578
 31
0
100
AcDbAttribute
  2
$TAG160010
 70
     0
  0
SEQEND
  5
1F1
330
1EC
100
AcDbEntity
  8
0
  0
INSERT
  5
202
330
8A
100
AcDbEntity
  8
0
100
AcDbBlockReference
 66
     1
  2
Blk21
 10
0
 20
0
 30
1
  0
ATTRIB
  5
206
330
202
100
AcDbEntity
  8
2
370
    25
100
AcDbText
 10
118.5276135467529
 20
161.3000030517578
 30
0
 40
2.449996948242188
  1
-X17
 41
0.9
  7
Caddy_Vectorfont1p
 72
     2
 11
125.0499954223633
 21
161.3000030517578
 31
0
100
AcDbAttribute
  2
$TAG160010
 70
     0
  0
SEQEND
  5
207
330
202
100
AcDbEntity
  8
0
  0
INSERT
  5
218
330
8A
100
AcDbEntity
  8
0
100
AcDbBlockReference
 66
     1
  2
Blk22
 10
0
 20
0
 30
1
  0
ATTRIB
  5
21C
330
218
100
AcDbEntity
  8
2
370
    25
100
AcDbText
 10
128.5276364349365
 20
161.3000030517578
 30
0
 40
2.449996948242188
  1
-X17
 41
0.9
  7
Caddy_Vectorfont1p
 72
     2
 11
135.0500183105469
 21
161.3000030517578
 31
0
100
AcDbAttribute
  2
$TAG160010
 70
     0
  0
SEQEND
  5
21D
330
218
100
AcDbEntity
  8
0
  0
LINE
  5
22B
330
8A
100
AcDbEntity
  8
0
  6
Caddy_Solid
370
    25
100
AcDbLine
 10
140
 20
165
 30
0
 11
145
 21
165
 31
0
  0
LINE
  5
22C
330
8A
100
AcDbEntity
  8
0
  6
Caddy_Solid
370
    25
100
AcDbLine
 10
135
 20
155
 30
0
 11
140
 21
155
 31
0
  0
INSERT
  5
230
330
8A
100
AcDbEntity
  8
0
100
AcDbBlockReference
 66
     1
  2
Blk23
 10
0
 20
0
 30
1
  0
ATTRIB
  5
234
330
230
100
AcDbEntity
  8
2
370
    25
100
AcDbText
 10
93.52761354675293
 20
156.3000030517578
 30
0
 40
2.449996948242188
  1
-X17
 41
0.9
  7
Caddy_Vectorfont1p
 72
     2
 11
100.0499954223633
 21
156.3000030517578
 31
0
100
AcDbAttribute
  2
$TAG160010
 70
     0
  0
SEQEND
  5
235
330
230
100
AcDbEntity
  8
0
  0
INSERT
  5
246
330
8A
100
AcDbEntity
  8
0
100
AcDbBlockReference
 66
     1
  2
Blk24
 10
0
 20
0
 30
1
  0
ATTRIB
  5
24A
330
246
100
AcDbEntity
  8
2
370
    25
100
AcDbText
 10
103.5276135467529
 20
156.3000030517578
 30
0
 40
2.449996948242188
  1
-X17
 41
0.9
  7
Caddy_Vectorfont1p
 72
     2
 11
110.0499954223633
 21
156.3000030517578
 31
0
100
AcDbAttribute
  2
$TAG160010
 70
     0
  0
SEQEND
  5
24B
330
246
100
AcDbEntity
  8
0
  0
INSERT
  5
25C
330
8A
100
AcDbEntity
  8
0
100
AcDbBlockReference
 66
     1
  2
Blk25
 10
0
 20
0
 30
1
  0
ATTRIB
  5
260
330
25C
100
AcDbEntity
  8
2
370
    25
100
AcDbText
 10
113.5276135467529
 20
156.3000030517578
 30
0
 40
2.449996948242188
  1
-X17
 41
0.9
  7
Caddy_Vectorfont1p
 72
     2
 11
120.0499954223633
 21
156.3000030517578
 31
0
100
AcDbAttribute
  2
$TAG160010
 70
     0
  0
SEQEND
  5
261
330
25C
100
AcDbEntity
  8
0
  0
INSERT
  5
272
330
8A
100
AcDbEntity
  8
0
100
AcDbBlockReference
 66
     1
  2
Blk26
 10
0
 20
0
 30
1
  0
ATTRIB
  5
276
330
272
100
AcDbEntity
  8
2
370
    25
100
AcDbText
 10
123.5276211761475
 20
156.3000030517578
 30
0
 40
2.449996948242188
  1
-X17
 41
0.9
  7
Caddy_Vectorfont1p
 72
     2
 11
130.0500030517578
 21
156.3000030517578
 31
0
100
AcDbAttribute
  2
$TAG160010
 70
     0
  0
SEQEND
  5
277
330
272
100
AcDbEntity
  8
0
  0
TEXT
  5
285
330
8A
100
AcDbEntity
  8
0
370
    25
100
AcDbText
 10
98.01000213623047
 20
160.6000061035156
 30
0
 40
2.099990844726562
  1
1
 41
0.9
  7
Caddy_Vectorfont1p
 11
0
 21
0
 31
0
100
AcDbText
  0
TEXT
  5
286
330
8A
100
AcDbEntity
  8
0
370
    25
100
AcDbText
 10
108.0100021362305
 20
160.6000061035156
 30
0
 40
2.099990844726562
  1
2
 41
0.9
  7
Caddy_Vectorfont1p
 11
0
 21
0
 31
0
100
AcDbText
  0
TEXT
  5
287
330
8A
100
AcDbEntity
  8
0
370
    25
100
AcDbText
 10
118.0100021362305
 20
160.6000061035156
 30
0
 40
2.099990844726562
  1
3
 41
0.9
  7
Caddy_Vectorfont1p
 11
0
 21
0
 31
0
100
AcDbText
  0
TEXT
  5
288
330
8A
100
AcDbEntity
  8
0
370
    25
100
AcDbText
 10
128.0099945068359
 20
160.6000061035156
 30
0
 40
2.099990844726562
  1
4
 41
0.9
  7
Caddy_Vectorfont1p
 11
0
 21
0
 31
0
100
AcDbText
  0
TEXT
  5
289
330
8A
100
AcDbEntity
  8
0
370
    25
100
AcDbText
 10
138.0099945068359
 20
160.6000061035156
 30
0
 40
2.099990844726562
  1
5
 41
0.9
  7
Caddy_Vectorfont1p
 11
0
 21
0
 31
0
100
AcDbText
  0
TEXT
  5
28A
330
8A
100
AcDbEntity
  8
0
370
    25
100
AcDbText
 10
103.0100021362305
 20
155.6000061035156
 30
0
 40
2.099990844726562
  1
6
 41
0.9
  7
Caddy_Vectorfont1p
 11
0
 21
0
 31
0
100
AcDbText
  0
TEXT
  5
28B
330
8A
100
AcDbEntity
  8
0
370
    25
100
AcDbText
 10
113.0100021362305
 20
155.6000061035156
 30
0
 40
2.099990844726562
  1
7
 41
0.9
  7
Caddy_Vectorfont1p
 11
0
 21
0
 31
0
100
AcDbText
  0
TEXT
  5
28C
330
8A
100
AcDbEntity
  8
0
370
    25
100
AcDbText
 10
123.0100021362305
 20
155.6000061035156
 30
0
 40
2.099990844726562
  1
8
 41
0.9
  7
Caddy_Vectorfont1p
 11
0
 21
0
 31
0
100
AcDbText
  0
TEXT
  5
28D
330
8A
100
AcDbEntity
  8
0
370
    25
100
AcDbText
 10
133.0099945068359
 20
155.6000061035156
 30
0
 40
2.099990844726562
  1
9
 41
0.9
  7
Caddy_Vectorfont1p
 11
0
 21
0
 31
0
100
AcDbText
  0
LINE
  5
28E
330
8A
100
AcDbEntity
  8
0
  6
Caddy_Solid
370
    25
100
AcDbLine
 10
95
 20
155
 30
0
 11
100
 21
155
 31
0
  0
LINE
  5
28F
330
8A
100
AcDbEntity
  8
0
  6
Caddy_Solid
370
    25
100
AcDbLine
 10
135
 20
155
 30
0
 11
145
 21
155
 31
0
  0
LINE
  5
290
330
8A
100
AcDbEntity
  8
0
  6
Caddy_Solid
370
    25
100
AcDbLine
 10
95
 20
155
 30
0
 11
90
 21
155
 31
0
  0
LINE
  5
291
330
8A
100
AcDbEntity
  8
0
  6
Caddy_Solid
370
    25
100
AcDbLine
 10
145
 20
155
 30
0
 11
155
 21
155
 31
0
  0
LINE
  5
292
330
8A
100
AcDbEntity
  8
0
  6
Caddy_Solid
370
    25
100
AcDbLine
 10
80
 20
155
 30
0
 11
75
 21
155
 31
0
  0
LINE
  5
293
330
8A
100
AcDbEntity
  8
0
  6
Caddy_Solid
370
    25
100
AcDbLine
 10
75
 20
155
 30
0
 11
75
 21
190
 31
0
  0
LINE
  5
294
330
8A
100
AcDbEntity
  8
0
  6
Caddy_Solid
370
    25
100
AcDbLine
 10
75
 20
190
 30
0
 11
155
 21
190
 31
0
  0
LINE
  5
295
330
8A
100
AcDbEntity
  8
0
  6
Caddy_Solid
370
    25
100
AcDbLine
 10
155
 20
190
 30
0
 11
155
 21
155
 31
0
  0
LINE
  5
296
330
8A
100
AcDbEntity
  8
0
  6
Caddy_Solid
370
    25
100
AcDbLine
 10
90
 20
155
 30
0
 11
90
 21
190
 31
0
  0
TEXT
  5
297
330
8A
100
AcDbEntity
  8
0
370
    25
100
AcDbText
 10
124.5999984741211
 20
184.6000061035156
 30
0
 40
2.099990844726562
  1
Ethernet
 41
0.9
  7
Caddy_Vectorfont1p
 11
0
 21
0
 31
0
100
AcDbText
  0
HATCH
  5
298
330
8A
100
AcDbEntity
  8
0
100
AcDbHatch
 10
0
 20
0
 30
0
210
0
220
0
230
1
  2
SOLID
 70
     1
 71
     0
 91
        1
 92
        3
 72
     0
 73
     1
 93
        9
 10
195
 20
99.90000915527344
 10
195
 20
108.9000091552734
 10
200
 20
108.9000091552734
 10
200
 20
105.9000091552734
 10
201
 20
105.9000091552734
 10
201
 20
102.9000091552734
 10
200
 20
102.9000091552734
 10
200
 20
101.9000091552734
 10
200
 20
99.90000915527344
 97
        0
 75
     0
 76
     1
 98
        0
  0
TEXT
  5
299
330
8A
100
AcDbEntity
  8
0
370
    25
100
AcDbText
 10
180.6000061035156
 20
119.3999938964844
 30
0
 40
2.099998474121094
  1
1
 50
270
 41
0.9
  7
Caddy_Vectorfont1p
 11
0
 21
0
 31
0
100
AcDbText
  0
TEXT
  5
29A
330
8A
100
AcDbEntity
  8
0
370
    25
100
AcDbText
 10
180.6000061035156
 20
114.3999938964844
 30
0
 40
2.099998474121094
  1
2
 50
270
 41
0.9
  7
Caddy_Vectorfont1p
 11
0
 21
0
 31
0
100
AcDbText
  0
TEXT
  5
29B
330
8A
100
AcDbEntity
  8
0
370
    25
100
AcDbText
 10
180.6000061035156
 20
109.3999938964844
 30
0
 40
2.099998474121094
  1
3
 50
270
 41
0.9
  7
Caddy_Vectorfont1p
 11
0
 21
0
 31
0
100
AcDbText
  0
TEXT
  5
29C
330
8A
100
AcDbEntity
  8
0
370
    25
100
AcDbText
 10
180.6000061035156
 20
104.3999938964844
 30
0
 40
2.099998474121094
  1
4
 50
270
 41
0.9
  7
Caddy_Vectorfont1p
 11
0
 21
0
 31
0
100
AcDbText
  0
TEXT
  5
29D
330
8A
100
AcDbEntity
  8
0
370
    25
100
AcDbText
 10
180.6000061035156
 20
99.39999389648438
 30
0
 40
2.099998474121094
  1
5
 50
270
 41
0.9
  7
Caddy_Vectorfont1p
 11
0
 21
0
 31
0
100
AcDbText
  0
TEXT
  5
29E
330
8A
100
AcDbEntity
  8
0
370
    25
100
AcDbText
 10
180.6000061035156
 20
94.39999389648438
 30
0
 40
2.099998474121094
  1
6
 50
270
 41
0.9
  7
Caddy_Vectorfont1p
 11
0
 21
0
 31
0
100
AcDbText
  0
TEXT
  5
29F
330
8A
100
AcDbEntity
  8
0
370
    25
100
AcDbText
 10
180.6000061035156
 20
89.39999389648438
 30
0
 40
2.099998474121094
  1
7
 50
270
 41
0.9
  7
Caddy_Vectorfont1p
 11
0
 21
0
 31
0
100
AcDbText
  0
TEXT
  5
2A0
330
8A
100
AcDbEntity
  8
0
370
    25
100
AcDbText
 10
180.6000061035156
 20
84.39999389648438
 30
0
 40
2.099998474121094
  1
8
 50
270
 41
0.9
  7
Caddy_Vectorfont1p
 11
0
 21
0
 31
0
100
AcDbText
  0
LINE
  5
2A1
330
8A
100
AcDbEntity
  8
0
  6
Caddy_Solid
370
    25
100
AcDbLine
 10
140
 20
90
 30
0
 11
140
 21
145
 31
0
  0
CIRCLE
  5
2A2
330
8A
100
AcDbEntity
  8
0
  6
Caddy_Solid
370
    25
100
AcDbCircle
 10
179.4000244140625
 20
120
 30
0
 40
0.79998779296875
  0
CIRCLE
  5
2A3
330
8A
100
AcDbEntity
  8
0
  6
Caddy_Solid
370
    25
100
AcDbCircle
 10
179.5000305175781
 20
115
 30
0
 40
0.79998779296875
  0
CIRCLE
  5
2A4
330
8A
100
AcDbEntity
  8
0
  6
Caddy_Solid
370
    25
100
AcDbCircle
 10
179.5000305175781
 20
109.8000183105469
 30
0
 40
0.79998779296875
  0
CIRCLE
  5
2A5
330
8A
100
AcDbEntity
  8
0
  6
Caddy_Solid
370
    25
100
AcDbCircle
 10
179.5000305175781
 20
104.8000183105469
 30
0
 40
0.79998779296875
  0
CIRCLE
  5
2A6
330
8A
100
AcDbEntity
  8
0
  6
Caddy_Solid
370
    25
100
AcDbCircle
 10
179.5000305175781
 20
100.2000122070312
 30
0
 40
0.79998779296875
  0
CIRCLE
  5
2A7
330
8A
100
AcDbEntity
  8
0
  6
Caddy_Solid
370
    25
100
AcDbCircle
 10
179.5000305175781
 20
95.30001831054688
 30
0
 40
0.79998779296875
  0
CIRCLE
  5
2A8
330
8A
100
AcDbEntity
  8
0
  6
Caddy_Solid
370
    25
100
AcDbCircle
 10
179.5000305175781
 20
90
 30
0
 40
0.79998779296875
  0
CIRCLE
  5
2A9
330
8A
100
AcDbEntity
  8
0
  6
Caddy_Solid
370
    25
100
AcDbCircle
 10
179.5000305175781
 20
85.10000610351562
 30
0
 40
0.79998779296875
  0
LINE
  5
2AA
330
8A
100
AcDbEntity
  8
0
  6
Caddy_Solid
370
    25
100
AcDbLine
 10
180
 20
120
 30
0
 11
189
 21
120
 31
0
  0
LINE
  5
2AB
330
8A
100
AcDbEntity
  8
0
  6
Caddy_Solid
370
    25
100
AcDbLine
 10
189
 20
120
 30
0
 11
189
 21
108
 31
0
  0
LINE
  5
2AC
330
8A
100
AcDbEntity
  8
0
  6
Caddy_Solid
370
    25
100
AcDbLine
 10
189
 20
108
 30
0
 11
191
 21
108
 31
0
  0
LINE
  5
2AD
330
8A
100
AcDbEntity
  8
0
  6
Caddy_Solid
370
    25
100
AcDbLine
 10
180
 20
115
 30
0
 11
187
 21
115
 31
0
  0
LINE
  5
2AE
330
8A
100
AcDbEntity
  8
0
  6
Caddy_Solid
370
    25
100
AcDbLine
 10
188
 20
115
 30
0
 11
188
 21
107
 31
0
  0
LINE
  5
2AF
330
8A
100
AcDbEntity
  8
0
  6
Caddy_Solid
370
    25
100
AcDbLine
 10
187
 20
115
 30
0
 11
188
 21
115
 31
0
  0
LINE
  5
2B0
330
8A
100
AcDbEntity
  8
0
  6
Caddy_Solid
370
    25
100
AcDbLine
 10
188
 20
107
 30
0
 11
191
 21
107
 31
0
  0
LINE
  5
2B1
330
8A
100
AcDbEntity
  8
0
  6
Caddy_Solid
370
    25
100
AcDbLine
 10
180
 20
110
 30
0
 11
187
 21
110
 31
0
  0
LINE
  5
2B2
330
8A
100
AcDbEntity
  8
0
  6
Caddy_Solid
370
    25
100
AcDbLine
 10
187
 20
110
 30
0
 11
187
 21
106
 31
0
  0
LINE
  5
2B3
330
8A
100
AcDbEntity
  8
0
  6
Caddy_Solid
370
    25
100
AcDbLine
 10
187
 20
106
 30
0
 11
191
 21
106
 31
0
  0
LINE
  5
2B4
330
8A
100
AcDbEntity
  8
0
  6
Caddy_Solid
370
    25
100
AcDbLine
 10
180
 20
105
 30
0
 11
191
 21
105
 31
0
  0
LINE
  5
2B5
330
8A
100
AcDbEntity
  8
0
  6
Caddy_Solid
370
    25
100
AcDbLine
 10
180
 20
100
 30
0
 11
187
 21
100
 31
0
  0
LINE
  5
2B6
330
8A
100
AcDbEntity
  8
0
  6
Caddy_Solid
370
    25
100
AcDbLine
 10
187
 20
100
 30
0
 11
187
 21
104
 31
0
  0
LINE
  5
2B7
330
8A
100
AcDbEntity
  8
0
  6
Caddy_Solid
370
    25
100
AcDbLine
 10
187
 20
104
 30
0
 11
191
 21
104
 31
0
  0
LINE
  5
2B8
330
8A
100
AcDbEntity
  8
0
  6
Caddy_Solid
370
    25
100
AcDbLine
 10
180
 20
95.5
 30
0
 11
188
 21
95.5
 31
0
  0
LINE
  5
2B9
330
8A
100
AcDbEntity
  8
0
  6
Caddy_Solid
370
    25
100
AcDbLine
 10
188
 20
95.5
 30
0
 11
188
 21
103
 31
0
  0
LINE
  5
2BA
330
8A
100
AcDbEntity
  8
0
  6
Caddy_Solid
370
    25
100
AcDbLine
 10
188
 20
103
 30
0
 11
191
 21
103
 31
0
  0
LINE
  5
2BB
330
8A
100
AcDbEntity
  8
0
  6
Caddy_Solid
370
    25
100
AcDbLine
 10
180
 20
90
 30
0
 11
189
 21
90
 31
0
  0
LINE
  5
2BC
330
8A
100
AcDbEntity
  8
0
  6
Caddy_Solid
370
    25
100
AcDbLine
 10
189
 20
90
 30
0
 11
189
 21
102
 31
0
  0
LINE
  5
2BD
330
8A
100
AcDbEntity
  8
0
  6
Caddy_Solid
370
    25
100
AcDbLine
 10
189
 20
102
 30
0
 11
191
 21
102
 31
0
  0
LINE
  5
2BE
330
8A
100
AcDbEntity
  8
0
  6
Caddy_Solid
370
    25
100
AcDbLine
 10
180
 20
85
 30
0
 11
190
 21
85
 31
0
  0
LINE
  5
2BF
330
8A
100
AcDbEntity
  8
0
  6
Caddy_Solid
370
    25
100
AcDbLine
 10
190
 20
85
 30
0
 11
190
 21
101
 31
0
  0
LINE
  5
2C0
330
8A
100
AcDbEntity
  8
0
  6
Caddy_Solid
370
    25
100
AcDbLine
 10
190
 20
101
 30
0
 11
191
 21
101
 31
0
  0
LINE
  5
2C1
330
8A
100
AcDbEntity
  8
0
  6
Caddy_Solid
370
    25
100
AcDbLine
 10
190.5
 20
108
 30
0
 11
195
 21
108
 31
0
  0
LINE
  5
2C2
330
8A
100
AcDbEntity
  8
0
  6
Caddy_Solid
370
    25
100
AcDbLine
 10
191
 20
107
 30
0
 11
195
 21
107
 31
0
  0
LINE
  5
2C3
330
8A
100
AcDbEntity
  8
0
  6
Caddy_Solid
370
    25
100
AcDbLine
 10
191
 20
106
 30
0
 11
195
 21
106
 31
0
  0
LINE
  5
2C4
330
8A
100
AcDbEntity
  8
0
  6
Caddy_Solid
370
    25
100
AcDbLine
 10
190.5
 20
105
 30
0
 11
195
 21
105
 31
0
  0
LINE
  5
2C5
330
8A
100
AcDbEntity
  8
0
  6
Caddy_Solid
370
    25
100
AcDbLine
 10
191
 20
104
 30
0
 11
195
 21
104
 31
0
  0
LINE
  5
2C6
330
8A
100
AcDbEntity
  8
0
  6
Caddy_Solid
370
    25
100
AcDbLine
 10
191
 20
103
 30
0
 11
195
 21
103
 31
0
  0
LINE
  5
2C7
330
8A
100
AcDbEntity
  8
0
  6
Caddy_Solid
370
    25
100
AcDbLine
 10
190.5
 20
102
 30
0
 11
195
 21
102
 31
0
  0
LINE
  5
2C8
330
8A
100
AcDbEntity
  8
0
  6
Caddy_Solid
370
    25
100
AcDbLine
 10
191
 20
101
 30
0
 11
195
 21
101
 31
0
  0
TEXT
  5
2C9
330
8A
100
AcDbEntity
  8
0
370
    25
100
AcDbText
 10
84.01000213623047
 20
185.6000061035156
 30
0
 40
2.099990844726562
  1
-
 41
0.9
  7
Caddy_Vectorfont1p
 11
0
 21
0
 31
0
100
AcDbText
  0
ENDBLK
  5
8C
330
8A
100
AcDbEntity
  8
0
100
AcDbBlockEnd
  0
BLOCK
  5
DD
330
DC
100
AcDbEntity
  8
0
100
AcDbBlockBegin
  2
Blk9
 70
     2
 10
0
 20
0
 30
0
  3
Blk9
  1

  0
CIRCLE
  5
E0
330
DC
100
AcDbEntity
  8
0
  6
Caddy_Solid
370
    25
100
AcDbCircle
 10
120
 20
145.5
 30
0
 40
0.75
  0
LINE
  5
E1
330
DC
100
AcDbEntity
  8
0
  6
Caddy_Solid
370
    25
100
AcDbLine
 10
120
 20
146.25
 30
0
 11
120
 21
148
 31
0
  0
LINE
  5
E2
330
DC
100
AcDbEntity
  8
0
  6
Caddy_Solid
370
    25
100
AcDbLine
 10
120
 20
143
 30
0
 11
120
 21
144.75
 31
0
  0
ATTDEF
  5
E5
330
DC
100
AcDbEntity
  8
2
370
    25
100
AcDbText
 10
98.24350635681152
 20
144.3000030517578
 30
0
 40
2.449996948242188
  1
-X17
 41
0.9
  7
Caddy_Vectorfont1p
 72
     2
 11
115.0499954223633
 21
144.3000030517578
 31
0
100
AcDbAttributeDefinition
  3
Produkt (-)
  2
$TAG160010
 70
     0
  0
ATTDEF
  5
E7
330
DC
100
AcDbEntity
  8
2
370
    25
100
AcDbText
 10
119.0999908447266
 20
147.1999969482422
 30
0
 40
2.449996948242188
  1
36
 50
90
 41
0.9
  7
Caddy_Vectorfont1p
 11
0
 21
0
 31
0
100
AcDbAttributeDefinition
  3
Klemmenummer
  2
$TAG160400
 70
     0
  0
ATTDEF
  5
E9
330
DC
100
AcDbEntity
  8
0
370
    25
100
AcDbText
 10
122.5999908447266
 20
147.1999969482422
 30
0
 40
2.449996948242188
  1
1911778
 50
90
 41
0.9
  7
Caddy_Vectorfont1p
 11
0
 21
0
 31
0
100
AcDbAttributeDefinition
  3
Sorteringsindeks
  2
$TAG160410
 70
     0
  0
ATTDEF
  5
EB
330
DC
100
AcDbEntity
  8
2
370
    25
100
AcDbText
 10
97.75179196929932
 20
140.8000030517578
 30
0
 40
2.449996948242188
  1

 41
0.9
  7
Caddy_Vectorfont1p
 72
     2
 11
115.0499954223633
 21
140.8000030517578
 31
0
100
AcDbAttributeDefinition
  3
Beskrivelse 00
  2
$TAG160030
 70
     0
  0
ATTDEF
  5
ED
330
DC
100
AcDbEntity
  8
2
370
    25
100
AcDbText
 10
97.50706016235353
 20
135.8000030517578
 30
0
 40
2.449996948242188
  1
AB1RR235U2GR
 41
0.9
  7
Caddy_Vectorfont1p
 72
     2
 11
115.0500183105469
 21
135.8000030517578
 31
0
100
AcDbAttributeDefinition
  3
Type
  2
$TAG160040
 70
     0
  0
ATTDEF
  5
EF
330
DC
100
AcDbEntity
  8
2
370
    25
100
AcDbText
 10
97.50704490356446
 20
151.3000030517578
 30
0
 40
2.449996948242188
  1
=
 41
0.9
  7
Caddy_Vectorfont1p
 72
     2
 11
115.0500030517578
 21
151.3000030517578
 31
0
100
AcDbAttributeDefinition
  3
Funktion (=)
  2
$TAG140020
 70
     0
  0
ATTDEF
  5
F1
330
DC
100
AcDbEntity
  8
2
370
    25
100
AcDbText
 10
97.50703727416993
 20
147.8000030517578
 30
0
 40
2.449996948242188
  1
+
 41
0.9
  7
Caddy_Vectorfont1p
 72
     2
 11
115.0499954223633
 21
147.8000030517578
 31
0
100
AcDbAttributeDefinition
  3
Placering (+)
  2
$TAG140050
 70
     0
  0
ENDBLK
  5
DE
330
DC
100
AcDbEntity
  8
0
100
AcDbBlockEnd
  0
BLOCK
  5
F3
330
F2
100
AcDbEntity
  8
0
100
AcDbBlockBegin
  2
Blk10
 70
     2
 10
0
 20
0
 30
0
  3
Blk10
  1

  0
CIRCLE
  5
F6
330
F2
100
AcDbEntity
  8
0
  6
Caddy_Solid
370
    25
100
AcDbCircle
 10
130
 20
145.5
 30
0
 40
0.75
  0
LINE
  5
F7
330
F2
100
AcDbEntity
  8
0
  6
Caddy_Solid
370
    25
100
AcDbLine
 10
130
 20
146.25
 30
0
 11
130
 21
148
 31
0
  0
LINE
  5
F8
330
F2
100
AcDbEntity
  8
0
  6
Caddy_Solid
370
    25
100
AcDbLine
 10
130
 20
143
 30
0
 11
130
 21
144.75
 31
0
  0
ATTDEF
  5
FB
330
F2
100
AcDbEntity
  8
2
370
    25
100
AcDbText
 10
108.2435063568115
 20
144.3000030517578
 30
0
 40
2.449996948242188
  1
-X17
 41
0.9
  7
Caddy_Vectorfont1p
 72
     2
 11
125.0499954223633
 21
144.3000030517578
 31
0
100
AcDbAttributeDefinition
  3
Produkt (-)
  2
$TAG160010
 70
     0
  0
ATTDEF
  5
FD
330
F2
100
AcDbEntity
  8
2
370
    25
100
AcDbText
 10
129.0999908447266
 20
147.1999969482422
 30
0
 40
2.449996948242188
  1
37
 50
90
 41
0.9
  7
Caddy_Vectorfont1p
 11
0
 21
0
 31
0
100
AcDbAttributeDefinition
  3
Klemmenummer
  2
$TAG160400
 70
     0
  0
ATTDEF
  5
FF
330
F2
100
AcDbEntity
  8
0
370
    25
100
AcDbText
 10
132.5999908447266
 20
147.1999969482422
 30
0
 40
2.449996948242188
  1
1911779
 50
90
 41
0.9
  7
Caddy_Vectorfont1p
 11
0
 21
0
 31
0
100
AcDbAttributeDefinition
  3
Sorteringsindeks
  2
$TAG160410
 70
     0
  0
ATTDEF
  5
101
330
F2
100
AcDbEntity
  8
2
370
    25
100
AcDbText
 10
107.7517919692993
 20
140.8000030517578
 30
0
 40
2.449996948242188
  1

 41
0.9
  7
Caddy_Vectorfont1p
 72
     2
 11
125.0499954223633
 21
140.8000030517578
 31
0
100
AcDbAttributeDefinition
  3
Beskrivelse 00
  2
$TAG160030
 70
     0
  0
ATTDEF
  5
103
330
F2
100
AcDbEntity
  8
2
370
    25
100
AcDbText
 10
107.5070601623535
 20
135.8000030517578
 30
0
 40
2.449996948242188
  1
AB1RR235U2GR
 41
0.9
  7
Caddy_Vectorfont1p
 72
     2
 11
125.0500183105469
 21
135.8000030517578
 31
0
100
AcDbAttributeDefinition
  3
Type
  2
$TAG160040
 70
     0
  0
ATTDEF
  5
105
330
F2
100
AcDbEntity
  8
2
370
    25
100
AcDbText
 10
107.5070449035645
 20
151.3000030517578
 30
0
 40
2.449996948242188
  1
=
 41
0.9
  7
Caddy_Vectorfont1p
 72
     2
 11
125.0500030517578
 21
151.3000030517578
 31
0
100
AcDbAttributeDefinition
  3
Funktion (=)
  2
$TAG140020
 70
     0
  0
ATTDEF
  5
107
330
F2
100
AcDbEntity
  8
2
370
    25
100
AcDbText
 10
107.5070372741699
 20
147.8000030517578
 30
0
 40
2.449996948242188
  1
+
 41
0.9
  7
Caddy_Vectorfont1p
 72
     2
 11
125.0499954223633
 21
147.8000030517578
 31
0
100
AcDbAttributeDefinition
  3
Placering (+)
  2
$TAG140050
 70
     0
  0
ENDBLK
  5
F4
330
F2
100
AcDbEntity
  8
0
100
AcDbBlockEnd
  0
BLOCK
  5
109
330
108
100
AcDbEntity
  8
0
100
AcDbBlockBegin
  2
Blk11
 70
     2
 10
0
 20
0
 30
0
  3
Blk11
  1

  0
CIRCLE
  5
10C
330
108
100
AcDbEntity
  8
0
  6
Caddy_Solid
370
    25
100
AcDbCircle
 10
140
 20
145.5
 30
0
 40
0.75
  0
LINE
  5
10D
330
108
100
AcDbEntity
  8
0
  6
Caddy_Solid
370
    25
100
AcDbLine
 10
140
 20
146.25
 30
0
 11
140
 21
148
 31
0
  0
LINE
  5
10E
330
108
100
AcDbEntity
  8
0
  6
Caddy_Solid
370
    25
100
AcDbLine
 10
140
 20
143
 30
0
 11
140
 21
144.75
 31
0
  0
ATTDEF
  5
111
330
108
100
AcDbEntity
  8
2
370
    25
100
AcDbText
 10
118.2435292449951
 20
144.3000030517578
 30
0
 40
2.449996948242188
  1
-X17
 41
0.9
  7
Caddy_Vectorfont1p
 72
     2
 11
135.0500183105469
 21
144.3000030517578
 31
0
100
AcDbAttributeDefinition
  3
Produkt (-)
  2
$TAG160010
 70
     0
  0
ATTDEF
  5
113
330
108
100
AcDbEntity
  8
2
370
    25
100
AcDbText
 10
139.0999908447266
 20
147.1999969482422
 30
0
 40
2.449996948242188
  1
31
 50
90
 41
0.9
  7
Caddy_Vectorfont1p
 11
0
 21
0
 31
0
100
AcDbAttributeDefinition
  3
Klemmenummer
  2
$TAG160400
 70
     0
  0
ATTDEF
  5
115
330
108
100
AcDbEntity
  8
0
370
    25
100
AcDbText
 10
142.5999908447266
 20
147.1999969482422
 30
0
 40
2.449996948242188
  1
1911773
 50
90
 41
0.9
  7
Caddy_Vectorfont1p
 11
0
 21
0
 31
0
100
AcDbAttributeDefinition
  3
Sorteringsindeks
  2
$TAG160410
 70
     0
  0
ATTDEF
  5
117
330
108
100
AcDbEntity
  8
2
370
    25
100
AcDbText
 10
117.7517995986939
 20
140.8000030517578
 30
0
 40
2.449996948242188
  1

 41
0.9
  7
Caddy_Vectorfont1p
 72
     2
 11
135.0500030517578
 21
140.8000030517578
 31
0
100
AcDbAttributeDefinition
  3
Beskrivelse 00
  2
$TAG160030
 70
     0
  0
ATTDEF
  5
119
330
108
100
AcDbEntity
  8
2
370
    25
100
AcDbText
 10
117.5070601623535
 20
135.8000030517578
 30
0
 40
2.449996948242188
  1
AB1RR235U2GR
 41
0.9
  7
Caddy_Vectorfont1p
 72
     2
 11
135.0500183105469
 21
135.8000030517578
 31
0
100
AcDbAttributeDefinition
  3
Type
  2
$TAG160040
 70
     0
  0
ATTDEF
  5
11B
330
108
100
AcDbEntity
  8
2
370
    25
100
AcDbText
 10
117.5070449035645
 20
151.3000030517578
 30
0
 40
2.449996948242188
  1
=
 41
0.9
  7
Caddy_Vectorfont1p
 72
     2
 11
135.0500030517578
 21
151.3000030517578
 31
0
100
AcDbAttributeDefinition
  3
Funktion (=)
  2
$TAG140020
 70
     0
  0
ATTDEF
  5
11D
330
108
100
AcDbEntity
  8
2
370
    25
100
AcDbText
 10
117.5070296447754
 20
147.8000030517578
 30
0
 40
2.449996948242188
  1
+
 41
0.9
  7
Caddy_Vectorfont1p
 72
     2
 11
135.0499877929688
 21
147.8000030517578
 31
0
100
AcDbAttributeDefinition
  3
Placering (+)
  2
$TAG140050
 70
     0
  0
ENDBLK
  5
10A
330
108
100
AcDbEntity
  8
0
100
AcDbBlockEnd
  0
BLOCK
  5
121
330
120
100
AcDbEntity
  8
0
100
AcDbBlockBegin
  2
Blk12
 70
     2
 10
0
 20
0
 30
0
  3
Blk12
  1

  0
CIRCLE
  5
124
330
120
100
AcDbEntity
  8
0
  6
Caddy_Solid
370
    25
100
AcDbCircle
 10
105
 20
140.5
 30
0
 40
0.75
  0
LINE
  5
125
330
120
100
AcDbEntity
  8
0
  6
Caddy_Solid
370
    25
100
AcDbLine
 10
105
 20
141.25
 30
0
 11
105
 21
143
 31
0
  0
LINE
  5
126
330
120
100
AcDbEntity
  8
0
  6
Caddy_Solid
370
    25
100
AcDbLine
 10
105
 20
138
 30
0
 11
105
 21
139.75
 31
0
  0
ATTDEF
  5
129
330
120
100
AcDbEntity
  8
2
370
    25
100
AcDbText
 10
83.24350635681152
 20
139.3000030517578
 30
0
 40
2.449996948242188
  1
-X17
 41
0.9
  7
Caddy_Vectorfont1p
 72
     2
 11
100.0499954223633
 21
139.3000030517578
 31
0
100
AcDbAttributeDefinition
  3
Produkt (-)
  2
$TAG160010
 70
     0
  0
ATTDEF
  5
12B
330
120
100
AcDbEntity
  8
2
370
    25
100
AcDbText
 10
104.0999908447266
 20
142.1999969482422
 30
0
 40
2.449996948242188
  1
38
 50
90
 41
0.9
  7
Caddy_Vectorfont1p
 11
0
 21
0
 31
0
100
AcDbAttributeDefinition
  3
Klemmenummer
  2
$TAG160400
 70
     0
  0
ATTDEF
  5
12D
330
120
100
AcDbEntity
  8
0
370
    25
100
AcDbText
 10
107.5999908447266
 20
142.1999969482422
 30
0
 40
2.449996948242188
  1
1911780
 50
90
 41
0.9
  7
Caddy_Vectorfont1p
 11
0
 21
0
 31
0
100
AcDbAttributeDefinition
  3
Sorteringsindeks
  2
$TAG160410
 70
     0
  0
ATTDEF
  5
12F
330
120
100
AcDbEntity
  8
2
370
    25
100
AcDbText
 10
82.75179196929932
 20
135.8000030517578
 30
0
 40
2.449996948242188
  1

 41
0.9
  7
Caddy_Vectorfont1p
 72
     2
 11
100.0499954223633
 21
135.8000030517578
 31
0
100
AcDbAttributeDefinition
  3
Beskrivelse 00
  2
$TAG160030
 70
     0
  0
ATTDEF
  5
131
330
120
100
AcDbEntity
  8
2
370
    25
100
AcDbText
 10
82.50706016235353
 20
130.8000030517578
 30
0
 40
2.449996948242188
  1
AB1RR235U2GR
 41
0.9
  7
Caddy_Vectorfont1p
 72
     2
 11
100.0500183105469
 21
130.8000030517578
 31
0
100
AcDbAttributeDefinition
  3
Type
  2
$TAG160040
 70
     0
  0
ATTDEF
  5
133
330
120
100
AcDbEntity
  8
2
370
    25
100
AcDbText
 10
82.50704490356446
 20
146.3000030517578
 30
0
 40
2.449996948242188
  1
=
 41
0.9
  7
Caddy_Vectorfont1p
 72
     2
 11
100.0500030517578
 21
146.3000030517578
 31
0
100
AcDbAttributeDefinition
  3
Funktion (=)
  2
$TAG140020
 70
     0
  0
ATTDEF
  5
135
330
120
100
AcDbEntity
  8
2
370
    25
100
AcDbText
 10
82.50703727416993
 20
142.8000030517578
 30
0
 40
2.449996948242188
  1
+
 41
0.9
  7
Caddy_Vectorfont1p
 72
     2
 11
100.0499954223633
 21
142.8000030517578
 31
0
100
AcDbAttributeDefinition
  3
Placering (+)
  2
$TAG140050
 70
     0
  0
ENDBLK
  5
122
330
120
100
AcDbEntity
  8
0
100
AcDbBlockEnd
  0
BLOCK
  5
137
330
136
100
AcDbEntity
  8
0
100
AcDbBlockBegin
  2
Blk13
 70
     2
 10
0
 20
0
 30
0
  3
Blk13
  1

  0
CIRCLE
  5
13A
330
136
100
AcDbEntity
  8
0
  6
Caddy_Solid
370
    25
100
AcDbCircle
 10
115
 20
140.5
 30
0
 40
0.75
  0
LINE
  5
13B
330
136
100
AcDbEntity
  8
0
  6
Caddy_Solid
370
    25
100
AcDbLine
 10
115
 20
141.25
 30
0
 11
115
 21
143
 31
0
  0
LINE
  5
13C
330
136
100
AcDbEntity
  8
0
  6
Caddy_Solid
370
    25
100
AcDbLine
 10
115
 20
138
 30
0
 11
115
 21
139.75
 31
0
  0
ATTDEF
  5
13F
330
136
100
AcDbEntity
  8
2
370
    25
100
AcDbText
 10
93.24350635681152
 20
139.3000030517578
 30
0
 40
2.449996948242188
  1
-X17
 41
0.9
  7
Caddy_Vectorfont1p
 72
     2
 11
110.0499954223633
 21
139.3000030517578
 31
0
100
AcDbAttributeDefinition
  3
Produkt (-)
  2
$TAG160010
 70
     0
  0
ATTDEF
  5
141
330
136
100
AcDbEntity
  8
2
370
    25
100
AcDbText
 10
114.0999908447266
 20
142.1999969482422
 30
0
 40
2.449996948242188
  1
39
 50
90
 41
0.9
  7
Caddy_Vectorfont1p
 11
0
 21
0
 31
0
100
AcDbAttributeDefinition
  3
Klemmenummer
  2
$TAG160400
 70
     0
  0
ATTDEF
  5
143
330
136
100
AcDbEntity
  8
0
370
    25
100
AcDbText
 10
117.5999908447266
 20
142.1999969482422
 30
0
 40
2.449996948242188
  1
1911781
 50
90
 41
0.9
  7
Caddy_Vectorfont1p
 11
0
 21
0
 31
0
100
AcDbAttributeDefinition
  3
Sorteringsindeks
  2
$TAG160410
 70
     0
  0
ATTDEF
  5
145
330
136
100
AcDbEntity
  8
2
370
    25
100
AcDbText
 10
92.75179196929932
 20
135.8000030517578
 30
0
 40
2.449996948242188
  1

 41
0.9
  7
Caddy_Vectorfont1p
 72
     2
 11
110.0499954223633
 21
135.8000030517578
 31
0
100
AcDbAttributeDefinition
  3
Beskrivelse 00
  2
$TAG160030
 70
     0
  0
ATTDEF
  5
147
330
136
100
AcDbEntity
  8
2
370
    25
100
AcDbText
 10
92.50706016235353
 20
130.8000030517578
 30
0
 40
2.449996948242188
  1
AB1RR235U2GR
 41
0.9
  7
Caddy_Vectorfont1p
 72
     2
 11
110.0500183105469
 21
130.8000030517578
 31
0
100
AcDbAttributeDefinition
  3
Type
  2
$TAG160040
 70
     0
  0
ATTDEF
  5
149
330
136
100
AcDbEntity
  8
2
370
    25
100
AcDbText
 10
92.50704490356446
 20
146.3000030517578
 30
0
 40
2.449996948242188
  1
=
 41
0.9
  7
Caddy_Vectorfont1p
 72
     2
 11
110.0500030517578
 21
146.3000030517578
 31
0
100
AcDbAttributeDefinition
  3
Funktion (=)
  2
$TAG140020
 70
     0
  0
ATTDEF
  5
14B
330
136
100
AcDbEntity
  8
2
370
    25
100
AcDbText
 10
92.50703727416993
 20
142.8000030517578
 30
0
 40
2.449996948242188
  1
+
 41
0.9
  7
Caddy_Vectorfont1p
 72
     2
 11
110.0499954223633
 21
142.8000030517578
 31
0
100
AcDbAttributeDefinition
  3
Placering (+)
  2
$TAG140050
 70
     0
  0
ENDBLK
  5
138
330
136
100
AcDbEntity
  8
0
100
AcDbBlockEnd
  0
BLOCK
  5
14D
330
14C
100
AcDbEntity
  8
0
100
AcDbBlockBegin
  2
Blk14
 70
     2
 10
0
 20
0
 30
0
  3
Blk14
  1

  0
CIRCLE
  5
150
330
14C
100
AcDbEntity
  8
0
  6
Caddy_Solid
370
    25
100
AcDbCircle
 10
125
 20
140.5
 30
0
 40
0.75
  0
LINE
  5
151
330
14C
100
AcDbEntity
  8
0
  6
Caddy_Solid
370
    25
100
AcDbLine
 10
125
 20
141.25
 30
0
 11
125
 21
143
 31
0
  0
LINE
  5
152
330
14C
100
AcDbEntity
  8
0
  6
Caddy_Solid
370
    25
100
AcDbLine
 10
125
 20
138
 30
0
 11
125
 21
139.75
 31
0
  0
ATTDEF
  5
155
330
14C
100
AcDbEntity
  8
2
370
    25
100
AcDbText
 10
103.2435063568115
 20
139.3000030517578
 30
0
 40
2.449996948242188
  1
-X17
 41
0.9
  7
Caddy_Vectorfont1p
 72
     2
 11
120.0499954223633
 21
139.3000030517578
 31
0
100
AcDbAttributeDefinition
  3
Produkt (-)
  2
$TAG160010
 70
     0
  0
ATTDEF
  5
157
330
14C
100
AcDbEntity
  8
2
370
    25
100
AcDbText
 10
124.0999908447266
 20
142.1999969482422
 30
0
 40
2.449996948242188
  1
40
 50
90
 41
0.9
  7
Caddy_Vectorfont1p
 11
0
 21
0
 31
0
100
AcDbAttributeDefinition
  3
Klemmenummer
  2
$TAG160400
 70
     0
  0
ATTDEF
  5
159
330
14C
100
AcDbEntity
  8
0
370
    25
100
AcDbText
 10
127.5999908447266
 20
142.1999969482422
 30
0
 40
2.449996948242188
  1
1911782
 50
90
 41
0.9
  7
Caddy_Vectorfont1p
 11
0
 21
0
 31
0
100
AcDbAttributeDefinition
  3
Sorteringsindeks
  2
$TAG160410
 70
     0
  0
ATTDEF
  5
15B
330
14C
100
AcDbEntity
  8
2
370
    25
100
AcDbText
 10
102.7517919692993
 20
135.8000030517578
 30
0
 40
2.449996948242188
  1

 41
0.9
  7
Caddy_Vectorfont1p
 72
     2
 11
120.0499954223633
 21
135.8000030517578
 31
0
100
AcDbAttributeDefinition
  3
Beskrivelse 00
  2
$TAG160030
 70
     0
  0
ATTDEF
  5
15D
330
14C
100
AcDbEntity
  8
2
370
    25
100
AcDbText
 10
102.5070601623535
 20
130.8000030517578
 30
0
 40
2.449996948242188
  1
AB1RR235U2GR
 41
0.9
  7
Caddy_Vectorfont1p
 72
     2
 11
120.0500183105469
 21
130.8000030517578
 31
0
100
AcDbAttributeDefinition
  3
Type
  2
$TAG160040
 70
     0
  0
ATTDEF
  5
15F
330
14C
100
AcDbEntity
  8
2
370
    25
100
AcDbText
 10
102.5070449035645
 20
146.3000030517578
 30
0
 40
2.449996948242188
  1
=
 41
0.9
  7
Caddy_Vectorfont1p
 72
     2
 11
120.0500030517578
 21
146.3000030517578
 31
0
100
AcDbAttributeDefinition
  3
Funktion (=)
  2
$TAG140020
 70
     0
  0
ATTDEF
  5
161
330
14C
100
AcDbEntity
  8
2
370
    25
100
AcDbText
 10
102.5070372741699
 20
142.8000030517578
 30
0
 40
2.449996948242188
  1
+
 41
0.9
  7
Caddy_Vectorfont1p
 72
     2
 11
120.0499954223633
 21
142.8000030517578
 31
0
100
AcDbAttributeDefinition
  3
Placering (+)
  2
$TAG140050
 70
     0
  0
ENDBLK
  5
14E
330
14C
100
AcDbEntity
  8
0
100
AcDbBlockEnd
  0
BLOCK
  5
163
330
162
100
AcDbEntity
  8
0
100
AcDbBlockBegin
  2
Blk15
 70
     2
 10
0
 20
0
 30
0
  3
Blk15
  1

  0
CIRCLE
  5
166
330
162
100
AcDbEntity
  8
0
  6
Caddy_Solid
370
    25
100
AcDbCircle
 10
135
 20
140.5
 30
0
 40
0.75
  0
LINE
  5
167
330
162
100
AcDbEntity
  8
0
  6
Caddy_Solid
370
    25
100
AcDbLine
 10
135
 20
141.25
 30
0
 11
135
 21
143
 31
0
  0
LINE
  5
168
330
162
100
AcDbEntity
  8
0
  6
Caddy_Solid
370
    25
100
AcDbLine
 10
135
 20
138
 30
0
 11
135
 21
139.75
 31
0
  0
ATTDEF
  5
16B
330
162
100
AcDbEntity
  8
2
370
    25
100
AcDbText
 10
113.2435139862061
 20
139.3000030517578
 30
0
 40
2.449996948242188
  1
-X17
 41
0.9
  7
Caddy_Vectorfont1p
 72
     2
 11
130.0500030517578
 21
139.3000030517578
 31
0
100
AcDbAttributeDefinition
  3
Produkt (-)
  2
$TAG160010
 70
     0
  0
ATTDEF
  5
16D
330
162
100
AcDbEntity
  8
2
370
    25
100
AcDbText
 10
134.0999908447266
 20
142.1999969482422
 30
0
 40
2.449996948242188
  1
41
 50
90
 41
0.9
  7
Caddy_Vectorfont1p
 11
0
 21
0
 31
0
100
AcDbAttributeDefinition
  3
Klemmenummer
  2
$TAG160400
 70
     0
  0
ATTDEF
  5
16F
330
162
100
AcDbEntity
  8
0
370
    25
100
AcDbText
 10
137.5999908447266
 20
142.1999969482422
 30
0
 40
2.449996948242188
  1
1911783
 50
90
 41
0.9
  7
Caddy_Vectorfont1p
 11
0
 21
0
 31
0
100
AcDbAttributeDefinition
  3
Sorteringsindeks
  2
$TAG160410
 70
     0
  0
ATTDEF
  5
171
330
162
100
AcDbEntity
  8
2
370
    25
100
AcDbText
 10
112.7517995986939
 20
135.8000030517578
 30
0
 40
2.449996948242188
  1

 41
0.9
  7
Caddy_Vectorfont1p
 72
     2
 11
130.0500030517578
 21
135.8000030517578
 31
0
100
AcDbAttributeDefinition
  3
Beskrivelse 00
  2
$TAG160030
 70
     0
  0
ATTDEF
  5
173
330
162
100
AcDbEntity
  8
2
370
    25
100
AcDbText
 10
112.5070601623535
 20
130.8000030517578
 30
0
 40
2.449996948242188
  1
AB1RR235U2GR
 41
0.9
  7
Caddy_Vectorfont1p
 72
     2
 11
130.0500183105469
 21
130.8000030517578
 31
0
100
AcDbAttributeDefinition
  3
Type
  2
$TAG160040
 70
     0
  0
ATTDEF
  5
175
330
162
100
AcDbEntity
  8
2
370
    25
100
AcDbText
 10
112.5070449035645
 20
146.3000030517578
 30
0
 40
2.449996948242188
  1
=
 41
0.9
  7
Caddy_Vectorfont1p
 72
     2
 11
130.0500030517578
 21
146.3000030517578
 31
0
100
AcDbAttributeDefinition
  3
Funktion (=)
  2
$TAG140020
 70
     0
  0
ATTDEF
  5
177
330
162
100
AcDbEntity
  8
2
370
    25
100
AcDbText
 10
112.5070296447754
 20
142.8000030517578
 30
0
 40
2.449996948242188
  1
+
 41
0.9
  7
Caddy_Vectorfont1p
 72
     2
 11
130.0499877929688
 21
142.8000030517578
 31
0
100
AcDbAttributeDefinition
  3
Placering (+)
  2
$TAG140050
 70
     0
  0
ENDBLK
  5
164
330
162
100
AcDbEntity
  8
0
100
AcDbBlockEnd
  0
BLOCK
  5
189
330
188
100
AcDbEntity
  8
0
100
AcDbBlockBegin
  2
Blk16
 70
     2
 10
0
 20
0
 30
0
  3
Blk16
  1

  0
CIRCLE
  5
18C
330
188
100
AcDbEntity
  8
0
  6
Caddy_Solid
370
    25
100
AcDbCircle
 10
80
 20
192.5
 30
0
 40
0.75
  0
LINE
  5
18D
330
188
100
AcDbEntity
  8
0
  6
Caddy_Solid
370
    25
100
AcDbLine
 10
80
 20
193.25
 30
0
 11
80
 21
195
 31
0
  0
LINE
  5
18E
330
188
100
AcDbEntity
  8
0
  6
Caddy_Solid
370
    25
100
AcDbLine
 10
80
 20
190
 30
0
 11
80
 21
191.75
 31
0
  0
ATTDEF
  5
191
330
188
100
AcDbEntity
  8
2
370
    25
100
AcDbText
 10
58.24350635681152
 20
191.3000030517578
 30
0
 40
2.449996948242188
  1
-X17
 41
0.9
  7
Caddy_Vectorfont1p
 72
     2
 11
75.04999542236328
 21
191.3000030517578
 31
0
100
AcDbAttributeDefinition
  3
Produkt (-)
  2
$TAG160010
 70
     0
  0
ATTDEF
  5
193
330
188
100
AcDbEntity
  8
2
370
    25
100
AcDbText
 10
79.09999084472656
 20
194.1999969482422
 30
0
 40
2.449996948242188
  1
32
 50
90
 41
0.9
  7
Caddy_Vectorfont1p
 11
0
 21
0
 31
0
100
AcDbAttributeDefinition
  3
Klemmenummer
  2
$TAG160400
 70
     0
  0
ATTDEF
  5
195
330
188
100
AcDbEntity
  8
0
370
    25
100
AcDbText
 10
82.59999084472656
 20
194.1999969482422
 30
0
 40
2.449996948242188
  1
1911774
 50
90
 41
0.9
  7
Caddy_Vectorfont1p
 11
0
 21
0
 31
0
100
AcDbAttributeDefinition
  3
Sorteringsindeks
  2
$TAG160410
 70
     0
  0
ATTDEF
  5
197
330
188
100
AcDbEntity
  8
2
370
    25
100
AcDbText
 10
57.75179196929932
 20
187.8000030517578
 30
0
 40
2.449996948242188
  1

 41
0.9
  7
Caddy_Vectorfont1p
 72
     2
 11
75.04999542236328
 21
187.8000030517578
 31
0
100
AcDbAttributeDefinition
  3
Beskrivelse 00
  2
$TAG160030
 70
     0
  0
ATTDEF
  5
199
330
188
100
AcDbEntity
  8
2
370
    25
100
AcDbText
 10
57.50705253295899
 20
182.8000030517578
 30
0
 40
2.449996948242188
  1
AB1RR235U2GR
 41
0.9
  7
Caddy_Vectorfont1p
 72
     2
 11
75.05001068115234
 21
182.8000030517578
 31
0
100
AcDbAttributeDefinition
  3
Type
  2
$TAG160040
 70
     0
  0
ATTDEF
  5
19B
330
188
100
AcDbEntity
  8
2
370
    25
100
AcDbText
 10
57.50704490356446
 20
198.3000030517578
 30
0
 40
2.449996948242188
  1
=
 41
0.9
  7
Caddy_Vectorfont1p
 72
     2
 11
75.05000305175781
 21
198.3000030517578
 31
0
100
AcDbAttributeDefinition
  3
Funktion (=)
  2
$TAG140020
 70
     0
  0
ATTDEF
  5
19D
330
188
100
AcDbEntity
  8
2
370
    25
100
AcDbText
 10
57.50703727416992
 20
194.8000030517578
 30
0
 40
2.449996948242188
  1
+
 41
0.9
  7
Caddy_Vectorfont1p
 72
     2
 11
75.04999542236328
 21
194.8000030517578
 31
0
100
AcDbAttributeDefinition
  3
Placering (+)
  2
$TAG140050
 70
     0
  0
ENDBLK
  5
18A
330
188
100
AcDbEntity
  8
0
100
AcDbBlockEnd
  0
BLOCK
  5
19F
330
19E
100
AcDbEntity
  8
0
100
AcDbBlockBegin
  2
Blk17
 70
     2
 10
0
 20
0
 30
0
  3
Blk17
  1

  0
CIRCLE
  5
1A2
330
19E
100
AcDbEntity
  8
0
  6
Caddy_Solid
370
    25
100
AcDbCircle
 10
85
 20
192.5
 30
0
 40
0.75
  0
LINE
  5
1A3
330
19E
100
AcDbEntity
  8
0
  6
Caddy_Solid
370
    25
100
AcDbLine
 10
85
 20
193.25
 30
0
 11
85
 21
195
 31
0
  0
LINE
  5
1A4
330
19E
100
AcDbEntity
  8
0
  6
Caddy_Solid
370
    25
100
AcDbLine
 10
85
 20
190
 30
0
 11
85
 21
191.75
 31
0
  0
ATTDEF
  5
1A7
330
19E
100
AcDbEntity
  8
2
370
    25
100
AcDbText
 10
63.24350635681152
 20
191.3000030517578
 30
0
 40
2.449996948242188
  1
-X17
 41
0.9
  7
Caddy_Vectorfont1p
 72
     2
 11
80.04999542236328
 21
191.3000030517578
 31
0
100
AcDbAttributeDefinition
  3
Produkt (-)
  2
$TAG160010
 70
     0
  0
ATTDEF
  5
1A9
330
19E
100
AcDbEntity
  8
2
370
    25
100
AcDbText
 10
84.09999084472656
 20
194.1999969482422
 30
0
 40
2.449996948242188
  1
33
 50
90
 41
0.9
  7
Caddy_Vectorfont1p
 11
0
 21
0
 31
0
100
AcDbAttributeDefinition
  3
Klemmenummer
  2
$TAG160400
 70
     0
  0
ATTDEF
  5
1AB
330
19E
100
AcDbEntity
  8
0
370
    25
100
AcDbText
 10
87.59999084472656
 20
194.1999969482422
 30
0
 40
2.449996948242188
  1
1911775
 50
90
 41
0.9
  7
Caddy_Vectorfont1p
 11
0
 21
0
 31
0
100
AcDbAttributeDefinition
  3
Sorteringsindeks
  2
$TAG160410
 70
     0
  0
ATTDEF
  5
1AD
330
19E
100
AcDbEntity
  8
2
370
    25
100
AcDbText
 10
62.75179196929932
 20
187.8000030517578
 30
0
 40
2.449996948242188
  1

 41
0.9
  7
Caddy_Vectorfont1p
 72
     2
 11
80.04999542236328
 21
187.8000030517578
 31
0
100
AcDbAttributeDefinition
  3
Beskrivelse 00
  2
$TAG160030
 70
     0
  0
ATTDEF
  5
1AF
330
19E
100
AcDbEntity
  8
2
370
    25
100
AcDbText
 10
62.50706016235352
 20
182.8000030517578
 30
0
 40
2.449996948242188
  1
AB1RR235U2GR
 41
0.9
  7
Caddy_Vectorfont1p
 72
     2
 11
80.05001831054688
 21
182.8000030517578
 31
0
100
AcDbAttributeDefinition
  3
Type
  2
$TAG160040
 70
     0
  0
ATTDEF
  5
1B1
330
19E
100
AcDbEntity
  8
2
370
    25
100
AcDbText
 10
62.50704490356446
 20
198.3000030517578
 30
0
 40
2.449996948242188
  1
=
 41
0.9
  7
Caddy_Vectorfont1p
 72
     2
 11
80.05000305175781
 21
198.3000030517578
 31
0
100
AcDbAttributeDefinition
  3
Funktion (=)
  2
$TAG140020
 70
     0
  0
ATTDEF
  5
1B3
330
19E
100
AcDbEntity
  8
2
370
    25
100
AcDbText
 10
62.50703727416992
 20
194.8000030517578
 30
0
 40
2.449996948242188
  1
+
 41
0.9
  7
Caddy_Vectorfont1p
 72
     2
 11
80.04999542236328
 21
194.8000030517578
 31
0
100
AcDbAttributeDefinition
  3
Placering (+)
  2
$TAG140050
 70
     0
  0
ENDBLK
  5
1A0
330
19E
100
AcDbEntity
  8
0
100
AcDbBlockEnd
  0
BLOCK
  5
1BE
330
1BD
100
AcDbEntity
  8
0
100
AcDbBlockBegin
  2
Blk18
 70
     2
 10
0
 20
0
 30
0
  3
Blk18
  1

  0
CIRCLE
  5
1C1
330
1BD
100
AcDbEntity
  8
0
  6
Caddy_Solid
370
    25
100
AcDbCircle
 10
100
 20
162.5
 30
0
 40
0.75
  0
LINE
  5
1C2
330
1BD
100
AcDbEntity
  8
0
  6
Caddy_Solid
370
    25
100
AcDbLine
 10
100
 20
163.25
 30
0
 11
100
 21
165
 31
0
  0
LINE
  5
1C3
330
1BD
100
AcDbEntity
  8
0
  6
Caddy_Solid
370
    25
100
AcDbLine
 10
100
 20
160
 30
0
 11
100
 21
161.75
 31
0
  0
ATTDEF
  5
1C6
330
1BD
100
AcDbEntity
  8
2
370
    25
100
AcDbText
 10
78.24350635681152
 20
161.3000030517578
 30
0
 40
2.449996948242188
  1
-X17
 41
0.9
  7
Caddy_Vectorfont1p
 72
     2
 11
95.04999542236328
 21
161.3000030517578
 31
0
100
AcDbAttributeDefinition
  3
Produkt (-)
  2
$TAG160010
 70
     0
  0
ATTDEF
  5
1C8
330
1BD
100
AcDbEntity
  8
2
370
    25
100
AcDbText
 10
99.09999084472656
 20
164.1999969482422
 30
0
 40
2.449996948242188
  1
45
 50
90
 41
0.9
  7
Caddy_Vectorfont1p
 11
0
 21
0
 31
0
100
AcDbAttributeDefinition
  3
Klemmenummer
  2
$TAG160400
 70
     0
  0
ATTDEF
  5
1CA
330
1BD
100
AcDbEntity
  8
0
370
    25
100
AcDbText
 10
102.5999908447266
 20
164.1999969482422
 30
0
 40
2.449996948242188
  1
1911787
 50
90
 41
0.9
  7
Caddy_Vectorfont1p
 11
0
 21
0
 31
0
100
AcDbAttributeDefinition
  3
Sorteringsindeks
  2
$TAG160410
 70
     0
  0
ATTDEF
  5
1CC
330
1BD
100
AcDbEntity
  8
2
370
    25
100
AcDbText
 10
77.75179196929932
 20
157.8000030517578
 30
0
 40
2.449996948242188
  1

 41
0.9
  7
Caddy_Vectorfont1p
 72
     2
 11
95.04999542236328
 21
157.8000030517578
 31
0
100
AcDbAttributeDefinition
  3
Beskrivelse 00
  2
$TAG160030
 70
     0
  0
ATTDEF
  5
1CE
330
1BD
100
AcDbEntity
  8
2
370
    25
100
AcDbText
 10
77.50706016235353
 20
152.8000030517578
 30
0
 40
2.449996948242188
  1
AB1RR235U2GR
 41
0.9
  7
Caddy_Vectorfont1p
 72
     2
 11
95.05001831054688
 21
152.8000030517578
 31
0
100
AcDbAttributeDefinition
  3
Type
  2
$TAG160040
 70
     0
  0
ATTDEF
  5
1D0
330
1BD
100
AcDbEntity
  8
2
370
    25
100
AcDbText
 10
77.50704490356446
 20
168.3000030517578
 30
0
 40
2.449996948242188
  1
=
 41
0.9
  7
Caddy_Vectorfont1p
 72
     2
 11
95.05000305175781
 21
168.3000030517578
 31
0
100
AcDbAttributeDefinition
  3
Funktion (=)
  2
$TAG140020
 70
     0
  0
ATTDEF
  5
1D2
330
1BD
100
AcDbEntity
  8
2
370
    25
100
AcDbText
 10
77.50703727416993
 20
164.8000030517578
 30
0
 40
2.449996948242188
  1
+
 41
0.9
  7
Caddy_Vectorfont1p
 72
     2
 11
95.04999542236328
 21
164.8000030517578
 31
0
100
AcDbAttributeDefinition
  3
Placering (+)
  2
$TAG140050
 70
     0
  0
ENDBLK
  5
1BF
330
1BD
100
AcDbEntity
  8
0
100
AcDbBlockEnd
  0
BLOCK
  5
1D4
330
1D3
100
AcDbEntity
  8
0
100
AcDbBlockBegin
  2
Blk19
 70
     2
 10
0
 20
0
 30
0
  3
Blk19
  1

  0
CIRCLE
  5
1D7
330
1D3
100
AcDbEntity
  8
0
  6
Caddy_Solid
370
    25
100
AcDbCircle
 10
110
 20
162.5
 30
0
 40
0.75
  0
LINE
  5
1D8
330
1D3
100
AcDbEntity
  8
0
  6
Caddy_Solid
370
    25
100
AcDbLine
 10
110
 20
163.25
 30
0
 11
110
 21
165
 31
0
  0
LINE
  5
1D9
330
1D3
100
AcDbEntity
  8
0
  6
Caddy_Solid
370
    25
100
AcDbLine
 10
110
 20
160
 30
0
 11
110
 21
161.75
 31
0
  0
ATTDEF
  5
1DC
330
1D3
100
AcDbEntity
  8
2
370
    25
100
AcDbText
 10
88.24350635681152
 20
161.3000030517578
 30
0
 40
2.449996948242188
  1
-X17
 41
0.9
  7
Caddy_Vectorfont1p
 72
     2
 11
105.0499954223633
 21
161.3000030517578
 31
0
100
AcDbAttributeDefinition
  3
Produkt (-)
  2
$TAG160010
 70
     0
  0
ATTDEF
  5
1DE
330
1D3
100
AcDbEntity
  8
2
370
    25
100
AcDbText
 10
109.0999908447266
 20
164.1999969482422
 30
0
 40
2.449996948242188
  1
46
 50
90
 41
0.9
  7
Caddy_Vectorfont1p
 11
0
 21
0
 31
0
100
AcDbAttributeDefinition
  3
Klemmenummer
  2
$TAG160400
 70
     0
  0
ATTDEF
  5
1E0
330
1D3
100
AcDbEntity
  8
0
370
    25
100
AcDbText
 10
112.5999908447266
 20
164.1999969482422
 30
0
 40
2.449996948242188
  1
1911788
 50
90
 41
0.9
  7
Caddy_Vectorfont1p
 11
0
 21
0
 31
0
100
AcDbAttributeDefinition
  3
Sorteringsindeks
  2
$TAG160410
 70
     0
  0
ATTDEF
  5
1E2
330
1D3
100
AcDbEntity
  8
2
370
    25
100
AcDbText
 10
87.75179196929932
 20
157.8000030517578
 30
0
 40
2.449996948242188
  1

 41
0.9
  7
Caddy_Vectorfont1p
 72
     2
 11
105.0499954223633
 21
157.8000030517578
 31
0
100
AcDbAttributeDefinition
  3
Beskrivelse 00
  2
$TAG160030
 70
     0
  0
ATTDEF
  5
1E4
330
1D3
100
AcDbEntity
  8
2
370
    25
100
AcDbText
 10
87.50706016235353
 20
152.8000030517578
 30
0
 40
2.449996948242188
  1
AB1RR235U2GR
 41
0.9
  7
Caddy_Vectorfont1p
 72
     2
 11
105.0500183105469
 21
152.8000030517578
 31
0
100
AcDbAttributeDefinition
  3
Type
  2
$TAG160040
 70
     0
  0
ATTDEF
  5
1E6
330
1D3
100
AcDbEntity
  8
2
370
    25
100
AcDbText
 10
87.50704490356446
 20
168.3000030517578
 30
0
 40
2.449996948242188
  1
=
 41
0.9
  7
Caddy_Vectorfont1p
 72
     2
 11
105.0500030517578
 21
168.3000030517578
 31
0
100
AcDbAttributeDefinition
  3
Funktion (=)
  2
$TAG140020
 70
     0
  0
ATTDEF
  5
1E8
330
1D3
100
AcDbEntity
  8
2
370
    25
100
AcDbText
 10
87.50703727416993
 20
164.8000030517578
 30
0
 40
2.449996948242188
  1
+
 41
0.9
  7
Caddy_Vectorfont1p
 72
     2
 11
105.0499954223633
 21
164.8000030517578
 31
0
100
AcDbAttributeDefinition
  3
Placering (+)
  2
$TAG140050
 70
     0
  0
ENDBLK
  5
1D5
330
1D3
100
AcDbEntity
  8
0
100
AcDbBlockEnd
  0
BLOCK
  5
1EA
330
1E9
100
AcDbEntity
  8
0
100
AcDbBlockBegin
  2
Blk20
 70
     2
 10
0
 20
0
 30
0
  3
Blk20
  1

  0
CIRCLE
  5
1ED
330
1E9
100
AcDbEntity
  8
0
  6
Caddy_Solid
370
    25
100
AcDbCircle
 10
120
 20
162.5
 30
0
 40
0.75
  0
LINE
  5
1EE
330
1E9
100
AcDbEntity
  8
0
  6
Caddy_Solid
370
    25
100
AcDbLine
 10
120
 20
163.25
 30
0
 11
120
 21
165
 31
0
  0
LINE
  5
1EF
330
1E9
100
AcDbEntity
  8
0
  6
Caddy_Solid
370
    25
100
AcDbLine
 10
120
 20
160
 30
0
 11
120
 21
161.75
 31
0
  0
ATTDEF
  5
1F2
330
1E9
100
AcDbEntity
  8
2
370
    25
100
AcDbText
 10
98.24350635681152
 20
161.3000030517578
 30
0
 40
2.449996948242188
  1
-X17
 41
0.9
  7
Caddy_Vectorfont1p
 72
     2
 11
115.0499954223633
 21
161.3000030517578
 31
0
100
AcDbAttributeDefinition
  3
Produkt (-)
  2
$TAG160010
 70
     0
  0
ATTDEF
  5
1F4
330
1E9
100
AcDbEntity
  8
2
370
    25
100
AcDbText
 10
119.0999908447266
 20
164.1999969482422
 30
0
 40
2.449996948242188
  1
47
 50
90
 41
0.9
  7
Caddy_Vectorfont1p
 11
0
 21
0
 31
0
100
AcDbAttributeDefinition
  3
Klemmenummer
  2
$TAG160400
 70
     0
  0
ATTDEF
  5
1F6
330
1E9
100
AcDbEntity
  8
0
370
    25
100
AcDbText
 10
122.5999908447266
 20
164.1999969482422
 30
0
 40
2.449996948242188
  1
1911789
 50
90
 41
0.9
  7
Caddy_Vectorfont1p
 11
0
 21
0
 31
0
100
AcDbAttributeDefinition
  3
Sorteringsindeks
  2
$TAG160410
 70
     0
  0
ATTDEF
  5
1F8
330
1E9
100
AcDbEntity
  8
2
370
    25
100
AcDbText
 10
97.75179196929932
 20
157.8000030517578
 30
0
 40
2.449996948242188
  1

 41
0.9
  7
Caddy_Vectorfont1p
 72
     2
 11
115.0499954223633
 21
157.8000030517578
 31
0
100
AcDbAttributeDefinition
  3
Beskrivelse 00
  2
$TAG160030
 70
     0
  0
ATTDEF
  5
1FA
330
1E9
100
AcDbEntity
  8
2
370
    25
100
AcDbText
 10
97.50706016235353
 20
152.8000030517578
 30
0
 40
2.449996948242188
  1
AB1RR235U2GR
 41
0.9
  7
Caddy_Vectorfont1p
 72
     2
 11
115.0500183105469
 21
152.8000030517578
 31
0
100
AcDbAttributeDefinition
  3
Type
  2
$TAG160040
 70
     0
  0
ATTDEF
  5
1FC
330
1E9
100
AcDbEntity
  8
2
370
    25
100
AcDbText
 10
97.50704490356446
 20
168.3000030517578
 30
0
 40
2.449996948242188
  1
=
 41
0.9
  7
Caddy_Vectorfont1p
 72
     2
 11
115.0500030517578
 21
168.3000030517578
 31
0
100
AcDbAttributeDefinition
  3
Funktion (=)
  2
$TAG140020
 70
     0
  0
ATTDEF
  5
1FE
330
1E9
100
AcDbEntity
  8
2
370
    25
100
AcDbText
 10
97.50703727416993
 20
164.8000030517578
 30
0
 40
2.449996948242188
  1
+
 41
0.9
  7
Caddy_Vectorfont1p
 72
     2
 11
115.0499954223633
 21
164.8000030517578
 31
0
100
AcDbAttributeDefinition
  3
Placering (+)
  2
$TAG140050
 70
     0
  0
ENDBLK
  5
1EB
330
1E9
100
AcDbEntity
  8
0
100
AcDbBlockEnd
  0
BLOCK
  5
200
330
1FF
100
AcDbEntity
  8
0
100
AcDbBlockBegin
  2
Blk21
 70
     2
 10
0
 20
0
 30
0
  3
Blk21
  1

  0
CIRCLE
  5
203
330
1FF
100
AcDbEntity
  8
0
  6
Caddy_Solid
370
    25
100
AcDbCircle
 10
130
 20
162.5
 30
0
 40
0.75
  0
LINE
  5
204
330
1FF
100
AcDbEntity
  8
0
  6
Caddy_Solid
370
    25
100
AcDbLine
 10
130
 20
163.25
 30
0
 11
130
 21
165
 31
0
  0
LINE
  5
205
330
1FF
100
AcDbEntity
  8
0
  6
Caddy_Solid
370
    25
100
AcDbLine
 10
130
 20
160
 30
0
 11
130
 21
161.75
 31
0
  0
ATTDEF
  5
208
330
1FF
100
AcDbEntity
  8
2
370
    25
100
AcDbText
 10
108.2435063568115
 20
161.3000030517578
 30
0
 40
2.449996948242188
  1
-X17
 41
0.9
  7
Caddy_Vectorfont1p
 72
     2
 11
125.0499954223633
 21
161.3000030517578
 31
0
100
AcDbAttributeDefinition
  3
Produkt (-)
  2
$TAG160010
 70
     0
  0
ATTDEF
  5
20A
330
1FF
100
AcDbEntity
  8
2
370
    25
100
AcDbText
 10
129.0999908447266
 20
164.1999969482422
 30
0
 40
2.449996948242188
  1
48
 50
90
 41
0.9
  7
Caddy_Vectorfont1p
 11
0
 21
0
 31
0
100
AcDbAttributeDefinition
  3
Klemmenummer
  2
$TAG160400
 70
     0
  0
ATTDEF
  5
20C
330
1FF
100
AcDbEntity
  8
0
370
    25
100
AcDbText
 10
132.5999908447266
 20
164.1999969482422
 30
0
 40
2.449996948242188
  1
1911790
 50
90
 41
0.9
  7
Caddy_Vectorfont1p
 11
0
 21
0
 31
0
100
AcDbAttributeDefinition
  3
Sorteringsindeks
  2
$TAG160410
 70
     0
  0
ATTDEF
  5
20E
330
1FF
100
AcDbEntity
  8
2
370
    25
100
AcDbText
 10
107.7517919692993
 20
157.8000030517578
 30
0
 40
2.449996948242188
  1

 41
0.9
  7
Caddy_Vectorfont1p
 72
     2
 11
125.0499954223633
 21
157.8000030517578
 31
0
100
AcDbAttributeDefinition
  3
Beskrivelse 00
  2
$TAG160030
 70
     0
  0
ATTDEF
  5
210
330
1FF
100
AcDbEntity
  8
2
370
    25
100
AcDbText
 10
107.5070601623535
 20
152.8000030517578
 30
0
 40
2.449996948242188
  1
AB1RR235U2GR
 41
0.9
  7
Caddy_Vectorfont1p
 72
     2
 11
125.0500183105469
 21
152.8000030517578
 31
0
100
AcDbAttributeDefinition
  3
Type
  2
$TAG160040
 70
     0
  0
ATTDEF
  5
212
330
1FF
100
AcDbEntity
  8
2
370
    25
100
AcDbText
 10
107.5070449035645
 20
168.3000030517578
 30
0
 40
2.449996948242188
  1
=
 41
0.9
  7
Caddy_Vectorfont1p
 72
     2
 11
125.0500030517578
 21
168.3000030517578
 31
0
100
AcDbAttributeDefinition
  3
Funktion (=)
  2
$TAG140020
 70
     0
  0
ATTDEF
  5
214
330
1FF
100
AcDbEntity
  8
2
370
    25
100
AcDbText
 10
107.5070372741699
 20
164.8000030517578
 30
0
 40
2.449996948242188
  1
+
 41
0.9
  7
Caddy_Vectorfont1p
 72
     2
 11
125.0499954223633
 21
164.8000030517578
 31
0
100
AcDbAttributeDefinition
  3
Placering (+)
  2
$TAG140050
 70
     0
  0
ENDBLK
  5
201
330
1FF
100
AcDbEntity
  8
0
100
AcDbBlockEnd
  0
BLOCK
  5
216
330
215
100
AcDbEntity
  8
0
100
AcDbBlockBegin
  2
Blk22
 70
     2
 10
0
 20
0
 30
0
  3
Blk22
  1

  0
CIRCLE
  5
219
330
215
100
AcDbEntity
  8
0
  6
Caddy_Solid
370
    25
100
AcDbCircle
 10
140
 20
162.5
 30
0
 40
0.75
  0
LINE
  5
21A
330
215
100
AcDbEntity
  8
0
  6
Caddy_Solid
370
    25
100
AcDbLine
 10
140
 20
163.25
 30
0
 11
140
 21
165
 31
0
  0
LINE
  5
21B
330
215
100
AcDbEntity
  8
0
  6
Caddy_Solid
370
    25
100
AcDbLine
 10
140
 20
160
 30
0
 11
140
 21
161.75
 31
0
  0
ATTDEF
  5
21E
330
215
100
AcDbEntity
  8
2
370
    25
100
AcDbText
 10
118.2435292449951
 20
161.3000030517578
 30
0
 40
2.449996948242188
  1
-X17
 41
0.9
  7
Caddy_Vectorfont1p
 72
     2
 11
135.0500183105469
 21
161.3000030517578
 31
0
100
AcDbAttributeDefinition
  3
Produkt (-)
  2
$TAG160010
 70
     0
  0
ATTDEF
  5
220
330
215
100
AcDbEntity
  8
2
370
    25
100
AcDbText
 10
139.0999908447266
 20
164.1999969482422
 30
0
 40
2.449996948242188
  1
42
 50
90
 41
0.9
  7
Caddy_Vectorfont1p
 11
0
 21
0
 31
0
100
AcDbAttributeDefinition
  3
Klemmenummer
  2
$TAG160400
 70
     0
  0
ATTDEF
  5
222
330
215
100
AcDbEntity
  8
0
370
    25
100
AcDbText
 10
142.5999908447266
 20
164.1999969482422
 30
0
 40
2.449996948242188
  1
1911784
 50
90
 41
0.9
  7
Caddy_Vectorfont1p
 11
0
 21
0
 31
0
100
AcDbAttributeDefinition
  3
Sorteringsindeks
  2
$TAG160410
 70
     0
  0
ATTDEF
  5
224
330
215
100
AcDbEntity
  8
2
370
    25
100
AcDbText
 10
117.7517995986939
 20
157.8000030517578
 30
0
 40
2.449996948242188
  1

 41
0.9
  7
Caddy_Vectorfont1p
 72
     2
 11
135.0500030517578
 21
157.8000030517578
 31
0
100
AcDbAttributeDefinition
  3
Beskrivelse 00
  2
$TAG160030
 70
     0
  0
ATTDEF
  5
226
330
215
100
AcDbEntity
  8
2
370
    25
100
AcDbText
 10
117.5070601623535
 20
152.8000030517578
 30
0
 40
2.449996948242188
  1
AB1RR235U2GR
 41
0.9
  7
Caddy_Vectorfont1p
 72
     2
 11
135.0500183105469
 21
152.8000030517578
 31
0
100
AcDbAttributeDefinition
  3
Type
  2
$TAG160040
 70
     0
  0
ATTDEF
  5
228
330
215
100
AcDbEntity
  8
2
370
    25
100
AcDbText
 10
117.5070449035645
 20
168.3000030517578
 30
0
 40
2.449996948242188
  1
=
 41
0.9
  7
Caddy_Vectorfont1p
 72
     2
 11
135.0500030517578
 21
168.3000030517578
 31
0
100
AcDbAttributeDefinition
  3
Funktion (=)
  2
$TAG140020
 70
     0
  0
ATTDEF
  5
22A
330
215
100
AcDbEntity
  8
2
370
    25
100
AcDbText
 10
117.5070296447754
 20
164.8000030517578
 30
0
 40
2.449996948242188
  1
+
 41
0.9
  7
Caddy_Vectorfont1p
 72
     2
 11
135.0499877929688
 21
164.8000030517578
 31
0
100
AcDbAttributeDefinition
  3
Placering (+)
  2
$TAG140050
 70
     0
  0
ENDBLK
  5
217
330
215
100
AcDbEntity
  8
0
100
AcDbBlockEnd
  0
BLOCK
  5
22E
330
22D
100
AcDbEntity
  8
0
100
AcDbBlockBegin
  2
Blk23
 70
     2
 10
0
 20
0
 30
0
  3
Blk23
  1

  0
CIRCLE
  5
231
330
22D
100
AcDbEntity
  8
0
  6
Caddy_Solid
370
    25
100
AcDbCircle
 10
105
 20
157.5
 30
0
 40
0.75
  0
LINE
  5
232
330
22D
100
AcDbEntity
  8
0
  6
Caddy_Solid
370
    25
100
AcDbLine
 10
105
 20
158.25
 30
0
 11
105
 21
160
 31
0
  0
LINE
  5
233
330
22D
100
AcDbEntity
  8
0
  6
Caddy_Solid
370
    25
100
AcDbLine
 10
105
 20
155
 30
0
 11
105
 21
156.75
 31
0
  0
ATTDEF
  5
236
330
22D
100
AcDbEntity
  8
2
370
    25
100
AcDbText
 10
83.24350635681152
 20
156.3000030517578
 30
0
 40
2.449996948242188
  1
-X17
 41
0.9
  7
Caddy_Vectorfont1p
 72
     2
 11
100.0499954223633
 21
156.3000030517578
 31
0
100
AcDbAttributeDefinition
  3
Produkt (-)
  2
$TAG160010
 70
     0
  0
ATTDEF
  5
238
330
22D
100
AcDbEntity
  8
2
370
    25
100
AcDbText
 10
104.0999908447266
 20
159.1999969482422
 30
0
 40
2.449996948242188
  1
49
 50
90
 41
0.9
  7
Caddy_Vectorfont1p
 11
0
 21
0
 31
0
100
AcDbAttributeDefinition
  3
Klemmenummer
  2
$TAG160400
 70
     0
  0
ATTDEF
  5
23A
330
22D
100
AcDbEntity
  8
0
370
    25
100
AcDbText
 10
107.5999908447266
 20
159.1999969482422
 30
0
 40
2.449996948242188
  1
1911791
 50
90
 41
0.9
  7
Caddy_Vectorfont1p
 11
0
 21
0
 31
0
100
AcDbAttributeDefinition
  3
Sorteringsindeks
  2
$TAG160410
 70
     0
  0
ATTDEF
  5
23C
330
22D
100
AcDbEntity
  8
2
370
    25
100
AcDbText
 10
82.75179196929932
 20
152.8000030517578
 30
0
 40
2.449996948242188
  1

 41
0.9
  7
Caddy_Vectorfont1p
 72
     2
 11
100.0499954223633
 21
152.8000030517578
 31
0
100
AcDbAttributeDefinition
  3
Beskrivelse 00
  2
$TAG160030
 70
     0
  0
ATTDEF
  5
23E
330
22D
100
AcDbEntity
  8
2
370
    25
100
AcDbText
 10
82.50706016235353
 20
147.8000030517578
 30
0
 40
2.449996948242188
  1
AB1RR235U2GR
 41
0.9
  7
Caddy_Vectorfont1p
 72
     2
 11
100.0500183105469
 21
147.8000030517578
 31
0
100
AcDbAttributeDefinition
  3
Type
  2
$TAG160040
 70
     0
  0
ATTDEF
  5
240
330
22D
100
AcDbEntity
  8
2
370
    25
100
AcDbText
 10
82.50704490356446
 20
163.3000030517578
 30
0
 40
2.449996948242188
  1
=
 41
0.9
  7
Caddy_Vectorfont1p
 72
     2
 11
100.0500030517578
 21
163.3000030517578
 31
0
100
AcDbAttributeDefinition
  3
Funktion (=)
  2
$TAG140020
 70
     0
  0
ATTDEF
  5
242
330
22D
100
AcDbEntity
  8
2
370
    25
100
AcDbText
 10
82.50703727416993
 20
159.8000030517578
 30
0
 40
2.449996948242188
  1
+
 41
0.9
  7
Caddy_Vectorfont1p
 72
     2
 11
100.0499954223633
 21
159.8000030517578
 31
0
100
AcDbAttributeDefinition
  3
Placering (+)
  2
$TAG140050
 70
     0
  0
ENDBLK
  5
22F
330
22D
100
AcDbEntity
  8
0
100
AcDbBlockEnd
  0
BLOCK
  5
244
330
243
100
AcDbEntity
  8
0
100
AcDbBlockBegin
  2
Blk24
 70
     2
 10
0
 20
0
 30
0
  3
Blk24
  1

  0
CIRCLE
  5
247
330
243
100
AcDbEntity
  8
0
  6
Caddy_Solid
370
    25
100
AcDbCircle
 10
115
 20
157.5
 30
0
 40
0.75
  0
LINE
  5
248
330
243
100
AcDbEntity
  8
0
  6
Caddy_Solid
370
    25
100
AcDbLine
 10
115
 20
158.25
 30
0
 11
115
 21
160
 31
0
  0
LINE
  5
249
330
243
100
AcDbEntity
  8
0
  6
Caddy_Solid
370
    25
100
AcDbLine
 10
115
 20
155
 30
0
 11
115
 21
156.75
 31
0
  0
ATTDEF
  5
24C
330
243
100
AcDbEntity
  8
2
370
    25
100
AcDbText
 10
93.24350635681152
 20
156.3000030517578
 30
0
 40
2.449996948242188
  1
-X17
 41
0.9
  7
Caddy_Vectorfont1p
 72
     2
 11
110.0499954223633
 21
156.3000030517578
 31
0
100
AcDbAttributeDefinition
  3
Produkt (-)
  2
$TAG160010
 70
     0
  0
ATTDEF
  5
24E
330
243
100
AcDbEntity
  8
2
370
    25
100
AcDbText
 10
114.0999908447266
 20
159.1999969482422
 30
0
 40
2.449996948242188
  1
50
 50
90
 41
0.9
  7
Caddy_Vectorfont1p
 11
0
 21
0
 31
0
100
AcDbAttributeDefinition
  3
Klemmenummer
  2
$TAG160400
 70
     0
  0
ATTDEF
  5
250
330
243
100
AcDbEntity
  8
0
370
    25
100
AcDbText
 10
117.5999908447266
 20
159.1999969482422
 30
0
 40
2.449996948242188
  1
1911792
 50
90
 41
0.9
  7
Caddy_Vectorfont1p
 11
0
 21
0
 31
0
100
AcDbAttributeDefinition
  3
Sorteringsindeks
  2
$TAG160410
 70
     0
  0
ATTDEF
  5
252
330
243
100
AcDbEntity
  8
2
370
    25
100
AcDbText
 10
92.75179196929932
 20
152.8000030517578
 30
0
 40
2.449996948242188
  1

 41
0.9
  7
Caddy_Vectorfont1p
 72
     2
 11
110.0499954223633
 21
152.8000030517578
 31
0
100
AcDbAttributeDefinition
  3
Beskrivelse 00
  2
$TAG160030
 70
     0
  0
ATTDEF
  5
254
330
243
100
AcDbEntity
  8
2
370
    25
100
AcDbText
 10
92.50706016235353
 20
147.8000030517578
 30
0
 40
2.449996948242188
  1
AB1RR235U2GR
 41
0.9
  7
Caddy_Vectorfont1p
 72
     2
 11
110.0500183105469
 21
147.8000030517578
 31
0
100
AcDbAttributeDefinition
  3
Type
  2
$TAG160040
 70
     0
  0
ATTDEF
  5
256
330
243
100
AcDbEntity
  8
2
370
    25
100
AcDbText
 10
92.50704490356446
 20
163.3000030517578
 30
0
 40
2.449996948242188
  1
=
 41
0.9
  7
Caddy_Vectorfont1p
 72
     2
 11
110.0500030517578
 21
163.3000030517578
 31
0
100
AcDbAttributeDefinition
  3
Funktion (=)
  2
$TAG140020
 70
     0
  0
ATTDEF
  5
258
330
243
100
AcDbEntity
  8
2
370
    25
100
AcDbText
 10
92.50703727416993
 20
159.8000030517578
 30
0
 40
2.449996948242188
  1
+
 41
0.9
  7
Caddy_Vectorfont1p
 72
     2
 11
110.0499954223633
 21
159.8000030517578
 31
0
100
AcDbAttributeDefinition
  3
Placering (+)
  2
$TAG140050
 70
     0
  0
ENDBLK
  5
245
330
243
100
AcDbEntity
  8
0
100
AcDbBlockEnd
  0
BLOCK
  5
25A
330
259
100
AcDbEntity
  8
0
100
AcDbBlockBegin
  2
Blk25
 70
     2
 10
0
 20
0
 30
0
  3
Blk25
  1

  0
CIRCLE
  5
25D
330
259
100
AcDbEntity
  8
0
  6
Caddy_Solid
370
    25
100
AcDbCircle
 10
125
 20
157.5
 30
0
 40
0.75
  0
LINE
  5
25E
330
259
100
AcDbEntity
  8
0
  6
Caddy_Solid
370
    25
100
AcDbLine
 10
125
 20
158.25
 30
0
 11
125
 21
160
 31
0
  0
LINE
  5
25F
330
259
100
AcDbEntity
  8
0
  6
Caddy_Solid
370
    25
100
AcDbLine
 10
125
 20
155
 30
0
 11
125
 21
156.75
 31
0
  0
ATTDEF
  5
262
330
259
100
AcDbEntity
  8
2
370
    25
100
AcDbText
 10
103.2435063568115
 20
156.3000030517578
 30
0
 40
2.449996948242188
  1
-X17
 41
0.9
  7
Caddy_Vectorfont1p
 72
     2
 11
120.0499954223633
 21
156.3000030517578
 31
0
100
AcDbAttributeDefinition
  3
Produkt (-)
  2
$TAG160010
 70
     0
  0
ATTDEF
  5
264
330
259
100
AcDbEntity
  8
2
370
    25
100
AcDbText
 10
124.0999908447266
 20
159.1999969482422
 30
0
 40
2.449996948242188
  1
51
 50
90
 41
0.9
  7
Caddy_Vectorfont1p
 11
0
 21
0
 31
0
100
AcDbAttributeDefinition
  3
Klemmenummer
  2
$TAG160400
 70
     0
  0
ATTDEF
  5
266
330
259
100
AcDbEntity
  8
0
370
    25
100
AcDbText
 10
127.5999908447266
 20
159.1999969482422
 30
0
 40
2.449996948242188
  1
1911793
 50
90
 41
0.9
  7
Caddy_Vectorfont1p
 11
0
 21
0
 31
0
100
AcDbAttributeDefinition
  3
Sorteringsindeks
  2
$TAG160410
 70
     0
  0
ATTDEF
  5
268
330
259
100
AcDbEntity
  8
2
370
    25
100
AcDbText
 10
102.7517919692993
 20
152.8000030517578
 30
0
 40
2.449996948242188
  1

 41
0.9
  7
Caddy_Vectorfont1p
 72
     2
 11
120.0499954223633
 21
152.8000030517578
 31
0
100
AcDbAttributeDefinition
  3
Beskrivelse 00
  2
$TAG160030
 70
     0
  0
ATTDEF
  5
26A
330
259
100
AcDbEntity
  8
2
370
    25
100
AcDbText
 10
102.5070601623535
 20
147.8000030517578
 30
0
 40
2.449996948242188
  1
AB1RR235U2GR
 41
0.9
  7
Caddy_Vectorfont1p
 72
     2
 11
120.0500183105469
 21
147.8000030517578
 31
0
100
AcDbAttributeDefinition
  3
Type
  2
$TAG160040
 70
     0
  0
ATTDEF
  5
26C
330
259
100
AcDbEntity
  8
2
370
    25
100
AcDbText
 10
102.5070449035645
 20
163.3000030517578
 30
0
 40
2.449996948242188
  1
=
 41
0.9
  7
Caddy_Vectorfont1p
 72
     2
 11
120.0500030517578
 21
163.3000030517578
 31
0
100
AcDbAttributeDefinition
  3
Funktion (=)
  2
$TAG140020
 70
     0
  0
ATTDEF
  5
26E
330
259
100
AcDbEntity
  8
2
370
    25
100
AcDbText
 10
102.5070372741699
 20
159.8000030517578
 30
0
 40
2.449996948242188
  1
+
 41
0.9
  7
Caddy_Vectorfont1p
 72
     2
 11
120.0499954223633
 21
159.8000030517578
 31
0
100
AcDbAttributeDefinition
  3
Placering (+)
  2
$TAG140050
 70
     0
  0
ENDBLK
  5
25B
330
259
100
AcDbEntity
  8
0
100
AcDbBlockEnd
  0
BLOCK
  5
270
330
26F
100
AcDbEntity
  8
0
100
AcDbBlockBegin
  2
Blk26
 70
     2
 10
0
 20
0
 30
0
  3
Blk26
  1

  0
CIRCLE
  5
273
330
26F
100
AcDbEntity
  8
0
  6
Caddy_Solid
370
    25
100
AcDbCircle
 10
135
 20
157.5
 30
0
 40
0.75
  0
LINE
  5
274
330
26F
100
AcDbEntity
  8
0
  6
Caddy_Solid
370
    25
100
AcDbLine
 10
135
 20
158.25
 30
0
 11
135
 21
160
 31
0
  0
LINE
  5
275
330
26F
100
AcDbEntity
  8
0
  6
Caddy_Solid
370
    25
100
AcDbLine
 10
135
 20
155
 30
0
 11
135
 21
156.75
 31
0
  0
ATTDEF
  5
278
330
26F
100
AcDbEntity
  8
2
370
    25
100
AcDbText
 10
113.2435139862061
 20
156.3000030517578
 30
0
 40
2.449996948242188
  1
-X17
 41
0.9
  7
Caddy_Vectorfont1p
 72
     2
 11
130.0500030517578
 21
156.3000030517578
 31
0
100
AcDbAttributeDefinition
  3
Produkt (-)
  2
$TAG160010
 70
     0
  0
ATTDEF
  5
27A
330
26F
100
AcDbEntity
  8
2
370
    25
100
AcDbText
 10
134.0999908447266
 20
159.1999969482422
 30
0
 40
2.449996948242188
  1
52
 50
90
 41
0.9
  7
Caddy_Vectorfont1p
 11
0
 21
0
 31
0
100
AcDbAttributeDefinition
  3
Klemmenummer
  2
$TAG160400
 70
     0
  0
ATTDEF
  5
27C
330
26F
100
AcDbEntity
  8
0
370
    25
100
AcDbText
 10
137.5999908447266
 20
159.1999969482422
 30
0
 40
2.449996948242188
  1
1911794
 50
90
 41
0.9
  7
Caddy_Vectorfont1p
 11
0
 21
0
 31
0
100
AcDbAttributeDefinition
  3
Sorteringsindeks
  2
$TAG160410
 70
     0
  0
ATTDEF
  5
27E
330
26F
100
AcDbEntity
  8
2
370
    25
100
AcDbText
 10
112.7517995986939
 20
152.8000030517578
 30
0
 40
2.449996948242188
  1

 41
0.9
  7
Caddy_Vectorfont1p
 72
     2
 11
130.0500030517578
 21
152.8000030517578
 31
0
100
AcDbAttributeDefinition
  3
Beskrivelse 00
  2
$TAG160030
 70
     0
  0
ATTDEF
  5
280
330
26F
100
AcDbEntity
  8
2
370
    25
100
AcDbText
 10
112.5070601623535
 20
147.8000030517578
 30
0
 40
2.449996948242188
  1
AB1RR235U2GR
 41
0.9
  7
Caddy_Vectorfont1p
 72
     2
 11
130.0500183105469
 21
147.8000030517578
 31
0
100
AcDbAttributeDefinition
  3
Type
  2
$TAG160040
 70
     0
  0
ATTDEF
  5
282
330
26F
100
AcDbEntity
  8
2
370
    25
100
AcDbText
 10
112.5070449035645
 20
163.3000030517578
 30
0
 40
2.449996948242188
  1
=
 41
0.9
  7
Caddy_Vectorfont1p
 72
     2
 11
130.0500030517578
 21
163.3000030517578
 31
0
100
AcDbAttributeDefinition
  3
Funktion (=)
  2
$TAG140020
 70
     0
  0
ATTDEF
  5
284
330
26F
100
AcDbEntity
  8
2
370
    25
100
AcDbText
 10
112.5070296447754
 20
159.8000030517578
 30
0
 40
2.449996948242188
  1
+
 41
0.9
  7
Caddy_Vectorfont1p
 72
     2
 11
130.0499877929688
 21
159.8000030517578
 31
0
100
AcDbAttributeDefinition
  3
Placering (+)
  2
$TAG140050
 70
     0
  0
ENDBLK
  5
271
330
26F
100
AcDbEntity
  8
0
100
AcDbBlockEnd
  0
BLOCK
  5
2CB
330
2CA
100
AcDbEntity
  8
0
100
AcDbBlockBegin
  2
Blk27
 70
     2
 10
0
 20
0
 30
0
  3
Blk27
  1

  0
LINE
  5
2CE
330
2CA
100
AcDbEntity
  8
0
  6
Caddy_Solid
370
    25
100
AcDbLine
 10
247.5
 20
105
 30
0
 11
245.25
 21
106.25
 31
0
  0
LINE
  5
2CF
330
2CA
100
AcDbEntity
  8
0
  6
Caddy_Solid
370
    25
100
AcDbLine
 10
247.5
 20
105
 30
0
 11
245.25
 21
103.75
 31
0
  0
LINE
  5
2D0
330
2CA
100
AcDbEntity
  8
0
  6
Caddy_Solid
370
    25
100
AcDbLine
 10
245
 20
105
 30
0
 11
247.5
 21
105
 31
0
  0
ATTDEF
  5
2D3
330
2CA
100
AcDbEntity
  8
0
370
    25
100
AcDbText
 10
225.6934738571167
 20
105.8999938964844
 30
0
 40
2.450004577636719
  1
2
 41
0.9
  7
Caddy_Vectorfont1p
 72
     2
 11
242.5000152587891
 21
105.8999938964844
 31
0
100
AcDbAttributeDefinition
  3
Produkt (-)
  2
$TAG160010
 70
     0
  0
ATTDEF
  5
2D5
330
2CA
100
AcDbEntity
  8
0
370
    25
100
AcDbText
 10
249.6500091552734
 20
103.8499908447266
 30
0
 40
2.450004577636719
  1
17.2
 41
0.9
  7
Caddy_Vectorfont1p
 11
0
 21
0
 31
0
100
AcDbAttributeDefinition
  3
Side/strømvej reference
  2
$TAG160500
 70
     0
  0
ENDBLK
  5
2CC
330
2CA
100
AcDbEntity
  8
0
100
AcDbBlockEnd
  0
BLOCK
  5
2D9
330
2D8
100
AcDbEntity
  8
0
100
AcDbBlockBegin
  2
Blk28
 70
     0
 10
0
 20
0
 30
0
  3
Blk28
  1

  0
LINE
  5
2DC
330
2D8
100
AcDbEntity
  8
0
  6
Caddy_Solid
370
    50
100
AcDbLine
 10
10
 20
10
 30
0
 11
10
 21
275
 31
0
  0
LINE
  5
2DD
330
2D8
100
AcDbEntity
  8
0
  6
Caddy_Solid
370
    50
100
AcDbLine
 10
10
 20
275
 30
0
 11
410
 21
275
 31
0
  0
LINE
  5
2DE
330
2D8
100
AcDbEntity
  8
0
  6
Caddy_Solid
370
    50
100
AcDbLine
 10
410
 20
275
 30
0
 11
410
 21
10
 31
0
  0
LINE
  5
2DF
330
2D8
100
AcDbEntity
  8
0
  6
Caddy_Solid
370
    25
100
AcDbLine
 10
50
 20
270
 30
0
 11
50
 21
275
 31
0
  0
TEXT
  5
2E0
330
2D8
100
AcDbEntity
  8
0
370
    25
100
AcDbText
 10
29.14336390228272
 20
271.2000122070312
 30
0
 40
2.449981689453125
  1
0
 41
0.9
  7
Caddy_Vectorfont1p
 72
     1
 11
30
 21
271.2000122070312
 31
0
100
AcDbText
  0
TEXT
  5
2E1
330
2D8
100
AcDbEntity
  8
0
370
    25
100
AcDbText
 10
30
 20
265.2000122070312
 30
0
 40
2.449981689453125
  1

 41
0.9
  7
Caddy_Vectorfont1p
 72
     1
 11
30
 21
265.2000122070312
 31
0
100
AcDbText
  0
LINE
  5
2E2
330
2D8
100
AcDbEntity
  8
0
  6
Caddy_Solid
370
    25
100
AcDbLine
 10
90
 20
270
 30
0
 11
90
 21
275
 31
0
  0
LINE
  5
2E3
330
2D8
100
AcDbEntity
  8
0
  6
Caddy_Solid
370
    25
100
AcDbLine
 10
130
 20
270
 30
0
 11
130
 21
275
 31
0
  0
LINE
  5
2E4
330
2D8
100
AcDbEntity
  8
0
  6
Caddy_Solid
370
    25
100
AcDbLine
 10
170
 20
270
 30
0
 11
170
 21
275
 31
0
  0
LINE
  5
2E5
330
2D8
100
AcDbEntity
  8
0
  6
Caddy_Solid
370
    25
100
AcDbLine
 10
210
 20
270
 30
0
 11
210
 21
275
 31
0
  0
LINE
  5
2E6
330
2D8
100
AcDbEntity
  8
0
  6
Caddy_Solid
370
    25
100
AcDbLine
 10
250
 20
270
 30
0
 11
250
 21
275
 31
0
  0
LINE
  5
2E7
330
2D8
100
AcDbEntity
  8
0
  6
Caddy_Solid
370
    25
100
AcDbLine
 10
290
 20
270
 30
0
 11
290
 21
275
 31
0
  0
LINE
  5
2E8
330
2D8
100
AcDbEntity
  8
0
  6
Caddy_Solid
370
    25
100
AcDbLine
 10
330
 20
270
 30
0
 11
330
 21
275
 31
0
  0
LINE
  5
2E9
330
2D8
100
AcDbEntity
  8
0
  6
Caddy_Solid
370
    25
100
AcDbLine
 10
370
 20
270
 30
0
 11
370
 21
275
 31
0
  0
TEXT
  5
2EA
330
2D8
100
AcDbEntity
  8
0
370
    25
100
AcDbText
 10
69.38369947662353
 20
271.2000122070312
 30
0
 40
2.449981689453125
  1
1
 41
0.9
  7
Caddy_Vectorfont1p
 72
     1
 11
69.99999237060547
 21
271.2000122070312
 31
0
100
AcDbText
  0
TEXT
  5
2EB
330
2D8
100
AcDbEntity
  8
0
370
    25
100
AcDbText
 10
109.1610037704468
 20
271.2000122070312
 30
0
 40
2.449981689453125
  1
2
 41
0.9
  7
Caddy_Vectorfont1p
 72
     1
 11
110
 21
271.2000122070312
 31
0
100
AcDbText
  0
TEXT
  5
2EC
330
2D8
100
AcDbEntity
  8
0
370
    25
100
AcDbText
 10
149.1312364929199
 20
271.2000122070312
 30
0
 40
2.449981689453125
  1
3
 41
0.9
  7
Caddy_Vectorfont1p
 72
     1
 11
150
 21
271.2000122070312
 31
0
100
AcDbText
  0
TEXT
  5
2ED
330
2D8
100
AcDbEntity
  8
0
370
    25
100
AcDbText
 10
189.0364222015381
 20
271.2000122070312
 30
0
 40
2.449981689453125
  1
4
 41
0.9
  7
Caddy_Vectorfont1p
 72
     1
 11
190
 21
271.2000122070312
 31
0
100
AcDbText
  0
TEXT
  5
2EE
330
2D8
100
AcDbEntity
  8
0
370
    25
100
AcDbText
 10
229.1433639022827
 20
271.2000122070312
 30
0
 40
2.449981689453125
  1
5
 41
0.9
  7
Caddy_Vectorfont1p
 72
     1
 11
230
 21
271.2000122070312
 31
0
100
AcDbText
  0
TEXT
  5
2EF
330
2D8
100
AcDbEntity
  8
0
370
    25
100
AcDbText
 10
269.1433639022827
 20
271.2000122070312
 30
0
 40
2.449981689453125
  1
6
 41
0.9
  7
Caddy_Vectorfont1p
 72
     1
 11
270
 21
271.2000122070312
 31
0
100
AcDbText
  0
TEXT
  5
2F0
330
2D8
100
AcDbEntity
  8
0
370
    25
100
AcDbText
 10
309.140056427002
 20
271.2000122070312
 30
0
 40
2.449981689453125
  1
7
 41
0.9
  7
Caddy_Vectorfont1p
 72
     1
 11
310
 21
271.2000122070312
 31
0
100
AcDbText
  0
TEXT
  5
2F1
330
2D8
100
AcDbEntity
  8
0
370
    25
100
AcDbText
 10
349.1433639022827
 20
271.2000122070312
 30
0
 40
2.449981689453125
  1
8
 41
0.9
  7
Caddy_Vectorfont1p
 72
     1
 11
350
 21
271.2000122070312
 31
0
100
AcDbText
  0
TEXT
  5
2F2
330
2D8
100
AcDbEntity
  8
0
370
    25
100
AcDbText
 10
389.1433639022827
 20
271.2000122070312
 30
0
 40
2.449981689453125
  1
9
 41
0.9
  7
Caddy_Vectorfont1p
 72
     1
 11
390
 21
271.2000122070312
 31
0
100
AcDbText
  0
TEXT
  5
2F3
330
2D8
100
AcDbEntity
  8
0
370
    25
100
AcDbText
 10
70
 20
265.2000122070312
 30
0
 40
2.449981689453125
  1

 41
0.9
  7
Caddy_Vectorfont1p
 72
     1
 11
70
 21
265.2000122070312
 31
0
100
AcDbText
  0
TEXT
  5
2F4
330
2D8
100
AcDbEntity
  8
0
370
    25
100
AcDbText
 10
110
 20
265.2000122070312
 30
0
 40
2.449981689453125
  1

 41
0.9
  7
Caddy_Vectorfont1p
 72
     1
 11
110
 21
265.2000122070312
 31
0
100
AcDbText
  0
TEXT
  5
2F5
330
2D8
100
AcDbEntity
  8
0
370
    25
100
AcDbText
 10
150
 20
265.2000122070312
 30
0
 40
2.449981689453125
  1

 41
0.9
  7
Caddy_Vectorfont1p
 72
     1
 11
150
 21
265.2000122070312
 31
0
100
AcDbText
  0
TEXT
  5
2F6
330
2D8
100
AcDbEntity
  8
0
370
    25
100
AcDbText
 10
190
 20
265.2000122070312
 30
0
 40
2.449981689453125
  1

 41
0.9
  7
Caddy_Vectorfont1p
 72
     1
 11
190
 21
265.2000122070312
 31
0
100
AcDbText
  0
TEXT
  5
2F7
330
2D8
100
AcDbEntity
  8
0
370
    25
100
AcDbText
 10
230
 20
265.2000122070312
 30
0
 40
2.449981689453125
  1

 41
0.9
  7
Caddy_Vectorfont1p
 72
     1
 11
230
 21
265.2000122070312
 31
0
100
AcDbText
  0
TEXT
  5
2F8
330
2D8
100
AcDbEntity
  8
0
370
    25
100
AcDbText
 10
270.0000305175781
 20
265.2000122070312
 30
0
 40
2.449981689453125
  1

 41
0.9
  7
Caddy_Vectorfont1p
 72
     1
 11
270.0000305175781
 21
265.2000122070312
 31
0
100
AcDbText
  0
TEXT
  5
2F9
330
2D8
100
AcDbEntity
  8
0
370
    25
100
AcDbText
 10
310.0000305175781
 20
265.2000122070312
 30
0
 40
2.449981689453125
  1

 41
0.9
  7
Caddy_Vectorfont1p
 72
     1
 11
310.0000305175781
 21
265.2000122070312
 31
0
100
AcDbText
  0
TEXT
  5
2FA
330
2D8
100
AcDbEntity
  8
0
370
    25
100
AcDbText
 10
350.0000305175781
 20
265.2000122070312
 30
0
 40
2.449981689453125
  1

 41
0.9
  7
Caddy_Vectorfont1p
 72
     1
 11
350.0000305175781
 21
265.2000122070312
 31
0
100
AcDbText
  0
TEXT
  5
2FB
330
2D8
100
AcDbEntity
  8
0
370
    25
100
AcDbText
 10
390.0000305175781
 20
265.2000122070312
 30
0
 40
2.449981689453125
  1

 41
0.9
  7
Caddy_Vectorfont1p
 72
     1
 11
390.0000305175781
 21
265.2000122070312
 31
0
100
AcDbText
  0
LINE
  5
2FC
330
2D8
100
AcDbEntity
  8
0
  6
Caddy_Solid
370
    25
100
AcDbLine
 10
15
 20
270
 30
0
 11
15
 21
30
 31
0
  0
LINE
  5
2FD
330
2D8
100
AcDbEntity
  8
0
  6
Caddy_Solid
370
    25
100
AcDbLine
 10
405
 20
270
 30
0
 11
405
 21
30
 31
0
  0
LINE
  5
2FE
330
2D8
100
AcDbEntity
  8
0
  6
Caddy_Solid
370
    25
100
AcDbLine
 10
15
 20
230
 30
0
 11
10
 21
230
 31
0
  0
LINE
  5
2FF
330
2D8
100
AcDbEntity
  8
0
  6
Caddy_Solid
370
    25
100
AcDbLine
 10
15
 20
190
 30
0
 11
10
 21
190
 31
0
  0
LINE
  5
300
330
2D8
100
AcDbEntity
  8
0
  6
Caddy_Solid
370
    25
100
AcDbLine
 10
15
 20
150
 30
0
 11
10
 21
150
 31
0
  0
LINE
  5
301
330
2D8
100
AcDbEntity
  8
0
  6
Caddy_Solid
370
    25
100
AcDbLine
 10
10
 20
110
 30
0
 11
15
 21
110
 31
0
  0
LINE
  5
302
330
2D8
100
AcDbEntity
  8
0
  6
Caddy_Solid
370
    25
100
AcDbLine
 10
10
 20
70
 30
0
 11
15
 21
70
 31
0
  0
TEXT
  5
303
330
2D8
100
AcDbEntity
  8
0
370
    25
100
AcDbText
 10
11.39750137329102
 20
248.6999969482422
 30
0
 40
2.449996948242188
  1
A
 41
0.9
  7
Caddy_Vectorfont1p
 72
     1
 11
12.5
 21
248.6999969482422
 31
0
100
AcDbText
  0
TEXT
  5
304
330
2D8
100
AcDbEntity
  8
0
370
    25
100
AcDbText
 10
11.52098121948242
 20
208.6999969482422
 30
0
 40
2.449996948242188
  1
B
 41
0.9
  7
Caddy_Vectorfont1p
 72
     1
 11
12.5
 21
208.6999969482422
 31
0
100
AcDbText
  0
TEXT
  5
305
330
2D8
100
AcDbEntity
  8
0
370
    25
100
AcDbText
 10
11.65548605194092
 20
168.6999969482422
 30
0
 40
2.449996948242188
  1
C
 41
0.9
  7
Caddy_Vectorfont1p
 72
     1
 11
12.5
 21
168.6999969482422
 31
0
100
AcDbText
  0
TEXT
  5
306
330
2D8
100
AcDbEntity
  8
0
370
    25
100
AcDbText
 10
11.52098121948242
 20
128.6999969482422
 30
0
 40
2.449996948242188
  1
D
 41
0.9
  7
Caddy_Vectorfont1p
 72
     1
 11
12.5
 21
128.6999969482422
 31
0
100
AcDbText
  0
TEXT
  5
307
330
2D8
100
AcDbEntity
  8
0
370
    25
100
AcDbText
 10
11.65548342208862
 20
88.69999694824219
 30
0
 40
2.450004577636719
  1
E
 41
0.9
  7
Caddy_Vectorfont1p
 72
     1
 11
12.5
 21
88.69999694824219
 31
0
100
AcDbText
  0
TEXT
  5
308
330
2D8
100
AcDbEntity
  8
0
370
    25
100
AcDbText
 10
11.65548473701477
 20
48.70000076293945
 30
0
 40
2.450000762939453
  1
F
 41
0.9
  7
Caddy_Vectorfont1p
 72
     1
 11
12.5
 21
48.70000076293945
 31
0
100
AcDbText
  0
LINE
  5
309
330
2D8
100
AcDbEntity
  8
0
  6
Caddy_Solid
370
    25
100
AcDbLine
 10
410
 20
230
 30
0
 11
405
 21
230
 31
0
  0
LINE
  5
30A
330
2D8
100
AcDbEntity
  8
0
  6
Caddy_Solid
370
    25
100
AcDbLine
 10
410
 20
190
 30
0
 11
405
 21
190
 31
0
  0
LINE
  5
30B
330
2D8
100
AcDbEntity
  8
0
  6
Caddy_Solid
370
    25
100
AcDbLine
 10
410
 20
150
 30
0
 11
405
 21
150
 31
0
  0
LINE
  5
30C
330
2D8
100
AcDbEntity
  8
0
  6
Caddy_Solid
370
    25
100
AcDbLine
 10
405
 20
110
 30
0
 11
410
 21
110
 31
0
  0
LINE
  5
30D
330
2D8
100
AcDbEntity
  8
0
  6
Caddy_Solid
370
    25
100
AcDbLine
 10
405
 20
70
 30
0
 11
410
 21
70
 31
0
  0
TEXT
  5
30E
330
2D8
100
AcDbEntity
  8
0
370
    25
100
AcDbText
 10
406.397501373291
 20
248.6999969482422
 30
0
 40
2.449996948242188
  1
A
 41
0.9
  7
Caddy_Vectorfont1p
 72
     1
 11
407.5
 21
248.6999969482422
 31
0
100
AcDbText
  0
TEXT
  5
30F
330
2D8
100
AcDbEntity
  8
0
370
    25
100
AcDbText
 10
406.5209812194824
 20
208.6999969482422
 30
0
 40
2.449996948242188
  1
B
 41
0.9
  7
Caddy_Vectorfont1p
 72
     1
 11
407.5
 21
208.6999969482422
 31
0
100
AcDbText
  0
TEXT
  5
310
330
2D8
100
AcDbEntity
  8
0
370
    25
100
AcDbText
 10
406.6554860519409
 20
168.6999969482422
 30
0
 40
2.449996948242188
  1
C
 41
0.9
  7
Caddy_Vectorfont1p
 72
     1
 11
407.5
 21
168.6999969482422
 31
0
100
AcDbText
  0
TEXT
  5
311
330
2D8
100
AcDbEntity
  8
0
370
    25
100
AcDbText
 10
406.5209812194824
 20
128.6999969482422
 30
0
 40
2.449996948242188
  1
D
 41
0.9
  7
Caddy_Vectorfont1p
 72
     1
 11
407.5
 21
128.6999969482422
 31
0
100
AcDbText
  0
TEXT
  5
312
330
2D8
100
AcDbEntity
  8
0
370
    25
100
AcDbText
 10
406.6554834220887
 20
88.69999694824219
 30
0
 40
2.450004577636719
  1
E
 41
0.9
  7
Caddy_Vectorfont1p
 72
     1
 11
407.5
 21
88.69999694824219
 31
0
100
AcDbText
  0
TEXT
  5
313
330
2D8
100
AcDbEntity
  8
0
370
    25
100
AcDbText
 10
406.6554847370148
 20
48.70000076293945
 30
0
 40
2.450000762939453
  1
F
 41
0.9
  7
Caddy_Vectorfont1p
 72
     1
 11
407.5
 21
48.70000076293945
 31
0
100
AcDbText
  0
LINE
  5
314
330
2D8
100
AcDbEntity
  8
0
  6
Caddy_Solid
370
    25
100
AcDbLine
 10
15
 20
270
 30
0
 11
405
 21
270
 31
0
  0
LINE
  5
315
330
2D8
100
AcDbEntity
  8
0
  6
Caddy_Solid
370
    50
100
AcDbLine
 10
410
 20
10
 30
0
 11
10
 21
10
 31
0
  0
LINE
  5
316
330
2D8
100
AcDbEntity
  8
0
  6
Caddy_Solid
370
    50
100
AcDbLine
 10
10
 20
30
 30
0
 11
410
 21
30
 31
0
  0
LINE
  5
317
330
2D8
100
AcDbEntity
  8
0
  6
Caddy_Solid
370
    25
100
AcDbLine
 10
260
 20
20
 30
0
 11
410
 21
20
 31
0
  0
LINE
  5
318
330
2D8
100
AcDbEntity
  8
0
  6
Caddy_Solid
370
    25
100
AcDbLine
 10
10
 20
30
 30
0
 11
15
 21
30
 31
0
  0
LINE
  5
319
330
2D8
100
AcDbEntity
  8
0
  6
Caddy_Solid
370
    25
100
AcDbLine
 10
405
 20
30
 30
0
 11
410
 21
30
 31
0
  0
LINE
  5
31A
330
2D8
100
AcDbEntity
  8
0
  6
Caddy_Solid
370
    50
100
AcDbLine
 10
65
 20
30
 30
0
 11
65
 21
10
 31
0
  0
TEXT
  5
31B
330
2D8
100
AcDbEntity
  8
0
370
    25
100
AcDbText
 10
69.19999694824219
 20
14.19999980926514
 30
0
 40
2.449999809265137
  1
Kassepakker
 41
0.9
  7
Caddy_Vectorfont1p
 11
0
 21
0
 31
0
100
AcDbText
  0
TEXT
  5
31C
330
2D8
100
AcDbEntity
  8
0
370
    25
100
AcDbText
 10
69.19999694824219
 20
23.20000076293945
 30
0
 40
2.44999885559082
  1
MPN - GUIDED BY VISION
 41
0.9
  7
Caddy_Vectorfont1p
 11
0
 21
0
 31
0
100
AcDbText
  0
TEXT
  5
31D
330
2D8
100
AcDbEntity
  8
0
370
    25
100
AcDbText
 10
69.19999694824219
 20
18.70000076293945
 30
0
 40
2.44999885559082
  1
Søris
 41
0.9
  7
Caddy_Vectorfont1p
 11
0
 21
0
 31
0
100
AcDbText
  0
LINE
  5
31E
330
2D8
100
AcDbEntity
  8
0
  6
Caddy_Solid
370
    50
100
AcDbLine
 10
160
 20
30
 30
0
 11
160
 21
10
 31
0
  0
TEXT
  5
31F
330
2D8
100
AcDbEntity
  8
0
370
    25
100
AcDbText
 10
164.1999969482422
 20
23.20000076293945
 30
0
 40
2.44999885559082
  1
Moxa
 41
0.9
  7
Caddy_Vectorfont1p
 11
0
 21
0
 31
0
100
AcDbText
  0
TEXT
  5
320
330
2D8
100
AcDbEntity
  8
0
370
    25
100
AcDbText
 10
164.1999969482422
 20
18.70000076293945
 30
0
 40
2.44999885559082
  1

 41
0.9
  7
Caddy_Vectorfont1p
 11
0
 21
0
 31
0
100
AcDbText
  0
TEXT
  5
321
330
2D8
100
AcDbEntity
  8
0
370
    25
100
AcDbText
 10
164.1999969482422
 20
14.19999980926514
 30
0
 40
2.449999809265137
  1

 41
0.9
  7
Caddy_Vectorfont1p
 11
0
 21
0
 31
0
100
AcDbText
  0
LINE
  5
322
330
2D8
100
AcDbEntity
  8
0
  6
Caddy_Solid
370
    50
100
AcDbLine
 10
260
 20
30
 30
0
 11
260
 21
10
 31
0
  0
TEXT
  5
323
330
2D8
100
AcDbEntity
  8
0
370
    25
100
AcDbText
 10
261.2000122070312
 20
26.20000076293945
 30
0
 40
2.44999885559082
  1
Projekt:
 41
0.9
  7
Caddy_Vectorfont1p
 11
0
 21
0
 31
0
100
AcDbText
  0
TEXT
  5
324
330
2D8
100
AcDbEntity
  8
0
370
    25
100
AcDbText
 10
261.2000122070312
 20
16.20000076293945
 30
0
 40
2.44999885559082
  1
Dato:
 41
0.9
  7
Caddy_Vectorfont1p
 11
0
 21
0
 31
0
100
AcDbText
  0
LINE
  5
325
330
2D8
100
AcDbEntity
  8
0
  6
Caddy_Solid
370
    25
100
AcDbLine
 10
290
 20
30
 30
0
 11
290
 21
10
 31
0
  0
TEXT
  5
326
330
2D8
100
AcDbEntity
  8
0
370
    25
100
AcDbText
 10
291.2000122070312
 20
16.20000076293945
 30
0
 40
2.44999885559082
  1
Funkt.:
 41
0.9
  7
Caddy_Vectorfont1p
 11
0
 21
0
 31
0
100
AcDbText
  0
TEXT
  5
327
330
2D8
100
AcDbEntity
  8
0
370
    25
100
AcDbText
 10
291.2000122070312
 20
26.20000076293945
 30
0
 40
2.44999885559082
  1
Tegn. nr.:
 41
0.9
  7
Caddy_Vectorfont1p
 11
0
 21
0
 31
0
100
AcDbText
  0
TEXT
  5
328
330
2D8
100
AcDbEntity
  8
0
370
    25
100
AcDbText
 10
256.7441815986633
 20
21.70000076293945
 30
0
 40
2.44999885559082
  1
Servo_kassepakker
 41
0.9
  7
Caddy_Vectorfont1p
 72
     2
 11
286.2999877929688
 21
21.70000076293945
 31
0
100
AcDbText
  0
TEXT
  5
329
330
2D8
100
AcDbEntity
  8
0
370
    25
100
AcDbText
 10
270.465853508091
 20
11.69999980926514
 30
0
 40
2.449999809265137
  1
15-01-2007
 41
0.9
  7
Caddy_Vectorfont1p
 72
     2
 11
286.2999572753906
 21
11.69999980926514
 31
0
100
AcDbText
  0
LINE
  5
32A
330
2D8
100
AcDbEntity
  8
0
  6
Caddy_Solid
370
    25
100
AcDbLine
 10
320
 20
20
 30
0
 11
320
 21
10
 31
0
  0
TEXT
  5
32B
330
2D8
100
AcDbEntity
  8
0
370
    25
100
AcDbText
 10
321.2000122070312
 20
16.20000076293945
 30
0
 40
2.44999885559082
  1
Plac.:
 41
0.9
  7
Caddy_Vectorfont1p
 11
0
 21
0
 31
0
100
AcDbText
  0
TEXT
  5
32C
330
2D8
100
AcDbEntity
  8
0
370
    25
100
AcDbText
 10
314.9527328978539
 20
11.69999980926514
 30
0
 40
2.449999809265137
  1
=
 41
0.9
  7
Caddy_Vectorfont1p
 72
     2
 11
316.2999877929688
 21
11.69999980926514
 31
0
100
AcDbText
  0
LINE
  5
32D
330
2D8
100
AcDbEntity
  8
0
  6
Caddy_Solid
370
    25
100
AcDbLine
 10
382.5
 20
20
 30
0
 11
382.5
 21
30
 31
0
  0
LINE
  5
32E
330
2D8
100
AcDbEntity
  8
0
  6
Caddy_Solid
370
    25
100
AcDbLine
 10
382.5
 20
10
 30
0
 11
382.5
 21
20
 31
0
  0
TEXT
  5
32F
330
2D8
100
AcDbEntity
  8
0
370
    25
100
AcDbText
 10
349.952763415432
 20
11.69999980926514
 30
0
 40
2.449999809265137
  1
+
 41
0.9
  7
Caddy_Vectorfont1p
 72
     2
 11
351.3000183105469
 21
11.69999980926514
 31
0
100
AcDbText
  0
LINE
  5
330
330
2D8
100
AcDbEntity
  8
0
  6
Caddy_Solid
370
    25
100
AcDbLine
 10
355
 20
10
 30
0
 11
355
 21
20
 31
0
  0
LINE
  5
331
330
2D8
100
AcDbEntity
  8
0
  6
Caddy_Solid
370
    25
100
AcDbLine
 10
355
 20
20
 30
0
 11
355
 21
30
 31
0
  0
TEXT
  5
332
330
2D8
100
AcDbEntity
  8
0
370
    25
100
AcDbText
 10
356.2000122070312
 20
26.20000076293945
 30
0
 40
2.44999885559082
  1
Rev.:
 41
0.9
  7
Caddy_Vectorfont1p
 11
0
 21
0
 31
0
100
AcDbText
  0
LINE
  5
333
330
2D8
100
AcDbEntity
  8
0
  6
Caddy_Solid
370
    25
100
AcDbLine
 10
337.5
 20
20
 30
0
 11
337.5
 21
30
 31
0
  0
TEXT
  5
334
330
2D8
100
AcDbEntity
  8
0
370
    35
100
AcDbText
 10
333.5
 20
21.75
 30
0
 40
3.5
  1

 41
0.9
  7
Caddy_Vectorfont1p
 72
     2
 11
333.5
 21
21.75
 31
0
100
AcDbText
  0
TEXT
  5
335
330
2D8
100
AcDbEntity
  8
0
370
    25
100
AcDbText
 10
338.7000122070312
 20
26.20000076293945
 30
0
 40
2.44999885559082
  1
Init.:
 41
0.9
  7
Caddy_Vectorfont1p
 11
0
 21
0
 31
0
100
AcDbText
  0
TEXT
  5
336
330
2D8
100
AcDbEntity
  8
0
370
    25
100
AcDbText
 10
351.3000183105469
 20
21.70000076293945
 30
0
 40
2.44999885559082
  1

 41
0.9
  7
Caddy_Vectorfont1p
 72
     2
 11
351.3000183105469
 21
21.70000076293945
 31
0
100
AcDbText
  0
TEXT
  5
337
330
2D8
100
AcDbEntity
  8
0
370
    25
100
AcDbText
 10
378.8000183105469
 20
21.70000076293945
 30
0
 40
2.44999885559082
  1

 41
0.9
  7
Caddy_Vectorfont1p
 72
     2
 11
378.8000183105469
 21
21.70000076293945
 31
0
100
AcDbText
  0
TEXT
  5
338
330
2D8
100
AcDbEntity
  8
0
370
    35
100
AcDbText
 10
399.54245
 20
21.75
 30
0
 40
3.5
  1
16
 41
0.9
  7
Caddy_Vectorfont1p
 72
     2
 11
403.25
 21
21.75
 31
0
100
AcDbText
  0
TEXT
  5
339
330
2D8
100
AcDbEntity
  8
0
370
    35
100
AcDbText
 10
405.25
 20
21.75
 30
0
 40
3.5
  1

 41
0.9
  7
Caddy_Vectorfont1p
 11
0
 21
0
 31
0
100
AcDbText
  0
TEXT
  5
33A
330
2D8
100
AcDbEntity
  8
0
370
    25
100
AcDbText
 10
383.7000122070312
 20
26.20000076293945
 30
0
 40
2.44999885559082
  1
Blad:
 41
0.9
  7
Caddy_Vectorfont1p
 11
0
 21
0
 31
0
100
AcDbText
  0
TEXT
  5
33B
330
2D8
100
AcDbEntity
  8
0
370
    25
100
AcDbText
 10
403.6981185131073
 20
11.69999980926514
 30
0
 40
2.449999809265137
  1
17
 41
0.9
  7
Caddy_Vectorfont1p
 72
     2
 11
406.3000183105469
 21
11.69999980926514
 31
0
100
AcDbText
  0
TEXT
  5
33C
330
2D8
100
AcDbEntity
  8
0
370
    25
100
AcDbText
 10
383.7000122070312
 20
16.20000076293945
 30
0
 40
2.44999885559082
  1
Næste blad:
 41
0.9
  7
Caddy_Vectorfont1p
 11
0
 21
0
 31
0
100
AcDbText
  0
TEXT
  5
33D
330
2D8
100
AcDbEntity
  8
0
370
    25
100
AcDbText
 10
356.2000122070312
 20
16.20000076293945
 30
0
 40
2.44999885559082
  1
Antal blade:
 41
0.9
  7
Caddy_Vectorfont1p
 11
0
 21
0
 31
0
100
AcDbText
  0
TEXT
  5
33E
330
2D8
100
AcDbEntity
  8
0
370
    25
100
AcDbText
 10
376.202528512764
 20
11.69999980926514
 30
0
 40
2.449999809265137
  1
31
 41
0.9
  7
Caddy_Vectorfont1p
 72
     2
 11
378.8000183105469
 21
11.69999980926514
 31
0
100
AcDbText
  0
IMAGE
  5
341
330
2D8
100
AcDbEntity
  8
0
 92
        8
310
0000000000000000
100
AcDbRasterImage
 90
        0
 10
12
 20
15
 30
0
 11
0.04549509366636931
 21
0
 31
0
 12
0
 22
0.04843332647489241
 32
0
 13
51
 23
10
340
340
 70
     3
280
     0
281
    50
282
    50
283
     0
360
343
 71
     1
 14
-0.5
 24
-0.5
 14
50.5
 24
9.5
  0
ENDBLK
  5
2DA
330
2D8
100
AcDbEntity
  8
0
100
AcDbBlockEnd
  0
ENDSEC
  0
SECTION
  2
ENTITIES
  0
INSERT
  5
43
330
1F
100
AcDbEntity
  8
0
100
AcDbBlockReference
 66
     1
  2
Blk1
 10
0
 20
0
 30
1
  0
ATTRIB
  5
46
330
43
100
AcDbEntity
  8
0
370
    25
100
AcDbText
 10
29.26500701904297
 20
260.9000244140625
 30
0
 40
2.449981689453125
  1
0708
 41
0.9
  7
Caddy_Vectorfont1p
 11
0
 21
0
 31
0
100
AcDbAttribute
  2
$TAG160010
 70
     0
  0
SEQEND
  5
47
330
43
100
AcDbEntity
  8
0
  0
INSERT
  5
52
330
1F
100
AcDbEntity
  8
0
100
AcDbBlockReference
 66
     1
  2
Blk2
 10
0
 20
0
 30
1
  0
ATTRIB
  5
55
330
52
100
AcDbEntity
  8
0
370
    25
100
AcDbText
 10
381.2671334106445
 20
260.9000244140625
 30
0
 40
2.449981689453125
  1
0708
 41
0.9
  7
Caddy_Vectorfont1p
 72
     2
 11
387.7850646972656
 21
260.9000244140625
 31
0
100
AcDbAttribute
  2
$TAG160010
 70
     0
  0
SEQEND
  5
56
330
52
100
AcDbEntity
  8
0
  0
LINE
  5
5E
330
1F
100
AcDbEntity
  8
0
  6
Caddy_Solid
370
    25
100
AcDbLine
 10
27.5
 20
260
 30
0
 11
80
 21
260
 31
0
  0
LINE
  5
5F
330
1F
100
AcDbEntity
  8
0
  6
Caddy_Solid
370
    25
100
AcDbLine
 10
80
 20
260
 30
0
 11
392.5
 21
260
 31
0
  0
INSERT
  5
63
330
1F
100
AcDbEntity
  8
0
100
AcDbBlockReference
 66
     1
  2
Blk3
 10
0
 20
0
 30
1
  0
ATTRIB
  5
66
330
63
100
AcDbEntity
  8
0
370
    25
100
AcDbText
 10
29.26500701904297
 20
255.9000091552734
 30
0
 40
2.449996948242188
  1
0707
 41
0.9
  7
Caddy_Vectorfont1p
 11
0
 21
0
 31
0
100
AcDbAttribute
  2
$TAG160010
 70
     0
  0
SEQEND
  5
67
330
63
100
AcDbEntity
  8
0
  0
INSERT
  5
72
330
1F
100
AcDbEntity
  8
0
100
AcDbBlockReference
 66
     1
  2
Blk4
 10
0
 20
0
 30
1
  0
ATTRIB
  5
75
330
72
100
AcDbEntity
  8
0
370
    25
100
AcDbText
 10
381.2604778244018
 20
255.9000091552734
 30
0
 40
2.449996948242188
  1
0707
 41
0.9
  7
Caddy_Vectorfont1p
 72
     2
 11
387.7850646972656
 21
255.9000091552734
 31
0
100
AcDbAttribute
  2
$TAG160010
 70
     0
  0
SEQEND
  5
76
330
72
100
AcDbEntity
  8
0
  0
LINE
  5
7E
330
1F
100
AcDbEntity
  8
0
  6
Caddy_Solid
370
    25
100
AcDbLine
 10
27.5
 20
255
 30
0
 11
85
 21
255
 31
0
  0
LINE
  5
7F
330
1F
100
AcDbEntity
  8
0
  6
Caddy_Solid
370
    25
100
AcDbLine
 10
85
 20
255
 30
0
 11
392.5
 21
255
 31
0
  0
LINE
  5
80
330
1F
100
AcDbEntity
  8
0
  6
Caddy_Solid
370
    25
100
AcDbLine
 10
80
 20
195
 30
0
 11
80
 21
260
 31
0
  0
TEXT
  5
81
330
1F
100
AcDbEntity
  8
0
370
    25
100
AcDbText
 10
79.5
 20
227.5
 30
0
 40
1.75
  1

 50
90
 41
0.9
  7
Caddy_Vectorfont1p
 72
     1
 11
79.5
 21
227.5
 31
0
100
AcDbText
  0
CIRCLE
  5
82
330
1F
100
AcDbEntity
  8
0
370
    40
100
AcDbCircle
 10
80
 20
260
 30
0
 40
0.8
  0
CIRCLE
  5
83
330
1F
100
AcDbEntity
  8
0
370
    40
100
AcDbCircle
 10
80
 20
260
 30
0
 40
0.6
  0
CIRCLE
  5
84
330
1F
100
AcDbEntity
  8
0
370
    40
100
AcDbCircle
 10
80
 20
260
 30
0
 40
0.4
  0
LINE
  5
85
330
1F
100
AcDbEntity
  8
0
  6
Caddy_Solid
370
    25
100
AcDbLine
 10
85
 20
195
 30
0
 11
85
 21
255
 31
0
  0
TEXT
  5
86
330
1F
100
AcDbEntity
  8
0
370
    25
100
AcDbText
 10
84.5
 20
225
 30
0
 40
1.75
  1

 50
90
 41
0.9
  7
Caddy_Vectorfont1p
 72
     1
 11
84.5
 21
225
 31
0
100
AcDbText
  0
CIRCLE
  5
87
330
1F
100
AcDbEntity
  8
0
370
    40
100
AcDbCircle
 10
85
 20
255
 30
0
 40
0.8
  0
CIRCLE
  5
88
330
1F
100
AcDbEntity
  8
0
370
    40
100
AcDbCircle
 10
85
 20
255
 30
0
 40
0.6
  0
CIRCLE
  5
89
330
1F
100
AcDbEntity
  8
0
370
    40
100
AcDbCircle
 10
85
 20
255
 30
0
 40
0.4
  0
INSERT
  5
8D
330
1F
100
AcDbEntity
  8
0
100
AcDbBlockReference
  2
Blk5
 10
0
 20
0
 30
1
  0
INSERT
  5
2CD
330
1F
100
AcDbEntity
  8
0
100
AcDbBlockReference
 66
     1
  2
Blk27
 10
0
 20
0
 30
1
  0
ATTRIB
  5
2D1
330
2CD
100
AcDbEntity
  8
0
370
    25
100
AcDbText
 10
241.1439377250671
 20
105.8999938964844
 30
0
 40
2.450004577636719
  1
2
 41
0.9
  7
Caddy_Vectorfont1p
 72
     2
 11
242.5000152587891
 21
105.8999938964844
 31
0
100
AcDbAttribute
  2
$TAG160010
 70
     0
  0
SEQEND
  5
2D2
330
2CD
100
AcDbEntity
  8
0
  0
LINE
  5
2D6
330
1F
100
AcDbEntity
  8
0
  6
Caddy_Solid
370
    25
100
AcDbLine
 10
210
 20
105
 30
0
 11
245
 21
105
 31
0
  0
TEXT
  5
2D7
330
1F
100
AcDbEntity
  8
0
370
    25
100
AcDbText
 10
60.59999847412109
 20
180.6000061035156
 30
0
 40
2.099990844726562
  1
SW1902
 41
0.9
  7
Caddy_Vectorfont1p
 11
0
 21
0
 31
0
100
AcDbText
  0
INSERT
  5
2DB
330
1F
100
AcDbEntity
  8
0
100
AcDbBlockReference
  2
Blk28
 10
0
 20
0
 30
1
  0
ENDSEC
  0
SECTION
  2
OBJECTS
  0
DICTIONARY
  5
C
330
0
100
AcDbDictionary
281
     1
  3
ACAD_GROUP
350
D
  3
ACAD_PLOTSTYLENAME
350
E
  3
ACAD_MLINESTYLE
350
17
  3
ACAD_PLOTSETTINGS
350
19
  3
ACAD_LAYOUT
350
1A
  3
ACAD_IMAGE_DICT
350
33F
  3
ACAD_IMAGE_VARS
350
342
  0
DICTIONARY
  5
D
102
{ACAD_REACTORS
330
C
102
}
330
C
100
AcDbDictionary
281
     1
  0
ACDBDICTIONARYWDFLT
  5
E
102
{ACAD_REACTORS
330
C
102
}
330
C
100
AcDbDictionary
281
     1
  3
Normal
350
F
100
AcDbDictionaryWithDefault
340
F
  0
ACDBPLACEHOLDER
  5
F
102
{ACAD_REACTORS
330
E
102
}
330
E
  0
DICTIONARY
  5
17
102
{ACAD_REACTORS
330
C
102
}
330
C
100
AcDbDictionary
281
     1
  3
Standard
350
18
  0
MLINESTYLE
  5
18
102
{ACAD_REACTORS
330
17
102
}
330
17
100
AcDbMlineStyle
  2
Standard
 70
     0
  3

 62
   256
 51
90
 52
90
 71
     2
 49
0.5
 62
   256
  6
BYLAYER
 49
-0.5
 62
   256
  6
BYLAYER
  0
DICTIONARY
  5
19
102
{ACAD_REACTORS
330
C
102
}
330
C
100
AcDbDictionary
281
     1
  0
DICTIONARY
  5
1A
102
{ACAD_REACTORS
330
C
102
}
330
C
100
AcDbDictionary
281
     1
  3
Layout1
350
1E
  3
Model
350
22
  3
Layout2
350
26
  0
LAYOUT
  5
1E
102
{ACAD_REACTORS
330
1A
102
}
330
1A
100
AcDbPlotSettings
  1

  2

  4

  6

 40
0
 41
0
 42
0
 43
0
 44
0
 45
0
 46
0
 47
0
 48
0
 49
0
140
0
141
0
  6

142
1
143
1
 70
   688
 72
     0
 73
     0
 74
     5
  7

 75
    16
147
1
148
0
149
0
100
AcDbLayout
  1
Layout1
 70
     1
 71
     1
 10
0
 20
0
 11
420
 21
297
 12
0
 22
0
 32
0
 14
1E+20
 24
1E+20
 34
1E+20
 15
-1E+20
 25
-1E+20
 35
-1E+20
146
0
 13
0
 23
0
 33
0
 16
1
 26
0
 36
0
 17
0
 27
1
 37
0
 76
     0
330
1B
  0
LAYOUT
  5
22
102
{ACAD_REACTORS
330
1A
102
}
330
1A
100
AcDbPlotSettings
  1

  2

  4

  6

 40
0
 41
0
 42
0
 43
0
 44
0
 45
0
 46
0
 47
0
 48
0
 49
0
140
0
141
0
  6

142
1
143
1
 70
  1712
 72
     0
 73
     0
 74
     0
  7

 75
     0
147
1
148
0
149
0
100
AcDbLayout
  1
Model
 70
     1
 71
     0
 10
0
 20
0
 11
0
 21
0
 12
0
 22
0
 32
0
 14
0
 24
0
 34
0
 15
420
 25
297
 35
0
146
0
 13
0
 23
0
 33
0
 16
1
 26
0
 36
0
 17
0
 27
1
 37
0
 76
     0
330
1F
  0
LAYOUT
  5
26
102
{ACAD_REACTORS
330
1A
102
}
330
1A
100
AcDbPlotSettings
  1

  2

  4

  6

 40
0
 41
0
 42
0
 43
0
 44
0
 45
0
 46
0
 47
0
 48
0
 49
0
140
0
141
0
  6

142
1
143
1
 70
   688
 72
     0
 73
     0
 74
     5
  7

 75
    16
147
1
148
0
149
0
100
AcDbLayout
  1
Layout2
 70
     1
 71
     2
 10
0
 20
0
 11
0
 21
0
 12
0
 22
0
 32
0
 14
0
 24
0
 34
0
 15
0
 25
0
 35
0
146
0
 13
0
 23
0
 33
0
 16
1
 26
0
 36
0
 17
0
 27
1
 37
0
 76
     0
330
23
  0
DICTIONARY
  5
33F
102
{ACAD_REACTORS
330
C
102
}
330
C
100
AcDbDictionary
281
     1
  3
Image2
350
340
  0
IMAGEDEF
  5
340
102
{ACAD_REACTORS
330
33F
330
343
102
}
330
33F
100
AcDbRasterImageDef
 90
        0
  1
.\Moxa - 0016 - Kredsskema - 0016 - Image1.bmp
 10
51
 20
10
 11
0.0196078431372549
 21
0.0196078431372549
280
     1
281
     1
  0
RASTERVARIABLES
  5
342
102
{ACAD_REACTORS
330
C
102
}
330
C
100
AcDbRasterVariables
 90
        0
 70
     0
 71
     1
 72
     1
  0
IMAGEDEF_REACTOR
  5
343
330
341
100
AcDbRasterImageDefReactor
 90
        2
330
341
  0
ENDSEC
  0
EOF
