999
LibreDWG fb9d2fd7
  0
SECTION
  2
HEADER
  9
$ACADVER
  1
AC1015
  9
$ACADMAINTVER
 70
     0
  9
$DWGCODEPAGE
  3
ANSI_1252
  9
$INSBASE
 10
0
 20
0
 30
0
  9
$EXTMIN
 10
0
 20
0
 30
0
  9
$EXTMAX
 10
420
 20
297
 30
0
  9
$LIMMIN
 10
0
 20
0
  9
$LIMMAX
 10
420
 20
297
  9
$ORTHOMODE
 70
     0
  9
$REGENMODE
 70
     1
  9
$FILLMODE
 70
     1
  9
$QTEXTMODE
 70
     0
  9
$MIRRTEXT
 70
     1
  9
$LTSCALE
 40
1
  9
$ATTMODE
 70
     1
  9
$TEXTSIZE
 40
2.5
  9
$TRACEWID
 40
1
  9
$TEXTSTYLE
  7
Standard
  9
$CLAYER
  8
0
  9
$CELTYPE
  6
ByLayer
  9
$CECOLOR
 62
   256
  9
$CELTSCALE
 40
1
  9
$DISPSILH
 70
     0
  9
$DIMSCALE
 40
1
  9
$DIMASZ
 40
2.5
  9
$DIMEXO
 40
0.625
  9
$DIMDLI
 40
3.75
  9
$DIMRND
 40
0
  9
$DIMDLE
 40
0
  9
$DIMEXE
 40
1.25
  9
$DIMTP
 40
0
  9
$DIMTM
 40
0
  9
$DIMTXT
 40
2.5
  9
$DIMCEN
 40
2.5
  9
$DIMTSZ
 40
0
  9
$DIMTOL
 70
     0
  9
$DIMLIM
 70
     0
  9
$DIMTIH
 70
     0
  9
$DIMTOH
 70
     0
  9
$DIMSE1
 70
     0
  9
$DIMSE2
 70
     0
  9
$DIMTAD
 70
     1
  9
$DIMZIN
 70
     8
  9
$DIMBLK
  1

  9
$DIMASO
 70
     1
  9
$DIMSHO
 70
     1
  9
$DIMPOST
  1

  9
$DIMAPOST
  1

  9
$DIMALT
 70
     0
  9
$DIMALTD
 70
     3
  9
$DIMALTF
 40
0.03937007874016
  9
$DIMLFAC
 40
1
  9
$DIMTOFL
 70
     1
  9
$DIMTVP
 40
0
  9
$DIMTIX
 70
     0
  9
$DIMSOXD
 70
     0
  9
$DIMSAH
 70
     0
  9
$DIMBLK1
  1

  9
$DIMBLK2
  1

  9
$DIMSTYLE
  2
ISO-25
  9
$DIMCLRD
 70
     0
  9
$DIMCLRE
 70
     0
  9
$DIMCLRT
 70
     0
  9
$DIMTFAC
 40
1
  9
$DIMGAP
 40
0.625
  9
$DIMJUST
 70
     0
  9
$DIMSD1
 70
     0
  9
$DIMSD2
 70
     0
  9
$DIMTOLJ
 70
     0
  9
$DIMTZIN
 70
     8
  9
$DIMALTZ
 70
     0
  9
$DIMALTTZ
 70
     0
  9
$DIMUPT
 70
     0
  9
$DIMDEC
 70
     2
  9
$DIMTDEC
 70
     2
  9
$DIMALTU
 70
     2
  9
$DIMALTTD
 70
     3
  9
$DIMTXSTY
  7
Standard
  9
$DIMAUNIT
 70
     0
  9
$DIMADEC
 70
     0
  9
$DIMALTRND
 40
0
  9
$DIMAZIN
 70
     0
  9
$DIMDSEP
 70
    44
  9
$DIMATFIT
 70
     3
  9
$DIMFRAC
 70
     0
  9
$DIMLDRBLK
  1

  9
$DIMLUNIT
 70
     2
  9
$DIMLWD
 70
    -2
  9
$DIMLWE
 70
    -2
  9
$DIMTMOVE
 70
     0
  9
$LUNITS
 70
     2
  9
$LUPREC
 70
     4
  9
$AXISMODE
 70
     0
  9
$AXISUNIT
 10
0
 20
0
  9
$SKETCHINC
 40
1
  9
$FILLETRAD
 40
10
  9
$AUNITS
 70
     0
  9
$AUPREC
 70
     0
  9
$MENU
  1
.
  9
$ELEVATION
 40
0
  9
$PELEVATION
 40
0
  9
$THICKNESS
 40
0
  9
$LIMCHECK
 70
     0
  9
$CHAMFERA
 40
10
  9
$CHAMFERB
 40
10
  9
$CHAMFERC
 40
20
  9
$CHAMFERD
 40
0
  9
$SKPOLY
 70
     0
  9
$TDCREATE
 40
2451930.468000000
  9
$TDUCREATE
 40
2451930.468000000
  9
$TDUPDATE
 40
2451930.666000000
  9
$TDUUPDATE
 40
2451930.666000000
  9
$TDINDWG
 40
0.000000010
  9
$TDUSRTIMER
 40
0.000000010
  9
$USRTIMER
 70
     1
  9
$ANGBASE
 50
0
  9
$ANGDIR
 70
     0
  9
$PDMODE
 70
     0
  9
$PDSIZE
 40
0
  9
$PLINEWID
 40
0
  9
$SPLFRAME
 70
     0
  9
$SPLINETYPE
 70
     6
  9
$SPLINESEGS
 70
     8
  9
$HANDSEED
  5
4A3
  9
$SURFTAB1
 70
     6
  9
$SURFTAB2
 70
     6
  9
$SURFTYPE
 70
     6
  9
$SURFU
 70
     6
  9
$SURFV
 70
     6
  9
$UCSBASE
  2

  9
$UCSNAME
  2

  9
$UCSORG
 10
0
 20
0
 30
0
  9
$UCSXDIR
 10
1
 20
0
 30
0
  9
$UCSYDIR
 10
0
 20
1
 30
0
  9
$UCSORTHOREF
  2

  9
$UCSORTHOVIEW
 70
     0
  9
$UCSORGTOP
 10
0
 20
0
 30
0
  9
$UCSORGBOTTOM
 10
0
 20
0
 30
0
  9
$UCSORGLEFT
 10
0
 20
0
 30
0
  9
$UCSORGRIGHT
 10
0
 20
0
 30
0
  9
$UCSORGFRONT
 10
0
 20
0
 30
0
  9
$UCSORGBACK
 10
0
 20
0
 30
0
  9
$PUCSBASE
  2

  9
$PUCSNAME
  2

  9
$PUCSORG
 10
0
 20
0
 30
0
  9
$PUCSXDIR
 10
1
 20
0
 30
0
  9
$PUCSYDIR
 10
0
 20
1
 30
0
  9
$PUCSORTHOREF
  2

  9
$PUCSORTHOVIEW
 70
     0
  9
$PUCSORGTOP
 10
0
 20
0
 30
0
  9
$PUCSORGBOTTOM
 10
0
 20
0
 30
0
  9
$PUCSORGLEFT
 10
0
 20
0
 30
0
  9
$PUCSORGRIGHT
 10
0
 20
0
 30
0
  9
$PUCSORGFRONT
 10
0
 20
0
 30
0
  9
$PUCSORGBACK
 10
0
 20
0
 30
0
  9
$USERI1
 70
     0
  9
$USERI2
 70
     0
  9
$USERI3
 70
     0
  9
$USERI4
 70
     0
  9
$USERI5
 70
     0
  9
$USERR1
 40
0
  9
$USERR2
 40
0
  9
$USERR3
 40
0
  9
$USERR4
 40
0
  9
$USERR5
 40
0
  9
$WORLDVIEW
 70
     1
  9
$SHADEDGE
 70
     3
  9
$SHADEDIF
 70
    70
  9
$TILEMODE
 70
     1
  9
$MAXACTVP
 70
    64
  9
$PINSBASE
 10
0
 20
0
 30
0
  9
$PLIMCHECK
 70
     0
  9
$PEXTMIN
 10
1E+20
 20
1E+20
 30
1E+20
  9
$PEXTMAX
 10
-1E+20
 20
-1E+20
 30
-1E+20
  9
$PLIMMIN
 10
0
 20
0
  9
$PLIMMAX
 10
420
 20
297
  9
$UNITMODE
 70
     0
  9
$VISRETAIN
 70
     1
  9
$PLINEGEN
 70
     0
  9
$PSLTSCALE
 70
     1
  9
$TREEDEPTH
 70
  3020
  9
$CMLSTYLE
  2
Standard
  9
$CMLJUST
 70
     0
  9
$CMLSCALE
 40
20
  9
$PROXYGRAPHICS
 70
     1
  9
$MEASUREMENT
 70
     1
  9
$CELWEIGHT
370
    -1
  9
$ENDCAPS
280
     0
  9
$JOINSTYLE
280
     0
  9
$LWDISPLAY
290
     0
  9
$INSUNITS
 70
     4
  9
$HYPERLINKBASE
  1

  9
$STYLESHEET
  1

  9
$XEDIT
290
     1
  9
$CEPSNTYPE
380
     0
  9
$PSTYLEMODE
290
     1
  9
$FINGERPRINTGUID
  2
{FAEB1C30-E019-11D5-929B-00C0DF256EC4}
  9
$VERSIONGUID
  2
{FAEB1C32-E019-11D5-929B-00C0DF256EC4}
  9
$EXTNAMES
290
     1
  9
$PSVPSCALE
 40
0
  9
$OLESTARTUP
290
     0
  0
ENDSEC
  0
SECTION
  2
CLASSES
  0
CLASS
  1
ACDBDICTIONARYWDFLT
  2
AcDbDictionaryWithDefault
  3
ObjectDBX Classes
 90
        0
280
     0
281
     0
  0
CLASS
  1
IMAGEDEF
  2
AcDbRasterImageDef
  3
ISM
 90
        0
280
     0
281
     0
  0
CLASS
  1
IMAGE
  2
AcDbRasterImage
  3
ISM
 90
      127
280
     0
281
     1
  0
CLASS
  1
RASTERVARIABLES
  2
AcDbRasterVariables
  3
ISM
 90
        0
280
     0
281
     0
  0
CLASS
  1
IMAGEDEF_REACTOR
  2
AcDbRasterImageDefReactor
  3
ISM
 90
        1
280
     0
281
     0
  0
CLASS
  1
ACDBPLACEHOLDER
  2
AcDbPlaceHolder
  3
ObjectDBX Classes
 90
        0
280
     0
281
     0
  0
CLASS
  1
LAYOUT
  2
AcDbLayout
  3
ObjectDBX Classes
 90
        0
280
     0
281
     0
  0
ENDSEC
  0
SECTION
  2
TABLES
  0
TABLE
  2
VPORT
  5
8
330
0
100
AcDbSymbolTable
 70
     2
  0
VPORT
  5
29
330
8
100
AcDbSymbolTableRecord
100
AcDbViewportTableRecord
  2
*Active
 70
     0
 10
0
 20
0
 11
1
 21
1
 12
210
 22
142.5
 13
0
 23
0
 14
10
 24
10
 15
10
 25
10
 16
0
 26
0
 36
1
 17
0
 27
0
 37
0
 40
270.3
 41
1.972972972850329
 42
50
 43
0
 44
0
 50
0
 51
0
 71
     0
 72
   100
 73
     1
 74
     3
 75
     0
 76
     0
 77
     0
 78
     0
281
     0
 65
     1
110
0
120
0
130
0
111
1
121
0
131
0
112
0
122
1
132
0
 79
     0
146
0
  0
ENDTAB
  0
TABLE
  2
LTYPE
  5
5
330
0
100
AcDbSymbolTable
 70
     6
  0
LTYPE
  5
14
330
5
100
AcDbSymbolTableRecord
100
AcDbLinetypeTableRecord
  2
ByBlock
 70
     0
  3

 72
    65
 73
     0
 40
0
  0
LTYPE
  5
15
330
5
100
AcDbSymbolTableRecord
100
AcDbLinetypeTableRecord
  2
ByLayer
 70
     0
  3

 72
    65
 73
     0
 40
0
  0
LTYPE
  5
16
330
5
100
AcDbSymbolTableRecord
100
AcDbLinetypeTableRecord
  2
Continuous
 70
     0
  3
Solid line
 72
    65
 73
     0
 40
0
  0
LTYPE
  5
3B
330
5
100
AcDbSymbolTableRecord
100
AcDbLinetypeTableRecord
  2
Caddy_Solid
 70
     0
  3
____________
 72
    65
 73
     0
 40
0
  0
LTYPE
  5
3C
330
5
100
AcDbSymbolTableRecord
100
AcDbLinetypeTableRecord
  2
Caddy_Dot
 70
     0
  3
. . . . . . 
 72
    65
 73
     2
 40
2
 49
0.5
 74
     0
 49
-1.5
 74
     0
  0
LTYPE
  5
3D
330
5
100
AcDbSymbolTableRecord
100
AcDbLinetypeTableRecord
  2
Caddy_Dash
 70
     0
  3
_ _ _ _ _ _ 
 72
    65
 73
     2
 40
3.5
 49
2
 74
     0
 49
-1.5
 74
     0
  0
LTYPE
  5
3E
330
5
100
AcDbSymbolTableRecord
100
AcDbLinetypeTableRecord
  2
Caddy_Dashdot
 70
     0
  3
_ . _ . _ . 
 72
    65
 73
     4
 40
5.5
 49
0.5
 74
     0
 49
-1.5
 74
     0
 49
2
 74
     0
 49
-1.5
 74
     0
  0
LTYPE
  5
3F
330
5
100
AcDbSymbolTableRecord
100
AcDbLinetypeTableRecord
  2
Caddy_Dashdotdot
 70
     0
  3
_ . . _ . . 
 72
    65
 73
     6
 40
7.5
 49
2
 74
     0
 49
-1.5
 74
     0
 49
0.5
 74
     0
 49
-1.5
 74
     0
 49
0.5
 74
     0
 49
-1.5
 74
     0
  0
ENDTAB
  0
TABLE
  2
LAYER
  5
2
330
0
100
AcDbSymbolTable
 70
     1
  0
LAYER
  5
10
330
2
100
AcDbSymbolTableRecord
100
AcDbLayerTableRecord
  2
0
 70
     8
 62
     7
  6
Continuous
290
     1
370
    -3
390
F
  0
ENDTAB
  0
TABLE
  2
STYLE
  5
3
330
0
100
AcDbSymbolTable
 70
    17
  0
STYLE
  5
11
330
3
100
AcDbSymbolTableRecord
100
AcDbTextStyleTableRecord
  2
Standard
 70
     0
 40
0
 41
1
 50
0
 71
     0
 42
2.5
  3
txt
  4

  0
STYLE
  5
2B
330
3
100
AcDbSymbolTableRecord
100
AcDbTextStyleTableRecord
  2
Caddy_Vectorfont1p
 70
     0
 40
0
 41
0.9
 50
0
 71
     0
 42
0.2
  3
isocp___.ttf
  4

1001
ACAD
1000
ISOCP
1071
        0
  0
STYLE
  5
2C
330
3
100
AcDbSymbolTableRecord
100
AcDbTextStyleTableRecord
  2
Caddy_Vectorfont1n
 70
     0
 40
0
 41
1.100000023841858
 50
0
 71
     0
 42
0.2
  3

  4

1001
ACAD
1000
ISOCP
1071
        0
  0
STYLE
  5
2D
330
3
100
AcDbSymbolTableRecord
100
AcDbTextStyleTableRecord
  2
Caddy_Vectorfont2p
 70
     0
 40
0
 41
1.35
 50
0
 71
     0
 42
0.2
  3

  4

1001
ACAD
1000
ARIAL
1071
        0
  0
STYLE
  5
2E
330
3
100
AcDbSymbolTableRecord
100
AcDbTextStyleTableRecord
  2
Caddy_Vectorfont2n
 70
     0
 40
0
 41
1.549999952316284
 50
0
 71
     0
 42
0.2
  3

  4

1001
ACAD
1000
ARIAL
1071
        0
  0
STYLE
  5
2F
330
3
100
AcDbSymbolTableRecord
100
AcDbTextStyleTableRecord
  2
Caddy_Vectorfont3p
 70
     0
 40
0
 41
1.3
 50
0
 71
     0
 42
0.2
  3

  4

1001
ACAD
1000
Swis721 BdOul BT
1071
        0
  0
STYLE
  5
30
330
3
100
AcDbSymbolTableRecord
100
AcDbTextStyleTableRecord
  2
Caddy_Vectorfont3n
 70
     0
 40
0
 41
1.5
 50
0
 71
     0
 42
0.2
  3

  4

1001
ACAD
1000
Swis721 BdOul BT
1071
        0
  0
STYLE
  5
31
330
3
100
AcDbSymbolTableRecord
100
AcDbTextStyleTableRecord
  2
Caddy_Vectorfont4p
 70
     0
 40
0
 41
1.1
 50
0
 71
     0
 42
0.2
  3

  4

1001
ACAD
1000
COMPLEX
1071
        0
  0
STYLE
  5
32
330
3
100
AcDbSymbolTableRecord
100
AcDbTextStyleTableRecord
  2
Caddy_Vectorfont4n
 70
     0
 40
0
 41
1.299999952316284
 50
0
 71
     0
 42
0.2
  3

  4

1001
ACAD
1000
COMPLEX
1071
        0
  0
STYLE
  5
33
330
3
100
AcDbSymbolTableRecord
100
AcDbTextStyleTableRecord
  2
Caddy_Vectorfont5p
 70
     0
 40
0
 41
1
 50
0
 71
     0
 42
0.2
  3

  4

1001
ACAD
1000
COMPLEX
1071
        0
  0
STYLE
  5
34
330
3
100
AcDbSymbolTableRecord
100
AcDbTextStyleTableRecord
  2
Caddy_Vectorfont5n
 70
     0
 40
0
 41
1.200000047683716
 50
0
 71
     0
 42
0.2
  3

  4

1001
ACAD
1000
COMPLEX
1071
        0
  0
STYLE
  5
35
330
3
100
AcDbSymbolTableRecord
100
AcDbTextStyleTableRecord
  2
Caddy_Vectorfont6p
 70
     0
 40
0
 41
0.9
 50
0
 71
     0
 42
0.2
  3

  4

1001
ACAD
1000
TXT
1071
        0
  0
STYLE
  5
36
330
3
100
AcDbSymbolTableRecord
100
AcDbTextStyleTableRecord
  2
Caddy_Vectorfont6n
 70
     0
 40
0
 41
1.100000023841858
 50
0
 71
     0
 42
0.2
  3

  4

1001
ACAD
1000
TXT
1071
        0
  0
STYLE
  5
37
330
3
100
AcDbSymbolTableRecord
100
AcDbTextStyleTableRecord
  2
Caddy_Vectorfont7p
 70
     0
 40
0
 41
1.3
 50
0
 71
     0
 42
0.2
  3

  4

1001
ACAD
1000
Swis721 BdOul BT
1071
        0
  0
STYLE
  5
38
330
3
100
AcDbSymbolTableRecord
100
AcDbTextStyleTableRecord
  2
Caddy_Vectorfont7n
 70
     0
 40
0
 41
1.5
 50
0
 71
     0
 42
0.2
  3

  4

1001
ACAD
1000
Swis721 BdOul BT
1071
        0
  0
STYLE
  5
39
330
3
100
AcDbSymbolTableRecord
100
AcDbTextStyleTableRecord
  2
Caddy_Vectorfont8p
 70
     0
 40
0
 41
1.5
 50
0
 71
     0
 42
0.2
  3

  4

1001
ACAD
1000
TXT
1071
        0
  0
STYLE
  5
3A
330
3
100
AcDbSymbolTableRecord
100
AcDbTextStyleTableRecord
  2
Caddy_Vectorfont8n
 70
     0
 40
0
 41
1.700000047683716
 50
0
 71
     0
 42
0.2
  3

  4

1001
ACAD
1000
TXT
1071
        0
  0
ENDTAB
  0
TABLE
  2
VIEW
  5
6
330
0
100
AcDbSymbolTable
 70
     0
  0
ENDTAB
  0
TABLE
  2
UCS
  5
7
330
0
100
AcDbSymbolTable
 70
     0
  0
ENDTAB
  0
TABLE
  2
APPID
  5
9
330
0
100
AcDbSymbolTable
 70
     2
  0
APPID
  5
12
330
9
100
AcDbSymbolTableRecord
100
AcDbRegAppTableRecord
  2
ACAD
 70
     0
  0
APPID
  5
2A
330
9
100
AcDbSymbolTableRecord
100
AcDbRegAppTableRecord
  2
ODA
 70
     0
  0
ENDTAB
  0
TABLE
  2
DIMSTYLE
  5
A
330
0
100
AcDbSymbolTable
 70
     1
100
AcDbDimStyleTable
 71
     0
  0
DIMSTYLE
105
27
330
A
100
AcDbSymbolTableRecord
100
AcDbDimStyleTableRecord
  2
ISO-25
 70
     0
 41
2.5
 42
0.625
 43
3.75
 44
1.25
 73
     0
 74
     0
 77
     1
 78
     8
140
2.5
141
2.5
143
0.03937007874016
144
1
146
1
147
0.625
171
     3
172
     1
176
     0
177
     0
178
     0
271
     2
272
     2
273
     2
274
     3
277
     2
278
    44
283
     0
284
     8
289
     3
340
11
371
    -2
372
    -2
341
0
342
0
343
0
344
0
  0
ENDTAB
  0
TABLE
  2
VX
  5
B
330
0
100
AcDbSymbolTable
 70
     1
100
AcDbVXTable
  0
VX_TABLE_RECORD
  5
4A2
330
B
100
AcDbSymbolTableRecord
100
AcDbVXTableRecord
  2

 70
     0
290
     0
338
0
340
0
  0
ENDTAB
  0
TABLE
  2
BLOCK_RECORD
  5
1
330
0
100
AcDbSymbolTable
 70
    45
  0
BLOCK_RECORD
  5
1F
330
1
100
AcDbSymbolTableRecord
100
AcDbBlockTableRecord
  2
*Model_Space
340
22
  0
BLOCK_RECORD
  5
1B
330
1
100
AcDbSymbolTableRecord
100
AcDbBlockTableRecord
  2
*Paper_Space
340
1E
  0
BLOCK_RECORD
  5
23
330
1
100
AcDbSymbolTableRecord
100
AcDbBlockTableRecord
  2
*Paper_Space0
340
26
  0
BLOCK_RECORD
  5
40
330
1
100
AcDbSymbolTableRecord
100
AcDbBlockTableRecord
  2
Blk1
340
0
102
{BLKREFS
331
43
102
}
  0
BLOCK_RECORD
  5
AD
330
1
100
AcDbSymbolTableRecord
100
AcDbBlockTableRecord
  2
Blk2
340
0
102
{BLKREFS
331
B0
102
}
  0
BLOCK_RECORD
  5
C3
330
1
100
AcDbSymbolTableRecord
100
AcDbBlockTableRecord
  2
Blk3
340
0
102
{BLKREFS
331
C6
102
}
  0
BLOCK_RECORD
  5
D9
330
1
100
AcDbSymbolTableRecord
100
AcDbBlockTableRecord
  2
Blk4
340
0
102
{BLKREFS
331
DC
102
}
  0
BLOCK_RECORD
  5
EF
330
1
100
AcDbSymbolTableRecord
100
AcDbBlockTableRecord
  2
Blk5
340
0
102
{BLKREFS
331
F2
102
}
  0
BLOCK_RECORD
  5
105
330
1
100
AcDbSymbolTableRecord
100
AcDbBlockTableRecord
  2
Blk6
340
0
102
{BLKREFS
331
108
102
}
  0
BLOCK_RECORD
  5
115
330
1
100
AcDbSymbolTableRecord
100
AcDbBlockTableRecord
  2
Blk7
340
0
102
{BLKREFS
331
118
102
}
  0
BLOCK_RECORD
  5
125
330
1
100
AcDbSymbolTableRecord
100
AcDbBlockTableRecord
  2
Blk8
340
0
102
{BLKREFS
331
128
102
}
  0
BLOCK_RECORD
  5
132
330
1
100
AcDbSymbolTableRecord
100
AcDbBlockTableRecord
  2
Blk9
340
0
102
{BLKREFS
331
135
102
}
  0
BLOCK_RECORD
  5
141
330
1
100
AcDbSymbolTableRecord
100
AcDbBlockTableRecord
  2
Blk10
340
0
102
{BLKREFS
331
144
102
}
  0
BLOCK_RECORD
  5
153
330
1
100
AcDbSymbolTableRecord
100
AcDbBlockTableRecord
  2
Blk11
340
0
102
{BLKREFS
331
156
102
}
  0
BLOCK_RECORD
  5
169
330
1
100
AcDbSymbolTableRecord
100
AcDbBlockTableRecord
  2
Blk12
340
0
102
{BLKREFS
331
16C
102
}
  0
BLOCK_RECORD
  5
17F
330
1
100
AcDbSymbolTableRecord
100
AcDbBlockTableRecord
  2
Blk13
340
0
102
{BLKREFS
331
182
102
}
  0
BLOCK_RECORD
  5
195
330
1
100
AcDbSymbolTableRecord
100
AcDbBlockTableRecord
  2
Blk14
340
0
102
{BLKREFS
331
198
102
}
  0
BLOCK_RECORD
  5
1AF
330
1
100
AcDbSymbolTableRecord
100
AcDbBlockTableRecord
  2
Blk15
340
0
102
{BLKREFS
331
1B2
102
}
  0
BLOCK_RECORD
  5
1C5
330
1
100
AcDbSymbolTableRecord
100
AcDbBlockTableRecord
  2
Blk16
340
0
102
{BLKREFS
331
1C8
102
}
  0
BLOCK_RECORD
  5
1DB
330
1
100
AcDbSymbolTableRecord
100
AcDbBlockTableRecord
  2
Blk17
340
0
102
{BLKREFS
331
1DE
102
}
  0
BLOCK_RECORD
  5
1F1
330
1
100
AcDbSymbolTableRecord
100
AcDbBlockTableRecord
  2
Blk18
340
0
102
{BLKREFS
331
1F4
102
}
  0
BLOCK_RECORD
  5
207
330
1
100
AcDbSymbolTableRecord
100
AcDbBlockTableRecord
  2
Blk19
340
0
102
{BLKREFS
331
20A
102
}
  0
BLOCK_RECORD
  5
21D
330
1
100
AcDbSymbolTableRecord
100
AcDbBlockTableRecord
  2
Blk20
340
0
102
{BLKREFS
331
220
102
}
  0
BLOCK_RECORD
  5
233
330
1
100
AcDbSymbolTableRecord
100
AcDbBlockTableRecord
  2
Blk21
340
0
102
{BLKREFS
331
236
102
}
  0
BLOCK_RECORD
  5
249
330
1
100
AcDbSymbolTableRecord
100
AcDbBlockTableRecord
  2
Blk22
340
0
102
{BLKREFS
331
24C
102
}
  0
BLOCK_RECORD
  5
25F
330
1
100
AcDbSymbolTableRecord
100
AcDbBlockTableRecord
  2
Blk23
340
0
102
{BLKREFS
331
262
102
}
  0
BLOCK_RECORD
  5
275
330
1
100
AcDbSymbolTableRecord
100
AcDbBlockTableRecord
  2
Blk24
340
0
102
{BLKREFS
331
278
102
}
  0
BLOCK_RECORD
  5
28B
330
1
100
AcDbSymbolTableRecord
100
AcDbBlockTableRecord
  2
Blk25
340
0
102
{BLKREFS
331
28E
102
}
  0
BLOCK_RECORD
  5
2A1
330
1
100
AcDbSymbolTableRecord
100
AcDbBlockTableRecord
  2
Blk26
340
0
102
{BLKREFS
331
2A4
102
}
  0
BLOCK_RECORD
  5
2D1
330
1
100
AcDbSymbolTableRecord
100
AcDbBlockTableRecord
  2
Blk27
340
0
102
{BLKREFS
331
2D4
102
}
  0
BLOCK_RECORD
  5
2DD
330
1
100
AcDbSymbolTableRecord
100
AcDbBlockTableRecord
  2
Blk28
340
0
102
{BLKREFS
331
2E0
102
}
  0
BLOCK_RECORD
  5
316
330
1
100
AcDbSymbolTableRecord
100
AcDbBlockTableRecord
  2
Blk29
340
0
102
{BLKREFS
331
319
102
}
  0
BLOCK_RECORD
  5
341
330
1
100
AcDbSymbolTableRecord
100
AcDbBlockTableRecord
  2
Blk30
340
0
102
{BLKREFS
331
344
102
}
  0
BLOCK_RECORD
  5
34E
330
1
100
AcDbSymbolTableRecord
100
AcDbBlockTableRecord
  2
Blk31
340
0
102
{BLKREFS
331
351
102
}
  0
BLOCK_RECORD
  5
35D
330
1
100
AcDbSymbolTableRecord
100
AcDbBlockTableRecord
  2
Blk32
340
0
102
{BLKREFS
331
360
102
}
  0
BLOCK_RECORD
  5
377
330
1
100
AcDbSymbolTableRecord
100
AcDbBlockTableRecord
  2
Blk33
340
0
102
{BLKREFS
331
37A
102
}
  0
BLOCK_RECORD
  5
38D
330
1
100
AcDbSymbolTableRecord
100
AcDbBlockTableRecord
  2
Blk34
340
0
102
{BLKREFS
331
390
102
}
  0
BLOCK_RECORD
  5
3A3
330
1
100
AcDbSymbolTableRecord
100
AcDbBlockTableRecord
  2
Blk35
340
0
102
{BLKREFS
331
3A6
102
}
  0
BLOCK_RECORD
  5
3B9
330
1
100
AcDbSymbolTableRecord
100
AcDbBlockTableRecord
  2
Blk36
340
0
102
{BLKREFS
331
3BC
102
}
  0
BLOCK_RECORD
  5
3D8
330
1
100
AcDbSymbolTableRecord
100
AcDbBlockTableRecord
  2
Blk37
340
0
102
{BLKREFS
331
3DB
102
}
  0
BLOCK_RECORD
  5
3EE
330
1
100
AcDbSymbolTableRecord
100
AcDbBlockTableRecord
  2
Blk38
340
0
102
{BLKREFS
331
3F1
102
}
  0
BLOCK_RECORD
  5
404
330
1
100
AcDbSymbolTableRecord
100
AcDbBlockTableRecord
  2
Blk39
340
0
102
{BLKREFS
331
407
102
}
  0
BLOCK_RECORD
  5
41A
330
1
100
AcDbSymbolTableRecord
100
AcDbBlockTableRecord
  2
Blk40
340
0
102
{BLKREFS
331
41D
102
}
  0
BLOCK_RECORD
  5
439
330
1
100
AcDbSymbolTableRecord
100
AcDbBlockTableRecord
  2
Blk41
340
0
102
{BLKREFS
331
43C
102
}
  0
BLOCK_RECORD
  5
44F
330
1
100
AcDbSymbolTableRecord
100
AcDbBlockTableRecord
  2
Blk42
340
0
102
{BLKREFS
331
452
102
}
  0
BLOCK_RECORD
  5
465
330
1
100
AcDbSymbolTableRecord
100
AcDbBlockTableRecord
  2
Blk43
340
0
102
{BLKREFS
331
468
102
}
  0
BLOCK_RECORD
  5
47B
330
1
100
AcDbSymbolTableRecord
100
AcDbBlockTableRecord
  2
Blk44
340
0
102
{BLKREFS
331
47E
102
}
  0
ENDTAB
  0
ENDSEC
  0
SECTION
  2
BLOCKS
  0
BLOCK
  5
1C
330
1B
100
AcDbEntity
 67
     1
  8
0
100
AcDbBlockBegin
  2
*Paper_Space
 70
     0
 10
0
 20
0
 30
0
  3
*Paper_Space
  1

  0
ENDBLK
  5
1D
330
1B
100
AcDbEntity
 67
     1
  8
0
100
AcDbBlockEnd
  0
BLOCK
  5
20
330
1F
100
AcDbEntity
  8
0
100
AcDbBlockBegin
  2
*Model_Space
 70
     0
 10
0
 20
0
 30
0
  3
*Model_Space
  1

  0
ENDBLK
  5
21
330
1F
100
AcDbEntity
  8
0
100
AcDbBlockEnd
  0
BLOCK
  5
24
330
23
100
AcDbEntity
  8
0
100
AcDbBlockBegin
  2
*Paper_Space0
 70
     0
 10
0
 20
0
 30
0
  3
*Paper_Space0
  1

  0
ENDBLK
  5
25
330
23
100
AcDbEntity
  8
0
100
AcDbBlockEnd
  0
BLOCK
  5
41
330
40
100
AcDbEntity
  8
0
100
AcDbBlockBegin
  2
Blk1
 70
     0
 10
0
 20
0
 30
0
  3
Blk1
  1

  0
LINE
  5
44
330
40
100
AcDbEntity
  8
0
  6
Caddy_Solid
370
    50
100
AcDbLine
 10
10
 20
10
 30
0
 11
10
 21
275
 31
0
  0
LINE
  5
45
330
40
100
AcDbEntity
  8
0
  6
Caddy_Solid
370
    50
100
AcDbLine
 10
10
 20
275
 30
0
 11
410
 21
275
 31
0
  0
LINE
  5
46
330
40
100
AcDbEntity
  8
0
  6
Caddy_Solid
370
    50
100
AcDbLine
 10
410
 20
275
 30
0
 11
410
 21
10
 31
0
  0
LINE
  5
47
330
40
100
AcDbEntity
  8
0
  6
Caddy_Solid
370
    25
100
AcDbLine
 10
50
 20
270
 30
0
 11
50
 21
275
 31
0
  0
TEXT
  5
48
330
40
100
AcDbEntity
  8
0
370
    25
100
AcDbText
 10
29.14336390228272
 20
271.2000122070312
 30
0
 40
2.449981689453125
  1
0
 41
0.9
  7
Caddy_Vectorfont1p
 72
     1
 11
30
 21
271.2000122070312
 31
0
100
AcDbText
  0
TEXT
  5
49
330
40
100
AcDbEntity
  8
0
370
    25
100
AcDbText
 10
30
 20
265.2000122070312
 30
0
 40
2.449981689453125
  1

 41
0.9
  7
Caddy_Vectorfont1p
 72
     1
 11
30
 21
265.2000122070312
 31
0
100
AcDbText
  0
LINE
  5
4A
330
40
100
AcDbEntity
  8
0
  6
Caddy_Solid
370
    25
100
AcDbLine
 10
90
 20
270
 30
0
 11
90
 21
275
 31
0
  0
LINE
  5
4B
330
40
100
AcDbEntity
  8
0
  6
Caddy_Solid
370
    25
100
AcDbLine
 10
130
 20
270
 30
0
 11
130
 21
275
 31
0
  0
LINE
  5
4C
330
40
100
AcDbEntity
  8
0
  6
Caddy_Solid
370
    25
100
AcDbLine
 10
170
 20
270
 30
0
 11
170
 21
275
 31
0
  0
LINE
  5
4D
330
40
100
AcDbEntity
  8
0
  6
Caddy_Solid
370
    25
100
AcDbLine
 10
210
 20
270
 30
0
 11
210
 21
275
 31
0
  0
LINE
  5
4E
330
40
100
AcDbEntity
  8
0
  6
Caddy_Solid
370
    25
100
AcDbLine
 10
250
 20
270
 30
0
 11
250
 21
275
 31
0
  0
LINE
  5
4F
330
40
100
AcDbEntity
  8
0
  6
Caddy_Solid
370
    25
100
AcDbLine
 10
290
 20
270
 30
0
 11
290
 21
275
 31
0
  0
LINE
  5
50
330
40
100
AcDbEntity
  8
0
  6
Caddy_Solid
370
    25
100
AcDbLine
 10
330
 20
270
 30
0
 11
330
 21
275
 31
0
  0
LINE
  5
51
330
40
100
AcDbEntity
  8
0
  6
Caddy_Solid
370
    25
100
AcDbLine
 10
370
 20
270
 30
0
 11
370
 21
275
 31
0
  0
TEXT
  5
52
330
40
100
AcDbEntity
  8
0
370
    25
100
AcDbText
 10
69.38369947662353
 20
271.2000122070312
 30
0
 40
2.449981689453125
  1
1
 41
0.9
  7
Caddy_Vectorfont1p
 72
     1
 11
69.99999237060547
 21
271.2000122070312
 31
0
100
AcDbText
  0
TEXT
  5
53
330
40
100
AcDbEntity
  8
0
370
    25
100
AcDbText
 10
109.1610037704468
 20
271.2000122070312
 30
0
 40
2.449981689453125
  1
2
 41
0.9
  7
Caddy_Vectorfont1p
 72
     1
 11
110
 21
271.2000122070312
 31
0
100
AcDbText
  0
TEXT
  5
54
330
40
100
AcDbEntity
  8
0
370
    25
100
AcDbText
 10
149.1312364929199
 20
271.2000122070312
 30
0
 40
2.449981689453125
  1
3
 41
0.9
  7
Caddy_Vectorfont1p
 72
     1
 11
150
 21
271.2000122070312
 31
0
100
AcDbText
  0
TEXT
  5
55
330
40
100
AcDbEntity
  8
0
370
    25
100
AcDbText
 10
189.0364222015381
 20
271.2000122070312
 30
0
 40
2.449981689453125
  1
4
 41
0.9
  7
Caddy_Vectorfont1p
 72
     1
 11
190
 21
271.2000122070312
 31
0
100
AcDbText
  0
TEXT
  5
56
330
40
100
AcDbEntity
  8
0
370
    25
100
AcDbText
 10
229.1433639022827
 20
271.2000122070312
 30
0
 40
2.449981689453125
  1
5
 41
0.9
  7
Caddy_Vectorfont1p
 72
     1
 11
230
 21
271.2000122070312
 31
0
100
AcDbText
  0
TEXT
  5
57
330
40
100
AcDbEntity
  8
0
370
    25
100
AcDbText
 10
269.1433639022827
 20
271.2000122070312
 30
0
 40
2.449981689453125
  1
6
 41
0.9
  7
Caddy_Vectorfont1p
 72
     1
 11
270
 21
271.2000122070312
 31
0
100
AcDbText
  0
TEXT
  5
58
330
40
100
AcDbEntity
  8
0
370
    25
100
AcDbText
 10
309.140056427002
 20
271.2000122070312
 30
0
 40
2.449981689453125
  1
7
 41
0.9
  7
Caddy_Vectorfont1p
 72
     1
 11
310
 21
271.2000122070312
 31
0
100
AcDbText
  0
TEXT
  5
59
330
40
100
AcDbEntity
  8
0
370
    25
100
AcDbText
 10
349.1433639022827
 20
271.2000122070312
 30
0
 40
2.449981689453125
  1
8
 41
0.9
  7
Caddy_Vectorfont1p
 72
     1
 11
350
 21
271.2000122070312
 31
0
100
AcDbText
  0
TEXT
  5
5A
330
40
100
AcDbEntity
  8
0
370
    25
100
AcDbText
 10
389.1433639022827
 20
271.2000122070312
 30
0
 40
2.449981689453125
  1
9
 41
0.9
  7
Caddy_Vectorfont1p
 72
     1
 11
390
 21
271.2000122070312
 31
0
100
AcDbText
  0
TEXT
  5
5B
330
40
100
AcDbEntity
  8
0
370
    25
100
AcDbText
 10
70
 20
265.2000122070312
 30
0
 40
2.449981689453125
  1

 41
0.9
  7
Caddy_Vectorfont1p
 72
     1
 11
70
 21
265.2000122070312
 31
0
100
AcDbText
  0
TEXT
  5
5C
330
40
100
AcDbEntity
  8
0
370
    25
100
AcDbText
 10
110
 20
265.2000122070312
 30
0
 40
2.449981689453125
  1

 41
0.9
  7
Caddy_Vectorfont1p
 72
     1
 11
110
 21
265.2000122070312
 31
0
100
AcDbText
  0
TEXT
  5
5D
330
40
100
AcDbEntity
  8
0
370
    25
100
AcDbText
 10
150
 20
265.2000122070312
 30
0
 40
2.449981689453125
  1

 41
0.9
  7
Caddy_Vectorfont1p
 72
     1
 11
150
 21
265.2000122070312
 31
0
100
AcDbText
  0
TEXT
  5
5E
330
40
100
AcDbEntity
  8
0
370
    25
100
AcDbText
 10
190
 20
265.2000122070312
 30
0
 40
2.449981689453125
  1

 41
0.9
  7
Caddy_Vectorfont1p
 72
     1
 11
190
 21
265.2000122070312
 31
0
100
AcDbText
  0
TEXT
  5
5F
330
40
100
AcDbEntity
  8
0
370
    25
100
AcDbText
 10
230
 20
265.2000122070312
 30
0
 40
2.449981689453125
  1

 41
0.9
  7
Caddy_Vectorfont1p
 72
     1
 11
230
 21
265.2000122070312
 31
0
100
AcDbText
  0
TEXT
  5
60
330
40
100
AcDbEntity
  8
0
370
    25
100
AcDbText
 10
270.0000305175781
 20
265.2000122070312
 30
0
 40
2.449981689453125
  1

 41
0.9
  7
Caddy_Vectorfont1p
 72
     1
 11
270.0000305175781
 21
265.2000122070312
 31
0
100
AcDbText
  0
TEXT
  5
61
330
40
100
AcDbEntity
  8
0
370
    25
100
AcDbText
 10
310.0000305175781
 20
265.2000122070312
 30
0
 40
2.449981689453125
  1

 41
0.9
  7
Caddy_Vectorfont1p
 72
     1
 11
310.0000305175781
 21
265.2000122070312
 31
0
100
AcDbText
  0
TEXT
  5
62
330
40
100
AcDbEntity
  8
0
370
    25
100
AcDbText
 10
350.0000305175781
 20
265.2000122070312
 30
0
 40
2.449981689453125
  1

 41
0.9
  7
Caddy_Vectorfont1p
 72
     1
 11
350.0000305175781
 21
265.2000122070312
 31
0
100
AcDbText
  0
TEXT
  5
63
330
40
100
AcDbEntity
  8
0
370
    25
100
AcDbText
 10
390.0000305175781
 20
265.2000122070312
 30
0
 40
2.449981689453125
  1

 41
0.9
  7
Caddy_Vectorfont1p
 72
     1
 11
390.0000305175781
 21
265.2000122070312
 31
0
100
AcDbText
  0
LINE
  5
64
330
40
100
AcDbEntity
  8
0
  6
Caddy_Solid
370
    25
100
AcDbLine
 10
15
 20
270
 30
0
 11
15
 21
30
 31
0
  0
LINE
  5
65
330
40
100
AcDbEntity
  8
0
  6
Caddy_Solid
370
    25
100
AcDbLine
 10
405
 20
270
 30
0
 11
405
 21
30
 31
0
  0
LINE
  5
66
330
40
100
AcDbEntity
  8
0
  6
Caddy_Solid
370
    25
100
AcDbLine
 10
15
 20
230
 30
0
 11
10
 21
230
 31
0
  0
LINE
  5
67
330
40
100
AcDbEntity
  8
0
  6
Caddy_Solid
370
    25
100
AcDbLine
 10
15
 20
190
 30
0
 11
10
 21
190
 31
0
  0
LINE
  5
68
330
40
100
AcDbEntity
  8
0
  6
Caddy_Solid
370
    25
100
AcDbLine
 10
15
 20
150
 30
0
 11
10
 21
150
 31
0
  0
LINE
  5
69
330
40
100
AcDbEntity
  8
0
  6
Caddy_Solid
370
    25
100
AcDbLine
 10
10
 20
110
 30
0
 11
15
 21
110
 31
0
  0
LINE
  5
6A
330
40
100
AcDbEntity
  8
0
  6
Caddy_Solid
370
    25
100
AcDbLine
 10
10
 20
70
 30
0
 11
15
 21
70
 31
0
  0
TEXT
  5
6B
330
40
100
AcDbEntity
  8
0
370
    25
100
AcDbText
 10
11.39750137329102
 20
248.6999969482422
 30
0
 40
2.449996948242188
  1
A
 41
0.9
  7
Caddy_Vectorfont1p
 72
     1
 11
12.5
 21
248.6999969482422
 31
0
100
AcDbText
  0
TEXT
  5
6C
330
40
100
AcDbEntity
  8
0
370
    25
100
AcDbText
 10
11.52098121948242
 20
208.6999969482422
 30
0
 40
2.449996948242188
  1
B
 41
0.9
  7
Caddy_Vectorfont1p
 72
     1
 11
12.5
 21
208.6999969482422
 31
0
100
AcDbText
  0
TEXT
  5
6D
330
40
100
AcDbEntity
  8
0
370
    25
100
AcDbText
 10
11.65548605194092
 20
168.6999969482422
 30
0
 40
2.449996948242188
  1
C
 41
0.9
  7
Caddy_Vectorfont1p
 72
     1
 11
12.5
 21
168.6999969482422
 31
0
100
AcDbText
  0
TEXT
  5
6E
330
40
100
AcDbEntity
  8
0
370
    25
100
AcDbText
 10
11.52098121948242
 20
128.6999969482422
 30
0
 40
2.449996948242188
  1
D
 41
0.9
  7
Caddy_Vectorfont1p
 72
     1
 11
12.5
 21
128.6999969482422
 31
0
100
AcDbText
  0
TEXT
  5
6F
330
40
100
AcDbEntity
  8
0
370
    25
100
AcDbText
 10
11.65548342208862
 20
88.69999694824219
 30
0
 40
2.450004577636719
  1
E
 41
0.9
  7
Caddy_Vectorfont1p
 72
     1
 11
12.5
 21
88.69999694824219
 31
0
100
AcDbText
  0
TEXT
  5
70
330
40
100
AcDbEntity
  8
0
370
    25
100
AcDbText
 10
11.65548473701477
 20
48.70000076293945
 30
0
 40
2.450000762939453
  1
F
 41
0.9
  7
Caddy_Vectorfont1p
 72
     1
 11
12.5
 21
48.70000076293945
 31
0
100
AcDbText
  0
LINE
  5
71
330
40
100
AcDbEntity
  8
0
  6
Caddy_Solid
370
    25
100
AcDbLine
 10
410
 20
230
 30
0
 11
405
 21
230
 31
0
  0
LINE
  5
72
330
40
100
AcDbEntity
  8
0
  6
Caddy_Solid
370
    25
100
AcDbLine
 10
410
 20
190
 30
0
 11
405
 21
190
 31
0
  0
LINE
  5
73
330
40
100
AcDbEntity
  8
0
  6
Caddy_Solid
370
    25
100
AcDbLine
 10
410
 20
150
 30
0
 11
405
 21
150
 31
0
  0
LINE
  5
74
330
40
100
AcDbEntity
  8
0
  6
Caddy_Solid
370
    25
100
AcDbLine
 10
405
 20
110
 30
0
 11
410
 21
110
 31
0
  0
LINE
  5
75
330
40
100
AcDbEntity
  8
0
  6
Caddy_Solid
370
    25
100
AcDbLine
 10
405
 20
70
 30
0
 11
410
 21
70
 31
0
  0
TEXT
  5
76
330
40
100
AcDbEntity
  8
0
370
    25
100
AcDbText
 10
406.397501373291
 20
248.6999969482422
 30
0
 40
2.449996948242188
  1
A
 41
0.9
  7
Caddy_Vectorfont1p
 72
     1
 11
407.5
 21
248.6999969482422
 31
0
100
AcDbText
  0
TEXT
  5
77
330
40
100
AcDbEntity
  8
0
370
    25
100
AcDbText
 10
406.5209812194824
 20
208.6999969482422
 30
0
 40
2.449996948242188
  1
B
 41
0.9
  7
Caddy_Vectorfont1p
 72
     1
 11
407.5
 21
208.6999969482422
 31
0
100
AcDbText
  0
TEXT
  5
78
330
40
100
AcDbEntity
  8
0
370
    25
100
AcDbText
 10
406.6554860519409
 20
168.6999969482422
 30
0
 40
2.449996948242188
  1
C
 41
0.9
  7
Caddy_Vectorfont1p
 72
     1
 11
407.5
 21
168.6999969482422
 31
0
100
AcDbText
  0
TEXT
  5
79
330
40
100
AcDbEntity
  8
0
370
    25
100
AcDbText
 10
406.5209812194824
 20
128.6999969482422
 30
0
 40
2.449996948242188
  1
D
 41
0.9
  7
Caddy_Vectorfont1p
 72
     1
 11
407.5
 21
128.6999969482422
 31
0
100
AcDbText
  0
TEXT
  5
7A
330
40
100
AcDbEntity
  8
0
370
    25
100
AcDbText
 10
406.6554834220887
 20
88.69999694824219
 30
0
 40
2.450004577636719
  1
E
 41
0.9
  7
Caddy_Vectorfont1p
 72
     1
 11
407.5
 21
88.69999694824219
 31
0
100
AcDbText
  0
TEXT
  5
7B
330
40
100
AcDbEntity
  8
0
370
    25
100
AcDbText
 10
406.6554847370148
 20
48.70000076293945
 30
0
 40
2.450000762939453
  1
F
 41
0.9
  7
Caddy_Vectorfont1p
 72
     1
 11
407.5
 21
48.70000076293945
 31
0
100
AcDbText
  0
LINE
  5
7C
330
40
100
AcDbEntity
  8
0
  6
Caddy_Solid
370
    25
100
AcDbLine
 10
15
 20
270
 30
0
 11
405
 21
270
 31
0
  0
LINE
  5
7D
330
40
100
AcDbEntity
  8
0
  6
Caddy_Solid
370
    50
100
AcDbLine
 10
410
 20
10
 30
0
 11
10
 21
10
 31
0
  0
LINE
  5
7E
330
40
100
AcDbEntity
  8
0
  6
Caddy_Solid
370
    50
100
AcDbLine
 10
10
 20
30
 30
0
 11
410
 21
30
 31
0
  0
LINE
  5
7F
330
40
100
AcDbEntity
  8
0
  6
Caddy_Solid
370
    25
100
AcDbLine
 10
260
 20
20
 30
0
 11
410
 21
20
 31
0
  0
LINE
  5
80
330
40
100
AcDbEntity
  8
0
  6
Caddy_Solid
370
    25
100
AcDbLine
 10
10
 20
30
 30
0
 11
15
 21
30
 31
0
  0
LINE
  5
81
330
40
100
AcDbEntity
  8
0
  6
Caddy_Solid
370
    25
100
AcDbLine
 10
405
 20
30
 30
0
 11
410
 21
30
 31
0
  0
LINE
  5
82
330
40
100
AcDbEntity
  8
0
  6
Caddy_Solid
370
    50
100
AcDbLine
 10
65
 20
30
 30
0
 11
65
 21
10
 31
0
  0
TEXT
  5
83
330
40
100
AcDbEntity
  8
0
370
    25
100
AcDbText
 10
69.19999694824219
 20
14.19999980926514
 30
0
 40
2.449999809265137
  1
Kassepakker
 41
0.9
  7
Caddy_Vectorfont1p
 11
0
 21
0
 31
0
100
AcDbText
  0
TEXT
  5
84
330
40
100
AcDbEntity
  8
0
370
    25
100
AcDbText
 10
69.19999694824219
 20
23.20000076293945
 30
0
 40
2.44999885559082
  1
MPN - GUIDED BY VISION
 41
0.9
  7
Caddy_Vectorfont1p
 11
0
 21
0
 31
0
100
AcDbText
  0
TEXT
  5
85
330
40
100
AcDbEntity
  8
0
370
    25
100
AcDbText
 10
69.19999694824219
 20
18.70000076293945
 30
0
 40
2.44999885559082
  1
Søris
 41
0.9
  7
Caddy_Vectorfont1p
 11
0
 21
0
 31
0
100
AcDbText
  0
LINE
  5
86
330
40
100
AcDbEntity
  8
0
  6
Caddy_Solid
370
    50
100
AcDbLine
 10
160
 20
30
 30
0
 11
160
 21
10
 31
0
  0
TEXT
  5
87
330
40
100
AcDbEntity
  8
0
370
    25
100
AcDbText
 10
164.1999969482422
 20
23.20000076293945
 30
0
 40
2.44999885559082
  1
Nødstopskreds
 41
0.9
  7
Caddy_Vectorfont1p
 11
0
 21
0
 31
0
100
AcDbText
  0
TEXT
  5
88
330
40
100
AcDbEntity
  8
0
370
    25
100
AcDbText
 10
164.1999969482422
 20
18.70000076293945
 30
0
 40
2.44999885559082
  1

 41
0.9
  7
Caddy_Vectorfont1p
 11
0
 21
0
 31
0
100
AcDbText
  0
TEXT
  5
89
330
40
100
AcDbEntity
  8
0
370
    25
100
AcDbText
 10
164.1999969482422
 20
14.19999980926514
 30
0
 40
2.449999809265137
  1

 41
0.9
  7
Caddy_Vectorfont1p
 11
0
 21
0
 31
0
100
AcDbText
  0
LINE
  5
8A
330
40
100
AcDbEntity
  8
0
  6
Caddy_Solid
370
    50
100
AcDbLine
 10
260
 20
30
 30
0
 11
260
 21
10
 31
0
  0
TEXT
  5
8B
330
40
100
AcDbEntity
  8
0
370
    25
100
AcDbText
 10
261.2000122070312
 20
26.20000076293945
 30
0
 40
2.44999885559082
  1
Projekt:
 41
0.9
  7
Caddy_Vectorfont1p
 11
0
 21
0
 31
0
100
AcDbText
  0
TEXT
  5
8C
330
40
100
AcDbEntity
  8
0
370
    25
100
AcDbText
 10
261.2000122070312
 20
16.20000076293945
 30
0
 40
2.44999885559082
  1
Dato:
 41
0.9
  7
Caddy_Vectorfont1p
 11
0
 21
0
 31
0
100
AcDbText
  0
LINE
  5
8D
330
40
100
AcDbEntity
  8
0
  6
Caddy_Solid
370
    25
100
AcDbLine
 10
290
 20
30
 30
0
 11
290
 21
10
 31
0
  0
TEXT
  5
8E
330
40
100
AcDbEntity
  8
0
370
    25
100
AcDbText
 10
291.2000122070312
 20
16.20000076293945
 30
0
 40
2.44999885559082
  1
Funkt.:
 41
0.9
  7
Caddy_Vectorfont1p
 11
0
 21
0
 31
0
100
AcDbText
  0
TEXT
  5
8F
330
40
100
AcDbEntity
  8
0
370
    25
100
AcDbText
 10
291.2000122070312
 20
26.20000076293945
 30
0
 40
2.44999885559082
  1
Tegn. nr.:
 41
0.9
  7
Caddy_Vectorfont1p
 11
0
 21
0
 31
0
100
AcDbText
  0
TEXT
  5
90
330
40
100
AcDbEntity
  8
0
370
    25
100
AcDbText
 10
256.7441815986633
 20
21.70000076293945
 30
0
 40
2.44999885559082
  1
Servo_kassepakker
 41
0.9
  7
Caddy_Vectorfont1p
 72
     2
 11
286.2999877929688
 21
21.70000076293945
 31
0
100
AcDbText
  0
TEXT
  5
91
330
40
100
AcDbEntity
  8
0
370
    25
100
AcDbText
 10
269.9807535458565
 20
11.69999980926514
 30
0
 40
2.449999809265137
  1
31-05-2005
 41
0.9
  7
Caddy_Vectorfont1p
 72
     2
 11
286.2999572753906
 21
11.69999980926514
 31
0
100
AcDbText
  0
LINE
  5
92
330
40
100
AcDbEntity
  8
0
  6
Caddy_Solid
370
    25
100
AcDbLine
 10
320
 20
20
 30
0
 11
320
 21
10
 31
0
  0
TEXT
  5
93
330
40
100
AcDbEntity
  8
0
370
    25
100
AcDbText
 10
321.2000122070312
 20
16.20000076293945
 30
0
 40
2.44999885559082
  1
Plac.:
 41
0.9
  7
Caddy_Vectorfont1p
 11
0
 21
0
 31
0
100
AcDbText
  0
TEXT
  5
94
330
40
100
AcDbEntity
  8
0
370
    25
100
AcDbText
 10
314.9527328978539
 20
11.69999980926514
 30
0
 40
2.449999809265137
  1
=
 41
0.9
  7
Caddy_Vectorfont1p
 72
     2
 11
316.2999877929688
 21
11.69999980926514
 31
0
100
AcDbText
  0
LINE
  5
95
330
40
100
AcDbEntity
  8
0
  6
Caddy_Solid
370
    25
100
AcDbLine
 10
382.5
 20
20
 30
0
 11
382.5
 21
30
 31
0
  0
LINE
  5
96
330
40
100
AcDbEntity
  8
0
  6
Caddy_Solid
370
    25
100
AcDbLine
 10
382.5
 20
10
 30
0
 11
382.5
 21
20
 31
0
  0
TEXT
  5
97
330
40
100
AcDbEntity
  8
0
370
    25
100
AcDbText
 10
349.952763415432
 20
11.69999980926514
 30
0
 40
2.449999809265137
  1
+
 41
0.9
  7
Caddy_Vectorfont1p
 72
     2
 11
351.3000183105469
 21
11.69999980926514
 31
0
100
AcDbText
  0
LINE
  5
98
330
40
100
AcDbEntity
  8
0
  6
Caddy_Solid
370
    25
100
AcDbLine
 10
355
 20
10
 30
0
 11
355
 21
20
 31
0
  0
LINE
  5
99
330
40
100
AcDbEntity
  8
0
  6
Caddy_Solid
370
    25
100
AcDbLine
 10
355
 20
20
 30
0
 11
355
 21
30
 31
0
  0
TEXT
  5
9A
330
40
100
AcDbEntity
  8
0
370
    25
100
AcDbText
 10
356.2000122070312
 20
26.20000076293945
 30
0
 40
2.44999885559082
  1
Rev.:
 41
0.9
  7
Caddy_Vectorfont1p
 11
0
 21
0
 31
0
100
AcDbText
  0
LINE
  5
9B
330
40
100
AcDbEntity
  8
0
  6
Caddy_Solid
370
    25
100
AcDbLine
 10
337.5
 20
20
 30
0
 11
337.5
 21
30
 31
0
  0
TEXT
  5
9C
330
40
100
AcDbEntity
  8
0
370
    35
100
AcDbText
 10
333.5
 20
21.75
 30
0
 40
3.5
  1

 41
0.9
  7
Caddy_Vectorfont1p
 72
     2
 11
333.5
 21
21.75
 31
0
100
AcDbText
  0
TEXT
  5
9D
330
40
100
AcDbEntity
  8
0
370
    25
100
AcDbText
 10
338.7000122070312
 20
26.20000076293945
 30
0
 40
2.44999885559082
  1
Init.:
 41
0.9
  7
Caddy_Vectorfont1p
 11
0
 21
0
 31
0
100
AcDbText
  0
TEXT
  5
9E
330
40
100
AcDbEntity
  8
0
370
    25
100
AcDbText
 10
351.3000183105469
 20
21.70000076293945
 30
0
 40
2.44999885559082
  1

 41
0.9
  7
Caddy_Vectorfont1p
 72
     2
 11
351.3000183105469
 21
21.70000076293945
 31
0
100
AcDbText
  0
TEXT
  5
9F
330
40
100
AcDbEntity
  8
0
370
    25
100
AcDbText
 10
378.8000183105469
 20
21.70000076293945
 30
0
 40
2.44999885559082
  1

 41
0.9
  7
Caddy_Vectorfont1p
 72
     2
 11
378.8000183105469
 21
21.70000076293945
 31
0
100
AcDbText
  0
TEXT
  5
A0
330
40
100
AcDbEntity
  8
0
370
    35
100
AcDbText
 10
401.2907
 20
21.75
 30
0
 40
3.5
  1
9
 41
0.9
  7
Caddy_Vectorfont1p
 72
     2
 11
403.25
 21
21.75
 31
0
100
AcDbText
  0
TEXT
  5
A1
330
40
100
AcDbEntity
  8
0
370
    35
100
AcDbText
 10
405.25
 20
21.75
 30
0
 40
3.5
  1

 41
0.9
  7
Caddy_Vectorfont1p
 11
0
 21
0
 31
0
100
AcDbText
  0
TEXT
  5
A2
330
40
100
AcDbEntity
  8
0
370
    25
100
AcDbText
 10
383.7000122070312
 20
26.20000076293945
 30
0
 40
2.44999885559082
  1
Blad:
 41
0.9
  7
Caddy_Vectorfont1p
 11
0
 21
0
 31
0
100
AcDbText
  0
TEXT
  5
A3
330
40
100
AcDbEntity
  8
0
370
    25
100
AcDbText
 10
404.1942434744835
 20
11.69999980926514
 30
0
 40
2.449999809265137
  1
11
 41
0.9
  7
Caddy_Vectorfont1p
 72
     2
 11
406.3000183105469
 21
11.69999980926514
 31
0
100
AcDbText
  0
TEXT
  5
A4
330
40
100
AcDbEntity
  8
0
370
    25
100
AcDbText
 10
383.7000122070312
 20
16.20000076293945
 30
0
 40
2.44999885559082
  1
Næste blad:
 41
0.9
  7
Caddy_Vectorfont1p
 11
0
 21
0
 31
0
100
AcDbText
  0
TEXT
  5
A5
330
40
100
AcDbEntity
  8
0
370
    25
100
AcDbText
 10
356.2000122070312
 20
16.20000076293945
 30
0
 40
2.44999885559082
  1
Antal blade:
 41
0.9
  7
Caddy_Vectorfont1p
 11
0
 21
0
 31
0
100
AcDbText
  0
TEXT
  5
A6
330
40
100
AcDbEntity
  8
0
370
    25
100
AcDbText
 10
376.202528512764
 20
11.69999980926514
 30
0
 40
2.449999809265137
  1
31
 41
0.9
  7
Caddy_Vectorfont1p
 72
     2
 11
378.8000183105469
 21
11.69999980926514
 31
0
100
AcDbText
  0
IMAGE
  5
A9
330
40
100
AcDbEntity
  8
0
 92
        8
310
0000000000000000
100
AcDbRasterImage
 90
        0
 10
12
 20
15
 30
0
 11
0.04549509366636931
 21
0
 31
0
 12
0
 22
0.04843339589486619
 32
0
 13
51
 23
10
340
A8
 70
     3
280
     0
281
    50
282
    50
283
     0
360
AB
 71
     1
 14
-0.5
 24
-0.5
 14
50.5
 24
9.5
  0
ENDBLK
  5
42
330
40
100
AcDbEntity
  8
0
100
AcDbBlockEnd
  0
BLOCK
  5
AE
330
AD
100
AcDbEntity
  8
0
100
AcDbBlockBegin
  2
Blk2
 70
     2
 10
0
 20
0
 30
0
  3
Blk2
  1

  0
CIRCLE
  5
B1
330
AD
100
AcDbEntity
  8
0
  6
Caddy_Solid
370
    25
100
AcDbCircle
 10
85
 20
162.5
 30
0
 40
0.75
  0
LINE
  5
B2
330
AD
100
AcDbEntity
  8
0
  6
Caddy_Solid
370
    25
100
AcDbLine
 10
85
 20
163.25
 30
0
 11
85
 21
165
 31
0
  0
LINE
  5
B3
330
AD
100
AcDbEntity
  8
0
  6
Caddy_Solid
370
    25
100
AcDbLine
 10
85
 20
160
 30
0
 11
85
 21
161.75
 31
0
  0
ATTDEF
  5
B6
330
AD
100
AcDbEntity
  8
0
370
    25
100
AcDbText
 10
63.24350635681152
 20
161.3000030517578
 30
0
 40
2.449996948242188
  1
-X10
 41
0.9
  7
Caddy_Vectorfont1p
 72
     2
 11
80.04999542236328
 21
161.3000030517578
 31
0
100
AcDbAttributeDefinition
  3
Produkt (-)
  2
$TAG160010
 70
     0
  0
ATTDEF
  5
B8
330
AD
100
AcDbEntity
  8
0
370
    25
100
AcDbText
 10
84.09999084472656
 20
164.1999969482422
 30
0
 40
2.449996948242188
  1
4
 50
90
 41
0.9
  7
Caddy_Vectorfont1p
 11
0
 21
0
 31
0
100
AcDbAttributeDefinition
  3
Klemmenummer
  2
$TAG160400
 70
     0
  0
ATTDEF
  5
BA
330
AD
100
AcDbEntity
  8
0
370
    25
100
AcDbText
 10
87.59999084472656
 20
164.1999969482422
 30
0
 40
2.449996948242188
  1
122
 50
90
 41
0.9
  7
Caddy_Vectorfont1p
 11
0
 21
0
 31
0
100
AcDbAttributeDefinition
  3
Sorteringsindeks
  2
$TAG160410
 70
     0
  0
ATTDEF
  5
BC
330
AD
100
AcDbEntity
  8
0
370
    25
100
AcDbText
 10
62.75179196929932
 20
157.8000030517578
 30
0
 40
2.449996948242188
  1

 41
0.9
  7
Caddy_Vectorfont1p
 72
     2
 11
80.04999542236328
 21
157.8000030517578
 31
0
100
AcDbAttributeDefinition
  3
Beskrivelse 00
  2
$TAG160030
 70
     0
  0
ATTDEF
  5
BE
330
AD
100
AcDbEntity
  8
0
370
    25
100
AcDbText
 10
62.50706016235352
 20
152.8000030517578
 30
0
 40
2.449996948242188
  1
AB1RR235U2GR
 41
0.9
  7
Caddy_Vectorfont1p
 72
     2
 11
80.05001831054688
 21
152.8000030517578
 31
0
100
AcDbAttributeDefinition
  3
Type
  2
$TAG160040
 70
     0
  0
ATTDEF
  5
C0
330
AD
100
AcDbEntity
  8
0
370
    25
100
AcDbText
 10
62.50704490356446
 20
168.3000030517578
 30
0
 40
2.449996948242188
  1
=
 41
0.9
  7
Caddy_Vectorfont1p
 72
     2
 11
80.05000305175781
 21
168.3000030517578
 31
0
100
AcDbAttributeDefinition
  3
Funktion (=)
  2
$TAG140020
 70
     0
  0
ATTDEF
  5
C2
330
AD
100
AcDbEntity
  8
0
370
    25
100
AcDbText
 10
62.50703727416992
 20
164.8000030517578
 30
0
 40
2.449996948242188
  1
+
 41
0.9
  7
Caddy_Vectorfont1p
 72
     2
 11
80.04999542236328
 21
164.8000030517578
 31
0
100
AcDbAttributeDefinition
  3
Placering (+)
  2
$TAG140050
 70
     0
  0
ENDBLK
  5
AF
330
AD
100
AcDbEntity
  8
0
100
AcDbBlockEnd
  0
BLOCK
  5
C4
330
C3
100
AcDbEntity
  8
0
100
AcDbBlockBegin
  2
Blk3
 70
     2
 10
0
 20
0
 30
0
  3
Blk3
  1

  0
CIRCLE
  5
C7
330
C3
100
AcDbEntity
  8
0
  6
Caddy_Solid
370
    25
100
AcDbCircle
 10
80
 20
162.5
 30
0
 40
0.75
  0
LINE
  5
C8
330
C3
100
AcDbEntity
  8
0
  6
Caddy_Solid
370
    25
100
AcDbLine
 10
80
 20
163.25
 30
0
 11
80
 21
165
 31
0
  0
LINE
  5
C9
330
C3
100
AcDbEntity
  8
0
  6
Caddy_Solid
370
    25
100
AcDbLine
 10
80
 20
160
 30
0
 11
80
 21
161.75
 31
0
  0
ATTDEF
  5
CC
330
C3
100
AcDbEntity
  8
0
370
    25
100
AcDbText
 10
58.24350635681152
 20
161.3000030517578
 30
0
 40
2.449996948242188
  1
-X10
 41
0.9
  7
Caddy_Vectorfont1p
 72
     2
 11
75.04999542236328
 21
161.3000030517578
 31
0
100
AcDbAttributeDefinition
  3
Produkt (-)
  2
$TAG160010
 70
     0
  0
ATTDEF
  5
CE
330
C3
100
AcDbEntity
  8
0
370
    25
100
AcDbText
 10
79.09999084472656
 20
164.1999969482422
 30
0
 40
2.449996948242188
  1
3
 50
90
 41
0.9
  7
Caddy_Vectorfont1p
 11
0
 21
0
 31
0
100
AcDbAttributeDefinition
  3
Klemmenummer
  2
$TAG160400
 70
     0
  0
ATTDEF
  5
D0
330
C3
100
AcDbEntity
  8
0
370
    25
100
AcDbText
 10
82.59999084472656
 20
164.1999969482422
 30
0
 40
2.449996948242188
  1
123
 50
90
 41
0.9
  7
Caddy_Vectorfont1p
 11
0
 21
0
 31
0
100
AcDbAttributeDefinition
  3
Sorteringsindeks
  2
$TAG160410
 70
     0
  0
ATTDEF
  5
D2
330
C3
100
AcDbEntity
  8
0
370
    25
100
AcDbText
 10
57.75179196929932
 20
157.8000030517578
 30
0
 40
2.449996948242188
  1

 41
0.9
  7
Caddy_Vectorfont1p
 72
     2
 11
75.04999542236328
 21
157.8000030517578
 31
0
100
AcDbAttributeDefinition
  3
Beskrivelse 00
  2
$TAG160030
 70
     0
  0
ATTDEF
  5
D4
330
C3
100
AcDbEntity
  8
0
370
    25
100
AcDbText
 10
57.50705253295899
 20
152.8000030517578
 30
0
 40
2.449996948242188
  1
AB1RR235U2GR
 41
0.9
  7
Caddy_Vectorfont1p
 72
     2
 11
75.05001068115234
 21
152.8000030517578
 31
0
100
AcDbAttributeDefinition
  3
Type
  2
$TAG160040
 70
     0
  0
ATTDEF
  5
D6
330
C3
100
AcDbEntity
  8
0
370
    25
100
AcDbText
 10
57.50704490356446
 20
168.3000030517578
 30
0
 40
2.449996948242188
  1
=
 41
0.9
  7
Caddy_Vectorfont1p
 72
     2
 11
75.05000305175781
 21
168.3000030517578
 31
0
100
AcDbAttributeDefinition
  3
Funktion (=)
  2
$TAG140020
 70
     0
  0
ATTDEF
  5
D8
330
C3
100
AcDbEntity
  8
0
370
    25
100
AcDbText
 10
57.50703727416992
 20
164.8000030517578
 30
0
 40
2.449996948242188
  1
+
 41
0.9
  7
Caddy_Vectorfont1p
 72
     2
 11
75.04999542236328
 21
164.8000030517578
 31
0
100
AcDbAttributeDefinition
  3
Placering (+)
  2
$TAG140050
 70
     0
  0
ENDBLK
  5
C5
330
C3
100
AcDbEntity
  8
0
100
AcDbBlockEnd
  0
BLOCK
  5
DA
330
D9
100
AcDbEntity
  8
0
100
AcDbBlockBegin
  2
Blk4
 70
     2
 10
0
 20
0
 30
0
  3
Blk4
  1

  0
CIRCLE
  5
DD
330
D9
100
AcDbEntity
  8
0
  6
Caddy_Solid
370
    25
100
AcDbCircle
 10
75
 20
162.5
 30
0
 40
0.75
  0
LINE
  5
DE
330
D9
100
AcDbEntity
  8
0
  6
Caddy_Solid
370
    25
100
AcDbLine
 10
75
 20
163.25
 30
0
 11
75
 21
165
 31
0
  0
LINE
  5
DF
330
D9
100
AcDbEntity
  8
0
  6
Caddy_Solid
370
    25
100
AcDbLine
 10
75
 20
160
 30
0
 11
75
 21
161.75
 31
0
  0
ATTDEF
  5
E2
330
D9
100
AcDbEntity
  8
0
370
    25
100
AcDbText
 10
53.24351398620605
 20
161.3000030517578
 30
0
 40
2.449996948242188
  1
-X10
 41
0.9
  7
Caddy_Vectorfont1p
 72
     2
 11
70.05000305175781
 21
161.3000030517578
 31
0
100
AcDbAttributeDefinition
  3
Produkt (-)
  2
$TAG160010
 70
     0
  0
ATTDEF
  5
E4
330
D9
100
AcDbEntity
  8
0
370
    25
100
AcDbText
 10
74.09999084472656
 20
164.1999969482422
 30
0
 40
2.449996948242188
  1
2
 50
90
 41
0.9
  7
Caddy_Vectorfont1p
 11
0
 21
0
 31
0
100
AcDbAttributeDefinition
  3
Klemmenummer
  2
$TAG160400
 70
     0
  0
ATTDEF
  5
E6
330
D9
100
AcDbEntity
  8
0
370
    25
100
AcDbText
 10
77.59999084472656
 20
164.1999969482422
 30
0
 40
2.449996948242188
  1
124
 50
90
 41
0.9
  7
Caddy_Vectorfont1p
 11
0
 21
0
 31
0
100
AcDbAttributeDefinition
  3
Sorteringsindeks
  2
$TAG160410
 70
     0
  0
ATTDEF
  5
E8
330
D9
100
AcDbEntity
  8
0
370
    25
100
AcDbText
 10
52.75179196929932
 20
157.8000030517578
 30
0
 40
2.449996948242188
  1

 41
0.9
  7
Caddy_Vectorfont1p
 72
     2
 11
70.04999542236328
 21
157.8000030517578
 31
0
100
AcDbAttributeDefinition
  3
Beskrivelse 00
  2
$TAG160030
 70
     0
  0
ATTDEF
  5
EA
330
D9
100
AcDbEntity
  8
0
370
    25
100
AcDbText
 10
52.50704490356446
 20
152.8000030517578
 30
0
 40
2.449996948242188
  1
AB1RR235U2GR
 41
0.9
  7
Caddy_Vectorfont1p
 72
     2
 11
70.05000305175781
 21
152.8000030517578
 31
0
100
AcDbAttributeDefinition
  3
Type
  2
$TAG160040
 70
     0
  0
ATTDEF
  5
EC
330
D9
100
AcDbEntity
  8
0
370
    25
100
AcDbText
 10
52.50704490356446
 20
168.3000030517578
 30
0
 40
2.449996948242188
  1
=
 41
0.9
  7
Caddy_Vectorfont1p
 72
     2
 11
70.05000305175781
 21
168.3000030517578
 31
0
100
AcDbAttributeDefinition
  3
Funktion (=)
  2
$TAG140020
 70
     0
  0
ATTDEF
  5
EE
330
D9
100
AcDbEntity
  8
0
370
    25
100
AcDbText
 10
52.50703727416992
 20
164.8000030517578
 30
0
 40
2.449996948242188
  1
+
 41
0.9
  7
Caddy_Vectorfont1p
 72
     2
 11
70.04999542236328
 21
164.8000030517578
 31
0
100
AcDbAttributeDefinition
  3
Placering (+)
  2
$TAG140050
 70
     0
  0
ENDBLK
  5
DB
330
D9
100
AcDbEntity
  8
0
100
AcDbBlockEnd
  0
BLOCK
  5
F0
330
EF
100
AcDbEntity
  8
0
100
AcDbBlockBegin
  2
Blk5
 70
     2
 10
0
 20
0
 30
0
  3
Blk5
  1

  0
CIRCLE
  5
F3
330
EF
100
AcDbEntity
  8
0
  6
Caddy_Solid
370
    25
100
AcDbCircle
 10
70
 20
162.5
 30
0
 40
0.75
  0
LINE
  5
F4
330
EF
100
AcDbEntity
  8
0
  6
Caddy_Solid
370
    25
100
AcDbLine
 10
70
 20
163.25
 30
0
 11
70
 21
165
 31
0
  0
LINE
  5
F5
330
EF
100
AcDbEntity
  8
0
  6
Caddy_Solid
370
    25
100
AcDbLine
 10
70
 20
160
 30
0
 11
70
 21
161.75
 31
0
  0
ATTDEF
  5
F8
330
EF
100
AcDbEntity
  8
0
370
    25
100
AcDbText
 10
48.24351398620605
 20
161.3000030517578
 30
0
 40
2.449996948242188
  1
X9
 41
0.9
  7
Caddy_Vectorfont1p
 72
     2
 11
65.05000305175781
 21
161.3000030517578
 31
0
100
AcDbAttributeDefinition
  3
Produkt (-)
  2
$TAG160010
 70
     0
  0
ATTDEF
  5
FA
330
EF
100
AcDbEntity
  8
0
370
    25
100
AcDbText
 10
69.09999084472656
 20
164.1999969482422
 30
0
 40
2.449996948242188
  1
1
 50
90
 41
0.9
  7
Caddy_Vectorfont1p
 11
0
 21
0
 31
0
100
AcDbAttributeDefinition
  3
Klemmenummer
  2
$TAG160400
 70
     0
  0
ATTDEF
  5
FC
330
EF
100
AcDbEntity
  8
0
370
    25
100
AcDbText
 10
72.59999084472656
 20
164.1999969482422
 30
0
 40
2.449996948242188
  1
125
 50
90
 41
0.9
  7
Caddy_Vectorfont1p
 11
0
 21
0
 31
0
100
AcDbAttributeDefinition
  3
Sorteringsindeks
  2
$TAG160410
 70
     0
  0
ATTDEF
  5
FE
330
EF
100
AcDbEntity
  8
0
370
    25
100
AcDbText
 10
47.75179196929932
 20
157.8000030517578
 30
0
 40
2.449996948242188
  1

 41
0.9
  7
Caddy_Vectorfont1p
 72
     2
 11
65.04999542236328
 21
157.8000030517578
 31
0
100
AcDbAttributeDefinition
  3
Beskrivelse 00
  2
$TAG160030
 70
     0
  0
ATTDEF
  5
100
330
EF
100
AcDbEntity
  8
0
370
    25
100
AcDbText
 10
47.50703727416992
 20
152.8000030517578
 30
0
 40
2.449996948242188
  1
AB1RR235U2GR
 41
0.9
  7
Caddy_Vectorfont1p
 72
     2
 11
65.04999542236328
 21
152.8000030517578
 31
0
100
AcDbAttributeDefinition
  3
Type
  2
$TAG160040
 70
     0
  0
ATTDEF
  5
102
330
EF
100
AcDbEntity
  8
0
370
    25
100
AcDbText
 10
47.50704490356446
 20
168.3000030517578
 30
0
 40
2.449996948242188
  1
=
 41
0.9
  7
Caddy_Vectorfont1p
 72
     2
 11
65.05000305175781
 21
168.3000030517578
 31
0
100
AcDbAttributeDefinition
  3
Funktion (=)
  2
$TAG140020
 70
     0
  0
ATTDEF
  5
104
330
EF
100
AcDbEntity
  8
0
370
    25
100
AcDbText
 10
47.50704490356446
 20
164.8000030517578
 30
0
 40
2.449996948242188
  1
+
 41
0.9
  7
Caddy_Vectorfont1p
 72
     2
 11
65.05000305175781
 21
164.8000030517578
 31
0
100
AcDbAttributeDefinition
  3
Placering (+)
  2
$TAG140050
 70
     0
  0
ENDBLK
  5
F1
330
EF
100
AcDbEntity
  8
0
100
AcDbBlockEnd
  0
BLOCK
  5
106
330
105
100
AcDbEntity
  8
0
100
AcDbBlockBegin
  2
Blk6
 70
     2
 10
0
 20
0
 30
0
  3
Blk6
  1

  0
LINE
  5
109
330
105
100
AcDbEntity
  8
0
  6
Caddy_Solid
370
    25
100
AcDbLine
 10
37.5
 20
235
 30
0
 11
39.75
 21
233.75
 31
0
  0
LINE
  5
10A
330
105
100
AcDbEntity
  8
0
  6
Caddy_Solid
370
    25
100
AcDbLine
 10
37.5
 20
235
 30
0
 11
39.75
 21
236.25
 31
0
  0
LINE
  5
10B
330
105
100
AcDbEntity
  8
0
  6
Caddy_Solid
370
    25
100
AcDbLine
 10
40
 20
235
 30
0
 11
37.5
 21
235
 31
0
  0
ATTDEF
  5
10E
330
105
100
AcDbEntity
  8
0
370
    25
100
AcDbText
 10
41.59999465942383
 20
235.9000091552734
 30
0
 40
2.449996948242188
  1
0811
 41
0.9
  7
Caddy_Vectorfont1p
 11
0
 21
0
 31
0
100
AcDbAttributeDefinition
  3
Produkt (-)
  2
$TAG160010
 70
     0
  0
ATTDEF
  5
110
330
105
100
AcDbEntity
  8
0
370
    25
100
AcDbText
 10
17.70179273223877
 20
233.9499969482422
 30
0
 40
2.449996948242188
  1
8.8
 41
0.9
  7
Caddy_Vectorfont1p
 72
     2
 11
34.99999618530273
 21
233.9499969482422
 31
0
100
AcDbAttributeDefinition
  3
Side/strømvej reference
  2
$TAG160500
 70
     0
  0
ATTDEF
  5
112
330
105
100
AcDbEntity
  8
0
370
    25
100
AcDbText
 10
41.59999465942383
 20
242.9000091552734
 30
0
 40
2.449996948242188
  1
=
 41
0.9
  7
Caddy_Vectorfont1p
 11
0
 21
0
 31
0
100
AcDbAttributeDefinition
  3
Funktion (=)
  2
$TAG140020
 70
     0
  0
ATTDEF
  5
114
330
105
100
AcDbEntity
  8
0
370
    25
100
AcDbText
 10
41.59999465942383
 20
239.4000091552734
 30
0
 40
2.449996948242188
  1
+
 41
0.9
  7
Caddy_Vectorfont1p
 11
0
 21
0
 31
0
100
AcDbAttributeDefinition
  3
Placering (+)
  2
$TAG140050
 70
     0
  0
ENDBLK
  5
107
330
105
100
AcDbEntity
  8
0
100
AcDbBlockEnd
  0
BLOCK
  5
116
330
115
100
AcDbEntity
  8
0
100
AcDbBlockBegin
  2
Blk7
 70
     2
 10
0
 20
0
 30
0
  3
Blk7
  1

  0
LINE
  5
119
330
115
100
AcDbEntity
  8
0
  6
Caddy_Solid
370
    25
100
AcDbLine
 10
47.5
 20
240
 30
0
 11
49.75
 21
238.75
 31
0
  0
LINE
  5
11A
330
115
100
AcDbEntity
  8
0
  6
Caddy_Solid
370
    25
100
AcDbLine
 10
47.5
 20
240
 30
0
 11
49.75
 21
241.25
 31
0
  0
LINE
  5
11B
330
115
100
AcDbEntity
  8
0
  6
Caddy_Solid
370
    25
100
AcDbLine
 10
50
 20
240
 30
0
 11
47.5
 21
240
 31
0
  0
ATTDEF
  5
11E
330
115
100
AcDbEntity
  8
0
370
    25
100
AcDbText
 10
51.59999465942383
 20
240.9000091552734
 30
0
 40
2.449996948242188
  1
0810
 41
0.9
  7
Caddy_Vectorfont1p
 11
0
 21
0
 31
0
100
AcDbAttributeDefinition
  3
Produkt (-)
  2
$TAG160010
 70
     0
  0
ATTDEF
  5
120
330
115
100
AcDbEntity
  8
0
370
    25
100
AcDbText
 10
27.70179273223877
 20
238.9499969482422
 30
0
 40
2.449996948242188
  1
8.8
 41
0.9
  7
Caddy_Vectorfont1p
 72
     2
 11
44.99999618530273
 21
238.9499969482422
 31
0
100
AcDbAttributeDefinition
  3
Side/strømvej reference
  2
$TAG160500
 70
     0
  0
ATTDEF
  5
122
330
115
100
AcDbEntity
  8
0
370
    25
100
AcDbText
 10
51.59999465942383
 20
247.9000091552734
 30
0
 40
2.449996948242188
  1
=
 41
0.9
  7
Caddy_Vectorfont1p
 11
0
 21
0
 31
0
100
AcDbAttributeDefinition
  3
Funktion (=)
  2
$TAG140020
 70
     0
  0
ATTDEF
  5
124
330
115
100
AcDbEntity
  8
0
370
    25
100
AcDbText
 10
51.59999465942383
 20
244.4000091552734
 30
0
 40
2.449996948242188
  1
+
 41
0.9
  7
Caddy_Vectorfont1p
 11
0
 21
0
 31
0
100
AcDbAttributeDefinition
  3
Placering (+)
  2
$TAG140050
 70
     0
  0
ENDBLK
  5
117
330
115
100
AcDbEntity
  8
0
100
AcDbBlockEnd
  0
BLOCK
  5
126
330
125
100
AcDbEntity
  8
0
100
AcDbBlockBegin
  2
Blk8
 70
     2
 10
0
 20
0
 30
0
  3
Blk8
  1

  0
LINE
  5
129
330
125
100
AcDbEntity
  8
0
  6
Caddy_Solid
370
    25
100
AcDbLine
 10
100
 20
130
 30
0
 11
101
 21
130
 31
0
  0
ATTDEF
  5
12C
330
125
100
AcDbEntity
  8
0
370
    25
100
AcDbText
 10
76.6935261932373
 20
128.8000030517578
 30
0
 40
2.449996948242188
  1
9B2
 41
0.9
  7
Caddy_Vectorfont1p
 72
     2
 11
93.50001525878906
 21
128.8000030517578
 31
0
100
AcDbAttributeDefinition
  3
Produkt (-)
  2
$TAG160010
 70
     0
  0
ATTDEF
  5
12E
330
125
100
AcDbEntity
  8
0
370
    25
100
AcDbText
 10
95.95699485168457
 20
121.8000030517578
 30
0
 40
2.450004577636719
  1

 41
0.9
  7
Caddy_Vectorfont1p
 72
     2
 11
113.5000076293945
 21
121.8000030517578
 31
0
100
AcDbAttributeDefinition
  3
Type
  2
$TAG160040
 70
     0
  0
ATTDEF
  5
130
330
125
100
AcDbEntity
  8
0
370
    25
100
AcDbText
 10
96.20175030899048
 20
125.3000030517578
 30
0
 40
2.450004577636719
  1

 41
0.9
  7
Caddy_Vectorfont1p
 72
     2
 11
113.5000076293945
 21
125.3000030517578
 31
0
100
AcDbAttributeDefinition
  3
Beskrivelse 00
  2
$TAG160030
 70
     0
  0
CIRCLE
  5
131
330
125
100
AcDbEntity
  8
0
  6
Caddy_Solid
370
    25
100
AcDbCircle
 10
98.29998779296875
 20
130
 30
0
 40
1.700000762939453
  0
INSERT
  5
135
330
125
100
AcDbEntity
  8
0
100
AcDbBlockReference
 66
     1
  2
Blk9
 10
0
 20
0
 30
1
  0
ATTRIB
  5
13A
330
135
100
AcDbEntity
  8
0
370
    25
100
AcDbText
 10
109.0500030517578
 20
134.3999938964844
 30
0
 40
2.449996948242188
  1
11
 50
90
 41
0.9
  7
Caddy_Vectorfont1p
 11
0
 21
0
 31
0
100
AcDbAttribute
  2
$TAG175000_00
 70
     0
  0
SEQEND
  5
13B
330
135
100
AcDbEntity
  8
0
  0
INSERT
  5
144
330
125
100
AcDbEntity
  8
0
100
AcDbBlockReference
 66
     1
  2
Blk10
 10
0
 20
0
 30
1
  0
ATTRIB
  5
149
330
144
100
AcDbEntity
  8
0
370
    25
100
AcDbText
 10
119.0500030517578
 20
134.3999938964844
 30
0
 40
2.449996948242188
  1
11
 50
90
 41
0.9
  7
Caddy_Vectorfont1p
 11
0
 21
0
 31
0
100
AcDbAttribute
  2
$TAG175000_00
 70
     0
  0
SEQEND
  5
14A
330
144
100
AcDbEntity
  8
0
  0
LINE
  5
150
330
125
100
AcDbEntity
  8
0
  6
Caddy_Dashdot
370
    25
100
AcDbLine
 10
102.5
 20
130
 30
0
 11
120
 21
130
 31
0
  0
ATTDEF
  5
152
330
125
100
AcDbEntity
  8
0
370
    25
100
AcDbText
 10
116.9000091552734
 20
130.8999938964844
 30
0
 40
2.449996948242188
  1
1
 41
0.9
  7
Caddy_Vectorfont1p
 11
0
 21
0
 31
0
100
AcDbAttributeDefinition
  3
Tilslutningstekst 00
  2
$TAG175000_00
 70
     0
  0
ENDBLK
  5
127
330
125
100
AcDbEntity
  8
0
100
AcDbBlockEnd
  0
BLOCK
  5
133
330
132
100
AcDbEntity
  8
0
100
AcDbBlockBegin
  2
Blk9
 70
     2
 10
0
 20
0
 30
0
  3
Blk9
  1

  0
LINE
  5
136
330
132
100
AcDbEntity
  8
0
  6
Caddy_Solid
370
    25
100
AcDbLine
 10
110
 20
132.5
 30
0
 11
110
 21
135
 31
0
  0
LINE
  5
137
330
132
100
AcDbEntity
  8
0
  6
Caddy_Solid
370
    25
100
AcDbLine
 10
110
 20
127.5
 30
0
 11
110
 21
125
 31
0
  0
LINE
  5
138
330
132
100
AcDbEntity
  8
0
  6
Caddy_Solid
370
    25
100
AcDbLine
 10
110
 20
132.5
 30
0
 11
112.5
 21
132.5
 31
0
  0
LINE
  5
139
330
132
100
AcDbEntity
  8
0
  6
Caddy_Solid
370
    25
100
AcDbLine
 10
110
 20
127.5
 30
0
 11
112.1838073730469
 21
133.5
 31
0
  0
ATTDEF
  5
13C
330
132
100
AcDbEntity
  8
0
370
    25
100
AcDbText
 10
109.0500030517578
 20
134.3999938964844
 30
0
 40
2.449996948242188
  1
11
 50
90
 41
0.9
  7
Caddy_Vectorfont1p
 11
0
 21
0
 31
0
100
AcDbAttributeDefinition
  3
Tilslutningstekst 00
  2
$TAG175000_00
 70
     0
  0
ATTDEF
  5
13E
330
132
100
AcDbEntity
  8
0
370
    25
100
AcDbText
 10
109.0500030517578
 20
102.9658250930786
 30
0
 40
2.449996948242188
  1
12
 50
90
 41
0.9
  7
Caddy_Vectorfont1p
 72
     2
 11
109.0500030517578
 21
125.9000015258789
 31
0
100
AcDbAttributeDefinition
  3
Tilslutningstekst 01
  2
$TAG175000_01
 70
     0
  0
ATTDEF
  5
140
330
132
100
AcDbEntity
  8
0
370
    25
100
AcDbText
 10
110.5999908447266
 20
99.43675091934205
 30
0
 40
2.450004577636719
  1

 50
90
 41
0.9
  7
Caddy_Vectorfont1p
 72
     2
 11
110.5999908447266
 21
116.7350082397461
 31
0
100
AcDbAttributeDefinition
  3
Side/strømvej reference
  2
$TAG160500
 70
     0
  0
ENDBLK
  5
134
330
132
100
AcDbEntity
  8
0
100
AcDbBlockEnd
  0
BLOCK
  5
142
330
141
100
AcDbEntity
  8
0
100
AcDbBlockBegin
  2
Blk10
 70
     2
 10
0
 20
0
 30
0
  3
Blk10
  1

  0
LINE
  5
145
330
141
100
AcDbEntity
  8
0
  6
Caddy_Solid
370
    25
100
AcDbLine
 10
120
 20
132.5
 30
0
 11
120
 21
135
 31
0
  0
LINE
  5
146
330
141
100
AcDbEntity
  8
0
  6
Caddy_Solid
370
    25
100
AcDbLine
 10
120
 20
127.5
 30
0
 11
120
 21
125
 31
0
  0
LINE
  5
147
330
141
100
AcDbEntity
  8
0
  6
Caddy_Solid
370
    25
100
AcDbLine
 10
120
 20
132.5
 30
0
 11
122.5
 21
132.5
 31
0
  0
LINE
  5
148
330
141
100
AcDbEntity
  8
0
  6
Caddy_Solid
370
    25
100
AcDbLine
 10
120
 20
127.5
 30
0
 11
122.1838073730469
 21
133.5
 31
0
  0
ATTDEF
  5
14B
330
141
100
AcDbEntity
  8
0
370
    25
100
AcDbText
 10
119.0500030517578
 20
134.3999938964844
 30
0
 40
2.449996948242188
  1
11
 50
90
 41
0.9
  7
Caddy_Vectorfont1p
 11
0
 21
0
 31
0
100
AcDbAttributeDefinition
  3
Tilslutningstekst 00
  2
$TAG175000_00
 70
     0
  0
ATTDEF
  5
14D
330
141
100
AcDbEntity
  8
0
370
    25
100
AcDbText
 10
119.0500030517578
 20
102.9658250930786
 30
0
 40
2.449996948242188
  1
12
 50
90
 41
0.9
  7
Caddy_Vectorfont1p
 72
     2
 11
119.0500030517578
 21
125.9000015258789
 31
0
100
AcDbAttributeDefinition
  3
Tilslutningstekst 01
  2
$TAG175000_01
 70
     0
  0
ATTDEF
  5
14F
330
141
100
AcDbEntity
  8
0
370
    25
100
AcDbText
 10
120.5999908447266
 20
99.43675091934205
 30
0
 40
2.450004577636719
  1

 50
90
 41
0.9
  7
Caddy_Vectorfont1p
 72
     2
 11
120.5999908447266
 21
116.7350082397461
 31
0
100
AcDbAttributeDefinition
  3
Side/strømvej reference
  2
$TAG160500
 70
     0
  0
ENDBLK
  5
143
330
141
100
AcDbEntity
  8
0
100
AcDbBlockEnd
  0
BLOCK
  5
154
330
153
100
AcDbEntity
  8
0
100
AcDbBlockBegin
  2
Blk11
 70
     2
 10
0
 20
0
 30
0
  3
Blk11
  1

  0
CIRCLE
  5
157
330
153
100
AcDbEntity
  8
0
  6
Caddy_Solid
370
    25
100
AcDbCircle
 10
125
 20
162.5
 30
0
 40
0.75
  0
LINE
  5
158
330
153
100
AcDbEntity
  8
0
  6
Caddy_Solid
370
    25
100
AcDbLine
 10
125
 20
163.25
 30
0
 11
125
 21
165
 31
0
  0
LINE
  5
159
330
153
100
AcDbEntity
  8
0
  6
Caddy_Solid
370
    25
100
AcDbLine
 10
125
 20
160
 30
0
 11
125
 21
161.75
 31
0
  0
ATTDEF
  5
15C
330
153
100
AcDbEntity
  8
0
370
    25
100
AcDbText
 10
103.2435063568115
 20
161.3000030517578
 30
0
 40
2.449996948242188
  1
-X10
 41
0.9
  7
Caddy_Vectorfont1p
 72
     2
 11
120.0499954223633
 21
161.3000030517578
 31
0
100
AcDbAttributeDefinition
  3
Produkt (-)
  2
$TAG160010
 70
     0
  0
ATTDEF
  5
15E
330
153
100
AcDbEntity
  8
0
370
    25
100
AcDbText
 10
124.0999908447266
 20
164.1999969482422
 30
0
 40
2.449996948242188
  1
8
 50
90
 41
0.9
  7
Caddy_Vectorfont1p
 11
0
 21
0
 31
0
100
AcDbAttributeDefinition
  3
Klemmenummer
  2
$TAG160400
 70
     0
  0
ATTDEF
  5
160
330
153
100
AcDbEntity
  8
0
370
    25
100
AcDbText
 10
127.5999908447266
 20
164.1999969482422
 30
0
 40
2.449996948242188
  1
122
 50
90
 41
0.9
  7
Caddy_Vectorfont1p
 11
0
 21
0
 31
0
100
AcDbAttributeDefinition
  3
Sorteringsindeks
  2
$TAG160410
 70
     0
  0
ATTDEF
  5
162
330
153
100
AcDbEntity
  8
0
370
    25
100
AcDbText
 10
102.7517919692993
 20
157.8000030517578
 30
0
 40
2.449996948242188
  1

 41
0.9
  7
Caddy_Vectorfont1p
 72
     2
 11
120.0499954223633
 21
157.8000030517578
 31
0
100
AcDbAttributeDefinition
  3
Beskrivelse 00
  2
$TAG160030
 70
     0
  0
ATTDEF
  5
164
330
153
100
AcDbEntity
  8
0
370
    25
100
AcDbText
 10
102.5070601623535
 20
152.8000030517578
 30
0
 40
2.449996948242188
  1
AB1RR235U2GR
 41
0.9
  7
Caddy_Vectorfont1p
 72
     2
 11
120.0500183105469
 21
152.8000030517578
 31
0
100
AcDbAttributeDefinition
  3
Type
  2
$TAG160040
 70
     0
  0
ATTDEF
  5
166
330
153
100
AcDbEntity
  8
0
370
    25
100
AcDbText
 10
102.5070449035645
 20
168.3000030517578
 30
0
 40
2.449996948242188
  1
=
 41
0.9
  7
Caddy_Vectorfont1p
 72
     2
 11
120.0500030517578
 21
168.3000030517578
 31
0
100
AcDbAttributeDefinition
  3
Funktion (=)
  2
$TAG140020
 70
     0
  0
ATTDEF
  5
168
330
153
100
AcDbEntity
  8
0
370
    25
100
AcDbText
 10
102.5070372741699
 20
164.8000030517578
 30
0
 40
2.449996948242188
  1
+
 41
0.9
  7
Caddy_Vectorfont1p
 72
     2
 11
120.0499954223633
 21
164.8000030517578
 31
0
100
AcDbAttributeDefinition
  3
Placering (+)
  2
$TAG140050
 70
     0
  0
ENDBLK
  5
155
330
153
100
AcDbEntity
  8
0
100
AcDbBlockEnd
  0
BLOCK
  5
16A
330
169
100
AcDbEntity
  8
0
100
AcDbBlockBegin
  2
Blk12
 70
     2
 10
0
 20
0
 30
0
  3
Blk12
  1

  0
CIRCLE
  5
16D
330
169
100
AcDbEntity
  8
0
  6
Caddy_Solid
370
    25
100
AcDbCircle
 10
120
 20
162.5
 30
0
 40
0.75
  0
LINE
  5
16E
330
169
100
AcDbEntity
  8
0
  6
Caddy_Solid
370
    25
100
AcDbLine
 10
120
 20
163.25
 30
0
 11
120
 21
165
 31
0
  0
LINE
  5
16F
330
169
100
AcDbEntity
  8
0
  6
Caddy_Solid
370
    25
100
AcDbLine
 10
120
 20
160
 30
0
 11
120
 21
161.75
 31
0
  0
ATTDEF
  5
172
330
169
100
AcDbEntity
  8
0
370
    25
100
AcDbText
 10
98.24350635681152
 20
161.3000030517578
 30
0
 40
2.449996948242188
  1
-X10
 41
0.9
  7
Caddy_Vectorfont1p
 72
     2
 11
115.0499954223633
 21
161.3000030517578
 31
0
100
AcDbAttributeDefinition
  3
Produkt (-)
  2
$TAG160010
 70
     0
  0
ATTDEF
  5
174
330
169
100
AcDbEntity
  8
0
370
    25
100
AcDbText
 10
119.0999908447266
 20
164.1999969482422
 30
0
 40
2.449996948242188
  1
7
 50
90
 41
0.9
  7
Caddy_Vectorfont1p
 11
0
 21
0
 31
0
100
AcDbAttributeDefinition
  3
Klemmenummer
  2
$TAG160400
 70
     0
  0
ATTDEF
  5
176
330
169
100
AcDbEntity
  8
0
370
    25
100
AcDbText
 10
122.5999908447266
 20
164.1999969482422
 30
0
 40
2.449996948242188
  1
123
 50
90
 41
0.9
  7
Caddy_Vectorfont1p
 11
0
 21
0
 31
0
100
AcDbAttributeDefinition
  3
Sorteringsindeks
  2
$TAG160410
 70
     0
  0
ATTDEF
  5
178
330
169
100
AcDbEntity
  8
0
370
    25
100
AcDbText
 10
97.75179196929932
 20
157.8000030517578
 30
0
 40
2.449996948242188
  1

 41
0.9
  7
Caddy_Vectorfont1p
 72
     2
 11
115.0499954223633
 21
157.8000030517578
 31
0
100
AcDbAttributeDefinition
  3
Beskrivelse 00
  2
$TAG160030
 70
     0
  0
ATTDEF
  5
17A
330
169
100
AcDbEntity
  8
0
370
    25
100
AcDbText
 10
97.50706016235353
 20
152.8000030517578
 30
0
 40
2.449996948242188
  1
AB1RR235U2GR
 41
0.9
  7
Caddy_Vectorfont1p
 72
     2
 11
115.0500183105469
 21
152.8000030517578
 31
0
100
AcDbAttributeDefinition
  3
Type
  2
$TAG160040
 70
     0
  0
ATTDEF
  5
17C
330
169
100
AcDbEntity
  8
0
370
    25
100
AcDbText
 10
97.50704490356446
 20
168.3000030517578
 30
0
 40
2.449996948242188
  1
=
 41
0.9
  7
Caddy_Vectorfont1p
 72
     2
 11
115.0500030517578
 21
168.3000030517578
 31
0
100
AcDbAttributeDefinition
  3
Funktion (=)
  2
$TAG140020
 70
     0
  0
ATTDEF
  5
17E
330
169
100
AcDbEntity
  8
0
370
    25
100
AcDbText
 10
97.50703727416993
 20
164.8000030517578
 30
0
 40
2.449996948242188
  1
+
 41
0.9
  7
Caddy_Vectorfont1p
 72
     2
 11
115.0499954223633
 21
164.8000030517578
 31
0
100
AcDbAttributeDefinition
  3
Placering (+)
  2
$TAG140050
 70
     0
  0
ENDBLK
  5
16B
330
169
100
AcDbEntity
  8
0
100
AcDbBlockEnd
  0
BLOCK
  5
180
330
17F
100
AcDbEntity
  8
0
100
AcDbBlockBegin
  2
Blk13
 70
     2
 10
0
 20
0
 30
0
  3
Blk13
  1

  0
CIRCLE
  5
183
330
17F
100
AcDbEntity
  8
0
  6
Caddy_Solid
370
    25
100
AcDbCircle
 10
115
 20
162.5
 30
0
 40
0.75
  0
LINE
  5
184
330
17F
100
AcDbEntity
  8
0
  6
Caddy_Solid
370
    25
100
AcDbLine
 10
115
 20
163.25
 30
0
 11
115
 21
165
 31
0
  0
LINE
  5
185
330
17F
100
AcDbEntity
  8
0
  6
Caddy_Solid
370
    25
100
AcDbLine
 10
115
 20
160
 30
0
 11
115
 21
161.75
 31
0
  0
ATTDEF
  5
188
330
17F
100
AcDbEntity
  8
0
370
    25
100
AcDbText
 10
93.24350635681152
 20
161.3000030517578
 30
0
 40
2.449996948242188
  1
-X10
 41
0.9
  7
Caddy_Vectorfont1p
 72
     2
 11
110.0499954223633
 21
161.3000030517578
 31
0
100
AcDbAttributeDefinition
  3
Produkt (-)
  2
$TAG160010
 70
     0
  0
ATTDEF
  5
18A
330
17F
100
AcDbEntity
  8
0
370
    25
100
AcDbText
 10
114.0999908447266
 20
164.1999969482422
 30
0
 40
2.449996948242188
  1
6
 50
90
 41
0.9
  7
Caddy_Vectorfont1p
 11
0
 21
0
 31
0
100
AcDbAttributeDefinition
  3
Klemmenummer
  2
$TAG160400
 70
     0
  0
ATTDEF
  5
18C
330
17F
100
AcDbEntity
  8
0
370
    25
100
AcDbText
 10
117.5999908447266
 20
164.1999969482422
 30
0
 40
2.449996948242188
  1
124
 50
90
 41
0.9
  7
Caddy_Vectorfont1p
 11
0
 21
0
 31
0
100
AcDbAttributeDefinition
  3
Sorteringsindeks
  2
$TAG160410
 70
     0
  0
ATTDEF
  5
18E
330
17F
100
AcDbEntity
  8
0
370
    25
100
AcDbText
 10
92.75179196929932
 20
157.8000030517578
 30
0
 40
2.449996948242188
  1

 41
0.9
  7
Caddy_Vectorfont1p
 72
     2
 11
110.0499954223633
 21
157.8000030517578
 31
0
100
AcDbAttributeDefinition
  3
Beskrivelse 00
  2
$TAG160030
 70
     0
  0
ATTDEF
  5
190
330
17F
100
AcDbEntity
  8
0
370
    25
100
AcDbText
 10
92.50706016235353
 20
152.8000030517578
 30
0
 40
2.449996948242188
  1
AB1RR235U2GR
 41
0.9
  7
Caddy_Vectorfont1p
 72
     2
 11
110.0500183105469
 21
152.8000030517578
 31
0
100
AcDbAttributeDefinition
  3
Type
  2
$TAG160040
 70
     0
  0
ATTDEF
  5
192
330
17F
100
AcDbEntity
  8
0
370
    25
100
AcDbText
 10
92.50704490356446
 20
168.3000030517578
 30
0
 40
2.449996948242188
  1
=
 41
0.9
  7
Caddy_Vectorfont1p
 72
     2
 11
110.0500030517578
 21
168.3000030517578
 31
0
100
AcDbAttributeDefinition
  3
Funktion (=)
  2
$TAG140020
 70
     0
  0
ATTDEF
  5
194
330
17F
100
AcDbEntity
  8
0
370
    25
100
AcDbText
 10
92.50703727416993
 20
164.8000030517578
 30
0
 40
2.449996948242188
  1
+
 41
0.9
  7
Caddy_Vectorfont1p
 72
     2
 11
110.0499954223633
 21
164.8000030517578
 31
0
100
AcDbAttributeDefinition
  3
Placering (+)
  2
$TAG140050
 70
     0
  0
ENDBLK
  5
181
330
17F
100
AcDbEntity
  8
0
100
AcDbBlockEnd
  0
BLOCK
  5
196
330
195
100
AcDbEntity
  8
0
100
AcDbBlockBegin
  2
Blk14
 70
     2
 10
0
 20
0
 30
0
  3
Blk14
  1

  0
CIRCLE
  5
199
330
195
100
AcDbEntity
  8
0
  6
Caddy_Solid
370
    25
100
AcDbCircle
 10
110
 20
162.5
 30
0
 40
0.75
  0
LINE
  5
19A
330
195
100
AcDbEntity
  8
0
  6
Caddy_Solid
370
    25
100
AcDbLine
 10
110
 20
163.25
 30
0
 11
110
 21
165
 31
0
  0
LINE
  5
19B
330
195
100
AcDbEntity
  8
0
  6
Caddy_Solid
370
    25
100
AcDbLine
 10
110
 20
160
 30
0
 11
110
 21
161.75
 31
0
  0
ATTDEF
  5
19E
330
195
100
AcDbEntity
  8
0
370
    25
100
AcDbText
 10
88.24350635681152
 20
161.3000030517578
 30
0
 40
2.449996948242188
  1
X9
 41
0.9
  7
Caddy_Vectorfont1p
 72
     2
 11
105.0499954223633
 21
161.3000030517578
 31
0
100
AcDbAttributeDefinition
  3
Produkt (-)
  2
$TAG160010
 70
     0
  0
ATTDEF
  5
1A0
330
195
100
AcDbEntity
  8
0
370
    25
100
AcDbText
 10
109.0999908447266
 20
164.1999969482422
 30
0
 40
2.449996948242188
  1
5
 50
90
 41
0.9
  7
Caddy_Vectorfont1p
 11
0
 21
0
 31
0
100
AcDbAttributeDefinition
  3
Klemmenummer
  2
$TAG160400
 70
     0
  0
ATTDEF
  5
1A2
330
195
100
AcDbEntity
  8
0
370
    25
100
AcDbText
 10
112.5999908447266
 20
164.1999969482422
 30
0
 40
2.449996948242188
  1
125
 50
90
 41
0.9
  7
Caddy_Vectorfont1p
 11
0
 21
0
 31
0
100
AcDbAttributeDefinition
  3
Sorteringsindeks
  2
$TAG160410
 70
     0
  0
ATTDEF
  5
1A4
330
195
100
AcDbEntity
  8
0
370
    25
100
AcDbText
 10
87.75179196929932
 20
157.8000030517578
 30
0
 40
2.449996948242188
  1

 41
0.9
  7
Caddy_Vectorfont1p
 72
     2
 11
105.0499954223633
 21
157.8000030517578
 31
0
100
AcDbAttributeDefinition
  3
Beskrivelse 00
  2
$TAG160030
 70
     0
  0
ATTDEF
  5
1A6
330
195
100
AcDbEntity
  8
0
370
    25
100
AcDbText
 10
87.50706016235353
 20
152.8000030517578
 30
0
 40
2.449996948242188
  1
AB1RR235U2GR
 41
0.9
  7
Caddy_Vectorfont1p
 72
     2
 11
105.0500183105469
 21
152.8000030517578
 31
0
100
AcDbAttributeDefinition
  3
Type
  2
$TAG160040
 70
     0
  0
ATTDEF
  5
1A8
330
195
100
AcDbEntity
  8
0
370
    25
100
AcDbText
 10
87.50704490356446
 20
168.3000030517578
 30
0
 40
2.449996948242188
  1
=
 41
0.9
  7
Caddy_Vectorfont1p
 72
     2
 11
105.0500030517578
 21
168.3000030517578
 31
0
100
AcDbAttributeDefinition
  3
Funktion (=)
  2
$TAG140020
 70
     0
  0
ATTDEF
  5
1AA
330
195
100
AcDbEntity
  8
0
370
    25
100
AcDbText
 10
87.50703727416993
 20
164.8000030517578
 30
0
 40
2.449996948242188
  1
+
 41
0.9
  7
Caddy_Vectorfont1p
 72
     2
 11
105.0499954223633
 21
164.8000030517578
 31
0
100
AcDbAttributeDefinition
  3
Placering (+)
  2
$TAG140050
 70
     0
  0
ENDBLK
  5
197
330
195
100
AcDbEntity
  8
0
100
AcDbBlockEnd
  0
BLOCK
  5
1B0
330
1AF
100
AcDbEntity
  8
0
100
AcDbBlockBegin
  2
Blk15
 70
     2
 10
0
 20
0
 30
0
  3
Blk15
  1

  0
CIRCLE
  5
1B3
330
1AF
100
AcDbEntity
  8
0
  6
Caddy_Solid
370
    25
100
AcDbCircle
 10
165
 20
162.5
 30
0
 40
0.75
  0
LINE
  5
1B4
330
1AF
100
AcDbEntity
  8
0
  6
Caddy_Solid
370
    25
100
AcDbLine
 10
165
 20
163.25
 30
0
 11
165
 21
165
 31
0
  0
LINE
  5
1B5
330
1AF
100
AcDbEntity
  8
0
  6
Caddy_Solid
370
    25
100
AcDbLine
 10
165
 20
160
 30
0
 11
165
 21
161.75
 31
0
  0
ATTDEF
  5
1B8
330
1AF
100
AcDbEntity
  8
0
370
    25
100
AcDbText
 10
143.2435139862061
 20
161.3000030517578
 30
0
 40
2.449996948242188
  1
-X10
 41
0.9
  7
Caddy_Vectorfont1p
 72
     2
 11
160.0500030517578
 21
161.3000030517578
 31
0
100
AcDbAttributeDefinition
  3
Produkt (-)
  2
$TAG160010
 70
     0
  0
ATTDEF
  5
1BA
330
1AF
100
AcDbEntity
  8
0
370
    25
100
AcDbText
 10
164.0999908447266
 20
164.1999969482422
 30
0
 40
2.449996948242188
  1
12
 50
90
 41
0.9
  7
Caddy_Vectorfont1p
 11
0
 21
0
 31
0
100
AcDbAttributeDefinition
  3
Klemmenummer
  2
$TAG160400
 70
     0
  0
ATTDEF
  5
1BC
330
1AF
100
AcDbEntity
  8
0
370
    25
100
AcDbText
 10
167.5999908447266
 20
164.1999969482422
 30
0
 40
2.449996948242188
  1
122
 50
90
 41
0.9
  7
Caddy_Vectorfont1p
 11
0
 21
0
 31
0
100
AcDbAttributeDefinition
  3
Sorteringsindeks
  2
$TAG160410
 70
     0
  0
ATTDEF
  5
1BE
330
1AF
100
AcDbEntity
  8
0
370
    25
100
AcDbText
 10
142.7517995986939
 20
157.8000030517578
 30
0
 40
2.449996948242188
  1

 41
0.9
  7
Caddy_Vectorfont1p
 72
     2
 11
160.0500030517578
 21
157.8000030517578
 31
0
100
AcDbAttributeDefinition
  3
Beskrivelse 00
  2
$TAG160030
 70
     0
  0
ATTDEF
  5
1C0
330
1AF
100
AcDbEntity
  8
0
370
    25
100
AcDbText
 10
142.5070601623535
 20
152.8000030517578
 30
0
 40
2.449996948242188
  1
AB1RR235U2GR
 41
0.9
  7
Caddy_Vectorfont1p
 72
     2
 11
160.0500183105469
 21
152.8000030517578
 31
0
100
AcDbAttributeDefinition
  3
Type
  2
$TAG160040
 70
     0
  0
ATTDEF
  5
1C2
330
1AF
100
AcDbEntity
  8
0
370
    25
100
AcDbText
 10
142.5070449035645
 20
168.3000030517578
 30
0
 40
2.449996948242188
  1
=
 41
0.9
  7
Caddy_Vectorfont1p
 72
     2
 11
160.0500030517578
 21
168.3000030517578
 31
0
100
AcDbAttributeDefinition
  3
Funktion (=)
  2
$TAG140020
 70
     0
  0
ATTDEF
  5
1C4
330
1AF
100
AcDbEntity
  8
0
370
    25
100
AcDbText
 10
142.5070296447754
 20
164.8000030517578
 30
0
 40
2.449996948242188
  1
+
 41
0.9
  7
Caddy_Vectorfont1p
 72
     2
 11
160.0499877929688
 21
164.8000030517578
 31
0
100
AcDbAttributeDefinition
  3
Placering (+)
  2
$TAG140050
 70
     0
  0
ENDBLK
  5
1B1
330
1AF
100
AcDbEntity
  8
0
100
AcDbBlockEnd
  0
BLOCK
  5
1C6
330
1C5
100
AcDbEntity
  8
0
100
AcDbBlockBegin
  2
Blk16
 70
     2
 10
0
 20
0
 30
0
  3
Blk16
  1

  0
CIRCLE
  5
1C9
330
1C5
100
AcDbEntity
  8
0
  6
Caddy_Solid
370
    25
100
AcDbCircle
 10
160
 20
162.5
 30
0
 40
0.75
  0
LINE
  5
1CA
330
1C5
100
AcDbEntity
  8
0
  6
Caddy_Solid
370
    25
100
AcDbLine
 10
160
 20
163.25
 30
0
 11
160
 21
165
 31
0
  0
LINE
  5
1CB
330
1C5
100
AcDbEntity
  8
0
  6
Caddy_Solid
370
    25
100
AcDbLine
 10
160
 20
160
 30
0
 11
160
 21
161.75
 31
0
  0
ATTDEF
  5
1CE
330
1C5
100
AcDbEntity
  8
0
370
    25
100
AcDbText
 10
138.2435139862061
 20
161.3000030517578
 30
0
 40
2.449996948242188
  1
-X10
 41
0.9
  7
Caddy_Vectorfont1p
 72
     2
 11
155.0500030517578
 21
161.3000030517578
 31
0
100
AcDbAttributeDefinition
  3
Produkt (-)
  2
$TAG160010
 70
     0
  0
ATTDEF
  5
1D0
330
1C5
100
AcDbEntity
  8
0
370
    25
100
AcDbText
 10
159.0999908447266
 20
164.1999969482422
 30
0
 40
2.449996948242188
  1
11
 50
90
 41
0.9
  7
Caddy_Vectorfont1p
 11
0
 21
0
 31
0
100
AcDbAttributeDefinition
  3
Klemmenummer
  2
$TAG160400
 70
     0
  0
ATTDEF
  5
1D2
330
1C5
100
AcDbEntity
  8
0
370
    25
100
AcDbText
 10
162.5999908447266
 20
164.1999969482422
 30
0
 40
2.449996948242188
  1
123
 50
90
 41
0.9
  7
Caddy_Vectorfont1p
 11
0
 21
0
 31
0
100
AcDbAttributeDefinition
  3
Sorteringsindeks
  2
$TAG160410
 70
     0
  0
ATTDEF
  5
1D4
330
1C5
100
AcDbEntity
  8
0
370
    25
100
AcDbText
 10
137.7517995986939
 20
157.8000030517578
 30
0
 40
2.449996948242188
  1

 41
0.9
  7
Caddy_Vectorfont1p
 72
     2
 11
155.0500030517578
 21
157.8000030517578
 31
0
100
AcDbAttributeDefinition
  3
Beskrivelse 00
  2
$TAG160030
 70
     0
  0
ATTDEF
  5
1D6
330
1C5
100
AcDbEntity
  8
0
370
    25
100
AcDbText
 10
137.5070601623535
 20
152.8000030517578
 30
0
 40
2.449996948242188
  1
AB1RR235U2GR
 41
0.9
  7
Caddy_Vectorfont1p
 72
     2
 11
155.0500183105469
 21
152.8000030517578
 31
0
100
AcDbAttributeDefinition
  3
Type
  2
$TAG160040
 70
     0
  0
ATTDEF
  5
1D8
330
1C5
100
AcDbEntity
  8
0
370
    25
100
AcDbText
 10
137.5070449035645
 20
168.3000030517578
 30
0
 40
2.449996948242188
  1
=
 41
0.9
  7
Caddy_Vectorfont1p
 72
     2
 11
155.0500030517578
 21
168.3000030517578
 31
0
100
AcDbAttributeDefinition
  3
Funktion (=)
  2
$TAG140020
 70
     0
  0
ATTDEF
  5
1DA
330
1C5
100
AcDbEntity
  8
0
370
    25
100
AcDbText
 10
137.5070296447754
 20
164.8000030517578
 30
0
 40
2.449996948242188
  1
+
 41
0.9
  7
Caddy_Vectorfont1p
 72
     2
 11
155.0499877929688
 21
164.8000030517578
 31
0
100
AcDbAttributeDefinition
  3
Placering (+)
  2
$TAG140050
 70
     0
  0
ENDBLK
  5
1C7
330
1C5
100
AcDbEntity
  8
0
100
AcDbBlockEnd
  0
BLOCK
  5
1DC
330
1DB
100
AcDbEntity
  8
0
100
AcDbBlockBegin
  2
Blk17
 70
     2
 10
0
 20
0
 30
0
  3
Blk17
  1

  0
CIRCLE
  5
1DF
330
1DB
100
AcDbEntity
  8
0
  6
Caddy_Solid
370
    25
100
AcDbCircle
 10
155
 20
162.5
 30
0
 40
0.75
  0
LINE
  5
1E0
330
1DB
100
AcDbEntity
  8
0
  6
Caddy_Solid
370
    25
100
AcDbLine
 10
155
 20
163.25
 30
0
 11
155
 21
165
 31
0
  0
LINE
  5
1E1
330
1DB
100
AcDbEntity
  8
0
  6
Caddy_Solid
370
    25
100
AcDbLine
 10
155
 20
160
 30
0
 11
155
 21
161.75
 31
0
  0
ATTDEF
  5
1E4
330
1DB
100
AcDbEntity
  8
0
370
    25
100
AcDbText
 10
133.2435139862061
 20
161.3000030517578
 30
0
 40
2.449996948242188
  1
-X10
 41
0.9
  7
Caddy_Vectorfont1p
 72
     2
 11
150.0500030517578
 21
161.3000030517578
 31
0
100
AcDbAttributeDefinition
  3
Produkt (-)
  2
$TAG160010
 70
     0
  0
ATTDEF
  5
1E6
330
1DB
100
AcDbEntity
  8
0
370
    25
100
AcDbText
 10
154.0999908447266
 20
164.1999969482422
 30
0
 40
2.449996948242188
  1
10
 50
90
 41
0.9
  7
Caddy_Vectorfont1p
 11
0
 21
0
 31
0
100
AcDbAttributeDefinition
  3
Klemmenummer
  2
$TAG160400
 70
     0
  0
ATTDEF
  5
1E8
330
1DB
100
AcDbEntity
  8
0
370
    25
100
AcDbText
 10
157.5999908447266
 20
164.1999969482422
 30
0
 40
2.449996948242188
  1
124
 50
90
 41
0.9
  7
Caddy_Vectorfont1p
 11
0
 21
0
 31
0
100
AcDbAttributeDefinition
  3
Sorteringsindeks
  2
$TAG160410
 70
     0
  0
ATTDEF
  5
1EA
330
1DB
100
AcDbEntity
  8
0
370
    25
100
AcDbText
 10
132.7517995986939
 20
157.8000030517578
 30
0
 40
2.449996948242188
  1

 41
0.9
  7
Caddy_Vectorfont1p
 72
     2
 11
150.0500030517578
 21
157.8000030517578
 31
0
100
AcDbAttributeDefinition
  3
Beskrivelse 00
  2
$TAG160030
 70
     0
  0
ATTDEF
  5
1EC
330
1DB
100
AcDbEntity
  8
0
370
    25
100
AcDbText
 10
132.5070754211426
 20
152.8000030517578
 30
0
 40
2.449996948242188
  1
AB1RR235U2GR
 41
0.9
  7
Caddy_Vectorfont1p
 72
     2
 11
150.0500335693359
 21
152.8000030517578
 31
0
100
AcDbAttributeDefinition
  3
Type
  2
$TAG160040
 70
     0
  0
ATTDEF
  5
1EE
330
1DB
100
AcDbEntity
  8
0
370
    25
100
AcDbText
 10
132.5070449035645
 20
168.3000030517578
 30
0
 40
2.449996948242188
  1
=
 41
0.9
  7
Caddy_Vectorfont1p
 72
     2
 11
150.0500030517578
 21
168.3000030517578
 31
0
100
AcDbAttributeDefinition
  3
Funktion (=)
  2
$TAG140020
 70
     0
  0
ATTDEF
  5
1F0
330
1DB
100
AcDbEntity
  8
0
370
    25
100
AcDbText
 10
132.5070296447754
 20
164.8000030517578
 30
0
 40
2.449996948242188
  1
+
 41
0.9
  7
Caddy_Vectorfont1p
 72
     2
 11
150.0499877929688
 21
164.8000030517578
 31
0
100
AcDbAttributeDefinition
  3
Placering (+)
  2
$TAG140050
 70
     0
  0
ENDBLK
  5
1DD
330
1DB
100
AcDbEntity
  8
0
100
AcDbBlockEnd
  0
BLOCK
  5
1F2
330
1F1
100
AcDbEntity
  8
0
100
AcDbBlockBegin
  2
Blk18
 70
     2
 10
0
 20
0
 30
0
  3
Blk18
  1

  0
CIRCLE
  5
1F5
330
1F1
100
AcDbEntity
  8
0
  6
Caddy_Solid
370
    25
100
AcDbCircle
 10
150
 20
162.5
 30
0
 40
0.75
  0
LINE
  5
1F6
330
1F1
100
AcDbEntity
  8
0
  6
Caddy_Solid
370
    25
100
AcDbLine
 10
150
 20
163.25
 30
0
 11
150
 21
165
 31
0
  0
LINE
  5
1F7
330
1F1
100
AcDbEntity
  8
0
  6
Caddy_Solid
370
    25
100
AcDbLine
 10
150
 20
160
 30
0
 11
150
 21
161.75
 31
0
  0
ATTDEF
  5
1FA
330
1F1
100
AcDbEntity
  8
0
370
    25
100
AcDbText
 10
128.2435139862061
 20
161.3000030517578
 30
0
 40
2.449996948242188
  1
X9
 41
0.9
  7
Caddy_Vectorfont1p
 72
     2
 11
145.0500030517578
 21
161.3000030517578
 31
0
100
AcDbAttributeDefinition
  3
Produkt (-)
  2
$TAG160010
 70
     0
  0
ATTDEF
  5
1FC
330
1F1
100
AcDbEntity
  8
0
370
    25
100
AcDbText
 10
149.0999908447266
 20
164.1999969482422
 30
0
 40
2.449996948242188
  1
9
 50
90
 41
0.9
  7
Caddy_Vectorfont1p
 11
0
 21
0
 31
0
100
AcDbAttributeDefinition
  3
Klemmenummer
  2
$TAG160400
 70
     0
  0
ATTDEF
  5
1FE
330
1F1
100
AcDbEntity
  8
0
370
    25
100
AcDbText
 10
152.5999908447266
 20
164.1999969482422
 30
0
 40
2.449996948242188
  1
125
 50
90
 41
0.9
  7
Caddy_Vectorfont1p
 11
0
 21
0
 31
0
100
AcDbAttributeDefinition
  3
Sorteringsindeks
  2
$TAG160410
 70
     0
  0
ATTDEF
  5
200
330
1F1
100
AcDbEntity
  8
0
370
    25
100
AcDbText
 10
127.7517995986939
 20
157.8000030517578
 30
0
 40
2.449996948242188
  1

 41
0.9
  7
Caddy_Vectorfont1p
 72
     2
 11
145.0500030517578
 21
157.8000030517578
 31
0
100
AcDbAttributeDefinition
  3
Beskrivelse 00
  2
$TAG160030
 70
     0
  0
ATTDEF
  5
202
330
1F1
100
AcDbEntity
  8
0
370
    25
100
AcDbText
 10
127.5070601623535
 20
152.8000030517578
 30
0
 40
2.449996948242188
  1
AB1RR235U2GR
 41
0.9
  7
Caddy_Vectorfont1p
 72
     2
 11
145.0500183105469
 21
152.8000030517578
 31
0
100
AcDbAttributeDefinition
  3
Type
  2
$TAG160040
 70
     0
  0
ATTDEF
  5
204
330
1F1
100
AcDbEntity
  8
0
370
    25
100
AcDbText
 10
127.5070449035645
 20
168.3000030517578
 30
0
 40
2.449996948242188
  1
=
 41
0.9
  7
Caddy_Vectorfont1p
 72
     2
 11
145.0500030517578
 21
168.3000030517578
 31
0
100
AcDbAttributeDefinition
  3
Funktion (=)
  2
$TAG140020
 70
     0
  0
ATTDEF
  5
206
330
1F1
100
AcDbEntity
  8
0
370
    25
100
AcDbText
 10
127.5070296447754
 20
164.8000030517578
 30
0
 40
2.449996948242188
  1
+
 41
0.9
  7
Caddy_Vectorfont1p
 72
     2
 11
145.0499877929688
 21
164.8000030517578
 31
0
100
AcDbAttributeDefinition
  3
Placering (+)
  2
$TAG140050
 70
     0
  0
ENDBLK
  5
1F3
330
1F1
100
AcDbEntity
  8
0
100
AcDbBlockEnd
  0
BLOCK
  5
208
330
207
100
AcDbEntity
  8
0
100
AcDbBlockBegin
  2
Blk19
 70
     2
 10
0
 20
0
 30
0
  3
Blk19
  1

  0
CIRCLE
  5
20B
330
207
100
AcDbEntity
  8
0
  6
Caddy_Solid
370
    25
100
AcDbCircle
 10
205
 20
162.5
 30
0
 40
0.75
  0
LINE
  5
20C
330
207
100
AcDbEntity
  8
0
  6
Caddy_Solid
370
    25
100
AcDbLine
 10
205
 20
163.25
 30
0
 11
205
 21
165
 31
0
  0
LINE
  5
20D
330
207
100
AcDbEntity
  8
0
  6
Caddy_Solid
370
    25
100
AcDbLine
 10
205
 20
160
 30
0
 11
205
 21
161.75
 31
0
  0
ATTDEF
  5
210
330
207
100
AcDbEntity
  8
0
370
    25
100
AcDbText
 10
183.2435139862061
 20
161.3000030517578
 30
0
 40
2.449996948242188
  1
-X10
 41
0.9
  7
Caddy_Vectorfont1p
 72
     2
 11
200.0500030517578
 21
161.3000030517578
 31
0
100
AcDbAttributeDefinition
  3
Produkt (-)
  2
$TAG160010
 70
     0
  0
ATTDEF
  5
212
330
207
100
AcDbEntity
  8
0
370
    25
100
AcDbText
 10
204.0999908447266
 20
164.1999969482422
 30
0
 40
2.449996948242188
  1
16
 50
90
 41
0.9
  7
Caddy_Vectorfont1p
 11
0
 21
0
 31
0
100
AcDbAttributeDefinition
  3
Klemmenummer
  2
$TAG160400
 70
     0
  0
ATTDEF
  5
214
330
207
100
AcDbEntity
  8
0
370
    25
100
AcDbText
 10
207.5999908447266
 20
164.1999969482422
 30
0
 40
2.449996948242188
  1
122
 50
90
 41
0.9
  7
Caddy_Vectorfont1p
 11
0
 21
0
 31
0
100
AcDbAttributeDefinition
  3
Sorteringsindeks
  2
$TAG160410
 70
     0
  0
ATTDEF
  5
216
330
207
100
AcDbEntity
  8
0
370
    25
100
AcDbText
 10
182.7517995986939
 20
157.8000030517578
 30
0
 40
2.449996948242188
  1

 41
0.9
  7
Caddy_Vectorfont1p
 72
     2
 11
200.0500030517578
 21
157.8000030517578
 31
0
100
AcDbAttributeDefinition
  3
Beskrivelse 00
  2
$TAG160030
 70
     0
  0
ATTDEF
  5
218
330
207
100
AcDbEntity
  8
0
370
    25
100
AcDbText
 10
182.5070601623535
 20
152.8000030517578
 30
0
 40
2.449996948242188
  1
AB1RR235U2GR
 41
0.9
  7
Caddy_Vectorfont1p
 72
     2
 11
200.0500183105469
 21
152.8000030517578
 31
0
100
AcDbAttributeDefinition
  3
Type
  2
$TAG160040
 70
     0
  0
ATTDEF
  5
21A
330
207
100
AcDbEntity
  8
0
370
    25
100
AcDbText
 10
182.5070449035645
 20
168.3000030517578
 30
0
 40
2.449996948242188
  1
=
 41
0.9
  7
Caddy_Vectorfont1p
 72
     2
 11
200.0500030517578
 21
168.3000030517578
 31
0
100
AcDbAttributeDefinition
  3
Funktion (=)
  2
$TAG140020
 70
     0
  0
ATTDEF
  5
21C
330
207
100
AcDbEntity
  8
0
370
    25
100
AcDbText
 10
182.5070296447754
 20
164.8000030517578
 30
0
 40
2.449996948242188
  1
+
 41
0.9
  7
Caddy_Vectorfont1p
 72
     2
 11
200.0499877929688
 21
164.8000030517578
 31
0
100
AcDbAttributeDefinition
  3
Placering (+)
  2
$TAG140050
 70
     0
  0
ENDBLK
  5
209
330
207
100
AcDbEntity
  8
0
100
AcDbBlockEnd
  0
BLOCK
  5
21E
330
21D
100
AcDbEntity
  8
0
100
AcDbBlockBegin
  2
Blk20
 70
     2
 10
0
 20
0
 30
0
  3
Blk20
  1

  0
CIRCLE
  5
221
330
21D
100
AcDbEntity
  8
0
  6
Caddy_Solid
370
    25
100
AcDbCircle
 10
200
 20
162.5
 30
0
 40
0.75
  0
LINE
  5
222
330
21D
100
AcDbEntity
  8
0
  6
Caddy_Solid
370
    25
100
AcDbLine
 10
200
 20
163.25
 30
0
 11
200
 21
165
 31
0
  0
LINE
  5
223
330
21D
100
AcDbEntity
  8
0
  6
Caddy_Solid
370
    25
100
AcDbLine
 10
200
 20
160
 30
0
 11
200
 21
161.75
 31
0
  0
ATTDEF
  5
226
330
21D
100
AcDbEntity
  8
0
370
    25
100
AcDbText
 10
178.2435139862061
 20
161.3000030517578
 30
0
 40
2.449996948242188
  1
-X10
 41
0.9
  7
Caddy_Vectorfont1p
 72
     2
 11
195.0500030517578
 21
161.3000030517578
 31
0
100
AcDbAttributeDefinition
  3
Produkt (-)
  2
$TAG160010
 70
     0
  0
ATTDEF
  5
228
330
21D
100
AcDbEntity
  8
0
370
    25
100
AcDbText
 10
199.0999908447266
 20
164.1999969482422
 30
0
 40
2.449996948242188
  1
15
 50
90
 41
0.9
  7
Caddy_Vectorfont1p
 11
0
 21
0
 31
0
100
AcDbAttributeDefinition
  3
Klemmenummer
  2
$TAG160400
 70
     0
  0
ATTDEF
  5
22A
330
21D
100
AcDbEntity
  8
0
370
    25
100
AcDbText
 10
202.5999908447266
 20
164.1999969482422
 30
0
 40
2.449996948242188
  1
123
 50
90
 41
0.9
  7
Caddy_Vectorfont1p
 11
0
 21
0
 31
0
100
AcDbAttributeDefinition
  3
Sorteringsindeks
  2
$TAG160410
 70
     0
  0
ATTDEF
  5
22C
330
21D
100
AcDbEntity
  8
0
370
    25
100
AcDbText
 10
177.7517995986939
 20
157.8000030517578
 30
0
 40
2.449996948242188
  1

 41
0.9
  7
Caddy_Vectorfont1p
 72
     2
 11
195.0500030517578
 21
157.8000030517578
 31
0
100
AcDbAttributeDefinition
  3
Beskrivelse 00
  2
$TAG160030
 70
     0
  0
ATTDEF
  5
22E
330
21D
100
AcDbEntity
  8
0
370
    25
100
AcDbText
 10
177.5070601623535
 20
152.8000030517578
 30
0
 40
2.449996948242188
  1
AB1RR235U2GR
 41
0.9
  7
Caddy_Vectorfont1p
 72
     2
 11
195.0500183105469
 21
152.8000030517578
 31
0
100
AcDbAttributeDefinition
  3
Type
  2
$TAG160040
 70
     0
  0
ATTDEF
  5
230
330
21D
100
AcDbEntity
  8
0
370
    25
100
AcDbText
 10
177.5070449035645
 20
168.3000030517578
 30
0
 40
2.449996948242188
  1
=
 41
0.9
  7
Caddy_Vectorfont1p
 72
     2
 11
195.0500030517578
 21
168.3000030517578
 31
0
100
AcDbAttributeDefinition
  3
Funktion (=)
  2
$TAG140020
 70
     0
  0
ATTDEF
  5
232
330
21D
100
AcDbEntity
  8
0
370
    25
100
AcDbText
 10
177.5070296447754
 20
164.8000030517578
 30
0
 40
2.449996948242188
  1
+
 41
0.9
  7
Caddy_Vectorfont1p
 72
     2
 11
195.0499877929688
 21
164.8000030517578
 31
0
100
AcDbAttributeDefinition
  3
Placering (+)
  2
$TAG140050
 70
     0
  0
ENDBLK
  5
21F
330
21D
100
AcDbEntity
  8
0
100
AcDbBlockEnd
  0
BLOCK
  5
234
330
233
100
AcDbEntity
  8
0
100
AcDbBlockBegin
  2
Blk21
 70
     2
 10
0
 20
0
 30
0
  3
Blk21
  1

  0
CIRCLE
  5
237
330
233
100
AcDbEntity
  8
0
  6
Caddy_Solid
370
    25
100
AcDbCircle
 10
195
 20
162.5
 30
0
 40
0.75
  0
LINE
  5
238
330
233
100
AcDbEntity
  8
0
  6
Caddy_Solid
370
    25
100
AcDbLine
 10
195
 20
163.25
 30
0
 11
195
 21
165
 31
0
  0
LINE
  5
239
330
233
100
AcDbEntity
  8
0
  6
Caddy_Solid
370
    25
100
AcDbLine
 10
195
 20
160
 30
0
 11
195
 21
161.75
 31
0
  0
ATTDEF
  5
23C
330
233
100
AcDbEntity
  8
0
370
    25
100
AcDbText
 10
173.2435139862061
 20
161.3000030517578
 30
0
 40
2.449996948242188
  1
-X10
 41
0.9
  7
Caddy_Vectorfont1p
 72
     2
 11
190.0500030517578
 21
161.3000030517578
 31
0
100
AcDbAttributeDefinition
  3
Produkt (-)
  2
$TAG160010
 70
     0
  0
ATTDEF
  5
23E
330
233
100
AcDbEntity
  8
0
370
    25
100
AcDbText
 10
194.0999908447266
 20
164.1999969482422
 30
0
 40
2.449996948242188
  1
14
 50
90
 41
0.9
  7
Caddy_Vectorfont1p
 11
0
 21
0
 31
0
100
AcDbAttributeDefinition
  3
Klemmenummer
  2
$TAG160400
 70
     0
  0
ATTDEF
  5
240
330
233
100
AcDbEntity
  8
0
370
    25
100
AcDbText
 10
197.5999908447266
 20
164.1999969482422
 30
0
 40
2.449996948242188
  1
124
 50
90
 41
0.9
  7
Caddy_Vectorfont1p
 11
0
 21
0
 31
0
100
AcDbAttributeDefinition
  3
Sorteringsindeks
  2
$TAG160410
 70
     0
  0
ATTDEF
  5
242
330
233
100
AcDbEntity
  8
0
370
    25
100
AcDbText
 10
172.7517995986939
 20
157.8000030517578
 30
0
 40
2.449996948242188
  1

 41
0.9
  7
Caddy_Vectorfont1p
 72
     2
 11
190.0500030517578
 21
157.8000030517578
 31
0
100
AcDbAttributeDefinition
  3
Beskrivelse 00
  2
$TAG160030
 70
     0
  0
ATTDEF
  5
244
330
233
100
AcDbEntity
  8
0
370
    25
100
AcDbText
 10
172.5070601623535
 20
152.8000030517578
 30
0
 40
2.449996948242188
  1
AB1RR235U2GR
 41
0.9
  7
Caddy_Vectorfont1p
 72
     2
 11
190.0500183105469
 21
152.8000030517578
 31
0
100
AcDbAttributeDefinition
  3
Type
  2
$TAG160040
 70
     0
  0
ATTDEF
  5
246
330
233
100
AcDbEntity
  8
0
370
    25
100
AcDbText
 10
172.5070449035645
 20
168.3000030517578
 30
0
 40
2.449996948242188
  1
=
 41
0.9
  7
Caddy_Vectorfont1p
 72
     2
 11
190.0500030517578
 21
168.3000030517578
 31
0
100
AcDbAttributeDefinition
  3
Funktion (=)
  2
$TAG140020
 70
     0
  0
ATTDEF
  5
248
330
233
100
AcDbEntity
  8
0
370
    25
100
AcDbText
 10
172.5070296447754
 20
164.8000030517578
 30
0
 40
2.449996948242188
  1
+
 41
0.9
  7
Caddy_Vectorfont1p
 72
     2
 11
190.0499877929688
 21
164.8000030517578
 31
0
100
AcDbAttributeDefinition
  3
Placering (+)
  2
$TAG140050
 70
     0
  0
ENDBLK
  5
235
330
233
100
AcDbEntity
  8
0
100
AcDbBlockEnd
  0
BLOCK
  5
24A
330
249
100
AcDbEntity
  8
0
100
AcDbBlockBegin
  2
Blk22
 70
     2
 10
0
 20
0
 30
0
  3
Blk22
  1

  0
CIRCLE
  5
24D
330
249
100
AcDbEntity
  8
0
  6
Caddy_Solid
370
    25
100
AcDbCircle
 10
190
 20
162.5
 30
0
 40
0.75
  0
LINE
  5
24E
330
249
100
AcDbEntity
  8
0
  6
Caddy_Solid
370
    25
100
AcDbLine
 10
190
 20
163.25
 30
0
 11
190
 21
165
 31
0
  0
LINE
  5
24F
330
249
100
AcDbEntity
  8
0
  6
Caddy_Solid
370
    25
100
AcDbLine
 10
190
 20
160
 30
0
 11
190
 21
161.75
 31
0
  0
ATTDEF
  5
252
330
249
100
AcDbEntity
  8
0
370
    25
100
AcDbText
 10
168.2435139862061
 20
161.3000030517578
 30
0
 40
2.449996948242188
  1
X9
 41
0.9
  7
Caddy_Vectorfont1p
 72
     2
 11
185.0500030517578
 21
161.3000030517578
 31
0
100
AcDbAttributeDefinition
  3
Produkt (-)
  2
$TAG160010
 70
     0
  0
ATTDEF
  5
254
330
249
100
AcDbEntity
  8
0
370
    25
100
AcDbText
 10
189.0999908447266
 20
164.1999969482422
 30
0
 40
2.449996948242188
  1
13
 50
90
 41
0.9
  7
Caddy_Vectorfont1p
 11
0
 21
0
 31
0
100
AcDbAttributeDefinition
  3
Klemmenummer
  2
$TAG160400
 70
     0
  0
ATTDEF
  5
256
330
249
100
AcDbEntity
  8
0
370
    25
100
AcDbText
 10
192.5999908447266
 20
164.1999969482422
 30
0
 40
2.449996948242188
  1
125
 50
90
 41
0.9
  7
Caddy_Vectorfont1p
 11
0
 21
0
 31
0
100
AcDbAttributeDefinition
  3
Sorteringsindeks
  2
$TAG160410
 70
     0
  0
ATTDEF
  5
258
330
249
100
AcDbEntity
  8
0
370
    25
100
AcDbText
 10
167.7517995986939
 20
157.8000030517578
 30
0
 40
2.449996948242188
  1

 41
0.9
  7
Caddy_Vectorfont1p
 72
     2
 11
185.0500030517578
 21
157.8000030517578
 31
0
100
AcDbAttributeDefinition
  3
Beskrivelse 00
  2
$TAG160030
 70
     0
  0
ATTDEF
  5
25A
330
249
100
AcDbEntity
  8
0
370
    25
100
AcDbText
 10
167.5070601623535
 20
152.8000030517578
 30
0
 40
2.449996948242188
  1
AB1RR235U2GR
 41
0.9
  7
Caddy_Vectorfont1p
 72
     2
 11
185.0500183105469
 21
152.8000030517578
 31
0
100
AcDbAttributeDefinition
  3
Type
  2
$TAG160040
 70
     0
  0
ATTDEF
  5
25C
330
249
100
AcDbEntity
  8
0
370
    25
100
AcDbText
 10
167.5070449035645
 20
168.3000030517578
 30
0
 40
2.449996948242188
  1
=
 41
0.9
  7
Caddy_Vectorfont1p
 72
     2
 11
185.0500030517578
 21
168.3000030517578
 31
0
100
AcDbAttributeDefinition
  3
Funktion (=)
  2
$TAG140020
 70
     0
  0
ATTDEF
  5
25E
330
249
100
AcDbEntity
  8
0
370
    25
100
AcDbText
 10
167.5070296447754
 20
164.8000030517578
 30
0
 40
2.449996948242188
  1
+
 41
0.9
  7
Caddy_Vectorfont1p
 72
     2
 11
185.0499877929688
 21
164.8000030517578
 31
0
100
AcDbAttributeDefinition
  3
Placering (+)
  2
$TAG140050
 70
     0
  0
ENDBLK
  5
24B
330
249
100
AcDbEntity
  8
0
100
AcDbBlockEnd
  0
BLOCK
  5
260
330
25F
100
AcDbEntity
  8
0
100
AcDbBlockBegin
  2
Blk23
 70
     2
 10
0
 20
0
 30
0
  3
Blk23
  1

  0
CIRCLE
  5
263
330
25F
100
AcDbEntity
  8
0
  6
Caddy_Solid
370
    25
100
AcDbCircle
 10
245
 20
162.5
 30
0
 40
0.75
  0
LINE
  5
264
330
25F
100
AcDbEntity
  8
0
  6
Caddy_Solid
370
    25
100
AcDbLine
 10
245
 20
163.25
 30
0
 11
245
 21
165
 31
0
  0
LINE
  5
265
330
25F
100
AcDbEntity
  8
0
  6
Caddy_Solid
370
    25
100
AcDbLine
 10
245
 20
160
 30
0
 11
245
 21
161.75
 31
0
  0
ATTDEF
  5
268
330
25F
100
AcDbEntity
  8
0
370
    25
100
AcDbText
 10
223.2435139862061
 20
161.3000030517578
 30
0
 40
2.449996948242188
  1
-X10
 41
0.9
  7
Caddy_Vectorfont1p
 72
     2
 11
240.0500030517578
 21
161.3000030517578
 31
0
100
AcDbAttributeDefinition
  3
Produkt (-)
  2
$TAG160010
 70
     0
  0
ATTDEF
  5
26A
330
25F
100
AcDbEntity
  8
0
370
    25
100
AcDbText
 10
244.0999908447266
 20
164.1999969482422
 30
0
 40
2.449996948242188
  1
20
 50
90
 41
0.9
  7
Caddy_Vectorfont1p
 11
0
 21
0
 31
0
100
AcDbAttributeDefinition
  3
Klemmenummer
  2
$TAG160400
 70
     0
  0
ATTDEF
  5
26C
330
25F
100
AcDbEntity
  8
0
370
    25
100
AcDbText
 10
247.5999908447266
 20
164.1999969482422
 30
0
 40
2.449996948242188
  1
122
 50
90
 41
0.9
  7
Caddy_Vectorfont1p
 11
0
 21
0
 31
0
100
AcDbAttributeDefinition
  3
Sorteringsindeks
  2
$TAG160410
 70
     0
  0
ATTDEF
  5
26E
330
25F
100
AcDbEntity
  8
0
370
    25
100
AcDbText
 10
222.7517995986939
 20
157.8000030517578
 30
0
 40
2.449996948242188
  1

 41
0.9
  7
Caddy_Vectorfont1p
 72
     2
 11
240.0500030517578
 21
157.8000030517578
 31
0
100
AcDbAttributeDefinition
  3
Beskrivelse 00
  2
$TAG160030
 70
     0
  0
ATTDEF
  5
270
330
25F
100
AcDbEntity
  8
0
370
    25
100
AcDbText
 10
222.5070601623535
 20
152.8000030517578
 30
0
 40
2.449996948242188
  1
AB1RR235U2GR
 41
0.9
  7
Caddy_Vectorfont1p
 72
     2
 11
240.0500183105469
 21
152.8000030517578
 31
0
100
AcDbAttributeDefinition
  3
Type
  2
$TAG160040
 70
     0
  0
ATTDEF
  5
272
330
25F
100
AcDbEntity
  8
0
370
    25
100
AcDbText
 10
222.5070449035645
 20
168.3000030517578
 30
0
 40
2.449996948242188
  1
=
 41
0.9
  7
Caddy_Vectorfont1p
 72
     2
 11
240.0500030517578
 21
168.3000030517578
 31
0
100
AcDbAttributeDefinition
  3
Funktion (=)
  2
$TAG140020
 70
     0
  0
ATTDEF
  5
274
330
25F
100
AcDbEntity
  8
0
370
    25
100
AcDbText
 10
222.5070296447754
 20
164.8000030517578
 30
0
 40
2.449996948242188
  1
+
 41
0.9
  7
Caddy_Vectorfont1p
 72
     2
 11
240.0499877929688
 21
164.8000030517578
 31
0
100
AcDbAttributeDefinition
  3
Placering (+)
  2
$TAG140050
 70
     0
  0
ENDBLK
  5
261
330
25F
100
AcDbEntity
  8
0
100
AcDbBlockEnd
  0
BLOCK
  5
276
330
275
100
AcDbEntity
  8
0
100
AcDbBlockBegin
  2
Blk24
 70
     2
 10
0
 20
0
 30
0
  3
Blk24
  1

  0
CIRCLE
  5
279
330
275
100
AcDbEntity
  8
0
  6
Caddy_Solid
370
    25
100
AcDbCircle
 10
240
 20
162.5
 30
0
 40
0.75
  0
LINE
  5
27A
330
275
100
AcDbEntity
  8
0
  6
Caddy_Solid
370
    25
100
AcDbLine
 10
240
 20
163.25
 30
0
 11
240
 21
165
 31
0
  0
LINE
  5
27B
330
275
100
AcDbEntity
  8
0
  6
Caddy_Solid
370
    25
100
AcDbLine
 10
240
 20
160
 30
0
 11
240
 21
161.75
 31
0
  0
ATTDEF
  5
27E
330
275
100
AcDbEntity
  8
0
370
    25
100
AcDbText
 10
218.2435139862061
 20
161.3000030517578
 30
0
 40
2.449996948242188
  1
-X10
 41
0.9
  7
Caddy_Vectorfont1p
 72
     2
 11
235.0500030517578
 21
161.3000030517578
 31
0
100
AcDbAttributeDefinition
  3
Produkt (-)
  2
$TAG160010
 70
     0
  0
ATTDEF
  5
280
330
275
100
AcDbEntity
  8
0
370
    25
100
AcDbText
 10
239.0999908447266
 20
164.1999969482422
 30
0
 40
2.449996948242188
  1
19
 50
90
 41
0.9
  7
Caddy_Vectorfont1p
 11
0
 21
0
 31
0
100
AcDbAttributeDefinition
  3
Klemmenummer
  2
$TAG160400
 70
     0
  0
ATTDEF
  5
282
330
275
100
AcDbEntity
  8
0
370
    25
100
AcDbText
 10
242.5999908447266
 20
164.1999969482422
 30
0
 40
2.449996948242188
  1
123
 50
90
 41
0.9
  7
Caddy_Vectorfont1p
 11
0
 21
0
 31
0
100
AcDbAttributeDefinition
  3
Sorteringsindeks
  2
$TAG160410
 70
     0
  0
ATTDEF
  5
284
330
275
100
AcDbEntity
  8
0
370
    25
100
AcDbText
 10
217.7517995986939
 20
157.8000030517578
 30
0
 40
2.449996948242188
  1

 41
0.9
  7
Caddy_Vectorfont1p
 72
     2
 11
235.0500030517578
 21
157.8000030517578
 31
0
100
AcDbAttributeDefinition
  3
Beskrivelse 00
  2
$TAG160030
 70
     0
  0
ATTDEF
  5
286
330
275
100
AcDbEntity
  8
0
370
    25
100
AcDbText
 10
217.5070601623535
 20
152.8000030517578
 30
0
 40
2.449996948242188
  1
AB1RR235U2GR
 41
0.9
  7
Caddy_Vectorfont1p
 72
     2
 11
235.0500183105469
 21
152.8000030517578
 31
0
100
AcDbAttributeDefinition
  3
Type
  2
$TAG160040
 70
     0
  0
ATTDEF
  5
288
330
275
100
AcDbEntity
  8
0
370
    25
100
AcDbText
 10
217.5070449035645
 20
168.3000030517578
 30
0
 40
2.449996948242188
  1
=
 41
0.9
  7
Caddy_Vectorfont1p
 72
     2
 11
235.0500030517578
 21
168.3000030517578
 31
0
100
AcDbAttributeDefinition
  3
Funktion (=)
  2
$TAG140020
 70
     0
  0
ATTDEF
  5
28A
330
275
100
AcDbEntity
  8
0
370
    25
100
AcDbText
 10
217.5070296447754
 20
164.8000030517578
 30
0
 40
2.449996948242188
  1
+
 41
0.9
  7
Caddy_Vectorfont1p
 72
     2
 11
235.0499877929688
 21
164.8000030517578
 31
0
100
AcDbAttributeDefinition
  3
Placering (+)
  2
$TAG140050
 70
     0
  0
ENDBLK
  5
277
330
275
100
AcDbEntity
  8
0
100
AcDbBlockEnd
  0
BLOCK
  5
28C
330
28B
100
AcDbEntity
  8
0
100
AcDbBlockBegin
  2
Blk25
 70
     2
 10
0
 20
0
 30
0
  3
Blk25
  1

  0
CIRCLE
  5
28F
330
28B
100
AcDbEntity
  8
0
  6
Caddy_Solid
370
    25
100
AcDbCircle
 10
235
 20
162.5
 30
0
 40
0.75
  0
LINE
  5
290
330
28B
100
AcDbEntity
  8
0
  6
Caddy_Solid
370
    25
100
AcDbLine
 10
235
 20
163.25
 30
0
 11
235
 21
165
 31
0
  0
LINE
  5
291
330
28B
100
AcDbEntity
  8
0
  6
Caddy_Solid
370
    25
100
AcDbLine
 10
235
 20
160
 30
0
 11
235
 21
161.75
 31
0
  0
ATTDEF
  5
294
330
28B
100
AcDbEntity
  8
0
370
    25
100
AcDbText
 10
213.2435139862061
 20
161.3000030517578
 30
0
 40
2.449996948242188
  1
-X10
 41
0.9
  7
Caddy_Vectorfont1p
 72
     2
 11
230.0500030517578
 21
161.3000030517578
 31
0
100
AcDbAttributeDefinition
  3
Produkt (-)
  2
$TAG160010
 70
     0
  0
ATTDEF
  5
296
330
28B
100
AcDbEntity
  8
0
370
    25
100
AcDbText
 10
234.0999908447266
 20
164.1999969482422
 30
0
 40
2.449996948242188
  1
18
 50
90
 41
0.9
  7
Caddy_Vectorfont1p
 11
0
 21
0
 31
0
100
AcDbAttributeDefinition
  3
Klemmenummer
  2
$TAG160400
 70
     0
  0
ATTDEF
  5
298
330
28B
100
AcDbEntity
  8
0
370
    25
100
AcDbText
 10
237.5999908447266
 20
164.1999969482422
 30
0
 40
2.449996948242188
  1
124
 50
90
 41
0.9
  7
Caddy_Vectorfont1p
 11
0
 21
0
 31
0
100
AcDbAttributeDefinition
  3
Sorteringsindeks
  2
$TAG160410
 70
     0
  0
ATTDEF
  5
29A
330
28B
100
AcDbEntity
  8
0
370
    25
100
AcDbText
 10
212.7517995986939
 20
157.8000030517578
 30
0
 40
2.449996948242188
  1

 41
0.9
  7
Caddy_Vectorfont1p
 72
     2
 11
230.0500030517578
 21
157.8000030517578
 31
0
100
AcDbAttributeDefinition
  3
Beskrivelse 00
  2
$TAG160030
 70
     0
  0
ATTDEF
  5
29C
330
28B
100
AcDbEntity
  8
0
370
    25
100
AcDbText
 10
212.5070601623535
 20
152.8000030517578
 30
0
 40
2.449996948242188
  1
AB1RR235U2GR
 41
0.9
  7
Caddy_Vectorfont1p
 72
     2
 11
230.0500183105469
 21
152.8000030517578
 31
0
100
AcDbAttributeDefinition
  3
Type
  2
$TAG160040
 70
     0
  0
ATTDEF
  5
29E
330
28B
100
AcDbEntity
  8
0
370
    25
100
AcDbText
 10
212.5070449035645
 20
168.3000030517578
 30
0
 40
2.449996948242188
  1
=
 41
0.9
  7
Caddy_Vectorfont1p
 72
     2
 11
230.0500030517578
 21
168.3000030517578
 31
0
100
AcDbAttributeDefinition
  3
Funktion (=)
  2
$TAG140020
 70
     0
  0
ATTDEF
  5
2A0
330
28B
100
AcDbEntity
  8
0
370
    25
100
AcDbText
 10
212.5070296447754
 20
164.8000030517578
 30
0
 40
2.449996948242188
  1
+
 41
0.9
  7
Caddy_Vectorfont1p
 72
     2
 11
230.0499877929688
 21
164.8000030517578
 31
0
100
AcDbAttributeDefinition
  3
Placering (+)
  2
$TAG140050
 70
     0
  0
ENDBLK
  5
28D
330
28B
100
AcDbEntity
  8
0
100
AcDbBlockEnd
  0
BLOCK
  5
2A2
330
2A1
100
AcDbEntity
  8
0
100
AcDbBlockBegin
  2
Blk26
 70
     2
 10
0
 20
0
 30
0
  3
Blk26
  1

  0
CIRCLE
  5
2A5
330
2A1
100
AcDbEntity
  8
0
  6
Caddy_Solid
370
    25
100
AcDbCircle
 10
230
 20
162.5
 30
0
 40
0.75
  0
LINE
  5
2A6
330
2A1
100
AcDbEntity
  8
0
  6
Caddy_Solid
370
    25
100
AcDbLine
 10
230
 20
163.25
 30
0
 11
230
 21
165
 31
0
  0
LINE
  5
2A7
330
2A1
100
AcDbEntity
  8
0
  6
Caddy_Solid
370
    25
100
AcDbLine
 10
230
 20
160
 30
0
 11
230
 21
161.75
 31
0
  0
ATTDEF
  5
2AA
330
2A1
100
AcDbEntity
  8
0
370
    25
100
AcDbText
 10
208.2435139862061
 20
161.3000030517578
 30
0
 40
2.449996948242188
  1
X9
 41
0.9
  7
Caddy_Vectorfont1p
 72
     2
 11
225.0500030517578
 21
161.3000030517578
 31
0
100
AcDbAttributeDefinition
  3
Produkt (-)
  2
$TAG160010
 70
     0
  0
ATTDEF
  5
2AC
330
2A1
100
AcDbEntity
  8
0
370
    25
100
AcDbText
 10
229.0999908447266
 20
164.1999969482422
 30
0
 40
2.449996948242188
  1
17
 50
90
 41
0.9
  7
Caddy_Vectorfont1p
 11
0
 21
0
 31
0
100
AcDbAttributeDefinition
  3
Klemmenummer
  2
$TAG160400
 70
     0
  0
ATTDEF
  5
2AE
330
2A1
100
AcDbEntity
  8
0
370
    25
100
AcDbText
 10
232.5999908447266
 20
164.1999969482422
 30
0
 40
2.449996948242188
  1
125
 50
90
 41
0.9
  7
Caddy_Vectorfont1p
 11
0
 21
0
 31
0
100
AcDbAttributeDefinition
  3
Sorteringsindeks
  2
$TAG160410
 70
     0
  0
ATTDEF
  5
2B0
330
2A1
100
AcDbEntity
  8
0
370
    25
100
AcDbText
 10
207.7517995986939
 20
157.8000030517578
 30
0
 40
2.449996948242188
  1

 41
0.9
  7
Caddy_Vectorfont1p
 72
     2
 11
225.0500030517578
 21
157.8000030517578
 31
0
100
AcDbAttributeDefinition
  3
Beskrivelse 00
  2
$TAG160030
 70
     0
  0
ATTDEF
  5
2B2
330
2A1
100
AcDbEntity
  8
0
370
    25
100
AcDbText
 10
207.5070601623535
 20
152.8000030517578
 30
0
 40
2.449996948242188
  1
AB1RR235U2GR
 41
0.9
  7
Caddy_Vectorfont1p
 72
     2
 11
225.0500183105469
 21
152.8000030517578
 31
0
100
AcDbAttributeDefinition
  3
Type
  2
$TAG160040
 70
     0
  0
ATTDEF
  5
2B4
330
2A1
100
AcDbEntity
  8
0
370
    25
100
AcDbText
 10
207.5070449035645
 20
168.3000030517578
 30
0
 40
2.449996948242188
  1
=
 41
0.9
  7
Caddy_Vectorfont1p
 72
     2
 11
225.0500030517578
 21
168.3000030517578
 31
0
100
AcDbAttributeDefinition
  3
Funktion (=)
  2
$TAG140020
 70
     0
  0
ATTDEF
  5
2B6
330
2A1
100
AcDbEntity
  8
0
370
    25
100
AcDbText
 10
207.5070296447754
 20
164.8000030517578
 30
0
 40
2.449996948242188
  1
+
 41
0.9
  7
Caddy_Vectorfont1p
 72
     2
 11
225.0499877929688
 21
164.8000030517578
 31
0
100
AcDbAttributeDefinition
  3
Placering (+)
  2
$TAG140050
 70
     0
  0
ENDBLK
  5
2A3
330
2A1
100
AcDbEntity
  8
0
100
AcDbBlockEnd
  0
BLOCK
  5
2D2
330
2D1
100
AcDbEntity
  8
0
100
AcDbBlockBegin
  2
Blk27
 70
     2
 10
0
 20
0
 30
0
  3
Blk27
  1

  0
LINE
  5
2D5
330
2D1
100
AcDbEntity
  8
0
  6
Caddy_Solid
370
    25
100
AcDbLine
 10
267.5
 20
240
 30
0
 11
265.25
 21
241.25
 31
0
  0
LINE
  5
2D6
330
2D1
100
AcDbEntity
  8
0
  6
Caddy_Solid
370
    25
100
AcDbLine
 10
267.5
 20
240
 30
0
 11
265.25
 21
238.75
 31
0
  0
LINE
  5
2D7
330
2D1
100
AcDbEntity
  8
0
  6
Caddy_Solid
370
    25
100
AcDbLine
 10
265
 20
240
 30
0
 11
267.5
 21
240
 31
0
  0
ATTDEF
  5
2DA
330
2D1
100
AcDbEntity
  8
0
370
    25
100
AcDbText
 10
245.6935109344483
 20
240.9000091552734
 30
0
 40
2.449996948242188
  1
0910
 41
0.9
  7
Caddy_Vectorfont1p
 72
     2
 11
262.5
 21
240.9000091552734
 31
0
100
AcDbAttributeDefinition
  3
Produkt (-)
  2
$TAG160010
 70
     0
  0
ATTDEF
  5
2DC
330
2D1
100
AcDbEntity
  8
0
370
    25
100
AcDbText
 10
269.6500244140625
 20
238.8499908447266
 30
0
 40
2.449996948242188
  1
11.1
 41
0.9
  7
Caddy_Vectorfont1p
 11
0
 21
0
 31
0
100
AcDbAttributeDefinition
  3
Side/strømvej reference
  2
$TAG160500
 70
     0
  0
ENDBLK
  5
2D3
330
2D1
100
AcDbEntity
  8
0
100
AcDbBlockEnd
  0
BLOCK
  5
2DE
330
2DD
100
AcDbEntity
  8
0
100
AcDbBlockBegin
  2
Blk28
 70
     2
 10
0
 20
0
 30
0
  3
Blk28
  1

  0
LINE
  5
2E1
330
2DD
100
AcDbEntity
  8
0
  6
Caddy_Solid
370
    25
100
AcDbLine
 10
272.5
 20
235
 30
0
 11
270.25
 21
236.25
 31
0
  0
LINE
  5
2E2
330
2DD
100
AcDbEntity
  8
0
  6
Caddy_Solid
370
    25
100
AcDbLine
 10
272.5
 20
235
 30
0
 11
270.25
 21
233.75
 31
0
  0
LINE
  5
2E3
330
2DD
100
AcDbEntity
  8
0
  6
Caddy_Solid
370
    25
100
AcDbLine
 10
270
 20
235
 30
0
 11
272.5
 21
235
 31
0
  0
ATTDEF
  5
2E6
330
2DD
100
AcDbEntity
  8
0
370
    25
100
AcDbText
 10
250.6935109344483
 20
235.9000091552734
 30
0
 40
2.449996948242188
  1
0911
 41
0.9
  7
Caddy_Vectorfont1p
 72
     2
 11
267.5
 21
235.9000091552734
 31
0
100
AcDbAttributeDefinition
  3
Produkt (-)
  2
$TAG160010
 70
     0
  0
ATTDEF
  5
2E8
330
2DD
100
AcDbEntity
  8
0
370
    25
100
AcDbText
 10
274.6500244140625
 20
233.8499908447266
 30
0
 40
2.449996948242188
  1
11.2
 41
0.9
  7
Caddy_Vectorfont1p
 11
0
 21
0
 31
0
100
AcDbAttributeDefinition
  3
Side/strømvej reference
  2
$TAG160500
 70
     0
  0
ENDBLK
  5
2DF
330
2DD
100
AcDbEntity
  8
0
100
AcDbBlockEnd
  0
BLOCK
  5
317
330
316
100
AcDbEntity
  8
0
100
AcDbBlockBegin
  2
Blk29
 70
     2
 10
0
 20
0
 30
0
  3
Blk29
  1

  0
CIRCLE
  5
31A
330
316
100
AcDbEntity
  8
0
  6
Caddy_Solid
370
    25
100
AcDbCircle
 10
142
 20
131
 30
0
 40
1
  0
LINE
  5
31B
330
316
100
AcDbEntity
  8
0
  6
Caddy_Solid
370
    25
100
AcDbLine
 10
141
 20
128
 30
0
 11
143
 21
128
 31
0
  0
LINE
  5
31C
330
316
100
AcDbEntity
  8
0
  6
Caddy_Solid
370
    25
100
AcDbLine
 10
143
 20
128
 30
0
 11
142.4705810546875
 21
130.1176452636719
 31
0
  0
LINE
  5
31D
330
316
100
AcDbEntity
  8
0
  6
Caddy_Solid
370
    25
100
AcDbLine
 10
141
 20
128
 30
0
 11
141.5294189453125
 21
130.1176452636719
 31
0
  0
LINE
  5
31E
330
316
100
AcDbEntity
  8
0
  6
Caddy_Solid
370
    25
100
AcDbLine
 10
150
 20
132.5
 30
0
 11
150
 21
135
 31
0
  0
LINE
  5
31F
330
316
100
AcDbEntity
  8
0
  6
Caddy_Solid
370
    25
100
AcDbLine
 10
150
 20
127.5
 30
0
 11
150
 21
125
 31
0
  0
LINE
  5
320
330
316
100
AcDbEntity
  8
0
  6
Caddy_Solid
370
    25
100
AcDbLine
 10
142.5
 20
130
 30
0
 11
144.5
 21
130
 31
0
  0
LINE
  5
321
330
316
100
AcDbEntity
  8
0
  6
Caddy_Solid
370
    25
100
AcDbLine
 10
146.5
 20
130
 30
0
 11
148.5566253662109
 21
130
 31
0
  0
LINE
  5
322
330
316
100
AcDbEntity
  8
0
  6
Caddy_Solid
370
    25
100
AcDbLine
 10
143.5
 20
130
 30
0
 11
145.5
 21
130
 31
0
  0
LINE
  5
323
330
316
100
AcDbEntity
  8
0
  6
Caddy_Solid
370
    25
100
AcDbLine
 10
150
 20
132.5
 30
0
 11
152.5
 21
132.5
 31
0
  0
LINE
  5
324
330
316
100
AcDbEntity
  8
0
  6
Caddy_Solid
370
    25
100
AcDbLine
 10
150
 20
127.5
 30
0
 11
152.1838226318359
 21
133.5
 31
0
  0
LINE
  5
325
330
316
100
AcDbEntity
  8
0
  6
Caddy_Solid
370
    25
100
AcDbLine
 10
149.5
 20
130
 30
0
 11
150.9099273681641
 21
130
 31
0
  0
TEXT
  5
326
330
316
100
AcDbEntity
  8
0
370
    25
100
AcDbText
 10
133.2322615615845
 20
128.8000030517578
 30
0
 40
2.449996948242188
  1
9S4
 41
0.9
  7
Caddy_Vectorfont1p
 72
     2
 11
138.5
 21
128.8000030517578
 31
0
100
AcDbText
  0
TEXT
  5
327
330
316
100
AcDbEntity
  8
0
370
    25
100
AcDbText
 10
138.5
 20
121.8000030517578
 30
0
 40
2.450004577636719
  1

 41
0.9
  7
Caddy_Vectorfont1p
 72
     2
 11
138.5
 21
121.8000030517578
 31
0
100
AcDbText
  0
TEXT
  5
328
330
316
100
AcDbEntity
  8
0
370
    25
100
AcDbText
 10
138.5
 20
125.3000030517578
 30
0
 40
2.450004577636719
  1

 41
0.9
  7
Caddy_Vectorfont1p
 72
     2
 11
138.5
 21
125.3000030517578
 31
0
100
AcDbText
  0
ATTDEF
  5
32B
330
316
100
AcDbEntity
  8
0
370
    25
100
AcDbText
 10
149.0500030517578
 20
134.3999938964844
 30
0
 40
2.449996948242188
  1

 50
90
 41
0.9
  7
Caddy_Vectorfont1p
 11
0
 21
0
 31
0
100
AcDbAttributeDefinition
  3
Tilslutningstekst 00
  2
$TAG175000_00
 70
     0
  0
ATTDEF
  5
32D
330
316
100
AcDbEntity
  8
0
370
    25
100
AcDbText
 10
149.0500030517578
 20
102.9658327224732
 30
0
 40
2.449996948242188
  1

 50
90
 41
0.9
  7
Caddy_Vectorfont1p
 72
     2
 11
149.0500030517578
 21
125.9000091552734
 31
0
100
AcDbAttributeDefinition
  3
Tilslutningstekst 01
  2
$TAG175000_01
 70
     0
  0
LINE
  5
32E
330
316
100
AcDbEntity
  8
0
  6
Caddy_Solid
370
    25
100
AcDbLine
 10
160
 20
132.5
 30
0
 11
160
 21
135
 31
0
  0
LINE
  5
32F
330
316
100
AcDbEntity
  8
0
  6
Caddy_Solid
370
    25
100
AcDbLine
 10
160
 20
127.5
 30
0
 11
160
 21
125
 31
0
  0
LINE
  5
330
330
316
100
AcDbEntity
  8
0
  6
Caddy_Solid
370
    25
100
AcDbLine
 10
151.5
 20
130
 30
0
 11
153.5566253662109
 21
130
 31
0
  0
LINE
  5
331
330
316
100
AcDbEntity
  8
0
  6
Caddy_Solid
370
    25
100
AcDbLine
 10
160
 20
132.5
 30
0
 11
162.5
 21
132.5
 31
0
  0
LINE
  5
332
330
316
100
AcDbEntity
  8
0
  6
Caddy_Solid
370
    25
100
AcDbLine
 10
160
 20
127.5
 30
0
 11
162.1838226318359
 21
133.5
 31
0
  0
LINE
  5
333
330
316
100
AcDbEntity
  8
0
  6
Caddy_Solid
370
    25
100
AcDbLine
 10
159.5
 20
130
 30
0
 11
160.9099273681641
 21
130
 31
0
  0
ATTDEF
  5
335
330
316
100
AcDbEntity
  8
0
370
    25
100
AcDbText
 10
159.0500030517578
 20
134.3999938964844
 30
0
 40
2.449996948242188
  1

 50
90
 41
0.9
  7
Caddy_Vectorfont1p
 11
0
 21
0
 31
0
100
AcDbAttributeDefinition
  3
Tilslutningstekst 00
  2
$TAG175000_00
 70
     0
  0
ATTDEF
  5
337
330
316
100
AcDbEntity
  8
0
370
    25
100
AcDbText
 10
159.0500030517578
 20
102.9658327224732
 30
0
 40
2.449996948242188
  1

 50
90
 41
0.9
  7
Caddy_Vectorfont1p
 72
     2
 11
159.0500030517578
 21
125.9000091552734
 31
0
100
AcDbAttributeDefinition
  3
Tilslutningstekst 01
  2
$TAG175000_01
 70
     0
  0
LINE
  5
338
330
316
100
AcDbEntity
  8
0
  6
Caddy_Solid
370
    25
100
AcDbLine
 10
156.5
 20
130
 30
0
 11
158.5566253662109
 21
130
 31
0
  0
LINE
  5
339
330
316
100
AcDbEntity
  8
0
  6
Caddy_Solid
370
    25
100
AcDbLine
 10
154
 20
130
 30
0
 11
156.0566253662109
 21
130
 31
0
  0
TEXT
  5
33A
330
316
100
AcDbEntity
  8
0
370
    25
100
AcDbText
 10
149.3999938964844
 20
135.6000061035156
 30
0
 40
2.099990844726562
  1
11
 50
90
 41
0.9
  7
Caddy_Vectorfont1p
 11
0
 21
0
 31
0
100
AcDbText
  0
TEXT
  5
33B
330
316
100
AcDbEntity
  8
0
370
    25
100
AcDbText
 10
149.3999938964844
 20
125.6000061035156
 30
0
 40
2.099998474121094
  1
12
 50
90
 41
0.9
  7
Caddy_Vectorfont1p
 11
0
 21
0
 31
0
100
AcDbText
  0
LINE
  5
33C
330
316
100
AcDbEntity
  8
0
  6
Caddy_Solid
370
    25
100
AcDbLine
 10
156.5
 20
130
 30
0
 11
158.5566253662109
 21
130
 31
0
  0
TEXT
  5
33D
330
316
100
AcDbEntity
  8
0
370
    25
100
AcDbText
 10
159.3999938964844
 20
135.6000061035156
 30
0
 40
2.099990844726562
  1
11
 50
90
 41
0.9
  7
Caddy_Vectorfont1p
 11
0
 21
0
 31
0
100
AcDbText
  0
TEXT
  5
33E
330
316
100
AcDbEntity
  8
0
370
    25
100
AcDbText
 10
159.3999938964844
 20
125.6000061035156
 30
0
 40
2.099998474121094
  1
12
 50
90
 41
0.9
  7
Caddy_Vectorfont1p
 11
0
 21
0
 31
0
100
AcDbText
  0
ENDBLK
  5
318
330
316
100
AcDbEntity
  8
0
100
AcDbBlockEnd
  0
BLOCK
  5
342
330
341
100
AcDbEntity
  8
0
100
AcDbBlockBegin
  2
Blk30
 70
     2
 10
0
 20
0
 30
0
  3
Blk30
  1

  0
LINE
  5
345
330
341
100
AcDbEntity
  8
0
  6
Caddy_Solid
370
    25
100
AcDbLine
 10
60
 20
130
 30
0
 11
61
 21
130
 31
0
  0
ATTDEF
  5
348
330
341
100
AcDbEntity
  8
0
370
    25
100
AcDbText
 10
36.69352237854004
 20
128.8000030517578
 30
0
 40
2.449996948242188
  1
9B1
 41
0.9
  7
Caddy_Vectorfont1p
 72
     2
 11
53.5000114440918
 21
128.8000030517578
 31
0
100
AcDbAttributeDefinition
  3
Produkt (-)
  2
$TAG160010
 70
     0
  0
ATTDEF
  5
34A
330
341
100
AcDbEntity
  8
0
370
    25
100
AcDbText
 10
55.95699485168457
 20
121.8000030517578
 30
0
 40
2.450004577636719
  1

 41
0.9
  7
Caddy_Vectorfont1p
 72
     2
 11
73.50000762939453
 21
121.8000030517578
 31
0
100
AcDbAttributeDefinition
  3
Type
  2
$TAG160040
 70
     0
  0
ATTDEF
  5
34C
330
341
100
AcDbEntity
  8
0
370
    25
100
AcDbText
 10
56.20175030899048
 20
125.3000030517578
 30
0
 40
2.450004577636719
  1

 41
0.9
  7
Caddy_Vectorfont1p
 72
     2
 11
73.50000762939453
 21
125.3000030517578
 31
0
100
AcDbAttributeDefinition
  3
Beskrivelse 00
  2
$TAG160030
 70
     0
  0
CIRCLE
  5
34D
330
341
100
AcDbEntity
  8
0
  6
Caddy_Solid
370
    25
100
AcDbCircle
 10
58.29998779296875
 20
130
 30
0
 40
1.700000762939453
  0
INSERT
  5
351
330
341
100
AcDbEntity
  8
0
100
AcDbBlockReference
 66
     1
  2
Blk31
 10
0
 20
0
 30
1
  0
ATTRIB
  5
356
330
351
100
AcDbEntity
  8
0
370
    25
100
AcDbText
 10
69.05000305175781
 20
134.3999938964844
 30
0
 40
2.449996948242188
  1
11
 50
90
 41
0.9
  7
Caddy_Vectorfont1p
 11
0
 21
0
 31
0
100
AcDbAttribute
  2
$TAG175000_00
 70
     0
  0
SEQEND
  5
357
330
351
100
AcDbEntity
  8
0
  0
INSERT
  5
360
330
341
100
AcDbEntity
  8
0
100
AcDbBlockReference
 66
     1
  2
Blk32
 10
0
 20
0
 30
1
  0
ATTRIB
  5
365
330
360
100
AcDbEntity
  8
0
370
    25
100
AcDbText
 10
79.05000305175781
 20
134.3999938964844
 30
0
 40
2.449996948242188
  1
11
 50
90
 41
0.9
  7
Caddy_Vectorfont1p
 11
0
 21
0
 31
0
100
AcDbAttribute
  2
$TAG175000_00
 70
     0
  0
SEQEND
  5
366
330
360
100
AcDbEntity
  8
0
  0
LINE
  5
36C
330
341
100
AcDbEntity
  8
0
  6
Caddy_Dashdot
370
    25
100
AcDbLine
 10
62.5
 20
130
 30
0
 11
80
 21
130
 31
0
  0
ATTDEF
  5
36E
330
341
100
AcDbEntity
  8
0
370
    25
100
AcDbText
 10
76.90000915527344
 20
130.8999938964844
 30
0
 40
2.449996948242188
  1
1
 41
0.9
  7
Caddy_Vectorfont1p
 11
0
 21
0
 31
0
100
AcDbAttributeDefinition
  3
Tilslutningstekst 00
  2
$TAG175000_00
 70
     0
  0
ENDBLK
  5
343
330
341
100
AcDbEntity
  8
0
100
AcDbBlockEnd
  0
BLOCK
  5
34F
330
34E
100
AcDbEntity
  8
0
100
AcDbBlockBegin
  2
Blk31
 70
     2
 10
0
 20
0
 30
0
  3
Blk31
  1

  0
LINE
  5
352
330
34E
100
AcDbEntity
  8
0
  6
Caddy_Solid
370
    25
100
AcDbLine
 10
70
 20
132.5
 30
0
 11
70
 21
135
 31
0
  0
LINE
  5
353
330
34E
100
AcDbEntity
  8
0
  6
Caddy_Solid
370
    25
100
AcDbLine
 10
70
 20
127.5
 30
0
 11
70
 21
125
 31
0
  0
LINE
  5
354
330
34E
100
AcDbEntity
  8
0
  6
Caddy_Solid
370
    25
100
AcDbLine
 10
70
 20
132.5
 30
0
 11
72.5
 21
132.5
 31
0
  0
LINE
  5
355
330
34E
100
AcDbEntity
  8
0
  6
Caddy_Solid
370
    25
100
AcDbLine
 10
70
 20
127.5
 30
0
 11
72.18380737304688
 21
133.5
 31
0
  0
ATTDEF
  5
358
330
34E
100
AcDbEntity
  8
0
370
    25
100
AcDbText
 10
69.05000305175781
 20
134.3999938964844
 30
0
 40
2.449996948242188
  1
11
 50
90
 41
0.9
  7
Caddy_Vectorfont1p
 11
0
 21
0
 31
0
100
AcDbAttributeDefinition
  3
Tilslutningstekst 00
  2
$TAG175000_00
 70
     0
  0
ATTDEF
  5
35A
330
34E
100
AcDbEntity
  8
0
370
    25
100
AcDbText
 10
69.05000305175781
 20
102.9658250930786
 30
0
 40
2.449996948242188
  1
12
 50
90
 41
0.9
  7
Caddy_Vectorfont1p
 72
     2
 11
69.05000305175781
 21
125.9000015258789
 31
0
100
AcDbAttributeDefinition
  3
Tilslutningstekst 01
  2
$TAG175000_01
 70
     0
  0
ATTDEF
  5
35C
330
34E
100
AcDbEntity
  8
0
370
    25
100
AcDbText
 10
70.59999084472656
 20
99.43675091934205
 30
0
 40
2.450004577636719
  1

 50
90
 41
0.9
  7
Caddy_Vectorfont1p
 72
     2
 11
70.59999084472656
 21
116.7350082397461
 31
0
100
AcDbAttributeDefinition
  3
Side/strømvej reference
  2
$TAG160500
 70
     0
  0
ENDBLK
  5
350
330
34E
100
AcDbEntity
  8
0
100
AcDbBlockEnd
  0
BLOCK
  5
35E
330
35D
100
AcDbEntity
  8
0
100
AcDbBlockBegin
  2
Blk32
 70
     2
 10
0
 20
0
 30
0
  3
Blk32
  1

  0
LINE
  5
361
330
35D
100
AcDbEntity
  8
0
  6
Caddy_Solid
370
    25
100
AcDbLine
 10
80
 20
132.5
 30
0
 11
80
 21
135
 31
0
  0
LINE
  5
362
330
35D
100
AcDbEntity
  8
0
  6
Caddy_Solid
370
    25
100
AcDbLine
 10
80
 20
127.5
 30
0
 11
80
 21
125
 31
0
  0
LINE
  5
363
330
35D
100
AcDbEntity
  8
0
  6
Caddy_Solid
370
    25
100
AcDbLine
 10
80
 20
132.5
 30
0
 11
82.5
 21
132.5
 31
0
  0
LINE
  5
364
330
35D
100
AcDbEntity
  8
0
  6
Caddy_Solid
370
    25
100
AcDbLine
 10
80
 20
127.5
 30
0
 11
82.18380737304688
 21
133.5
 31
0
  0
ATTDEF
  5
367
330
35D
100
AcDbEntity
  8
0
370
    25
100
AcDbText
 10
79.05000305175781
 20
134.3999938964844
 30
0
 40
2.449996948242188
  1
11
 50
90
 41
0.9
  7
Caddy_Vectorfont1p
 11
0
 21
0
 31
0
100
AcDbAttributeDefinition
  3
Tilslutningstekst 00
  2
$TAG175000_00
 70
     0
  0
ATTDEF
  5
369
330
35D
100
AcDbEntity
  8
0
370
    25
100
AcDbText
 10
79.05000305175781
 20
102.9658250930786
 30
0
 40
2.449996948242188
  1
12
 50
90
 41
0.9
  7
Caddy_Vectorfont1p
 72
     2
 11
79.05000305175781
 21
125.9000015258789
 31
0
100
AcDbAttributeDefinition
  3
Tilslutningstekst 01
  2
$TAG175000_01
 70
     0
  0
ATTDEF
  5
36B
330
35D
100
AcDbEntity
  8
0
370
    25
100
AcDbText
 10
80.59999084472656
 20
99.43675091934205
 30
0
 40
2.450004577636719
  1

 50
90
 41
0.9
  7
Caddy_Vectorfont1p
 72
     2
 11
80.59999084472656
 21
116.7350082397461
 31
0
100
AcDbAttributeDefinition
  3
Side/strømvej reference
  2
$TAG160500
 70
     0
  0
ENDBLK
  5
35F
330
35D
100
AcDbEntity
  8
0
100
AcDbBlockEnd
  0
BLOCK
  5
378
330
377
100
AcDbEntity
  8
0
100
AcDbBlockBegin
  2
Blk33
 70
     2
 10
0
 20
0
 30
0
  3
Blk33
  1

  0
ATTDEF
  5
37D
330
377
100
AcDbEntity
  8
0
370
    25
100
AcDbText
 10
90.69999694824219
 20
145.6999969482422
 30
0
 40
2.449996948242188
  1
W0901
 41
0.9
  7
Caddy_Vectorfont1p
 11
0
 21
0
 31
0
100
AcDbAttributeDefinition
  3
Produkt (-)
  2
$TAG160010
 70
     0
  0
ATTDEF
  5
37F
330
377
100
AcDbEntity
  8
0
370
    25
100
AcDbText
 10
90.69999694824219
 20
140.6999969482422
 30
0
 40
2.449996948242188
  1

 41
0.9
  7
Caddy_Vectorfont1p
 11
0
 21
0
 31
0
100
AcDbAttributeDefinition
  3
Beskrivelse 00
  2
$TAG160030
 70
     0
  0
ATTDEF
  5
381
330
377
100
AcDbEntity
  8
0
370
    25
100
AcDbText
 10
90.69999694824219
 20
135.6999969482422
 30
0
 40
2.449996948242188
  1

 41
0.9
  7
Caddy_Vectorfont1p
 11
0
 21
0
 31
0
100
AcDbAttributeDefinition
  3
Kabeldimension
  2
$TAG160200
 70
     0
  0
ATTDEF
  5
383
330
377
100
AcDbEntity
  8
0
370
    25
100
AcDbText
 10
90.69999694824219
 20
130.6999969482422
 30
0
 40
2.449996948242188
  1

 41
0.9
  7
Caddy_Vectorfont1p
 11
0
 21
0
 31
0
100
AcDbAttributeDefinition
  3
Type
  2
$TAG160040
 70
     0
  0
ATTDEF
  5
385
330
377
100
AcDbEntity
  8
0
370
    25
100
AcDbText
 10
90.69999694824219
 20
125.6999969482422
 30
0
 40
2.449996948242188
  1

 41
0.9
  7
Caddy_Vectorfont1p
 11
0
 21
0
 31
0
100
AcDbAttributeDefinition
  3
Længde
  2
$TAG160101
 70
     0
  0
ATTDEF
  5
387
330
377
100
AcDbEntity
  8
0
370
    25
100
AcDbText
 10
70.69999694824219
 20
145.6999969482422
 30
0
 40
2.449996948242188
  1
1
 41
0.9
  7
Caddy_Vectorfont1p
 11
0
 21
0
 31
0
100
AcDbAttributeDefinition
  3
Kabelkorenummer
  2
$TAG160210
 70
     0
  0
ATTDEF
  5
389
330
377
100
AcDbEntity
  8
0
370
    25
100
AcDbText
 10
70.69999694824219
 20
140.6999969482422
 30
0
 40
2.449996948242188
  1

 41
0.9
  7
Caddy_Vectorfont1p
 11
0
 21
0
 31
0
100
AcDbAttributeDefinition
  3
Kabelkorefarve
  2
$TAG160220
 70
     0
  0
ATTDEF
  5
38B
330
377
100
AcDbEntity
  8
0
370
    25
100
AcDbText
 10
70.69999694824219
 20
135.6999969482422
 30
0
 40
2.449996948242188
  1

 41
0.9
  7
Caddy_Vectorfont1p
 11
0
 21
0
 31
0
100
AcDbAttributeDefinition
  3
Kabelkoretværsnit
  2
$TAG160230
 70
     0
  0
LINE
  5
38C
330
377
100
AcDbEntity
  8
0
  6
Caddy_Solid
370
    25
100
AcDbLine
 10
70
 20
145.5
 30
0
 11
70
 21
144.5
 31
0
  0
ENDBLK
  5
379
330
377
100
AcDbEntity
  8
0
100
AcDbBlockEnd
  0
BLOCK
  5
38E
330
38D
100
AcDbEntity
  8
0
100
AcDbBlockBegin
  2
Blk34
 70
     2
 10
0
 20
0
 30
0
  3
Blk34
  1

  0
ATTDEF
  5
393
330
38D
100
AcDbEntity
  8
0
370
    25
100
AcDbText
 10
90.69999694824219
 20
145.6999969482422
 30
0
 40
2.449996948242188
  1
W0901
 41
0.9
  7
Caddy_Vectorfont1p
 11
0
 21
0
 31
0
100
AcDbAttributeDefinition
  3
Produkt (-)
  2
$TAG160010
 70
     0
  0
ATTDEF
  5
395
330
38D
100
AcDbEntity
  8
0
370
    25
100
AcDbText
 10
90.69999694824219
 20
140.6999969482422
 30
0
 40
2.449996948242188
  1

 41
0.9
  7
Caddy_Vectorfont1p
 11
0
 21
0
 31
0
100
AcDbAttributeDefinition
  3
Beskrivelse 00
  2
$TAG160030
 70
     0
  0
ATTDEF
  5
397
330
38D
100
AcDbEntity
  8
0
370
    25
100
AcDbText
 10
90.69999694824219
 20
135.6999969482422
 30
0
 40
2.449996948242188
  1

 41
0.9
  7
Caddy_Vectorfont1p
 11
0
 21
0
 31
0
100
AcDbAttributeDefinition
  3
Kabeldimension
  2
$TAG160200
 70
     0
  0
ATTDEF
  5
399
330
38D
100
AcDbEntity
  8
0
370
    25
100
AcDbText
 10
90.69999694824219
 20
130.6999969482422
 30
0
 40
2.449996948242188
  1

 41
0.9
  7
Caddy_Vectorfont1p
 11
0
 21
0
 31
0
100
AcDbAttributeDefinition
  3
Type
  2
$TAG160040
 70
     0
  0
ATTDEF
  5
39B
330
38D
100
AcDbEntity
  8
0
370
    25
100
AcDbText
 10
90.69999694824219
 20
125.6999969482422
 30
0
 40
2.449996948242188
  1

 41
0.9
  7
Caddy_Vectorfont1p
 11
0
 21
0
 31
0
100
AcDbAttributeDefinition
  3
Længde
  2
$TAG160101
 70
     0
  0
ATTDEF
  5
39D
330
38D
100
AcDbEntity
  8
0
370
    25
100
AcDbText
 10
75.69999694824219
 20
145.6999969482422
 30
0
 40
2.449996948242188
  1
2
 41
0.9
  7
Caddy_Vectorfont1p
 11
0
 21
0
 31
0
100
AcDbAttributeDefinition
  3
Kabelkorenummer
  2
$TAG160210
 70
     0
  0
ATTDEF
  5
39F
330
38D
100
AcDbEntity
  8
0
370
    25
100
AcDbText
 10
75.69999694824219
 20
140.6999969482422
 30
0
 40
2.449996948242188
  1

 41
0.9
  7
Caddy_Vectorfont1p
 11
0
 21
0
 31
0
100
AcDbAttributeDefinition
  3
Kabelkorefarve
  2
$TAG160220
 70
     0
  0
ATTDEF
  5
3A1
330
38D
100
AcDbEntity
  8
0
370
    25
100
AcDbText
 10
75.69999694824219
 20
135.6999969482422
 30
0
 40
2.449996948242188
  1

 41
0.9
  7
Caddy_Vectorfont1p
 11
0
 21
0
 31
0
100
AcDbAttributeDefinition
  3
Kabelkoretværsnit
  2
$TAG160230
 70
     0
  0
LINE
  5
3A2
330
38D
100
AcDbEntity
  8
0
  6
Caddy_Solid
370
    25
100
AcDbLine
 10
75
 20
145.5
 30
0
 11
75
 21
144.5
 31
0
  0
ENDBLK
  5
38F
330
38D
100
AcDbEntity
  8
0
100
AcDbBlockEnd
  0
BLOCK
  5
3A4
330
3A3
100
AcDbEntity
  8
0
100
AcDbBlockBegin
  2
Blk35
 70
     2
 10
0
 20
0
 30
0
  3
Blk35
  1

  0
ATTDEF
  5
3A9
330
3A3
100
AcDbEntity
  8
0
370
    25
100
AcDbText
 10
90.69999694824219
 20
145.6999969482422
 30
0
 40
2.449996948242188
  1
W0901
 41
0.9
  7
Caddy_Vectorfont1p
 11
0
 21
0
 31
0
100
AcDbAttributeDefinition
  3
Produkt (-)
  2
$TAG160010
 70
     0
  0
ATTDEF
  5
3AB
330
3A3
100
AcDbEntity
  8
0
370
    25
100
AcDbText
 10
90.69999694824219
 20
140.6999969482422
 30
0
 40
2.449996948242188
  1

 41
0.9
  7
Caddy_Vectorfont1p
 11
0
 21
0
 31
0
100
AcDbAttributeDefinition
  3
Beskrivelse 00
  2
$TAG160030
 70
     0
  0
ATTDEF
  5
3AD
330
3A3
100
AcDbEntity
  8
0
370
    25
100
AcDbText
 10
90.69999694824219
 20
135.6999969482422
 30
0
 40
2.449996948242188
  1

 41
0.9
  7
Caddy_Vectorfont1p
 11
0
 21
0
 31
0
100
AcDbAttributeDefinition
  3
Kabeldimension
  2
$TAG160200
 70
     0
  0
ATTDEF
  5
3AF
330
3A3
100
AcDbEntity
  8
0
370
    25
100
AcDbText
 10
90.69999694824219
 20
130.6999969482422
 30
0
 40
2.449996948242188
  1

 41
0.9
  7
Caddy_Vectorfont1p
 11
0
 21
0
 31
0
100
AcDbAttributeDefinition
  3
Type
  2
$TAG160040
 70
     0
  0
ATTDEF
  5
3B1
330
3A3
100
AcDbEntity
  8
0
370
    25
100
AcDbText
 10
90.69999694824219
 20
125.6999969482422
 30
0
 40
2.449996948242188
  1

 41
0.9
  7
Caddy_Vectorfont1p
 11
0
 21
0
 31
0
100
AcDbAttributeDefinition
  3
Længde
  2
$TAG160101
 70
     0
  0
ATTDEF
  5
3B3
330
3A3
100
AcDbEntity
  8
0
370
    25
100
AcDbText
 10
80.69999694824219
 20
145.6999969482422
 30
0
 40
2.449996948242188
  1
3
 41
0.9
  7
Caddy_Vectorfont1p
 11
0
 21
0
 31
0
100
AcDbAttributeDefinition
  3
Kabelkorenummer
  2
$TAG160210
 70
     0
  0
ATTDEF
  5
3B5
330
3A3
100
AcDbEntity
  8
0
370
    25
100
AcDbText
 10
80.69999694824219
 20
140.6999969482422
 30
0
 40
2.449996948242188
  1

 41
0.9
  7
Caddy_Vectorfont1p
 11
0
 21
0
 31
0
100
AcDbAttributeDefinition
  3
Kabelkorefarve
  2
$TAG160220
 70
     0
  0
ATTDEF
  5
3B7
330
3A3
100
AcDbEntity
  8
0
370
    25
100
AcDbText
 10
80.69999694824219
 20
135.6999969482422
 30
0
 40
2.449996948242188
  1

 41
0.9
  7
Caddy_Vectorfont1p
 11
0
 21
0
 31
0
100
AcDbAttributeDefinition
  3
Kabelkoretværsnit
  2
$TAG160230
 70
     0
  0
LINE
  5
3B8
330
3A3
100
AcDbEntity
  8
0
  6
Caddy_Solid
370
    25
100
AcDbLine
 10
80
 20
145.5
 30
0
 11
80
 21
144.5
 31
0
  0
ENDBLK
  5
3A5
330
3A3
100
AcDbEntity
  8
0
100
AcDbBlockEnd
  0
BLOCK
  5
3BA
330
3B9
100
AcDbEntity
  8
0
100
AcDbBlockBegin
  2
Blk36
 70
     2
 10
0
 20
0
 30
0
  3
Blk36
  1

  0
ATTDEF
  5
3BF
330
3B9
100
AcDbEntity
  8
0
370
    25
100
AcDbText
 10
90.69999694824219
 20
145.6999969482422
 30
0
 40
2.449996948242188
  1
W0901
 41
0.9
  7
Caddy_Vectorfont1p
 11
0
 21
0
 31
0
100
AcDbAttributeDefinition
  3
Produkt (-)
  2
$TAG160010
 70
     0
  0
ATTDEF
  5
3C1
330
3B9
100
AcDbEntity
  8
0
370
    25
100
AcDbText
 10
90.69999694824219
 20
140.6999969482422
 30
0
 40
2.449996948242188
  1

 41
0.9
  7
Caddy_Vectorfont1p
 11
0
 21
0
 31
0
100
AcDbAttributeDefinition
  3
Beskrivelse 00
  2
$TAG160030
 70
     0
  0
ATTDEF
  5
3C3
330
3B9
100
AcDbEntity
  8
0
370
    25
100
AcDbText
 10
90.69999694824219
 20
135.6999969482422
 30
0
 40
2.449996948242188
  1

 41
0.9
  7
Caddy_Vectorfont1p
 11
0
 21
0
 31
0
100
AcDbAttributeDefinition
  3
Kabeldimension
  2
$TAG160200
 70
     0
  0
ATTDEF
  5
3C5
330
3B9
100
AcDbEntity
  8
0
370
    25
100
AcDbText
 10
90.69999694824219
 20
130.6999969482422
 30
0
 40
2.449996948242188
  1

 41
0.9
  7
Caddy_Vectorfont1p
 11
0
 21
0
 31
0
100
AcDbAttributeDefinition
  3
Type
  2
$TAG160040
 70
     0
  0
ATTDEF
  5
3C7
330
3B9
100
AcDbEntity
  8
0
370
    25
100
AcDbText
 10
90.69999694824219
 20
125.6999969482422
 30
0
 40
2.449996948242188
  1

 41
0.9
  7
Caddy_Vectorfont1p
 11
0
 21
0
 31
0
100
AcDbAttributeDefinition
  3
Længde
  2
$TAG160101
 70
     0
  0
ATTDEF
  5
3C9
330
3B9
100
AcDbEntity
  8
0
370
    25
100
AcDbText
 10
85.69999694824219
 20
145.6999969482422
 30
0
 40
2.449996948242188
  1
4
 41
0.9
  7
Caddy_Vectorfont1p
 11
0
 21
0
 31
0
100
AcDbAttributeDefinition
  3
Kabelkorenummer
  2
$TAG160210
 70
     0
  0
ATTDEF
  5
3CB
330
3B9
100
AcDbEntity
  8
0
370
    25
100
AcDbText
 10
85.69999694824219
 20
140.6999969482422
 30
0
 40
2.449996948242188
  1

 41
0.9
  7
Caddy_Vectorfont1p
 11
0
 21
0
 31
0
100
AcDbAttributeDefinition
  3
Kabelkorefarve
  2
$TAG160220
 70
     0
  0
ATTDEF
  5
3CD
330
3B9
100
AcDbEntity
  8
0
370
    25
100
AcDbText
 10
85.69999694824219
 20
135.6999969482422
 30
0
 40
2.449996948242188
  1

 41
0.9
  7
Caddy_Vectorfont1p
 11
0
 21
0
 31
0
100
AcDbAttributeDefinition
  3
Kabelkoretværsnit
  2
$TAG160230
 70
     0
  0
LINE
  5
3CE
330
3B9
100
AcDbEntity
  8
0
  6
Caddy_Solid
370
    25
100
AcDbLine
 10
85
 20
145.5
 30
0
 11
85
 21
144.5
 31
0
  0
ENDBLK
  5
3BB
330
3B9
100
AcDbEntity
  8
0
100
AcDbBlockEnd
  0
BLOCK
  5
3D9
330
3D8
100
AcDbEntity
  8
0
100
AcDbBlockBegin
  2
Blk37
 70
     2
 10
0
 20
0
 30
0
  3
Blk37
  1

  0
ATTDEF
  5
3DE
330
3D8
100
AcDbEntity
  8
0
370
    25
100
AcDbText
 10
130.6999969482422
 20
145.6999969482422
 30
0
 40
2.449996948242188
  1
W0902
 41
0.9
  7
Caddy_Vectorfont1p
 11
0
 21
0
 31
0
100
AcDbAttributeDefinition
  3
Produkt (-)
  2
$TAG160010
 70
     0
  0
ATTDEF
  5
3E0
330
3D8
100
AcDbEntity
  8
0
370
    25
100
AcDbText
 10
130.6999969482422
 20
140.6999969482422
 30
0
 40
2.449996948242188
  1

 41
0.9
  7
Caddy_Vectorfont1p
 11
0
 21
0
 31
0
100
AcDbAttributeDefinition
  3
Beskrivelse 00
  2
$TAG160030
 70
     0
  0
ATTDEF
  5
3E2
330
3D8
100
AcDbEntity
  8
0
370
    25
100
AcDbText
 10
130.6999969482422
 20
135.6999969482422
 30
0
 40
2.449996948242188
  1

 41
0.9
  7
Caddy_Vectorfont1p
 11
0
 21
0
 31
0
100
AcDbAttributeDefinition
  3
Kabeldimension
  2
$TAG160200
 70
     0
  0
ATTDEF
  5
3E4
330
3D8
100
AcDbEntity
  8
0
370
    25
100
AcDbText
 10
130.6999969482422
 20
130.6999969482422
 30
0
 40
2.449996948242188
  1

 41
0.9
  7
Caddy_Vectorfont1p
 11
0
 21
0
 31
0
100
AcDbAttributeDefinition
  3
Type
  2
$TAG160040
 70
     0
  0
ATTDEF
  5
3E6
330
3D8
100
AcDbEntity
  8
0
370
    25
100
AcDbText
 10
130.6999969482422
 20
125.6999969482422
 30
0
 40
2.449996948242188
  1

 41
0.9
  7
Caddy_Vectorfont1p
 11
0
 21
0
 31
0
100
AcDbAttributeDefinition
  3
Længde
  2
$TAG160101
 70
     0
  0
ATTDEF
  5
3E8
330
3D8
100
AcDbEntity
  8
0
370
    25
100
AcDbText
 10
110.6999969482422
 20
145.6999969482422
 30
0
 40
2.449996948242188
  1
1
 41
0.9
  7
Caddy_Vectorfont1p
 11
0
 21
0
 31
0
100
AcDbAttributeDefinition
  3
Kabelkorenummer
  2
$TAG160210
 70
     0
  0
ATTDEF
  5
3EA
330
3D8
100
AcDbEntity
  8
0
370
    25
100
AcDbText
 10
110.6999969482422
 20
140.6999969482422
 30
0
 40
2.449996948242188
  1

 41
0.9
  7
Caddy_Vectorfont1p
 11
0
 21
0
 31
0
100
AcDbAttributeDefinition
  3
Kabelkorefarve
  2
$TAG160220
 70
     0
  0
ATTDEF
  5
3EC
330
3D8
100
AcDbEntity
  8
0
370
    25
100
AcDbText
 10
110.6999969482422
 20
135.6999969482422
 30
0
 40
2.449996948242188
  1

 41
0.9
  7
Caddy_Vectorfont1p
 11
0
 21
0
 31
0
100
AcDbAttributeDefinition
  3
Kabelkoretværsnit
  2
$TAG160230
 70
     0
  0
LINE
  5
3ED
330
3D8
100
AcDbEntity
  8
0
  6
Caddy_Solid
370
    25
100
AcDbLine
 10
110
 20
145.5
 30
0
 11
110
 21
144.5
 31
0
  0
ENDBLK
  5
3DA
330
3D8
100
AcDbEntity
  8
0
100
AcDbBlockEnd
  0
BLOCK
  5
3EF
330
3EE
100
AcDbEntity
  8
0
100
AcDbBlockBegin
  2
Blk38
 70
     2
 10
0
 20
0
 30
0
  3
Blk38
  1

  0
ATTDEF
  5
3F4
330
3EE
100
AcDbEntity
  8
0
370
    25
100
AcDbText
 10
130.6999969482422
 20
145.6999969482422
 30
0
 40
2.449996948242188
  1
W0902
 41
0.9
  7
Caddy_Vectorfont1p
 11
0
 21
0
 31
0
100
AcDbAttributeDefinition
  3
Produkt (-)
  2
$TAG160010
 70
     0
  0
ATTDEF
  5
3F6
330
3EE
100
AcDbEntity
  8
0
370
    25
100
AcDbText
 10
130.6999969482422
 20
140.6999969482422
 30
0
 40
2.449996948242188
  1

 41
0.9
  7
Caddy_Vectorfont1p
 11
0
 21
0
 31
0
100
AcDbAttributeDefinition
  3
Beskrivelse 00
  2
$TAG160030
 70
     0
  0
ATTDEF
  5
3F8
330
3EE
100
AcDbEntity
  8
0
370
    25
100
AcDbText
 10
130.6999969482422
 20
135.6999969482422
 30
0
 40
2.449996948242188
  1

 41
0.9
  7
Caddy_Vectorfont1p
 11
0
 21
0
 31
0
100
AcDbAttributeDefinition
  3
Kabeldimension
  2
$TAG160200
 70
     0
  0
ATTDEF
  5
3FA
330
3EE
100
AcDbEntity
  8
0
370
    25
100
AcDbText
 10
130.6999969482422
 20
130.6999969482422
 30
0
 40
2.449996948242188
  1

 41
0.9
  7
Caddy_Vectorfont1p
 11
0
 21
0
 31
0
100
AcDbAttributeDefinition
  3
Type
  2
$TAG160040
 70
     0
  0
ATTDEF
  5
3FC
330
3EE
100
AcDbEntity
  8
0
370
    25
100
AcDbText
 10
130.6999969482422
 20
125.6999969482422
 30
0
 40
2.449996948242188
  1

 41
0.9
  7
Caddy_Vectorfont1p
 11
0
 21
0
 31
0
100
AcDbAttributeDefinition
  3
Længde
  2
$TAG160101
 70
     0
  0
ATTDEF
  5
3FE
330
3EE
100
AcDbEntity
  8
0
370
    25
100
AcDbText
 10
115.6999969482422
 20
145.6999969482422
 30
0
 40
2.449996948242188
  1
2
 41
0.9
  7
Caddy_Vectorfont1p
 11
0
 21
0
 31
0
100
AcDbAttributeDefinition
  3
Kabelkorenummer
  2
$TAG160210
 70
     0
  0
ATTDEF
  5
400
330
3EE
100
AcDbEntity
  8
0
370
    25
100
AcDbText
 10
115.6999969482422
 20
140.6999969482422
 30
0
 40
2.449996948242188
  1

 41
0.9
  7
Caddy_Vectorfont1p
 11
0
 21
0
 31
0
100
AcDbAttributeDefinition
  3
Kabelkorefarve
  2
$TAG160220
 70
     0
  0
ATTDEF
  5
402
330
3EE
100
AcDbEntity
  8
0
370
    25
100
AcDbText
 10
115.6999969482422
 20
135.6999969482422
 30
0
 40
2.449996948242188
  1

 41
0.9
  7
Caddy_Vectorfont1p
 11
0
 21
0
 31
0
100
AcDbAttributeDefinition
  3
Kabelkoretværsnit
  2
$TAG160230
 70
     0
  0
LINE
  5
403
330
3EE
100
AcDbEntity
  8
0
  6
Caddy_Solid
370
    25
100
AcDbLine
 10
115
 20
145.5
 30
0
 11
115
 21
144.5
 31
0
  0
ENDBLK
  5
3F0
330
3EE
100
AcDbEntity
  8
0
100
AcDbBlockEnd
  0
BLOCK
  5
405
330
404
100
AcDbEntity
  8
0
100
AcDbBlockBegin
  2
Blk39
 70
     2
 10
0
 20
0
 30
0
  3
Blk39
  1

  0
ATTDEF
  5
40A
330
404
100
AcDbEntity
  8
0
370
    25
100
AcDbText
 10
130.6999969482422
 20
145.6999969482422
 30
0
 40
2.449996948242188
  1
W0902
 41
0.9
  7
Caddy_Vectorfont1p
 11
0
 21
0
 31
0
100
AcDbAttributeDefinition
  3
Produkt (-)
  2
$TAG160010
 70
     0
  0
ATTDEF
  5
40C
330
404
100
AcDbEntity
  8
0
370
    25
100
AcDbText
 10
130.6999969482422
 20
140.6999969482422
 30
0
 40
2.449996948242188
  1

 41
0.9
  7
Caddy_Vectorfont1p
 11
0
 21
0
 31
0
100
AcDbAttributeDefinition
  3
Beskrivelse 00
  2
$TAG160030
 70
     0
  0
ATTDEF
  5
40E
330
404
100
AcDbEntity
  8
0
370
    25
100
AcDbText
 10
130.6999969482422
 20
135.6999969482422
 30
0
 40
2.449996948242188
  1

 41
0.9
  7
Caddy_Vectorfont1p
 11
0
 21
0
 31
0
100
AcDbAttributeDefinition
  3
Kabeldimension
  2
$TAG160200
 70
     0
  0
ATTDEF
  5
410
330
404
100
AcDbEntity
  8
0
370
    25
100
AcDbText
 10
130.6999969482422
 20
130.6999969482422
 30
0
 40
2.449996948242188
  1

 41
0.9
  7
Caddy_Vectorfont1p
 11
0
 21
0
 31
0
100
AcDbAttributeDefinition
  3
Type
  2
$TAG160040
 70
     0
  0
ATTDEF
  5
412
330
404
100
AcDbEntity
  8
0
370
    25
100
AcDbText
 10
130.6999969482422
 20
125.6999969482422
 30
0
 40
2.449996948242188
  1

 41
0.9
  7
Caddy_Vectorfont1p
 11
0
 21
0
 31
0
100
AcDbAttributeDefinition
  3
Længde
  2
$TAG160101
 70
     0
  0
ATTDEF
  5
414
330
404
100
AcDbEntity
  8
0
370
    25
100
AcDbText
 10
120.6999969482422
 20
145.6999969482422
 30
0
 40
2.449996948242188
  1
3
 41
0.9
  7
Caddy_Vectorfont1p
 11
0
 21
0
 31
0
100
AcDbAttributeDefinition
  3
Kabelkorenummer
  2
$TAG160210
 70
     0
  0
ATTDEF
  5
416
330
404
100
AcDbEntity
  8
0
370
    25
100
AcDbText
 10
120.6999969482422
 20
140.6999969482422
 30
0
 40
2.449996948242188
  1

 41
0.9
  7
Caddy_Vectorfont1p
 11
0
 21
0
 31
0
100
AcDbAttributeDefinition
  3
Kabelkorefarve
  2
$TAG160220
 70
     0
  0
ATTDEF
  5
418
330
404
100
AcDbEntity
  8
0
370
    25
100
AcDbText
 10
120.6999969482422
 20
135.6999969482422
 30
0
 40
2.449996948242188
  1

 41
0.9
  7
Caddy_Vectorfont1p
 11
0
 21
0
 31
0
100
AcDbAttributeDefinition
  3
Kabelkoretværsnit
  2
$TAG160230
 70
     0
  0
LINE
  5
419
330
404
100
AcDbEntity
  8
0
  6
Caddy_Solid
370
    25
100
AcDbLine
 10
120
 20
145.5
 30
0
 11
120
 21
144.5
 31
0
  0
ENDBLK
  5
406
330
404
100
AcDbEntity
  8
0
100
AcDbBlockEnd
  0
BLOCK
  5
41B
330
41A
100
AcDbEntity
  8
0
100
AcDbBlockBegin
  2
Blk40
 70
     2
 10
0
 20
0
 30
0
  3
Blk40
  1

  0
ATTDEF
  5
420
330
41A
100
AcDbEntity
  8
0
370
    25
100
AcDbText
 10
130.6999969482422
 20
145.6999969482422
 30
0
 40
2.449996948242188
  1
W0902
 41
0.9
  7
Caddy_Vectorfont1p
 11
0
 21
0
 31
0
100
AcDbAttributeDefinition
  3
Produkt (-)
  2
$TAG160010
 70
     0
  0
ATTDEF
  5
422
330
41A
100
AcDbEntity
  8
0
370
    25
100
AcDbText
 10
130.6999969482422
 20
140.6999969482422
 30
0
 40
2.449996948242188
  1

 41
0.9
  7
Caddy_Vectorfont1p
 11
0
 21
0
 31
0
100
AcDbAttributeDefinition
  3
Beskrivelse 00
  2
$TAG160030
 70
     0
  0
ATTDEF
  5
424
330
41A
100
AcDbEntity
  8
0
370
    25
100
AcDbText
 10
130.6999969482422
 20
135.6999969482422
 30
0
 40
2.449996948242188
  1

 41
0.9
  7
Caddy_Vectorfont1p
 11
0
 21
0
 31
0
100
AcDbAttributeDefinition
  3
Kabeldimension
  2
$TAG160200
 70
     0
  0
ATTDEF
  5
426
330
41A
100
AcDbEntity
  8
0
370
    25
100
AcDbText
 10
130.6999969482422
 20
130.6999969482422
 30
0
 40
2.449996948242188
  1

 41
0.9
  7
Caddy_Vectorfont1p
 11
0
 21
0
 31
0
100
AcDbAttributeDefinition
  3
Type
  2
$TAG160040
 70
     0
  0
ATTDEF
  5
428
330
41A
100
AcDbEntity
  8
0
370
    25
100
AcDbText
 10
130.6999969482422
 20
125.6999969482422
 30
0
 40
2.449996948242188
  1

 41
0.9
  7
Caddy_Vectorfont1p
 11
0
 21
0
 31
0
100
AcDbAttributeDefinition
  3
Længde
  2
$TAG160101
 70
     0
  0
ATTDEF
  5
42A
330
41A
100
AcDbEntity
  8
0
370
    25
100
AcDbText
 10
125.6999969482422
 20
145.6999969482422
 30
0
 40
2.449996948242188
  1
4
 41
0.9
  7
Caddy_Vectorfont1p
 11
0
 21
0
 31
0
100
AcDbAttributeDefinition
  3
Kabelkorenummer
  2
$TAG160210
 70
     0
  0
ATTDEF
  5
42C
330
41A
100
AcDbEntity
  8
0
370
    25
100
AcDbText
 10
125.6999969482422
 20
140.6999969482422
 30
0
 40
2.449996948242188
  1

 41
0.9
  7
Caddy_Vectorfont1p
 11
0
 21
0
 31
0
100
AcDbAttributeDefinition
  3
Kabelkorefarve
  2
$TAG160220
 70
     0
  0
ATTDEF
  5
42E
330
41A
100
AcDbEntity
  8
0
370
    25
100
AcDbText
 10
125.6999969482422
 20
135.6999969482422
 30
0
 40
2.449996948242188
  1

 41
0.9
  7
Caddy_Vectorfont1p
 11
0
 21
0
 31
0
100
AcDbAttributeDefinition
  3
Kabelkoretværsnit
  2
$TAG160230
 70
     0
  0
LINE
  5
42F
330
41A
100
AcDbEntity
  8
0
  6
Caddy_Solid
370
    25
100
AcDbLine
 10
125
 20
145.5
 30
0
 11
125
 21
144.5
 31
0
  0
ENDBLK
  5
41C
330
41A
100
AcDbEntity
  8
0
100
AcDbBlockEnd
  0
BLOCK
  5
43A
330
439
100
AcDbEntity
  8
0
100
AcDbBlockBegin
  2
Blk41
 70
     2
 10
0
 20
0
 30
0
  3
Blk41
  1

  0
ATTDEF
  5
43F
330
439
100
AcDbEntity
  8
0
370
    25
100
AcDbText
 10
170.6999969482422
 20
145.6999969482422
 30
0
 40
2.449996948242188
  1
W0903
 41
0.9
  7
Caddy_Vectorfont1p
 11
0
 21
0
 31
0
100
AcDbAttributeDefinition
  3
Produkt (-)
  2
$TAG160010
 70
     0
  0
ATTDEF
  5
441
330
439
100
AcDbEntity
  8
0
370
    25
100
AcDbText
 10
170.6999969482422
 20
140.6999969482422
 30
0
 40
2.449996948242188
  1

 41
0.9
  7
Caddy_Vectorfont1p
 11
0
 21
0
 31
0
100
AcDbAttributeDefinition
  3
Beskrivelse 00
  2
$TAG160030
 70
     0
  0
ATTDEF
  5
443
330
439
100
AcDbEntity
  8
0
370
    25
100
AcDbText
 10
170.6999969482422
 20
135.6999969482422
 30
0
 40
2.449996948242188
  1

 41
0.9
  7
Caddy_Vectorfont1p
 11
0
 21
0
 31
0
100
AcDbAttributeDefinition
  3
Kabeldimension
  2
$TAG160200
 70
     0
  0
ATTDEF
  5
445
330
439
100
AcDbEntity
  8
0
370
    25
100
AcDbText
 10
170.6999969482422
 20
130.6999969482422
 30
0
 40
2.449996948242188
  1

 41
0.9
  7
Caddy_Vectorfont1p
 11
0
 21
0
 31
0
100
AcDbAttributeDefinition
  3
Type
  2
$TAG160040
 70
     0
  0
ATTDEF
  5
447
330
439
100
AcDbEntity
  8
0
370
    25
100
AcDbText
 10
170.6999969482422
 20
125.6999969482422
 30
0
 40
2.449996948242188
  1

 41
0.9
  7
Caddy_Vectorfont1p
 11
0
 21
0
 31
0
100
AcDbAttributeDefinition
  3
Længde
  2
$TAG160101
 70
     0
  0
ATTDEF
  5
449
330
439
100
AcDbEntity
  8
0
370
    25
100
AcDbText
 10
150.6999969482422
 20
145.6999969482422
 30
0
 40
2.449996948242188
  1
1
 41
0.9
  7
Caddy_Vectorfont1p
 11
0
 21
0
 31
0
100
AcDbAttributeDefinition
  3
Kabelkorenummer
  2
$TAG160210
 70
     0
  0
ATTDEF
  5
44B
330
439
100
AcDbEntity
  8
0
370
    25
100
AcDbText
 10
150.6999969482422
 20
140.6999969482422
 30
0
 40
2.449996948242188
  1

 41
0.9
  7
Caddy_Vectorfont1p
 11
0
 21
0
 31
0
100
AcDbAttributeDefinition
  3
Kabelkorefarve
  2
$TAG160220
 70
     0
  0
ATTDEF
  5
44D
330
439
100
AcDbEntity
  8
0
370
    25
100
AcDbText
 10
150.6999969482422
 20
135.6999969482422
 30
0
 40
2.449996948242188
  1

 41
0.9
  7
Caddy_Vectorfont1p
 11
0
 21
0
 31
0
100
AcDbAttributeDefinition
  3
Kabelkoretværsnit
  2
$TAG160230
 70
     0
  0
LINE
  5
44E
330
439
100
AcDbEntity
  8
0
  6
Caddy_Solid
370
    25
100
AcDbLine
 10
150
 20
145.5
 30
0
 11
150
 21
144.5
 31
0
  0
ENDBLK
  5
43B
330
439
100
AcDbEntity
  8
0
100
AcDbBlockEnd
  0
BLOCK
  5
450
330
44F
100
AcDbEntity
  8
0
100
AcDbBlockBegin
  2
Blk42
 70
     2
 10
0
 20
0
 30
0
  3
Blk42
  1

  0
ATTDEF
  5
455
330
44F
100
AcDbEntity
  8
0
370
    25
100
AcDbText
 10
170.6999969482422
 20
145.6999969482422
 30
0
 40
2.449996948242188
  1
W0903
 41
0.9
  7
Caddy_Vectorfont1p
 11
0
 21
0
 31
0
100
AcDbAttributeDefinition
  3
Produkt (-)
  2
$TAG160010
 70
     0
  0
ATTDEF
  5
457
330
44F
100
AcDbEntity
  8
0
370
    25
100
AcDbText
 10
170.6999969482422
 20
140.6999969482422
 30
0
 40
2.449996948242188
  1

 41
0.9
  7
Caddy_Vectorfont1p
 11
0
 21
0
 31
0
100
AcDbAttributeDefinition
  3
Beskrivelse 00
  2
$TAG160030
 70
     0
  0
ATTDEF
  5
459
330
44F
100
AcDbEntity
  8
0
370
    25
100
AcDbText
 10
170.6999969482422
 20
135.6999969482422
 30
0
 40
2.449996948242188
  1

 41
0.9
  7
Caddy_Vectorfont1p
 11
0
 21
0
 31
0
100
AcDbAttributeDefinition
  3
Kabeldimension
  2
$TAG160200
 70
     0
  0
ATTDEF
  5
45B
330
44F
100
AcDbEntity
  8
0
370
    25
100
AcDbText
 10
170.6999969482422
 20
130.6999969482422
 30
0
 40
2.449996948242188
  1

 41
0.9
  7
Caddy_Vectorfont1p
 11
0
 21
0
 31
0
100
AcDbAttributeDefinition
  3
Type
  2
$TAG160040
 70
     0
  0
ATTDEF
  5
45D
330
44F
100
AcDbEntity
  8
0
370
    25
100
AcDbText
 10
170.6999969482422
 20
125.6999969482422
 30
0
 40
2.449996948242188
  1

 41
0.9
  7
Caddy_Vectorfont1p
 11
0
 21
0
 31
0
100
AcDbAttributeDefinition
  3
Længde
  2
$TAG160101
 70
     0
  0
ATTDEF
  5
45F
330
44F
100
AcDbEntity
  8
0
370
    25
100
AcDbText
 10
155.6999969482422
 20
145.6999969482422
 30
0
 40
2.449996948242188
  1
2
 41
0.9
  7
Caddy_Vectorfont1p
 11
0
 21
0
 31
0
100
AcDbAttributeDefinition
  3
Kabelkorenummer
  2
$TAG160210
 70
     0
  0
ATTDEF
  5
461
330
44F
100
AcDbEntity
  8
0
370
    25
100
AcDbText
 10
155.6999969482422
 20
140.6999969482422
 30
0
 40
2.449996948242188
  1

 41
0.9
  7
Caddy_Vectorfont1p
 11
0
 21
0
 31
0
100
AcDbAttributeDefinition
  3
Kabelkorefarve
  2
$TAG160220
 70
     0
  0
ATTDEF
  5
463
330
44F
100
AcDbEntity
  8
0
370
    25
100
AcDbText
 10
155.6999969482422
 20
135.6999969482422
 30
0
 40
2.449996948242188
  1

 41
0.9
  7
Caddy_Vectorfont1p
 11
0
 21
0
 31
0
100
AcDbAttributeDefinition
  3
Kabelkoretværsnit
  2
$TAG160230
 70
     0
  0
LINE
  5
464
330
44F
100
AcDbEntity
  8
0
  6
Caddy_Solid
370
    25
100
AcDbLine
 10
155
 20
145.5
 30
0
 11
155
 21
144.5
 31
0
  0
ENDBLK
  5
451
330
44F
100
AcDbEntity
  8
0
100
AcDbBlockEnd
  0
BLOCK
  5
466
330
465
100
AcDbEntity
  8
0
100
AcDbBlockBegin
  2
Blk43
 70
     2
 10
0
 20
0
 30
0
  3
Blk43
  1

  0
ATTDEF
  5
46B
330
465
100
AcDbEntity
  8
0
370
    25
100
AcDbText
 10
170.6999969482422
 20
145.6999969482422
 30
0
 40
2.449996948242188
  1
W0903
 41
0.9
  7
Caddy_Vectorfont1p
 11
0
 21
0
 31
0
100
AcDbAttributeDefinition
  3
Produkt (-)
  2
$TAG160010
 70
     0
  0
ATTDEF
  5
46D
330
465
100
AcDbEntity
  8
0
370
    25
100
AcDbText
 10
170.6999969482422
 20
140.6999969482422
 30
0
 40
2.449996948242188
  1

 41
0.9
  7
Caddy_Vectorfont1p
 11
0
 21
0
 31
0
100
AcDbAttributeDefinition
  3
Beskrivelse 00
  2
$TAG160030
 70
     0
  0
ATTDEF
  5
46F
330
465
100
AcDbEntity
  8
0
370
    25
100
AcDbText
 10
170.6999969482422
 20
135.6999969482422
 30
0
 40
2.449996948242188
  1

 41
0.9
  7
Caddy_Vectorfont1p
 11
0
 21
0
 31
0
100
AcDbAttributeDefinition
  3
Kabeldimension
  2
$TAG160200
 70
     0
  0
ATTDEF
  5
471
330
465
100
AcDbEntity
  8
0
370
    25
100
AcDbText
 10
170.6999969482422
 20
130.6999969482422
 30
0
 40
2.449996948242188
  1

 41
0.9
  7
Caddy_Vectorfont1p
 11
0
 21
0
 31
0
100
AcDbAttributeDefinition
  3
Type
  2
$TAG160040
 70
     0
  0
ATTDEF
  5
473
330
465
100
AcDbEntity
  8
0
370
    25
100
AcDbText
 10
170.6999969482422
 20
125.6999969482422
 30
0
 40
2.449996948242188
  1

 41
0.9
  7
Caddy_Vectorfont1p
 11
0
 21
0
 31
0
100
AcDbAttributeDefinition
  3
Længde
  2
$TAG160101
 70
     0
  0
ATTDEF
  5
475
330
465
100
AcDbEntity
  8
0
370
    25
100
AcDbText
 10
160.6999969482422
 20
145.6999969482422
 30
0
 40
2.449996948242188
  1
3
 41
0.9
  7
Caddy_Vectorfont1p
 11
0
 21
0
 31
0
100
AcDbAttributeDefinition
  3
Kabelkorenummer
  2
$TAG160210
 70
     0
  0
ATTDEF
  5
477
330
465
100
AcDbEntity
  8
0
370
    25
100
AcDbText
 10
160.6999969482422
 20
140.6999969482422
 30
0
 40
2.449996948242188
  1

 41
0.9
  7
Caddy_Vectorfont1p
 11
0
 21
0
 31
0
100
AcDbAttributeDefinition
  3
Kabelkorefarve
  2
$TAG160220
 70
     0
  0
ATTDEF
  5
479
330
465
100
AcDbEntity
  8
0
370
    25
100
AcDbText
 10
160.6999969482422
 20
135.6999969482422
 30
0
 40
2.449996948242188
  1

 41
0.9
  7
Caddy_Vectorfont1p
 11
0
 21
0
 31
0
100
AcDbAttributeDefinition
  3
Kabelkoretværsnit
  2
$TAG160230
 70
     0
  0
LINE
  5
47A
330
465
100
AcDbEntity
  8
0
  6
Caddy_Solid
370
    25
100
AcDbLine
 10
160
 20
145.5
 30
0
 11
160
 21
144.5
 31
0
  0
ENDBLK
  5
467
330
465
100
AcDbEntity
  8
0
100
AcDbBlockEnd
  0
BLOCK
  5
47C
330
47B
100
AcDbEntity
  8
0
100
AcDbBlockBegin
  2
Blk44
 70
     2
 10
0
 20
0
 30
0
  3
Blk44
  1

  0
ATTDEF
  5
481
330
47B
100
AcDbEntity
  8
0
370
    25
100
AcDbText
 10
170.6999969482422
 20
145.6999969482422
 30
0
 40
2.449996948242188
  1
W0903
 41
0.9
  7
Caddy_Vectorfont1p
 11
0
 21
0
 31
0
100
AcDbAttributeDefinition
  3
Produkt (-)
  2
$TAG160010
 70
     0
  0
ATTDEF
  5
483
330
47B
100
AcDbEntity
  8
0
370
    25
100
AcDbText
 10
170.6999969482422
 20
140.6999969482422
 30
0
 40
2.449996948242188
  1

 41
0.9
  7
Caddy_Vectorfont1p
 11
0
 21
0
 31
0
100
AcDbAttributeDefinition
  3
Beskrivelse 00
  2
$TAG160030
 70
     0
  0
ATTDEF
  5
485
330
47B
100
AcDbEntity
  8
0
370
    25
100
AcDbText
 10
170.6999969482422
 20
135.6999969482422
 30
0
 40
2.449996948242188
  1

 41
0.9
  7
Caddy_Vectorfont1p
 11
0
 21
0
 31
0
100
AcDbAttributeDefinition
  3
Kabeldimension
  2
$TAG160200
 70
     0
  0
ATTDEF
  5
487
330
47B
100
AcDbEntity
  8
0
370
    25
100
AcDbText
 10
170.6999969482422
 20
130.6999969482422
 30
0
 40
2.449996948242188
  1

 41
0.9
  7
Caddy_Vectorfont1p
 11
0
 21
0
 31
0
100
AcDbAttributeDefinition
  3
Type
  2
$TAG160040
 70
     0
  0
ATTDEF
  5
489
330
47B
100
AcDbEntity
  8
0
370
    25
100
AcDbText
 10
170.6999969482422
 20
125.6999969482422
 30
0
 40
2.449996948242188
  1

 41
0.9
  7
Caddy_Vectorfont1p
 11
0
 21
0
 31
0
100
AcDbAttributeDefinition
  3
Længde
  2
$TAG160101
 70
     0
  0
ATTDEF
  5
48B
330
47B
100
AcDbEntity
  8
0
370
    25
100
AcDbText
 10
165.6999969482422
 20
145.6999969482422
 30
0
 40
2.449996948242188
  1
4
 41
0.9
  7
Caddy_Vectorfont1p
 11
0
 21
0
 31
0
100
AcDbAttributeDefinition
  3
Kabelkorenummer
  2
$TAG160210
 70
     0
  0
ATTDEF
  5
48D
330
47B
100
AcDbEntity
  8
0
370
    25
100
AcDbText
 10
165.6999969482422
 20
140.6999969482422
 30
0
 40
2.449996948242188
  1

 41
0.9
  7
Caddy_Vectorfont1p
 11
0
 21
0
 31
0
100
AcDbAttributeDefinition
  3
Kabelkorefarve
  2
$TAG160220
 70
     0
  0
ATTDEF
  5
48F
330
47B
100
AcDbEntity
  8
0
370
    25
100
AcDbText
 10
165.6999969482422
 20
135.6999969482422
 30
0
 40
2.449996948242188
  1

 41
0.9
  7
Caddy_Vectorfont1p
 11
0
 21
0
 31
0
100
AcDbAttributeDefinition
  3
Kabelkoretværsnit
  2
$TAG160230
 70
     0
  0
LINE
  5
490
330
47B
100
AcDbEntity
  8
0
  6
Caddy_Solid
370
    25
100
AcDbLine
 10
165
 20
145.5
 30
0
 11
165
 21
144.5
 31
0
  0
ENDBLK
  5
47D
330
47B
100
AcDbEntity
  8
0
100
AcDbBlockEnd
  0
ENDSEC
  0
SECTION
  2
ENTITIES
  0
INSERT
  5
43
330
1F
100
AcDbEntity
  8
0
100
AcDbBlockReference
  2
Blk1
 10
0
 20
0
 30
1
  0
LINE
  5
AC
330
1F
100
AcDbEntity
  8
0
  6
Caddy_Solid
370
    25
100
AcDbLine
 10
405
 20
125
 30
0
 11
405
 21
100
 31
0
  0
INSERT
  5
B0
330
1F
100
AcDbEntity
  8
0
100
AcDbBlockReference
 66
     1
  2
Blk2
 10
0
 20
0
 30
1
  0
ATTRIB
  5
B4
330
B0
100
AcDbEntity
  8
0
370
    25
100
AcDbText
 10
73.53422853851319
 20
161.3000030517578
 30
0
 40
2.449996948242188
  1
-X10
 41
0.9
  7
Caddy_Vectorfont1p
 72
     2
 11
80.04999542236328
 21
161.3000030517578
 31
0
100
AcDbAttribute
  2
$TAG160010
 70
     0
  0
SEQEND
  5
B5
330
B0
100
AcDbEntity
  8
0
  0
INSERT
  5
C6
330
1F
100
AcDbEntity
  8
0
100
AcDbBlockReference
 66
     1
  2
Blk3
 10
0
 20
0
 30
1
  0
ATTRIB
  5
CA
330
C6
100
AcDbEntity
  8
0
370
    25
100
AcDbText
 10
68.53422853851319
 20
161.3000030517578
 30
0
 40
2.449996948242188
  1
-X10
 41
0.9
  7
Caddy_Vectorfont1p
 72
     2
 11
75.04999542236328
 21
161.3000030517578
 31
0
100
AcDbAttribute
  2
$TAG160010
 70
     0
  0
SEQEND
  5
CB
330
C6
100
AcDbEntity
  8
0
  0
INSERT
  5
DC
330
1F
100
AcDbEntity
  8
0
100
AcDbBlockReference
 66
     1
  2
Blk4
 10
0
 20
0
 30
1
  0
ATTRIB
  5
E0
330
DC
100
AcDbEntity
  8
0
370
    25
100
AcDbText
 10
63.53423616790771
 20
161.3000030517578
 30
0
 40
2.449996948242188
  1
-X10
 41
0.9
  7
Caddy_Vectorfont1p
 72
     2
 11
70.05000305175781
 21
161.3000030517578
 31
0
100
AcDbAttribute
  2
$TAG160010
 70
     0
  0
SEQEND
  5
E1
330
DC
100
AcDbEntity
  8
0
  0
INSERT
  5
F2
330
1F
100
AcDbEntity
  8
0
100
AcDbBlockReference
 66
     1
  2
Blk5
 10
0
 20
0
 30
1
  0
ATTRIB
  5
F6
330
F2
100
AcDbEntity
  8
0
370
    25
100
AcDbText
 10
61.47349750671387
 20
161.3000030517578
 30
0
 40
2.449996948242188
  1
X9
 41
0.9
  7
Caddy_Vectorfont1p
 72
     2
 11
65.05000305175781
 21
161.3000030517578
 31
0
100
AcDbAttribute
  2
$TAG160010
 70
     0
  0
SEQEND
  5
F7
330
F2
100
AcDbEntity
  8
0
  0
INSERT
  5
108
330
1F
100
AcDbEntity
  8
0
100
AcDbBlockReference
 66
     1
  2
Blk6
 10
0
 20
0
 30
1
  0
ATTRIB
  5
10C
330
108
100
AcDbEntity
  8
0
370
    25
100
AcDbText
 10
41.59999465942383
 20
235.9000091552734
 30
0
 40
2.449996948242188
  1
0811
 41
0.9
  7
Caddy_Vectorfont1p
 11
0
 21
0
 31
0
100
AcDbAttribute
  2
$TAG160010
 70
     0
  0
SEQEND
  5
10D
330
108
100
AcDbEntity
  8
0
  0
INSERT
  5
118
330
1F
100
AcDbEntity
  8
0
100
AcDbBlockReference
 66
     1
  2
Blk7
 10
0
 20
0
 30
1
  0
ATTRIB
  5
11C
330
118
100
AcDbEntity
  8
0
370
    25
100
AcDbText
 10
51.59999465942383
 20
240.9000091552734
 30
0
 40
2.449996948242188
  1
0810
 41
0.9
  7
Caddy_Vectorfont1p
 11
0
 21
0
 31
0
100
AcDbAttribute
  2
$TAG160010
 70
     0
  0
SEQEND
  5
11D
330
118
100
AcDbEntity
  8
0
  0
INSERT
  5
128
330
1F
100
AcDbEntity
  8
0
100
AcDbBlockReference
 66
     1
  2
Blk8
 10
0
 20
0
 30
1
  0
ATTRIB
  5
12A
330
128
100
AcDbEntity
  8
0
370
    25
100
AcDbText
 10
88.46821152648926
 20
128.8000030517578
 30
0
 40
2.449996948242188
  1
9B2
 41
0.9
  7
Caddy_Vectorfont1p
 72
     2
 11
93.50001525878906
 21
128.8000030517578
 31
0
100
AcDbAttribute
  2
$TAG160010
 70
     0
  0
SEQEND
  5
12B
330
128
100
AcDbEntity
  8
0
  0
INSERT
  5
156
330
1F
100
AcDbEntity
  8
0
100
AcDbBlockReference
 66
     1
  2
Blk11
 10
0
 20
0
 30
1
  0
ATTRIB
  5
15A
330
156
100
AcDbEntity
  8
0
370
    25
100
AcDbText
 10
113.5342285385132
 20
161.3000030517578
 30
0
 40
2.449996948242188
  1
-X10
 41
0.9
  7
Caddy_Vectorfont1p
 72
     2
 11
120.0499954223633
 21
161.3000030517578
 31
0
100
AcDbAttribute
  2
$TAG160010
 70
     0
  0
SEQEND
  5
15B
330
156
100
AcDbEntity
  8
0
  0
INSERT
  5
16C
330
1F
100
AcDbEntity
  8
0
100
AcDbBlockReference
 66
     1
  2
Blk12
 10
0
 20
0
 30
1
  0
ATTRIB
  5
170
330
16C
100
AcDbEntity
  8
0
370
    25
100
AcDbText
 10
108.5342285385132
 20
161.3000030517578
 30
0
 40
2.449996948242188
  1
-X10
 41
0.9
  7
Caddy_Vectorfont1p
 72
     2
 11
115.0499954223633
 21
161.3000030517578
 31
0
100
AcDbAttribute
  2
$TAG160010
 70
     0
  0
SEQEND
  5
171
330
16C
100
AcDbEntity
  8
0
  0
INSERT
  5
182
330
1F
100
AcDbEntity
  8
0
100
AcDbBlockReference
 66
     1
  2
Blk13
 10
0
 20
0
 30
1
  0
ATTRIB
  5
186
330
182
100
AcDbEntity
  8
0
370
    25
100
AcDbText
 10
103.5342285385132
 20
161.3000030517578
 30
0
 40
2.449996948242188
  1
-X10
 41
0.9
  7
Caddy_Vectorfont1p
 72
     2
 11
110.0499954223633
 21
161.3000030517578
 31
0
100
AcDbAttribute
  2
$TAG160010
 70
     0
  0
SEQEND
  5
187
330
182
100
AcDbEntity
  8
0
  0
INSERT
  5
198
330
1F
100
AcDbEntity
  8
0
100
AcDbBlockReference
 66
     1
  2
Blk14
 10
0
 20
0
 30
1
  0
ATTRIB
  5
19C
330
198
100
AcDbEntity
  8
0
370
    25
100
AcDbText
 10
101.4734898773193
 20
161.3000030517578
 30
0
 40
2.449996948242188
  1
X9
 41
0.9
  7
Caddy_Vectorfont1p
 72
     2
 11
105.0499954223633
 21
161.3000030517578
 31
0
100
AcDbAttribute
  2
$TAG160010
 70
     0
  0
SEQEND
  5
19D
330
198
100
AcDbEntity
  8
0
  0
LINE
  5
1AB
330
1F
100
AcDbEntity
  8
0
  6
Caddy_Solid
370
    25
100
AcDbLine
 10
110
 20
125
 30
0
 11
110
 21
115
 31
0
  0
LINE
  5
1AC
330
1F
100
AcDbEntity
  8
0
  6
Caddy_Solid
370
    25
100
AcDbLine
 10
110
 20
115
 30
0
 11
115
 21
115
 31
0
  0
LINE
  5
1AD
330
1F
100
AcDbEntity
  8
0
  6
Caddy_Solid
370
    25
100
AcDbLine
 10
120
 20
125
 30
0
 11
120
 21
115
 31
0
  0
LINE
  5
1AE
330
1F
100
AcDbEntity
  8
0
  6
Caddy_Solid
370
    25
100
AcDbLine
 10
120
 20
115
 30
0
 11
125
 21
115
 31
0
  0
INSERT
  5
1B2
330
1F
100
AcDbEntity
  8
0
100
AcDbBlockReference
 66
     1
  2
Blk15
 10
0
 20
0
 30
1
  0
ATTRIB
  5
1B6
330
1B2
100
AcDbEntity
  8
0
370
    25
100
AcDbText
 10
153.5342361679077
 20
161.3000030517578
 30
0
 40
2.449996948242188
  1
-X10
 41
0.9
  7
Caddy_Vectorfont1p
 72
     2
 11
160.0500030517578
 21
161.3000030517578
 31
0
100
AcDbAttribute
  2
$TAG160010
 70
     0
  0
SEQEND
  5
1B7
330
1B2
100
AcDbEntity
  8
0
  0
INSERT
  5
1C8
330
1F
100
AcDbEntity
  8
0
100
AcDbBlockReference
 66
     1
  2
Blk16
 10
0
 20
0
 30
1
  0
ATTRIB
  5
1CC
330
1C8
100
AcDbEntity
  8
0
370
    25
100
AcDbText
 10
148.5342361679077
 20
161.3000030517578
 30
0
 40
2.449996948242188
  1
-X10
 41
0.9
  7
Caddy_Vectorfont1p
 72
     2
 11
155.0500030517578
 21
161.3000030517578
 31
0
100
AcDbAttribute
  2
$TAG160010
 70
     0
  0
SEQEND
  5
1CD
330
1C8
100
AcDbEntity
  8
0
  0
INSERT
  5
1DE
330
1F
100
AcDbEntity
  8
0
100
AcDbBlockReference
 66
     1
  2
Blk17
 10
0
 20
0
 30
1
  0
ATTRIB
  5
1E2
330
1DE
100
AcDbEntity
  8
0
370
    25
100
AcDbText
 10
143.5342361679077
 20
161.3000030517578
 30
0
 40
2.449996948242188
  1
-X10
 41
0.9
  7
Caddy_Vectorfont1p
 72
     2
 11
150.0500030517578
 21
161.3000030517578
 31
0
100
AcDbAttribute
  2
$TAG160010
 70
     0
  0
SEQEND
  5
1E3
330
1DE
100
AcDbEntity
  8
0
  0
INSERT
  5
1F4
330
1F
100
AcDbEntity
  8
0
100
AcDbBlockReference
 66
     1
  2
Blk18
 10
0
 20
0
 30
1
  0
ATTRIB
  5
1F8
330
1F4
100
AcDbEntity
  8
0
370
    25
100
AcDbText
 10
141.4734975067139
 20
161.3000030517578
 30
0
 40
2.449996948242188
  1
X9
 41
0.9
  7
Caddy_Vectorfont1p
 72
     2
 11
145.0500030517578
 21
161.3000030517578
 31
0
100
AcDbAttribute
  2
$TAG160010
 70
     0
  0
SEQEND
  5
1F9
330
1F4
100
AcDbEntity
  8
0
  0
INSERT
  5
20A
330
1F
100
AcDbEntity
  8
0
100
AcDbBlockReference
 66
     1
  2
Blk19
 10
0
 20
0
 30
1
  0
ATTRIB
  5
20E
330
20A
100
AcDbEntity
  8
0
370
    25
100
AcDbText
 10
193.5342361679077
 20
161.3000030517578
 30
0
 40
2.449996948242188
  1
-X10
 41
0.9
  7
Caddy_Vectorfont1p
 72
     2
 11
200.0500030517578
 21
161.3000030517578
 31
0
100
AcDbAttribute
  2
$TAG160010
 70
     0
  0
SEQEND
  5
20F
330
20A
100
AcDbEntity
  8
0
  0
INSERT
  5
220
330
1F
100
AcDbEntity
  8
0
100
AcDbBlockReference
 66
     1
  2
Blk20
 10
0
 20
0
 30
1
  0
ATTRIB
  5
224
330
220
100
AcDbEntity
  8
0
370
    25
100
AcDbText
 10
188.5342361679077
 20
161.3000030517578
 30
0
 40
2.449996948242188
  1
-X10
 41
0.9
  7
Caddy_Vectorfont1p
 72
     2
 11
195.0500030517578
 21
161.3000030517578
 31
0
100
AcDbAttribute
  2
$TAG160010
 70
     0
  0
SEQEND
  5
225
330
220
100
AcDbEntity
  8
0
  0
INSERT
  5
236
330
1F
100
AcDbEntity
  8
0
100
AcDbBlockReference
 66
     1
  2
Blk21
 10
0
 20
0
 30
1
  0
ATTRIB
  5
23A
330
236
100
AcDbEntity
  8
0
370
    25
100
AcDbText
 10
183.5342361679077
 20
161.3000030517578
 30
0
 40
2.449996948242188
  1
-X10
 41
0.9
  7
Caddy_Vectorfont1p
 72
     2
 11
190.0500030517578
 21
161.3000030517578
 31
0
100
AcDbAttribute
  2
$TAG160010
 70
     0
  0
SEQEND
  5
23B
330
236
100
AcDbEntity
  8
0
  0
INSERT
  5
24C
330
1F
100
AcDbEntity
  8
0
100
AcDbBlockReference
 66
     1
  2
Blk22
 10
0
 20
0
 30
1
  0
ATTRIB
  5
250
330
24C
100
AcDbEntity
  8
0
370
    25
100
AcDbText
 10
181.4734975067139
 20
161.3000030517578
 30
0
 40
2.449996948242188
  1
X9
 41
0.9
  7
Caddy_Vectorfont1p
 72
     2
 11
185.0500030517578
 21
161.3000030517578
 31
0
100
AcDbAttribute
  2
$TAG160010
 70
     0
  0
SEQEND
  5
251
330
24C
100
AcDbEntity
  8
0
  0
INSERT
  5
262
330
1F
100
AcDbEntity
  8
0
100
AcDbBlockReference
 66
     1
  2
Blk23
 10
0
 20
0
 30
1
  0
ATTRIB
  5
266
330
262
100
AcDbEntity
  8
0
370
    25
100
AcDbText
 10
233.5342361679077
 20
161.3000030517578
 30
0
 40
2.449996948242188
  1
-X10
 41
0.9
  7
Caddy_Vectorfont1p
 72
     2
 11
240.0500030517578
 21
161.3000030517578
 31
0
100
AcDbAttribute
  2
$TAG160010
 70
     0
  0
SEQEND
  5
267
330
262
100
AcDbEntity
  8
0
  0
INSERT
  5
278
330
1F
100
AcDbEntity
  8
0
100
AcDbBlockReference
 66
     1
  2
Blk24
 10
0
 20
0
 30
1
  0
ATTRIB
  5
27C
330
278
100
AcDbEntity
  8
0
370
    25
100
AcDbText
 10
228.5342361679077
 20
161.3000030517578
 30
0
 40
2.449996948242188
  1
-X10
 41
0.9
  7
Caddy_Vectorfont1p
 72
     2
 11
235.0500030517578
 21
161.3000030517578
 31
0
100
AcDbAttribute
  2
$TAG160010
 70
     0
  0
SEQEND
  5
27D
330
278
100
AcDbEntity
  8
0
  0
INSERT
  5
28E
330
1F
100
AcDbEntity
  8
0
100
AcDbBlockReference
 66
     1
  2
Blk25
 10
0
 20
0
 30
1
  0
ATTRIB
  5
292
330
28E
100
AcDbEntity
  8
0
370
    25
100
AcDbText
 10
223.5342361679077
 20
161.3000030517578
 30
0
 40
2.449996948242188
  1
-X10
 41
0.9
  7
Caddy_Vectorfont1p
 72
     2
 11
230.0500030517578
 21
161.3000030517578
 31
0
100
AcDbAttribute
  2
$TAG160010
 70
     0
  0
SEQEND
  5
293
330
28E
100
AcDbEntity
  8
0
  0
INSERT
  5
2A4
330
1F
100
AcDbEntity
  8
0
100
AcDbBlockReference
 66
     1
  2
Blk26
 10
0
 20
0
 30
1
  0
ATTRIB
  5
2A8
330
2A4
100
AcDbEntity
  8
0
370
    25
100
AcDbText
 10
221.4734975067139
 20
161.3000030517578
 30
0
 40
2.449996948242188
  1
X9
 41
0.9
  7
Caddy_Vectorfont1p
 72
     2
 11
225.0500030517578
 21
161.3000030517578
 31
0
100
AcDbAttribute
  2
$TAG160010
 70
     0
  0
SEQEND
  5
2A9
330
2A4
100
AcDbEntity
  8
0
  0
LINE
  5
2B7
330
1F
100
AcDbEntity
  8
0
  6
Caddy_Dot
370
    25
100
AcDbLine
 10
190
 20
160
 30
0
 11
190
 21
155
 31
0
  0
LINE
  5
2B8
330
1F
100
AcDbEntity
  8
0
  6
Caddy_Dot
370
    25
100
AcDbLine
 10
190
 20
155
 30
0
 11
195
 21
155
 31
0
  0
LINE
  5
2B9
330
1F
100
AcDbEntity
  8
0
  6
Caddy_Dot
370
    25
100
AcDbLine
 10
195
 20
155
 30
0
 11
195
 21
160
 31
0
  0
LINE
  5
2BA
330
1F
100
AcDbEntity
  8
0
  6
Caddy_Dot
370
    25
100
AcDbLine
 10
200
 20
160
 30
0
 11
200
 21
155
 31
0
  0
LINE
  5
2BB
330
1F
100
AcDbEntity
  8
0
  6
Caddy_Dot
370
    25
100
AcDbLine
 10
200
 20
155
 30
0
 11
205
 21
155
 31
0
  0
LINE
  5
2BC
330
1F
100
AcDbEntity
  8
0
  6
Caddy_Dot
370
    25
100
AcDbLine
 10
205
 20
155
 30
0
 11
205
 21
160
 31
0
  0
LINE
  5
2BD
330
1F
100
AcDbEntity
  8
0
  6
Caddy_Dot
370
    25
100
AcDbLine
 10
230
 20
160
 30
0
 11
230
 21
155
 31
0
  0
LINE
  5
2BE
330
1F
100
AcDbEntity
  8
0
  6
Caddy_Dot
370
    25
100
AcDbLine
 10
230
 20
155
 30
0
 11
235
 21
155
 31
0
  0
LINE
  5
2BF
330
1F
100
AcDbEntity
  8
0
  6
Caddy_Dot
370
    25
100
AcDbLine
 10
240
 20
160
 30
0
 11
240
 21
155
 31
0
  0
LINE
  5
2C0
330
1F
100
AcDbEntity
  8
0
  6
Caddy_Dot
370
    25
100
AcDbLine
 10
240
 20
155
 30
0
 11
245
 21
155
 31
0
  0
LINE
  5
2C1
330
1F
100
AcDbEntity
  8
0
  6
Caddy_Solid
370
    25
100
AcDbLine
 10
75
 20
185
 30
0
 11
110
 21
185
 31
0
  0
TEXT
  5
2C2
330
1F
100
AcDbEntity
  8
0
370
    25
100
AcDbText
 10
89.9713375
 20
185.5
 30
0
 40
1.75
  1
0904
 41
0.9
  7
Caddy_Vectorfont1p
 72
     1
 11
92.5
 21
185.5
 31
0
100
AcDbText
  0
LINE
  5
2C3
330
1F
100
AcDbEntity
  8
0
  6
Caddy_Solid
370
    25
100
AcDbLine
 10
85
 20
180
 30
0
 11
120
 21
180
 31
0
  0
TEXT
  5
2C4
330
1F
100
AcDbEntity
  8
0
370
    25
100
AcDbText
 10
100.0500875
 20
180.5
 30
0
 40
1.75
  1
0905
 41
0.9
  7
Caddy_Vectorfont1p
 72
     1
 11
102.5
 21
180.5
 31
0
100
AcDbText
  0
LINE
  5
2C5
330
1F
100
AcDbEntity
  8
0
  6
Caddy_Solid
370
    25
100
AcDbLine
 10
115
 20
185
 30
0
 11
150
 21
185
 31
0
  0
TEXT
  5
2C6
330
1F
100
AcDbEntity
  8
0
370
    25
100
AcDbText
 10
130.0500875
 20
185.5
 30
0
 40
1.75
  1
0906
 41
0.9
  7
Caddy_Vectorfont1p
 72
     1
 11
132.5
 21
185.5
 31
0
100
AcDbText
  0
LINE
  5
2C7
330
1F
100
AcDbEntity
  8
0
  6
Caddy_Solid
370
    25
100
AcDbLine
 10
125
 20
180
 30
0
 11
160
 21
180
 31
0
  0
TEXT
  5
2C8
330
1F
100
AcDbEntity
  8
0
370
    25
100
AcDbText
 10
140.047725
 20
180.5
 30
0
 40
1.75
  1
0907
 41
0.9
  7
Caddy_Vectorfont1p
 72
     1
 11
142.5
 21
180.5
 31
0
100
AcDbText
  0
LINE
  5
2C9
330
1F
100
AcDbEntity
  8
0
  6
Caddy_Solid
370
    25
100
AcDbLine
 10
155
 20
185
 30
0
 11
190
 21
185
 31
0
  0
TEXT
  5
2CA
330
1F
100
AcDbEntity
  8
0
370
    25
100
AcDbText
 10
170.0500875
 20
185.5
 30
0
 40
1.75
  1
0908
 41
0.9
  7
Caddy_Vectorfont1p
 72
     1
 11
172.5
 21
185.5
 31
0
100
AcDbText
  0
LINE
  5
2CB
330
1F
100
AcDbEntity
  8
0
  6
Caddy_Solid
370
    25
100
AcDbLine
 10
165
 20
180
 30
0
 11
200
 21
180
 31
0
  0
TEXT
  5
2CC
330
1F
100
AcDbEntity
  8
0
370
    25
100
AcDbText
 10
180.0500875
 20
180.5
 30
0
 40
1.75
  1
0909
 41
0.9
  7
Caddy_Vectorfont1p
 72
     1
 11
182.5
 21
180.5
 31
0
100
AcDbText
  0
LINE
  5
2CD
330
1F
100
AcDbEntity
  8
0
  6
Caddy_Solid
370
    25
100
AcDbLine
 10
195
 20
185
 30
0
 11
230
 21
185
 31
0
  0
TEXT
  5
2CE
330
1F
100
AcDbEntity
  8
0
370
    25
100
AcDbText
 10
210.2257
 20
185.5
 30
0
 40
1.75
  1
0910
 41
0.9
  7
Caddy_Vectorfont1p
 72
     1
 11
212.5
 21
185.5
 31
0
100
AcDbText
  0
LINE
  5
2CF
330
1F
100
AcDbEntity
  8
0
  6
Caddy_Solid
370
    25
100
AcDbLine
 10
205
 20
180
 30
0
 11
240
 21
180
 31
0
  0
TEXT
  5
2D0
330
1F
100
AcDbEntity
  8
0
370
    25
100
AcDbText
 10
220.400525
 20
180.5
 30
0
 40
1.75
  1
0911
 41
0.9
  7
Caddy_Vectorfont1p
 72
     1
 11
222.5
 21
180.5
 31
0
100
AcDbText
  0
INSERT
  5
2D4
330
1F
100
AcDbEntity
  8
0
100
AcDbBlockReference
 66
     1
  2
Blk27
 10
0
 20
0
 30
1
  0
ATTRIB
  5
2D8
330
2D4
100
AcDbEntity
  8
0
370
    25
100
AcDbText
 10
256.4737425064087
 20
240.9000091552734
 30
0
 40
2.449996948242188
  1
0910
 41
0.9
  7
Caddy_Vectorfont1p
 72
     2
 11
262.5
 21
240.9000091552734
 31
0
100
AcDbAttribute
  2
$TAG160010
 70
     0
  0
SEQEND
  5
2D9
330
2D4
100
AcDbEntity
  8
0
  0
INSERT
  5
2E0
330
1F
100
AcDbEntity
  8
0
100
AcDbBlockReference
 66
     1
  2
Blk28
 10
0
 20
0
 30
1
  0
ATTRIB
  5
2E4
330
2E0
100
AcDbEntity
  8
0
370
    25
100
AcDbText
 10
261.9632518966675
 20
235.9000091552734
 30
0
 40
2.449996948242188
  1
0911
 41
0.9
  7
Caddy_Vectorfont1p
 72
     2
 11
267.5
 21
235.9000091552734
 31
0
100
AcDbAttribute
  2
$TAG160010
 70
     0
  0
SEQEND
  5
2E5
330
2E0
100
AcDbEntity
  8
0
  0
LINE
  5
2E9
330
1F
100
AcDbEntity
  8
0
  6
Caddy_Solid
370
    25
100
AcDbLine
 10
235
 20
155
 30
0
 11
235
 21
160
 31
0
  0
LINE
  5
2EA
330
1F
100
AcDbEntity
  8
0
  6
Caddy_Solid
370
    25
100
AcDbLine
 10
245
 20
155
 30
0
 11
245
 21
160
 31
0
  0
LINE
  5
2EB
330
1F
100
AcDbEntity
  8
0
  6
Caddy_Solid
370
    25
100
AcDbLine
 10
75
 20
165
 30
0
 11
75
 21
185
 31
0
  0
TEXT
  5
2EC
330
1F
100
AcDbEntity
  8
0
370
    25
100
AcDbText
 10
74.5
 20
172.4713375
 30
0
 40
1.75
  1
0904
 50
90
 41
0.9
  7
Caddy_Vectorfont1p
 72
     1
 11
74.5
 21
175
 31
0
100
AcDbText
  0
LINE
  5
2ED
330
1F
100
AcDbEntity
  8
0
  6
Caddy_Solid
370
    25
100
AcDbLine
 10
85
 20
165
 30
0
 11
85
 21
180
 31
0
  0
TEXT
  5
2EE
330
1F
100
AcDbEntity
  8
0
370
    25
100
AcDbText
 10
84.5
 20
170.0500875
 30
0
 40
1.75
  1
0905
 50
90
 41
0.9
  7
Caddy_Vectorfont1p
 72
     1
 11
84.5
 21
172.5
 31
0
100
AcDbText
  0
LINE
  5
2EF
330
1F
100
AcDbEntity
  8
0
  6
Caddy_Solid
370
    25
100
AcDbLine
 10
110
 20
165
 30
0
 11
110
 21
185
 31
0
  0
TEXT
  5
2F0
330
1F
100
AcDbEntity
  8
0
370
    25
100
AcDbText
 10
109.5
 20
172.4713375
 30
0
 40
1.75
  1
0904
 50
90
 41
0.9
  7
Caddy_Vectorfont1p
 72
     1
 11
109.5
 21
175
 31
0
100
AcDbText
  0
LINE
  5
2F1
330
1F
100
AcDbEntity
  8
0
  6
Caddy_Solid
370
    25
100
AcDbLine
 10
115
 20
165
 30
0
 11
115
 21
185
 31
0
  0
TEXT
  5
2F2
330
1F
100
AcDbEntity
  8
0
370
    25
100
AcDbText
 10
114.5
 20
172.5500875
 30
0
 40
1.75
  1
0906
 50
90
 41
0.9
  7
Caddy_Vectorfont1p
 72
     1
 11
114.5
 21
175
 31
0
100
AcDbText
  0
LINE
  5
2F3
330
1F
100
AcDbEntity
  8
0
  6
Caddy_Solid
370
    25
100
AcDbLine
 10
120
 20
165
 30
0
 11
120
 21
180
 31
0
  0
TEXT
  5
2F4
330
1F
100
AcDbEntity
  8
0
370
    25
100
AcDbText
 10
119.5
 20
170.0500875
 30
0
 40
1.75
  1
0905
 50
90
 41
0.9
  7
Caddy_Vectorfont1p
 72
     1
 11
119.5
 21
172.5
 31
0
100
AcDbText
  0
LINE
  5
2F5
330
1F
100
AcDbEntity
  8
0
  6
Caddy_Solid
370
    25
100
AcDbLine
 10
125
 20
165
 30
0
 11
125
 21
180
 31
0
  0
TEXT
  5
2F6
330
1F
100
AcDbEntity
  8
0
370
    25
100
AcDbText
 10
124.5
 20
170.047725
 30
0
 40
1.75
  1
0907
 50
90
 41
0.9
  7
Caddy_Vectorfont1p
 72
     1
 11
124.5
 21
172.5
 31
0
100
AcDbText
  0
LINE
  5
2F7
330
1F
100
AcDbEntity
  8
0
  6
Caddy_Solid
370
    25
100
AcDbLine
 10
150
 20
165
 30
0
 11
150
 21
185
 31
0
  0
TEXT
  5
2F8
330
1F
100
AcDbEntity
  8
0
370
    25
100
AcDbText
 10
149.5
 20
172.5500875
 30
0
 40
1.75
  1
0906
 50
90
 41
0.9
  7
Caddy_Vectorfont1p
 72
     1
 11
149.5
 21
175
 31
0
100
AcDbText
  0
LINE
  5
2F9
330
1F
100
AcDbEntity
  8
0
  6
Caddy_Solid
370
    25
100
AcDbLine
 10
155
 20
165
 30
0
 11
155
 21
185
 31
0
  0
TEXT
  5
2FA
330
1F
100
AcDbEntity
  8
0
370
    25
100
AcDbText
 10
154.5
 20
172.5500875
 30
0
 40
1.75
  1
0908
 50
90
 41
0.9
  7
Caddy_Vectorfont1p
 72
     1
 11
154.5
 21
175
 31
0
100
AcDbText
  0
LINE
  5
2FB
330
1F
100
AcDbEntity
  8
0
  6
Caddy_Solid
370
    25
100
AcDbLine
 10
160
 20
165
 30
0
 11
160
 21
180
 31
0
  0
TEXT
  5
2FC
330
1F
100
AcDbEntity
  8
0
370
    25
100
AcDbText
 10
159.5
 20
170.047725
 30
0
 40
1.75
  1
0907
 50
90
 41
0.9
  7
Caddy_Vectorfont1p
 72
     1
 11
159.5
 21
172.5
 31
0
100
AcDbText
  0
LINE
  5
2FD
330
1F
100
AcDbEntity
  8
0
  6
Caddy_Solid
370
    25
100
AcDbLine
 10
165
 20
165
 30
0
 11
165
 21
180
 31
0
  0
TEXT
  5
2FE
330
1F
100
AcDbEntity
  8
0
370
    25
100
AcDbText
 10
164.5
 20
170.0500875
 30
0
 40
1.75
  1
0909
 50
90
 41
0.9
  7
Caddy_Vectorfont1p
 72
     1
 11
164.5
 21
172.5
 31
0
100
AcDbText
  0
LINE
  5
2FF
330
1F
100
AcDbEntity
  8
0
  6
Caddy_Solid
370
    25
100
AcDbLine
 10
190
 20
165
 30
0
 11
190
 21
185
 31
0
  0
TEXT
  5
300
330
1F
100
AcDbEntity
  8
0
370
    25
100
AcDbText
 10
189.5
 20
172.5500875
 30
0
 40
1.75
  1
0908
 50
90
 41
0.9
  7
Caddy_Vectorfont1p
 72
     1
 11
189.5
 21
175
 31
0
100
AcDbText
  0
LINE
  5
301
330
1F
100
AcDbEntity
  8
0
  6
Caddy_Solid
370
    25
100
AcDbLine
 10
195
 20
165
 30
0
 11
195
 21
185
 31
0
  0
TEXT
  5
302
330
1F
100
AcDbEntity
  8
0
370
    25
100
AcDbText
 10
194.5
 20
172.7257
 30
0
 40
1.75
  1
0910
 50
90
 41
0.9
  7
Caddy_Vectorfont1p
 72
     1
 11
194.5
 21
175
 31
0
100
AcDbText
  0
LINE
  5
303
330
1F
100
AcDbEntity
  8
0
  6
Caddy_Solid
370
    25
100
AcDbLine
 10
200
 20
165
 30
0
 11
200
 21
180
 31
0
  0
TEXT
  5
304
330
1F
100
AcDbEntity
  8
0
370
    25
100
AcDbText
 10
199.5
 20
170.0500875
 30
0
 40
1.75
  1
0909
 50
90
 41
0.9
  7
Caddy_Vectorfont1p
 72
     1
 11
199.5
 21
172.5
 31
0
100
AcDbText
  0
LINE
  5
305
330
1F
100
AcDbEntity
  8
0
  6
Caddy_Solid
370
    25
100
AcDbLine
 10
205
 20
165
 30
0
 11
205
 21
180
 31
0
  0
TEXT
  5
306
330
1F
100
AcDbEntity
  8
0
370
    25
100
AcDbText
 10
204.5
 20
170.400525
 30
0
 40
1.75
  1
0911
 50
90
 41
0.9
  7
Caddy_Vectorfont1p
 72
     1
 11
204.5
 21
172.5
 31
0
100
AcDbText
  0
LINE
  5
307
330
1F
100
AcDbEntity
  8
0
  6
Caddy_Solid
370
    25
100
AcDbLine
 10
230
 20
165
 30
0
 11
230
 21
185
 31
0
  0
TEXT
  5
308
330
1F
100
AcDbEntity
  8
0
370
    25
100
AcDbText
 10
229.5
 20
172.7257
 30
0
 40
1.75
  1
0910
 50
90
 41
0.9
  7
Caddy_Vectorfont1p
 72
     1
 11
229.5
 21
175
 31
0
100
AcDbText
  0
LINE
  5
309
330
1F
100
AcDbEntity
  8
0
  6
Caddy_Solid
370
    25
100
AcDbLine
 10
240
 20
165
 30
0
 11
240
 21
180
 31
0
  0
TEXT
  5
30A
330
1F
100
AcDbEntity
  8
0
370
    25
100
AcDbText
 10
239.5
 20
170.400525
 30
0
 40
1.75
  1
0911
 50
90
 41
0.9
  7
Caddy_Vectorfont1p
 72
     1
 11
239.5
 21
172.5
 31
0
100
AcDbText
  0
LINE
  5
30B
330
1F
100
AcDbEntity
  8
0
  6
Caddy_Solid
370
    25
100
AcDbLine
 10
245
 20
235
 30
0
 11
270
 21
235
 31
0
  0
TEXT
  5
30C
330
1F
100
AcDbEntity
  8
0
370
    25
100
AcDbText
 10
257.5
 20
235.5
 30
0
 40
1.75
  1

 41
0.9
  7
Caddy_Vectorfont1p
 72
     1
 11
257.5
 21
235.5
 31
0
100
AcDbText
  0
LINE
  5
30D
330
1F
100
AcDbEntity
  8
0
  6
Caddy_Solid
370
    25
100
AcDbLine
 10
235
 20
240
 30
0
 11
265
 21
240
 31
0
  0
TEXT
  5
30E
330
1F
100
AcDbEntity
  8
0
370
    25
100
AcDbText
 10
250
 20
240.5
 30
0
 40
1.75
  1

 41
0.9
  7
Caddy_Vectorfont1p
 72
     1
 11
250
 21
240.5
 31
0
100
AcDbText
  0
LINE
  5
30F
330
1F
100
AcDbEntity
  8
0
  6
Caddy_Solid
370
    25
100
AcDbLine
 10
40
 20
235
 30
0
 11
70
 21
235
 31
0
  0
TEXT
  5
310
330
1F
100
AcDbEntity
  8
0
370
    25
100
AcDbText
 10
55
 20
235.5
 30
0
 40
1.75
  1

 41
0.9
  7
Caddy_Vectorfont1p
 72
     1
 11
55
 21
235.5
 31
0
100
AcDbText
  0
LINE
  5
311
330
1F
100
AcDbEntity
  8
0
  6
Caddy_Solid
370
    25
100
AcDbLine
 10
50
 20
240
 30
0
 11
80
 21
240
 31
0
  0
TEXT
  5
312
330
1F
100
AcDbEntity
  8
0
370
    25
100
AcDbText
 10
65
 20
240.5
 30
0
 40
1.75
  1

 41
0.9
  7
Caddy_Vectorfont1p
 72
     1
 11
65
 21
240.5
 31
0
100
AcDbText
  0
TEXT
  5
313
330
1F
100
AcDbEntity
  8
0
370
    25
100
AcDbText
 10
128.5
 20
110.3000030517578
 30
0
 40
2.450004577636719
  1

 41
0.9
  7
Caddy_Vectorfont1p
 72
     2
 11
128.5
 21
110.3000030517578
 31
0
100
AcDbText
  0
LINE
  5
314
330
1F
100
AcDbEntity
  8
0
  6
Caddy_Solid
370
    25
100
AcDbLine
 10
150
 20
115
 30
0
 11
155
 21
115
 31
0
  0
LINE
  5
315
330
1F
100
AcDbEntity
  8
0
  6
Caddy_Solid
370
    25
100
AcDbLine
 10
160
 20
115
 30
0
 11
165
 21
115
 31
0
  0
INSERT
  5
319
330
1F
100
AcDbEntity
  8
0
100
AcDbBlockReference
 66
     1
  2
Blk29
 10
0
 20
0
 30
1
  0
ATTRIB
  5
329
330
319
100
AcDbEntity
  8
0
370
    25
100
AcDbText
 10
149.0500030517578
 20
134.3999938964844
 30
0
 40
2.449996948242188
  1

 50
90
 41
0.9
  7
Caddy_Vectorfont1p
 11
0
 21
0
 31
0
100
AcDbAttribute
  2
$TAG175000_00
 70
     0
  0
SEQEND
  5
32A
330
319
100
AcDbEntity
  8
0
  0
LINE
  5
33F
330
1F
100
AcDbEntity
  8
0
  6
Caddy_Solid
370
    25
100
AcDbLine
 10
150
 20
115
 30
0
 11
150
 21
125
 31
0
  0
LINE
  5
340
330
1F
100
AcDbEntity
  8
0
  6
Caddy_Solid
370
    25
100
AcDbLine
 10
160
 20
115
 30
0
 11
160
 21
125
 31
0
  0
INSERT
  5
344
330
1F
100
AcDbEntity
  8
0
100
AcDbBlockReference
 66
     1
  2
Blk30
 10
0
 20
0
 30
1
  0
ATTRIB
  5
346
330
344
100
AcDbEntity
  8
0
370
    25
100
AcDbText
 10
48.94228212127685
 20
128.8000030517578
 30
0
 40
2.449996948242188
  1
9B1
 41
0.9
  7
Caddy_Vectorfont1p
 72
     2
 11
53.5000114440918
 21
128.8000030517578
 31
0
100
AcDbAttribute
  2
$TAG160010
 70
     0
  0
SEQEND
  5
347
330
344
100
AcDbEntity
  8
0
  0
LINE
  5
36F
330
1F
100
AcDbEntity
  8
0
  6
Caddy_Solid
370
    25
100
AcDbLine
 10
70
 20
125
 30
0
 11
70
 21
115
 31
0
  0
LINE
  5
370
330
1F
100
AcDbEntity
  8
0
  6
Caddy_Solid
370
    25
100
AcDbLine
 10
70
 20
115
 30
0
 11
75
 21
115
 31
0
  0
LINE
  5
371
330
1F
100
AcDbEntity
  8
0
  6
Caddy_Solid
370
    25
100
AcDbLine
 10
80
 20
125
 30
0
 11
80
 21
115
 31
0
  0
LINE
  5
372
330
1F
100
AcDbEntity
  8
0
  6
Caddy_Solid
370
    25
100
AcDbLine
 10
80
 20
115
 30
0
 11
85
 21
115
 31
0
  0
TEXT
  5
373
330
1F
100
AcDbEntity
  8
0
370
    25
100
AcDbText
 10
88.49999237060547
 20
110.3000030517578
 30
0
 40
2.450004577636719
  1

 41
0.9
  7
Caddy_Vectorfont1p
 72
     2
 11
88.49999237060547
 21
110.3000030517578
 31
0
100
AcDbText
  0
TEXT
  5
374
330
1F
100
AcDbEntity
  8
0
370
    25
100
AcDbText
 10
106.0999984741211
 20
107.2999954223633
 30
0
 40
2.099998474121094
  1
Lågekontakt 2
 41
0.9
  7
Caddy_Vectorfont1p
 11
0
 21
0
 31
0
100
AcDbText
  0
TEXT
  5
375
330
1F
100
AcDbEntity
  8
0
370
    25
100
AcDbText
 10
141.1000061035156
 20
107.7999954223633
 30
0
 40
2.099998474121094
  1
Lågekontakt ved bufferplads
 41
0.9
  7
Caddy_Vectorfont1p
 11
0
 21
0
 31
0
100
AcDbText
  0
TEXT
  5
376
330
1F
100
AcDbEntity
  8
0
370
    25
100
AcDbText
 10
66.09999847412109
 20
107.3000106811523
 30
0
 40
2.099998474121094
  1
Lågekontakt 1
 41
0.9
  7
Caddy_Vectorfont1p
 11
0
 21
0
 31
0
100
AcDbText
  0
INSERT
  5
37A
330
1F
100
AcDbEntity
  8
0
100
AcDbBlockReference
 66
     1
  2
Blk33
 10
0
 20
0
 30
1
  0
ATTRIB
  5
37B
330
37A
100
AcDbEntity
  8
0
370
    25
100
AcDbText
 10
90.69999694824219
 20
145.6999969482422
 30
0
 40
2.449996948242188
  1
W0901
 41
0.9
  7
Caddy_Vectorfont1p
 11
0
 21
0
 31
0
100
AcDbAttribute
  2
$TAG160010
 70
     0
  0
SEQEND
  5
37C
330
37A
100
AcDbEntity
  8
0
  0
INSERT
  5
390
330
1F
100
AcDbEntity
  8
0
100
AcDbBlockReference
 66
     1
  2
Blk34
 10
0
 20
0
 30
1
  0
ATTRIB
  5
391
330
390
100
AcDbEntity
  8
0
370
    25
100
AcDbText
 10
90.69999694824219
 20
145.6999969482422
 30
0
 40
2.449996948242188
  1
W0901
 41
0.9
  7
Caddy_Vectorfont1p
 11
0
 21
0
 31
0
100
AcDbAttribute
  2
$TAG160010
 70
     0
  0
SEQEND
  5
392
330
390
100
AcDbEntity
  8
0
  0
INSERT
  5
3A6
330
1F
100
AcDbEntity
  8
0
100
AcDbBlockReference
 66
     1
  2
Blk35
 10
0
 20
0
 30
1
  0
ATTRIB
  5
3A7
330
3A6
100
AcDbEntity
  8
0
370
    25
100
AcDbText
 10
90.69999694824219
 20
145.6999969482422
 30
0
 40
2.449996948242188
  1
W0901
 41
0.9
  7
Caddy_Vectorfont1p
 11
0
 21
0
 31
0
100
AcDbAttribute
  2
$TAG160010
 70
     0
  0
SEQEND
  5
3A8
330
3A6
100
AcDbEntity
  8
0
  0
INSERT
  5
3BC
330
1F
100
AcDbEntity
  8
0
100
AcDbBlockReference
 66
     1
  2
Blk36
 10
0
 20
0
 30
1
  0
ATTRIB
  5
3BD
330
3BC
100
AcDbEntity
  8
0
370
    25
100
AcDbText
 10
90.69999694824219
 20
145.6999969482422
 30
0
 40
2.449996948242188
  1
W0901
 41
0.9
  7
Caddy_Vectorfont1p
 11
0
 21
0
 31
0
100
AcDbAttribute
  2
$TAG160010
 70
     0
  0
SEQEND
  5
3BE
330
3BC
100
AcDbEntity
  8
0
  0
LINE
  5
3CF
330
1F
100
AcDbEntity
  8
0
  6
Caddy_Solid
370
    25
100
AcDbLine
 10
65
 20
145
 30
0
 11
90
 21
145
 31
0
  0
LINE
  5
3D0
330
1F
100
AcDbEntity
  8
0
  6
Caddy_Solid
370
    25
100
AcDbLine
 10
80
 20
135
 30
0
 11
80
 21
144.5
 31
0
  0
LINE
  5
3D1
330
1F
100
AcDbEntity
  8
0
  6
Caddy_Solid
370
    25
100
AcDbLine
 10
80
 20
145.5
 30
0
 11
80
 21
160
 31
0
  0
LINE
  5
3D2
330
1F
100
AcDbEntity
  8
0
  6
Caddy_Solid
370
    25
100
AcDbLine
 10
70
 20
135
 30
0
 11
70
 21
144.5
 31
0
  0
LINE
  5
3D3
330
1F
100
AcDbEntity
  8
0
  6
Caddy_Solid
370
    25
100
AcDbLine
 10
70
 20
145.5
 30
0
 11
70
 21
160
 31
0
  0
LINE
  5
3D4
330
1F
100
AcDbEntity
  8
0
  6
Caddy_Solid
370
    25
100
AcDbLine
 10
75
 20
115
 30
0
 11
75
 21
144.5
 31
0
  0
LINE
  5
3D5
330
1F
100
AcDbEntity
  8
0
  6
Caddy_Solid
370
    25
100
AcDbLine
 10
75
 20
145.5
 30
0
 11
75
 21
160
 31
0
  0
LINE
  5
3D6
330
1F
100
AcDbEntity
  8
0
  6
Caddy_Solid
370
    25
100
AcDbLine
 10
85
 20
115
 30
0
 11
85
 21
144.5
 31
0
  0
LINE
  5
3D7
330
1F
100
AcDbEntity
  8
0
  6
Caddy_Solid
370
    25
100
AcDbLine
 10
85
 20
145.5
 30
0
 11
85
 21
160
 31
0
  0
INSERT
  5
3DB
330
1F
100
AcDbEntity
  8
0
100
AcDbBlockReference
 66
     1
  2
Blk37
 10
0
 20
0
 30
1
  0
ATTRIB
  5
3DC
330
3DB
100
AcDbEntity
  8
0
370
    25
100
AcDbText
 10
130.6999969482422
 20
145.6999969482422
 30
0
 40
2.449996948242188
  1
W0902
 41
0.9
  7
Caddy_Vectorfont1p
 11
0
 21
0
 31
0
100
AcDbAttribute
  2
$TAG160010
 70
     0
  0
SEQEND
  5
3DD
330
3DB
100
AcDbEntity
  8
0
  0
INSERT
  5
3F1
330
1F
100
AcDbEntity
  8
0
100
AcDbBlockReference
 66
     1
  2
Blk38
 10
0
 20
0
 30
1
  0
ATTRIB
  5
3F2
330
3F1
100
AcDbEntity
  8
0
370
    25
100
AcDbText
 10
130.6999969482422
 20
145.6999969482422
 30
0
 40
2.449996948242188
  1
W0902
 41
0.9
  7
Caddy_Vectorfont1p
 11
0
 21
0
 31
0
100
AcDbAttribute
  2
$TAG160010
 70
     0
  0
SEQEND
  5
3F3
330
3F1
100
AcDbEntity
  8
0
  0
INSERT
  5
407
330
1F
100
AcDbEntity
  8
0
100
AcDbBlockReference
 66
     1
  2
Blk39
 10
0
 20
0
 30
1
  0
ATTRIB
  5
408
330
407
100
AcDbEntity
  8
0
370
    25
100
AcDbText
 10
130.6999969482422
 20
145.6999969482422
 30
0
 40
2.449996948242188
  1
W0902
 41
0.9
  7
Caddy_Vectorfont1p
 11
0
 21
0
 31
0
100
AcDbAttribute
  2
$TAG160010
 70
     0
  0
SEQEND
  5
409
330
407
100
AcDbEntity
  8
0
  0
INSERT
  5
41D
330
1F
100
AcDbEntity
  8
0
100
AcDbBlockReference
 66
     1
  2
Blk40
 10
0
 20
0
 30
1
  0
ATTRIB
  5
41E
330
41D
100
AcDbEntity
  8
0
370
    25
100
AcDbText
 10
130.6999969482422
 20
145.6999969482422
 30
0
 40
2.449996948242188
  1
W0902
 41
0.9
  7
Caddy_Vectorfont1p
 11
0
 21
0
 31
0
100
AcDbAttribute
  2
$TAG160010
 70
     0
  0
SEQEND
  5
41F
330
41D
100
AcDbEntity
  8
0
  0
LINE
  5
430
330
1F
100
AcDbEntity
  8
0
  6
Caddy_Solid
370
    25
100
AcDbLine
 10
105
 20
145
 30
0
 11
130
 21
145
 31
0
  0
LINE
  5
431
330
1F
100
AcDbEntity
  8
0
  6
Caddy_Solid
370
    25
100
AcDbLine
 10
110
 20
135
 30
0
 11
110
 21
144.5
 31
0
  0
LINE
  5
432
330
1F
100
AcDbEntity
  8
0
  6
Caddy_Solid
370
    25
100
AcDbLine
 10
110
 20
145.5
 30
0
 11
110
 21
160
 31
0
  0
LINE
  5
433
330
1F
100
AcDbEntity
  8
0
  6
Caddy_Solid
370
    25
100
AcDbLine
 10
115
 20
115
 30
0
 11
115
 21
144.5
 31
0
  0
LINE
  5
434
330
1F
100
AcDbEntity
  8
0
  6
Caddy_Solid
370
    25
100
AcDbLine
 10
115
 20
145.5
 30
0
 11
115
 21
160
 31
0
  0
LINE
  5
435
330
1F
100
AcDbEntity
  8
0
  6
Caddy_Solid
370
    25
100
AcDbLine
 10
120
 20
135
 30
0
 11
120
 21
144.5
 31
0
  0
LINE
  5
436
330
1F
100
AcDbEntity
  8
0
  6
Caddy_Solid
370
    25
100
AcDbLine
 10
120
 20
145.5
 30
0
 11
120
 21
160
 31
0
  0
LINE
  5
437
330
1F
100
AcDbEntity
  8
0
  6
Caddy_Solid
370
    25
100
AcDbLine
 10
125
 20
115
 30
0
 11
125
 21
144.5
 31
0
  0
LINE
  5
438
330
1F
100
AcDbEntity
  8
0
  6
Caddy_Solid
370
    25
100
AcDbLine
 10
125
 20
145.5
 30
0
 11
125
 21
160
 31
0
  0
INSERT
  5
43C
330
1F
100
AcDbEntity
  8
0
100
AcDbBlockReference
 66
     1
  2
Blk41
 10
0
 20
0
 30
1
  0
ATTRIB
  5
43D
330
43C
100
AcDbEntity
  8
0
370
    25
100
AcDbText
 10
170.6999969482422
 20
145.6999969482422
 30
0
 40
2.449996948242188
  1
W0903
 41
0.9
  7
Caddy_Vectorfont1p
 11
0
 21
0
 31
0
100
AcDbAttribute
  2
$TAG160010
 70
     0
  0
SEQEND
  5
43E
330
43C
100
AcDbEntity
  8
0
  0
INSERT
  5
452
330
1F
100
AcDbEntity
  8
0
100
AcDbBlockReference
 66
     1
  2
Blk42
 10
0
 20
0
 30
1
  0
ATTRIB
  5
453
330
452
100
AcDbEntity
  8
0
370
    25
100
AcDbText
 10
170.6999969482422
 20
145.6999969482422
 30
0
 40
2.449996948242188
  1
W0903
 41
0.9
  7
Caddy_Vectorfont1p
 11
0
 21
0
 31
0
100
AcDbAttribute
  2
$TAG160010
 70
     0
  0
SEQEND
  5
454
330
452
100
AcDbEntity
  8
0
  0
INSERT
  5
468
330
1F
100
AcDbEntity
  8
0
100
AcDbBlockReference
 66
     1
  2
Blk43
 10
0
 20
0
 30
1
  0
ATTRIB
  5
469
330
468
100
AcDbEntity
  8
0
370
    25
100
AcDbText
 10
170.6999969482422
 20
145.6999969482422
 30
0
 40
2.449996948242188
  1
W0903
 41
0.9
  7
Caddy_Vectorfont1p
 11
0
 21
0
 31
0
100
AcDbAttribute
  2
$TAG160010
 70
     0
  0
SEQEND
  5
46A
330
468
100
AcDbEntity
  8
0
  0
INSERT
  5
47E
330
1F
100
AcDbEntity
  8
0
100
AcDbBlockReference
 66
     1
  2
Blk44
 10
0
 20
0
 30
1
  0
ATTRIB
  5
47F
330
47E
100
AcDbEntity
  8
0
370
    25
100
AcDbText
 10
170.6999969482422
 20
145.6999969482422
 30
0
 40
2.449996948242188
  1
W0903
 41
0.9
  7
Caddy_Vectorfont1p
 11
0
 21
0
 31
0
100
AcDbAttribute
  2
$TAG160010
 70
     0
  0
SEQEND
  5
480
330
47E
100
AcDbEntity
  8
0
  0
LINE
  5
491
330
1F
100
AcDbEntity
  8
0
  6
Caddy_Solid
370
    25
100
AcDbLine
 10
145
 20
145
 30
0
 11
170
 21
145
 31
0
  0
LINE
  5
492
330
1F
100
AcDbEntity
  8
0
  6
Caddy_Solid
370
    25
100
AcDbLine
 10
150
 20
135
 30
0
 11
150
 21
144.5
 31
0
  0
LINE
  5
493
330
1F
100
AcDbEntity
  8
0
  6
Caddy_Solid
370
    25
100
AcDbLine
 10
150
 20
145.5
 30
0
 11
150
 21
160
 31
0
  0
LINE
  5
494
330
1F
100
AcDbEntity
  8
0
  6
Caddy_Solid
370
    25
100
AcDbLine
 10
160
 20
135
 30
0
 11
160
 21
144.5
 31
0
  0
LINE
  5
495
330
1F
100
AcDbEntity
  8
0
  6
Caddy_Solid
370
    25
100
AcDbLine
 10
160
 20
145.5
 30
0
 11
160
 21
160
 31
0
  0
LINE
  5
496
330
1F
100
AcDbEntity
  8
0
  6
Caddy_Solid
370
    25
100
AcDbLine
 10
165
 20
115
 30
0
 11
165
 21
144.5
 31
0
  0
LINE
  5
497
330
1F
100
AcDbEntity
  8
0
  6
Caddy_Solid
370
    25
100
AcDbLine
 10
165
 20
145.5
 30
0
 11
165
 21
160
 31
0
  0
LINE
  5
498
330
1F
100
AcDbEntity
  8
0
  6
Caddy_Solid
370
    25
100
AcDbLine
 10
155
 20
115
 30
0
 11
155
 21
144.5
 31
0
  0
LINE
  5
499
330
1F
100
AcDbEntity
  8
0
  6
Caddy_Solid
370
    25
100
AcDbLine
 10
155
 20
145.5
 30
0
 11
155
 21
160
 31
0
  0
TEXT
  5
49A
330
1F
100
AcDbEntity
  8
0
370
    25
100
AcDbText
 10
170.6000061035156
 20
140.6000061035156
 30
0
 40
2.099990844726562
  1
5x0,75jz
 41
0.9
  7
Caddy_Vectorfont1p
 11
0
 21
0
 31
0
100
AcDbText
  0
TEXT
  5
49B
330
1F
100
AcDbEntity
  8
0
370
    25
100
AcDbText
 10
130.6000061035156
 20
140.6000061035156
 30
0
 40
2.099990844726562
  1
5x0,75jz
 41
0.9
  7
Caddy_Vectorfont1p
 11
0
 21
0
 31
0
100
AcDbText
  0
TEXT
  5
49C
330
1F
100
AcDbEntity
  8
0
370
    25
100
AcDbText
 10
90.59999847412109
 20
140.6000061035156
 30
0
 40
2.099990844726562
  1
5x0,75jz
 41
0.9
  7
Caddy_Vectorfont1p
 11
0
 21
0
 31
0
100
AcDbText
  0
TEXT
  5
49D
330
1F
100
AcDbEntity
  8
0
370
    25
100
AcDbText
 10
55.59999847412109
 20
180.6000061035156
 30
0
 40
2.099990844726562
  1
BOKS 9
 41
0.9
  7
Caddy_Vectorfont1p
 11
0
 21
0
 31
0
100
AcDbText
  0
LINE
  5
49E
330
1F
100
AcDbEntity
  8
0
  6
Caddy_Solid
370
    25
100
AcDbLine
 10
70
 20
165
 30
0
 11
70
 21
235
 31
0
  0
LINE
  5
49F
330
1F
100
AcDbEntity
  8
0
  6
Caddy_Solid
370
    25
100
AcDbLine
 10
80
 20
165
 30
0
 11
80
 21
240
 31
0
  0
LINE
  5
4A0
330
1F
100
AcDbEntity
  8
0
  6
Caddy_Solid
370
    25
100
AcDbLine
 10
235
 20
165
 30
0
 11
235
 21
240
 31
0
  0
LINE
  5
4A1
330
1F
100
AcDbEntity
  8
0
  6
Caddy_Solid
370
    25
100
AcDbLine
 10
245
 20
165
 30
0
 11
245
 21
235
 31
0
  0
ENDSEC
  0
SECTION
  2
OBJECTS
  0
DICTIONARY
  5
C
330
0
100
AcDbDictionary
281
     1
  3
ACAD_GROUP
350
D
  3
ACAD_PLOTSTYLENAME
350
E
  3
ACAD_MLINESTYLE
350
17
  3
ACAD_PLOTSETTINGS
350
19
  3
ACAD_LAYOUT
350
1A
  3
ACAD_IMAGE_DICT
350
A7
  3
ACAD_IMAGE_VARS
350
AA
  0
DICTIONARY
  5
D
102
{ACAD_REACTORS
330
C
102
}
330
C
100
AcDbDictionary
281
     1
  0
ACDBDICTIONARYWDFLT
  5
E
102
{ACAD_REACTORS
330
C
102
}
330
C
100
AcDbDictionary
281
     1
  3
Normal
350
F
100
AcDbDictionaryWithDefault
340
F
  0
ACDBPLACEHOLDER
  5
F
102
{ACAD_REACTORS
330
E
102
}
330
E
  0
DICTIONARY
  5
17
102
{ACAD_REACTORS
330
C
102
}
330
C
100
AcDbDictionary
281
     1
  3
Standard
350
18
  0
MLINESTYLE
  5
18
102
{ACAD_REACTORS
330
17
102
}
330
17
100
AcDbMlineStyle
  2
Standard
 70
     0
  3

 62
   256
 51
90
 52
90
 71
     2
 49
0.5
 62
   256
  6
BYLAYER
 49
-0.5
 62
   256
  6
BYLAYER
  0
DICTIONARY
  5
19
102
{ACAD_REACTORS
330
C
102
}
330
C
100
AcDbDictionary
281
     1
  0
DICTIONARY
  5
1A
102
{ACAD_REACTORS
330
C
102
}
330
C
100
AcDbDictionary
281
     1
  3
Layout1
350
1E
  3
Model
350
22
  3
Layout2
350
26
  0
LAYOUT
  5
1E
102
{ACAD_REACTORS
330
1A
102
}
330
1A
100
AcDbPlotSettings
  1

  2

  4

  6

 40
0
 41
0
 42
0
 43
0
 44
0
 45
0
 46
0
 47
0
 48
0
 49
0
140
0
141
0
  6

142
1
143
1
 70
   688
 72
     0
 73
     0
 74
     5
  7

 75
    16
147
1
148
0
149
0
100
AcDbLayout
  1
Layout1
 70
     1
 71
     1
 10
0
 20
0
 11
420
 21
297
 12
0
 22
0
 32
0
 14
1E+20
 24
1E+20
 34
1E+20
 15
-1E+20
 25
-1E+20
 35
-1E+20
146
0
 13
0
 23
0
 33
0
 16
1
 26
0
 36
0
 17
0
 27
1
 37
0
 76
     0
330
1B
  0
LAYOUT
  5
22
102
{ACAD_REACTORS
330
1A
102
}
330
1A
100
AcDbPlotSettings
  1

  2

  4

  6

 40
0
 41
0
 42
0
 43
0
 44
0
 45
0
 46
0
 47
0
 48
0
 49
0
140
0
141
0
  6

142
1
143
1
 70
  1712
 72
     0
 73
     0
 74
     0
  7

 75
     0
147
1
148
0
149
0
100
AcDbLayout
  1
Model
 70
     1
 71
     0
 10
0
 20
0
 11
0
 21
0
 12
0
 22
0
 32
0
 14
0
 24
0
 34
0
 15
420
 25
297
 35
0
146
0
 13
0
 23
0
 33
0
 16
1
 26
0
 36
0
 17
0
 27
1
 37
0
 76
     0
330
1F
  0
LAYOUT
  5
26
102
{ACAD_REACTORS
330
1A
102
}
330
1A
100
AcDbPlotSettings
  1

  2

  4

  6

 40
0
 41
0
 42
0
 43
0
 44
0
 45
0
 46
0
 47
0
 48
0
 49
0
140
0
141
0
  6

142
1
143
1
 70
   688
 72
     0
 73
     0
 74
     5
  7

 75
    16
147
1
148
0
149
0
100
AcDbLayout
  1
Layout2
 70
     1
 71
     2
 10
0
 20
0
 11
0
 21
0
 12
0
 22
0
 32
0
 14
0
 24
0
 34
0
 15
0
 25
0
 35
0
146
0
 13
0
 23
0
 33
0
 16
1
 26
0
 36
0
 17
0
 27
1
 37
0
 76
     0
330
23
  0
DICTIONARY
  5
A7
102
{ACAD_REACTORS
330
C
102
}
330
C
100
AcDbDictionary
281
     1
  3
Image2
350
A8
  0
IMAGEDEF
  5
A8
102
{ACAD_REACTORS
330
A7
330
AB
102
}
330
A7
100
AcDbRasterImageDef
 90
        0
  1
.\nødstopskreds - 0009 - Kredsskema - 0009 - Image1.bmp
 10
51
 20
10
 11
0.0196078431372549
 21
0.0196078431372549
280
     1
281
     1
  0
RASTERVARIABLES
  5
AA
102
{ACAD_REACTORS
330
C
102
}
330
C
100
AcDbRasterVariables
 90
        0
 70
     0
 71
     1
 72
     1
  0
IMAGEDEF_REACTOR
  5
AB
330
A9
100
AcDbRasterImageDefReactor
 90
        2
330
A9
  0
ENDSEC
  0
EOF
