  0
SECTION
  2
HEADER
  9
$ACADVER
  1
AC1006
  9
$DWGCODEPAGE
  3
ansi_1252
  9
$INSBASE
 10
0.0
 20
0.0
 30
0.0
  9
$EXTMIN
 10
0.0
 20
0.0
  9
$EXTMAX
 10
420.0
 20
297.0
  9
$LIMMIN
 10
0.0
 20
0.0
  9
$LIMMAX
 10
420.0
 20
297.0
  9
$ORTHOMODE
 70
     0
  9
$REGENMODE
 70
     1
  9
$FILLMODE
 70
     1
  9
$QTEXTMODE
 70
     0
  9
$MIRRTEXT
 70
     1
  9
$DRAGMODE
 70
     2
  9
$LTSCALE
 40
1.0
  9
$OSMODE
 70
    37
  9
$ATTMODE
 70
     1
  9
$TEXTSIZE
 40
2.5
  9
$TRACEWID
 40
1.0
  9
$TEXTSTYLE
  7
STANDARD
  9
$CLAYER
  8
0
  9
$CELTYPE
  6
BYLAYER
  9
$CECOLOR
 62
   256
  9
$DIMSCALE
 40
1.0
  9
$DIMASZ
 40
2.5
  9
$DIMEXO
 40
0.625
  9
$DIMDLI
 40
3.75
  9
$DIMRND
 40
0.0
  9
$DIMDLE
 40
0.0
  9
$DIMEXE
 40
1.25
  9
$DIMTP
 40
0.0
  9
$DIMTM
 40
0.0
  9
$DIMTXT
 40
2.5
  9
$DIMCEN
 40
2.5
  9
$DIMTSZ
 40
0.0
  9
$DIMTOL
 70
     0
  9
$DIMLIM
 70
     0
  9
$DIMTIH
 70
     0
  9
$DIMTOH
 70
     0
  9
$DIMSE1
 70
     0
  9
$DIMSE2
 70
     0
  9
$DIMTAD
 70
     1
  9
$DIMZIN
 70
     8
  9
$DIMBLK
  1

  9
$DIMASO
 70
     1
  9
$DIMSHO
 70
     1
  9
$DIMPOST
  1

  9
$DIMAPOST
  1

  9
$DIMALT
 70
     0
  9
$DIMALTD
 70
     3
  9
$DIMALTF
 40
0.03937007874016
  9
$DIMLFAC
 40
1.0
  9
$DIMTOFL
 70
     1
  9
$DIMTVP
 40
0.0
  9
$DIMTIX
 70
     0
  9
$DIMSOXD
 70
     0
  9
$DIMSAH
 70
     0
  9
$DIMBLK1
  1

  9
$DIMBLK2
  1

  9
$LUNITS
 70
     2
  9
$LUPREC
 70
     4
  9
$SKETCHINC
 40
1.0
  9
$FILLETRAD
 40
10.0
  9
$AUNITS
 70
     0
  9
$AUPREC
 70
     0
  9
$MENU
  1
.
  9
$ELEVATION
 40
0.0
  9
$THICKNESS
 40
0.0
  9
$LIMCHECK
 70
     0
  9
$CHAMFERA
 40
10.0
  9
$CHAMFERB
 40
10.0
  9
$SKPOLY
 70
     0
  9
$TDCREATE
 40
2451930.666666667
  9
$TDUPDATE
 40
2460738.481175914
  9
$TDINDWG
 40
0.0000000116
  9
$TDUSRTIMER
 40
0.0000000116
  9
$USRTIMER
 70
     1
  9
$ANGBASE
 50
0.0
  9
$ANGDIR
 70
     0
  9
$PDMODE
 70
     0
  9
$PDSIZE
 40
0.0
  9
$PLINEWID
 40
0.0
  9
$COORDS
 70
     1
  9
$SPLFRAME
 70
     0
  9
$SPLINETYPE
 70
     6
  9
$SPLINESEGS
 70
     8
  9
$ATTDIA
 70
     0
  9
$ATTREQ
 70
     1
  9
$HANDLING
 70
     1
  9
$HANDSEED
  5
488
  9
$SURFTAB1
 70
     6
  9
$SURFTAB2
 70
     6
  9
$SURFTYPE
 70
     6
  9
$SURFU
 70
     6
  9
$SURFV
 70
     6
  9
$UCSNAME
  2

  9
$UCSORG
 10
0.0
 20
0.0
 30
0.0
  9
$UCSXDIR
 10
1.0
 20
0.0
 30
0.0
  9
$UCSYDIR
 10
0.0
 20
1.0
 30
0.0
  9
$USERI1
 70
     0
  9
$USERI2
 70
     0
  9
$USERI3
 70
     0
  9
$USERI4
 70
     0
  9
$USERI5
 70
     0
  9
$USERR1
 40
0.0
  9
$USERR2
 40
0.0
  9
$USERR3
 40
0.0
  9
$USERR4
 40
0.0
  9
$USERR5
 40
0.0
  9
$WORLDVIEW
 70
     1
  0
ENDSEC
  0
SECTION
  2
TABLES
  0
TABLE
  2
VPORT
 70
     1
  0
VPORT
  2
*ACTIVE
 70
     0
 10
0.0
 20
0.0
 11
1.0
 21
1.0
 12
210.0
 22
142.5
 13
0.0
 23
0.0
 14
10.0
 24
10.0
 15
10.0
 25
10.0
 16
0.0
 26
0.0
 36
1.0
 17
0.0
 27
0.0
 37
0.0
 40
270.3
 41
1.972972972850329
 42
50.0
 43
0.0
 44
0.0
 50
0.0
 51
0.0
 71
     0
 72
   100
 73
     1
 74
     3
 75
     0
 76
     0
 77
     0
 78
     0
  0
ENDTAB
  0
TABLE
  2
LTYPE
 70
     6
  0
LTYPE
  2
CONTINUOUS
 70
     0
  3
Solid line
 72
    65
 73
     0
 40
0.0
  0
LTYPE
  2
CADDY_SOLID
 70
     0
  3
____________
 72
    65
 73
     0
 40
0.0
  0
LTYPE
  2
CADDY_DOT
 70
     0
  3
. . . . . . 
 72
    65
 73
     2
 40
2.0
 49
0.5
 49
-1.5
  0
LTYPE
  2
CADDY_DASH
 70
     0
  3
_ _ _ _ _ _ 
 72
    65
 73
     2
 40
3.5
 49
2.0
 49
-1.5
  0
LTYPE
  2
CADDY_DASHDOT
 70
     0
  3
_ . _ . _ . 
 72
    65
 73
     4
 40
5.5
 49
0.5
 49
-1.5
 49
2.0
 49
-1.5
  0
LTYPE
  2
CADDY_DASHDOTDOT
 70
     0
  3
_ . . _ . . 
 72
    65
 73
     6
 40
7.5
 49
2.0
 49
-1.5
 49
0.5
 49
-1.5
 49
0.5
 49
-1.5
  0
ENDTAB
  0
TABLE
  2
LAYER
 70
     4
  0
LAYER
  2
0
 70
     0
 62
     7
  6
CONTINUOUS
  0
LAYER
  2
6
 70
     0
 62
     7
  6
CONTINUOUS
  0
LAYER
  2
4
 70
     0
 62
     7
  6
CONTINUOUS
  0
LAYER
  2
2
 70
     0
 62
     7
  6
CONTINUOUS
  0
ENDTAB
  0
TABLE
  2
STYLE
 70
    17
  0
STYLE
  2
STANDARD
 70
     0
 40
0.0
 41
1.0
 50
0.0
 71
     0
 42
2.5
  3
txt
  4

  0
STYLE
  2
CADDY_VECTORFONT1P
 70
     0
 40
0.0
 41
0.9
 50
0.0
 71
     0
 42
0.2
  3
isocp___.ttf
  4

  0
STYLE
  2
CADDY_VECTORFONT1N
 70
     0
 40
0.0
 41
1.100000023841858
 50
0.0
 71
     0
 42
0.2
  3

  4

  0
STYLE
  2
CADDY_VECTORFONT2P
 70
     0
 40
0.0
 41
1.35
 50
0.0
 71
     0
 42
0.2
  3

  4

  0
STYLE
  2
CADDY_VECTORFONT2N
 70
     0
 40
0.0
 41
1.549999952316284
 50
0.0
 71
     0
 42
0.2
  3

  4

  0
STYLE
  2
CADDY_VECTORFONT3P
 70
     0
 40
0.0
 41
1.3
 50
0.0
 71
     0
 42
0.2
  3

  4

  0
STYLE
  2
CADDY_VECTORFONT3N
 70
     0
 40
0.0
 41
1.5
 50
0.0
 71
     0
 42
0.2
  3

  4

  0
STYLE
  2
CADDY_VECTORFONT4P
 70
     0
 40
0.0
 41
1.1
 50
0.0
 71
     0
 42
0.2
  3

  4

  0
STYLE
  2
CADDY_VECTORFONT4N
 70
     0
 40
0.0
 41
1.299999952316284
 50
0.0
 71
     0
 42
0.2
  3

  4

  0
STYLE
  2
CADDY_VECTORFONT5P
 70
     0
 40
0.0
 41
1.0
 50
0.0
 71
     0
 42
0.2
  3

  4

  0
STYLE
  2
CADDY_VECTORFONT5N
 70
     0
 40
0.0
 41
1.200000047683716
 50
0.0
 71
     0
 42
0.2
  3

  4

  0
STYLE
  2
CADDY_VECTORFONT6P
 70
     0
 40
0.0
 41
0.9
 50
0.0
 71
     0
 42
0.2
  3

  4

  0
STYLE
  2
CADDY_VECTORFONT6N
 70
     0
 40
0.0
 41
1.100000023841858
 50
0.0
 71
     0
 42
0.2
  3

  4

  0
STYLE
  2
CADDY_VECTORFONT7P
 70
     0
 40
0.0
 41
1.3
 50
0.0
 71
     0
 42
0.2
  3

  4

  0
STYLE
  2
CADDY_VECTORFONT7N
 70
     0
 40
0.0
 41
1.5
 50
0.0
 71
     0
 42
0.2
  3

  4

  0
STYLE
  2
CADDY_VECTORFONT8P
 70
     0
 40
0.0
 41
1.5
 50
0.0
 71
     0
 42
0.2
  3

  4

  0
STYLE
  2
CADDY_VECTORFONT8N
 70
     0
 40
0.0
 41
1.700000047683716
 50
0.0
 71
     0
 42
0.2
  3

  4

  0
ENDTAB
  0
TABLE
  2
VIEW
 70
     0
  0
ENDTAB
  0
TABLE
  2
UCS
 70
     0
  0
ENDTAB
  0
ENDSEC
  0
SECTION
  2
BLOCKS
  0
BLOCK
  8
0
  2
BLK1
 70
     0
 10
0.0
 20
0.0
 30
0.0
  0
LINE
  5
44
  8
0
  6
CADDY_SOLID
 10
10.0
 20
10.0
 30
0.0
 11
10.0
 21
275.0
 31
0.0
  0
LINE
  5
45
  8
0
  6
CADDY_SOLID
 10
10.0
 20
275.0
 30
0.0
 11
410.0
 21
275.0
 31
0.0
  0
LINE
  5
46
  8
0
  6
CADDY_SOLID
 10
410.0
 20
275.0
 30
0.0
 11
410.0
 21
10.0
 31
0.0
  0
LINE
  5
47
  8
0
  6
CADDY_SOLID
 10
50.0
 20
270.0
 30
0.0
 11
50.0
 21
275.0
 31
0.0
  0
TEXT
  5
48
  8
0
 10
29.14336390228272
 20
271.2000122070312
 30
0.0
 40
2.449981689453125
  1
0
 41
0.9
  7
CADDY_VECTORFONT1P
 72
     1
 11
30.0
 21
271.2000122070312
 31
0.0
  0
TEXT
  5
49
  8
0
 10
30.0
 20
265.2000122070312
 30
0.0
 40
2.449981689453125
  1

 41
0.9
  7
CADDY_VECTORFONT1P
 72
     1
 11
30.0
 21
265.2000122070312
 31
0.0
  0
LINE
  5
4A
  8
0
  6
CADDY_SOLID
 10
90.0
 20
270.0
 30
0.0
 11
90.0
 21
275.0
 31
0.0
  0
LINE
  5
4B
  8
0
  6
CADDY_SOLID
 10
130.0
 20
270.0
 30
0.0
 11
130.0
 21
275.0
 31
0.0
  0
LINE
  5
4C
  8
0
  6
CADDY_SOLID
 10
170.0
 20
270.0
 30
0.0
 11
170.0
 21
275.0
 31
0.0
  0
LINE
  5
4D
  8
0
  6
CADDY_SOLID
 10
210.0
 20
270.0
 30
0.0
 11
210.0
 21
275.0
 31
0.0
  0
LINE
  5
4E
  8
0
  6
CADDY_SOLID
 10
250.0
 20
270.0
 30
0.0
 11
250.0
 21
275.0
 31
0.0
  0
LINE
  5
4F
  8
0
  6
CADDY_SOLID
 10
290.0
 20
270.0
 30
0.0
 11
290.0
 21
275.0
 31
0.0
  0
LINE
  5
50
  8
0
  6
CADDY_SOLID
 10
330.0
 20
270.0
 30
0.0
 11
330.0
 21
275.0
 31
0.0
  0
LINE
  5
51
  8
0
  6
CADDY_SOLID
 10
370.0
 20
270.0
 30
0.0
 11
370.0
 21
275.0
 31
0.0
  0
TEXT
  5
52
  8
0
 10
69.38369947662353
 20
271.2000122070312
 30
0.0
 40
2.449981689453125
  1
1
 41
0.9
  7
CADDY_VECTORFONT1P
 72
     1
 11
69.99999237060547
 21
271.2000122070312
 31
0.0
  0
TEXT
  5
53
  8
0
 10
109.1610037704468
 20
271.2000122070312
 30
0.0
 40
2.449981689453125
  1
2
 41
0.9
  7
CADDY_VECTORFONT1P
 72
     1
 11
110.0
 21
271.2000122070312
 31
0.0
  0
TEXT
  5
54
  8
0
 10
149.1312364929199
 20
271.2000122070312
 30
0.0
 40
2.449981689453125
  1
3
 41
0.9
  7
CADDY_VECTORFONT1P
 72
     1
 11
150.0
 21
271.2000122070312
 31
0.0
  0
TEXT
  5
55
  8
0
 10
189.0364222015381
 20
271.2000122070312
 30
0.0
 40
2.449981689453125
  1
4
 41
0.9
  7
CADDY_VECTORFONT1P
 72
     1
 11
190.0
 21
271.2000122070312
 31
0.0
  0
TEXT
  5
56
  8
0
 10
229.1433639022827
 20
271.2000122070312
 30
0.0
 40
2.449981689453125
  1
5
 41
0.9
  7
CADDY_VECTORFONT1P
 72
     1
 11
230.0
 21
271.2000122070312
 31
0.0
  0
TEXT
  5
57
  8
0
 10
269.1433639022827
 20
271.2000122070312
 30
0.0
 40
2.449981689453125
  1
6
 41
0.9
  7
CADDY_VECTORFONT1P
 72
     1
 11
270.0
 21
271.2000122070312
 31
0.0
  0
TEXT
  5
58
  8
0
 10
309.140056427002
 20
271.2000122070312
 30
0.0
 40
2.449981689453125
  1
7
 41
0.9
  7
CADDY_VECTORFONT1P
 72
     1
 11
310.0
 21
271.2000122070312
 31
0.0
  0
TEXT
  5
59
  8
0
 10
349.1433639022827
 20
271.2000122070312
 30
0.0
 40
2.449981689453125
  1
8
 41
0.9
  7
CADDY_VECTORFONT1P
 72
     1
 11
350.0
 21
271.2000122070312
 31
0.0
  0
TEXT
  5
5A
  8
0
 10
389.1433639022827
 20
271.2000122070312
 30
0.0
 40
2.449981689453125
  1
9
 41
0.9
  7
CADDY_VECTORFONT1P
 72
     1
 11
390.0
 21
271.2000122070312
 31
0.0
  0
TEXT
  5
5B
  8
0
 10
70.0
 20
265.2000122070312
 30
0.0
 40
2.449981689453125
  1

 41
0.9
  7
CADDY_VECTORFONT1P
 72
     1
 11
70.0
 21
265.2000122070312
 31
0.0
  0
TEXT
  5
5C
  8
0
 10
110.0
 20
265.2000122070312
 30
0.0
 40
2.449981689453125
  1

 41
0.9
  7
CADDY_VECTORFONT1P
 72
     1
 11
110.0
 21
265.2000122070312
 31
0.0
  0
TEXT
  5
5D
  8
0
 10
150.0
 20
265.2000122070312
 30
0.0
 40
2.449981689453125
  1

 41
0.9
  7
CADDY_VECTORFONT1P
 72
     1
 11
150.0
 21
265.2000122070312
 31
0.0
  0
TEXT
  5
5E
  8
0
 10
190.0
 20
265.2000122070312
 30
0.0
 40
2.449981689453125
  1

 41
0.9
  7
CADDY_VECTORFONT1P
 72
     1
 11
190.0
 21
265.2000122070312
 31
0.0
  0
TEXT
  5
5F
  8
0
 10
230.0
 20
265.2000122070312
 30
0.0
 40
2.449981689453125
  1

 41
0.9
  7
CADDY_VECTORFONT1P
 72
     1
 11
230.0
 21
265.2000122070312
 31
0.0
  0
TEXT
  5
60
  8
0
 10
270.0000305175781
 20
265.2000122070312
 30
0.0
 40
2.449981689453125
  1

 41
0.9
  7
CADDY_VECTORFONT1P
 72
     1
 11
270.0000305175781
 21
265.2000122070312
 31
0.0
  0
TEXT
  5
61
  8
0
 10
310.0000305175781
 20
265.2000122070312
 30
0.0
 40
2.449981689453125
  1

 41
0.9
  7
CADDY_VECTORFONT1P
 72
     1
 11
310.0000305175781
 21
265.2000122070312
 31
0.0
  0
TEXT
  5
62
  8
0
 10
350.0000305175781
 20
265.2000122070312
 30
0.0
 40
2.449981689453125
  1

 41
0.9
  7
CADDY_VECTORFONT1P
 72
     1
 11
350.0000305175781
 21
265.2000122070312
 31
0.0
  0
TEXT
  5
63
  8
0
 10
390.0000305175781
 20
265.2000122070312
 30
0.0
 40
2.449981689453125
  1

 41
0.9
  7
CADDY_VECTORFONT1P
 72
     1
 11
390.0000305175781
 21
265.2000122070312
 31
0.0
  0
LINE
  5
64
  8
0
  6
CADDY_SOLID
 10
15.0
 20
270.0
 30
0.0
 11
15.0
 21
30.0
 31
0.0
  0
LINE
  5
65
  8
0
  6
CADDY_SOLID
 10
405.0
 20
270.0
 30
0.0
 11
405.0
 21
30.0
 31
0.0
  0
LINE
  5
66
  8
0
  6
CADDY_SOLID
 10
15.0
 20
230.0
 30
0.0
 11
10.0
 21
230.0
 31
0.0
  0
LINE
  5
67
  8
0
  6
CADDY_SOLID
 10
15.0
 20
190.0
 30
0.0
 11
10.0
 21
190.0
 31
0.0
  0
LINE
  5
68
  8
0
  6
CADDY_SOLID
 10
15.0
 20
150.0
 30
0.0
 11
10.0
 21
150.0
 31
0.0
  0
LINE
  5
69
  8
0
  6
CADDY_SOLID
 10
10.0
 20
110.0
 30
0.0
 11
15.0
 21
110.0
 31
0.0
  0
LINE
  5
6A
  8
0
  6
CADDY_SOLID
 10
10.0
 20
70.0
 30
0.0
 11
15.0
 21
70.0
 31
0.0
  0
TEXT
  5
6B
  8
0
 10
11.39750137329102
 20
248.6999969482422
 30
0.0
 40
2.449996948242188
  1
A
 41
0.9
  7
CADDY_VECTORFONT1P
 72
     1
 11
12.5
 21
248.6999969482422
 31
0.0
  0
TEXT
  5
6C
  8
0
 10
11.52098121948242
 20
208.6999969482422
 30
0.0
 40
2.449996948242188
  1
B
 41
0.9
  7
CADDY_VECTORFONT1P
 72
     1
 11
12.5
 21
208.6999969482422
 31
0.0
  0
TEXT
  5
6D
  8
0
 10
11.65548605194092
 20
168.6999969482422
 30
0.0
 40
2.449996948242188
  1
C
 41
0.9
  7
CADDY_VECTORFONT1P
 72
     1
 11
12.5
 21
168.6999969482422
 31
0.0
  0
TEXT
  5
6E
  8
0
 10
11.52098121948242
 20
128.6999969482422
 30
0.0
 40
2.449996948242188
  1
D
 41
0.9
  7
CADDY_VECTORFONT1P
 72
     1
 11
12.5
 21
128.6999969482422
 31
0.0
  0
TEXT
  5
6F
  8
0
 10
11.65548342208862
 20
88.69999694824219
 30
0.0
 40
2.450004577636719
  1
E
 41
0.9
  7
CADDY_VECTORFONT1P
 72
     1
 11
12.5
 21
88.69999694824219
 31
0.0
  0
TEXT
  5
70
  8
0
 10
11.65548473701477
 20
48.70000076293945
 30
0.0
 40
2.450000762939453
  1
F
 41
0.9
  7
CADDY_VECTORFONT1P
 72
     1
 11
12.5
 21
48.70000076293945
 31
0.0
  0
LINE
  5
71
  8
0
  6
CADDY_SOLID
 10
410.0
 20
230.0
 30
0.0
 11
405.0
 21
230.0
 31
0.0
  0
LINE
  5
72
  8
0
  6
CADDY_SOLID
 10
410.0
 20
190.0
 30
0.0
 11
405.0
 21
190.0
 31
0.0
  0
LINE
  5
73
  8
0
  6
CADDY_SOLID
 10
410.0
 20
150.0
 30
0.0
 11
405.0
 21
150.0
 31
0.0
  0
LINE
  5
74
  8
0
  6
CADDY_SOLID
 10
405.0
 20
110.0
 30
0.0
 11
410.0
 21
110.0
 31
0.0
  0
LINE
  5
75
  8
0
  6
CADDY_SOLID
 10
405.0
 20
70.0
 30
0.0
 11
410.0
 21
70.0
 31
0.0
  0
TEXT
  5
76
  8
0
 10
406.397501373291
 20
248.6999969482422
 30
0.0
 40
2.449996948242188
  1
A
 41
0.9
  7
CADDY_VECTORFONT1P
 72
     1
 11
407.5
 21
248.6999969482422
 31
0.0
  0
TEXT
  5
77
  8
0
 10
406.5209812194824
 20
208.6999969482422
 30
0.0
 40
2.449996948242188
  1
B
 41
0.9
  7
CADDY_VECTORFONT1P
 72
     1
 11
407.5
 21
208.6999969482422
 31
0.0
  0
TEXT
  5
78
  8
0
 10
406.6554860519409
 20
168.6999969482422
 30
0.0
 40
2.449996948242188
  1
C
 41
0.9
  7
CADDY_VECTORFONT1P
 72
     1
 11
407.5
 21
168.6999969482422
 31
0.0
  0
TEXT
  5
79
  8
0
 10
406.5209812194824
 20
128.6999969482422
 30
0.0
 40
2.449996948242188
  1
D
 41
0.9
  7
CADDY_VECTORFONT1P
 72
     1
 11
407.5
 21
128.6999969482422
 31
0.0
  0
TEXT
  5
7A
  8
0
 10
406.6554834220887
 20
88.69999694824219
 30
0.0
 40
2.450004577636719
  1
E
 41
0.9
  7
CADDY_VECTORFONT1P
 72
     1
 11
407.5
 21
88.69999694824219
 31
0.0
  0
TEXT
  5
7B
  8
0
 10
406.6554847370148
 20
48.70000076293945
 30
0.0
 40
2.450000762939453
  1
F
 41
0.9
  7
CADDY_VECTORFONT1P
 72
     1
 11
407.5
 21
48.70000076293945
 31
0.0
  0
LINE
  5
7C
  8
0
  6
CADDY_SOLID
 10
15.0
 20
270.0
 30
0.0
 11
405.0
 21
270.0
 31
0.0
  0
LINE
  5
7D
  8
0
  6
CADDY_SOLID
 10
410.0
 20
10.0
 30
0.0
 11
10.0
 21
10.0
 31
0.0
  0
LINE
  5
7E
  8
0
  6
CADDY_SOLID
 10
10.0
 20
30.0
 30
0.0
 11
410.0
 21
30.0
 31
0.0
  0
LINE
  5
7F
  8
0
  6
CADDY_SOLID
 10
260.0
 20
20.0
 30
0.0
 11
410.0
 21
20.0
 31
0.0
  0
LINE
  5
80
  8
0
  6
CADDY_SOLID
 10
10.0
 20
30.0
 30
0.0
 11
15.0
 21
30.0
 31
0.0
  0
LINE
  5
81
  8
0
  6
CADDY_SOLID
 10
405.0
 20
30.0
 30
0.0
 11
410.0
 21
30.0
 31
0.0
  0
LINE
  5
82
  8
0
  6
CADDY_SOLID
 10
65.0
 20
30.0
 30
0.0
 11
65.0
 21
10.0
 31
0.0
  0
TEXT
  5
83
  8
0
 10
69.19999694824219
 20
14.19999980926514
 30
0.0
 40
2.449999809265137
  1
Kassepakker
 41
0.9
  7
CADDY_VECTORFONT1P
  0
TEXT
  5
84
  8
0
 10
69.19999694824219
 20
23.20000076293945
 30
0.0
 40
2.44999885559082
  1
MPN - GUIDED BY VISION
 41
0.9
  7
CADDY_VECTORFONT1P
  0
TEXT
  5
85
  8
0
 10
69.19999694824219
 20
18.70000076293945
 30
0.0
 40
2.44999885559082
  1

 41
0.9
  7
CADDY_VECTORFONT1P
  0
LINE
  5
86
  8
0
  6
CADDY_SOLID
 10
160.0
 20
30.0
 30
0.0
 11
160.0
 21
10.0
 31
0.0
  0
TEXT
  5
87
  8
0
 10
164.1999969482422
 20
23.20000076293945
 30
0.0
 40
2.44999885559082
  1
24V forsyning
 41
0.9
  7
CADDY_VECTORFONT1P
  0
TEXT
  5
88
  8
0
 10
164.1999969482422
 20
18.70000076293945
 30
0.0
 40
2.44999885559082
  1

 41
0.9
  7
CADDY_VECTORFONT1P
  0
TEXT
  5
89
  8
0
 10
164.1999969482422
 20
14.19999980926514
 30
0.0
 40
2.449999809265137
  1

 41
0.9
  7
CADDY_VECTORFONT1P
  0
LINE
  5
8A
  8
0
  6
CADDY_SOLID
 10
260.0
 20
30.0
 30
0.0
 11
260.0
 21
10.0
 31
0.0
  0
TEXT
  5
8B
  8
0
 10
261.2000122070312
 20
26.20000076293945
 30
0.0
 40
2.44999885559082
  1
Projekt:
 41
0.9
  7
CADDY_VECTORFONT1P
  0
TEXT
  5
8C
  8
0
 10
261.2000122070312
 20
16.20000076293945
 30
0.0
 40
2.44999885559082
  1
Dato:
 41
0.9
  7
CADDY_VECTORFONT1P
  0
LINE
  5
8D
  8
0
  6
CADDY_SOLID
 10
290.0
 20
30.0
 30
0.0
 11
290.0
 21
10.0
 31
0.0
  0
TEXT
  5
8E
  8
0
 10
291.2000122070312
 20
16.20000076293945
 30
0.0
 40
2.44999885559082
  1
Funkt.:
 41
0.9
  7
CADDY_VECTORFONT1P
  0
TEXT
  5
8F
  8
0
 10
291.2000122070312
 20
26.20000076293945
 30
0.0
 40
2.44999885559082
  1
Tegn. nr.:
 41
0.9
  7
CADDY_VECTORFONT1P
  0
TEXT
  5
90
  8
0
 10
276.1062470369339
 20
21.70000076293945
 30
0.0
 40
2.44999885559082
  1
CP6000
 41
0.9
  7
CADDY_VECTORFONT1P
 72
     2
 11
286.2999572753906
 21
21.70000076293945
 31
0.0
  0
TEXT
  5
91
  8
0
 10
269.9807535458565
 20
11.69999980926514
 30
0.0
 40
2.449999809265137
  1
31-05-2005
 41
0.9
  7
CADDY_VECTORFONT1P
 72
     2
 11
286.2999572753906
 21
11.69999980926514
 31
0.0
  0
LINE
  5
92
  8
0
  6
CADDY_SOLID
 10
320.0
 20
20.0
 30
0.0
 11
320.0
 21
10.0
 31
0.0
  0
TEXT
  5
93
  8
0
 10
321.2000122070312
 20
16.20000076293945
 30
0.0
 40
2.44999885559082
  1
Plac.:
 41
0.9
  7
CADDY_VECTORFONT1P
  0
TEXT
  5
94
  8
0
 10
314.9527328978539
 20
11.69999980926514
 30
0.0
 40
2.449999809265137
  1
=
 41
0.9
  7
CADDY_VECTORFONT1P
 72
     2
 11
316.2999877929688
 21
11.69999980926514
 31
0.0
  0
LINE
  5
95
  8
0
  6
CADDY_SOLID
 10
382.5
 20
20.0
 30
0.0
 11
382.5
 21
30.0
 31
0.0
  0
LINE
  5
96
  8
0
  6
CADDY_SOLID
 10
382.5
 20
10.0
 30
0.0
 11
382.5
 21
20.0
 31
0.0
  0
TEXT
  5
97
  8
0
 10
349.952763415432
 20
11.69999980926514
 30
0.0
 40
2.449999809265137
  1
+
 41
0.9
  7
CADDY_VECTORFONT1P
 72
     2
 11
351.3000183105469
 21
11.69999980926514
 31
0.0
  0
LINE
  5
98
  8
0
  6
CADDY_SOLID
 10
355.0
 20
10.0
 30
0.0
 11
355.0
 21
20.0
 31
0.0
  0
LINE
  5
99
  8
0
  6
CADDY_SOLID
 10
355.0
 20
20.0
 30
0.0
 11
355.0
 21
30.0
 31
0.0
  0
TEXT
  5
9A
  8
0
 10
356.2000122070312
 20
26.20000076293945
 30
0.0
 40
2.44999885559082
  1
Rev.:
 41
0.9
  7
CADDY_VECTORFONT1P
  0
LINE
  5
9B
  8
0
  6
CADDY_SOLID
 10
337.5
 20
20.0
 30
0.0
 11
337.5
 21
30.0
 31
0.0
  0
TEXT
  5
9C
  8
0
 10
333.5
 20
21.75
 30
0.0
 40
3.5
  1

 41
0.9
  7
CADDY_VECTORFONT1P
 72
     2
 11
333.5
 21
21.75
 31
0.0
  0
TEXT
  5
9D
  8
0
 10
338.7000122070312
 20
26.20000076293945
 30
0.0
 40
2.44999885559082
  1
Init.:
 41
0.9
  7
CADDY_VECTORFONT1P
  0
TEXT
  5
9E
  8
0
 10
351.3000183105469
 20
21.70000076293945
 30
0.0
 40
2.44999885559082
  1

 41
0.9
  7
CADDY_VECTORFONT1P
 72
     2
 11
351.3000183105469
 21
21.70000076293945
 31
0.0
  0
TEXT
  5
9F
  8
0
 10
378.8000183105469
 20
21.70000076293945
 30
0.0
 40
2.44999885559082
  1

 41
0.9
  7
CADDY_VECTORFONT1P
 72
     2
 11
378.8000183105469
 21
21.70000076293945
 31
0.0
  0
TEXT
  5
A0
  8
0
 10
401.28125
 20
21.75
 30
0.0
 40
3.5
  1
7
 41
0.9
  7
CADDY_VECTORFONT1P
 72
     2
 11
403.25
 21
21.75
 31
0.0
  0
TEXT
  5
A1
  8
0
 10
405.25
 20
21.75
 30
0.0
 40
3.5
  1

 41
0.9
  7
CADDY_VECTORFONT1P
  0
TEXT
  5
A2
  8
0
 10
383.7000122070312
 20
26.20000076293945
 30
0.0
 40
2.44999885559082
  1
Blad:
 41
0.9
  7
CADDY_VECTORFONT1P
  0
TEXT
  5
A3
  8
0
 10
404.9285084173202
 20
11.69999980926514
 30
0.0
 40
2.449999809265137
  1
8
 41
0.9
  7
CADDY_VECTORFONT1P
 72
     2
 11
406.3000183105469
 21
11.69999980926514
 31
0.0
  0
TEXT
  5
A4
  8
0
 10
383.7000122070312
 20
16.20000076293945
 30
0.0
 40
2.44999885559082
  1
Næste blad:
 41
0.9
  7
CADDY_VECTORFONT1P
  0
TEXT
  5
A5
  8
0
 10
356.2000122070312
 20
16.20000076293945
 30
0.0
 40
2.44999885559082
  1
Antal blade:
 41
0.9
  7
CADDY_VECTORFONT1P
  0
TEXT
  5
A6
  8
0
 10
375.7284535496712
 20
11.69999980926514
 30
0.0
 40
2.449999809265137
  1
32
 41
0.9
  7
CADDY_VECTORFONT1P
 72
     2
 11
378.8000183105469
 21
11.69999980926514
 31
0.0
  0
ENDBLK
  8
0
  0
BLOCK
  8
0
  2
BLK2
 70
     2
 10
0.0
 20
0.0
 30
0.0
  0
LINE
  5
B0
  8
0
  6
CADDY_SOLID
 10
27.5
 20
260.0
 30
0.0
 11
25.25
 21
261.25
 31
0.0
  0
LINE
  5
B1
  8
0
  6
CADDY_SOLID
 10
27.5
 20
260.0
 30
0.0
 11
25.25
 21
258.75
 31
0.0
  0
ATTDEF
  5
B4
  8
0
 10
29.26500701904297
 20
260.9000244140625
 30
0.0
 40
2.449981689453125
  1
2L1
 41
0.9
  7
CADDY_VECTORFONT1P
  3
Produkt (-)
  2
$TAG160010
 70
     0
  0
ATTDEF
  5
B6
  8
0
 10
5.486902221679685
 20
258.9500122070312
 30
0.0
 40
2.449981689453125
  1
6.9
 41
0.9
  7
CADDY_VECTORFONT1P
 72
     2
 11
22.78499794006348
 21
258.9500122070312
 31
0.0
  3
Side/strømvej reference
  2
$TAG160500
 70
     0
  0
ATTDEF
  5
B8
  8
0
 10
29.26500701904297
 20
267.9000244140625
 30
0.0
 40
2.449981689453125
  1
=
 41
0.9
  7
CADDY_VECTORFONT1P
  3
Funktion (=)
  2
$TAG140020
 70
     1
  0
ATTDEF
  5
BA
  8
0
 10
29.26500701904297
 20
264.4000244140625
 30
0.0
 40
2.449981689453125
  1
+
 41
0.9
  7
CADDY_VECTORFONT1P
  3
Placering (+)
  2
$TAG140050
 70
     1
  0
ENDBLK
  8
0
  0
BLOCK
  8
0
  2
BLK3
 70
     2
 10
0.0
 20
0.0
 30
0.0
  0
LINE
  5
BF
  8
0
  6
CADDY_SOLID
 10
392.5
 20
260.0
 30
0.0
 11
390.25
 21
261.25
 31
0.0
  0
LINE
  5
C0
  8
0
  6
CADDY_SOLID
 10
392.5
 20
260.0
 30
0.0
 11
390.25
 21
258.75
 31
0.0
  0
ATTDEF
  5
C3
  8
0
 10
370.9786803039551
 20
260.9000244140625
 30
0.0
 40
2.449981689453125
  1
2L1
 41
0.9
  7
CADDY_VECTORFONT1P
 72
     2
 11
387.7850646972656
 21
260.9000244140625
 31
0.0
  3
Produkt (-)
  2
$TAG160010
 70
     0
  0
ATTDEF
  5
C5
  8
0
 10
393.3650207519531
 20
258.9500122070312
 30
0.0
 40
2.449981689453125
  1

 41
0.9
  7
CADDY_VECTORFONT1P
  3
Side/strømvej reference
  2
$TAG160500
 70
     0
  0
ATTDEF
  5
C7
  8
0
 10
370.2421547729492
 20
267.9000244140625
 30
0.0
 40
2.449981689453125
  1
=
 41
0.9
  7
CADDY_VECTORFONT1P
 72
     2
 11
387.7850036621094
 21
267.9000244140625
 31
0.0
  3
Funktion (=)
  2
$TAG140020
 70
     1
  0
ATTDEF
  5
C9
  8
0
 10
370.2421547729492
 20
264.4000244140625
 30
0.0
 40
2.449981689453125
  1
+
 41
0.9
  7
CADDY_VECTORFONT1P
 72
     2
 11
387.7850036621094
 21
264.4000244140625
 31
0.0
  3
Placering (+)
  2
$TAG140050
 70
     1
  0
ENDBLK
  8
0
  0
BLOCK
  8
0
  2
BLK4
 70
     2
 10
0.0
 20
0.0
 30
0.0
  0
LINE
  5
D1
  8
0
  6
CADDY_SOLID
 10
27.5
 20
255.0
 30
0.0
 11
25.25
 21
256.25
 31
0.0
  0
LINE
  5
D2
  8
0
  6
CADDY_SOLID
 10
27.5
 20
255.0
 30
0.0
 11
25.25
 21
253.75
 31
0.0
  0
ATTDEF
  5
D5
  8
0
 10
29.26500701904297
 20
255.9000091552734
 30
0.0
 40
2.449996948242188
  1
N
 41
0.9
  7
CADDY_VECTORFONT1P
  3
Produkt (-)
  2
$TAG160010
 70
     0
  0
ATTDEF
  5
D7
  8
0
 10
5.486794486999514
 20
253.9499969482422
 30
0.0
 40
2.449996948242188
  1
6.9
 41
0.9
  7
CADDY_VECTORFONT1P
 72
     2
 11
22.78499794006348
 21
253.9499969482422
 31
0.0
  3
Side/strømvej reference
  2
$TAG160500
 70
     0
  0
ATTDEF
  5
D9
  8
0
 10
29.26500701904297
 20
262.9000244140625
 30
0.0
 40
2.449981689453125
  1
=
 41
0.9
  7
CADDY_VECTORFONT1P
  3
Funktion (=)
  2
$TAG140020
 70
     1
  0
ATTDEF
  5
DB
  8
0
 10
29.26500701904297
 20
259.4000244140625
 30
0.0
 40
2.449981689453125
  1
+
 41
0.9
  7
CADDY_VECTORFONT1P
  3
Placering (+)
  2
$TAG140050
 70
     1
  0
ENDBLK
  8
0
  0
BLOCK
  8
0
  2
BLK5
 70
     2
 10
0.0
 20
0.0
 30
0.0
  0
LINE
  5
E0
  8
0
  6
CADDY_SOLID
 10
392.5
 20
255.0
 30
0.0
 11
390.25
 21
256.25
 31
0.0
  0
LINE
  5
E1
  8
0
  6
CADDY_SOLID
 10
392.5
 20
255.0
 30
0.0
 11
390.25
 21
253.75
 31
0.0
  0
ATTDEF
  5
E4
  8
0
 10
370.9785451141357
 20
255.9000091552734
 30
0.0
 40
2.449996948242188
  1
N
 41
0.9
  7
CADDY_VECTORFONT1P
 72
     2
 11
387.7850341796875
 21
255.9000091552734
 31
0.0
  3
Produkt (-)
  2
$TAG160010
 70
     0
  0
ATTDEF
  5
E6
  8
0
 10
393.3650207519531
 20
253.9499969482422
 30
0.0
 40
2.449996948242188
  1
20.0
 41
0.9
  7
CADDY_VECTORFONT1P
  3
Side/strømvej reference
  2
$TAG160500
 70
     0
  0
ATTDEF
  5
E8
  8
0
 10
370.2421547729492
 20
262.9000244140625
 30
0.0
 40
2.449981689453125
  1
=
 41
0.9
  7
CADDY_VECTORFONT1P
 72
     2
 11
387.7850036621094
 21
262.9000244140625
 31
0.0
  3
Funktion (=)
  2
$TAG140020
 70
     1
  0
ATTDEF
  5
EA
  8
0
 10
370.2421547729492
 20
259.4000244140625
 30
0.0
 40
2.449981689453125
  1
+
 41
0.9
  7
CADDY_VECTORFONT1P
 72
     2
 11
387.7850036621094
 21
259.4000244140625
 31
0.0
  3
Placering (+)
  2
$TAG140050
 70
     1
  0
ENDBLK
  8
0
  0
BLOCK
  8
0
  2
BLK6
 70
     2
 10
0.0
 20
0.0
 30
0.0
  0
LINE
  5
F5
  8
0
  6
CADDY_SOLID
 10
187.5
 20
175.0
 30
0.0
 11
187.5
 21
160.0
 31
0.0
  0
LINE
  5
F6
  8
0
  6
CADDY_SOLID
 10
187.5
 20
160.0
 30
0.0
 11
187.5
 21
175.0
 31
0.0
  0
LINE
  5
F7
  8
0
  6
CADDY_SOLID
 10
202.5
 20
175.0
 30
0.0
 11
187.5
 21
175.0
 31
0.0
  0
LINE
  5
F8
  8
0
  6
CADDY_SOLID
 10
202.5
 20
175.0
 30
0.0
 11
202.5
 21
160.0
 31
0.0
  0
LINE
  5
F9
  8
0
  6
CADDY_SOLID
 10
202.5
 20
160.0
 30
0.0
 11
187.5
 21
160.0
 31
0.0
  0
LINE
  5
FA
  8
0
  6
CADDY_SOLID
 10
202.5
 20
175.0
 30
0.0
 11
187.5
 21
160.0
 31
0.0
  0
LINE
  5
FB
  8
0
  6
CADDY_SOLID
 10
195.0
 20
175.0
 30
0.0
 11
195.0
 21
180.0
 31
0.0
  0
LINE
  5
FC
  8
0
  6
CADDY_SOLID
 10
190.0
 20
175.0
 30
0.0
 11
190.0
 21
180.0
 31
0.0
  0
LINE
  5
FD
  8
0
  6
CADDY_SOLID
 10
195.0
 20
160.0
 30
0.0
 11
195.0
 21
155.0
 31
0.0
  0
LINE
  5
FE
  8
0
  6
CADDY_SOLID
 10
200.0
 20
160.0
 30
0.0
 11
200.0
 21
155.0
 31
0.0
  0
ATTDEF
  5
101
  8
0
 10
168.1935414520264
 20
166.3000030517578
 30
0.0
 40
2.449996948242188
  1
T0704
 41
0.9
  7
CADDY_VECTORFONT1P
 72
     2
 11
185.0000305175781
 21
166.3000030517578
 31
0.0
  3
Produkt (-)
  2
$TAG160010
 70
     0
  0
ATTDEF
  5
103
  8
0
 10
167.4570723693848
 20
159.3000030517578
 30
0.0
 40
2.449996948242188
  1
ABL7RE2402
 41
0.9
  7
CADDY_VECTORFONT1P
 72
     2
 11
185.0000305175781
 21
159.3000030517578
 31
0.0
  3
Type
  2
$TAG160040
 70
     1
  0
ATTDEF
  5
105
  8
0
 10
167.701796546936
 20
162.8000030517578
 30
0.0
 40
2.449996948242188
  1
5A
 41
0.9
  7
CADDY_VECTORFONT1P
 72
     2
 11
185.0
 21
162.8000030517578
 31
0.0
  3
Beskrivelse 00
  2
$TAG160030
 70
     0
  0
TEXT
  5
106
  8
0
 10
189.3000030517578
 20
170.8000030517578
 30
0.0
 40
2.449996948242188
  1
AC
 41
0.9
  7
CADDY_VECTORFONT1P
  0
TEXT
  5
107
  8
0
 10
196.6925193786621
 20
161.8000030517578
 30
0.0
 40
2.449996948242188
  1
DC
 41
0.9
  7
CADDY_VECTORFONT1P
 72
     2
 11
200.0000152587891
 21
161.8000030517578
 31
0.0
  0
ATTDEF
  5
109
  8
0
 10
189.0500030517578
 20
175.9000091552734
 30
0.0
 40
2.449996948242188
  1
L1
 50
90.0
 41
0.9
  7
CADDY_VECTORFONT1P
  3
Tilslutningstekst 00
  2
$TAG175000_00
 70
     0
  0
ATTDEF
  5
10B
  8
0
 10
194.0500030517578
 20
175.9000091552734
 30
0.0
 40
2.449996948242188
  1
N
 50
90.0
 41
0.9
  7
CADDY_VECTORFONT1P
  3
Tilslutningstekst 02
  2
$TAG175000_02
 70
     0
  0
ATTDEF
  5
10D
  8
0
 10
194.0500030517578
 20
134.9763080734253
 30
0.0
 40
2.449996948242188
  1
+
 50
90.0
 41
0.9
  7
CADDY_VECTORFONT1P
 72
     2
 11
194.0500030517578
 21
158.3999938964844
 31
0.0
  3
Tilslutningstekst 03
  2
$TAG175000_03
 70
     0
  0
ATTDEF
  5
10F
  8
0
 10
199.0500030517578
 20
134.9763080734253
 30
0.0
 40
2.449996948242188
  1
-
 50
90.0
 41
0.9
  7
CADDY_VECTORFONT1P
 72
     2
 11
199.0500030517578
 21
158.3999938964844
 31
0.0
  3
Tilslutningstekst 05
  2
$TAG175000_05
 70
     0
  0
ATTDEF
  5
111
  8
0
 10
167.4570571105957
 20
173.3000030517578
 30
0.0
 40
2.449996948242188
  1
=
 41
0.9
  7
CADDY_VECTORFONT1P
 72
     2
 11
185.0000152587891
 21
173.3000030517578
 31
0.0
  3
Funktion (=)
  2
$TAG140020
 70
     1
  0
ATTDEF
  5
113
  8
0
 10
167.4570418518067
 20
169.8000030517578
 30
0.0
 40
2.449996948242188
  1
+
 41
0.9
  7
CADDY_VECTORFONT1P
 72
     2
 11
185.0
 21
169.8000030517578
 31
0.0
  3
Placering (+)
  2
$TAG140050
 70
     1
  0
ENDBLK
  8
0
  0
BLOCK
  8
0
  2
BLK7
 70
     2
 10
0.0
 20
0.0
 30
0.0
  0
LINE
  5
118
  8
0
  6
CADDY_SOLID
 10
190.0
 20
212.5
 30
0.0
 11
190.0
 21
215.0
 31
0.0
  0
LINE
  5
119
  8
0
  6
CADDY_SOLID
 10
190.0
 20
207.5
 30
0.0
 11
190.0
 21
205.0
 31
0.0
  0
LINE
  5
11A
  8
0
  6
CADDY_SOLID
 10
190.0
 20
207.5
 30
0.0
 11
186.5849304199219
 21
213.4150695800781
 31
0.0
  0
LINE
  5
11B
  8
0
  6
CADDY_SOLID
 10
189.1339721679688
 20
209.0
 30
0.0
 11
187.4019165039062
 21
208.0
 31
0.0
  0
LINE
  5
11C
  8
0
  6
CADDY_SOLID
 10
187.4019165039062
 20
208.0
 30
0.0
 11
186.4019165039062
 21
209.7320556640625
 31
0.0
  0
LINE
  5
11D
  8
0
  6
CADDY_SOLID
 10
186.4019165039062
 20
209.7320556640625
 30
0.0
 11
188.1339721679688
 21
210.7320556640625
 31
0.0
  0
LINE
  5
11E
  8
0
  6
CADDY_SOLID
 10
187.8349304199219
 20
208.25
 30
0.0
 11
186.8349304199219
 21
209.9820556640625
 31
0.0
  0
LINE
  5
11F
  8
0
  6
CADDY_SOLID
 10
188.2679443359375
 20
208.5
 30
0.0
 11
187.2679443359375
 21
210.2320556640625
 31
0.0
  0
LINE
  5
120
  8
0
  6
CADDY_SOLID
 10
188.7009582519531
 20
208.75
 30
0.0
 11
187.7009582519531
 21
210.4820556640625
 31
0.0
  0
LINE
  5
121
  8
0
  6
CADDY_SOLID
 10
187.618408203125
 20
208.125
 30
0.0
 11
186.618408203125
 21
209.8570556640625
 31
0.0
  0
LINE
  5
122
  8
0
  6
CADDY_SOLID
 10
188.0514526367188
 20
208.375
 30
0.0
 11
187.0514526367188
 21
210.1070556640625
 31
0.0
  0
LINE
  5
123
  8
0
  6
CADDY_SOLID
 10
188.4844360351562
 20
208.625
 30
0.0
 11
187.4844360351562
 21
210.3570556640625
 31
0.0
  0
LINE
  5
124
  8
0
  6
CADDY_SOLID
 10
188.91748046875
 20
208.875
 30
0.0
 11
187.91748046875
 21
210.6070556640625
 31
0.0
  0
LINE
  5
125
  8
0
  6
CADDY_SOLID
 10
187.488525390625
 20
208.0499877929688
 30
0.0
 11
186.488525390625
 21
209.7820434570312
 31
0.0
  0
LINE
  5
126
  8
0
  6
CADDY_SOLID
 10
187.7050170898438
 20
208.1749877929688
 30
0.0
 11
186.7050170898438
 21
209.9070434570312
 31
0.0
  0
LINE
  5
127
  8
0
  6
CADDY_SOLID
 10
187.9215393066406
 20
208.2999877929688
 30
0.0
 11
186.9215393066406
 21
210.0320434570312
 31
0.0
  0
LINE
  5
128
  8
0
  6
CADDY_SOLID
 10
188.1380615234375
 20
208.4249877929688
 30
0.0
 11
187.1380615234375
 21
210.1570434570312
 31
0.0
  0
LINE
  5
129
  8
0
  6
CADDY_SOLID
 10
188.3545532226562
 20
208.5499877929688
 30
0.0
 11
187.3545532226562
 21
210.2820434570312
 31
0.0
  0
LINE
  5
12A
  8
0
  6
CADDY_SOLID
 10
188.571044921875
 20
208.6749877929688
 30
0.0
 11
187.571044921875
 21
210.4070434570312
 31
0.0
  0
LINE
  5
12B
  8
0
  6
CADDY_SOLID
 10
188.7875671386719
 20
208.7999877929688
 30
0.0
 11
187.7875671386719
 21
210.5320434570312
 31
0.0
  0
LINE
  5
12C
  8
0
  6
CADDY_SOLID
 10
189.0040893554688
 20
208.9249877929688
 30
0.0
 11
188.0040893554688
 21
210.6570434570312
 31
0.0
  0
LINE
  5
12D
  8
0
  6
CADDY_SOLID
 10
188.5
 20
210.0
 30
0.0
 11
190.5
 21
210.0
 31
0.0
  0
LINE
  5
12E
  8
0
  6
CADDY_SOLID
 10
191.5
 20
210.0
 30
0.0
 11
193.5
 21
210.0
 31
0.0
  0
ATTDEF
  5
131
  8
0
 10
166.6935414520264
 20
208.8000030517578
 30
0.0
 40
2.449996948242188
  1
F0704
 41
0.9
  7
CADDY_VECTORFONT1P
 72
     2
 11
183.5000305175781
 21
208.8000030517578
 31
0.0
  3
Produkt (-)
  2
$TAG160010
 70
     0
  0
ATTDEF
  5
133
  8
0
 10
165.9570723693848
 20
201.8000030517578
 30
0.0
 40
2.449996948242188
  1
25974
 41
0.9
  7
CADDY_VECTORFONT1P
 72
     2
 11
183.5000305175781
 21
201.8000030517578
 31
0.0
  3
Type
  2
$TAG160040
 70
     1
  0
ATTDEF
  5
135
  8
0
 10
166.201796546936
 20
205.3000030517578
 30
0.0
 40
2.449996948242188
  1
10A
 41
0.9
  7
CADDY_VECTORFONT1P
 72
     2
 11
183.5
 21
205.3000030517578
 31
0.0
  3
Beskrivelse 00
  2
$TAG160030
 70
     0
  0
ATTDEF
  5
137
  8
0
 10
189.0500030517578
 20
214.4000091552734
 30
0.0
 40
2.449996948242188
  1
1
 50
90.0
 41
0.9
  7
CADDY_VECTORFONT1P
  3
Tilslutningstekst 00
  2
$TAG175000_00
 70
     0
  0
ATTDEF
  5
139
  8
0
 10
189.0500030517578
 20
182.9658327224732
 30
0.0
 40
2.449996948242188
  1
2
 50
90.0
 41
0.9
  7
CADDY_VECTORFONT1P
 72
     2
 11
189.0500030517578
 21
205.9000091552734
 31
0.0
  3
Tilslutningstekst 01
  2
$TAG175000_01
 70
     0
  0
LINE
  5
13A
  8
0
  6
CADDY_SOLID
 10
191.8999938964844
 20
210.0
 30
0.0
 11
193.556640625
 21
210.0
 31
0.0
  0
LINE
  5
13B
  8
0
  6
CADDY_SOLID
 10
192.0
 20
210.0
 30
0.0
 11
193.556640625
 21
210.0
 31
0.0
  0
INSERT
  5
13F
  8
0
 66
     1
  2
BLK8
 10
0.0
 20
0.0
 30
1.0
  0
ATTRIB
  5
144
  8
6
 10
197.4499969482422
 20
202.5000152587891
 30
0.0
 40
2.449996948242188
  1

 50
90.0
 41
0.9
  7
CADDY_VECTORFONT1P
 72
     2
 11
197.4499969482422
 21
202.5000152587891
 31
0.0
  2
$TAG160500
 70
     0
  0
ATTRIB
  5
148
  8
4
 10
194.0500030517578
 20
214.4000091552734
 30
0.0
 40
2.449996948242188
  1

 50
90.0
 41
0.9
  7
CADDY_VECTORFONT1P
  2
$TAG175000_00
 70
     0
  0
ATTRIB
  5
14A
  8
4
 10
194.0500030517578
 20
205.9000091552734
 30
0.0
 40
2.449996948242188
  1

 50
90.0
 41
0.9
  7
CADDY_VECTORFONT1P
 72
     2
 11
194.0500030517578
 21
205.9000091552734
 31
0.0
  2
$TAG175000_01
 70
     0
  0
SEQEND
  5
145
  8
0
  0
ATTDEF
  5
14D
  8
0
 10
165.9570571105957
 20
215.8000030517578
 30
0.0
 40
2.449996948242188
  1
=
 41
0.9
  7
CADDY_VECTORFONT1P
 72
     2
 11
183.5000152587891
 21
215.8000030517578
 31
0.0
  3
Funktion (=)
  2
$TAG140020
 70
     1
  0
ATTDEF
  5
14F
  8
0
 10
165.9570418518067
 20
212.3000030517578
 30
0.0
 40
2.449996948242188
  1
+
 41
0.9
  7
CADDY_VECTORFONT1P
 72
     2
 11
183.5
 21
212.3000030517578
 31
0.0
  3
Placering (+)
  2
$TAG140050
 70
     1
  0
ENDBLK
  8
0
  0
BLOCK
  8
0
  2
BLK8
 70
     2
 10
0.0
 20
0.0
 30
0.0
  0
LINE
  5
140
  8
0
  6
CADDY_SOLID
 10
195.0
 20
212.5
 30
0.0
 11
195.0
 21
215.0
 31
0.0
  0
LINE
  5
141
  8
0
  6
CADDY_SOLID
 10
195.0
 20
207.5
 30
0.0
 11
195.0
 21
205.0
 31
0.0
  0
LINE
  5
142
  8
0
  6
CADDY_SOLID
 10
195.0
 20
207.5
 30
0.0
 11
191.5849304199219
 21
213.4150695800781
 31
0.0
  0
ATTDEF
  5
146
  8
6
 10
197.4499969482422
 20
185.2018118057251
 30
0.0
 40
2.449996948242188
  1

 50
90.0
 41
0.9
  7
CADDY_VECTORFONT1P
 72
     2
 11
197.4499969482422
 21
202.5000152587891
 31
0.0
  3
Side/strømvej reference
  2
$TAG160500
 70
     0
  0
ATTDEF
  5
149
  8
4
 10
194.0500030517578
 20
214.4000091552734
 30
0.0
 40
2.449996948242188
  1

 50
90.0
 41
0.9
  7
CADDY_VECTORFONT1P
  3
Tilslutningstekst 00
  2
$TAG175000_00
 70
     0
  0
ATTDEF
  5
14B
  8
4
 10
194.0500030517578
 20
182.9658327224732
 30
0.0
 40
2.449996948242188
  1

 50
90.0
 41
0.9
  7
CADDY_VECTORFONT1P
 72
     2
 11
194.0500030517578
 21
205.9000091552734
 31
0.0
  3
Tilslutningstekst 01
  2
$TAG175000_01
 70
     0
  0
ENDBLK
  8
0
  0
BLOCK
  8
0
  2
BLK9
 70
     2
 10
0.0
 20
0.0
 30
0.0
  0
LINE
  5
154
  8
0
  6
CADDY_SOLID
 10
372.5
 20
105.0
 30
0.0
 11
370.25
 21
106.25
 31
0.0
  0
LINE
  5
155
  8
0
  6
CADDY_SOLID
 10
372.5
 20
105.0
 30
0.0
 11
370.25
 21
103.75
 31
0.0
  0
LINE
  5
156
  8
0
  6
CADDY_SOLID
 10
370.0
 20
105.0
 30
0.0
 11
372.5
 21
105.0
 31
0.0
  0
ATTDEF
  5
159
  8
0
 10
350.6934585983277
 20
105.9000091552734
 30
0.0
 40
2.450004577636719
  1
0707
 41
0.9
  7
CADDY_VECTORFONT1P
 72
     2
 11
367.5
 21
105.9000091552734
 31
0.0
  3
Produkt (-)
  2
$TAG160010
 70
     0
  0
ATTDEF
  5
15B
  8
0
 10
374.6500244140625
 20
103.8499908447266
 30
0.0
 40
2.450004577636719
  1
8.0
 41
0.9
  7
CADDY_VECTORFONT1P
  3
Side/strømvej reference
  2
$TAG160500
 70
     0
  0
ATTDEF
  5
15D
  8
0
 10
349.95698722229
 20
112.9000091552734
 30
0.0
 40
2.450004577636719
  1
=
 41
0.9
  7
CADDY_VECTORFONT1P
 72
     2
 11
367.5
 21
112.9000091552734
 31
0.0
  3
Funktion (=)
  2
$TAG140020
 70
     1
  0
ATTDEF
  5
15F
  8
0
 10
349.9570177398681
 20
109.4000091552734
 30
0.0
 40
2.450004577636719
  1
+
 41
0.9
  7
CADDY_VECTORFONT1P
 72
     2
 11
367.5000305175781
 21
109.4000091552734
 31
0.0
  3
Placering (+)
  2
$TAG140050
 70
     1
  0
ENDBLK
  8
0
  0
BLOCK
  8
0
  2
BLK10
 70
     2
 10
0.0
 20
0.0
 30
0.0
  0
LINE
  5
164
  8
0
  6
CADDY_SOLID
 10
337.5
 20
100.0
 30
0.0
 11
335.25
 21
101.25
 31
0.0
  0
LINE
  5
165
  8
0
  6
CADDY_SOLID
 10
337.5
 20
100.0
 30
0.0
 11
335.25
 21
98.75
 31
0.0
  0
LINE
  5
166
  8
0
  6
CADDY_SOLID
 10
335.0
 20
100.0
 30
0.0
 11
337.5
 21
100.0
 31
0.0
  0
ATTDEF
  5
169
  8
0
 10
315.6934891159058
 20
100.9000091552734
 30
0.0
 40
2.450004577636719
  1
24L2
 41
0.9
  7
CADDY_VECTORFONT1P
 72
     2
 11
332.5000305175781
 21
100.9000091552734
 31
0.0
  3
Produkt (-)
  2
$TAG160010
 70
     0
  0
ATTDEF
  5
16B
  8
0
 10
339.6500244140625
 20
98.84999084472656
 30
0.0
 40
2.450004577636719
  1

 41
0.9
  7
CADDY_VECTORFONT1P
  3
Side/strømvej reference
  2
$TAG160500
 70
     0
  0
ATTDEF
  5
16D
  8
0
 10
314.95698722229
 20
107.9000091552734
 30
0.0
 40
2.450004577636719
  1
=
 41
0.9
  7
CADDY_VECTORFONT1P
 72
     2
 11
332.5
 21
107.9000091552734
 31
0.0
  3
Funktion (=)
  2
$TAG140020
 70
     1
  0
ATTDEF
  5
16F
  8
0
 10
314.9570177398681
 20
104.4000091552734
 30
0.0
 40
2.450004577636719
  1
+
 41
0.9
  7
CADDY_VECTORFONT1P
 72
     2
 11
332.5000305175781
 21
104.4000091552734
 31
0.0
  3
Placering (+)
  2
$TAG140050
 70
     1
  0
ENDBLK
  8
0
  0
BLOCK
  8
0
  2
BLK11
 70
     2
 10
0.0
 20
0.0
 30
0.0
  0
LINE
  5
174
  8
0
  6
CADDY_SOLID
 10
70.0
 20
212.5
 30
0.0
 11
70.0
 21
215.0
 31
0.0
  0
LINE
  5
175
  8
0
  6
CADDY_SOLID
 10
70.0
 20
207.5
 30
0.0
 11
70.0
 21
205.0
 31
0.0
  0
LINE
  5
176
  8
0
  6
CADDY_SOLID
 10
70.0
 20
207.5
 30
0.0
 11
66.58493041992188
 21
213.4150695800781
 31
0.0
  0
LINE
  5
177
  8
0
  6
CADDY_SOLID
 10
69.13397216796875
 20
209.0
 30
0.0
 11
67.40191650390625
 21
208.0
 31
0.0
  0
LINE
  5
178
  8
0
  6
CADDY_SOLID
 10
67.40191650390625
 20
208.0
 30
0.0
 11
66.40191650390625
 21
209.7320556640625
 31
0.0
  0
LINE
  5
179
  8
0
  6
CADDY_SOLID
 10
66.40191650390625
 20
209.7320556640625
 30
0.0
 11
68.13397216796875
 21
210.7320556640625
 31
0.0
  0
LINE
  5
17A
  8
0
  6
CADDY_SOLID
 10
67.83493041992188
 20
208.25
 30
0.0
 11
66.83493041992188
 21
209.9820556640625
 31
0.0
  0
LINE
  5
17B
  8
0
  6
CADDY_SOLID
 10
68.2679443359375
 20
208.5
 30
0.0
 11
67.2679443359375
 21
210.2320556640625
 31
0.0
  0
LINE
  5
17C
  8
0
  6
CADDY_SOLID
 10
68.70095825195312
 20
208.75
 30
0.0
 11
67.70095825195312
 21
210.4820556640625
 31
0.0
  0
LINE
  5
17D
  8
0
  6
CADDY_SOLID
 10
67.618408203125
 20
208.125
 30
0.0
 11
66.618408203125
 21
209.8570556640625
 31
0.0
  0
LINE
  5
17E
  8
0
  6
CADDY_SOLID
 10
68.05145263671875
 20
208.375
 30
0.0
 11
67.05145263671875
 21
210.1070556640625
 31
0.0
  0
LINE
  5
17F
  8
0
  6
CADDY_SOLID
 10
68.48443603515625
 20
208.625
 30
0.0
 11
67.48443603515625
 21
210.3570556640625
 31
0.0
  0
LINE
  5
180
  8
0
  6
CADDY_SOLID
 10
68.91748046875
 20
208.875
 30
0.0
 11
67.91748046875
 21
210.6070556640625
 31
0.0
  0
LINE
  5
181
  8
0
  6
CADDY_SOLID
 10
67.488525390625
 20
208.0499877929688
 30
0.0
 11
66.488525390625
 21
209.7820434570312
 31
0.0
  0
LINE
  5
182
  8
0
  6
CADDY_SOLID
 10
67.70501708984375
 20
208.1749877929688
 30
0.0
 11
66.70501708984375
 21
209.9070434570312
 31
0.0
  0
LINE
  5
183
  8
0
  6
CADDY_SOLID
 10
67.92153930664062
 20
208.2999877929688
 30
0.0
 11
66.92153930664062
 21
210.0320434570312
 31
0.0
  0
LINE
  5
184
  8
0
  6
CADDY_SOLID
 10
68.1380615234375
 20
208.4249877929688
 30
0.0
 11
67.1380615234375
 21
210.1570434570312
 31
0.0
  0
LINE
  5
185
  8
0
  6
CADDY_SOLID
 10
68.35455322265625
 20
208.5499877929688
 30
0.0
 11
67.35455322265625
 21
210.2820434570312
 31
0.0
  0
LINE
  5
186
  8
0
  6
CADDY_SOLID
 10
68.571044921875
 20
208.6749877929688
 30
0.0
 11
67.571044921875
 21
210.4070434570312
 31
0.0
  0
LINE
  5
187
  8
0
  6
CADDY_SOLID
 10
68.78756713867188
 20
208.7999877929688
 30
0.0
 11
67.78756713867188
 21
210.5320434570312
 31
0.0
  0
LINE
  5
188
  8
0
  6
CADDY_SOLID
 10
69.00408935546875
 20
208.9249877929688
 30
0.0
 11
68.00408935546875
 21
210.6570434570312
 31
0.0
  0
LINE
  5
189
  8
0
  6
CADDY_SOLID
 10
68.5
 20
210.0
 30
0.0
 11
70.5
 21
210.0
 31
0.0
  0
LINE
  5
18A
  8
0
  6
CADDY_SOLID
 10
71.5
 20
210.0
 30
0.0
 11
73.5
 21
210.0
 31
0.0
  0
ATTDEF
  5
18D
  8
0
 10
46.69352237854004
 20
208.8000030517578
 30
0.0
 40
2.449996948242188
  1
F0701
 41
0.9
  7
CADDY_VECTORFONT1P
 72
     2
 11
63.5000114440918
 21
208.8000030517578
 31
0.0
  3
Produkt (-)
  2
$TAG160010
 70
     0
  0
ATTDEF
  5
18F
  8
0
 10
45.95704948120117
 20
201.8000030517578
 30
0.0
 40
2.449996948242188
  1
25974
 41
0.9
  7
CADDY_VECTORFONT1P
 72
     2
 11
63.50000762939453
 21
201.8000030517578
 31
0.0
  3
Type
  2
$TAG160040
 70
     1
  0
ATTDEF
  5
191
  8
0
 10
46.2018118057251
 20
205.3000030517578
 30
0.0
 40
2.449996948242188
  1
10A
 41
0.9
  7
CADDY_VECTORFONT1P
 72
     2
 11
63.50001525878906
 21
205.3000030517578
 31
0.0
  3
Beskrivelse 00
  2
$TAG160030
 70
     0
  0
ATTDEF
  5
193
  8
0
 10
69.05000305175781
 20
214.4000091552734
 30
0.0
 40
2.449996948242188
  1
1
 50
90.0
 41
0.9
  7
CADDY_VECTORFONT1P
  3
Tilslutningstekst 00
  2
$TAG175000_00
 70
     0
  0
ATTDEF
  5
195
  8
0
 10
69.05000305175781
 20
182.9658174636841
 30
0.0
 40
2.449996948242188
  1
2
 50
90.0
 41
0.9
  7
CADDY_VECTORFONT1P
 72
     2
 11
69.05000305175781
 21
205.8999938964844
 31
0.0
  3
Tilslutningstekst 01
  2
$TAG175000_01
 70
     0
  0
LINE
  5
196
  8
0
  6
CADDY_SOLID
 10
71.89999389648438
 20
210.0
 30
0.0
 11
73.556640625
 21
210.0
 31
0.0
  0
LINE
  5
197
  8
0
  6
CADDY_SOLID
 10
72.0
 20
210.0
 30
0.0
 11
73.556640625
 21
210.0
 31
0.0
  0
INSERT
  5
19B
  8
0
 66
     1
  2
BLK12
 10
0.0
 20
0.0
 30
1.0
  0
ATTRIB
  5
19F
  8
6
 10
77.44999694824219
 20
202.5
 30
0.0
 40
2.449996948242188
  1

 50
90.0
 41
0.9
  7
CADDY_VECTORFONT1P
 72
     2
 11
77.44999694824219
 21
202.5
 31
0.0
  2
$TAG160500
 70
     0
  0
ATTRIB
  5
1A2
  8
4
 10
74.05000305175781
 20
214.4000091552734
 30
0.0
 40
2.449996948242188
  1

 50
90.0
 41
0.9
  7
CADDY_VECTORFONT1P
  2
$TAG175000_00
 70
     0
  0
ATTRIB
  5
1A4
  8
4
 10
74.05000305175781
 20
205.8999938964844
 30
0.0
 40
2.449996948242188
  1

 50
90.0
 41
0.9
  7
CADDY_VECTORFONT1P
 72
     2
 11
74.05000305175781
 21
205.8999938964844
 31
0.0
  2
$TAG175000_01
 70
     0
  0
SEQEND
  5
1A0
  8
0
  0
ATTDEF
  5
1A7
  8
0
 10
45.95705329589844
 20
215.8000030517578
 30
0.0
 40
2.449996948242188
  1
=
 41
0.9
  7
CADDY_VECTORFONT1P
 72
     2
 11
63.5000114440918
 21
215.8000030517578
 31
0.0
  3
Funktion (=)
  2
$TAG140020
 70
     1
  0
ATTDEF
  5
1A9
  8
0
 10
45.95705711059571
 20
212.3000030517578
 30
0.0
 40
2.449996948242188
  1
+
 41
0.9
  7
CADDY_VECTORFONT1P
 72
     2
 11
63.50001525878906
 21
212.3000030517578
 31
0.0
  3
Placering (+)
  2
$TAG140050
 70
     1
  0
ENDBLK
  8
0
  0
BLOCK
  8
0
  2
BLK12
 70
     2
 10
0.0
 20
0.0
 30
0.0
  0
LINE
  5
19C
  8
0
  6
CADDY_SOLID
 10
75.0
 20
212.5
 30
0.0
 11
75.0
 21
215.0
 31
0.0
  0
LINE
  5
19D
  8
0
  6
CADDY_SOLID
 10
75.0
 20
207.5
 30
0.0
 11
75.0
 21
205.0
 31
0.0
  0
LINE
  5
19E
  8
0
  6
CADDY_SOLID
 10
75.0
 20
207.5
 30
0.0
 11
71.58493041992188
 21
213.4150695800781
 31
0.0
  0
ATTDEF
  5
1A1
  8
6
 10
77.44999694824219
 20
185.201796546936
 30
0.0
 40
2.449996948242188
  1

 50
90.0
 41
0.9
  7
CADDY_VECTORFONT1P
 72
     2
 11
77.44999694824219
 21
202.5
 31
0.0
  3
Side/strømvej reference
  2
$TAG160500
 70
     0
  0
ATTDEF
  5
1A3
  8
4
 10
74.05000305175781
 20
214.4000091552734
 30
0.0
 40
2.449996948242188
  1

 50
90.0
 41
0.9
  7
CADDY_VECTORFONT1P
  3
Tilslutningstekst 00
  2
$TAG175000_00
 70
     0
  0
ATTDEF
  5
1A5
  8
4
 10
74.05000305175781
 20
182.9658174636841
 30
0.0
 40
2.449996948242188
  1

 50
90.0
 41
0.9
  7
CADDY_VECTORFONT1P
 72
     2
 11
74.05000305175781
 21
205.8999938964844
 31
0.0
  3
Tilslutningstekst 01
  2
$TAG175000_01
 70
     0
  0
ENDBLK
  8
0
  0
BLOCK
  8
0
  2
BLK13
 70
     2
 10
0.0
 20
0.0
 30
0.0
  0
LINE
  5
1B9
  8
0
  6
CADDY_SOLID
 10
27.5
 20
70.0
 30
0.0
 11
25.25
 21
71.25
 31
0.0
  0
LINE
  5
1BA
  8
0
  6
CADDY_SOLID
 10
27.5
 20
70.0
 30
0.0
 11
25.25
 21
68.75
 31
0.0
  0
ATTDEF
  5
1BD
  8
0
 10
29.26500701904297
 20
70.89999389648438
 30
0.0
 40
2.450004577636719
  1
PE
 41
0.9
  7
CADDY_VECTORFONT1P
  3
Produkt (-)
  2
$TAG160010
 70
     0
  0
ATTDEF
  5
1BF
  8
0
 10
5.486740619659422
 20
68.94999694824219
 30
0.0
 40
2.450004577636719
  1
6.9
 41
0.9
  7
CADDY_VECTORFONT1P
 72
     2
 11
22.78499794006348
 21
68.94999694824219
 31
0.0
  3
Side/strømvej reference
  2
$TAG160500
 70
     0
  0
ATTDEF
  5
1C1
  8
0
 10
29.26500701904297
 20
77.89999389648438
 30
0.0
 40
2.450004577636719
  1
=
 41
0.9
  7
CADDY_VECTORFONT1P
  3
Funktion (=)
  2
$TAG140020
 70
     1
  0
ATTDEF
  5
1C3
  8
0
 10
29.26500701904297
 20
74.39999389648438
 30
0.0
 40
2.450004577636719
  1
+
 41
0.9
  7
CADDY_VECTORFONT1P
  3
Placering (+)
  2
$TAG140050
 70
     1
  0
ENDBLK
  8
0
  0
BLOCK
  8
0
  2
BLK14
 70
     2
 10
0.0
 20
0.0
 30
0.0
  0
LINE
  5
1C8
  8
0
  6
CADDY_SOLID
 10
392.5
 20
70.0
 30
0.0
 11
390.25
 21
71.25
 31
0.0
  0
LINE
  5
1C9
  8
0
  6
CADDY_SOLID
 10
392.5
 20
70.0
 30
0.0
 11
390.25
 21
68.75
 31
0.0
  0
ATTDEF
  5
1CC
  8
0
 10
370.9784927780152
 20
70.89999389648438
 30
0.0
 40
2.450004577636719
  1
PE
 41
0.9
  7
CADDY_VECTORFONT1P
 72
     2
 11
387.7850341796875
 21
70.89999389648438
 31
0.0
  3
Produkt (-)
  2
$TAG160010
 70
     0
  0
ATTDEF
  5
1CE
  8
0
 10
393.3650207519531
 20
68.94999694824219
 30
0.0
 40
2.450004577636719
  1
11.0
 41
0.9
  7
CADDY_VECTORFONT1P
  3
Side/strømvej reference
  2
$TAG160500
 70
     0
  0
ATTDEF
  5
1D0
  8
0
 10
370.2419908843994
 20
77.89999389648438
 30
0.0
 40
2.450004577636719
  1
=
 41
0.9
  7
CADDY_VECTORFONT1P
 72
     2
 11
387.7850036621094
 21
77.89999389648438
 31
0.0
  3
Funktion (=)
  2
$TAG140020
 70
     1
  0
ATTDEF
  5
1D2
  8
0
 10
370.2419908843994
 20
74.39999389648438
 30
0.0
 40
2.450004577636719
  1
+
 41
0.9
  7
CADDY_VECTORFONT1P
 72
     2
 11
387.7850036621094
 21
74.39999389648438
 31
0.0
  3
Placering (+)
  2
$TAG140050
 70
     1
  0
ENDBLK
  8
0
  0
BLOCK
  8
0
  2
BLK15
 70
     2
 10
0.0
 20
0.0
 30
0.0
  0
LINE
  5
1E5
  8
0
  6
CADDY_SOLID
 10
269.0
 20
206.5
 30
0.0
 11
269.0
 21
213.5
 31
0.0
  0
LINE
  5
1E6
  8
0
  6
CADDY_SOLID
 10
271.0
 20
206.5
 30
0.0
 11
271.0
 21
213.5
 31
0.0
  0
LINE
  5
1E7
  8
0
  6
CADDY_SOLID
 10
271.0
 20
213.5
 30
0.0
 11
269.0
 21
213.5
 31
0.0
  0
LINE
  5
1E8
  8
0
  6
CADDY_SOLID
 10
270.0
 20
205.0
 30
0.0
 11
270.0
 21
215.0
 31
0.0
  0
LINE
  5
1E9
  8
0
  6
CADDY_SOLID
 10
271.0
 20
206.5
 30
0.0
 11
269.0
 21
206.5
 31
0.0
  0
ATTDEF
  5
1EC
  8
0
 10
247.8934621063233
 20
208.8000030517578
 30
0.0
 40
2.449996948242188
  1
F0706
 41
0.9
  7
CADDY_VECTORFONT1P
 72
     2
 11
264.699951171875
 21
208.8000030517578
 31
0.0
  3
Produkt (-)
  2
$TAG160010
 70
     0
  0
ATTDEF
  5
1EE
  8
0
 10
247.1570235412598
 20
201.8000030517578
 30
0.0
 40
2.449996948242188
  1
ST4-HESILED 24
 41
0.9
  7
CADDY_VECTORFONT1P
 72
     2
 11
264.6999816894531
 21
201.8000030517578
 31
0.0
  3
Type
  2
$TAG160040
 70
     1
  0
ATTDEF
  5
1F0
  8
0
 10
247.4018087539673
 20
205.3000030517578
 30
0.0
 40
2.449996948242188
  1
3,15A
 41
0.9
  7
CADDY_VECTORFONT1P
 72
     2
 11
264.7000122070312
 21
205.3000030517578
 31
0.0
  3
Beskrivelse 00
  2
$TAG160030
 70
     0
  0
ATTDEF
  5
1F2
  8
0
 10
269.0499877929688
 20
214.4000091552734
 30
0.0
 40
2.449996948242188
  1
1
 50
90.0
 41
0.9
  7
CADDY_VECTORFONT1P
  3
Tilslutningstekst 00
  2
$TAG175000_00
 70
     0
  0
ATTDEF
  5
1F4
  8
0
 10
269.0499877929688
 20
181.9658479812622
 30
0.0
 40
2.449996948242188
  1
2
 50
90.0
 41
0.9
  7
CADDY_VECTORFONT1P
 72
     2
 11
269.0499877929688
 21
204.9000244140625
 31
0.0
  3
Tilslutningstekst 01
  2
$TAG175000_01
 70
     0
  0
ATTDEF
  5
1F6
  8
0
 10
247.1570235412598
 20
215.8000030517578
 30
0.0
 40
2.449996948242188
  1
=
 41
0.9
  7
CADDY_VECTORFONT1P
 72
     2
 11
264.6999816894531
 21
215.8000030517578
 31
0.0
  3
Funktion (=)
  2
$TAG140020
 70
     1
  0
ATTDEF
  5
1F8
  8
0
 10
247.1570540588379
 20
212.3000030517578
 30
0.0
 40
2.449996948242188
  1
+
 41
0.9
  7
CADDY_VECTORFONT1P
 72
     2
 11
264.7000122070312
 21
212.3000030517578
 31
0.0
  3
Placering (+)
  2
$TAG140050
 70
     1
  0
ENDBLK
  8
0
  0
BLOCK
  8
0
  2
BLK16
 70
     2
 10
0.0
 20
0.0
 30
0.0
  0
LINE
  5
1FD
  8
0
  6
CADDY_SOLID
 10
309.0
 20
206.5
 30
0.0
 11
309.0
 21
213.5
 31
0.0
  0
LINE
  5
1FE
  8
0
  6
CADDY_SOLID
 10
311.0
 20
206.5
 30
0.0
 11
311.0
 21
213.5
 31
0.0
  0
LINE
  5
1FF
  8
0
  6
CADDY_SOLID
 10
311.0
 20
213.5
 30
0.0
 11
309.0
 21
213.5
 31
0.0
  0
LINE
  5
200
  8
0
  6
CADDY_SOLID
 10
310.0
 20
205.0
 30
0.0
 11
310.0
 21
215.0
 31
0.0
  0
LINE
  5
201
  8
0
  6
CADDY_SOLID
 10
311.0
 20
206.5
 30
0.0
 11
309.0
 21
206.5
 31
0.0
  0
ATTDEF
  5
204
  8
0
 10
287.8934926239014
 20
208.8000030517578
 30
0.0
 40
2.449996948242188
  1
F0707
 41
0.9
  7
CADDY_VECTORFONT1P
 72
     2
 11
304.6999816894531
 21
208.8000030517578
 31
0.0
  3
Produkt (-)
  2
$TAG160010
 70
     0
  0
ATTDEF
  5
206
  8
0
 10
287.1569930236817
 20
201.8000030517578
 30
0.0
 40
2.449996948242188
  1
ST4-HESILED 24
 41
0.9
  7
CADDY_VECTORFONT1P
 72
     2
 11
304.699951171875
 21
201.8000030517578
 31
0.0
  3
Type
  2
$TAG160040
 70
     1
  0
ATTDEF
  5
208
  8
0
 10
287.4018087539673
 20
205.3000030517578
 30
0.0
 40
2.449996948242188
  1
3,15A
 41
0.9
  7
CADDY_VECTORFONT1P
 72
     2
 11
304.7000122070312
 21
205.3000030517578
 31
0.0
  3
Beskrivelse 00
  2
$TAG160030
 70
     0
  0
ATTDEF
  5
20A
  8
0
 10
309.0499877929688
 20
214.4000091552734
 30
0.0
 40
2.449996948242188
  1
1
 50
90.0
 41
0.9
  7
CADDY_VECTORFONT1P
  3
Tilslutningstekst 00
  2
$TAG175000_00
 70
     0
  0
ATTDEF
  5
20C
  8
0
 10
309.0499877929688
 20
181.9658479812622
 30
0.0
 40
2.449996948242188
  1
2
 50
90.0
 41
0.9
  7
CADDY_VECTORFONT1P
 72
     2
 11
309.0499877929688
 21
204.9000244140625
 31
0.0
  3
Tilslutningstekst 01
  2
$TAG175000_01
 70
     0
  0
ATTDEF
  5
20E
  8
0
 10
287.1570235412598
 20
215.8000030517578
 30
0.0
 40
2.449996948242188
  1
=
 41
0.9
  7
CADDY_VECTORFONT1P
 72
     2
 11
304.6999816894531
 21
215.8000030517578
 31
0.0
  3
Funktion (=)
  2
$TAG140020
 70
     1
  0
ATTDEF
  5
210
  8
0
 10
287.1570540588379
 20
212.3000030517578
 30
0.0
 40
2.449996948242188
  1
+
 41
0.9
  7
CADDY_VECTORFONT1P
 72
     2
 11
304.7000122070312
 21
212.3000030517578
 31
0.0
  3
Placering (+)
  2
$TAG140050
 70
     1
  0
ENDBLK
  8
0
  0
BLOCK
  8
0
  2
BLK17
 70
     2
 10
0.0
 20
0.0
 30
0.0
  0
LINE
  5
21F
  8
0
  6
CADDY_SOLID
 10
310.0
 20
187.5
 30
0.0
 11
310.0
 21
190.0
 31
0.0
  0
LINE
  5
220
  8
0
  6
CADDY_SOLID
 10
310.0
 20
182.5
 30
0.0
 11
310.0
 21
180.0
 31
0.0
  0
LINE
  5
221
  8
0
  6
CADDY_SOLID
 10
310.0
 20
182.5
 30
0.0
 11
306.5849304199219
 21
188.4150695800781
 31
0.0
  0
ATTDEF
  5
224
  8
0
 10
287.1935109344482
 20
183.8000030517578
 30
0.0
 40
2.449996948242188
  1
K1101
 41
0.9
  7
CADDY_VECTORFONT1P
 72
     2
 11
304.0
 21
183.8000030517578
 31
0.0
  3
Produkt (-)
  2
$TAG160010
 70
     0
  0
ATTDEF
  5
226
  8
0
 10
286.7018270645142
 20
180.3000030517578
 30
0.0
 40
2.449996948242188
  1

 41
0.9
  7
CADDY_VECTORFONT1P
 72
     2
 11
304.0000305175781
 21
180.3000030517578
 31
0.0
  3
Side/strømvej reference
  2
$TAG160500
 70
     0
  0
ATTDEF
  5
228
  8
0
 10
309.0499877929688
 20
189.3000183105469
 30
0.0
 40
2.449996948242188
  1
13
 50
90.0
 41
0.9
  7
CADDY_VECTORFONT1P
  3
Tilslutningstekst 00
  2
$TAG175000_00
 70
     0
  0
ATTDEF
  5
22A
  8
0
 10
309.0499877929688
 20
157.9658479812622
 30
0.0
 40
2.449996948242188
  1
14
 50
90.0
 41
0.9
  7
CADDY_VECTORFONT1P
 72
     2
 11
309.0499877929688
 21
180.9000244140625
 31
0.0
  3
Tilslutningstekst 01
  2
$TAG175000_01
 70
     0
  0
ENDBLK
  8
0
  0
BLOCK
  8
0
  2
BLK18
 70
     2
 10
0.0
 20
0.0
 30
0.0
  0
CIRCLE
  5
232
  8
0
  6
CADDY_SOLID
 10
270.0
 20
137.5
 30
0.0
 40
0.75
  0
LINE
  5
233
  8
0
  6
CADDY_SOLID
 10
270.0
 20
138.25
 30
0.0
 11
270.0
 21
140.0
 31
0.0
  0
LINE
  5
234
  8
0
  6
CADDY_SOLID
 10
270.0
 20
135.0
 30
0.0
 11
270.0
 21
136.75
 31
0.0
  0
ATTDEF
  5
238
  8
2
 10
248.2435292449951
 20
136.3000030517578
 30
0.0
 40
2.449996948242188
  1
-X0
 41
0.9
  7
CADDY_VECTORFONT1P
 72
     2
 11
265.0500183105469
 21
136.3000030517578
 31
0.0
  3
Produkt (-)
  2
$TAG160010
 70
     0
  0
ATTDEF
  5
23A
  8
2
 10
269.0999755859375
 20
139.2000122070312
 30
0.0
 40
2.449996948242188
  1
1
 50
90.0
 41
0.9
  7
CADDY_VECTORFONT1P
  3
Klemmenummer
  2
$TAG160400
 70
     0
  0
ATTDEF
  5
23C
  8
0
 10
272.5999755859375
 20
139.2000122070312
 30
0.0
 40
2.449996948242188
  1
1911773
 50
90.0
 41
0.9
  7
CADDY_VECTORFONT1P
  3
Sorteringsindeks
  2
$TAG160410
 70
     1
  0
ATTDEF
  5
23E
  8
2
 10
247.7518148574829
 20
132.8000030517578
 30
0.0
 40
2.449996948242188
  1

 41
0.9
  7
CADDY_VECTORFONT1P
 72
     2
 11
265.0500183105469
 21
132.8000030517578
 31
0.0
  3
Beskrivelse 00
  2
$TAG160030
 70
     1
  0
ATTDEF
  5
240
  8
2
 10
247.5069991271973
 20
127.8000030517578
 30
0.0
 40
2.449996948242188
  1
AB1RR235U2GR
 41
0.9
  7
CADDY_VECTORFONT1P
 72
     2
 11
265.0499572753906
 21
127.8000030517578
 31
0.0
  3
Type
  2
$TAG160040
 70
     1
  0
ATTDEF
  5
242
  8
2
 10
247.5070296447754
 20
143.3000030517578
 30
0.0
 40
2.449996948242188
  1
=
 41
0.9
  7
CADDY_VECTORFONT1P
 72
     2
 11
265.0499877929688
 21
143.3000030517578
 31
0.0
  3
Funktion (=)
  2
$TAG140020
 70
     1
  0
ATTDEF
  5
244
  8
2
 10
247.5070601623535
 20
139.8000030517578
 30
0.0
 40
2.449996948242188
  1
+
 41
0.9
  7
CADDY_VECTORFONT1P
 72
     2
 11
265.0500183105469
 21
139.8000030517578
 31
0.0
  3
Placering (+)
  2
$TAG140050
 70
     1
  0
ENDBLK
  8
0
  0
BLOCK
  8
0
  2
BLK19
 70
     2
 10
0.0
 20
0.0
 30
0.0
  0
CIRCLE
  5
249
  8
0
  6
CADDY_SOLID
 10
275.0
 20
137.5
 30
0.0
 40
0.75
  0
LINE
  5
24A
  8
0
  6
CADDY_SOLID
 10
275.0
 20
138.25
 30
0.0
 11
275.0
 21
140.0
 31
0.0
  0
LINE
  5
24B
  8
0
  6
CADDY_SOLID
 10
275.0
 20
135.0
 30
0.0
 11
275.0
 21
136.75
 31
0.0
  0
ATTDEF
  5
24E
  8
2
 10
253.2435597625733
 20
136.3000030517578
 30
0.0
 40
2.449996948242188
  1
-X1
 41
0.9
  7
CADDY_VECTORFONT1P
 72
     2
 11
270.050048828125
 21
136.3000030517578
 31
0.0
  3
Produkt (-)
  2
$TAG160010
 70
     1
  0
ATTDEF
  5
250
  8
2
 10
274.0999755859375
 20
139.2000122070312
 30
0.0
 40
2.449996948242188
  1
2
 50
90.0
 41
0.9
  7
CADDY_VECTORFONT1P
  3
Klemmenummer
  2
$TAG160400
 70
     0
  0
ATTDEF
  5
252
  8
0
 10
277.5999755859375
 20
139.2000122070312
 30
0.0
 40
2.449996948242188
  1
1911774
 50
90.0
 41
0.9
  7
CADDY_VECTORFONT1P
  3
Sorteringsindeks
  2
$TAG160410
 70
     1
  0
ATTDEF
  5
254
  8
2
 10
252.7518148574829
 20
132.8000030517578
 30
0.0
 40
2.449996948242188
  1

 41
0.9
  7
CADDY_VECTORFONT1P
 72
     2
 11
270.0500183105469
 21
132.8000030517578
 31
0.0
  3
Beskrivelse 00
  2
$TAG160030
 70
     1
  0
ATTDEF
  5
256
  8
2
 10
252.5069991271973
 20
127.8000030517578
 30
0.0
 40
2.449996948242188
  1
AB1RR235U2GR
 41
0.9
  7
CADDY_VECTORFONT1P
 72
     2
 11
270.0499572753906
 21
127.8000030517578
 31
0.0
  3
Type
  2
$TAG160040
 70
     1
  0
ATTDEF
  5
258
  8
2
 10
252.5070296447754
 20
143.3000030517578
 30
0.0
 40
2.449996948242188
  1
=
 41
0.9
  7
CADDY_VECTORFONT1P
 72
     2
 11
270.0499877929688
 21
143.3000030517578
 31
0.0
  3
Funktion (=)
  2
$TAG140020
 70
     1
  0
ATTDEF
  5
25A
  8
2
 10
252.5070601623535
 20
139.8000030517578
 30
0.0
 40
2.449996948242188
  1
+
 41
0.9
  7
CADDY_VECTORFONT1P
 72
     2
 11
270.0500183105469
 21
139.8000030517578
 31
0.0
  3
Placering (+)
  2
$TAG140050
 70
     1
  0
ENDBLK
  8
0
  0
BLOCK
  8
0
  2
BLK20
 70
     2
 10
0.0
 20
0.0
 30
0.0
  0
CIRCLE
  5
25F
  8
0
  6
CADDY_SOLID
 10
280.0
 20
137.5
 30
0.0
 40
0.75
  0
LINE
  5
260
  8
0
  6
CADDY_SOLID
 10
280.0
 20
138.25
 30
0.0
 11
280.0
 21
140.0
 31
0.0
  0
LINE
  5
261
  8
0
  6
CADDY_SOLID
 10
280.0
 20
135.0
 30
0.0
 11
280.0
 21
136.75
 31
0.0
  0
ATTDEF
  5
264
  8
2
 10
258.2435597625732
 20
136.3000030517578
 30
0.0
 40
2.449996948242188
  1
-X1
 41
0.9
  7
CADDY_VECTORFONT1P
 72
     2
 11
275.050048828125
 21
136.3000030517578
 31
0.0
  3
Produkt (-)
  2
$TAG160010
 70
     1
  0
ATTDEF
  5
266
  8
2
 10
279.0999755859375
 20
139.2000122070312
 30
0.0
 40
2.449996948242188
  1
3
 50
90.0
 41
0.9
  7
CADDY_VECTORFONT1P
  3
Klemmenummer
  2
$TAG160400
 70
     0
  0
ATTDEF
  5
268
  8
0
 10
282.5999755859375
 20
139.2000122070312
 30
0.0
 40
2.449996948242188
  1
1911775
 50
90.0
 41
0.9
  7
CADDY_VECTORFONT1P
  3
Sorteringsindeks
  2
$TAG160410
 70
     1
  0
ATTDEF
  5
26A
  8
2
 10
257.7518148574829
 20
132.8000030517578
 30
0.0
 40
2.449996948242188
  1

 41
0.9
  7
CADDY_VECTORFONT1P
 72
     2
 11
275.0500183105469
 21
132.8000030517578
 31
0.0
  3
Beskrivelse 00
  2
$TAG160030
 70
     1
  0
ATTDEF
  5
26C
  8
2
 10
257.5069686096192
 20
127.8000030517578
 30
0.0
 40
2.449996948242188
  1
AB1RR235U2GR
 41
0.9
  7
CADDY_VECTORFONT1P
 72
     2
 11
275.0499267578125
 21
127.8000030517578
 31
0.0
  3
Type
  2
$TAG160040
 70
     1
  0
ATTDEF
  5
26E
  8
2
 10
257.5070296447754
 20
143.3000030517578
 30
0.0
 40
2.449996948242188
  1
=
 41
0.9
  7
CADDY_VECTORFONT1P
 72
     2
 11
275.0499877929688
 21
143.3000030517578
 31
0.0
  3
Funktion (=)
  2
$TAG140020
 70
     1
  0
ATTDEF
  5
270
  8
2
 10
257.5070601623535
 20
139.8000030517578
 30
0.0
 40
2.449996948242188
  1
+
 41
0.9
  7
CADDY_VECTORFONT1P
 72
     2
 11
275.0500183105469
 21
139.8000030517578
 31
0.0
  3
Placering (+)
  2
$TAG140050
 70
     1
  0
ENDBLK
  8
0
  0
BLOCK
  8
0
  2
BLK21
 70
     2
 10
0.0
 20
0.0
 30
0.0
  0
CIRCLE
  5
275
  8
0
  6
CADDY_SOLID
 10
310.0
 20
137.5
 30
0.0
 40
0.75
  0
LINE
  5
276
  8
0
  6
CADDY_SOLID
 10
310.0
 20
138.25
 30
0.0
 11
310.0
 21
140.0
 31
0.0
  0
LINE
  5
277
  8
0
  6
CADDY_SOLID
 10
310.0
 20
135.0
 30
0.0
 11
310.0
 21
136.75
 31
0.0
  0
ATTDEF
  5
27A
  8
2
 10
288.2435292449951
 20
136.3000030517578
 30
0.0
 40
2.449996948242188
  1
-X0
 41
0.9
  7
CADDY_VECTORFONT1P
 72
     2
 11
305.0500183105469
 21
136.3000030517578
 31
0.0
  3
Produkt (-)
  2
$TAG160010
 70
     0
  0
ATTDEF
  5
27C
  8
2
 10
309.0999755859375
 20
139.2000122070312
 30
0.0
 40
2.449996948242188
  1
4
 50
90.0
 41
0.9
  7
CADDY_VECTORFONT1P
  3
Klemmenummer
  2
$TAG160400
 70
     0
  0
ATTDEF
  5
27E
  8
0
 10
312.5999755859375
 20
139.2000122070312
 30
0.0
 40
2.449996948242188
  1
1911776
 50
90.0
 41
0.9
  7
CADDY_VECTORFONT1P
  3
Sorteringsindeks
  2
$TAG160410
 70
     1
  0
ATTDEF
  5
280
  8
2
 10
287.7518148574829
 20
132.8000030517578
 30
0.0
 40
2.449996948242188
  1

 41
0.9
  7
CADDY_VECTORFONT1P
 72
     2
 11
305.0500183105469
 21
132.8000030517578
 31
0.0
  3
Beskrivelse 00
  2
$TAG160030
 70
     1
  0
ATTDEF
  5
282
  8
2
 10
287.5069686096192
 20
127.8000030517578
 30
0.0
 40
2.449996948242188
  1
AB1RR235U2GR
 41
0.9
  7
CADDY_VECTORFONT1P
 72
     2
 11
305.0499267578125
 21
127.8000030517578
 31
0.0
  3
Type
  2
$TAG160040
 70
     1
  0
ATTDEF
  5
284
  8
2
 10
287.5070296447754
 20
143.3000030517578
 30
0.0
 40
2.449996948242188
  1
=
 41
0.9
  7
CADDY_VECTORFONT1P
 72
     2
 11
305.0499877929688
 21
143.3000030517578
 31
0.0
  3
Funktion (=)
  2
$TAG140020
 70
     1
  0
ATTDEF
  5
286
  8
2
 10
287.5070601623535
 20
139.8000030517578
 30
0.0
 40
2.449996948242188
  1
+
 41
0.9
  7
CADDY_VECTORFONT1P
 72
     2
 11
305.0500183105469
 21
139.8000030517578
 31
0.0
  3
Placering (+)
  2
$TAG140050
 70
     1
  0
ENDBLK
  8
0
  0
BLOCK
  8
0
  2
BLK22
 70
     2
 10
0.0
 20
0.0
 30
0.0
  0
CIRCLE
  5
28B
  8
0
  6
CADDY_SOLID
 10
315.0
 20
137.5
 30
0.0
 40
0.75
  0
LINE
  5
28C
  8
0
  6
CADDY_SOLID
 10
315.0
 20
138.25
 30
0.0
 11
315.0
 21
140.0
 31
0.0
  0
LINE
  5
28D
  8
0
  6
CADDY_SOLID
 10
315.0
 20
135.0
 30
0.0
 11
315.0
 21
136.75
 31
0.0
  0
ATTDEF
  5
290
  8
2
 10
293.2435597625732
 20
136.3000030517578
 30
0.0
 40
2.449996948242188
  1
-X1
 41
0.9
  7
CADDY_VECTORFONT1P
 72
     2
 11
310.050048828125
 21
136.3000030517578
 31
0.0
  3
Produkt (-)
  2
$TAG160010
 70
     1
  0
ATTDEF
  5
292
  8
2
 10
314.0999755859375
 20
139.2000122070312
 30
0.0
 40
2.449996948242188
  1
5
 50
90.0
 41
0.9
  7
CADDY_VECTORFONT1P
  3
Klemmenummer
  2
$TAG160400
 70
     0
  0
ATTDEF
  5
294
  8
0
 10
317.5999755859375
 20
139.2000122070312
 30
0.0
 40
2.449996948242188
  1
1911777
 50
90.0
 41
0.9
  7
CADDY_VECTORFONT1P
  3
Sorteringsindeks
  2
$TAG160410
 70
     1
  0
ATTDEF
  5
296
  8
2
 10
292.7518148574829
 20
132.8000030517578
 30
0.0
 40
2.449996948242188
  1

 41
0.9
  7
CADDY_VECTORFONT1P
 72
     2
 11
310.0500183105469
 21
132.8000030517578
 31
0.0
  3
Beskrivelse 00
  2
$TAG160030
 70
     1
  0
ATTDEF
  5
298
  8
2
 10
292.5069686096192
 20
127.8000030517578
 30
0.0
 40
2.449996948242188
  1
AB1RR235U2GR
 41
0.9
  7
CADDY_VECTORFONT1P
 72
     2
 11
310.0499267578125
 21
127.8000030517578
 31
0.0
  3
Type
  2
$TAG160040
 70
     1
  0
ATTDEF
  5
29A
  8
2
 10
292.5070296447754
 20
143.3000030517578
 30
0.0
 40
2.449996948242188
  1
=
 41
0.9
  7
CADDY_VECTORFONT1P
 72
     2
 11
310.0499877929688
 21
143.3000030517578
 31
0.0
  3
Funktion (=)
  2
$TAG140020
 70
     1
  0
ATTDEF
  5
29C
  8
2
 10
292.5070601623535
 20
139.8000030517578
 30
0.0
 40
2.449996948242188
  1
+
 41
0.9
  7
CADDY_VECTORFONT1P
 72
     2
 11
310.0500183105469
 21
139.8000030517578
 31
0.0
  3
Placering (+)
  2
$TAG140050
 70
     1
  0
ENDBLK
  8
0
  0
BLOCK
  8
0
  2
BLK23
 70
     2
 10
0.0
 20
0.0
 30
0.0
  0
CIRCLE
  5
2A1
  8
0
  6
CADDY_SOLID
 10
320.0
 20
137.5
 30
0.0
 40
0.75
  0
LINE
  5
2A2
  8
0
  6
CADDY_SOLID
 10
320.0
 20
138.25
 30
0.0
 11
320.0
 21
140.0
 31
0.0
  0
LINE
  5
2A3
  8
0
  6
CADDY_SOLID
 10
320.0
 20
135.0
 30
0.0
 11
320.0
 21
136.75
 31
0.0
  0
ATTDEF
  5
2A6
  8
2
 10
298.2435597625732
 20
136.3000030517578
 30
0.0
 40
2.449996948242188
  1
-X1
 41
0.9
  7
CADDY_VECTORFONT1P
 72
     2
 11
315.050048828125
 21
136.3000030517578
 31
0.0
  3
Produkt (-)
  2
$TAG160010
 70
     1
  0
ATTDEF
  5
2A8
  8
2
 10
319.0999755859375
 20
139.2000122070312
 30
0.0
 40
2.449996948242188
  1
6
 50
90.0
 41
0.9
  7
CADDY_VECTORFONT1P
  3
Klemmenummer
  2
$TAG160400
 70
     0
  0
ATTDEF
  5
2AA
  8
0
 10
322.5999755859375
 20
139.2000122070312
 30
0.0
 40
2.449996948242188
  1
1911778
 50
90.0
 41
0.9
  7
CADDY_VECTORFONT1P
  3
Sorteringsindeks
  2
$TAG160410
 70
     1
  0
ATTDEF
  5
2AC
  8
2
 10
297.7518148574829
 20
132.8000030517578
 30
0.0
 40
2.449996948242188
  1

 41
0.9
  7
CADDY_VECTORFONT1P
 72
     2
 11
315.0500183105469
 21
132.8000030517578
 31
0.0
  3
Beskrivelse 00
  2
$TAG160030
 70
     1
  0
ATTDEF
  5
2AE
  8
2
 10
297.5069686096192
 20
127.8000030517578
 30
0.0
 40
2.449996948242188
  1
AB1RR235U2GR
 41
0.9
  7
CADDY_VECTORFONT1P
 72
     2
 11
315.0499267578125
 21
127.8000030517578
 31
0.0
  3
Type
  2
$TAG160040
 70
     1
  0
ATTDEF
  5
2B0
  8
2
 10
297.5070296447754
 20
143.3000030517578
 30
0.0
 40
2.449996948242188
  1
=
 41
0.9
  7
CADDY_VECTORFONT1P
 72
     2
 11
315.0499877929688
 21
143.3000030517578
 31
0.0
  3
Funktion (=)
  2
$TAG140020
 70
     1
  0
ATTDEF
  5
2B2
  8
2
 10
297.5070601623535
 20
139.8000030517578
 30
0.0
 40
2.449996948242188
  1
+
 41
0.9
  7
CADDY_VECTORFONT1P
 72
     2
 11
315.0500183105469
 21
139.8000030517578
 31
0.0
  3
Placering (+)
  2
$TAG140050
 70
     1
  0
ENDBLK
  8
0
  0
BLOCK
  8
0
  2
BLK24
 70
     2
 10
0.0
 20
0.0
 30
0.0
  0
CIRCLE
  5
2B7
  8
0
  6
CADDY_SOLID
 10
350.0
 20
137.5
 30
0.0
 40
0.75
  0
LINE
  5
2B8
  8
0
  6
CADDY_SOLID
 10
350.0
 20
138.25
 30
0.0
 11
350.0
 21
140.0
 31
0.0
  0
LINE
  5
2B9
  8
0
  6
CADDY_SOLID
 10
350.0
 20
135.0
 30
0.0
 11
350.0
 21
136.75
 31
0.0
  0
ATTDEF
  5
2BC
  8
2
 10
328.2435292449951
 20
136.3000030517578
 30
0.0
 40
2.449996948242188
  1
-X0
 41
0.9
  7
CADDY_VECTORFONT1P
 72
     2
 11
345.0500183105469
 21
136.3000030517578
 31
0.0
  3
Produkt (-)
  2
$TAG160010
 70
     0
  0
ATTDEF
  5
2BE
  8
2
 10
349.0999755859375
 20
139.2000122070312
 30
0.0
 40
2.449996948242188
  1
7
 50
90.0
 41
0.9
  7
CADDY_VECTORFONT1P
  3
Klemmenummer
  2
$TAG160400
 70
     0
  0
ATTDEF
  5
2C0
  8
0
 10
352.5999755859375
 20
139.2000122070312
 30
0.0
 40
2.449996948242188
  1
1911779
 50
90.0
 41
0.9
  7
CADDY_VECTORFONT1P
  3
Sorteringsindeks
  2
$TAG160410
 70
     1
  0
ATTDEF
  5
2C2
  8
2
 10
327.7518148574829
 20
132.8000030517578
 30
0.0
 40
2.449996948242188
  1

 41
0.9
  7
CADDY_VECTORFONT1P
 72
     2
 11
345.0500183105469
 21
132.8000030517578
 31
0.0
  3
Beskrivelse 00
  2
$TAG160030
 70
     1
  0
ATTDEF
  5
2C4
  8
2
 10
327.5069686096192
 20
127.8000030517578
 30
0.0
 40
2.449996948242188
  1
AB1RR235U2GR
 41
0.9
  7
CADDY_VECTORFONT1P
 72
     2
 11
345.0499267578125
 21
127.8000030517578
 31
0.0
  3
Type
  2
$TAG160040
 70
     1
  0
ATTDEF
  5
2C6
  8
2
 10
327.5070296447754
 20
143.3000030517578
 30
0.0
 40
2.449996948242188
  1
=
 41
0.9
  7
CADDY_VECTORFONT1P
 72
     2
 11
345.0499877929688
 21
143.3000030517578
 31
0.0
  3
Funktion (=)
  2
$TAG140020
 70
     1
  0
ATTDEF
  5
2C8
  8
2
 10
327.5070601623535
 20
139.8000030517578
 30
0.0
 40
2.449996948242188
  1
+
 41
0.9
  7
CADDY_VECTORFONT1P
 72
     2
 11
345.0500183105469
 21
139.8000030517578
 31
0.0
  3
Placering (+)
  2
$TAG140050
 70
     1
  0
ENDBLK
  8
0
  0
BLOCK
  8
0
  2
BLK25
 70
     2
 10
0.0
 20
0.0
 30
0.0
  0
CIRCLE
  5
2CD
  8
0
  6
CADDY_SOLID
 10
355.0
 20
137.5
 30
0.0
 40
0.75
  0
LINE
  5
2CE
  8
0
  6
CADDY_SOLID
 10
355.0
 20
138.25
 30
0.0
 11
355.0
 21
140.0
 31
0.0
  0
LINE
  5
2CF
  8
0
  6
CADDY_SOLID
 10
355.0
 20
135.0
 30
0.0
 11
355.0
 21
136.75
 31
0.0
  0
ATTDEF
  5
2D2
  8
2
 10
333.2435597625732
 20
136.3000030517578
 30
0.0
 40
2.449996948242188
  1
-X1
 41
0.9
  7
CADDY_VECTORFONT1P
 72
     2
 11
350.050048828125
 21
136.3000030517578
 31
0.0
  3
Produkt (-)
  2
$TAG160010
 70
     1
  0
ATTDEF
  5
2D4
  8
2
 10
354.0999755859375
 20
139.2000122070312
 30
0.0
 40
2.449996948242188
  1
8
 50
90.0
 41
0.9
  7
CADDY_VECTORFONT1P
  3
Klemmenummer
  2
$TAG160400
 70
     0
  0
ATTDEF
  5
2D6
  8
0
 10
357.5999755859375
 20
139.2000122070312
 30
0.0
 40
2.449996948242188
  1
1911780
 50
90.0
 41
0.9
  7
CADDY_VECTORFONT1P
  3
Sorteringsindeks
  2
$TAG160410
 70
     1
  0
ATTDEF
  5
2D8
  8
2
 10
332.7518148574829
 20
132.8000030517578
 30
0.0
 40
2.449996948242188
  1

 41
0.9
  7
CADDY_VECTORFONT1P
 72
     2
 11
350.0500183105469
 21
132.8000030517578
 31
0.0
  3
Beskrivelse 00
  2
$TAG160030
 70
     1
  0
ATTDEF
  5
2DA
  8
2
 10
332.5069686096192
 20
127.8000030517578
 30
0.0
 40
2.449996948242188
  1
AB1RR235U2GR
 41
0.9
  7
CADDY_VECTORFONT1P
 72
     2
 11
350.0499267578125
 21
127.8000030517578
 31
0.0
  3
Type
  2
$TAG160040
 70
     1
  0
ATTDEF
  5
2DC
  8
2
 10
332.5070296447754
 20
143.3000030517578
 30
0.0
 40
2.449996948242188
  1
=
 41
0.9
  7
CADDY_VECTORFONT1P
 72
     2
 11
350.0499877929688
 21
143.3000030517578
 31
0.0
  3
Funktion (=)
  2
$TAG140020
 70
     1
  0
ATTDEF
  5
2DE
  8
2
 10
332.5070601623535
 20
139.8000030517578
 30
0.0
 40
2.449996948242188
  1
+
 41
0.9
  7
CADDY_VECTORFONT1P
 72
     2
 11
350.0500183105469
 21
139.8000030517578
 31
0.0
  3
Placering (+)
  2
$TAG140050
 70
     1
  0
ENDBLK
  8
0
  0
BLOCK
  8
0
  2
BLK26
 70
     2
 10
0.0
 20
0.0
 30
0.0
  0
CIRCLE
  5
2E3
  8
0
  6
CADDY_SOLID
 10
360.0
 20
137.5
 30
0.0
 40
0.75
  0
LINE
  5
2E4
  8
0
  6
CADDY_SOLID
 10
360.0
 20
138.25
 30
0.0
 11
360.0
 21
140.0
 31
0.0
  0
LINE
  5
2E5
  8
0
  6
CADDY_SOLID
 10
360.0
 20
135.0
 30
0.0
 11
360.0
 21
136.75
 31
0.0
  0
ATTDEF
  5
2E8
  8
2
 10
338.2435597625732
 20
136.3000030517578
 30
0.0
 40
2.449996948242188
  1
-X1
 41
0.9
  7
CADDY_VECTORFONT1P
 72
     2
 11
355.050048828125
 21
136.3000030517578
 31
0.0
  3
Produkt (-)
  2
$TAG160010
 70
     1
  0
ATTDEF
  5
2EA
  8
2
 10
359.0999755859375
 20
139.2000122070312
 30
0.0
 40
2.449996948242188
  1
9
 50
90.0
 41
0.9
  7
CADDY_VECTORFONT1P
  3
Klemmenummer
  2
$TAG160400
 70
     0
  0
ATTDEF
  5
2EC
  8
0
 10
362.5999755859375
 20
139.2000122070312
 30
0.0
 40
2.449996948242188
  1
1911781
 50
90.0
 41
0.9
  7
CADDY_VECTORFONT1P
  3
Sorteringsindeks
  2
$TAG160410
 70
     1
  0
ATTDEF
  5
2EE
  8
2
 10
337.7518148574829
 20
132.8000030517578
 30
0.0
 40
2.449996948242188
  1

 41
0.9
  7
CADDY_VECTORFONT1P
 72
     2
 11
355.0500183105469
 21
132.8000030517578
 31
0.0
  3
Beskrivelse 00
  2
$TAG160030
 70
     1
  0
ATTDEF
  5
2F0
  8
2
 10
337.5069686096192
 20
127.8000030517578
 30
0.0
 40
2.449996948242188
  1
AB1RR235U2GR
 41
0.9
  7
CADDY_VECTORFONT1P
 72
     2
 11
355.0499267578125
 21
127.8000030517578
 31
0.0
  3
Type
  2
$TAG160040
 70
     1
  0
ATTDEF
  5
2F2
  8
2
 10
337.5070296447754
 20
143.3000030517578
 30
0.0
 40
2.449996948242188
  1
=
 41
0.9
  7
CADDY_VECTORFONT1P
 72
     2
 11
355.0499877929688
 21
143.3000030517578
 31
0.0
  3
Funktion (=)
  2
$TAG140020
 70
     1
  0
ATTDEF
  5
2F4
  8
2
 10
337.5070601623535
 20
139.8000030517578
 30
0.0
 40
2.449996948242188
  1
+
 41
0.9
  7
CADDY_VECTORFONT1P
 72
     2
 11
355.0500183105469
 21
139.8000030517578
 31
0.0
  3
Placering (+)
  2
$TAG140050
 70
     1
  0
ENDBLK
  8
0
  0
BLOCK
  8
0
  2
BLK27
 70
     0
 10
0.0
 20
0.0
 30
0.0
  0
INSERT
  5
332
  8
0
 66
     1
  2
BLK28
 10
0.0
 20
0.0
 30
1.0
  0
ATTRIB
  5
335
  8
0
 10
57.51568771133423
 20
97.55000305175781
 30
0.0
 40
2.450004577636719
  1
10X1.1
 41
0.9
  7
CADDY_VECTORFONT1P
 72
     2
 11
65.50000762939453
 21
97.55000305175781
 31
0.0
  2
$TAG160010
 70
     1
  0
ATTRIB
  5
338
  8
0
 10
65.09998321533203
 20
104.5500030517578
 30
0.0
 40
2.450004577636719
  1

 41
0.9
  7
CADDY_VECTORFONT1P
 72
     2
 11
65.09998321533203
 21
104.5500030517578
 31
0.0
  2
$TAG160040
 70
     1
  0
ATTRIB
  5
33A
  8
0
 10
65.09998321533203
 20
101.0500030517578
 30
0.0
 40
2.450004577636719
  1

 41
0.9
  7
CADDY_VECTORFONT1P
 72
     2
 11
65.09998321533203
 21
101.0500030517578
 31
0.0
  2
$TAG160030
 70
     0
  0
ATTRIB
  5
33C
  8
0
 10
69.09999084472656
 20
101.3999938964844
 30
0.0
 40
2.450004577636719
  1
L1
 50
90.0
 41
0.9
  7
CADDY_VECTORFONT1P
  2
$TAG175000_00
 70
     0
  0
ATTRIB
  5
33E
  8
0
 10
70.90000915527344
 20
101.6999969482422
 30
0.0
 40
2.450004577636719
  1

 41
0.9
  7
CADDY_VECTORFONT1P
  2
$TAG175000_01
 70
     0
  0
ATTRIB
  5
340
  8
0
 10
64.15275774154664
 20
104.5500030517578
 30
0.0
 40
2.450004577636719
  1
=
 41
0.9
  7
CADDY_VECTORFONT1P
 72
     2
 11
65.50001525878906
 21
104.5500030517578
 31
0.0
  2
$TAG140020
 70
     1
  0
ATTRIB
  5
342
  8
0
 10
64.15275774154664
 20
101.0500030517578
 30
0.0
 40
2.450004577636719
  1
+
 41
0.9
  7
CADDY_VECTORFONT1P
 72
     2
 11
65.50001525878906
 21
101.0500030517578
 31
0.0
  2
$TAG140050
 70
     1
  0
SEQEND
  5
336
  8
0
  0
INSERT
  5
347
  8
0
 66
     1
  2
BLK29
 10
0.0
 20
0.0
 30
1.0
  0
ATTRIB
  5
34A
  8
0
 10
65.30628121261597
 20
97.55000305175781
 30
0.0
 40
2.450004577636719
  1
XP0701
 41
0.9
  7
CADDY_VECTORFONT1P
 72
     2
 11
75.50001525878906
 21
97.55000305175781
 31
0.0
  2
$TAG160010
 70
     1
  0
ATTRIB
  5
34D
  8
0
 10
75.09998321533203
 20
104.5500030517578
 30
0.0
 40
2.450004577636719
  1

 41
0.9
  7
CADDY_VECTORFONT1P
 72
     2
 11
75.09998321533203
 21
104.5500030517578
 31
0.0
  2
$TAG160040
 70
     1
  0
ATTRIB
  5
34F
  8
0
 10
75.09998321533203
 20
101.0500030517578
 30
0.0
 40
2.450004577636719
  1

 41
0.9
  7
CADDY_VECTORFONT1P
 72
     2
 11
75.09998321533203
 21
101.0500030517578
 31
0.0
  2
$TAG160030
 70
     0
  0
ATTRIB
  5
351
  8
0
 10
79.09999084472656
 20
101.3999938964844
 30
0.0
 40
2.450004577636719
  1
N
 50
90.0
 41
0.9
  7
CADDY_VECTORFONT1P
  2
$TAG175000_00
 70
     0
  0
ATTRIB
  5
353
  8
0
 10
80.90000915527344
 20
101.6999969482422
 30
0.0
 40
2.450004577636719
  1

 41
0.9
  7
CADDY_VECTORFONT1P
  2
$TAG175000_01
 70
     0
  0
ATTRIB
  5
355
  8
0
 10
74.15275774154664
 20
104.5500030517578
 30
0.0
 40
2.450004577636719
  1
=
 41
0.9
  7
CADDY_VECTORFONT1P
 72
     2
 11
75.50001525878906
 21
104.5500030517578
 31
0.0
  2
$TAG140020
 70
     1
  0
ATTRIB
  5
357
  8
0
 10
74.1527501121521
 20
101.0500030517578
 30
0.0
 40
2.450004577636719
  1
+
 41
0.9
  7
CADDY_VECTORFONT1P
 72
     2
 11
75.50000762939453
 21
101.0500030517578
 31
0.0
  2
$TAG140050
 70
     1
  0
SEQEND
  5
34B
  8
0
  0
INSERT
  5
35C
  8
0
 66
     1
  2
BLK30
 10
0.0
 20
0.0
 30
1.0
  0
ATTRIB
  5
35F
  8
0
 10
78.99965548400878
 20
97.55000305175781
 30
0.0
 40
2.450004577636719
  1
10X2
 41
0.9
  7
CADDY_VECTORFONT1P
 72
     2
 11
85.50000762939453
 21
97.55000305175781
 31
0.0
  2
$TAG160010
 70
     1
  0
ATTRIB
  5
362
  8
0
 10
85.09998321533203
 20
104.5500030517578
 30
0.0
 40
2.450004577636719
  1

 41
0.9
  7
CADDY_VECTORFONT1P
 72
     2
 11
85.09998321533203
 21
104.5500030517578
 31
0.0
  2
$TAG160040
 70
     1
  0
ATTRIB
  5
364
  8
0
 10
85.09998321533203
 20
101.0500030517578
 30
0.0
 40
2.450004577636719
  1

 41
0.9
  7
CADDY_VECTORFONT1P
 72
     2
 11
85.09998321533203
 21
101.0500030517578
 31
0.0
  2
$TAG160030
 70
     0
  0
ATTRIB
  5
366
  8
0
 10
89.09999084472656
 20
101.3999938964844
 30
0.0
 40
2.450004577636719
  1
PE
 50
90.0
 41
0.9
  7
CADDY_VECTORFONT1P
  2
$TAG175000_00
 70
     0
  0
ATTRIB
  5
368
  8
0
 10
90.90000915527344
 20
101.6999969482422
 30
0.0
 40
2.450004577636719
  1

 41
0.9
  7
CADDY_VECTORFONT1P
  2
$TAG175000_01
 70
     0
  0
ATTRIB
  5
36A
  8
0
 10
84.15275774154664
 20
104.5500030517578
 30
0.0
 40
2.450004577636719
  1
=
 41
0.9
  7
CADDY_VECTORFONT1P
 72
     2
 11
85.50001525878906
 21
104.5500030517578
 31
0.0
  2
$TAG140020
 70
     1
  0
ATTRIB
  5
36C
  8
0
 10
84.1527501121521
 20
101.0500030517578
 30
0.0
 40
2.450004577636719
  1
+
 41
0.9
  7
CADDY_VECTORFONT1P
 72
     2
 11
85.50000762939453
 21
101.0500030517578
 31
0.0
  2
$TAG140050
 70
     1
  0
SEQEND
  5
360
  8
0
  0
INSERT
  5
371
  8
0
  2
BLK31
 10
0.0
 20
0.0
 30
1.0
  0
TEXT
  5
376
  8
0
 10
75.69999694824219
 20
85.69999694824219
 30
0.0
 40
2.450004577636719
  1
XP0701
 41
0.9
  7
CADDY_VECTORFONT1P
  0
ENDBLK
  8
0
  0
BLOCK
  8
0
  2
BLK28
 70
     2
 10
0.0
 20
0.0
 30
0.0
  0
POLYLINE
  5
333
  8
0
  6
CADDY_SOLID
 66
     1
 10
0.0
 20
0.0
 30
0.0
  0
VERTEX
  5
452
  8
0
  6
CADDY_SOLID
 10
72.0
 20
98.75
 30
0.0
  0
VERTEX
  5
453
  8
0
  6
CADDY_SOLID
 10
71.96157056080646
 20
99.14018064403226
 30
0.0
  0
VERTEX
  5
454
  8
0
  6
CADDY_SOLID
 10
71.84775906502257
 20
99.51536686473018
 30
0.0
  0
VERTEX
  5
455
  8
0
  6
CADDY_SOLID
 10
71.6629392246051
 20
99.8611404660392
 30
0.0
  0
VERTEX
  5
456
  8
0
  6
CADDY_SOLID
 10
71.41421356237309
 20
100.1642135623731
 30
0.0
  0
VERTEX
  5
457
  8
0
  6
CADDY_SOLID
 10
71.1111404660392
 20
100.4129392246051
 30
0.0
  0
VERTEX
  5
458
  8
0
  6
CADDY_SOLID
 10
70.76536686473018
 20
100.5977590650226
 30
0.0
  0
VERTEX
  5
459
  8
0
  6
CADDY_SOLID
 10
70.39018064403226
 20
100.7115705608065
 30
0.0
  0
VERTEX
  5
45A
  8
0
  6
CADDY_SOLID
 10
70.0
 20
100.75
 30
0.0
  0
VERTEX
  5
45B
  8
0
  6
CADDY_SOLID
 10
69.60981935596774
 20
100.7115705608065
 30
0.0
  0
VERTEX
  5
45C
  8
0
  6
CADDY_SOLID
 10
69.23463313526982
 20
100.5977590650226
 30
0.0
  0
VERTEX
  5
45D
  8
0
  6
CADDY_SOLID
 10
68.8888595339608
 20
100.4129392246051
 30
0.0
  0
VERTEX
  5
45E
  8
0
  6
CADDY_SOLID
 10
68.58578643762691
 20
100.1642135623731
 30
0.0
  0
VERTEX
  5
45F
  8
0
  6
CADDY_SOLID
 10
68.3370607753949
 20
99.8611404660392
 30
0.0
  0
VERTEX
  5
460
  8
0
  6
CADDY_SOLID
 10
68.15224093497743
 20
99.51536686473018
 30
0.0
  0
VERTEX
  5
461
  8
0
  6
CADDY_SOLID
 10
68.03842943919354
 20
99.14018064403226
 30
0.0
  0
VERTEX
  5
462
  8
0
  6
CADDY_SOLID
 10
68.0
 20
98.75
 30
0.0
  0
SEQEND
  5
485
  8
0
  6
CADDY_SOLID
  0
LINE
  5
334
  8
0
  6
CADDY_SOLID
 10
70.0
 20
100.75
 30
0.0
 11
70.0
 21
105.0
 31
0.0
  0
ATTDEF
  5
337
  8
0
 10
48.69346622772217
 20
97.55000305175781
 30
0.0
 40
2.450004577636719
  1
10X1.1
 41
0.9
  7
CADDY_VECTORFONT1P
 72
     2
 11
65.50000762939453
 21
97.55000305175781
 31
0.0
  3
Produkt (-)
  2
$TAG160010
 70
     1
  0
ATTDEF
  5
339
  8
0
 10
47.55697043762207
 20
104.5500030517578
 30
0.0
 40
2.450004577636719
  1

 41
0.9
  7
CADDY_VECTORFONT1P
 72
     2
 11
65.09998321533203
 21
104.5500030517578
 31
0.0
  3
Type
  2
$TAG160040
 70
     1
  0
ATTDEF
  5
33B
  8
0
 10
47.80172589492798
 20
101.0500030517578
 30
0.0
 40
2.450004577636719
  1

 41
0.9
  7
CADDY_VECTORFONT1P
 72
     2
 11
65.09998321533203
 21
101.0500030517578
 31
0.0
  3
Beskrivelse 00
  2
$TAG160030
 70
     0
  0
ATTDEF
  5
33D
  8
0
 10
69.09999084472656
 20
101.3999938964844
 30
0.0
 40
2.450004577636719
  1
L1
 50
90.0
 41
0.9
  7
CADDY_VECTORFONT1P
  3
Tilslutningstekst 00
  2
$TAG175000_00
 70
     0
  0
ATTDEF
  5
33F
  8
0
 10
70.90000915527344
 20
101.6999969482422
 30
0.0
 40
2.450004577636719
  1

 41
0.9
  7
CADDY_VECTORFONT1P
  3
Tilslutningstekst 01
  2
$TAG175000_01
 70
     0
  0
ATTDEF
  5
341
  8
0
 10
47.9570024810791
 20
104.5500030517578
 30
0.0
 40
2.450004577636719
  1
=
 41
0.9
  7
CADDY_VECTORFONT1P
 72
     2
 11
65.50001525878906
 21
104.5500030517578
 31
0.0
  3
Funktion (=)
  2
$TAG140020
 70
     1
  0
ATTDEF
  5
343
  8
0
 10
47.9570024810791
 20
101.0500030517578
 30
0.0
 40
2.450004577636719
  1
+
 41
0.9
  7
CADDY_VECTORFONT1P
 72
     2
 11
65.50001525878906
 21
101.0500030517578
 31
0.0
  3
Placering (+)
  2
$TAG140050
 70
     1
  0
ENDBLK
  8
0
  0
BLOCK
  8
0
  2
BLK29
 70
     2
 10
0.0
 20
0.0
 30
0.0
  0
POLYLINE
  5
348
  8
0
  6
CADDY_SOLID
 66
     1
 10
0.0
 20
0.0
 30
0.0
  0
VERTEX
  5
463
  8
0
  6
CADDY_SOLID
 10
82.0
 20
98.75
 30
0.0
  0
VERTEX
  5
464
  8
0
  6
CADDY_SOLID
 10
81.96157056080646
 20
99.14018064403226
 30
0.0
  0
VERTEX
  5
465
  8
0
  6
CADDY_SOLID
 10
81.84775906502257
 20
99.51536686473018
 30
0.0
  0
VERTEX
  5
466
  8
0
  6
CADDY_SOLID
 10
81.6629392246051
 20
99.8611404660392
 30
0.0
  0
VERTEX
  5
467
  8
0
  6
CADDY_SOLID
 10
81.41421356237309
 20
100.1642135623731
 30
0.0
  0
VERTEX
  5
468
  8
0
  6
CADDY_SOLID
 10
81.1111404660392
 20
100.4129392246051
 30
0.0
  0
VERTEX
  5
469
  8
0
  6
CADDY_SOLID
 10
80.76536686473018
 20
100.5977590650226
 30
0.0
  0
VERTEX
  5
46A
  8
0
  6
CADDY_SOLID
 10
80.39018064403226
 20
100.7115705608065
 30
0.0
  0
VERTEX
  5
46B
  8
0
  6
CADDY_SOLID
 10
80.0
 20
100.75
 30
0.0
  0
VERTEX
  5
46C
  8
0
  6
CADDY_SOLID
 10
79.60981935596774
 20
100.7115705608065
 30
0.0
  0
VERTEX
  5
46D
  8
0
  6
CADDY_SOLID
 10
79.23463313526982
 20
100.5977590650226
 30
0.0
  0
VERTEX
  5
46E
  8
0
  6
CADDY_SOLID
 10
78.8888595339608
 20
100.4129392246051
 30
0.0
  0
VERTEX
  5
46F
  8
0
  6
CADDY_SOLID
 10
78.58578643762691
 20
100.1642135623731
 30
0.0
  0
VERTEX
  5
470
  8
0
  6
CADDY_SOLID
 10
78.3370607753949
 20
99.8611404660392
 30
0.0
  0
VERTEX
  5
471
  8
0
  6
CADDY_SOLID
 10
78.15224093497743
 20
99.51536686473018
 30
0.0
  0
VERTEX
  5
472
  8
0
  6
CADDY_SOLID
 10
78.03842943919354
 20
99.14018064403226
 30
0.0
  0
VERTEX
  5
473
  8
0
  6
CADDY_SOLID
 10
78.0
 20
98.75
 30
0.0
  0
SEQEND
  5
486
  8
0
  6
CADDY_SOLID
  0
LINE
  5
349
  8
0
  6
CADDY_SOLID
 10
80.0
 20
100.75
 30
0.0
 11
80.0
 21
105.0
 31
0.0
  0
ATTDEF
  5
34C
  8
0
 10
58.6934738571167
 20
97.55000305175781
 30
0.0
 40
2.450004577636719
  1
XP0701
 41
0.9
  7
CADDY_VECTORFONT1P
 72
     2
 11
75.50001525878906
 21
97.55000305175781
 31
0.0
  3
Produkt (-)
  2
$TAG160010
 70
     1
  0
ATTDEF
  5
34E
  8
0
 10
57.55697043762207
 20
104.5500030517578
 30
0.0
 40
2.450004577636719
  1

 41
0.9
  7
CADDY_VECTORFONT1P
 72
     2
 11
75.09998321533203
 21
104.5500030517578
 31
0.0
  3
Type
  2
$TAG160040
 70
     1
  0
ATTDEF
  5
350
  8
0
 10
57.80172589492798
 20
101.0500030517578
 30
0.0
 40
2.450004577636719
  1

 41
0.9
  7
CADDY_VECTORFONT1P
 72
     2
 11
75.09998321533203
 21
101.0500030517578
 31
0.0
  3
Beskrivelse 00
  2
$TAG160030
 70
     0
  0
ATTDEF
  5
352
  8
0
 10
79.09999084472656
 20
101.3999938964844
 30
0.0
 40
2.450004577636719
  1
N
 50
90.0
 41
0.9
  7
CADDY_VECTORFONT1P
  3
Tilslutningstekst 00
  2
$TAG175000_00
 70
     0
  0
ATTDEF
  5
354
  8
0
 10
80.90000915527344
 20
101.6999969482422
 30
0.0
 40
2.450004577636719
  1

 41
0.9
  7
CADDY_VECTORFONT1P
  3
Tilslutningstekst 01
  2
$TAG175000_01
 70
     0
  0
ATTDEF
  5
356
  8
0
 10
57.9570024810791
 20
104.5500030517578
 30
0.0
 40
2.450004577636719
  1
=
 41
0.9
  7
CADDY_VECTORFONT1P
 72
     2
 11
75.50001525878906
 21
104.5500030517578
 31
0.0
  3
Funktion (=)
  2
$TAG140020
 70
     1
  0
ATTDEF
  5
358
  8
0
 10
57.95699485168457
 20
101.0500030517578
 30
0.0
 40
2.450004577636719
  1
+
 41
0.9
  7
CADDY_VECTORFONT1P
 72
     2
 11
75.50000762939453
 21
101.0500030517578
 31
0.0
  3
Placering (+)
  2
$TAG140050
 70
     1
  0
ENDBLK
  8
0
  0
BLOCK
  8
0
  2
BLK30
 70
     2
 10
0.0
 20
0.0
 30
0.0
  0
POLYLINE
  5
35D
  8
0
  6
CADDY_SOLID
 66
     1
 10
0.0
 20
0.0
 30
0.0
  0
VERTEX
  5
474
  8
0
  6
CADDY_SOLID
 10
92.0
 20
98.75
 30
0.0
  0
VERTEX
  5
475
  8
0
  6
CADDY_SOLID
 10
91.96157056080646
 20
99.14018064403226
 30
0.0
  0
VERTEX
  5
476
  8
0
  6
CADDY_SOLID
 10
91.84775906502257
 20
99.51536686473018
 30
0.0
  0
VERTEX
  5
477
  8
0
  6
CADDY_SOLID
 10
91.6629392246051
 20
99.8611404660392
 30
0.0
  0
VERTEX
  5
478
  8
0
  6
CADDY_SOLID
 10
91.41421356237309
 20
100.1642135623731
 30
0.0
  0
VERTEX
  5
479
  8
0
  6
CADDY_SOLID
 10
91.1111404660392
 20
100.4129392246051
 30
0.0
  0
VERTEX
  5
47A
  8
0
  6
CADDY_SOLID
 10
90.76536686473018
 20
100.5977590650226
 30
0.0
  0
VERTEX
  5
47B
  8
0
  6
CADDY_SOLID
 10
90.39018064403226
 20
100.7115705608065
 30
0.0
  0
VERTEX
  5
47C
  8
0
  6
CADDY_SOLID
 10
90.0
 20
100.75
 30
0.0
  0
VERTEX
  5
47D
  8
0
  6
CADDY_SOLID
 10
89.60981935596774
 20
100.7115705608065
 30
0.0
  0
VERTEX
  5
47E
  8
0
  6
CADDY_SOLID
 10
89.23463313526982
 20
100.5977590650226
 30
0.0
  0
VERTEX
  5
47F
  8
0
  6
CADDY_SOLID
 10
88.8888595339608
 20
100.4129392246051
 30
0.0
  0
VERTEX
  5
480
  8
0
  6
CADDY_SOLID
 10
88.58578643762691
 20
100.1642135623731
 30
0.0
  0
VERTEX
  5
481
  8
0
  6
CADDY_SOLID
 10
88.3370607753949
 20
99.8611404660392
 30
0.0
  0
VERTEX
  5
482
  8
0
  6
CADDY_SOLID
 10
88.15224093497743
 20
99.51536686473018
 30
0.0
  0
VERTEX
  5
483
  8
0
  6
CADDY_SOLID
 10
88.03842943919354
 20
99.14018064403226
 30
0.0
  0
VERTEX
  5
484
  8
0
  6
CADDY_SOLID
 10
88.0
 20
98.75
 30
0.0
  0
SEQEND
  5
487
  8
0
  6
CADDY_SOLID
  0
LINE
  5
35E
  8
0
  6
CADDY_SOLID
 10
90.0
 20
100.75
 30
0.0
 11
90.0
 21
105.0
 31
0.0
  0
ATTDEF
  5
361
  8
0
 10
68.69346622772217
 20
97.55000305175781
 30
0.0
 40
2.450004577636719
  1
10X2
 41
0.9
  7
CADDY_VECTORFONT1P
 72
     2
 11
85.50000762939453
 21
97.55000305175781
 31
0.0
  3
Produkt (-)
  2
$TAG160010
 70
     1
  0
ATTDEF
  5
363
  8
0
 10
67.55697043762207
 20
104.5500030517578
 30
0.0
 40
2.450004577636719
  1

 41
0.9
  7
CADDY_VECTORFONT1P
 72
     2
 11
85.09998321533203
 21
104.5500030517578
 31
0.0
  3
Type
  2
$TAG160040
 70
     1
  0
ATTDEF
  5
365
  8
0
 10
67.80172589492798
 20
101.0500030517578
 30
0.0
 40
2.450004577636719
  1

 41
0.9
  7
CADDY_VECTORFONT1P
 72
     2
 11
85.09998321533203
 21
101.0500030517578
 31
0.0
  3
Beskrivelse 00
  2
$TAG160030
 70
     0
  0
ATTDEF
  5
367
  8
0
 10
89.09999084472656
 20
101.3999938964844
 30
0.0
 40
2.450004577636719
  1
PE
 50
90.0
 41
0.9
  7
CADDY_VECTORFONT1P
  3
Tilslutningstekst 00
  2
$TAG175000_00
 70
     0
  0
ATTDEF
  5
369
  8
0
 10
90.90000915527344
 20
101.6999969482422
 30
0.0
 40
2.450004577636719
  1

 41
0.9
  7
CADDY_VECTORFONT1P
  3
Tilslutningstekst 01
  2
$TAG175000_01
 70
     0
  0
ATTDEF
  5
36B
  8
0
 10
67.9570024810791
 20
104.5500030517578
 30
0.0
 40
2.450004577636719
  1
=
 41
0.9
  7
CADDY_VECTORFONT1P
 72
     2
 11
85.50001525878906
 21
104.5500030517578
 31
0.0
  3
Funktion (=)
  2
$TAG140020
 70
     1
  0
ATTDEF
  5
36D
  8
0
 10
67.95699485168457
 20
101.0500030517578
 30
0.0
 40
2.450004577636719
  1
+
 41
0.9
  7
CADDY_VECTORFONT1P
 72
     2
 11
85.50000762939453
 21
101.0500030517578
 31
0.0
  3
Placering (+)
  2
$TAG140050
 70
     1
  0
ENDBLK
  8
0
  0
BLOCK
  8
0
  2
BLK31
 70
     0
 10
0.0
 20
0.0
 30
0.0
  0
LINE
  5
372
  8
0
  6
CADDY_SOLID
 10
60.0
 20
90.0
 30
0.0
 11
100.0
 21
90.0
 31
0.0
  0
LINE
  5
373
  8
0
  6
CADDY_SOLID
 10
100.0
 20
90.0
 30
0.0
 11
100.0
 21
110.0
 31
0.0
  0
LINE
  5
374
  8
0
  6
CADDY_SOLID
 10
100.0
 20
110.0
 30
0.0
 11
60.0
 21
110.0
 31
0.0
  0
LINE
  5
375
  8
0
  6
CADDY_SOLID
 10
60.0
 20
110.0
 30
0.0
 11
60.0
 21
90.0
 31
0.0
  0
ENDBLK
  8
0
  0
BLOCK
  8
0
  2
BLK32
 70
     2
 10
0.0
 20
0.0
 30
0.0
  0
CIRCLE
  5
397
  8
0
  6
CADDY_SOLID
 10
285.0
 20
137.5
 30
0.0
 40
0.75
  0
LINE
  5
398
  8
0
  6
CADDY_SOLID
 10
285.0
 20
138.25
 30
0.0
 11
285.0
 21
140.0
 31
0.0
  0
LINE
  5
399
  8
0
  6
CADDY_SOLID
 10
285.0
 20
135.0
 30
0.0
 11
285.0
 21
136.75
 31
0.0
  0
ATTDEF
  5
39C
  8
2
 10
263.2435597625732
 20
136.3000030517578
 30
0.0
 40
2.449996948242188
  1
-X1
 41
0.9
  7
CADDY_VECTORFONT1P
 72
     2
 11
280.050048828125
 21
136.3000030517578
 31
0.0
  3
Produkt (-)
  2
$TAG160010
 70
     1
  0
ATTDEF
  5
39E
  8
2
 10
284.0999755859375
 20
139.2000122070312
 30
0.0
 40
2.449996948242188
  1
3
 50
90.0
 41
0.9
  7
CADDY_VECTORFONT1P
  3
Klemmenummer
  2
$TAG160400
 70
     0
  0
ATTDEF
  5
3A0
  8
0
 10
287.5999755859375
 20
139.2000122070312
 30
0.0
 40
2.449996948242188
  1
1911775
 50
90.0
 41
0.9
  7
CADDY_VECTORFONT1P
  3
Sorteringsindeks
  2
$TAG160410
 70
     1
  0
ATTDEF
  5
3A2
  8
2
 10
262.7518148574829
 20
132.8000030517578
 30
0.0
 40
2.449996948242188
  1

 41
0.9
  7
CADDY_VECTORFONT1P
 72
     2
 11
280.0500183105469
 21
132.8000030517578
 31
0.0
  3
Beskrivelse 00
  2
$TAG160030
 70
     1
  0
ATTDEF
  5
3A4
  8
2
 10
262.5069686096192
 20
127.8000030517578
 30
0.0
 40
2.449996948242188
  1
AB1RR235U2GR
 41
0.9
  7
CADDY_VECTORFONT1P
 72
     2
 11
280.0499267578125
 21
127.8000030517578
 31
0.0
  3
Type
  2
$TAG160040
 70
     1
  0
ATTDEF
  5
3A6
  8
2
 10
262.5070296447754
 20
143.3000030517578
 30
0.0
 40
2.449996948242188
  1
=
 41
0.9
  7
CADDY_VECTORFONT1P
 72
     2
 11
280.0499877929688
 21
143.3000030517578
 31
0.0
  3
Funktion (=)
  2
$TAG140020
 70
     1
  0
ATTDEF
  5
3A8
  8
2
 10
262.5070601623535
 20
139.8000030517578
 30
0.0
 40
2.449996948242188
  1
+
 41
0.9
  7
CADDY_VECTORFONT1P
 72
     2
 11
280.0500183105469
 21
139.8000030517578
 31
0.0
  3
Placering (+)
  2
$TAG140050
 70
     1
  0
ENDBLK
  8
0
  0
BLOCK
  8
0
  2
BLK33
 70
     2
 10
0.0
 20
0.0
 30
0.0
  0
CIRCLE
  5
3B4
  8
0
  6
CADDY_SOLID
 10
325.0
 20
137.5
 30
0.0
 40
0.75
  0
LINE
  5
3B5
  8
0
  6
CADDY_SOLID
 10
325.0
 20
138.25
 30
0.0
 11
325.0
 21
140.0
 31
0.0
  0
LINE
  5
3B6
  8
0
  6
CADDY_SOLID
 10
325.0
 20
135.0
 30
0.0
 11
325.0
 21
136.75
 31
0.0
  0
ATTDEF
  5
3B9
  8
2
 10
303.2435597625732
 20
136.3000030517578
 30
0.0
 40
2.449996948242188
  1
-X1
 41
0.9
  7
CADDY_VECTORFONT1P
 72
     2
 11
320.050048828125
 21
136.3000030517578
 31
0.0
  3
Produkt (-)
  2
$TAG160010
 70
     1
  0
ATTDEF
  5
3BB
  8
2
 10
324.0999755859375
 20
139.2000122070312
 30
0.0
 40
2.449996948242188
  1
6
 50
90.0
 41
0.9
  7
CADDY_VECTORFONT1P
  3
Klemmenummer
  2
$TAG160400
 70
     0
  0
ATTDEF
  5
3BD
  8
0
 10
327.5999755859375
 20
139.2000122070312
 30
0.0
 40
2.449996948242188
  1
1911778
 50
90.0
 41
0.9
  7
CADDY_VECTORFONT1P
  3
Sorteringsindeks
  2
$TAG160410
 70
     1
  0
ATTDEF
  5
3BF
  8
2
 10
302.7518148574829
 20
132.8000030517578
 30
0.0
 40
2.449996948242188
  1

 41
0.9
  7
CADDY_VECTORFONT1P
 72
     2
 11
320.0500183105469
 21
132.8000030517578
 31
0.0
  3
Beskrivelse 00
  2
$TAG160030
 70
     1
  0
ATTDEF
  5
3C1
  8
2
 10
302.5069686096192
 20
127.8000030517578
 30
0.0
 40
2.449996948242188
  1
AB1RR235U2GR
 41
0.9
  7
CADDY_VECTORFONT1P
 72
     2
 11
320.0499267578125
 21
127.8000030517578
 31
0.0
  3
Type
  2
$TAG160040
 70
     1
  0
ATTDEF
  5
3C3
  8
2
 10
302.5070296447754
 20
143.3000030517578
 30
0.0
 40
2.449996948242188
  1
=
 41
0.9
  7
CADDY_VECTORFONT1P
 72
     2
 11
320.0499877929688
 21
143.3000030517578
 31
0.0
  3
Funktion (=)
  2
$TAG140020
 70
     1
  0
ATTDEF
  5
3C5
  8
2
 10
302.5070601623535
 20
139.8000030517578
 30
0.0
 40
2.449996948242188
  1
+
 41
0.9
  7
CADDY_VECTORFONT1P
 72
     2
 11
320.0500183105469
 21
139.8000030517578
 31
0.0
  3
Placering (+)
  2
$TAG140050
 70
     1
  0
ENDBLK
  8
0
  0
BLOCK
  8
0
  2
BLK34
 70
     2
 10
0.0
 20
0.0
 30
0.0
  0
CIRCLE
  5
3CA
  8
0
  6
CADDY_SOLID
 10
365.0
 20
137.5
 30
0.0
 40
0.75
  0
LINE
  5
3CB
  8
0
  6
CADDY_SOLID
 10
365.0
 20
138.25
 30
0.0
 11
365.0
 21
140.0
 31
0.0
  0
LINE
  5
3CC
  8
0
  6
CADDY_SOLID
 10
365.0
 20
135.0
 30
0.0
 11
365.0
 21
136.75
 31
0.0
  0
ATTDEF
  5
3CF
  8
2
 10
343.2435597625732
 20
136.3000030517578
 30
0.0
 40
2.449996948242188
  1
-X1
 41
0.9
  7
CADDY_VECTORFONT1P
 72
     2
 11
360.050048828125
 21
136.3000030517578
 31
0.0
  3
Produkt (-)
  2
$TAG160010
 70
     1
  0
ATTDEF
  5
3D1
  8
2
 10
364.0999755859375
 20
139.2000122070312
 30
0.0
 40
2.449996948242188
  1
6
 50
90.0
 41
0.9
  7
CADDY_VECTORFONT1P
  3
Klemmenummer
  2
$TAG160400
 70
     0
  0
ATTDEF
  5
3D3
  8
0
 10
367.5999755859375
 20
139.2000122070312
 30
0.0
 40
2.449996948242188
  1
1911778
 50
90.0
 41
0.9
  7
CADDY_VECTORFONT1P
  3
Sorteringsindeks
  2
$TAG160410
 70
     1
  0
ATTDEF
  5
3D5
  8
2
 10
342.7518148574829
 20
132.8000030517578
 30
0.0
 40
2.449996948242188
  1

 41
0.9
  7
CADDY_VECTORFONT1P
 72
     2
 11
360.0500183105469
 21
132.8000030517578
 31
0.0
  3
Beskrivelse 00
  2
$TAG160030
 70
     1
  0
ATTDEF
  5
3D7
  8
2
 10
342.5069686096192
 20
127.8000030517578
 30
0.0
 40
2.449996948242188
  1
AB1RR235U2GR
 41
0.9
  7
CADDY_VECTORFONT1P
 72
     2
 11
360.0499267578125
 21
127.8000030517578
 31
0.0
  3
Type
  2
$TAG160040
 70
     1
  0
ATTDEF
  5
3D9
  8
2
 10
342.5070296447754
 20
143.3000030517578
 30
0.0
 40
2.449996948242188
  1
=
 41
0.9
  7
CADDY_VECTORFONT1P
 72
     2
 11
360.0499877929688
 21
143.3000030517578
 31
0.0
  3
Funktion (=)
  2
$TAG140020
 70
     1
  0
ATTDEF
  5
3DB
  8
2
 10
342.5070601623535
 20
139.8000030517578
 30
0.0
 40
2.449996948242188
  1
+
 41
0.9
  7
CADDY_VECTORFONT1P
 72
     2
 11
360.0500183105469
 21
139.8000030517578
 31
0.0
  3
Placering (+)
  2
$TAG140050
 70
     1
  0
ENDBLK
  8
0
  0
BLOCK
  8
0
  2
BLK35
 70
     2
 10
0.0
 20
0.0
 30
0.0
  0
LINE
  5
3E8
  8
0
  6
CADDY_SOLID
 10
297.5
 20
95.0
 30
0.0
 11
295.25
 21
96.25
 31
0.0
  0
LINE
  5
3E9
  8
0
  6
CADDY_SOLID
 10
297.5
 20
95.0
 30
0.0
 11
295.25
 21
93.75
 31
0.0
  0
LINE
  5
3EA
  8
0
  6
CADDY_SOLID
 10
295.0
 20
95.0
 30
0.0
 11
297.5
 21
95.0
 31
0.0
  0
ATTDEF
  5
3ED
  8
0
 10
275.6934585983277
 20
95.90000915527344
 30
0.0
 40
2.450004577636719
  1
0708
 41
0.9
  7
CADDY_VECTORFONT1P
 72
     2
 11
292.5
 21
95.90000915527344
 31
0.0
  3
Produkt (-)
  2
$TAG160010
 70
     0
  0
ATTDEF
  5
3EF
  8
0
 10
299.6500244140625
 20
93.84999084472656
 30
0.0
 40
2.450004577636719
  1
8.0
 41
0.9
  7
CADDY_VECTORFONT1P
  3
Side/strømvej reference
  2
$TAG160500
 70
     0
  0
ATTDEF
  5
3F1
  8
0
 10
274.95698722229
 20
102.9000091552734
 30
0.0
 40
2.450004577636719
  1
=
 41
0.9
  7
CADDY_VECTORFONT1P
 72
     2
 11
292.5
 21
102.9000091552734
 31
0.0
  3
Funktion (=)
  2
$TAG140020
 70
     1
  0
ATTDEF
  5
3F3
  8
0
 10
274.9570177398681
 20
99.40000915527344
 30
0.0
 40
2.450004577636719
  1
+
 41
0.9
  7
CADDY_VECTORFONT1P
 72
     2
 11
292.5000305175781
 21
99.40000915527344
 31
0.0
  3
Placering (+)
  2
$TAG140050
 70
     1
  0
ENDBLK
  8
0
  0
ENDSEC
  0
SECTION
  2
ENTITIES
  0
INSERT
  5
43
  8
0
  2
BLK1
 10
0.0
 20
0.0
 30
1.0
  0
INSERT
  5
AF
  8
0
 66
     1
  2
BLK2
 10
0.0
 20
0.0
 30
1.0
  0
ATTRIB
  5
B2
  8
0
 10
29.26500701904297
 20
260.9000244140625
 30
0.0
 40
2.449981689453125
  1
2L1
 41
0.9
  7
CADDY_VECTORFONT1P
  2
$TAG160010
 70
     0
  0
ATTRIB
  5
B5
  8
0
 10
18.96376149902344
 20
258.9500122070312
 30
0.0
 40
2.449981689453125
  1
6.9
 41
0.9
  7
CADDY_VECTORFONT1P
 72
     2
 11
22.78499794006348
 21
258.9500122070312
 31
0.0
  2
$TAG160500
 70
     0
  0
ATTRIB
  5
B7
  8
0
 10
29.26500701904297
 20
267.9000244140625
 30
0.0
 40
2.449981689453125
  1
=
 41
0.9
  7
CADDY_VECTORFONT1P
  2
$TAG140020
 70
     1
  0
ATTRIB
  5
B9
  8
0
 10
29.26500701904297
 20
264.4000244140625
 30
0.0
 40
2.449981689453125
  1
+
 41
0.9
  7
CADDY_VECTORFONT1P
  2
$TAG140050
 70
     1
  0
SEQEND
  5
B3
  8
0
  0
INSERT
  5
BE
  8
0
 66
     1
  2
BLK3
 10
0.0
 20
0.0
 30
1.0
  0
ATTRIB
  5
C1
  8
0
 10
383.4721169311524
 20
260.9000244140625
 30
0.0
 40
2.449981689453125
  1
2L1
 41
0.9
  7
CADDY_VECTORFONT1P
 72
     2
 11
387.7850646972656
 21
260.9000244140625
 31
0.0
  2
$TAG160010
 70
     0
  0
ATTRIB
  5
C4
  8
0
 10
393.3650207519531
 20
258.9500122070312
 30
0.0
 40
2.449981689453125
  1

 41
0.9
  7
CADDY_VECTORFONT1P
  2
$TAG160500
 70
     0
  0
ATTRIB
  5
C6
  8
0
 10
386.4377587310791
 20
267.9000244140625
 30
0.0
 40
2.449981689453125
  1
=
 41
0.9
  7
CADDY_VECTORFONT1P
 72
     2
 11
387.7850036621094
 21
267.9000244140625
 31
0.0
  2
$TAG140020
 70
     1
  0
ATTRIB
  5
C8
  8
0
 10
386.4377587310791
 20
264.4000244140625
 30
0.0
 40
2.449981689453125
  1
+
 41
0.9
  7
CADDY_VECTORFONT1P
 72
     2
 11
387.7850036621094
 21
264.4000244140625
 31
0.0
  2
$TAG140050
 70
     1
  0
SEQEND
  5
C2
  8
0
  0
LINE
  5
CA
  8
0
  6
CADDY_SOLID
 10
27.5
 20
260.0
 30
0.0
 11
70.0
 21
260.0
 31
0.0
  0
LINE
  5
CB
  8
0
  6
CADDY_SOLID
 10
70.0
 20
260.0
 30
0.0
 11
190.0
 21
260.0
 31
0.0
  0
LINE
  5
CC
  8
0
  6
CADDY_SOLID
 10
190.0
 20
260.0
 30
0.0
 11
392.5
 21
260.0
 31
0.0
  0
INSERT
  5
D0
  8
0
 66
     1
  2
BLK4
 10
0.0
 20
0.0
 30
1.0
  0
ATTRIB
  5
D3
  8
0
 10
29.26500701904297
 20
255.9000091552734
 30
0.0
 40
2.449996948242188
  1
N
 41
0.9
  7
CADDY_VECTORFONT1P
  2
$TAG160010
 70
     0
  0
ATTRIB
  5
D6
  8
0
 10
18.96373769989014
 20
253.9499969482422
 30
0.0
 40
2.449996948242188
  1
6.9
 41
0.9
  7
CADDY_VECTORFONT1P
 72
     2
 11
22.78499794006348
 21
253.9499969482422
 31
0.0
  2
$TAG160500
 70
     0
  0
ATTRIB
  5
D8
  8
0
 10
29.26500701904297
 20
262.9000244140625
 30
0.0
 40
2.449981689453125
  1
=
 41
0.9
  7
CADDY_VECTORFONT1P
  2
$TAG140020
 70
     1
  0
ATTRIB
  5
DA
  8
0
 10
29.26500701904297
 20
259.4000244140625
 30
0.0
 40
2.449981689453125
  1
+
 41
0.9
  7
CADDY_VECTORFONT1P
  2
$TAG140050
 70
     1
  0
SEQEND
  5
D4
  8
0
  0
INSERT
  5
DF
  8
0
 66
     1
  2
BLK5
 10
0.0
 20
0.0
 30
1.0
  0
ATTRIB
  5
E2
  8
0
 10
386.1687711929321
 20
255.9000091552734
 30
0.0
 40
2.449996948242188
  1
N
 41
0.9
  7
CADDY_VECTORFONT1P
 72
     2
 11
387.7850341796875
 21
255.9000091552734
 31
0.0
  2
$TAG160010
 70
     0
  0
ATTRIB
  5
E5
  8
0
 10
393.3650207519531
 20
253.9499969482422
 30
0.0
 40
2.449996948242188
  1
20.0
 41
0.9
  7
CADDY_VECTORFONT1P
  2
$TAG160500
 70
     0
  0
ATTRIB
  5
E7
  8
0
 10
386.4377587310791
 20
262.9000244140625
 30
0.0
 40
2.449981689453125
  1
=
 41
0.9
  7
CADDY_VECTORFONT1P
 72
     2
 11
387.7850036621094
 21
262.9000244140625
 31
0.0
  2
$TAG140020
 70
     1
  0
ATTRIB
  5
E9
  8
0
 10
386.4377587310791
 20
259.4000244140625
 30
0.0
 40
2.449981689453125
  1
+
 41
0.9
  7
CADDY_VECTORFONT1P
 72
     2
 11
387.7850036621094
 21
259.4000244140625
 31
0.0
  2
$TAG140050
 70
     1
  0
SEQEND
  5
E3
  8
0
  0
LINE
  5
EB
  8
0
  6
CADDY_SOLID
 10
27.5
 20
255.0
 30
0.0
 11
75.0
 21
255.0
 31
0.0
  0
LINE
  5
EC
  8
0
  6
CADDY_SOLID
 10
75.0
 20
255.0
 30
0.0
 11
195.0
 21
255.0
 31
0.0
  0
LINE
  5
ED
  8
0
  6
CADDY_SOLID
 10
195.0
 20
255.0
 30
0.0
 11
392.5
 21
255.0
 31
0.0
  0
TEXT
  5
EE
  8
0
 10
180.6000061035156
 20
50.59999847412109
 30
0.0
 40
2.100002288818359
  1
24VDC strømforsyning
 41
0.9
  7
CADDY_VECTORFONT1P
  0
TEXT
  5
EF
  8
0
 10
66.68021048259735
 20
50.59999847412109
 30
0.0
 40
2.100002288818359
  1
230V stikudtag til PC
 41
0.9
  7
CADDY_VECTORFONT1P
 72
     1
 11
80.0
 21
50.59999847412109
 31
0.0
  0
TEXT
  5
F0
  8
0
 10
80.0
 20
47.59999847412109
 30
0.0
 40
2.100002288818359
  1

 41
0.9
  7
CADDY_VECTORFONT1P
 72
     1
 11
80.0
 21
47.59999847412109
 31
0.0
  0
INSERT
  5
F4
  8
0
 66
     1
  2
BLK6
 10
0.0
 20
0.0
 30
1.0
  0
ATTRIB
  5
FF
  8
0
 10
176.3013163528443
 20
166.3000030517578
 30
0.0
 40
2.449996948242188
  1
T0704
 41
0.9
  7
CADDY_VECTORFONT1P
 72
     2
 11
185.0000305175781
 21
166.3000030517578
 31
0.0
  2
$TAG160010
 70
     0
  0
ATTRIB
  5
102
  8
0
 10
166.9807929626465
 20
159.3000030517578
 30
0.0
 40
2.449996948242188
  1
ABL7RE2402
 41
0.9
  7
CADDY_VECTORFONT1P
 72
     2
 11
185.0000305175781
 21
159.3000030517578
 31
0.0
  2
$TAG160040
 70
     1
  0
ATTRIB
  5
104
  8
0
 10
181.4234944549561
 20
162.8000030517578
 30
0.0
 40
2.449996948242188
  1
5A
 41
0.9
  7
CADDY_VECTORFONT1P
 72
     2
 11
185.0
 21
162.8000030517578
 31
0.0
  2
$TAG160030
 70
     0
  0
ATTRIB
  5
108
  8
0
 10
189.0500030517578
 20
175.9000091552734
 30
0.0
 40
2.449996948242188
  1
L1
 50
90.0
 41
0.9
  7
CADDY_VECTORFONT1P
  2
$TAG175000_00
 70
     0
  0
ATTRIB
  5
10A
  8
0
 10
194.0500030517578
 20
175.9000091552734
 30
0.0
 40
2.449996948242188
  1
N
 50
90.0
 41
0.9
  7
CADDY_VECTORFONT1P
  2
$TAG175000_02
 70
     0
  0
ATTRIB
  5
10C
  8
0
 10
194.0500030517578
 20
157.052740574646
 30
0.0
 40
2.449996948242188
  1
+
 50
90.0
 41
0.9
  7
CADDY_VECTORFONT1P
 72
     2
 11
194.0500030517578
 21
158.3999938964844
 31
0.0
  2
$TAG175000_03
 70
     0
  0
ATTRIB
  5
10E
  8
0
 10
199.0500030517578
 20
157.052740574646
 30
0.0
 40
2.449996948242188
  1
-
 50
90.0
 41
0.9
  7
CADDY_VECTORFONT1P
 72
     2
 11
199.0500030517578
 21
158.3999938964844
 31
0.0
  2
$TAG175000_05
 70
     0
  0
ATTRIB
  5
110
  8
0
 10
183.6527619369507
 20
173.3000030517578
 30
0.0
 40
2.449996948242188
  1
=
 41
0.9
  7
CADDY_VECTORFONT1P
 72
     2
 11
185.0000152587891
 21
173.3000030517578
 31
0.0
  2
$TAG140020
 70
     1
  0
ATTRIB
  5
112
  8
0
 10
183.6527466781616
 20
169.8000030517578
 30
0.0
 40
2.449996948242188
  1
+
 41
0.9
  7
CADDY_VECTORFONT1P
 72
     2
 11
185.0
 21
169.8000030517578
 31
0.0
  2
$TAG140050
 70
     1
  0
SEQEND
  5
100
  8
0
  0
INSERT
  5
117
  8
0
 66
     1
  2
BLK7
 10
0.0
 20
0.0
 30
1.0
  0
ATTRIB
  5
12F
  8
0
 10
175.0460710479736
 20
208.8000030517578
 30
0.0
 40
2.449996948242188
  1
F0704
 41
0.9
  7
CADDY_VECTORFONT1P
 72
     2
 11
183.5000305175781
 21
208.8000030517578
 31
0.0
  2
$TAG160010
 70
     0
  0
ATTRIB
  5
132
  8
0
 10
175.0460710479736
 20
201.8000030517578
 30
0.0
 40
2.449996948242188
  1
25974
 41
0.9
  7
CADDY_VECTORFONT1P
 72
     2
 11
183.5000305175781
 21
201.8000030517578
 31
0.0
  2
$TAG160040
 70
     1
  0
ATTRIB
  5
134
  8
0
 10
178.6997209793091
 20
205.3000030517578
 30
0.0
 40
2.449996948242188
  1
10A
 41
0.9
  7
CADDY_VECTORFONT1P
 72
     2
 11
183.5
 21
205.3000030517578
 31
0.0
  2
$TAG160030
 70
     0
  0
ATTRIB
  5
136
  8
0
 10
189.0500030517578
 20
214.4000091552734
 30
0.0
 40
2.449996948242188
  1
1
 50
90.0
 41
0.9
  7
CADDY_VECTORFONT1P
  2
$TAG175000_00
 70
     0
  0
ATTRIB
  5
138
  8
0
 10
189.0500030517578
 20
204.5439358444214
 30
0.0
 40
2.449996948242188
  1
2
 50
90.0
 41
0.9
  7
CADDY_VECTORFONT1P
 72
     2
 11
189.0500030517578
 21
205.9000091552734
 31
0.0
  2
$TAG175000_01
 70
     0
  0
ATTRIB
  5
14C
  8
0
 10
182.1527619369507
 20
215.8000030517578
 30
0.0
 40
2.449996948242188
  1
=
 41
0.9
  7
CADDY_VECTORFONT1P
 72
     2
 11
183.5000152587891
 21
215.8000030517578
 31
0.0
  2
$TAG140020
 70
     1
  0
ATTRIB
  5
14E
  8
0
 10
182.1527466781616
 20
212.3000030517578
 30
0.0
 40
2.449996948242188
  1
+
 41
0.9
  7
CADDY_VECTORFONT1P
 72
     2
 11
183.5
 21
212.3000030517578
 31
0.0
  2
$TAG140050
 70
     1
  0
SEQEND
  5
130
  8
0
  0
INSERT
  5
153
  8
0
 66
     1
  2
BLK9
 10
0.0
 20
0.0
 30
1.0
  0
ATTRIB
  5
157
  8
0
 10
360.9753928092957
 20
105.9000091552734
 30
0.0
 40
2.450004577636719
  1
0707
 41
0.9
  7
CADDY_VECTORFONT1P
 72
     2
 11
367.5
 21
105.9000091552734
 31
0.0
  2
$TAG160010
 70
     0
  0
ATTRIB
  5
15A
  8
0
 10
374.6500244140625
 20
103.8499908447266
 30
0.0
 40
2.450004577636719
  1
8.0
 41
0.9
  7
CADDY_VECTORFONT1P
  2
$TAG160500
 70
     0
  0
ATTRIB
  5
15C
  8
0
 10
366.1527424827576
 20
112.9000091552734
 30
0.0
 40
2.450004577636719
  1
=
 41
0.9
  7
CADDY_VECTORFONT1P
 72
     2
 11
367.5
 21
112.9000091552734
 31
0.0
  2
$TAG140020
 70
     1
  0
ATTRIB
  5
15E
  8
0
 10
366.1527730003357
 20
109.4000091552734
 30
0.0
 40
2.450004577636719
  1
+
 41
0.9
  7
CADDY_VECTORFONT1P
 72
     2
 11
367.5000305175781
 21
109.4000091552734
 31
0.0
  2
$TAG140050
 70
     1
  0
SEQEND
  5
158
  8
0
  0
INSERT
  5
163
  8
0
 66
     1
  2
BLK10
 10
0.0
 20
0.0
 30
1.0
  0
ATTRIB
  5
167
  8
0
 10
325.7527179107666
 20
100.9000091552734
 30
0.0
 40
2.450004577636719
  1
24L2
 41
0.9
  7
CADDY_VECTORFONT1P
 72
     2
 11
332.5000305175781
 21
100.9000091552734
 31
0.0
  2
$TAG160010
 70
     0
  0
ATTRIB
  5
16A
  8
0
 10
339.6500244140625
 20
98.84999084472656
 30
0.0
 40
2.450004577636719
  1

 41
0.9
  7
CADDY_VECTORFONT1P
  2
$TAG160500
 70
     0
  0
ATTRIB
  5
16C
  8
0
 10
331.1527424827576
 20
107.9000091552734
 30
0.0
 40
2.450004577636719
  1
=
 41
0.9
  7
CADDY_VECTORFONT1P
 72
     2
 11
332.5
 21
107.9000091552734
 31
0.0
  2
$TAG140020
 70
     1
  0
ATTRIB
  5
16E
  8
0
 10
331.1527730003357
 20
104.4000091552734
 30
0.0
 40
2.450004577636719
  1
+
 41
0.9
  7
CADDY_VECTORFONT1P
 72
     2
 11
332.5000305175781
 21
104.4000091552734
 31
0.0
  2
$TAG140050
 70
     1
  0
SEQEND
  5
168
  8
0
  0
INSERT
  5
173
  8
0
 66
     1
  2
BLK11
 10
0.0
 20
0.0
 30
1.0
  0
ATTRIB
  5
18B
  8
0
 10
55.75606109008789
 20
208.8000030517578
 30
0.0
 40
2.449996948242188
  1
F0701
 41
0.9
  7
CADDY_VECTORFONT1P
 72
     2
 11
63.5000114440918
 21
208.8000030517578
 31
0.0
  2
$TAG160010
 70
     0
  0
ATTRIB
  5
18E
  8
0
 10
55.04604815979004
 20
201.8000030517578
 30
0.0
 40
2.449996948242188
  1
25974
 41
0.9
  7
CADDY_VECTORFONT1P
 72
     2
 11
63.50000762939453
 21
201.8000030517578
 31
0.0
  2
$TAG160040
 70
     1
  0
ATTRIB
  5
190
  8
0
 10
58.69973623809815
 20
205.3000030517578
 30
0.0
 40
2.449996948242188
  1
10A
 41
0.9
  7
CADDY_VECTORFONT1P
 72
     2
 11
63.50001525878906
 21
205.3000030517578
 31
0.0
  2
$TAG160030
 70
     0
  0
ATTRIB
  5
192
  8
0
 10
69.05000305175781
 20
214.4000091552734
 30
0.0
 40
2.449996948242188
  1
1
 50
90.0
 41
0.9
  7
CADDY_VECTORFONT1P
  2
$TAG175000_00
 70
     0
  0
ATTRIB
  5
194
  8
0
 10
69.05000305175781
 20
204.5439205856323
 30
0.0
 40
2.449996948242188
  1
2
 50
90.0
 41
0.9
  7
CADDY_VECTORFONT1P
 72
     2
 11
69.05000305175781
 21
205.8999938964844
 31
0.0
  2
$TAG175000_01
 70
     0
  0
ATTRIB
  5
1A6
  8
0
 10
62.15275812225342
 20
215.8000030517578
 30
0.0
 40
2.449996948242188
  1
=
 41
0.9
  7
CADDY_VECTORFONT1P
 72
     2
 11
63.5000114440918
 21
215.8000030517578
 31
0.0
  2
$TAG140020
 70
     1
  0
ATTRIB
  5
1A8
  8
0
 10
62.15276193695068
 20
212.3000030517578
 30
0.0
 40
2.449996948242188
  1
+
 41
0.9
  7
CADDY_VECTORFONT1P
 72
     2
 11
63.50001525878906
 21
212.3000030517578
 31
0.0
  2
$TAG140050
 70
     1
  0
SEQEND
  5
18C
  8
0
  0
LINE
  5
1AA
  8
0
  6
CADDY_SOLID
 10
70.0
 20
215.0
 30
0.0
 11
70.0
 21
260.0
 31
0.0
  0
TEXT
  5
1AB
  8
0
 10
69.5
 20
235.0500875
 30
0.0
 40
1.75
  1
0505
 50
90.0
 41
0.9
  7
CADDY_VECTORFONT1P
 72
     1
 11
69.5
 21
237.5
 31
0.0
  0
CIRCLE
  5
1AC
  8
0
 10
70.0
 20
260.0
 30
0.0
 40
0.8
  0
CIRCLE
  5
1AD
  8
0
 10
70.0
 20
260.0
 30
0.0
 40
0.6
  0
CIRCLE
  5
1AE
  8
0
 10
70.0
 20
260.0
 30
0.0
 40
0.4
  0
LINE
  5
1AF
  8
0
  6
CADDY_SOLID
 10
80.0
 20
140.0
 30
0.0
 11
75.0
 21
140.0
 31
0.0
  0
LINE
  5
1B0
  8
0
  6
CADDY_SOLID
 10
190.0
 20
215.0
 30
0.0
 11
190.0
 21
260.0
 31
0.0
  0
TEXT
  5
1B1
  8
0
 10
189.5
 20
235.0500875
 30
0.0
 40
1.75
  1
0505
 50
90.0
 41
0.9
  7
CADDY_VECTORFONT1P
 72
     1
 11
189.5
 21
237.5
 31
0.0
  0
CIRCLE
  5
1B2
  8
0
 10
190.0
 20
260.0
 30
0.0
 40
0.8
  0
CIRCLE
  5
1B3
  8
0
 10
190.0
 20
260.0
 30
0.0
 40
0.6
  0
CIRCLE
  5
1B4
  8
0
 10
190.0
 20
260.0
 30
0.0
 40
0.4
  0
INSERT
  5
1B8
  8
0
 66
     1
  2
BLK13
 10
0.0
 20
0.0
 30
1.0
  0
ATTRIB
  5
1BB
  8
0
 10
29.26500701904297
 20
70.89999389648438
 30
0.0
 40
2.450004577636719
  1
PE
 41
0.9
  7
CADDY_VECTORFONT1P
  2
$TAG160010
 70
     0
  0
ATTRIB
  5
1BE
  8
0
 10
18.96372580032349
 20
68.94999694824219
 30
0.0
 40
2.450004577636719
  1
6.9
 41
0.9
  7
CADDY_VECTORFONT1P
 72
     2
 11
22.78499794006348
 21
68.94999694824219
 31
0.0
  2
$TAG160500
 70
     0
  0
ATTRIB
  5
1C0
  8
0
 10
29.26500701904297
 20
77.89999389648438
 30
0.0
 40
2.450004577636719
  1
=
 41
0.9
  7
CADDY_VECTORFONT1P
  2
$TAG140020
 70
     1
  0
ATTRIB
  5
1C2
  8
0
 10
29.26500701904297
 20
74.39999389648438
 30
0.0
 40
2.450004577636719
  1
+
 41
0.9
  7
CADDY_VECTORFONT1P
  2
$TAG140050
 70
     1
  0
SEQEND
  5
1BC
  8
0
  0
INSERT
  5
1C7
  8
0
 66
     1
  2
BLK14
 10
0.0
 20
0.0
 30
1.0
  0
ATTRIB
  5
1CA
  8
0
 10
384.4775279998779
 20
70.89999389648438
 30
0.0
 40
2.450004577636719
  1
PE
 41
0.9
  7
CADDY_VECTORFONT1P
 72
     2
 11
387.7850341796875
 21
70.89999389648438
 31
0.0
  2
$TAG160010
 70
     0
  0
ATTRIB
  5
1CD
  8
0
 10
393.3650207519531
 20
68.94999694824219
 30
0.0
 40
2.450004577636719
  1
11.0
 41
0.9
  7
CADDY_VECTORFONT1P
  2
$TAG160500
 70
     0
  0
ATTRIB
  5
1CF
  8
0
 10
386.4377461448669
 20
77.89999389648438
 30
0.0
 40
2.450004577636719
  1
=
 41
0.9
  7
CADDY_VECTORFONT1P
 72
     2
 11
387.7850036621094
 21
77.89999389648438
 31
0.0
  2
$TAG140020
 70
     1
  0
ATTRIB
  5
1D1
  8
0
 10
386.4377461448669
 20
74.39999389648438
 30
0.0
 40
2.450004577636719
  1
+
 41
0.9
  7
CADDY_VECTORFONT1P
 72
     2
 11
387.7850036621094
 21
74.39999389648438
 31
0.0
  2
$TAG140050
 70
     1
  0
SEQEND
  5
1CB
  8
0
  0
LINE
  5
1D3
  8
0
  6
CADDY_SOLID
 10
170.0
 20
70.0
 30
0.0
 11
200.0
 21
70.0
 31
0.0
  0
LINE
  5
1D4
  8
0
  6
CADDY_SOLID
 10
200.0
 20
70.0
 30
0.0
 11
210.0
 21
70.0
 31
0.0
  0
LINE
  5
1D5
  8
0
  6
CADDY_SOLID
 10
210.0
 20
70.0
 30
0.0
 11
392.5
 21
70.0
 31
0.0
  0
LINE
  5
1D6
  8
0
  6
CADDY_SOLID
 10
27.5
 20
70.0
 30
0.0
 11
110.0
 21
70.0
 31
0.0
  0
LINE
  5
1D7
  8
0
  6
CADDY_SOLID
 10
110.0
 20
70.0
 30
0.0
 11
170.0
 21
70.0
 31
0.0
  0
LINE
  5
1D8
  8
0
  6
CADDY_SOLID
 10
190.0
 20
135.0
 30
0.0
 11
190.0
 21
160.0
 31
0.0
  0
LINE
  5
1D9
  8
0
  6
CADDY_SOLID
 10
170.0
 20
135.0
 30
0.0
 11
170.0
 21
70.0
 31
0.0
  0
LINE
  5
1DA
  8
0
  6
CADDY_SOLID
 10
170.0
 20
135.0
 30
0.0
 11
190.0
 21
135.0
 31
0.0
  0
CIRCLE
  5
1DB
  8
0
 10
170.0
 20
70.0
 30
0.0
 40
0.8
  0
CIRCLE
  5
1DC
  8
0
 10
170.0
 20
70.0
 30
0.0
 40
0.6
  0
CIRCLE
  5
1DD
  8
0
 10
170.0
 20
70.0
 30
0.0
 40
0.4
  0
CIRCLE
  5
1DE
  8
0
 10
200.0
 20
70.0
 30
0.0
 40
0.8
  0
CIRCLE
  5
1DF
  8
0
 10
200.0
 20
70.0
 30
0.0
 40
0.6
  0
CIRCLE
  5
1E0
  8
0
 10
200.0
 20
70.0
 30
0.0
 40
0.4
  0
INSERT
  5
1E4
  8
0
 66
     1
  2
BLK15
 10
0.0
 20
0.0
 30
1.0
  0
ATTRIB
  5
1EA
  8
0
 10
256.4664914276123
 20
208.8000030517578
 30
0.0
 40
2.449996948242188
  1
F0706
 41
0.9
  7
CADDY_VECTORFONT1P
 72
     2
 11
264.699951171875
 21
208.8000030517578
 31
0.0
  2
$TAG160010
 70
     0
  0
ATTRIB
  5
1ED
  8
0
 10
241.0535911437988
 20
201.8000030517578
 30
0.0
 40
2.449996948242188
  1
ST4-HESILED 24
 41
0.9
  7
CADDY_VECTORFONT1P
 72
     2
 11
264.6999816894531
 21
201.8000030517578
 31
0.0
  2
$TAG160040
 70
     1
  0
ATTRIB
  5
1EF
  8
0
 10
257.3265013916015
 20
205.3000030517578
 30
0.0
 40
2.449996948242188
  1
3,15A
 41
0.9
  7
CADDY_VECTORFONT1P
 72
     2
 11
264.7000122070312
 21
205.3000030517578
 31
0.0
  2
$TAG160030
 70
     0
  0
ATTRIB
  5
1F1
  8
0
 10
269.0499877929688
 20
214.4000091552734
 30
0.0
 40
2.449996948242188
  1
1
 50
90.0
 41
0.9
  7
CADDY_VECTORFONT1P
  2
$TAG175000_00
 70
     0
  0
ATTRIB
  5
1F3
  8
0
 10
269.0499877929688
 20
203.5439511032104
 30
0.0
 40
2.449996948242188
  1
2
 50
90.0
 41
0.9
  7
CADDY_VECTORFONT1P
 72
     2
 11
269.0499877929688
 21
204.9000244140625
 31
0.0
  2
$TAG175000_01
 70
     0
  0
ATTRIB
  5
1F5
  8
0
 10
263.3527283676148
 20
215.8000030517578
 30
0.0
 40
2.449996948242188
  1
=
 41
0.9
  7
CADDY_VECTORFONT1P
 72
     2
 11
264.6999816894531
 21
215.8000030517578
 31
0.0
  2
$TAG140020
 70
     1
  0
ATTRIB
  5
1F7
  8
0
 10
263.3527588851929
 20
212.3000030517578
 30
0.0
 40
2.449996948242188
  1
+
 41
0.9
  7
CADDY_VECTORFONT1P
 72
     2
 11
264.7000122070312
 21
212.3000030517578
 31
0.0
  2
$TAG140050
 70
     1
  0
SEQEND
  5
1EB
  8
0
  0
INSERT
  5
1FC
  8
0
 66
     1
  2
BLK16
 10
0.0
 20
0.0
 30
1.0
  0
ATTRIB
  5
202
  8
0
 10
296.4599069534302
 20
208.8000030517578
 30
0.0
 40
2.449996948242188
  1
F0707
 41
0.9
  7
CADDY_VECTORFONT1P
 72
     2
 11
304.6999816894531
 21
208.8000030517578
 31
0.0
  2
$TAG160010
 70
     0
  0
ATTRIB
  5
205
  8
0
 10
281.0535606262207
 20
201.8000030517578
 30
0.0
 40
2.449996948242188
  1
ST4-HESILED 24
 41
0.9
  7
CADDY_VECTORFONT1P
 72
     2
 11
304.699951171875
 21
201.8000030517578
 31
0.0
  2
$TAG160040
 70
     1
  0
ATTRIB
  5
207
  8
0
 10
297.3265013916015
 20
205.3000030517578
 30
0.0
 40
2.449996948242188
  1
3,15A
 41
0.9
  7
CADDY_VECTORFONT1P
 72
     2
 11
304.7000122070312
 21
205.3000030517578
 31
0.0
  2
$TAG160030
 70
     0
  0
ATTRIB
  5
209
  8
0
 10
309.0499877929688
 20
214.4000091552734
 30
0.0
 40
2.449996948242188
  1
1
 50
90.0
 41
0.9
  7
CADDY_VECTORFONT1P
  2
$TAG175000_00
 70
     0
  0
ATTRIB
  5
20B
  8
0
 10
309.0499877929688
 20
203.5439511032104
 30
0.0
 40
2.449996948242188
  1
2
 50
90.0
 41
0.9
  7
CADDY_VECTORFONT1P
 72
     2
 11
309.0499877929688
 21
204.9000244140625
 31
0.0
  2
$TAG175000_01
 70
     0
  0
ATTRIB
  5
20D
  8
0
 10
303.3527283676148
 20
215.8000030517578
 30
0.0
 40
2.449996948242188
  1
=
 41
0.9
  7
CADDY_VECTORFONT1P
 72
     2
 11
304.6999816894531
 21
215.8000030517578
 31
0.0
  2
$TAG140020
 70
     1
  0
ATTRIB
  5
20F
  8
0
 10
303.3527588851929
 20
212.3000030517578
 30
0.0
 40
2.449996948242188
  1
+
 41
0.9
  7
CADDY_VECTORFONT1P
 72
     2
 11
304.7000122070312
 21
212.3000030517578
 31
0.0
  2
$TAG140050
 70
     1
  0
SEQEND
  5
203
  8
0
  0
LINE
  5
211
  8
0
  6
CADDY_SOLID
 10
270.0
 20
235.0
 30
0.0
 11
270.0
 21
215.0
 31
0.0
  0
TEXT
  5
212
  8
0
 10
269.5
 20
222.5500875
 30
0.0
 40
1.75
  1
0706
 50
90.0
 41
0.9
  7
CADDY_VECTORFONT1P
 72
     1
 11
269.5
 21
225.0
 31
0.0
  0
LINE
  5
213
  8
0
  6
CADDY_SOLID
 10
230.0
 20
235.0
 30
0.0
 11
270.0
 21
235.0
 31
0.0
  0
LINE
  5
214
  8
0
  6
CADDY_SOLID
 10
270.0
 20
235.0
 30
0.0
 11
310.0
 21
235.0
 31
0.0
  0
TEXT
  5
215
  8
0
 10
287.5500875
 20
235.5
 30
0.0
 40
1.75
  1
0706
 41
0.9
  7
CADDY_VECTORFONT1P
 72
     1
 11
290.0
 21
235.5
 31
0.0
  0
CIRCLE
  5
216
  8
0
 10
270.0
 20
235.0
 30
0.0
 40
0.8
  0
CIRCLE
  5
217
  8
0
 10
270.0
 20
235.0
 30
0.0
 40
0.6
  0
CIRCLE
  5
218
  8
0
 10
270.0
 20
235.0
 30
0.0
 40
0.4
  0
LINE
  5
219
  8
0
  6
CADDY_SOLID
 10
310.0
 20
235.0
 30
0.0
 11
310.0
 21
215.0
 31
0.0
  0
TEXT
  5
21A
  8
0
 10
309.5
 20
222.5500875
 30
0.0
 40
1.75
  1
0706
 50
90.0
 41
0.9
  7
CADDY_VECTORFONT1P
 72
     1
 11
309.5
 21
225.0
 31
0.0
  0
INSERT
  5
21E
  8
0
 66
     1
  2
BLK17
 10
0.0
 20
0.0
 30
1.0
  0
ATTRIB
  5
222
  8
0
 10
296.9947237258911
 20
183.8000030517578
 30
0.0
 40
2.449996948242188
  1
K1101
 41
0.9
  7
CADDY_VECTORFONT1P
 72
     2
 11
304.0
 21
183.8000030517578
 31
0.0
  2
$TAG160010
 70
     0
  0
ATTRIB
  5
225
  8
0
 10
304.0000305175781
 20
180.3000030517578
 30
0.0
 40
2.449996948242188
  1

 41
0.9
  7
CADDY_VECTORFONT1P
 72
     2
 11
304.0000305175781
 21
180.3000030517578
 31
0.0
  2
$TAG160500
 70
     0
  0
ATTRIB
  5
227
  8
0
 10
309.0499877929688
 20
189.3000183105469
 30
0.0
 40
2.449996948242188
  1
13
 50
90.0
 41
0.9
  7
CADDY_VECTORFONT1P
  2
$TAG175000_00
 70
     0
  0
ATTRIB
  5
229
  8
0
 10
309.0499877929688
 20
178.0842429214478
 30
0.0
 40
2.449996948242188
  1
14
 50
90.0
 41
0.9
  7
CADDY_VECTORFONT1P
 72
     2
 11
309.0499877929688
 21
180.9000244140625
 31
0.0
  2
$TAG175000_01
 70
     0
  0
SEQEND
  5
223
  8
0
  0
LINE
  5
22B
  8
0
  6
CADDY_SOLID
 10
195.0
 20
155.0
 30
0.0
 11
195.0
 21
135.0
 31
0.0
  0
LINE
  5
22C
  8
0
  6
CADDY_SOLID
 10
195.0
 20
135.0
 30
0.0
 11
230.0
 21
135.0
 31
0.0
  0
LINE
  5
22D
  8
0
  6
CADDY_SOLID
 10
230.0
 20
135.0
 30
0.0
 11
230.0
 21
235.0
 31
0.0
  0
INSERT
  5
231
  8
0
 66
     1
  2
BLK18
 10
0.0
 20
0.0
 30
1.0
  0
ATTRIB
  5
236
  8
2
 10
259.7580249023438
 20
136.3000030517578
 30
0.0
 40
2.449996948242188
  1
-X0
 41
0.9
  7
CADDY_VECTORFONT1P
 72
     2
 11
265.0500183105469
 21
136.3000030517578
 31
0.0
  2
$TAG160010
 70
     0
  0
ATTRIB
  5
239
  8
2
 10
269.0999755859375
 20
139.2000122070312
 30
0.0
 40
2.449996948242188
  1
1
 50
90.0
 41
0.9
  7
CADDY_VECTORFONT1P
  2
$TAG160400
 70
     0
  0
ATTRIB
  5
23B
  8
0
 10
272.5999755859375
 20
139.2000122070312
 30
0.0
 40
2.449996948242188
  1
1911773
 50
90.0
 41
0.9
  7
CADDY_VECTORFONT1P
  2
$TAG160410
 70
     1
  0
ATTRIB
  5
23D
  8
2
 10
265.0500183105469
 20
132.8000030517578
 30
0.0
 40
2.449996948242188
  1

 41
0.9
  7
CADDY_VECTORFONT1P
 72
     2
 11
265.0500183105469
 21
132.8000030517578
 31
0.0
  2
$TAG160030
 70
     1
  0
ATTRIB
  5
23F
  8
2
 10
243.3417593154907
 20
127.8000030517578
 30
0.0
 40
2.449996948242188
  1
AB1RR235U2GR
 41
0.9
  7
CADDY_VECTORFONT1P
 72
     2
 11
265.0499572753906
 21
127.8000030517578
 31
0.0
  2
$TAG160040
 70
     1
  0
ATTRIB
  5
241
  8
2
 10
263.7027344711304
 20
143.3000030517578
 30
0.0
 40
2.449996948242188
  1
=
 41
0.9
  7
CADDY_VECTORFONT1P
 72
     2
 11
265.0499877929688
 21
143.3000030517578
 31
0.0
  2
$TAG140020
 70
     1
  0
ATTRIB
  5
243
  8
2
 10
263.7027649887085
 20
139.8000030517578
 30
0.0
 40
2.449996948242188
  1
+
 41
0.9
  7
CADDY_VECTORFONT1P
 72
     2
 11
265.0500183105469
 21
139.8000030517578
 31
0.0
  2
$TAG140050
 70
     1
  0
SEQEND
  5
237
  8
0
  0
INSERT
  5
248
  8
0
 66
     1
  2
BLK19
 10
0.0
 20
0.0
 30
1.0
  0
ATTRIB
  5
24C
  8
2
 10
265.2475648101807
 20
136.3000030517578
 30
0.0
 40
2.449996948242188
  1
-X1
 41
0.9
  7
CADDY_VECTORFONT1P
 72
     2
 11
270.050048828125
 21
136.3000030517578
 31
0.0
  2
$TAG160010
 70
     1
  0
ATTRIB
  5
24F
  8
2
 10
274.0999755859375
 20
139.2000122070312
 30
0.0
 40
2.449996948242188
  1
2
 50
90.0
 41
0.9
  7
CADDY_VECTORFONT1P
  2
$TAG160400
 70
     0
  0
ATTRIB
  5
251
  8
0
 10
277.5999755859375
 20
139.2000122070312
 30
0.0
 40
2.449996948242188
  1
1911774
 50
90.0
 41
0.9
  7
CADDY_VECTORFONT1P
  2
$TAG160410
 70
     1
  0
ATTRIB
  5
253
  8
2
 10
270.0500183105469
 20
132.8000030517578
 30
0.0
 40
2.449996948242188
  1

 41
0.9
  7
CADDY_VECTORFONT1P
 72
     2
 11
270.0500183105469
 21
132.8000030517578
 31
0.0
  2
$TAG160030
 70
     1
  0
ATTRIB
  5
255
  8
2
 10
248.3417593154907
 20
127.8000030517578
 30
0.0
 40
2.449996948242188
  1
AB1RR235U2GR
 41
0.9
  7
CADDY_VECTORFONT1P
 72
     2
 11
270.0499572753906
 21
127.8000030517578
 31
0.0
  2
$TAG160040
 70
     1
  0
ATTRIB
  5
257
  8
2
 10
268.7027344711304
 20
143.3000030517578
 30
0.0
 40
2.449996948242188
  1
=
 41
0.9
  7
CADDY_VECTORFONT1P
 72
     2
 11
270.0499877929688
 21
143.3000030517578
 31
0.0
  2
$TAG140020
 70
     1
  0
ATTRIB
  5
259
  8
2
 10
268.7027649887085
 20
139.8000030517578
 30
0.0
 40
2.449996948242188
  1
+
 41
0.9
  7
CADDY_VECTORFONT1P
 72
     2
 11
270.0500183105469
 21
139.8000030517578
 31
0.0
  2
$TAG140050
 70
     1
  0
SEQEND
  5
24D
  8
0
  0
INSERT
  5
25E
  8
0
 66
     1
  2
BLK20
 10
0.0
 20
0.0
 30
1.0
  0
ATTRIB
  5
262
  8
2
 10
270.2475648101807
 20
136.3000030517578
 30
0.0
 40
2.449996948242188
  1
-X1
 41
0.9
  7
CADDY_VECTORFONT1P
 72
     2
 11
275.050048828125
 21
136.3000030517578
 31
0.0
  2
$TAG160010
 70
     1
  0
ATTRIB
  5
265
  8
2
 10
279.0999755859375
 20
139.2000122070312
 30
0.0
 40
2.449996948242188
  1
3
 50
90.0
 41
0.9
  7
CADDY_VECTORFONT1P
  2
$TAG160400
 70
     0
  0
ATTRIB
  5
267
  8
0
 10
282.5999755859375
 20
139.2000122070312
 30
0.0
 40
2.449996948242188
  1
1911775
 50
90.0
 41
0.9
  7
CADDY_VECTORFONT1P
  2
$TAG160410
 70
     1
  0
ATTRIB
  5
269
  8
2
 10
275.0500183105469
 20
132.8000030517578
 30
0.0
 40
2.449996948242188
  1

 41
0.9
  7
CADDY_VECTORFONT1P
 72
     2
 11
275.0500183105469
 21
132.8000030517578
 31
0.0
  2
$TAG160030
 70
     1
  0
ATTRIB
  5
26B
  8
2
 10
253.3417287979126
 20
127.8000030517578
 30
0.0
 40
2.449996948242188
  1
AB1RR235U2GR
 41
0.9
  7
CADDY_VECTORFONT1P
 72
     2
 11
275.0499267578125
 21
127.8000030517578
 31
0.0
  2
$TAG160040
 70
     1
  0
ATTRIB
  5
26D
  8
2
 10
273.7027344711304
 20
143.3000030517578
 30
0.0
 40
2.449996948242188
  1
=
 41
0.9
  7
CADDY_VECTORFONT1P
 72
     2
 11
275.0499877929688
 21
143.3000030517578
 31
0.0
  2
$TAG140020
 70
     1
  0
ATTRIB
  5
26F
  8
2
 10
273.7027649887085
 20
139.8000030517578
 30
0.0
 40
2.449996948242188
  1
+
 41
0.9
  7
CADDY_VECTORFONT1P
 72
     2
 11
275.0500183105469
 21
139.8000030517578
 31
0.0
  2
$TAG140050
 70
     1
  0
SEQEND
  5
263
  8
0
  0
INSERT
  5
274
  8
0
 66
     1
  2
BLK21
 10
0.0
 20
0.0
 30
1.0
  0
ATTRIB
  5
278
  8
2
 10
299.7580249023438
 20
136.3000030517578
 30
0.0
 40
2.449996948242188
  1
-X0
 41
0.9
  7
CADDY_VECTORFONT1P
 72
     2
 11
305.0500183105469
 21
136.3000030517578
 31
0.0
  2
$TAG160010
 70
     0
  0
ATTRIB
  5
27B
  8
2
 10
309.0999755859375
 20
139.2000122070312
 30
0.0
 40
2.449996948242188
  1
4
 50
90.0
 41
0.9
  7
CADDY_VECTORFONT1P
  2
$TAG160400
 70
     0
  0
ATTRIB
  5
27D
  8
0
 10
312.5999755859375
 20
139.2000122070312
 30
0.0
 40
2.449996948242188
  1
1911776
 50
90.0
 41
0.9
  7
CADDY_VECTORFONT1P
  2
$TAG160410
 70
     1
  0
ATTRIB
  5
27F
  8
2
 10
305.0500183105469
 20
132.8000030517578
 30
0.0
 40
2.449996948242188
  1

 41
0.9
  7
CADDY_VECTORFONT1P
 72
     2
 11
305.0500183105469
 21
132.8000030517578
 31
0.0
  2
$TAG160030
 70
     1
  0
ATTRIB
  5
281
  8
2
 10
283.3417287979126
 20
127.8000030517578
 30
0.0
 40
2.449996948242188
  1
AB1RR235U2GR
 41
0.9
  7
CADDY_VECTORFONT1P
 72
     2
 11
305.0499267578125
 21
127.8000030517578
 31
0.0
  2
$TAG160040
 70
     1
  0
ATTRIB
  5
283
  8
2
 10
303.7027344711304
 20
143.3000030517578
 30
0.0
 40
2.449996948242188
  1
=
 41
0.9
  7
CADDY_VECTORFONT1P
 72
     2
 11
305.0499877929688
 21
143.3000030517578
 31
0.0
  2
$TAG140020
 70
     1
  0
ATTRIB
  5
285
  8
2
 10
303.7027649887085
 20
139.8000030517578
 30
0.0
 40
2.449996948242188
  1
+
 41
0.9
  7
CADDY_VECTORFONT1P
 72
     2
 11
305.0500183105469
 21
139.8000030517578
 31
0.0
  2
$TAG140050
 70
     1
  0
SEQEND
  5
279
  8
0
  0
INSERT
  5
28A
  8
0
 66
     1
  2
BLK22
 10
0.0
 20
0.0
 30
1.0
  0
ATTRIB
  5
28E
  8
2
 10
305.2475648101807
 20
136.3000030517578
 30
0.0
 40
2.449996948242188
  1
-X1
 41
0.9
  7
CADDY_VECTORFONT1P
 72
     2
 11
310.050048828125
 21
136.3000030517578
 31
0.0
  2
$TAG160010
 70
     1
  0
ATTRIB
  5
291
  8
2
 10
314.0999755859375
 20
139.2000122070312
 30
0.0
 40
2.449996948242188
  1
5
 50
90.0
 41
0.9
  7
CADDY_VECTORFONT1P
  2
$TAG160400
 70
     0
  0
ATTRIB
  5
293
  8
0
 10
317.5999755859375
 20
139.2000122070312
 30
0.0
 40
2.449996948242188
  1
1911777
 50
90.0
 41
0.9
  7
CADDY_VECTORFONT1P
  2
$TAG160410
 70
     1
  0
ATTRIB
  5
295
  8
2
 10
310.0500183105469
 20
132.8000030517578
 30
0.0
 40
2.449996948242188
  1

 41
0.9
  7
CADDY_VECTORFONT1P
 72
     2
 11
310.0500183105469
 21
132.8000030517578
 31
0.0
  2
$TAG160030
 70
     1
  0
ATTRIB
  5
297
  8
2
 10
288.3417287979126
 20
127.8000030517578
 30
0.0
 40
2.449996948242188
  1
AB1RR235U2GR
 41
0.9
  7
CADDY_VECTORFONT1P
 72
     2
 11
310.0499267578125
 21
127.8000030517578
 31
0.0
  2
$TAG160040
 70
     1
  0
ATTRIB
  5
299
  8
2
 10
308.7027344711304
 20
143.3000030517578
 30
0.0
 40
2.449996948242188
  1
=
 41
0.9
  7
CADDY_VECTORFONT1P
 72
     2
 11
310.0499877929688
 21
143.3000030517578
 31
0.0
  2
$TAG140020
 70
     1
  0
ATTRIB
  5
29B
  8
2
 10
308.7027649887085
 20
139.8000030517578
 30
0.0
 40
2.449996948242188
  1
+
 41
0.9
  7
CADDY_VECTORFONT1P
 72
     2
 11
310.0500183105469
 21
139.8000030517578
 31
0.0
  2
$TAG140050
 70
     1
  0
SEQEND
  5
28F
  8
0
  0
INSERT
  5
2A0
  8
0
 66
     1
  2
BLK23
 10
0.0
 20
0.0
 30
1.0
  0
ATTRIB
  5
2A4
  8
2
 10
310.2475648101807
 20
136.3000030517578
 30
0.0
 40
2.449996948242188
  1
-X1
 41
0.9
  7
CADDY_VECTORFONT1P
 72
     2
 11
315.050048828125
 21
136.3000030517578
 31
0.0
  2
$TAG160010
 70
     1
  0
ATTRIB
  5
2A7
  8
2
 10
319.0999755859375
 20
139.2000122070312
 30
0.0
 40
2.449996948242188
  1
6
 50
90.0
 41
0.9
  7
CADDY_VECTORFONT1P
  2
$TAG160400
 70
     0
  0
ATTRIB
  5
2A9
  8
0
 10
322.5999755859375
 20
139.2000122070312
 30
0.0
 40
2.449996948242188
  1
1911778
 50
90.0
 41
0.9
  7
CADDY_VECTORFONT1P
  2
$TAG160410
 70
     1
  0
ATTRIB
  5
2AB
  8
2
 10
315.0500183105469
 20
132.8000030517578
 30
0.0
 40
2.449996948242188
  1

 41
0.9
  7
CADDY_VECTORFONT1P
 72
     2
 11
315.0500183105469
 21
132.8000030517578
 31
0.0
  2
$TAG160030
 70
     1
  0
ATTRIB
  5
2AD
  8
2
 10
293.3417287979126
 20
127.8000030517578
 30
0.0
 40
2.449996948242188
  1
AB1RR235U2GR
 41
0.9
  7
CADDY_VECTORFONT1P
 72
     2
 11
315.0499267578125
 21
127.8000030517578
 31
0.0
  2
$TAG160040
 70
     1
  0
ATTRIB
  5
2AF
  8
2
 10
313.7027344711304
 20
143.3000030517578
 30
0.0
 40
2.449996948242188
  1
=
 41
0.9
  7
CADDY_VECTORFONT1P
 72
     2
 11
315.0499877929688
 21
143.3000030517578
 31
0.0
  2
$TAG140020
 70
     1
  0
ATTRIB
  5
2B1
  8
2
 10
313.7027649887085
 20
139.8000030517578
 30
0.0
 40
2.449996948242188
  1
+
 41
0.9
  7
CADDY_VECTORFONT1P
 72
     2
 11
315.0500183105469
 21
139.8000030517578
 31
0.0
  2
$TAG140050
 70
     1
  0
SEQEND
  5
2A5
  8
0
  0
INSERT
  5
2B6
  8
0
 66
     1
  2
BLK24
 10
0.0
 20
0.0
 30
1.0
  0
ATTRIB
  5
2BA
  8
2
 10
339.7580249023438
 20
136.3000030517578
 30
0.0
 40
2.449996948242188
  1
-X0
 41
0.9
  7
CADDY_VECTORFONT1P
 72
     2
 11
345.0500183105469
 21
136.3000030517578
 31
0.0
  2
$TAG160010
 70
     0
  0
ATTRIB
  5
2BD
  8
2
 10
349.0999755859375
 20
139.2000122070312
 30
0.0
 40
2.449996948242188
  1
7
 50
90.0
 41
0.9
  7
CADDY_VECTORFONT1P
  2
$TAG160400
 70
     0
  0
ATTRIB
  5
2BF
  8
0
 10
352.5999755859375
 20
139.2000122070312
 30
0.0
 40
2.449996948242188
  1
1911779
 50
90.0
 41
0.9
  7
CADDY_VECTORFONT1P
  2
$TAG160410
 70
     1
  0
ATTRIB
  5
2C1
  8
2
 10
345.0500183105469
 20
132.8000030517578
 30
0.0
 40
2.449996948242188
  1

 41
0.9
  7
CADDY_VECTORFONT1P
 72
     2
 11
345.0500183105469
 21
132.8000030517578
 31
0.0
  2
$TAG160030
 70
     1
  0
ATTRIB
  5
2C3
  8
2
 10
323.3417287979126
 20
127.8000030517578
 30
0.0
 40
2.449996948242188
  1
AB1RR235U2GR
 41
0.9
  7
CADDY_VECTORFONT1P
 72
     2
 11
345.0499267578125
 21
127.8000030517578
 31
0.0
  2
$TAG160040
 70
     1
  0
ATTRIB
  5
2C5
  8
2
 10
343.7027344711304
 20
143.3000030517578
 30
0.0
 40
2.449996948242188
  1
=
 41
0.9
  7
CADDY_VECTORFONT1P
 72
     2
 11
345.0499877929688
 21
143.3000030517578
 31
0.0
  2
$TAG140020
 70
     1
  0
ATTRIB
  5
2C7
  8
2
 10
343.7027649887085
 20
139.8000030517578
 30
0.0
 40
2.449996948242188
  1
+
 41
0.9
  7
CADDY_VECTORFONT1P
 72
     2
 11
345.0500183105469
 21
139.8000030517578
 31
0.0
  2
$TAG140050
 70
     1
  0
SEQEND
  5
2BB
  8
0
  0
INSERT
  5
2CC
  8
0
 66
     1
  2
BLK25
 10
0.0
 20
0.0
 30
1.0
  0
ATTRIB
  5
2D0
  8
2
 10
345.2475648101807
 20
136.3000030517578
 30
0.0
 40
2.449996948242188
  1
-X1
 41
0.9
  7
CADDY_VECTORFONT1P
 72
     2
 11
350.050048828125
 21
136.3000030517578
 31
0.0
  2
$TAG160010
 70
     1
  0
ATTRIB
  5
2D3
  8
2
 10
354.0999755859375
 20
139.2000122070312
 30
0.0
 40
2.449996948242188
  1
8
 50
90.0
 41
0.9
  7
CADDY_VECTORFONT1P
  2
$TAG160400
 70
     0
  0
ATTRIB
  5
2D5
  8
0
 10
357.5999755859375
 20
139.2000122070312
 30
0.0
 40
2.449996948242188
  1
1911780
 50
90.0
 41
0.9
  7
CADDY_VECTORFONT1P
  2
$TAG160410
 70
     1
  0
ATTRIB
  5
2D7
  8
2
 10
350.0500183105469
 20
132.8000030517578
 30
0.0
 40
2.449996948242188
  1

 41
0.9
  7
CADDY_VECTORFONT1P
 72
     2
 11
350.0500183105469
 21
132.8000030517578
 31
0.0
  2
$TAG160030
 70
     1
  0
ATTRIB
  5
2D9
  8
2
 10
328.3417287979126
 20
127.8000030517578
 30
0.0
 40
2.449996948242188
  1
AB1RR235U2GR
 41
0.9
  7
CADDY_VECTORFONT1P
 72
     2
 11
350.0499267578125
 21
127.8000030517578
 31
0.0
  2
$TAG160040
 70
     1
  0
ATTRIB
  5
2DB
  8
2
 10
348.7027344711304
 20
143.3000030517578
 30
0.0
 40
2.449996948242188
  1
=
 41
0.9
  7
CADDY_VECTORFONT1P
 72
     2
 11
350.0499877929688
 21
143.3000030517578
 31
0.0
  2
$TAG140020
 70
     1
  0
ATTRIB
  5
2DD
  8
2
 10
348.7027649887085
 20
139.8000030517578
 30
0.0
 40
2.449996948242188
  1
+
 41
0.9
  7
CADDY_VECTORFONT1P
 72
     2
 11
350.0500183105469
 21
139.8000030517578
 31
0.0
  2
$TAG140050
 70
     1
  0
SEQEND
  5
2D1
  8
0
  0
INSERT
  5
2E2
  8
0
 66
     1
  2
BLK26
 10
0.0
 20
0.0
 30
1.0
  0
ATTRIB
  5
2E6
  8
2
 10
350.2475648101807
 20
136.3000030517578
 30
0.0
 40
2.449996948242188
  1
-X1
 41
0.9
  7
CADDY_VECTORFONT1P
 72
     2
 11
355.050048828125
 21
136.3000030517578
 31
0.0
  2
$TAG160010
 70
     1
  0
ATTRIB
  5
2E9
  8
2
 10
359.0999755859375
 20
139.2000122070312
 30
0.0
 40
2.449996948242188
  1
9
 50
90.0
 41
0.9
  7
CADDY_VECTORFONT1P
  2
$TAG160400
 70
     0
  0
ATTRIB
  5
2EB
  8
0
 10
362.5999755859375
 20
139.2000122070312
 30
0.0
 40
2.449996948242188
  1
1911781
 50
90.0
 41
0.9
  7
CADDY_VECTORFONT1P
  2
$TAG160410
 70
     1
  0
ATTRIB
  5
2ED
  8
2
 10
355.0500183105469
 20
132.8000030517578
 30
0.0
 40
2.449996948242188
  1

 41
0.9
  7
CADDY_VECTORFONT1P
 72
     2
 11
355.0500183105469
 21
132.8000030517578
 31
0.0
  2
$TAG160030
 70
     1
  0
ATTRIB
  5
2EF
  8
2
 10
333.3417287979126
 20
127.8000030517578
 30
0.0
 40
2.449996948242188
  1
AB1RR235U2GR
 41
0.9
  7
CADDY_VECTORFONT1P
 72
     2
 11
355.0499267578125
 21
127.8000030517578
 31
0.0
  2
$TAG160040
 70
     1
  0
ATTRIB
  5
2F1
  8
2
 10
353.7027344711304
 20
143.3000030517578
 30
0.0
 40
2.449996948242188
  1
=
 41
0.9
  7
CADDY_VECTORFONT1P
 72
     2
 11
355.0499877929688
 21
143.3000030517578
 31
0.0
  2
$TAG140020
 70
     1
  0
ATTRIB
  5
2F3
  8
2
 10
353.7027649887085
 20
139.8000030517578
 30
0.0
 40
2.449996948242188
  1
+
 41
0.9
  7
CADDY_VECTORFONT1P
 72
     2
 11
355.0500183105469
 21
139.8000030517578
 31
0.0
  2
$TAG140050
 70
     1
  0
SEQEND
  5
2E7
  8
0
  0
LINE
  5
2F5
  8
0
  6
CADDY_SOLID
 10
200.0
 20
140.0
 30
0.0
 11
225.0
 21
140.0
 31
0.0
  0
LINE
  5
2F6
  8
0
  6
CADDY_SOLID
 10
200.0
 20
70.0
 30
0.0
 11
200.0
 21
140.0
 31
0.0
  0
LINE
  5
2F7
  8
0
  6
CADDY_SOLID
 10
200.0
 20
140.0
 30
0.0
 11
200.0
 21
155.0
 31
0.0
  0
CIRCLE
  5
2F8
  8
0
 10
200.0
 20
140.0
 30
0.0
 40
0.8
  0
CIRCLE
  5
2F9
  8
0
 10
200.0
 20
140.0
 30
0.0
 40
0.6
  0
CIRCLE
  5
2FA
  8
0
 10
200.0
 20
140.0
 30
0.0
 40
0.4
  0
LINE
  5
2FB
  8
0
  6
CADDY_SOLID
 10
225.0
 20
140.0
 30
0.0
 11
225.0
 21
240.0
 31
0.0
  0
LINE
  5
2FC
  8
0
  6
CADDY_SOLID
 10
225.0
 20
240.0
 30
0.0
 11
350.0
 21
240.0
 31
0.0
  0
LINE
  5
2FD
  8
0
  6
CADDY_SOLID
 10
270.0
 20
140.0
 30
0.0
 11
270.0
 21
150.0
 31
0.0
  0
TEXT
  5
2FE
  8
0
 10
269.5
 20
142.5500875
 30
0.0
 40
1.75
  1
0708
 50
90.0
 41
0.9
  7
CADDY_VECTORFONT1P
 72
     1
 11
269.5
 21
145.0
 31
0.0
  0
CIRCLE
  5
2FF
  8
0
 10
270.0
 20
150.0
 30
0.0
 40
0.8
  0
CIRCLE
  5
300
  8
0
 10
270.0
 20
150.0
 30
0.0
 40
0.6
  0
CIRCLE
  5
301
  8
0
 10
270.0
 20
150.0
 30
0.0
 40
0.4
  0
LINE
  5
302
  8
0
  6
CADDY_SOLID
 10
275.0
 20
150.0
 30
0.0
 11
275.0
 21
140.0
 31
0.0
  0
TEXT
  5
303
  8
0
 10
274.5
 20
142.5500875
 30
0.0
 40
1.75
  1
0708
 50
90.0
 41
0.9
  7
CADDY_VECTORFONT1P
 72
     1
 11
274.5
 21
145.0
 31
0.0
  0
LINE
  5
304
  8
0
  6
CADDY_SOLID
 10
270.0
 20
150.0
 30
0.0
 11
275.0
 21
150.0
 31
0.0
  0
CIRCLE
  5
305
  8
0
 10
275.0
 20
150.0
 30
0.0
 40
0.8
  0
CIRCLE
  5
306
  8
0
 10
275.0
 20
150.0
 30
0.0
 40
0.6
  0
CIRCLE
  5
307
  8
0
 10
275.0
 20
150.0
 30
0.0
 40
0.4
  0
LINE
  5
308
  8
0
  6
CADDY_SOLID
 10
280.0
 20
150.0
 30
0.0
 11
280.0
 21
140.0
 31
0.0
  0
TEXT
  5
309
  8
0
 10
279.5
 20
142.5500875
 30
0.0
 40
1.75
  1
0708
 50
90.0
 41
0.9
  7
CADDY_VECTORFONT1P
 72
     1
 11
279.5
 21
145.0
 31
0.0
  0
LINE
  5
30A
  8
0
  6
CADDY_SOLID
 10
310.0
 20
140.0
 30
0.0
 11
310.0
 21
150.0
 31
0.0
  0
TEXT
  5
30B
  8
0
 10
309.5
 20
142.7257
 30
0.0
 40
1.75
  1
0710
 50
90.0
 41
0.9
  7
CADDY_VECTORFONT1P
 72
     1
 11
309.5
 21
145.0
 31
0.0
  0
CIRCLE
  5
30C
  8
0
 10
310.0
 20
150.0
 30
0.0
 40
0.8
  0
CIRCLE
  5
30D
  8
0
 10
310.0
 20
150.0
 30
0.0
 40
0.6
  0
CIRCLE
  5
30E
  8
0
 10
310.0
 20
150.0
 30
0.0
 40
0.4
  0
LINE
  5
30F
  8
0
  6
CADDY_SOLID
 10
315.0
 20
150.0
 30
0.0
 11
315.0
 21
140.0
 31
0.0
  0
TEXT
  5
310
  8
0
 10
314.5
 20
142.7257
 30
0.0
 40
1.75
  1
0710
 50
90.0
 41
0.9
  7
CADDY_VECTORFONT1P
 72
     1
 11
314.5
 21
145.0
 31
0.0
  0
LINE
  5
311
  8
0
  6
CADDY_SOLID
 10
310.0
 20
150.0
 30
0.0
 11
315.0
 21
150.0
 31
0.0
  0
CIRCLE
  5
312
  8
0
 10
315.0
 20
150.0
 30
0.0
 40
0.8
  0
CIRCLE
  5
313
  8
0
 10
315.0
 20
150.0
 30
0.0
 40
0.6
  0
CIRCLE
  5
314
  8
0
 10
315.0
 20
150.0
 30
0.0
 40
0.4
  0
LINE
  5
315
  8
0
  6
CADDY_SOLID
 10
320.0
 20
150.0
 30
0.0
 11
320.0
 21
140.0
 31
0.0
  0
TEXT
  5
316
  8
0
 10
319.5
 20
142.7257
 30
0.0
 40
1.75
  1
0710
 50
90.0
 41
0.9
  7
CADDY_VECTORFONT1P
 72
     1
 11
319.5
 21
145.0
 31
0.0
  0
LINE
  5
317
  8
0
  6
CADDY_SOLID
 10
350.0
 20
140.0
 30
0.0
 11
350.0
 21
150.0
 31
0.0
  0
LINE
  5
318
  8
0
  6
CADDY_SOLID
 10
350.0
 20
150.0
 30
0.0
 11
350.0
 21
240.0
 31
0.0
  0
CIRCLE
  5
319
  8
0
 10
350.0
 20
150.0
 30
0.0
 40
0.8
  0
CIRCLE
  5
31A
  8
0
 10
350.0
 20
150.0
 30
0.0
 40
0.6
  0
CIRCLE
  5
31B
  8
0
 10
350.0
 20
150.0
 30
0.0
 40
0.4
  0
LINE
  5
31C
  8
0
  6
CADDY_SOLID
 10
355.0
 20
150.0
 30
0.0
 11
355.0
 21
140.0
 31
0.0
  0
LINE
  5
31D
  8
0
  6
CADDY_SOLID
 10
350.0
 20
150.0
 30
0.0
 11
355.0
 21
150.0
 31
0.0
  0
LINE
  5
31E
  8
0
  6
CADDY_SOLID
 10
355.0
 20
150.0
 30
0.0
 11
360.0
 21
150.0
 31
0.0
  0
CIRCLE
  5
31F
  8
0
 10
355.0
 20
150.0
 30
0.0
 40
0.8
  0
CIRCLE
  5
320
  8
0
 10
355.0
 20
150.0
 30
0.0
 40
0.6
  0
CIRCLE
  5
321
  8
0
 10
355.0
 20
150.0
 30
0.0
 40
0.4
  0
LINE
  5
322
  8
0
  6
CADDY_SOLID
 10
360.0
 20
150.0
 30
0.0
 11
360.0
 21
140.0
 31
0.0
  0
LINE
  5
323
  8
0
  6
CADDY_SOLID
 10
310.0
 20
135.0
 30
0.0
 11
310.0
 21
100.0
 31
0.0
  0
TEXT
  5
324
  8
0
 10
309.5
 20
115.2257
 30
0.0
 40
1.75
  1
0710
 50
90.0
 41
0.9
  7
CADDY_VECTORFONT1P
 72
     1
 11
309.5
 21
117.5
 31
0.0
  0
LINE
  5
325
  8
0
  6
CADDY_SOLID
 10
270.0
 20
150.0
 30
0.0
 11
270.0
 21
205.0
 31
0.0
  0
TEXT
  5
326
  8
0
 10
269.5
 20
175.0500875
 30
0.0
 40
1.75
  1
0708
 50
90.0
 41
0.9
  7
CADDY_VECTORFONT1P
 72
     1
 11
269.5
 21
177.5
 31
0.0
  0
LINE
  5
327
  8
0
  6
CADDY_SOLID
 10
310.0
 20
150.0
 30
0.0
 11
310.0
 21
180.0
 31
0.0
  0
TEXT
  5
328
  8
0
 10
309.5
 20
162.7257
 30
0.0
 40
1.75
  1
0710
 50
90.0
 41
0.9
  7
CADDY_VECTORFONT1P
 72
     1
 11
309.5
 21
165.0
 31
0.0
  0
LINE
  5
329
  8
0
  6
CADDY_SOLID
 10
310.0
 20
190.0
 30
0.0
 11
310.0
 21
205.0
 31
0.0
  0
TEXT
  5
32A
  8
0
 10
309.5
 20
195.0500875
 30
0.0
 40
1.75
  1
0709
 50
90.0
 41
0.9
  7
CADDY_VECTORFONT1P
 72
     1
 11
309.5
 21
197.5
 31
0.0
  0
INSERT
  5
32E
  8
0
  2
BLK27
 10
0.0
 20
0.0
 30
1.0
  0
LINE
  5
377
  8
0
  6
CADDY_SOLID
 10
90.0
 20
105.0
 30
0.0
 11
90.0
 21
120.0
 31
0.0
  0
LINE
  5
378
  8
0
  6
CADDY_SOLID
 10
110.0
 20
120.0
 30
0.0
 11
110.0
 21
70.0
 31
0.0
  0
LINE
  5
379
  8
0
  6
CADDY_SOLID
 10
75.0
 20
140.0
 30
0.0
 11
75.0
 21
205.0
 31
0.0
  0
TEXT
  5
37A
  8
0
 10
105.5999984741211
 20
50.59999847412109
 30
0.0
 40
2.100002288818359
  1
24VDC strømforsyning til switch
 41
0.9
  7
CADDY_VECTORFONT1P
  0
LINE
  5
37B
  8
0
  6
CADDY_SOLID
 10
195.0
 20
180.0
 30
0.0
 11
195.0
 21
205.0
 31
0.0
  0
LINE
  5
37C
  8
0
  6
CADDY_SOLID
 10
190.0
 20
180.0
 30
0.0
 11
190.0
 21
205.0
 31
0.0
  0
TEXT
  5
37D
  8
0
 10
189.5
 20
189.9713375
 30
0.0
 40
1.75
  1
0704
 50
90.0
 41
0.9
  7
CADDY_VECTORFONT1P
 72
     1
 11
189.5
 21
192.5
 31
0.0
  0
LINE
  5
37E
  8
0
  6
CADDY_SOLID
 10
75.0
 20
215.0
 30
0.0
 11
75.0
 21
255.0
 31
0.0
  0
CIRCLE
  5
37F
  8
0
 10
75.0
 20
255.0
 30
0.0
 40
0.8
  0
CIRCLE
  5
380
  8
0
 10
75.0
 20
255.0
 30
0.0
 40
0.6
  0
CIRCLE
  5
381
  8
0
 10
75.0
 20
255.0
 30
0.0
 40
0.4
  0
TEXT
  5
382
  8
0
 10
74.39999389648438
 20
235.6000061035156
 30
0.0
 40
2.099990844726562
  1
0508
 50
90.0
 41
0.9
  7
CADDY_VECTORFONT1P
  0
LINE
  5
383
  8
0
  6
CADDY_SOLID
 10
195.0
 20
215.0
 30
0.0
 11
195.0
 21
255.0
 31
0.0
  0
CIRCLE
  5
384
  8
0
 10
195.0
 20
255.0
 30
0.0
 40
0.8
  0
CIRCLE
  5
385
  8
0
 10
195.0
 20
255.0
 30
0.0
 40
0.6
  0
CIRCLE
  5
386
  8
0
 10
195.0
 20
255.0
 30
0.0
 40
0.4
  0
TEXT
  5
387
  8
0
 10
194.3999938964844
 20
235.6000061035156
 30
0.0
 40
2.099990844726562
  1
0508
 50
90.0
 41
0.9
  7
CADDY_VECTORFONT1P
  0
TEXT
  5
388
  8
0
 10
74.39999389648438
 20
165.6000061035156
 30
0.0
 40
2.099990844726562
  1
0702
 50
90.0
 41
0.9
  7
CADDY_VECTORFONT1P
  0
LINE
  5
389
  8
0
  6
CADDY_SOLID
 10
200.0
 20
175.0
 30
0.0
 11
200.0
 21
180.0
 31
0.0
  0
LINE
  5
38A
  8
0
  6
CADDY_SOLID
 10
200.0
 20
180.0
 30
0.0
 11
200.0
 21
190.0
 31
0.0
  0
LINE
  5
38B
  8
0
  6
CADDY_SOLID
 10
200.0
 20
190.0
 30
0.0
 11
210.0
 21
190.0
 31
0.0
  0
LINE
  5
38C
  8
0
  6
CADDY_SOLID
 10
210.0
 20
190.0
 30
0.0
 11
210.0
 21
70.0
 31
0.0
  0
CIRCLE
  5
38D
  8
0
 10
210.0
 20
70.0
 30
0.0
 40
0.8
  0
CIRCLE
  5
38E
  8
0
 10
210.0
 20
70.0
 30
0.0
 40
0.6
  0
CIRCLE
  5
38F
  8
0
 10
210.0
 20
70.0
 30
0.0
 40
0.4
  0
TEXT
  5
390
  8
0
 10
185.6000061035156
 20
155.6000061035156
 30
0.0
 40
2.099990844726562
  1
PE
 41
0.9
  7
CADDY_VECTORFONT1P
  0
TEXT
  5
391
  8
0
 10
195.6000061035156
 20
175.6000061035156
 30
0.0
 40
2.099990844726562
  1
PE
 41
0.9
  7
CADDY_VECTORFONT1P
  0
TEXT
  5
392
  8
0
 10
194.3999938964844
 20
190.6000061035156
 30
0.0
 40
2.099990844726562
  1
0705
 50
90.0
 41
0.9
  7
CADDY_VECTORFONT1P
  0
INSERT
  5
396
  8
0
 66
     1
  2
BLK32
 10
0.0
 20
0.0
 30
1.0
  0
ATTRIB
  5
39A
  8
2
 10
275.2475648101807
 20
136.3000030517578
 30
0.0
 40
2.449996948242188
  1
-X1
 41
0.9
  7
CADDY_VECTORFONT1P
 72
     2
 11
280.050048828125
 21
136.3000030517578
 31
0.0
  2
$TAG160010
 70
     1
  0
ATTRIB
  5
39D
  8
2
 10
284.0999755859375
 20
139.2000122070312
 30
0.0
 40
2.449996948242188
  1
3
 50
90.0
 41
0.9
  7
CADDY_VECTORFONT1P
  2
$TAG160400
 70
     0
  0
ATTRIB
  5
39F
  8
0
 10
287.5999755859375
 20
139.2000122070312
 30
0.0
 40
2.449996948242188
  1
1911775
 50
90.0
 41
0.9
  7
CADDY_VECTORFONT1P
  2
$TAG160410
 70
     1
  0
ATTRIB
  5
3A1
  8
2
 10
280.0500183105469
 20
132.8000030517578
 30
0.0
 40
2.449996948242188
  1

 41
0.9
  7
CADDY_VECTORFONT1P
 72
     2
 11
280.0500183105469
 21
132.8000030517578
 31
0.0
  2
$TAG160030
 70
     1
  0
ATTRIB
  5
3A3
  8
2
 10
258.3417287979126
 20
127.8000030517578
 30
0.0
 40
2.449996948242188
  1
AB1RR235U2GR
 41
0.9
  7
CADDY_VECTORFONT1P
 72
     2
 11
280.0499267578125
 21
127.8000030517578
 31
0.0
  2
$TAG160040
 70
     1
  0
ATTRIB
  5
3A5
  8
2
 10
278.7027344711304
 20
143.3000030517578
 30
0.0
 40
2.449996948242188
  1
=
 41
0.9
  7
CADDY_VECTORFONT1P
 72
     2
 11
280.0499877929688
 21
143.3000030517578
 31
0.0
  2
$TAG140020
 70
     1
  0
ATTRIB
  5
3A7
  8
2
 10
278.7027649887085
 20
139.8000030517578
 30
0.0
 40
2.449996948242188
  1
+
 41
0.9
  7
CADDY_VECTORFONT1P
 72
     2
 11
280.0500183105469
 21
139.8000030517578
 31
0.0
  2
$TAG140050
 70
     1
  0
SEQEND
  5
39B
  8
0
  0
LINE
  5
3A9
  8
0
  6
CADDY_SOLID
 10
285.0
 20
140.0
 30
0.0
 11
285.0
 21
150.0
 31
0.0
  0
TEXT
  5
3AA
  8
0
 10
284.5
 20
142.5500875
 30
0.0
 40
1.75
  1
0708
 50
90.0
 41
0.9
  7
CADDY_VECTORFONT1P
 72
     1
 11
284.5
 21
145.0
 31
0.0
  0
LINE
  5
3AB
  8
0
  6
CADDY_SOLID
 10
275.0
 20
150.0
 30
0.0
 11
280.0
 21
150.0
 31
0.0
  0
LINE
  5
3AC
  8
0
  6
CADDY_SOLID
 10
280.0
 20
150.0
 30
0.0
 11
285.0
 21
150.0
 31
0.0
  0
CIRCLE
  5
3AD
  8
0
 10
280.0
 20
150.0
 30
0.0
 40
0.8
  0
CIRCLE
  5
3AE
  8
0
 10
280.0
 20
150.0
 30
0.0
 40
0.6
  0
CIRCLE
  5
3AF
  8
0
 10
280.0
 20
150.0
 30
0.0
 40
0.4
  0
INSERT
  5
3B3
  8
0
 66
     1
  2
BLK33
 10
0.0
 20
0.0
 30
1.0
  0
ATTRIB
  5
3B7
  8
2
 10
315.2475648101807
 20
136.3000030517578
 30
0.0
 40
2.449996948242188
  1
-X1
 41
0.9
  7
CADDY_VECTORFONT1P
 72
     2
 11
320.050048828125
 21
136.3000030517578
 31
0.0
  2
$TAG160010
 70
     1
  0
ATTRIB
  5
3BA
  8
2
 10
324.0999755859375
 20
139.2000122070312
 30
0.0
 40
2.449996948242188
  1
6
 50
90.0
 41
0.9
  7
CADDY_VECTORFONT1P
  2
$TAG160400
 70
     0
  0
ATTRIB
  5
3BC
  8
0
 10
327.5999755859375
 20
139.2000122070312
 30
0.0
 40
2.449996948242188
  1
1911778
 50
90.0
 41
0.9
  7
CADDY_VECTORFONT1P
  2
$TAG160410
 70
     1
  0
ATTRIB
  5
3BE
  8
2
 10
320.0500183105469
 20
132.8000030517578
 30
0.0
 40
2.449996948242188
  1

 41
0.9
  7
CADDY_VECTORFONT1P
 72
     2
 11
320.0500183105469
 21
132.8000030517578
 31
0.0
  2
$TAG160030
 70
     1
  0
ATTRIB
  5
3C0
  8
2
 10
298.3417287979126
 20
127.8000030517578
 30
0.0
 40
2.449996948242188
  1
AB1RR235U2GR
 41
0.9
  7
CADDY_VECTORFONT1P
 72
     2
 11
320.0499267578125
 21
127.8000030517578
 31
0.0
  2
$TAG160040
 70
     1
  0
ATTRIB
  5
3C2
  8
2
 10
318.7027344711304
 20
143.3000030517578
 30
0.0
 40
2.449996948242188
  1
=
 41
0.9
  7
CADDY_VECTORFONT1P
 72
     2
 11
320.0499877929688
 21
143.3000030517578
 31
0.0
  2
$TAG140020
 70
     1
  0
ATTRIB
  5
3C4
  8
2
 10
318.7027649887085
 20
139.8000030517578
 30
0.0
 40
2.449996948242188
  1
+
 41
0.9
  7
CADDY_VECTORFONT1P
 72
     2
 11
320.0500183105469
 21
139.8000030517578
 31
0.0
  2
$TAG140050
 70
     1
  0
SEQEND
  5
3B8
  8
0
  0
INSERT
  5
3C9
  8
0
 66
     1
  2
BLK34
 10
0.0
 20
0.0
 30
1.0
  0
ATTRIB
  5
3CD
  8
2
 10
355.2475648101807
 20
136.3000030517578
 30
0.0
 40
2.449996948242188
  1
-X1
 41
0.9
  7
CADDY_VECTORFONT1P
 72
     2
 11
360.050048828125
 21
136.3000030517578
 31
0.0
  2
$TAG160010
 70
     1
  0
ATTRIB
  5
3D0
  8
2
 10
364.0999755859375
 20
139.2000122070312
 30
0.0
 40
2.449996948242188
  1
6
 50
90.0
 41
0.9
  7
CADDY_VECTORFONT1P
  2
$TAG160400
 70
     0
  0
ATTRIB
  5
3D2
  8
0
 10
367.5999755859375
 20
139.2000122070312
 30
0.0
 40
2.449996948242188
  1
1911778
 50
90.0
 41
0.9
  7
CADDY_VECTORFONT1P
  2
$TAG160410
 70
     1
  0
ATTRIB
  5
3D4
  8
2
 10
360.0500183105469
 20
132.8000030517578
 30
0.0
 40
2.449996948242188
  1

 41
0.9
  7
CADDY_VECTORFONT1P
 72
     2
 11
360.0500183105469
 21
132.8000030517578
 31
0.0
  2
$TAG160030
 70
     1
  0
ATTRIB
  5
3D6
  8
2
 10
338.3417287979126
 20
127.8000030517578
 30
0.0
 40
2.449996948242188
  1
AB1RR235U2GR
 41
0.9
  7
CADDY_VECTORFONT1P
 72
     2
 11
360.0499267578125
 21
127.8000030517578
 31
0.0
  2
$TAG160040
 70
     1
  0
ATTRIB
  5
3D8
  8
2
 10
358.7027344711304
 20
143.3000030517578
 30
0.0
 40
2.449996948242188
  1
=
 41
0.9
  7
CADDY_VECTORFONT1P
 72
     2
 11
360.0499877929688
 21
143.3000030517578
 31
0.0
  2
$TAG140020
 70
     1
  0
ATTRIB
  5
3DA
  8
2
 10
358.7027649887085
 20
139.8000030517578
 30
0.0
 40
2.449996948242188
  1
+
 41
0.9
  7
CADDY_VECTORFONT1P
 72
     2
 11
360.0500183105469
 21
139.8000030517578
 31
0.0
  2
$TAG140050
 70
     1
  0
SEQEND
  5
3CE
  8
0
  0
LINE
  5
3DC
  8
0
  6
CADDY_SOLID
 10
315.0
 20
150.0
 30
0.0
 11
320.0
 21
150.0
 31
0.0
  0
LINE
  5
3DD
  8
0
  6
CADDY_SOLID
 10
320.0
 20
150.0
 30
0.0
 11
325.0
 21
150.0
 31
0.0
  0
CIRCLE
  5
3DE
  8
0
 10
320.0
 20
150.0
 30
0.0
 40
0.8
  0
CIRCLE
  5
3DF
  8
0
 10
320.0
 20
150.0
 30
0.0
 40
0.6
  0
CIRCLE
  5
3E0
  8
0
 10
320.0
 20
150.0
 30
0.0
 40
0.4
  0
LINE
  5
3E1
  8
0
  6
CADDY_SOLID
 10
325.0
 20
150.0
 30
0.0
 11
325.0
 21
140.0
 31
0.0
  0
TEXT
  5
3E2
  8
0
 10
324.5
 20
142.7257
 30
0.0
 40
1.75
  1
0710
 50
90.0
 41
0.9
  7
CADDY_VECTORFONT1P
 72
     1
 11
324.5
 21
145.0
 31
0.0
  0
TEXT
  5
3E3
  8
0
 10
349.3999938964844
 20
185.6000061035156
 30
0.0
 40
2.099990844726562
  1
0707
 50
90.0
 41
0.9
  7
CADDY_VECTORFONT1P
  0
INSERT
  5
3E7
  8
0
 66
     1
  2
BLK35
 10
0.0
 20
0.0
 30
1.0
  0
ATTRIB
  5
3EB
  8
0
 10
285.9820078216553
 20
95.90000915527344
 30
0.0
 40
2.450004577636719
  1
0708
 41
0.9
  7
CADDY_VECTORFONT1P
 72
     2
 11
292.5
 21
95.90000915527344
 31
0.0
  2
$TAG160010
 70
     0
  0
ATTRIB
  5
3EE
  8
0
 10
299.6500244140625
 20
93.84999084472656
 30
0.0
 40
2.450004577636719
  1
8.0
 41
0.9
  7
CADDY_VECTORFONT1P
  2
$TAG160500
 70
     0
  0
ATTRIB
  5
3F0
  8
0
 10
291.1527424827576
 20
102.9000091552734
 30
0.0
 40
2.450004577636719
  1
=
 41
0.9
  7
CADDY_VECTORFONT1P
 72
     2
 11
292.5
 21
102.9000091552734
 31
0.0
  2
$TAG140020
 70
     1
  0
ATTRIB
  5
3F2
  8
0
 10
291.1527730003357
 20
99.40000915527344
 30
0.0
 40
2.450004577636719
  1
+
 41
0.9
  7
CADDY_VECTORFONT1P
 72
     2
 11
292.5000305175781
 21
99.40000915527344
 31
0.0
  2
$TAG140050
 70
     1
  0
SEQEND
  5
3EC
  8
0
  0
LINE
  5
3F4
  8
0
  6
CADDY_SOLID
 10
270.0
 20
95.0
 30
0.0
 11
295.0
 21
95.0
 31
0.0
  0
TEXT
  5
3F5
  8
0
 10
280.0500875
 20
95.5
 30
0.0
 40
1.75
  1
0708
 41
0.9
  7
CADDY_VECTORFONT1P
 72
     1
 11
282.5
 21
95.5
 31
0.0
  0
LINE
  5
3F6
  8
0
  6
CADDY_SOLID
 10
270.0
 20
95.0
 30
0.0
 11
270.0
 21
135.0
 31
0.0
  0
TEXT
  5
3F7
  8
0
 10
269.5
 20
112.5500875
 30
0.0
 40
1.75
  1
0708
 50
90.0
 41
0.9
  7
CADDY_VECTORFONT1P
 72
     1
 11
269.5
 21
115.0
 31
0.0
  0
LINE
  5
3F8
  8
0
  6
CADDY_SOLID
 10
310.0
 20
100.0
 30
0.0
 11
335.0
 21
100.0
 31
0.0
  0
TEXT
  5
3F9
  8
0
 10
320.2257
 20
100.5
 30
0.0
 40
1.75
  1
0710
 41
0.9
  7
CADDY_VECTORFONT1P
 72
     1
 11
322.5
 21
100.5
 31
0.0
  0
LINE
  5
3FA
  8
0
  6
CADDY_SOLID
 10
350.0
 20
105.0
 30
0.0
 11
350.0
 21
135.0
 31
0.0
  0
TEXT
  5
3FB
  8
0
 10
349.5
 20
117.5
 30
0.0
 40
1.75
  1

 50
90.0
 41
0.9
  7
CADDY_VECTORFONT1P
 72
     1
 11
349.5
 21
117.5
 31
0.0
  0
LINE
  5
3FC
  8
0
  6
CADDY_SOLID
 10
350.0
 20
105.0
 30
0.0
 11
370.0
 21
105.0
 31
0.0
  0
TEXT
  5
3FD
  8
0
 10
360.0
 20
105.5
 30
0.0
 40
1.75
  1

 41
0.9
  7
CADDY_VECTORFONT1P
 72
     1
 11
360.0
 21
105.5
 31
0.0
  0
LINE
  5
3FE
  8
0
  6
CADDY_SOLID
 10
90.0
 20
120.0
 30
0.0
 11
110.0
 21
120.0
 31
0.0
  0
CIRCLE
  5
3FF
  8
0
 10
110.0
 20
70.0
 30
0.0
 40
0.8
  0
CIRCLE
  5
400
  8
0
 10
110.0
 20
70.0
 30
0.0
 40
0.6
  0
CIRCLE
  5
401
  8
0
 10
110.0
 20
70.0
 30
0.0
 40
0.4
  0
LINE
  5
402
  8
0
  6
CADDY_SOLID
 10
80.0
 20
105.0
 30
0.0
 11
80.0
 21
140.0
 31
0.0
  0
TEXT
  5
403
  8
0
 10
79.5
 20
115.0
 30
0.0
 40
1.75
  1

 50
90.0
 41
0.9
  7
CADDY_VECTORFONT1P
 72
     1
 11
79.5
 21
115.0
 31
0.0
  0
LINE
  5
404
  8
0
  6
CADDY_SOLID
 10
70.0
 20
105.0
 30
0.0
 11
70.0
 21
205.0
 31
0.0
  0
TEXT
  5
405
  8
0
 10
69.5
 20
115.2249125
 30
0.0
 40
1.75
  1
0701
 50
90.0
 41
0.9
  7
CADDY_VECTORFONT1P
 72
     1
 11
69.5
 21
117.5
 31
0.0
  0
ENDSEC
  0
EOF
