  0
SECTION
  2
HEADER
  9
$ACADVER
  1
AC1006
  9
$DWGCODEPAGE
  3
ansi_1252
  9
$INSBASE
 10
0.0
 20
0.0
 30
0.0
  9
$EXTMIN
 10
0.0
 20
0.0
  9
$EXTMAX
 10
420.0
 20
297.0
  9
$LIMMIN
 10
0.0
 20
0.0
  9
$LIMMAX
 10
420.0
 20
297.0
  9
$ORTHOMODE
 70
     0
  9
$REGENMODE
 70
     1
  9
$FILLMODE
 70
     1
  9
$QTEXTMODE
 70
     0
  9
$MIRRTEXT
 70
     1
  9
$DRAGMODE
 70
     2
  9
$LTSCALE
 40
1.0
  9
$OSMODE
 70
    37
  9
$ATTMODE
 70
     1
  9
$TEXTSIZE
 40
2.5
  9
$TRACEWID
 40
1.0
  9
$TEXTSTYLE
  7
STANDARD
  9
$CLAYER
  8
0
  9
$CELTYPE
  6
BYLAYER
  9
$CECOLOR
 62
   256
  9
$DIMSCALE
 40
1.0
  9
$DIMASZ
 40
2.5
  9
$DIMEXO
 40
0.625
  9
$DIMDLI
 40
3.75
  9
$DIMRND
 40
0.0
  9
$DIMDLE
 40
0.0
  9
$DIMEXE
 40
1.25
  9
$DIMTP
 40
0.0
  9
$DIMTM
 40
0.0
  9
$DIMTXT
 40
2.5
  9
$DIMCEN
 40
2.5
  9
$DIMTSZ
 40
0.0
  9
$DIMTOL
 70
     0
  9
$DIMLIM
 70
     0
  9
$DIMTIH
 70
     0
  9
$DIMTOH
 70
     0
  9
$DIMSE1
 70
     0
  9
$DIMSE2
 70
     0
  9
$DIMTAD
 70
     1
  9
$DIMZIN
 70
     8
  9
$DIMBLK
  1

  9
$DIMASO
 70
     1
  9
$DIMSHO
 70
     1
  9
$DIMPOST
  1

  9
$DIMAPOST
  1

  9
$DIMALT
 70
     0
  9
$DIMALTD
 70
     3
  9
$DIMALTF
 40
0.03937007874016
  9
$DIMLFAC
 40
1.0
  9
$DIMTOFL
 70
     1
  9
$DIMTVP
 40
0.0
  9
$DIMTIX
 70
     0
  9
$DIMSOXD
 70
     0
  9
$DIMSAH
 70
     0
  9
$DIMBLK1
  1

  9
$DIMBLK2
  1

  9
$LUNITS
 70
     2
  9
$LUPREC
 70
     4
  9
$SKETCHINC
 40
1.0
  9
$FILLETRAD
 40
10.0
  9
$AUNITS
 70
     0
  9
$AUPREC
 70
     0
  9
$MENU
  1
.
  9
$ELEVATION
 40
0.0
  9
$THICKNESS
 40
0.0
  9
$LIMCHECK
 70
     0
  9
$CHAMFERA
 40
10.0
  9
$CHAMFERB
 40
10.0
  9
$SKPOLY
 70
     0
  9
$TDCREATE
 40
2451930.666666667
  9
$TDUPDATE
 40
2460738.481644421
  9
$TDINDWG
 40
0.0000000116
  9
$TDUSRTIMER
 40
0.0000000116
  9
$USRTIMER
 70
     1
  9
$ANGBASE
 50
0.0
  9
$ANGDIR
 70
     0
  9
$PDMODE
 70
     0
  9
$PDSIZE
 40
0.0
  9
$PLINEWID
 40
0.0
  9
$COORDS
 70
     1
  9
$SPLFRAME
 70
     0
  9
$SPLINETYPE
 70
     6
  9
$SPLINESEGS
 70
     8
  9
$ATTDIA
 70
     0
  9
$ATTREQ
 70
     1
  9
$HANDLING
 70
     1
  9
$HANDSEED
  5
896
  9
$SURFTAB1
 70
     6
  9
$SURFTAB2
 70
     6
  9
$SURFTYPE
 70
     6
  9
$SURFU
 70
     6
  9
$SURFV
 70
     6
  9
$UCSNAME
  2

  9
$UCSORG
 10
0.0
 20
0.0
 30
0.0
  9
$UCSXDIR
 10
1.0
 20
0.0
 30
0.0
  9
$UCSYDIR
 10
0.0
 20
1.0
 30
0.0
  9
$USERI1
 70
     0
  9
$USERI2
 70
     0
  9
$USERI3
 70
     0
  9
$USERI4
 70
     0
  9
$USERI5
 70
     0
  9
$USERR1
 40
0.0
  9
$USERR2
 40
0.0
  9
$USERR3
 40
0.0
  9
$USERR4
 40
0.0
  9
$USERR5
 40
0.0
  9
$WORLDVIEW
 70
     1
  0
ENDSEC
  0
SECTION
  2
TABLES
  0
TABLE
  2
VPORT
 70
     1
  0
VPORT
  2
*ACTIVE
 70
     0
 10
0.0
 20
0.0
 11
1.0
 21
1.0
 12
210.0
 22
142.5
 13
0.0
 23
0.0
 14
10.0
 24
10.0
 15
10.0
 25
10.0
 16
0.0
 26
0.0
 36
1.0
 17
0.0
 27
0.0
 37
0.0
 40
270.3
 41
1.972972972850329
 42
50.0
 43
0.0
 44
0.0
 50
0.0
 51
0.0
 71
     0
 72
   100
 73
     1
 74
     3
 75
     0
 76
     0
 77
     0
 78
     0
  0
ENDTAB
  0
TABLE
  2
LTYPE
 70
     6
  0
LTYPE
  2
CONTINUOUS
 70
     0
  3
Solid line
 72
    65
 73
     0
 40
0.0
  0
LTYPE
  2
CADDY_SOLID
 70
     0
  3
____________
 72
    65
 73
     0
 40
0.0
  0
LTYPE
  2
CADDY_DOT
 70
     0
  3
. . . . . . 
 72
    65
 73
     2
 40
2.0
 49
0.5
 49
-1.5
  0
LTYPE
  2
CADDY_DASH
 70
     0
  3
_ _ _ _ _ _ 
 72
    65
 73
     2
 40
3.5
 49
2.0
 49
-1.5
  0
LTYPE
  2
CADDY_DASHDOT
 70
     0
  3
_ . _ . _ . 
 72
    65
 73
     4
 40
5.5
 49
0.5
 49
-1.5
 49
2.0
 49
-1.5
  0
LTYPE
  2
CADDY_DASHDOTDOT
 70
     0
  3
_ . . _ . . 
 72
    65
 73
     6
 40
7.5
 49
2.0
 49
-1.5
 49
0.5
 49
-1.5
 49
0.5
 49
-1.5
  0
ENDTAB
  0
TABLE
  2
LAYER
 70
     1
  0
LAYER
  2
0
 70
     0
 62
     7
  6
CONTINUOUS
  0
ENDTAB
  0
TABLE
  2
STYLE
 70
    17
  0
STYLE
  2
STANDARD
 70
     0
 40
0.0
 41
1.0
 50
0.0
 71
     0
 42
2.5
  3
txt
  4

  0
STYLE
  2
CADDY_VECTORFONT1P
 70
     0
 40
0.0
 41
0.9
 50
0.0
 71
     0
 42
0.2
  3
isocp___.ttf
  4

  0
STYLE
  2
CADDY_VECTORFONT1N
 70
     0
 40
0.0
 41
1.100000023841858
 50
0.0
 71
     0
 42
0.2
  3

  4

  0
STYLE
  2
CADDY_VECTORFONT2P
 70
     0
 40
0.0
 41
1.35
 50
0.0
 71
     0
 42
0.2
  3

  4

  0
STYLE
  2
CADDY_VECTORFONT2N
 70
     0
 40
0.0
 41
1.549999952316284
 50
0.0
 71
     0
 42
0.2
  3

  4

  0
STYLE
  2
CADDY_VECTORFONT3P
 70
     0
 40
0.0
 41
1.3
 50
0.0
 71
     0
 42
0.2
  3

  4

  0
STYLE
  2
CADDY_VECTORFONT3N
 70
     0
 40
0.0
 41
1.5
 50
0.0
 71
     0
 42
0.2
  3

  4

  0
STYLE
  2
CADDY_VECTORFONT4P
 70
     0
 40
0.0
 41
1.1
 50
0.0
 71
     0
 42
0.2
  3

  4

  0
STYLE
  2
CADDY_VECTORFONT4N
 70
     0
 40
0.0
 41
1.299999952316284
 50
0.0
 71
     0
 42
0.2
  3

  4

  0
STYLE
  2
CADDY_VECTORFONT5P
 70
     0
 40
0.0
 41
1.0
 50
0.0
 71
     0
 42
0.2
  3

  4

  0
STYLE
  2
CADDY_VECTORFONT5N
 70
     0
 40
0.0
 41
1.200000047683716
 50
0.0
 71
     0
 42
0.2
  3

  4

  0
STYLE
  2
CADDY_VECTORFONT6P
 70
     0
 40
0.0
 41
0.9
 50
0.0
 71
     0
 42
0.2
  3

  4

  0
STYLE
  2
CADDY_VECTORFONT6N
 70
     0
 40
0.0
 41
1.100000023841858
 50
0.0
 71
     0
 42
0.2
  3

  4

  0
STYLE
  2
CADDY_VECTORFONT7P
 70
     0
 40
0.0
 41
1.3
 50
0.0
 71
     0
 42
0.2
  3

  4

  0
STYLE
  2
CADDY_VECTORFONT7N
 70
     0
 40
0.0
 41
1.5
 50
0.0
 71
     0
 42
0.2
  3

  4

  0
STYLE
  2
CADDY_VECTORFONT8P
 70
     0
 40
0.0
 41
1.5
 50
0.0
 71
     0
 42
0.2
  3

  4

  0
STYLE
  2
CADDY_VECTORFONT8N
 70
     0
 40
0.0
 41
1.700000047683716
 50
0.0
 71
     0
 42
0.2
  3

  4

  0
ENDTAB
  0
TABLE
  2
VIEW
 70
     0
  0
ENDTAB
  0
TABLE
  2
UCS
 70
     0
  0
ENDTAB
  0
ENDSEC
  0
SECTION
  2
BLOCKS
  0
BLOCK
  8
0
  2
BLK1
 70
     0
 10
0.0
 20
0.0
 30
0.0
  0
LINE
  5
44
  8
0
  6
CADDY_SOLID
 10
10.0
 20
10.0
 30
0.0
 11
10.0
 21
275.0
 31
0.0
  0
LINE
  5
45
  8
0
  6
CADDY_SOLID
 10
10.0
 20
275.0
 30
0.0
 11
410.0
 21
275.0
 31
0.0
  0
LINE
  5
46
  8
0
  6
CADDY_SOLID
 10
410.0
 20
275.0
 30
0.0
 11
410.0
 21
10.0
 31
0.0
  0
LINE
  5
47
  8
0
  6
CADDY_SOLID
 10
50.0
 20
270.0
 30
0.0
 11
50.0
 21
275.0
 31
0.0
  0
TEXT
  5
48
  8
0
 10
29.14336390228272
 20
271.2000122070312
 30
0.0
 40
2.449981689453125
  1
0
 41
0.9
  7
CADDY_VECTORFONT1P
 72
     1
 11
30.0
 21
271.2000122070312
 31
0.0
  0
TEXT
  5
49
  8
0
 10
30.0
 20
265.2000122070312
 30
0.0
 40
2.449981689453125
  1

 41
0.9
  7
CADDY_VECTORFONT1P
 72
     1
 11
30.0
 21
265.2000122070312
 31
0.0
  0
LINE
  5
4A
  8
0
  6
CADDY_SOLID
 10
90.0
 20
270.0
 30
0.0
 11
90.0
 21
275.0
 31
0.0
  0
LINE
  5
4B
  8
0
  6
CADDY_SOLID
 10
130.0
 20
270.0
 30
0.0
 11
130.0
 21
275.0
 31
0.0
  0
LINE
  5
4C
  8
0
  6
CADDY_SOLID
 10
170.0
 20
270.0
 30
0.0
 11
170.0
 21
275.0
 31
0.0
  0
LINE
  5
4D
  8
0
  6
CADDY_SOLID
 10
210.0
 20
270.0
 30
0.0
 11
210.0
 21
275.0
 31
0.0
  0
LINE
  5
4E
  8
0
  6
CADDY_SOLID
 10
250.0
 20
270.0
 30
0.0
 11
250.0
 21
275.0
 31
0.0
  0
LINE
  5
4F
  8
0
  6
CADDY_SOLID
 10
290.0
 20
270.0
 30
0.0
 11
290.0
 21
275.0
 31
0.0
  0
LINE
  5
50
  8
0
  6
CADDY_SOLID
 10
330.0
 20
270.0
 30
0.0
 11
330.0
 21
275.0
 31
0.0
  0
LINE
  5
51
  8
0
  6
CADDY_SOLID
 10
370.0
 20
270.0
 30
0.0
 11
370.0
 21
275.0
 31
0.0
  0
TEXT
  5
52
  8
0
 10
69.38369947662353
 20
271.2000122070312
 30
0.0
 40
2.449981689453125
  1
1
 41
0.9
  7
CADDY_VECTORFONT1P
 72
     1
 11
69.99999237060547
 21
271.2000122070312
 31
0.0
  0
TEXT
  5
53
  8
0
 10
109.1610037704468
 20
271.2000122070312
 30
0.0
 40
2.449981689453125
  1
2
 41
0.9
  7
CADDY_VECTORFONT1P
 72
     1
 11
110.0
 21
271.2000122070312
 31
0.0
  0
TEXT
  5
54
  8
0
 10
149.1312364929199
 20
271.2000122070312
 30
0.0
 40
2.449981689453125
  1
3
 41
0.9
  7
CADDY_VECTORFONT1P
 72
     1
 11
150.0
 21
271.2000122070312
 31
0.0
  0
TEXT
  5
55
  8
0
 10
189.0364222015381
 20
271.2000122070312
 30
0.0
 40
2.449981689453125
  1
4
 41
0.9
  7
CADDY_VECTORFONT1P
 72
     1
 11
190.0
 21
271.2000122070312
 31
0.0
  0
TEXT
  5
56
  8
0
 10
229.1433639022827
 20
271.2000122070312
 30
0.0
 40
2.449981689453125
  1
5
 41
0.9
  7
CADDY_VECTORFONT1P
 72
     1
 11
230.0
 21
271.2000122070312
 31
0.0
  0
TEXT
  5
57
  8
0
 10
269.1433639022827
 20
271.2000122070312
 30
0.0
 40
2.449981689453125
  1
6
 41
0.9
  7
CADDY_VECTORFONT1P
 72
     1
 11
270.0
 21
271.2000122070312
 31
0.0
  0
TEXT
  5
58
  8
0
 10
309.140056427002
 20
271.2000122070312
 30
0.0
 40
2.449981689453125
  1
7
 41
0.9
  7
CADDY_VECTORFONT1P
 72
     1
 11
310.0
 21
271.2000122070312
 31
0.0
  0
TEXT
  5
59
  8
0
 10
349.1433639022827
 20
271.2000122070312
 30
0.0
 40
2.449981689453125
  1
8
 41
0.9
  7
CADDY_VECTORFONT1P
 72
     1
 11
350.0
 21
271.2000122070312
 31
0.0
  0
TEXT
  5
5A
  8
0
 10
389.1433639022827
 20
271.2000122070312
 30
0.0
 40
2.449981689453125
  1
9
 41
0.9
  7
CADDY_VECTORFONT1P
 72
     1
 11
390.0
 21
271.2000122070312
 31
0.0
  0
TEXT
  5
5B
  8
0
 10
70.0
 20
265.2000122070312
 30
0.0
 40
2.449981689453125
  1

 41
0.9
  7
CADDY_VECTORFONT1P
 72
     1
 11
70.0
 21
265.2000122070312
 31
0.0
  0
TEXT
  5
5C
  8
0
 10
110.0
 20
265.2000122070312
 30
0.0
 40
2.449981689453125
  1

 41
0.9
  7
CADDY_VECTORFONT1P
 72
     1
 11
110.0
 21
265.2000122070312
 31
0.0
  0
TEXT
  5
5D
  8
0
 10
150.0
 20
265.2000122070312
 30
0.0
 40
2.449981689453125
  1

 41
0.9
  7
CADDY_VECTORFONT1P
 72
     1
 11
150.0
 21
265.2000122070312
 31
0.0
  0
TEXT
  5
5E
  8
0
 10
190.0
 20
265.2000122070312
 30
0.0
 40
2.449981689453125
  1

 41
0.9
  7
CADDY_VECTORFONT1P
 72
     1
 11
190.0
 21
265.2000122070312
 31
0.0
  0
TEXT
  5
5F
  8
0
 10
230.0
 20
265.2000122070312
 30
0.0
 40
2.449981689453125
  1

 41
0.9
  7
CADDY_VECTORFONT1P
 72
     1
 11
230.0
 21
265.2000122070312
 31
0.0
  0
TEXT
  5
60
  8
0
 10
270.0000305175781
 20
265.2000122070312
 30
0.0
 40
2.449981689453125
  1

 41
0.9
  7
CADDY_VECTORFONT1P
 72
     1
 11
270.0000305175781
 21
265.2000122070312
 31
0.0
  0
TEXT
  5
61
  8
0
 10
310.0000305175781
 20
265.2000122070312
 30
0.0
 40
2.449981689453125
  1

 41
0.9
  7
CADDY_VECTORFONT1P
 72
     1
 11
310.0000305175781
 21
265.2000122070312
 31
0.0
  0
TEXT
  5
62
  8
0
 10
350.0000305175781
 20
265.2000122070312
 30
0.0
 40
2.449981689453125
  1

 41
0.9
  7
CADDY_VECTORFONT1P
 72
     1
 11
350.0000305175781
 21
265.2000122070312
 31
0.0
  0
TEXT
  5
63
  8
0
 10
390.0000305175781
 20
265.2000122070312
 30
0.0
 40
2.449981689453125
  1

 41
0.9
  7
CADDY_VECTORFONT1P
 72
     1
 11
390.0000305175781
 21
265.2000122070312
 31
0.0
  0
LINE
  5
64
  8
0
  6
CADDY_SOLID
 10
15.0
 20
270.0
 30
0.0
 11
15.0
 21
30.0
 31
0.0
  0
LINE
  5
65
  8
0
  6
CADDY_SOLID
 10
405.0
 20
270.0
 30
0.0
 11
405.0
 21
30.0
 31
0.0
  0
LINE
  5
66
  8
0
  6
CADDY_SOLID
 10
15.0
 20
230.0
 30
0.0
 11
10.0
 21
230.0
 31
0.0
  0
LINE
  5
67
  8
0
  6
CADDY_SOLID
 10
15.0
 20
190.0
 30
0.0
 11
10.0
 21
190.0
 31
0.0
  0
LINE
  5
68
  8
0
  6
CADDY_SOLID
 10
15.0
 20
150.0
 30
0.0
 11
10.0
 21
150.0
 31
0.0
  0
LINE
  5
69
  8
0
  6
CADDY_SOLID
 10
10.0
 20
110.0
 30
0.0
 11
15.0
 21
110.0
 31
0.0
  0
LINE
  5
6A
  8
0
  6
CADDY_SOLID
 10
10.0
 20
70.0
 30
0.0
 11
15.0
 21
70.0
 31
0.0
  0
TEXT
  5
6B
  8
0
 10
11.39750137329102
 20
248.6999969482422
 30
0.0
 40
2.449996948242188
  1
A
 41
0.9
  7
CADDY_VECTORFONT1P
 72
     1
 11
12.5
 21
248.6999969482422
 31
0.0
  0
TEXT
  5
6C
  8
0
 10
11.52098121948242
 20
208.6999969482422
 30
0.0
 40
2.449996948242188
  1
B
 41
0.9
  7
CADDY_VECTORFONT1P
 72
     1
 11
12.5
 21
208.6999969482422
 31
0.0
  0
TEXT
  5
6D
  8
0
 10
11.65548605194092
 20
168.6999969482422
 30
0.0
 40
2.449996948242188
  1
C
 41
0.9
  7
CADDY_VECTORFONT1P
 72
     1
 11
12.5
 21
168.6999969482422
 31
0.0
  0
TEXT
  5
6E
  8
0
 10
11.52098121948242
 20
128.6999969482422
 30
0.0
 40
2.449996948242188
  1
D
 41
0.9
  7
CADDY_VECTORFONT1P
 72
     1
 11
12.5
 21
128.6999969482422
 31
0.0
  0
TEXT
  5
6F
  8
0
 10
11.65548342208862
 20
88.69999694824219
 30
0.0
 40
2.450004577636719
  1
E
 41
0.9
  7
CADDY_VECTORFONT1P
 72
     1
 11
12.5
 21
88.69999694824219
 31
0.0
  0
TEXT
  5
70
  8
0
 10
11.65548473701477
 20
48.70000076293945
 30
0.0
 40
2.450000762939453
  1
F
 41
0.9
  7
CADDY_VECTORFONT1P
 72
     1
 11
12.5
 21
48.70000076293945
 31
0.0
  0
LINE
  5
71
  8
0
  6
CADDY_SOLID
 10
410.0
 20
230.0
 30
0.0
 11
405.0
 21
230.0
 31
0.0
  0
LINE
  5
72
  8
0
  6
CADDY_SOLID
 10
410.0
 20
190.0
 30
0.0
 11
405.0
 21
190.0
 31
0.0
  0
LINE
  5
73
  8
0
  6
CADDY_SOLID
 10
410.0
 20
150.0
 30
0.0
 11
405.0
 21
150.0
 31
0.0
  0
LINE
  5
74
  8
0
  6
CADDY_SOLID
 10
405.0
 20
110.0
 30
0.0
 11
410.0
 21
110.0
 31
0.0
  0
LINE
  5
75
  8
0
  6
CADDY_SOLID
 10
405.0
 20
70.0
 30
0.0
 11
410.0
 21
70.0
 31
0.0
  0
TEXT
  5
76
  8
0
 10
406.397501373291
 20
248.6999969482422
 30
0.0
 40
2.449996948242188
  1
A
 41
0.9
  7
CADDY_VECTORFONT1P
 72
     1
 11
407.5
 21
248.6999969482422
 31
0.0
  0
TEXT
  5
77
  8
0
 10
406.5209812194824
 20
208.6999969482422
 30
0.0
 40
2.449996948242188
  1
B
 41
0.9
  7
CADDY_VECTORFONT1P
 72
     1
 11
407.5
 21
208.6999969482422
 31
0.0
  0
TEXT
  5
78
  8
0
 10
406.6554860519409
 20
168.6999969482422
 30
0.0
 40
2.449996948242188
  1
C
 41
0.9
  7
CADDY_VECTORFONT1P
 72
     1
 11
407.5
 21
168.6999969482422
 31
0.0
  0
TEXT
  5
79
  8
0
 10
406.5209812194824
 20
128.6999969482422
 30
0.0
 40
2.449996948242188
  1
D
 41
0.9
  7
CADDY_VECTORFONT1P
 72
     1
 11
407.5
 21
128.6999969482422
 31
0.0
  0
TEXT
  5
7A
  8
0
 10
406.6554834220887
 20
88.69999694824219
 30
0.0
 40
2.450004577636719
  1
E
 41
0.9
  7
CADDY_VECTORFONT1P
 72
     1
 11
407.5
 21
88.69999694824219
 31
0.0
  0
TEXT
  5
7B
  8
0
 10
406.6554847370148
 20
48.70000076293945
 30
0.0
 40
2.450000762939453
  1
F
 41
0.9
  7
CADDY_VECTORFONT1P
 72
     1
 11
407.5
 21
48.70000076293945
 31
0.0
  0
LINE
  5
7C
  8
0
  6
CADDY_SOLID
 10
15.0
 20
270.0
 30
0.0
 11
405.0
 21
270.0
 31
0.0
  0
LINE
  5
7D
  8
0
  6
CADDY_SOLID
 10
410.0
 20
10.0
 30
0.0
 11
10.0
 21
10.0
 31
0.0
  0
LINE
  5
7E
  8
0
  6
CADDY_SOLID
 10
10.0
 20
30.0
 30
0.0
 11
410.0
 21
30.0
 31
0.0
  0
LINE
  5
7F
  8
0
  6
CADDY_SOLID
 10
260.0
 20
20.0
 30
0.0
 11
410.0
 21
20.0
 31
0.0
  0
LINE
  5
80
  8
0
  6
CADDY_SOLID
 10
10.0
 20
30.0
 30
0.0
 11
15.0
 21
30.0
 31
0.0
  0
LINE
  5
81
  8
0
  6
CADDY_SOLID
 10
405.0
 20
30.0
 30
0.0
 11
410.0
 21
30.0
 31
0.0
  0
LINE
  5
82
  8
0
  6
CADDY_SOLID
 10
65.0
 20
30.0
 30
0.0
 11
65.0
 21
10.0
 31
0.0
  0
TEXT
  5
83
  8
0
 10
69.19999694824219
 20
14.19999980926514
 30
0.0
 40
2.449999809265137
  1
Kassepakker
 41
0.9
  7
CADDY_VECTORFONT1P
  0
TEXT
  5
84
  8
0
 10
69.19999694824219
 20
23.20000076293945
 30
0.0
 40
2.44999885559082
  1
MPN - GUIDED BY VISION
 41
0.9
  7
CADDY_VECTORFONT1P
  0
TEXT
  5
85
  8
0
 10
69.19999694824219
 20
18.70000076293945
 30
0.0
 40
2.44999885559082
  1

 41
0.9
  7
CADDY_VECTORFONT1P
  0
LINE
  5
86
  8
0
  6
CADDY_SOLID
 10
160.0
 20
30.0
 30
0.0
 11
160.0
 21
10.0
 31
0.0
  0
TEXT
  5
87
  8
0
 10
164.1999969482422
 20
23.20000076293945
 30
0.0
 40
2.44999885559082
  1
Advantys
 41
0.9
  7
CADDY_VECTORFONT1P
  0
TEXT
  5
88
  8
0
 10
164.1999969482422
 20
18.70000076293945
 30
0.0
 40
2.44999885559082
  1

 41
0.9
  7
CADDY_VECTORFONT1P
  0
TEXT
  5
89
  8
0
 10
164.1999969482422
 20
14.19999980926514
 30
0.0
 40
2.449999809265137
  1

 41
0.9
  7
CADDY_VECTORFONT1P
  0
LINE
  5
8A
  8
0
  6
CADDY_SOLID
 10
260.0
 20
30.0
 30
0.0
 11
260.0
 21
10.0
 31
0.0
  0
TEXT
  5
8B
  8
0
 10
261.2000122070312
 20
26.20000076293945
 30
0.0
 40
2.44999885559082
  1
Projekt:
 41
0.9
  7
CADDY_VECTORFONT1P
  0
TEXT
  5
8C
  8
0
 10
261.2000122070312
 20
16.20000076293945
 30
0.0
 40
2.44999885559082
  1
Dato:
 41
0.9
  7
CADDY_VECTORFONT1P
  0
LINE
  5
8D
  8
0
  6
CADDY_SOLID
 10
290.0
 20
30.0
 30
0.0
 11
290.0
 21
10.0
 31
0.0
  0
TEXT
  5
8E
  8
0
 10
291.2000122070312
 20
16.20000076293945
 30
0.0
 40
2.44999885559082
  1
Funkt.:
 41
0.9
  7
CADDY_VECTORFONT1P
  0
TEXT
  5
8F
  8
0
 10
291.2000122070312
 20
26.20000076293945
 30
0.0
 40
2.44999885559082
  1
Tegn. nr.:
 41
0.9
  7
CADDY_VECTORFONT1P
  0
TEXT
  5
90
  8
0
 10
276.1062470369339
 20
21.70000076293945
 30
0.0
 40
2.44999885559082
  1
CP6000
 41
0.9
  7
CADDY_VECTORFONT1P
 72
     2
 11
286.2999572753906
 21
21.70000076293945
 31
0.0
  0
TEXT
  5
91
  8
0
 10
270.4724379899978
 20
11.69999980926514
 30
0.0
 40
2.449999809265137
  1
17-10-2005
 41
0.9
  7
CADDY_VECTORFONT1P
 72
     2
 11
286.2999267578125
 21
11.69999980926514
 31
0.0
  0
LINE
  5
92
  8
0
  6
CADDY_SOLID
 10
320.0
 20
20.0
 30
0.0
 11
320.0
 21
10.0
 31
0.0
  0
TEXT
  5
93
  8
0
 10
321.2000122070312
 20
16.20000076293945
 30
0.0
 40
2.44999885559082
  1
Plac.:
 41
0.9
  7
CADDY_VECTORFONT1P
  0
TEXT
  5
94
  8
0
 10
314.9527328978539
 20
11.69999980926514
 30
0.0
 40
2.449999809265137
  1
=
 41
0.9
  7
CADDY_VECTORFONT1P
 72
     2
 11
316.2999877929688
 21
11.69999980926514
 31
0.0
  0
LINE
  5
95
  8
0
  6
CADDY_SOLID
 10
382.5
 20
20.0
 30
0.0
 11
382.5
 21
30.0
 31
0.0
  0
LINE
  5
96
  8
0
  6
CADDY_SOLID
 10
382.5
 20
10.0
 30
0.0
 11
382.5
 21
20.0
 31
0.0
  0
TEXT
  5
97
  8
0
 10
349.952763415432
 20
11.69999980926514
 30
0.0
 40
2.449999809265137
  1
+
 41
0.9
  7
CADDY_VECTORFONT1P
 72
     2
 11
351.3000183105469
 21
11.69999980926514
 31
0.0
  0
LINE
  5
98
  8
0
  6
CADDY_SOLID
 10
355.0
 20
10.0
 30
0.0
 11
355.0
 21
20.0
 31
0.0
  0
LINE
  5
99
  8
0
  6
CADDY_SOLID
 10
355.0
 20
20.0
 30
0.0
 11
355.0
 21
30.0
 31
0.0
  0
TEXT
  5
9A
  8
0
 10
356.2000122070312
 20
26.20000076293945
 30
0.0
 40
2.44999885559082
  1
Rev.:
 41
0.9
  7
CADDY_VECTORFONT1P
  0
LINE
  5
9B
  8
0
  6
CADDY_SOLID
 10
337.5
 20
20.0
 30
0.0
 11
337.5
 21
30.0
 31
0.0
  0
TEXT
  5
9C
  8
0
 10
333.5
 20
21.75
 30
0.0
 40
3.5
  1

 41
0.9
  7
CADDY_VECTORFONT1P
 72
     2
 11
333.5
 21
21.75
 31
0.0
  0
TEXT
  5
9D
  8
0
 10
338.7000122070312
 20
26.20000076293945
 30
0.0
 40
2.44999885559082
  1
Init.:
 41
0.9
  7
CADDY_VECTORFONT1P
  0
TEXT
  5
9E
  8
0
 10
351.3000183105469
 20
21.70000076293945
 30
0.0
 40
2.44999885559082
  1

 41
0.9
  7
CADDY_VECTORFONT1P
 72
     2
 11
351.3000183105469
 21
21.70000076293945
 31
0.0
  0
TEXT
  5
9F
  8
0
 10
378.8000183105469
 20
21.70000076293945
 30
0.0
 40
2.44999885559082
  1

 41
0.9
  7
CADDY_VECTORFONT1P
 72
     2
 11
378.8000183105469
 21
21.70000076293945
 31
0.0
  0
TEXT
  5
A0
  8
0
 10
399.54245
 20
21.75
 30
0.0
 40
3.5
  1
18
 41
0.9
  7
CADDY_VECTORFONT1P
 72
     2
 11
403.25
 21
21.75
 31
0.0
  0
TEXT
  5
A1
  8
0
 10
405.25
 20
21.75
 30
0.0
 40
3.5
  1

 41
0.9
  7
CADDY_VECTORFONT1P
  0
TEXT
  5
A2
  8
0
 10
383.7000122070312
 20
26.20000076293945
 30
0.0
 40
2.44999885559082
  1
Blad:
 41
0.9
  7
CADDY_VECTORFONT1P
  0
TEXT
  5
A3
  8
0
 10
403.7047335125923
 20
11.69999980926514
 30
0.0
 40
2.449999809265137
  1
19
 41
0.9
  7
CADDY_VECTORFONT1P
 72
     2
 11
406.3000183105469
 21
11.69999980926514
 31
0.0
  0
TEXT
  5
A4
  8
0
 10
383.7000122070312
 20
16.20000076293945
 30
0.0
 40
2.44999885559082
  1
Næste blad:
 41
0.9
  7
CADDY_VECTORFONT1P
  0
TEXT
  5
A5
  8
0
 10
356.2000122070312
 20
16.20000076293945
 30
0.0
 40
2.44999885559082
  1
Antal blade:
 41
0.9
  7
CADDY_VECTORFONT1P
  0
TEXT
  5
A6
  8
0
 10
375.7284535496712
 20
11.69999980926514
 30
0.0
 40
2.449999809265137
  1
32
 41
0.9
  7
CADDY_VECTORFONT1P
 72
     2
 11
378.8000183105469
 21
11.69999980926514
 31
0.0
  0
ENDBLK
  8
0
  0
BLOCK
  8
0
  2
BLK2
 70
     2
 10
0.0
 20
0.0
 30
0.0
  0
ATTDEF
  5
B2
  8
0
 10
32.97677136993408
 20
147.0500030517578
 30
0.0
 40
2.449996948242188
  1

 41
0.9
  7
CADDY_VECTORFONT1P
 72
     2
 11
50.27497482299805
 21
147.0500030517578
 31
0.0
  3
Beskrivelse 00
  2
$TAG160030
 70
     0
  0
ATTDEF
  5
B4
  8
0
 10
54.99351398620605
 20
230.6999969482422
 30
0.0
 40
2.449996948242188
  1
D1801
 41
0.9
  7
CADDY_VECTORFONT1P
 72
     2
 11
71.80000305175781
 21
230.6999969482422
 31
0.0
  3
Produkt (-)
  2
$TAG160010
 70
     0
  0
TEXT
  5
B5
  8
0
 10
65.69999694824219
 20
220.6999969482422
 30
0.0
 40
2.449996948242188
  1
DDI3610
 41
0.9
  7
CADDY_VECTORFONT1P
  0
INSERT
  5
B9
  8
0
  2
BLK3
 10
0.0
 20
0.0
 30
1.0
  0
TEXT
  5
BE
  8
0
 10
70.69999694824219
 20
210.6999969482422
 30
0.0
 40
2.449996948242188
  1
RDY
 41
0.9
  7
CADDY_VECTORFONT1P
  0
TEXT
  5
BF
  8
0
 10
70.69999694824219
 20
205.6999969482422
 30
0.0
 40
2.449996948242188
  1
ERR
 41
0.9
  7
CADDY_VECTORFONT1P
  0
INSERT
  5
C3
  8
0
  2
BLK4
 10
0.0
 20
0.0
 30
1.0
  0
INSERT
  5
CB
  8
0
  2
BLK5
 10
0.0
 20
0.0
 30
1.0
  0
INSERT
  5
D3
  8
0
  2
BLK6
 10
0.0
 20
0.0
 30
1.0
  0
INSERT
  5
DB
  8
0
  2
BLK7
 10
0.0
 20
0.0
 30
1.0
  0
INSERT
  5
E3
  8
0
  2
BLK8
 10
0.0
 20
0.0
 30
1.0
  0
INSERT
  5
EB
  8
0
  2
BLK9
 10
0.0
 20
0.0
 30
1.0
  0
INSERT
  5
F3
  8
0
  2
BLK10
 10
0.0
 20
0.0
 30
1.0
  0
TEXT
  5
F8
  8
0
 10
70.69999694824219
 20
200.6999969482422
 30
0.0
 40
2.449996948242188
  1
IN1
 41
0.9
  7
CADDY_VECTORFONT1P
  0
TEXT
  5
F9
  8
0
 10
70.69999694824219
 20
195.6999969482422
 30
0.0
 40
2.449996948242188
  1
IN2
 41
0.9
  7
CADDY_VECTORFONT1P
  0
TEXT
  5
FA
  8
0
 10
70.69999694824219
 20
190.6999969482422
 30
0.0
 40
2.449996948242188
  1
IN3
 41
0.9
  7
CADDY_VECTORFONT1P
  0
TEXT
  5
FB
  8
0
 10
70.69999694824219
 20
185.6999969482422
 30
0.0
 40
2.449996948242188
  1
IN4
 41
0.9
  7
CADDY_VECTORFONT1P
  0
TEXT
  5
FC
  8
0
 10
70.69999694824219
 20
180.6999969482422
 30
0.0
 40
2.449996948242188
  1
IN5
 41
0.9
  7
CADDY_VECTORFONT1P
  0
TEXT
  5
FD
  8
0
 10
70.69999694824219
 20
175.6999969482422
 30
0.0
 40
2.449996948242188
  1
IN6
 41
0.9
  7
CADDY_VECTORFONT1P
  0
INSERT
  5
101
  8
0
  2
BLK11
 10
0.0
 20
0.0
 30
1.0
  0
INSERT
  5
109
  8
0
  2
BLK12
 10
0.0
 20
0.0
 30
1.0
  0
INSERT
  5
111
  8
0
  2
BLK13
 10
0.0
 20
0.0
 30
1.0
  0
INSERT
  5
119
  8
0
  2
BLK14
 10
0.0
 20
0.0
 30
1.0
  0
INSERT
  5
121
  8
0
  2
BLK15
 10
0.0
 20
0.0
 30
1.0
  0
INSERT
  5
129
  8
0
  2
BLK16
 10
0.0
 20
0.0
 30
1.0
  0
INSERT
  5
131
  8
0
  2
BLK17
 10
0.0
 20
0.0
 30
1.0
  0
TEXT
  5
136
  8
0
 10
60.70000076293945
 20
155.6999969482422
 30
0.0
 40
2.449996948242188
  1
1
 41
0.9
  7
CADDY_VECTORFONT1P
  0
TEXT
  5
137
  8
0
 10
60.70000076293945
 20
150.6999969482422
 30
0.0
 40
2.449996948242188
  1
2
 41
0.9
  7
CADDY_VECTORFONT1P
  0
TEXT
  5
138
  8
0
 10
60.70000076293945
 20
145.6999969482422
 30
0.0
 40
2.449996948242188
  1
3
 41
0.9
  7
CADDY_VECTORFONT1P
  0
TEXT
  5
139
  8
0
 10
60.70000076293945
 20
140.6999969482422
 30
0.0
 40
2.449996948242188
  1
4
 41
0.9
  7
CADDY_VECTORFONT1P
  0
TEXT
  5
13A
  8
0
 10
60.70000076293945
 20
135.6999969482422
 30
0.0
 40
2.449996948242188
  1
5
 41
0.9
  7
CADDY_VECTORFONT1P
  0
TEXT
  5
13B
  8
0
 10
60.70000076293945
 20
130.6999969482422
 30
0.0
 40
2.449996948242188
  1
6
 41
0.9
  7
CADDY_VECTORFONT1P
  0
TEXT
  5
13C
  8
0
 10
66.44664692611694
 20
160.6999969482422
 30
0.0
 40
2.449996948242188
  1
8(A)1
 41
0.9
  7
CADDY_VECTORFONT1P
 72
     1
 11
70.0
 21
160.6999969482422
 31
0.0
  0
INSERT
  5
140
  8
0
  2
BLK18
 10
0.0
 20
0.0
 30
1.0
  0
INSERT
  5
148
  8
0
  2
BLK19
 10
0.0
 20
0.0
 30
1.0
  0
INSERT
  5
150
  8
0
  2
BLK20
 10
0.0
 20
0.0
 30
1.0
  0
INSERT
  5
158
  8
0
  2
BLK21
 10
0.0
 20
0.0
 30
1.0
  0
INSERT
  5
160
  8
0
  2
BLK22
 10
0.0
 20
0.0
 30
1.0
  0
INSERT
  5
168
  8
0
  2
BLK23
 10
0.0
 20
0.0
 30
1.0
  0
TEXT
  5
16D
  8
0
 10
60.70000076293945
 20
115.6999969482422
 30
0.0
 40
2.450004577636719
  1
1
 41
0.9
  7
CADDY_VECTORFONT1P
  0
TEXT
  5
16E
  8
0
 10
60.70000076293945
 20
110.6999969482422
 30
0.0
 40
2.450004577636719
  1
2
 41
0.9
  7
CADDY_VECTORFONT1P
  0
TEXT
  5
16F
  8
0
 10
60.70000076293945
 20
105.6999969482422
 30
0.0
 40
2.450004577636719
  1
3
 41
0.9
  7
CADDY_VECTORFONT1P
  0
TEXT
  5
170
  8
0
 10
60.70000076293945
 20
100.6999969482422
 30
0.0
 40
2.450004577636719
  1
4
 41
0.9
  7
CADDY_VECTORFONT1P
  0
TEXT
  5
171
  8
0
 10
60.70000076293945
 20
95.69999694824219
 30
0.0
 40
2.450004577636719
  1
5
 41
0.9
  7
CADDY_VECTORFONT1P
  0
TEXT
  5
172
  8
0
 10
60.70000076293945
 20
90.69999694824219
 30
0.0
 40
2.450004577636719
  1
6
 41
0.9
  7
CADDY_VECTORFONT1P
  0
TEXT
  5
173
  8
0
 10
66.56901358947754
 20
120.6999969482422
 30
0.0
 40
2.450004577636719
  1
8(B)1
 41
0.9
  7
CADDY_VECTORFONT1P
 72
     1
 11
70.0
 21
120.6999969482422
 31
0.0
  0
LINE
  5
174
  8
0
  6
CADDY_SOLID
 10
60.0
 20
170.0
 30
0.0
 11
80.0
 21
170.0
 31
0.0
  0
ATTDEF
  5
176
  8
0
 10
39.99351017150879
 20
147.1999969482422
 30
0.0
 40
2.449996948242188
  1

 41
0.9
  7
CADDY_VECTORFONT1P
 72
     2
 11
56.79999923706055
 21
147.1999969482422
 31
0.0
  3
Signaladresse
  2
$TAG175100
 70
     0
  0
ATTDEF
  5
178
  8
0
 10
40.485224559021
 20
143.6999969482422
 30
0.0
 40
2.449996948242188
  1

 41
0.9
  7
CADDY_VECTORFONT1P
 72
     2
 11
56.79999923706055
 21
143.6999969482422
 31
0.0
  3
Signalbeskrivelse
  2
$TAG175110
 70
     0
  0
ATTDEF
  5
17A
  8
0
 10
39.99351017150879
 20
140.6999969482422
 30
0.0
 40
2.449996948242188
  1

 41
0.9
  7
CADDY_VECTORFONT1P
 72
     2
 11
56.79999923706055
 21
140.6999969482422
 31
0.0
  3
Signalbemærkning
  2
$TAG175120
 70
     0
  0
ATTDEF
  5
17C
  8
0
 10
39.50179578399658
 20
137.1999969482422
 30
0.0
 40
2.449996948242188
  1
?
 41
0.9
  7
CADDY_VECTORFONT1P
 72
     2
 11
56.79999923706055
 21
137.1999969482422
 31
0.0
  3
Side/strømvej reference
  2
$TAG160500
 70
     0
  0
ATTDEF
  5
17E
  8
0
 10
39.25704108886719
 20
157.6999969482422
 30
0.0
 40
2.449996948242188
  1
=
 41
0.9
  7
CADDY_VECTORFONT1P
 72
     2
 11
56.79999923706055
 21
157.6999969482422
 31
0.0
  3
Funktion (=)
  2
$TAG140020
 70
     1
  0
ATTDEF
  5
180
  8
0
 10
39.25704490356446
 20
154.1999969482422
 30
0.0
 40
2.449996948242188
  1
+
 41
0.9
  7
CADDY_VECTORFONT1P
 72
     2
 11
56.80000305175781
 21
154.1999969482422
 31
0.0
  3
Placering (+)
  2
$TAG140050
 70
     1
  0
ATTDEF
  5
182
  8
0
 10
31.40178968048096
 20
147.0500030517578
 30
0.0
 40
2.449996948242188
  1

 41
0.9
  7
CADDY_VECTORFONT1P
 72
     2
 11
48.69999313354492
 21
147.0500030517578
 31
0.0
  3
Beskrivelse 00
  2
$TAG160030
 70
     0
  0
ATTDEF
  5
184
  8
0
 10
31.15703498535157
 20
143.5500030517578
 30
0.0
 40
2.449996948242188
  1

 41
0.9
  7
CADDY_VECTORFONT1P
 72
     2
 11
48.69999313354492
 21
143.5500030517578
 31
0.0
  3
Type
  2
$TAG160040
 70
     1
  0
ENDBLK
  8
0
  0
BLOCK
  8
0
  2
BLK3
 70
     0
 10
0.0
 20
0.0
 30
0.0
  0
LINE
  5
BA
  8
0
  6
CADDY_SOLID
 10
65.0
 20
210.0
 30
0.0
 11
70.0
 21
210.0
 31
0.0
  0
LINE
  5
BB
  8
0
  6
CADDY_SOLID
 10
70.0
 20
210.0
 30
0.0
 11
70.0
 21
215.0
 31
0.0
  0
LINE
  5
BC
  8
0
  6
CADDY_SOLID
 10
70.0
 20
215.0
 30
0.0
 11
65.0
 21
215.0
 31
0.0
  0
LINE
  5
BD
  8
0
  6
CADDY_SOLID
 10
65.0
 20
215.0
 30
0.0
 11
65.0
 21
210.0
 31
0.0
  0
ENDBLK
  8
0
  0
BLOCK
  8
0
  2
BLK4
 70
     0
 10
0.0
 20
0.0
 30
0.0
  0
LINE
  5
C4
  8
0
  6
CADDY_SOLID
 10
65.0
 20
205.0
 30
0.0
 11
70.0
 21
205.0
 31
0.0
  0
LINE
  5
C5
  8
0
  6
CADDY_SOLID
 10
70.0
 20
205.0
 30
0.0
 11
70.0
 21
210.0
 31
0.0
  0
LINE
  5
C6
  8
0
  6
CADDY_SOLID
 10
70.0
 20
210.0
 30
0.0
 11
65.0
 21
210.0
 31
0.0
  0
LINE
  5
C7
  8
0
  6
CADDY_SOLID
 10
65.0
 20
210.0
 30
0.0
 11
65.0
 21
205.0
 31
0.0
  0
ENDBLK
  8
0
  0
BLOCK
  8
0
  2
BLK5
 70
     0
 10
0.0
 20
0.0
 30
0.0
  0
LINE
  5
CC
  8
0
  6
CADDY_SOLID
 10
65.0
 20
200.0
 30
0.0
 11
70.0
 21
200.0
 31
0.0
  0
LINE
  5
CD
  8
0
  6
CADDY_SOLID
 10
70.0
 20
200.0
 30
0.0
 11
70.0
 21
205.0
 31
0.0
  0
LINE
  5
CE
  8
0
  6
CADDY_SOLID
 10
70.0
 20
205.0
 30
0.0
 11
65.0
 21
205.0
 31
0.0
  0
LINE
  5
CF
  8
0
  6
CADDY_SOLID
 10
65.0
 20
205.0
 30
0.0
 11
65.0
 21
200.0
 31
0.0
  0
ENDBLK
  8
0
  0
BLOCK
  8
0
  2
BLK6
 70
     0
 10
0.0
 20
0.0
 30
0.0
  0
LINE
  5
D4
  8
0
  6
CADDY_SOLID
 10
65.0
 20
195.0
 30
0.0
 11
70.0
 21
195.0
 31
0.0
  0
LINE
  5
D5
  8
0
  6
CADDY_SOLID
 10
70.0
 20
195.0
 30
0.0
 11
70.0
 21
200.0
 31
0.0
  0
LINE
  5
D6
  8
0
  6
CADDY_SOLID
 10
70.0
 20
200.0
 30
0.0
 11
65.0
 21
200.0
 31
0.0
  0
LINE
  5
D7
  8
0
  6
CADDY_SOLID
 10
65.0
 20
200.0
 30
0.0
 11
65.0
 21
195.0
 31
0.0
  0
ENDBLK
  8
0
  0
BLOCK
  8
0
  2
BLK7
 70
     0
 10
0.0
 20
0.0
 30
0.0
  0
LINE
  5
DC
  8
0
  6
CADDY_SOLID
 10
65.0
 20
190.0
 30
0.0
 11
70.0
 21
190.0
 31
0.0
  0
LINE
  5
DD
  8
0
  6
CADDY_SOLID
 10
70.0
 20
190.0
 30
0.0
 11
70.0
 21
195.0
 31
0.0
  0
LINE
  5
DE
  8
0
  6
CADDY_SOLID
 10
70.0
 20
195.0
 30
0.0
 11
65.0
 21
195.0
 31
0.0
  0
LINE
  5
DF
  8
0
  6
CADDY_SOLID
 10
65.0
 20
195.0
 30
0.0
 11
65.0
 21
190.0
 31
0.0
  0
ENDBLK
  8
0
  0
BLOCK
  8
0
  2
BLK8
 70
     0
 10
0.0
 20
0.0
 30
0.0
  0
LINE
  5
E4
  8
0
  6
CADDY_SOLID
 10
65.0
 20
185.0
 30
0.0
 11
70.0
 21
185.0
 31
0.0
  0
LINE
  5
E5
  8
0
  6
CADDY_SOLID
 10
70.0
 20
185.0
 30
0.0
 11
70.0
 21
190.0
 31
0.0
  0
LINE
  5
E6
  8
0
  6
CADDY_SOLID
 10
70.0
 20
190.0
 30
0.0
 11
65.0
 21
190.0
 31
0.0
  0
LINE
  5
E7
  8
0
  6
CADDY_SOLID
 10
65.0
 20
190.0
 30
0.0
 11
65.0
 21
185.0
 31
0.0
  0
ENDBLK
  8
0
  0
BLOCK
  8
0
  2
BLK9
 70
     0
 10
0.0
 20
0.0
 30
0.0
  0
LINE
  5
EC
  8
0
  6
CADDY_SOLID
 10
65.0
 20
180.0
 30
0.0
 11
70.0
 21
180.0
 31
0.0
  0
LINE
  5
ED
  8
0
  6
CADDY_SOLID
 10
70.0
 20
180.0
 30
0.0
 11
70.0
 21
185.0
 31
0.0
  0
LINE
  5
EE
  8
0
  6
CADDY_SOLID
 10
70.0
 20
185.0
 30
0.0
 11
65.0
 21
185.0
 31
0.0
  0
LINE
  5
EF
  8
0
  6
CADDY_SOLID
 10
65.0
 20
185.0
 30
0.0
 11
65.0
 21
180.0
 31
0.0
  0
ENDBLK
  8
0
  0
BLOCK
  8
0
  2
BLK10
 70
     0
 10
0.0
 20
0.0
 30
0.0
  0
LINE
  5
F4
  8
0
  6
CADDY_SOLID
 10
65.0
 20
175.0
 30
0.0
 11
70.0
 21
175.0
 31
0.0
  0
LINE
  5
F5
  8
0
  6
CADDY_SOLID
 10
70.0
 20
175.0
 30
0.0
 11
70.0
 21
180.0
 31
0.0
  0
LINE
  5
F6
  8
0
  6
CADDY_SOLID
 10
70.0
 20
180.0
 30
0.0
 11
65.0
 21
180.0
 31
0.0
  0
LINE
  5
F7
  8
0
  6
CADDY_SOLID
 10
65.0
 20
180.0
 30
0.0
 11
65.0
 21
175.0
 31
0.0
  0
ENDBLK
  8
0
  0
BLOCK
  8
0
  2
BLK11
 70
     0
 10
0.0
 20
0.0
 30
0.0
  0
LINE
  5
102
  8
0
  6
CADDY_SOLID
 10
60.0
 20
75.0
 30
0.0
 11
80.0
 21
75.0
 31
0.0
  0
LINE
  5
103
  8
0
  6
CADDY_SOLID
 10
80.0
 20
75.0
 30
0.0
 11
80.0
 21
225.0
 31
0.0
  0
LINE
  5
104
  8
0
  6
CADDY_SOLID
 10
80.0
 20
225.0
 30
0.0
 11
60.0
 21
225.0
 31
0.0
  0
LINE
  5
105
  8
0
  6
CADDY_SOLID
 10
60.0
 20
225.0
 30
0.0
 11
60.0
 21
75.0
 31
0.0
  0
ENDBLK
  8
0
  0
BLOCK
  8
0
  2
BLK12
 70
     0
 10
0.0
 20
0.0
 30
0.0
  0
LINE
  5
10A
  8
0
  6
CADDY_SOLID
 10
65.0
 20
155.0
 30
0.0
 11
75.0
 21
155.0
 31
0.0
  0
LINE
  5
10B
  8
0
  6
CADDY_SOLID
 10
75.0
 20
155.0
 30
0.0
 11
75.0
 21
160.0
 31
0.0
  0
LINE
  5
10C
  8
0
  6
CADDY_SOLID
 10
75.0
 20
160.0
 30
0.0
 11
65.0
 21
160.0
 31
0.0
  0
LINE
  5
10D
  8
0
  6
CADDY_SOLID
 10
65.0
 20
160.0
 30
0.0
 11
65.0
 21
155.0
 31
0.0
  0
ENDBLK
  8
0
  0
BLOCK
  8
0
  2
BLK13
 70
     0
 10
0.0
 20
0.0
 30
0.0
  0
LINE
  5
112
  8
0
  6
CADDY_SOLID
 10
65.0
 20
150.0
 30
0.0
 11
75.0
 21
150.0
 31
0.0
  0
LINE
  5
113
  8
0
  6
CADDY_SOLID
 10
75.0
 20
150.0
 30
0.0
 11
75.0
 21
155.0
 31
0.0
  0
LINE
  5
114
  8
0
  6
CADDY_SOLID
 10
75.0
 20
155.0
 30
0.0
 11
65.0
 21
155.0
 31
0.0
  0
LINE
  5
115
  8
0
  6
CADDY_SOLID
 10
65.0
 20
155.0
 30
0.0
 11
65.0
 21
150.0
 31
0.0
  0
ENDBLK
  8
0
  0
BLOCK
  8
0
  2
BLK14
 70
     0
 10
0.0
 20
0.0
 30
0.0
  0
LINE
  5
11A
  8
0
  6
CADDY_SOLID
 10
65.0
 20
145.0
 30
0.0
 11
75.0
 21
145.0
 31
0.0
  0
LINE
  5
11B
  8
0
  6
CADDY_SOLID
 10
75.0
 20
145.0
 30
0.0
 11
75.0
 21
150.0
 31
0.0
  0
LINE
  5
11C
  8
0
  6
CADDY_SOLID
 10
75.0
 20
150.0
 30
0.0
 11
65.0
 21
150.0
 31
0.0
  0
LINE
  5
11D
  8
0
  6
CADDY_SOLID
 10
65.0
 20
150.0
 30
0.0
 11
65.0
 21
145.0
 31
0.0
  0
ENDBLK
  8
0
  0
BLOCK
  8
0
  2
BLK15
 70
     0
 10
0.0
 20
0.0
 30
0.0
  0
LINE
  5
122
  8
0
  6
CADDY_SOLID
 10
65.0
 20
140.0
 30
0.0
 11
75.0
 21
140.0
 31
0.0
  0
LINE
  5
123
  8
0
  6
CADDY_SOLID
 10
75.0
 20
140.0
 30
0.0
 11
75.0
 21
145.0
 31
0.0
  0
LINE
  5
124
  8
0
  6
CADDY_SOLID
 10
75.0
 20
145.0
 30
0.0
 11
65.0
 21
145.0
 31
0.0
  0
LINE
  5
125
  8
0
  6
CADDY_SOLID
 10
65.0
 20
145.0
 30
0.0
 11
65.0
 21
140.0
 31
0.0
  0
ENDBLK
  8
0
  0
BLOCK
  8
0
  2
BLK16
 70
     0
 10
0.0
 20
0.0
 30
0.0
  0
LINE
  5
12A
  8
0
  6
CADDY_SOLID
 10
65.0
 20
135.0
 30
0.0
 11
75.0
 21
135.0
 31
0.0
  0
LINE
  5
12B
  8
0
  6
CADDY_SOLID
 10
75.0
 20
135.0
 30
0.0
 11
75.0
 21
140.0
 31
0.0
  0
LINE
  5
12C
  8
0
  6
CADDY_SOLID
 10
75.0
 20
140.0
 30
0.0
 11
65.0
 21
140.0
 31
0.0
  0
LINE
  5
12D
  8
0
  6
CADDY_SOLID
 10
65.0
 20
140.0
 30
0.0
 11
65.0
 21
135.0
 31
0.0
  0
ENDBLK
  8
0
  0
BLOCK
  8
0
  2
BLK17
 70
     0
 10
0.0
 20
0.0
 30
0.0
  0
LINE
  5
132
  8
0
  6
CADDY_SOLID
 10
65.0
 20
130.0
 30
0.0
 11
75.0
 21
130.0
 31
0.0
  0
LINE
  5
133
  8
0
  6
CADDY_SOLID
 10
75.0
 20
130.0
 30
0.0
 11
75.0
 21
135.0
 31
0.0
  0
LINE
  5
134
  8
0
  6
CADDY_SOLID
 10
75.0
 20
135.0
 30
0.0
 11
65.0
 21
135.0
 31
0.0
  0
LINE
  5
135
  8
0
  6
CADDY_SOLID
 10
65.0
 20
135.0
 30
0.0
 11
65.0
 21
130.0
 31
0.0
  0
ENDBLK
  8
0
  0
BLOCK
  8
0
  2
BLK18
 70
     0
 10
0.0
 20
0.0
 30
0.0
  0
LINE
  5
141
  8
0
  6
CADDY_SOLID
 10
65.0
 20
115.0
 30
0.0
 11
75.0
 21
115.0
 31
0.0
  0
LINE
  5
142
  8
0
  6
CADDY_SOLID
 10
75.0
 20
115.0
 30
0.0
 11
75.0
 21
120.0
 31
0.0
  0
LINE
  5
143
  8
0
  6
CADDY_SOLID
 10
75.0
 20
120.0
 30
0.0
 11
65.0
 21
120.0
 31
0.0
  0
LINE
  5
144
  8
0
  6
CADDY_SOLID
 10
65.0
 20
120.0
 30
0.0
 11
65.0
 21
115.0
 31
0.0
  0
ENDBLK
  8
0
  0
BLOCK
  8
0
  2
BLK19
 70
     0
 10
0.0
 20
0.0
 30
0.0
  0
LINE
  5
149
  8
0
  6
CADDY_SOLID
 10
65.0
 20
110.0
 30
0.0
 11
75.0
 21
110.0
 31
0.0
  0
LINE
  5
14A
  8
0
  6
CADDY_SOLID
 10
75.0
 20
110.0
 30
0.0
 11
75.0
 21
115.0
 31
0.0
  0
LINE
  5
14B
  8
0
  6
CADDY_SOLID
 10
75.0
 20
115.0
 30
0.0
 11
65.0
 21
115.0
 31
0.0
  0
LINE
  5
14C
  8
0
  6
CADDY_SOLID
 10
65.0
 20
115.0
 30
0.0
 11
65.0
 21
110.0
 31
0.0
  0
ENDBLK
  8
0
  0
BLOCK
  8
0
  2
BLK20
 70
     0
 10
0.0
 20
0.0
 30
0.0
  0
LINE
  5
151
  8
0
  6
CADDY_SOLID
 10
65.0
 20
105.0
 30
0.0
 11
75.0
 21
105.0
 31
0.0
  0
LINE
  5
152
  8
0
  6
CADDY_SOLID
 10
75.0
 20
105.0
 30
0.0
 11
75.0
 21
110.0
 31
0.0
  0
LINE
  5
153
  8
0
  6
CADDY_SOLID
 10
75.0
 20
110.0
 30
0.0
 11
65.0
 21
110.0
 31
0.0
  0
LINE
  5
154
  8
0
  6
CADDY_SOLID
 10
65.0
 20
110.0
 30
0.0
 11
65.0
 21
105.0
 31
0.0
  0
ENDBLK
  8
0
  0
BLOCK
  8
0
  2
BLK21
 70
     0
 10
0.0
 20
0.0
 30
0.0
  0
LINE
  5
159
  8
0
  6
CADDY_SOLID
 10
65.0
 20
100.0
 30
0.0
 11
75.0
 21
100.0
 31
0.0
  0
LINE
  5
15A
  8
0
  6
CADDY_SOLID
 10
75.0
 20
100.0
 30
0.0
 11
75.0
 21
105.0
 31
0.0
  0
LINE
  5
15B
  8
0
  6
CADDY_SOLID
 10
75.0
 20
105.0
 30
0.0
 11
65.0
 21
105.0
 31
0.0
  0
LINE
  5
15C
  8
0
  6
CADDY_SOLID
 10
65.0
 20
105.0
 30
0.0
 11
65.0
 21
100.0
 31
0.0
  0
ENDBLK
  8
0
  0
BLOCK
  8
0
  2
BLK22
 70
     0
 10
0.0
 20
0.0
 30
0.0
  0
LINE
  5
161
  8
0
  6
CADDY_SOLID
 10
65.0
 20
95.0
 30
0.0
 11
75.0
 21
95.0
 31
0.0
  0
LINE
  5
162
  8
0
  6
CADDY_SOLID
 10
75.0
 20
95.0
 30
0.0
 11
75.0
 21
100.0
 31
0.0
  0
LINE
  5
163
  8
0
  6
CADDY_SOLID
 10
75.0
 20
100.0
 30
0.0
 11
65.0
 21
100.0
 31
0.0
  0
LINE
  5
164
  8
0
  6
CADDY_SOLID
 10
65.0
 20
100.0
 30
0.0
 11
65.0
 21
95.0
 31
0.0
  0
ENDBLK
  8
0
  0
BLOCK
  8
0
  2
BLK23
 70
     0
 10
0.0
 20
0.0
 30
0.0
  0
LINE
  5
169
  8
0
  6
CADDY_SOLID
 10
65.0
 20
90.0
 30
0.0
 11
75.0
 21
90.0
 31
0.0
  0
LINE
  5
16A
  8
0
  6
CADDY_SOLID
 10
75.0
 20
90.0
 30
0.0
 11
75.0
 21
95.0
 31
0.0
  0
LINE
  5
16B
  8
0
  6
CADDY_SOLID
 10
75.0
 20
95.0
 30
0.0
 11
65.0
 21
95.0
 31
0.0
  0
LINE
  5
16C
  8
0
  6
CADDY_SOLID
 10
65.0
 20
95.0
 30
0.0
 11
65.0
 21
90.0
 31
0.0
  0
ENDBLK
  8
0
  0
BLOCK
  8
0
  2
BLK24
 70
     2
 10
0.0
 20
0.0
 30
0.0
  0
ATTDEF
  5
18B
  8
0
 10
152.9767751846314
 20
147.0500030517578
 30
0.0
 40
2.449996948242188
  1

 41
0.9
  7
CADDY_VECTORFONT1P
 72
     2
 11
170.2749786376953
 21
147.0500030517578
 31
0.0
  3
Beskrivelse 00
  2
$TAG160030
 70
     0
  0
TEXT
  5
18C
  8
0
 10
185.6999969482422
 20
220.6999969482422
 30
0.0
 40
2.449996948242188
  1
DDO3600
 41
0.9
  7
CADDY_VECTORFONT1P
  0
INSERT
  5
190
  8
0
  2
BLK25
 10
0.0
 20
0.0
 30
1.0
  0
TEXT
  5
195
  8
0
 10
190.6999969482422
 20
210.6999969482422
 30
0.0
 40
2.449996948242188
  1
RDY
 41
0.9
  7
CADDY_VECTORFONT1P
  0
TEXT
  5
196
  8
0
 10
190.6999969482422
 20
205.6999969482422
 30
0.0
 40
2.449996948242188
  1
ERR
 41
0.9
  7
CADDY_VECTORFONT1P
  0
INSERT
  5
19A
  8
0
  2
BLK26
 10
0.0
 20
0.0
 30
1.0
  0
INSERT
  5
1A2
  8
0
  2
BLK27
 10
0.0
 20
0.0
 30
1.0
  0
INSERT
  5
1AA
  8
0
  2
BLK28
 10
0.0
 20
0.0
 30
1.0
  0
INSERT
  5
1B2
  8
0
  2
BLK29
 10
0.0
 20
0.0
 30
1.0
  0
INSERT
  5
1BA
  8
0
  2
BLK30
 10
0.0
 20
0.0
 30
1.0
  0
INSERT
  5
1C2
  8
0
  2
BLK31
 10
0.0
 20
0.0
 30
1.0
  0
INSERT
  5
1CA
  8
0
  2
BLK32
 10
0.0
 20
0.0
 30
1.0
  0
TEXT
  5
1CF
  8
0
 10
190.6999969482422
 20
200.6999969482422
 30
0.0
 40
2.449996948242188
  1
IN1
 41
0.9
  7
CADDY_VECTORFONT1P
  0
TEXT
  5
1D0
  8
0
 10
190.6999969482422
 20
195.6999969482422
 30
0.0
 40
2.449996948242188
  1
IN2
 41
0.9
  7
CADDY_VECTORFONT1P
  0
TEXT
  5
1D1
  8
0
 10
190.6999969482422
 20
190.6999969482422
 30
0.0
 40
2.449996948242188
  1
IN3
 41
0.9
  7
CADDY_VECTORFONT1P
  0
TEXT
  5
1D2
  8
0
 10
190.6999969482422
 20
185.6999969482422
 30
0.0
 40
2.449996948242188
  1
IN4
 41
0.9
  7
CADDY_VECTORFONT1P
  0
TEXT
  5
1D3
  8
0
 10
190.6999969482422
 20
180.6999969482422
 30
0.0
 40
2.449996948242188
  1
IN5
 41
0.9
  7
CADDY_VECTORFONT1P
  0
TEXT
  5
1D4
  8
0
 10
190.6999969482422
 20
175.6999969482422
 30
0.0
 40
2.449996948242188
  1
IN6
 41
0.9
  7
CADDY_VECTORFONT1P
  0
INSERT
  5
1D8
  8
0
  2
BLK33
 10
0.0
 20
0.0
 30
1.0
  0
INSERT
  5
1E0
  8
0
  2
BLK34
 10
0.0
 20
0.0
 30
1.0
  0
INSERT
  5
1E8
  8
0
  2
BLK35
 10
0.0
 20
0.0
 30
1.0
  0
INSERT
  5
1F0
  8
0
  2
BLK36
 10
0.0
 20
0.0
 30
1.0
  0
INSERT
  5
1F8
  8
0
  2
BLK37
 10
0.0
 20
0.0
 30
1.0
  0
INSERT
  5
200
  8
0
  2
BLK38
 10
0.0
 20
0.0
 30
1.0
  0
INSERT
  5
208
  8
0
  2
BLK39
 10
0.0
 20
0.0
 30
1.0
  0
TEXT
  5
20D
  8
0
 10
180.6999969482422
 20
155.6999969482422
 30
0.0
 40
2.449996948242188
  1
1
 41
0.9
  7
CADDY_VECTORFONT1P
  0
TEXT
  5
20E
  8
0
 10
180.6999969482422
 20
150.6999969482422
 30
0.0
 40
2.449996948242188
  1
2
 41
0.9
  7
CADDY_VECTORFONT1P
  0
TEXT
  5
20F
  8
0
 10
180.6999969482422
 20
145.6999969482422
 30
0.0
 40
2.449996948242188
  1
3
 41
0.9
  7
CADDY_VECTORFONT1P
  0
TEXT
  5
210
  8
0
 10
180.6999969482422
 20
140.6999969482422
 30
0.0
 40
2.449996948242188
  1
4
 41
0.9
  7
CADDY_VECTORFONT1P
  0
TEXT
  5
211
  8
0
 10
180.6999969482422
 20
135.6999969482422
 30
0.0
 40
2.449996948242188
  1
5
 41
0.9
  7
CADDY_VECTORFONT1P
  0
TEXT
  5
212
  8
0
 10
180.6999969482422
 20
130.6999969482422
 30
0.0
 40
2.449996948242188
  1
6
 41
0.9
  7
CADDY_VECTORFONT1P
  0
TEXT
  5
213
  8
0
 10
186.446646926117
 20
160.6999969482422
 30
0.0
 40
2.449996948242188
  1
8(A)1
 41
0.9
  7
CADDY_VECTORFONT1P
 72
     1
 11
190.0
 21
160.6999969482422
 31
0.0
  0
INSERT
  5
217
  8
0
  2
BLK40
 10
0.0
 20
0.0
 30
1.0
  0
INSERT
  5
21F
  8
0
  2
BLK41
 10
0.0
 20
0.0
 30
1.0
  0
INSERT
  5
227
  8
0
  2
BLK42
 10
0.0
 20
0.0
 30
1.0
  0
INSERT
  5
22F
  8
0
  2
BLK43
 10
0.0
 20
0.0
 30
1.0
  0
INSERT
  5
237
  8
0
  2
BLK44
 10
0.0
 20
0.0
 30
1.0
  0
INSERT
  5
23F
  8
0
  2
BLK45
 10
0.0
 20
0.0
 30
1.0
  0
TEXT
  5
244
  8
0
 10
180.6999969482422
 20
115.6999969482422
 30
0.0
 40
2.450004577636719
  1
1
 41
0.9
  7
CADDY_VECTORFONT1P
  0
TEXT
  5
245
  8
0
 10
180.6999969482422
 20
110.6999969482422
 30
0.0
 40
2.450004577636719
  1
2
 41
0.9
  7
CADDY_VECTORFONT1P
  0
TEXT
  5
246
  8
0
 10
180.6999969482422
 20
105.6999969482422
 30
0.0
 40
2.450004577636719
  1
3
 41
0.9
  7
CADDY_VECTORFONT1P
  0
TEXT
  5
247
  8
0
 10
180.6999969482422
 20
100.6999969482422
 30
0.0
 40
2.450004577636719
  1
4
 41
0.9
  7
CADDY_VECTORFONT1P
  0
TEXT
  5
248
  8
0
 10
180.6999969482422
 20
95.69999694824219
 30
0.0
 40
2.450004577636719
  1
5
 41
0.9
  7
CADDY_VECTORFONT1P
  0
TEXT
  5
249
  8
0
 10
180.6999969482422
 20
90.69999694824219
 30
0.0
 40
2.450004577636719
  1
6
 41
0.9
  7
CADDY_VECTORFONT1P
  0
TEXT
  5
24A
  8
0
 10
186.5690135894775
 20
120.6999969482422
 30
0.0
 40
2.450004577636719
  1
8(B)1
 41
0.9
  7
CADDY_VECTORFONT1P
 72
     1
 11
190.0
 21
120.6999969482422
 31
0.0
  0
LINE
  5
24B
  8
0
  6
CADDY_SOLID
 10
180.0
 20
170.0
 30
0.0
 11
200.0
 21
170.0
 31
0.0
  0
ATTDEF
  5
24D
  8
0
 10
174.9935139862061
 20
230.6999969482422
 30
0.0
 40
2.449996948242188
  1
D1804
 41
0.9
  7
CADDY_VECTORFONT1P
 72
     2
 11
191.8000030517578
 21
230.6999969482422
 31
0.0
  3
Produkt (-)
  2
$TAG160010
 70
     0
  0
ATTDEF
  5
24F
  8
0
 10
159.9935139862061
 20
147.1999969482422
 30
0.0
 40
2.449996948242188
  1

 41
0.9
  7
CADDY_VECTORFONT1P
 72
     2
 11
176.8000030517578
 21
147.1999969482422
 31
0.0
  3
Signaladresse
  2
$TAG175100
 70
     0
  0
ATTDEF
  5
251
  8
0
 10
160.4852283737183
 20
143.6999969482422
 30
0.0
 40
2.449996948242188
  1

 41
0.9
  7
CADDY_VECTORFONT1P
 72
     2
 11
176.8000030517578
 21
143.6999969482422
 31
0.0
  3
Signalbeskrivelse
  2
$TAG175110
 70
     0
  0
ATTDEF
  5
253
  8
0
 10
159.9935139862061
 20
140.6999969482422
 30
0.0
 40
2.449996948242188
  1

 41
0.9
  7
CADDY_VECTORFONT1P
 72
     2
 11
176.8000030517578
 21
140.6999969482422
 31
0.0
  3
Signalbemærkning
  2
$TAG175120
 70
     0
  0
ATTDEF
  5
255
  8
0
 10
159.5017995986939
 20
137.1999969482422
 30
0.0
 40
2.449996948242188
  1
?
 41
0.9
  7
CADDY_VECTORFONT1P
 72
     2
 11
176.8000030517578
 21
137.1999969482422
 31
0.0
  3
Side/strømvej reference
  2
$TAG160500
 70
     0
  0
ATTDEF
  5
257
  8
0
 10
159.2570449035645
 20
157.6999969482422
 30
0.0
 40
2.449996948242188
  1
=
 41
0.9
  7
CADDY_VECTORFONT1P
 72
     2
 11
176.8000030517578
 21
157.6999969482422
 31
0.0
  3
Funktion (=)
  2
$TAG140020
 70
     1
  0
ATTDEF
  5
259
  8
0
 10
159.2570296447754
 20
154.1999969482422
 30
0.0
 40
2.449996948242188
  1
+
 41
0.9
  7
CADDY_VECTORFONT1P
 72
     2
 11
176.7999877929688
 21
154.1999969482422
 31
0.0
  3
Placering (+)
  2
$TAG140050
 70
     1
  0
ATTDEF
  5
25B
  8
0
 10
152.9767751846314
 20
147.0500030517578
 30
0.0
 40
2.449996948242188
  1

 41
0.9
  7
CADDY_VECTORFONT1P
 72
     2
 11
170.2749786376953
 21
147.0500030517578
 31
0.0
  3
Beskrivelse 00
  2
$TAG160030
 70
     0
  0
ATTDEF
  5
25D
  8
0
 10
149.3920241516113
 20
138.0749969482422
 30
0.0
 40
2.449996948242188
  1

 41
0.9
  7
CADDY_VECTORFONT1P
 72
     2
 11
166.9349822998047
 21
138.0749969482422
 31
0.0
  3
Type
  2
$TAG160040
 70
     1
  0
ENDBLK
  8
0
  0
BLOCK
  8
0
  2
BLK25
 70
     0
 10
0.0
 20
0.0
 30
0.0
  0
LINE
  5
191
  8
0
  6
CADDY_SOLID
 10
185.0
 20
210.0
 30
0.0
 11
190.0
 21
210.0
 31
0.0
  0
LINE
  5
192
  8
0
  6
CADDY_SOLID
 10
190.0
 20
210.0
 30
0.0
 11
190.0
 21
215.0
 31
0.0
  0
LINE
  5
193
  8
0
  6
CADDY_SOLID
 10
190.0
 20
215.0
 30
0.0
 11
185.0
 21
215.0
 31
0.0
  0
LINE
  5
194
  8
0
  6
CADDY_SOLID
 10
185.0
 20
215.0
 30
0.0
 11
185.0
 21
210.0
 31
0.0
  0
ENDBLK
  8
0
  0
BLOCK
  8
0
  2
BLK26
 70
     0
 10
0.0
 20
0.0
 30
0.0
  0
LINE
  5
19B
  8
0
  6
CADDY_SOLID
 10
185.0
 20
205.0
 30
0.0
 11
190.0
 21
205.0
 31
0.0
  0
LINE
  5
19C
  8
0
  6
CADDY_SOLID
 10
190.0
 20
205.0
 30
0.0
 11
190.0
 21
210.0
 31
0.0
  0
LINE
  5
19D
  8
0
  6
CADDY_SOLID
 10
190.0
 20
210.0
 30
0.0
 11
185.0
 21
210.0
 31
0.0
  0
LINE
  5
19E
  8
0
  6
CADDY_SOLID
 10
185.0
 20
210.0
 30
0.0
 11
185.0
 21
205.0
 31
0.0
  0
ENDBLK
  8
0
  0
BLOCK
  8
0
  2
BLK27
 70
     0
 10
0.0
 20
0.0
 30
0.0
  0
LINE
  5
1A3
  8
0
  6
CADDY_SOLID
 10
185.0
 20
200.0
 30
0.0
 11
190.0
 21
200.0
 31
0.0
  0
LINE
  5
1A4
  8
0
  6
CADDY_SOLID
 10
190.0
 20
200.0
 30
0.0
 11
190.0
 21
205.0
 31
0.0
  0
LINE
  5
1A5
  8
0
  6
CADDY_SOLID
 10
190.0
 20
205.0
 30
0.0
 11
185.0
 21
205.0
 31
0.0
  0
LINE
  5
1A6
  8
0
  6
CADDY_SOLID
 10
185.0
 20
205.0
 30
0.0
 11
185.0
 21
200.0
 31
0.0
  0
ENDBLK
  8
0
  0
BLOCK
  8
0
  2
BLK28
 70
     0
 10
0.0
 20
0.0
 30
0.0
  0
LINE
  5
1AB
  8
0
  6
CADDY_SOLID
 10
185.0
 20
195.0
 30
0.0
 11
190.0
 21
195.0
 31
0.0
  0
LINE
  5
1AC
  8
0
  6
CADDY_SOLID
 10
190.0
 20
195.0
 30
0.0
 11
190.0
 21
200.0
 31
0.0
  0
LINE
  5
1AD
  8
0
  6
CADDY_SOLID
 10
190.0
 20
200.0
 30
0.0
 11
185.0
 21
200.0
 31
0.0
  0
LINE
  5
1AE
  8
0
  6
CADDY_SOLID
 10
185.0
 20
200.0
 30
0.0
 11
185.0
 21
195.0
 31
0.0
  0
ENDBLK
  8
0
  0
BLOCK
  8
0
  2
BLK29
 70
     0
 10
0.0
 20
0.0
 30
0.0
  0
LINE
  5
1B3
  8
0
  6
CADDY_SOLID
 10
185.0
 20
190.0
 30
0.0
 11
190.0
 21
190.0
 31
0.0
  0
LINE
  5
1B4
  8
0
  6
CADDY_SOLID
 10
190.0
 20
190.0
 30
0.0
 11
190.0
 21
195.0
 31
0.0
  0
LINE
  5
1B5
  8
0
  6
CADDY_SOLID
 10
190.0
 20
195.0
 30
0.0
 11
185.0
 21
195.0
 31
0.0
  0
LINE
  5
1B6
  8
0
  6
CADDY_SOLID
 10
185.0
 20
195.0
 30
0.0
 11
185.0
 21
190.0
 31
0.0
  0
ENDBLK
  8
0
  0
BLOCK
  8
0
  2
BLK30
 70
     0
 10
0.0
 20
0.0
 30
0.0
  0
LINE
  5
1BB
  8
0
  6
CADDY_SOLID
 10
185.0
 20
185.0
 30
0.0
 11
190.0
 21
185.0
 31
0.0
  0
LINE
  5
1BC
  8
0
  6
CADDY_SOLID
 10
190.0
 20
185.0
 30
0.0
 11
190.0
 21
190.0
 31
0.0
  0
LINE
  5
1BD
  8
0
  6
CADDY_SOLID
 10
190.0
 20
190.0
 30
0.0
 11
185.0
 21
190.0
 31
0.0
  0
LINE
  5
1BE
  8
0
  6
CADDY_SOLID
 10
185.0
 20
190.0
 30
0.0
 11
185.0
 21
185.0
 31
0.0
  0
ENDBLK
  8
0
  0
BLOCK
  8
0
  2
BLK31
 70
     0
 10
0.0
 20
0.0
 30
0.0
  0
LINE
  5
1C3
  8
0
  6
CADDY_SOLID
 10
185.0
 20
180.0
 30
0.0
 11
190.0
 21
180.0
 31
0.0
  0
LINE
  5
1C4
  8
0
  6
CADDY_SOLID
 10
190.0
 20
180.0
 30
0.0
 11
190.0
 21
185.0
 31
0.0
  0
LINE
  5
1C5
  8
0
  6
CADDY_SOLID
 10
190.0
 20
185.0
 30
0.0
 11
185.0
 21
185.0
 31
0.0
  0
LINE
  5
1C6
  8
0
  6
CADDY_SOLID
 10
185.0
 20
185.0
 30
0.0
 11
185.0
 21
180.0
 31
0.0
  0
ENDBLK
  8
0
  0
BLOCK
  8
0
  2
BLK32
 70
     0
 10
0.0
 20
0.0
 30
0.0
  0
LINE
  5
1CB
  8
0
  6
CADDY_SOLID
 10
185.0
 20
175.0
 30
0.0
 11
190.0
 21
175.0
 31
0.0
  0
LINE
  5
1CC
  8
0
  6
CADDY_SOLID
 10
190.0
 20
175.0
 30
0.0
 11
190.0
 21
180.0
 31
0.0
  0
LINE
  5
1CD
  8
0
  6
CADDY_SOLID
 10
190.0
 20
180.0
 30
0.0
 11
185.0
 21
180.0
 31
0.0
  0
LINE
  5
1CE
  8
0
  6
CADDY_SOLID
 10
185.0
 20
180.0
 30
0.0
 11
185.0
 21
175.0
 31
0.0
  0
ENDBLK
  8
0
  0
BLOCK
  8
0
  2
BLK33
 70
     0
 10
0.0
 20
0.0
 30
0.0
  0
LINE
  5
1D9
  8
0
  6
CADDY_SOLID
 10
180.0
 20
75.0
 30
0.0
 11
200.0
 21
75.0
 31
0.0
  0
LINE
  5
1DA
  8
0
  6
CADDY_SOLID
 10
200.0
 20
75.0
 30
0.0
 11
200.0
 21
225.0
 31
0.0
  0
LINE
  5
1DB
  8
0
  6
CADDY_SOLID
 10
200.0
 20
225.0
 30
0.0
 11
180.0
 21
225.0
 31
0.0
  0
LINE
  5
1DC
  8
0
  6
CADDY_SOLID
 10
180.0
 20
225.0
 30
0.0
 11
180.0
 21
75.0
 31
0.0
  0
ENDBLK
  8
0
  0
BLOCK
  8
0
  2
BLK34
 70
     0
 10
0.0
 20
0.0
 30
0.0
  0
LINE
  5
1E1
  8
0
  6
CADDY_SOLID
 10
185.0
 20
155.0
 30
0.0
 11
195.0
 21
155.0
 31
0.0
  0
LINE
  5
1E2
  8
0
  6
CADDY_SOLID
 10
195.0
 20
155.0
 30
0.0
 11
195.0
 21
160.0
 31
0.0
  0
LINE
  5
1E3
  8
0
  6
CADDY_SOLID
 10
195.0
 20
160.0
 30
0.0
 11
185.0
 21
160.0
 31
0.0
  0
LINE
  5
1E4
  8
0
  6
CADDY_SOLID
 10
185.0
 20
160.0
 30
0.0
 11
185.0
 21
155.0
 31
0.0
  0
ENDBLK
  8
0
  0
BLOCK
  8
0
  2
BLK35
 70
     0
 10
0.0
 20
0.0
 30
0.0
  0
LINE
  5
1E9
  8
0
  6
CADDY_SOLID
 10
185.0
 20
150.0
 30
0.0
 11
195.0
 21
150.0
 31
0.0
  0
LINE
  5
1EA
  8
0
  6
CADDY_SOLID
 10
195.0
 20
150.0
 30
0.0
 11
195.0
 21
155.0
 31
0.0
  0
LINE
  5
1EB
  8
0
  6
CADDY_SOLID
 10
195.0
 20
155.0
 30
0.0
 11
185.0
 21
155.0
 31
0.0
  0
LINE
  5
1EC
  8
0
  6
CADDY_SOLID
 10
185.0
 20
155.0
 30
0.0
 11
185.0
 21
150.0
 31
0.0
  0
ENDBLK
  8
0
  0
BLOCK
  8
0
  2
BLK36
 70
     0
 10
0.0
 20
0.0
 30
0.0
  0
LINE
  5
1F1
  8
0
  6
CADDY_SOLID
 10
185.0
 20
145.0
 30
0.0
 11
195.0
 21
145.0
 31
0.0
  0
LINE
  5
1F2
  8
0
  6
CADDY_SOLID
 10
195.0
 20
145.0
 30
0.0
 11
195.0
 21
150.0
 31
0.0
  0
LINE
  5
1F3
  8
0
  6
CADDY_SOLID
 10
195.0
 20
150.0
 30
0.0
 11
185.0
 21
150.0
 31
0.0
  0
LINE
  5
1F4
  8
0
  6
CADDY_SOLID
 10
185.0
 20
150.0
 30
0.0
 11
185.0
 21
145.0
 31
0.0
  0
ENDBLK
  8
0
  0
BLOCK
  8
0
  2
BLK37
 70
     0
 10
0.0
 20
0.0
 30
0.0
  0
LINE
  5
1F9
  8
0
  6
CADDY_SOLID
 10
185.0
 20
140.0
 30
0.0
 11
195.0
 21
140.0
 31
0.0
  0
LINE
  5
1FA
  8
0
  6
CADDY_SOLID
 10
195.0
 20
140.0
 30
0.0
 11
195.0
 21
145.0
 31
0.0
  0
LINE
  5
1FB
  8
0
  6
CADDY_SOLID
 10
195.0
 20
145.0
 30
0.0
 11
185.0
 21
145.0
 31
0.0
  0
LINE
  5
1FC
  8
0
  6
CADDY_SOLID
 10
185.0
 20
145.0
 30
0.0
 11
185.0
 21
140.0
 31
0.0
  0
ENDBLK
  8
0
  0
BLOCK
  8
0
  2
BLK38
 70
     0
 10
0.0
 20
0.0
 30
0.0
  0
LINE
  5
201
  8
0
  6
CADDY_SOLID
 10
185.0
 20
135.0
 30
0.0
 11
195.0
 21
135.0
 31
0.0
  0
LINE
  5
202
  8
0
  6
CADDY_SOLID
 10
195.0
 20
135.0
 30
0.0
 11
195.0
 21
140.0
 31
0.0
  0
LINE
  5
203
  8
0
  6
CADDY_SOLID
 10
195.0
 20
140.0
 30
0.0
 11
185.0
 21
140.0
 31
0.0
  0
LINE
  5
204
  8
0
  6
CADDY_SOLID
 10
185.0
 20
140.0
 30
0.0
 11
185.0
 21
135.0
 31
0.0
  0
ENDBLK
  8
0
  0
BLOCK
  8
0
  2
BLK39
 70
     0
 10
0.0
 20
0.0
 30
0.0
  0
LINE
  5
209
  8
0
  6
CADDY_SOLID
 10
185.0
 20
130.0
 30
0.0
 11
195.0
 21
130.0
 31
0.0
  0
LINE
  5
20A
  8
0
  6
CADDY_SOLID
 10
195.0
 20
130.0
 30
0.0
 11
195.0
 21
135.0
 31
0.0
  0
LINE
  5
20B
  8
0
  6
CADDY_SOLID
 10
195.0
 20
135.0
 30
0.0
 11
185.0
 21
135.0
 31
0.0
  0
LINE
  5
20C
  8
0
  6
CADDY_SOLID
 10
185.0
 20
135.0
 30
0.0
 11
185.0
 21
130.0
 31
0.0
  0
ENDBLK
  8
0
  0
BLOCK
  8
0
  2
BLK40
 70
     0
 10
0.0
 20
0.0
 30
0.0
  0
LINE
  5
218
  8
0
  6
CADDY_SOLID
 10
185.0
 20
115.0
 30
0.0
 11
195.0
 21
115.0
 31
0.0
  0
LINE
  5
219
  8
0
  6
CADDY_SOLID
 10
195.0
 20
115.0
 30
0.0
 11
195.0
 21
120.0
 31
0.0
  0
LINE
  5
21A
  8
0
  6
CADDY_SOLID
 10
195.0
 20
120.0
 30
0.0
 11
185.0
 21
120.0
 31
0.0
  0
LINE
  5
21B
  8
0
  6
CADDY_SOLID
 10
185.0
 20
120.0
 30
0.0
 11
185.0
 21
115.0
 31
0.0
  0
ENDBLK
  8
0
  0
BLOCK
  8
0
  2
BLK41
 70
     0
 10
0.0
 20
0.0
 30
0.0
  0
LINE
  5
220
  8
0
  6
CADDY_SOLID
 10
185.0
 20
110.0
 30
0.0
 11
195.0
 21
110.0
 31
0.0
  0
LINE
  5
221
  8
0
  6
CADDY_SOLID
 10
195.0
 20
110.0
 30
0.0
 11
195.0
 21
115.0
 31
0.0
  0
LINE
  5
222
  8
0
  6
CADDY_SOLID
 10
195.0
 20
115.0
 30
0.0
 11
185.0
 21
115.0
 31
0.0
  0
LINE
  5
223
  8
0
  6
CADDY_SOLID
 10
185.0
 20
115.0
 30
0.0
 11
185.0
 21
110.0
 31
0.0
  0
ENDBLK
  8
0
  0
BLOCK
  8
0
  2
BLK42
 70
     0
 10
0.0
 20
0.0
 30
0.0
  0
LINE
  5
228
  8
0
  6
CADDY_SOLID
 10
185.0
 20
105.0
 30
0.0
 11
195.0
 21
105.0
 31
0.0
  0
LINE
  5
229
  8
0
  6
CADDY_SOLID
 10
195.0
 20
105.0
 30
0.0
 11
195.0
 21
110.0
 31
0.0
  0
LINE
  5
22A
  8
0
  6
CADDY_SOLID
 10
195.0
 20
110.0
 30
0.0
 11
185.0
 21
110.0
 31
0.0
  0
LINE
  5
22B
  8
0
  6
CADDY_SOLID
 10
185.0
 20
110.0
 30
0.0
 11
185.0
 21
105.0
 31
0.0
  0
ENDBLK
  8
0
  0
BLOCK
  8
0
  2
BLK43
 70
     0
 10
0.0
 20
0.0
 30
0.0
  0
LINE
  5
230
  8
0
  6
CADDY_SOLID
 10
185.0
 20
100.0
 30
0.0
 11
195.0
 21
100.0
 31
0.0
  0
LINE
  5
231
  8
0
  6
CADDY_SOLID
 10
195.0
 20
100.0
 30
0.0
 11
195.0
 21
105.0
 31
0.0
  0
LINE
  5
232
  8
0
  6
CADDY_SOLID
 10
195.0
 20
105.0
 30
0.0
 11
185.0
 21
105.0
 31
0.0
  0
LINE
  5
233
  8
0
  6
CADDY_SOLID
 10
185.0
 20
105.0
 30
0.0
 11
185.0
 21
100.0
 31
0.0
  0
ENDBLK
  8
0
  0
BLOCK
  8
0
  2
BLK44
 70
     0
 10
0.0
 20
0.0
 30
0.0
  0
LINE
  5
238
  8
0
  6
CADDY_SOLID
 10
185.0
 20
95.0
 30
0.0
 11
195.0
 21
95.0
 31
0.0
  0
LINE
  5
239
  8
0
  6
CADDY_SOLID
 10
195.0
 20
95.0
 30
0.0
 11
195.0
 21
100.0
 31
0.0
  0
LINE
  5
23A
  8
0
  6
CADDY_SOLID
 10
195.0
 20
100.0
 30
0.0
 11
185.0
 21
100.0
 31
0.0
  0
LINE
  5
23B
  8
0
  6
CADDY_SOLID
 10
185.0
 20
100.0
 30
0.0
 11
185.0
 21
95.0
 31
0.0
  0
ENDBLK
  8
0
  0
BLOCK
  8
0
  2
BLK45
 70
     0
 10
0.0
 20
0.0
 30
0.0
  0
LINE
  5
240
  8
0
  6
CADDY_SOLID
 10
185.0
 20
90.0
 30
0.0
 11
195.0
 21
90.0
 31
0.0
  0
LINE
  5
241
  8
0
  6
CADDY_SOLID
 10
195.0
 20
90.0
 30
0.0
 11
195.0
 21
95.0
 31
0.0
  0
LINE
  5
242
  8
0
  6
CADDY_SOLID
 10
195.0
 20
95.0
 30
0.0
 11
185.0
 21
95.0
 31
0.0
  0
LINE
  5
243
  8
0
  6
CADDY_SOLID
 10
185.0
 20
95.0
 30
0.0
 11
185.0
 21
90.0
 31
0.0
  0
ENDBLK
  8
0
  0
BLOCK
  8
0
  2
BLK46
 70
     2
 10
0.0
 20
0.0
 30
0.0
  0
ATTDEF
  5
264
  8
0
 10
192.9767751846314
 20
147.0500030517578
 30
0.0
 40
2.449996948242188
  1

 41
0.9
  7
CADDY_VECTORFONT1P
 72
     2
 11
210.2749786376953
 21
147.0500030517578
 31
0.0
  3
Beskrivelse 00
  2
$TAG160030
 70
     0
  0
TEXT
  5
265
  8
0
 10
225.6999969482422
 20
220.6999969482422
 30
0.0
 40
2.449996948242188
  1
DDO3600
 41
0.9
  7
CADDY_VECTORFONT1P
  0
INSERT
  5
269
  8
0
  2
BLK47
 10
0.0
 20
0.0
 30
1.0
  0
TEXT
  5
26E
  8
0
 10
230.6999969482422
 20
210.6999969482422
 30
0.0
 40
2.449996948242188
  1
RDY
 41
0.9
  7
CADDY_VECTORFONT1P
  0
TEXT
  5
26F
  8
0
 10
230.6999969482422
 20
205.6999969482422
 30
0.0
 40
2.449996948242188
  1
ERR
 41
0.9
  7
CADDY_VECTORFONT1P
  0
INSERT
  5
273
  8
0
  2
BLK48
 10
0.0
 20
0.0
 30
1.0
  0
INSERT
  5
27B
  8
0
  2
BLK49
 10
0.0
 20
0.0
 30
1.0
  0
INSERT
  5
283
  8
0
  2
BLK50
 10
0.0
 20
0.0
 30
1.0
  0
INSERT
  5
28B
  8
0
  2
BLK51
 10
0.0
 20
0.0
 30
1.0
  0
INSERT
  5
293
  8
0
  2
BLK52
 10
0.0
 20
0.0
 30
1.0
  0
INSERT
  5
29B
  8
0
  2
BLK53
 10
0.0
 20
0.0
 30
1.0
  0
INSERT
  5
2A3
  8
0
  2
BLK54
 10
0.0
 20
0.0
 30
1.0
  0
TEXT
  5
2A8
  8
0
 10
230.6999969482422
 20
200.6999969482422
 30
0.0
 40
2.449996948242188
  1
IN1
 41
0.9
  7
CADDY_VECTORFONT1P
  0
TEXT
  5
2A9
  8
0
 10
230.6999969482422
 20
195.6999969482422
 30
0.0
 40
2.449996948242188
  1
IN2
 41
0.9
  7
CADDY_VECTORFONT1P
  0
TEXT
  5
2AA
  8
0
 10
230.6999969482422
 20
190.6999969482422
 30
0.0
 40
2.449996948242188
  1
IN3
 41
0.9
  7
CADDY_VECTORFONT1P
  0
TEXT
  5
2AB
  8
0
 10
230.6999969482422
 20
185.6999969482422
 30
0.0
 40
2.449996948242188
  1
IN4
 41
0.9
  7
CADDY_VECTORFONT1P
  0
TEXT
  5
2AC
  8
0
 10
230.6999969482422
 20
180.6999969482422
 30
0.0
 40
2.449996948242188
  1
IN5
 41
0.9
  7
CADDY_VECTORFONT1P
  0
TEXT
  5
2AD
  8
0
 10
230.6999969482422
 20
175.6999969482422
 30
0.0
 40
2.449996948242188
  1
IN6
 41
0.9
  7
CADDY_VECTORFONT1P
  0
INSERT
  5
2B1
  8
0
  2
BLK55
 10
0.0
 20
0.0
 30
1.0
  0
INSERT
  5
2B9
  8
0
  2
BLK56
 10
0.0
 20
0.0
 30
1.0
  0
INSERT
  5
2C1
  8
0
  2
BLK57
 10
0.0
 20
0.0
 30
1.0
  0
INSERT
  5
2C9
  8
0
  2
BLK58
 10
0.0
 20
0.0
 30
1.0
  0
INSERT
  5
2D1
  8
0
  2
BLK59
 10
0.0
 20
0.0
 30
1.0
  0
INSERT
  5
2D9
  8
0
  2
BLK60
 10
0.0
 20
0.0
 30
1.0
  0
INSERT
  5
2E1
  8
0
  2
BLK61
 10
0.0
 20
0.0
 30
1.0
  0
TEXT
  5
2E6
  8
0
 10
220.6999969482422
 20
155.6999969482422
 30
0.0
 40
2.449996948242188
  1
1
 41
0.9
  7
CADDY_VECTORFONT1P
  0
TEXT
  5
2E7
  8
0
 10
220.6999969482422
 20
150.6999969482422
 30
0.0
 40
2.449996948242188
  1
2
 41
0.9
  7
CADDY_VECTORFONT1P
  0
TEXT
  5
2E8
  8
0
 10
220.6999969482422
 20
145.6999969482422
 30
0.0
 40
2.449996948242188
  1
3
 41
0.9
  7
CADDY_VECTORFONT1P
  0
TEXT
  5
2E9
  8
0
 10
220.6999969482422
 20
140.6999969482422
 30
0.0
 40
2.449996948242188
  1
4
 41
0.9
  7
CADDY_VECTORFONT1P
  0
TEXT
  5
2EA
  8
0
 10
220.6999969482422
 20
135.6999969482422
 30
0.0
 40
2.449996948242188
  1
5
 41
0.9
  7
CADDY_VECTORFONT1P
  0
TEXT
  5
2EB
  8
0
 10
220.6999969482422
 20
130.6999969482422
 30
0.0
 40
2.449996948242188
  1
6
 41
0.9
  7
CADDY_VECTORFONT1P
  0
TEXT
  5
2EC
  8
0
 10
226.446646926117
 20
160.6999969482422
 30
0.0
 40
2.449996948242188
  1
8(A)1
 41
0.9
  7
CADDY_VECTORFONT1P
 72
     1
 11
230.0
 21
160.6999969482422
 31
0.0
  0
INSERT
  5
2F0
  8
0
  2
BLK62
 10
0.0
 20
0.0
 30
1.0
  0
INSERT
  5
2F8
  8
0
  2
BLK63
 10
0.0
 20
0.0
 30
1.0
  0
INSERT
  5
300
  8
0
  2
BLK64
 10
0.0
 20
0.0
 30
1.0
  0
INSERT
  5
308
  8
0
  2
BLK65
 10
0.0
 20
0.0
 30
1.0
  0
INSERT
  5
310
  8
0
  2
BLK66
 10
0.0
 20
0.0
 30
1.0
  0
INSERT
  5
318
  8
0
  2
BLK67
 10
0.0
 20
0.0
 30
1.0
  0
TEXT
  5
31D
  8
0
 10
220.6999969482422
 20
115.6999969482422
 30
0.0
 40
2.450004577636719
  1
1
 41
0.9
  7
CADDY_VECTORFONT1P
  0
TEXT
  5
31E
  8
0
 10
220.6999969482422
 20
110.6999969482422
 30
0.0
 40
2.450004577636719
  1
2
 41
0.9
  7
CADDY_VECTORFONT1P
  0
TEXT
  5
31F
  8
0
 10
220.6999969482422
 20
105.6999969482422
 30
0.0
 40
2.450004577636719
  1
3
 41
0.9
  7
CADDY_VECTORFONT1P
  0
TEXT
  5
320
  8
0
 10
220.6999969482422
 20
100.6999969482422
 30
0.0
 40
2.450004577636719
  1
4
 41
0.9
  7
CADDY_VECTORFONT1P
  0
TEXT
  5
321
  8
0
 10
220.6999969482422
 20
95.69999694824219
 30
0.0
 40
2.450004577636719
  1
5
 41
0.9
  7
CADDY_VECTORFONT1P
  0
TEXT
  5
322
  8
0
 10
220.6999969482422
 20
90.69999694824219
 30
0.0
 40
2.450004577636719
  1
6
 41
0.9
  7
CADDY_VECTORFONT1P
  0
TEXT
  5
323
  8
0
 10
226.5690135894775
 20
120.6999969482422
 30
0.0
 40
2.450004577636719
  1
8(B)1
 41
0.9
  7
CADDY_VECTORFONT1P
 72
     1
 11
230.0
 21
120.6999969482422
 31
0.0
  0
LINE
  5
324
  8
0
  6
CADDY_SOLID
 10
220.0
 20
170.0
 30
0.0
 11
240.0
 21
170.0
 31
0.0
  0
ATTDEF
  5
326
  8
0
 10
214.9935139862061
 20
230.6999969482422
 30
0.0
 40
2.449996948242188
  1
D1805
 41
0.9
  7
CADDY_VECTORFONT1P
 72
     2
 11
231.8000030517578
 21
230.6999969482422
 31
0.0
  3
Produkt (-)
  2
$TAG160010
 70
     0
  0
ATTDEF
  5
328
  8
0
 10
199.9935139862061
 20
147.1999969482422
 30
0.0
 40
2.449996948242188
  1

 41
0.9
  7
CADDY_VECTORFONT1P
 72
     2
 11
216.8000030517578
 21
147.1999969482422
 31
0.0
  3
Signaladresse
  2
$TAG175100
 70
     0
  0
ATTDEF
  5
32A
  8
0
 10
200.4852283737183
 20
143.6999969482422
 30
0.0
 40
2.449996948242188
  1

 41
0.9
  7
CADDY_VECTORFONT1P
 72
     2
 11
216.8000030517578
 21
143.6999969482422
 31
0.0
  3
Signalbeskrivelse
  2
$TAG175110
 70
     0
  0
ATTDEF
  5
32C
  8
0
 10
199.9935139862061
 20
140.6999969482422
 30
0.0
 40
2.449996948242188
  1

 41
0.9
  7
CADDY_VECTORFONT1P
 72
     2
 11
216.8000030517578
 21
140.6999969482422
 31
0.0
  3
Signalbemærkning
  2
$TAG175120
 70
     0
  0
ATTDEF
  5
32E
  8
0
 10
199.5017995986939
 20
137.1999969482422
 30
0.0
 40
2.449996948242188
  1
?
 41
0.9
  7
CADDY_VECTORFONT1P
 72
     2
 11
216.8000030517578
 21
137.1999969482422
 31
0.0
  3
Side/strømvej reference
  2
$TAG160500
 70
     0
  0
ATTDEF
  5
330
  8
0
 10
199.2570449035645
 20
157.6999969482422
 30
0.0
 40
2.449996948242188
  1
=
 41
0.9
  7
CADDY_VECTORFONT1P
 72
     2
 11
216.8000030517578
 21
157.6999969482422
 31
0.0
  3
Funktion (=)
  2
$TAG140020
 70
     1
  0
ATTDEF
  5
332
  8
0
 10
199.2570296447754
 20
154.1999969482422
 30
0.0
 40
2.449996948242188
  1
+
 41
0.9
  7
CADDY_VECTORFONT1P
 72
     2
 11
216.7999877929688
 21
154.1999969482422
 31
0.0
  3
Placering (+)
  2
$TAG140050
 70
     1
  0
ATTDEF
  5
334
  8
0
 10
192.9767751846314
 20
147.0500030517578
 30
0.0
 40
2.449996948242188
  1

 41
0.9
  7
CADDY_VECTORFONT1P
 72
     2
 11
210.2749786376953
 21
147.0500030517578
 31
0.0
  3
Beskrivelse 00
  2
$TAG160030
 70
     0
  0
ATTDEF
  5
336
  8
0
 10
189.3920241516113
 20
138.0749969482422
 30
0.0
 40
2.449996948242188
  1

 41
0.9
  7
CADDY_VECTORFONT1P
 72
     2
 11
206.9349822998047
 21
138.0749969482422
 31
0.0
  3
Type
  2
$TAG160040
 70
     1
  0
ENDBLK
  8
0
  0
BLOCK
  8
0
  2
BLK47
 70
     0
 10
0.0
 20
0.0
 30
0.0
  0
LINE
  5
26A
  8
0
  6
CADDY_SOLID
 10
225.0
 20
210.0
 30
0.0
 11
230.0
 21
210.0
 31
0.0
  0
LINE
  5
26B
  8
0
  6
CADDY_SOLID
 10
230.0
 20
210.0
 30
0.0
 11
230.0
 21
215.0
 31
0.0
  0
LINE
  5
26C
  8
0
  6
CADDY_SOLID
 10
230.0
 20
215.0
 30
0.0
 11
225.0
 21
215.0
 31
0.0
  0
LINE
  5
26D
  8
0
  6
CADDY_SOLID
 10
225.0
 20
215.0
 30
0.0
 11
225.0
 21
210.0
 31
0.0
  0
ENDBLK
  8
0
  0
BLOCK
  8
0
  2
BLK48
 70
     0
 10
0.0
 20
0.0
 30
0.0
  0
LINE
  5
274
  8
0
  6
CADDY_SOLID
 10
225.0
 20
205.0
 30
0.0
 11
230.0
 21
205.0
 31
0.0
  0
LINE
  5
275
  8
0
  6
CADDY_SOLID
 10
230.0
 20
205.0
 30
0.0
 11
230.0
 21
210.0
 31
0.0
  0
LINE
  5
276
  8
0
  6
CADDY_SOLID
 10
230.0
 20
210.0
 30
0.0
 11
225.0
 21
210.0
 31
0.0
  0
LINE
  5
277
  8
0
  6
CADDY_SOLID
 10
225.0
 20
210.0
 30
0.0
 11
225.0
 21
205.0
 31
0.0
  0
ENDBLK
  8
0
  0
BLOCK
  8
0
  2
BLK49
 70
     0
 10
0.0
 20
0.0
 30
0.0
  0
LINE
  5
27C
  8
0
  6
CADDY_SOLID
 10
225.0
 20
200.0
 30
0.0
 11
230.0
 21
200.0
 31
0.0
  0
LINE
  5
27D
  8
0
  6
CADDY_SOLID
 10
230.0
 20
200.0
 30
0.0
 11
230.0
 21
205.0
 31
0.0
  0
LINE
  5
27E
  8
0
  6
CADDY_SOLID
 10
230.0
 20
205.0
 30
0.0
 11
225.0
 21
205.0
 31
0.0
  0
LINE
  5
27F
  8
0
  6
CADDY_SOLID
 10
225.0
 20
205.0
 30
0.0
 11
225.0
 21
200.0
 31
0.0
  0
ENDBLK
  8
0
  0
BLOCK
  8
0
  2
BLK50
 70
     0
 10
0.0
 20
0.0
 30
0.0
  0
LINE
  5
284
  8
0
  6
CADDY_SOLID
 10
225.0
 20
195.0
 30
0.0
 11
230.0
 21
195.0
 31
0.0
  0
LINE
  5
285
  8
0
  6
CADDY_SOLID
 10
230.0
 20
195.0
 30
0.0
 11
230.0
 21
200.0
 31
0.0
  0
LINE
  5
286
  8
0
  6
CADDY_SOLID
 10
230.0
 20
200.0
 30
0.0
 11
225.0
 21
200.0
 31
0.0
  0
LINE
  5
287
  8
0
  6
CADDY_SOLID
 10
225.0
 20
200.0
 30
0.0
 11
225.0
 21
195.0
 31
0.0
  0
ENDBLK
  8
0
  0
BLOCK
  8
0
  2
BLK51
 70
     0
 10
0.0
 20
0.0
 30
0.0
  0
LINE
  5
28C
  8
0
  6
CADDY_SOLID
 10
225.0
 20
190.0
 30
0.0
 11
230.0
 21
190.0
 31
0.0
  0
LINE
  5
28D
  8
0
  6
CADDY_SOLID
 10
230.0
 20
190.0
 30
0.0
 11
230.0
 21
195.0
 31
0.0
  0
LINE
  5
28E
  8
0
  6
CADDY_SOLID
 10
230.0
 20
195.0
 30
0.0
 11
225.0
 21
195.0
 31
0.0
  0
LINE
  5
28F
  8
0
  6
CADDY_SOLID
 10
225.0
 20
195.0
 30
0.0
 11
225.0
 21
190.0
 31
0.0
  0
ENDBLK
  8
0
  0
BLOCK
  8
0
  2
BLK52
 70
     0
 10
0.0
 20
0.0
 30
0.0
  0
LINE
  5
294
  8
0
  6
CADDY_SOLID
 10
225.0
 20
185.0
 30
0.0
 11
230.0
 21
185.0
 31
0.0
  0
LINE
  5
295
  8
0
  6
CADDY_SOLID
 10
230.0
 20
185.0
 30
0.0
 11
230.0
 21
190.0
 31
0.0
  0
LINE
  5
296
  8
0
  6
CADDY_SOLID
 10
230.0
 20
190.0
 30
0.0
 11
225.0
 21
190.0
 31
0.0
  0
LINE
  5
297
  8
0
  6
CADDY_SOLID
 10
225.0
 20
190.0
 30
0.0
 11
225.0
 21
185.0
 31
0.0
  0
ENDBLK
  8
0
  0
BLOCK
  8
0
  2
BLK53
 70
     0
 10
0.0
 20
0.0
 30
0.0
  0
LINE
  5
29C
  8
0
  6
CADDY_SOLID
 10
225.0
 20
180.0
 30
0.0
 11
230.0
 21
180.0
 31
0.0
  0
LINE
  5
29D
  8
0
  6
CADDY_SOLID
 10
230.0
 20
180.0
 30
0.0
 11
230.0
 21
185.0
 31
0.0
  0
LINE
  5
29E
  8
0
  6
CADDY_SOLID
 10
230.0
 20
185.0
 30
0.0
 11
225.0
 21
185.0
 31
0.0
  0
LINE
  5
29F
  8
0
  6
CADDY_SOLID
 10
225.0
 20
185.0
 30
0.0
 11
225.0
 21
180.0
 31
0.0
  0
ENDBLK
  8
0
  0
BLOCK
  8
0
  2
BLK54
 70
     0
 10
0.0
 20
0.0
 30
0.0
  0
LINE
  5
2A4
  8
0
  6
CADDY_SOLID
 10
225.0
 20
175.0
 30
0.0
 11
230.0
 21
175.0
 31
0.0
  0
LINE
  5
2A5
  8
0
  6
CADDY_SOLID
 10
230.0
 20
175.0
 30
0.0
 11
230.0
 21
180.0
 31
0.0
  0
LINE
  5
2A6
  8
0
  6
CADDY_SOLID
 10
230.0
 20
180.0
 30
0.0
 11
225.0
 21
180.0
 31
0.0
  0
LINE
  5
2A7
  8
0
  6
CADDY_SOLID
 10
225.0
 20
180.0
 30
0.0
 11
225.0
 21
175.0
 31
0.0
  0
ENDBLK
  8
0
  0
BLOCK
  8
0
  2
BLK55
 70
     0
 10
0.0
 20
0.0
 30
0.0
  0
LINE
  5
2B2
  8
0
  6
CADDY_SOLID
 10
220.0
 20
75.0
 30
0.0
 11
240.0
 21
75.0
 31
0.0
  0
LINE
  5
2B3
  8
0
  6
CADDY_SOLID
 10
240.0
 20
75.0
 30
0.0
 11
240.0
 21
225.0
 31
0.0
  0
LINE
  5
2B4
  8
0
  6
CADDY_SOLID
 10
240.0
 20
225.0
 30
0.0
 11
220.0
 21
225.0
 31
0.0
  0
LINE
  5
2B5
  8
0
  6
CADDY_SOLID
 10
220.0
 20
225.0
 30
0.0
 11
220.0
 21
75.0
 31
0.0
  0
ENDBLK
  8
0
  0
BLOCK
  8
0
  2
BLK56
 70
     0
 10
0.0
 20
0.0
 30
0.0
  0
LINE
  5
2BA
  8
0
  6
CADDY_SOLID
 10
225.0
 20
155.0
 30
0.0
 11
235.0
 21
155.0
 31
0.0
  0
LINE
  5
2BB
  8
0
  6
CADDY_SOLID
 10
235.0
 20
155.0
 30
0.0
 11
235.0
 21
160.0
 31
0.0
  0
LINE
  5
2BC
  8
0
  6
CADDY_SOLID
 10
235.0
 20
160.0
 30
0.0
 11
225.0
 21
160.0
 31
0.0
  0
LINE
  5
2BD
  8
0
  6
CADDY_SOLID
 10
225.0
 20
160.0
 30
0.0
 11
225.0
 21
155.0
 31
0.0
  0
ENDBLK
  8
0
  0
BLOCK
  8
0
  2
BLK57
 70
     0
 10
0.0
 20
0.0
 30
0.0
  0
LINE
  5
2C2
  8
0
  6
CADDY_SOLID
 10
225.0
 20
150.0
 30
0.0
 11
235.0
 21
150.0
 31
0.0
  0
LINE
  5
2C3
  8
0
  6
CADDY_SOLID
 10
235.0
 20
150.0
 30
0.0
 11
235.0
 21
155.0
 31
0.0
  0
LINE
  5
2C4
  8
0
  6
CADDY_SOLID
 10
235.0
 20
155.0
 30
0.0
 11
225.0
 21
155.0
 31
0.0
  0
LINE
  5
2C5
  8
0
  6
CADDY_SOLID
 10
225.0
 20
155.0
 30
0.0
 11
225.0
 21
150.0
 31
0.0
  0
ENDBLK
  8
0
  0
BLOCK
  8
0
  2
BLK58
 70
     0
 10
0.0
 20
0.0
 30
0.0
  0
LINE
  5
2CA
  8
0
  6
CADDY_SOLID
 10
225.0
 20
145.0
 30
0.0
 11
235.0
 21
145.0
 31
0.0
  0
LINE
  5
2CB
  8
0
  6
CADDY_SOLID
 10
235.0
 20
145.0
 30
0.0
 11
235.0
 21
150.0
 31
0.0
  0
LINE
  5
2CC
  8
0
  6
CADDY_SOLID
 10
235.0
 20
150.0
 30
0.0
 11
225.0
 21
150.0
 31
0.0
  0
LINE
  5
2CD
  8
0
  6
CADDY_SOLID
 10
225.0
 20
150.0
 30
0.0
 11
225.0
 21
145.0
 31
0.0
  0
ENDBLK
  8
0
  0
BLOCK
  8
0
  2
BLK59
 70
     0
 10
0.0
 20
0.0
 30
0.0
  0
LINE
  5
2D2
  8
0
  6
CADDY_SOLID
 10
225.0
 20
140.0
 30
0.0
 11
235.0
 21
140.0
 31
0.0
  0
LINE
  5
2D3
  8
0
  6
CADDY_SOLID
 10
235.0
 20
140.0
 30
0.0
 11
235.0
 21
145.0
 31
0.0
  0
LINE
  5
2D4
  8
0
  6
CADDY_SOLID
 10
235.0
 20
145.0
 30
0.0
 11
225.0
 21
145.0
 31
0.0
  0
LINE
  5
2D5
  8
0
  6
CADDY_SOLID
 10
225.0
 20
145.0
 30
0.0
 11
225.0
 21
140.0
 31
0.0
  0
ENDBLK
  8
0
  0
BLOCK
  8
0
  2
BLK60
 70
     0
 10
0.0
 20
0.0
 30
0.0
  0
LINE
  5
2DA
  8
0
  6
CADDY_SOLID
 10
225.0
 20
135.0
 30
0.0
 11
235.0
 21
135.0
 31
0.0
  0
LINE
  5
2DB
  8
0
  6
CADDY_SOLID
 10
235.0
 20
135.0
 30
0.0
 11
235.0
 21
140.0
 31
0.0
  0
LINE
  5
2DC
  8
0
  6
CADDY_SOLID
 10
235.0
 20
140.0
 30
0.0
 11
225.0
 21
140.0
 31
0.0
  0
LINE
  5
2DD
  8
0
  6
CADDY_SOLID
 10
225.0
 20
140.0
 30
0.0
 11
225.0
 21
135.0
 31
0.0
  0
ENDBLK
  8
0
  0
BLOCK
  8
0
  2
BLK61
 70
     0
 10
0.0
 20
0.0
 30
0.0
  0
LINE
  5
2E2
  8
0
  6
CADDY_SOLID
 10
225.0
 20
130.0
 30
0.0
 11
235.0
 21
130.0
 31
0.0
  0
LINE
  5
2E3
  8
0
  6
CADDY_SOLID
 10
235.0
 20
130.0
 30
0.0
 11
235.0
 21
135.0
 31
0.0
  0
LINE
  5
2E4
  8
0
  6
CADDY_SOLID
 10
235.0
 20
135.0
 30
0.0
 11
225.0
 21
135.0
 31
0.0
  0
LINE
  5
2E5
  8
0
  6
CADDY_SOLID
 10
225.0
 20
135.0
 30
0.0
 11
225.0
 21
130.0
 31
0.0
  0
ENDBLK
  8
0
  0
BLOCK
  8
0
  2
BLK62
 70
     0
 10
0.0
 20
0.0
 30
0.0
  0
LINE
  5
2F1
  8
0
  6
CADDY_SOLID
 10
225.0
 20
115.0
 30
0.0
 11
235.0
 21
115.0
 31
0.0
  0
LINE
  5
2F2
  8
0
  6
CADDY_SOLID
 10
235.0
 20
115.0
 30
0.0
 11
235.0
 21
120.0
 31
0.0
  0
LINE
  5
2F3
  8
0
  6
CADDY_SOLID
 10
235.0
 20
120.0
 30
0.0
 11
225.0
 21
120.0
 31
0.0
  0
LINE
  5
2F4
  8
0
  6
CADDY_SOLID
 10
225.0
 20
120.0
 30
0.0
 11
225.0
 21
115.0
 31
0.0
  0
ENDBLK
  8
0
  0
BLOCK
  8
0
  2
BLK63
 70
     0
 10
0.0
 20
0.0
 30
0.0
  0
LINE
  5
2F9
  8
0
  6
CADDY_SOLID
 10
225.0
 20
110.0
 30
0.0
 11
235.0
 21
110.0
 31
0.0
  0
LINE
  5
2FA
  8
0
  6
CADDY_SOLID
 10
235.0
 20
110.0
 30
0.0
 11
235.0
 21
115.0
 31
0.0
  0
LINE
  5
2FB
  8
0
  6
CADDY_SOLID
 10
235.0
 20
115.0
 30
0.0
 11
225.0
 21
115.0
 31
0.0
  0
LINE
  5
2FC
  8
0
  6
CADDY_SOLID
 10
225.0
 20
115.0
 30
0.0
 11
225.0
 21
110.0
 31
0.0
  0
ENDBLK
  8
0
  0
BLOCK
  8
0
  2
BLK64
 70
     0
 10
0.0
 20
0.0
 30
0.0
  0
LINE
  5
301
  8
0
  6
CADDY_SOLID
 10
225.0
 20
105.0
 30
0.0
 11
235.0
 21
105.0
 31
0.0
  0
LINE
  5
302
  8
0
  6
CADDY_SOLID
 10
235.0
 20
105.0
 30
0.0
 11
235.0
 21
110.0
 31
0.0
  0
LINE
  5
303
  8
0
  6
CADDY_SOLID
 10
235.0
 20
110.0
 30
0.0
 11
225.0
 21
110.0
 31
0.0
  0
LINE
  5
304
  8
0
  6
CADDY_SOLID
 10
225.0
 20
110.0
 30
0.0
 11
225.0
 21
105.0
 31
0.0
  0
ENDBLK
  8
0
  0
BLOCK
  8
0
  2
BLK65
 70
     0
 10
0.0
 20
0.0
 30
0.0
  0
LINE
  5
309
  8
0
  6
CADDY_SOLID
 10
225.0
 20
100.0
 30
0.0
 11
235.0
 21
100.0
 31
0.0
  0
LINE
  5
30A
  8
0
  6
CADDY_SOLID
 10
235.0
 20
100.0
 30
0.0
 11
235.0
 21
105.0
 31
0.0
  0
LINE
  5
30B
  8
0
  6
CADDY_SOLID
 10
235.0
 20
105.0
 30
0.0
 11
225.0
 21
105.0
 31
0.0
  0
LINE
  5
30C
  8
0
  6
CADDY_SOLID
 10
225.0
 20
105.0
 30
0.0
 11
225.0
 21
100.0
 31
0.0
  0
ENDBLK
  8
0
  0
BLOCK
  8
0
  2
BLK66
 70
     0
 10
0.0
 20
0.0
 30
0.0
  0
LINE
  5
311
  8
0
  6
CADDY_SOLID
 10
225.0
 20
95.0
 30
0.0
 11
235.0
 21
95.0
 31
0.0
  0
LINE
  5
312
  8
0
  6
CADDY_SOLID
 10
235.0
 20
95.0
 30
0.0
 11
235.0
 21
100.0
 31
0.0
  0
LINE
  5
313
  8
0
  6
CADDY_SOLID
 10
235.0
 20
100.0
 30
0.0
 11
225.0
 21
100.0
 31
0.0
  0
LINE
  5
314
  8
0
  6
CADDY_SOLID
 10
225.0
 20
100.0
 30
0.0
 11
225.0
 21
95.0
 31
0.0
  0
ENDBLK
  8
0
  0
BLOCK
  8
0
  2
BLK67
 70
     0
 10
0.0
 20
0.0
 30
0.0
  0
LINE
  5
319
  8
0
  6
CADDY_SOLID
 10
225.0
 20
90.0
 30
0.0
 11
235.0
 21
90.0
 31
0.0
  0
LINE
  5
31A
  8
0
  6
CADDY_SOLID
 10
235.0
 20
90.0
 30
0.0
 11
235.0
 21
95.0
 31
0.0
  0
LINE
  5
31B
  8
0
  6
CADDY_SOLID
 10
235.0
 20
95.0
 30
0.0
 11
225.0
 21
95.0
 31
0.0
  0
LINE
  5
31C
  8
0
  6
CADDY_SOLID
 10
225.0
 20
95.0
 30
0.0
 11
225.0
 21
90.0
 31
0.0
  0
ENDBLK
  8
0
  0
BLOCK
  8
0
  2
BLK68
 70
     2
 10
0.0
 20
0.0
 30
0.0
  0
ATTDEF
  5
33D
  8
0
 10
232.9767751846314
 20
147.0500030517578
 30
0.0
 40
2.449996948242188
  1

 41
0.9
  7
CADDY_VECTORFONT1P
 72
     2
 11
250.2749786376953
 21
147.0500030517578
 31
0.0
  3
Beskrivelse 00
  2
$TAG160030
 70
     0
  0
TEXT
  5
33E
  8
0
 10
265.7000122070312
 20
220.6999969482422
 30
0.0
 40
2.449996948242188
  1
DDO3600
 41
0.9
  7
CADDY_VECTORFONT1P
  0
INSERT
  5
342
  8
0
  2
BLK69
 10
0.0
 20
0.0
 30
1.0
  0
TEXT
  5
347
  8
0
 10
270.7000122070312
 20
210.6999969482422
 30
0.0
 40
2.449996948242188
  1
RDY
 41
0.9
  7
CADDY_VECTORFONT1P
  0
TEXT
  5
348
  8
0
 10
270.7000122070312
 20
205.6999969482422
 30
0.0
 40
2.449996948242188
  1
ERR
 41
0.9
  7
CADDY_VECTORFONT1P
  0
INSERT
  5
34C
  8
0
  2
BLK70
 10
0.0
 20
0.0
 30
1.0
  0
INSERT
  5
354
  8
0
  2
BLK71
 10
0.0
 20
0.0
 30
1.0
  0
INSERT
  5
35C
  8
0
  2
BLK72
 10
0.0
 20
0.0
 30
1.0
  0
INSERT
  5
364
  8
0
  2
BLK73
 10
0.0
 20
0.0
 30
1.0
  0
INSERT
  5
36C
  8
0
  2
BLK74
 10
0.0
 20
0.0
 30
1.0
  0
INSERT
  5
374
  8
0
  2
BLK75
 10
0.0
 20
0.0
 30
1.0
  0
INSERT
  5
37C
  8
0
  2
BLK76
 10
0.0
 20
0.0
 30
1.0
  0
TEXT
  5
381
  8
0
 10
270.7000122070312
 20
200.6999969482422
 30
0.0
 40
2.449996948242188
  1
IN1
 41
0.9
  7
CADDY_VECTORFONT1P
  0
TEXT
  5
382
  8
0
 10
270.7000122070312
 20
195.6999969482422
 30
0.0
 40
2.449996948242188
  1
IN2
 41
0.9
  7
CADDY_VECTORFONT1P
  0
TEXT
  5
383
  8
0
 10
270.7000122070312
 20
190.6999969482422
 30
0.0
 40
2.449996948242188
  1
IN3
 41
0.9
  7
CADDY_VECTORFONT1P
  0
TEXT
  5
384
  8
0
 10
270.7000122070312
 20
185.6999969482422
 30
0.0
 40
2.449996948242188
  1
IN4
 41
0.9
  7
CADDY_VECTORFONT1P
  0
TEXT
  5
385
  8
0
 10
270.7000122070312
 20
180.6999969482422
 30
0.0
 40
2.449996948242188
  1
IN5
 41
0.9
  7
CADDY_VECTORFONT1P
  0
TEXT
  5
386
  8
0
 10
270.7000122070312
 20
175.6999969482422
 30
0.0
 40
2.449996948242188
  1
IN6
 41
0.9
  7
CADDY_VECTORFONT1P
  0
INSERT
  5
38A
  8
0
  2
BLK77
 10
0.0
 20
0.0
 30
1.0
  0
INSERT
  5
392
  8
0
  2
BLK78
 10
0.0
 20
0.0
 30
1.0
  0
INSERT
  5
39A
  8
0
  2
BLK79
 10
0.0
 20
0.0
 30
1.0
  0
INSERT
  5
3A2
  8
0
  2
BLK80
 10
0.0
 20
0.0
 30
1.0
  0
INSERT
  5
3AA
  8
0
  2
BLK81
 10
0.0
 20
0.0
 30
1.0
  0
INSERT
  5
3B2
  8
0
  2
BLK82
 10
0.0
 20
0.0
 30
1.0
  0
INSERT
  5
3BA
  8
0
  2
BLK83
 10
0.0
 20
0.0
 30
1.0
  0
TEXT
  5
3BF
  8
0
 10
260.7000122070312
 20
155.6999969482422
 30
0.0
 40
2.449996948242188
  1
1
 41
0.9
  7
CADDY_VECTORFONT1P
  0
TEXT
  5
3C0
  8
0
 10
260.7000122070312
 20
150.6999969482422
 30
0.0
 40
2.449996948242188
  1
2
 41
0.9
  7
CADDY_VECTORFONT1P
  0
TEXT
  5
3C1
  8
0
 10
260.7000122070312
 20
145.6999969482422
 30
0.0
 40
2.449996948242188
  1
3
 41
0.9
  7
CADDY_VECTORFONT1P
  0
TEXT
  5
3C2
  8
0
 10
260.7000122070312
 20
140.6999969482422
 30
0.0
 40
2.449996948242188
  1
4
 41
0.9
  7
CADDY_VECTORFONT1P
  0
TEXT
  5
3C3
  8
0
 10
260.7000122070312
 20
135.6999969482422
 30
0.0
 40
2.449996948242188
  1
5
 41
0.9
  7
CADDY_VECTORFONT1P
  0
TEXT
  5
3C4
  8
0
 10
260.7000122070312
 20
130.6999969482422
 30
0.0
 40
2.449996948242188
  1
6
 41
0.9
  7
CADDY_VECTORFONT1P
  0
TEXT
  5
3C5
  8
0
 10
266.446646926117
 20
160.6999969482422
 30
0.0
 40
2.449996948242188
  1
8(A)1
 41
0.9
  7
CADDY_VECTORFONT1P
 72
     1
 11
270.0
 21
160.6999969482422
 31
0.0
  0
INSERT
  5
3C9
  8
0
  2
BLK84
 10
0.0
 20
0.0
 30
1.0
  0
INSERT
  5
3D1
  8
0
  2
BLK85
 10
0.0
 20
0.0
 30
1.0
  0
INSERT
  5
3D9
  8
0
  2
BLK86
 10
0.0
 20
0.0
 30
1.0
  0
INSERT
  5
3E1
  8
0
  2
BLK87
 10
0.0
 20
0.0
 30
1.0
  0
INSERT
  5
3E9
  8
0
  2
BLK88
 10
0.0
 20
0.0
 30
1.0
  0
INSERT
  5
3F1
  8
0
  2
BLK89
 10
0.0
 20
0.0
 30
1.0
  0
TEXT
  5
3F6
  8
0
 10
260.7000122070312
 20
115.6999969482422
 30
0.0
 40
2.450004577636719
  1
1
 41
0.9
  7
CADDY_VECTORFONT1P
  0
TEXT
  5
3F7
  8
0
 10
260.7000122070312
 20
110.6999969482422
 30
0.0
 40
2.450004577636719
  1
2
 41
0.9
  7
CADDY_VECTORFONT1P
  0
TEXT
  5
3F8
  8
0
 10
260.7000122070312
 20
105.6999969482422
 30
0.0
 40
2.450004577636719
  1
3
 41
0.9
  7
CADDY_VECTORFONT1P
  0
TEXT
  5
3F9
  8
0
 10
260.7000122070312
 20
100.6999969482422
 30
0.0
 40
2.450004577636719
  1
4
 41
0.9
  7
CADDY_VECTORFONT1P
  0
TEXT
  5
3FA
  8
0
 10
260.7000122070312
 20
95.69999694824219
 30
0.0
 40
2.450004577636719
  1
5
 41
0.9
  7
CADDY_VECTORFONT1P
  0
TEXT
  5
3FB
  8
0
 10
260.7000122070312
 20
90.69999694824219
 30
0.0
 40
2.450004577636719
  1
6
 41
0.9
  7
CADDY_VECTORFONT1P
  0
TEXT
  5
3FC
  8
0
 10
266.5690441070557
 20
120.6999969482422
 30
0.0
 40
2.450004577636719
  1
8(B)1
 41
0.9
  7
CADDY_VECTORFONT1P
 72
     1
 11
270.0000305175781
 21
120.6999969482422
 31
0.0
  0
LINE
  5
3FD
  8
0
  6
CADDY_SOLID
 10
260.0
 20
170.0
 30
0.0
 11
280.0
 21
170.0
 31
0.0
  0
ATTDEF
  5
3FF
  8
0
 10
254.993498727417
 20
230.6999969482422
 30
0.0
 40
2.449996948242188
  1
D1806
 41
0.9
  7
CADDY_VECTORFONT1P
 72
     2
 11
271.7999877929688
 21
230.6999969482422
 31
0.0
  3
Produkt (-)
  2
$TAG160010
 70
     0
  0
ATTDEF
  5
401
  8
0
 10
239.9935292449951
 20
147.1999969482422
 30
0.0
 40
2.449996948242188
  1

 41
0.9
  7
CADDY_VECTORFONT1P
 72
     2
 11
256.8000183105469
 21
147.1999969482422
 31
0.0
  3
Signaladresse
  2
$TAG175100
 70
     0
  0
ATTDEF
  5
403
  8
0
 10
240.4852436325073
 20
143.6999969482422
 30
0.0
 40
2.449996948242188
  1

 41
0.9
  7
CADDY_VECTORFONT1P
 72
     2
 11
256.8000183105469
 21
143.6999969482422
 31
0.0
  3
Signalbeskrivelse
  2
$TAG175110
 70
     0
  0
ATTDEF
  5
405
  8
0
 10
239.9935292449951
 20
140.6999969482422
 30
0.0
 40
2.449996948242188
  1

 41
0.9
  7
CADDY_VECTORFONT1P
 72
     2
 11
256.8000183105469
 21
140.6999969482422
 31
0.0
  3
Signalbemærkning
  2
$TAG175120
 70
     0
  0
ATTDEF
  5
407
  8
0
 10
239.5017843399048
 20
137.1999969482422
 30
0.0
 40
2.449996948242188
  1
?
 41
0.9
  7
CADDY_VECTORFONT1P
 72
     2
 11
256.7999877929688
 21
137.1999969482422
 31
0.0
  3
Side/strømvej reference
  2
$TAG160500
 70
     0
  0
ATTDEF
  5
409
  8
0
 10
239.2570296447754
 20
157.6999969482422
 30
0.0
 40
2.449996948242188
  1
=
 41
0.9
  7
CADDY_VECTORFONT1P
 72
     2
 11
256.7999877929688
 21
157.6999969482422
 31
0.0
  3
Funktion (=)
  2
$TAG140020
 70
     1
  0
ATTDEF
  5
40B
  8
0
 10
239.2570296447754
 20
154.1999969482422
 30
0.0
 40
2.449996948242188
  1
+
 41
0.9
  7
CADDY_VECTORFONT1P
 72
     2
 11
256.7999877929688
 21
154.1999969482422
 31
0.0
  3
Placering (+)
  2
$TAG140050
 70
     1
  0
ATTDEF
  5
40D
  8
0
 10
232.9767751846314
 20
147.0500030517578
 30
0.0
 40
2.449996948242188
  1

 41
0.9
  7
CADDY_VECTORFONT1P
 72
     2
 11
250.2749786376953
 21
147.0500030517578
 31
0.0
  3
Beskrivelse 00
  2
$TAG160030
 70
     0
  0
ATTDEF
  5
40F
  8
0
 10
229.3920241516113
 20
138.0749969482422
 30
0.0
 40
2.449996948242188
  1

 41
0.9
  7
CADDY_VECTORFONT1P
 72
     2
 11
246.9349822998047
 21
138.0749969482422
 31
0.0
  3
Type
  2
$TAG160040
 70
     1
  0
ENDBLK
  8
0
  0
BLOCK
  8
0
  2
BLK69
 70
     0
 10
0.0
 20
0.0
 30
0.0
  0
LINE
  5
343
  8
0
  6
CADDY_SOLID
 10
265.0
 20
210.0
 30
0.0
 11
270.0
 21
210.0
 31
0.0
  0
LINE
  5
344
  8
0
  6
CADDY_SOLID
 10
270.0
 20
210.0
 30
0.0
 11
270.0
 21
215.0
 31
0.0
  0
LINE
  5
345
  8
0
  6
CADDY_SOLID
 10
270.0
 20
215.0
 30
0.0
 11
265.0
 21
215.0
 31
0.0
  0
LINE
  5
346
  8
0
  6
CADDY_SOLID
 10
265.0
 20
215.0
 30
0.0
 11
265.0
 21
210.0
 31
0.0
  0
ENDBLK
  8
0
  0
BLOCK
  8
0
  2
BLK70
 70
     0
 10
0.0
 20
0.0
 30
0.0
  0
LINE
  5
34D
  8
0
  6
CADDY_SOLID
 10
265.0
 20
205.0
 30
0.0
 11
270.0
 21
205.0
 31
0.0
  0
LINE
  5
34E
  8
0
  6
CADDY_SOLID
 10
270.0
 20
205.0
 30
0.0
 11
270.0
 21
210.0
 31
0.0
  0
LINE
  5
34F
  8
0
  6
CADDY_SOLID
 10
270.0
 20
210.0
 30
0.0
 11
265.0
 21
210.0
 31
0.0
  0
LINE
  5
350
  8
0
  6
CADDY_SOLID
 10
265.0
 20
210.0
 30
0.0
 11
265.0
 21
205.0
 31
0.0
  0
ENDBLK
  8
0
  0
BLOCK
  8
0
  2
BLK71
 70
     0
 10
0.0
 20
0.0
 30
0.0
  0
LINE
  5
355
  8
0
  6
CADDY_SOLID
 10
265.0
 20
200.0
 30
0.0
 11
270.0
 21
200.0
 31
0.0
  0
LINE
  5
356
  8
0
  6
CADDY_SOLID
 10
270.0
 20
200.0
 30
0.0
 11
270.0
 21
205.0
 31
0.0
  0
LINE
  5
357
  8
0
  6
CADDY_SOLID
 10
270.0
 20
205.0
 30
0.0
 11
265.0
 21
205.0
 31
0.0
  0
LINE
  5
358
  8
0
  6
CADDY_SOLID
 10
265.0
 20
205.0
 30
0.0
 11
265.0
 21
200.0
 31
0.0
  0
ENDBLK
  8
0
  0
BLOCK
  8
0
  2
BLK72
 70
     0
 10
0.0
 20
0.0
 30
0.0
  0
LINE
  5
35D
  8
0
  6
CADDY_SOLID
 10
265.0
 20
195.0
 30
0.0
 11
270.0
 21
195.0
 31
0.0
  0
LINE
  5
35E
  8
0
  6
CADDY_SOLID
 10
270.0
 20
195.0
 30
0.0
 11
270.0
 21
200.0
 31
0.0
  0
LINE
  5
35F
  8
0
  6
CADDY_SOLID
 10
270.0
 20
200.0
 30
0.0
 11
265.0
 21
200.0
 31
0.0
  0
LINE
  5
360
  8
0
  6
CADDY_SOLID
 10
265.0
 20
200.0
 30
0.0
 11
265.0
 21
195.0
 31
0.0
  0
ENDBLK
  8
0
  0
BLOCK
  8
0
  2
BLK73
 70
     0
 10
0.0
 20
0.0
 30
0.0
  0
LINE
  5
365
  8
0
  6
CADDY_SOLID
 10
265.0
 20
190.0
 30
0.0
 11
270.0
 21
190.0
 31
0.0
  0
LINE
  5
366
  8
0
  6
CADDY_SOLID
 10
270.0
 20
190.0
 30
0.0
 11
270.0
 21
195.0
 31
0.0
  0
LINE
  5
367
  8
0
  6
CADDY_SOLID
 10
270.0
 20
195.0
 30
0.0
 11
265.0
 21
195.0
 31
0.0
  0
LINE
  5
368
  8
0
  6
CADDY_SOLID
 10
265.0
 20
195.0
 30
0.0
 11
265.0
 21
190.0
 31
0.0
  0
ENDBLK
  8
0
  0
BLOCK
  8
0
  2
BLK74
 70
     0
 10
0.0
 20
0.0
 30
0.0
  0
LINE
  5
36D
  8
0
  6
CADDY_SOLID
 10
265.0
 20
185.0
 30
0.0
 11
270.0
 21
185.0
 31
0.0
  0
LINE
  5
36E
  8
0
  6
CADDY_SOLID
 10
270.0
 20
185.0
 30
0.0
 11
270.0
 21
190.0
 31
0.0
  0
LINE
  5
36F
  8
0
  6
CADDY_SOLID
 10
270.0
 20
190.0
 30
0.0
 11
265.0
 21
190.0
 31
0.0
  0
LINE
  5
370
  8
0
  6
CADDY_SOLID
 10
265.0
 20
190.0
 30
0.0
 11
265.0
 21
185.0
 31
0.0
  0
ENDBLK
  8
0
  0
BLOCK
  8
0
  2
BLK75
 70
     0
 10
0.0
 20
0.0
 30
0.0
  0
LINE
  5
375
  8
0
  6
CADDY_SOLID
 10
265.0
 20
180.0
 30
0.0
 11
270.0
 21
180.0
 31
0.0
  0
LINE
  5
376
  8
0
  6
CADDY_SOLID
 10
270.0
 20
180.0
 30
0.0
 11
270.0
 21
185.0
 31
0.0
  0
LINE
  5
377
  8
0
  6
CADDY_SOLID
 10
270.0
 20
185.0
 30
0.0
 11
265.0
 21
185.0
 31
0.0
  0
LINE
  5
378
  8
0
  6
CADDY_SOLID
 10
265.0
 20
185.0
 30
0.0
 11
265.0
 21
180.0
 31
0.0
  0
ENDBLK
  8
0
  0
BLOCK
  8
0
  2
BLK76
 70
     0
 10
0.0
 20
0.0
 30
0.0
  0
LINE
  5
37D
  8
0
  6
CADDY_SOLID
 10
265.0
 20
175.0
 30
0.0
 11
270.0
 21
175.0
 31
0.0
  0
LINE
  5
37E
  8
0
  6
CADDY_SOLID
 10
270.0
 20
175.0
 30
0.0
 11
270.0
 21
180.0
 31
0.0
  0
LINE
  5
37F
  8
0
  6
CADDY_SOLID
 10
270.0
 20
180.0
 30
0.0
 11
265.0
 21
180.0
 31
0.0
  0
LINE
  5
380
  8
0
  6
CADDY_SOLID
 10
265.0
 20
180.0
 30
0.0
 11
265.0
 21
175.0
 31
0.0
  0
ENDBLK
  8
0
  0
BLOCK
  8
0
  2
BLK77
 70
     0
 10
0.0
 20
0.0
 30
0.0
  0
LINE
  5
38B
  8
0
  6
CADDY_SOLID
 10
260.0
 20
75.0
 30
0.0
 11
280.0
 21
75.0
 31
0.0
  0
LINE
  5
38C
  8
0
  6
CADDY_SOLID
 10
280.0
 20
75.0
 30
0.0
 11
280.0
 21
225.0
 31
0.0
  0
LINE
  5
38D
  8
0
  6
CADDY_SOLID
 10
280.0
 20
225.0
 30
0.0
 11
260.0
 21
225.0
 31
0.0
  0
LINE
  5
38E
  8
0
  6
CADDY_SOLID
 10
260.0
 20
225.0
 30
0.0
 11
260.0
 21
75.0
 31
0.0
  0
ENDBLK
  8
0
  0
BLOCK
  8
0
  2
BLK78
 70
     0
 10
0.0
 20
0.0
 30
0.0
  0
LINE
  5
393
  8
0
  6
CADDY_SOLID
 10
265.0
 20
155.0
 30
0.0
 11
275.0
 21
155.0
 31
0.0
  0
LINE
  5
394
  8
0
  6
CADDY_SOLID
 10
275.0
 20
155.0
 30
0.0
 11
275.0
 21
160.0
 31
0.0
  0
LINE
  5
395
  8
0
  6
CADDY_SOLID
 10
275.0
 20
160.0
 30
0.0
 11
265.0
 21
160.0
 31
0.0
  0
LINE
  5
396
  8
0
  6
CADDY_SOLID
 10
265.0
 20
160.0
 30
0.0
 11
265.0
 21
155.0
 31
0.0
  0
ENDBLK
  8
0
  0
BLOCK
  8
0
  2
BLK79
 70
     0
 10
0.0
 20
0.0
 30
0.0
  0
LINE
  5
39B
  8
0
  6
CADDY_SOLID
 10
265.0
 20
150.0
 30
0.0
 11
275.0
 21
150.0
 31
0.0
  0
LINE
  5
39C
  8
0
  6
CADDY_SOLID
 10
275.0
 20
150.0
 30
0.0
 11
275.0
 21
155.0
 31
0.0
  0
LINE
  5
39D
  8
0
  6
CADDY_SOLID
 10
275.0
 20
155.0
 30
0.0
 11
265.0
 21
155.0
 31
0.0
  0
LINE
  5
39E
  8
0
  6
CADDY_SOLID
 10
265.0
 20
155.0
 30
0.0
 11
265.0
 21
150.0
 31
0.0
  0
ENDBLK
  8
0
  0
BLOCK
  8
0
  2
BLK80
 70
     0
 10
0.0
 20
0.0
 30
0.0
  0
LINE
  5
3A3
  8
0
  6
CADDY_SOLID
 10
265.0
 20
145.0
 30
0.0
 11
275.0
 21
145.0
 31
0.0
  0
LINE
  5
3A4
  8
0
  6
CADDY_SOLID
 10
275.0
 20
145.0
 30
0.0
 11
275.0
 21
150.0
 31
0.0
  0
LINE
  5
3A5
  8
0
  6
CADDY_SOLID
 10
275.0
 20
150.0
 30
0.0
 11
265.0
 21
150.0
 31
0.0
  0
LINE
  5
3A6
  8
0
  6
CADDY_SOLID
 10
265.0
 20
150.0
 30
0.0
 11
265.0
 21
145.0
 31
0.0
  0
ENDBLK
  8
0
  0
BLOCK
  8
0
  2
BLK81
 70
     0
 10
0.0
 20
0.0
 30
0.0
  0
LINE
  5
3AB
  8
0
  6
CADDY_SOLID
 10
265.0
 20
140.0
 30
0.0
 11
275.0
 21
140.0
 31
0.0
  0
LINE
  5
3AC
  8
0
  6
CADDY_SOLID
 10
275.0
 20
140.0
 30
0.0
 11
275.0
 21
145.0
 31
0.0
  0
LINE
  5
3AD
  8
0
  6
CADDY_SOLID
 10
275.0
 20
145.0
 30
0.0
 11
265.0
 21
145.0
 31
0.0
  0
LINE
  5
3AE
  8
0
  6
CADDY_SOLID
 10
265.0
 20
145.0
 30
0.0
 11
265.0
 21
140.0
 31
0.0
  0
ENDBLK
  8
0
  0
BLOCK
  8
0
  2
BLK82
 70
     0
 10
0.0
 20
0.0
 30
0.0
  0
LINE
  5
3B3
  8
0
  6
CADDY_SOLID
 10
265.0
 20
135.0
 30
0.0
 11
275.0
 21
135.0
 31
0.0
  0
LINE
  5
3B4
  8
0
  6
CADDY_SOLID
 10
275.0
 20
135.0
 30
0.0
 11
275.0
 21
140.0
 31
0.0
  0
LINE
  5
3B5
  8
0
  6
CADDY_SOLID
 10
275.0
 20
140.0
 30
0.0
 11
265.0
 21
140.0
 31
0.0
  0
LINE
  5
3B6
  8
0
  6
CADDY_SOLID
 10
265.0
 20
140.0
 30
0.0
 11
265.0
 21
135.0
 31
0.0
  0
ENDBLK
  8
0
  0
BLOCK
  8
0
  2
BLK83
 70
     0
 10
0.0
 20
0.0
 30
0.0
  0
LINE
  5
3BB
  8
0
  6
CADDY_SOLID
 10
265.0
 20
130.0
 30
0.0
 11
275.0
 21
130.0
 31
0.0
  0
LINE
  5
3BC
  8
0
  6
CADDY_SOLID
 10
275.0
 20
130.0
 30
0.0
 11
275.0
 21
135.0
 31
0.0
  0
LINE
  5
3BD
  8
0
  6
CADDY_SOLID
 10
275.0
 20
135.0
 30
0.0
 11
265.0
 21
135.0
 31
0.0
  0
LINE
  5
3BE
  8
0
  6
CADDY_SOLID
 10
265.0
 20
135.0
 30
0.0
 11
265.0
 21
130.0
 31
0.0
  0
ENDBLK
  8
0
  0
BLOCK
  8
0
  2
BLK84
 70
     0
 10
0.0
 20
0.0
 30
0.0
  0
LINE
  5
3CA
  8
0
  6
CADDY_SOLID
 10
265.0
 20
115.0
 30
0.0
 11
275.0
 21
115.0
 31
0.0
  0
LINE
  5
3CB
  8
0
  6
CADDY_SOLID
 10
275.0
 20
115.0
 30
0.0
 11
275.0
 21
120.0
 31
0.0
  0
LINE
  5
3CC
  8
0
  6
CADDY_SOLID
 10
275.0
 20
120.0
 30
0.0
 11
265.0
 21
120.0
 31
0.0
  0
LINE
  5
3CD
  8
0
  6
CADDY_SOLID
 10
265.0
 20
120.0
 30
0.0
 11
265.0
 21
115.0
 31
0.0
  0
ENDBLK
  8
0
  0
BLOCK
  8
0
  2
BLK85
 70
     0
 10
0.0
 20
0.0
 30
0.0
  0
LINE
  5
3D2
  8
0
  6
CADDY_SOLID
 10
265.0
 20
110.0
 30
0.0
 11
275.0
 21
110.0
 31
0.0
  0
LINE
  5
3D3
  8
0
  6
CADDY_SOLID
 10
275.0
 20
110.0
 30
0.0
 11
275.0
 21
115.0
 31
0.0
  0
LINE
  5
3D4
  8
0
  6
CADDY_SOLID
 10
275.0
 20
115.0
 30
0.0
 11
265.0
 21
115.0
 31
0.0
  0
LINE
  5
3D5
  8
0
  6
CADDY_SOLID
 10
265.0
 20
115.0
 30
0.0
 11
265.0
 21
110.0
 31
0.0
  0
ENDBLK
  8
0
  0
BLOCK
  8
0
  2
BLK86
 70
     0
 10
0.0
 20
0.0
 30
0.0
  0
LINE
  5
3DA
  8
0
  6
CADDY_SOLID
 10
265.0
 20
105.0
 30
0.0
 11
275.0
 21
105.0
 31
0.0
  0
LINE
  5
3DB
  8
0
  6
CADDY_SOLID
 10
275.0
 20
105.0
 30
0.0
 11
275.0
 21
110.0
 31
0.0
  0
LINE
  5
3DC
  8
0
  6
CADDY_SOLID
 10
275.0
 20
110.0
 30
0.0
 11
265.0
 21
110.0
 31
0.0
  0
LINE
  5
3DD
  8
0
  6
CADDY_SOLID
 10
265.0
 20
110.0
 30
0.0
 11
265.0
 21
105.0
 31
0.0
  0
ENDBLK
  8
0
  0
BLOCK
  8
0
  2
BLK87
 70
     0
 10
0.0
 20
0.0
 30
0.0
  0
LINE
  5
3E2
  8
0
  6
CADDY_SOLID
 10
265.0
 20
100.0
 30
0.0
 11
275.0
 21
100.0
 31
0.0
  0
LINE
  5
3E3
  8
0
  6
CADDY_SOLID
 10
275.0
 20
100.0
 30
0.0
 11
275.0
 21
105.0
 31
0.0
  0
LINE
  5
3E4
  8
0
  6
CADDY_SOLID
 10
275.0
 20
105.0
 30
0.0
 11
265.0
 21
105.0
 31
0.0
  0
LINE
  5
3E5
  8
0
  6
CADDY_SOLID
 10
265.0
 20
105.0
 30
0.0
 11
265.0
 21
100.0
 31
0.0
  0
ENDBLK
  8
0
  0
BLOCK
  8
0
  2
BLK88
 70
     0
 10
0.0
 20
0.0
 30
0.0
  0
LINE
  5
3EA
  8
0
  6
CADDY_SOLID
 10
265.0
 20
95.0
 30
0.0
 11
275.0
 21
95.0
 31
0.0
  0
LINE
  5
3EB
  8
0
  6
CADDY_SOLID
 10
275.0
 20
95.0
 30
0.0
 11
275.0
 21
100.0
 31
0.0
  0
LINE
  5
3EC
  8
0
  6
CADDY_SOLID
 10
275.0
 20
100.0
 30
0.0
 11
265.0
 21
100.0
 31
0.0
  0
LINE
  5
3ED
  8
0
  6
CADDY_SOLID
 10
265.0
 20
100.0
 30
0.0
 11
265.0
 21
95.0
 31
0.0
  0
ENDBLK
  8
0
  0
BLOCK
  8
0
  2
BLK89
 70
     0
 10
0.0
 20
0.0
 30
0.0
  0
LINE
  5
3F2
  8
0
  6
CADDY_SOLID
 10
265.0
 20
90.0
 30
0.0
 11
275.0
 21
90.0
 31
0.0
  0
LINE
  5
3F3
  8
0
  6
CADDY_SOLID
 10
275.0
 20
90.0
 30
0.0
 11
275.0
 21
95.0
 31
0.0
  0
LINE
  5
3F4
  8
0
  6
CADDY_SOLID
 10
275.0
 20
95.0
 30
0.0
 11
265.0
 21
95.0
 31
0.0
  0
LINE
  5
3F5
  8
0
  6
CADDY_SOLID
 10
265.0
 20
95.0
 30
0.0
 11
265.0
 21
90.0
 31
0.0
  0
ENDBLK
  8
0
  0
BLOCK
  8
0
  2
BLK90
 70
     2
 10
0.0
 20
0.0
 30
0.0
  0
TEXT
  5
414
  8
0
 10
340.7000122070312
 20
220.6999969482422
 30
0.0
 40
2.449996948242188
  1
EPI2145
 41
0.9
  7
CADDY_VECTORFONT1P
  0
INSERT
  5
418
  8
0
  2
BLK91
 10
0.0
 20
0.0
 30
1.0
  0
INSERT
  5
420
  8
0
  2
BLK92
 10
0.0
 20
0.0
 30
1.0
  0
TEXT
  5
425
  8
0
 10
360.7000122070312
 20
210.6999969482422
 30
0.0
 40
2.449996948242188
  1
RDY
 41
0.9
  7
CADDY_VECTORFONT1P
  0
TEXT
  5
426
  8
0
 10
360.7000122070312
 20
205.6999969482422
 30
0.0
 40
2.449996948242188
  1
ERR
 41
0.9
  7
CADDY_VECTORFONT1P
  0
INSERT
  5
42A
  8
0
  2
BLK93
 10
0.0
 20
0.0
 30
1.0
  0
INSERT
  5
432
  8
0
  2
BLK94
 10
0.0
 20
0.0
 30
1.0
  0
INSERT
  5
43A
  8
0
  2
BLK95
 10
0.0
 20
0.0
 30
1.0
  0
INSERT
  5
442
  8
0
  2
BLK96
 10
0.0
 20
0.0
 30
1.0
  0
INSERT
  5
44A
  8
0
  2
BLK97
 10
0.0
 20
0.0
 30
1.0
  0
INSERT
  5
452
  8
0
  2
BLK98
 10
0.0
 20
0.0
 30
1.0
  0
INSERT
  5
45A
  8
0
  2
BLK99
 10
0.0
 20
0.0
 30
1.0
  0
TEXT
  5
45F
  8
0
 10
360.7000122070312
 20
200.6999969482422
 30
0.0
 40
2.449996948242188
  1
S1
 41
0.9
  7
CADDY_VECTORFONT1P
  0
TEXT
  5
460
  8
0
 10
360.7000122070312
 20
195.6999969482422
 30
0.0
 40
2.449996948242188
  1
S2
 41
0.9
  7
CADDY_VECTORFONT1P
  0
TEXT
  5
461
  8
0
 10
360.7000122070312
 20
190.6999969482422
 30
0.0
 40
2.449996948242188
  1
01/5
 41
0.9
  7
CADDY_VECTORFONT1P
  0
TEXT
  5
462
  8
0
 10
360.7000122070312
 20
185.6999969482422
 30
0.0
 40
2.449996948242188
  1
02/6
 41
0.9
  7
CADDY_VECTORFONT1P
  0
TEXT
  5
463
  8
0
 10
360.7000122070312
 20
180.6999969482422
 30
0.0
 40
2.449996948242188
  1
03/7
 41
0.9
  7
CADDY_VECTORFONT1P
  0
TEXT
  5
464
  8
0
 10
360.7000122070312
 20
175.6999969482422
 30
0.0
 40
2.449996948242188
  1
04/8
 41
0.9
  7
CADDY_VECTORFONT1P
  0
INSERT
  5
468
  8
0
  2
BLK100
 10
0.0
 20
0.0
 30
1.0
  0
POLYLINE
  5
46D
  8
0
  6
CADDY_SOLID
 66
     1
 10
0.0
 20
0.0
 30
0.0
 70
     1
  0
VERTEX
  5
7C2
  8
0
  6
CADDY_SOLID
 10
345.0
 20
160.0
 30
0.0
  0
VERTEX
  5
7C3
  8
0
  6
CADDY_SOLID
 10
355.0
 20
150.0
 30
0.0
  0
VERTEX
  5
7C4
  8
0
  6
CADDY_SOLID
 10
355.0
 20
160.0
 30
0.0
  0
VERTEX
  5
7C5
  8
0
  6
CADDY_SOLID
 10
345.0
 20
150.0
 30
0.0
  0
SEQEND
  5
883
  8
0
  6
CADDY_SOLID
  0
INSERT
  5
46E
  8
0
  2
*U174
 10
0.0
 20
0.0
 30
0.0
  0
POLYLINE
  5
46F
  8
0
  6
CADDY_SOLID
 66
     1
 10
0.0
 20
0.0
 30
0.0
 70
     1
  0
VERTEX
  5
7C9
  8
0
  6
CADDY_SOLID
 10
355.0
 20
160.0
 30
0.0
  0
VERTEX
  5
7CA
  8
0
  6
CADDY_SOLID
 10
345.0
 20
160.0
 30
0.0
  0
VERTEX
  5
7CB
  8
0
  6
CADDY_SOLID
 10
350.0
 20
155.0
 30
0.0
  0
VERTEX
  5
7CC
  8
0
  6
CADDY_SOLID
 10
355.0
 20
150.0
 30
0.0
  0
VERTEX
  5
7CD
  8
0
  6
CADDY_SOLID
 10
345.0
 20
150.0
 30
0.0
  0
SEQEND
  5
884
  8
0
  6
CADDY_SOLID
  0
INSERT
  5
470
  8
0
  2
*U175
 10
0.0
 20
0.0
 30
0.0
  0
INSERT
  5
474
  8
0
  2
BLK101
 10
0.0
 20
0.0
 30
1.0
  0
POLYLINE
  5
479
  8
0
  6
CADDY_SOLID
 66
     1
 10
0.0
 20
0.0
 30
0.0
 70
     1
  0
VERTEX
  5
7D3
  8
0
  6
CADDY_SOLID
 10
345.0
 20
155.0
 30
0.0
  0
VERTEX
  5
7D4
  8
0
  6
CADDY_SOLID
 10
355.0
 20
145.0
 30
0.0
  0
VERTEX
  5
7D5
  8
0
  6
CADDY_SOLID
 10
355.0
 20
155.0
 30
0.0
  0
VERTEX
  5
7D6
  8
0
  6
CADDY_SOLID
 10
345.0
 20
145.0
 30
0.0
  0
SEQEND
  5
885
  8
0
  6
CADDY_SOLID
  0
INSERT
  5
47A
  8
0
  2
*U176
 10
0.0
 20
0.0
 30
0.0
  0
POLYLINE
  5
47B
  8
0
  6
CADDY_SOLID
 66
     1
 10
0.0
 20
0.0
 30
0.0
 70
     1
  0
VERTEX
  5
7DA
  8
0
  6
CADDY_SOLID
 10
355.0
 20
155.0
 30
0.0
  0
VERTEX
  5
7DB
  8
0
  6
CADDY_SOLID
 10
345.0
 20
155.0
 30
0.0
  0
VERTEX
  5
7DC
  8
0
  6
CADDY_SOLID
 10
350.0
 20
150.0
 30
0.0
  0
VERTEX
  5
7DD
  8
0
  6
CADDY_SOLID
 10
355.0
 20
145.0
 30
0.0
  0
VERTEX
  5
7DE
  8
0
  6
CADDY_SOLID
 10
345.0
 20
145.0
 30
0.0
  0
SEQEND
  5
886
  8
0
  6
CADDY_SOLID
  0
INSERT
  5
47C
  8
0
  2
*U177
 10
0.0
 20
0.0
 30
0.0
  0
INSERT
  5
480
  8
0
  2
BLK102
 10
0.0
 20
0.0
 30
1.0
  0
POLYLINE
  5
485
  8
0
  6
CADDY_SOLID
 66
     1
 10
0.0
 20
0.0
 30
0.0
 70
     1
  0
VERTEX
  5
7E4
  8
0
  6
CADDY_SOLID
 10
345.0
 20
140.0
 30
0.0
  0
VERTEX
  5
7E5
  8
0
  6
CADDY_SOLID
 10
355.0
 20
130.0
 30
0.0
  0
VERTEX
  5
7E6
  8
0
  6
CADDY_SOLID
 10
355.0
 20
140.0
 30
0.0
  0
VERTEX
  5
7E7
  8
0
  6
CADDY_SOLID
 10
345.0
 20
130.0
 30
0.0
  0
SEQEND
  5
887
  8
0
  6
CADDY_SOLID
  0
INSERT
  5
486
  8
0
  2
*U178
 10
0.0
 20
0.0
 30
0.0
  0
POLYLINE
  5
487
  8
0
  6
CADDY_SOLID
 66
     1
 10
0.0
 20
0.0
 30
0.0
 70
     1
  0
VERTEX
  5
7EB
  8
0
  6
CADDY_SOLID
 10
355.0
 20
140.0
 30
0.0
  0
VERTEX
  5
7EC
  8
0
  6
CADDY_SOLID
 10
345.0
 20
140.0
 30
0.0
  0
VERTEX
  5
7ED
  8
0
  6
CADDY_SOLID
 10
350.0
 20
135.0
 30
0.0
  0
VERTEX
  5
7EE
  8
0
  6
CADDY_SOLID
 10
355.0
 20
130.0
 30
0.0
  0
VERTEX
  5
7EF
  8
0
  6
CADDY_SOLID
 10
345.0
 20
130.0
 30
0.0
  0
SEQEND
  5
888
  8
0
  6
CADDY_SOLID
  0
INSERT
  5
488
  8
0
  2
*U179
 10
0.0
 20
0.0
 30
0.0
  0
INSERT
  5
48C
  8
0
  2
BLK103
 10
0.0
 20
0.0
 30
1.0
  0
POLYLINE
  5
491
  8
0
  6
CADDY_SOLID
 66
     1
 10
0.0
 20
0.0
 30
0.0
 70
     1
  0
VERTEX
  5
7F5
  8
0
  6
CADDY_SOLID
 10
345.0
 20
135.0
 30
0.0
  0
VERTEX
  5
7F6
  8
0
  6
CADDY_SOLID
 10
355.0
 20
125.0
 30
0.0
  0
VERTEX
  5
7F7
  8
0
  6
CADDY_SOLID
 10
355.0
 20
135.0
 30
0.0
  0
VERTEX
  5
7F8
  8
0
  6
CADDY_SOLID
 10
345.0
 20
125.0
 30
0.0
  0
SEQEND
  5
889
  8
0
  6
CADDY_SOLID
  0
INSERT
  5
492
  8
0
  2
*U180
 10
0.0
 20
0.0
 30
0.0
  0
POLYLINE
  5
493
  8
0
  6
CADDY_SOLID
 66
     1
 10
0.0
 20
0.0
 30
0.0
 70
     1
  0
VERTEX
  5
7FC
  8
0
  6
CADDY_SOLID
 10
355.0
 20
135.0
 30
0.0
  0
VERTEX
  5
7FD
  8
0
  6
CADDY_SOLID
 10
345.0
 20
135.0
 30
0.0
  0
VERTEX
  5
7FE
  8
0
  6
CADDY_SOLID
 10
350.0
 20
130.0
 30
0.0
  0
VERTEX
  5
7FF
  8
0
  6
CADDY_SOLID
 10
355.0
 20
125.0
 30
0.0
  0
VERTEX
  5
800
  8
0
  6
CADDY_SOLID
 10
345.0
 20
125.0
 30
0.0
  0
SEQEND
  5
88A
  8
0
  6
CADDY_SOLID
  0
INSERT
  5
494
  8
0
  2
*U181
 10
0.0
 20
0.0
 30
0.0
  0
INSERT
  5
498
  8
0
  2
BLK104
 10
0.0
 20
0.0
 30
1.0
  0
POLYLINE
  5
49D
  8
0
  6
CADDY_SOLID
 66
     1
 10
0.0
 20
0.0
 30
0.0
 70
     1
  0
VERTEX
  5
806
  8
0
  6
CADDY_SOLID
 10
345.0
 20
120.0
 30
0.0
  0
VERTEX
  5
807
  8
0
  6
CADDY_SOLID
 10
355.0
 20
110.0
 30
0.0
  0
VERTEX
  5
808
  8
0
  6
CADDY_SOLID
 10
355.0
 20
120.0
 30
0.0
  0
VERTEX
  5
809
  8
0
  6
CADDY_SOLID
 10
345.0
 20
110.0
 30
0.0
  0
SEQEND
  5
88B
  8
0
  6
CADDY_SOLID
  0
INSERT
  5
49E
  8
0
  2
*U182
 10
0.0
 20
0.0
 30
0.0
  0
POLYLINE
  5
49F
  8
0
  6
CADDY_SOLID
 66
     1
 10
0.0
 20
0.0
 30
0.0
 70
     1
  0
VERTEX
  5
80D
  8
0
  6
CADDY_SOLID
 10
355.0
 20
120.0
 30
0.0
  0
VERTEX
  5
80E
  8
0
  6
CADDY_SOLID
 10
345.0
 20
120.0
 30
0.0
  0
VERTEX
  5
80F
  8
0
  6
CADDY_SOLID
 10
350.0
 20
115.0
 30
0.0
  0
VERTEX
  5
810
  8
0
  6
CADDY_SOLID
 10
355.0
 20
110.0
 30
0.0
  0
VERTEX
  5
811
  8
0
  6
CADDY_SOLID
 10
345.0
 20
110.0
 30
0.0
  0
SEQEND
  5
88C
  8
0
  6
CADDY_SOLID
  0
INSERT
  5
4A0
  8
0
  2
*U183
 10
0.0
 20
0.0
 30
0.0
  0
INSERT
  5
4A4
  8
0
  2
BLK105
 10
0.0
 20
0.0
 30
1.0
  0
POLYLINE
  5
4A9
  8
0
  6
CADDY_SOLID
 66
     1
 10
0.0
 20
0.0
 30
0.0
 70
     1
  0
VERTEX
  5
817
  8
0
  6
CADDY_SOLID
 10
345.0
 20
115.0
 30
0.0
  0
VERTEX
  5
818
  8
0
  6
CADDY_SOLID
 10
355.0
 20
105.0
 30
0.0
  0
VERTEX
  5
819
  8
0
  6
CADDY_SOLID
 10
355.0
 20
115.0
 30
0.0
  0
VERTEX
  5
81A
  8
0
  6
CADDY_SOLID
 10
345.0
 20
105.0
 30
0.0
  0
SEQEND
  5
88D
  8
0
  6
CADDY_SOLID
  0
INSERT
  5
4AA
  8
0
  2
*U184
 10
0.0
 20
0.0
 30
0.0
  0
POLYLINE
  5
4AB
  8
0
  6
CADDY_SOLID
 66
     1
 10
0.0
 20
0.0
 30
0.0
 70
     1
  0
VERTEX
  5
81E
  8
0
  6
CADDY_SOLID
 10
355.0
 20
115.0
 30
0.0
  0
VERTEX
  5
81F
  8
0
  6
CADDY_SOLID
 10
345.0
 20
115.0
 30
0.0
  0
VERTEX
  5
820
  8
0
  6
CADDY_SOLID
 10
350.0
 20
110.0
 30
0.0
  0
VERTEX
  5
821
  8
0
  6
CADDY_SOLID
 10
355.0
 20
105.0
 30
0.0
  0
VERTEX
  5
822
  8
0
  6
CADDY_SOLID
 10
345.0
 20
105.0
 30
0.0
  0
SEQEND
  5
88E
  8
0
  6
CADDY_SOLID
  0
INSERT
  5
4AC
  8
0
  2
*U185
 10
0.0
 20
0.0
 30
0.0
  0
INSERT
  5
4B0
  8
0
  2
BLK106
 10
0.0
 20
0.0
 30
1.0
  0
POLYLINE
  5
4B5
  8
0
  6
CADDY_SOLID
 66
     1
 10
0.0
 20
0.0
 30
0.0
 70
     1
  0
VERTEX
  5
828
  8
0
  6
CADDY_SOLID
 10
345.0
 20
100.0
 30
0.0
  0
VERTEX
  5
829
  8
0
  6
CADDY_SOLID
 10
355.0
 20
90.0
 30
0.0
  0
VERTEX
  5
82A
  8
0
  6
CADDY_SOLID
 10
355.0
 20
100.0
 30
0.0
  0
VERTEX
  5
82B
  8
0
  6
CADDY_SOLID
 10
345.0
 20
90.0
 30
0.0
  0
SEQEND
  5
88F
  8
0
  6
CADDY_SOLID
  0
INSERT
  5
4B6
  8
0
  2
*U186
 10
0.0
 20
0.0
 30
0.0
  0
POLYLINE
  5
4B7
  8
0
  6
CADDY_SOLID
 66
     1
 10
0.0
 20
0.0
 30
0.0
 70
     1
  0
VERTEX
  5
82F
  8
0
  6
CADDY_SOLID
 10
355.0
 20
100.0
 30
0.0
  0
VERTEX
  5
830
  8
0
  6
CADDY_SOLID
 10
345.0
 20
100.0
 30
0.0
  0
VERTEX
  5
831
  8
0
  6
CADDY_SOLID
 10
350.0
 20
95.0
 30
0.0
  0
VERTEX
  5
832
  8
0
  6
CADDY_SOLID
 10
355.0
 20
90.0
 30
0.0
  0
VERTEX
  5
833
  8
0
  6
CADDY_SOLID
 10
345.0
 20
90.0
 30
0.0
  0
SEQEND
  5
890
  8
0
  6
CADDY_SOLID
  0
INSERT
  5
4B8
  8
0
  2
*U187
 10
0.0
 20
0.0
 30
0.0
  0
INSERT
  5
4BC
  8
0
  2
BLK107
 10
0.0
 20
0.0
 30
1.0
  0
POLYLINE
  5
4C1
  8
0
  6
CADDY_SOLID
 66
     1
 10
0.0
 20
0.0
 30
0.0
 70
     1
  0
VERTEX
  5
839
  8
0
  6
CADDY_SOLID
 10
345.0
 20
95.0
 30
0.0
  0
VERTEX
  5
83A
  8
0
  6
CADDY_SOLID
 10
355.0
 20
85.0
 30
0.0
  0
VERTEX
  5
83B
  8
0
  6
CADDY_SOLID
 10
355.0
 20
95.0
 30
0.0
  0
VERTEX
  5
83C
  8
0
  6
CADDY_SOLID
 10
345.0
 20
85.0
 30
0.0
  0
SEQEND
  5
891
  8
0
  6
CADDY_SOLID
  0
INSERT
  5
4C2
  8
0
  2
*U188
 10
0.0
 20
0.0
 30
0.0
  0
POLYLINE
  5
4C3
  8
0
  6
CADDY_SOLID
 66
     1
 10
0.0
 20
0.0
 30
0.0
 70
     1
  0
VERTEX
  5
840
  8
0
  6
CADDY_SOLID
 10
355.0
 20
95.0
 30
0.0
  0
VERTEX
  5
841
  8
0
  6
CADDY_SOLID
 10
345.0
 20
95.0
 30
0.0
  0
VERTEX
  5
842
  8
0
  6
CADDY_SOLID
 10
350.0
 20
90.0
 30
0.0
  0
VERTEX
  5
843
  8
0
  6
CADDY_SOLID
 10
355.0
 20
85.0
 30
0.0
  0
VERTEX
  5
844
  8
0
  6
CADDY_SOLID
 10
345.0
 20
85.0
 30
0.0
  0
SEQEND
  5
892
  8
0
  6
CADDY_SOLID
  0
INSERT
  5
4C4
  8
0
  2
*U189
 10
0.0
 20
0.0
 30
0.0
  0
TEXT
  5
4C5
  8
0
 10
335.7000122070312
 20
150.6999969482422
 30
0.0
 40
2.449996948242188
  1
J1
 41
0.9
  7
CADDY_VECTORFONT1P
  0
TEXT
  5
4C6
  8
0
 10
335.7000122070312
 20
130.6999969482422
 30
0.0
 40
2.449996948242188
  1
J2
 41
0.9
  7
CADDY_VECTORFONT1P
  0
TEXT
  5
4C7
  8
0
 10
335.7000122070312
 20
110.6999969482422
 30
0.0
 40
2.450004577636719
  1
J3
 41
0.9
  7
CADDY_VECTORFONT1P
  0
TEXT
  5
4C8
  8
0
 10
335.7000122070312
 20
90.69999694824219
 30
0.0
 40
2.450004577636719
  1
J4
 41
0.9
  7
CADDY_VECTORFONT1P
  0
CIRCLE
  5
4C9
  8
0
  6
CADDY_SOLID
 10
342.5
 20
165.0
 30
0.0
 40
2.5
  0
LINE
  5
4CA
  8
0
  6
CADDY_SOLID
 10
335.0
 20
162.5
 30
0.0
 11
335.0
 21
167.5
 31
0.0
  0
LINE
  5
4CB
  8
0
  6
CADDY_SOLID
 10
335.0
 20
167.5
 30
0.0
 11
333.75
 21
165.0
 31
0.0
  0
LINE
  5
4CC
  8
0
  6
CADDY_SOLID
 10
333.75
 20
165.0
 30
0.0
 11
336.25
 21
165.0
 31
0.0
  0
LINE
  5
4CD
  8
0
  6
CADDY_SOLID
 10
336.25
 20
165.0
 30
0.0
 11
335.0
 21
167.5
 31
0.0
  0
POLYLINE
  5
4CE
  8
0
  6
CADDY_SOLID
 66
     1
 10
0.0
 20
0.0
 30
0.0
 70
     1
  0
VERTEX
  5
84A
  8
0
  6
CADDY_SOLID
 10
335.0
 20
167.5
 30
0.0
  0
VERTEX
  5
84B
  8
0
  6
CADDY_SOLID
 10
336.25
 20
165.0
 30
0.0
  0
VERTEX
  5
84C
  8
0
  6
CADDY_SOLID
 10
333.75
 20
165.0
 30
0.0
  0
SEQEND
  5
893
  8
0
  6
CADDY_SOLID
  0
INSERT
  5
4CF
  8
0
  2
*U190
 10
0.0
 20
0.0
 30
0.0
  0
LINE
  5
4D0
  8
0
  6
CADDY_SOLID
 10
337.5
 20
167.5
 30
0.0
 11
337.5
 21
162.5
 31
0.0
  0
LINE
  5
4D1
  8
0
  6
CADDY_SOLID
 10
337.5
 20
162.5
 30
0.0
 11
338.75
 21
165.0
 31
0.0
  0
LINE
  5
4D2
  8
0
  6
CADDY_SOLID
 10
338.75
 20
165.0
 30
0.0
 11
336.25
 21
165.0
 31
0.0
  0
LINE
  5
4D3
  8
0
  6
CADDY_SOLID
 10
336.25
 20
165.0
 30
0.0
 11
337.5
 21
162.5
 31
0.0
  0
POLYLINE
  5
4D4
  8
0
  6
CADDY_SOLID
 66
     1
 10
0.0
 20
0.0
 30
0.0
 70
     1
  0
VERTEX
  5
850
  8
0
  6
CADDY_SOLID
 10
337.5
 20
162.5
 30
0.0
  0
VERTEX
  5
851
  8
0
  6
CADDY_SOLID
 10
336.25
 20
165.0
 30
0.0
  0
VERTEX
  5
852
  8
0
  6
CADDY_SOLID
 10
338.75
 20
165.0
 30
0.0
  0
SEQEND
  5
894
  8
0
  6
CADDY_SOLID
  0
INSERT
  5
4D5
  8
0
  2
*U191
 10
0.0
 20
0.0
 30
0.0
  0
POLYLINE
  5
4D6
  8
0
  6
CADDY_SOLID
 66
     1
 10
0.0
 20
0.0
 30
0.0
 70
     1
  0
VERTEX
  5
856
  8
0
  6
CADDY_SOLID
 10
345.0
 20
165.0
 30
0.0
  0
VERTEX
  5
857
  8
0
  6
CADDY_SOLID
 10
342.5
 20
167.5
 30
0.0
  0
VERTEX
  5
858
  8
0
  6
CADDY_SOLID
 10
340.0
 20
165.0
 30
0.0
  0
VERTEX
  5
859
  8
0
  6
CADDY_SOLID
 10
342.5
 20
162.5
 30
0.0
  0
SEQEND
  5
895
  8
0
  6
CADDY_SOLID
  0
INSERT
  5
4D7
  8
0
  2
*U192
 10
0.0
 20
0.0
 30
0.0
  0
LINE
  5
4D8
  8
0
  6
CADDY_SOLID
 10
330.0
 20
170.0
 30
0.0
 11
370.0
 21
170.0
 31
0.0
  0
ATTDEF
  5
4DB
  8
0
 10
334.993498727417
 20
230.6999969482422
 30
0.0
 40
2.449996948242188
  1
D1808
 41
0.9
  7
CADDY_VECTORFONT1P
 72
     2
 11
351.7999877929688
 21
230.6999969482422
 31
0.0
  3
Produkt (-)
  2
$TAG160010
 70
     0
  0
ATTDEF
  5
4DD
  8
0
 10
309.5018148574829
 20
147.1999969482422
 30
0.0
 40
2.449996948242188
  1

 41
0.9
  7
CADDY_VECTORFONT1P
 72
     2
 11
326.8000183105469
 21
147.1999969482422
 31
0.0
  3
Beskrivelse 00
  2
$TAG160030
 70
     0
  0
ATTDEF
  5
4DF
  8
0
 10
309.2570601623535
 20
143.6999969482422
 30
0.0
 40
2.449996948242188
  1

 41
0.9
  7
CADDY_VECTORFONT1P
 72
     2
 11
326.8000183105469
 21
143.6999969482422
 31
0.0
  3
Type
  2
$TAG160040
 70
     1
  0
ATTDEF
  5
4E1
  8
0
 10
309.2570296447754
 20
157.6999969482422
 30
0.0
 40
2.449996948242188
  1
=
 41
0.9
  7
CADDY_VECTORFONT1P
 72
     2
 11
326.7999877929688
 21
157.6999969482422
 31
0.0
  3
Funktion (=)
  2
$TAG140020
 70
     1
  0
ATTDEF
  5
4E3
  8
0
 10
309.2570601623535
 20
154.1999969482422
 30
0.0
 40
2.449996948242188
  1
+
 41
0.9
  7
CADDY_VECTORFONT1P
 72
     2
 11
326.8000183105469
 21
154.1999969482422
 31
0.0
  3
Placering (+)
  2
$TAG140050
 70
     1
  0
ENDBLK
  8
0
  0
BLOCK
  8
0
  2
BLK91
 70
     0
 10
0.0
 20
0.0
 30
0.0
  0
LINE
  5
419
  8
0
  6
CADDY_SOLID
 10
330.0
 20
75.0
 30
0.0
 11
370.0
 21
75.0
 31
0.0
  0
LINE
  5
41A
  8
0
  6
CADDY_SOLID
 10
370.0
 20
75.0
 30
0.0
 11
370.0
 21
225.0
 31
0.0
  0
LINE
  5
41B
  8
0
  6
CADDY_SOLID
 10
370.0
 20
225.0
 30
0.0
 11
330.0
 21
225.0
 31
0.0
  0
LINE
  5
41C
  8
0
  6
CADDY_SOLID
 10
330.0
 20
225.0
 30
0.0
 11
330.0
 21
75.0
 31
0.0
  0
ENDBLK
  8
0
  0
BLOCK
  8
0
  2
BLK92
 70
     0
 10
0.0
 20
0.0
 30
0.0
  0
LINE
  5
421
  8
0
  6
CADDY_SOLID
 10
355.0
 20
210.0
 30
0.0
 11
360.0
 21
210.0
 31
0.0
  0
LINE
  5
422
  8
0
  6
CADDY_SOLID
 10
360.0
 20
210.0
 30
0.0
 11
360.0
 21
215.0
 31
0.0
  0
LINE
  5
423
  8
0
  6
CADDY_SOLID
 10
360.0
 20
215.0
 30
0.0
 11
355.0
 21
215.0
 31
0.0
  0
LINE
  5
424
  8
0
  6
CADDY_SOLID
 10
355.0
 20
215.0
 30
0.0
 11
355.0
 21
210.0
 31
0.0
  0
ENDBLK
  8
0
  0
BLOCK
  8
0
  2
BLK93
 70
     0
 10
0.0
 20
0.0
 30
0.0
  0
LINE
  5
42B
  8
0
  6
CADDY_SOLID
 10
355.0
 20
205.0
 30
0.0
 11
360.0
 21
205.0
 31
0.0
  0
LINE
  5
42C
  8
0
  6
CADDY_SOLID
 10
360.0
 20
205.0
 30
0.0
 11
360.0
 21
210.0
 31
0.0
  0
LINE
  5
42D
  8
0
  6
CADDY_SOLID
 10
360.0
 20
210.0
 30
0.0
 11
355.0
 21
210.0
 31
0.0
  0
LINE
  5
42E
  8
0
  6
CADDY_SOLID
 10
355.0
 20
210.0
 30
0.0
 11
355.0
 21
205.0
 31
0.0
  0
ENDBLK
  8
0
  0
BLOCK
  8
0
  2
BLK94
 70
     0
 10
0.0
 20
0.0
 30
0.0
  0
LINE
  5
433
  8
0
  6
CADDY_SOLID
 10
355.0
 20
200.0
 30
0.0
 11
360.0
 21
200.0
 31
0.0
  0
LINE
  5
434
  8
0
  6
CADDY_SOLID
 10
360.0
 20
200.0
 30
0.0
 11
360.0
 21
205.0
 31
0.0
  0
LINE
  5
435
  8
0
  6
CADDY_SOLID
 10
360.0
 20
205.0
 30
0.0
 11
355.0
 21
205.0
 31
0.0
  0
LINE
  5
436
  8
0
  6
CADDY_SOLID
 10
355.0
 20
205.0
 30
0.0
 11
355.0
 21
200.0
 31
0.0
  0
ENDBLK
  8
0
  0
BLOCK
  8
0
  2
BLK95
 70
     0
 10
0.0
 20
0.0
 30
0.0
  0
LINE
  5
43B
  8
0
  6
CADDY_SOLID
 10
355.0
 20
195.0
 30
0.0
 11
360.0
 21
195.0
 31
0.0
  0
LINE
  5
43C
  8
0
  6
CADDY_SOLID
 10
360.0
 20
195.0
 30
0.0
 11
360.0
 21
200.0
 31
0.0
  0
LINE
  5
43D
  8
0
  6
CADDY_SOLID
 10
360.0
 20
200.0
 30
0.0
 11
355.0
 21
200.0
 31
0.0
  0
LINE
  5
43E
  8
0
  6
CADDY_SOLID
 10
355.0
 20
200.0
 30
0.0
 11
355.0
 21
195.0
 31
0.0
  0
ENDBLK
  8
0
  0
BLOCK
  8
0
  2
BLK96
 70
     0
 10
0.0
 20
0.0
 30
0.0
  0
LINE
  5
443
  8
0
  6
CADDY_SOLID
 10
355.0
 20
190.0
 30
0.0
 11
360.0
 21
190.0
 31
0.0
  0
LINE
  5
444
  8
0
  6
CADDY_SOLID
 10
360.0
 20
190.0
 30
0.0
 11
360.0
 21
195.0
 31
0.0
  0
LINE
  5
445
  8
0
  6
CADDY_SOLID
 10
360.0
 20
195.0
 30
0.0
 11
355.0
 21
195.0
 31
0.0
  0
LINE
  5
446
  8
0
  6
CADDY_SOLID
 10
355.0
 20
195.0
 30
0.0
 11
355.0
 21
190.0
 31
0.0
  0
ENDBLK
  8
0
  0
BLOCK
  8
0
  2
BLK97
 70
     0
 10
0.0
 20
0.0
 30
0.0
  0
LINE
  5
44B
  8
0
  6
CADDY_SOLID
 10
355.0
 20
185.0
 30
0.0
 11
360.0
 21
185.0
 31
0.0
  0
LINE
  5
44C
  8
0
  6
CADDY_SOLID
 10
360.0
 20
185.0
 30
0.0
 11
360.0
 21
190.0
 31
0.0
  0
LINE
  5
44D
  8
0
  6
CADDY_SOLID
 10
360.0
 20
190.0
 30
0.0
 11
355.0
 21
190.0
 31
0.0
  0
LINE
  5
44E
  8
0
  6
CADDY_SOLID
 10
355.0
 20
190.0
 30
0.0
 11
355.0
 21
185.0
 31
0.0
  0
ENDBLK
  8
0
  0
BLOCK
  8
0
  2
BLK98
 70
     0
 10
0.0
 20
0.0
 30
0.0
  0
LINE
  5
453
  8
0
  6
CADDY_SOLID
 10
355.0
 20
180.0
 30
0.0
 11
360.0
 21
180.0
 31
0.0
  0
LINE
  5
454
  8
0
  6
CADDY_SOLID
 10
360.0
 20
180.0
 30
0.0
 11
360.0
 21
185.0
 31
0.0
  0
LINE
  5
455
  8
0
  6
CADDY_SOLID
 10
360.0
 20
185.0
 30
0.0
 11
355.0
 21
185.0
 31
0.0
  0
LINE
  5
456
  8
0
  6
CADDY_SOLID
 10
355.0
 20
185.0
 30
0.0
 11
355.0
 21
180.0
 31
0.0
  0
ENDBLK
  8
0
  0
BLOCK
  8
0
  2
BLK99
 70
     0
 10
0.0
 20
0.0
 30
0.0
  0
LINE
  5
45B
  8
0
  6
CADDY_SOLID
 10
355.0
 20
175.0
 30
0.0
 11
360.0
 21
175.0
 31
0.0
  0
LINE
  5
45C
  8
0
  6
CADDY_SOLID
 10
360.0
 20
175.0
 30
0.0
 11
360.0
 21
180.0
 31
0.0
  0
LINE
  5
45D
  8
0
  6
CADDY_SOLID
 10
360.0
 20
180.0
 30
0.0
 11
355.0
 21
180.0
 31
0.0
  0
LINE
  5
45E
  8
0
  6
CADDY_SOLID
 10
355.0
 20
180.0
 30
0.0
 11
355.0
 21
175.0
 31
0.0
  0
ENDBLK
  8
0
  0
BLOCK
  8
0
  2
BLK100
 70
     0
 10
0.0
 20
0.0
 30
0.0
  0
LINE
  5
469
  8
0
  6
CADDY_SOLID
 10
345.0
 20
160.0
 30
0.0
 11
355.0
 21
160.0
 31
0.0
  0
LINE
  5
46A
  8
0
  6
CADDY_SOLID
 10
355.0
 20
160.0
 30
0.0
 11
355.0
 21
150.0
 31
0.0
  0
LINE
  5
46B
  8
0
  6
CADDY_SOLID
 10
355.0
 20
150.0
 30
0.0
 11
345.0
 21
150.0
 31
0.0
  0
LINE
  5
46C
  8
0
  6
CADDY_SOLID
 10
345.0
 20
150.0
 30
0.0
 11
345.0
 21
160.0
 31
0.0
  0
ENDBLK
  8
0
  0
BLOCK
  8
0
  2
BLK101
 70
     0
 10
0.0
 20
0.0
 30
0.0
  0
LINE
  5
475
  8
0
  6
CADDY_SOLID
 10
345.0
 20
155.0
 30
0.0
 11
355.0
 21
155.0
 31
0.0
  0
LINE
  5
476
  8
0
  6
CADDY_SOLID
 10
355.0
 20
155.0
 30
0.0
 11
355.0
 21
145.0
 31
0.0
  0
LINE
  5
477
  8
0
  6
CADDY_SOLID
 10
355.0
 20
145.0
 30
0.0
 11
345.0
 21
145.0
 31
0.0
  0
LINE
  5
478
  8
0
  6
CADDY_SOLID
 10
345.0
 20
145.0
 30
0.0
 11
345.0
 21
155.0
 31
0.0
  0
ENDBLK
  8
0
  0
BLOCK
  8
0
  2
BLK102
 70
     0
 10
0.0
 20
0.0
 30
0.0
  0
LINE
  5
481
  8
0
  6
CADDY_SOLID
 10
345.0
 20
140.0
 30
0.0
 11
355.0
 21
140.0
 31
0.0
  0
LINE
  5
482
  8
0
  6
CADDY_SOLID
 10
355.0
 20
140.0
 30
0.0
 11
355.0
 21
130.0
 31
0.0
  0
LINE
  5
483
  8
0
  6
CADDY_SOLID
 10
355.0
 20
130.0
 30
0.0
 11
345.0
 21
130.0
 31
0.0
  0
LINE
  5
484
  8
0
  6
CADDY_SOLID
 10
345.0
 20
130.0
 30
0.0
 11
345.0
 21
140.0
 31
0.0
  0
ENDBLK
  8
0
  0
BLOCK
  8
0
  2
BLK103
 70
     0
 10
0.0
 20
0.0
 30
0.0
  0
LINE
  5
48D
  8
0
  6
CADDY_SOLID
 10
345.0
 20
135.0
 30
0.0
 11
355.0
 21
135.0
 31
0.0
  0
LINE
  5
48E
  8
0
  6
CADDY_SOLID
 10
355.0
 20
135.0
 30
0.0
 11
355.0
 21
125.0
 31
0.0
  0
LINE
  5
48F
  8
0
  6
CADDY_SOLID
 10
355.0
 20
125.0
 30
0.0
 11
345.0
 21
125.0
 31
0.0
  0
LINE
  5
490
  8
0
  6
CADDY_SOLID
 10
345.0
 20
125.0
 30
0.0
 11
345.0
 21
135.0
 31
0.0
  0
ENDBLK
  8
0
  0
BLOCK
  8
0
  2
BLK104
 70
     0
 10
0.0
 20
0.0
 30
0.0
  0
LINE
  5
499
  8
0
  6
CADDY_SOLID
 10
345.0
 20
120.0
 30
0.0
 11
355.0
 21
120.0
 31
0.0
  0
LINE
  5
49A
  8
0
  6
CADDY_SOLID
 10
355.0
 20
120.0
 30
0.0
 11
355.0
 21
110.0
 31
0.0
  0
LINE
  5
49B
  8
0
  6
CADDY_SOLID
 10
355.0
 20
110.0
 30
0.0
 11
345.0
 21
110.0
 31
0.0
  0
LINE
  5
49C
  8
0
  6
CADDY_SOLID
 10
345.0
 20
110.0
 30
0.0
 11
345.0
 21
120.0
 31
0.0
  0
ENDBLK
  8
0
  0
BLOCK
  8
0
  2
BLK105
 70
     0
 10
0.0
 20
0.0
 30
0.0
  0
LINE
  5
4A5
  8
0
  6
CADDY_SOLID
 10
345.0
 20
115.0
 30
0.0
 11
355.0
 21
115.0
 31
0.0
  0
LINE
  5
4A6
  8
0
  6
CADDY_SOLID
 10
355.0
 20
115.0
 30
0.0
 11
355.0
 21
105.0
 31
0.0
  0
LINE
  5
4A7
  8
0
  6
CADDY_SOLID
 10
355.0
 20
105.0
 30
0.0
 11
345.0
 21
105.0
 31
0.0
  0
LINE
  5
4A8
  8
0
  6
CADDY_SOLID
 10
345.0
 20
105.0
 30
0.0
 11
345.0
 21
115.0
 31
0.0
  0
ENDBLK
  8
0
  0
BLOCK
  8
0
  2
BLK106
 70
     0
 10
0.0
 20
0.0
 30
0.0
  0
LINE
  5
4B1
  8
0
  6
CADDY_SOLID
 10
345.0
 20
100.0
 30
0.0
 11
355.0
 21
100.0
 31
0.0
  0
LINE
  5
4B2
  8
0
  6
CADDY_SOLID
 10
355.0
 20
100.0
 30
0.0
 11
355.0
 21
90.0
 31
0.0
  0
LINE
  5
4B3
  8
0
  6
CADDY_SOLID
 10
355.0
 20
90.0
 30
0.0
 11
345.0
 21
90.0
 31
0.0
  0
LINE
  5
4B4
  8
0
  6
CADDY_SOLID
 10
345.0
 20
90.0
 30
0.0
 11
345.0
 21
100.0
 31
0.0
  0
ENDBLK
  8
0
  0
BLOCK
  8
0
  2
BLK107
 70
     0
 10
0.0
 20
0.0
 30
0.0
  0
LINE
  5
4BD
  8
0
  6
CADDY_SOLID
 10
345.0
 20
95.0
 30
0.0
 11
355.0
 21
95.0
 31
0.0
  0
LINE
  5
4BE
  8
0
  6
CADDY_SOLID
 10
355.0
 20
95.0
 30
0.0
 11
355.0
 21
85.0
 31
0.0
  0
LINE
  5
4BF
  8
0
  6
CADDY_SOLID
 10
355.0
 20
85.0
 30
0.0
 11
345.0
 21
85.0
 31
0.0
  0
LINE
  5
4C0
  8
0
  6
CADDY_SOLID
 10
345.0
 20
85.0
 30
0.0
 11
345.0
 21
95.0
 31
0.0
  0
ENDBLK
  8
0
  0
BLOCK
  8
0
  2
BLK108
 70
     2
 10
0.0
 20
0.0
 30
0.0
  0
ATTDEF
  5
4EA
  8
0
 10
272.9767904434204
 20
147.0500030517578
 30
0.0
 40
2.449996948242188
  1

 41
0.9
  7
CADDY_VECTORFONT1P
 72
     2
 11
290.2749938964844
 21
147.0500030517578
 31
0.0
  3
Beskrivelse 00
  2
$TAG160030
 70
     0
  0
TEXT
  5
4EB
  8
0
 10
305.7000122070312
 20
220.6999969482422
 30
0.0
 40
2.449996948242188
  1
DDO3600
 41
0.9
  7
CADDY_VECTORFONT1P
  0
INSERT
  5
4EF
  8
0
  2
BLK109
 10
0.0
 20
0.0
 30
1.0
  0
TEXT
  5
4F4
  8
0
 10
310.7000122070312
 20
210.6999969482422
 30
0.0
 40
2.449996948242188
  1
RDY
 41
0.9
  7
CADDY_VECTORFONT1P
  0
TEXT
  5
4F5
  8
0
 10
310.7000122070312
 20
205.6999969482422
 30
0.0
 40
2.449996948242188
  1
ERR
 41
0.9
  7
CADDY_VECTORFONT1P
  0
INSERT
  5
4F9
  8
0
  2
BLK110
 10
0.0
 20
0.0
 30
1.0
  0
INSERT
  5
501
  8
0
  2
BLK111
 10
0.0
 20
0.0
 30
1.0
  0
INSERT
  5
509
  8
0
  2
BLK112
 10
0.0
 20
0.0
 30
1.0
  0
INSERT
  5
511
  8
0
  2
BLK113
 10
0.0
 20
0.0
 30
1.0
  0
INSERT
  5
519
  8
0
  2
BLK114
 10
0.0
 20
0.0
 30
1.0
  0
INSERT
  5
521
  8
0
  2
BLK115
 10
0.0
 20
0.0
 30
1.0
  0
INSERT
  5
529
  8
0
  2
BLK116
 10
0.0
 20
0.0
 30
1.0
  0
TEXT
  5
52E
  8
0
 10
310.7000122070312
 20
200.6999969482422
 30
0.0
 40
2.449996948242188
  1
IN1
 41
0.9
  7
CADDY_VECTORFONT1P
  0
TEXT
  5
52F
  8
0
 10
310.7000122070312
 20
195.6999969482422
 30
0.0
 40
2.449996948242188
  1
IN2
 41
0.9
  7
CADDY_VECTORFONT1P
  0
TEXT
  5
530
  8
0
 10
310.7000122070312
 20
190.6999969482422
 30
0.0
 40
2.449996948242188
  1
IN3
 41
0.9
  7
CADDY_VECTORFONT1P
  0
TEXT
  5
531
  8
0
 10
310.7000122070312
 20
185.6999969482422
 30
0.0
 40
2.449996948242188
  1
IN4
 41
0.9
  7
CADDY_VECTORFONT1P
  0
TEXT
  5
532
  8
0
 10
310.7000122070312
 20
180.6999969482422
 30
0.0
 40
2.449996948242188
  1
IN5
 41
0.9
  7
CADDY_VECTORFONT1P
  0
TEXT
  5
533
  8
0
 10
310.7000122070312
 20
175.6999969482422
 30
0.0
 40
2.449996948242188
  1
IN6
 41
0.9
  7
CADDY_VECTORFONT1P
  0
INSERT
  5
537
  8
0
  2
BLK117
 10
0.0
 20
0.0
 30
1.0
  0
INSERT
  5
53F
  8
0
  2
BLK118
 10
0.0
 20
0.0
 30
1.0
  0
INSERT
  5
547
  8
0
  2
BLK119
 10
0.0
 20
0.0
 30
1.0
  0
INSERT
  5
54F
  8
0
  2
BLK120
 10
0.0
 20
0.0
 30
1.0
  0
INSERT
  5
557
  8
0
  2
BLK121
 10
0.0
 20
0.0
 30
1.0
  0
INSERT
  5
55F
  8
0
  2
BLK122
 10
0.0
 20
0.0
 30
1.0
  0
INSERT
  5
567
  8
0
  2
BLK123
 10
0.0
 20
0.0
 30
1.0
  0
TEXT
  5
56C
  8
0
 10
300.7000122070312
 20
155.6999969482422
 30
0.0
 40
2.449996948242188
  1
1
 41
0.9
  7
CADDY_VECTORFONT1P
  0
TEXT
  5
56D
  8
0
 10
300.7000122070312
 20
150.6999969482422
 30
0.0
 40
2.449996948242188
  1
2
 41
0.9
  7
CADDY_VECTORFONT1P
  0
TEXT
  5
56E
  8
0
 10
300.7000122070312
 20
145.6999969482422
 30
0.0
 40
2.449996948242188
  1
3
 41
0.9
  7
CADDY_VECTORFONT1P
  0
TEXT
  5
56F
  8
0
 10
300.7000122070312
 20
140.6999969482422
 30
0.0
 40
2.449996948242188
  1
4
 41
0.9
  7
CADDY_VECTORFONT1P
  0
TEXT
  5
570
  8
0
 10
300.7000122070312
 20
135.6999969482422
 30
0.0
 40
2.449996948242188
  1
5
 41
0.9
  7
CADDY_VECTORFONT1P
  0
TEXT
  5
571
  8
0
 10
300.7000122070312
 20
130.6999969482422
 30
0.0
 40
2.449996948242188
  1
6
 41
0.9
  7
CADDY_VECTORFONT1P
  0
TEXT
  5
572
  8
0
 10
306.446646926117
 20
160.6999969482422
 30
0.0
 40
2.449996948242188
  1
8(A)1
 41
0.9
  7
CADDY_VECTORFONT1P
 72
     1
 11
310.0
 21
160.6999969482422
 31
0.0
  0
INSERT
  5
576
  8
0
  2
BLK124
 10
0.0
 20
0.0
 30
1.0
  0
INSERT
  5
57E
  8
0
  2
BLK125
 10
0.0
 20
0.0
 30
1.0
  0
INSERT
  5
586
  8
0
  2
BLK126
 10
0.0
 20
0.0
 30
1.0
  0
INSERT
  5
58E
  8
0
  2
BLK127
 10
0.0
 20
0.0
 30
1.0
  0
INSERT
  5
596
  8
0
  2
BLK128
 10
0.0
 20
0.0
 30
1.0
  0
INSERT
  5
59E
  8
0
  2
BLK129
 10
0.0
 20
0.0
 30
1.0
  0
TEXT
  5
5A3
  8
0
 10
300.7000122070312
 20
115.6999969482422
 30
0.0
 40
2.450004577636719
  1
1
 41
0.9
  7
CADDY_VECTORFONT1P
  0
TEXT
  5
5A4
  8
0
 10
300.7000122070312
 20
110.6999969482422
 30
0.0
 40
2.450004577636719
  1
2
 41
0.9
  7
CADDY_VECTORFONT1P
  0
TEXT
  5
5A5
  8
0
 10
300.7000122070312
 20
105.6999969482422
 30
0.0
 40
2.450004577636719
  1
3
 41
0.9
  7
CADDY_VECTORFONT1P
  0
TEXT
  5
5A6
  8
0
 10
300.7000122070312
 20
100.6999969482422
 30
0.0
 40
2.450004577636719
  1
4
 41
0.9
  7
CADDY_VECTORFONT1P
  0
TEXT
  5
5A7
  8
0
 10
300.7000122070312
 20
95.69999694824219
 30
0.0
 40
2.450004577636719
  1
5
 41
0.9
  7
CADDY_VECTORFONT1P
  0
TEXT
  5
5A8
  8
0
 10
300.7000122070312
 20
90.69999694824219
 30
0.0
 40
2.450004577636719
  1
6
 41
0.9
  7
CADDY_VECTORFONT1P
  0
TEXT
  5
5A9
  8
0
 10
306.5690441070557
 20
120.6999969482422
 30
0.0
 40
2.450004577636719
  1
8(B)1
 41
0.9
  7
CADDY_VECTORFONT1P
 72
     1
 11
310.0000305175781
 21
120.6999969482422
 31
0.0
  0
LINE
  5
5AA
  8
0
  6
CADDY_SOLID
 10
300.0
 20
170.0
 30
0.0
 11
320.0
 21
170.0
 31
0.0
  0
ATTDEF
  5
5AC
  8
0
 10
294.993498727417
 20
230.6999969482422
 30
0.0
 40
2.449996948242188
  1
D1807
 41
0.9
  7
CADDY_VECTORFONT1P
 72
     2
 11
311.7999877929688
 21
230.6999969482422
 31
0.0
  3
Produkt (-)
  2
$TAG160010
 70
     0
  0
ATTDEF
  5
5AE
  8
0
 10
279.9935292449951
 20
147.1999969482422
 30
0.0
 40
2.449996948242188
  1

 41
0.9
  7
CADDY_VECTORFONT1P
 72
     2
 11
296.8000183105469
 21
147.1999969482422
 31
0.0
  3
Signaladresse
  2
$TAG175100
 70
     0
  0
ATTDEF
  5
5B0
  8
0
 10
280.4852436325073
 20
143.6999969482422
 30
0.0
 40
2.449996948242188
  1

 41
0.9
  7
CADDY_VECTORFONT1P
 72
     2
 11
296.8000183105469
 21
143.6999969482422
 31
0.0
  3
Signalbeskrivelse
  2
$TAG175110
 70
     0
  0
ATTDEF
  5
5B2
  8
0
 10
279.9935292449951
 20
140.6999969482422
 30
0.0
 40
2.449996948242188
  1

 41
0.9
  7
CADDY_VECTORFONT1P
 72
     2
 11
296.8000183105469
 21
140.6999969482422
 31
0.0
  3
Signalbemærkning
  2
$TAG175120
 70
     0
  0
ATTDEF
  5
5B4
  8
0
 10
279.5017843399048
 20
137.1999969482422
 30
0.0
 40
2.449996948242188
  1
?
 41
0.9
  7
CADDY_VECTORFONT1P
 72
     2
 11
296.7999877929688
 21
137.1999969482422
 31
0.0
  3
Side/strømvej reference
  2
$TAG160500
 70
     0
  0
ATTDEF
  5
5B6
  8
0
 10
279.2570296447754
 20
157.6999969482422
 30
0.0
 40
2.449996948242188
  1
=
 41
0.9
  7
CADDY_VECTORFONT1P
 72
     2
 11
296.7999877929688
 21
157.6999969482422
 31
0.0
  3
Funktion (=)
  2
$TAG140020
 70
     1
  0
ATTDEF
  5
5B8
  8
0
 10
279.2570601623535
 20
154.1999969482422
 30
0.0
 40
2.449996948242188
  1
+
 41
0.9
  7
CADDY_VECTORFONT1P
 72
     2
 11
296.8000183105469
 21
154.1999969482422
 31
0.0
  3
Placering (+)
  2
$TAG140050
 70
     1
  0
ATTDEF
  5
5BA
  8
0
 10
272.9767904434204
 20
147.0500030517578
 30
0.0
 40
2.449996948242188
  1

 41
0.9
  7
CADDY_VECTORFONT1P
 72
     2
 11
290.2749938964844
 21
147.0500030517578
 31
0.0
  3
Beskrivelse 00
  2
$TAG160030
 70
     0
  0
ATTDEF
  5
5BC
  8
0
 10
269.3920394104004
 20
138.0749969482422
 30
0.0
 40
2.449996948242188
  1

 41
0.9
  7
CADDY_VECTORFONT1P
 72
     2
 11
286.9349975585938
 21
138.0749969482422
 31
0.0
  3
Type
  2
$TAG160040
 70
     1
  0
ENDBLK
  8
0
  0
BLOCK
  8
0
  2
BLK109
 70
     0
 10
0.0
 20
0.0
 30
0.0
  0
LINE
  5
4F0
  8
0
  6
CADDY_SOLID
 10
305.0
 20
210.0
 30
0.0
 11
310.0
 21
210.0
 31
0.0
  0
LINE
  5
4F1
  8
0
  6
CADDY_SOLID
 10
310.0
 20
210.0
 30
0.0
 11
310.0
 21
215.0
 31
0.0
  0
LINE
  5
4F2
  8
0
  6
CADDY_SOLID
 10
310.0
 20
215.0
 30
0.0
 11
305.0
 21
215.0
 31
0.0
  0
LINE
  5
4F3
  8
0
  6
CADDY_SOLID
 10
305.0
 20
215.0
 30
0.0
 11
305.0
 21
210.0
 31
0.0
  0
ENDBLK
  8
0
  0
BLOCK
  8
0
  2
BLK110
 70
     0
 10
0.0
 20
0.0
 30
0.0
  0
LINE
  5
4FA
  8
0
  6
CADDY_SOLID
 10
305.0
 20
205.0
 30
0.0
 11
310.0
 21
205.0
 31
0.0
  0
LINE
  5
4FB
  8
0
  6
CADDY_SOLID
 10
310.0
 20
205.0
 30
0.0
 11
310.0
 21
210.0
 31
0.0
  0
LINE
  5
4FC
  8
0
  6
CADDY_SOLID
 10
310.0
 20
210.0
 30
0.0
 11
305.0
 21
210.0
 31
0.0
  0
LINE
  5
4FD
  8
0
  6
CADDY_SOLID
 10
305.0
 20
210.0
 30
0.0
 11
305.0
 21
205.0
 31
0.0
  0
ENDBLK
  8
0
  0
BLOCK
  8
0
  2
BLK111
 70
     0
 10
0.0
 20
0.0
 30
0.0
  0
LINE
  5
502
  8
0
  6
CADDY_SOLID
 10
305.0
 20
200.0
 30
0.0
 11
310.0
 21
200.0
 31
0.0
  0
LINE
  5
503
  8
0
  6
CADDY_SOLID
 10
310.0
 20
200.0
 30
0.0
 11
310.0
 21
205.0
 31
0.0
  0
LINE
  5
504
  8
0
  6
CADDY_SOLID
 10
310.0
 20
205.0
 30
0.0
 11
305.0
 21
205.0
 31
0.0
  0
LINE
  5
505
  8
0
  6
CADDY_SOLID
 10
305.0
 20
205.0
 30
0.0
 11
305.0
 21
200.0
 31
0.0
  0
ENDBLK
  8
0
  0
BLOCK
  8
0
  2
BLK112
 70
     0
 10
0.0
 20
0.0
 30
0.0
  0
LINE
  5
50A
  8
0
  6
CADDY_SOLID
 10
305.0
 20
195.0
 30
0.0
 11
310.0
 21
195.0
 31
0.0
  0
LINE
  5
50B
  8
0
  6
CADDY_SOLID
 10
310.0
 20
195.0
 30
0.0
 11
310.0
 21
200.0
 31
0.0
  0
LINE
  5
50C
  8
0
  6
CADDY_SOLID
 10
310.0
 20
200.0
 30
0.0
 11
305.0
 21
200.0
 31
0.0
  0
LINE
  5
50D
  8
0
  6
CADDY_SOLID
 10
305.0
 20
200.0
 30
0.0
 11
305.0
 21
195.0
 31
0.0
  0
ENDBLK
  8
0
  0
BLOCK
  8
0
  2
BLK113
 70
     0
 10
0.0
 20
0.0
 30
0.0
  0
LINE
  5
512
  8
0
  6
CADDY_SOLID
 10
305.0
 20
190.0
 30
0.0
 11
310.0
 21
190.0
 31
0.0
  0
LINE
  5
513
  8
0
  6
CADDY_SOLID
 10
310.0
 20
190.0
 30
0.0
 11
310.0
 21
195.0
 31
0.0
  0
LINE
  5
514
  8
0
  6
CADDY_SOLID
 10
310.0
 20
195.0
 30
0.0
 11
305.0
 21
195.0
 31
0.0
  0
LINE
  5
515
  8
0
  6
CADDY_SOLID
 10
305.0
 20
195.0
 30
0.0
 11
305.0
 21
190.0
 31
0.0
  0
ENDBLK
  8
0
  0
BLOCK
  8
0
  2
BLK114
 70
     0
 10
0.0
 20
0.0
 30
0.0
  0
LINE
  5
51A
  8
0
  6
CADDY_SOLID
 10
305.0
 20
185.0
 30
0.0
 11
310.0
 21
185.0
 31
0.0
  0
LINE
  5
51B
  8
0
  6
CADDY_SOLID
 10
310.0
 20
185.0
 30
0.0
 11
310.0
 21
190.0
 31
0.0
  0
LINE
  5
51C
  8
0
  6
CADDY_SOLID
 10
310.0
 20
190.0
 30
0.0
 11
305.0
 21
190.0
 31
0.0
  0
LINE
  5
51D
  8
0
  6
CADDY_SOLID
 10
305.0
 20
190.0
 30
0.0
 11
305.0
 21
185.0
 31
0.0
  0
ENDBLK
  8
0
  0
BLOCK
  8
0
  2
BLK115
 70
     0
 10
0.0
 20
0.0
 30
0.0
  0
LINE
  5
522
  8
0
  6
CADDY_SOLID
 10
305.0
 20
180.0
 30
0.0
 11
310.0
 21
180.0
 31
0.0
  0
LINE
  5
523
  8
0
  6
CADDY_SOLID
 10
310.0
 20
180.0
 30
0.0
 11
310.0
 21
185.0
 31
0.0
  0
LINE
  5
524
  8
0
  6
CADDY_SOLID
 10
310.0
 20
185.0
 30
0.0
 11
305.0
 21
185.0
 31
0.0
  0
LINE
  5
525
  8
0
  6
CADDY_SOLID
 10
305.0
 20
185.0
 30
0.0
 11
305.0
 21
180.0
 31
0.0
  0
ENDBLK
  8
0
  0
BLOCK
  8
0
  2
BLK116
 70
     0
 10
0.0
 20
0.0
 30
0.0
  0
LINE
  5
52A
  8
0
  6
CADDY_SOLID
 10
305.0
 20
175.0
 30
0.0
 11
310.0
 21
175.0
 31
0.0
  0
LINE
  5
52B
  8
0
  6
CADDY_SOLID
 10
310.0
 20
175.0
 30
0.0
 11
310.0
 21
180.0
 31
0.0
  0
LINE
  5
52C
  8
0
  6
CADDY_SOLID
 10
310.0
 20
180.0
 30
0.0
 11
305.0
 21
180.0
 31
0.0
  0
LINE
  5
52D
  8
0
  6
CADDY_SOLID
 10
305.0
 20
180.0
 30
0.0
 11
305.0
 21
175.0
 31
0.0
  0
ENDBLK
  8
0
  0
BLOCK
  8
0
  2
BLK117
 70
     0
 10
0.0
 20
0.0
 30
0.0
  0
LINE
  5
538
  8
0
  6
CADDY_SOLID
 10
300.0
 20
75.0
 30
0.0
 11
320.0
 21
75.0
 31
0.0
  0
LINE
  5
539
  8
0
  6
CADDY_SOLID
 10
320.0
 20
75.0
 30
0.0
 11
320.0
 21
225.0
 31
0.0
  0
LINE
  5
53A
  8
0
  6
CADDY_SOLID
 10
320.0
 20
225.0
 30
0.0
 11
300.0
 21
225.0
 31
0.0
  0
LINE
  5
53B
  8
0
  6
CADDY_SOLID
 10
300.0
 20
225.0
 30
0.0
 11
300.0
 21
75.0
 31
0.0
  0
ENDBLK
  8
0
  0
BLOCK
  8
0
  2
BLK118
 70
     0
 10
0.0
 20
0.0
 30
0.0
  0
LINE
  5
540
  8
0
  6
CADDY_SOLID
 10
305.0
 20
155.0
 30
0.0
 11
315.0
 21
155.0
 31
0.0
  0
LINE
  5
541
  8
0
  6
CADDY_SOLID
 10
315.0
 20
155.0
 30
0.0
 11
315.0
 21
160.0
 31
0.0
  0
LINE
  5
542
  8
0
  6
CADDY_SOLID
 10
315.0
 20
160.0
 30
0.0
 11
305.0
 21
160.0
 31
0.0
  0
LINE
  5
543
  8
0
  6
CADDY_SOLID
 10
305.0
 20
160.0
 30
0.0
 11
305.0
 21
155.0
 31
0.0
  0
ENDBLK
  8
0
  0
BLOCK
  8
0
  2
BLK119
 70
     0
 10
0.0
 20
0.0
 30
0.0
  0
LINE
  5
548
  8
0
  6
CADDY_SOLID
 10
305.0
 20
150.0
 30
0.0
 11
315.0
 21
150.0
 31
0.0
  0
LINE
  5
549
  8
0
  6
CADDY_SOLID
 10
315.0
 20
150.0
 30
0.0
 11
315.0
 21
155.0
 31
0.0
  0
LINE
  5
54A
  8
0
  6
CADDY_SOLID
 10
315.0
 20
155.0
 30
0.0
 11
305.0
 21
155.0
 31
0.0
  0
LINE
  5
54B
  8
0
  6
CADDY_SOLID
 10
305.0
 20
155.0
 30
0.0
 11
305.0
 21
150.0
 31
0.0
  0
ENDBLK
  8
0
  0
BLOCK
  8
0
  2
BLK120
 70
     0
 10
0.0
 20
0.0
 30
0.0
  0
LINE
  5
550
  8
0
  6
CADDY_SOLID
 10
305.0
 20
145.0
 30
0.0
 11
315.0
 21
145.0
 31
0.0
  0
LINE
  5
551
  8
0
  6
CADDY_SOLID
 10
315.0
 20
145.0
 30
0.0
 11
315.0
 21
150.0
 31
0.0
  0
LINE
  5
552
  8
0
  6
CADDY_SOLID
 10
315.0
 20
150.0
 30
0.0
 11
305.0
 21
150.0
 31
0.0
  0
LINE
  5
553
  8
0
  6
CADDY_SOLID
 10
305.0
 20
150.0
 30
0.0
 11
305.0
 21
145.0
 31
0.0
  0
ENDBLK
  8
0
  0
BLOCK
  8
0
  2
BLK121
 70
     0
 10
0.0
 20
0.0
 30
0.0
  0
LINE
  5
558
  8
0
  6
CADDY_SOLID
 10
305.0
 20
140.0
 30
0.0
 11
315.0
 21
140.0
 31
0.0
  0
LINE
  5
559
  8
0
  6
CADDY_SOLID
 10
315.0
 20
140.0
 30
0.0
 11
315.0
 21
145.0
 31
0.0
  0
LINE
  5
55A
  8
0
  6
CADDY_SOLID
 10
315.0
 20
145.0
 30
0.0
 11
305.0
 21
145.0
 31
0.0
  0
LINE
  5
55B
  8
0
  6
CADDY_SOLID
 10
305.0
 20
145.0
 30
0.0
 11
305.0
 21
140.0
 31
0.0
  0
ENDBLK
  8
0
  0
BLOCK
  8
0
  2
BLK122
 70
     0
 10
0.0
 20
0.0
 30
0.0
  0
LINE
  5
560
  8
0
  6
CADDY_SOLID
 10
305.0
 20
135.0
 30
0.0
 11
315.0
 21
135.0
 31
0.0
  0
LINE
  5
561
  8
0
  6
CADDY_SOLID
 10
315.0
 20
135.0
 30
0.0
 11
315.0
 21
140.0
 31
0.0
  0
LINE
  5
562
  8
0
  6
CADDY_SOLID
 10
315.0
 20
140.0
 30
0.0
 11
305.0
 21
140.0
 31
0.0
  0
LINE
  5
563
  8
0
  6
CADDY_SOLID
 10
305.0
 20
140.0
 30
0.0
 11
305.0
 21
135.0
 31
0.0
  0
ENDBLK
  8
0
  0
BLOCK
  8
0
  2
BLK123
 70
     0
 10
0.0
 20
0.0
 30
0.0
  0
LINE
  5
568
  8
0
  6
CADDY_SOLID
 10
305.0
 20
130.0
 30
0.0
 11
315.0
 21
130.0
 31
0.0
  0
LINE
  5
569
  8
0
  6
CADDY_SOLID
 10
315.0
 20
130.0
 30
0.0
 11
315.0
 21
135.0
 31
0.0
  0
LINE
  5
56A
  8
0
  6
CADDY_SOLID
 10
315.0
 20
135.0
 30
0.0
 11
305.0
 21
135.0
 31
0.0
  0
LINE
  5
56B
  8
0
  6
CADDY_SOLID
 10
305.0
 20
135.0
 30
0.0
 11
305.0
 21
130.0
 31
0.0
  0
ENDBLK
  8
0
  0
BLOCK
  8
0
  2
BLK124
 70
     0
 10
0.0
 20
0.0
 30
0.0
  0
LINE
  5
577
  8
0
  6
CADDY_SOLID
 10
305.0
 20
115.0
 30
0.0
 11
315.0
 21
115.0
 31
0.0
  0
LINE
  5
578
  8
0
  6
CADDY_SOLID
 10
315.0
 20
115.0
 30
0.0
 11
315.0
 21
120.0
 31
0.0
  0
LINE
  5
579
  8
0
  6
CADDY_SOLID
 10
315.0
 20
120.0
 30
0.0
 11
305.0
 21
120.0
 31
0.0
  0
LINE
  5
57A
  8
0
  6
CADDY_SOLID
 10
305.0
 20
120.0
 30
0.0
 11
305.0
 21
115.0
 31
0.0
  0
ENDBLK
  8
0
  0
BLOCK
  8
0
  2
BLK125
 70
     0
 10
0.0
 20
0.0
 30
0.0
  0
LINE
  5
57F
  8
0
  6
CADDY_SOLID
 10
305.0
 20
110.0
 30
0.0
 11
315.0
 21
110.0
 31
0.0
  0
LINE
  5
580
  8
0
  6
CADDY_SOLID
 10
315.0
 20
110.0
 30
0.0
 11
315.0
 21
115.0
 31
0.0
  0
LINE
  5
581
  8
0
  6
CADDY_SOLID
 10
315.0
 20
115.0
 30
0.0
 11
305.0
 21
115.0
 31
0.0
  0
LINE
  5
582
  8
0
  6
CADDY_SOLID
 10
305.0
 20
115.0
 30
0.0
 11
305.0
 21
110.0
 31
0.0
  0
ENDBLK
  8
0
  0
BLOCK
  8
0
  2
BLK126
 70
     0
 10
0.0
 20
0.0
 30
0.0
  0
LINE
  5
587
  8
0
  6
CADDY_SOLID
 10
305.0
 20
105.0
 30
0.0
 11
315.0
 21
105.0
 31
0.0
  0
LINE
  5
588
  8
0
  6
CADDY_SOLID
 10
315.0
 20
105.0
 30
0.0
 11
315.0
 21
110.0
 31
0.0
  0
LINE
  5
589
  8
0
  6
CADDY_SOLID
 10
315.0
 20
110.0
 30
0.0
 11
305.0
 21
110.0
 31
0.0
  0
LINE
  5
58A
  8
0
  6
CADDY_SOLID
 10
305.0
 20
110.0
 30
0.0
 11
305.0
 21
105.0
 31
0.0
  0
ENDBLK
  8
0
  0
BLOCK
  8
0
  2
BLK127
 70
     0
 10
0.0
 20
0.0
 30
0.0
  0
LINE
  5
58F
  8
0
  6
CADDY_SOLID
 10
305.0
 20
100.0
 30
0.0
 11
315.0
 21
100.0
 31
0.0
  0
LINE
  5
590
  8
0
  6
CADDY_SOLID
 10
315.0
 20
100.0
 30
0.0
 11
315.0
 21
105.0
 31
0.0
  0
LINE
  5
591
  8
0
  6
CADDY_SOLID
 10
315.0
 20
105.0
 30
0.0
 11
305.0
 21
105.0
 31
0.0
  0
LINE
  5
592
  8
0
  6
CADDY_SOLID
 10
305.0
 20
105.0
 30
0.0
 11
305.0
 21
100.0
 31
0.0
  0
ENDBLK
  8
0
  0
BLOCK
  8
0
  2
BLK128
 70
     0
 10
0.0
 20
0.0
 30
0.0
  0
LINE
  5
597
  8
0
  6
CADDY_SOLID
 10
305.0
 20
95.0
 30
0.0
 11
315.0
 21
95.0
 31
0.0
  0
LINE
  5
598
  8
0
  6
CADDY_SOLID
 10
315.0
 20
95.0
 30
0.0
 11
315.0
 21
100.0
 31
0.0
  0
LINE
  5
599
  8
0
  6
CADDY_SOLID
 10
315.0
 20
100.0
 30
0.0
 11
305.0
 21
100.0
 31
0.0
  0
LINE
  5
59A
  8
0
  6
CADDY_SOLID
 10
305.0
 20
100.0
 30
0.0
 11
305.0
 21
95.0
 31
0.0
  0
ENDBLK
  8
0
  0
BLOCK
  8
0
  2
BLK129
 70
     0
 10
0.0
 20
0.0
 30
0.0
  0
LINE
  5
59F
  8
0
  6
CADDY_SOLID
 10
305.0
 20
90.0
 30
0.0
 11
315.0
 21
90.0
 31
0.0
  0
LINE
  5
5A0
  8
0
  6
CADDY_SOLID
 10
315.0
 20
90.0
 30
0.0
 11
315.0
 21
95.0
 31
0.0
  0
LINE
  5
5A1
  8
0
  6
CADDY_SOLID
 10
315.0
 20
95.0
 30
0.0
 11
305.0
 21
95.0
 31
0.0
  0
LINE
  5
5A2
  8
0
  6
CADDY_SOLID
 10
305.0
 20
95.0
 30
0.0
 11
305.0
 21
90.0
 31
0.0
  0
ENDBLK
  8
0
  0
BLOCK
  8
0
  2
BLK130
 70
     2
 10
0.0
 20
0.0
 30
0.0
  0
ATTDEF
  5
5C3
  8
0
 10
72.97676755523682
 20
147.0500030517578
 30
0.0
 40
2.449996948242188
  1

 41
0.9
  7
CADDY_VECTORFONT1P
 72
     2
 11
90.27497100830078
 21
147.0500030517578
 31
0.0
  3
Beskrivelse 00
  2
$TAG160030
 70
     0
  0
ATTDEF
  5
5C5
  8
0
 10
94.99351398620605
 20
230.6999969482422
 30
0.0
 40
2.449996948242188
  1
D1802
 41
0.9
  7
CADDY_VECTORFONT1P
 72
     2
 11
111.8000030517578
 21
230.6999969482422
 31
0.0
  3
Produkt (-)
  2
$TAG160010
 70
     0
  0
TEXT
  5
5C6
  8
0
 10
105.6999969482422
 20
220.6999969482422
 30
0.0
 40
2.449996948242188
  1
DDI3610
 41
0.9
  7
CADDY_VECTORFONT1P
  0
INSERT
  5
5CA
  8
0
  2
BLK131
 10
0.0
 20
0.0
 30
1.0
  0
TEXT
  5
5CF
  8
0
 10
110.6999969482422
 20
210.6999969482422
 30
0.0
 40
2.449996948242188
  1
RDY
 41
0.9
  7
CADDY_VECTORFONT1P
  0
TEXT
  5
5D0
  8
0
 10
110.6999969482422
 20
205.6999969482422
 30
0.0
 40
2.449996948242188
  1
ERR
 41
0.9
  7
CADDY_VECTORFONT1P
  0
INSERT
  5
5D4
  8
0
  2
BLK132
 10
0.0
 20
0.0
 30
1.0
  0
INSERT
  5
5DC
  8
0
  2
BLK133
 10
0.0
 20
0.0
 30
1.0
  0
INSERT
  5
5E4
  8
0
  2
BLK134
 10
0.0
 20
0.0
 30
1.0
  0
INSERT
  5
5EC
  8
0
  2
BLK135
 10
0.0
 20
0.0
 30
1.0
  0
INSERT
  5
5F4
  8
0
  2
BLK136
 10
0.0
 20
0.0
 30
1.0
  0
INSERT
  5
5FC
  8
0
  2
BLK137
 10
0.0
 20
0.0
 30
1.0
  0
INSERT
  5
604
  8
0
  2
BLK138
 10
0.0
 20
0.0
 30
1.0
  0
TEXT
  5
609
  8
0
 10
110.6999969482422
 20
200.6999969482422
 30
0.0
 40
2.449996948242188
  1
IN1
 41
0.9
  7
CADDY_VECTORFONT1P
  0
TEXT
  5
60A
  8
0
 10
110.6999969482422
 20
195.6999969482422
 30
0.0
 40
2.449996948242188
  1
IN2
 41
0.9
  7
CADDY_VECTORFONT1P
  0
TEXT
  5
60B
  8
0
 10
110.6999969482422
 20
190.6999969482422
 30
0.0
 40
2.449996948242188
  1
IN3
 41
0.9
  7
CADDY_VECTORFONT1P
  0
TEXT
  5
60C
  8
0
 10
110.6999969482422
 20
185.6999969482422
 30
0.0
 40
2.449996948242188
  1
IN4
 41
0.9
  7
CADDY_VECTORFONT1P
  0
TEXT
  5
60D
  8
0
 10
110.6999969482422
 20
180.6999969482422
 30
0.0
 40
2.449996948242188
  1
IN5
 41
0.9
  7
CADDY_VECTORFONT1P
  0
TEXT
  5
60E
  8
0
 10
110.6999969482422
 20
175.6999969482422
 30
0.0
 40
2.449996948242188
  1
IN6
 41
0.9
  7
CADDY_VECTORFONT1P
  0
INSERT
  5
612
  8
0
  2
BLK139
 10
0.0
 20
0.0
 30
1.0
  0
INSERT
  5
61A
  8
0
  2
BLK140
 10
0.0
 20
0.0
 30
1.0
  0
INSERT
  5
622
  8
0
  2
BLK141
 10
0.0
 20
0.0
 30
1.0
  0
INSERT
  5
62A
  8
0
  2
BLK142
 10
0.0
 20
0.0
 30
1.0
  0
INSERT
  5
632
  8
0
  2
BLK143
 10
0.0
 20
0.0
 30
1.0
  0
INSERT
  5
63A
  8
0
  2
BLK144
 10
0.0
 20
0.0
 30
1.0
  0
INSERT
  5
642
  8
0
  2
BLK145
 10
0.0
 20
0.0
 30
1.0
  0
TEXT
  5
647
  8
0
 10
100.6999969482422
 20
155.6999969482422
 30
0.0
 40
2.449996948242188
  1
1
 41
0.9
  7
CADDY_VECTORFONT1P
  0
TEXT
  5
648
  8
0
 10
100.6999969482422
 20
150.6999969482422
 30
0.0
 40
2.449996948242188
  1
2
 41
0.9
  7
CADDY_VECTORFONT1P
  0
TEXT
  5
649
  8
0
 10
100.6999969482422
 20
145.6999969482422
 30
0.0
 40
2.449996948242188
  1
3
 41
0.9
  7
CADDY_VECTORFONT1P
  0
TEXT
  5
64A
  8
0
 10
100.6999969482422
 20
140.6999969482422
 30
0.0
 40
2.449996948242188
  1
4
 41
0.9
  7
CADDY_VECTORFONT1P
  0
TEXT
  5
64B
  8
0
 10
100.6999969482422
 20
135.6999969482422
 30
0.0
 40
2.449996948242188
  1
5
 41
0.9
  7
CADDY_VECTORFONT1P
  0
TEXT
  5
64C
  8
0
 10
100.6999969482422
 20
130.6999969482422
 30
0.0
 40
2.449996948242188
  1
6
 41
0.9
  7
CADDY_VECTORFONT1P
  0
TEXT
  5
64D
  8
0
 10
106.4466469261169
 20
160.6999969482422
 30
0.0
 40
2.449996948242188
  1
8(A)1
 41
0.9
  7
CADDY_VECTORFONT1P
 72
     1
 11
110.0
 21
160.6999969482422
 31
0.0
  0
INSERT
  5
651
  8
0
  2
BLK146
 10
0.0
 20
0.0
 30
1.0
  0
INSERT
  5
659
  8
0
  2
BLK147
 10
0.0
 20
0.0
 30
1.0
  0
INSERT
  5
661
  8
0
  2
BLK148
 10
0.0
 20
0.0
 30
1.0
  0
INSERT
  5
669
  8
0
  2
BLK149
 10
0.0
 20
0.0
 30
1.0
  0
INSERT
  5
671
  8
0
  2
BLK150
 10
0.0
 20
0.0
 30
1.0
  0
INSERT
  5
679
  8
0
  2
BLK151
 10
0.0
 20
0.0
 30
1.0
  0
TEXT
  5
67E
  8
0
 10
100.6999969482422
 20
115.6999969482422
 30
0.0
 40
2.450004577636719
  1
1
 41
0.9
  7
CADDY_VECTORFONT1P
  0
TEXT
  5
67F
  8
0
 10
100.6999969482422
 20
110.6999969482422
 30
0.0
 40
2.450004577636719
  1
2
 41
0.9
  7
CADDY_VECTORFONT1P
  0
TEXT
  5
680
  8
0
 10
100.6999969482422
 20
105.6999969482422
 30
0.0
 40
2.450004577636719
  1
3
 41
0.9
  7
CADDY_VECTORFONT1P
  0
TEXT
  5
681
  8
0
 10
100.6999969482422
 20
100.6999969482422
 30
0.0
 40
2.450004577636719
  1
4
 41
0.9
  7
CADDY_VECTORFONT1P
  0
TEXT
  5
682
  8
0
 10
100.6999969482422
 20
95.69999694824219
 30
0.0
 40
2.450004577636719
  1
5
 41
0.9
  7
CADDY_VECTORFONT1P
  0
TEXT
  5
683
  8
0
 10
100.6999969482422
 20
90.69999694824219
 30
0.0
 40
2.450004577636719
  1
6
 41
0.9
  7
CADDY_VECTORFONT1P
  0
TEXT
  5
684
  8
0
 10
106.5690135894775
 20
120.6999969482422
 30
0.0
 40
2.450004577636719
  1
8(B)1
 41
0.9
  7
CADDY_VECTORFONT1P
 72
     1
 11
110.0
 21
120.6999969482422
 31
0.0
  0
LINE
  5
685
  8
0
  6
CADDY_SOLID
 10
100.0
 20
170.0
 30
0.0
 11
120.0
 21
170.0
 31
0.0
  0
ATTDEF
  5
687
  8
0
 10
79.99350635681152
 20
147.1999969482422
 30
0.0
 40
2.449996948242188
  1

 41
0.9
  7
CADDY_VECTORFONT1P
 72
     2
 11
96.79999542236328
 21
147.1999969482422
 31
0.0
  3
Signaladresse
  2
$TAG175100
 70
     0
  0
ATTDEF
  5
689
  8
0
 10
80.48522074432373
 20
143.6999969482422
 30
0.0
 40
2.449996948242188
  1

 41
0.9
  7
CADDY_VECTORFONT1P
 72
     2
 11
96.79999542236328
 21
143.6999969482422
 31
0.0
  3
Signalbeskrivelse
  2
$TAG175110
 70
     0
  0
ATTDEF
  5
68B
  8
0
 10
79.99350635681152
 20
140.6999969482422
 30
0.0
 40
2.449996948242188
  1

 41
0.9
  7
CADDY_VECTORFONT1P
 72
     2
 11
96.79999542236328
 21
140.6999969482422
 31
0.0
  3
Signalbemærkning
  2
$TAG175120
 70
     0
  0
ATTDEF
  5
68D
  8
0
 10
79.50179959869385
 20
137.1999969482422
 30
0.0
 40
2.449996948242188
  1
?
 41
0.9
  7
CADDY_VECTORFONT1P
 72
     2
 11
96.80000305175781
 21
137.1999969482422
 31
0.0
  3
Side/strømvej reference
  2
$TAG160500
 70
     0
  0
ATTDEF
  5
68F
  8
0
 10
79.25704490356446
 20
157.6999969482422
 30
0.0
 40
2.449996948242188
  1
=
 41
0.9
  7
CADDY_VECTORFONT1P
 72
     2
 11
96.80000305175781
 21
157.6999969482422
 31
0.0
  3
Funktion (=)
  2
$TAG140020
 70
     1
  0
ATTDEF
  5
691
  8
0
 10
79.25703727416993
 20
154.1999969482422
 30
0.0
 40
2.449996948242188
  1
+
 41
0.9
  7
CADDY_VECTORFONT1P
 72
     2
 11
96.79999542236328
 21
154.1999969482422
 31
0.0
  3
Placering (+)
  2
$TAG140050
 70
     1
  0
ATTDEF
  5
693
  8
0
 10
71.4017858657837
 20
147.0500030517578
 30
0.0
 40
2.449996948242188
  1

 41
0.9
  7
CADDY_VECTORFONT1P
 72
     2
 11
88.69998931884766
 21
147.0500030517578
 31
0.0
  3
Beskrivelse 00
  2
$TAG160030
 70
     0
  0
ATTDEF
  5
695
  8
0
 10
71.1570311706543
 20
143.5500030517578
 30
0.0
 40
2.449996948242188
  1

 41
0.9
  7
CADDY_VECTORFONT1P
 72
     2
 11
88.69998931884766
 21
143.5500030517578
 31
0.0
  3
Type
  2
$TAG160040
 70
     1
  0
ENDBLK
  8
0
  0
BLOCK
  8
0
  2
BLK131
 70
     0
 10
0.0
 20
0.0
 30
0.0
  0
LINE
  5
5CB
  8
0
  6
CADDY_SOLID
 10
105.0
 20
210.0
 30
0.0
 11
110.0
 21
210.0
 31
0.0
  0
LINE
  5
5CC
  8
0
  6
CADDY_SOLID
 10
110.0
 20
210.0
 30
0.0
 11
110.0
 21
215.0
 31
0.0
  0
LINE
  5
5CD
  8
0
  6
CADDY_SOLID
 10
110.0
 20
215.0
 30
0.0
 11
105.0
 21
215.0
 31
0.0
  0
LINE
  5
5CE
  8
0
  6
CADDY_SOLID
 10
105.0
 20
215.0
 30
0.0
 11
105.0
 21
210.0
 31
0.0
  0
ENDBLK
  8
0
  0
BLOCK
  8
0
  2
BLK132
 70
     0
 10
0.0
 20
0.0
 30
0.0
  0
LINE
  5
5D5
  8
0
  6
CADDY_SOLID
 10
105.0
 20
205.0
 30
0.0
 11
110.0
 21
205.0
 31
0.0
  0
LINE
  5
5D6
  8
0
  6
CADDY_SOLID
 10
110.0
 20
205.0
 30
0.0
 11
110.0
 21
210.0
 31
0.0
  0
LINE
  5
5D7
  8
0
  6
CADDY_SOLID
 10
110.0
 20
210.0
 30
0.0
 11
105.0
 21
210.0
 31
0.0
  0
LINE
  5
5D8
  8
0
  6
CADDY_SOLID
 10
105.0
 20
210.0
 30
0.0
 11
105.0
 21
205.0
 31
0.0
  0
ENDBLK
  8
0
  0
BLOCK
  8
0
  2
BLK133
 70
     0
 10
0.0
 20
0.0
 30
0.0
  0
LINE
  5
5DD
  8
0
  6
CADDY_SOLID
 10
105.0
 20
200.0
 30
0.0
 11
110.0
 21
200.0
 31
0.0
  0
LINE
  5
5DE
  8
0
  6
CADDY_SOLID
 10
110.0
 20
200.0
 30
0.0
 11
110.0
 21
205.0
 31
0.0
  0
LINE
  5
5DF
  8
0
  6
CADDY_SOLID
 10
110.0
 20
205.0
 30
0.0
 11
105.0
 21
205.0
 31
0.0
  0
LINE
  5
5E0
  8
0
  6
CADDY_SOLID
 10
105.0
 20
205.0
 30
0.0
 11
105.0
 21
200.0
 31
0.0
  0
ENDBLK
  8
0
  0
BLOCK
  8
0
  2
BLK134
 70
     0
 10
0.0
 20
0.0
 30
0.0
  0
LINE
  5
5E5
  8
0
  6
CADDY_SOLID
 10
105.0
 20
195.0
 30
0.0
 11
110.0
 21
195.0
 31
0.0
  0
LINE
  5
5E6
  8
0
  6
CADDY_SOLID
 10
110.0
 20
195.0
 30
0.0
 11
110.0
 21
200.0
 31
0.0
  0
LINE
  5
5E7
  8
0
  6
CADDY_SOLID
 10
110.0
 20
200.0
 30
0.0
 11
105.0
 21
200.0
 31
0.0
  0
LINE
  5
5E8
  8
0
  6
CADDY_SOLID
 10
105.0
 20
200.0
 30
0.0
 11
105.0
 21
195.0
 31
0.0
  0
ENDBLK
  8
0
  0
BLOCK
  8
0
  2
BLK135
 70
     0
 10
0.0
 20
0.0
 30
0.0
  0
LINE
  5
5ED
  8
0
  6
CADDY_SOLID
 10
105.0
 20
190.0
 30
0.0
 11
110.0
 21
190.0
 31
0.0
  0
LINE
  5
5EE
  8
0
  6
CADDY_SOLID
 10
110.0
 20
190.0
 30
0.0
 11
110.0
 21
195.0
 31
0.0
  0
LINE
  5
5EF
  8
0
  6
CADDY_SOLID
 10
110.0
 20
195.0
 30
0.0
 11
105.0
 21
195.0
 31
0.0
  0
LINE
  5
5F0
  8
0
  6
CADDY_SOLID
 10
105.0
 20
195.0
 30
0.0
 11
105.0
 21
190.0
 31
0.0
  0
ENDBLK
  8
0
  0
BLOCK
  8
0
  2
BLK136
 70
     0
 10
0.0
 20
0.0
 30
0.0
  0
LINE
  5
5F5
  8
0
  6
CADDY_SOLID
 10
105.0
 20
185.0
 30
0.0
 11
110.0
 21
185.0
 31
0.0
  0
LINE
  5
5F6
  8
0
  6
CADDY_SOLID
 10
110.0
 20
185.0
 30
0.0
 11
110.0
 21
190.0
 31
0.0
  0
LINE
  5
5F7
  8
0
  6
CADDY_SOLID
 10
110.0
 20
190.0
 30
0.0
 11
105.0
 21
190.0
 31
0.0
  0
LINE
  5
5F8
  8
0
  6
CADDY_SOLID
 10
105.0
 20
190.0
 30
0.0
 11
105.0
 21
185.0
 31
0.0
  0
ENDBLK
  8
0
  0
BLOCK
  8
0
  2
BLK137
 70
     0
 10
0.0
 20
0.0
 30
0.0
  0
LINE
  5
5FD
  8
0
  6
CADDY_SOLID
 10
105.0
 20
180.0
 30
0.0
 11
110.0
 21
180.0
 31
0.0
  0
LINE
  5
5FE
  8
0
  6
CADDY_SOLID
 10
110.0
 20
180.0
 30
0.0
 11
110.0
 21
185.0
 31
0.0
  0
LINE
  5
5FF
  8
0
  6
CADDY_SOLID
 10
110.0
 20
185.0
 30
0.0
 11
105.0
 21
185.0
 31
0.0
  0
LINE
  5
600
  8
0
  6
CADDY_SOLID
 10
105.0
 20
185.0
 30
0.0
 11
105.0
 21
180.0
 31
0.0
  0
ENDBLK
  8
0
  0
BLOCK
  8
0
  2
BLK138
 70
     0
 10
0.0
 20
0.0
 30
0.0
  0
LINE
  5
605
  8
0
  6
CADDY_SOLID
 10
105.0
 20
175.0
 30
0.0
 11
110.0
 21
175.0
 31
0.0
  0
LINE
  5
606
  8
0
  6
CADDY_SOLID
 10
110.0
 20
175.0
 30
0.0
 11
110.0
 21
180.0
 31
0.0
  0
LINE
  5
607
  8
0
  6
CADDY_SOLID
 10
110.0
 20
180.0
 30
0.0
 11
105.0
 21
180.0
 31
0.0
  0
LINE
  5
608
  8
0
  6
CADDY_SOLID
 10
105.0
 20
180.0
 30
0.0
 11
105.0
 21
175.0
 31
0.0
  0
ENDBLK
  8
0
  0
BLOCK
  8
0
  2
BLK139
 70
     0
 10
0.0
 20
0.0
 30
0.0
  0
LINE
  5
613
  8
0
  6
CADDY_SOLID
 10
100.0
 20
75.0
 30
0.0
 11
120.0
 21
75.0
 31
0.0
  0
LINE
  5
614
  8
0
  6
CADDY_SOLID
 10
120.0
 20
75.0
 30
0.0
 11
120.0
 21
225.0
 31
0.0
  0
LINE
  5
615
  8
0
  6
CADDY_SOLID
 10
120.0
 20
225.0
 30
0.0
 11
100.0
 21
225.0
 31
0.0
  0
LINE
  5
616
  8
0
  6
CADDY_SOLID
 10
100.0
 20
225.0
 30
0.0
 11
100.0
 21
75.0
 31
0.0
  0
ENDBLK
  8
0
  0
BLOCK
  8
0
  2
BLK140
 70
     0
 10
0.0
 20
0.0
 30
0.0
  0
LINE
  5
61B
  8
0
  6
CADDY_SOLID
 10
105.0
 20
155.0
 30
0.0
 11
115.0
 21
155.0
 31
0.0
  0
LINE
  5
61C
  8
0
  6
CADDY_SOLID
 10
115.0
 20
155.0
 30
0.0
 11
115.0
 21
160.0
 31
0.0
  0
LINE
  5
61D
  8
0
  6
CADDY_SOLID
 10
115.0
 20
160.0
 30
0.0
 11
105.0
 21
160.0
 31
0.0
  0
LINE
  5
61E
  8
0
  6
CADDY_SOLID
 10
105.0
 20
160.0
 30
0.0
 11
105.0
 21
155.0
 31
0.0
  0
ENDBLK
  8
0
  0
BLOCK
  8
0
  2
BLK141
 70
     0
 10
0.0
 20
0.0
 30
0.0
  0
LINE
  5
623
  8
0
  6
CADDY_SOLID
 10
105.0
 20
150.0
 30
0.0
 11
115.0
 21
150.0
 31
0.0
  0
LINE
  5
624
  8
0
  6
CADDY_SOLID
 10
115.0
 20
150.0
 30
0.0
 11
115.0
 21
155.0
 31
0.0
  0
LINE
  5
625
  8
0
  6
CADDY_SOLID
 10
115.0
 20
155.0
 30
0.0
 11
105.0
 21
155.0
 31
0.0
  0
LINE
  5
626
  8
0
  6
CADDY_SOLID
 10
105.0
 20
155.0
 30
0.0
 11
105.0
 21
150.0
 31
0.0
  0
ENDBLK
  8
0
  0
BLOCK
  8
0
  2
BLK142
 70
     0
 10
0.0
 20
0.0
 30
0.0
  0
LINE
  5
62B
  8
0
  6
CADDY_SOLID
 10
105.0
 20
145.0
 30
0.0
 11
115.0
 21
145.0
 31
0.0
  0
LINE
  5
62C
  8
0
  6
CADDY_SOLID
 10
115.0
 20
145.0
 30
0.0
 11
115.0
 21
150.0
 31
0.0
  0
LINE
  5
62D
  8
0
  6
CADDY_SOLID
 10
115.0
 20
150.0
 30
0.0
 11
105.0
 21
150.0
 31
0.0
  0
LINE
  5
62E
  8
0
  6
CADDY_SOLID
 10
105.0
 20
150.0
 30
0.0
 11
105.0
 21
145.0
 31
0.0
  0
ENDBLK
  8
0
  0
BLOCK
  8
0
  2
BLK143
 70
     0
 10
0.0
 20
0.0
 30
0.0
  0
LINE
  5
633
  8
0
  6
CADDY_SOLID
 10
105.0
 20
140.0
 30
0.0
 11
115.0
 21
140.0
 31
0.0
  0
LINE
  5
634
  8
0
  6
CADDY_SOLID
 10
115.0
 20
140.0
 30
0.0
 11
115.0
 21
145.0
 31
0.0
  0
LINE
  5
635
  8
0
  6
CADDY_SOLID
 10
115.0
 20
145.0
 30
0.0
 11
105.0
 21
145.0
 31
0.0
  0
LINE
  5
636
  8
0
  6
CADDY_SOLID
 10
105.0
 20
145.0
 30
0.0
 11
105.0
 21
140.0
 31
0.0
  0
ENDBLK
  8
0
  0
BLOCK
  8
0
  2
BLK144
 70
     0
 10
0.0
 20
0.0
 30
0.0
  0
LINE
  5
63B
  8
0
  6
CADDY_SOLID
 10
105.0
 20
135.0
 30
0.0
 11
115.0
 21
135.0
 31
0.0
  0
LINE
  5
63C
  8
0
  6
CADDY_SOLID
 10
115.0
 20
135.0
 30
0.0
 11
115.0
 21
140.0
 31
0.0
  0
LINE
  5
63D
  8
0
  6
CADDY_SOLID
 10
115.0
 20
140.0
 30
0.0
 11
105.0
 21
140.0
 31
0.0
  0
LINE
  5
63E
  8
0
  6
CADDY_SOLID
 10
105.0
 20
140.0
 30
0.0
 11
105.0
 21
135.0
 31
0.0
  0
ENDBLK
  8
0
  0
BLOCK
  8
0
  2
BLK145
 70
     0
 10
0.0
 20
0.0
 30
0.0
  0
LINE
  5
643
  8
0
  6
CADDY_SOLID
 10
105.0
 20
130.0
 30
0.0
 11
115.0
 21
130.0
 31
0.0
  0
LINE
  5
644
  8
0
  6
CADDY_SOLID
 10
115.0
 20
130.0
 30
0.0
 11
115.0
 21
135.0
 31
0.0
  0
LINE
  5
645
  8
0
  6
CADDY_SOLID
 10
115.0
 20
135.0
 30
0.0
 11
105.0
 21
135.0
 31
0.0
  0
LINE
  5
646
  8
0
  6
CADDY_SOLID
 10
105.0
 20
135.0
 30
0.0
 11
105.0
 21
130.0
 31
0.0
  0
ENDBLK
  8
0
  0
BLOCK
  8
0
  2
BLK146
 70
     0
 10
0.0
 20
0.0
 30
0.0
  0
LINE
  5
652
  8
0
  6
CADDY_SOLID
 10
105.0
 20
115.0
 30
0.0
 11
115.0
 21
115.0
 31
0.0
  0
LINE
  5
653
  8
0
  6
CADDY_SOLID
 10
115.0
 20
115.0
 30
0.0
 11
115.0
 21
120.0
 31
0.0
  0
LINE
  5
654
  8
0
  6
CADDY_SOLID
 10
115.0
 20
120.0
 30
0.0
 11
105.0
 21
120.0
 31
0.0
  0
LINE
  5
655
  8
0
  6
CADDY_SOLID
 10
105.0
 20
120.0
 30
0.0
 11
105.0
 21
115.0
 31
0.0
  0
ENDBLK
  8
0
  0
BLOCK
  8
0
  2
BLK147
 70
     0
 10
0.0
 20
0.0
 30
0.0
  0
LINE
  5
65A
  8
0
  6
CADDY_SOLID
 10
105.0
 20
110.0
 30
0.0
 11
115.0
 21
110.0
 31
0.0
  0
LINE
  5
65B
  8
0
  6
CADDY_SOLID
 10
115.0
 20
110.0
 30
0.0
 11
115.0
 21
115.0
 31
0.0
  0
LINE
  5
65C
  8
0
  6
CADDY_SOLID
 10
115.0
 20
115.0
 30
0.0
 11
105.0
 21
115.0
 31
0.0
  0
LINE
  5
65D
  8
0
  6
CADDY_SOLID
 10
105.0
 20
115.0
 30
0.0
 11
105.0
 21
110.0
 31
0.0
  0
ENDBLK
  8
0
  0
BLOCK
  8
0
  2
BLK148
 70
     0
 10
0.0
 20
0.0
 30
0.0
  0
LINE
  5
662
  8
0
  6
CADDY_SOLID
 10
105.0
 20
105.0
 30
0.0
 11
115.0
 21
105.0
 31
0.0
  0
LINE
  5
663
  8
0
  6
CADDY_SOLID
 10
115.0
 20
105.0
 30
0.0
 11
115.0
 21
110.0
 31
0.0
  0
LINE
  5
664
  8
0
  6
CADDY_SOLID
 10
115.0
 20
110.0
 30
0.0
 11
105.0
 21
110.0
 31
0.0
  0
LINE
  5
665
  8
0
  6
CADDY_SOLID
 10
105.0
 20
110.0
 30
0.0
 11
105.0
 21
105.0
 31
0.0
  0
ENDBLK
  8
0
  0
BLOCK
  8
0
  2
BLK149
 70
     0
 10
0.0
 20
0.0
 30
0.0
  0
LINE
  5
66A
  8
0
  6
CADDY_SOLID
 10
105.0
 20
100.0
 30
0.0
 11
115.0
 21
100.0
 31
0.0
  0
LINE
  5
66B
  8
0
  6
CADDY_SOLID
 10
115.0
 20
100.0
 30
0.0
 11
115.0
 21
105.0
 31
0.0
  0
LINE
  5
66C
  8
0
  6
CADDY_SOLID
 10
115.0
 20
105.0
 30
0.0
 11
105.0
 21
105.0
 31
0.0
  0
LINE
  5
66D
  8
0
  6
CADDY_SOLID
 10
105.0
 20
105.0
 30
0.0
 11
105.0
 21
100.0
 31
0.0
  0
ENDBLK
  8
0
  0
BLOCK
  8
0
  2
BLK150
 70
     0
 10
0.0
 20
0.0
 30
0.0
  0
LINE
  5
672
  8
0
  6
CADDY_SOLID
 10
105.0
 20
95.0
 30
0.0
 11
115.0
 21
95.0
 31
0.0
  0
LINE
  5
673
  8
0
  6
CADDY_SOLID
 10
115.0
 20
95.0
 30
0.0
 11
115.0
 21
100.0
 31
0.0
  0
LINE
  5
674
  8
0
  6
CADDY_SOLID
 10
115.0
 20
100.0
 30
0.0
 11
105.0
 21
100.0
 31
0.0
  0
LINE
  5
675
  8
0
  6
CADDY_SOLID
 10
105.0
 20
100.0
 30
0.0
 11
105.0
 21
95.0
 31
0.0
  0
ENDBLK
  8
0
  0
BLOCK
  8
0
  2
BLK151
 70
     0
 10
0.0
 20
0.0
 30
0.0
  0
LINE
  5
67A
  8
0
  6
CADDY_SOLID
 10
105.0
 20
90.0
 30
0.0
 11
115.0
 21
90.0
 31
0.0
  0
LINE
  5
67B
  8
0
  6
CADDY_SOLID
 10
115.0
 20
90.0
 30
0.0
 11
115.0
 21
95.0
 31
0.0
  0
LINE
  5
67C
  8
0
  6
CADDY_SOLID
 10
115.0
 20
95.0
 30
0.0
 11
105.0
 21
95.0
 31
0.0
  0
LINE
  5
67D
  8
0
  6
CADDY_SOLID
 10
105.0
 20
95.0
 30
0.0
 11
105.0
 21
90.0
 31
0.0
  0
ENDBLK
  8
0
  0
BLOCK
  8
0
  2
BLK152
 70
     2
 10
0.0
 20
0.0
 30
0.0
  0
ATTDEF
  5
69C
  8
0
 10
112.9767751846314
 20
147.0500030517578
 30
0.0
 40
2.449996948242188
  1

 41
0.9
  7
CADDY_VECTORFONT1P
 72
     2
 11
130.2749786376953
 21
147.0500030517578
 31
0.0
  3
Beskrivelse 00
  2
$TAG160030
 70
     0
  0
ATTDEF
  5
69E
  8
0
 10
134.9935139862061
 20
230.6999969482422
 30
0.0
 40
2.449996948242188
  1
D1803
 41
0.9
  7
CADDY_VECTORFONT1P
 72
     2
 11
151.8000030517578
 21
230.6999969482422
 31
0.0
  3
Produkt (-)
  2
$TAG160010
 70
     0
  0
TEXT
  5
69F
  8
0
 10
145.6999969482422
 20
220.6999969482422
 30
0.0
 40
2.449996948242188
  1
DDI3610
 41
0.9
  7
CADDY_VECTORFONT1P
  0
INSERT
  5
6A3
  8
0
  2
BLK153
 10
0.0
 20
0.0
 30
1.0
  0
TEXT
  5
6A8
  8
0
 10
150.6999969482422
 20
210.6999969482422
 30
0.0
 40
2.449996948242188
  1
RDY
 41
0.9
  7
CADDY_VECTORFONT1P
  0
TEXT
  5
6A9
  8
0
 10
150.6999969482422
 20
205.6999969482422
 30
0.0
 40
2.449996948242188
  1
ERR
 41
0.9
  7
CADDY_VECTORFONT1P
  0
INSERT
  5
6AD
  8
0
  2
BLK154
 10
0.0
 20
0.0
 30
1.0
  0
INSERT
  5
6B5
  8
0
  2
BLK155
 10
0.0
 20
0.0
 30
1.0
  0
INSERT
  5
6BD
  8
0
  2
BLK156
 10
0.0
 20
0.0
 30
1.0
  0
INSERT
  5
6C5
  8
0
  2
BLK157
 10
0.0
 20
0.0
 30
1.0
  0
INSERT
  5
6CD
  8
0
  2
BLK158
 10
0.0
 20
0.0
 30
1.0
  0
INSERT
  5
6D5
  8
0
  2
BLK159
 10
0.0
 20
0.0
 30
1.0
  0
INSERT
  5
6DD
  8
0
  2
BLK160
 10
0.0
 20
0.0
 30
1.0
  0
TEXT
  5
6E2
  8
0
 10
150.6999969482422
 20
200.6999969482422
 30
0.0
 40
2.449996948242188
  1
IN1
 41
0.9
  7
CADDY_VECTORFONT1P
  0
TEXT
  5
6E3
  8
0
 10
150.6999969482422
 20
195.6999969482422
 30
0.0
 40
2.449996948242188
  1
IN2
 41
0.9
  7
CADDY_VECTORFONT1P
  0
TEXT
  5
6E4
  8
0
 10
150.6999969482422
 20
190.6999969482422
 30
0.0
 40
2.449996948242188
  1
IN3
 41
0.9
  7
CADDY_VECTORFONT1P
  0
TEXT
  5
6E5
  8
0
 10
150.6999969482422
 20
185.6999969482422
 30
0.0
 40
2.449996948242188
  1
IN4
 41
0.9
  7
CADDY_VECTORFONT1P
  0
TEXT
  5
6E6
  8
0
 10
150.6999969482422
 20
180.6999969482422
 30
0.0
 40
2.449996948242188
  1
IN5
 41
0.9
  7
CADDY_VECTORFONT1P
  0
TEXT
  5
6E7
  8
0
 10
150.6999969482422
 20
175.6999969482422
 30
0.0
 40
2.449996948242188
  1
IN6
 41
0.9
  7
CADDY_VECTORFONT1P
  0
INSERT
  5
6EB
  8
0
  2
BLK161
 10
0.0
 20
0.0
 30
1.0
  0
INSERT
  5
6F3
  8
0
  2
BLK162
 10
0.0
 20
0.0
 30
1.0
  0
INSERT
  5
6FB
  8
0
  2
BLK163
 10
0.0
 20
0.0
 30
1.0
  0
INSERT
  5
703
  8
0
  2
BLK164
 10
0.0
 20
0.0
 30
1.0
  0
INSERT
  5
70B
  8
0
  2
BLK165
 10
0.0
 20
0.0
 30
1.0
  0
INSERT
  5
713
  8
0
  2
BLK166
 10
0.0
 20
0.0
 30
1.0
  0
INSERT
  5
71B
  8
0
  2
BLK167
 10
0.0
 20
0.0
 30
1.0
  0
TEXT
  5
720
  8
0
 10
140.6999969482422
 20
155.6999969482422
 30
0.0
 40
2.449996948242188
  1
1
 41
0.9
  7
CADDY_VECTORFONT1P
  0
TEXT
  5
721
  8
0
 10
140.6999969482422
 20
150.6999969482422
 30
0.0
 40
2.449996948242188
  1
2
 41
0.9
  7
CADDY_VECTORFONT1P
  0
TEXT
  5
722
  8
0
 10
140.6999969482422
 20
145.6999969482422
 30
0.0
 40
2.449996948242188
  1
3
 41
0.9
  7
CADDY_VECTORFONT1P
  0
TEXT
  5
723
  8
0
 10
140.6999969482422
 20
140.6999969482422
 30
0.0
 40
2.449996948242188
  1
4
 41
0.9
  7
CADDY_VECTORFONT1P
  0
TEXT
  5
724
  8
0
 10
140.6999969482422
 20
135.6999969482422
 30
0.0
 40
2.449996948242188
  1
5
 41
0.9
  7
CADDY_VECTORFONT1P
  0
TEXT
  5
725
  8
0
 10
140.6999969482422
 20
130.6999969482422
 30
0.0
 40
2.449996948242188
  1
6
 41
0.9
  7
CADDY_VECTORFONT1P
  0
TEXT
  5
726
  8
0
 10
146.446646926117
 20
160.6999969482422
 30
0.0
 40
2.449996948242188
  1
8(A)1
 41
0.9
  7
CADDY_VECTORFONT1P
 72
     1
 11
150.0
 21
160.6999969482422
 31
0.0
  0
INSERT
  5
72A
  8
0
  2
BLK168
 10
0.0
 20
0.0
 30
1.0
  0
INSERT
  5
732
  8
0
  2
BLK169
 10
0.0
 20
0.0
 30
1.0
  0
INSERT
  5
73A
  8
0
  2
BLK170
 10
0.0
 20
0.0
 30
1.0
  0
INSERT
  5
742
  8
0
  2
BLK171
 10
0.0
 20
0.0
 30
1.0
  0
INSERT
  5
74A
  8
0
  2
BLK172
 10
0.0
 20
0.0
 30
1.0
  0
INSERT
  5
752
  8
0
  2
BLK173
 10
0.0
 20
0.0
 30
1.0
  0
TEXT
  5
757
  8
0
 10
140.6999969482422
 20
115.6999969482422
 30
0.0
 40
2.450004577636719
  1
1
 41
0.9
  7
CADDY_VECTORFONT1P
  0
TEXT
  5
758
  8
0
 10
140.6999969482422
 20
110.6999969482422
 30
0.0
 40
2.450004577636719
  1
2
 41
0.9
  7
CADDY_VECTORFONT1P
  0
TEXT
  5
759
  8
0
 10
140.6999969482422
 20
105.6999969482422
 30
0.0
 40
2.450004577636719
  1
3
 41
0.9
  7
CADDY_VECTORFONT1P
  0
TEXT
  5
75A
  8
0
 10
140.6999969482422
 20
100.6999969482422
 30
0.0
 40
2.450004577636719
  1
4
 41
0.9
  7
CADDY_VECTORFONT1P
  0
TEXT
  5
75B
  8
0
 10
140.6999969482422
 20
95.69999694824219
 30
0.0
 40
2.450004577636719
  1
5
 41
0.9
  7
CADDY_VECTORFONT1P
  0
TEXT
  5
75C
  8
0
 10
140.6999969482422
 20
90.69999694824219
 30
0.0
 40
2.450004577636719
  1
6
 41
0.9
  7
CADDY_VECTORFONT1P
  0
TEXT
  5
75D
  8
0
 10
146.5690135894775
 20
120.6999969482422
 30
0.0
 40
2.450004577636719
  1
8(B)1
 41
0.9
  7
CADDY_VECTORFONT1P
 72
     1
 11
150.0
 21
120.6999969482422
 31
0.0
  0
LINE
  5
75E
  8
0
  6
CADDY_SOLID
 10
140.0
 20
170.0
 30
0.0
 11
160.0
 21
170.0
 31
0.0
  0
ATTDEF
  5
760
  8
0
 10
119.9935139862061
 20
147.1999969482422
 30
0.0
 40
2.449996948242188
  1

 41
0.9
  7
CADDY_VECTORFONT1P
 72
     2
 11
136.8000030517578
 21
147.1999969482422
 31
0.0
  3
Signaladresse
  2
$TAG175100
 70
     0
  0
ATTDEF
  5
762
  8
0
 10
120.4852283737183
 20
143.6999969482422
 30
0.0
 40
2.449996948242188
  1

 41
0.9
  7
CADDY_VECTORFONT1P
 72
     2
 11
136.8000030517578
 21
143.6999969482422
 31
0.0
  3
Signalbeskrivelse
  2
$TAG175110
 70
     0
  0
ATTDEF
  5
764
  8
0
 10
119.9935139862061
 20
140.6999969482422
 30
0.0
 40
2.449996948242188
  1

 41
0.9
  7
CADDY_VECTORFONT1P
 72
     2
 11
136.8000030517578
 21
140.6999969482422
 31
0.0
  3
Signalbemærkning
  2
$TAG175120
 70
     0
  0
ATTDEF
  5
766
  8
0
 10
119.5017995986939
 20
137.1999969482422
 30
0.0
 40
2.449996948242188
  1
?
 41
0.9
  7
CADDY_VECTORFONT1P
 72
     2
 11
136.8000030517578
 21
137.1999969482422
 31
0.0
  3
Side/strømvej reference
  2
$TAG160500
 70
     0
  0
ATTDEF
  5
768
  8
0
 10
119.2570449035645
 20
157.6999969482422
 30
0.0
 40
2.449996948242188
  1
=
 41
0.9
  7
CADDY_VECTORFONT1P
 72
     2
 11
136.8000030517578
 21
157.6999969482422
 31
0.0
  3
Funktion (=)
  2
$TAG140020
 70
     1
  0
ATTDEF
  5
76A
  8
0
 10
119.2570296447754
 20
154.1999969482422
 30
0.0
 40
2.449996948242188
  1
+
 41
0.9
  7
CADDY_VECTORFONT1P
 72
     2
 11
136.7999877929688
 21
154.1999969482422
 31
0.0
  3
Placering (+)
  2
$TAG140050
 70
     1
  0
ATTDEF
  5
76C
  8
0
 10
111.4017934951782
 20
147.0500030517578
 30
0.0
 40
2.449996948242188
  1

 41
0.9
  7
CADDY_VECTORFONT1P
 72
     2
 11
128.6999969482422
 21
147.0500030517578
 31
0.0
  3
Beskrivelse 00
  2
$TAG160030
 70
     0
  0
ATTDEF
  5
76E
  8
0
 10
111.1570388000488
 20
143.5500030517578
 30
0.0
 40
2.449996948242188
  1

 41
0.9
  7
CADDY_VECTORFONT1P
 72
     2
 11
128.6999969482422
 21
143.5500030517578
 31
0.0
  3
Type
  2
$TAG160040
 70
     1
  0
ENDBLK
  8
0
  0
BLOCK
  8
0
  2
BLK153
 70
     0
 10
0.0
 20
0.0
 30
0.0
  0
LINE
  5
6A4
  8
0
  6
CADDY_SOLID
 10
145.0
 20
210.0
 30
0.0
 11
150.0
 21
210.0
 31
0.0
  0
LINE
  5
6A5
  8
0
  6
CADDY_SOLID
 10
150.0
 20
210.0
 30
0.0
 11
150.0
 21
215.0
 31
0.0
  0
LINE
  5
6A6
  8
0
  6
CADDY_SOLID
 10
150.0
 20
215.0
 30
0.0
 11
145.0
 21
215.0
 31
0.0
  0
LINE
  5
6A7
  8
0
  6
CADDY_SOLID
 10
145.0
 20
215.0
 30
0.0
 11
145.0
 21
210.0
 31
0.0
  0
ENDBLK
  8
0
  0
BLOCK
  8
0
  2
BLK154
 70
     0
 10
0.0
 20
0.0
 30
0.0
  0
LINE
  5
6AE
  8
0
  6
CADDY_SOLID
 10
145.0
 20
205.0
 30
0.0
 11
150.0
 21
205.0
 31
0.0
  0
LINE
  5
6AF
  8
0
  6
CADDY_SOLID
 10
150.0
 20
205.0
 30
0.0
 11
150.0
 21
210.0
 31
0.0
  0
LINE
  5
6B0
  8
0
  6
CADDY_SOLID
 10
150.0
 20
210.0
 30
0.0
 11
145.0
 21
210.0
 31
0.0
  0
LINE
  5
6B1
  8
0
  6
CADDY_SOLID
 10
145.0
 20
210.0
 30
0.0
 11
145.0
 21
205.0
 31
0.0
  0
ENDBLK
  8
0
  0
BLOCK
  8
0
  2
BLK155
 70
     0
 10
0.0
 20
0.0
 30
0.0
  0
LINE
  5
6B6
  8
0
  6
CADDY_SOLID
 10
145.0
 20
200.0
 30
0.0
 11
150.0
 21
200.0
 31
0.0
  0
LINE
  5
6B7
  8
0
  6
CADDY_SOLID
 10
150.0
 20
200.0
 30
0.0
 11
150.0
 21
205.0
 31
0.0
  0
LINE
  5
6B8
  8
0
  6
CADDY_SOLID
 10
150.0
 20
205.0
 30
0.0
 11
145.0
 21
205.0
 31
0.0
  0
LINE
  5
6B9
  8
0
  6
CADDY_SOLID
 10
145.0
 20
205.0
 30
0.0
 11
145.0
 21
200.0
 31
0.0
  0
ENDBLK
  8
0
  0
BLOCK
  8
0
  2
BLK156
 70
     0
 10
0.0
 20
0.0
 30
0.0
  0
LINE
  5
6BE
  8
0
  6
CADDY_SOLID
 10
145.0
 20
195.0
 30
0.0
 11
150.0
 21
195.0
 31
0.0
  0
LINE
  5
6BF
  8
0
  6
CADDY_SOLID
 10
150.0
 20
195.0
 30
0.0
 11
150.0
 21
200.0
 31
0.0
  0
LINE
  5
6C0
  8
0
  6
CADDY_SOLID
 10
150.0
 20
200.0
 30
0.0
 11
145.0
 21
200.0
 31
0.0
  0
LINE
  5
6C1
  8
0
  6
CADDY_SOLID
 10
145.0
 20
200.0
 30
0.0
 11
145.0
 21
195.0
 31
0.0
  0
ENDBLK
  8
0
  0
BLOCK
  8
0
  2
BLK157
 70
     0
 10
0.0
 20
0.0
 30
0.0
  0
LINE
  5
6C6
  8
0
  6
CADDY_SOLID
 10
145.0
 20
190.0
 30
0.0
 11
150.0
 21
190.0
 31
0.0
  0
LINE
  5
6C7
  8
0
  6
CADDY_SOLID
 10
150.0
 20
190.0
 30
0.0
 11
150.0
 21
195.0
 31
0.0
  0
LINE
  5
6C8
  8
0
  6
CADDY_SOLID
 10
150.0
 20
195.0
 30
0.0
 11
145.0
 21
195.0
 31
0.0
  0
LINE
  5
6C9
  8
0
  6
CADDY_SOLID
 10
145.0
 20
195.0
 30
0.0
 11
145.0
 21
190.0
 31
0.0
  0
ENDBLK
  8
0
  0
BLOCK
  8
0
  2
BLK158
 70
     0
 10
0.0
 20
0.0
 30
0.0
  0
LINE
  5
6CE
  8
0
  6
CADDY_SOLID
 10
145.0
 20
185.0
 30
0.0
 11
150.0
 21
185.0
 31
0.0
  0
LINE
  5
6CF
  8
0
  6
CADDY_SOLID
 10
150.0
 20
185.0
 30
0.0
 11
150.0
 21
190.0
 31
0.0
  0
LINE
  5
6D0
  8
0
  6
CADDY_SOLID
 10
150.0
 20
190.0
 30
0.0
 11
145.0
 21
190.0
 31
0.0
  0
LINE
  5
6D1
  8
0
  6
CADDY_SOLID
 10
145.0
 20
190.0
 30
0.0
 11
145.0
 21
185.0
 31
0.0
  0
ENDBLK
  8
0
  0
BLOCK
  8
0
  2
BLK159
 70
     0
 10
0.0
 20
0.0
 30
0.0
  0
LINE
  5
6D6
  8
0
  6
CADDY_SOLID
 10
145.0
 20
180.0
 30
0.0
 11
150.0
 21
180.0
 31
0.0
  0
LINE
  5
6D7
  8
0
  6
CADDY_SOLID
 10
150.0
 20
180.0
 30
0.0
 11
150.0
 21
185.0
 31
0.0
  0
LINE
  5
6D8
  8
0
  6
CADDY_SOLID
 10
150.0
 20
185.0
 30
0.0
 11
145.0
 21
185.0
 31
0.0
  0
LINE
  5
6D9
  8
0
  6
CADDY_SOLID
 10
145.0
 20
185.0
 30
0.0
 11
145.0
 21
180.0
 31
0.0
  0
ENDBLK
  8
0
  0
BLOCK
  8
0
  2
BLK160
 70
     0
 10
0.0
 20
0.0
 30
0.0
  0
LINE
  5
6DE
  8
0
  6
CADDY_SOLID
 10
145.0
 20
175.0
 30
0.0
 11
150.0
 21
175.0
 31
0.0
  0
LINE
  5
6DF
  8
0
  6
CADDY_SOLID
 10
150.0
 20
175.0
 30
0.0
 11
150.0
 21
180.0
 31
0.0
  0
LINE
  5
6E0
  8
0
  6
CADDY_SOLID
 10
150.0
 20
180.0
 30
0.0
 11
145.0
 21
180.0
 31
0.0
  0
LINE
  5
6E1
  8
0
  6
CADDY_SOLID
 10
145.0
 20
180.0
 30
0.0
 11
145.0
 21
175.0
 31
0.0
  0
ENDBLK
  8
0
  0
BLOCK
  8
0
  2
BLK161
 70
     0
 10
0.0
 20
0.0
 30
0.0
  0
LINE
  5
6EC
  8
0
  6
CADDY_SOLID
 10
140.0
 20
75.0
 30
0.0
 11
160.0
 21
75.0
 31
0.0
  0
LINE
  5
6ED
  8
0
  6
CADDY_SOLID
 10
160.0
 20
75.0
 30
0.0
 11
160.0
 21
225.0
 31
0.0
  0
LINE
  5
6EE
  8
0
  6
CADDY_SOLID
 10
160.0
 20
225.0
 30
0.0
 11
140.0
 21
225.0
 31
0.0
  0
LINE
  5
6EF
  8
0
  6
CADDY_SOLID
 10
140.0
 20
225.0
 30
0.0
 11
140.0
 21
75.0
 31
0.0
  0
ENDBLK
  8
0
  0
BLOCK
  8
0
  2
BLK162
 70
     0
 10
0.0
 20
0.0
 30
0.0
  0
LINE
  5
6F4
  8
0
  6
CADDY_SOLID
 10
145.0
 20
155.0
 30
0.0
 11
155.0
 21
155.0
 31
0.0
  0
LINE
  5
6F5
  8
0
  6
CADDY_SOLID
 10
155.0
 20
155.0
 30
0.0
 11
155.0
 21
160.0
 31
0.0
  0
LINE
  5
6F6
  8
0
  6
CADDY_SOLID
 10
155.0
 20
160.0
 30
0.0
 11
145.0
 21
160.0
 31
0.0
  0
LINE
  5
6F7
  8
0
  6
CADDY_SOLID
 10
145.0
 20
160.0
 30
0.0
 11
145.0
 21
155.0
 31
0.0
  0
ENDBLK
  8
0
  0
BLOCK
  8
0
  2
BLK163
 70
     0
 10
0.0
 20
0.0
 30
0.0
  0
LINE
  5
6FC
  8
0
  6
CADDY_SOLID
 10
145.0
 20
150.0
 30
0.0
 11
155.0
 21
150.0
 31
0.0
  0
LINE
  5
6FD
  8
0
  6
CADDY_SOLID
 10
155.0
 20
150.0
 30
0.0
 11
155.0
 21
155.0
 31
0.0
  0
LINE
  5
6FE
  8
0
  6
CADDY_SOLID
 10
155.0
 20
155.0
 30
0.0
 11
145.0
 21
155.0
 31
0.0
  0
LINE
  5
6FF
  8
0
  6
CADDY_SOLID
 10
145.0
 20
155.0
 30
0.0
 11
145.0
 21
150.0
 31
0.0
  0
ENDBLK
  8
0
  0
BLOCK
  8
0
  2
BLK164
 70
     0
 10
0.0
 20
0.0
 30
0.0
  0
LINE
  5
704
  8
0
  6
CADDY_SOLID
 10
145.0
 20
145.0
 30
0.0
 11
155.0
 21
145.0
 31
0.0
  0
LINE
  5
705
  8
0
  6
CADDY_SOLID
 10
155.0
 20
145.0
 30
0.0
 11
155.0
 21
150.0
 31
0.0
  0
LINE
  5
706
  8
0
  6
CADDY_SOLID
 10
155.0
 20
150.0
 30
0.0
 11
145.0
 21
150.0
 31
0.0
  0
LINE
  5
707
  8
0
  6
CADDY_SOLID
 10
145.0
 20
150.0
 30
0.0
 11
145.0
 21
145.0
 31
0.0
  0
ENDBLK
  8
0
  0
BLOCK
  8
0
  2
BLK165
 70
     0
 10
0.0
 20
0.0
 30
0.0
  0
LINE
  5
70C
  8
0
  6
CADDY_SOLID
 10
145.0
 20
140.0
 30
0.0
 11
155.0
 21
140.0
 31
0.0
  0
LINE
  5
70D
  8
0
  6
CADDY_SOLID
 10
155.0
 20
140.0
 30
0.0
 11
155.0
 21
145.0
 31
0.0
  0
LINE
  5
70E
  8
0
  6
CADDY_SOLID
 10
155.0
 20
145.0
 30
0.0
 11
145.0
 21
145.0
 31
0.0
  0
LINE
  5
70F
  8
0
  6
CADDY_SOLID
 10
145.0
 20
145.0
 30
0.0
 11
145.0
 21
140.0
 31
0.0
  0
ENDBLK
  8
0
  0
BLOCK
  8
0
  2
BLK166
 70
     0
 10
0.0
 20
0.0
 30
0.0
  0
LINE
  5
714
  8
0
  6
CADDY_SOLID
 10
145.0
 20
135.0
 30
0.0
 11
155.0
 21
135.0
 31
0.0
  0
LINE
  5
715
  8
0
  6
CADDY_SOLID
 10
155.0
 20
135.0
 30
0.0
 11
155.0
 21
140.0
 31
0.0
  0
LINE
  5
716
  8
0
  6
CADDY_SOLID
 10
155.0
 20
140.0
 30
0.0
 11
145.0
 21
140.0
 31
0.0
  0
LINE
  5
717
  8
0
  6
CADDY_SOLID
 10
145.0
 20
140.0
 30
0.0
 11
145.0
 21
135.0
 31
0.0
  0
ENDBLK
  8
0
  0
BLOCK
  8
0
  2
BLK167
 70
     0
 10
0.0
 20
0.0
 30
0.0
  0
LINE
  5
71C
  8
0
  6
CADDY_SOLID
 10
145.0
 20
130.0
 30
0.0
 11
155.0
 21
130.0
 31
0.0
  0
LINE
  5
71D
  8
0
  6
CADDY_SOLID
 10
155.0
 20
130.0
 30
0.0
 11
155.0
 21
135.0
 31
0.0
  0
LINE
  5
71E
  8
0
  6
CADDY_SOLID
 10
155.0
 20
135.0
 30
0.0
 11
145.0
 21
135.0
 31
0.0
  0
LINE
  5
71F
  8
0
  6
CADDY_SOLID
 10
145.0
 20
135.0
 30
0.0
 11
145.0
 21
130.0
 31
0.0
  0
ENDBLK
  8
0
  0
BLOCK
  8
0
  2
BLK168
 70
     0
 10
0.0
 20
0.0
 30
0.0
  0
LINE
  5
72B
  8
0
  6
CADDY_SOLID
 10
145.0
 20
115.0
 30
0.0
 11
155.0
 21
115.0
 31
0.0
  0
LINE
  5
72C
  8
0
  6
CADDY_SOLID
 10
155.0
 20
115.0
 30
0.0
 11
155.0
 21
120.0
 31
0.0
  0
LINE
  5
72D
  8
0
  6
CADDY_SOLID
 10
155.0
 20
120.0
 30
0.0
 11
145.0
 21
120.0
 31
0.0
  0
LINE
  5
72E
  8
0
  6
CADDY_SOLID
 10
145.0
 20
120.0
 30
0.0
 11
145.0
 21
115.0
 31
0.0
  0
ENDBLK
  8
0
  0
BLOCK
  8
0
  2
BLK169
 70
     0
 10
0.0
 20
0.0
 30
0.0
  0
LINE
  5
733
  8
0
  6
CADDY_SOLID
 10
145.0
 20
110.0
 30
0.0
 11
155.0
 21
110.0
 31
0.0
  0
LINE
  5
734
  8
0
  6
CADDY_SOLID
 10
155.0
 20
110.0
 30
0.0
 11
155.0
 21
115.0
 31
0.0
  0
LINE
  5
735
  8
0
  6
CADDY_SOLID
 10
155.0
 20
115.0
 30
0.0
 11
145.0
 21
115.0
 31
0.0
  0
LINE
  5
736
  8
0
  6
CADDY_SOLID
 10
145.0
 20
115.0
 30
0.0
 11
145.0
 21
110.0
 31
0.0
  0
ENDBLK
  8
0
  0
BLOCK
  8
0
  2
BLK170
 70
     0
 10
0.0
 20
0.0
 30
0.0
  0
LINE
  5
73B
  8
0
  6
CADDY_SOLID
 10
145.0
 20
105.0
 30
0.0
 11
155.0
 21
105.0
 31
0.0
  0
LINE
  5
73C
  8
0
  6
CADDY_SOLID
 10
155.0
 20
105.0
 30
0.0
 11
155.0
 21
110.0
 31
0.0
  0
LINE
  5
73D
  8
0
  6
CADDY_SOLID
 10
155.0
 20
110.0
 30
0.0
 11
145.0
 21
110.0
 31
0.0
  0
LINE
  5
73E
  8
0
  6
CADDY_SOLID
 10
145.0
 20
110.0
 30
0.0
 11
145.0
 21
105.0
 31
0.0
  0
ENDBLK
  8
0
  0
BLOCK
  8
0
  2
BLK171
 70
     0
 10
0.0
 20
0.0
 30
0.0
  0
LINE
  5
743
  8
0
  6
CADDY_SOLID
 10
145.0
 20
100.0
 30
0.0
 11
155.0
 21
100.0
 31
0.0
  0
LINE
  5
744
  8
0
  6
CADDY_SOLID
 10
155.0
 20
100.0
 30
0.0
 11
155.0
 21
105.0
 31
0.0
  0
LINE
  5
745
  8
0
  6
CADDY_SOLID
 10
155.0
 20
105.0
 30
0.0
 11
145.0
 21
105.0
 31
0.0
  0
LINE
  5
746
  8
0
  6
CADDY_SOLID
 10
145.0
 20
105.0
 30
0.0
 11
145.0
 21
100.0
 31
0.0
  0
ENDBLK
  8
0
  0
BLOCK
  8
0
  2
BLK172
 70
     0
 10
0.0
 20
0.0
 30
0.0
  0
LINE
  5
74B
  8
0
  6
CADDY_SOLID
 10
145.0
 20
95.0
 30
0.0
 11
155.0
 21
95.0
 31
0.0
  0
LINE
  5
74C
  8
0
  6
CADDY_SOLID
 10
155.0
 20
95.0
 30
0.0
 11
155.0
 21
100.0
 31
0.0
  0
LINE
  5
74D
  8
0
  6
CADDY_SOLID
 10
155.0
 20
100.0
 30
0.0
 11
145.0
 21
100.0
 31
0.0
  0
LINE
  5
74E
  8
0
  6
CADDY_SOLID
 10
145.0
 20
100.0
 30
0.0
 11
145.0
 21
95.0
 31
0.0
  0
ENDBLK
  8
0
  0
BLOCK
  8
0
  2
BLK173
 70
     0
 10
0.0
 20
0.0
 30
0.0
  0
LINE
  5
753
  8
0
  6
CADDY_SOLID
 10
145.0
 20
90.0
 30
0.0
 11
155.0
 21
90.0
 31
0.0
  0
LINE
  5
754
  8
0
  6
CADDY_SOLID
 10
155.0
 20
90.0
 30
0.0
 11
155.0
 21
95.0
 31
0.0
  0
LINE
  5
755
  8
0
  6
CADDY_SOLID
 10
155.0
 20
95.0
 30
0.0
 11
145.0
 21
95.0
 31
0.0
  0
LINE
  5
756
  8
0
  6
CADDY_SOLID
 10
145.0
 20
95.0
 30
0.0
 11
145.0
 21
90.0
 31
0.0
  0
ENDBLK
  8
0
  0
BLOCK
  8
0
  2
*U174
 70
     1
 10
0.0
 20
0.0
 30
0.0
  0
SOLID
  5
7C7
  8
0
  6
CONTINUOUS
 10
345.0
 20
150.0
 30
0.0
 11
345.0
 21
160.0
 31
0.0
 12
350.0
 22
155.0
 32
0.0
 13
350.0
 23
155.0
 33
0.0
  0
SOLID
  5
7C8
  8
0
  6
CONTINUOUS
 10
355.0
 20
150.0
 30
0.0
 11
350.0
 21
155.0
 31
0.0
 12
355.0
 22
160.0
 32
0.0
 13
355.0
 23
160.0
 33
0.0
  0
ENDBLK
  8
0
  0
BLOCK
  8
0
  2
*U175
 70
     1
 10
0.0
 20
0.0
 30
0.0
  0
SOLID
  5
7CF
  8
0
  6
CONTINUOUS
 10
350.0
 20
150.0
 30
0.0
 11
345.0
 21
150.0
 31
0.0
 12
350.0
 22
155.0
 32
0.0
 13
350.0
 23
155.0
 33
0.0
  0
SOLID
  5
7D0
  8
0
  6
CONTINUOUS
 10
350.0
 20
155.0
 30
0.0
 11
345.0
 21
160.0
 31
0.0
 12
350.0
 22
160.0
 32
0.0
 13
350.0
 23
160.0
 33
0.0
  0
SOLID
  5
7D1
  8
0
  6
CONTINUOUS
 10
350.0
 20
150.0
 30
0.0
 11
350.0
 21
155.0
 31
0.0
 12
355.0
 22
150.0
 32
0.0
 13
355.0
 23
150.0
 33
0.0
  0
SOLID
  5
7D2
  8
0
  6
CONTINUOUS
 10
350.0
 20
155.0
 30
0.0
 11
350.0
 21
160.0
 31
0.0
 12
355.0
 22
160.0
 32
0.0
 13
355.0
 23
160.0
 33
0.0
  0
ENDBLK
  8
0
  0
BLOCK
  8
0
  2
*U176
 70
     1
 10
0.0
 20
0.0
 30
0.0
  0
SOLID
  5
7D8
  8
0
  6
CONTINUOUS
 10
345.0
 20
145.0
 30
0.0
 11
345.0
 21
155.0
 31
0.0
 12
350.0
 22
150.0
 32
0.0
 13
350.0
 23
150.0
 33
0.0
  0
SOLID
  5
7D9
  8
0
  6
CONTINUOUS
 10
355.0
 20
145.0
 30
0.0
 11
350.0
 21
150.0
 31
0.0
 12
355.0
 22
155.0
 32
0.0
 13
355.0
 23
155.0
 33
0.0
  0
ENDBLK
  8
0
  0
BLOCK
  8
0
  2
*U177
 70
     1
 10
0.0
 20
0.0
 30
0.0
  0
SOLID
  5
7E0
  8
0
  6
CONTINUOUS
 10
350.0
 20
145.0
 30
0.0
 11
345.0
 21
145.0
 31
0.0
 12
350.0
 22
150.0
 32
0.0
 13
350.0
 23
150.0
 33
0.0
  0
SOLID
  5
7E1
  8
0
  6
CONTINUOUS
 10
350.0
 20
150.0
 30
0.0
 11
345.0
 21
155.0
 31
0.0
 12
350.0
 22
155.0
 32
0.0
 13
350.0
 23
155.0
 33
0.0
  0
SOLID
  5
7E2
  8
0
  6
CONTINUOUS
 10
350.0
 20
145.0
 30
0.0
 11
350.0
 21
150.0
 31
0.0
 12
355.0
 22
145.0
 32
0.0
 13
355.0
 23
145.0
 33
0.0
  0
SOLID
  5
7E3
  8
0
  6
CONTINUOUS
 10
350.0
 20
150.0
 30
0.0
 11
350.0
 21
155.0
 31
0.0
 12
355.0
 22
155.0
 32
0.0
 13
355.0
 23
155.0
 33
0.0
  0
ENDBLK
  8
0
  0
BLOCK
  8
0
  2
*U178
 70
     1
 10
0.0
 20
0.0
 30
0.0
  0
SOLID
  5
7E9
  8
0
  6
CONTINUOUS
 10
345.0
 20
130.0
 30
0.0
 11
345.0
 21
140.0
 31
0.0
 12
350.0
 22
135.0
 32
0.0
 13
350.0
 23
135.0
 33
0.0
  0
SOLID
  5
7EA
  8
0
  6
CONTINUOUS
 10
355.0
 20
130.0
 30
0.0
 11
350.0
 21
135.0
 31
0.0
 12
355.0
 22
140.0
 32
0.0
 13
355.0
 23
140.0
 33
0.0
  0
ENDBLK
  8
0
  0
BLOCK
  8
0
  2
*U179
 70
     1
 10
0.0
 20
0.0
 30
0.0
  0
SOLID
  5
7F1
  8
0
  6
CONTINUOUS
 10
350.0
 20
130.0
 30
0.0
 11
345.0
 21
130.0
 31
0.0
 12
350.0
 22
135.0
 32
0.0
 13
350.0
 23
135.0
 33
0.0
  0
SOLID
  5
7F2
  8
0
  6
CONTINUOUS
 10
350.0
 20
135.0
 30
0.0
 11
345.0
 21
140.0
 31
0.0
 12
350.0
 22
140.0
 32
0.0
 13
350.0
 23
140.0
 33
0.0
  0
SOLID
  5
7F3
  8
0
  6
CONTINUOUS
 10
350.0
 20
130.0
 30
0.0
 11
350.0
 21
135.0
 31
0.0
 12
355.0
 22
130.0
 32
0.0
 13
355.0
 23
130.0
 33
0.0
  0
SOLID
  5
7F4
  8
0
  6
CONTINUOUS
 10
350.0
 20
135.0
 30
0.0
 11
350.0
 21
140.0
 31
0.0
 12
355.0
 22
140.0
 32
0.0
 13
355.0
 23
140.0
 33
0.0
  0
ENDBLK
  8
0
  0
BLOCK
  8
0
  2
*U180
 70
     1
 10
0.0
 20
0.0
 30
0.0
  0
SOLID
  5
7FA
  8
0
  6
CONTINUOUS
 10
345.0
 20
125.0
 30
0.0
 11
345.0
 21
135.0
 31
0.0
 12
350.0
 22
130.0
 32
0.0
 13
350.0
 23
130.0
 33
0.0
  0
SOLID
  5
7FB
  8
0
  6
CONTINUOUS
 10
355.0
 20
125.0
 30
0.0
 11
350.0
 21
130.0
 31
0.0
 12
355.0
 22
135.0
 32
0.0
 13
355.0
 23
135.0
 33
0.0
  0
ENDBLK
  8
0
  0
BLOCK
  8
0
  2
*U181
 70
     1
 10
0.0
 20
0.0
 30
0.0
  0
SOLID
  5
802
  8
0
  6
CONTINUOUS
 10
350.0
 20
125.0
 30
0.0
 11
345.0
 21
125.0
 31
0.0
 12
350.0
 22
130.0
 32
0.0
 13
350.0
 23
130.0
 33
0.0
  0
SOLID
  5
803
  8
0
  6
CONTINUOUS
 10
350.0
 20
130.0
 30
0.0
 11
345.0
 21
135.0
 31
0.0
 12
350.0
 22
135.0
 32
0.0
 13
350.0
 23
135.0
 33
0.0
  0
SOLID
  5
804
  8
0
  6
CONTINUOUS
 10
350.0
 20
125.0
 30
0.0
 11
350.0
 21
130.0
 31
0.0
 12
355.0
 22
125.0
 32
0.0
 13
355.0
 23
125.0
 33
0.0
  0
SOLID
  5
805
  8
0
  6
CONTINUOUS
 10
350.0
 20
130.0
 30
0.0
 11
350.0
 21
135.0
 31
0.0
 12
355.0
 22
135.0
 32
0.0
 13
355.0
 23
135.0
 33
0.0
  0
ENDBLK
  8
0
  0
BLOCK
  8
0
  2
*U182
 70
     1
 10
0.0
 20
0.0
 30
0.0
  0
SOLID
  5
80B
  8
0
  6
CONTINUOUS
 10
345.0
 20
110.0
 30
0.0
 11
345.0
 21
120.0
 31
0.0
 12
350.0
 22
115.0
 32
0.0
 13
350.0
 23
115.0
 33
0.0
  0
SOLID
  5
80C
  8
0
  6
CONTINUOUS
 10
355.0
 20
110.0
 30
0.0
 11
350.0
 21
115.0
 31
0.0
 12
355.0
 22
120.0
 32
0.0
 13
355.0
 23
120.0
 33
0.0
  0
ENDBLK
  8
0
  0
BLOCK
  8
0
  2
*U183
 70
     1
 10
0.0
 20
0.0
 30
0.0
  0
SOLID
  5
813
  8
0
  6
CONTINUOUS
 10
350.0
 20
110.0
 30
0.0
 11
345.0
 21
110.0
 31
0.0
 12
350.0
 22
115.0
 32
0.0
 13
350.0
 23
115.0
 33
0.0
  0
SOLID
  5
814
  8
0
  6
CONTINUOUS
 10
350.0
 20
115.0
 30
0.0
 11
345.0
 21
120.0
 31
0.0
 12
350.0
 22
120.0
 32
0.0
 13
350.0
 23
120.0
 33
0.0
  0
SOLID
  5
815
  8
0
  6
CONTINUOUS
 10
350.0
 20
110.0
 30
0.0
 11
350.0
 21
115.0
 31
0.0
 12
355.0
 22
110.0
 32
0.0
 13
355.0
 23
110.0
 33
0.0
  0
SOLID
  5
816
  8
0
  6
CONTINUOUS
 10
350.0
 20
115.0
 30
0.0
 11
350.0
 21
120.0
 31
0.0
 12
355.0
 22
120.0
 32
0.0
 13
355.0
 23
120.0
 33
0.0
  0
ENDBLK
  8
0
  0
BLOCK
  8
0
  2
*U184
 70
     1
 10
0.0
 20
0.0
 30
0.0
  0
SOLID
  5
81C
  8
0
  6
CONTINUOUS
 10
345.0
 20
105.0
 30
0.0
 11
345.0
 21
115.0
 31
0.0
 12
350.0
 22
110.0
 32
0.0
 13
350.0
 23
110.0
 33
0.0
  0
SOLID
  5
81D
  8
0
  6
CONTINUOUS
 10
355.0
 20
105.0
 30
0.0
 11
350.0
 21
110.0
 31
0.0
 12
355.0
 22
115.0
 32
0.0
 13
355.0
 23
115.0
 33
0.0
  0
ENDBLK
  8
0
  0
BLOCK
  8
0
  2
*U185
 70
     1
 10
0.0
 20
0.0
 30
0.0
  0
SOLID
  5
824
  8
0
  6
CONTINUOUS
 10
350.0
 20
105.0
 30
0.0
 11
345.0
 21
105.0
 31
0.0
 12
350.0
 22
110.0
 32
0.0
 13
350.0
 23
110.0
 33
0.0
  0
SOLID
  5
825
  8
0
  6
CONTINUOUS
 10
350.0
 20
110.0
 30
0.0
 11
345.0
 21
115.0
 31
0.0
 12
350.0
 22
115.0
 32
0.0
 13
350.0
 23
115.0
 33
0.0
  0
SOLID
  5
826
  8
0
  6
CONTINUOUS
 10
350.0
 20
105.0
 30
0.0
 11
350.0
 21
110.0
 31
0.0
 12
355.0
 22
105.0
 32
0.0
 13
355.0
 23
105.0
 33
0.0
  0
SOLID
  5
827
  8
0
  6
CONTINUOUS
 10
350.0
 20
110.0
 30
0.0
 11
350.0
 21
115.0
 31
0.0
 12
355.0
 22
115.0
 32
0.0
 13
355.0
 23
115.0
 33
0.0
  0
ENDBLK
  8
0
  0
BLOCK
  8
0
  2
*U186
 70
     1
 10
0.0
 20
0.0
 30
0.0
  0
SOLID
  5
82D
  8
0
  6
CONTINUOUS
 10
345.0
 20
90.0
 30
0.0
 11
345.0
 21
100.0
 31
0.0
 12
350.0
 22
95.0
 32
0.0
 13
350.0
 23
95.0
 33
0.0
  0
SOLID
  5
82E
  8
0
  6
CONTINUOUS
 10
355.0
 20
90.0
 30
0.0
 11
350.0
 21
95.0
 31
0.0
 12
355.0
 22
100.0
 32
0.0
 13
355.0
 23
100.0
 33
0.0
  0
ENDBLK
  8
0
  0
BLOCK
  8
0
  2
*U187
 70
     1
 10
0.0
 20
0.0
 30
0.0
  0
SOLID
  5
835
  8
0
  6
CONTINUOUS
 10
350.0
 20
90.0
 30
0.0
 11
345.0
 21
90.0
 31
0.0
 12
350.0
 22
95.0
 32
0.0
 13
350.0
 23
95.0
 33
0.0
  0
SOLID
  5
836
  8
0
  6
CONTINUOUS
 10
350.0
 20
95.0
 30
0.0
 11
345.0
 21
100.0
 31
0.0
 12
350.0
 22
100.0
 32
0.0
 13
350.0
 23
100.0
 33
0.0
  0
SOLID
  5
837
  8
0
  6
CONTINUOUS
 10
350.0
 20
90.0
 30
0.0
 11
350.0
 21
95.0
 31
0.0
 12
355.0
 22
90.0
 32
0.0
 13
355.0
 23
90.0
 33
0.0
  0
SOLID
  5
838
  8
0
  6
CONTINUOUS
 10
350.0
 20
95.0
 30
0.0
 11
350.0
 21
100.0
 31
0.0
 12
355.0
 22
100.0
 32
0.0
 13
355.0
 23
100.0
 33
0.0
  0
ENDBLK
  8
0
  0
BLOCK
  8
0
  2
*U188
 70
     1
 10
0.0
 20
0.0
 30
0.0
  0
SOLID
  5
83E
  8
0
  6
CONTINUOUS
 10
345.0
 20
85.0
 30
0.0
 11
345.0
 21
95.0
 31
0.0
 12
350.0
 22
90.0
 32
0.0
 13
350.0
 23
90.0
 33
0.0
  0
SOLID
  5
83F
  8
0
  6
CONTINUOUS
 10
355.0
 20
85.0
 30
0.0
 11
350.0
 21
90.0
 31
0.0
 12
355.0
 22
95.0
 32
0.0
 13
355.0
 23
95.0
 33
0.0
  0
ENDBLK
  8
0
  0
BLOCK
  8
0
  2
*U189
 70
     1
 10
0.0
 20
0.0
 30
0.0
  0
SOLID
  5
846
  8
0
  6
CONTINUOUS
 10
350.0
 20
85.0
 30
0.0
 11
345.0
 21
85.0
 31
0.0
 12
350.0
 22
90.0
 32
0.0
 13
350.0
 23
90.0
 33
0.0
  0
SOLID
  5
847
  8
0
  6
CONTINUOUS
 10
350.0
 20
90.0
 30
0.0
 11
345.0
 21
95.0
 31
0.0
 12
350.0
 22
95.0
 32
0.0
 13
350.0
 23
95.0
 33
0.0
  0
SOLID
  5
848
  8
0
  6
CONTINUOUS
 10
350.0
 20
85.0
 30
0.0
 11
350.0
 21
90.0
 31
0.0
 12
355.0
 22
85.0
 32
0.0
 13
355.0
 23
85.0
 33
0.0
  0
SOLID
  5
849
  8
0
  6
CONTINUOUS
 10
350.0
 20
90.0
 30
0.0
 11
350.0
 21
95.0
 31
0.0
 12
355.0
 22
95.0
 32
0.0
 13
355.0
 23
95.0
 33
0.0
  0
ENDBLK
  8
0
  0
BLOCK
  8
0
  2
*U190
 70
     1
 10
0.0
 20
0.0
 30
0.0
  0
SOLID
  5
84E
  8
0
  6
CONTINUOUS
 10
335.0
 20
165.0
 30
0.0
 11
333.75
 21
165.0
 31
0.0
 12
335.0
 22
167.5
 32
0.0
 13
335.0
 23
167.5
 33
0.0
  0
SOLID
  5
84F
  8
0
  6
CONTINUOUS
 10
335.0
 20
165.0
 30
0.0
 11
335.0
 21
167.5
 31
0.0
 12
336.25
 22
165.0
 32
0.0
 13
336.25
 23
165.0
 33
0.0
  0
ENDBLK
  8
0
  0
BLOCK
  8
0
  2
*U191
 70
     1
 10
0.0
 20
0.0
 30
0.0
  0
SOLID
  5
854
  8
0
  6
CONTINUOUS
 10
337.5
 20
162.5
 30
0.0
 11
336.25
 21
165.0
 31
0.0
 12
337.5
 22
165.0
 32
0.0
 13
337.5
 23
165.0
 33
0.0
  0
SOLID
  5
855
  8
0
  6
CONTINUOUS
 10
337.5
 20
162.5
 30
0.0
 11
337.5
 21
165.0
 31
0.0
 12
338.75
 22
165.0
 32
0.0
 13
338.75
 23
165.0
 33
0.0
  0
ENDBLK
  8
0
  0
BLOCK
  8
0
  2
*U192
 70
     1
 10
0.0
 20
0.0
 30
0.0
  0
SOLID
  5
85B
  8
0
  6
CONTINUOUS
 10
342.5
 20
162.5
 30
0.0
 11
340.0
 21
165.0
 31
0.0
 12
342.5
 22
167.5
 32
0.0
 13
342.5
 23
167.5
 33
0.0
  0
SOLID
  5
85C
  8
0
  6
CONTINUOUS
 10
342.5
 20
162.5
 30
0.0
 11
342.5
 21
167.5
 31
0.0
 12
345.0
 22
165.0
 32
0.0
 13
345.0
 23
165.0
 33
0.0
  0
ENDBLK
  8
0
  0
ENDSEC
  0
SECTION
  2
ENTITIES
  0
INSERT
  5
43
  8
0
  2
BLK1
 10
0.0
 20
0.0
 30
1.0
  0
INSERT
  5
AF
  8
0
 66
     1
  2
BLK2
 10
0.0
 20
0.0
 30
1.0
  0
ATTRIB
  5
B0
  8
0
 10
50.27497482299805
 20
147.0500030517578
 30
0.0
 40
2.449996948242188
  1

 41
0.9
  7
CADDY_VECTORFONT1P
 72
     2
 11
50.27497482299805
 21
147.0500030517578
 31
0.0
  2
$TAG160030
 70
     0
  0
ATTRIB
  5
B3
  8
0
 10
64.30301239013671
 20
230.6999969482422
 30
0.0
 40
2.449996948242188
  1
D1801
 41
0.9
  7
CADDY_VECTORFONT1P
 72
     2
 11
71.80000305175781
 21
230.6999969482422
 31
0.0
  2
$TAG160010
 70
     0
  0
ATTRIB
  5
175
  8
0
 10
56.79999923706055
 20
147.1999969482422
 30
0.0
 40
2.449996948242188
  1

 41
0.9
  7
CADDY_VECTORFONT1P
 72
     2
 11
56.79999923706055
 21
147.1999969482422
 31
0.0
  2
$TAG175100
 70
     0
  0
ATTRIB
  5
177
  8
0
 10
56.79999923706055
 20
143.6999969482422
 30
0.0
 40
2.449996948242188
  1

 41
0.9
  7
CADDY_VECTORFONT1P
 72
     2
 11
56.79999923706055
 21
143.6999969482422
 31
0.0
  2
$TAG175110
 70
     0
  0
ATTRIB
  5
179
  8
0
 10
56.79999923706055
 20
140.6999969482422
 30
0.0
 40
2.449996948242188
  1

 41
0.9
  7
CADDY_VECTORFONT1P
 72
     2
 11
56.79999923706055
 21
140.6999969482422
 31
0.0
  2
$TAG175120
 70
     0
  0
ATTRIB
  5
17B
  8
0
 10
55.42849094543457
 20
137.1999969482422
 30
0.0
 40
2.449996948242188
  1
?
 41
0.9
  7
CADDY_VECTORFONT1P
 72
     2
 11
56.79999923706055
 21
137.1999969482422
 31
0.0
  2
$TAG160500
 70
     0
  0
ATTRIB
  5
17D
  8
0
 10
55.45274591522217
 20
157.6999969482422
 30
0.0
 40
2.449996948242188
  1
=
 41
0.9
  7
CADDY_VECTORFONT1P
 72
     2
 11
56.79999923706055
 21
157.6999969482422
 31
0.0
  2
$TAG140020
 70
     1
  0
ATTRIB
  5
17F
  8
0
 10
55.45274972991943
 20
154.1999969482422
 30
0.0
 40
2.449996948242188
  1
+
 41
0.9
  7
CADDY_VECTORFONT1P
 72
     2
 11
56.80000305175781
 21
154.1999969482422
 31
0.0
  2
$TAG140050
 70
     1
  0
ATTRIB
  5
181
  8
0
 10
48.69999313354492
 20
147.0500030517578
 30
0.0
 40
2.449996948242188
  1

 41
0.9
  7
CADDY_VECTORFONT1P
 72
     2
 11
48.69999313354492
 21
147.0500030517578
 31
0.0
  2
$TAG160030
 70
     0
  0
ATTRIB
  5
183
  8
0
 10
48.69999313354492
 20
143.5500030517578
 30
0.0
 40
2.449996948242188
  1

 41
0.9
  7
CADDY_VECTORFONT1P
 72
     2
 11
48.69999313354492
 21
143.5500030517578
 31
0.0
  2
$TAG160040
 70
     1
  0
SEQEND
  5
B1
  8
0
  0
INSERT
  5
188
  8
0
 66
     1
  2
BLK24
 10
0.0
 20
0.0
 30
1.0
  0
ATTRIB
  5
189
  8
0
 10
170.2749786376953
 20
147.0500030517578
 30
0.0
 40
2.449996948242188
  1

 41
0.9
  7
CADDY_VECTORFONT1P
 72
     2
 11
170.2749786376953
 21
147.0500030517578
 31
0.0
  2
$TAG160030
 70
     0
  0
ATTRIB
  5
24C
  8
0
 10
183.5930032745361
 20
230.6999969482422
 30
0.0
 40
2.449996948242188
  1
D1804
 41
0.9
  7
CADDY_VECTORFONT1P
 72
     2
 11
191.8000030517578
 21
230.6999969482422
 31
0.0
  2
$TAG160010
 70
     0
  0
ATTRIB
  5
24E
  8
0
 10
176.8000030517578
 20
147.1999969482422
 30
0.0
 40
2.449996948242188
  1

 41
0.9
  7
CADDY_VECTORFONT1P
 72
     2
 11
176.8000030517578
 21
147.1999969482422
 31
0.0
  2
$TAG175100
 70
     0
  0
ATTRIB
  5
250
  8
0
 10
176.8000030517578
 20
143.6999969482422
 30
0.0
 40
2.449996948242188
  1

 41
0.9
  7
CADDY_VECTORFONT1P
 72
     2
 11
176.8000030517578
 21
143.6999969482422
 31
0.0
  2
$TAG175110
 70
     0
  0
ATTRIB
  5
252
  8
0
 10
176.8000030517578
 20
140.6999969482422
 30
0.0
 40
2.449996948242188
  1

 41
0.9
  7
CADDY_VECTORFONT1P
 72
     2
 11
176.8000030517578
 21
140.6999969482422
 31
0.0
  2
$TAG175120
 70
     0
  0
ATTRIB
  5
254
  8
0
 10
175.4284947601318
 20
137.1999969482422
 30
0.0
 40
2.449996948242188
  1
?
 41
0.9
  7
CADDY_VECTORFONT1P
 72
     2
 11
176.8000030517578
 21
137.1999969482422
 31
0.0
  2
$TAG160500
 70
     0
  0
ATTRIB
  5
256
  8
0
 10
175.4527497299194
 20
157.6999969482422
 30
0.0
 40
2.449996948242188
  1
=
 41
0.9
  7
CADDY_VECTORFONT1P
 72
     2
 11
176.8000030517578
 21
157.6999969482422
 31
0.0
  2
$TAG140020
 70
     1
  0
ATTRIB
  5
258
  8
0
 10
175.4527344711304
 20
154.1999969482422
 30
0.0
 40
2.449996948242188
  1
+
 41
0.9
  7
CADDY_VECTORFONT1P
 72
     2
 11
176.7999877929688
 21
154.1999969482422
 31
0.0
  2
$TAG140050
 70
     1
  0
ATTRIB
  5
25A
  8
0
 10
170.2749786376953
 20
147.0500030517578
 30
0.0
 40
2.449996948242188
  1

 41
0.9
  7
CADDY_VECTORFONT1P
 72
     2
 11
170.2749786376953
 21
147.0500030517578
 31
0.0
  2
$TAG160030
 70
     0
  0
ATTRIB
  5
25C
  8
0
 10
166.9349822998047
 20
138.0749969482422
 30
0.0
 40
2.449996948242188
  1

 41
0.9
  7
CADDY_VECTORFONT1P
 72
     2
 11
166.9349822998047
 21
138.0749969482422
 31
0.0
  2
$TAG160040
 70
     1
  0
SEQEND
  5
18A
  8
0
  0
INSERT
  5
261
  8
0
 66
     1
  2
BLK46
 10
0.0
 20
0.0
 30
1.0
  0
ATTRIB
  5
262
  8
0
 10
210.2749786376953
 20
147.0500030517578
 30
0.0
 40
2.449996948242188
  1

 41
0.9
  7
CADDY_VECTORFONT1P
 72
     2
 11
210.2749786376953
 21
147.0500030517578
 31
0.0
  2
$TAG160030
 70
     0
  0
ATTRIB
  5
325
  8
0
 10
223.8135029998779
 20
230.6999969482422
 30
0.0
 40
2.449996948242188
  1
D1805
 41
0.9
  7
CADDY_VECTORFONT1P
 72
     2
 11
231.8000030517578
 21
230.6999969482422
 31
0.0
  2
$TAG160010
 70
     0
  0
ATTRIB
  5
327
  8
0
 10
216.8000030517578
 20
147.1999969482422
 30
0.0
 40
2.449996948242188
  1

 41
0.9
  7
CADDY_VECTORFONT1P
 72
     2
 11
216.8000030517578
 21
147.1999969482422
 31
0.0
  2
$TAG175100
 70
     0
  0
ATTRIB
  5
329
  8
0
 10
216.8000030517578
 20
143.6999969482422
 30
0.0
 40
2.449996948242188
  1

 41
0.9
  7
CADDY_VECTORFONT1P
 72
     2
 11
216.8000030517578
 21
143.6999969482422
 31
0.0
  2
$TAG175110
 70
     0
  0
ATTRIB
  5
32B
  8
0
 10
216.8000030517578
 20
140.6999969482422
 30
0.0
 40
2.449996948242188
  1

 41
0.9
  7
CADDY_VECTORFONT1P
 72
     2
 11
216.8000030517578
 21
140.6999969482422
 31
0.0
  2
$TAG175120
 70
     0
  0
ATTRIB
  5
32D
  8
0
 10
215.4284947601318
 20
137.1999969482422
 30
0.0
 40
2.449996948242188
  1
?
 41
0.9
  7
CADDY_VECTORFONT1P
 72
     2
 11
216.8000030517578
 21
137.1999969482422
 31
0.0
  2
$TAG160500
 70
     0
  0
ATTRIB
  5
32F
  8
0
 10
215.4527497299194
 20
157.6999969482422
 30
0.0
 40
2.449996948242188
  1
=
 41
0.9
  7
CADDY_VECTORFONT1P
 72
     2
 11
216.8000030517578
 21
157.6999969482422
 31
0.0
  2
$TAG140020
 70
     1
  0
ATTRIB
  5
331
  8
0
 10
215.4527344711304
 20
154.1999969482422
 30
0.0
 40
2.449996948242188
  1
+
 41
0.9
  7
CADDY_VECTORFONT1P
 72
     2
 11
216.7999877929688
 21
154.1999969482422
 31
0.0
  2
$TAG140050
 70
     1
  0
ATTRIB
  5
333
  8
0
 10
210.2749786376953
 20
147.0500030517578
 30
0.0
 40
2.449996948242188
  1

 41
0.9
  7
CADDY_VECTORFONT1P
 72
     2
 11
210.2749786376953
 21
147.0500030517578
 31
0.0
  2
$TAG160030
 70
     0
  0
ATTRIB
  5
335
  8
0
 10
206.9349822998047
 20
138.0749969482422
 30
0.0
 40
2.449996948242188
  1

 41
0.9
  7
CADDY_VECTORFONT1P
 72
     2
 11
206.9349822998047
 21
138.0749969482422
 31
0.0
  2
$TAG160040
 70
     1
  0
SEQEND
  5
263
  8
0
  0
INSERT
  5
33A
  8
0
 66
     1
  2
BLK68
 10
0.0
 20
0.0
 30
1.0
  0
ATTRIB
  5
33B
  8
0
 10
250.2749786376953
 20
147.0500030517578
 30
0.0
 40
2.449996948242188
  1

 41
0.9
  7
CADDY_VECTORFONT1P
 72
     2
 11
250.2749786376953
 21
147.0500030517578
 31
0.0
  2
$TAG160030
 70
     0
  0
ATTRIB
  5
3FE
  8
0
 10
263.8134877410889
 20
230.6999969482422
 30
0.0
 40
2.449996948242188
  1
D1806
 41
0.9
  7
CADDY_VECTORFONT1P
 72
     2
 11
271.7999877929688
 21
230.6999969482422
 31
0.0
  2
$TAG160010
 70
     0
  0
ATTRIB
  5
400
  8
0
 10
256.8000183105469
 20
147.1999969482422
 30
0.0
 40
2.449996948242188
  1

 41
0.9
  7
CADDY_VECTORFONT1P
 72
     2
 11
256.8000183105469
 21
147.1999969482422
 31
0.0
  2
$TAG175100
 70
     0
  0
ATTRIB
  5
402
  8
0
 10
256.8000183105469
 20
143.6999969482422
 30
0.0
 40
2.449996948242188
  1

 41
0.9
  7
CADDY_VECTORFONT1P
 72
     2
 11
256.8000183105469
 21
143.6999969482422
 31
0.0
  2
$TAG175110
 70
     0
  0
ATTRIB
  5
404
  8
0
 10
256.8000183105469
 20
140.6999969482422
 30
0.0
 40
2.449996948242188
  1

 41
0.9
  7
CADDY_VECTORFONT1P
 72
     2
 11
256.8000183105469
 21
140.6999969482422
 31
0.0
  2
$TAG175120
 70
     0
  0
ATTRIB
  5
406
  8
0
 10
255.4284795013428
 20
137.1999969482422
 30
0.0
 40
2.449996948242188
  1
?
 41
0.9
  7
CADDY_VECTORFONT1P
 72
     2
 11
256.7999877929688
 21
137.1999969482422
 31
0.0
  2
$TAG160500
 70
     0
  0
ATTRIB
  5
408
  8
0
 10
255.4527344711304
 20
157.6999969482422
 30
0.0
 40
2.449996948242188
  1
=
 41
0.9
  7
CADDY_VECTORFONT1P
 72
     2
 11
256.7999877929688
 21
157.6999969482422
 31
0.0
  2
$TAG140020
 70
     1
  0
ATTRIB
  5
40A
  8
0
 10
255.4527344711304
 20
154.1999969482422
 30
0.0
 40
2.449996948242188
  1
+
 41
0.9
  7
CADDY_VECTORFONT1P
 72
     2
 11
256.7999877929688
 21
154.1999969482422
 31
0.0
  2
$TAG140050
 70
     1
  0
ATTRIB
  5
40C
  8
0
 10
250.2749786376953
 20
147.0500030517578
 30
0.0
 40
2.449996948242188
  1

 41
0.9
  7
CADDY_VECTORFONT1P
 72
     2
 11
250.2749786376953
 21
147.0500030517578
 31
0.0
  2
$TAG160030
 70
     0
  0
ATTRIB
  5
40E
  8
0
 10
246.9349822998047
 20
138.0749969482422
 30
0.0
 40
2.449996948242188
  1

 41
0.9
  7
CADDY_VECTORFONT1P
 72
     2
 11
246.9349822998047
 21
138.0749969482422
 31
0.0
  2
$TAG160040
 70
     1
  0
SEQEND
  5
33C
  8
0
  0
INSERT
  5
413
  8
0
 66
     1
  2
BLK90
 10
0.0
 20
0.0
 30
1.0
  0
ATTRIB
  5
4D9
  8
0
 10
343.8134877410889
 20
230.6999969482422
 30
0.0
 40
2.449996948242188
  1
D1808
 41
0.9
  7
CADDY_VECTORFONT1P
 72
     2
 11
351.7999877929688
 21
230.6999969482422
 31
0.0
  2
$TAG160010
 70
     0
  0
ATTRIB
  5
4DC
  8
0
 10
326.8000183105469
 20
147.1999969482422
 30
0.0
 40
2.449996948242188
  1

 41
0.9
  7
CADDY_VECTORFONT1P
 72
     2
 11
326.8000183105469
 21
147.1999969482422
 31
0.0
  2
$TAG160030
 70
     0
  0
ATTRIB
  5
4DE
  8
0
 10
326.8000183105469
 20
143.6999969482422
 30
0.0
 40
2.449996948242188
  1

 41
0.9
  7
CADDY_VECTORFONT1P
 72
     2
 11
326.8000183105469
 21
143.6999969482422
 31
0.0
  2
$TAG160040
 70
     1
  0
ATTRIB
  5
4E0
  8
0
 10
325.4527344711304
 20
157.6999969482422
 30
0.0
 40
2.449996948242188
  1
=
 41
0.9
  7
CADDY_VECTORFONT1P
 72
     2
 11
326.7999877929688
 21
157.6999969482422
 31
0.0
  2
$TAG140020
 70
     1
  0
ATTRIB
  5
4E2
  8
0
 10
325.4527649887085
 20
154.1999969482422
 30
0.0
 40
2.449996948242188
  1
+
 41
0.9
  7
CADDY_VECTORFONT1P
 72
     2
 11
326.8000183105469
 21
154.1999969482422
 31
0.0
  2
$TAG140050
 70
     1
  0
SEQEND
  5
4DA
  8
0
  0
INSERT
  5
4E7
  8
0
 66
     1
  2
BLK108
 10
0.0
 20
0.0
 30
1.0
  0
ATTRIB
  5
4E8
  8
0
 10
290.2749938964844
 20
147.0500030517578
 30
0.0
 40
2.449996948242188
  1

 41
0.9
  7
CADDY_VECTORFONT1P
 72
     2
 11
290.2749938964844
 21
147.0500030517578
 31
0.0
  2
$TAG160030
 70
     0
  0
ATTRIB
  5
5AB
  8
0
 10
303.8068727493286
 20
230.6999969482422
 30
0.0
 40
2.449996948242188
  1
D1807
 41
0.9
  7
CADDY_VECTORFONT1P
 72
     2
 11
311.7999877929688
 21
230.6999969482422
 31
0.0
  2
$TAG160010
 70
     0
  0
ATTRIB
  5
5AD
  8
0
 10
296.8000183105469
 20
147.1999969482422
 30
0.0
 40
2.449996948242188
  1

 41
0.9
  7
CADDY_VECTORFONT1P
 72
     2
 11
296.8000183105469
 21
147.1999969482422
 31
0.0
  2
$TAG175100
 70
     0
  0
ATTRIB
  5
5AF
  8
0
 10
296.8000183105469
 20
143.6999969482422
 30
0.0
 40
2.449996948242188
  1

 41
0.9
  7
CADDY_VECTORFONT1P
 72
     2
 11
296.8000183105469
 21
143.6999969482422
 31
0.0
  2
$TAG175110
 70
     0
  0
ATTRIB
  5
5B1
  8
0
 10
296.8000183105469
 20
140.6999969482422
 30
0.0
 40
2.449996948242188
  1

 41
0.9
  7
CADDY_VECTORFONT1P
 72
     2
 11
296.8000183105469
 21
140.6999969482422
 31
0.0
  2
$TAG175120
 70
     0
  0
ATTRIB
  5
5B3
  8
0
 10
295.4284795013428
 20
137.1999969482422
 30
0.0
 40
2.449996948242188
  1
?
 41
0.9
  7
CADDY_VECTORFONT1P
 72
     2
 11
296.7999877929688
 21
137.1999969482422
 31
0.0
  2
$TAG160500
 70
     0
  0
ATTRIB
  5
5B5
  8
0
 10
295.4527344711304
 20
157.6999969482422
 30
0.0
 40
2.449996948242188
  1
=
 41
0.9
  7
CADDY_VECTORFONT1P
 72
     2
 11
296.7999877929688
 21
157.6999969482422
 31
0.0
  2
$TAG140020
 70
     1
  0
ATTRIB
  5
5B7
  8
0
 10
295.4527649887085
 20
154.1999969482422
 30
0.0
 40
2.449996948242188
  1
+
 41
0.9
  7
CADDY_VECTORFONT1P
 72
     2
 11
296.8000183105469
 21
154.1999969482422
 31
0.0
  2
$TAG140050
 70
     1
  0
ATTRIB
  5
5B9
  8
0
 10
290.2749938964844
 20
147.0500030517578
 30
0.0
 40
2.449996948242188
  1

 41
0.9
  7
CADDY_VECTORFONT1P
 72
     2
 11
290.2749938964844
 21
147.0500030517578
 31
0.0
  2
$TAG160030
 70
     0
  0
ATTRIB
  5
5BB
  8
0
 10
286.9349975585938
 20
138.0749969482422
 30
0.0
 40
2.449996948242188
  1

 41
0.9
  7
CADDY_VECTORFONT1P
 72
     2
 11
286.9349975585938
 21
138.0749969482422
 31
0.0
  2
$TAG160040
 70
     1
  0
SEQEND
  5
4E9
  8
0
  0
INSERT
  5
5C0
  8
0
 66
     1
  2
BLK130
 10
0.0
 20
0.0
 30
1.0
  0
ATTRIB
  5
5C1
  8
0
 10
90.27497100830078
 20
147.0500030517578
 30
0.0
 40
2.449996948242188
  1

 41
0.9
  7
CADDY_VECTORFONT1P
 72
     2
 11
90.27497100830078
 21
147.0500030517578
 31
0.0
  2
$TAG160030
 70
     0
  0
ATTRIB
  5
5C4
  8
0
 10
103.8289379806519
 20
230.6999969482422
 30
0.0
 40
2.449996948242188
  1
D1802
 41
0.9
  7
CADDY_VECTORFONT1P
 72
     2
 11
111.8000030517578
 21
230.6999969482422
 31
0.0
  2
$TAG160010
 70
     0
  0
ATTRIB
  5
686
  8
0
 10
96.79999542236328
 20
147.1999969482422
 30
0.0
 40
2.449996948242188
  1

 41
0.9
  7
CADDY_VECTORFONT1P
 72
     2
 11
96.79999542236328
 21
147.1999969482422
 31
0.0
  2
$TAG175100
 70
     0
  0
ATTRIB
  5
688
  8
0
 10
96.79999542236328
 20
143.6999969482422
 30
0.0
 40
2.449996948242188
  1

 41
0.9
  7
CADDY_VECTORFONT1P
 72
     2
 11
96.79999542236328
 21
143.6999969482422
 31
0.0
  2
$TAG175110
 70
     0
  0
ATTRIB
  5
68A
  8
0
 10
96.79999542236328
 20
140.6999969482422
 30
0.0
 40
2.449996948242188
  1

 41
0.9
  7
CADDY_VECTORFONT1P
 72
     2
 11
96.79999542236328
 21
140.6999969482422
 31
0.0
  2
$TAG175120
 70
     0
  0
ATTRIB
  5
68C
  8
0
 10
95.42849476013184
 20
137.1999969482422
 30
0.0
 40
2.449996948242188
  1
?
 41
0.9
  7
CADDY_VECTORFONT1P
 72
     2
 11
96.80000305175781
 21
137.1999969482422
 31
0.0
  2
$TAG160500
 70
     0
  0
ATTRIB
  5
68E
  8
0
 10
95.45274972991943
 20
157.6999969482422
 30
0.0
 40
2.449996948242188
  1
=
 41
0.9
  7
CADDY_VECTORFONT1P
 72
     2
 11
96.80000305175781
 21
157.6999969482422
 31
0.0
  2
$TAG140020
 70
     1
  0
ATTRIB
  5
690
  8
0
 10
95.4527421005249
 20
154.1999969482422
 30
0.0
 40
2.449996948242188
  1
+
 41
0.9
  7
CADDY_VECTORFONT1P
 72
     2
 11
96.79999542236328
 21
154.1999969482422
 31
0.0
  2
$TAG140050
 70
     1
  0
ATTRIB
  5
692
  8
0
 10
88.69998931884766
 20
147.0500030517578
 30
0.0
 40
2.449996948242188
  1

 41
0.9
  7
CADDY_VECTORFONT1P
 72
     2
 11
88.69998931884766
 21
147.0500030517578
 31
0.0
  2
$TAG160030
 70
     0
  0
ATTRIB
  5
694
  8
0
 10
88.69998931884766
 20
143.5500030517578
 30
0.0
 40
2.449996948242188
  1

 41
0.9
  7
CADDY_VECTORFONT1P
 72
     2
 11
88.69998931884766
 21
143.5500030517578
 31
0.0
  2
$TAG160040
 70
     1
  0
SEQEND
  5
5C2
  8
0
  0
INSERT
  5
699
  8
0
 66
     1
  2
BLK152
 10
0.0
 20
0.0
 30
1.0
  0
ATTRIB
  5
69A
  8
0
 10
130.2749786376953
 20
147.0500030517578
 30
0.0
 40
2.449996948242188
  1

 41
0.9
  7
CADDY_VECTORFONT1P
 72
     2
 11
130.2749786376953
 21
147.0500030517578
 31
0.0
  2
$TAG160030
 70
     0
  0
ATTRIB
  5
69D
  8
0
 10
143.8135029998779
 20
230.6999969482422
 30
0.0
 40
2.449996948242188
  1
D1803
 41
0.9
  7
CADDY_VECTORFONT1P
 72
     2
 11
151.8000030517578
 21
230.6999969482422
 31
0.0
  2
$TAG160010
 70
     0
  0
ATTRIB
  5
75F
  8
0
 10
136.8000030517578
 20
147.1999969482422
 30
0.0
 40
2.449996948242188
  1

 41
0.9
  7
CADDY_VECTORFONT1P
 72
     2
 11
136.8000030517578
 21
147.1999969482422
 31
0.0
  2
$TAG175100
 70
     0
  0
ATTRIB
  5
761
  8
0
 10
136.8000030517578
 20
143.6999969482422
 30
0.0
 40
2.449996948242188
  1

 41
0.9
  7
CADDY_VECTORFONT1P
 72
     2
 11
136.8000030517578
 21
143.6999969482422
 31
0.0
  2
$TAG175110
 70
     0
  0
ATTRIB
  5
763
  8
0
 10
136.8000030517578
 20
140.6999969482422
 30
0.0
 40
2.449996948242188
  1

 41
0.9
  7
CADDY_VECTORFONT1P
 72
     2
 11
136.8000030517578
 21
140.6999969482422
 31
0.0
  2
$TAG175120
 70
     0
  0
ATTRIB
  5
765
  8
0
 10
135.4284947601318
 20
137.1999969482422
 30
0.0
 40
2.449996948242188
  1
?
 41
0.9
  7
CADDY_VECTORFONT1P
 72
     2
 11
136.8000030517578
 21
137.1999969482422
 31
0.0
  2
$TAG160500
 70
     0
  0
ATTRIB
  5
767
  8
0
 10
135.4527497299194
 20
157.6999969482422
 30
0.0
 40
2.449996948242188
  1
=
 41
0.9
  7
CADDY_VECTORFONT1P
 72
     2
 11
136.8000030517578
 21
157.6999969482422
 31
0.0
  2
$TAG140020
 70
     1
  0
ATTRIB
  5
769
  8
0
 10
135.4527344711304
 20
154.1999969482422
 30
0.0
 40
2.449996948242188
  1
+
 41
0.9
  7
CADDY_VECTORFONT1P
 72
     2
 11
136.7999877929688
 21
154.1999969482422
 31
0.0
  2
$TAG140050
 70
     1
  0
ATTRIB
  5
76B
  8
0
 10
128.6999969482422
 20
147.0500030517578
 30
0.0
 40
2.449996948242188
  1

 41
0.9
  7
CADDY_VECTORFONT1P
 72
     2
 11
128.6999969482422
 21
147.0500030517578
 31
0.0
  2
$TAG160030
 70
     0
  0
ATTRIB
  5
76D
  8
0
 10
128.6999969482422
 20
143.5500030517578
 30
0.0
 40
2.449996948242188
  1

 41
0.9
  7
CADDY_VECTORFONT1P
 72
     2
 11
128.6999969482422
 21
143.5500030517578
 31
0.0
  2
$TAG160040
 70
     1
  0
SEQEND
  5
69B
  8
0
  0
TEXT
  5
76F
  8
0
 10
60.70000076293945
 20
70.69999694824219
 30
0.0
 40
2.450004577636719
  1
Digital in
 41
0.9
  7
CADDY_VECTORFONT1P
  0
TEXT
  5
770
  8
0
 10
105.6999969482422
 20
70.69999694824219
 30
0.0
 40
2.450004577636719
  1
Digital in
 41
0.9
  7
CADDY_VECTORFONT1P
  0
TEXT
  5
771
  8
0
 10
140.6999969482422
 20
70.69999694824219
 30
0.0
 40
2.450004577636719
  1
Digital in
 41
0.9
  7
CADDY_VECTORFONT1P
  0
TEXT
  5
772
  8
0
 10
180.6999969482422
 20
70.69999694824219
 30
0.0
 40
2.450004577636719
  1
Digital out
 41
0.9
  7
CADDY_VECTORFONT1P
  0
TEXT
  5
773
  8
0
 10
220.6999969482422
 20
70.69999694824219
 30
0.0
 40
2.450004577636719
  1
Digital out
 41
0.9
  7
CADDY_VECTORFONT1P
  0
TEXT
  5
774
  8
0
 10
260.7000122070312
 20
70.69999694824219
 30
0.0
 40
2.450004577636719
  1
Digital out
 41
0.9
  7
CADDY_VECTORFONT1P
  0
TEXT
  5
775
  8
0
 10
300.7000122070312
 20
70.69999694824219
 30
0.0
 40
2.450004577636719
  1
Digital out
 41
0.9
  7
CADDY_VECTORFONT1P
  0
ENDSEC
  0
EOF
