  0
SECTION
  2
HEADER
  9
$ACADVER
  1
AC1006
  9
$DWGCODEPAGE
  3
ansi_1252
  9
$INSBASE
 10
0.0
 20
0.0
 30
0.0
  9
$EXTMIN
 10
0.0
 20
0.0
  9
$EXTMAX
 10
420.0
 20
297.0
  9
$LIMMIN
 10
0.0
 20
0.0
  9
$LIMMAX
 10
420.0
 20
297.0
  9
$ORTHOMODE
 70
     0
  9
$REGENMODE
 70
     1
  9
$FILLMODE
 70
     1
  9
$QTEXTMODE
 70
     0
  9
$MIRRTEXT
 70
     1
  9
$DRAGMODE
 70
     2
  9
$LTSCALE
 40
1.0
  9
$OSMODE
 70
    37
  9
$ATTMODE
 70
     1
  9
$TEXTSIZE
 40
2.5
  9
$TRACEWID
 40
1.0
  9
$TEXTSTYLE
  7
STANDARD
  9
$CLAYER
  8
0
  9
$CELTYPE
  6
BYLAYER
  9
$CECOLOR
 62
   256
  9
$DIMSCALE
 40
1.0
  9
$DIMASZ
 40
2.5
  9
$DIMEXO
 40
0.625
  9
$DIMDLI
 40
3.75
  9
$DIMRND
 40
0.0
  9
$DIMDLE
 40
0.0
  9
$DIMEXE
 40
1.25
  9
$DIMTP
 40
0.0
  9
$DIMTM
 40
0.0
  9
$DIMTXT
 40
2.5
  9
$DIMCEN
 40
2.5
  9
$DIMTSZ
 40
0.0
  9
$DIMTOL
 70
     0
  9
$DIMLIM
 70
     0
  9
$DIMTIH
 70
     0
  9
$DIMTOH
 70
     0
  9
$DIMSE1
 70
     0
  9
$DIMSE2
 70
     0
  9
$DIMTAD
 70
     1
  9
$DIMZIN
 70
     8
  9
$DIMBLK
  1

  9
$DIMASO
 70
     1
  9
$DIMSHO
 70
     1
  9
$DIMPOST
  1

  9
$DIMAPOST
  1

  9
$DIMALT
 70
     0
  9
$DIMALTD
 70
     3
  9
$DIMALTF
 40
0.03937007874016
  9
$DIMLFAC
 40
1.0
  9
$DIMTOFL
 70
     1
  9
$DIMTVP
 40
0.0
  9
$DIMTIX
 70
     0
  9
$DIMSOXD
 70
     0
  9
$DIMSAH
 70
     0
  9
$DIMBLK1
  1

  9
$DIMBLK2
  1

  9
$LUNITS
 70
     2
  9
$LUPREC
 70
     4
  9
$SKETCHINC
 40
1.0
  9
$FILLETRAD
 40
10.0
  9
$AUNITS
 70
     0
  9
$AUPREC
 70
     0
  9
$MENU
  1
.
  9
$ELEVATION
 40
0.0
  9
$THICKNESS
 40
0.0
  9
$LIMCHECK
 70
     0
  9
$CHAMFERA
 40
10.0
  9
$CHAMFERB
 40
10.0
  9
$SKPOLY
 70
     0
  9
$TDCREATE
 40
2451930.666666667
  9
$TDUPDATE
 40
2460738.482469977
  9
$TDINDWG
 40
0.0000000116
  9
$TDUSRTIMER
 40
0.0000000116
  9
$USRTIMER
 70
     1
  9
$ANGBASE
 50
0.0
  9
$ANGDIR
 70
     0
  9
$PDMODE
 70
     0
  9
$PDSIZE
 40
0.0
  9
$PLINEWID
 40
0.0
  9
$COORDS
 70
     1
  9
$SPLFRAME
 70
     0
  9
$SPLINETYPE
 70
     6
  9
$SPLINESEGS
 70
     8
  9
$ATTDIA
 70
     0
  9
$ATTREQ
 70
     1
  9
$HANDLING
 70
     1
  9
$HANDSEED
  5
436
  9
$SURFTAB1
 70
     6
  9
$SURFTAB2
 70
     6
  9
$SURFTYPE
 70
     6
  9
$SURFU
 70
     6
  9
$SURFV
 70
     6
  9
$UCSNAME
  2

  9
$UCSORG
 10
0.0
 20
0.0
 30
0.0
  9
$UCSXDIR
 10
1.0
 20
0.0
 30
0.0
  9
$UCSYDIR
 10
0.0
 20
1.0
 30
0.0
  9
$USERI1
 70
     0
  9
$USERI2
 70
     0
  9
$USERI3
 70
     0
  9
$USERI4
 70
     0
  9
$USERI5
 70
     0
  9
$USERR1
 40
0.0
  9
$USERR2
 40
0.0
  9
$USERR3
 40
0.0
  9
$USERR4
 40
0.0
  9
$USERR5
 40
0.0
  9
$WORLDVIEW
 70
     1
  0
ENDSEC
  0
SECTION
  2
TABLES
  0
TABLE
  2
VPORT
 70
     1
  0
VPORT
  2
*ACTIVE
 70
     0
 10
0.0
 20
0.0
 11
1.0
 21
1.0
 12
210.0
 22
142.5
 13
0.0
 23
0.0
 14
10.0
 24
10.0
 15
10.0
 25
10.0
 16
0.0
 26
0.0
 36
1.0
 17
0.0
 27
0.0
 37
0.0
 40
270.3
 41
1.972972972850329
 42
50.0
 43
0.0
 44
0.0
 50
0.0
 51
0.0
 71
     0
 72
   100
 73
     1
 74
     3
 75
     0
 76
     0
 77
     0
 78
     0
  0
ENDTAB
  0
TABLE
  2
LTYPE
 70
     6
  0
LTYPE
  2
CONTINUOUS
 70
     0
  3
Solid line
 72
    65
 73
     0
 40
0.0
  0
LTYPE
  2
CADDY_SOLID
 70
     0
  3
____________
 72
    65
 73
     0
 40
0.0
  0
LTYPE
  2
CADDY_DOT
 70
     0
  3
. . . . . . 
 72
    65
 73
     2
 40
2.0
 49
0.5
 49
-1.5
  0
LTYPE
  2
CADDY_DASH
 70
     0
  3
_ _ _ _ _ _ 
 72
    65
 73
     2
 40
3.5
 49
2.0
 49
-1.5
  0
LTYPE
  2
CADDY_DASHDOT
 70
     0
  3
_ . _ . _ . 
 72
    65
 73
     4
 40
5.5
 49
0.5
 49
-1.5
 49
2.0
 49
-1.5
  0
LTYPE
  2
CADDY_DASHDOTDOT
 70
     0
  3
_ . . _ . . 
 72
    65
 73
     6
 40
7.5
 49
2.0
 49
-1.5
 49
0.5
 49
-1.5
 49
0.5
 49
-1.5
  0
ENDTAB
  0
TABLE
  2
LAYER
 70
     2
  0
LAYER
  2
0
 70
     0
 62
     7
  6
CONTINUOUS
  0
LAYER
  2
2
 70
     0
 62
     7
  6
CONTINUOUS
  0
ENDTAB
  0
TABLE
  2
STYLE
 70
    17
  0
STYLE
  2
STANDARD
 70
     0
 40
0.0
 41
1.0
 50
0.0
 71
     0
 42
2.5
  3
txt
  4

  0
STYLE
  2
CADDY_VECTORFONT1P
 70
     0
 40
0.0
 41
0.9
 50
0.0
 71
     0
 42
0.2
  3
isocp___.ttf
  4

  0
STYLE
  2
CADDY_VECTORFONT1N
 70
     0
 40
0.0
 41
1.100000023841858
 50
0.0
 71
     0
 42
0.2
  3

  4

  0
STYLE
  2
CADDY_VECTORFONT2P
 70
     0
 40
0.0
 41
1.35
 50
0.0
 71
     0
 42
0.2
  3

  4

  0
STYLE
  2
CADDY_VECTORFONT2N
 70
     0
 40
0.0
 41
1.549999952316284
 50
0.0
 71
     0
 42
0.2
  3

  4

  0
STYLE
  2
CADDY_VECTORFONT3P
 70
     0
 40
0.0
 41
1.3
 50
0.0
 71
     0
 42
0.2
  3

  4

  0
STYLE
  2
CADDY_VECTORFONT3N
 70
     0
 40
0.0
 41
1.5
 50
0.0
 71
     0
 42
0.2
  3

  4

  0
STYLE
  2
CADDY_VECTORFONT4P
 70
     0
 40
0.0
 41
1.1
 50
0.0
 71
     0
 42
0.2
  3

  4

  0
STYLE
  2
CADDY_VECTORFONT4N
 70
     0
 40
0.0
 41
1.299999952316284
 50
0.0
 71
     0
 42
0.2
  3

  4

  0
STYLE
  2
CADDY_VECTORFONT5P
 70
     0
 40
0.0
 41
1.0
 50
0.0
 71
     0
 42
0.2
  3

  4

  0
STYLE
  2
CADDY_VECTORFONT5N
 70
     0
 40
0.0
 41
1.200000047683716
 50
0.0
 71
     0
 42
0.2
  3

  4

  0
STYLE
  2
CADDY_VECTORFONT6P
 70
     0
 40
0.0
 41
0.9
 50
0.0
 71
     0
 42
0.2
  3

  4

  0
STYLE
  2
CADDY_VECTORFONT6N
 70
     0
 40
0.0
 41
1.100000023841858
 50
0.0
 71
     0
 42
0.2
  3

  4

  0
STYLE
  2
CADDY_VECTORFONT7P
 70
     0
 40
0.0
 41
1.3
 50
0.0
 71
     0
 42
0.2
  3

  4

  0
STYLE
  2
CADDY_VECTORFONT7N
 70
     0
 40
0.0
 41
1.5
 50
0.0
 71
     0
 42
0.2
  3

  4

  0
STYLE
  2
CADDY_VECTORFONT8P
 70
     0
 40
0.0
 41
1.5
 50
0.0
 71
     0
 42
0.2
  3

  4

  0
STYLE
  2
CADDY_VECTORFONT8N
 70
     0
 40
0.0
 41
1.700000047683716
 50
0.0
 71
     0
 42
0.2
  3

  4

  0
ENDTAB
  0
TABLE
  2
VIEW
 70
     0
  0
ENDTAB
  0
TABLE
  2
UCS
 70
     0
  0
ENDTAB
  0
ENDSEC
  0
SECTION
  2
BLOCKS
  0
BLOCK
  8
0
  2
BLK1
 70
     0
 10
0.0
 20
0.0
 30
0.0
  0
LINE
  5
44
  8
0
  6
CADDY_SOLID
 10
10.0
 20
10.0
 30
0.0
 11
10.0
 21
275.0
 31
0.0
  0
LINE
  5
45
  8
0
  6
CADDY_SOLID
 10
10.0
 20
275.0
 30
0.0
 11
410.0
 21
275.0
 31
0.0
  0
LINE
  5
46
  8
0
  6
CADDY_SOLID
 10
410.0
 20
275.0
 30
0.0
 11
410.0
 21
10.0
 31
0.0
  0
LINE
  5
47
  8
0
  6
CADDY_SOLID
 10
50.0
 20
270.0
 30
0.0
 11
50.0
 21
275.0
 31
0.0
  0
TEXT
  5
48
  8
0
 10
29.14336390228272
 20
271.2000122070312
 30
0.0
 40
2.449981689453125
  1
0
 41
0.9
  7
CADDY_VECTORFONT1P
 72
     1
 11
30.0
 21
271.2000122070312
 31
0.0
  0
TEXT
  5
49
  8
0
 10
30.0
 20
265.2000122070312
 30
0.0
 40
2.449981689453125
  1

 41
0.9
  7
CADDY_VECTORFONT1P
 72
     1
 11
30.0
 21
265.2000122070312
 31
0.0
  0
LINE
  5
4A
  8
0
  6
CADDY_SOLID
 10
90.0
 20
270.0
 30
0.0
 11
90.0
 21
275.0
 31
0.0
  0
LINE
  5
4B
  8
0
  6
CADDY_SOLID
 10
130.0
 20
270.0
 30
0.0
 11
130.0
 21
275.0
 31
0.0
  0
LINE
  5
4C
  8
0
  6
CADDY_SOLID
 10
170.0
 20
270.0
 30
0.0
 11
170.0
 21
275.0
 31
0.0
  0
LINE
  5
4D
  8
0
  6
CADDY_SOLID
 10
210.0
 20
270.0
 30
0.0
 11
210.0
 21
275.0
 31
0.0
  0
LINE
  5
4E
  8
0
  6
CADDY_SOLID
 10
250.0
 20
270.0
 30
0.0
 11
250.0
 21
275.0
 31
0.0
  0
LINE
  5
4F
  8
0
  6
CADDY_SOLID
 10
290.0
 20
270.0
 30
0.0
 11
290.0
 21
275.0
 31
0.0
  0
LINE
  5
50
  8
0
  6
CADDY_SOLID
 10
330.0
 20
270.0
 30
0.0
 11
330.0
 21
275.0
 31
0.0
  0
LINE
  5
51
  8
0
  6
CADDY_SOLID
 10
370.0
 20
270.0
 30
0.0
 11
370.0
 21
275.0
 31
0.0
  0
TEXT
  5
52
  8
0
 10
69.38369947662353
 20
271.2000122070312
 30
0.0
 40
2.449981689453125
  1
1
 41
0.9
  7
CADDY_VECTORFONT1P
 72
     1
 11
69.99999237060547
 21
271.2000122070312
 31
0.0
  0
TEXT
  5
53
  8
0
 10
109.1610037704468
 20
271.2000122070312
 30
0.0
 40
2.449981689453125
  1
2
 41
0.9
  7
CADDY_VECTORFONT1P
 72
     1
 11
110.0
 21
271.2000122070312
 31
0.0
  0
TEXT
  5
54
  8
0
 10
149.1312364929199
 20
271.2000122070312
 30
0.0
 40
2.449981689453125
  1
3
 41
0.9
  7
CADDY_VECTORFONT1P
 72
     1
 11
150.0
 21
271.2000122070312
 31
0.0
  0
TEXT
  5
55
  8
0
 10
189.0364222015381
 20
271.2000122070312
 30
0.0
 40
2.449981689453125
  1
4
 41
0.9
  7
CADDY_VECTORFONT1P
 72
     1
 11
190.0
 21
271.2000122070312
 31
0.0
  0
TEXT
  5
56
  8
0
 10
229.1433639022827
 20
271.2000122070312
 30
0.0
 40
2.449981689453125
  1
5
 41
0.9
  7
CADDY_VECTORFONT1P
 72
     1
 11
230.0
 21
271.2000122070312
 31
0.0
  0
TEXT
  5
57
  8
0
 10
269.1433639022827
 20
271.2000122070312
 30
0.0
 40
2.449981689453125
  1
6
 41
0.9
  7
CADDY_VECTORFONT1P
 72
     1
 11
270.0
 21
271.2000122070312
 31
0.0
  0
TEXT
  5
58
  8
0
 10
309.140056427002
 20
271.2000122070312
 30
0.0
 40
2.449981689453125
  1
7
 41
0.9
  7
CADDY_VECTORFONT1P
 72
     1
 11
310.0
 21
271.2000122070312
 31
0.0
  0
TEXT
  5
59
  8
0
 10
349.1433639022827
 20
271.2000122070312
 30
0.0
 40
2.449981689453125
  1
8
 41
0.9
  7
CADDY_VECTORFONT1P
 72
     1
 11
350.0
 21
271.2000122070312
 31
0.0
  0
TEXT
  5
5A
  8
0
 10
389.1433639022827
 20
271.2000122070312
 30
0.0
 40
2.449981689453125
  1
9
 41
0.9
  7
CADDY_VECTORFONT1P
 72
     1
 11
390.0
 21
271.2000122070312
 31
0.0
  0
TEXT
  5
5B
  8
0
 10
70.0
 20
265.2000122070312
 30
0.0
 40
2.449981689453125
  1

 41
0.9
  7
CADDY_VECTORFONT1P
 72
     1
 11
70.0
 21
265.2000122070312
 31
0.0
  0
TEXT
  5
5C
  8
0
 10
110.0
 20
265.2000122070312
 30
0.0
 40
2.449981689453125
  1

 41
0.9
  7
CADDY_VECTORFONT1P
 72
     1
 11
110.0
 21
265.2000122070312
 31
0.0
  0
TEXT
  5
5D
  8
0
 10
150.0
 20
265.2000122070312
 30
0.0
 40
2.449981689453125
  1

 41
0.9
  7
CADDY_VECTORFONT1P
 72
     1
 11
150.0
 21
265.2000122070312
 31
0.0
  0
TEXT
  5
5E
  8
0
 10
190.0
 20
265.2000122070312
 30
0.0
 40
2.449981689453125
  1

 41
0.9
  7
CADDY_VECTORFONT1P
 72
     1
 11
190.0
 21
265.2000122070312
 31
0.0
  0
TEXT
  5
5F
  8
0
 10
230.0
 20
265.2000122070312
 30
0.0
 40
2.449981689453125
  1

 41
0.9
  7
CADDY_VECTORFONT1P
 72
     1
 11
230.0
 21
265.2000122070312
 31
0.0
  0
TEXT
  5
60
  8
0
 10
270.0000305175781
 20
265.2000122070312
 30
0.0
 40
2.449981689453125
  1

 41
0.9
  7
CADDY_VECTORFONT1P
 72
     1
 11
270.0000305175781
 21
265.2000122070312
 31
0.0
  0
TEXT
  5
61
  8
0
 10
310.0000305175781
 20
265.2000122070312
 30
0.0
 40
2.449981689453125
  1

 41
0.9
  7
CADDY_VECTORFONT1P
 72
     1
 11
310.0000305175781
 21
265.2000122070312
 31
0.0
  0
TEXT
  5
62
  8
0
 10
350.0000305175781
 20
265.2000122070312
 30
0.0
 40
2.449981689453125
  1

 41
0.9
  7
CADDY_VECTORFONT1P
 72
     1
 11
350.0000305175781
 21
265.2000122070312
 31
0.0
  0
TEXT
  5
63
  8
0
 10
390.0000305175781
 20
265.2000122070312
 30
0.0
 40
2.449981689453125
  1

 41
0.9
  7
CADDY_VECTORFONT1P
 72
     1
 11
390.0000305175781
 21
265.2000122070312
 31
0.0
  0
LINE
  5
64
  8
0
  6
CADDY_SOLID
 10
15.0
 20
270.0
 30
0.0
 11
15.0
 21
30.0
 31
0.0
  0
LINE
  5
65
  8
0
  6
CADDY_SOLID
 10
405.0
 20
270.0
 30
0.0
 11
405.0
 21
30.0
 31
0.0
  0
LINE
  5
66
  8
0
  6
CADDY_SOLID
 10
15.0
 20
230.0
 30
0.0
 11
10.0
 21
230.0
 31
0.0
  0
LINE
  5
67
  8
0
  6
CADDY_SOLID
 10
15.0
 20
190.0
 30
0.0
 11
10.0
 21
190.0
 31
0.0
  0
LINE
  5
68
  8
0
  6
CADDY_SOLID
 10
15.0
 20
150.0
 30
0.0
 11
10.0
 21
150.0
 31
0.0
  0
LINE
  5
69
  8
0
  6
CADDY_SOLID
 10
10.0
 20
110.0
 30
0.0
 11
15.0
 21
110.0
 31
0.0
  0
LINE
  5
6A
  8
0
  6
CADDY_SOLID
 10
10.0
 20
70.0
 30
0.0
 11
15.0
 21
70.0
 31
0.0
  0
TEXT
  5
6B
  8
0
 10
11.39750137329102
 20
248.6999969482422
 30
0.0
 40
2.449996948242188
  1
A
 41
0.9
  7
CADDY_VECTORFONT1P
 72
     1
 11
12.5
 21
248.6999969482422
 31
0.0
  0
TEXT
  5
6C
  8
0
 10
11.52098121948242
 20
208.6999969482422
 30
0.0
 40
2.449996948242188
  1
B
 41
0.9
  7
CADDY_VECTORFONT1P
 72
     1
 11
12.5
 21
208.6999969482422
 31
0.0
  0
TEXT
  5
6D
  8
0
 10
11.65548605194092
 20
168.6999969482422
 30
0.0
 40
2.449996948242188
  1
C
 41
0.9
  7
CADDY_VECTORFONT1P
 72
     1
 11
12.5
 21
168.6999969482422
 31
0.0
  0
TEXT
  5
6E
  8
0
 10
11.52098121948242
 20
128.6999969482422
 30
0.0
 40
2.449996948242188
  1
D
 41
0.9
  7
CADDY_VECTORFONT1P
 72
     1
 11
12.5
 21
128.6999969482422
 31
0.0
  0
TEXT
  5
6F
  8
0
 10
11.65548342208862
 20
88.69999694824219
 30
0.0
 40
2.450004577636719
  1
E
 41
0.9
  7
CADDY_VECTORFONT1P
 72
     1
 11
12.5
 21
88.69999694824219
 31
0.0
  0
TEXT
  5
70
  8
0
 10
11.65548473701477
 20
48.70000076293945
 30
0.0
 40
2.450000762939453
  1
F
 41
0.9
  7
CADDY_VECTORFONT1P
 72
     1
 11
12.5
 21
48.70000076293945
 31
0.0
  0
LINE
  5
71
  8
0
  6
CADDY_SOLID
 10
410.0
 20
230.0
 30
0.0
 11
405.0
 21
230.0
 31
0.0
  0
LINE
  5
72
  8
0
  6
CADDY_SOLID
 10
410.0
 20
190.0
 30
0.0
 11
405.0
 21
190.0
 31
0.0
  0
LINE
  5
73
  8
0
  6
CADDY_SOLID
 10
410.0
 20
150.0
 30
0.0
 11
405.0
 21
150.0
 31
0.0
  0
LINE
  5
74
  8
0
  6
CADDY_SOLID
 10
405.0
 20
110.0
 30
0.0
 11
410.0
 21
110.0
 31
0.0
  0
LINE
  5
75
  8
0
  6
CADDY_SOLID
 10
405.0
 20
70.0
 30
0.0
 11
410.0
 21
70.0
 31
0.0
  0
TEXT
  5
76
  8
0
 10
406.397501373291
 20
248.6999969482422
 30
0.0
 40
2.449996948242188
  1
A
 41
0.9
  7
CADDY_VECTORFONT1P
 72
     1
 11
407.5
 21
248.6999969482422
 31
0.0
  0
TEXT
  5
77
  8
0
 10
406.5209812194824
 20
208.6999969482422
 30
0.0
 40
2.449996948242188
  1
B
 41
0.9
  7
CADDY_VECTORFONT1P
 72
     1
 11
407.5
 21
208.6999969482422
 31
0.0
  0
TEXT
  5
78
  8
0
 10
406.6554860519409
 20
168.6999969482422
 30
0.0
 40
2.449996948242188
  1
C
 41
0.9
  7
CADDY_VECTORFONT1P
 72
     1
 11
407.5
 21
168.6999969482422
 31
0.0
  0
TEXT
  5
79
  8
0
 10
406.5209812194824
 20
128.6999969482422
 30
0.0
 40
2.449996948242188
  1
D
 41
0.9
  7
CADDY_VECTORFONT1P
 72
     1
 11
407.5
 21
128.6999969482422
 31
0.0
  0
TEXT
  5
7A
  8
0
 10
406.6554834220887
 20
88.69999694824219
 30
0.0
 40
2.450004577636719
  1
E
 41
0.9
  7
CADDY_VECTORFONT1P
 72
     1
 11
407.5
 21
88.69999694824219
 31
0.0
  0
TEXT
  5
7B
  8
0
 10
406.6554847370148
 20
48.70000076293945
 30
0.0
 40
2.450000762939453
  1
F
 41
0.9
  7
CADDY_VECTORFONT1P
 72
     1
 11
407.5
 21
48.70000076293945
 31
0.0
  0
LINE
  5
7C
  8
0
  6
CADDY_SOLID
 10
15.0
 20
270.0
 30
0.0
 11
405.0
 21
270.0
 31
0.0
  0
LINE
  5
7D
  8
0
  6
CADDY_SOLID
 10
410.0
 20
10.0
 30
0.0
 11
10.0
 21
10.0
 31
0.0
  0
LINE
  5
7E
  8
0
  6
CADDY_SOLID
 10
10.0
 20
30.0
 30
0.0
 11
410.0
 21
30.0
 31
0.0
  0
LINE
  5
7F
  8
0
  6
CADDY_SOLID
 10
260.0
 20
20.0
 30
0.0
 11
410.0
 21
20.0
 31
0.0
  0
LINE
  5
80
  8
0
  6
CADDY_SOLID
 10
10.0
 20
30.0
 30
0.0
 11
15.0
 21
30.0
 31
0.0
  0
LINE
  5
81
  8
0
  6
CADDY_SOLID
 10
405.0
 20
30.0
 30
0.0
 11
410.0
 21
30.0
 31
0.0
  0
LINE
  5
82
  8
0
  6
CADDY_SOLID
 10
65.0
 20
30.0
 30
0.0
 11
65.0
 21
10.0
 31
0.0
  0
TEXT
  5
83
  8
0
 10
69.19999694824219
 20
14.19999980926514
 30
0.0
 40
2.449999809265137
  1
Kassepakker
 41
0.9
  7
CADDY_VECTORFONT1P
  0
TEXT
  5
84
  8
0
 10
69.19999694824219
 20
23.20000076293945
 30
0.0
 40
2.44999885559082
  1
MPN - GUIDED BY VISION
 41
0.9
  7
CADDY_VECTORFONT1P
  0
TEXT
  5
85
  8
0
 10
69.19999694824219
 20
18.70000076293945
 30
0.0
 40
2.44999885559082
  1

 41
0.9
  7
CADDY_VECTORFONT1P
  0
LINE
  5
86
  8
0
  6
CADDY_SOLID
 10
160.0
 20
30.0
 30
0.0
 11
160.0
 21
10.0
 31
0.0
  0
TEXT
  5
87
  8
0
 10
164.1999969482422
 20
23.20000076293945
 30
0.0
 40
2.44999885559082
  1
Drift-status
 41
0.9
  7
CADDY_VECTORFONT1P
  0
TEXT
  5
88
  8
0
 10
164.1999969482422
 20
18.70000076293945
 30
0.0
 40
2.44999885559082
  1

 41
0.9
  7
CADDY_VECTORFONT1P
  0
TEXT
  5
89
  8
0
 10
164.1999969482422
 20
14.19999980926514
 30
0.0
 40
2.449999809265137
  1

 41
0.9
  7
CADDY_VECTORFONT1P
  0
LINE
  5
8A
  8
0
  6
CADDY_SOLID
 10
260.0
 20
30.0
 30
0.0
 11
260.0
 21
10.0
 31
0.0
  0
TEXT
  5
8B
  8
0
 10
261.2000122070312
 20
26.20000076293945
 30
0.0
 40
2.44999885559082
  1
Projekt:
 41
0.9
  7
CADDY_VECTORFONT1P
  0
TEXT
  5
8C
  8
0
 10
261.2000122070312
 20
16.20000076293945
 30
0.0
 40
2.44999885559082
  1
Dato:
 41
0.9
  7
CADDY_VECTORFONT1P
  0
LINE
  5
8D
  8
0
  6
CADDY_SOLID
 10
290.0
 20
30.0
 30
0.0
 11
290.0
 21
10.0
 31
0.0
  0
TEXT
  5
8E
  8
0
 10
291.2000122070312
 20
16.20000076293945
 30
0.0
 40
2.44999885559082
  1
Funkt.:
 41
0.9
  7
CADDY_VECTORFONT1P
  0
TEXT
  5
8F
  8
0
 10
291.2000122070312
 20
26.20000076293945
 30
0.0
 40
2.44999885559082
  1
Tegn. nr.:
 41
0.9
  7
CADDY_VECTORFONT1P
  0
TEXT
  5
90
  8
0
 10
276.1062470369339
 20
21.70000076293945
 30
0.0
 40
2.44999885559082
  1
CP6000
 41
0.9
  7
CADDY_VECTORFONT1P
 72
     2
 11
286.2999572753906
 21
21.70000076293945
 31
0.0
  0
TEXT
  5
91
  8
0
 10
269.9807535458565
 20
11.69999980926514
 30
0.0
 40
2.449999809265137
  1
15-07-2005
 41
0.9
  7
CADDY_VECTORFONT1P
 72
     2
 11
286.2999572753906
 21
11.69999980926514
 31
0.0
  0
LINE
  5
92
  8
0
  6
CADDY_SOLID
 10
320.0
 20
20.0
 30
0.0
 11
320.0
 21
10.0
 31
0.0
  0
TEXT
  5
93
  8
0
 10
321.2000122070312
 20
16.20000076293945
 30
0.0
 40
2.44999885559082
  1
Plac.:
 41
0.9
  7
CADDY_VECTORFONT1P
  0
TEXT
  5
94
  8
0
 10
314.9527328978539
 20
11.69999980926514
 30
0.0
 40
2.449999809265137
  1
=
 41
0.9
  7
CADDY_VECTORFONT1P
 72
     2
 11
316.2999877929688
 21
11.69999980926514
 31
0.0
  0
LINE
  5
95
  8
0
  6
CADDY_SOLID
 10
382.5
 20
20.0
 30
0.0
 11
382.5
 21
30.0
 31
0.0
  0
LINE
  5
96
  8
0
  6
CADDY_SOLID
 10
382.5
 20
10.0
 30
0.0
 11
382.5
 21
20.0
 31
0.0
  0
TEXT
  5
97
  8
0
 10
349.952763415432
 20
11.69999980926514
 30
0.0
 40
2.449999809265137
  1
+
 41
0.9
  7
CADDY_VECTORFONT1P
 72
     2
 11
351.3000183105469
 21
11.69999980926514
 31
0.0
  0
LINE
  5
98
  8
0
  6
CADDY_SOLID
 10
355.0
 20
10.0
 30
0.0
 11
355.0
 21
20.0
 31
0.0
  0
LINE
  5
99
  8
0
  6
CADDY_SOLID
 10
355.0
 20
20.0
 30
0.0
 11
355.0
 21
30.0
 31
0.0
  0
TEXT
  5
9A
  8
0
 10
356.2000122070312
 20
26.20000076293945
 30
0.0
 40
2.44999885559082
  1
Rev.:
 41
0.9
  7
CADDY_VECTORFONT1P
  0
LINE
  5
9B
  8
0
  6
CADDY_SOLID
 10
337.5
 20
20.0
 30
0.0
 11
337.5
 21
30.0
 31
0.0
  0
TEXT
  5
9C
  8
0
 10
333.5
 20
21.75
 30
0.0
 40
3.5
  1

 41
0.9
  7
CADDY_VECTORFONT1P
 72
     2
 11
333.5
 21
21.75
 31
0.0
  0
TEXT
  5
9D
  8
0
 10
338.7000122070312
 20
26.20000076293945
 30
0.0
 40
2.44999885559082
  1
Init.:
 41
0.9
  7
CADDY_VECTORFONT1P
  0
TEXT
  5
9E
  8
0
 10
351.3000183105469
 20
21.70000076293945
 30
0.0
 40
2.44999885559082
  1

 41
0.9
  7
CADDY_VECTORFONT1P
 72
     2
 11
351.3000183105469
 21
21.70000076293945
 31
0.0
  0
TEXT
  5
9F
  8
0
 10
378.8000183105469
 20
21.70000076293945
 30
0.0
 40
2.44999885559082
  1

 41
0.9
  7
CADDY_VECTORFONT1P
 72
     2
 11
378.8000183105469
 21
21.70000076293945
 31
0.0
  0
TEXT
  5
A0
  8
0
 10
398.83055
 20
21.75
 30
0.0
 40
3.5
  1
37
 41
0.9
  7
CADDY_VECTORFONT1P
 72
     2
 11
403.25
 21
21.75
 31
0.0
  0
TEXT
  5
A1
  8
0
 10
405.25
 20
21.75
 30
0.0
 40
3.5
  1

 41
0.9
  7
CADDY_VECTORFONT1P
  0
TEXT
  5
A2
  8
0
 10
383.7000122070312
 20
26.20000076293945
 30
0.0
 40
2.44999885559082
  1
Blad:
 41
0.9
  7
CADDY_VECTORFONT1P
  0
TEXT
  5
A3
  8
0
 10
403.2130185508728
 20
11.69999980926514
 30
0.0
 40
2.449999809265137
  1
38
 41
0.9
  7
CADDY_VECTORFONT1P
 72
     2
 11
406.3000183105469
 21
11.69999980926514
 31
0.0
  0
TEXT
  5
A4
  8
0
 10
383.7000122070312
 20
16.20000076293945
 30
0.0
 40
2.44999885559082
  1
Næste blad:
 41
0.9
  7
CADDY_VECTORFONT1P
  0
TEXT
  5
A5
  8
0
 10
356.2000122070312
 20
16.20000076293945
 30
0.0
 40
2.44999885559082
  1
Antal blade:
 41
0.9
  7
CADDY_VECTORFONT1P
  0
TEXT
  5
A6
  8
0
 10
375.7284535496712
 20
11.69999980926514
 30
0.0
 40
2.449999809265137
  1
32
 41
0.9
  7
CADDY_VECTORFONT1P
 72
     2
 11
378.8000183105469
 21
11.69999980926514
 31
0.0
  0
ENDBLK
  8
0
  0
BLOCK
  8
0
  2
BLK2
 70
     2
 10
0.0
 20
0.0
 30
0.0
  0
LINE
  5
B3
  8
0
  6
CADDY_SOLID
 10
27.5
 20
260.0
 30
0.0
 11
25.25
 21
261.25
 31
0.0
  0
LINE
  5
B4
  8
0
  6
CADDY_SOLID
 10
27.5
 20
260.0
 30
0.0
 11
25.25
 21
258.75
 31
0.0
  0
ATTDEF
  5
B7
  8
0
 10
29.26500701904297
 20
260.9000244140625
 30
0.0
 40
2.449981689453125
  1
0708
 41
0.9
  7
CADDY_VECTORFONT1P
  3
Produkt (-)
  2
$TAG160010
 70
     0
  0
ATTDEF
  5
B9
  8
0
 10
5.486902221679685
 20
258.9500122070312
 30
0.0
 40
2.449981689453125
  1
35.3
 41
0.9
  7
CADDY_VECTORFONT1P
 72
     2
 11
22.78499794006348
 21
258.9500122070312
 31
0.0
  3
Side/strømvej reference
  2
$TAG160500
 70
     0
  0
ATTDEF
  5
BB
  8
0
 10
29.26500701904297
 20
267.9000244140625
 30
0.0
 40
2.449981689453125
  1
=
 41
0.9
  7
CADDY_VECTORFONT1P
  3
Funktion (=)
  2
$TAG140020
 70
     1
  0
ATTDEF
  5
BD
  8
0
 10
29.26500701904297
 20
264.4000244140625
 30
0.0
 40
2.449981689453125
  1
+
 41
0.9
  7
CADDY_VECTORFONT1P
  3
Placering (+)
  2
$TAG140050
 70
     1
  0
ENDBLK
  8
0
  0
BLOCK
  8
0
  2
BLK3
 70
     2
 10
0.0
 20
0.0
 30
0.0
  0
LINE
  5
C2
  8
0
  6
CADDY_SOLID
 10
392.5
 20
260.0
 30
0.0
 11
390.25
 21
261.25
 31
0.0
  0
LINE
  5
C3
  8
0
  6
CADDY_SOLID
 10
392.5
 20
260.0
 30
0.0
 11
390.25
 21
258.75
 31
0.0
  0
ATTDEF
  5
C6
  8
0
 10
370.9786803039551
 20
260.9000244140625
 30
0.0
 40
2.449981689453125
  1
0708
 41
0.9
  7
CADDY_VECTORFONT1P
 72
     2
 11
387.7850646972656
 21
260.9000244140625
 31
0.0
  3
Produkt (-)
  2
$TAG160010
 70
     0
  0
ATTDEF
  5
C8
  8
0
 10
393.3650207519531
 20
258.9500122070312
 30
0.0
 40
2.449981689453125
  1
38.0
 41
0.9
  7
CADDY_VECTORFONT1P
  3
Side/strømvej reference
  2
$TAG160500
 70
     0
  0
ATTDEF
  5
CA
  8
0
 10
370.2421547729492
 20
267.9000244140625
 30
0.0
 40
2.449981689453125
  1
=
 41
0.9
  7
CADDY_VECTORFONT1P
 72
     2
 11
387.7850036621094
 21
267.9000244140625
 31
0.0
  3
Funktion (=)
  2
$TAG140020
 70
     1
  0
ATTDEF
  5
CC
  8
0
 10
370.2421547729492
 20
264.4000244140625
 30
0.0
 40
2.449981689453125
  1
+
 41
0.9
  7
CADDY_VECTORFONT1P
 72
     2
 11
387.7850036621094
 21
264.4000244140625
 31
0.0
  3
Placering (+)
  2
$TAG140050
 70
     1
  0
ENDBLK
  8
0
  0
BLOCK
  8
0
  2
BLK4
 70
     2
 10
0.0
 20
0.0
 30
0.0
  0
CIRCLE
  5
D5
  8
0
  6
CADDY_SOLID
 10
230.0
 20
102.5
 30
0.0
 40
0.75
  0
LINE
  5
D6
  8
0
  6
CADDY_SOLID
 10
230.0
 20
103.25
 30
0.0
 11
230.0
 21
105.0
 31
0.0
  0
LINE
  5
D7
  8
0
  6
CADDY_SOLID
 10
230.0
 20
100.0
 30
0.0
 11
230.0
 21
101.75
 31
0.0
  0
ATTDEF
  5
DB
  8
2
 10
208.2434616500855
 20
101.3000030517578
 30
0.0
 40
2.450004577636719
  1
X21
 41
0.9
  7
CADDY_VECTORFONT1P
 72
     2
 11
225.0500030517578
 21
101.3000030517578
 31
0.0
  3
Produkt (-)
  2
$TAG160010
 70
     0
  0
ATTDEF
  5
DD
  8
2
 10
229.0999908447266
 20
104.1999969482422
 30
0.0
 40
2.450004577636719
  1
26
 50
90.0
 41
0.9
  7
CADDY_VECTORFONT1P
  3
Klemmenummer
  2
$TAG160400
 70
     0
  0
ATTDEF
  5
DF
  8
0
 10
232.5999908447266
 20
104.1999969482422
 30
0.0
 40
2.450004577636719
  1
1911761
 50
90.0
 41
0.9
  7
CADDY_VECTORFONT1P
  3
Sorteringsindeks
  2
$TAG160410
 70
     1
  0
ATTDEF
  5
E1
  8
2
 10
207.7517457313538
 20
97.80000305175781
 30
0.0
 40
2.450004577636719
  1

 41
0.9
  7
CADDY_VECTORFONT1P
 72
     2
 11
225.0500030517578
 21
97.80000305175781
 31
0.0
  3
Beskrivelse 00
  2
$TAG160030
 70
     1
  0
ATTDEF
  5
E3
  8
2
 10
207.5070055328369
 20
92.80000305175781
 30
0.0
 40
2.450004577636719
  1
AB1RR235U2GR
 41
0.9
  7
CADDY_VECTORFONT1P
 72
     2
 11
225.0500183105469
 21
92.80000305175781
 31
0.0
  3
Type
  2
$TAG160040
 70
     1
  0
ATTDEF
  5
E5
  8
2
 10
207.5069902740478
 20
108.3000030517578
 30
0.0
 40
2.450004577636719
  1
=
 41
0.9
  7
CADDY_VECTORFONT1P
 72
     2
 11
225.0500030517578
 21
108.3000030517578
 31
0.0
  3
Funktion (=)
  2
$TAG140020
 70
     1
  0
ATTDEF
  5
E7
  8
2
 10
207.5069750152588
 20
104.8000030517578
 30
0.0
 40
2.450004577636719
  1
+
 41
0.9
  7
CADDY_VECTORFONT1P
 72
     2
 11
225.0499877929688
 21
104.8000030517578
 31
0.0
  3
Placering (+)
  2
$TAG140050
 70
     1
  0
ENDBLK
  8
0
  0
BLOCK
  8
0
  2
BLK5
 70
     2
 10
0.0
 20
0.0
 30
0.0
  0
CIRCLE
  5
EC
  8
0
  6
CADDY_SOLID
 10
270.0
 20
102.5
 30
0.0
 40
0.75
  0
LINE
  5
ED
  8
0
  6
CADDY_SOLID
 10
270.0
 20
103.25
 30
0.0
 11
270.0
 21
105.0
 31
0.0
  0
LINE
  5
EE
  8
0
  6
CADDY_SOLID
 10
270.0
 20
100.0
 30
0.0
 11
270.0
 21
101.75
 31
0.0
  0
ATTDEF
  5
F1
  8
2
 10
248.2434769088745
 20
101.3000030517578
 30
0.0
 40
2.450004577636719
  1
X21
 41
0.9
  7
CADDY_VECTORFONT1P
 72
     2
 11
265.0500183105469
 21
101.3000030517578
 31
0.0
  3
Produkt (-)
  2
$TAG160010
 70
     0
  0
ATTDEF
  5
F3
  8
2
 10
269.0999755859375
 20
104.2000122070312
 30
0.0
 40
2.450004577636719
  1
27
 50
90.0
 41
0.9
  7
CADDY_VECTORFONT1P
  3
Klemmenummer
  2
$TAG160400
 70
     0
  0
ATTDEF
  5
F5
  8
0
 10
272.5999755859375
 20
104.2000122070312
 30
0.0
 40
2.450004577636719
  1
1911762
 50
90.0
 41
0.9
  7
CADDY_VECTORFONT1P
  3
Sorteringsindeks
  2
$TAG160410
 70
     1
  0
ATTDEF
  5
F7
  8
2
 10
247.7517609901428
 20
97.80000305175781
 30
0.0
 40
2.450004577636719
  1

 41
0.9
  7
CADDY_VECTORFONT1P
 72
     2
 11
265.0500183105469
 21
97.80000305175781
 31
0.0
  3
Beskrivelse 00
  2
$TAG160030
 70
     1
  0
ATTDEF
  5
F9
  8
2
 10
247.5069444976806
 20
92.80000305175781
 30
0.0
 40
2.450004577636719
  1
AB1RR235U2GR
 41
0.9
  7
CADDY_VECTORFONT1P
 72
     2
 11
265.0499572753906
 21
92.80000305175781
 31
0.0
  3
Type
  2
$TAG160040
 70
     1
  0
ATTDEF
  5
FB
  8
2
 10
247.5069750152588
 20
108.3000030517578
 30
0.0
 40
2.450004577636719
  1
=
 41
0.9
  7
CADDY_VECTORFONT1P
 72
     2
 11
265.0499877929688
 21
108.3000030517578
 31
0.0
  3
Funktion (=)
  2
$TAG140020
 70
     1
  0
ATTDEF
  5
FD
  8
2
 10
247.5070055328369
 20
104.8000030517578
 30
0.0
 40
2.450004577636719
  1
+
 41
0.9
  7
CADDY_VECTORFONT1P
 72
     2
 11
265.0500183105469
 21
104.8000030517578
 31
0.0
  3
Placering (+)
  2
$TAG140050
 70
     1
  0
ENDBLK
  8
0
  0
BLOCK
  8
0
  2
BLK6
 70
     2
 10
0.0
 20
0.0
 30
0.0
  0
CIRCLE
  5
102
  8
0
  6
CADDY_SOLID
 10
310.0
 20
102.5
 30
0.0
 40
0.75
  0
LINE
  5
103
  8
0
  6
CADDY_SOLID
 10
310.0
 20
103.25
 30
0.0
 11
310.0
 21
105.0
 31
0.0
  0
LINE
  5
104
  8
0
  6
CADDY_SOLID
 10
310.0
 20
100.0
 30
0.0
 11
310.0
 21
101.75
 31
0.0
  0
ATTDEF
  5
107
  8
2
 10
288.2434769088745
 20
101.3000030517578
 30
0.0
 40
2.450004577636719
  1
X21
 41
0.9
  7
CADDY_VECTORFONT1P
 72
     2
 11
305.0500183105469
 21
101.3000030517578
 31
0.0
  3
Produkt (-)
  2
$TAG160010
 70
     0
  0
ATTDEF
  5
109
  8
2
 10
309.0999755859375
 20
104.2000122070312
 30
0.0
 40
2.450004577636719
  1
28
 50
90.0
 41
0.9
  7
CADDY_VECTORFONT1P
  3
Klemmenummer
  2
$TAG160400
 70
     0
  0
ATTDEF
  5
10B
  8
0
 10
312.5999755859375
 20
104.2000122070312
 30
0.0
 40
2.450004577636719
  1
1911763
 50
90.0
 41
0.9
  7
CADDY_VECTORFONT1P
  3
Sorteringsindeks
  2
$TAG160410
 70
     1
  0
ATTDEF
  5
10D
  8
2
 10
287.7517609901428
 20
97.80000305175781
 30
0.0
 40
2.450004577636719
  1

 41
0.9
  7
CADDY_VECTORFONT1P
 72
     2
 11
305.0500183105469
 21
97.80000305175781
 31
0.0
  3
Beskrivelse 00
  2
$TAG160030
 70
     1
  0
ATTDEF
  5
10F
  8
2
 10
287.5069139801025
 20
92.80000305175781
 30
0.0
 40
2.450004577636719
  1
AB1RR235U2GR
 41
0.9
  7
CADDY_VECTORFONT1P
 72
     2
 11
305.0499267578125
 21
92.80000305175781
 31
0.0
  3
Type
  2
$TAG160040
 70
     1
  0
ATTDEF
  5
111
  8
2
 10
287.5069750152588
 20
108.3000030517578
 30
0.0
 40
2.450004577636719
  1
=
 41
0.9
  7
CADDY_VECTORFONT1P
 72
     2
 11
305.0499877929688
 21
108.3000030517578
 31
0.0
  3
Funktion (=)
  2
$TAG140020
 70
     1
  0
ATTDEF
  5
113
  8
2
 10
287.5070055328369
 20
104.8000030517578
 30
0.0
 40
2.450004577636719
  1
+
 41
0.9
  7
CADDY_VECTORFONT1P
 72
     2
 11
305.0500183105469
 21
104.8000030517578
 31
0.0
  3
Placering (+)
  2
$TAG140050
 70
     1
  0
ENDBLK
  8
0
  0
BLOCK
  8
0
  2
BLK7
 70
     2
 10
0.0
 20
0.0
 30
0.0
  0
CIRCLE
  5
118
  8
0
  6
CADDY_SOLID
 10
350.0
 20
102.5
 30
0.0
 40
0.75
  0
LINE
  5
119
  8
0
  6
CADDY_SOLID
 10
350.0
 20
103.25
 30
0.0
 11
350.0
 21
105.0
 31
0.0
  0
LINE
  5
11A
  8
0
  6
CADDY_SOLID
 10
350.0
 20
100.0
 30
0.0
 11
350.0
 21
101.75
 31
0.0
  0
ATTDEF
  5
11D
  8
2
 10
328.2434769088745
 20
101.3000030517578
 30
0.0
 40
2.450004577636719
  1
-X
 41
0.9
  7
CADDY_VECTORFONT1P
 72
     2
 11
345.0500183105469
 21
101.3000030517578
 31
0.0
  3
Produkt (-)
  2
$TAG160010
 70
     1
  0
ATTDEF
  5
11F
  8
2
 10
349.0999755859375
 20
104.2000122070312
 30
0.0
 40
2.450004577636719
  1
2
 50
90.0
 41
0.9
  7
CADDY_VECTORFONT1P
  3
Klemmenummer
  2
$TAG160400
 70
     0
  0
ATTDEF
  5
121
  8
0
 10
352.5999755859375
 20
104.2000122070312
 30
0.0
 40
2.450004577636719
  1
1911764
 50
90.0
 41
0.9
  7
CADDY_VECTORFONT1P
  3
Sorteringsindeks
  2
$TAG160410
 70
     1
  0
ATTDEF
  5
123
  8
2
 10
327.7517609901428
 20
97.80000305175781
 30
0.0
 40
2.450004577636719
  1

 41
0.9
  7
CADDY_VECTORFONT1P
 72
     2
 11
345.0500183105469
 21
97.80000305175781
 31
0.0
  3
Beskrivelse 00
  2
$TAG160030
 70
     1
  0
ATTDEF
  5
125
  8
2
 10
327.5069139801025
 20
92.80000305175781
 30
0.0
 40
2.450004577636719
  1
AB1RR235U2GR
 41
0.9
  7
CADDY_VECTORFONT1P
 72
     2
 11
345.0499267578125
 21
92.80000305175781
 31
0.0
  3
Type
  2
$TAG160040
 70
     1
  0
ATTDEF
  5
127
  8
2
 10
327.5069750152588
 20
108.3000030517578
 30
0.0
 40
2.450004577636719
  1
=
 41
0.9
  7
CADDY_VECTORFONT1P
 72
     2
 11
345.0499877929688
 21
108.3000030517578
 31
0.0
  3
Funktion (=)
  2
$TAG140020
 70
     1
  0
ATTDEF
  5
129
  8
2
 10
327.5070055328369
 20
104.8000030517578
 30
0.0
 40
2.450004577636719
  1
+
 41
0.9
  7
CADDY_VECTORFONT1P
 72
     2
 11
345.0500183105469
 21
104.8000030517578
 31
0.0
  3
Placering (+)
  2
$TAG140050
 70
     1
  0
ENDBLK
  8
0
  0
BLOCK
  8
0
  2
BLK8
 70
     2
 10
0.0
 20
0.0
 30
0.0
  0
LINE
  5
12E
  8
0
  6
CADDY_SOLID
 10
367.5
 20
115.0
 30
0.0
 11
365.25
 21
116.25
 31
0.0
  0
LINE
  5
12F
  8
0
  6
CADDY_SOLID
 10
367.5
 20
115.0
 30
0.0
 11
365.25
 21
113.75
 31
0.0
  0
LINE
  5
130
  8
0
  6
CADDY_SOLID
 10
365.0
 20
115.0
 30
0.0
 11
367.5
 21
115.0
 31
0.0
  0
ATTDEF
  5
133
  8
0
 10
345.6934891159058
 20
115.8999938964844
 30
0.0
 40
2.450004577636719
  1
2
 41
0.9
  7
CADDY_VECTORFONT1P
 72
     2
 11
362.5000305175781
 21
115.8999938964844
 31
0.0
  3
Produkt (-)
  2
$TAG160010
 70
     1
  0
ATTDEF
  5
135
  8
0
 10
369.6500244140625
 20
113.8499908447266
 30
0.0
 40
2.450004577636719
  1
32.8
 41
0.9
  7
CADDY_VECTORFONT1P
  3
Side/strømvej reference
  2
$TAG160500
 70
     0
  0
ENDBLK
  8
0
  0
BLOCK
  8
0
  2
BLK9
 70
     2
 10
0.0
 20
0.0
 30
0.0
  0
CIRCLE
  5
13A
  8
0
  6
CADDY_SOLID
 10
230.0
 20
65.0
 30
0.0
 40
2.5
  0
LINE
  5
13B
  8
0
  6
CADDY_SOLID
 10
230.0
 20
67.5
 30
0.0
 11
230.0
 21
70.0
 31
0.0
  0
LINE
  5
13C
  8
0
  6
CADDY_SOLID
 10
230.0
 20
60.0
 30
0.0
 11
230.0
 21
62.5
 31
0.0
  0
LINE
  5
13D
  8
0
  6
CADDY_SOLID
 10
228.2322387695312
 20
66.76776123046875
 30
0.0
 11
231.7677612304688
 21
63.23223876953125
 31
0.0
  0
LINE
  5
13E
  8
0
  6
CADDY_SOLID
 10
228.2322387695312
 20
63.23223876953125
 30
0.0
 11
231.7677612304688
 21
66.76776123046875
 31
0.0
  0
ATTDEF
  5
141
  8
0
 10
208.193500025177
 20
63.80000686645508
 30
0.0
 40
2.450000762939453
  1
29P5
 41
0.9
  7
CADDY_VECTORFONT1P
 72
     2
 11
225.0000152587891
 21
63.80000686645508
 31
0.0
  3
Produkt (-)
  2
$TAG160010
 70
     0
  0
ATTDEF
  5
143
  8
0
 10
207.4570755722046
 20
56.80000686645508
 30
0.0
 40
2.450000762939453
  1
XVBC2B4;XVBC21
 41
0.9
  7
CADDY_VECTORFONT1P
 72
     2
 11
225.0000610351562
 21
56.80000686645508
 31
0.0
  3
Type
  2
$TAG160040
 70
     1
  0
ATTDEF
  5
145
  8
0
 10
207.701784872055
 20
60.30000686645508
 30
0.0
 40
2.450000762939453
  1
Grøn
 41
0.9
  7
CADDY_VECTORFONT1P
 72
     2
 11
225.0000152587891
 21
60.30000686645508
 31
0.0
  3
Beskrivelse 00
  2
$TAG160030
 70
     0
  0
ATTDEF
  5
147
  8
0
 10
229.0500030517578
 20
68.39999389648438
 30
0.0
 40
2.450004577636719
  1
X1
 50
90.0
 41
0.9
  7
CADDY_VECTORFONT1P
  3
Tilslutningstekst 00
  2
$TAG175000_00
 70
     0
  0
ATTDEF
  5
149
  8
0
 10
229.0500030517578
 20
37.96579701347351
 30
0.0
 40
2.450000762939453
  1
X2
 50
90.0
 41
0.9
  7
CADDY_VECTORFONT1P
 72
     2
 11
229.0500030517578
 21
60.90000915527344
 31
0.0
  3
Tilslutningstekst 01
  2
$TAG175000_01
 70
     0
  0
ATTDEF
  5
14B
  8
0
 10
207.4570024810791
 20
70.80000305175781
 30
0.0
 40
2.450004577636719
  1
=
 41
0.9
  7
CADDY_VECTORFONT1P
 72
     2
 11
225.0000152587891
 21
70.80000305175781
 31
0.0
  3
Funktion (=)
  2
$TAG140020
 70
     1
  0
ATTDEF
  5
14D
  8
0
 10
207.45698722229
 20
67.30000305175781
 30
0.0
 40
2.450004577636719
  1
+
 41
0.9
  7
CADDY_VECTORFONT1P
 72
     2
 11
225.0
 21
67.30000305175781
 31
0.0
  3
Placering (+)
  2
$TAG140050
 70
     1
  0
ENDBLK
  8
0
  0
BLOCK
  8
0
  2
BLK10
 70
     2
 10
0.0
 20
0.0
 30
0.0
  0
CIRCLE
  5
152
  8
0
  6
CADDY_SOLID
 10
270.0
 20
65.0
 30
0.0
 40
2.5
  0
LINE
  5
153
  8
0
  6
CADDY_SOLID
 10
270.0
 20
67.5
 30
0.0
 11
270.0
 21
70.0
 31
0.0
  0
LINE
  5
154
  8
0
  6
CADDY_SOLID
 10
270.0
 20
60.0
 30
0.0
 11
270.0
 21
62.5
 31
0.0
  0
LINE
  5
155
  8
0
  6
CADDY_SOLID
 10
268.2322387695312
 20
66.76776123046875
 30
0.0
 11
271.7677612304688
 21
63.23223876953125
 31
0.0
  0
LINE
  5
156
  8
0
  6
CADDY_SOLID
 10
268.2322387695312
 20
63.23223876953125
 30
0.0
 11
271.7677612304688
 21
66.76776123046875
 31
0.0
  0
ATTDEF
  5
159
  8
0
 10
248.1934847663879
 20
63.80000686645508
 30
0.0
 40
2.450000762939453
  1
29P6
 41
0.9
  7
CADDY_VECTORFONT1P
 72
     2
 11
265.0
 21
63.80000686645508
 31
0.0
  3
Produkt (-)
  2
$TAG160010
 70
     0
  0
ATTDEF
  5
15B
  8
0
 10
247.4570450546265
 20
56.80000686645508
 30
0.0
 40
2.450000762939453
  1
XVBC2B4;XVBC21
 41
0.9
  7
CADDY_VECTORFONT1P
 72
     2
 11
265.0000305175781
 21
56.80000686645508
 31
0.0
  3
Type
  2
$TAG160040
 70
     1
  0
ATTDEF
  5
15D
  8
0
 10
247.701769613266
 20
60.30000686645508
 30
0.0
 40
2.450000762939453
  1
Gul
 41
0.9
  7
CADDY_VECTORFONT1P
 72
     2
 11
265.0
 21
60.30000686645508
 31
0.0
  3
Beskrivelse 00
  2
$TAG160030
 70
     0
  0
ATTDEF
  5
15F
  8
0
 10
269.0499877929688
 20
68.40000915527344
 30
0.0
 40
2.450004577636719
  1
X1
 50
90.0
 41
0.9
  7
CADDY_VECTORFONT1P
  3
Tilslutningstekst 00
  2
$TAG175000_00
 70
     0
  0
ATTDEF
  5
161
  8
0
 10
269.0499877929688
 20
37.96581227226257
 30
0.0
 40
2.450000762939453
  1
X2
 50
90.0
 41
0.9
  7
CADDY_VECTORFONT1P
 72
     2
 11
269.0499877929688
 21
60.9000244140625
 31
0.0
  3
Tilslutningstekst 01
  2
$TAG175000_01
 70
     0
  0
ATTDEF
  5
163
  8
0
 10
247.45698722229
 20
70.80000305175781
 30
0.0
 40
2.450004577636719
  1
=
 41
0.9
  7
CADDY_VECTORFONT1P
 72
     2
 11
265.0
 21
70.80000305175781
 31
0.0
  3
Funktion (=)
  2
$TAG140020
 70
     1
  0
ATTDEF
  5
165
  8
0
 10
247.4570177398681
 20
67.30000305175781
 30
0.0
 40
2.450004577636719
  1
+
 41
0.9
  7
CADDY_VECTORFONT1P
 72
     2
 11
265.0000305175781
 21
67.30000305175781
 31
0.0
  3
Placering (+)
  2
$TAG140050
 70
     1
  0
ENDBLK
  8
0
  0
BLOCK
  8
0
  2
BLK11
 70
     2
 10
0.0
 20
0.0
 30
0.0
  0
CIRCLE
  5
16A
  8
0
  6
CADDY_SOLID
 10
310.0
 20
65.0
 30
0.0
 40
2.5
  0
LINE
  5
16B
  8
0
  6
CADDY_SOLID
 10
310.0
 20
67.5
 30
0.0
 11
310.0
 21
70.0
 31
0.0
  0
LINE
  5
16C
  8
0
  6
CADDY_SOLID
 10
310.0
 20
60.0
 30
0.0
 11
310.0
 21
62.5
 31
0.0
  0
LINE
  5
16D
  8
0
  6
CADDY_SOLID
 10
308.2322387695312
 20
66.76776123046875
 30
0.0
 11
311.7677612304688
 21
63.23223876953125
 31
0.0
  0
LINE
  5
16E
  8
0
  6
CADDY_SOLID
 10
308.2322387695312
 20
63.23223876953125
 30
0.0
 11
311.7677612304688
 21
66.76776123046875
 31
0.0
  0
ATTDEF
  5
171
  8
0
 10
288.1934847663879
 20
63.80000686645508
 30
0.0
 40
2.450000762939453
  1
29P7
 41
0.9
  7
CADDY_VECTORFONT1P
 72
     2
 11
305.0
 21
63.80000686645508
 31
0.0
  3
Produkt (-)
  2
$TAG160010
 70
     0
  0
ATTDEF
  5
173
  8
0
 10
287.4570145370483
 20
56.80000686645508
 30
0.0
 40
2.450000762939453
  1
XVBC2B4;XVBC21
 41
0.9
  7
CADDY_VECTORFONT1P
 72
     2
 11
305.0
 21
56.80000686645508
 31
0.0
  3
Type
  2
$TAG160040
 70
     1
  0
ATTDEF
  5
175
  8
0
 10
287.701769613266
 20
60.30000686645508
 30
0.0
 40
2.450000762939453
  1
Rød
 41
0.9
  7
CADDY_VECTORFONT1P
 72
     2
 11
305.0
 21
60.30000686645508
 31
0.0
  3
Beskrivelse 00
  2
$TAG160030
 70
     0
  0
ATTDEF
  5
177
  8
0
 10
309.0499877929688
 20
68.40000915527344
 30
0.0
 40
2.450004577636719
  1
X1
 50
90.0
 41
0.9
  7
CADDY_VECTORFONT1P
  3
Tilslutningstekst 00
  2
$TAG175000_00
 70
     0
  0
ATTDEF
  5
179
  8
0
 10
309.0499877929688
 20
37.96581227226257
 30
0.0
 40
2.450000762939453
  1
X2
 50
90.0
 41
0.9
  7
CADDY_VECTORFONT1P
 72
     2
 11
309.0499877929688
 21
60.9000244140625
 31
0.0
  3
Tilslutningstekst 01
  2
$TAG175000_01
 70
     0
  0
ATTDEF
  5
17B
  8
0
 10
287.45698722229
 20
70.80000305175781
 30
0.0
 40
2.450004577636719
  1
=
 41
0.9
  7
CADDY_VECTORFONT1P
 72
     2
 11
305.0
 21
70.80000305175781
 31
0.0
  3
Funktion (=)
  2
$TAG140020
 70
     1
  0
ATTDEF
  5
17D
  8
0
 10
287.4570177398681
 20
67.30000305175781
 30
0.0
 40
2.450004577636719
  1
+
 41
0.9
  7
CADDY_VECTORFONT1P
 72
     2
 11
305.0000305175781
 21
67.30000305175781
 31
0.0
  3
Placering (+)
  2
$TAG140050
 70
     1
  0
ENDBLK
  8
0
  0
BLOCK
  8
0
  2
BLK12
 70
     2
 10
0.0
 20
0.0
 30
0.0
  0
LINE
  5
184
  8
0
  6
CADDY_SOLID
 10
27.5
 20
70.0
 30
0.0
 11
29.75
 21
68.75
 31
0.0
  0
LINE
  5
185
  8
0
  6
CADDY_SOLID
 10
27.5
 20
70.0
 30
0.0
 11
29.75
 21
71.25
 31
0.0
  0
LINE
  5
186
  8
0
  6
CADDY_SOLID
 10
30.0
 20
70.0
 30
0.0
 11
27.5
 21
70.0
 31
0.0
  0
ATTDEF
  5
189
  8
0
 10
31.59999465942383
 20
70.90000915527344
 30
0.0
 40
2.450004577636719
  1
1006
 41
0.9
  7
CADDY_VECTORFONT1P
  3
Produkt (-)
  2
$TAG160010
 70
     1
  0
ATTDEF
  5
18B
  8
0
 10
7.701754123687742
 20
68.94999694824219
 30
0.0
 40
2.450004577636719
  1
24.9
 41
0.9
  7
CADDY_VECTORFONT1P
 72
     2
 11
25.0000114440918
 21
68.94999694824219
 31
0.0
  3
Side/strømvej reference
  2
$TAG160500
 70
     0
  0
ENDBLK
  8
0
  0
BLOCK
  8
0
  2
BLK13
 70
     2
 10
0.0
 20
0.0
 30
0.0
  0
LINE
  5
190
  8
0
  6
CADDY_SOLID
 10
75.0
 20
87.5
 30
0.0
 11
75.0
 21
92.5
 31
0.0
  0
LINE
  5
191
  8
0
  6
CADDY_SOLID
 10
75.0
 20
92.5
 30
0.0
 11
65.0
 21
92.5
 31
0.0
  0
LINE
  5
192
  8
0
  6
CADDY_SOLID
 10
65.0
 20
92.5
 30
0.0
 11
65.0
 21
87.5
 31
0.0
  0
LINE
  5
193
  8
0
  6
CADDY_SOLID
 10
65.0
 20
87.5
 30
0.0
 11
75.0
 21
87.5
 31
0.0
  0
LINE
  5
194
  8
0
  6
CADDY_SOLID
 10
70.0
 20
92.5
 30
0.0
 11
70.0
 21
95.0
 31
0.0
  0
LINE
  5
195
  8
0
  6
CADDY_SOLID
 10
70.0
 20
87.5
 30
0.0
 11
70.0
 21
85.0
 31
0.0
  0
ATTDEF
  5
198
  8
0
 10
45.69347004241943
 20
88.80000305175781
 30
0.0
 40
2.450004577636719
  1
K3701
 41
0.9
  7
CADDY_VECTORFONT1P
 72
     2
 11
62.5000114440918
 21
88.80000305175781
 31
0.0
  3
Produkt (-)
  2
$TAG160010
 70
     0
  0
ATTDEF
  5
19A
  8
0
 10
44.95699866638184
 20
81.80000305175781
 30
0.0
 40
2.450004577636719
  1

 41
0.9
  7
CADDY_VECTORFONT1P
 72
     2
 11
62.5000114440918
 21
81.80000305175781
 31
0.0
  3
Type
  2
$TAG160040
 70
     1
  0
ATTDEF
  5
19C
  8
0
 10
45.20175412368774
 20
85.30000305175781
 30
0.0
 40
2.450004577636719
  1

 41
0.9
  7
CADDY_VECTORFONT1P
 72
     2
 11
62.5000114440918
 21
85.30000305175781
 31
0.0
  3
Beskrivelse 00
  2
$TAG160030
 70
     0
  0
ATTDEF
  5
19E
  8
0
 10
69.05000305175781
 20
93.39999389648438
 30
0.0
 40
2.450004577636719
  1
A1
 50
90.0
 41
0.9
  7
CADDY_VECTORFONT1P
  3
Tilslutningstekst 00
  2
$TAG175000_00
 70
     0
  0
ATTDEF
  5
1A0
  8
0
 10
69.05000305175781
 20
62.96575367507935
 30
0.0
 40
2.450004577636719
  1
A2
 50
90.0
 41
0.9
  7
CADDY_VECTORFONT1P
 72
     2
 11
69.05000305175781
 21
85.9000015258789
 31
0.0
  3
Tilslutningstekst 01
  2
$TAG175000_01
 70
     0
  0
ENDBLK
  8
0
  0
BLOCK
  8
0
  2
BLK14
 70
     2
 10
0.0
 20
0.0
 30
0.0
  0
LINE
  5
1A8
  8
0
  6
CADDY_SOLID
 10
115.0
 20
87.5
 30
0.0
 11
115.0
 21
92.5
 31
0.0
  0
LINE
  5
1A9
  8
0
  6
CADDY_SOLID
 10
115.0
 20
92.5
 30
0.0
 11
105.0
 21
92.5
 31
0.0
  0
LINE
  5
1AA
  8
0
  6
CADDY_SOLID
 10
105.0
 20
92.5
 30
0.0
 11
105.0
 21
87.5
 31
0.0
  0
LINE
  5
1AB
  8
0
  6
CADDY_SOLID
 10
105.0
 20
87.5
 30
0.0
 11
115.0
 21
87.5
 31
0.0
  0
LINE
  5
1AC
  8
0
  6
CADDY_SOLID
 10
110.0
 20
92.5
 30
0.0
 11
110.0
 21
95.0
 31
0.0
  0
LINE
  5
1AD
  8
0
  6
CADDY_SOLID
 10
110.0
 20
87.5
 30
0.0
 11
110.0
 21
85.0
 31
0.0
  0
ATTDEF
  5
1B0
  8
0
 10
85.6934738571167
 20
88.80000305175781
 30
0.0
 40
2.450004577636719
  1
K3702
 41
0.9
  7
CADDY_VECTORFONT1P
 72
     2
 11
102.5000152587891
 21
88.80000305175781
 31
0.0
  3
Produkt (-)
  2
$TAG160010
 70
     0
  0
ATTDEF
  5
1B2
  8
0
 10
84.95699485168457
 20
81.80000305175781
 30
0.0
 40
2.450004577636719
  1

 41
0.9
  7
CADDY_VECTORFONT1P
 72
     2
 11
102.5000076293945
 21
81.80000305175781
 31
0.0
  3
Type
  2
$TAG160040
 70
     1
  0
ATTDEF
  5
1B4
  8
0
 10
85.20175030899048
 20
85.30000305175781
 30
0.0
 40
2.450004577636719
  1

 41
0.9
  7
CADDY_VECTORFONT1P
 72
     2
 11
102.5000076293945
 21
85.30000305175781
 31
0.0
  3
Beskrivelse 00
  2
$TAG160030
 70
     0
  0
ATTDEF
  5
1B6
  8
0
 10
109.0500030517578
 20
93.39999389648438
 30
0.0
 40
2.450004577636719
  1
A1
 50
90.0
 41
0.9
  7
CADDY_VECTORFONT1P
  3
Tilslutningstekst 00
  2
$TAG175000_00
 70
     0
  0
ATTDEF
  5
1B8
  8
0
 10
109.0500030517578
 20
62.96575367507935
 30
0.0
 40
2.450004577636719
  1
A2
 50
90.0
 41
0.9
  7
CADDY_VECTORFONT1P
 72
     2
 11
109.0500030517578
 21
85.9000015258789
 31
0.0
  3
Tilslutningstekst 01
  2
$TAG175000_01
 70
     0
  0
ENDBLK
  8
0
  0
BLOCK
  8
0
  2
BLK15
 70
     2
 10
0.0
 20
0.0
 30
0.0
  0
LINE
  5
1C0
  8
0
  6
CADDY_SOLID
 10
155.0
 20
87.5
 30
0.0
 11
155.0
 21
92.5
 31
0.0
  0
LINE
  5
1C1
  8
0
  6
CADDY_SOLID
 10
155.0
 20
92.5
 30
0.0
 11
145.0
 21
92.5
 31
0.0
  0
LINE
  5
1C2
  8
0
  6
CADDY_SOLID
 10
145.0
 20
92.5
 30
0.0
 11
145.0
 21
87.5
 31
0.0
  0
LINE
  5
1C3
  8
0
  6
CADDY_SOLID
 10
145.0
 20
87.5
 30
0.0
 11
155.0
 21
87.5
 31
0.0
  0
LINE
  5
1C4
  8
0
  6
CADDY_SOLID
 10
150.0
 20
92.5
 30
0.0
 11
150.0
 21
95.0
 31
0.0
  0
LINE
  5
1C5
  8
0
  6
CADDY_SOLID
 10
150.0
 20
87.5
 30
0.0
 11
150.0
 21
85.0
 31
0.0
  0
ATTDEF
  5
1C8
  8
0
 10
125.6934738571167
 20
88.80000305175781
 30
0.0
 40
2.450004577636719
  1
K3703
 41
0.9
  7
CADDY_VECTORFONT1P
 72
     2
 11
142.5000152587891
 21
88.80000305175781
 31
0.0
  3
Produkt (-)
  2
$TAG160010
 70
     0
  0
ATTDEF
  5
1CA
  8
0
 10
124.9570024810791
 20
81.80000305175781
 30
0.0
 40
2.450004577636719
  1

 41
0.9
  7
CADDY_VECTORFONT1P
 72
     2
 11
142.5000152587891
 21
81.80000305175781
 31
0.0
  3
Type
  2
$TAG160040
 70
     1
  0
ATTDEF
  5
1CC
  8
0
 10
125.201757938385
 20
85.30000305175781
 30
0.0
 40
2.450004577636719
  1

 41
0.9
  7
CADDY_VECTORFONT1P
 72
     2
 11
142.5000152587891
 21
85.30000305175781
 31
0.0
  3
Beskrivelse 00
  2
$TAG160030
 70
     0
  0
ATTDEF
  5
1CE
  8
0
 10
149.0500030517578
 20
93.39999389648438
 30
0.0
 40
2.450004577636719
  1
A1
 50
90.0
 41
0.9
  7
CADDY_VECTORFONT1P
  3
Tilslutningstekst 00
  2
$TAG175000_00
 70
     0
  0
ATTDEF
  5
1D0
  8
0
 10
149.0500030517578
 20
62.96576130447388
 30
0.0
 40
2.450004577636719
  1
A2
 50
90.0
 41
0.9
  7
CADDY_VECTORFONT1P
 72
     2
 11
149.0500030517578
 21
85.90000915527344
 31
0.0
  3
Tilslutningstekst 01
  2
$TAG175000_01
 70
     0
  0
ENDBLK
  8
0
  0
BLOCK
  8
0
  2
BLK16
 70
     2
 10
0.0
 20
0.0
 30
0.0
  0
LINE
  5
1F2
  8
0
  6
CADDY_SOLID
 10
167.5
 20
70.0
 30
0.0
 11
165.25
 21
71.25
 31
0.0
  0
LINE
  5
1F3
  8
0
  6
CADDY_SOLID
 10
167.5
 20
70.0
 30
0.0
 11
165.25
 21
68.75
 31
0.0
  0
LINE
  5
1F4
  8
0
  6
CADDY_SOLID
 10
165.0
 20
70.0
 30
0.0
 11
167.5
 21
70.0
 31
0.0
  0
ATTDEF
  5
1F7
  8
0
 10
145.6934891159058
 20
70.89999389648438
 30
0.0
 40
2.450004577636719
  1
0707
 41
0.9
  7
CADDY_VECTORFONT1P
 72
     2
 11
162.5000305175781
 21
70.89999389648438
 31
0.0
  3
Produkt (-)
  2
$TAG160010
 70
     1
  0
ATTDEF
  5
1F9
  8
0
 10
169.6500091552734
 20
68.84999084472656
 30
0.0
 40
2.450004577636719
  1
37.8
 41
0.9
  7
CADDY_VECTORFONT1P
  3
Side/strømvej reference
  2
$TAG160500
 70
     0
  0
ENDBLK
  8
0
  0
BLOCK
  8
0
  2
BLK17
 70
     2
 10
0.0
 20
0.0
 30
0.0
  0
LINE
  5
1FE
  8
0
  6
CADDY_SOLID
 10
230.0
 20
192.5
 30
0.0
 11
230.0
 21
195.0
 31
0.0
  0
LINE
  5
1FF
  8
0
  6
CADDY_SOLID
 10
230.0
 20
187.5
 30
0.0
 11
230.0
 21
185.0
 31
0.0
  0
LINE
  5
200
  8
0
  6
CADDY_SOLID
 10
230.0
 20
187.5
 30
0.0
 11
226.5849304199219
 21
193.4150695800781
 31
0.0
  0
ATTDEF
  5
203
  8
0
 10
207.1935261932373
 20
188.8000030517578
 30
0.0
 40
2.449996948242188
  1
K3701
 41
0.9
  7
CADDY_VECTORFONT1P
 72
     2
 11
224.0000152587891
 21
188.8000030517578
 31
0.0
  3
Produkt (-)
  2
$TAG160010
 70
     0
  0
ATTDEF
  5
205
  8
0
 10
206.701796546936
 20
185.3000030517578
 30
0.0
 40
2.449996948242188
  1
37.1
 41
0.9
  7
CADDY_VECTORFONT1P
 72
     2
 11
224.0
 21
185.3000030517578
 31
0.0
  3
Side/strømvej reference
  2
$TAG160500
 70
     0
  0
ATTDEF
  5
207
  8
0
 10
229.0500030517578
 20
194.3000030517578
 30
0.0
 40
2.449996948242188
  1
11
 50
90.0
 41
0.9
  7
CADDY_VECTORFONT1P
  3
Tilslutningstekst 00
  2
$TAG175000_00
 70
     0
  0
ATTDEF
  5
209
  8
0
 10
229.0500030517578
 20
162.9658327224732
 30
0.0
 40
2.449996948242188
  1
14
 50
90.0
 41
0.9
  7
CADDY_VECTORFONT1P
 72
     2
 11
229.0500030517578
 21
185.9000091552734
 31
0.0
  3
Tilslutningstekst 01
  2
$TAG175000_01
 70
     0
  0
ENDBLK
  8
0
  0
BLOCK
  8
0
  2
BLK18
 70
     2
 10
0.0
 20
0.0
 30
0.0
  0
LINE
  5
20E
  8
0
  6
CADDY_SOLID
 10
270.0
 20
192.5
 30
0.0
 11
270.0
 21
195.0
 31
0.0
  0
LINE
  5
20F
  8
0
  6
CADDY_SOLID
 10
270.0
 20
187.5
 30
0.0
 11
270.0
 21
185.0
 31
0.0
  0
LINE
  5
210
  8
0
  6
CADDY_SOLID
 10
270.0
 20
187.5
 30
0.0
 11
266.5849304199219
 21
193.4150695800781
 31
0.0
  0
ATTDEF
  5
213
  8
0
 10
247.1935109344483
 20
188.8000030517578
 30
0.0
 40
2.449996948242188
  1
K3702
 41
0.9
  7
CADDY_VECTORFONT1P
 72
     2
 11
264.0
 21
188.8000030517578
 31
0.0
  3
Produkt (-)
  2
$TAG160010
 70
     0
  0
ATTDEF
  5
215
  8
0
 10
246.701796546936
 20
185.3000030517578
 30
0.0
 40
2.449996948242188
  1
37.2
 41
0.9
  7
CADDY_VECTORFONT1P
 72
     2
 11
264.0
 21
185.3000030517578
 31
0.0
  3
Side/strømvej reference
  2
$TAG160500
 70
     0
  0
ATTDEF
  5
217
  8
0
 10
269.0499877929688
 20
194.3000183105469
 30
0.0
 40
2.449996948242188
  1
11
 50
90.0
 41
0.9
  7
CADDY_VECTORFONT1P
  3
Tilslutningstekst 00
  2
$TAG175000_00
 70
     0
  0
ATTDEF
  5
219
  8
0
 10
269.0499877929688
 20
162.9658479812622
 30
0.0
 40
2.449996948242188
  1
14
 50
90.0
 41
0.9
  7
CADDY_VECTORFONT1P
 72
     2
 11
269.0499877929688
 21
185.9000244140625
 31
0.0
  3
Tilslutningstekst 01
  2
$TAG175000_01
 70
     0
  0
ENDBLK
  8
0
  0
BLOCK
  8
0
  2
BLK19
 70
     2
 10
0.0
 20
0.0
 30
0.0
  0
LINE
  5
21E
  8
0
  6
CADDY_SOLID
 10
310.0
 20
192.5
 30
0.0
 11
310.0
 21
195.0
 31
0.0
  0
LINE
  5
21F
  8
0
  6
CADDY_SOLID
 10
310.0
 20
187.5
 30
0.0
 11
310.0
 21
185.0
 31
0.0
  0
LINE
  5
220
  8
0
  6
CADDY_SOLID
 10
310.0
 20
187.5
 30
0.0
 11
306.5849304199219
 21
193.4150695800781
 31
0.0
  0
ATTDEF
  5
223
  8
0
 10
287.1934804168701
 20
188.8000030517578
 30
0.0
 40
2.449996948242188
  1
K3703
 41
0.9
  7
CADDY_VECTORFONT1P
 72
     2
 11
303.9999694824219
 21
188.8000030517578
 31
0.0
  3
Produkt (-)
  2
$TAG160010
 70
     0
  0
ATTDEF
  5
225
  8
0
 10
286.7017965469361
 20
185.3000030517578
 30
0.0
 40
2.449996948242188
  1
37.3
 41
0.9
  7
CADDY_VECTORFONT1P
 72
     2
 11
304.0
 21
185.3000030517578
 31
0.0
  3
Side/strømvej reference
  2
$TAG160500
 70
     0
  0
ATTDEF
  5
227
  8
0
 10
309.0499877929688
 20
194.3000183105469
 30
0.0
 40
2.449996948242188
  1
11
 50
90.0
 41
0.9
  7
CADDY_VECTORFONT1P
  3
Tilslutningstekst 00
  2
$TAG175000_00
 70
     0
  0
ATTDEF
  5
229
  8
0
 10
309.0499877929688
 20
162.9658479812622
 30
0.0
 40
2.449996948242188
  1
14
 50
90.0
 41
0.9
  7
CADDY_VECTORFONT1P
 72
     2
 11
309.0499877929688
 21
185.9000244140625
 31
0.0
  3
Tilslutningstekst 01
  2
$TAG175000_01
 70
     0
  0
ENDBLK
  8
0
  0
BLOCK
  8
0
  2
BLK20
 70
     2
 10
0.0
 20
0.0
 30
0.0
  0
LINE
  5
24B
  8
0
  6
CADDY_SOLID
 10
332.5
 20
115.0
 30
0.0
 11
334.75
 21
113.75
 31
0.0
  0
LINE
  5
24C
  8
0
  6
CADDY_SOLID
 10
332.5
 20
115.0
 30
0.0
 11
334.75
 21
116.25
 31
0.0
  0
LINE
  5
24D
  8
0
  6
CADDY_SOLID
 10
335.0
 20
115.0
 30
0.0
 11
332.5
 21
115.0
 31
0.0
  0
ATTDEF
  5
250
  8
0
 10
336.6000061035156
 20
115.9000091552734
 30
0.0
 40
2.450004577636719
  1
0707
 41
0.9
  7
CADDY_VECTORFONT1P
  3
Produkt (-)
  2
$TAG160010
 70
     1
  0
ATTDEF
  5
252
  8
0
 10
312.701742679596
 20
113.9499969482422
 30
0.0
 40
2.450004577636719
  1
38.5
 41
0.9
  7
CADDY_VECTORFONT1P
 72
     2
 11
330.0
 21
113.9499969482422
 31
0.0
  3
Side/strømvej reference
  2
$TAG160500
 70
     0
  0
ENDBLK
  8
0
  0
BLOCK
  8
0
  2
BLK21
 70
     2
 10
0.0
 20
0.0
 30
0.0
  0
ATTDEF
  5
268
  8
0
 10
360.7000122070312
 20
90.69999694824219
 30
0.0
 40
2.450004577636719
  1
W29.5
 41
0.9
  7
CADDY_VECTORFONT1P
  3
Produkt (-)
  2
$TAG160010
 70
     1
  0
ATTDEF
  5
26A
  8
0
 10
360.7000122070312
 20
85.69999694824219
 30
0.0
 40
2.450004577636719
  1

 41
0.9
  7
CADDY_VECTORFONT1P
  3
Beskrivelse 00
  2
$TAG160030
 70
     1
  0
ATTDEF
  5
26C
  8
0
 10
360.7000122070312
 20
80.69999694824219
 30
0.0
 40
2.450004577636719
  1

 41
0.9
  7
CADDY_VECTORFONT1P
  3
Kabeldimension
  2
$TAG160200
 70
     1
  0
ATTDEF
  5
26E
  8
0
 10
360.7000122070312
 20
75.69999694824219
 30
0.0
 40
2.450004577636719
  1

 41
0.9
  7
CADDY_VECTORFONT1P
  3
Type
  2
$TAG160040
 70
     1
  0
ATTDEF
  5
270
  8
0
 10
360.7000122070312
 20
70.69999694824219
 30
0.0
 40
2.450004577636719
  1

 41
0.9
  7
CADDY_VECTORFONT1P
  3
Længde
  2
$TAG160101
 70
     1
  0
ATTDEF
  5
272
  8
0
 10
230.6999969482422
 20
90.69999694824219
 30
0.0
 40
2.450004577636719
  1
1
 41
0.9
  7
CADDY_VECTORFONT1P
  3
Kabelkorenummer
  2
$TAG160210
 70
     0
  0
ATTDEF
  5
274
  8
0
 10
230.6999969482422
 20
85.69999694824219
 30
0.0
 40
2.450004577636719
  1

 41
0.9
  7
CADDY_VECTORFONT1P
  3
Kabelkorefarve
  2
$TAG160220
 70
     1
  0
ATTDEF
  5
276
  8
0
 10
230.6999969482422
 20
80.69999694824219
 30
0.0
 40
2.450004577636719
  1

 41
0.9
  7
CADDY_VECTORFONT1P
  3
Kabelkoretværsnit
  2
$TAG160230
 70
     1
  0
LINE
  5
277
  8
0
  6
CADDY_SOLID
 10
230.0
 20
90.5
 30
0.0
 11
230.0
 21
89.5
 31
0.0
  0
ENDBLK
  8
0
  0
BLOCK
  8
0
  2
BLK22
 70
     2
 10
0.0
 20
0.0
 30
0.0
  0
ATTDEF
  5
27E
  8
0
 10
360.7000122070312
 20
90.69999694824219
 30
0.0
 40
2.450004577636719
  1
W29.5
 41
0.9
  7
CADDY_VECTORFONT1P
  3
Produkt (-)
  2
$TAG160010
 70
     1
  0
ATTDEF
  5
280
  8
0
 10
360.7000122070312
 20
85.69999694824219
 30
0.0
 40
2.450004577636719
  1

 41
0.9
  7
CADDY_VECTORFONT1P
  3
Beskrivelse 00
  2
$TAG160030
 70
     1
  0
ATTDEF
  5
282
  8
0
 10
360.7000122070312
 20
80.69999694824219
 30
0.0
 40
2.450004577636719
  1

 41
0.9
  7
CADDY_VECTORFONT1P
  3
Kabeldimension
  2
$TAG160200
 70
     1
  0
ATTDEF
  5
284
  8
0
 10
360.7000122070312
 20
75.69999694824219
 30
0.0
 40
2.450004577636719
  1

 41
0.9
  7
CADDY_VECTORFONT1P
  3
Type
  2
$TAG160040
 70
     1
  0
ATTDEF
  5
286
  8
0
 10
360.7000122070312
 20
70.69999694824219
 30
0.0
 40
2.450004577636719
  1

 41
0.9
  7
CADDY_VECTORFONT1P
  3
Længde
  2
$TAG160101
 70
     1
  0
ATTDEF
  5
288
  8
0
 10
270.7000122070312
 20
90.69999694824219
 30
0.0
 40
2.450004577636719
  1
2
 41
0.9
  7
CADDY_VECTORFONT1P
  3
Kabelkorenummer
  2
$TAG160210
 70
     0
  0
ATTDEF
  5
28A
  8
0
 10
270.7000122070312
 20
85.69999694824219
 30
0.0
 40
2.450004577636719
  1

 41
0.9
  7
CADDY_VECTORFONT1P
  3
Kabelkorefarve
  2
$TAG160220
 70
     1
  0
ATTDEF
  5
28C
  8
0
 10
270.7000122070312
 20
80.69999694824219
 30
0.0
 40
2.450004577636719
  1

 41
0.9
  7
CADDY_VECTORFONT1P
  3
Kabelkoretværsnit
  2
$TAG160230
 70
     1
  0
LINE
  5
28D
  8
0
  6
CADDY_SOLID
 10
270.0
 20
90.5
 30
0.0
 11
270.0
 21
89.5
 31
0.0
  0
ENDBLK
  8
0
  0
BLOCK
  8
0
  2
BLK23
 70
     2
 10
0.0
 20
0.0
 30
0.0
  0
ATTDEF
  5
294
  8
0
 10
360.7000122070312
 20
90.69999694824219
 30
0.0
 40
2.450004577636719
  1
W29.5
 41
0.9
  7
CADDY_VECTORFONT1P
  3
Produkt (-)
  2
$TAG160010
 70
     1
  0
ATTDEF
  5
296
  8
0
 10
360.7000122070312
 20
85.69999694824219
 30
0.0
 40
2.450004577636719
  1

 41
0.9
  7
CADDY_VECTORFONT1P
  3
Beskrivelse 00
  2
$TAG160030
 70
     1
  0
ATTDEF
  5
298
  8
0
 10
360.7000122070312
 20
80.69999694824219
 30
0.0
 40
2.450004577636719
  1

 41
0.9
  7
CADDY_VECTORFONT1P
  3
Kabeldimension
  2
$TAG160200
 70
     1
  0
ATTDEF
  5
29A
  8
0
 10
360.7000122070312
 20
75.69999694824219
 30
0.0
 40
2.450004577636719
  1

 41
0.9
  7
CADDY_VECTORFONT1P
  3
Type
  2
$TAG160040
 70
     1
  0
ATTDEF
  5
29C
  8
0
 10
360.7000122070312
 20
70.69999694824219
 30
0.0
 40
2.450004577636719
  1

 41
0.9
  7
CADDY_VECTORFONT1P
  3
Længde
  2
$TAG160101
 70
     1
  0
ATTDEF
  5
29E
  8
0
 10
310.7000122070312
 20
90.69999694824219
 30
0.0
 40
2.450004577636719
  1
3
 41
0.9
  7
CADDY_VECTORFONT1P
  3
Kabelkorenummer
  2
$TAG160210
 70
     0
  0
ATTDEF
  5
2A0
  8
0
 10
310.7000122070312
 20
85.69999694824219
 30
0.0
 40
2.450004577636719
  1

 41
0.9
  7
CADDY_VECTORFONT1P
  3
Kabelkorefarve
  2
$TAG160220
 70
     1
  0
ATTDEF
  5
2A2
  8
0
 10
310.7000122070312
 20
80.69999694824219
 30
0.0
 40
2.450004577636719
  1

 41
0.9
  7
CADDY_VECTORFONT1P
  3
Kabelkoretværsnit
  2
$TAG160230
 70
     1
  0
LINE
  5
2A3
  8
0
  6
CADDY_SOLID
 10
310.0
 20
90.5
 30
0.0
 11
310.0
 21
89.5
 31
0.0
  0
ENDBLK
  8
0
  0
BLOCK
  8
0
  2
BLK24
 70
     2
 10
0.0
 20
0.0
 30
0.0
  0
ATTDEF
  5
2AA
  8
0
 10
360.7000122070312
 20
90.69999694824219
 30
0.0
 40
2.450004577636719
  1
W3708
 41
0.9
  7
CADDY_VECTORFONT1P
  3
Produkt (-)
  2
$TAG160010
 70
     0
  0
ATTDEF
  5
2AC
  8
0
 10
360.7000122070312
 20
85.69999694824219
 30
0.0
 40
2.450004577636719
  1

 41
0.9
  7
CADDY_VECTORFONT1P
  3
Beskrivelse 00
  2
$TAG160030
 70
     0
  0
ATTDEF
  5
2AE
  8
0
 10
360.7000122070312
 20
80.69999694824219
 30
0.0
 40
2.450004577636719
  1

 41
0.9
  7
CADDY_VECTORFONT1P
  3
Kabeldimension
  2
$TAG160200
 70
     0
  0
ATTDEF
  5
2B0
  8
0
 10
360.7000122070312
 20
75.69999694824219
 30
0.0
 40
2.450004577636719
  1

 41
0.9
  7
CADDY_VECTORFONT1P
  3
Type
  2
$TAG160040
 70
     1
  0
ATTDEF
  5
2B2
  8
0
 10
360.7000122070312
 20
70.69999694824219
 30
0.0
 40
2.450004577636719
  1

 41
0.9
  7
CADDY_VECTORFONT1P
  3
Længde
  2
$TAG160101
 70
     1
  0
ATTDEF
  5
2B4
  8
0
 10
350.7000122070312
 20
90.69999694824219
 30
0.0
 40
2.450004577636719
  1
4
 41
0.9
  7
CADDY_VECTORFONT1P
  3
Kabelkorenummer
  2
$TAG160210
 70
     0
  0
ATTDEF
  5
2B6
  8
0
 10
350.7000122070312
 20
85.69999694824219
 30
0.0
 40
2.450004577636719
  1

 41
0.9
  7
CADDY_VECTORFONT1P
  3
Kabelkorefarve
  2
$TAG160220
 70
     1
  0
ATTDEF
  5
2B8
  8
0
 10
350.7000122070312
 20
80.69999694824219
 30
0.0
 40
2.450004577636719
  1

 41
0.9
  7
CADDY_VECTORFONT1P
  3
Kabelkoretværsnit
  2
$TAG160230
 70
     1
  0
LINE
  5
2B9
  8
0
  6
CADDY_SOLID
 10
350.0
 20
90.5
 30
0.0
 11
350.0
 21
89.5
 31
0.0
  0
ENDBLK
  8
0
  0
BLOCK
  8
0
  2
BLK25
 70
     2
 10
0.0
 20
0.0
 30
0.0
  0
ATTDEF
  5
2D4
  8
0
 10
320.7000122070312
 20
125.6999969482422
 30
0.0
 40
2.449996948242188
  1
W3507
 41
0.9
  7
CADDY_VECTORFONT1P
  3
Produkt (-)
  2
$TAG160010
 70
     1
  0
ATTDEF
  5
2D6
  8
0
 10
320.7000122070312
 20
120.6999969482422
 30
0.0
 40
2.450004577636719
  1

 41
0.9
  7
CADDY_VECTORFONT1P
  3
Beskrivelse 00
  2
$TAG160030
 70
     1
  0
ATTDEF
  5
2D8
  8
0
 10
320.7000122070312
 20
115.6999969482422
 30
0.0
 40
2.450004577636719
  1

 41
0.9
  7
CADDY_VECTORFONT1P
  3
Kabeldimension
  2
$TAG160200
 70
     1
  0
ATTDEF
  5
2DA
  8
0
 10
320.7000122070312
 20
110.6999969482422
 30
0.0
 40
2.450004577636719
  1

 41
0.9
  7
CADDY_VECTORFONT1P
  3
Type
  2
$TAG160040
 70
     1
  0
ATTDEF
  5
2DC
  8
0
 10
320.7000122070312
 20
105.6999969482422
 30
0.0
 40
2.450004577636719
  1

 41
0.9
  7
CADDY_VECTORFONT1P
  3
Længde
  2
$TAG160101
 70
     1
  0
ATTDEF
  5
2DE
  8
0
 10
230.6999969482422
 20
125.6999969482422
 30
0.0
 40
2.449996948242188
  1
2
 41
0.9
  7
CADDY_VECTORFONT1P
  3
Kabelkorenummer
  2
$TAG160210
 70
     0
  0
ATTDEF
  5
2E0
  8
0
 10
230.6999969482422
 20
120.6999969482422
 30
0.0
 40
2.450004577636719
  1

 41
0.9
  7
CADDY_VECTORFONT1P
  3
Kabelkorefarve
  2
$TAG160220
 70
     1
  0
ATTDEF
  5
2E2
  8
0
 10
230.6999969482422
 20
115.6999969482422
 30
0.0
 40
2.450004577636719
  1

 41
0.9
  7
CADDY_VECTORFONT1P
  3
Kabelkoretværsnit
  2
$TAG160230
 70
     1
  0
LINE
  5
2E3
  8
0
  6
CADDY_SOLID
 10
230.0
 20
125.5
 30
0.0
 11
230.0
 21
124.5
 31
0.0
  0
ENDBLK
  8
0
  0
BLOCK
  8
0
  2
BLK26
 70
     2
 10
0.0
 20
0.0
 30
0.0
  0
ATTDEF
  5
2EA
  8
0
 10
320.7000122070312
 20
125.6999969482422
 30
0.0
 40
2.449996948242188
  1
W12.1
 41
0.9
  7
CADDY_VECTORFONT1P
  3
Produkt (-)
  2
$TAG160010
 70
     1
  0
ATTDEF
  5
2EC
  8
0
 10
320.7000122070312
 20
120.6999969482422
 30
0.0
 40
2.450004577636719
  1

 41
0.9
  7
CADDY_VECTORFONT1P
  3
Beskrivelse 00
  2
$TAG160030
 70
     1
  0
ATTDEF
  5
2EE
  8
0
 10
320.7000122070312
 20
115.6999969482422
 30
0.0
 40
2.450004577636719
  1

 41
0.9
  7
CADDY_VECTORFONT1P
  3
Kabeldimension
  2
$TAG160200
 70
     1
  0
ATTDEF
  5
2F0
  8
0
 10
320.7000122070312
 20
110.6999969482422
 30
0.0
 40
2.450004577636719
  1

 41
0.9
  7
CADDY_VECTORFONT1P
  3
Type
  2
$TAG160040
 70
     1
  0
ATTDEF
  5
2F2
  8
0
 10
320.7000122070312
 20
105.6999969482422
 30
0.0
 40
2.450004577636719
  1

 41
0.9
  7
CADDY_VECTORFONT1P
  3
Længde
  2
$TAG160101
 70
     1
  0
ATTDEF
  5
2F4
  8
0
 10
270.7000122070312
 20
125.6999969482422
 30
0.0
 40
2.449996948242188
  1
3
 41
0.9
  7
CADDY_VECTORFONT1P
  3
Kabelkorenummer
  2
$TAG160210
 70
     0
  0
ATTDEF
  5
2F6
  8
0
 10
270.7000122070312
 20
120.6999969482422
 30
0.0
 40
2.450004577636719
  1

 41
0.9
  7
CADDY_VECTORFONT1P
  3
Kabelkorefarve
  2
$TAG160220
 70
     1
  0
ATTDEF
  5
2F8
  8
0
 10
270.7000122070312
 20
115.6999969482422
 30
0.0
 40
2.450004577636719
  1

 41
0.9
  7
CADDY_VECTORFONT1P
  3
Kabelkoretværsnit
  2
$TAG160230
 70
     1
  0
LINE
  5
2F9
  8
0
  6
CADDY_SOLID
 10
270.0
 20
125.5
 30
0.0
 11
270.0
 21
124.5
 31
0.0
  0
ENDBLK
  8
0
  0
BLOCK
  8
0
  2
BLK27
 70
     2
 10
0.0
 20
0.0
 30
0.0
  0
ATTDEF
  5
300
  8
0
 10
320.7000122070312
 20
125.6999969482422
 30
0.0
 40
2.449996948242188
  1
W3507
 41
0.9
  7
CADDY_VECTORFONT1P
  3
Produkt (-)
  2
$TAG160010
 70
     0
  0
ATTDEF
  5
302
  8
0
 10
320.7000122070312
 20
120.6999969482422
 30
0.0
 40
2.450004577636719
  1

 41
0.9
  7
CADDY_VECTORFONT1P
  3
Beskrivelse 00
  2
$TAG160030
 70
     0
  0
ATTDEF
  5
304
  8
0
 10
320.7000122070312
 20
115.6999969482422
 30
0.0
 40
2.450004577636719
  1

 41
0.9
  7
CADDY_VECTORFONT1P
  3
Kabeldimension
  2
$TAG160200
 70
     0
  0
ATTDEF
  5
306
  8
0
 10
320.7000122070312
 20
110.6999969482422
 30
0.0
 40
2.450004577636719
  1

 41
0.9
  7
CADDY_VECTORFONT1P
  3
Type
  2
$TAG160040
 70
     1
  0
ATTDEF
  5
308
  8
0
 10
320.7000122070312
 20
105.6999969482422
 30
0.0
 40
2.450004577636719
  1

 41
0.9
  7
CADDY_VECTORFONT1P
  3
Længde
  2
$TAG160101
 70
     1
  0
ATTDEF
  5
30A
  8
0
 10
310.7000122070312
 20
125.6999969482422
 30
0.0
 40
2.449996948242188
  1
4
 41
0.9
  7
CADDY_VECTORFONT1P
  3
Kabelkorenummer
  2
$TAG160210
 70
     0
  0
ATTDEF
  5
30C
  8
0
 10
310.7000122070312
 20
120.6999969482422
 30
0.0
 40
2.450004577636719
  1

 41
0.9
  7
CADDY_VECTORFONT1P
  3
Kabelkorefarve
  2
$TAG160220
 70
     1
  0
ATTDEF
  5
30E
  8
0
 10
310.7000122070312
 20
115.6999969482422
 30
0.0
 40
2.450004577636719
  1

 41
0.9
  7
CADDY_VECTORFONT1P
  3
Kabelkoretværsnit
  2
$TAG160230
 70
     1
  0
LINE
  5
30F
  8
0
  6
CADDY_SOLID
 10
310.0
 20
125.5
 30
0.0
 11
310.0
 21
124.5
 31
0.0
  0
ENDBLK
  8
0
  0
BLOCK
  8
0
  2
BLK28
 70
     2
 10
0.0
 20
0.0
 30
0.0
  0
INSERT
  5
31C
  8
0
  2
BLK29
 10
0.0
 20
0.0
 30
1.0
  0
LINE
  5
321
  8
0
  6
CADDY_SOLID
 10
55.0
 20
230.0
 30
0.0
 11
75.0
 21
230.0
 31
0.0
  0
LINE
  5
322
  8
0
  6
CADDY_SOLID
 10
55.0
 20
235.0
 30
0.0
 11
75.0
 21
235.0
 31
0.0
  0
LINE
  5
323
  8
0
  6
CADDY_SOLID
 10
70.0
 20
225.0
 30
0.0
 11
70.0
 21
220.0
 31
0.0
  0
TEXT
  5
324
  8
0
 10
55.70000076293945
 20
235.6999969482422
 30
0.0
 40
2.449996948242188
  1
Digital
 41
0.9
  7
CADDY_VECTORFONT1P
  0
TEXT
  5
325
  8
0
 10
55.70000076293945
 20
232.1999969482422
 30
0.0
 40
2.449996948242188
  1
Udgang
 41
0.9
  7
CADDY_VECTORFONT1P
  0
LINE
  5
326
  8
0
  6
CADDY_SOLID
 10
67.5
 20
240.0
 30
0.0
 11
67.5
 21
230.0
 31
0.0
  0
LINE
  5
327
  8
0
  6
CADDY_SOLID
 10
71.0
 20
238.5
 30
0.0
 11
68.5
 21
236.0
 31
0.0
  0
LINE
  5
328
  8
0
  6
CADDY_SOLID
 10
68.5
 20
236.0
 30
0.0
 11
73.5
 21
236.0
 31
0.0
  0
LINE
  5
329
  8
0
  6
CADDY_SOLID
 10
73.5
 20
236.0
 30
0.0
 11
71.0
 21
238.5
 31
0.0
  0
ATTDEF
  5
32C
  8
0
 10
69.05000305175781
 20
197.4763080734253
 30
0.0
 40
2.449996948242188
  1

 50
90.0
 41
0.9
  7
CADDY_VECTORFONT1P
 72
     2
 11
69.05000305175781
 21
220.8999938964844
 31
0.0
  3
Tilslutningstekst 00
  2
$TAG175000_00
 70
     0
  0
ATTDEF
  5
32E
  8
0
 10
54.99352161560059
 20
226.1999969482422
 30
0.0
 40
2.449996948242188
  1
D1806-B3
 41
0.9
  7
CADDY_VECTORFONT1P
 72
     2
 11
71.80001068115234
 21
226.1999969482422
 31
0.0
  3
Signaladresse
  2
$TAG175100
 70
     0
  0
ATTDEF
  5
330
  8
0
 10
35.485224559021
 20
223.6999969482422
 30
0.0
 40
2.449996948242188
  1

 41
0.9
  7
CADDY_VECTORFONT1P
 72
     2
 11
51.79999923706055
 21
223.6999969482422
 31
0.0
  3
Signalbeskrivelse
  2
$TAG175110
 70
     0
  0
ATTDEF
  5
332
  8
0
 10
34.99351017150879
 20
220.1999969482422
 30
0.0
 40
2.449996948242188
  1

 41
0.9
  7
CADDY_VECTORFONT1P
 72
     2
 11
51.79999923706055
 21
220.1999969482422
 31
0.0
  3
Signalbemærkning
  2
$TAG175120
 70
     0
  0
ATTDEF
  5
334
  8
0
 10
31.6535100189209
 20
230.5500030517578
 30
0.0
 40
2.449996948242188
  1
#00000033
 41
0.9
  7
CADDY_VECTORFONT1P
 72
     2
 11
48.45999908447266
 21
230.5500030517578
 31
0.0
  3
Produkt (-)
  2
$TAG160010
 70
     1
  0
ATTDEF
  5
336
  8
0
 10
31.16179944610596
 20
216.5500030517578
 30
0.0
 40
2.449996948242188
  1

 41
0.9
  7
CADDY_VECTORFONT1P
 72
     2
 11
48.46000289916992
 21
216.5500030517578
 31
0.0
  3
Side/strømvej reference
  2
$TAG160500
 70
     0
  0
ENDBLK
  8
0
  0
BLOCK
  8
0
  2
BLK29
 70
     0
 10
0.0
 20
0.0
 30
0.0
  0
LINE
  5
31D
  8
0
  6
CADDY_SOLID
 10
55.0
 20
240.0
 30
0.0
 11
75.0
 21
240.0
 31
0.0
  0
LINE
  5
31E
  8
0
  6
CADDY_SOLID
 10
75.0
 20
240.0
 30
0.0
 11
75.0
 21
225.0
 31
0.0
  0
LINE
  5
31F
  8
0
  6
CADDY_SOLID
 10
75.0
 20
225.0
 30
0.0
 11
55.0
 21
225.0
 31
0.0
  0
LINE
  5
320
  8
0
  6
CADDY_SOLID
 10
55.0
 20
225.0
 30
0.0
 11
55.0
 21
240.0
 31
0.0
  0
ENDBLK
  8
0
  0
BLOCK
  8
0
  2
BLK30
 70
     2
 10
0.0
 20
0.0
 30
0.0
  0
INSERT
  5
33E
  8
0
  2
BLK31
 10
0.0
 20
0.0
 30
1.0
  0
LINE
  5
343
  8
0
  6
CADDY_SOLID
 10
95.0
 20
230.0
 30
0.0
 11
115.0
 21
230.0
 31
0.0
  0
LINE
  5
344
  8
0
  6
CADDY_SOLID
 10
95.0
 20
235.0
 30
0.0
 11
115.0
 21
235.0
 31
0.0
  0
LINE
  5
345
  8
0
  6
CADDY_SOLID
 10
110.0
 20
225.0
 30
0.0
 11
110.0
 21
220.0
 31
0.0
  0
TEXT
  5
346
  8
0
 10
95.69999694824219
 20
235.6999969482422
 30
0.0
 40
2.449996948242188
  1
Digital
 41
0.9
  7
CADDY_VECTORFONT1P
  0
TEXT
  5
347
  8
0
 10
95.69999694824219
 20
232.1999969482422
 30
0.0
 40
2.449996948242188
  1
Udgang
 41
0.9
  7
CADDY_VECTORFONT1P
  0
LINE
  5
348
  8
0
  6
CADDY_SOLID
 10
107.5
 20
240.0
 30
0.0
 11
107.5
 21
230.0
 31
0.0
  0
LINE
  5
349
  8
0
  6
CADDY_SOLID
 10
111.0
 20
238.5
 30
0.0
 11
108.5
 21
236.0
 31
0.0
  0
LINE
  5
34A
  8
0
  6
CADDY_SOLID
 10
108.5
 20
236.0
 30
0.0
 11
113.5
 21
236.0
 31
0.0
  0
LINE
  5
34B
  8
0
  6
CADDY_SOLID
 10
113.5
 20
236.0
 30
0.0
 11
111.0
 21
238.5
 31
0.0
  0
ATTDEF
  5
34E
  8
0
 10
109.0500030517578
 20
197.4763080734253
 30
0.0
 40
2.449996948242188
  1

 50
90.0
 41
0.9
  7
CADDY_VECTORFONT1P
 72
     2
 11
109.0500030517578
 21
220.8999938964844
 31
0.0
  3
Tilslutningstekst 00
  2
$TAG175000_00
 70
     0
  0
ATTDEF
  5
350
  8
0
 10
94.99352924499512
 20
226.1999969482422
 30
0.0
 40
2.449996948242188
  1
D1806-B5
 41
0.9
  7
CADDY_VECTORFONT1P
 72
     2
 11
111.8000183105469
 21
226.1999969482422
 31
0.0
  3
Signaladresse
  2
$TAG175100
 70
     0
  0
ATTDEF
  5
352
  8
0
 10
75.48522074432373
 20
223.6999969482422
 30
0.0
 40
2.449996948242188
  1

 41
0.9
  7
CADDY_VECTORFONT1P
 72
     2
 11
91.79999542236328
 21
223.6999969482422
 31
0.0
  3
Signalbeskrivelse
  2
$TAG175110
 70
     0
  0
ATTDEF
  5
354
  8
0
 10
74.99350635681152
 20
220.1999969482422
 30
0.0
 40
2.449996948242188
  1

 41
0.9
  7
CADDY_VECTORFONT1P
 72
     2
 11
91.79999542236328
 21
220.1999969482422
 31
0.0
  3
Signalbemærkning
  2
$TAG175120
 70
     0
  0
ATTDEF
  5
356
  8
0
 10
71.65353290710449
 20
230.5500030517578
 30
0.0
 40
2.449996948242188
  1
#00000033
 41
0.9
  7
CADDY_VECTORFONT1P
 72
     2
 11
88.46002197265625
 21
230.5500030517578
 31
0.0
  3
Produkt (-)
  2
$TAG160010
 70
     1
  0
ATTDEF
  5
358
  8
0
 10
71.1617956314087
 20
216.5500030517578
 30
0.0
 40
2.449996948242188
  1

 41
0.9
  7
CADDY_VECTORFONT1P
 72
     2
 11
88.45999908447266
 21
216.5500030517578
 31
0.0
  3
Side/strømvej reference
  2
$TAG160500
 70
     0
  0
ENDBLK
  8
0
  0
BLOCK
  8
0
  2
BLK31
 70
     0
 10
0.0
 20
0.0
 30
0.0
  0
LINE
  5
33F
  8
0
  6
CADDY_SOLID
 10
95.0
 20
240.0
 30
0.0
 11
115.0
 21
240.0
 31
0.0
  0
LINE
  5
340
  8
0
  6
CADDY_SOLID
 10
115.0
 20
240.0
 30
0.0
 11
115.0
 21
225.0
 31
0.0
  0
LINE
  5
341
  8
0
  6
CADDY_SOLID
 10
115.0
 20
225.0
 30
0.0
 11
95.0
 21
225.0
 31
0.0
  0
LINE
  5
342
  8
0
  6
CADDY_SOLID
 10
95.0
 20
225.0
 30
0.0
 11
95.0
 21
240.0
 31
0.0
  0
ENDBLK
  8
0
  0
BLOCK
  8
0
  2
BLK32
 70
     2
 10
0.0
 20
0.0
 30
0.0
  0
INSERT
  5
360
  8
0
  2
BLK33
 10
0.0
 20
0.0
 30
1.0
  0
LINE
  5
365
  8
0
  6
CADDY_SOLID
 10
135.0
 20
230.0
 30
0.0
 11
155.0
 21
230.0
 31
0.0
  0
LINE
  5
366
  8
0
  6
CADDY_SOLID
 10
135.0
 20
235.0
 30
0.0
 11
155.0
 21
235.0
 31
0.0
  0
LINE
  5
367
  8
0
  6
CADDY_SOLID
 10
150.0
 20
225.0
 30
0.0
 11
150.0
 21
220.0
 31
0.0
  0
TEXT
  5
368
  8
0
 10
135.6999969482422
 20
235.6999969482422
 30
0.0
 40
2.449996948242188
  1
Digital
 41
0.9
  7
CADDY_VECTORFONT1P
  0
TEXT
  5
369
  8
0
 10
135.6999969482422
 20
232.1999969482422
 30
0.0
 40
2.449996948242188
  1
Udgang
 41
0.9
  7
CADDY_VECTORFONT1P
  0
LINE
  5
36A
  8
0
  6
CADDY_SOLID
 10
147.5
 20
240.0
 30
0.0
 11
147.5
 21
230.0
 31
0.0
  0
LINE
  5
36B
  8
0
  6
CADDY_SOLID
 10
151.0
 20
238.5
 30
0.0
 11
148.5
 21
236.0
 31
0.0
  0
LINE
  5
36C
  8
0
  6
CADDY_SOLID
 10
148.5
 20
236.0
 30
0.0
 11
153.5
 21
236.0
 31
0.0
  0
LINE
  5
36D
  8
0
  6
CADDY_SOLID
 10
153.5
 20
236.0
 30
0.0
 11
151.0
 21
238.5
 31
0.0
  0
ATTDEF
  5
370
  8
0
 10
149.0500030517578
 20
197.4763233322143
 30
0.0
 40
2.449996948242188
  1

 50
90.0
 41
0.9
  7
CADDY_VECTORFONT1P
 72
     2
 11
149.0500030517578
 21
220.9000091552734
 31
0.0
  3
Tilslutningstekst 00
  2
$TAG175000_00
 70
     0
  0
ATTDEF
  5
372
  8
0
 10
134.9935292449951
 20
226.1999969482422
 30
0.0
 40
2.449996948242188
  1
D1806-A1
 41
0.9
  7
CADDY_VECTORFONT1P
 72
     2
 11
151.8000183105469
 21
226.1999969482422
 31
0.0
  3
Signaladresse
  2
$TAG175100
 70
     0
  0
ATTDEF
  5
374
  8
0
 10
115.4852283737183
 20
223.6999969482422
 30
0.0
 40
2.449996948242188
  1

 41
0.9
  7
CADDY_VECTORFONT1P
 72
     2
 11
131.8000030517578
 21
223.6999969482422
 31
0.0
  3
Signalbeskrivelse
  2
$TAG175110
 70
     0
  0
ATTDEF
  5
376
  8
0
 10
114.9935139862061
 20
220.1999969482422
 30
0.0
 40
2.449996948242188
  1

 41
0.9
  7
CADDY_VECTORFONT1P
 72
     2
 11
131.8000030517578
 21
220.1999969482422
 31
0.0
  3
Signalbemærkning
  2
$TAG175120
 70
     0
  0
ATTDEF
  5
378
  8
0
 10
111.6535329071045
 20
230.5500030517578
 30
0.0
 40
2.449996948242188
  1
#00000033
 41
0.9
  7
CADDY_VECTORFONT1P
 72
     2
 11
128.4600219726562
 21
230.5500030517578
 31
0.0
  3
Produkt (-)
  2
$TAG160010
 70
     1
  0
ATTDEF
  5
37A
  8
0
 10
111.1618032608032
 20
216.5500030517578
 30
0.0
 40
2.449996948242188
  1

 41
0.9
  7
CADDY_VECTORFONT1P
 72
     2
 11
128.4600067138672
 21
216.5500030517578
 31
0.0
  3
Side/strømvej reference
  2
$TAG160500
 70
     0
  0
ENDBLK
  8
0
  0
BLOCK
  8
0
  2
BLK33
 70
     0
 10
0.0
 20
0.0
 30
0.0
  0
LINE
  5
361
  8
0
  6
CADDY_SOLID
 10
135.0
 20
240.0
 30
0.0
 11
155.0
 21
240.0
 31
0.0
  0
LINE
  5
362
  8
0
  6
CADDY_SOLID
 10
155.0
 20
240.0
 30
0.0
 11
155.0
 21
225.0
 31
0.0
  0
LINE
  5
363
  8
0
  6
CADDY_SOLID
 10
155.0
 20
225.0
 30
0.0
 11
135.0
 21
225.0
 31
0.0
  0
LINE
  5
364
  8
0
  6
CADDY_SOLID
 10
135.0
 20
225.0
 30
0.0
 11
135.0
 21
240.0
 31
0.0
  0
ENDBLK
  8
0
  0
BLOCK
  8
0
  2
BLK34
 70
     2
 10
0.0
 20
0.0
 30
0.0
  0
CIRCLE
  5
37F
  8
0
  6
CADDY_SOLID
 10
230.0
 20
142.5
 30
0.0
 40
0.75
  0
LINE
  5
380
  8
0
  6
CADDY_SOLID
 10
230.0
 20
143.25
 30
0.0
 11
230.0
 21
145.0
 31
0.0
  0
LINE
  5
381
  8
0
  6
CADDY_SOLID
 10
230.0
 20
140.0
 30
0.0
 11
230.0
 21
141.75
 31
0.0
  0
ATTDEF
  5
384
  8
2
 10
208.2435139862061
 20
141.3000030517578
 30
0.0
 40
2.449996948242188
  1
X21
 41
0.9
  7
CADDY_VECTORFONT1P
 72
     2
 11
225.0500030517578
 21
141.3000030517578
 31
0.0
  3
Produkt (-)
  2
$TAG160010
 70
     0
  0
ATTDEF
  5
386
  8
2
 10
229.0999908447266
 20
144.1999969482422
 30
0.0
 40
2.449996948242188
  1
26
 50
90.0
 41
0.9
  7
CADDY_VECTORFONT1P
  3
Klemmenummer
  2
$TAG160400
 70
     0
  0
ATTDEF
  5
388
  8
0
 10
232.5999908447266
 20
144.1999969482422
 30
0.0
 40
2.449996948242188
  1
1911797
 50
90.0
 41
0.9
  7
CADDY_VECTORFONT1P
  3
Sorteringsindeks
  2
$TAG160410
 70
     1
  0
ATTDEF
  5
38A
  8
2
 10
207.7517995986939
 20
137.8000030517578
 30
0.0
 40
2.449996948242188
  1

 41
0.9
  7
CADDY_VECTORFONT1P
 72
     2
 11
225.0500030517578
 21
137.8000030517578
 31
0.0
  3
Beskrivelse 00
  2
$TAG160030
 70
     1
  0
ATTDEF
  5
38C
  8
2
 10
207.5070601623535
 20
132.8000030517578
 30
0.0
 40
2.449996948242188
  1
AB1RR235U2GR
 41
0.9
  7
CADDY_VECTORFONT1P
 72
     2
 11
225.0500183105469
 21
132.8000030517578
 31
0.0
  3
Type
  2
$TAG160040
 70
     1
  0
ATTDEF
  5
38E
  8
2
 10
207.5070449035645
 20
148.3000030517578
 30
0.0
 40
2.449996948242188
  1
=
 41
0.9
  7
CADDY_VECTORFONT1P
 72
     2
 11
225.0500030517578
 21
148.3000030517578
 31
0.0
  3
Funktion (=)
  2
$TAG140020
 70
     1
  0
ATTDEF
  5
390
  8
2
 10
207.5070296447754
 20
144.8000030517578
 30
0.0
 40
2.449996948242188
  1
+
 41
0.9
  7
CADDY_VECTORFONT1P
 72
     2
 11
225.0499877929688
 21
144.8000030517578
 31
0.0
  3
Placering (+)
  2
$TAG140050
 70
     1
  0
ENDBLK
  8
0
  0
BLOCK
  8
0
  2
BLK35
 70
     2
 10
0.0
 20
0.0
 30
0.0
  0
CIRCLE
  5
39B
  8
0
  6
CADDY_SOLID
 10
270.0
 20
142.5
 30
0.0
 40
0.75
  0
LINE
  5
39C
  8
0
  6
CADDY_SOLID
 10
270.0
 20
143.25
 30
0.0
 11
270.0
 21
145.0
 31
0.0
  0
LINE
  5
39D
  8
0
  6
CADDY_SOLID
 10
270.0
 20
140.0
 30
0.0
 11
270.0
 21
141.75
 31
0.0
  0
ATTDEF
  5
3A0
  8
2
 10
248.2435292449951
 20
141.3000030517578
 30
0.0
 40
2.449996948242188
  1
X21
 41
0.9
  7
CADDY_VECTORFONT1P
 72
     2
 11
265.0500183105469
 21
141.3000030517578
 31
0.0
  3
Produkt (-)
  2
$TAG160010
 70
     0
  0
ATTDEF
  5
3A2
  8
2
 10
269.0999755859375
 20
144.2000122070312
 30
0.0
 40
2.449996948242188
  1
27
 50
90.0
 41
0.9
  7
CADDY_VECTORFONT1P
  3
Klemmenummer
  2
$TAG160400
 70
     0
  0
ATTDEF
  5
3A4
  8
0
 10
272.5999755859375
 20
144.2000122070312
 30
0.0
 40
2.449996948242188
  1
1911798
 50
90.0
 41
0.9
  7
CADDY_VECTORFONT1P
  3
Sorteringsindeks
  2
$TAG160410
 70
     1
  0
ATTDEF
  5
3A6
  8
2
 10
247.7518148574829
 20
137.8000030517578
 30
0.0
 40
2.449996948242188
  1

 41
0.9
  7
CADDY_VECTORFONT1P
 72
     2
 11
265.0500183105469
 21
137.8000030517578
 31
0.0
  3
Beskrivelse 00
  2
$TAG160030
 70
     1
  0
ATTDEF
  5
3A8
  8
2
 10
247.5069991271973
 20
132.8000030517578
 30
0.0
 40
2.449996948242188
  1
AB1RR235U2GR
 41
0.9
  7
CADDY_VECTORFONT1P
 72
     2
 11
265.0499572753906
 21
132.8000030517578
 31
0.0
  3
Type
  2
$TAG160040
 70
     1
  0
ATTDEF
  5
3AA
  8
2
 10
247.5070296447754
 20
148.3000030517578
 30
0.0
 40
2.449996948242188
  1
=
 41
0.9
  7
CADDY_VECTORFONT1P
 72
     2
 11
265.0499877929688
 21
148.3000030517578
 31
0.0
  3
Funktion (=)
  2
$TAG140020
 70
     1
  0
ATTDEF
  5
3AC
  8
2
 10
247.5070601623535
 20
144.8000030517578
 30
0.0
 40
2.449996948242188
  1
+
 41
0.9
  7
CADDY_VECTORFONT1P
 72
     2
 11
265.0500183105469
 21
144.8000030517578
 31
0.0
  3
Placering (+)
  2
$TAG140050
 70
     1
  0
ENDBLK
  8
0
  0
BLOCK
  8
0
  2
BLK36
 70
     2
 10
0.0
 20
0.0
 30
0.0
  0
CIRCLE
  5
3B7
  8
0
  6
CADDY_SOLID
 10
310.0
 20
142.5
 30
0.0
 40
0.75
  0
LINE
  5
3B8
  8
0
  6
CADDY_SOLID
 10
310.0
 20
143.25
 30
0.0
 11
310.0
 21
145.0
 31
0.0
  0
LINE
  5
3B9
  8
0
  6
CADDY_SOLID
 10
310.0
 20
140.0
 30
0.0
 11
310.0
 21
141.75
 31
0.0
  0
ATTDEF
  5
3BC
  8
2
 10
288.2435292449951
 20
141.3000030517578
 30
0.0
 40
2.449996948242188
  1
X21
 41
0.9
  7
CADDY_VECTORFONT1P
 72
     2
 11
305.0500183105469
 21
141.3000030517578
 31
0.0
  3
Produkt (-)
  2
$TAG160010
 70
     0
  0
ATTDEF
  5
3BE
  8
2
 10
309.0999755859375
 20
144.2000122070312
 30
0.0
 40
2.449996948242188
  1
28
 50
90.0
 41
0.9
  7
CADDY_VECTORFONT1P
  3
Klemmenummer
  2
$TAG160400
 70
     0
  0
ATTDEF
  5
3C0
  8
0
 10
312.5999755859375
 20
144.2000122070312
 30
0.0
 40
2.449996948242188
  1
1911799
 50
90.0
 41
0.9
  7
CADDY_VECTORFONT1P
  3
Sorteringsindeks
  2
$TAG160410
 70
     1
  0
ATTDEF
  5
3C2
  8
2
 10
287.7518148574829
 20
137.8000030517578
 30
0.0
 40
2.449996948242188
  1

 41
0.9
  7
CADDY_VECTORFONT1P
 72
     2
 11
305.0500183105469
 21
137.8000030517578
 31
0.0
  3
Beskrivelse 00
  2
$TAG160030
 70
     1
  0
ATTDEF
  5
3C4
  8
2
 10
287.5069686096192
 20
132.8000030517578
 30
0.0
 40
2.449996948242188
  1
AB1RR235U2GR
 41
0.9
  7
CADDY_VECTORFONT1P
 72
     2
 11
305.0499267578125
 21
132.8000030517578
 31
0.0
  3
Type
  2
$TAG160040
 70
     1
  0
ATTDEF
  5
3C6
  8
2
 10
287.5070296447754
 20
148.3000030517578
 30
0.0
 40
2.449996948242188
  1
=
 41
0.9
  7
CADDY_VECTORFONT1P
 72
     2
 11
305.0499877929688
 21
148.3000030517578
 31
0.0
  3
Funktion (=)
  2
$TAG140020
 70
     1
  0
ATTDEF
  5
3C8
  8
2
 10
287.5070601623535
 20
144.8000030517578
 30
0.0
 40
2.449996948242188
  1
+
 41
0.9
  7
CADDY_VECTORFONT1P
 72
     2
 11
305.0500183105469
 21
144.8000030517578
 31
0.0
  3
Placering (+)
  2
$TAG140050
 70
     1
  0
ENDBLK
  8
0
  0
BLOCK
  8
0
  2
BLK37
 70
     0
 10
0.0
 20
0.0
 30
0.0
  0
TEXT
  5
3D3
  8
0
 10
63.0
 20
55.70000076293945
 30
0.0
 40
2.450000762939453
  1
37.5
 41
0.9
  7
CADDY_VECTORFONT1P
  0
TEXT
  5
3D4
  8
0
 10
65.17097359161377
 20
60.70000076293945
 30
0.0
 40
2.450000762939453
  1
S
 41
0.9
  7
CADDY_VECTORFONT1P
 72
     1
 11
66.14999389648438
 21
60.70000076293945
 31
0.0
  0
TEXT
  5
3D5
  8
0
 10
72.5209796951294
 20
60.70000076293945
 30
0.0
 40
2.450000762939453
  1
B
 41
0.9
  7
CADDY_VECTORFONT1P
 72
     1
 11
73.5
 21
60.70000076293945
 31
0.0
  0
LINE
  5
3D6
  8
0
  6
CADDY_SOLID
 10
62.29999923706055
 20
60.0
 30
0.0
 11
77.0
 21
60.0
 31
0.0
  0
LINE
  5
3D7
  8
0
  6
CADDY_SOLID
 10
70.0
 20
63.5
 30
0.0
 11
70.0
 21
45.0
 31
0.0
  0
ENDBLK
  8
0
  0
BLOCK
  8
0
  2
BLK38
 70
     0
 10
0.0
 20
0.0
 30
0.0
  0
TEXT
  5
3DC
  8
0
 10
103.0
 20
55.70000076293945
 30
0.0
 40
2.450000762939453
  1
37.6
 41
0.9
  7
CADDY_VECTORFONT1P
  0
TEXT
  5
3DD
  8
0
 10
105.1709735916138
 20
60.70000076293945
 30
0.0
 40
2.450000762939453
  1
S
 41
0.9
  7
CADDY_VECTORFONT1P
 72
     1
 11
106.1499938964844
 21
60.70000076293945
 31
0.0
  0
TEXT
  5
3DE
  8
0
 10
112.5209796951294
 20
60.70000076293945
 30
0.0
 40
2.450000762939453
  1
B
 41
0.9
  7
CADDY_VECTORFONT1P
 72
     1
 11
113.5
 21
60.70000076293945
 31
0.0
  0
LINE
  5
3DF
  8
0
  6
CADDY_SOLID
 10
102.3000030517578
 20
60.0
 30
0.0
 11
117.0
 21
60.0
 31
0.0
  0
LINE
  5
3E0
  8
0
  6
CADDY_SOLID
 10
110.0
 20
63.5
 30
0.0
 11
110.0
 21
45.0
 31
0.0
  0
ENDBLK
  8
0
  0
BLOCK
  8
0
  2
BLK39
 70
     0
 10
0.0
 20
0.0
 30
0.0
  0
TEXT
  5
3E5
  8
0
 10
138.0
 20
55.70000076293945
 30
0.0
 40
2.450000762939453
  1
37.7
 41
0.9
  7
CADDY_VECTORFONT1P
  0
TEXT
  5
3E6
  8
0
 10
140.1709735916138
 20
60.70000076293945
 30
0.0
 40
2.450000762939453
  1
S
 41
0.9
  7
CADDY_VECTORFONT1P
 72
     1
 11
141.1499938964844
 21
60.70000076293945
 31
0.0
  0
TEXT
  5
3E7
  8
0
 10
147.5209796951294
 20
60.70000076293945
 30
0.0
 40
2.450000762939453
  1
B
 41
0.9
  7
CADDY_VECTORFONT1P
 72
     1
 11
148.5
 21
60.70000076293945
 31
0.0
  0
LINE
  5
3E8
  8
0
  6
CADDY_SOLID
 10
137.3000030517578
 20
60.0
 30
0.0
 11
152.0
 21
60.0
 31
0.0
  0
LINE
  5
3E9
  8
0
  6
CADDY_SOLID
 10
145.0
 20
63.5
 30
0.0
 11
145.0
 21
45.0
 31
0.0
  0
ENDBLK
  8
0
  0
ENDSEC
  0
SECTION
  2
ENTITIES
  0
INSERT
  5
43
  8
0
  2
BLK1
 10
0.0
 20
0.0
 30
1.0
  0
TEXT
  5
AC
  8
0
 10
17.04999923706055
 20
259.7000122070312
 30
0.0
 40
2.449981689453125
  1

 41
0.9
  7
CADDY_VECTORFONT1P
 72
     2
 11
17.04999923706055
 21
259.7000122070312
 31
0.0
  0
TEXT
  5
AD
  8
0
 10
17.04999923706055
 20
259.7000122070312
 30
0.0
 40
2.449981689453125
  1

 41
0.9
  7
CADDY_VECTORFONT1P
 72
     2
 11
17.04999923706055
 21
259.7000122070312
 31
0.0
  0
TEXT
  5
AE
  8
0
 10
17.04999923706055
 20
259.7000122070312
 30
0.0
 40
2.449981689453125
  1

 41
0.9
  7
CADDY_VECTORFONT1P
 72
     2
 11
17.04999923706055
 21
259.7000122070312
 31
0.0
  0
INSERT
  5
B2
  8
0
 66
     1
  2
BLK2
 10
0.0
 20
0.0
 30
1.0
  0
ATTRIB
  5
B5
  8
0
 10
29.26500701904297
 20
260.9000244140625
 30
0.0
 40
2.449981689453125
  1
0708
 41
0.9
  7
CADDY_VECTORFONT1P
  2
$TAG160010
 70
     0
  0
ATTRIB
  5
B8
  8
0
 10
17.24828432006836
 20
258.9500122070312
 30
0.0
 40
2.449981689453125
  1
35.3
 41
0.9
  7
CADDY_VECTORFONT1P
 72
     2
 11
22.78499794006348
 21
258.9500122070312
 31
0.0
  2
$TAG160500
 70
     0
  0
ATTRIB
  5
BA
  8
0
 10
29.26500701904297
 20
267.9000244140625
 30
0.0
 40
2.449981689453125
  1
=
 41
0.9
  7
CADDY_VECTORFONT1P
  2
$TAG140020
 70
     1
  0
ATTRIB
  5
BC
  8
0
 10
29.26500701904297
 20
264.4000244140625
 30
0.0
 40
2.449981689453125
  1
+
 41
0.9
  7
CADDY_VECTORFONT1P
  2
$TAG140050
 70
     1
  0
SEQEND
  5
B6
  8
0
  0
INSERT
  5
C1
  8
0
 66
     1
  2
BLK3
 10
0.0
 20
0.0
 30
1.0
  0
ATTRIB
  5
C4
  8
0
 10
381.2671334106445
 20
260.9000244140625
 30
0.0
 40
2.449981689453125
  1
0708
 41
0.9
  7
CADDY_VECTORFONT1P
 72
     2
 11
387.7850646972656
 21
260.9000244140625
 31
0.0
  2
$TAG160010
 70
     0
  0
ATTRIB
  5
C7
  8
0
 10
393.3650207519531
 20
258.9500122070312
 30
0.0
 40
2.449981689453125
  1
38.0
 41
0.9
  7
CADDY_VECTORFONT1P
  2
$TAG160500
 70
     0
  0
ATTRIB
  5
C9
  8
0
 10
386.4377587310791
 20
267.9000244140625
 30
0.0
 40
2.449981689453125
  1
=
 41
0.9
  7
CADDY_VECTORFONT1P
 72
     2
 11
387.7850036621094
 21
267.9000244140625
 31
0.0
  2
$TAG140020
 70
     1
  0
ATTRIB
  5
CB
  8
0
 10
386.4377587310791
 20
264.4000244140625
 30
0.0
 40
2.449981689453125
  1
+
 41
0.9
  7
CADDY_VECTORFONT1P
 72
     2
 11
387.7850036621094
 21
264.4000244140625
 31
0.0
  2
$TAG140050
 70
     1
  0
SEQEND
  5
C5
  8
0
  0
LINE
  5
CD
  8
0
  6
CADDY_SOLID
 10
27.5
 20
260.0
 30
0.0
 11
230.0
 21
260.0
 31
0.0
  0
LINE
  5
CE
  8
0
  6
CADDY_SOLID
 10
230.0
 20
260.0
 30
0.0
 11
270.0
 21
260.0
 31
0.0
  0
LINE
  5
CF
  8
0
  6
CADDY_SOLID
 10
270.0
 20
260.0
 30
0.0
 11
310.0
 21
260.0
 31
0.0
  0
LINE
  5
D0
  8
0
  6
CADDY_SOLID
 10
310.0
 20
260.0
 30
0.0
 11
392.5
 21
260.0
 31
0.0
  0
INSERT
  5
D4
  8
0
 66
     1
  2
BLK4
 10
0.0
 20
0.0
 30
1.0
  0
ATTRIB
  5
D9
  8
2
 10
220.2475040786743
 20
101.3000030517578
 30
0.0
 40
2.450004577636719
  1
X21
 41
0.9
  7
CADDY_VECTORFONT1P
 72
     2
 11
225.0500030517578
 21
101.3000030517578
 31
0.0
  2
$TAG160010
 70
     0
  0
ATTRIB
  5
DC
  8
2
 10
229.0999908447266
 20
104.1999969482422
 30
0.0
 40
2.450004577636719
  1
26
 50
90.0
 41
0.9
  7
CADDY_VECTORFONT1P
  2
$TAG160400
 70
     0
  0
ATTRIB
  5
DE
  8
0
 10
232.5999908447266
 20
104.1999969482422
 30
0.0
 40
2.450004577636719
  1
1911761
 50
90.0
 41
0.9
  7
CADDY_VECTORFONT1P
  2
$TAG160410
 70
     1
  0
ATTRIB
  5
E0
  8
2
 10
225.0500030517578
 20
97.80000305175781
 30
0.0
 40
2.450004577636719
  1

 41
0.9
  7
CADDY_VECTORFONT1P
 72
     2
 11
225.0500030517578
 21
97.80000305175781
 31
0.0
  2
$TAG160030
 70
     1
  0
ATTRIB
  5
E2
  8
2
 10
203.3417527503967
 20
92.80000305175781
 30
0.0
 40
2.450004577636719
  1
AB1RR235U2GR
 41
0.9
  7
CADDY_VECTORFONT1P
 72
     2
 11
225.0500183105469
 21
92.80000305175781
 31
0.0
  2
$TAG160040
 70
     1
  0
ATTRIB
  5
E4
  8
2
 10
223.7027455345154
 20
108.3000030517578
 30
0.0
 40
2.450004577636719
  1
=
 41
0.9
  7
CADDY_VECTORFONT1P
 72
     2
 11
225.0500030517578
 21
108.3000030517578
 31
0.0
  2
$TAG140020
 70
     1
  0
ATTRIB
  5
E6
  8
2
 10
223.7027302757263
 20
104.8000030517578
 30
0.0
 40
2.450004577636719
  1
+
 41
0.9
  7
CADDY_VECTORFONT1P
 72
     2
 11
225.0499877929688
 21
104.8000030517578
 31
0.0
  2
$TAG140050
 70
     1
  0
SEQEND
  5
DA
  8
0
  0
INSERT
  5
EB
  8
0
 66
     1
  2
BLK5
 10
0.0
 20
0.0
 30
1.0
  0
ATTRIB
  5
EF
  8
2
 10
260.2475193374634
 20
101.3000030517578
 30
0.0
 40
2.450004577636719
  1
X21
 41
0.9
  7
CADDY_VECTORFONT1P
 72
     2
 11
265.0500183105469
 21
101.3000030517578
 31
0.0
  2
$TAG160010
 70
     0
  0
ATTRIB
  5
F2
  8
2
 10
269.0999755859375
 20
104.2000122070312
 30
0.0
 40
2.450004577636719
  1
27
 50
90.0
 41
0.9
  7
CADDY_VECTORFONT1P
  2
$TAG160400
 70
     0
  0
ATTRIB
  5
F4
  8
0
 10
272.5999755859375
 20
104.2000122070312
 30
0.0
 40
2.450004577636719
  1
1911762
 50
90.0
 41
0.9
  7
CADDY_VECTORFONT1P
  2
$TAG160410
 70
     1
  0
ATTRIB
  5
F6
  8
2
 10
265.0500183105469
 20
97.80000305175781
 30
0.0
 40
2.450004577636719
  1

 41
0.9
  7
CADDY_VECTORFONT1P
 72
     2
 11
265.0500183105469
 21
97.80000305175781
 31
0.0
  2
$TAG160030
 70
     1
  0
ATTRIB
  5
F8
  8
2
 10
243.3416917152405
 20
92.80000305175781
 30
0.0
 40
2.450004577636719
  1
AB1RR235U2GR
 41
0.9
  7
CADDY_VECTORFONT1P
 72
     2
 11
265.0499572753906
 21
92.80000305175781
 31
0.0
  2
$TAG160040
 70
     1
  0
ATTRIB
  5
FA
  8
2
 10
263.7027302757263
 20
108.3000030517578
 30
0.0
 40
2.450004577636719
  1
=
 41
0.9
  7
CADDY_VECTORFONT1P
 72
     2
 11
265.0499877929688
 21
108.3000030517578
 31
0.0
  2
$TAG140020
 70
     1
  0
ATTRIB
  5
FC
  8
2
 10
263.7027607933044
 20
104.8000030517578
 30
0.0
 40
2.450004577636719
  1
+
 41
0.9
  7
CADDY_VECTORFONT1P
 72
     2
 11
265.0500183105469
 21
104.8000030517578
 31
0.0
  2
$TAG140050
 70
     1
  0
SEQEND
  5
F0
  8
0
  0
INSERT
  5
101
  8
0
 66
     1
  2
BLK6
 10
0.0
 20
0.0
 30
1.0
  0
ATTRIB
  5
105
  8
2
 10
300.2475193374634
 20
101.3000030517578
 30
0.0
 40
2.450004577636719
  1
X21
 41
0.9
  7
CADDY_VECTORFONT1P
 72
     2
 11
305.0500183105469
 21
101.3000030517578
 31
0.0
  2
$TAG160010
 70
     0
  0
ATTRIB
  5
108
  8
2
 10
309.0999755859375
 20
104.2000122070312
 30
0.0
 40
2.450004577636719
  1
28
 50
90.0
 41
0.9
  7
CADDY_VECTORFONT1P
  2
$TAG160400
 70
     0
  0
ATTRIB
  5
10A
  8
0
 10
312.5999755859375
 20
104.2000122070312
 30
0.0
 40
2.450004577636719
  1
1911763
 50
90.0
 41
0.9
  7
CADDY_VECTORFONT1P
  2
$TAG160410
 70
     1
  0
ATTRIB
  5
10C
  8
2
 10
305.0500183105469
 20
97.80000305175781
 30
0.0
 40
2.450004577636719
  1

 41
0.9
  7
CADDY_VECTORFONT1P
 72
     2
 11
305.0500183105469
 21
97.80000305175781
 31
0.0
  2
$TAG160030
 70
     1
  0
ATTRIB
  5
10E
  8
2
 10
283.3416611976623
 20
92.80000305175781
 30
0.0
 40
2.450004577636719
  1
AB1RR235U2GR
 41
0.9
  7
CADDY_VECTORFONT1P
 72
     2
 11
305.0499267578125
 21
92.80000305175781
 31
0.0
  2
$TAG160040
 70
     1
  0
ATTRIB
  5
110
  8
2
 10
303.7027302757263
 20
108.3000030517578
 30
0.0
 40
2.450004577636719
  1
=
 41
0.9
  7
CADDY_VECTORFONT1P
 72
     2
 11
305.0499877929688
 21
108.3000030517578
 31
0.0
  2
$TAG140020
 70
     1
  0
ATTRIB
  5
112
  8
2
 10
303.7027607933044
 20
104.8000030517578
 30
0.0
 40
2.450004577636719
  1
+
 41
0.9
  7
CADDY_VECTORFONT1P
 72
     2
 11
305.0500183105469
 21
104.8000030517578
 31
0.0
  2
$TAG140050
 70
     1
  0
SEQEND
  5
106
  8
0
  0
INSERT
  5
117
  8
0
 66
     1
  2
BLK7
 10
0.0
 20
0.0
 30
1.0
  0
ATTRIB
  5
11B
  8
2
 10
341.4779116363525
 20
101.3000030517578
 30
0.0
 40
2.450004577636719
  1
-X
 41
0.9
  7
CADDY_VECTORFONT1P
 72
     2
 11
345.0500183105469
 21
101.3000030517578
 31
0.0
  2
$TAG160010
 70
     1
  0
ATTRIB
  5
11E
  8
2
 10
349.0999755859375
 20
104.2000122070312
 30
0.0
 40
2.450004577636719
  1
2
 50
90.0
 41
0.9
  7
CADDY_VECTORFONT1P
  2
$TAG160400
 70
     0
  0
ATTRIB
  5
120
  8
0
 10
352.5999755859375
 20
104.2000122070312
 30
0.0
 40
2.450004577636719
  1
1911764
 50
90.0
 41
0.9
  7
CADDY_VECTORFONT1P
  2
$TAG160410
 70
     1
  0
ATTRIB
  5
122
  8
2
 10
345.0500183105469
 20
97.80000305175781
 30
0.0
 40
2.450004577636719
  1

 41
0.9
  7
CADDY_VECTORFONT1P
 72
     2
 11
345.0500183105469
 21
97.80000305175781
 31
0.0
  2
$TAG160030
 70
     1
  0
ATTRIB
  5
124
  8
2
 10
323.3416611976623
 20
92.80000305175781
 30
0.0
 40
2.450004577636719
  1
AB1RR235U2GR
 41
0.9
  7
CADDY_VECTORFONT1P
 72
     2
 11
345.0499267578125
 21
92.80000305175781
 31
0.0
  2
$TAG160040
 70
     1
  0
ATTRIB
  5
126
  8
2
 10
343.7027302757263
 20
108.3000030517578
 30
0.0
 40
2.450004577636719
  1
=
 41
0.9
  7
CADDY_VECTORFONT1P
 72
     2
 11
345.0499877929688
 21
108.3000030517578
 31
0.0
  2
$TAG140020
 70
     1
  0
ATTRIB
  5
128
  8
2
 10
343.7027607933044
 20
104.8000030517578
 30
0.0
 40
2.450004577636719
  1
+
 41
0.9
  7
CADDY_VECTORFONT1P
 72
     2
 11
345.0500183105469
 21
104.8000030517578
 31
0.0
  2
$TAG140050
 70
     1
  0
SEQEND
  5
11C
  8
0
  0
INSERT
  5
12D
  8
0
 66
     1
  2
BLK8
 10
0.0
 20
0.0
 30
1.0
  0
ATTRIB
  5
131
  8
0
 10
361.1439529838562
 20
115.8999938964844
 30
0.0
 40
2.450004577636719
  1
2
 41
0.9
  7
CADDY_VECTORFONT1P
 72
     2
 11
362.5000305175781
 21
115.8999938964844
 31
0.0
  2
$TAG160010
 70
     1
  0
ATTRIB
  5
134
  8
0
 10
369.6500244140625
 20
113.8499908447266
 30
0.0
 40
2.450004577636719
  1
32.8
 41
0.9
  7
CADDY_VECTORFONT1P
  2
$TAG160500
 70
     0
  0
SEQEND
  5
132
  8
0
  0
INSERT
  5
139
  8
0
 66
     1
  2
BLK9
 10
0.0
 20
0.0
 30
1.0
  0
ATTRIB
  5
13F
  8
0
 10
218.2372781528473
 20
63.80000686645508
 30
0.0
 40
2.450000762939453
  1
29P5
 41
0.9
  7
CADDY_VECTORFONT1P
 72
     2
 11
225.0000152587891
 21
63.80000686645508
 31
0.0
  2
$TAG160010
 70
     0
  0
ATTRIB
  5
142
  8
0
 10
199.7373681682587
 20
56.80000686645508
 30
0.0
 40
2.450000762939453
  1
XVBC2B4;XVBC21
 41
0.9
  7
CADDY_VECTORFONT1P
 72
     2
 11
225.0000610351562
 21
56.80000686645508
 31
0.0
  2
$TAG160040
 70
     1
  0
ATTRIB
  5
144
  8
0
 10
218.4820332290649
 20
60.30000686645508
 30
0.0
 40
2.450000762939453
  1
Grøn
 41
0.9
  7
CADDY_VECTORFONT1P
 72
     2
 11
225.0000152587891
 21
60.30000686645508
 31
0.0
  2
$TAG160030
 70
     0
  0
ATTRIB
  5
146
  8
0
 10
229.0500030517578
 20
68.39999389648438
 30
0.0
 40
2.450004577636719
  1
X1
 50
90.0
 41
0.9
  7
CADDY_VECTORFONT1P
  2
$TAG175000_00
 70
     0
  0
ATTRIB
  5
148
  8
0
 10
229.0500030517578
 20
57.33893304634094
 30
0.0
 40
2.450000762939453
  1
X2
 50
90.0
 41
0.9
  7
CADDY_VECTORFONT1P
 72
     2
 11
229.0500030517578
 21
60.90000915527344
 31
0.0
  2
$TAG175000_01
 70
     0
  0
ATTRIB
  5
14A
  8
0
 10
223.6527577415466
 20
70.80000305175781
 30
0.0
 40
2.450004577636719
  1
=
 41
0.9
  7
CADDY_VECTORFONT1P
 72
     2
 11
225.0000152587891
 21
70.80000305175781
 31
0.0
  2
$TAG140020
 70
     1
  0
ATTRIB
  5
14C
  8
0
 10
223.6527424827576
 20
67.30000305175781
 30
0.0
 40
2.450004577636719
  1
+
 41
0.9
  7
CADDY_VECTORFONT1P
 72
     2
 11
225.0
 21
67.30000305175781
 31
0.0
  2
$TAG140050
 70
     1
  0
SEQEND
  5
140
  8
0
  0
INSERT
  5
151
  8
0
 66
     1
  2
BLK10
 10
0.0
 20
0.0
 30
1.0
  0
ATTRIB
  5
157
  8
0
 10
258.2372628940582
 20
63.80000686645508
 30
0.0
 40
2.450000762939453
  1
29P6
 41
0.9
  7
CADDY_VECTORFONT1P
 72
     2
 11
265.0
 21
63.80000686645508
 31
0.0
  2
$TAG160010
 70
     0
  0
ATTRIB
  5
15A
  8
0
 10
239.7373376506805
 20
56.80000686645508
 30
0.0
 40
2.450000762939453
  1
XVBC2B4;XVBC21
 41
0.9
  7
CADDY_VECTORFONT1P
 72
     2
 11
265.0000305175781
 21
56.80000686645508
 31
0.0
  2
$TAG160040
 70
     1
  0
ATTRIB
  5
15C
  8
0
 10
260.7112736644745
 20
60.30000686645508
 30
0.0
 40
2.450000762939453
  1
Gul
 41
0.9
  7
CADDY_VECTORFONT1P
 72
     2
 11
265.0
 21
60.30000686645508
 31
0.0
  2
$TAG160030
 70
     0
  0
ATTRIB
  5
15E
  8
0
 10
269.0499877929688
 20
68.40000915527344
 30
0.0
 40
2.450004577636719
  1
X1
 50
90.0
 41
0.9
  7
CADDY_VECTORFONT1P
  2
$TAG175000_00
 70
     0
  0
ATTRIB
  5
160
  8
0
 10
269.0499877929688
 20
57.33894830513
 30
0.0
 40
2.450000762939453
  1
X2
 50
90.0
 41
0.9
  7
CADDY_VECTORFONT1P
 72
     2
 11
269.0499877929688
 21
60.9000244140625
 31
0.0
  2
$TAG175000_01
 70
     0
  0
ATTRIB
  5
162
  8
0
 10
263.6527424827576
 20
70.80000305175781
 30
0.0
 40
2.450004577636719
  1
=
 41
0.9
  7
CADDY_VECTORFONT1P
 72
     2
 11
265.0
 21
70.80000305175781
 31
0.0
  2
$TAG140020
 70
     1
  0
ATTRIB
  5
164
  8
0
 10
263.6527730003357
 20
67.30000305175781
 30
0.0
 40
2.450004577636719
  1
+
 41
0.9
  7
CADDY_VECTORFONT1P
 72
     2
 11
265.0000305175781
 21
67.30000305175781
 31
0.0
  2
$TAG140050
 70
     1
  0
SEQEND
  5
158
  8
0
  0
INSERT
  5
169
  8
0
 66
     1
  2
BLK11
 10
0.0
 20
0.0
 30
1.0
  0
ATTRIB
  5
16F
  8
0
 10
298.2306478919983
 20
63.80000686645508
 30
0.0
 40
2.450000762939453
  1
29P7
 41
0.9
  7
CADDY_VECTORFONT1P
 72
     2
 11
305.0
 21
63.80000686645508
 31
0.0
  2
$TAG160010
 70
     0
  0
ATTRIB
  5
172
  8
0
 10
279.7373071331024
 20
56.80000686645508
 30
0.0
 40
2.450000762939453
  1
XVBC2B4;XVBC21
 41
0.9
  7
CADDY_VECTORFONT1P
 72
     2
 11
305.0
 21
56.80000686645508
 31
0.0
  2
$TAG160040
 70
     1
  0
ATTRIB
  5
174
  8
0
 10
299.9527534282684
 20
60.30000686645508
 30
0.0
 40
2.450000762939453
  1
Rød
 41
0.9
  7
CADDY_VECTORFONT1P
 72
     2
 11
305.0
 21
60.30000686645508
 31
0.0
  2
$TAG160030
 70
     0
  0
ATTRIB
  5
176
  8
0
 10
309.0499877929688
 20
68.40000915527344
 30
0.0
 40
2.450004577636719
  1
X1
 50
90.0
 41
0.9
  7
CADDY_VECTORFONT1P
  2
$TAG175000_00
 70
     0
  0
ATTRIB
  5
178
  8
0
 10
309.0499877929688
 20
57.33894830513
 30
0.0
 40
2.450000762939453
  1
X2
 50
90.0
 41
0.9
  7
CADDY_VECTORFONT1P
 72
     2
 11
309.0499877929688
 21
60.9000244140625
 31
0.0
  2
$TAG175000_01
 70
     0
  0
ATTRIB
  5
17A
  8
0
 10
303.6527424827576
 20
70.80000305175781
 30
0.0
 40
2.450004577636719
  1
=
 41
0.9
  7
CADDY_VECTORFONT1P
 72
     2
 11
305.0
 21
70.80000305175781
 31
0.0
  2
$TAG140020
 70
     1
  0
ATTRIB
  5
17C
  8
0
 10
303.6527730003357
 20
67.30000305175781
 30
0.0
 40
2.450004577636719
  1
+
 41
0.9
  7
CADDY_VECTORFONT1P
 72
     2
 11
305.0000305175781
 21
67.30000305175781
 31
0.0
  2
$TAG140050
 70
     1
  0
SEQEND
  5
170
  8
0
  0
LINE
  5
17E
  8
0
  6
CADDY_SOLID
 10
210.0
 20
95.0
 30
0.0
 11
370.0
 21
95.0
 31
0.0
  0
LINE
  5
17F
  8
0
  6
CADDY_SOLID
 10
210.0
 20
120.0
 30
0.0
 11
370.0
 21
120.0
 31
0.0
  0
INSERT
  5
183
  8
0
 66
     1
  2
BLK12
 10
0.0
 20
0.0
 30
1.0
  0
ATTRIB
  5
187
  8
0
 10
31.59999465942383
 20
70.90000915527344
 30
0.0
 40
2.450004577636719
  1
1006
 41
0.9
  7
CADDY_VECTORFONT1P
  2
$TAG160010
 70
     1
  0
ATTRIB
  5
18A
  8
0
 10
19.21849064178467
 20
68.94999694824219
 30
0.0
 40
2.450004577636719
  1
24.9
 41
0.9
  7
CADDY_VECTORFONT1P
 72
     2
 11
25.0000114440918
 21
68.94999694824219
 31
0.0
  2
$TAG160500
 70
     0
  0
SEQEND
  5
188
  8
0
  0
INSERT
  5
18F
  8
0
 66
     1
  2
BLK13
 10
0.0
 20
0.0
 30
1.0
  0
ATTRIB
  5
196
  8
0
 10
54.51128151779175
 20
88.80000305175781
 30
0.0
 40
2.450004577636719
  1
K3701
 41
0.9
  7
CADDY_VECTORFONT1P
 72
     2
 11
62.5000114440918
 21
88.80000305175781
 31
0.0
  2
$TAG160010
 70
     0
  0
ATTRIB
  5
199
  8
0
 10
62.5000114440918
 20
81.80000305175781
 30
0.0
 40
2.450004577636719
  1

 41
0.9
  7
CADDY_VECTORFONT1P
 72
     2
 11
62.5000114440918
 21
81.80000305175781
 31
0.0
  2
$TAG160040
 70
     1
  0
ATTRIB
  5
19B
  8
0
 10
62.5000114440918
 20
85.30000305175781
 30
0.0
 40
2.450004577636719
  1

 41
0.9
  7
CADDY_VECTORFONT1P
 72
     2
 11
62.5000114440918
 21
85.30000305175781
 31
0.0
  2
$TAG160030
 70
     0
  0
ATTRIB
  5
19D
  8
0
 10
69.05000305175781
 20
93.39999389648438
 30
0.0
 40
2.450004577636719
  1
A1
 50
90.0
 41
0.9
  7
CADDY_VECTORFONT1P
  2
$TAG175000_00
 70
     0
  0
ATTRIB
  5
19F
  8
0
 10
69.05000305175781
 20
82.33891987228394
 30
0.0
 40
2.450004577636719
  1
A2
 50
90.0
 41
0.9
  7
CADDY_VECTORFONT1P
 72
     2
 11
69.05000305175781
 21
85.9000015258789
 31
0.0
  2
$TAG175000_01
 70
     0
  0
SEQEND
  5
197
  8
0
  0
CIRCLE
  5
1A1
  8
0
 10
70.0
 20
70.0
 30
0.0
 40
0.8
  0
CIRCLE
  5
1A2
  8
0
 10
70.0
 20
70.0
 30
0.0
 40
0.6
  0
CIRCLE
  5
1A3
  8
0
 10
70.0
 20
70.0
 30
0.0
 40
0.4
  0
INSERT
  5
1A7
  8
0
 66
     1
  2
BLK14
 10
0.0
 20
0.0
 30
1.0
  0
ATTRIB
  5
1AE
  8
0
 10
94.0372094467163
 20
88.80000305175781
 30
0.0
 40
2.450004577636719
  1
K3702
 41
0.9
  7
CADDY_VECTORFONT1P
 72
     2
 11
102.5000152587891
 21
88.80000305175781
 31
0.0
  2
$TAG160010
 70
     0
  0
ATTRIB
  5
1B1
  8
0
 10
102.5000076293945
 20
81.80000305175781
 30
0.0
 40
2.450004577636719
  1

 41
0.9
  7
CADDY_VECTORFONT1P
 72
     2
 11
102.5000076293945
 21
81.80000305175781
 31
0.0
  2
$TAG160040
 70
     1
  0
ATTRIB
  5
1B3
  8
0
 10
102.5000076293945
 20
85.30000305175781
 30
0.0
 40
2.450004577636719
  1

 41
0.9
  7
CADDY_VECTORFONT1P
 72
     2
 11
102.5000076293945
 21
85.30000305175781
 31
0.0
  2
$TAG160030
 70
     0
  0
ATTRIB
  5
1B5
  8
0
 10
109.0500030517578
 20
93.39999389648438
 30
0.0
 40
2.450004577636719
  1
A1
 50
90.0
 41
0.9
  7
CADDY_VECTORFONT1P
  2
$TAG175000_00
 70
     0
  0
ATTRIB
  5
1B7
  8
0
 10
109.0500030517578
 20
82.33891987228394
 30
0.0
 40
2.450004577636719
  1
A2
 50
90.0
 41
0.9
  7
CADDY_VECTORFONT1P
 72
     2
 11
109.0500030517578
 21
85.9000015258789
 31
0.0
  2
$TAG175000_01
 70
     0
  0
SEQEND
  5
1AF
  8
0
  0
CIRCLE
  5
1B9
  8
0
 10
110.0
 20
70.0
 30
0.0
 40
0.8
  0
CIRCLE
  5
1BA
  8
0
 10
110.0
 20
70.0
 30
0.0
 40
0.6
  0
CIRCLE
  5
1BB
  8
0
 10
110.0
 20
70.0
 30
0.0
 40
0.4
  0
INSERT
  5
1BF
  8
0
 66
     1
  2
BLK15
 10
0.0
 20
0.0
 30
1.0
  0
ATTRIB
  5
1C6
  8
0
 10
134.0217744178772
 20
88.80000305175781
 30
0.0
 40
2.450004577636719
  1
K3703
 41
0.9
  7
CADDY_VECTORFONT1P
 72
     2
 11
142.5000152587891
 21
88.80000305175781
 31
0.0
  2
$TAG160010
 70
     0
  0
ATTRIB
  5
1C9
  8
0
 10
142.5000152587891
 20
81.80000305175781
 30
0.0
 40
2.450004577636719
  1

 41
0.9
  7
CADDY_VECTORFONT1P
 72
     2
 11
142.5000152587891
 21
81.80000305175781
 31
0.0
  2
$TAG160040
 70
     1
  0
ATTRIB
  5
1CB
  8
0
 10
142.5000152587891
 20
85.30000305175781
 30
0.0
 40
2.450004577636719
  1

 41
0.9
  7
CADDY_VECTORFONT1P
 72
     2
 11
142.5000152587891
 21
85.30000305175781
 31
0.0
  2
$TAG160030
 70
     0
  0
ATTRIB
  5
1CD
  8
0
 10
149.0500030517578
 20
93.39999389648438
 30
0.0
 40
2.450004577636719
  1
A1
 50
90.0
 41
0.9
  7
CADDY_VECTORFONT1P
  2
$TAG175000_00
 70
     0
  0
ATTRIB
  5
1CF
  8
0
 10
149.0500030517578
 20
82.33892750167847
 30
0.0
 40
2.450004577636719
  1
A2
 50
90.0
 41
0.9
  7
CADDY_VECTORFONT1P
 72
     2
 11
149.0500030517578
 21
85.90000915527344
 31
0.0
  2
$TAG175000_01
 70
     0
  0
SEQEND
  5
1C7
  8
0
  0
CIRCLE
  5
1D1
  8
0
 10
150.0
 20
70.0
 30
0.0
 40
0.8
  0
CIRCLE
  5
1D2
  8
0
 10
150.0
 20
70.0
 30
0.0
 40
0.6
  0
CIRCLE
  5
1D3
  8
0
 10
150.0
 20
70.0
 30
0.0
 40
0.4
  0
LINE
  5
1D4
  8
0
  6
CADDY_SOLID
 10
70.0
 20
70.0
 30
0.0
 11
70.0
 21
85.0
 31
0.0
  0
TEXT
  5
1D5
  8
0
 10
69.5
 20
75.047725
 30
0.0
 40
1.75
  1
0707
 50
90.0
 41
0.9
  7
CADDY_VECTORFONT1P
 72
     1
 11
69.5
 21
77.5
 31
0.0
  0
LINE
  5
1D6
  8
0
  6
CADDY_SOLID
 10
70.0
 20
95.0
 30
0.0
 11
70.0
 21
220.0
 31
0.0
  0
TEXT
  5
1D7
  8
0
 10
69.5
 20
155.21625
 30
0.0
 40
1.75
  1
3701
 50
90.0
 41
0.9
  7
CADDY_VECTORFONT1P
 72
     1
 11
69.5
 21
157.5
 31
0.0
  0
LINE
  5
1D8
  8
0
  6
CADDY_SOLID
 10
110.0
 20
70.0
 30
0.0
 11
110.0
 21
85.0
 31
0.0
  0
TEXT
  5
1D9
  8
0
 10
109.5
 20
75.047725
 30
0.0
 40
1.75
  1
0707
 50
90.0
 41
0.9
  7
CADDY_VECTORFONT1P
 72
     1
 11
109.5
 21
77.5
 31
0.0
  0
LINE
  5
1DA
  8
0
  6
CADDY_SOLID
 10
110.0
 20
95.0
 30
0.0
 11
110.0
 21
220.0
 31
0.0
  0
TEXT
  5
1DB
  8
0
 10
109.5
 20
155.0469375
 30
0.0
 40
1.75
  1
3702
 50
90.0
 41
0.9
  7
CADDY_VECTORFONT1P
 72
     1
 11
109.5
 21
157.5
 31
0.0
  0
LINE
  5
1DC
  8
0
  6
CADDY_SOLID
 10
150.0
 20
70.0
 30
0.0
 11
150.0
 21
85.0
 31
0.0
  0
TEXT
  5
1DD
  8
0
 10
149.5
 20
77.5
 30
0.0
 40
1.75
  1

 50
90.0
 41
0.9
  7
CADDY_VECTORFONT1P
 72
     1
 11
149.5
 21
77.5
 31
0.0
  0
LINE
  5
1DE
  8
0
  6
CADDY_SOLID
 10
150.0
 20
95.0
 30
0.0
 11
150.0
 21
220.0
 31
0.0
  0
TEXT
  5
1DF
  8
0
 10
149.5
 20
155.041425
 30
0.0
 40
1.75
  1
3703
 50
90.0
 41
0.9
  7
CADDY_VECTORFONT1P
 72
     1
 11
149.5
 21
157.5
 31
0.0
  0
LINE
  5
1E0
  8
0
  6
CADDY_SOLID
 10
30.0
 20
70.0
 30
0.0
 11
70.0
 21
70.0
 31
0.0
  0
TEXT
  5
1E1
  8
0
 10
87.547725
 20
70.5
 30
0.0
 40
1.75
  1
0707
 41
0.9
  7
CADDY_VECTORFONT1P
 72
     1
 11
90.0
 21
70.5
 31
0.0
  0
LINE
  5
1E2
  8
0
  6
CADDY_SOLID
 10
70.0
 20
70.0
 30
0.0
 11
85.0
 21
70.0
 31
0.0
  0
TEXT
  5
1E3
  8
0
 10
87.547725
 20
70.5
 30
0.0
 40
1.75
  1
0707
 41
0.9
  7
CADDY_VECTORFONT1P
 72
     1
 11
90.0
 21
70.5
 31
0.0
  0
LINE
  5
1E4
  8
0
  6
CADDY_SOLID
 10
85.0
 20
70.0
 30
0.0
 11
110.0
 21
70.0
 31
0.0
  0
TEXT
  5
1E5
  8
0
 10
87.547725
 20
70.5
 30
0.0
 40
1.75
  1
0707
 41
0.9
  7
CADDY_VECTORFONT1P
 72
     1
 11
90.0
 21
70.5
 31
0.0
  0
LINE
  5
1E6
  8
0
  6
CADDY_SOLID
 10
110.0
 20
70.0
 30
0.0
 11
125.0
 21
70.0
 31
0.0
  0
TEXT
  5
1E7
  8
0
 10
90.0
 20
70.5
 30
0.0
 40
1.75
  1

 41
0.9
  7
CADDY_VECTORFONT1P
 72
     1
 11
90.0
 21
70.5
 31
0.0
  0
LINE
  5
1E8
  8
0
  6
CADDY_SOLID
 10
85.0
 20
70.0
 30
0.0
 11
110.0
 21
70.0
 31
0.0
  0
TEXT
  5
1E9
  8
0
 10
130.0
 20
70.5
 30
0.0
 40
1.75
  1

 41
0.9
  7
CADDY_VECTORFONT1P
 72
     1
 11
130.0
 21
70.5
 31
0.0
  0
LINE
  5
1EA
  8
0
  6
CADDY_SOLID
 10
110.0
 20
70.0
 30
0.0
 11
150.0
 21
70.0
 31
0.0
  0
TEXT
  5
1EB
  8
0
 10
130.0
 20
70.5
 30
0.0
 40
1.75
  1

 41
0.9
  7
CADDY_VECTORFONT1P
 72
     1
 11
130.0
 21
70.5
 31
0.0
  0
LINE
  5
1EC
  8
0
  6
CADDY_SOLID
 10
150.0
 20
70.0
 30
0.0
 11
165.0
 21
70.0
 31
0.0
  0
TEXT
  5
1ED
  8
0
 10
130.0
 20
70.5
 30
0.0
 40
1.75
  1

 41
0.9
  7
CADDY_VECTORFONT1P
 72
     1
 11
130.0
 21
70.5
 31
0.0
  0
INSERT
  5
1F1
  8
0
 66
     1
  2
BLK16
 10
0.0
 20
0.0
 30
1.0
  0
ATTRIB
  5
1F5
  8
0
 10
155.9754233268738
 20
70.89999389648438
 30
0.0
 40
2.450004577636719
  1
0707
 41
0.9
  7
CADDY_VECTORFONT1P
 72
     2
 11
162.5000305175781
 21
70.89999389648438
 31
0.0
  2
$TAG160010
 70
     1
  0
ATTRIB
  5
1F8
  8
0
 10
169.6500091552734
 20
68.84999084472656
 30
0.0
 40
2.450004577636719
  1
37.8
 41
0.9
  7
CADDY_VECTORFONT1P
  2
$TAG160500
 70
     0
  0
SEQEND
  5
1F6
  8
0
  0
INSERT
  5
1FD
  8
0
 66
     1
  2
BLK17
 10
0.0
 20
0.0
 30
1.0
  0
ATTRIB
  5
201
  8
0
 10
216.0113102096558
 20
188.8000030517578
 30
0.0
 40
2.449996948242188
  1
K3701
 41
0.9
  7
CADDY_VECTORFONT1P
 72
     2
 11
224.0000152587891
 21
188.8000030517578
 31
0.0
  2
$TAG160010
 70
     0
  0
ATTRIB
  5
204
  8
0
 10
218.9527612869263
 20
185.3000030517578
 30
0.0
 40
2.449996948242188
  1
37.1
 41
0.9
  7
CADDY_VECTORFONT1P
 72
     2
 11
224.0
 21
185.3000030517578
 31
0.0
  2
$TAG160500
 70
     0
  0
ATTRIB
  5
206
  8
0
 10
229.0500030517578
 20
194.3000030517578
 30
0.0
 40
2.449996948242188
  1
11
 50
90.0
 41
0.9
  7
CADDY_VECTORFONT1P
  2
$TAG175000_00
 70
     0
  0
ATTRIB
  5
208
  8
0
 10
229.0500030517578
 20
183.0842276626587
 30
0.0
 40
2.449996948242188
  1
14
 50
90.0
 41
0.9
  7
CADDY_VECTORFONT1P
 72
     2
 11
229.0500030517578
 21
185.9000091552734
 31
0.0
  2
$TAG175000_01
 70
     0
  0
SEQEND
  5
202
  8
0
  0
INSERT
  5
20D
  8
0
 66
     1
  2
BLK18
 10
0.0
 20
0.0
 30
1.0
  0
ATTRIB
  5
211
  8
0
 10
255.5372205413818
 20
188.8000030517578
 30
0.0
 40
2.449996948242188
  1
K3702
 41
0.9
  7
CADDY_VECTORFONT1P
 72
     2
 11
264.0
 21
188.8000030517578
 31
0.0
  2
$TAG160010
 70
     0
  0
ATTRIB
  5
214
  8
0
 10
258.4786868774414
 20
185.3000030517578
 30
0.0
 40
2.449996948242188
  1
37.2
 41
0.9
  7
CADDY_VECTORFONT1P
 72
     2
 11
264.0
 21
185.3000030517578
 31
0.0
  2
$TAG160500
 70
     0
  0
ATTRIB
  5
216
  8
0
 10
269.0499877929688
 20
194.3000183105469
 30
0.0
 40
2.449996948242188
  1
11
 50
90.0
 41
0.9
  7
CADDY_VECTORFONT1P
  2
$TAG175000_00
 70
     0
  0
ATTRIB
  5
218
  8
0
 10
269.0499877929688
 20
183.0842429214478
 30
0.0
 40
2.449996948242188
  1
14
 50
90.0
 41
0.9
  7
CADDY_VECTORFONT1P
 72
     2
 11
269.0499877929688
 21
185.9000244140625
 31
0.0
  2
$TAG175000_01
 70
     0
  0
SEQEND
  5
212
  8
0
  0
INSERT
  5
21D
  8
0
 66
     1
  2
BLK19
 10
0.0
 20
0.0
 30
1.0
  0
ATTRIB
  5
221
  8
0
 10
295.5217550430298
 20
188.8000030517578
 30
0.0
 40
2.449996948242188
  1
K3703
 41
0.9
  7
CADDY_VECTORFONT1P
 72
     2
 11
303.9999694824219
 21
188.8000030517578
 31
0.0
  2
$TAG160010
 70
     0
  0
ATTRIB
  5
224
  8
0
 10
298.4632518966675
 20
185.3000030517578
 30
0.0
 40
2.449996948242188
  1
37.3
 41
0.9
  7
CADDY_VECTORFONT1P
 72
     2
 11
304.0
 21
185.3000030517578
 31
0.0
  2
$TAG160500
 70
     0
  0
ATTRIB
  5
226
  8
0
 10
309.0499877929688
 20
194.3000183105469
 30
0.0
 40
2.449996948242188
  1
11
 50
90.0
 41
0.9
  7
CADDY_VECTORFONT1P
  2
$TAG175000_00
 70
     0
  0
ATTRIB
  5
228
  8
0
 10
309.0499877929688
 20
183.0842429214478
 30
0.0
 40
2.449996948242188
  1
14
 50
90.0
 41
0.9
  7
CADDY_VECTORFONT1P
 72
     2
 11
309.0499877929688
 21
185.9000244140625
 31
0.0
  2
$TAG175000_01
 70
     0
  0
SEQEND
  5
222
  8
0
  0
LINE
  5
22A
  8
0
  6
CADDY_SOLID
 10
230.0
 20
195.0
 30
0.0
 11
230.0
 21
260.0
 31
0.0
  0
TEXT
  5
22B
  8
0
 10
229.5
 20
225.0500875
 30
0.0
 40
1.75
  1
0708
 50
90.0
 41
0.9
  7
CADDY_VECTORFONT1P
 72
     1
 11
229.5
 21
227.5
 31
0.0
  0
CIRCLE
  5
22C
  8
0
 10
230.0
 20
260.0
 30
0.0
 40
0.8
  0
CIRCLE
  5
22D
  8
0
 10
230.0
 20
260.0
 30
0.0
 40
0.6
  0
CIRCLE
  5
22E
  8
0
 10
230.0
 20
260.0
 30
0.0
 40
0.4
  0
LINE
  5
22F
  8
0
  6
CADDY_SOLID
 10
270.0
 20
195.0
 30
0.0
 11
270.0
 21
260.0
 31
0.0
  0
TEXT
  5
230
  8
0
 10
269.5
 20
225.0500875
 30
0.0
 40
1.75
  1
0708
 50
90.0
 41
0.9
  7
CADDY_VECTORFONT1P
 72
     1
 11
269.5
 21
227.5
 31
0.0
  0
CIRCLE
  5
231
  8
0
 10
270.0
 20
260.0
 30
0.0
 40
0.8
  0
CIRCLE
  5
232
  8
0
 10
270.0
 20
260.0
 30
0.0
 40
0.6
  0
CIRCLE
  5
233
  8
0
 10
270.0
 20
260.0
 30
0.0
 40
0.4
  0
LINE
  5
234
  8
0
  6
CADDY_SOLID
 10
310.0
 20
195.0
 30
0.0
 11
310.0
 21
260.0
 31
0.0
  0
TEXT
  5
235
  8
0
 10
309.5
 20
225.0500875
 30
0.0
 40
1.75
  1
0708
 50
90.0
 41
0.9
  7
CADDY_VECTORFONT1P
 72
     1
 11
309.5
 21
227.5
 31
0.0
  0
CIRCLE
  5
236
  8
0
 10
310.0
 20
260.0
 30
0.0
 40
0.8
  0
CIRCLE
  5
237
  8
0
 10
310.0
 20
260.0
 30
0.0
 40
0.6
  0
CIRCLE
  5
238
  8
0
 10
310.0
 20
260.0
 30
0.0
 40
0.4
  0
LINE
  5
239
  8
0
  6
CADDY_SOLID
 10
210.0
 20
50.0
 30
0.0
 11
330.0
 21
50.0
 31
0.0
  0
LINE
  5
23A
  8
0
  6
CADDY_SOLID
 10
230.0
 20
60.0
 30
0.0
 11
230.0
 21
55.0
 31
0.0
  0
LINE
  5
23B
  8
0
  6
CADDY_SOLID
 10
270.0
 20
55.0
 30
0.0
 11
270.0
 21
60.0
 31
0.0
  0
LINE
  5
23C
  8
0
  6
CADDY_SOLID
 10
230.0
 20
55.0
 30
0.0
 11
270.0
 21
55.0
 31
0.0
  0
CIRCLE
  5
23D
  8
0
 10
270.0
 20
55.0
 30
0.0
 40
0.8
  0
CIRCLE
  5
23E
  8
0
 10
270.0
 20
55.0
 30
0.0
 40
0.6
  0
CIRCLE
  5
23F
  8
0
 10
270.0
 20
55.0
 30
0.0
 40
0.4
  0
LINE
  5
240
  8
0
  6
CADDY_SOLID
 10
310.0
 20
55.0
 30
0.0
 11
310.0
 21
60.0
 31
0.0
  0
LINE
  5
241
  8
0
  6
CADDY_SOLID
 10
270.0
 20
55.0
 30
0.0
 11
310.0
 21
55.0
 31
0.0
  0
CIRCLE
  5
242
  8
0
 10
310.0
 20
55.0
 30
0.0
 40
0.8
  0
CIRCLE
  5
243
  8
0
 10
310.0
 20
55.0
 30
0.0
 40
0.6
  0
CIRCLE
  5
244
  8
0
 10
310.0
 20
55.0
 30
0.0
 40
0.4
  0
LINE
  5
245
  8
0
  6
CADDY_SOLID
 10
210.0
 20
50.0
 30
0.0
 11
210.0
 21
80.0
 31
0.0
  0
LINE
  5
246
  8
0
  6
CADDY_SOLID
 10
210.0
 20
80.0
 30
0.0
 11
350.0
 21
80.0
 31
0.0
  0
INSERT
  5
24A
  8
0
 66
     1
  2
BLK20
 10
0.0
 20
0.0
 30
1.0
  0
ATTRIB
  5
24E
  8
0
 10
336.6000061035156
 20
115.9000091552734
 30
0.0
 40
2.450004577636719
  1
0707
 41
0.9
  7
CADDY_VECTORFONT1P
  2
$TAG160010
 70
     1
  0
ATTRIB
  5
251
  8
0
 10
324.4632346549988
 20
113.9499969482422
 30
0.0
 40
2.450004577636719
  1
38.5
 41
0.9
  7
CADDY_VECTORFONT1P
 72
     2
 11
330.0
 21
113.9499969482422
 31
0.0
  2
$TAG160500
 70
     0
  0
SEQEND
  5
24F
  8
0
  0
LINE
  5
253
  8
0
  6
CADDY_SOLID
 10
345.0
 20
120.0
 30
0.0
 11
350.0
 21
120.0
 31
0.0
  0
LINE
  5
254
  8
0
  6
CADDY_SOLID
 10
350.0
 20
50.0
 30
0.0
 11
370.0
 21
50.0
 31
0.0
  0
LINE
  5
255
  8
0
  6
CADDY_SOLID
 10
370.0
 20
50.0
 30
0.0
 11
370.0
 21
80.0
 31
0.0
  0
LINE
  5
256
  8
0
  6
CADDY_SOLID
 10
370.0
 20
80.0
 30
0.0
 11
345.0
 21
80.0
 31
0.0
  0
LINE
  5
257
  8
0
  6
CADDY_SOLID
 10
310.0
 20
55.0
 30
0.0
 11
350.0
 21
55.0
 31
0.0
  0
LINE
  5
258
  8
0
  6
CADDY_SOLID
 10
330.0
 20
50.0
 30
0.0
 11
360.0
 21
50.0
 31
0.0
  0
LINE
  5
259
  8
0
  6
CADDY_SOLID
 10
350.0
 20
105.0
 30
0.0
 11
350.0
 21
115.0
 31
0.0
  0
TEXT
  5
25A
  8
0
 10
349.5
 20
110.0
 30
0.0
 40
1.75
  1

 50
90.0
 41
0.9
  7
CADDY_VECTORFONT1P
 72
     1
 11
349.5
 21
110.0
 31
0.0
  0
LINE
  5
25B
  8
0
  6
CADDY_SOLID
 10
335.0
 20
115.0
 30
0.0
 11
350.0
 21
115.0
 31
0.0
  0
TEXT
  5
25C
  8
0
 10
342.5
 20
115.5
 30
0.0
 40
1.75
  1

 41
0.9
  7
CADDY_VECTORFONT1P
 72
     1
 11
342.5
 21
115.5
 31
0.0
  0
LINE
  5
25D
  8
0
  6
CADDY_SOLID
 10
350.0
 20
115.0
 30
0.0
 11
365.0
 21
115.0
 31
0.0
  0
TEXT
  5
25E
  8
0
 10
357.5
 20
115.5
 30
0.0
 40
1.75
  1

 41
0.9
  7
CADDY_VECTORFONT1P
 72
     1
 11
357.5
 21
115.5
 31
0.0
  0
CIRCLE
  5
25F
  8
0
 10
350.0
 20
115.0
 30
0.0
 40
0.8
  0
CIRCLE
  5
260
  8
0
 10
350.0
 20
115.0
 30
0.0
 40
0.6
  0
CIRCLE
  5
261
  8
0
 10
350.0
 20
115.0
 30
0.0
 40
0.4
  0
INSERT
  5
265
  8
0
 66
     1
  2
BLK21
 10
0.0
 20
0.0
 30
1.0
  0
ATTRIB
  5
266
  8
0
 10
360.7000122070312
 20
90.69999694824219
 30
0.0
 40
2.450004577636719
  1
W29.5
 41
0.9
  7
CADDY_VECTORFONT1P
  2
$TAG160010
 70
     1
  0
ATTRIB
  5
269
  8
0
 10
360.7000122070312
 20
85.69999694824219
 30
0.0
 40
2.450004577636719
  1

 41
0.9
  7
CADDY_VECTORFONT1P
  2
$TAG160030
 70
     1
  0
ATTRIB
  5
26B
  8
0
 10
360.7000122070312
 20
80.69999694824219
 30
0.0
 40
2.450004577636719
  1

 41
0.9
  7
CADDY_VECTORFONT1P
  2
$TAG160200
 70
     1
  0
ATTRIB
  5
26D
  8
0
 10
360.7000122070312
 20
75.69999694824219
 30
0.0
 40
2.450004577636719
  1

 41
0.9
  7
CADDY_VECTORFONT1P
  2
$TAG160040
 70
     1
  0
ATTRIB
  5
26F
  8
0
 10
360.7000122070312
 20
70.69999694824219
 30
0.0
 40
2.450004577636719
  1

 41
0.9
  7
CADDY_VECTORFONT1P
  2
$TAG160101
 70
     1
  0
ATTRIB
  5
271
  8
0
 10
230.6999969482422
 20
90.69999694824219
 30
0.0
 40
2.450004577636719
  1
1
 41
0.9
  7
CADDY_VECTORFONT1P
  2
$TAG160210
 70
     0
  0
ATTRIB
  5
273
  8
0
 10
230.6999969482422
 20
85.69999694824219
 30
0.0
 40
2.450004577636719
  1

 41
0.9
  7
CADDY_VECTORFONT1P
  2
$TAG160220
 70
     1
  0
ATTRIB
  5
275
  8
0
 10
230.6999969482422
 20
80.69999694824219
 30
0.0
 40
2.450004577636719
  1

 41
0.9
  7
CADDY_VECTORFONT1P
  2
$TAG160230
 70
     1
  0
SEQEND
  5
267
  8
0
  0
INSERT
  5
27B
  8
0
 66
     1
  2
BLK22
 10
0.0
 20
0.0
 30
1.0
  0
ATTRIB
  5
27C
  8
0
 10
360.7000122070312
 20
90.69999694824219
 30
0.0
 40
2.450004577636719
  1
W29.5
 41
0.9
  7
CADDY_VECTORFONT1P
  2
$TAG160010
 70
     1
  0
ATTRIB
  5
27F
  8
0
 10
360.7000122070312
 20
85.69999694824219
 30
0.0
 40
2.450004577636719
  1

 41
0.9
  7
CADDY_VECTORFONT1P
  2
$TAG160030
 70
     1
  0
ATTRIB
  5
281
  8
0
 10
360.7000122070312
 20
80.69999694824219
 30
0.0
 40
2.450004577636719
  1

 41
0.9
  7
CADDY_VECTORFONT1P
  2
$TAG160200
 70
     1
  0
ATTRIB
  5
283
  8
0
 10
360.7000122070312
 20
75.69999694824219
 30
0.0
 40
2.450004577636719
  1

 41
0.9
  7
CADDY_VECTORFONT1P
  2
$TAG160040
 70
     1
  0
ATTRIB
  5
285
  8
0
 10
360.7000122070312
 20
70.69999694824219
 30
0.0
 40
2.450004577636719
  1

 41
0.9
  7
CADDY_VECTORFONT1P
  2
$TAG160101
 70
     1
  0
ATTRIB
  5
287
  8
0
 10
270.7000122070312
 20
90.69999694824219
 30
0.0
 40
2.450004577636719
  1
2
 41
0.9
  7
CADDY_VECTORFONT1P
  2
$TAG160210
 70
     0
  0
ATTRIB
  5
289
  8
0
 10
270.7000122070312
 20
85.69999694824219
 30
0.0
 40
2.450004577636719
  1

 41
0.9
  7
CADDY_VECTORFONT1P
  2
$TAG160220
 70
     1
  0
ATTRIB
  5
28B
  8
0
 10
270.7000122070312
 20
80.69999694824219
 30
0.0
 40
2.450004577636719
  1

 41
0.9
  7
CADDY_VECTORFONT1P
  2
$TAG160230
 70
     1
  0
SEQEND
  5
27D
  8
0
  0
INSERT
  5
291
  8
0
 66
     1
  2
BLK23
 10
0.0
 20
0.0
 30
1.0
  0
ATTRIB
  5
292
  8
0
 10
360.7000122070312
 20
90.69999694824219
 30
0.0
 40
2.450004577636719
  1
W29.5
 41
0.9
  7
CADDY_VECTORFONT1P
  2
$TAG160010
 70
     1
  0
ATTRIB
  5
295
  8
0
 10
360.7000122070312
 20
85.69999694824219
 30
0.0
 40
2.450004577636719
  1

 41
0.9
  7
CADDY_VECTORFONT1P
  2
$TAG160030
 70
     1
  0
ATTRIB
  5
297
  8
0
 10
360.7000122070312
 20
80.69999694824219
 30
0.0
 40
2.450004577636719
  1

 41
0.9
  7
CADDY_VECTORFONT1P
  2
$TAG160200
 70
     1
  0
ATTRIB
  5
299
  8
0
 10
360.7000122070312
 20
75.69999694824219
 30
0.0
 40
2.450004577636719
  1

 41
0.9
  7
CADDY_VECTORFONT1P
  2
$TAG160040
 70
     1
  0
ATTRIB
  5
29B
  8
0
 10
360.7000122070312
 20
70.69999694824219
 30
0.0
 40
2.450004577636719
  1

 41
0.9
  7
CADDY_VECTORFONT1P
  2
$TAG160101
 70
     1
  0
ATTRIB
  5
29D
  8
0
 10
310.7000122070312
 20
90.69999694824219
 30
0.0
 40
2.450004577636719
  1
3
 41
0.9
  7
CADDY_VECTORFONT1P
  2
$TAG160210
 70
     0
  0
ATTRIB
  5
29F
  8
0
 10
310.7000122070312
 20
85.69999694824219
 30
0.0
 40
2.450004577636719
  1

 41
0.9
  7
CADDY_VECTORFONT1P
  2
$TAG160220
 70
     1
  0
ATTRIB
  5
2A1
  8
0
 10
310.7000122070312
 20
80.69999694824219
 30
0.0
 40
2.450004577636719
  1

 41
0.9
  7
CADDY_VECTORFONT1P
  2
$TAG160230
 70
     1
  0
SEQEND
  5
293
  8
0
  0
INSERT
  5
2A7
  8
0
 66
     1
  2
BLK24
 10
0.0
 20
0.0
 30
1.0
  0
ATTRIB
  5
2A8
  8
0
 10
360.7000122070312
 20
90.69999694824219
 30
0.0
 40
2.450004577636719
  1
W3708
 41
0.9
  7
CADDY_VECTORFONT1P
  2
$TAG160010
 70
     0
  0
ATTRIB
  5
2AB
  8
0
 10
360.7000122070312
 20
85.69999694824219
 30
0.0
 40
2.450004577636719
  1

 41
0.9
  7
CADDY_VECTORFONT1P
  2
$TAG160030
 70
     0
  0
ATTRIB
  5
2AD
  8
0
 10
360.7000122070312
 20
80.69999694824219
 30
0.0
 40
2.450004577636719
  1

 41
0.9
  7
CADDY_VECTORFONT1P
  2
$TAG160200
 70
     0
  0
ATTRIB
  5
2AF
  8
0
 10
360.7000122070312
 20
75.69999694824219
 30
0.0
 40
2.450004577636719
  1

 41
0.9
  7
CADDY_VECTORFONT1P
  2
$TAG160040
 70
     1
  0
ATTRIB
  5
2B1
  8
0
 10
360.7000122070312
 20
70.69999694824219
 30
0.0
 40
2.450004577636719
  1

 41
0.9
  7
CADDY_VECTORFONT1P
  2
$TAG160101
 70
     1
  0
ATTRIB
  5
2B3
  8
0
 10
350.7000122070312
 20
90.69999694824219
 30
0.0
 40
2.450004577636719
  1
4
 41
0.9
  7
CADDY_VECTORFONT1P
  2
$TAG160210
 70
     0
  0
ATTRIB
  5
2B5
  8
0
 10
350.7000122070312
 20
85.69999694824219
 30
0.0
 40
2.450004577636719
  1

 41
0.9
  7
CADDY_VECTORFONT1P
  2
$TAG160220
 70
     1
  0
ATTRIB
  5
2B7
  8
0
 10
350.7000122070312
 20
80.69999694824219
 30
0.0
 40
2.450004577636719
  1

 41
0.9
  7
CADDY_VECTORFONT1P
  2
$TAG160230
 70
     1
  0
SEQEND
  5
2A9
  8
0
  0
LINE
  5
2BA
  8
0
  6
CADDY_SOLID
 10
220.0
 20
90.0
 30
0.0
 11
360.0
 21
90.0
 31
0.0
  0
LINE
  5
2BB
  8
0
  6
CADDY_SOLID
 10
230.0
 20
70.0
 30
0.0
 11
230.0
 21
89.5
 31
0.0
  0
LINE
  5
2BC
  8
0
  6
CADDY_SOLID
 10
230.0
 20
90.5
 30
0.0
 11
230.0
 21
100.0
 31
0.0
  0
LINE
  5
2BD
  8
0
  6
CADDY_SOLID
 10
270.0
 20
70.0
 30
0.0
 11
270.0
 21
89.5
 31
0.0
  0
LINE
  5
2BE
  8
0
  6
CADDY_SOLID
 10
270.0
 20
90.5
 30
0.0
 11
270.0
 21
100.0
 31
0.0
  0
LINE
  5
2BF
  8
0
  6
CADDY_SOLID
 10
310.0
 20
70.0
 30
0.0
 11
310.0
 21
89.5
 31
0.0
  0
LINE
  5
2C0
  8
0
  6
CADDY_SOLID
 10
310.0
 20
90.5
 30
0.0
 11
310.0
 21
100.0
 31
0.0
  0
LINE
  5
2C1
  8
0
  6
CADDY_SOLID
 10
350.0
 20
55.0
 30
0.0
 11
350.0
 21
89.5
 31
0.0
  0
LINE
  5
2C2
  8
0
  6
CADDY_SOLID
 10
350.0
 20
90.5
 30
0.0
 11
350.0
 21
100.0
 31
0.0
  0
TEXT
  5
2C3
  8
0
 10
363.8028359210968
 20
85.69999694824219
 30
0.0
 40
2.450004577636719
  1
5x0,75jz
 41
0.9
  7
CADDY_VECTORFONT1P
 72
     1
 11
370.0
 21
85.69999694824219
 31
0.0
  0
TEXT
  5
2C4
  8
0
 10
221.9131599817276
 20
40.70000076293945
 30
0.0
 40
2.450000762939453
  1
Grøn lampe
 41
0.9
  7
CADDY_VECTORFONT1P
 72
     1
 11
230.0
 21
40.70000076293945
 31
0.0
  0
TEXT
  5
2C5
  8
0
 10
263.0156603250504
 20
40.70000076293945
 30
0.0
 40
2.450000762939453
  1
Gul lampe
 41
0.9
  7
CADDY_VECTORFONT1P
 72
     1
 11
270.0
 21
40.70000076293945
 31
0.0
  0
TEXT
  5
2C6
  8
0
 10
302.6485277107239
 20
40.70000076293945
 30
0.0
 40
2.450000762939453
  1
Rød lampe
 41
0.9
  7
CADDY_VECTORFONT1P
 72
     1
 11
310.0
 21
40.70000076293945
 31
0.0
  0
TEXT
  5
2C7
  8
0
 10
360.0000305175781
 20
40.70000076293945
 30
0.0
 40
2.450000762939453
  1

 41
0.9
  7
CADDY_VECTORFONT1P
 72
     1
 11
360.0000305175781
 21
40.70000076293945
 31
0.0
  0
TEXT
  5
2C8
  8
0
 10
360.0000305175781
 20
37.20000076293945
 30
0.0
 40
2.450000762939453
  1

 41
0.9
  7
CADDY_VECTORFONT1P
 72
     1
 11
360.0000305175781
 21
37.20000076293945
 31
0.0
  0
TEXT
  5
2C9
  8
0
 10
61.9131599817276
 20
35.70000076293945
 30
0.0
 40
2.450000762939453
  1
Grøn lampe
 41
0.9
  7
CADDY_VECTORFONT1P
 72
     1
 11
70.0
 21
35.70000076293945
 31
0.0
  0
TEXT
  5
2CA
  8
0
 10
103.0156603250503
 20
35.70000076293945
 30
0.0
 40
2.450000762939453
  1
Gul lampe
 41
0.9
  7
CADDY_VECTORFONT1P
 72
     1
 11
110.0
 21
35.70000076293945
 31
0.0
  0
TEXT
  5
2CB
  8
0
 10
137.6485429695129
 20
35.70000076293945
 30
0.0
 40
2.450000762939453
  1
Rød lampe
 41
0.9
  7
CADDY_VECTORFONT1P
 72
     1
 11
145.0000152587891
 21
35.70000076293945
 31
0.0
  0
TEXT
  5
2CC
  8
0
 10
200.0
 20
40.70000076293945
 30
0.0
 40
2.450000762939453
  1

 41
0.9
  7
CADDY_VECTORFONT1P
 72
     1
 11
200.0
 21
40.70000076293945
 31
0.0
  0
TEXT
  5
2CD
  8
0
 10
200.0
 20
37.20000076293945
 30
0.0
 40
2.450000762939453
  1

 41
0.9
  7
CADDY_VECTORFONT1P
 72
     1
 11
200.0
 21
37.20000076293945
 31
0.0
  0
INSERT
  5
2D1
  8
0
 66
     1
  2
BLK25
 10
0.0
 20
0.0
 30
1.0
  0
ATTRIB
  5
2D2
  8
0
 10
320.7000122070312
 20
125.6999969482422
 30
0.0
 40
2.449996948242188
  1
W3507
 41
0.9
  7
CADDY_VECTORFONT1P
  2
$TAG160010
 70
     1
  0
ATTRIB
  5
2D5
  8
0
 10
320.7000122070312
 20
120.6999969482422
 30
0.0
 40
2.450004577636719
  1

 41
0.9
  7
CADDY_VECTORFONT1P
  2
$TAG160030
 70
     1
  0
ATTRIB
  5
2D7
  8
0
 10
320.7000122070312
 20
115.6999969482422
 30
0.0
 40
2.450004577636719
  1

 41
0.9
  7
CADDY_VECTORFONT1P
  2
$TAG160200
 70
     1
  0
ATTRIB
  5
2D9
  8
0
 10
320.7000122070312
 20
110.6999969482422
 30
0.0
 40
2.450004577636719
  1

 41
0.9
  7
CADDY_VECTORFONT1P
  2
$TAG160040
 70
     1
  0
ATTRIB
  5
2DB
  8
0
 10
320.7000122070312
 20
105.6999969482422
 30
0.0
 40
2.450004577636719
  1

 41
0.9
  7
CADDY_VECTORFONT1P
  2
$TAG160101
 70
     1
  0
ATTRIB
  5
2DD
  8
0
 10
230.6999969482422
 20
125.6999969482422
 30
0.0
 40
2.449996948242188
  1
2
 41
0.9
  7
CADDY_VECTORFONT1P
  2
$TAG160210
 70
     0
  0
ATTRIB
  5
2DF
  8
0
 10
230.6999969482422
 20
120.6999969482422
 30
0.0
 40
2.450004577636719
  1

 41
0.9
  7
CADDY_VECTORFONT1P
  2
$TAG160220
 70
     1
  0
ATTRIB
  5
2E1
  8
0
 10
230.6999969482422
 20
115.6999969482422
 30
0.0
 40
2.450004577636719
  1

 41
0.9
  7
CADDY_VECTORFONT1P
  2
$TAG160230
 70
     1
  0
SEQEND
  5
2D3
  8
0
  0
INSERT
  5
2E7
  8
0
 66
     1
  2
BLK26
 10
0.0
 20
0.0
 30
1.0
  0
ATTRIB
  5
2E8
  8
0
 10
320.7000122070312
 20
125.6999969482422
 30
0.0
 40
2.449996948242188
  1
W12.1
 41
0.9
  7
CADDY_VECTORFONT1P
  2
$TAG160010
 70
     1
  0
ATTRIB
  5
2EB
  8
0
 10
320.7000122070312
 20
120.6999969482422
 30
0.0
 40
2.450004577636719
  1

 41
0.9
  7
CADDY_VECTORFONT1P
  2
$TAG160030
 70
     1
  0
ATTRIB
  5
2ED
  8
0
 10
320.7000122070312
 20
115.6999969482422
 30
0.0
 40
2.450004577636719
  1

 41
0.9
  7
CADDY_VECTORFONT1P
  2
$TAG160200
 70
     1
  0
ATTRIB
  5
2EF
  8
0
 10
320.7000122070312
 20
110.6999969482422
 30
0.0
 40
2.450004577636719
  1

 41
0.9
  7
CADDY_VECTORFONT1P
  2
$TAG160040
 70
     1
  0
ATTRIB
  5
2F1
  8
0
 10
320.7000122070312
 20
105.6999969482422
 30
0.0
 40
2.450004577636719
  1

 41
0.9
  7
CADDY_VECTORFONT1P
  2
$TAG160101
 70
     1
  0
ATTRIB
  5
2F3
  8
0
 10
270.7000122070312
 20
125.6999969482422
 30
0.0
 40
2.449996948242188
  1
3
 41
0.9
  7
CADDY_VECTORFONT1P
  2
$TAG160210
 70
     0
  0
ATTRIB
  5
2F5
  8
0
 10
270.7000122070312
 20
120.6999969482422
 30
0.0
 40
2.450004577636719
  1

 41
0.9
  7
CADDY_VECTORFONT1P
  2
$TAG160220
 70
     1
  0
ATTRIB
  5
2F7
  8
0
 10
270.7000122070312
 20
115.6999969482422
 30
0.0
 40
2.450004577636719
  1

 41
0.9
  7
CADDY_VECTORFONT1P
  2
$TAG160230
 70
     1
  0
SEQEND
  5
2E9
  8
0
  0
INSERT
  5
2FD
  8
0
 66
     1
  2
BLK27
 10
0.0
 20
0.0
 30
1.0
  0
ATTRIB
  5
2FE
  8
0
 10
320.7000122070312
 20
125.6999969482422
 30
0.0
 40
2.449996948242188
  1
W3507
 41
0.9
  7
CADDY_VECTORFONT1P
  2
$TAG160010
 70
     0
  0
ATTRIB
  5
301
  8
0
 10
320.7000122070312
 20
120.6999969482422
 30
0.0
 40
2.450004577636719
  1

 41
0.9
  7
CADDY_VECTORFONT1P
  2
$TAG160030
 70
     0
  0
ATTRIB
  5
303
  8
0
 10
320.7000122070312
 20
115.6999969482422
 30
0.0
 40
2.450004577636719
  1

 41
0.9
  7
CADDY_VECTORFONT1P
  2
$TAG160200
 70
     0
  0
ATTRIB
  5
305
  8
0
 10
320.7000122070312
 20
110.6999969482422
 30
0.0
 40
2.450004577636719
  1

 41
0.9
  7
CADDY_VECTORFONT1P
  2
$TAG160040
 70
     1
  0
ATTRIB
  5
307
  8
0
 10
320.7000122070312
 20
105.6999969482422
 30
0.0
 40
2.450004577636719
  1

 41
0.9
  7
CADDY_VECTORFONT1P
  2
$TAG160101
 70
     1
  0
ATTRIB
  5
309
  8
0
 10
310.7000122070312
 20
125.6999969482422
 30
0.0
 40
2.449996948242188
  1
4
 41
0.9
  7
CADDY_VECTORFONT1P
  2
$TAG160210
 70
     0
  0
ATTRIB
  5
30B
  8
0
 10
310.7000122070312
 20
120.6999969482422
 30
0.0
 40
2.450004577636719
  1

 41
0.9
  7
CADDY_VECTORFONT1P
  2
$TAG160220
 70
     1
  0
ATTRIB
  5
30D
  8
0
 10
310.7000122070312
 20
115.6999969482422
 30
0.0
 40
2.450004577636719
  1

 41
0.9
  7
CADDY_VECTORFONT1P
  2
$TAG160230
 70
     1
  0
SEQEND
  5
2FF
  8
0
  0
LINE
  5
310
  8
0
  6
CADDY_SOLID
 10
220.0
 20
125.0
 30
0.0
 11
320.0
 21
125.0
 31
0.0
  0
LINE
  5
311
  8
0
  6
CADDY_SOLID
 10
230.0
 20
105.0
 30
0.0
 11
230.0
 21
124.5
 31
0.0
  0
LINE
  5
312
  8
0
  6
CADDY_SOLID
 10
270.0
 20
105.0
 30
0.0
 11
270.0
 21
124.5
 31
0.0
  0
LINE
  5
313
  8
0
  6
CADDY_SOLID
 10
310.0
 20
105.0
 30
0.0
 11
310.0
 21
124.5
 31
0.0
  0
TEXT
  5
314
  8
0
 10
322.4643984203339
 20
120.6999969482422
 30
0.0
 40
2.450004577636719
  1
25x0,75 jz
 41
0.9
  7
CADDY_VECTORFONT1P
 72
     1
 11
330.0
 21
120.6999969482422
 31
0.0
  0
INSERT
  5
318
  8
0
 66
     1
  2
BLK28
 10
0.0
 20
0.0
 30
1.0
  0
ATTRIB
  5
32A
  8
0
 10
69.05000305175781
 20
220.8999938964844
 30
0.0
 40
2.449996948242188
  1

 50
90.0
 41
0.9
  7
CADDY_VECTORFONT1P
 72
     2
 11
69.05000305175781
 21
220.8999938964844
 31
0.0
  2
$TAG175000_00
 70
     0
  0
ATTRIB
  5
32D
  8
0
 10
58.42229234466553
 20
226.1999969482422
 30
0.0
 40
2.449996948242188
  1
D1806-B3
 41
0.9
  7
CADDY_VECTORFONT1P
 72
     2
 11
71.80001068115234
 21
226.1999969482422
 31
0.0
  2
$TAG175100
 70
     0
  0
ATTRIB
  5
32F
  8
0
 10
51.79999923706055
 20
223.6999969482422
 30
0.0
 40
2.449996948242188
  1

 41
0.9
  7
CADDY_VECTORFONT1P
 72
     2
 11
51.79999923706055
 21
223.6999969482422
 31
0.0
  2
$TAG175110
 70
     0
  0
ATTRIB
  5
331
  8
0
 10
51.79999923706055
 20
220.1999969482422
 30
0.0
 40
2.449996948242188
  1

 41
0.9
  7
CADDY_VECTORFONT1P
 72
     2
 11
51.79999923706055
 21
220.1999969482422
 31
0.0
  2
$TAG175120
 70
     0
  0
ATTRIB
  5
333
  8
0
 10
32.87507849731445
 20
230.5500030517578
 30
0.0
 40
2.449996948242188
  1
#00000033
 41
0.9
  7
CADDY_VECTORFONT1P
 72
     2
 11
48.45999908447266
 21
230.5500030517578
 31
0.0
  2
$TAG160010
 70
     1
  0
ATTRIB
  5
335
  8
0
 10
48.46000289916992
 20
216.5500030517578
 30
0.0
 40
2.449996948242188
  1

 41
0.9
  7
CADDY_VECTORFONT1P
 72
     2
 11
48.46000289916992
 21
216.5500030517578
 31
0.0
  2
$TAG160500
 70
     0
  0
SEQEND
  5
32B
  8
0
  0
INSERT
  5
33A
  8
0
 66
     1
  2
BLK30
 10
0.0
 20
0.0
 30
1.0
  0
ATTRIB
  5
34C
  8
0
 10
109.0500030517578
 20
220.8999938964844
 30
0.0
 40
2.449996948242188
  1

 50
90.0
 41
0.9
  7
CADDY_VECTORFONT1P
 72
     2
 11
109.0500030517578
 21
220.8999938964844
 31
0.0
  2
$TAG175000_00
 70
     0
  0
ATTRIB
  5
34F
  8
0
 10
98.42229997406005
 20
226.1999969482422
 30
0.0
 40
2.449996948242188
  1
D1806-B5
 41
0.9
  7
CADDY_VECTORFONT1P
 72
     2
 11
111.8000183105469
 21
226.1999969482422
 31
0.0
  2
$TAG175100
 70
     0
  0
ATTRIB
  5
351
  8
0
 10
91.79999542236328
 20
223.6999969482422
 30
0.0
 40
2.449996948242188
  1

 41
0.9
  7
CADDY_VECTORFONT1P
 72
     2
 11
91.79999542236328
 21
223.6999969482422
 31
0.0
  2
$TAG175110
 70
     0
  0
ATTRIB
  5
353
  8
0
 10
91.79999542236328
 20
220.1999969482422
 30
0.0
 40
2.449996948242188
  1

 41
0.9
  7
CADDY_VECTORFONT1P
 72
     2
 11
91.79999542236328
 21
220.1999969482422
 31
0.0
  2
$TAG175120
 70
     0
  0
ATTRIB
  5
355
  8
0
 10
72.87510138549806
 20
230.5500030517578
 30
0.0
 40
2.449996948242188
  1
#00000033
 41
0.9
  7
CADDY_VECTORFONT1P
 72
     2
 11
88.46002197265625
 21
230.5500030517578
 31
0.0
  2
$TAG160010
 70
     1
  0
ATTRIB
  5
357
  8
0
 10
88.45999908447266
 20
216.5500030517578
 30
0.0
 40
2.449996948242188
  1

 41
0.9
  7
CADDY_VECTORFONT1P
 72
     2
 11
88.45999908447266
 21
216.5500030517578
 31
0.0
  2
$TAG160500
 70
     0
  0
SEQEND
  5
34D
  8
0
  0
INSERT
  5
35C
  8
0
 66
     1
  2
BLK32
 10
0.0
 20
0.0
 30
1.0
  0
ATTRIB
  5
36E
  8
0
 10
149.0500030517578
 20
220.9000091552734
 30
0.0
 40
2.449996948242188
  1

 50
90.0
 41
0.9
  7
CADDY_VECTORFONT1P
 72
     2
 11
149.0500030517578
 21
220.9000091552734
 31
0.0
  2
$TAG175000_00
 70
     0
  0
ATTRIB
  5
371
  8
0
 10
138.6670546691894
 20
226.1999969482422
 30
0.0
 40
2.449996948242188
  1
D1806-A1
 41
0.9
  7
CADDY_VECTORFONT1P
 72
     2
 11
151.8000183105469
 21
226.1999969482422
 31
0.0
  2
$TAG175100
 70
     0
  0
ATTRIB
  5
373
  8
0
 10
131.8000030517578
 20
223.6999969482422
 30
0.0
 40
2.449996948242188
  1

 41
0.9
  7
CADDY_VECTORFONT1P
 72
     2
 11
131.8000030517578
 21
223.6999969482422
 31
0.0
  2
$TAG175110
 70
     0
  0
ATTRIB
  5
375
  8
0
 10
131.8000030517578
 20
220.1999969482422
 30
0.0
 40
2.449996948242188
  1

 41
0.9
  7
CADDY_VECTORFONT1P
 72
     2
 11
131.8000030517578
 21
220.1999969482422
 31
0.0
  2
$TAG175120
 70
     0
  0
ATTRIB
  5
377
  8
0
 10
112.8751013854981
 20
230.5500030517578
 30
0.0
 40
2.449996948242188
  1
#00000033
 41
0.9
  7
CADDY_VECTORFONT1P
 72
     2
 11
128.4600219726562
 21
230.5500030517578
 31
0.0
  2
$TAG160010
 70
     1
  0
ATTRIB
  5
379
  8
0
 10
128.4600067138672
 20
216.5500030517578
 30
0.0
 40
2.449996948242188
  1

 41
0.9
  7
CADDY_VECTORFONT1P
 72
     2
 11
128.4600067138672
 21
216.5500030517578
 31
0.0
  2
$TAG160500
 70
     0
  0
SEQEND
  5
36F
  8
0
  0
INSERT
  5
37E
  8
0
 66
     1
  2
BLK34
 10
0.0
 20
0.0
 30
1.0
  0
ATTRIB
  5
382
  8
2
 10
220.2475190338135
 20
141.3000030517578
 30
0.0
 40
2.449996948242188
  1
X21
 41
0.9
  7
CADDY_VECTORFONT1P
 72
     2
 11
225.0500030517578
 21
141.3000030517578
 31
0.0
  2
$TAG160010
 70
     0
  0
ATTRIB
  5
385
  8
2
 10
229.0999908447266
 20
144.1999969482422
 30
0.0
 40
2.449996948242188
  1
26
 50
90.0
 41
0.9
  7
CADDY_VECTORFONT1P
  2
$TAG160400
 70
     0
  0
ATTRIB
  5
387
  8
0
 10
232.5999908447266
 20
144.1999969482422
 30
0.0
 40
2.449996948242188
  1
1911797
 50
90.0
 41
0.9
  7
CADDY_VECTORFONT1P
  2
$TAG160410
 70
     1
  0
ATTRIB
  5
389
  8
2
 10
225.0500030517578
 20
137.8000030517578
 30
0.0
 40
2.449996948242188
  1

 41
0.9
  7
CADDY_VECTORFONT1P
 72
     2
 11
225.0500030517578
 21
137.8000030517578
 31
0.0
  2
$TAG160030
 70
     1
  0
ATTRIB
  5
38B
  8
2
 10
203.341820350647
 20
132.8000030517578
 30
0.0
 40
2.449996948242188
  1
AB1RR235U2GR
 41
0.9
  7
CADDY_VECTORFONT1P
 72
     2
 11
225.0500183105469
 21
132.8000030517578
 31
0.0
  2
$TAG160040
 70
     1
  0
ATTRIB
  5
38D
  8
2
 10
223.7027497299194
 20
148.3000030517578
 30
0.0
 40
2.449996948242188
  1
=
 41
0.9
  7
CADDY_VECTORFONT1P
 72
     2
 11
225.0500030517578
 21
148.3000030517578
 31
0.0
  2
$TAG140020
 70
     1
  0
ATTRIB
  5
38F
  8
2
 10
223.7027344711304
 20
144.8000030517578
 30
0.0
 40
2.449996948242188
  1
+
 41
0.9
  7
CADDY_VECTORFONT1P
 72
     2
 11
225.0499877929688
 21
144.8000030517578
 31
0.0
  2
$TAG140050
 70
     1
  0
SEQEND
  5
383
  8
0
  0
LINE
  5
391
  8
0
  6
CADDY_SOLID
 10
230.0
 20
127.5
 30
0.0
 11
230.0
 21
140.0
 31
0.0
  0
TEXT
  5
392
  8
0
 10
229.5
 20
133.75
 30
0.0
 40
1.75
  1

 50
90.0
 41
0.9
  7
CADDY_VECTORFONT1P
 72
     1
 11
229.5
 21
133.75
 31
0.0
  0
LINE
  5
393
  8
0
  6
CADDY_SOLID
 10
230.0
 20
145.0
 30
0.0
 11
230.0
 21
185.0
 31
0.0
  0
TEXT
  5
394
  8
0
 10
229.5
 20
165.0
 30
0.0
 40
1.75
  1

 50
90.0
 41
0.9
  7
CADDY_VECTORFONT1P
 72
     1
 11
229.5
 21
165.0
 31
0.0
  0
LINE
  5
395
  8
0
  6
CADDY_SOLID
 10
230.0
 20
125.5
 30
0.0
 11
230.0
 21
140.0
 31
0.0
  0
LINE
  5
396
  8
0
  6
CADDY_SOLID
 10
230.0
 20
145.0
 30
0.0
 11
230.0
 21
185.0
 31
0.0
  0
INSERT
  5
39A
  8
0
 66
     1
  2
BLK35
 10
0.0
 20
0.0
 30
1.0
  0
ATTRIB
  5
39E
  8
2
 10
260.2475342926026
 20
141.3000030517578
 30
0.0
 40
2.449996948242188
  1
X21
 41
0.9
  7
CADDY_VECTORFONT1P
 72
     2
 11
265.0500183105469
 21
141.3000030517578
 31
0.0
  2
$TAG160010
 70
     0
  0
ATTRIB
  5
3A1
  8
2
 10
269.0999755859375
 20
144.2000122070312
 30
0.0
 40
2.449996948242188
  1
27
 50
90.0
 41
0.9
  7
CADDY_VECTORFONT1P
  2
$TAG160400
 70
     0
  0
ATTRIB
  5
3A3
  8
0
 10
272.5999755859375
 20
144.2000122070312
 30
0.0
 40
2.449996948242188
  1
1911798
 50
90.0
 41
0.9
  7
CADDY_VECTORFONT1P
  2
$TAG160410
 70
     1
  0
ATTRIB
  5
3A5
  8
2
 10
265.0500183105469
 20
137.8000030517578
 30
0.0
 40
2.449996948242188
  1

 41
0.9
  7
CADDY_VECTORFONT1P
 72
     2
 11
265.0500183105469
 21
137.8000030517578
 31
0.0
  2
$TAG160030
 70
     1
  0
ATTRIB
  5
3A7
  8
2
 10
243.3417593154907
 20
132.8000030517578
 30
0.0
 40
2.449996948242188
  1
AB1RR235U2GR
 41
0.9
  7
CADDY_VECTORFONT1P
 72
     2
 11
265.0499572753906
 21
132.8000030517578
 31
0.0
  2
$TAG160040
 70
     1
  0
ATTRIB
  5
3A9
  8
2
 10
263.7027344711304
 20
148.3000030517578
 30
0.0
 40
2.449996948242188
  1
=
 41
0.9
  7
CADDY_VECTORFONT1P
 72
     2
 11
265.0499877929688
 21
148.3000030517578
 31
0.0
  2
$TAG140020
 70
     1
  0
ATTRIB
  5
3AB
  8
2
 10
263.7027649887085
 20
144.8000030517578
 30
0.0
 40
2.449996948242188
  1
+
 41
0.9
  7
CADDY_VECTORFONT1P
 72
     2
 11
265.0500183105469
 21
144.8000030517578
 31
0.0
  2
$TAG140050
 70
     1
  0
SEQEND
  5
39F
  8
0
  0
LINE
  5
3AD
  8
0
  6
CADDY_SOLID
 10
270.0
 20
127.5
 30
0.0
 11
270.0
 21
140.0
 31
0.0
  0
TEXT
  5
3AE
  8
0
 10
269.5
 20
133.75
 30
0.0
 40
1.75
  1

 50
90.0
 41
0.9
  7
CADDY_VECTORFONT1P
 72
     1
 11
269.5
 21
133.75
 31
0.0
  0
LINE
  5
3AF
  8
0
  6
CADDY_SOLID
 10
270.0
 20
145.0
 30
0.0
 11
270.0
 21
185.0
 31
0.0
  0
TEXT
  5
3B0
  8
0
 10
269.5
 20
165.0
 30
0.0
 40
1.75
  1

 50
90.0
 41
0.9
  7
CADDY_VECTORFONT1P
 72
     1
 11
269.5
 21
165.0
 31
0.0
  0
LINE
  5
3B1
  8
0
  6
CADDY_SOLID
 10
270.0
 20
125.5
 30
0.0
 11
270.0
 21
140.0
 31
0.0
  0
LINE
  5
3B2
  8
0
  6
CADDY_SOLID
 10
270.0
 20
145.0
 30
0.0
 11
270.0
 21
185.0
 31
0.0
  0
INSERT
  5
3B6
  8
0
 66
     1
  2
BLK36
 10
0.0
 20
0.0
 30
1.0
  0
ATTRIB
  5
3BA
  8
2
 10
300.2475342926026
 20
141.3000030517578
 30
0.0
 40
2.449996948242188
  1
X21
 41
0.9
  7
CADDY_VECTORFONT1P
 72
     2
 11
305.0500183105469
 21
141.3000030517578
 31
0.0
  2
$TAG160010
 70
     0
  0
ATTRIB
  5
3BD
  8
2
 10
309.0999755859375
 20
144.2000122070312
 30
0.0
 40
2.449996948242188
  1
28
 50
90.0
 41
0.9
  7
CADDY_VECTORFONT1P
  2
$TAG160400
 70
     0
  0
ATTRIB
  5
3BF
  8
0
 10
312.5999755859375
 20
144.2000122070312
 30
0.0
 40
2.449996948242188
  1
1911799
 50
90.0
 41
0.9
  7
CADDY_VECTORFONT1P
  2
$TAG160410
 70
     1
  0
ATTRIB
  5
3C1
  8
2
 10
305.0500183105469
 20
137.8000030517578
 30
0.0
 40
2.449996948242188
  1

 41
0.9
  7
CADDY_VECTORFONT1P
 72
     2
 11
305.0500183105469
 21
137.8000030517578
 31
0.0
  2
$TAG160030
 70
     1
  0
ATTRIB
  5
3C3
  8
2
 10
283.3417287979126
 20
132.8000030517578
 30
0.0
 40
2.449996948242188
  1
AB1RR235U2GR
 41
0.9
  7
CADDY_VECTORFONT1P
 72
     2
 11
305.0499267578125
 21
132.8000030517578
 31
0.0
  2
$TAG160040
 70
     1
  0
ATTRIB
  5
3C5
  8
2
 10
303.7027344711304
 20
148.3000030517578
 30
0.0
 40
2.449996948242188
  1
=
 41
0.9
  7
CADDY_VECTORFONT1P
 72
     2
 11
305.0499877929688
 21
148.3000030517578
 31
0.0
  2
$TAG140020
 70
     1
  0
ATTRIB
  5
3C7
  8
2
 10
303.7027649887085
 20
144.8000030517578
 30
0.0
 40
2.449996948242188
  1
+
 41
0.9
  7
CADDY_VECTORFONT1P
 72
     2
 11
305.0500183105469
 21
144.8000030517578
 31
0.0
  2
$TAG140050
 70
     1
  0
SEQEND
  5
3BB
  8
0
  0
LINE
  5
3C9
  8
0
  6
CADDY_SOLID
 10
310.0
 20
127.5
 30
0.0
 11
310.0
 21
140.0
 31
0.0
  0
TEXT
  5
3CA
  8
0
 10
309.5
 20
133.75
 30
0.0
 40
1.75
  1

 50
90.0
 41
0.9
  7
CADDY_VECTORFONT1P
 72
     1
 11
309.5
 21
133.75
 31
0.0
  0
LINE
  5
3CB
  8
0
  6
CADDY_SOLID
 10
310.0
 20
145.0
 30
0.0
 11
310.0
 21
185.0
 31
0.0
  0
TEXT
  5
3CC
  8
0
 10
309.5
 20
165.0
 30
0.0
 40
1.75
  1

 50
90.0
 41
0.9
  7
CADDY_VECTORFONT1P
 72
     1
 11
309.5
 21
165.0
 31
0.0
  0
LINE
  5
3CD
  8
0
  6
CADDY_SOLID
 10
310.0
 20
125.5
 30
0.0
 11
310.0
 21
140.0
 31
0.0
  0
LINE
  5
3CE
  8
0
  6
CADDY_SOLID
 10
310.0
 20
145.0
 30
0.0
 11
310.0
 21
185.0
 31
0.0
  0
INSERT
  5
3D2
  8
0
  2
BLK37
 10
0.0
 20
0.0
 30
1.0
  0
INSERT
  5
3DB
  8
0
  2
BLK38
 10
0.0
 20
0.0
 30
1.0
  0
INSERT
  5
3E4
  8
0
  2
BLK39
 10
0.0
 20
0.0
 30
1.0
  0
ENDSEC
  0
EOF
