  0
SECTION
  2
HEADER
  9
$ACADVER
  1
AC1006
  9
$DWGCODEPAGE
  3
ansi_1252
  9
$INSBASE
 10
0.0
 20
0.0
 30
0.0
  9
$EXTMIN
 10
0.0
 20
0.0
  9
$EXTMAX
 10
420.0
 20
297.0
  9
$LIMMIN
 10
0.0
 20
0.0
  9
$LIMMAX
 10
420.0
 20
297.0
  9
$ORTHOMODE
 70
     0
  9
$REGENMODE
 70
     1
  9
$FILLMODE
 70
     1
  9
$QTEXTMODE
 70
     0
  9
$MIRRTEXT
 70
     1
  9
$DRAGMODE
 70
     2
  9
$LTSCALE
 40
1.0
  9
$OSMODE
 70
    37
  9
$ATTMODE
 70
     1
  9
$TEXTSIZE
 40
2.5
  9
$TRACEWID
 40
1.0
  9
$TEXTSTYLE
  7
STANDARD
  9
$CLAYER
  8
0
  9
$CELTYPE
  6
BYLAYER
  9
$CECOLOR
 62
   256
  9
$DIMSCALE
 40
1.0
  9
$DIMASZ
 40
2.5
  9
$DIMEXO
 40
0.625
  9
$DIMDLI
 40
3.75
  9
$DIMRND
 40
0.0
  9
$DIMDLE
 40
0.0
  9
$DIMEXE
 40
1.25
  9
$DIMTP
 40
0.0
  9
$DIMTM
 40
0.0
  9
$DIMTXT
 40
2.5
  9
$DIMCEN
 40
2.5
  9
$DIMTSZ
 40
0.0
  9
$DIMTOL
 70
     0
  9
$DIMLIM
 70
     0
  9
$DIMTIH
 70
     0
  9
$DIMTOH
 70
     0
  9
$DIMSE1
 70
     0
  9
$DIMSE2
 70
     0
  9
$DIMTAD
 70
     1
  9
$DIMZIN
 70
     8
  9
$DIMBLK
  1

  9
$DIMASO
 70
     1
  9
$DIMSHO
 70
     1
  9
$DIMPOST
  1

  9
$DIMAPOST
  1

  9
$DIMALT
 70
     0
  9
$DIMALTD
 70
     3
  9
$DIMALTF
 40
0.03937007874016
  9
$DIMLFAC
 40
1.0
  9
$DIMTOFL
 70
     1
  9
$DIMTVP
 40
0.0
  9
$DIMTIX
 70
     0
  9
$DIMSOXD
 70
     0
  9
$DIMSAH
 70
     0
  9
$DIMBLK1
  1

  9
$DIMBLK2
  1

  9
$LUNITS
 70
     2
  9
$LUPREC
 70
     4
  9
$SKETCHINC
 40
1.0
  9
$FILLETRAD
 40
10.0
  9
$AUNITS
 70
     0
  9
$AUPREC
 70
     0
  9
$MENU
  1
.
  9
$ELEVATION
 40
0.0
  9
$THICKNESS
 40
0.0
  9
$LIMCHECK
 70
     0
  9
$CHAMFERA
 40
10.0
  9
$CHAMFERB
 40
10.0
  9
$SKPOLY
 70
     0
  9
$TDCREATE
 40
2451930.666666667
  9
$TDUPDATE
 40
2460738.481734711
  9
$TDINDWG
 40
0.0000000116
  9
$TDUSRTIMER
 40
0.0000000116
  9
$USRTIMER
 70
     1
  9
$ANGBASE
 50
0.0
  9
$ANGDIR
 70
     0
  9
$PDMODE
 70
     0
  9
$PDSIZE
 40
0.0
  9
$PLINEWID
 40
0.0
  9
$COORDS
 70
     1
  9
$SPLFRAME
 70
     0
  9
$SPLINETYPE
 70
     6
  9
$SPLINESEGS
 70
     8
  9
$ATTDIA
 70
     0
  9
$ATTREQ
 70
     1
  9
$HANDLING
 70
     1
  9
$HANDSEED
  5
3A4
  9
$SURFTAB1
 70
     6
  9
$SURFTAB2
 70
     6
  9
$SURFTYPE
 70
     6
  9
$SURFU
 70
     6
  9
$SURFV
 70
     6
  9
$UCSNAME
  2

  9
$UCSORG
 10
0.0
 20
0.0
 30
0.0
  9
$UCSXDIR
 10
1.0
 20
0.0
 30
0.0
  9
$UCSYDIR
 10
0.0
 20
1.0
 30
0.0
  9
$USERI1
 70
     0
  9
$USERI2
 70
     0
  9
$USERI3
 70
     0
  9
$USERI4
 70
     0
  9
$USERI5
 70
     0
  9
$USERR1
 40
0.0
  9
$USERR2
 40
0.0
  9
$USERR3
 40
0.0
  9
$USERR4
 40
0.0
  9
$USERR5
 40
0.0
  9
$WORLDVIEW
 70
     1
  0
ENDSEC
  0
SECTION
  2
TABLES
  0
TABLE
  2
VPORT
 70
     1
  0
VPORT
  2
*ACTIVE
 70
     0
 10
0.0
 20
0.0
 11
1.0
 21
1.0
 12
210.0
 22
142.5
 13
0.0
 23
0.0
 14
10.0
 24
10.0
 15
10.0
 25
10.0
 16
0.0
 26
0.0
 36
1.0
 17
0.0
 27
0.0
 37
0.0
 40
270.3
 41
1.972972972850329
 42
50.0
 43
0.0
 44
0.0
 50
0.0
 51
0.0
 71
     0
 72
   100
 73
     1
 74
     3
 75
     0
 76
     0
 77
     0
 78
     0
  0
ENDTAB
  0
TABLE
  2
LTYPE
 70
     6
  0
LTYPE
  2
CONTINUOUS
 70
     0
  3
Solid line
 72
    65
 73
     0
 40
0.0
  0
LTYPE
  2
CADDY_SOLID
 70
     0
  3
____________
 72
    65
 73
     0
 40
0.0
  0
LTYPE
  2
CADDY_DOT
 70
     0
  3
. . . . . . 
 72
    65
 73
     2
 40
2.0
 49
0.5
 49
-1.5
  0
LTYPE
  2
CADDY_DASH
 70
     0
  3
_ _ _ _ _ _ 
 72
    65
 73
     2
 40
3.5
 49
2.0
 49
-1.5
  0
LTYPE
  2
CADDY_DASHDOT
 70
     0
  3
_ . _ . _ . 
 72
    65
 73
     4
 40
5.5
 49
0.5
 49
-1.5
 49
2.0
 49
-1.5
  0
LTYPE
  2
CADDY_DASHDOTDOT
 70
     0
  3
_ . . _ . . 
 72
    65
 73
     6
 40
7.5
 49
2.0
 49
-1.5
 49
0.5
 49
-1.5
 49
0.5
 49
-1.5
  0
ENDTAB
  0
TABLE
  2
LAYER
 70
     2
  0
LAYER
  2
0
 70
     0
 62
     7
  6
CONTINUOUS
  0
LAYER
  2
2
 70
     0
 62
     7
  6
CONTINUOUS
  0
ENDTAB
  0
TABLE
  2
STYLE
 70
    17
  0
STYLE
  2
STANDARD
 70
     0
 40
0.0
 41
1.0
 50
0.0
 71
     0
 42
2.5
  3
txt
  4

  0
STYLE
  2
CADDY_VECTORFONT1P
 70
     0
 40
0.0
 41
0.9
 50
0.0
 71
     0
 42
0.2
  3
isocp___.ttf
  4

  0
STYLE
  2
CADDY_VECTORFONT1N
 70
     0
 40
0.0
 41
1.100000023841858
 50
0.0
 71
     0
 42
0.2
  3

  4

  0
STYLE
  2
CADDY_VECTORFONT2P
 70
     0
 40
0.0
 41
1.35
 50
0.0
 71
     0
 42
0.2
  3

  4

  0
STYLE
  2
CADDY_VECTORFONT2N
 70
     0
 40
0.0
 41
1.549999952316284
 50
0.0
 71
     0
 42
0.2
  3

  4

  0
STYLE
  2
CADDY_VECTORFONT3P
 70
     0
 40
0.0
 41
1.3
 50
0.0
 71
     0
 42
0.2
  3

  4

  0
STYLE
  2
CADDY_VECTORFONT3N
 70
     0
 40
0.0
 41
1.5
 50
0.0
 71
     0
 42
0.2
  3

  4

  0
STYLE
  2
CADDY_VECTORFONT4P
 70
     0
 40
0.0
 41
1.1
 50
0.0
 71
     0
 42
0.2
  3

  4

  0
STYLE
  2
CADDY_VECTORFONT4N
 70
     0
 40
0.0
 41
1.299999952316284
 50
0.0
 71
     0
 42
0.2
  3

  4

  0
STYLE
  2
CADDY_VECTORFONT5P
 70
     0
 40
0.0
 41
1.0
 50
0.0
 71
     0
 42
0.2
  3

  4

  0
STYLE
  2
CADDY_VECTORFONT5N
 70
     0
 40
0.0
 41
1.200000047683716
 50
0.0
 71
     0
 42
0.2
  3

  4

  0
STYLE
  2
CADDY_VECTORFONT6P
 70
     0
 40
0.0
 41
0.9
 50
0.0
 71
     0
 42
0.2
  3

  4

  0
STYLE
  2
CADDY_VECTORFONT6N
 70
     0
 40
0.0
 41
1.100000023841858
 50
0.0
 71
     0
 42
0.2
  3

  4

  0
STYLE
  2
CADDY_VECTORFONT7P
 70
     0
 40
0.0
 41
1.3
 50
0.0
 71
     0
 42
0.2
  3

  4

  0
STYLE
  2
CADDY_VECTORFONT7N
 70
     0
 40
0.0
 41
1.5
 50
0.0
 71
     0
 42
0.2
  3

  4

  0
STYLE
  2
CADDY_VECTORFONT8P
 70
     0
 40
0.0
 41
1.5
 50
0.0
 71
     0
 42
0.2
  3

  4

  0
STYLE
  2
CADDY_VECTORFONT8N
 70
     0
 40
0.0
 41
1.700000047683716
 50
0.0
 71
     0
 42
0.2
  3

  4

  0
ENDTAB
  0
TABLE
  2
VIEW
 70
     0
  0
ENDTAB
  0
TABLE
  2
UCS
 70
     0
  0
ENDTAB
  0
ENDSEC
  0
SECTION
  2
BLOCKS
  0
BLOCK
  8
0
  2
BLK1
 70
     0
 10
0.0
 20
0.0
 30
0.0
  0
LINE
  5
44
  8
0
  6
CADDY_SOLID
 10
10.0
 20
10.0
 30
0.0
 11
10.0
 21
275.0
 31
0.0
  0
LINE
  5
45
  8
0
  6
CADDY_SOLID
 10
10.0
 20
275.0
 30
0.0
 11
410.0
 21
275.0
 31
0.0
  0
LINE
  5
46
  8
0
  6
CADDY_SOLID
 10
410.0
 20
275.0
 30
0.0
 11
410.0
 21
10.0
 31
0.0
  0
LINE
  5
47
  8
0
  6
CADDY_SOLID
 10
50.0
 20
270.0
 30
0.0
 11
50.0
 21
275.0
 31
0.0
  0
TEXT
  5
48
  8
0
 10
29.14336390228272
 20
271.2000122070312
 30
0.0
 40
2.449981689453125
  1
0
 41
0.9
  7
CADDY_VECTORFONT1P
 72
     1
 11
30.0
 21
271.2000122070312
 31
0.0
  0
TEXT
  5
49
  8
0
 10
30.0
 20
265.2000122070312
 30
0.0
 40
2.449981689453125
  1

 41
0.9
  7
CADDY_VECTORFONT1P
 72
     1
 11
30.0
 21
265.2000122070312
 31
0.0
  0
LINE
  5
4A
  8
0
  6
CADDY_SOLID
 10
90.0
 20
270.0
 30
0.0
 11
90.0
 21
275.0
 31
0.0
  0
LINE
  5
4B
  8
0
  6
CADDY_SOLID
 10
130.0
 20
270.0
 30
0.0
 11
130.0
 21
275.0
 31
0.0
  0
LINE
  5
4C
  8
0
  6
CADDY_SOLID
 10
170.0
 20
270.0
 30
0.0
 11
170.0
 21
275.0
 31
0.0
  0
LINE
  5
4D
  8
0
  6
CADDY_SOLID
 10
210.0
 20
270.0
 30
0.0
 11
210.0
 21
275.0
 31
0.0
  0
LINE
  5
4E
  8
0
  6
CADDY_SOLID
 10
250.0
 20
270.0
 30
0.0
 11
250.0
 21
275.0
 31
0.0
  0
LINE
  5
4F
  8
0
  6
CADDY_SOLID
 10
290.0
 20
270.0
 30
0.0
 11
290.0
 21
275.0
 31
0.0
  0
LINE
  5
50
  8
0
  6
CADDY_SOLID
 10
330.0
 20
270.0
 30
0.0
 11
330.0
 21
275.0
 31
0.0
  0
LINE
  5
51
  8
0
  6
CADDY_SOLID
 10
370.0
 20
270.0
 30
0.0
 11
370.0
 21
275.0
 31
0.0
  0
TEXT
  5
52
  8
0
 10
69.38369947662353
 20
271.2000122070312
 30
0.0
 40
2.449981689453125
  1
1
 41
0.9
  7
CADDY_VECTORFONT1P
 72
     1
 11
69.99999237060547
 21
271.2000122070312
 31
0.0
  0
TEXT
  5
53
  8
0
 10
109.1610037704468
 20
271.2000122070312
 30
0.0
 40
2.449981689453125
  1
2
 41
0.9
  7
CADDY_VECTORFONT1P
 72
     1
 11
110.0
 21
271.2000122070312
 31
0.0
  0
TEXT
  5
54
  8
0
 10
149.1312364929199
 20
271.2000122070312
 30
0.0
 40
2.449981689453125
  1
3
 41
0.9
  7
CADDY_VECTORFONT1P
 72
     1
 11
150.0
 21
271.2000122070312
 31
0.0
  0
TEXT
  5
55
  8
0
 10
189.0364222015381
 20
271.2000122070312
 30
0.0
 40
2.449981689453125
  1
4
 41
0.9
  7
CADDY_VECTORFONT1P
 72
     1
 11
190.0
 21
271.2000122070312
 31
0.0
  0
TEXT
  5
56
  8
0
 10
229.1433639022827
 20
271.2000122070312
 30
0.0
 40
2.449981689453125
  1
5
 41
0.9
  7
CADDY_VECTORFONT1P
 72
     1
 11
230.0
 21
271.2000122070312
 31
0.0
  0
TEXT
  5
57
  8
0
 10
269.1433639022827
 20
271.2000122070312
 30
0.0
 40
2.449981689453125
  1
6
 41
0.9
  7
CADDY_VECTORFONT1P
 72
     1
 11
270.0
 21
271.2000122070312
 31
0.0
  0
TEXT
  5
58
  8
0
 10
309.140056427002
 20
271.2000122070312
 30
0.0
 40
2.449981689453125
  1
7
 41
0.9
  7
CADDY_VECTORFONT1P
 72
     1
 11
310.0
 21
271.2000122070312
 31
0.0
  0
TEXT
  5
59
  8
0
 10
349.1433639022827
 20
271.2000122070312
 30
0.0
 40
2.449981689453125
  1
8
 41
0.9
  7
CADDY_VECTORFONT1P
 72
     1
 11
350.0
 21
271.2000122070312
 31
0.0
  0
TEXT
  5
5A
  8
0
 10
389.1433639022827
 20
271.2000122070312
 30
0.0
 40
2.449981689453125
  1
9
 41
0.9
  7
CADDY_VECTORFONT1P
 72
     1
 11
390.0
 21
271.2000122070312
 31
0.0
  0
TEXT
  5
5B
  8
0
 10
70.0
 20
265.2000122070312
 30
0.0
 40
2.449981689453125
  1

 41
0.9
  7
CADDY_VECTORFONT1P
 72
     1
 11
70.0
 21
265.2000122070312
 31
0.0
  0
TEXT
  5
5C
  8
0
 10
110.0
 20
265.2000122070312
 30
0.0
 40
2.449981689453125
  1

 41
0.9
  7
CADDY_VECTORFONT1P
 72
     1
 11
110.0
 21
265.2000122070312
 31
0.0
  0
TEXT
  5
5D
  8
0
 10
150.0
 20
265.2000122070312
 30
0.0
 40
2.449981689453125
  1

 41
0.9
  7
CADDY_VECTORFONT1P
 72
     1
 11
150.0
 21
265.2000122070312
 31
0.0
  0
TEXT
  5
5E
  8
0
 10
190.0
 20
265.2000122070312
 30
0.0
 40
2.449981689453125
  1

 41
0.9
  7
CADDY_VECTORFONT1P
 72
     1
 11
190.0
 21
265.2000122070312
 31
0.0
  0
TEXT
  5
5F
  8
0
 10
230.0
 20
265.2000122070312
 30
0.0
 40
2.449981689453125
  1

 41
0.9
  7
CADDY_VECTORFONT1P
 72
     1
 11
230.0
 21
265.2000122070312
 31
0.0
  0
TEXT
  5
60
  8
0
 10
270.0000305175781
 20
265.2000122070312
 30
0.0
 40
2.449981689453125
  1

 41
0.9
  7
CADDY_VECTORFONT1P
 72
     1
 11
270.0000305175781
 21
265.2000122070312
 31
0.0
  0
TEXT
  5
61
  8
0
 10
310.0000305175781
 20
265.2000122070312
 30
0.0
 40
2.449981689453125
  1

 41
0.9
  7
CADDY_VECTORFONT1P
 72
     1
 11
310.0000305175781
 21
265.2000122070312
 31
0.0
  0
TEXT
  5
62
  8
0
 10
350.0000305175781
 20
265.2000122070312
 30
0.0
 40
2.449981689453125
  1

 41
0.9
  7
CADDY_VECTORFONT1P
 72
     1
 11
350.0000305175781
 21
265.2000122070312
 31
0.0
  0
TEXT
  5
63
  8
0
 10
390.0000305175781
 20
265.2000122070312
 30
0.0
 40
2.449981689453125
  1

 41
0.9
  7
CADDY_VECTORFONT1P
 72
     1
 11
390.0000305175781
 21
265.2000122070312
 31
0.0
  0
LINE
  5
64
  8
0
  6
CADDY_SOLID
 10
15.0
 20
270.0
 30
0.0
 11
15.0
 21
30.0
 31
0.0
  0
LINE
  5
65
  8
0
  6
CADDY_SOLID
 10
405.0
 20
270.0
 30
0.0
 11
405.0
 21
30.0
 31
0.0
  0
LINE
  5
66
  8
0
  6
CADDY_SOLID
 10
15.0
 20
230.0
 30
0.0
 11
10.0
 21
230.0
 31
0.0
  0
LINE
  5
67
  8
0
  6
CADDY_SOLID
 10
15.0
 20
190.0
 30
0.0
 11
10.0
 21
190.0
 31
0.0
  0
LINE
  5
68
  8
0
  6
CADDY_SOLID
 10
15.0
 20
150.0
 30
0.0
 11
10.0
 21
150.0
 31
0.0
  0
LINE
  5
69
  8
0
  6
CADDY_SOLID
 10
10.0
 20
110.0
 30
0.0
 11
15.0
 21
110.0
 31
0.0
  0
LINE
  5
6A
  8
0
  6
CADDY_SOLID
 10
10.0
 20
70.0
 30
0.0
 11
15.0
 21
70.0
 31
0.0
  0
TEXT
  5
6B
  8
0
 10
11.39750137329102
 20
248.6999969482422
 30
0.0
 40
2.449996948242188
  1
A
 41
0.9
  7
CADDY_VECTORFONT1P
 72
     1
 11
12.5
 21
248.6999969482422
 31
0.0
  0
TEXT
  5
6C
  8
0
 10
11.52098121948242
 20
208.6999969482422
 30
0.0
 40
2.449996948242188
  1
B
 41
0.9
  7
CADDY_VECTORFONT1P
 72
     1
 11
12.5
 21
208.6999969482422
 31
0.0
  0
TEXT
  5
6D
  8
0
 10
11.65548605194092
 20
168.6999969482422
 30
0.0
 40
2.449996948242188
  1
C
 41
0.9
  7
CADDY_VECTORFONT1P
 72
     1
 11
12.5
 21
168.6999969482422
 31
0.0
  0
TEXT
  5
6E
  8
0
 10
11.52098121948242
 20
128.6999969482422
 30
0.0
 40
2.449996948242188
  1
D
 41
0.9
  7
CADDY_VECTORFONT1P
 72
     1
 11
12.5
 21
128.6999969482422
 31
0.0
  0
TEXT
  5
6F
  8
0
 10
11.65548342208862
 20
88.69999694824219
 30
0.0
 40
2.450004577636719
  1
E
 41
0.9
  7
CADDY_VECTORFONT1P
 72
     1
 11
12.5
 21
88.69999694824219
 31
0.0
  0
TEXT
  5
70
  8
0
 10
11.65548473701477
 20
48.70000076293945
 30
0.0
 40
2.450000762939453
  1
F
 41
0.9
  7
CADDY_VECTORFONT1P
 72
     1
 11
12.5
 21
48.70000076293945
 31
0.0
  0
LINE
  5
71
  8
0
  6
CADDY_SOLID
 10
410.0
 20
230.0
 30
0.0
 11
405.0
 21
230.0
 31
0.0
  0
LINE
  5
72
  8
0
  6
CADDY_SOLID
 10
410.0
 20
190.0
 30
0.0
 11
405.0
 21
190.0
 31
0.0
  0
LINE
  5
73
  8
0
  6
CADDY_SOLID
 10
410.0
 20
150.0
 30
0.0
 11
405.0
 21
150.0
 31
0.0
  0
LINE
  5
74
  8
0
  6
CADDY_SOLID
 10
405.0
 20
110.0
 30
0.0
 11
410.0
 21
110.0
 31
0.0
  0
LINE
  5
75
  8
0
  6
CADDY_SOLID
 10
405.0
 20
70.0
 30
0.0
 11
410.0
 21
70.0
 31
0.0
  0
TEXT
  5
76
  8
0
 10
406.397501373291
 20
248.6999969482422
 30
0.0
 40
2.449996948242188
  1
A
 41
0.9
  7
CADDY_VECTORFONT1P
 72
     1
 11
407.5
 21
248.6999969482422
 31
0.0
  0
TEXT
  5
77
  8
0
 10
406.5209812194824
 20
208.6999969482422
 30
0.0
 40
2.449996948242188
  1
B
 41
0.9
  7
CADDY_VECTORFONT1P
 72
     1
 11
407.5
 21
208.6999969482422
 31
0.0
  0
TEXT
  5
78
  8
0
 10
406.6554860519409
 20
168.6999969482422
 30
0.0
 40
2.449996948242188
  1
C
 41
0.9
  7
CADDY_VECTORFONT1P
 72
     1
 11
407.5
 21
168.6999969482422
 31
0.0
  0
TEXT
  5
79
  8
0
 10
406.5209812194824
 20
128.6999969482422
 30
0.0
 40
2.449996948242188
  1
D
 41
0.9
  7
CADDY_VECTORFONT1P
 72
     1
 11
407.5
 21
128.6999969482422
 31
0.0
  0
TEXT
  5
7A
  8
0
 10
406.6554834220887
 20
88.69999694824219
 30
0.0
 40
2.450004577636719
  1
E
 41
0.9
  7
CADDY_VECTORFONT1P
 72
     1
 11
407.5
 21
88.69999694824219
 31
0.0
  0
TEXT
  5
7B
  8
0
 10
406.6554847370148
 20
48.70000076293945
 30
0.0
 40
2.450000762939453
  1
F
 41
0.9
  7
CADDY_VECTORFONT1P
 72
     1
 11
407.5
 21
48.70000076293945
 31
0.0
  0
LINE
  5
7C
  8
0
  6
CADDY_SOLID
 10
15.0
 20
270.0
 30
0.0
 11
405.0
 21
270.0
 31
0.0
  0
LINE
  5
7D
  8
0
  6
CADDY_SOLID
 10
410.0
 20
10.0
 30
0.0
 11
10.0
 21
10.0
 31
0.0
  0
LINE
  5
7E
  8
0
  6
CADDY_SOLID
 10
10.0
 20
30.0
 30
0.0
 11
410.0
 21
30.0
 31
0.0
  0
LINE
  5
7F
  8
0
  6
CADDY_SOLID
 10
260.0
 20
20.0
 30
0.0
 11
410.0
 21
20.0
 31
0.0
  0
LINE
  5
80
  8
0
  6
CADDY_SOLID
 10
10.0
 20
30.0
 30
0.0
 11
15.0
 21
30.0
 31
0.0
  0
LINE
  5
81
  8
0
  6
CADDY_SOLID
 10
405.0
 20
30.0
 30
0.0
 11
410.0
 21
30.0
 31
0.0
  0
LINE
  5
82
  8
0
  6
CADDY_SOLID
 10
65.0
 20
30.0
 30
0.0
 11
65.0
 21
10.0
 31
0.0
  0
TEXT
  5
83
  8
0
 10
69.19999694824219
 20
14.19999980926514
 30
0.0
 40
2.449999809265137
  1
Kassepakker
 41
0.9
  7
CADDY_VECTORFONT1P
  0
TEXT
  5
84
  8
0
 10
69.19999694824219
 20
23.20000076293945
 30
0.0
 40
2.44999885559082
  1
MPN - GUIDED BY VISION
 41
0.9
  7
CADDY_VECTORFONT1P
  0
TEXT
  5
85
  8
0
 10
69.19999694824219
 20
18.70000076293945
 30
0.0
 40
2.44999885559082
  1

 41
0.9
  7
CADDY_VECTORFONT1P
  0
LINE
  5
86
  8
0
  6
CADDY_SOLID
 10
160.0
 20
30.0
 30
0.0
 11
160.0
 21
10.0
 31
0.0
  0
TEXT
  5
87
  8
0
 10
164.1999969482422
 20
23.20000076293945
 30
0.0
 40
2.44999885559082
  1
MOXA
 41
0.9
  7
CADDY_VECTORFONT1P
  0
TEXT
  5
88
  8
0
 10
164.1999969482422
 20
18.70000076293945
 30
0.0
 40
2.44999885559082
  1

 41
0.9
  7
CADDY_VECTORFONT1P
  0
TEXT
  5
89
  8
0
 10
164.1999969482422
 20
14.19999980926514
 30
0.0
 40
2.449999809265137
  1

 41
0.9
  7
CADDY_VECTORFONT1P
  0
LINE
  5
8A
  8
0
  6
CADDY_SOLID
 10
260.0
 20
30.0
 30
0.0
 11
260.0
 21
10.0
 31
0.0
  0
TEXT
  5
8B
  8
0
 10
261.2000122070312
 20
26.20000076293945
 30
0.0
 40
2.44999885559082
  1
Projekt:
 41
0.9
  7
CADDY_VECTORFONT1P
  0
TEXT
  5
8C
  8
0
 10
261.2000122070312
 20
16.20000076293945
 30
0.0
 40
2.44999885559082
  1
Dato:
 41
0.9
  7
CADDY_VECTORFONT1P
  0
LINE
  5
8D
  8
0
  6
CADDY_SOLID
 10
290.0
 20
30.0
 30
0.0
 11
290.0
 21
10.0
 31
0.0
  0
TEXT
  5
8E
  8
0
 10
291.2000122070312
 20
16.20000076293945
 30
0.0
 40
2.44999885559082
  1
Funkt.:
 41
0.9
  7
CADDY_VECTORFONT1P
  0
TEXT
  5
8F
  8
0
 10
291.2000122070312
 20
26.20000076293945
 30
0.0
 40
2.44999885559082
  1
Tegn. nr.:
 41
0.9
  7
CADDY_VECTORFONT1P
  0
TEXT
  5
90
  8
0
 10
276.1062470369339
 20
21.70000076293945
 30
0.0
 40
2.44999885559082
  1
CP6000
 41
0.9
  7
CADDY_VECTORFONT1P
 72
     2
 11
286.2999572753906
 21
21.70000076293945
 31
0.0
  0
TEXT
  5
91
  8
0
 10
269.2442836031914
 20
11.69999980926514
 30
0.0
 40
2.449999809265137
  1
04-07-2006
 41
0.9
  7
CADDY_VECTORFONT1P
 72
     2
 11
286.2999572753906
 21
11.69999980926514
 31
0.0
  0
LINE
  5
92
  8
0
  6
CADDY_SOLID
 10
320.0
 20
20.0
 30
0.0
 11
320.0
 21
10.0
 31
0.0
  0
TEXT
  5
93
  8
0
 10
321.2000122070312
 20
16.20000076293945
 30
0.0
 40
2.44999885559082
  1
Plac.:
 41
0.9
  7
CADDY_VECTORFONT1P
  0
TEXT
  5
94
  8
0
 10
314.9527328978539
 20
11.69999980926514
 30
0.0
 40
2.449999809265137
  1
=
 41
0.9
  7
CADDY_VECTORFONT1P
 72
     2
 11
316.2999877929688
 21
11.69999980926514
 31
0.0
  0
LINE
  5
95
  8
0
  6
CADDY_SOLID
 10
382.5
 20
20.0
 30
0.0
 11
382.5
 21
30.0
 31
0.0
  0
LINE
  5
96
  8
0
  6
CADDY_SOLID
 10
382.5
 20
10.0
 30
0.0
 11
382.5
 21
20.0
 31
0.0
  0
TEXT
  5
97
  8
0
 10
349.952763415432
 20
11.69999980926514
 30
0.0
 40
2.449999809265137
  1
+
 41
0.9
  7
CADDY_VECTORFONT1P
 72
     2
 11
351.3000183105469
 21
11.69999980926514
 31
0.0
  0
LINE
  5
98
  8
0
  6
CADDY_SOLID
 10
355.0
 20
10.0
 30
0.0
 11
355.0
 21
20.0
 31
0.0
  0
LINE
  5
99
  8
0
  6
CADDY_SOLID
 10
355.0
 20
20.0
 30
0.0
 11
355.0
 21
30.0
 31
0.0
  0
TEXT
  5
9A
  8
0
 10
356.2000122070312
 20
26.20000076293945
 30
0.0
 40
2.44999885559082
  1
Rev.:
 41
0.9
  7
CADDY_VECTORFONT1P
  0
LINE
  5
9B
  8
0
  6
CADDY_SOLID
 10
337.5
 20
20.0
 30
0.0
 11
337.5
 21
30.0
 31
0.0
  0
TEXT
  5
9C
  8
0
 10
333.5
 20
21.75
 30
0.0
 40
3.5
  1

 41
0.9
  7
CADDY_VECTORFONT1P
 72
     2
 11
333.5
 21
21.75
 31
0.0
  0
TEXT
  5
9D
  8
0
 10
338.7000122070312
 20
26.20000076293945
 30
0.0
 40
2.44999885559082
  1
Init.:
 41
0.9
  7
CADDY_VECTORFONT1P
  0
TEXT
  5
9E
  8
0
 10
351.3000183105469
 20
21.70000076293945
 30
0.0
 40
2.44999885559082
  1

 41
0.9
  7
CADDY_VECTORFONT1P
 72
     2
 11
351.3000183105469
 21
21.70000076293945
 31
0.0
  0
TEXT
  5
9F
  8
0
 10
378.8000183105469
 20
21.70000076293945
 30
0.0
 40
2.44999885559082
  1

 41
0.9
  7
CADDY_VECTORFONT1P
 72
     2
 11
378.8000183105469
 21
21.70000076293945
 31
0.0
  0
TEXT
  5
A0
  8
0
 10
399.54245
 20
21.75
 30
0.0
 40
3.5
  1
19
 41
0.9
  7
CADDY_VECTORFONT1P
 72
     2
 11
403.25
 21
21.75
 31
0.0
  0
TEXT
  5
A1
  8
0
 10
405.25
 20
21.75
 30
0.0
 40
3.5
  1

 41
0.9
  7
CADDY_VECTORFONT1P
  0
TEXT
  5
A2
  8
0
 10
383.7000122070312
 20
26.20000076293945
 30
0.0
 40
2.44999885559082
  1
Blad:
 41
0.9
  7
CADDY_VECTORFONT1P
  0
TEXT
  5
A3
  8
0
 10
403.2130185508728
 20
11.69999980926514
 30
0.0
 40
2.449999809265137
  1
20
 41
0.9
  7
CADDY_VECTORFONT1P
 72
     2
 11
406.3000183105469
 21
11.69999980926514
 31
0.0
  0
TEXT
  5
A4
  8
0
 10
383.7000122070312
 20
16.20000076293945
 30
0.0
 40
2.44999885559082
  1
Næste blad:
 41
0.9
  7
CADDY_VECTORFONT1P
  0
TEXT
  5
A5
  8
0
 10
356.2000122070312
 20
16.20000076293945
 30
0.0
 40
2.44999885559082
  1
Antal blade:
 41
0.9
  7
CADDY_VECTORFONT1P
  0
TEXT
  5
A6
  8
0
 10
375.7284535496712
 20
11.69999980926514
 30
0.0
 40
2.449999809265137
  1
32
 41
0.9
  7
CADDY_VECTORFONT1P
 72
     2
 11
378.8000183105469
 21
11.69999980926514
 31
0.0
  0
ENDBLK
  8
0
  0
BLOCK
  8
0
  2
BLK2
 70
     2
 10
0.0
 20
0.0
 30
0.0
  0
LINE
  5
B0
  8
0
  6
CADDY_SOLID
 10
27.5
 20
260.0
 30
0.0
 11
25.25
 21
261.25
 31
0.0
  0
LINE
  5
B1
  8
0
  6
CADDY_SOLID
 10
27.5
 20
260.0
 30
0.0
 11
25.25
 21
258.75
 31
0.0
  0
ATTDEF
  5
B4
  8
0
 10
29.26500701904297
 20
260.9000244140625
 30
0.0
 40
2.449981689453125
  1
1006
 41
0.9
  7
CADDY_VECTORFONT1P
  3
Produkt (-)
  2
$TAG160010
 70
     1
  0
ATTDEF
  5
B6
  8
0
 10
5.486902221679685
 20
258.9500122070312
 30
0.0
 40
2.449981689453125
  1
19.9
 41
0.9
  7
CADDY_VECTORFONT1P
 72
     2
 11
22.78499794006348
 21
258.9500122070312
 31
0.0
  3
Side/strømvej reference
  2
$TAG160500
 70
     0
  0
ATTDEF
  5
B8
  8
0
 10
29.26500701904297
 20
267.9000244140625
 30
0.0
 40
2.449981689453125
  1
=
 41
0.9
  7
CADDY_VECTORFONT1P
  3
Funktion (=)
  2
$TAG140020
 70
     1
  0
ATTDEF
  5
BA
  8
0
 10
29.26500701904297
 20
264.4000244140625
 30
0.0
 40
2.449981689453125
  1
+
 41
0.9
  7
CADDY_VECTORFONT1P
  3
Placering (+)
  2
$TAG140050
 70
     1
  0
ENDBLK
  8
0
  0
BLOCK
  8
0
  2
BLK3
 70
     2
 10
0.0
 20
0.0
 30
0.0
  0
LINE
  5
BF
  8
0
  6
CADDY_SOLID
 10
392.5
 20
260.0
 30
0.0
 11
390.25
 21
261.25
 31
0.0
  0
LINE
  5
C0
  8
0
  6
CADDY_SOLID
 10
392.5
 20
260.0
 30
0.0
 11
390.25
 21
258.75
 31
0.0
  0
ATTDEF
  5
C3
  8
0
 10
370.9786497863769
 20
260.9000244140625
 30
0.0
 40
2.449981689453125
  1
1006
 41
0.9
  7
CADDY_VECTORFONT1P
 72
     2
 11
387.7850341796875
 21
260.9000244140625
 31
0.0
  3
Produkt (-)
  2
$TAG160010
 70
     1
  0
ATTDEF
  5
C5
  8
0
 10
393.3650207519531
 20
258.9500122070312
 30
0.0
 40
2.449981689453125
  1
24.7
 41
0.9
  7
CADDY_VECTORFONT1P
  3
Side/strømvej reference
  2
$TAG160500
 70
     0
  0
ATTDEF
  5
C7
  8
0
 10
370.2421547729492
 20
267.9000244140625
 30
0.0
 40
2.449981689453125
  1
=
 41
0.9
  7
CADDY_VECTORFONT1P
 72
     2
 11
387.7850036621094
 21
267.9000244140625
 31
0.0
  3
Funktion (=)
  2
$TAG140020
 70
     1
  0
ATTDEF
  5
C9
  8
0
 10
370.2421547729492
 20
264.4000244140625
 30
0.0
 40
2.449981689453125
  1
+
 41
0.9
  7
CADDY_VECTORFONT1P
 72
     2
 11
387.7850036621094
 21
264.4000244140625
 31
0.0
  3
Placering (+)
  2
$TAG140050
 70
     1
  0
ENDBLK
  8
0
  0
BLOCK
  8
0
  2
BLK4
 70
     2
 10
0.0
 20
0.0
 30
0.0
  0
LINE
  5
D0
  8
0
  6
CADDY_SOLID
 10
27.5
 20
255.0
 30
0.0
 11
25.25
 21
256.25
 31
0.0
  0
LINE
  5
D1
  8
0
  6
CADDY_SOLID
 10
27.5
 20
255.0
 30
0.0
 11
25.25
 21
253.75
 31
0.0
  0
ATTDEF
  5
D4
  8
0
 10
29.26500701904297
 20
255.9000091552734
 30
0.0
 40
2.449996948242188
  1
1006
 41
0.9
  7
CADDY_VECTORFONT1P
  3
Produkt (-)
  2
$TAG160010
 70
     1
  0
ATTDEF
  5
D6
  8
0
 10
5.486794486999514
 20
253.9499969482422
 30
0.0
 40
2.449996948242188
  1

 41
0.9
  7
CADDY_VECTORFONT1P
 72
     2
 11
22.78499794006348
 21
253.9499969482422
 31
0.0
  3
Side/strømvej reference
  2
$TAG160500
 70
     0
  0
ATTDEF
  5
D8
  8
0
 10
29.26500701904297
 20
262.9000244140625
 30
0.0
 40
2.449981689453125
  1
=
 41
0.9
  7
CADDY_VECTORFONT1P
  3
Funktion (=)
  2
$TAG140020
 70
     1
  0
ATTDEF
  5
DA
  8
0
 10
29.26500701904297
 20
259.4000244140625
 30
0.0
 40
2.449981689453125
  1
+
 41
0.9
  7
CADDY_VECTORFONT1P
  3
Placering (+)
  2
$TAG140050
 70
     1
  0
ENDBLK
  8
0
  0
BLOCK
  8
0
  2
BLK5
 70
     2
 10
0.0
 20
0.0
 30
0.0
  0
LINE
  5
DF
  8
0
  6
CADDY_SOLID
 10
392.5
 20
255.0
 30
0.0
 11
390.25
 21
256.25
 31
0.0
  0
LINE
  5
E0
  8
0
  6
CADDY_SOLID
 10
392.5
 20
255.0
 30
0.0
 11
390.25
 21
253.75
 31
0.0
  0
ATTDEF
  5
E3
  8
0
 10
370.9785451141357
 20
255.9000091552734
 30
0.0
 40
2.449996948242188
  1
1006
 41
0.9
  7
CADDY_VECTORFONT1P
 72
     2
 11
387.7850341796875
 21
255.9000091552734
 31
0.0
  3
Produkt (-)
  2
$TAG160010
 70
     1
  0
ATTDEF
  5
E5
  8
0
 10
393.3650207519531
 20
253.9499969482422
 30
0.0
 40
2.449996948242188
  1
19.0
 41
0.9
  7
CADDY_VECTORFONT1P
  3
Side/strømvej reference
  2
$TAG160500
 70
     0
  0
ATTDEF
  5
E7
  8
0
 10
370.2421547729492
 20
262.9000244140625
 30
0.0
 40
2.449981689453125
  1
=
 41
0.9
  7
CADDY_VECTORFONT1P
 72
     2
 11
387.7850036621094
 21
262.9000244140625
 31
0.0
  3
Funktion (=)
  2
$TAG140020
 70
     1
  0
ATTDEF
  5
E9
  8
0
 10
370.2421547729492
 20
259.4000244140625
 30
0.0
 40
2.449981689453125
  1
+
 41
0.9
  7
CADDY_VECTORFONT1P
 72
     2
 11
387.7850036621094
 21
259.4000244140625
 31
0.0
  3
Placering (+)
  2
$TAG140050
 70
     1
  0
ENDBLK
  8
0
  0
BLOCK
  8
0
  2
BLK6
 70
     0
 10
0.0
 20
0.0
 30
0.0
  0
INSERT
  5
FD
  8
0
  2
BLK7
 10
0.0
 20
0.0
 30
1.0
  0
LINE
  5
117
  8
0
  6
CADDY_SOLID
 10
100.0
 20
138.0
 30
0.0
 11
95.0
 21
148.0
 31
0.0
  0
LINE
  5
118
  8
0
  6
CADDY_SOLID
 10
95.0
 20
148.0
 30
0.0
 11
140.0
 21
148.0
 31
0.0
  0
LINE
  5
119
  8
0
  6
CADDY_SOLID
 10
145.0
 20
148.0
 30
0.0
 11
140.0
 21
138.0
 31
0.0
  0
LINE
  5
11A
  8
0
  6
CADDY_SOLID
 10
135.0
 20
138.0
 30
0.0
 11
100.0
 21
138.0
 31
0.0
  0
INSERT
  5
11E
  8
0
 66
     1
  2
BLK8
 10
0.0
 20
0.0
 30
1.0
  0
ATTRIB
  5
123
  8
2
 10
88.52761354675293
 20
144.3000030517578
 30
0.0
 40
2.449996948242188
  1
-X17
 41
0.9
  7
CADDY_VECTORFONT1P
 72
     2
 11
95.04999542236328
 21
144.3000030517578
 31
0.0
  2
$TAG160010
 70
     1
  0
ATTRIB
  5
126
  8
2
 10
99.09999084472656
 20
147.1999969482422
 30
0.0
 40
2.449996948242188
  1
34
 50
90.0
 41
0.9
  7
CADDY_VECTORFONT1P
  2
$TAG160400
 70
     1
  0
ATTRIB
  5
128
  8
0
 10
102.5999908447266
 20
147.1999969482422
 30
0.0
 40
2.449996948242188
  1
1911776
 50
90.0
 41
0.9
  7
CADDY_VECTORFONT1P
  2
$TAG160410
 70
     1
  0
ATTRIB
  5
12A
  8
2
 10
95.04999542236328
 20
140.8000030517578
 30
0.0
 40
2.449996948242188
  1

 41
0.9
  7
CADDY_VECTORFONT1P
 72
     2
 11
95.04999542236328
 21
140.8000030517578
 31
0.0
  2
$TAG160030
 70
     1
  0
ATTRIB
  5
12C
  8
2
 10
73.34182035064697
 20
135.8000030517578
 30
0.0
 40
2.449996948242188
  1
AB1RR235U2GR
 41
0.9
  7
CADDY_VECTORFONT1P
 72
     2
 11
95.05001831054688
 21
135.8000030517578
 31
0.0
  2
$TAG160040
 70
     1
  0
ATTRIB
  5
12E
  8
2
 10
93.70274972991943
 20
151.3000030517578
 30
0.0
 40
2.449996948242188
  1
=
 41
0.9
  7
CADDY_VECTORFONT1P
 72
     2
 11
95.05000305175781
 21
151.3000030517578
 31
0.0
  2
$TAG140020
 70
     1
  0
ATTRIB
  5
130
  8
2
 10
93.7027421005249
 20
147.8000030517578
 30
0.0
 40
2.449996948242188
  1
+
 41
0.9
  7
CADDY_VECTORFONT1P
 72
     2
 11
95.04999542236328
 21
147.8000030517578
 31
0.0
  2
$TAG140050
 70
     1
  0
SEQEND
  5
124
  8
0
  0
INSERT
  5
135
  8
0
 66
     1
  2
BLK9
 10
0.0
 20
0.0
 30
1.0
  0
ATTRIB
  5
139
  8
2
 10
98.52761354675293
 20
144.3000030517578
 30
0.0
 40
2.449996948242188
  1
-X17
 41
0.9
  7
CADDY_VECTORFONT1P
 72
     2
 11
105.0499954223633
 21
144.3000030517578
 31
0.0
  2
$TAG160010
 70
     1
  0
ATTRIB
  5
13C
  8
2
 10
109.0999908447266
 20
147.1999969482422
 30
0.0
 40
2.449996948242188
  1
35
 50
90.0
 41
0.9
  7
CADDY_VECTORFONT1P
  2
$TAG160400
 70
     1
  0
ATTRIB
  5
13E
  8
0
 10
112.5999908447266
 20
147.1999969482422
 30
0.0
 40
2.449996948242188
  1
1911777
 50
90.0
 41
0.9
  7
CADDY_VECTORFONT1P
  2
$TAG160410
 70
     1
  0
ATTRIB
  5
140
  8
2
 10
105.0499954223633
 20
140.8000030517578
 30
0.0
 40
2.449996948242188
  1

 41
0.9
  7
CADDY_VECTORFONT1P
 72
     2
 11
105.0499954223633
 21
140.8000030517578
 31
0.0
  2
$TAG160030
 70
     1
  0
ATTRIB
  5
142
  8
2
 10
83.34182035064697
 20
135.8000030517578
 30
0.0
 40
2.449996948242188
  1
AB1RR235U2GR
 41
0.9
  7
CADDY_VECTORFONT1P
 72
     2
 11
105.0500183105469
 21
135.8000030517578
 31
0.0
  2
$TAG160040
 70
     1
  0
ATTRIB
  5
144
  8
2
 10
103.7027497299194
 20
151.3000030517578
 30
0.0
 40
2.449996948242188
  1
=
 41
0.9
  7
CADDY_VECTORFONT1P
 72
     2
 11
105.0500030517578
 21
151.3000030517578
 31
0.0
  2
$TAG140020
 70
     1
  0
ATTRIB
  5
146
  8
2
 10
103.7027421005249
 20
147.8000030517578
 30
0.0
 40
2.449996948242188
  1
+
 41
0.9
  7
CADDY_VECTORFONT1P
 72
     2
 11
105.0499954223633
 21
147.8000030517578
 31
0.0
  2
$TAG140050
 70
     1
  0
SEQEND
  5
13A
  8
0
  0
INSERT
  5
14B
  8
0
 66
     1
  2
BLK10
 10
0.0
 20
0.0
 30
1.0
  0
ATTRIB
  5
14F
  8
2
 10
108.5276135467529
 20
144.3000030517578
 30
0.0
 40
2.449996948242188
  1
-X17
 41
0.9
  7
CADDY_VECTORFONT1P
 72
     2
 11
115.0499954223633
 21
144.3000030517578
 31
0.0
  2
$TAG160010
 70
     1
  0
ATTRIB
  5
152
  8
2
 10
119.0999908447266
 20
147.1999969482422
 30
0.0
 40
2.449996948242188
  1
36
 50
90.0
 41
0.9
  7
CADDY_VECTORFONT1P
  2
$TAG160400
 70
     1
  0
ATTRIB
  5
154
  8
0
 10
122.5999908447266
 20
147.1999969482422
 30
0.0
 40
2.449996948242188
  1
1911778
 50
90.0
 41
0.9
  7
CADDY_VECTORFONT1P
  2
$TAG160410
 70
     1
  0
ATTRIB
  5
156
  8
2
 10
115.0499954223633
 20
140.8000030517578
 30
0.0
 40
2.449996948242188
  1

 41
0.9
  7
CADDY_VECTORFONT1P
 72
     2
 11
115.0499954223633
 21
140.8000030517578
 31
0.0
  2
$TAG160030
 70
     1
  0
ATTRIB
  5
158
  8
2
 10
93.34182035064697
 20
135.8000030517578
 30
0.0
 40
2.449996948242188
  1
AB1RR235U2GR
 41
0.9
  7
CADDY_VECTORFONT1P
 72
     2
 11
115.0500183105469
 21
135.8000030517578
 31
0.0
  2
$TAG160040
 70
     1
  0
ATTRIB
  5
15A
  8
2
 10
113.7027497299194
 20
151.3000030517578
 30
0.0
 40
2.449996948242188
  1
=
 41
0.9
  7
CADDY_VECTORFONT1P
 72
     2
 11
115.0500030517578
 21
151.3000030517578
 31
0.0
  2
$TAG140020
 70
     1
  0
ATTRIB
  5
15C
  8
2
 10
113.7027421005249
 20
147.8000030517578
 30
0.0
 40
2.449996948242188
  1
+
 41
0.9
  7
CADDY_VECTORFONT1P
 72
     2
 11
115.0499954223633
 21
147.8000030517578
 31
0.0
  2
$TAG140050
 70
     1
  0
SEQEND
  5
150
  8
0
  0
INSERT
  5
161
  8
0
 66
     1
  2
BLK11
 10
0.0
 20
0.0
 30
1.0
  0
ATTRIB
  5
165
  8
2
 10
118.5276135467529
 20
144.3000030517578
 30
0.0
 40
2.449996948242188
  1
-X17
 41
0.9
  7
CADDY_VECTORFONT1P
 72
     2
 11
125.0499954223633
 21
144.3000030517578
 31
0.0
  2
$TAG160010
 70
     1
  0
ATTRIB
  5
168
  8
2
 10
129.0999908447266
 20
147.1999969482422
 30
0.0
 40
2.449996948242188
  1
37
 50
90.0
 41
0.9
  7
CADDY_VECTORFONT1P
  2
$TAG160400
 70
     1
  0
ATTRIB
  5
16A
  8
0
 10
132.5999908447266
 20
147.1999969482422
 30
0.0
 40
2.449996948242188
  1
1911779
 50
90.0
 41
0.9
  7
CADDY_VECTORFONT1P
  2
$TAG160410
 70
     1
  0
ATTRIB
  5
16C
  8
2
 10
125.0499954223633
 20
140.8000030517578
 30
0.0
 40
2.449996948242188
  1

 41
0.9
  7
CADDY_VECTORFONT1P
 72
     2
 11
125.0499954223633
 21
140.8000030517578
 31
0.0
  2
$TAG160030
 70
     1
  0
ATTRIB
  5
16E
  8
2
 10
103.341820350647
 20
135.8000030517578
 30
0.0
 40
2.449996948242188
  1
AB1RR235U2GR
 41
0.9
  7
CADDY_VECTORFONT1P
 72
     2
 11
125.0500183105469
 21
135.8000030517578
 31
0.0
  2
$TAG160040
 70
     1
  0
ATTRIB
  5
170
  8
2
 10
123.7027497299194
 20
151.3000030517578
 30
0.0
 40
2.449996948242188
  1
=
 41
0.9
  7
CADDY_VECTORFONT1P
 72
     2
 11
125.0500030517578
 21
151.3000030517578
 31
0.0
  2
$TAG140020
 70
     1
  0
ATTRIB
  5
172
  8
2
 10
123.7027421005249
 20
147.8000030517578
 30
0.0
 40
2.449996948242188
  1
+
 41
0.9
  7
CADDY_VECTORFONT1P
 72
     2
 11
125.0499954223633
 21
147.8000030517578
 31
0.0
  2
$TAG140050
 70
     1
  0
SEQEND
  5
166
  8
0
  0
INSERT
  5
177
  8
0
 66
     1
  2
BLK12
 10
0.0
 20
0.0
 30
1.0
  0
ATTRIB
  5
17B
  8
2
 10
128.5276364349365
 20
144.3000030517578
 30
0.0
 40
2.449996948242188
  1
-X17
 41
0.9
  7
CADDY_VECTORFONT1P
 72
     2
 11
135.0500183105469
 21
144.3000030517578
 31
0.0
  2
$TAG160010
 70
     1
  0
ATTRIB
  5
17E
  8
2
 10
139.0999908447266
 20
147.1999969482422
 30
0.0
 40
2.449996948242188
  1
31
 50
90.0
 41
0.9
  7
CADDY_VECTORFONT1P
  2
$TAG160400
 70
     1
  0
ATTRIB
  5
180
  8
0
 10
142.5999908447266
 20
147.1999969482422
 30
0.0
 40
2.449996948242188
  1
1911773
 50
90.0
 41
0.9
  7
CADDY_VECTORFONT1P
  2
$TAG160410
 70
     1
  0
ATTRIB
  5
182
  8
2
 10
135.0500030517578
 20
140.8000030517578
 30
0.0
 40
2.449996948242188
  1

 41
0.9
  7
CADDY_VECTORFONT1P
 72
     2
 11
135.0500030517578
 21
140.8000030517578
 31
0.0
  2
$TAG160030
 70
     1
  0
ATTRIB
  5
184
  8
2
 10
113.341820350647
 20
135.8000030517578
 30
0.0
 40
2.449996948242188
  1
AB1RR235U2GR
 41
0.9
  7
CADDY_VECTORFONT1P
 72
     2
 11
135.0500183105469
 21
135.8000030517578
 31
0.0
  2
$TAG160040
 70
     1
  0
ATTRIB
  5
186
  8
2
 10
133.7027497299194
 20
151.3000030517578
 30
0.0
 40
2.449996948242188
  1
=
 41
0.9
  7
CADDY_VECTORFONT1P
 72
     2
 11
135.0500030517578
 21
151.3000030517578
 31
0.0
  2
$TAG140020
 70
     1
  0
ATTRIB
  5
188
  8
2
 10
133.7027344711304
 20
147.8000030517578
 30
0.0
 40
2.449996948242188
  1
+
 41
0.9
  7
CADDY_VECTORFONT1P
 72
     2
 11
135.0499877929688
 21
147.8000030517578
 31
0.0
  2
$TAG140050
 70
     1
  0
SEQEND
  5
17C
  8
0
  0
LINE
  5
18A
  8
0
  6
CADDY_SOLID
 10
140.0
 20
148.0
 30
0.0
 11
145.0
 21
148.0
 31
0.0
  0
LINE
  5
18B
  8
0
  6
CADDY_SOLID
 10
135.0
 20
138.0
 30
0.0
 11
140.0
 21
138.0
 31
0.0
  0
INSERT
  5
18F
  8
0
 66
     1
  2
BLK13
 10
0.0
 20
0.0
 30
1.0
  0
ATTRIB
  5
193
  8
2
 10
93.52761354675293
 20
139.3000030517578
 30
0.0
 40
2.449996948242188
  1
-X17
 41
0.9
  7
CADDY_VECTORFONT1P
 72
     2
 11
100.0499954223633
 21
139.3000030517578
 31
0.0
  2
$TAG160010
 70
     1
  0
ATTRIB
  5
196
  8
2
 10
104.0999908447266
 20
142.1999969482422
 30
0.0
 40
2.449996948242188
  1
38
 50
90.0
 41
0.9
  7
CADDY_VECTORFONT1P
  2
$TAG160400
 70
     1
  0
ATTRIB
  5
198
  8
0
 10
107.5999908447266
 20
142.1999969482422
 30
0.0
 40
2.449996948242188
  1
1911780
 50
90.0
 41
0.9
  7
CADDY_VECTORFONT1P
  2
$TAG160410
 70
     1
  0
ATTRIB
  5
19A
  8
2
 10
100.0499954223633
 20
135.8000030517578
 30
0.0
 40
2.449996948242188
  1

 41
0.9
  7
CADDY_VECTORFONT1P
 72
     2
 11
100.0499954223633
 21
135.8000030517578
 31
0.0
  2
$TAG160030
 70
     1
  0
ATTRIB
  5
19C
  8
2
 10
78.34182035064697
 20
130.8000030517578
 30
0.0
 40
2.449996948242188
  1
AB1RR235U2GR
 41
0.9
  7
CADDY_VECTORFONT1P
 72
     2
 11
100.0500183105469
 21
130.8000030517578
 31
0.0
  2
$TAG160040
 70
     1
  0
ATTRIB
  5
19E
  8
2
 10
98.70274972991943
 20
146.3000030517578
 30
0.0
 40
2.449996948242188
  1
=
 41
0.9
  7
CADDY_VECTORFONT1P
 72
     2
 11
100.0500030517578
 21
146.3000030517578
 31
0.0
  2
$TAG140020
 70
     1
  0
ATTRIB
  5
1A0
  8
2
 10
98.7027421005249
 20
142.8000030517578
 30
0.0
 40
2.449996948242188
  1
+
 41
0.9
  7
CADDY_VECTORFONT1P
 72
     2
 11
100.0499954223633
 21
142.8000030517578
 31
0.0
  2
$TAG140050
 70
     1
  0
SEQEND
  5
194
  8
0
  0
INSERT
  5
1A5
  8
0
 66
     1
  2
BLK14
 10
0.0
 20
0.0
 30
1.0
  0
ATTRIB
  5
1A9
  8
2
 10
103.5276135467529
 20
139.3000030517578
 30
0.0
 40
2.449996948242188
  1
-X17
 41
0.9
  7
CADDY_VECTORFONT1P
 72
     2
 11
110.0499954223633
 21
139.3000030517578
 31
0.0
  2
$TAG160010
 70
     1
  0
ATTRIB
  5
1AC
  8
2
 10
114.0999908447266
 20
142.1999969482422
 30
0.0
 40
2.449996948242188
  1
39
 50
90.0
 41
0.9
  7
CADDY_VECTORFONT1P
  2
$TAG160400
 70
     1
  0
ATTRIB
  5
1AE
  8
0
 10
117.5999908447266
 20
142.1999969482422
 30
0.0
 40
2.449996948242188
  1
1911781
 50
90.0
 41
0.9
  7
CADDY_VECTORFONT1P
  2
$TAG160410
 70
     1
  0
ATTRIB
  5
1B0
  8
2
 10
110.0499954223633
 20
135.8000030517578
 30
0.0
 40
2.449996948242188
  1

 41
0.9
  7
CADDY_VECTORFONT1P
 72
     2
 11
110.0499954223633
 21
135.8000030517578
 31
0.0
  2
$TAG160030
 70
     1
  0
ATTRIB
  5
1B2
  8
2
 10
88.34182035064697
 20
130.8000030517578
 30
0.0
 40
2.449996948242188
  1
AB1RR235U2GR
 41
0.9
  7
CADDY_VECTORFONT1P
 72
     2
 11
110.0500183105469
 21
130.8000030517578
 31
0.0
  2
$TAG160040
 70
     1
  0
ATTRIB
  5
1B4
  8
2
 10
108.7027497299194
 20
146.3000030517578
 30
0.0
 40
2.449996948242188
  1
=
 41
0.9
  7
CADDY_VECTORFONT1P
 72
     2
 11
110.0500030517578
 21
146.3000030517578
 31
0.0
  2
$TAG140020
 70
     1
  0
ATTRIB
  5
1B6
  8
2
 10
108.7027421005249
 20
142.8000030517578
 30
0.0
 40
2.449996948242188
  1
+
 41
0.9
  7
CADDY_VECTORFONT1P
 72
     2
 11
110.0499954223633
 21
142.8000030517578
 31
0.0
  2
$TAG140050
 70
     1
  0
SEQEND
  5
1AA
  8
0
  0
INSERT
  5
1BB
  8
0
 66
     1
  2
BLK15
 10
0.0
 20
0.0
 30
1.0
  0
ATTRIB
  5
1BF
  8
2
 10
113.5276135467529
 20
139.3000030517578
 30
0.0
 40
2.449996948242188
  1
-X17
 41
0.9
  7
CADDY_VECTORFONT1P
 72
     2
 11
120.0499954223633
 21
139.3000030517578
 31
0.0
  2
$TAG160010
 70
     1
  0
ATTRIB
  5
1C2
  8
2
 10
124.0999908447266
 20
142.1999969482422
 30
0.0
 40
2.449996948242188
  1
40
 50
90.0
 41
0.9
  7
CADDY_VECTORFONT1P
  2
$TAG160400
 70
     1
  0
ATTRIB
  5
1C4
  8
0
 10
127.5999908447266
 20
142.1999969482422
 30
0.0
 40
2.449996948242188
  1
1911782
 50
90.0
 41
0.9
  7
CADDY_VECTORFONT1P
  2
$TAG160410
 70
     1
  0
ATTRIB
  5
1C6
  8
2
 10
120.0499954223633
 20
135.8000030517578
 30
0.0
 40
2.449996948242188
  1

 41
0.9
  7
CADDY_VECTORFONT1P
 72
     2
 11
120.0499954223633
 21
135.8000030517578
 31
0.0
  2
$TAG160030
 70
     1
  0
ATTRIB
  5
1C8
  8
2
 10
98.34182035064697
 20
130.8000030517578
 30
0.0
 40
2.449996948242188
  1
AB1RR235U2GR
 41
0.9
  7
CADDY_VECTORFONT1P
 72
     2
 11
120.0500183105469
 21
130.8000030517578
 31
0.0
  2
$TAG160040
 70
     1
  0
ATTRIB
  5
1CA
  8
2
 10
118.7027497299194
 20
146.3000030517578
 30
0.0
 40
2.449996948242188
  1
=
 41
0.9
  7
CADDY_VECTORFONT1P
 72
     2
 11
120.0500030517578
 21
146.3000030517578
 31
0.0
  2
$TAG140020
 70
     1
  0
ATTRIB
  5
1CC
  8
2
 10
118.7027421005249
 20
142.8000030517578
 30
0.0
 40
2.449996948242188
  1
+
 41
0.9
  7
CADDY_VECTORFONT1P
 72
     2
 11
120.0499954223633
 21
142.8000030517578
 31
0.0
  2
$TAG140050
 70
     1
  0
SEQEND
  5
1C0
  8
0
  0
INSERT
  5
1D1
  8
0
 66
     1
  2
BLK16
 10
0.0
 20
0.0
 30
1.0
  0
ATTRIB
  5
1D5
  8
2
 10
123.5276211761475
 20
139.3000030517578
 30
0.0
 40
2.449996948242188
  1
-X17
 41
0.9
  7
CADDY_VECTORFONT1P
 72
     2
 11
130.0500030517578
 21
139.3000030517578
 31
0.0
  2
$TAG160010
 70
     1
  0
ATTRIB
  5
1D8
  8
2
 10
134.0999908447266
 20
142.1999969482422
 30
0.0
 40
2.449996948242188
  1
41
 50
90.0
 41
0.9
  7
CADDY_VECTORFONT1P
  2
$TAG160400
 70
     1
  0
ATTRIB
  5
1DA
  8
0
 10
137.5999908447266
 20
142.1999969482422
 30
0.0
 40
2.449996948242188
  1
1911783
 50
90.0
 41
0.9
  7
CADDY_VECTORFONT1P
  2
$TAG160410
 70
     1
  0
ATTRIB
  5
1DC
  8
2
 10
130.0500030517578
 20
135.8000030517578
 30
0.0
 40
2.449996948242188
  1

 41
0.9
  7
CADDY_VECTORFONT1P
 72
     2
 11
130.0500030517578
 21
135.8000030517578
 31
0.0
  2
$TAG160030
 70
     1
  0
ATTRIB
  5
1DE
  8
2
 10
108.341820350647
 20
130.8000030517578
 30
0.0
 40
2.449996948242188
  1
AB1RR235U2GR
 41
0.9
  7
CADDY_VECTORFONT1P
 72
     2
 11
130.0500183105469
 21
130.8000030517578
 31
0.0
  2
$TAG160040
 70
     1
  0
ATTRIB
  5
1E0
  8
2
 10
128.7027497299194
 20
146.3000030517578
 30
0.0
 40
2.449996948242188
  1
=
 41
0.9
  7
CADDY_VECTORFONT1P
 72
     2
 11
130.0500030517578
 21
146.3000030517578
 31
0.0
  2
$TAG140020
 70
     1
  0
ATTRIB
  5
1E2
  8
2
 10
128.7027344711304
 20
142.8000030517578
 30
0.0
 40
2.449996948242188
  1
+
 41
0.9
  7
CADDY_VECTORFONT1P
 72
     2
 11
130.0499877929688
 21
142.8000030517578
 31
0.0
  2
$TAG140050
 70
     1
  0
SEQEND
  5
1D6
  8
0
  0
TEXT
  5
1E4
  8
0
 10
98.01000213623047
 20
143.6000061035156
 30
0.0
 40
2.099990844726562
  1
1
 41
0.9
  7
CADDY_VECTORFONT1P
  0
TEXT
  5
1E5
  8
0
 10
108.0100021362305
 20
143.6000061035156
 30
0.0
 40
2.099990844726562
  1
2
 41
0.9
  7
CADDY_VECTORFONT1P
  0
TEXT
  5
1E6
  8
0
 10
118.0100021362305
 20
143.6000061035156
 30
0.0
 40
2.099990844726562
  1
3
 41
0.9
  7
CADDY_VECTORFONT1P
  0
TEXT
  5
1E7
  8
0
 10
128.0099945068359
 20
143.6000061035156
 30
0.0
 40
2.099990844726562
  1
4
 41
0.9
  7
CADDY_VECTORFONT1P
  0
TEXT
  5
1E8
  8
0
 10
138.0099945068359
 20
143.6000061035156
 30
0.0
 40
2.099990844726562
  1
5
 41
0.9
  7
CADDY_VECTORFONT1P
  0
TEXT
  5
1E9
  8
0
 10
103.0100021362305
 20
138.6000061035156
 30
0.0
 40
2.099990844726562
  1
6
 41
0.9
  7
CADDY_VECTORFONT1P
  0
TEXT
  5
1EA
  8
0
 10
113.0100021362305
 20
138.6000061035156
 30
0.0
 40
2.099990844726562
  1
7
 41
0.9
  7
CADDY_VECTORFONT1P
  0
TEXT
  5
1EB
  8
0
 10
123.0100021362305
 20
138.6000061035156
 30
0.0
 40
2.099990844726562
  1
8
 41
0.9
  7
CADDY_VECTORFONT1P
  0
TEXT
  5
1EC
  8
0
 10
133.0099945068359
 20
138.6000061035156
 30
0.0
 40
2.099990844726562
  1
9
 41
0.9
  7
CADDY_VECTORFONT1P
  0
LINE
  5
1ED
  8
0
  6
CADDY_SOLID
 10
100.0
 20
115.0
 30
0.0
 11
100.0
 21
145.0
 31
0.0
  0
LINE
  5
1EE
  8
0
  6
CADDY_SOLID
 10
110.0
 20
120.0
 30
0.0
 11
110.0
 21
145.0
 31
0.0
  0
LINE
  5
1EF
  8
0
  6
CADDY_SOLID
 10
110.0
 20
120.0
 30
0.0
 11
180.0
 21
120.0
 31
0.0
  0
LINE
  5
1F0
  8
0
  6
CADDY_SOLID
 10
120.0
 20
143.0
 30
0.0
 11
120.0
 21
145.0
 31
0.0
  0
LINE
  5
1F1
  8
0
  6
CADDY_SOLID
 10
100.0
 20
115.0
 30
0.0
 11
180.0
 21
115.0
 31
0.0
  0
LINE
  5
1F2
  8
0
  6
CADDY_SOLID
 10
180.0
 20
90.0
 30
0.0
 11
140.0
 21
90.0
 31
0.0
  0
LINE
  5
1F3
  8
0
  6
CADDY_SOLID
 10
76.0
 20
155.0
 30
0.0
 11
85.0
 21
155.0
 31
0.0
  0
INSERT
  5
1F7
  8
0
 66
     1
  2
BLK17
 10
0.0
 20
0.0
 30
1.0
  0
ATTRIB
  5
1FB
  8
2
 10
68.52761354675293
 20
191.3000030517578
 30
0.0
 40
2.449996948242188
  1
-X17
 41
0.9
  7
CADDY_VECTORFONT1P
 72
     2
 11
75.04999542236328
 21
191.3000030517578
 31
0.0
  2
$TAG160010
 70
     1
  0
ATTRIB
  5
1FE
  8
2
 10
79.09999084472656
 20
194.1999969482422
 30
0.0
 40
2.449996948242188
  1
32
 50
90.0
 41
0.9
  7
CADDY_VECTORFONT1P
  2
$TAG160400
 70
     1
  0
ATTRIB
  5
200
  8
0
 10
82.59999084472656
 20
194.1999969482422
 30
0.0
 40
2.449996948242188
  1
1911774
 50
90.0
 41
0.9
  7
CADDY_VECTORFONT1P
  2
$TAG160410
 70
     1
  0
ATTRIB
  5
202
  8
2
 10
75.04999542236328
 20
187.8000030517578
 30
0.0
 40
2.449996948242188
  1

 41
0.9
  7
CADDY_VECTORFONT1P
 72
     2
 11
75.04999542236328
 21
187.8000030517578
 31
0.0
  2
$TAG160030
 70
     1
  0
ATTRIB
  5
204
  8
2
 10
53.34181272125245
 20
182.8000030517578
 30
0.0
 40
2.449996948242188
  1
AB1RR235U2GR
 41
0.9
  7
CADDY_VECTORFONT1P
 72
     2
 11
75.05001068115234
 21
182.8000030517578
 31
0.0
  2
$TAG160040
 70
     1
  0
ATTRIB
  5
206
  8
2
 10
73.70274972991943
 20
198.3000030517578
 30
0.0
 40
2.449996948242188
  1
=
 41
0.9
  7
CADDY_VECTORFONT1P
 72
     2
 11
75.05000305175781
 21
198.3000030517578
 31
0.0
  2
$TAG140020
 70
     1
  0
ATTRIB
  5
208
  8
2
 10
73.7027421005249
 20
194.8000030517578
 30
0.0
 40
2.449996948242188
  1
+
 41
0.9
  7
CADDY_VECTORFONT1P
 72
     2
 11
75.04999542236328
 21
194.8000030517578
 31
0.0
  2
$TAG140050
 70
     1
  0
SEQEND
  5
1FC
  8
0
  0
INSERT
  5
20D
  8
0
 66
     1
  2
BLK18
 10
0.0
 20
0.0
 30
1.0
  0
ATTRIB
  5
211
  8
2
 10
73.52761354675293
 20
191.3000030517578
 30
0.0
 40
2.449996948242188
  1
-X17
 41
0.9
  7
CADDY_VECTORFONT1P
 72
     2
 11
80.04999542236328
 21
191.3000030517578
 31
0.0
  2
$TAG160010
 70
     1
  0
ATTRIB
  5
214
  8
2
 10
84.09999084472656
 20
194.1999969482422
 30
0.0
 40
2.449996948242188
  1
33
 50
90.0
 41
0.9
  7
CADDY_VECTORFONT1P
  2
$TAG160400
 70
     1
  0
ATTRIB
  5
216
  8
0
 10
87.59999084472656
 20
194.1999969482422
 30
0.0
 40
2.449996948242188
  1
1911775
 50
90.0
 41
0.9
  7
CADDY_VECTORFONT1P
  2
$TAG160410
 70
     1
  0
ATTRIB
  5
218
  8
2
 10
80.04999542236328
 20
187.8000030517578
 30
0.0
 40
2.449996948242188
  1

 41
0.9
  7
CADDY_VECTORFONT1P
 72
     2
 11
80.04999542236328
 21
187.8000030517578
 31
0.0
  2
$TAG160030
 70
     1
  0
ATTRIB
  5
21A
  8
2
 10
58.34182035064698
 20
182.8000030517578
 30
0.0
 40
2.449996948242188
  1
AB1RR235U2GR
 41
0.9
  7
CADDY_VECTORFONT1P
 72
     2
 11
80.05001831054688
 21
182.8000030517578
 31
0.0
  2
$TAG160040
 70
     1
  0
ATTRIB
  5
21C
  8
2
 10
78.70274972991943
 20
198.3000030517578
 30
0.0
 40
2.449996948242188
  1
=
 41
0.9
  7
CADDY_VECTORFONT1P
 72
     2
 11
80.05000305175781
 21
198.3000030517578
 31
0.0
  2
$TAG140020
 70
     1
  0
ATTRIB
  5
21E
  8
2
 10
78.7027421005249
 20
194.8000030517578
 30
0.0
 40
2.449996948242188
  1
+
 41
0.9
  7
CADDY_VECTORFONT1P
 72
     2
 11
80.04999542236328
 21
194.8000030517578
 31
0.0
  2
$TAG140050
 70
     1
  0
SEQEND
  5
212
  8
0
  0
TEXT
  5
220
  8
0
 10
79.01000213623047
 20
185.6000061035156
 30
0.0
 40
2.099990844726562
  1
+
 41
0.9
  7
CADDY_VECTORFONT1P
  0
TEXT
  5
221
  8
0
 10
77.5999984741211
 20
171.6000061035156
 30
0.0
 40
2.099990844726562
  1
24Vdc
 41
0.9
  7
CADDY_VECTORFONT1P
  0
LINE
  5
222
  8
0
  6
CADDY_SOLID
 10
85.0
 20
155.0
 30
0.0
 11
91.0
 21
155.0
 31
0.0
  0
TEXT
  5
223
  8
0
 10
97.5999984741211
 20
171.6000061035156
 30
0.0
 40
2.099990844726562
  1
MOXA
 41
0.9
  7
CADDY_VECTORFONT1P
  0
TEXT
  5
224
  8
0
 10
125.5999984741211
 20
171.6000061035156
 30
0.0
 40
2.099990844726562
  1
Nport 6110
 41
0.9
  7
CADDY_VECTORFONT1P
  0
LINE
  5
225
  8
0
  6
CADDY_SOLID
 10
100.0
 20
155.0
 30
0.0
 11
95.0
 21
165.0
 31
0.0
  0
LINE
  5
226
  8
0
  6
CADDY_SOLID
 10
95.0
 20
165.0
 30
0.0
 11
140.0
 21
165.0
 31
0.0
  0
LINE
  5
227
  8
0
  6
CADDY_SOLID
 10
145.0
 20
165.0
 30
0.0
 11
140.0
 21
155.0
 31
0.0
  0
LINE
  5
228
  8
0
  6
CADDY_SOLID
 10
135.0
 20
155.0
 30
0.0
 11
100.0
 21
155.0
 31
0.0
  0
INSERT
  5
22C
  8
0
 66
     1
  2
BLK19
 10
0.0
 20
0.0
 30
1.0
  0
ATTRIB
  5
230
  8
2
 10
88.52761354675293
 20
161.3000030517578
 30
0.0
 40
2.449996948242188
  1
-X17
 41
0.9
  7
CADDY_VECTORFONT1P
 72
     2
 11
95.04999542236328
 21
161.3000030517578
 31
0.0
  2
$TAG160010
 70
     1
  0
ATTRIB
  5
233
  8
2
 10
99.09999084472656
 20
164.1999969482422
 30
0.0
 40
2.449996948242188
  1
45
 50
90.0
 41
0.9
  7
CADDY_VECTORFONT1P
  2
$TAG160400
 70
     1
  0
ATTRIB
  5
235
  8
0
 10
102.5999908447266
 20
164.1999969482422
 30
0.0
 40
2.449996948242188
  1
1911787
 50
90.0
 41
0.9
  7
CADDY_VECTORFONT1P
  2
$TAG160410
 70
     1
  0
ATTRIB
  5
237
  8
2
 10
95.04999542236328
 20
157.8000030517578
 30
0.0
 40
2.449996948242188
  1

 41
0.9
  7
CADDY_VECTORFONT1P
 72
     2
 11
95.04999542236328
 21
157.8000030517578
 31
0.0
  2
$TAG160030
 70
     1
  0
ATTRIB
  5
239
  8
2
 10
73.34182035064697
 20
152.8000030517578
 30
0.0
 40
2.449996948242188
  1
AB1RR235U2GR
 41
0.9
  7
CADDY_VECTORFONT1P
 72
     2
 11
95.05001831054688
 21
152.8000030517578
 31
0.0
  2
$TAG160040
 70
     1
  0
ATTRIB
  5
23B
  8
2
 10
93.70274972991943
 20
168.3000030517578
 30
0.0
 40
2.449996948242188
  1
=
 41
0.9
  7
CADDY_VECTORFONT1P
 72
     2
 11
95.05000305175781
 21
168.3000030517578
 31
0.0
  2
$TAG140020
 70
     1
  0
ATTRIB
  5
23D
  8
2
 10
93.7027421005249
 20
164.8000030517578
 30
0.0
 40
2.449996948242188
  1
+
 41
0.9
  7
CADDY_VECTORFONT1P
 72
     2
 11
95.04999542236328
 21
164.8000030517578
 31
0.0
  2
$TAG140050
 70
     1
  0
SEQEND
  5
231
  8
0
  0
INSERT
  5
242
  8
0
 66
     1
  2
BLK20
 10
0.0
 20
0.0
 30
1.0
  0
ATTRIB
  5
246
  8
2
 10
98.52761354675293
 20
161.3000030517578
 30
0.0
 40
2.449996948242188
  1
-X17
 41
0.9
  7
CADDY_VECTORFONT1P
 72
     2
 11
105.0499954223633
 21
161.3000030517578
 31
0.0
  2
$TAG160010
 70
     1
  0
ATTRIB
  5
249
  8
2
 10
109.0999908447266
 20
164.1999969482422
 30
0.0
 40
2.449996948242188
  1
46
 50
90.0
 41
0.9
  7
CADDY_VECTORFONT1P
  2
$TAG160400
 70
     1
  0
ATTRIB
  5
24B
  8
0
 10
112.5999908447266
 20
164.1999969482422
 30
0.0
 40
2.449996948242188
  1
1911788
 50
90.0
 41
0.9
  7
CADDY_VECTORFONT1P
  2
$TAG160410
 70
     1
  0
ATTRIB
  5
24D
  8
2
 10
105.0499954223633
 20
157.8000030517578
 30
0.0
 40
2.449996948242188
  1

 41
0.9
  7
CADDY_VECTORFONT1P
 72
     2
 11
105.0499954223633
 21
157.8000030517578
 31
0.0
  2
$TAG160030
 70
     1
  0
ATTRIB
  5
24F
  8
2
 10
83.34182035064697
 20
152.8000030517578
 30
0.0
 40
2.449996948242188
  1
AB1RR235U2GR
 41
0.9
  7
CADDY_VECTORFONT1P
 72
     2
 11
105.0500183105469
 21
152.8000030517578
 31
0.0
  2
$TAG160040
 70
     1
  0
ATTRIB
  5
251
  8
2
 10
103.7027497299194
 20
168.3000030517578
 30
0.0
 40
2.449996948242188
  1
=
 41
0.9
  7
CADDY_VECTORFONT1P
 72
     2
 11
105.0500030517578
 21
168.3000030517578
 31
0.0
  2
$TAG140020
 70
     1
  0
ATTRIB
  5
253
  8
2
 10
103.7027421005249
 20
164.8000030517578
 30
0.0
 40
2.449996948242188
  1
+
 41
0.9
  7
CADDY_VECTORFONT1P
 72
     2
 11
105.0499954223633
 21
164.8000030517578
 31
0.0
  2
$TAG140050
 70
     1
  0
SEQEND
  5
247
  8
0
  0
INSERT
  5
258
  8
0
 66
     1
  2
BLK21
 10
0.0
 20
0.0
 30
1.0
  0
ATTRIB
  5
25C
  8
2
 10
108.5276135467529
 20
161.3000030517578
 30
0.0
 40
2.449996948242188
  1
-X17
 41
0.9
  7
CADDY_VECTORFONT1P
 72
     2
 11
115.0499954223633
 21
161.3000030517578
 31
0.0
  2
$TAG160010
 70
     1
  0
ATTRIB
  5
25F
  8
2
 10
119.0999908447266
 20
164.1999969482422
 30
0.0
 40
2.449996948242188
  1
47
 50
90.0
 41
0.9
  7
CADDY_VECTORFONT1P
  2
$TAG160400
 70
     1
  0
ATTRIB
  5
261
  8
0
 10
122.5999908447266
 20
164.1999969482422
 30
0.0
 40
2.449996948242188
  1
1911789
 50
90.0
 41
0.9
  7
CADDY_VECTORFONT1P
  2
$TAG160410
 70
     1
  0
ATTRIB
  5
263
  8
2
 10
115.0499954223633
 20
157.8000030517578
 30
0.0
 40
2.449996948242188
  1

 41
0.9
  7
CADDY_VECTORFONT1P
 72
     2
 11
115.0499954223633
 21
157.8000030517578
 31
0.0
  2
$TAG160030
 70
     1
  0
ATTRIB
  5
265
  8
2
 10
93.34182035064697
 20
152.8000030517578
 30
0.0
 40
2.449996948242188
  1
AB1RR235U2GR
 41
0.9
  7
CADDY_VECTORFONT1P
 72
     2
 11
115.0500183105469
 21
152.8000030517578
 31
0.0
  2
$TAG160040
 70
     1
  0
ATTRIB
  5
267
  8
2
 10
113.7027497299194
 20
168.3000030517578
 30
0.0
 40
2.449996948242188
  1
=
 41
0.9
  7
CADDY_VECTORFONT1P
 72
     2
 11
115.0500030517578
 21
168.3000030517578
 31
0.0
  2
$TAG140020
 70
     1
  0
ATTRIB
  5
269
  8
2
 10
113.7027421005249
 20
164.8000030517578
 30
0.0
 40
2.449996948242188
  1
+
 41
0.9
  7
CADDY_VECTORFONT1P
 72
     2
 11
115.0499954223633
 21
164.8000030517578
 31
0.0
  2
$TAG140050
 70
     1
  0
SEQEND
  5
25D
  8
0
  0
INSERT
  5
26E
  8
0
 66
     1
  2
BLK22
 10
0.0
 20
0.0
 30
1.0
  0
ATTRIB
  5
272
  8
2
 10
118.5276135467529
 20
161.3000030517578
 30
0.0
 40
2.449996948242188
  1
-X17
 41
0.9
  7
CADDY_VECTORFONT1P
 72
     2
 11
125.0499954223633
 21
161.3000030517578
 31
0.0
  2
$TAG160010
 70
     1
  0
ATTRIB
  5
275
  8
2
 10
129.0999908447266
 20
164.1999969482422
 30
0.0
 40
2.449996948242188
  1
48
 50
90.0
 41
0.9
  7
CADDY_VECTORFONT1P
  2
$TAG160400
 70
     1
  0
ATTRIB
  5
277
  8
0
 10
132.5999908447266
 20
164.1999969482422
 30
0.0
 40
2.449996948242188
  1
1911790
 50
90.0
 41
0.9
  7
CADDY_VECTORFONT1P
  2
$TAG160410
 70
     1
  0
ATTRIB
  5
279
  8
2
 10
125.0499954223633
 20
157.8000030517578
 30
0.0
 40
2.449996948242188
  1

 41
0.9
  7
CADDY_VECTORFONT1P
 72
     2
 11
125.0499954223633
 21
157.8000030517578
 31
0.0
  2
$TAG160030
 70
     1
  0
ATTRIB
  5
27B
  8
2
 10
103.341820350647
 20
152.8000030517578
 30
0.0
 40
2.449996948242188
  1
AB1RR235U2GR
 41
0.9
  7
CADDY_VECTORFONT1P
 72
     2
 11
125.0500183105469
 21
152.8000030517578
 31
0.0
  2
$TAG160040
 70
     1
  0
ATTRIB
  5
27D
  8
2
 10
123.7027497299194
 20
168.3000030517578
 30
0.0
 40
2.449996948242188
  1
=
 41
0.9
  7
CADDY_VECTORFONT1P
 72
     2
 11
125.0500030517578
 21
168.3000030517578
 31
0.0
  2
$TAG140020
 70
     1
  0
ATTRIB
  5
27F
  8
2
 10
123.7027421005249
 20
164.8000030517578
 30
0.0
 40
2.449996948242188
  1
+
 41
0.9
  7
CADDY_VECTORFONT1P
 72
     2
 11
125.0499954223633
 21
164.8000030517578
 31
0.0
  2
$TAG140050
 70
     1
  0
SEQEND
  5
273
  8
0
  0
INSERT
  5
284
  8
0
 66
     1
  2
BLK23
 10
0.0
 20
0.0
 30
1.0
  0
ATTRIB
  5
288
  8
2
 10
128.5276364349365
 20
161.3000030517578
 30
0.0
 40
2.449996948242188
  1
-X17
 41
0.9
  7
CADDY_VECTORFONT1P
 72
     2
 11
135.0500183105469
 21
161.3000030517578
 31
0.0
  2
$TAG160010
 70
     1
  0
ATTRIB
  5
28B
  8
2
 10
139.0999908447266
 20
164.1999969482422
 30
0.0
 40
2.449996948242188
  1
42
 50
90.0
 41
0.9
  7
CADDY_VECTORFONT1P
  2
$TAG160400
 70
     1
  0
ATTRIB
  5
28D
  8
0
 10
142.5999908447266
 20
164.1999969482422
 30
0.0
 40
2.449996948242188
  1
1911784
 50
90.0
 41
0.9
  7
CADDY_VECTORFONT1P
  2
$TAG160410
 70
     1
  0
ATTRIB
  5
28F
  8
2
 10
135.0500030517578
 20
157.8000030517578
 30
0.0
 40
2.449996948242188
  1

 41
0.9
  7
CADDY_VECTORFONT1P
 72
     2
 11
135.0500030517578
 21
157.8000030517578
 31
0.0
  2
$TAG160030
 70
     1
  0
ATTRIB
  5
291
  8
2
 10
113.341820350647
 20
152.8000030517578
 30
0.0
 40
2.449996948242188
  1
AB1RR235U2GR
 41
0.9
  7
CADDY_VECTORFONT1P
 72
     2
 11
135.0500183105469
 21
152.8000030517578
 31
0.0
  2
$TAG160040
 70
     1
  0
ATTRIB
  5
293
  8
2
 10
133.7027497299194
 20
168.3000030517578
 30
0.0
 40
2.449996948242188
  1
=
 41
0.9
  7
CADDY_VECTORFONT1P
 72
     2
 11
135.0500030517578
 21
168.3000030517578
 31
0.0
  2
$TAG140020
 70
     1
  0
ATTRIB
  5
295
  8
2
 10
133.7027344711304
 20
164.8000030517578
 30
0.0
 40
2.449996948242188
  1
+
 41
0.9
  7
CADDY_VECTORFONT1P
 72
     2
 11
135.0499877929688
 21
164.8000030517578
 31
0.0
  2
$TAG140050
 70
     1
  0
SEQEND
  5
289
  8
0
  0
LINE
  5
297
  8
0
  6
CADDY_SOLID
 10
140.0
 20
165.0
 30
0.0
 11
145.0
 21
165.0
 31
0.0
  0
LINE
  5
298
  8
0
  6
CADDY_SOLID
 10
135.0
 20
155.0
 30
0.0
 11
140.0
 21
155.0
 31
0.0
  0
INSERT
  5
29C
  8
0
 66
     1
  2
BLK24
 10
0.0
 20
0.0
 30
1.0
  0
ATTRIB
  5
2A0
  8
2
 10
93.52761354675293
 20
156.3000030517578
 30
0.0
 40
2.449996948242188
  1
-X17
 41
0.9
  7
CADDY_VECTORFONT1P
 72
     2
 11
100.0499954223633
 21
156.3000030517578
 31
0.0
  2
$TAG160010
 70
     1
  0
ATTRIB
  5
2A3
  8
2
 10
104.0999908447266
 20
159.1999969482422
 30
0.0
 40
2.449996948242188
  1
49
 50
90.0
 41
0.9
  7
CADDY_VECTORFONT1P
  2
$TAG160400
 70
     1
  0
ATTRIB
  5
2A5
  8
0
 10
107.5999908447266
 20
159.1999969482422
 30
0.0
 40
2.449996948242188
  1
1911791
 50
90.0
 41
0.9
  7
CADDY_VECTORFONT1P
  2
$TAG160410
 70
     1
  0
ATTRIB
  5
2A7
  8
2
 10
100.0499954223633
 20
152.8000030517578
 30
0.0
 40
2.449996948242188
  1

 41
0.9
  7
CADDY_VECTORFONT1P
 72
     2
 11
100.0499954223633
 21
152.8000030517578
 31
0.0
  2
$TAG160030
 70
     1
  0
ATTRIB
  5
2A9
  8
2
 10
78.34182035064697
 20
147.8000030517578
 30
0.0
 40
2.449996948242188
  1
AB1RR235U2GR
 41
0.9
  7
CADDY_VECTORFONT1P
 72
     2
 11
100.0500183105469
 21
147.8000030517578
 31
0.0
  2
$TAG160040
 70
     1
  0
ATTRIB
  5
2AB
  8
2
 10
98.70274972991943
 20
163.3000030517578
 30
0.0
 40
2.449996948242188
  1
=
 41
0.9
  7
CADDY_VECTORFONT1P
 72
     2
 11
100.0500030517578
 21
163.3000030517578
 31
0.0
  2
$TAG140020
 70
     1
  0
ATTRIB
  5
2AD
  8
2
 10
98.7027421005249
 20
159.8000030517578
 30
0.0
 40
2.449996948242188
  1
+
 41
0.9
  7
CADDY_VECTORFONT1P
 72
     2
 11
100.0499954223633
 21
159.8000030517578
 31
0.0
  2
$TAG140050
 70
     1
  0
SEQEND
  5
2A1
  8
0
  0
INSERT
  5
2B2
  8
0
 66
     1
  2
BLK25
 10
0.0
 20
0.0
 30
1.0
  0
ATTRIB
  5
2B6
  8
2
 10
103.5276135467529
 20
156.3000030517578
 30
0.0
 40
2.449996948242188
  1
-X17
 41
0.9
  7
CADDY_VECTORFONT1P
 72
     2
 11
110.0499954223633
 21
156.3000030517578
 31
0.0
  2
$TAG160010
 70
     1
  0
ATTRIB
  5
2B9
  8
2
 10
114.0999908447266
 20
159.1999969482422
 30
0.0
 40
2.449996948242188
  1
50
 50
90.0
 41
0.9
  7
CADDY_VECTORFONT1P
  2
$TAG160400
 70
     1
  0
ATTRIB
  5
2BB
  8
0
 10
117.5999908447266
 20
159.1999969482422
 30
0.0
 40
2.449996948242188
  1
1911792
 50
90.0
 41
0.9
  7
CADDY_VECTORFONT1P
  2
$TAG160410
 70
     1
  0
ATTRIB
  5
2BD
  8
2
 10
110.0499954223633
 20
152.8000030517578
 30
0.0
 40
2.449996948242188
  1

 41
0.9
  7
CADDY_VECTORFONT1P
 72
     2
 11
110.0499954223633
 21
152.8000030517578
 31
0.0
  2
$TAG160030
 70
     1
  0
ATTRIB
  5
2BF
  8
2
 10
88.34182035064697
 20
147.8000030517578
 30
0.0
 40
2.449996948242188
  1
AB1RR235U2GR
 41
0.9
  7
CADDY_VECTORFONT1P
 72
     2
 11
110.0500183105469
 21
147.8000030517578
 31
0.0
  2
$TAG160040
 70
     1
  0
ATTRIB
  5
2C1
  8
2
 10
108.7027497299194
 20
163.3000030517578
 30
0.0
 40
2.449996948242188
  1
=
 41
0.9
  7
CADDY_VECTORFONT1P
 72
     2
 11
110.0500030517578
 21
163.3000030517578
 31
0.0
  2
$TAG140020
 70
     1
  0
ATTRIB
  5
2C3
  8
2
 10
108.7027421005249
 20
159.8000030517578
 30
0.0
 40
2.449996948242188
  1
+
 41
0.9
  7
CADDY_VECTORFONT1P
 72
     2
 11
110.0499954223633
 21
159.8000030517578
 31
0.0
  2
$TAG140050
 70
     1
  0
SEQEND
  5
2B7
  8
0
  0
INSERT
  5
2C8
  8
0
 66
     1
  2
BLK26
 10
0.0
 20
0.0
 30
1.0
  0
ATTRIB
  5
2CC
  8
2
 10
113.5276135467529
 20
156.3000030517578
 30
0.0
 40
2.449996948242188
  1
-X17
 41
0.9
  7
CADDY_VECTORFONT1P
 72
     2
 11
120.0499954223633
 21
156.3000030517578
 31
0.0
  2
$TAG160010
 70
     1
  0
ATTRIB
  5
2CF
  8
2
 10
124.0999908447266
 20
159.1999969482422
 30
0.0
 40
2.449996948242188
  1
51
 50
90.0
 41
0.9
  7
CADDY_VECTORFONT1P
  2
$TAG160400
 70
     1
  0
ATTRIB
  5
2D1
  8
0
 10
127.5999908447266
 20
159.1999969482422
 30
0.0
 40
2.449996948242188
  1
1911793
 50
90.0
 41
0.9
  7
CADDY_VECTORFONT1P
  2
$TAG160410
 70
     1
  0
ATTRIB
  5
2D3
  8
2
 10
120.0499954223633
 20
152.8000030517578
 30
0.0
 40
2.449996948242188
  1

 41
0.9
  7
CADDY_VECTORFONT1P
 72
     2
 11
120.0499954223633
 21
152.8000030517578
 31
0.0
  2
$TAG160030
 70
     1
  0
ATTRIB
  5
2D5
  8
2
 10
98.34182035064697
 20
147.8000030517578
 30
0.0
 40
2.449996948242188
  1
AB1RR235U2GR
 41
0.9
  7
CADDY_VECTORFONT1P
 72
     2
 11
120.0500183105469
 21
147.8000030517578
 31
0.0
  2
$TAG160040
 70
     1
  0
ATTRIB
  5
2D7
  8
2
 10
118.7027497299194
 20
163.3000030517578
 30
0.0
 40
2.449996948242188
  1
=
 41
0.9
  7
CADDY_VECTORFONT1P
 72
     2
 11
120.0500030517578
 21
163.3000030517578
 31
0.0
  2
$TAG140020
 70
     1
  0
ATTRIB
  5
2D9
  8
2
 10
118.7027421005249
 20
159.8000030517578
 30
0.0
 40
2.449996948242188
  1
+
 41
0.9
  7
CADDY_VECTORFONT1P
 72
     2
 11
120.0499954223633
 21
159.8000030517578
 31
0.0
  2
$TAG140050
 70
     1
  0
SEQEND
  5
2CD
  8
0
  0
INSERT
  5
2DE
  8
0
 66
     1
  2
BLK27
 10
0.0
 20
0.0
 30
1.0
  0
ATTRIB
  5
2E2
  8
2
 10
123.5276211761475
 20
156.3000030517578
 30
0.0
 40
2.449996948242188
  1
-X17
 41
0.9
  7
CADDY_VECTORFONT1P
 72
     2
 11
130.0500030517578
 21
156.3000030517578
 31
0.0
  2
$TAG160010
 70
     1
  0
ATTRIB
  5
2E5
  8
2
 10
134.0999908447266
 20
159.1999969482422
 30
0.0
 40
2.449996948242188
  1
52
 50
90.0
 41
0.9
  7
CADDY_VECTORFONT1P
  2
$TAG160400
 70
     1
  0
ATTRIB
  5
2E7
  8
0
 10
137.5999908447266
 20
159.1999969482422
 30
0.0
 40
2.449996948242188
  1
1911794
 50
90.0
 41
0.9
  7
CADDY_VECTORFONT1P
  2
$TAG160410
 70
     1
  0
ATTRIB
  5
2E9
  8
2
 10
130.0500030517578
 20
152.8000030517578
 30
0.0
 40
2.449996948242188
  1

 41
0.9
  7
CADDY_VECTORFONT1P
 72
     2
 11
130.0500030517578
 21
152.8000030517578
 31
0.0
  2
$TAG160030
 70
     1
  0
ATTRIB
  5
2EB
  8
2
 10
108.341820350647
 20
147.8000030517578
 30
0.0
 40
2.449996948242188
  1
AB1RR235U2GR
 41
0.9
  7
CADDY_VECTORFONT1P
 72
     2
 11
130.0500183105469
 21
147.8000030517578
 31
0.0
  2
$TAG160040
 70
     1
  0
ATTRIB
  5
2ED
  8
2
 10
128.7027497299194
 20
163.3000030517578
 30
0.0
 40
2.449996948242188
  1
=
 41
0.9
  7
CADDY_VECTORFONT1P
 72
     2
 11
130.0500030517578
 21
163.3000030517578
 31
0.0
  2
$TAG140020
 70
     1
  0
ATTRIB
  5
2EF
  8
2
 10
128.7027344711304
 20
159.8000030517578
 30
0.0
 40
2.449996948242188
  1
+
 41
0.9
  7
CADDY_VECTORFONT1P
 72
     2
 11
130.0499877929688
 21
159.8000030517578
 31
0.0
  2
$TAG140050
 70
     1
  0
SEQEND
  5
2E3
  8
0
  0
TEXT
  5
2F1
  8
0
 10
98.01000213623047
 20
160.6000061035156
 30
0.0
 40
2.099990844726562
  1
1
 41
0.9
  7
CADDY_VECTORFONT1P
  0
TEXT
  5
2F2
  8
0
 10
108.0100021362305
 20
160.6000061035156
 30
0.0
 40
2.099990844726562
  1
2
 41
0.9
  7
CADDY_VECTORFONT1P
  0
TEXT
  5
2F3
  8
0
 10
118.0100021362305
 20
160.6000061035156
 30
0.0
 40
2.099990844726562
  1
3
 41
0.9
  7
CADDY_VECTORFONT1P
  0
TEXT
  5
2F4
  8
0
 10
128.0099945068359
 20
160.6000061035156
 30
0.0
 40
2.099990844726562
  1
4
 41
0.9
  7
CADDY_VECTORFONT1P
  0
TEXT
  5
2F5
  8
0
 10
138.0099945068359
 20
160.6000061035156
 30
0.0
 40
2.099990844726562
  1
5
 41
0.9
  7
CADDY_VECTORFONT1P
  0
TEXT
  5
2F6
  8
0
 10
103.0100021362305
 20
155.6000061035156
 30
0.0
 40
2.099990844726562
  1
6
 41
0.9
  7
CADDY_VECTORFONT1P
  0
TEXT
  5
2F7
  8
0
 10
113.0100021362305
 20
155.6000061035156
 30
0.0
 40
2.099990844726562
  1
7
 41
0.9
  7
CADDY_VECTORFONT1P
  0
TEXT
  5
2F8
  8
0
 10
123.0100021362305
 20
155.6000061035156
 30
0.0
 40
2.099990844726562
  1
8
 41
0.9
  7
CADDY_VECTORFONT1P
  0
TEXT
  5
2F9
  8
0
 10
133.0099945068359
 20
155.6000061035156
 30
0.0
 40
2.099990844726562
  1
9
 41
0.9
  7
CADDY_VECTORFONT1P
  0
LINE
  5
2FA
  8
0
  6
CADDY_SOLID
 10
95.0
 20
155.0
 30
0.0
 11
100.0
 21
155.0
 31
0.0
  0
LINE
  5
2FB
  8
0
  6
CADDY_SOLID
 10
135.0
 20
155.0
 30
0.0
 11
145.0
 21
155.0
 31
0.0
  0
LINE
  5
2FC
  8
0
  6
CADDY_SOLID
 10
95.0
 20
155.0
 30
0.0
 11
90.0
 21
155.0
 31
0.0
  0
LINE
  5
2FD
  8
0
  6
CADDY_SOLID
 10
145.0
 20
155.0
 30
0.0
 11
155.0
 21
155.0
 31
0.0
  0
LINE
  5
2FE
  8
0
  6
CADDY_SOLID
 10
80.0
 20
155.0
 30
0.0
 11
75.0
 21
155.0
 31
0.0
  0
LINE
  5
2FF
  8
0
  6
CADDY_SOLID
 10
75.0
 20
155.0
 30
0.0
 11
75.0
 21
190.0
 31
0.0
  0
LINE
  5
300
  8
0
  6
CADDY_SOLID
 10
75.0
 20
190.0
 30
0.0
 11
155.0
 21
190.0
 31
0.0
  0
LINE
  5
301
  8
0
  6
CADDY_SOLID
 10
155.0
 20
190.0
 30
0.0
 11
155.0
 21
155.0
 31
0.0
  0
LINE
  5
302
  8
0
  6
CADDY_SOLID
 10
90.0
 20
155.0
 30
0.0
 11
90.0
 21
190.0
 31
0.0
  0
TEXT
  5
303
  8
0
 10
124.5999984741211
 20
184.6000061035156
 30
0.0
 40
2.099990844726562
  1
Ethernet
 41
0.9
  7
CADDY_VECTORFONT1P
  0
INSERT
  5
304
  8
0
  2
*U29
 10
0.0
 20
0.0
 30
0.0
  0
TEXT
  5
305
  8
0
 10
180.6000061035156
 20
119.3999938964844
 30
0.0
 40
2.099998474121094
  1
1
 50
270.0
 41
0.9
  7
CADDY_VECTORFONT1P
  0
TEXT
  5
306
  8
0
 10
180.6000061035156
 20
114.3999938964844
 30
0.0
 40
2.099998474121094
  1
2
 50
270.0
 41
0.9
  7
CADDY_VECTORFONT1P
  0
TEXT
  5
307
  8
0
 10
180.6000061035156
 20
109.3999938964844
 30
0.0
 40
2.099998474121094
  1
3
 50
270.0
 41
0.9
  7
CADDY_VECTORFONT1P
  0
TEXT
  5
308
  8
0
 10
180.6000061035156
 20
104.3999938964844
 30
0.0
 40
2.099998474121094
  1
4
 50
270.0
 41
0.9
  7
CADDY_VECTORFONT1P
  0
TEXT
  5
309
  8
0
 10
180.6000061035156
 20
99.39999389648438
 30
0.0
 40
2.099998474121094
  1
5
 50
270.0
 41
0.9
  7
CADDY_VECTORFONT1P
  0
TEXT
  5
30A
  8
0
 10
180.6000061035156
 20
94.39999389648438
 30
0.0
 40
2.099998474121094
  1
6
 50
270.0
 41
0.9
  7
CADDY_VECTORFONT1P
  0
TEXT
  5
30B
  8
0
 10
180.6000061035156
 20
89.39999389648438
 30
0.0
 40
2.099998474121094
  1
7
 50
270.0
 41
0.9
  7
CADDY_VECTORFONT1P
  0
TEXT
  5
30C
  8
0
 10
180.6000061035156
 20
84.39999389648438
 30
0.0
 40
2.099998474121094
  1
8
 50
270.0
 41
0.9
  7
CADDY_VECTORFONT1P
  0
LINE
  5
30D
  8
0
  6
CADDY_SOLID
 10
140.0
 20
90.0
 30
0.0
 11
140.0
 21
145.0
 31
0.0
  0
CIRCLE
  5
30E
  8
0
  6
CADDY_SOLID
 10
179.4000244140625
 20
120.0000076293945
 30
0.0
 40
0.79998779296875
  0
CIRCLE
  5
30F
  8
0
  6
CADDY_SOLID
 10
179.5000305175781
 20
115.0000076293945
 30
0.0
 40
0.79998779296875
  0
CIRCLE
  5
310
  8
0
  6
CADDY_SOLID
 10
179.5000305175781
 20
109.8000106811523
 30
0.0
 40
0.79998779296875
  0
CIRCLE
  5
311
  8
0
  6
CADDY_SOLID
 10
179.5000305175781
 20
104.8000106811523
 30
0.0
 40
0.79998779296875
  0
CIRCLE
  5
312
  8
0
  6
CADDY_SOLID
 10
179.5000305175781
 20
100.2000122070312
 30
0.0
 40
0.79998779296875
  0
CIRCLE
  5
313
  8
0
  6
CADDY_SOLID
 10
179.5000305175781
 20
95.30001068115234
 30
0.0
 40
0.79998779296875
  0
CIRCLE
  5
314
  8
0
  6
CADDY_SOLID
 10
179.5000305175781
 20
90.00000762939453
 30
0.0
 40
0.79998779296875
  0
CIRCLE
  5
315
  8
0
  6
CADDY_SOLID
 10
179.5000305175781
 20
85.10000610351562
 30
0.0
 40
0.79998779296875
  0
LINE
  5
316
  8
0
  6
CADDY_SOLID
 10
180.0
 20
120.0
 30
0.0
 11
189.0
 21
120.0
 31
0.0
  0
LINE
  5
317
  8
0
  6
CADDY_SOLID
 10
189.0
 20
120.0
 30
0.0
 11
189.0
 21
108.0
 31
0.0
  0
LINE
  5
318
  8
0
  6
CADDY_SOLID
 10
189.0
 20
108.0
 30
0.0
 11
191.0
 21
108.0
 31
0.0
  0
LINE
  5
319
  8
0
  6
CADDY_SOLID
 10
180.0
 20
115.0
 30
0.0
 11
187.0
 21
115.0
 31
0.0
  0
LINE
  5
31A
  8
0
  6
CADDY_SOLID
 10
188.0
 20
115.0
 30
0.0
 11
188.0
 21
107.0
 31
0.0
  0
LINE
  5
31B
  8
0
  6
CADDY_SOLID
 10
187.0
 20
115.0
 30
0.0
 11
188.0
 21
115.0
 31
0.0
  0
LINE
  5
31C
  8
0
  6
CADDY_SOLID
 10
188.0
 20
107.0
 30
0.0
 11
191.0
 21
107.0
 31
0.0
  0
LINE
  5
31D
  8
0
  6
CADDY_SOLID
 10
180.0
 20
110.0
 30
0.0
 11
187.0
 21
110.0
 31
0.0
  0
LINE
  5
31E
  8
0
  6
CADDY_SOLID
 10
187.0
 20
110.0
 30
0.0
 11
187.0
 21
106.0
 31
0.0
  0
LINE
  5
31F
  8
0
  6
CADDY_SOLID
 10
187.0
 20
106.0
 30
0.0
 11
191.0
 21
106.0
 31
0.0
  0
LINE
  5
320
  8
0
  6
CADDY_SOLID
 10
180.0
 20
105.0
 30
0.0
 11
191.0
 21
105.0
 31
0.0
  0
LINE
  5
321
  8
0
  6
CADDY_SOLID
 10
180.0
 20
100.0
 30
0.0
 11
187.0
 21
100.0
 31
0.0
  0
LINE
  5
322
  8
0
  6
CADDY_SOLID
 10
187.0
 20
100.0
 30
0.0
 11
187.0
 21
104.0
 31
0.0
  0
LINE
  5
323
  8
0
  6
CADDY_SOLID
 10
187.0
 20
104.0
 30
0.0
 11
191.0
 21
104.0
 31
0.0
  0
LINE
  5
324
  8
0
  6
CADDY_SOLID
 10
180.0
 20
95.5
 30
0.0
 11
188.0
 21
95.5
 31
0.0
  0
LINE
  5
325
  8
0
  6
CADDY_SOLID
 10
188.0
 20
95.5
 30
0.0
 11
188.0
 21
103.0
 31
0.0
  0
LINE
  5
326
  8
0
  6
CADDY_SOLID
 10
188.0
 20
103.0
 30
0.0
 11
191.0
 21
103.0
 31
0.0
  0
LINE
  5
327
  8
0
  6
CADDY_SOLID
 10
180.0
 20
90.0
 30
0.0
 11
189.0
 21
90.0
 31
0.0
  0
LINE
  5
328
  8
0
  6
CADDY_SOLID
 10
189.0
 20
90.0
 30
0.0
 11
189.0
 21
102.0
 31
0.0
  0
LINE
  5
329
  8
0
  6
CADDY_SOLID
 10
189.0
 20
102.0
 30
0.0
 11
191.0
 21
102.0
 31
0.0
  0
LINE
  5
32A
  8
0
  6
CADDY_SOLID
 10
180.0
 20
85.0
 30
0.0
 11
190.0
 21
85.0
 31
0.0
  0
LINE
  5
32B
  8
0
  6
CADDY_SOLID
 10
190.0
 20
85.0
 30
0.0
 11
190.0
 21
101.0
 31
0.0
  0
LINE
  5
32C
  8
0
  6
CADDY_SOLID
 10
190.0
 20
101.0
 30
0.0
 11
191.0
 21
101.0
 31
0.0
  0
LINE
  5
32D
  8
0
  6
CADDY_SOLID
 10
190.5
 20
108.0
 30
0.0
 11
195.0
 21
108.0
 31
0.0
  0
LINE
  5
32E
  8
0
  6
CADDY_SOLID
 10
191.0
 20
107.0
 30
0.0
 11
195.0
 21
107.0
 31
0.0
  0
LINE
  5
32F
  8
0
  6
CADDY_SOLID
 10
191.0
 20
106.0
 30
0.0
 11
195.0
 21
106.0
 31
0.0
  0
LINE
  5
330
  8
0
  6
CADDY_SOLID
 10
190.5
 20
105.0
 30
0.0
 11
195.0
 21
105.0
 31
0.0
  0
LINE
  5
331
  8
0
  6
CADDY_SOLID
 10
191.0
 20
104.0
 30
0.0
 11
195.0
 21
104.0
 31
0.0
  0
LINE
  5
332
  8
0
  6
CADDY_SOLID
 10
191.0
 20
103.0
 30
0.0
 11
195.0
 21
103.0
 31
0.0
  0
LINE
  5
333
  8
0
  6
CADDY_SOLID
 10
190.5
 20
102.0
 30
0.0
 11
195.0
 21
102.0
 31
0.0
  0
LINE
  5
334
  8
0
  6
CADDY_SOLID
 10
191.0
 20
101.0
 30
0.0
 11
195.0
 21
101.0
 31
0.0
  0
TEXT
  5
335
  8
0
 10
84.01000213623047
 20
185.6000061035156
 30
0.0
 40
2.099990844726562
  1
-
 41
0.9
  7
CADDY_VECTORFONT1P
  0
ENDBLK
  8
0
  0
BLOCK
  8
0
  2
BLK7
 70
     0
 10
0.0
 20
0.0
 30
0.0
  0
INSERT
  5
FE
  8
0
  2
*U30
 10
0.0
 20
0.0
 30
0.0
  0
LINE
  5
FF
  8
0
  6
CADDY_SOLID
 10
142.0
 20
178.0
 30
0.0
 11
152.0
 21
178.0
 31
0.0
  0
LINE
  5
100
  8
0
  6
CADDY_SOLID
 10
142.0
 20
178.0
 30
0.0
 11
142.0
 21
185.0
 31
0.0
  0
LINE
  5
101
  8
0
  6
CADDY_SOLID
 10
142.0
 20
185.0
 30
0.0
 11
145.0
 21
185.0
 31
0.0
  0
LINE
  5
102
  8
0
  6
CADDY_SOLID
 10
145.0
 20
185.0
 30
0.0
 11
145.0
 21
186.0
 31
0.0
  0
LINE
  5
103
  8
0
  6
CADDY_SOLID
 10
145.0
 20
186.0
 30
0.0
 11
146.0
 21
186.0
 31
0.0
  0
LINE
  5
104
  8
0
  6
CADDY_SOLID
 10
146.0
 20
186.0
 30
0.0
 11
146.0
 21
187.0
 31
0.0
  0
LINE
  5
105
  8
0
  6
CADDY_SOLID
 10
152.0
 20
178.0
 30
0.0
 11
152.0
 21
185.0
 31
0.0
  0
LINE
  5
106
  8
0
  6
CADDY_SOLID
 10
152.0
 20
185.0
 30
0.0
 11
149.0
 21
185.0
 31
0.0
  0
LINE
  5
107
  8
0
  6
CADDY_SOLID
 10
149.0
 20
185.0
 30
0.0
 11
149.0
 21
186.0
 31
0.0
  0
LINE
  5
108
  8
0
  6
CADDY_SOLID
 10
149.0
 20
186.0
 30
0.0
 11
148.0
 21
186.0
 31
0.0
  0
LINE
  5
109
  8
0
  6
CADDY_SOLID
 10
148.0
 20
186.0
 30
0.0
 11
148.0
 21
187.0
 31
0.0
  0
LINE
  5
10A
  8
0
  6
CADDY_SOLID
 10
148.0
 20
187.0
 30
0.0
 11
146.0
 21
187.0
 31
0.0
  0
LINE
  5
10B
  8
0
  6
CADDY_SOLID
 10
150.0
 20
186.0
 30
0.0
 11
153.0
 21
186.0
 31
0.0
  0
LINE
  5
10C
  8
0
  6
CADDY_SOLID
 10
153.0
 20
186.0
 30
0.0
 11
153.0
 21
177.0
 31
0.0
  0
LINE
  5
10D
  8
0
  6
CADDY_SOLID
 10
153.0
 20
177.0
 30
0.0
 11
141.0
 21
177.0
 31
0.0
  0
LINE
  5
10E
  8
0
  6
CADDY_SOLID
 10
141.0
 20
177.0
 30
0.0
 11
141.0
 21
186.0
 31
0.0
  0
LINE
  5
10F
  8
0
  6
CADDY_SOLID
 10
141.0
 20
186.0
 30
0.0
 11
144.0
 21
186.0
 31
0.0
  0
LINE
  5
110
  8
0
  6
CADDY_SOLID
 10
150.0
 20
186.0
 30
0.0
 11
150.0
 21
187.0
 31
0.0
  0
LINE
  5
111
  8
0
  6
CADDY_SOLID
 10
150.0
 20
187.0
 30
0.0
 11
149.0
 21
187.0
 31
0.0
  0
LINE
  5
112
  8
0
  6
CADDY_SOLID
 10
149.0
 20
187.0
 30
0.0
 11
149.0
 21
188.0
 31
0.0
  0
LINE
  5
113
  8
0
  6
CADDY_SOLID
 10
149.0
 20
188.0
 30
0.0
 11
145.0
 21
188.0
 31
0.0
  0
LINE
  5
114
  8
0
  6
CADDY_SOLID
 10
145.0
 20
188.0
 30
0.0
 11
145.0
 21
187.0
 31
0.0
  0
LINE
  5
115
  8
0
  6
CADDY_SOLID
 10
145.0
 20
187.0
 30
0.0
 11
144.0
 21
187.0
 31
0.0
  0
LINE
  5
116
  8
0
  6
CADDY_SOLID
 10
144.0
 20
187.0
 30
0.0
 11
144.0
 21
186.0
 31
0.0
  0
ENDBLK
  8
0
  0
BLOCK
  8
0
  2
BLK8
 70
     2
 10
0.0
 20
0.0
 30
0.0
  0
CIRCLE
  5
11F
  8
0
  6
CADDY_SOLID
 10
100.0
 20
145.5
 30
0.0
 40
0.75
  0
LINE
  5
120
  8
0
  6
CADDY_SOLID
 10
100.0
 20
146.25
 30
0.0
 11
100.0
 21
148.0
 31
0.0
  0
LINE
  5
121
  8
0
  6
CADDY_SOLID
 10
100.0
 20
143.0
 30
0.0
 11
100.0
 21
144.75
 31
0.0
  0
ATTDEF
  5
125
  8
2
 10
78.24350635681152
 20
144.3000030517578
 30
0.0
 40
2.449996948242188
  1
-X17
 41
0.9
  7
CADDY_VECTORFONT1P
 72
     2
 11
95.04999542236328
 21
144.3000030517578
 31
0.0
  3
Produkt (-)
  2
$TAG160010
 70
     1
  0
ATTDEF
  5
127
  8
2
 10
99.09999084472656
 20
147.1999969482422
 30
0.0
 40
2.449996948242188
  1
34
 50
90.0
 41
0.9
  7
CADDY_VECTORFONT1P
  3
Klemmenummer
  2
$TAG160400
 70
     1
  0
ATTDEF
  5
129
  8
0
 10
102.5999908447266
 20
147.1999969482422
 30
0.0
 40
2.449996948242188
  1
1911776
 50
90.0
 41
0.9
  7
CADDY_VECTORFONT1P
  3
Sorteringsindeks
  2
$TAG160410
 70
     1
  0
ATTDEF
  5
12B
  8
2
 10
77.75179196929932
 20
140.8000030517578
 30
0.0
 40
2.449996948242188
  1

 41
0.9
  7
CADDY_VECTORFONT1P
 72
     2
 11
95.04999542236328
 21
140.8000030517578
 31
0.0
  3
Beskrivelse 00
  2
$TAG160030
 70
     1
  0
ATTDEF
  5
12D
  8
2
 10
77.50706016235353
 20
135.8000030517578
 30
0.0
 40
2.449996948242188
  1
AB1RR235U2GR
 41
0.9
  7
CADDY_VECTORFONT1P
 72
     2
 11
95.05001831054688
 21
135.8000030517578
 31
0.0
  3
Type
  2
$TAG160040
 70
     1
  0
ATTDEF
  5
12F
  8
2
 10
77.50704490356446
 20
151.3000030517578
 30
0.0
 40
2.449996948242188
  1
=
 41
0.9
  7
CADDY_VECTORFONT1P
 72
     2
 11
95.05000305175781
 21
151.3000030517578
 31
0.0
  3
Funktion (=)
  2
$TAG140020
 70
     1
  0
ATTDEF
  5
131
  8
2
 10
77.50703727416993
 20
147.8000030517578
 30
0.0
 40
2.449996948242188
  1
+
 41
0.9
  7
CADDY_VECTORFONT1P
 72
     2
 11
95.04999542236328
 21
147.8000030517578
 31
0.0
  3
Placering (+)
  2
$TAG140050
 70
     1
  0
ENDBLK
  8
0
  0
BLOCK
  8
0
  2
BLK9
 70
     2
 10
0.0
 20
0.0
 30
0.0
  0
CIRCLE
  5
136
  8
0
  6
CADDY_SOLID
 10
110.0
 20
145.5
 30
0.0
 40
0.75
  0
LINE
  5
137
  8
0
  6
CADDY_SOLID
 10
110.0
 20
146.25
 30
0.0
 11
110.0
 21
148.0
 31
0.0
  0
LINE
  5
138
  8
0
  6
CADDY_SOLID
 10
110.0
 20
143.0
 30
0.0
 11
110.0
 21
144.75
 31
0.0
  0
ATTDEF
  5
13B
  8
2
 10
88.24350635681152
 20
144.3000030517578
 30
0.0
 40
2.449996948242188
  1
-X17
 41
0.9
  7
CADDY_VECTORFONT1P
 72
     2
 11
105.0499954223633
 21
144.3000030517578
 31
0.0
  3
Produkt (-)
  2
$TAG160010
 70
     1
  0
ATTDEF
  5
13D
  8
2
 10
109.0999908447266
 20
147.1999969482422
 30
0.0
 40
2.449996948242188
  1
35
 50
90.0
 41
0.9
  7
CADDY_VECTORFONT1P
  3
Klemmenummer
  2
$TAG160400
 70
     1
  0
ATTDEF
  5
13F
  8
0
 10
112.5999908447266
 20
147.1999969482422
 30
0.0
 40
2.449996948242188
  1
1911777
 50
90.0
 41
0.9
  7
CADDY_VECTORFONT1P
  3
Sorteringsindeks
  2
$TAG160410
 70
     1
  0
ATTDEF
  5
141
  8
2
 10
87.75179196929932
 20
140.8000030517578
 30
0.0
 40
2.449996948242188
  1

 41
0.9
  7
CADDY_VECTORFONT1P
 72
     2
 11
105.0499954223633
 21
140.8000030517578
 31
0.0
  3
Beskrivelse 00
  2
$TAG160030
 70
     1
  0
ATTDEF
  5
143
  8
2
 10
87.50706016235353
 20
135.8000030517578
 30
0.0
 40
2.449996948242188
  1
AB1RR235U2GR
 41
0.9
  7
CADDY_VECTORFONT1P
 72
     2
 11
105.0500183105469
 21
135.8000030517578
 31
0.0
  3
Type
  2
$TAG160040
 70
     1
  0
ATTDEF
  5
145
  8
2
 10
87.50704490356446
 20
151.3000030517578
 30
0.0
 40
2.449996948242188
  1
=
 41
0.9
  7
CADDY_VECTORFONT1P
 72
     2
 11
105.0500030517578
 21
151.3000030517578
 31
0.0
  3
Funktion (=)
  2
$TAG140020
 70
     1
  0
ATTDEF
  5
147
  8
2
 10
87.50703727416993
 20
147.8000030517578
 30
0.0
 40
2.449996948242188
  1
+
 41
0.9
  7
CADDY_VECTORFONT1P
 72
     2
 11
105.0499954223633
 21
147.8000030517578
 31
0.0
  3
Placering (+)
  2
$TAG140050
 70
     1
  0
ENDBLK
  8
0
  0
BLOCK
  8
0
  2
BLK10
 70
     2
 10
0.0
 20
0.0
 30
0.0
  0
CIRCLE
  5
14C
  8
0
  6
CADDY_SOLID
 10
120.0
 20
145.5
 30
0.0
 40
0.75
  0
LINE
  5
14D
  8
0
  6
CADDY_SOLID
 10
120.0
 20
146.25
 30
0.0
 11
120.0
 21
148.0
 31
0.0
  0
LINE
  5
14E
  8
0
  6
CADDY_SOLID
 10
120.0
 20
143.0
 30
0.0
 11
120.0
 21
144.75
 31
0.0
  0
ATTDEF
  5
151
  8
2
 10
98.24350635681152
 20
144.3000030517578
 30
0.0
 40
2.449996948242188
  1
-X17
 41
0.9
  7
CADDY_VECTORFONT1P
 72
     2
 11
115.0499954223633
 21
144.3000030517578
 31
0.0
  3
Produkt (-)
  2
$TAG160010
 70
     1
  0
ATTDEF
  5
153
  8
2
 10
119.0999908447266
 20
147.1999969482422
 30
0.0
 40
2.449996948242188
  1
36
 50
90.0
 41
0.9
  7
CADDY_VECTORFONT1P
  3
Klemmenummer
  2
$TAG160400
 70
     1
  0
ATTDEF
  5
155
  8
0
 10
122.5999908447266
 20
147.1999969482422
 30
0.0
 40
2.449996948242188
  1
1911778
 50
90.0
 41
0.9
  7
CADDY_VECTORFONT1P
  3
Sorteringsindeks
  2
$TAG160410
 70
     1
  0
ATTDEF
  5
157
  8
2
 10
97.75179196929932
 20
140.8000030517578
 30
0.0
 40
2.449996948242188
  1

 41
0.9
  7
CADDY_VECTORFONT1P
 72
     2
 11
115.0499954223633
 21
140.8000030517578
 31
0.0
  3
Beskrivelse 00
  2
$TAG160030
 70
     1
  0
ATTDEF
  5
159
  8
2
 10
97.50706016235353
 20
135.8000030517578
 30
0.0
 40
2.449996948242188
  1
AB1RR235U2GR
 41
0.9
  7
CADDY_VECTORFONT1P
 72
     2
 11
115.0500183105469
 21
135.8000030517578
 31
0.0
  3
Type
  2
$TAG160040
 70
     1
  0
ATTDEF
  5
15B
  8
2
 10
97.50704490356446
 20
151.3000030517578
 30
0.0
 40
2.449996948242188
  1
=
 41
0.9
  7
CADDY_VECTORFONT1P
 72
     2
 11
115.0500030517578
 21
151.3000030517578
 31
0.0
  3
Funktion (=)
  2
$TAG140020
 70
     1
  0
ATTDEF
  5
15D
  8
2
 10
97.50703727416993
 20
147.8000030517578
 30
0.0
 40
2.449996948242188
  1
+
 41
0.9
  7
CADDY_VECTORFONT1P
 72
     2
 11
115.0499954223633
 21
147.8000030517578
 31
0.0
  3
Placering (+)
  2
$TAG140050
 70
     1
  0
ENDBLK
  8
0
  0
BLOCK
  8
0
  2
BLK11
 70
     2
 10
0.0
 20
0.0
 30
0.0
  0
CIRCLE
  5
162
  8
0
  6
CADDY_SOLID
 10
130.0
 20
145.5
 30
0.0
 40
0.75
  0
LINE
  5
163
  8
0
  6
CADDY_SOLID
 10
130.0
 20
146.25
 30
0.0
 11
130.0
 21
148.0
 31
0.0
  0
LINE
  5
164
  8
0
  6
CADDY_SOLID
 10
130.0
 20
143.0
 30
0.0
 11
130.0
 21
144.75
 31
0.0
  0
ATTDEF
  5
167
  8
2
 10
108.2435063568115
 20
144.3000030517578
 30
0.0
 40
2.449996948242188
  1
-X17
 41
0.9
  7
CADDY_VECTORFONT1P
 72
     2
 11
125.0499954223633
 21
144.3000030517578
 31
0.0
  3
Produkt (-)
  2
$TAG160010
 70
     1
  0
ATTDEF
  5
169
  8
2
 10
129.0999908447266
 20
147.1999969482422
 30
0.0
 40
2.449996948242188
  1
37
 50
90.0
 41
0.9
  7
CADDY_VECTORFONT1P
  3
Klemmenummer
  2
$TAG160400
 70
     1
  0
ATTDEF
  5
16B
  8
0
 10
132.5999908447266
 20
147.1999969482422
 30
0.0
 40
2.449996948242188
  1
1911779
 50
90.0
 41
0.9
  7
CADDY_VECTORFONT1P
  3
Sorteringsindeks
  2
$TAG160410
 70
     1
  0
ATTDEF
  5
16D
  8
2
 10
107.7517919692993
 20
140.8000030517578
 30
0.0
 40
2.449996948242188
  1

 41
0.9
  7
CADDY_VECTORFONT1P
 72
     2
 11
125.0499954223633
 21
140.8000030517578
 31
0.0
  3
Beskrivelse 00
  2
$TAG160030
 70
     1
  0
ATTDEF
  5
16F
  8
2
 10
107.5070601623535
 20
135.8000030517578
 30
0.0
 40
2.449996948242188
  1
AB1RR235U2GR
 41
0.9
  7
CADDY_VECTORFONT1P
 72
     2
 11
125.0500183105469
 21
135.8000030517578
 31
0.0
  3
Type
  2
$TAG160040
 70
     1
  0
ATTDEF
  5
171
  8
2
 10
107.5070449035645
 20
151.3000030517578
 30
0.0
 40
2.449996948242188
  1
=
 41
0.9
  7
CADDY_VECTORFONT1P
 72
     2
 11
125.0500030517578
 21
151.3000030517578
 31
0.0
  3
Funktion (=)
  2
$TAG140020
 70
     1
  0
ATTDEF
  5
173
  8
2
 10
107.5070372741699
 20
147.8000030517578
 30
0.0
 40
2.449996948242188
  1
+
 41
0.9
  7
CADDY_VECTORFONT1P
 72
     2
 11
125.0499954223633
 21
147.8000030517578
 31
0.0
  3
Placering (+)
  2
$TAG140050
 70
     1
  0
ENDBLK
  8
0
  0
BLOCK
  8
0
  2
BLK12
 70
     2
 10
0.0
 20
0.0
 30
0.0
  0
CIRCLE
  5
178
  8
0
  6
CADDY_SOLID
 10
140.0
 20
145.5
 30
0.0
 40
0.75
  0
LINE
  5
179
  8
0
  6
CADDY_SOLID
 10
140.0
 20
146.25
 30
0.0
 11
140.0
 21
148.0
 31
0.0
  0
LINE
  5
17A
  8
0
  6
CADDY_SOLID
 10
140.0
 20
143.0
 30
0.0
 11
140.0
 21
144.75
 31
0.0
  0
ATTDEF
  5
17D
  8
2
 10
118.2435292449951
 20
144.3000030517578
 30
0.0
 40
2.449996948242188
  1
-X17
 41
0.9
  7
CADDY_VECTORFONT1P
 72
     2
 11
135.0500183105469
 21
144.3000030517578
 31
0.0
  3
Produkt (-)
  2
$TAG160010
 70
     1
  0
ATTDEF
  5
17F
  8
2
 10
139.0999908447266
 20
147.1999969482422
 30
0.0
 40
2.449996948242188
  1
31
 50
90.0
 41
0.9
  7
CADDY_VECTORFONT1P
  3
Klemmenummer
  2
$TAG160400
 70
     1
  0
ATTDEF
  5
181
  8
0
 10
142.5999908447266
 20
147.1999969482422
 30
0.0
 40
2.449996948242188
  1
1911773
 50
90.0
 41
0.9
  7
CADDY_VECTORFONT1P
  3
Sorteringsindeks
  2
$TAG160410
 70
     1
  0
ATTDEF
  5
183
  8
2
 10
117.7517995986939
 20
140.8000030517578
 30
0.0
 40
2.449996948242188
  1

 41
0.9
  7
CADDY_VECTORFONT1P
 72
     2
 11
135.0500030517578
 21
140.8000030517578
 31
0.0
  3
Beskrivelse 00
  2
$TAG160030
 70
     1
  0
ATTDEF
  5
185
  8
2
 10
117.5070601623535
 20
135.8000030517578
 30
0.0
 40
2.449996948242188
  1
AB1RR235U2GR
 41
0.9
  7
CADDY_VECTORFONT1P
 72
     2
 11
135.0500183105469
 21
135.8000030517578
 31
0.0
  3
Type
  2
$TAG160040
 70
     1
  0
ATTDEF
  5
187
  8
2
 10
117.5070449035645
 20
151.3000030517578
 30
0.0
 40
2.449996948242188
  1
=
 41
0.9
  7
CADDY_VECTORFONT1P
 72
     2
 11
135.0500030517578
 21
151.3000030517578
 31
0.0
  3
Funktion (=)
  2
$TAG140020
 70
     1
  0
ATTDEF
  5
189
  8
2
 10
117.5070296447754
 20
147.8000030517578
 30
0.0
 40
2.449996948242188
  1
+
 41
0.9
  7
CADDY_VECTORFONT1P
 72
     2
 11
135.0499877929688
 21
147.8000030517578
 31
0.0
  3
Placering (+)
  2
$TAG140050
 70
     1
  0
ENDBLK
  8
0
  0
BLOCK
  8
0
  2
BLK13
 70
     2
 10
0.0
 20
0.0
 30
0.0
  0
CIRCLE
  5
190
  8
0
  6
CADDY_SOLID
 10
105.0
 20
140.5
 30
0.0
 40
0.75
  0
LINE
  5
191
  8
0
  6
CADDY_SOLID
 10
105.0
 20
141.25
 30
0.0
 11
105.0
 21
143.0
 31
0.0
  0
LINE
  5
192
  8
0
  6
CADDY_SOLID
 10
105.0
 20
138.0
 30
0.0
 11
105.0
 21
139.75
 31
0.0
  0
ATTDEF
  5
195
  8
2
 10
83.24350635681152
 20
139.3000030517578
 30
0.0
 40
2.449996948242188
  1
-X17
 41
0.9
  7
CADDY_VECTORFONT1P
 72
     2
 11
100.0499954223633
 21
139.3000030517578
 31
0.0
  3
Produkt (-)
  2
$TAG160010
 70
     1
  0
ATTDEF
  5
197
  8
2
 10
104.0999908447266
 20
142.1999969482422
 30
0.0
 40
2.449996948242188
  1
38
 50
90.0
 41
0.9
  7
CADDY_VECTORFONT1P
  3
Klemmenummer
  2
$TAG160400
 70
     1
  0
ATTDEF
  5
199
  8
0
 10
107.5999908447266
 20
142.1999969482422
 30
0.0
 40
2.449996948242188
  1
1911780
 50
90.0
 41
0.9
  7
CADDY_VECTORFONT1P
  3
Sorteringsindeks
  2
$TAG160410
 70
     1
  0
ATTDEF
  5
19B
  8
2
 10
82.75179196929932
 20
135.8000030517578
 30
0.0
 40
2.449996948242188
  1

 41
0.9
  7
CADDY_VECTORFONT1P
 72
     2
 11
100.0499954223633
 21
135.8000030517578
 31
0.0
  3
Beskrivelse 00
  2
$TAG160030
 70
     1
  0
ATTDEF
  5
19D
  8
2
 10
82.50706016235353
 20
130.8000030517578
 30
0.0
 40
2.449996948242188
  1
AB1RR235U2GR
 41
0.9
  7
CADDY_VECTORFONT1P
 72
     2
 11
100.0500183105469
 21
130.8000030517578
 31
0.0
  3
Type
  2
$TAG160040
 70
     1
  0
ATTDEF
  5
19F
  8
2
 10
82.50704490356446
 20
146.3000030517578
 30
0.0
 40
2.449996948242188
  1
=
 41
0.9
  7
CADDY_VECTORFONT1P
 72
     2
 11
100.0500030517578
 21
146.3000030517578
 31
0.0
  3
Funktion (=)
  2
$TAG140020
 70
     1
  0
ATTDEF
  5
1A1
  8
2
 10
82.50703727416993
 20
142.8000030517578
 30
0.0
 40
2.449996948242188
  1
+
 41
0.9
  7
CADDY_VECTORFONT1P
 72
     2
 11
100.0499954223633
 21
142.8000030517578
 31
0.0
  3
Placering (+)
  2
$TAG140050
 70
     1
  0
ENDBLK
  8
0
  0
BLOCK
  8
0
  2
BLK14
 70
     2
 10
0.0
 20
0.0
 30
0.0
  0
CIRCLE
  5
1A6
  8
0
  6
CADDY_SOLID
 10
115.0
 20
140.5
 30
0.0
 40
0.75
  0
LINE
  5
1A7
  8
0
  6
CADDY_SOLID
 10
115.0
 20
141.25
 30
0.0
 11
115.0
 21
143.0
 31
0.0
  0
LINE
  5
1A8
  8
0
  6
CADDY_SOLID
 10
115.0
 20
138.0
 30
0.0
 11
115.0
 21
139.75
 31
0.0
  0
ATTDEF
  5
1AB
  8
2
 10
93.24350635681152
 20
139.3000030517578
 30
0.0
 40
2.449996948242188
  1
-X17
 41
0.9
  7
CADDY_VECTORFONT1P
 72
     2
 11
110.0499954223633
 21
139.3000030517578
 31
0.0
  3
Produkt (-)
  2
$TAG160010
 70
     1
  0
ATTDEF
  5
1AD
  8
2
 10
114.0999908447266
 20
142.1999969482422
 30
0.0
 40
2.449996948242188
  1
39
 50
90.0
 41
0.9
  7
CADDY_VECTORFONT1P
  3
Klemmenummer
  2
$TAG160400
 70
     1
  0
ATTDEF
  5
1AF
  8
0
 10
117.5999908447266
 20
142.1999969482422
 30
0.0
 40
2.449996948242188
  1
1911781
 50
90.0
 41
0.9
  7
CADDY_VECTORFONT1P
  3
Sorteringsindeks
  2
$TAG160410
 70
     1
  0
ATTDEF
  5
1B1
  8
2
 10
92.75179196929932
 20
135.8000030517578
 30
0.0
 40
2.449996948242188
  1

 41
0.9
  7
CADDY_VECTORFONT1P
 72
     2
 11
110.0499954223633
 21
135.8000030517578
 31
0.0
  3
Beskrivelse 00
  2
$TAG160030
 70
     1
  0
ATTDEF
  5
1B3
  8
2
 10
92.50706016235353
 20
130.8000030517578
 30
0.0
 40
2.449996948242188
  1
AB1RR235U2GR
 41
0.9
  7
CADDY_VECTORFONT1P
 72
     2
 11
110.0500183105469
 21
130.8000030517578
 31
0.0
  3
Type
  2
$TAG160040
 70
     1
  0
ATTDEF
  5
1B5
  8
2
 10
92.50704490356446
 20
146.3000030517578
 30
0.0
 40
2.449996948242188
  1
=
 41
0.9
  7
CADDY_VECTORFONT1P
 72
     2
 11
110.0500030517578
 21
146.3000030517578
 31
0.0
  3
Funktion (=)
  2
$TAG140020
 70
     1
  0
ATTDEF
  5
1B7
  8
2
 10
92.50703727416993
 20
142.8000030517578
 30
0.0
 40
2.449996948242188
  1
+
 41
0.9
  7
CADDY_VECTORFONT1P
 72
     2
 11
110.0499954223633
 21
142.8000030517578
 31
0.0
  3
Placering (+)
  2
$TAG140050
 70
     1
  0
ENDBLK
  8
0
  0
BLOCK
  8
0
  2
BLK15
 70
     2
 10
0.0
 20
0.0
 30
0.0
  0
CIRCLE
  5
1BC
  8
0
  6
CADDY_SOLID
 10
125.0
 20
140.5
 30
0.0
 40
0.75
  0
LINE
  5
1BD
  8
0
  6
CADDY_SOLID
 10
125.0
 20
141.25
 30
0.0
 11
125.0
 21
143.0
 31
0.0
  0
LINE
  5
1BE
  8
0
  6
CADDY_SOLID
 10
125.0
 20
138.0
 30
0.0
 11
125.0
 21
139.75
 31
0.0
  0
ATTDEF
  5
1C1
  8
2
 10
103.2435063568115
 20
139.3000030517578
 30
0.0
 40
2.449996948242188
  1
-X17
 41
0.9
  7
CADDY_VECTORFONT1P
 72
     2
 11
120.0499954223633
 21
139.3000030517578
 31
0.0
  3
Produkt (-)
  2
$TAG160010
 70
     1
  0
ATTDEF
  5
1C3
  8
2
 10
124.0999908447266
 20
142.1999969482422
 30
0.0
 40
2.449996948242188
  1
40
 50
90.0
 41
0.9
  7
CADDY_VECTORFONT1P
  3
Klemmenummer
  2
$TAG160400
 70
     1
  0
ATTDEF
  5
1C5
  8
0
 10
127.5999908447266
 20
142.1999969482422
 30
0.0
 40
2.449996948242188
  1
1911782
 50
90.0
 41
0.9
  7
CADDY_VECTORFONT1P
  3
Sorteringsindeks
  2
$TAG160410
 70
     1
  0
ATTDEF
  5
1C7
  8
2
 10
102.7517919692993
 20
135.8000030517578
 30
0.0
 40
2.449996948242188
  1

 41
0.9
  7
CADDY_VECTORFONT1P
 72
     2
 11
120.0499954223633
 21
135.8000030517578
 31
0.0
  3
Beskrivelse 00
  2
$TAG160030
 70
     1
  0
ATTDEF
  5
1C9
  8
2
 10
102.5070601623535
 20
130.8000030517578
 30
0.0
 40
2.449996948242188
  1
AB1RR235U2GR
 41
0.9
  7
CADDY_VECTORFONT1P
 72
     2
 11
120.0500183105469
 21
130.8000030517578
 31
0.0
  3
Type
  2
$TAG160040
 70
     1
  0
ATTDEF
  5
1CB
  8
2
 10
102.5070449035645
 20
146.3000030517578
 30
0.0
 40
2.449996948242188
  1
=
 41
0.9
  7
CADDY_VECTORFONT1P
 72
     2
 11
120.0500030517578
 21
146.3000030517578
 31
0.0
  3
Funktion (=)
  2
$TAG140020
 70
     1
  0
ATTDEF
  5
1CD
  8
2
 10
102.5070372741699
 20
142.8000030517578
 30
0.0
 40
2.449996948242188
  1
+
 41
0.9
  7
CADDY_VECTORFONT1P
 72
     2
 11
120.0499954223633
 21
142.8000030517578
 31
0.0
  3
Placering (+)
  2
$TAG140050
 70
     1
  0
ENDBLK
  8
0
  0
BLOCK
  8
0
  2
BLK16
 70
     2
 10
0.0
 20
0.0
 30
0.0
  0
CIRCLE
  5
1D2
  8
0
  6
CADDY_SOLID
 10
135.0
 20
140.5
 30
0.0
 40
0.75
  0
LINE
  5
1D3
  8
0
  6
CADDY_SOLID
 10
135.0
 20
141.25
 30
0.0
 11
135.0
 21
143.0
 31
0.0
  0
LINE
  5
1D4
  8
0
  6
CADDY_SOLID
 10
135.0
 20
138.0
 30
0.0
 11
135.0
 21
139.75
 31
0.0
  0
ATTDEF
  5
1D7
  8
2
 10
113.2435139862061
 20
139.3000030517578
 30
0.0
 40
2.449996948242188
  1
-X17
 41
0.9
  7
CADDY_VECTORFONT1P
 72
     2
 11
130.0500030517578
 21
139.3000030517578
 31
0.0
  3
Produkt (-)
  2
$TAG160010
 70
     1
  0
ATTDEF
  5
1D9
  8
2
 10
134.0999908447266
 20
142.1999969482422
 30
0.0
 40
2.449996948242188
  1
41
 50
90.0
 41
0.9
  7
CADDY_VECTORFONT1P
  3
Klemmenummer
  2
$TAG160400
 70
     1
  0
ATTDEF
  5
1DB
  8
0
 10
137.5999908447266
 20
142.1999969482422
 30
0.0
 40
2.449996948242188
  1
1911783
 50
90.0
 41
0.9
  7
CADDY_VECTORFONT1P
  3
Sorteringsindeks
  2
$TAG160410
 70
     1
  0
ATTDEF
  5
1DD
  8
2
 10
112.7517995986939
 20
135.8000030517578
 30
0.0
 40
2.449996948242188
  1

 41
0.9
  7
CADDY_VECTORFONT1P
 72
     2
 11
130.0500030517578
 21
135.8000030517578
 31
0.0
  3
Beskrivelse 00
  2
$TAG160030
 70
     1
  0
ATTDEF
  5
1DF
  8
2
 10
112.5070601623535
 20
130.8000030517578
 30
0.0
 40
2.449996948242188
  1
AB1RR235U2GR
 41
0.9
  7
CADDY_VECTORFONT1P
 72
     2
 11
130.0500183105469
 21
130.8000030517578
 31
0.0
  3
Type
  2
$TAG160040
 70
     1
  0
ATTDEF
  5
1E1
  8
2
 10
112.5070449035645
 20
146.3000030517578
 30
0.0
 40
2.449996948242188
  1
=
 41
0.9
  7
CADDY_VECTORFONT1P
 72
     2
 11
130.0500030517578
 21
146.3000030517578
 31
0.0
  3
Funktion (=)
  2
$TAG140020
 70
     1
  0
ATTDEF
  5
1E3
  8
2
 10
112.5070296447754
 20
142.8000030517578
 30
0.0
 40
2.449996948242188
  1
+
 41
0.9
  7
CADDY_VECTORFONT1P
 72
     2
 11
130.0499877929688
 21
142.8000030517578
 31
0.0
  3
Placering (+)
  2
$TAG140050
 70
     1
  0
ENDBLK
  8
0
  0
BLOCK
  8
0
  2
BLK17
 70
     2
 10
0.0
 20
0.0
 30
0.0
  0
CIRCLE
  5
1F8
  8
0
  6
CADDY_SOLID
 10
80.0
 20
192.5
 30
0.0
 40
0.75
  0
LINE
  5
1F9
  8
0
  6
CADDY_SOLID
 10
80.0
 20
193.25
 30
0.0
 11
80.0
 21
195.0
 31
0.0
  0
LINE
  5
1FA
  8
0
  6
CADDY_SOLID
 10
80.0
 20
190.0
 30
0.0
 11
80.0
 21
191.75
 31
0.0
  0
ATTDEF
  5
1FD
  8
2
 10
58.24350635681152
 20
191.3000030517578
 30
0.0
 40
2.449996948242188
  1
-X17
 41
0.9
  7
CADDY_VECTORFONT1P
 72
     2
 11
75.04999542236328
 21
191.3000030517578
 31
0.0
  3
Produkt (-)
  2
$TAG160010
 70
     1
  0
ATTDEF
  5
1FF
  8
2
 10
79.09999084472656
 20
194.1999969482422
 30
0.0
 40
2.449996948242188
  1
32
 50
90.0
 41
0.9
  7
CADDY_VECTORFONT1P
  3
Klemmenummer
  2
$TAG160400
 70
     1
  0
ATTDEF
  5
201
  8
0
 10
82.59999084472656
 20
194.1999969482422
 30
0.0
 40
2.449996948242188
  1
1911774
 50
90.0
 41
0.9
  7
CADDY_VECTORFONT1P
  3
Sorteringsindeks
  2
$TAG160410
 70
     1
  0
ATTDEF
  5
203
  8
2
 10
57.75179196929932
 20
187.8000030517578
 30
0.0
 40
2.449996948242188
  1

 41
0.9
  7
CADDY_VECTORFONT1P
 72
     2
 11
75.04999542236328
 21
187.8000030517578
 31
0.0
  3
Beskrivelse 00
  2
$TAG160030
 70
     1
  0
ATTDEF
  5
205
  8
2
 10
57.50705253295899
 20
182.8000030517578
 30
0.0
 40
2.449996948242188
  1
AB1RR235U2GR
 41
0.9
  7
CADDY_VECTORFONT1P
 72
     2
 11
75.05001068115234
 21
182.8000030517578
 31
0.0
  3
Type
  2
$TAG160040
 70
     1
  0
ATTDEF
  5
207
  8
2
 10
57.50704490356446
 20
198.3000030517578
 30
0.0
 40
2.449996948242188
  1
=
 41
0.9
  7
CADDY_VECTORFONT1P
 72
     2
 11
75.05000305175781
 21
198.3000030517578
 31
0.0
  3
Funktion (=)
  2
$TAG140020
 70
     1
  0
ATTDEF
  5
209
  8
2
 10
57.50703727416992
 20
194.8000030517578
 30
0.0
 40
2.449996948242188
  1
+
 41
0.9
  7
CADDY_VECTORFONT1P
 72
     2
 11
75.04999542236328
 21
194.8000030517578
 31
0.0
  3
Placering (+)
  2
$TAG140050
 70
     1
  0
ENDBLK
  8
0
  0
BLOCK
  8
0
  2
BLK18
 70
     2
 10
0.0
 20
0.0
 30
0.0
  0
CIRCLE
  5
20E
  8
0
  6
CADDY_SOLID
 10
85.0
 20
192.5
 30
0.0
 40
0.75
  0
LINE
  5
20F
  8
0
  6
CADDY_SOLID
 10
85.0
 20
193.25
 30
0.0
 11
85.0
 21
195.0
 31
0.0
  0
LINE
  5
210
  8
0
  6
CADDY_SOLID
 10
85.0
 20
190.0
 30
0.0
 11
85.0
 21
191.75
 31
0.0
  0
ATTDEF
  5
213
  8
2
 10
63.24350635681152
 20
191.3000030517578
 30
0.0
 40
2.449996948242188
  1
-X17
 41
0.9
  7
CADDY_VECTORFONT1P
 72
     2
 11
80.04999542236328
 21
191.3000030517578
 31
0.0
  3
Produkt (-)
  2
$TAG160010
 70
     1
  0
ATTDEF
  5
215
  8
2
 10
84.09999084472656
 20
194.1999969482422
 30
0.0
 40
2.449996948242188
  1
33
 50
90.0
 41
0.9
  7
CADDY_VECTORFONT1P
  3
Klemmenummer
  2
$TAG160400
 70
     1
  0
ATTDEF
  5
217
  8
0
 10
87.59999084472656
 20
194.1999969482422
 30
0.0
 40
2.449996948242188
  1
1911775
 50
90.0
 41
0.9
  7
CADDY_VECTORFONT1P
  3
Sorteringsindeks
  2
$TAG160410
 70
     1
  0
ATTDEF
  5
219
  8
2
 10
62.75179196929932
 20
187.8000030517578
 30
0.0
 40
2.449996948242188
  1

 41
0.9
  7
CADDY_VECTORFONT1P
 72
     2
 11
80.04999542236328
 21
187.8000030517578
 31
0.0
  3
Beskrivelse 00
  2
$TAG160030
 70
     1
  0
ATTDEF
  5
21B
  8
2
 10
62.50706016235352
 20
182.8000030517578
 30
0.0
 40
2.449996948242188
  1
AB1RR235U2GR
 41
0.9
  7
CADDY_VECTORFONT1P
 72
     2
 11
80.05001831054688
 21
182.8000030517578
 31
0.0
  3
Type
  2
$TAG160040
 70
     1
  0
ATTDEF
  5
21D
  8
2
 10
62.50704490356446
 20
198.3000030517578
 30
0.0
 40
2.449996948242188
  1
=
 41
0.9
  7
CADDY_VECTORFONT1P
 72
     2
 11
80.05000305175781
 21
198.3000030517578
 31
0.0
  3
Funktion (=)
  2
$TAG140020
 70
     1
  0
ATTDEF
  5
21F
  8
2
 10
62.50703727416992
 20
194.8000030517578
 30
0.0
 40
2.449996948242188
  1
+
 41
0.9
  7
CADDY_VECTORFONT1P
 72
     2
 11
80.04999542236328
 21
194.8000030517578
 31
0.0
  3
Placering (+)
  2
$TAG140050
 70
     1
  0
ENDBLK
  8
0
  0
BLOCK
  8
0
  2
BLK19
 70
     2
 10
0.0
 20
0.0
 30
0.0
  0
CIRCLE
  5
22D
  8
0
  6
CADDY_SOLID
 10
100.0
 20
162.5
 30
0.0
 40
0.75
  0
LINE
  5
22E
  8
0
  6
CADDY_SOLID
 10
100.0
 20
163.25
 30
0.0
 11
100.0
 21
165.0
 31
0.0
  0
LINE
  5
22F
  8
0
  6
CADDY_SOLID
 10
100.0
 20
160.0
 30
0.0
 11
100.0
 21
161.75
 31
0.0
  0
ATTDEF
  5
232
  8
2
 10
78.24350635681152
 20
161.3000030517578
 30
0.0
 40
2.449996948242188
  1
-X17
 41
0.9
  7
CADDY_VECTORFONT1P
 72
     2
 11
95.04999542236328
 21
161.3000030517578
 31
0.0
  3
Produkt (-)
  2
$TAG160010
 70
     1
  0
ATTDEF
  5
234
  8
2
 10
99.09999084472656
 20
164.1999969482422
 30
0.0
 40
2.449996948242188
  1
45
 50
90.0
 41
0.9
  7
CADDY_VECTORFONT1P
  3
Klemmenummer
  2
$TAG160400
 70
     1
  0
ATTDEF
  5
236
  8
0
 10
102.5999908447266
 20
164.1999969482422
 30
0.0
 40
2.449996948242188
  1
1911787
 50
90.0
 41
0.9
  7
CADDY_VECTORFONT1P
  3
Sorteringsindeks
  2
$TAG160410
 70
     1
  0
ATTDEF
  5
238
  8
2
 10
77.75179196929932
 20
157.8000030517578
 30
0.0
 40
2.449996948242188
  1

 41
0.9
  7
CADDY_VECTORFONT1P
 72
     2
 11
95.04999542236328
 21
157.8000030517578
 31
0.0
  3
Beskrivelse 00
  2
$TAG160030
 70
     1
  0
ATTDEF
  5
23A
  8
2
 10
77.50706016235353
 20
152.8000030517578
 30
0.0
 40
2.449996948242188
  1
AB1RR235U2GR
 41
0.9
  7
CADDY_VECTORFONT1P
 72
     2
 11
95.05001831054688
 21
152.8000030517578
 31
0.0
  3
Type
  2
$TAG160040
 70
     1
  0
ATTDEF
  5
23C
  8
2
 10
77.50704490356446
 20
168.3000030517578
 30
0.0
 40
2.449996948242188
  1
=
 41
0.9
  7
CADDY_VECTORFONT1P
 72
     2
 11
95.05000305175781
 21
168.3000030517578
 31
0.0
  3
Funktion (=)
  2
$TAG140020
 70
     1
  0
ATTDEF
  5
23E
  8
2
 10
77.50703727416993
 20
164.8000030517578
 30
0.0
 40
2.449996948242188
  1
+
 41
0.9
  7
CADDY_VECTORFONT1P
 72
     2
 11
95.04999542236328
 21
164.8000030517578
 31
0.0
  3
Placering (+)
  2
$TAG140050
 70
     1
  0
ENDBLK
  8
0
  0
BLOCK
  8
0
  2
BLK20
 70
     2
 10
0.0
 20
0.0
 30
0.0
  0
CIRCLE
  5
243
  8
0
  6
CADDY_SOLID
 10
110.0
 20
162.5
 30
0.0
 40
0.75
  0
LINE
  5
244
  8
0
  6
CADDY_SOLID
 10
110.0
 20
163.25
 30
0.0
 11
110.0
 21
165.0
 31
0.0
  0
LINE
  5
245
  8
0
  6
CADDY_SOLID
 10
110.0
 20
160.0
 30
0.0
 11
110.0
 21
161.75
 31
0.0
  0
ATTDEF
  5
248
  8
2
 10
88.24350635681152
 20
161.3000030517578
 30
0.0
 40
2.449996948242188
  1
-X17
 41
0.9
  7
CADDY_VECTORFONT1P
 72
     2
 11
105.0499954223633
 21
161.3000030517578
 31
0.0
  3
Produkt (-)
  2
$TAG160010
 70
     1
  0
ATTDEF
  5
24A
  8
2
 10
109.0999908447266
 20
164.1999969482422
 30
0.0
 40
2.449996948242188
  1
46
 50
90.0
 41
0.9
  7
CADDY_VECTORFONT1P
  3
Klemmenummer
  2
$TAG160400
 70
     1
  0
ATTDEF
  5
24C
  8
0
 10
112.5999908447266
 20
164.1999969482422
 30
0.0
 40
2.449996948242188
  1
1911788
 50
90.0
 41
0.9
  7
CADDY_VECTORFONT1P
  3
Sorteringsindeks
  2
$TAG160410
 70
     1
  0
ATTDEF
  5
24E
  8
2
 10
87.75179196929932
 20
157.8000030517578
 30
0.0
 40
2.449996948242188
  1

 41
0.9
  7
CADDY_VECTORFONT1P
 72
     2
 11
105.0499954223633
 21
157.8000030517578
 31
0.0
  3
Beskrivelse 00
  2
$TAG160030
 70
     1
  0
ATTDEF
  5
250
  8
2
 10
87.50706016235353
 20
152.8000030517578
 30
0.0
 40
2.449996948242188
  1
AB1RR235U2GR
 41
0.9
  7
CADDY_VECTORFONT1P
 72
     2
 11
105.0500183105469
 21
152.8000030517578
 31
0.0
  3
Type
  2
$TAG160040
 70
     1
  0
ATTDEF
  5
252
  8
2
 10
87.50704490356446
 20
168.3000030517578
 30
0.0
 40
2.449996948242188
  1
=
 41
0.9
  7
CADDY_VECTORFONT1P
 72
     2
 11
105.0500030517578
 21
168.3000030517578
 31
0.0
  3
Funktion (=)
  2
$TAG140020
 70
     1
  0
ATTDEF
  5
254
  8
2
 10
87.50703727416993
 20
164.8000030517578
 30
0.0
 40
2.449996948242188
  1
+
 41
0.9
  7
CADDY_VECTORFONT1P
 72
     2
 11
105.0499954223633
 21
164.8000030517578
 31
0.0
  3
Placering (+)
  2
$TAG140050
 70
     1
  0
ENDBLK
  8
0
  0
BLOCK
  8
0
  2
BLK21
 70
     2
 10
0.0
 20
0.0
 30
0.0
  0
CIRCLE
  5
259
  8
0
  6
CADDY_SOLID
 10
120.0
 20
162.5
 30
0.0
 40
0.75
  0
LINE
  5
25A
  8
0
  6
CADDY_SOLID
 10
120.0
 20
163.25
 30
0.0
 11
120.0
 21
165.0
 31
0.0
  0
LINE
  5
25B
  8
0
  6
CADDY_SOLID
 10
120.0
 20
160.0
 30
0.0
 11
120.0
 21
161.75
 31
0.0
  0
ATTDEF
  5
25E
  8
2
 10
98.24350635681152
 20
161.3000030517578
 30
0.0
 40
2.449996948242188
  1
-X17
 41
0.9
  7
CADDY_VECTORFONT1P
 72
     2
 11
115.0499954223633
 21
161.3000030517578
 31
0.0
  3
Produkt (-)
  2
$TAG160010
 70
     1
  0
ATTDEF
  5
260
  8
2
 10
119.0999908447266
 20
164.1999969482422
 30
0.0
 40
2.449996948242188
  1
47
 50
90.0
 41
0.9
  7
CADDY_VECTORFONT1P
  3
Klemmenummer
  2
$TAG160400
 70
     1
  0
ATTDEF
  5
262
  8
0
 10
122.5999908447266
 20
164.1999969482422
 30
0.0
 40
2.449996948242188
  1
1911789
 50
90.0
 41
0.9
  7
CADDY_VECTORFONT1P
  3
Sorteringsindeks
  2
$TAG160410
 70
     1
  0
ATTDEF
  5
264
  8
2
 10
97.75179196929932
 20
157.8000030517578
 30
0.0
 40
2.449996948242188
  1

 41
0.9
  7
CADDY_VECTORFONT1P
 72
     2
 11
115.0499954223633
 21
157.8000030517578
 31
0.0
  3
Beskrivelse 00
  2
$TAG160030
 70
     1
  0
ATTDEF
  5
266
  8
2
 10
97.50706016235353
 20
152.8000030517578
 30
0.0
 40
2.449996948242188
  1
AB1RR235U2GR
 41
0.9
  7
CADDY_VECTORFONT1P
 72
     2
 11
115.0500183105469
 21
152.8000030517578
 31
0.0
  3
Type
  2
$TAG160040
 70
     1
  0
ATTDEF
  5
268
  8
2
 10
97.50704490356446
 20
168.3000030517578
 30
0.0
 40
2.449996948242188
  1
=
 41
0.9
  7
CADDY_VECTORFONT1P
 72
     2
 11
115.0500030517578
 21
168.3000030517578
 31
0.0
  3
Funktion (=)
  2
$TAG140020
 70
     1
  0
ATTDEF
  5
26A
  8
2
 10
97.50703727416993
 20
164.8000030517578
 30
0.0
 40
2.449996948242188
  1
+
 41
0.9
  7
CADDY_VECTORFONT1P
 72
     2
 11
115.0499954223633
 21
164.8000030517578
 31
0.0
  3
Placering (+)
  2
$TAG140050
 70
     1
  0
ENDBLK
  8
0
  0
BLOCK
  8
0
  2
BLK22
 70
     2
 10
0.0
 20
0.0
 30
0.0
  0
CIRCLE
  5
26F
  8
0
  6
CADDY_SOLID
 10
130.0
 20
162.5
 30
0.0
 40
0.75
  0
LINE
  5
270
  8
0
  6
CADDY_SOLID
 10
130.0
 20
163.25
 30
0.0
 11
130.0
 21
165.0
 31
0.0
  0
LINE
  5
271
  8
0
  6
CADDY_SOLID
 10
130.0
 20
160.0
 30
0.0
 11
130.0
 21
161.75
 31
0.0
  0
ATTDEF
  5
274
  8
2
 10
108.2435063568115
 20
161.3000030517578
 30
0.0
 40
2.449996948242188
  1
-X17
 41
0.9
  7
CADDY_VECTORFONT1P
 72
     2
 11
125.0499954223633
 21
161.3000030517578
 31
0.0
  3
Produkt (-)
  2
$TAG160010
 70
     1
  0
ATTDEF
  5
276
  8
2
 10
129.0999908447266
 20
164.1999969482422
 30
0.0
 40
2.449996948242188
  1
48
 50
90.0
 41
0.9
  7
CADDY_VECTORFONT1P
  3
Klemmenummer
  2
$TAG160400
 70
     1
  0
ATTDEF
  5
278
  8
0
 10
132.5999908447266
 20
164.1999969482422
 30
0.0
 40
2.449996948242188
  1
1911790
 50
90.0
 41
0.9
  7
CADDY_VECTORFONT1P
  3
Sorteringsindeks
  2
$TAG160410
 70
     1
  0
ATTDEF
  5
27A
  8
2
 10
107.7517919692993
 20
157.8000030517578
 30
0.0
 40
2.449996948242188
  1

 41
0.9
  7
CADDY_VECTORFONT1P
 72
     2
 11
125.0499954223633
 21
157.8000030517578
 31
0.0
  3
Beskrivelse 00
  2
$TAG160030
 70
     1
  0
ATTDEF
  5
27C
  8
2
 10
107.5070601623535
 20
152.8000030517578
 30
0.0
 40
2.449996948242188
  1
AB1RR235U2GR
 41
0.9
  7
CADDY_VECTORFONT1P
 72
     2
 11
125.0500183105469
 21
152.8000030517578
 31
0.0
  3
Type
  2
$TAG160040
 70
     1
  0
ATTDEF
  5
27E
  8
2
 10
107.5070449035645
 20
168.3000030517578
 30
0.0
 40
2.449996948242188
  1
=
 41
0.9
  7
CADDY_VECTORFONT1P
 72
     2
 11
125.0500030517578
 21
168.3000030517578
 31
0.0
  3
Funktion (=)
  2
$TAG140020
 70
     1
  0
ATTDEF
  5
280
  8
2
 10
107.5070372741699
 20
164.8000030517578
 30
0.0
 40
2.449996948242188
  1
+
 41
0.9
  7
CADDY_VECTORFONT1P
 72
     2
 11
125.0499954223633
 21
164.8000030517578
 31
0.0
  3
Placering (+)
  2
$TAG140050
 70
     1
  0
ENDBLK
  8
0
  0
BLOCK
  8
0
  2
BLK23
 70
     2
 10
0.0
 20
0.0
 30
0.0
  0
CIRCLE
  5
285
  8
0
  6
CADDY_SOLID
 10
140.0
 20
162.5
 30
0.0
 40
0.75
  0
LINE
  5
286
  8
0
  6
CADDY_SOLID
 10
140.0
 20
163.25
 30
0.0
 11
140.0
 21
165.0
 31
0.0
  0
LINE
  5
287
  8
0
  6
CADDY_SOLID
 10
140.0
 20
160.0
 30
0.0
 11
140.0
 21
161.75
 31
0.0
  0
ATTDEF
  5
28A
  8
2
 10
118.2435292449951
 20
161.3000030517578
 30
0.0
 40
2.449996948242188
  1
-X17
 41
0.9
  7
CADDY_VECTORFONT1P
 72
     2
 11
135.0500183105469
 21
161.3000030517578
 31
0.0
  3
Produkt (-)
  2
$TAG160010
 70
     1
  0
ATTDEF
  5
28C
  8
2
 10
139.0999908447266
 20
164.1999969482422
 30
0.0
 40
2.449996948242188
  1
42
 50
90.0
 41
0.9
  7
CADDY_VECTORFONT1P
  3
Klemmenummer
  2
$TAG160400
 70
     1
  0
ATTDEF
  5
28E
  8
0
 10
142.5999908447266
 20
164.1999969482422
 30
0.0
 40
2.449996948242188
  1
1911784
 50
90.0
 41
0.9
  7
CADDY_VECTORFONT1P
  3
Sorteringsindeks
  2
$TAG160410
 70
     1
  0
ATTDEF
  5
290
  8
2
 10
117.7517995986939
 20
157.8000030517578
 30
0.0
 40
2.449996948242188
  1

 41
0.9
  7
CADDY_VECTORFONT1P
 72
     2
 11
135.0500030517578
 21
157.8000030517578
 31
0.0
  3
Beskrivelse 00
  2
$TAG160030
 70
     1
  0
ATTDEF
  5
292
  8
2
 10
117.5070601623535
 20
152.8000030517578
 30
0.0
 40
2.449996948242188
  1
AB1RR235U2GR
 41
0.9
  7
CADDY_VECTORFONT1P
 72
     2
 11
135.0500183105469
 21
152.8000030517578
 31
0.0
  3
Type
  2
$TAG160040
 70
     1
  0
ATTDEF
  5
294
  8
2
 10
117.5070449035645
 20
168.3000030517578
 30
0.0
 40
2.449996948242188
  1
=
 41
0.9
  7
CADDY_VECTORFONT1P
 72
     2
 11
135.0500030517578
 21
168.3000030517578
 31
0.0
  3
Funktion (=)
  2
$TAG140020
 70
     1
  0
ATTDEF
  5
296
  8
2
 10
117.5070296447754
 20
164.8000030517578
 30
0.0
 40
2.449996948242188
  1
+
 41
0.9
  7
CADDY_VECTORFONT1P
 72
     2
 11
135.0499877929688
 21
164.8000030517578
 31
0.0
  3
Placering (+)
  2
$TAG140050
 70
     1
  0
ENDBLK
  8
0
  0
BLOCK
  8
0
  2
BLK24
 70
     2
 10
0.0
 20
0.0
 30
0.0
  0
CIRCLE
  5
29D
  8
0
  6
CADDY_SOLID
 10
105.0
 20
157.5
 30
0.0
 40
0.75
  0
LINE
  5
29E
  8
0
  6
CADDY_SOLID
 10
105.0
 20
158.25
 30
0.0
 11
105.0
 21
160.0
 31
0.0
  0
LINE
  5
29F
  8
0
  6
CADDY_SOLID
 10
105.0
 20
155.0
 30
0.0
 11
105.0
 21
156.75
 31
0.0
  0
ATTDEF
  5
2A2
  8
2
 10
83.24350635681152
 20
156.3000030517578
 30
0.0
 40
2.449996948242188
  1
-X17
 41
0.9
  7
CADDY_VECTORFONT1P
 72
     2
 11
100.0499954223633
 21
156.3000030517578
 31
0.0
  3
Produkt (-)
  2
$TAG160010
 70
     1
  0
ATTDEF
  5
2A4
  8
2
 10
104.0999908447266
 20
159.1999969482422
 30
0.0
 40
2.449996948242188
  1
49
 50
90.0
 41
0.9
  7
CADDY_VECTORFONT1P
  3
Klemmenummer
  2
$TAG160400
 70
     1
  0
ATTDEF
  5
2A6
  8
0
 10
107.5999908447266
 20
159.1999969482422
 30
0.0
 40
2.449996948242188
  1
1911791
 50
90.0
 41
0.9
  7
CADDY_VECTORFONT1P
  3
Sorteringsindeks
  2
$TAG160410
 70
     1
  0
ATTDEF
  5
2A8
  8
2
 10
82.75179196929932
 20
152.8000030517578
 30
0.0
 40
2.449996948242188
  1

 41
0.9
  7
CADDY_VECTORFONT1P
 72
     2
 11
100.0499954223633
 21
152.8000030517578
 31
0.0
  3
Beskrivelse 00
  2
$TAG160030
 70
     1
  0
ATTDEF
  5
2AA
  8
2
 10
82.50706016235353
 20
147.8000030517578
 30
0.0
 40
2.449996948242188
  1
AB1RR235U2GR
 41
0.9
  7
CADDY_VECTORFONT1P
 72
     2
 11
100.0500183105469
 21
147.8000030517578
 31
0.0
  3
Type
  2
$TAG160040
 70
     1
  0
ATTDEF
  5
2AC
  8
2
 10
82.50704490356446
 20
163.3000030517578
 30
0.0
 40
2.449996948242188
  1
=
 41
0.9
  7
CADDY_VECTORFONT1P
 72
     2
 11
100.0500030517578
 21
163.3000030517578
 31
0.0
  3
Funktion (=)
  2
$TAG140020
 70
     1
  0
ATTDEF
  5
2AE
  8
2
 10
82.50703727416993
 20
159.8000030517578
 30
0.0
 40
2.449996948242188
  1
+
 41
0.9
  7
CADDY_VECTORFONT1P
 72
     2
 11
100.0499954223633
 21
159.8000030517578
 31
0.0
  3
Placering (+)
  2
$TAG140050
 70
     1
  0
ENDBLK
  8
0
  0
BLOCK
  8
0
  2
BLK25
 70
     2
 10
0.0
 20
0.0
 30
0.0
  0
CIRCLE
  5
2B3
  8
0
  6
CADDY_SOLID
 10
115.0
 20
157.5
 30
0.0
 40
0.75
  0
LINE
  5
2B4
  8
0
  6
CADDY_SOLID
 10
115.0
 20
158.25
 30
0.0
 11
115.0
 21
160.0
 31
0.0
  0
LINE
  5
2B5
  8
0
  6
CADDY_SOLID
 10
115.0
 20
155.0
 30
0.0
 11
115.0
 21
156.75
 31
0.0
  0
ATTDEF
  5
2B8
  8
2
 10
93.24350635681152
 20
156.3000030517578
 30
0.0
 40
2.449996948242188
  1
-X17
 41
0.9
  7
CADDY_VECTORFONT1P
 72
     2
 11
110.0499954223633
 21
156.3000030517578
 31
0.0
  3
Produkt (-)
  2
$TAG160010
 70
     1
  0
ATTDEF
  5
2BA
  8
2
 10
114.0999908447266
 20
159.1999969482422
 30
0.0
 40
2.449996948242188
  1
50
 50
90.0
 41
0.9
  7
CADDY_VECTORFONT1P
  3
Klemmenummer
  2
$TAG160400
 70
     1
  0
ATTDEF
  5
2BC
  8
0
 10
117.5999908447266
 20
159.1999969482422
 30
0.0
 40
2.449996948242188
  1
1911792
 50
90.0
 41
0.9
  7
CADDY_VECTORFONT1P
  3
Sorteringsindeks
  2
$TAG160410
 70
     1
  0
ATTDEF
  5
2BE
  8
2
 10
92.75179196929932
 20
152.8000030517578
 30
0.0
 40
2.449996948242188
  1

 41
0.9
  7
CADDY_VECTORFONT1P
 72
     2
 11
110.0499954223633
 21
152.8000030517578
 31
0.0
  3
Beskrivelse 00
  2
$TAG160030
 70
     1
  0
ATTDEF
  5
2C0
  8
2
 10
92.50706016235353
 20
147.8000030517578
 30
0.0
 40
2.449996948242188
  1
AB1RR235U2GR
 41
0.9
  7
CADDY_VECTORFONT1P
 72
     2
 11
110.0500183105469
 21
147.8000030517578
 31
0.0
  3
Type
  2
$TAG160040
 70
     1
  0
ATTDEF
  5
2C2
  8
2
 10
92.50704490356446
 20
163.3000030517578
 30
0.0
 40
2.449996948242188
  1
=
 41
0.9
  7
CADDY_VECTORFONT1P
 72
     2
 11
110.0500030517578
 21
163.3000030517578
 31
0.0
  3
Funktion (=)
  2
$TAG140020
 70
     1
  0
ATTDEF
  5
2C4
  8
2
 10
92.50703727416993
 20
159.8000030517578
 30
0.0
 40
2.449996948242188
  1
+
 41
0.9
  7
CADDY_VECTORFONT1P
 72
     2
 11
110.0499954223633
 21
159.8000030517578
 31
0.0
  3
Placering (+)
  2
$TAG140050
 70
     1
  0
ENDBLK
  8
0
  0
BLOCK
  8
0
  2
BLK26
 70
     2
 10
0.0
 20
0.0
 30
0.0
  0
CIRCLE
  5
2C9
  8
0
  6
CADDY_SOLID
 10
125.0
 20
157.5
 30
0.0
 40
0.75
  0
LINE
  5
2CA
  8
0
  6
CADDY_SOLID
 10
125.0
 20
158.25
 30
0.0
 11
125.0
 21
160.0
 31
0.0
  0
LINE
  5
2CB
  8
0
  6
CADDY_SOLID
 10
125.0
 20
155.0
 30
0.0
 11
125.0
 21
156.75
 31
0.0
  0
ATTDEF
  5
2CE
  8
2
 10
103.2435063568115
 20
156.3000030517578
 30
0.0
 40
2.449996948242188
  1
-X17
 41
0.9
  7
CADDY_VECTORFONT1P
 72
     2
 11
120.0499954223633
 21
156.3000030517578
 31
0.0
  3
Produkt (-)
  2
$TAG160010
 70
     1
  0
ATTDEF
  5
2D0
  8
2
 10
124.0999908447266
 20
159.1999969482422
 30
0.0
 40
2.449996948242188
  1
51
 50
90.0
 41
0.9
  7
CADDY_VECTORFONT1P
  3
Klemmenummer
  2
$TAG160400
 70
     1
  0
ATTDEF
  5
2D2
  8
0
 10
127.5999908447266
 20
159.1999969482422
 30
0.0
 40
2.449996948242188
  1
1911793
 50
90.0
 41
0.9
  7
CADDY_VECTORFONT1P
  3
Sorteringsindeks
  2
$TAG160410
 70
     1
  0
ATTDEF
  5
2D4
  8
2
 10
102.7517919692993
 20
152.8000030517578
 30
0.0
 40
2.449996948242188
  1

 41
0.9
  7
CADDY_VECTORFONT1P
 72
     2
 11
120.0499954223633
 21
152.8000030517578
 31
0.0
  3
Beskrivelse 00
  2
$TAG160030
 70
     1
  0
ATTDEF
  5
2D6
  8
2
 10
102.5070601623535
 20
147.8000030517578
 30
0.0
 40
2.449996948242188
  1
AB1RR235U2GR
 41
0.9
  7
CADDY_VECTORFONT1P
 72
     2
 11
120.0500183105469
 21
147.8000030517578
 31
0.0
  3
Type
  2
$TAG160040
 70
     1
  0
ATTDEF
  5
2D8
  8
2
 10
102.5070449035645
 20
163.3000030517578
 30
0.0
 40
2.449996948242188
  1
=
 41
0.9
  7
CADDY_VECTORFONT1P
 72
     2
 11
120.0500030517578
 21
163.3000030517578
 31
0.0
  3
Funktion (=)
  2
$TAG140020
 70
     1
  0
ATTDEF
  5
2DA
  8
2
 10
102.5070372741699
 20
159.8000030517578
 30
0.0
 40
2.449996948242188
  1
+
 41
0.9
  7
CADDY_VECTORFONT1P
 72
     2
 11
120.0499954223633
 21
159.8000030517578
 31
0.0
  3
Placering (+)
  2
$TAG140050
 70
     1
  0
ENDBLK
  8
0
  0
BLOCK
  8
0
  2
BLK27
 70
     2
 10
0.0
 20
0.0
 30
0.0
  0
CIRCLE
  5
2DF
  8
0
  6
CADDY_SOLID
 10
135.0
 20
157.5
 30
0.0
 40
0.75
  0
LINE
  5
2E0
  8
0
  6
CADDY_SOLID
 10
135.0
 20
158.25
 30
0.0
 11
135.0
 21
160.0
 31
0.0
  0
LINE
  5
2E1
  8
0
  6
CADDY_SOLID
 10
135.0
 20
155.0
 30
0.0
 11
135.0
 21
156.75
 31
0.0
  0
ATTDEF
  5
2E4
  8
2
 10
113.2435139862061
 20
156.3000030517578
 30
0.0
 40
2.449996948242188
  1
-X17
 41
0.9
  7
CADDY_VECTORFONT1P
 72
     2
 11
130.0500030517578
 21
156.3000030517578
 31
0.0
  3
Produkt (-)
  2
$TAG160010
 70
     1
  0
ATTDEF
  5
2E6
  8
2
 10
134.0999908447266
 20
159.1999969482422
 30
0.0
 40
2.449996948242188
  1
52
 50
90.0
 41
0.9
  7
CADDY_VECTORFONT1P
  3
Klemmenummer
  2
$TAG160400
 70
     1
  0
ATTDEF
  5
2E8
  8
0
 10
137.5999908447266
 20
159.1999969482422
 30
0.0
 40
2.449996948242188
  1
1911794
 50
90.0
 41
0.9
  7
CADDY_VECTORFONT1P
  3
Sorteringsindeks
  2
$TAG160410
 70
     1
  0
ATTDEF
  5
2EA
  8
2
 10
112.7517995986939
 20
152.8000030517578
 30
0.0
 40
2.449996948242188
  1

 41
0.9
  7
CADDY_VECTORFONT1P
 72
     2
 11
130.0500030517578
 21
152.8000030517578
 31
0.0
  3
Beskrivelse 00
  2
$TAG160030
 70
     1
  0
ATTDEF
  5
2EC
  8
2
 10
112.5070601623535
 20
147.8000030517578
 30
0.0
 40
2.449996948242188
  1
AB1RR235U2GR
 41
0.9
  7
CADDY_VECTORFONT1P
 72
     2
 11
130.0500183105469
 21
147.8000030517578
 31
0.0
  3
Type
  2
$TAG160040
 70
     1
  0
ATTDEF
  5
2EE
  8
2
 10
112.5070449035645
 20
163.3000030517578
 30
0.0
 40
2.449996948242188
  1
=
 41
0.9
  7
CADDY_VECTORFONT1P
 72
     2
 11
130.0500030517578
 21
163.3000030517578
 31
0.0
  3
Funktion (=)
  2
$TAG140020
 70
     1
  0
ATTDEF
  5
2F0
  8
2
 10
112.5070296447754
 20
159.8000030517578
 30
0.0
 40
2.449996948242188
  1
+
 41
0.9
  7
CADDY_VECTORFONT1P
 72
     2
 11
130.0499877929688
 21
159.8000030517578
 31
0.0
  3
Placering (+)
  2
$TAG140050
 70
     1
  0
ENDBLK
  8
0
  0
BLOCK
  8
0
  2
BLK28
 70
     2
 10
0.0
 20
0.0
 30
0.0
  0
LINE
  5
33A
  8
0
  6
CADDY_SOLID
 10
247.5
 20
105.0
 30
0.0
 11
245.25
 21
106.25
 31
0.0
  0
LINE
  5
33B
  8
0
  6
CADDY_SOLID
 10
247.5
 20
105.0
 30
0.0
 11
245.25
 21
103.75
 31
0.0
  0
LINE
  5
33C
  8
0
  6
CADDY_SOLID
 10
245.0
 20
105.0
 30
0.0
 11
247.5
 21
105.0
 31
0.0
  0
ATTDEF
  5
33F
  8
0
 10
225.6934738571167
 20
105.8999938964844
 30
0.0
 40
2.450004577636719
  1
2
 41
0.9
  7
CADDY_VECTORFONT1P
 72
     2
 11
242.5000152587891
 21
105.8999938964844
 31
0.0
  3
Produkt (-)
  2
$TAG160010
 70
     1
  0
ATTDEF
  5
341
  8
0
 10
249.6500091552734
 20
103.8499908447266
 30
0.0
 40
2.450004577636719
  1
20.6
 41
0.9
  7
CADDY_VECTORFONT1P
  3
Side/strømvej reference
  2
$TAG160500
 70
     0
  0
ENDBLK
  8
0
  0
BLOCK
  8
0
  2
*U29
 70
     1
 10
0.0
 20
0.0
 30
0.0
  0
SOLID
  5
391
  8
0
  6
CONTINUOUS
 10
195.0
 20
99.90000915527344
 30
0.0
 11
195.0
 21
108.9000091552734
 31
0.0
 12
200.0
 22
99.90000915527344
 32
0.0
 13
200.0
 23
99.90000915527344
 33
0.0
  0
SOLID
  5
392
  8
0
  6
CONTINUOUS
 10
200.0
 20
99.90000915527344
 30
0.0
 11
195.0
 21
108.9000091552734
 31
0.0
 12
200.0
 22
108.9000091552734
 32
0.0
 13
200.0
 23
108.9000091552734
 33
0.0
  0
SOLID
  5
393
  8
0
  6
CONTINUOUS
 10
200.0
 20
102.9000091552734
 30
0.0
 11
200.0
 21
105.9000091552734
 31
0.0
 12
201.0
 22
102.9000091552734
 32
0.0
 13
201.0
 23
102.9000091552734
 33
0.0
  0
SOLID
  5
394
  8
0
  6
CONTINUOUS
 10
201.0
 20
102.9000091552734
 30
0.0
 11
200.0
 21
105.9000091552734
 31
0.0
 12
201.0
 22
105.9000091552734
 32
0.0
 13
201.0
 23
105.9000091552734
 33
0.0
  0
ENDBLK
  8
0
  0
BLOCK
  8
0
  2
*U30
 70
     1
 10
0.0
 20
0.0
 30
0.0
  0
SOLID
  5
396
  8
0
  6
CONTINUOUS
 10
142.0
 20
178.0
 30
0.0
 11
142.0
 21
185.0
 31
0.0
 12
145.0
 22
178.0
 32
0.0
 13
145.0
 23
178.0
 33
0.0
  0
SOLID
  5
397
  8
0
  6
CONTINUOUS
 10
145.0
 20
178.0
 30
0.0
 11
142.0
 21
185.0
 31
0.0
 12
145.0
 22
185.0
 32
0.0
 13
145.0
 23
185.0
 33
0.0
  0
SOLID
  5
398
  8
0
  6
CONTINUOUS
 10
145.0
 20
178.0
 30
0.0
 11
145.0
 21
186.0
 31
0.0
 12
146.0
 22
178.0
 32
0.0
 13
146.0
 23
178.0
 33
0.0
  0
SOLID
  5
399
  8
0
  6
CONTINUOUS
 10
146.0
 20
178.0
 30
0.0
 11
145.0
 21
186.0
 31
0.0
 12
146.0
 22
186.0
 32
0.0
 13
146.0
 23
186.0
 33
0.0
  0
SOLID
  5
39A
  8
0
  6
CONTINUOUS
 10
146.0
 20
178.0
 30
0.0
 11
146.0
 21
187.0
 31
0.0
 12
148.0
 22
178.0
 32
0.0
 13
148.0
 23
178.0
 33
0.0
  0
SOLID
  5
39B
  8
0
  6
CONTINUOUS
 10
148.0
 20
178.0
 30
0.0
 11
146.0
 21
187.0
 31
0.0
 12
148.0
 22
187.0
 32
0.0
 13
148.0
 23
187.0
 33
0.0
  0
SOLID
  5
39C
  8
0
  6
CONTINUOUS
 10
148.0
 20
178.0
 30
0.0
 11
148.0
 21
186.0
 31
0.0
 12
149.0
 22
178.0
 32
0.0
 13
149.0
 23
178.0
 33
0.0
  0
SOLID
  5
39D
  8
0
  6
CONTINUOUS
 10
149.0
 20
178.0
 30
0.0
 11
148.0
 21
186.0
 31
0.0
 12
149.0
 22
186.0
 32
0.0
 13
149.0
 23
186.0
 33
0.0
  0
SOLID
  5
39E
  8
0
  6
CONTINUOUS
 10
149.0
 20
178.0
 30
0.0
 11
149.0
 21
185.0
 31
0.0
 12
152.0
 22
178.0
 32
0.0
 13
152.0
 23
178.0
 33
0.0
  0
SOLID
  5
39F
  8
0
  6
CONTINUOUS
 10
152.0
 20
178.0
 30
0.0
 11
149.0
 21
185.0
 31
0.0
 12
152.0
 22
185.0
 32
0.0
 13
152.0
 23
185.0
 33
0.0
  0
ENDBLK
  8
0
  0
ENDSEC
  0
SECTION
  2
ENTITIES
  0
INSERT
  5
43
  8
0
  2
BLK1
 10
0.0
 20
0.0
 30
1.0
  0
INSERT
  5
AF
  8
0
 66
     1
  2
BLK2
 10
0.0
 20
0.0
 30
1.0
  0
ATTRIB
  5
B2
  8
0
 10
29.26500701904297
 20
260.9000244140625
 30
0.0
 40
2.449981689453125
  1
1006
 41
0.9
  7
CADDY_VECTORFONT1P
  2
$TAG160010
 70
     1
  0
ATTRIB
  5
B5
  8
0
 10
17.7399956451416
 20
258.9500122070312
 30
0.0
 40
2.449981689453125
  1
19.9
 41
0.9
  7
CADDY_VECTORFONT1P
 72
     2
 11
22.78499794006348
 21
258.9500122070312
 31
0.0
  2
$TAG160500
 70
     0
  0
ATTRIB
  5
B7
  8
0
 10
29.26500701904297
 20
267.9000244140625
 30
0.0
 40
2.449981689453125
  1
=
 41
0.9
  7
CADDY_VECTORFONT1P
  2
$TAG140020
 70
     1
  0
ATTRIB
  5
B9
  8
0
 10
29.26500701904297
 20
264.4000244140625
 30
0.0
 40
2.449981689453125
  1
+
 41
0.9
  7
CADDY_VECTORFONT1P
  2
$TAG140050
 70
     1
  0
SEQEND
  5
B3
  8
0
  0
INSERT
  5
BE
  8
0
 66
     1
  2
BLK3
 10
0.0
 20
0.0
 30
1.0
  0
ATTRIB
  5
C1
  8
0
 10
381.7588142181397
 20
260.9000244140625
 30
0.0
 40
2.449981689453125
  1
1006
 41
0.9
  7
CADDY_VECTORFONT1P
 72
     2
 11
387.7850341796875
 21
260.9000244140625
 31
0.0
  2
$TAG160010
 70
     1
  0
ATTRIB
  5
C4
  8
0
 10
393.3650207519531
 20
258.9500122070312
 30
0.0
 40
2.449981689453125
  1
24.7
 41
0.9
  7
CADDY_VECTORFONT1P
  2
$TAG160500
 70
     0
  0
ATTRIB
  5
C6
  8
0
 10
386.4377587310791
 20
267.9000244140625
 30
0.0
 40
2.449981689453125
  1
=
 41
0.9
  7
CADDY_VECTORFONT1P
 72
     2
 11
387.7850036621094
 21
267.9000244140625
 31
0.0
  2
$TAG140020
 70
     1
  0
ATTRIB
  5
C8
  8
0
 10
386.4377587310791
 20
264.4000244140625
 30
0.0
 40
2.449981689453125
  1
+
 41
0.9
  7
CADDY_VECTORFONT1P
 72
     2
 11
387.7850036621094
 21
264.4000244140625
 31
0.0
  2
$TAG140050
 70
     1
  0
SEQEND
  5
C2
  8
0
  0
LINE
  5
CA
  8
0
  6
CADDY_SOLID
 10
27.5
 20
260.0
 30
0.0
 11
80.0
 21
260.0
 31
0.0
  0
LINE
  5
CB
  8
0
  6
CADDY_SOLID
 10
80.0
 20
260.0
 30
0.0
 11
392.5
 21
260.0
 31
0.0
  0
INSERT
  5
CF
  8
0
 66
     1
  2
BLK4
 10
0.0
 20
0.0
 30
1.0
  0
ATTRIB
  5
D2
  8
0
 10
29.26500701904297
 20
255.9000091552734
 30
0.0
 40
2.449996948242188
  1
1006
 41
0.9
  7
CADDY_VECTORFONT1P
  2
$TAG160010
 70
     1
  0
ATTRIB
  5
D5
  8
0
 10
22.78499794006348
 20
253.9499969482422
 30
0.0
 40
2.449996948242188
  1

 41
0.9
  7
CADDY_VECTORFONT1P
 72
     2
 11
22.78499794006348
 21
253.9499969482422
 31
0.0
  2
$TAG160500
 70
     0
  0
ATTRIB
  5
D7
  8
0
 10
29.26500701904297
 20
262.9000244140625
 30
0.0
 40
2.449981689453125
  1
=
 41
0.9
  7
CADDY_VECTORFONT1P
  2
$TAG140020
 70
     1
  0
ATTRIB
  5
D9
  8
0
 10
29.26500701904297
 20
259.4000244140625
 30
0.0
 40
2.449981689453125
  1
+
 41
0.9
  7
CADDY_VECTORFONT1P
  2
$TAG140050
 70
     1
  0
SEQEND
  5
D3
  8
0
  0
INSERT
  5
DE
  8
0
 66
     1
  2
BLK5
 10
0.0
 20
0.0
 30
1.0
  0
ATTRIB
  5
E1
  8
0
 10
381.7587766860962
 20
255.9000091552734
 30
0.0
 40
2.449996948242188
  1
1006
 41
0.9
  7
CADDY_VECTORFONT1P
 72
     2
 11
387.7850341796875
 21
255.9000091552734
 31
0.0
  2
$TAG160010
 70
     1
  0
ATTRIB
  5
E4
  8
0
 10
393.3650207519531
 20
253.9499969482422
 30
0.0
 40
2.449996948242188
  1
19.0
 41
0.9
  7
CADDY_VECTORFONT1P
  2
$TAG160500
 70
     0
  0
ATTRIB
  5
E6
  8
0
 10
386.4377587310791
 20
262.9000244140625
 30
0.0
 40
2.449981689453125
  1
=
 41
0.9
  7
CADDY_VECTORFONT1P
 72
     2
 11
387.7850036621094
 21
262.9000244140625
 31
0.0
  2
$TAG140020
 70
     1
  0
ATTRIB
  5
E8
  8
0
 10
386.4377587310791
 20
259.4000244140625
 30
0.0
 40
2.449981689453125
  1
+
 41
0.9
  7
CADDY_VECTORFONT1P
 72
     2
 11
387.7850036621094
 21
259.4000244140625
 31
0.0
  2
$TAG140050
 70
     1
  0
SEQEND
  5
E2
  8
0
  0
LINE
  5
EA
  8
0
  6
CADDY_SOLID
 10
27.5
 20
255.0
 30
0.0
 11
85.0
 21
255.0
 31
0.0
  0
LINE
  5
EB
  8
0
  6
CADDY_SOLID
 10
85.0
 20
255.0
 30
0.0
 11
392.5
 21
255.0
 31
0.0
  0
LINE
  5
EC
  8
0
  6
CADDY_SOLID
 10
80.0
 20
195.0
 30
0.0
 11
80.0
 21
260.0
 31
0.0
  0
TEXT
  5
ED
  8
0
 10
79.5
 20
225.047725
 30
0.0
 40
1.75
  1
0707
 50
90.0
 41
0.9
  7
CADDY_VECTORFONT1P
 72
     1
 11
79.5
 21
227.5
 31
0.0
  0
CIRCLE
  5
EE
  8
0
 10
80.0
 20
260.0
 30
0.0
 40
0.8
  0
CIRCLE
  5
EF
  8
0
 10
80.0
 20
260.0
 30
0.0
 40
0.6
  0
CIRCLE
  5
F0
  8
0
 10
80.0
 20
260.0
 30
0.0
 40
0.4
  0
LINE
  5
F1
  8
0
  6
CADDY_SOLID
 10
85.0
 20
195.0
 30
0.0
 11
85.0
 21
255.0
 31
0.0
  0
TEXT
  5
F2
  8
0
 10
84.5
 20
222.547725
 30
0.0
 40
1.75
  1
0707
 50
90.0
 41
0.9
  7
CADDY_VECTORFONT1P
 72
     1
 11
84.5
 21
225.0
 31
0.0
  0
CIRCLE
  5
F3
  8
0
 10
85.0
 20
255.0
 30
0.0
 40
0.8
  0
CIRCLE
  5
F4
  8
0
 10
85.0
 20
255.0
 30
0.0
 40
0.6
  0
CIRCLE
  5
F5
  8
0
 10
85.0
 20
255.0
 30
0.0
 40
0.4
  0
INSERT
  5
F9
  8
0
  2
BLK6
 10
0.0
 20
0.0
 30
1.0
  0
INSERT
  5
339
  8
0
 66
     1
  2
BLK28
 10
0.0
 20
0.0
 30
1.0
  0
ATTRIB
  5
33D
  8
0
 10
241.1439377250671
 20
105.8999938964844
 30
0.0
 40
2.450004577636719
  1
2
 41
0.9
  7
CADDY_VECTORFONT1P
 72
     2
 11
242.5000152587891
 21
105.8999938964844
 31
0.0
  2
$TAG160010
 70
     1
  0
ATTRIB
  5
340
  8
0
 10
249.6500091552734
 20
103.8499908447266
 30
0.0
 40
2.450004577636719
  1
20.6
 41
0.9
  7
CADDY_VECTORFONT1P
  2
$TAG160500
 70
     0
  0
SEQEND
  5
33E
  8
0
  0
LINE
  5
342
  8
0
  6
CADDY_SOLID
 10
210.0
 20
105.0
 30
0.0
 11
245.0
 21
105.0
 31
0.0
  0
TEXT
  5
343
  8
0
 10
60.59999847412109
 20
180.6000061035156
 30
0.0
 40
2.099990844726562
  1
SW1902
 41
0.9
  7
CADDY_VECTORFONT1P
  0
ENDSEC
  0
EOF
