  0
SECTION
  2
HEADER
  9
$ACADVER
  1
AC1006
  9
$DWGCODEPAGE
  3
ansi_1252
  9
$INSBASE
 10
0.0
 20
0.0
 30
0.0
  9
$EXTMIN
 10
0.0
 20
0.0
  9
$EXTMAX
 10
420.0
 20
297.0
  9
$LIMMIN
 10
0.0
 20
0.0
  9
$LIMMAX
 10
420.0
 20
297.0
  9
$ORTHOMODE
 70
     0
  9
$REGENMODE
 70
     1
  9
$FILLMODE
 70
     1
  9
$QTEXTMODE
 70
     0
  9
$MIRRTEXT
 70
     1
  9
$DRAGMODE
 70
     2
  9
$LTSCALE
 40
1.0
  9
$OSMODE
 70
    37
  9
$ATTMODE
 70
     1
  9
$TEXTSIZE
 40
2.5
  9
$TRACEWID
 40
1.0
  9
$TEXTSTYLE
  7
STANDARD
  9
$CLAYER
  8
0
  9
$CELTYPE
  6
BYLAYER
  9
$CECOLOR
 62
   256
  9
$DIMSCALE
 40
1.0
  9
$DIMASZ
 40
2.5
  9
$DIMEXO
 40
0.625
  9
$DIMDLI
 40
3.75
  9
$DIMRND
 40
0.0
  9
$DIMDLE
 40
0.0
  9
$DIMEXE
 40
1.25
  9
$DIMTP
 40
0.0
  9
$DIMTM
 40
0.0
  9
$DIMTXT
 40
2.5
  9
$DIMCEN
 40
2.5
  9
$DIMTSZ
 40
0.0
  9
$DIMTOL
 70
     0
  9
$DIMLIM
 70
     0
  9
$DIMTIH
 70
     0
  9
$DIMTOH
 70
     0
  9
$DIMSE1
 70
     0
  9
$DIMSE2
 70
     0
  9
$DIMTAD
 70
     1
  9
$DIMZIN
 70
     8
  9
$DIMBLK
  1

  9
$DIMASO
 70
     1
  9
$DIMSHO
 70
     1
  9
$DIMPOST
  1

  9
$DIMAPOST
  1

  9
$DIMALT
 70
     0
  9
$DIMALTD
 70
     3
  9
$DIMALTF
 40
0.03937007874016
  9
$DIMLFAC
 40
1.0
  9
$DIMTOFL
 70
     1
  9
$DIMTVP
 40
0.0
  9
$DIMTIX
 70
     0
  9
$DIMSOXD
 70
     0
  9
$DIMSAH
 70
     0
  9
$DIMBLK1
  1

  9
$DIMBLK2
  1

  9
$LUNITS
 70
     2
  9
$LUPREC
 70
     4
  9
$SKETCHINC
 40
1.0
  9
$FILLETRAD
 40
10.0
  9
$AUNITS
 70
     0
  9
$AUPREC
 70
     0
  9
$MENU
  1
.
  9
$ELEVATION
 40
0.0
  9
$THICKNESS
 40
0.0
  9
$LIMCHECK
 70
     0
  9
$CHAMFERA
 40
10.0
  9
$CHAMFERB
 40
10.0
  9
$SKPOLY
 70
     0
  9
$TDCREATE
 40
2451930.666666667
  9
$TDUPDATE
 40
2460738.481329595
  9
$TDINDWG
 40
0.0000000116
  9
$TDUSRTIMER
 40
0.0000000116
  9
$USRTIMER
 70
     1
  9
$ANGBASE
 50
0.0
  9
$ANGDIR
 70
     0
  9
$PDMODE
 70
     0
  9
$PDSIZE
 40
0.0
  9
$PLINEWID
 40
0.0
  9
$COORDS
 70
     1
  9
$SPLFRAME
 70
     0
  9
$SPLINETYPE
 70
     6
  9
$SPLINESEGS
 70
     8
  9
$ATTDIA
 70
     0
  9
$ATTREQ
 70
     1
  9
$HANDLING
 70
     1
  9
$HANDSEED
  5
5AF
  9
$SURFTAB1
 70
     6
  9
$SURFTAB2
 70
     6
  9
$SURFTYPE
 70
     6
  9
$SURFU
 70
     6
  9
$SURFV
 70
     6
  9
$UCSNAME
  2

  9
$UCSORG
 10
0.0
 20
0.0
 30
0.0
  9
$UCSXDIR
 10
1.0
 20
0.0
 30
0.0
  9
$UCSYDIR
 10
0.0
 20
1.0
 30
0.0
  9
$USERI1
 70
     0
  9
$USERI2
 70
     0
  9
$USERI3
 70
     0
  9
$USERI4
 70
     0
  9
$USERI5
 70
     0
  9
$USERR1
 40
0.0
  9
$USERR2
 40
0.0
  9
$USERR3
 40
0.0
  9
$USERR4
 40
0.0
  9
$USERR5
 40
0.0
  9
$WORLDVIEW
 70
     1
  0
ENDSEC
  0
SECTION
  2
TABLES
  0
TABLE
  2
VPORT
 70
     1
  0
VPORT
  2
*ACTIVE
 70
     0
 10
0.0
 20
0.0
 11
1.0
 21
1.0
 12
210.0
 22
142.5
 13
0.0
 23
0.0
 14
10.0
 24
10.0
 15
10.0
 25
10.0
 16
0.0
 26
0.0
 36
1.0
 17
0.0
 27
0.0
 37
0.0
 40
270.3
 41
1.972972972850329
 42
50.0
 43
0.0
 44
0.0
 50
0.0
 51
0.0
 71
     0
 72
   100
 73
     1
 74
     3
 75
     0
 76
     0
 77
     0
 78
     0
  0
ENDTAB
  0
TABLE
  2
LTYPE
 70
     6
  0
LTYPE
  2
CONTINUOUS
 70
     0
  3
Solid line
 72
    65
 73
     0
 40
0.0
  0
LTYPE
  2
CADDY_SOLID
 70
     0
  3
____________
 72
    65
 73
     0
 40
0.0
  0
LTYPE
  2
CADDY_DOT
 70
     0
  3
. . . . . . 
 72
    65
 73
     2
 40
2.0
 49
0.5
 49
-1.5
  0
LTYPE
  2
CADDY_DASH
 70
     0
  3
_ _ _ _ _ _ 
 72
    65
 73
     2
 40
3.5
 49
2.0
 49
-1.5
  0
LTYPE
  2
CADDY_DASHDOT
 70
     0
  3
_ . _ . _ . 
 72
    65
 73
     4
 40
5.5
 49
0.5
 49
-1.5
 49
2.0
 49
-1.5
  0
LTYPE
  2
CADDY_DASHDOTDOT
 70
     0
  3
_ . . _ . . 
 72
    65
 73
     6
 40
7.5
 49
2.0
 49
-1.5
 49
0.5
 49
-1.5
 49
0.5
 49
-1.5
  0
ENDTAB
  0
TABLE
  2
LAYER
 70
     1
  0
LAYER
  2
0
 70
     0
 62
     7
  6
CONTINUOUS
  0
ENDTAB
  0
TABLE
  2
STYLE
 70
    17
  0
STYLE
  2
STANDARD
 70
     0
 40
0.0
 41
1.0
 50
0.0
 71
     0
 42
2.5
  3
txt
  4

  0
STYLE
  2
CADDY_VECTORFONT1P
 70
     0
 40
0.0
 41
0.9
 50
0.0
 71
     0
 42
0.2
  3
isocp___.ttf
  4

  0
STYLE
  2
CADDY_VECTORFONT1N
 70
     0
 40
0.0
 41
1.100000023841858
 50
0.0
 71
     0
 42
0.2
  3

  4

  0
STYLE
  2
CADDY_VECTORFONT2P
 70
     0
 40
0.0
 41
1.35
 50
0.0
 71
     0
 42
0.2
  3

  4

  0
STYLE
  2
CADDY_VECTORFONT2N
 70
     0
 40
0.0
 41
1.549999952316284
 50
0.0
 71
     0
 42
0.2
  3

  4

  0
STYLE
  2
CADDY_VECTORFONT3P
 70
     0
 40
0.0
 41
1.3
 50
0.0
 71
     0
 42
0.2
  3

  4

  0
STYLE
  2
CADDY_VECTORFONT3N
 70
     0
 40
0.0
 41
1.5
 50
0.0
 71
     0
 42
0.2
  3

  4

  0
STYLE
  2
CADDY_VECTORFONT4P
 70
     0
 40
0.0
 41
1.1
 50
0.0
 71
     0
 42
0.2
  3

  4

  0
STYLE
  2
CADDY_VECTORFONT4N
 70
     0
 40
0.0
 41
1.299999952316284
 50
0.0
 71
     0
 42
0.2
  3

  4

  0
STYLE
  2
CADDY_VECTORFONT5P
 70
     0
 40
0.0
 41
1.0
 50
0.0
 71
     0
 42
0.2
  3

  4

  0
STYLE
  2
CADDY_VECTORFONT5N
 70
     0
 40
0.0
 41
1.200000047683716
 50
0.0
 71
     0
 42
0.2
  3

  4

  0
STYLE
  2
CADDY_VECTORFONT6P
 70
     0
 40
0.0
 41
0.9
 50
0.0
 71
     0
 42
0.2
  3

  4

  0
STYLE
  2
CADDY_VECTORFONT6N
 70
     0
 40
0.0
 41
1.100000023841858
 50
0.0
 71
     0
 42
0.2
  3

  4

  0
STYLE
  2
CADDY_VECTORFONT7P
 70
     0
 40
0.0
 41
1.3
 50
0.0
 71
     0
 42
0.2
  3

  4

  0
STYLE
  2
CADDY_VECTORFONT7N
 70
     0
 40
0.0
 41
1.5
 50
0.0
 71
     0
 42
0.2
  3

  4

  0
STYLE
  2
CADDY_VECTORFONT8P
 70
     0
 40
0.0
 41
1.5
 50
0.0
 71
     0
 42
0.2
  3

  4

  0
STYLE
  2
CADDY_VECTORFONT8N
 70
     0
 40
0.0
 41
1.700000047683716
 50
0.0
 71
     0
 42
0.2
  3

  4

  0
ENDTAB
  0
TABLE
  2
VIEW
 70
     0
  0
ENDTAB
  0
TABLE
  2
UCS
 70
     0
  0
ENDTAB
  0
ENDSEC
  0
SECTION
  2
BLOCKS
  0
BLOCK
  8
0
  2
BLK1
 70
     0
 10
0.0
 20
0.0
 30
0.0
  0
LINE
  5
44
  8
0
  6
CADDY_SOLID
 10
10.0
 20
10.0
 30
0.0
 11
10.0
 21
275.0
 31
0.0
  0
LINE
  5
45
  8
0
  6
CADDY_SOLID
 10
10.0
 20
275.0
 30
0.0
 11
410.0
 21
275.0
 31
0.0
  0
LINE
  5
46
  8
0
  6
CADDY_SOLID
 10
410.0
 20
275.0
 30
0.0
 11
410.0
 21
10.0
 31
0.0
  0
LINE
  5
47
  8
0
  6
CADDY_SOLID
 10
50.0
 20
270.0
 30
0.0
 11
50.0
 21
275.0
 31
0.0
  0
TEXT
  5
48
  8
0
 10
29.14336390228272
 20
271.2000122070312
 30
0.0
 40
2.449981689453125
  1
0
 41
0.9
  7
CADDY_VECTORFONT1P
 72
     1
 11
30.0
 21
271.2000122070312
 31
0.0
  0
TEXT
  5
49
  8
0
 10
30.0
 20
265.2000122070312
 30
0.0
 40
2.449981689453125
  1

 41
0.9
  7
CADDY_VECTORFONT1P
 72
     1
 11
30.0
 21
265.2000122070312
 31
0.0
  0
LINE
  5
4A
  8
0
  6
CADDY_SOLID
 10
90.0
 20
270.0
 30
0.0
 11
90.0
 21
275.0
 31
0.0
  0
LINE
  5
4B
  8
0
  6
CADDY_SOLID
 10
130.0
 20
270.0
 30
0.0
 11
130.0
 21
275.0
 31
0.0
  0
LINE
  5
4C
  8
0
  6
CADDY_SOLID
 10
170.0
 20
270.0
 30
0.0
 11
170.0
 21
275.0
 31
0.0
  0
LINE
  5
4D
  8
0
  6
CADDY_SOLID
 10
210.0
 20
270.0
 30
0.0
 11
210.0
 21
275.0
 31
0.0
  0
LINE
  5
4E
  8
0
  6
CADDY_SOLID
 10
250.0
 20
270.0
 30
0.0
 11
250.0
 21
275.0
 31
0.0
  0
LINE
  5
4F
  8
0
  6
CADDY_SOLID
 10
290.0
 20
270.0
 30
0.0
 11
290.0
 21
275.0
 31
0.0
  0
LINE
  5
50
  8
0
  6
CADDY_SOLID
 10
330.0
 20
270.0
 30
0.0
 11
330.0
 21
275.0
 31
0.0
  0
LINE
  5
51
  8
0
  6
CADDY_SOLID
 10
370.0
 20
270.0
 30
0.0
 11
370.0
 21
275.0
 31
0.0
  0
TEXT
  5
52
  8
0
 10
69.38369947662353
 20
271.2000122070312
 30
0.0
 40
2.449981689453125
  1
1
 41
0.9
  7
CADDY_VECTORFONT1P
 72
     1
 11
69.99999237060547
 21
271.2000122070312
 31
0.0
  0
TEXT
  5
53
  8
0
 10
109.1610037704468
 20
271.2000122070312
 30
0.0
 40
2.449981689453125
  1
2
 41
0.9
  7
CADDY_VECTORFONT1P
 72
     1
 11
110.0
 21
271.2000122070312
 31
0.0
  0
TEXT
  5
54
  8
0
 10
149.1312364929199
 20
271.2000122070312
 30
0.0
 40
2.449981689453125
  1
3
 41
0.9
  7
CADDY_VECTORFONT1P
 72
     1
 11
150.0
 21
271.2000122070312
 31
0.0
  0
TEXT
  5
55
  8
0
 10
189.0364222015381
 20
271.2000122070312
 30
0.0
 40
2.449981689453125
  1
4
 41
0.9
  7
CADDY_VECTORFONT1P
 72
     1
 11
190.0
 21
271.2000122070312
 31
0.0
  0
TEXT
  5
56
  8
0
 10
229.1433639022827
 20
271.2000122070312
 30
0.0
 40
2.449981689453125
  1
5
 41
0.9
  7
CADDY_VECTORFONT1P
 72
     1
 11
230.0
 21
271.2000122070312
 31
0.0
  0
TEXT
  5
57
  8
0
 10
269.1433639022827
 20
271.2000122070312
 30
0.0
 40
2.449981689453125
  1
6
 41
0.9
  7
CADDY_VECTORFONT1P
 72
     1
 11
270.0
 21
271.2000122070312
 31
0.0
  0
TEXT
  5
58
  8
0
 10
309.140056427002
 20
271.2000122070312
 30
0.0
 40
2.449981689453125
  1
7
 41
0.9
  7
CADDY_VECTORFONT1P
 72
     1
 11
310.0
 21
271.2000122070312
 31
0.0
  0
TEXT
  5
59
  8
0
 10
349.1433639022827
 20
271.2000122070312
 30
0.0
 40
2.449981689453125
  1
8
 41
0.9
  7
CADDY_VECTORFONT1P
 72
     1
 11
350.0
 21
271.2000122070312
 31
0.0
  0
TEXT
  5
5A
  8
0
 10
389.1433639022827
 20
271.2000122070312
 30
0.0
 40
2.449981689453125
  1
9
 41
0.9
  7
CADDY_VECTORFONT1P
 72
     1
 11
390.0
 21
271.2000122070312
 31
0.0
  0
TEXT
  5
5B
  8
0
 10
70.0
 20
265.2000122070312
 30
0.0
 40
2.449981689453125
  1

 41
0.9
  7
CADDY_VECTORFONT1P
 72
     1
 11
70.0
 21
265.2000122070312
 31
0.0
  0
TEXT
  5
5C
  8
0
 10
110.0
 20
265.2000122070312
 30
0.0
 40
2.449981689453125
  1

 41
0.9
  7
CADDY_VECTORFONT1P
 72
     1
 11
110.0
 21
265.2000122070312
 31
0.0
  0
TEXT
  5
5D
  8
0
 10
150.0
 20
265.2000122070312
 30
0.0
 40
2.449981689453125
  1

 41
0.9
  7
CADDY_VECTORFONT1P
 72
     1
 11
150.0
 21
265.2000122070312
 31
0.0
  0
TEXT
  5
5E
  8
0
 10
190.0
 20
265.2000122070312
 30
0.0
 40
2.449981689453125
  1

 41
0.9
  7
CADDY_VECTORFONT1P
 72
     1
 11
190.0
 21
265.2000122070312
 31
0.0
  0
TEXT
  5
5F
  8
0
 10
230.0
 20
265.2000122070312
 30
0.0
 40
2.449981689453125
  1

 41
0.9
  7
CADDY_VECTORFONT1P
 72
     1
 11
230.0
 21
265.2000122070312
 31
0.0
  0
TEXT
  5
60
  8
0
 10
270.0000305175781
 20
265.2000122070312
 30
0.0
 40
2.449981689453125
  1

 41
0.9
  7
CADDY_VECTORFONT1P
 72
     1
 11
270.0000305175781
 21
265.2000122070312
 31
0.0
  0
TEXT
  5
61
  8
0
 10
310.0000305175781
 20
265.2000122070312
 30
0.0
 40
2.449981689453125
  1

 41
0.9
  7
CADDY_VECTORFONT1P
 72
     1
 11
310.0000305175781
 21
265.2000122070312
 31
0.0
  0
TEXT
  5
62
  8
0
 10
350.0000305175781
 20
265.2000122070312
 30
0.0
 40
2.449981689453125
  1

 41
0.9
  7
CADDY_VECTORFONT1P
 72
     1
 11
350.0000305175781
 21
265.2000122070312
 31
0.0
  0
TEXT
  5
63
  8
0
 10
390.0000305175781
 20
265.2000122070312
 30
0.0
 40
2.449981689453125
  1

 41
0.9
  7
CADDY_VECTORFONT1P
 72
     1
 11
390.0000305175781
 21
265.2000122070312
 31
0.0
  0
LINE
  5
64
  8
0
  6
CADDY_SOLID
 10
15.0
 20
270.0
 30
0.0
 11
15.0
 21
30.0
 31
0.0
  0
LINE
  5
65
  8
0
  6
CADDY_SOLID
 10
405.0
 20
270.0
 30
0.0
 11
405.0
 21
30.0
 31
0.0
  0
LINE
  5
66
  8
0
  6
CADDY_SOLID
 10
15.0
 20
230.0
 30
0.0
 11
10.0
 21
230.0
 31
0.0
  0
LINE
  5
67
  8
0
  6
CADDY_SOLID
 10
15.0
 20
190.0
 30
0.0
 11
10.0
 21
190.0
 31
0.0
  0
LINE
  5
68
  8
0
  6
CADDY_SOLID
 10
15.0
 20
150.0
 30
0.0
 11
10.0
 21
150.0
 31
0.0
  0
LINE
  5
69
  8
0
  6
CADDY_SOLID
 10
10.0
 20
110.0
 30
0.0
 11
15.0
 21
110.0
 31
0.0
  0
LINE
  5
6A
  8
0
  6
CADDY_SOLID
 10
10.0
 20
70.0
 30
0.0
 11
15.0
 21
70.0
 31
0.0
  0
TEXT
  5
6B
  8
0
 10
11.39750137329102
 20
248.6999969482422
 30
0.0
 40
2.449996948242188
  1
A
 41
0.9
  7
CADDY_VECTORFONT1P
 72
     1
 11
12.5
 21
248.6999969482422
 31
0.0
  0
TEXT
  5
6C
  8
0
 10
11.52098121948242
 20
208.6999969482422
 30
0.0
 40
2.449996948242188
  1
B
 41
0.9
  7
CADDY_VECTORFONT1P
 72
     1
 11
12.5
 21
208.6999969482422
 31
0.0
  0
TEXT
  5
6D
  8
0
 10
11.65548605194092
 20
168.6999969482422
 30
0.0
 40
2.449996948242188
  1
C
 41
0.9
  7
CADDY_VECTORFONT1P
 72
     1
 11
12.5
 21
168.6999969482422
 31
0.0
  0
TEXT
  5
6E
  8
0
 10
11.52098121948242
 20
128.6999969482422
 30
0.0
 40
2.449996948242188
  1
D
 41
0.9
  7
CADDY_VECTORFONT1P
 72
     1
 11
12.5
 21
128.6999969482422
 31
0.0
  0
TEXT
  5
6F
  8
0
 10
11.65548342208862
 20
88.69999694824219
 30
0.0
 40
2.450004577636719
  1
E
 41
0.9
  7
CADDY_VECTORFONT1P
 72
     1
 11
12.5
 21
88.69999694824219
 31
0.0
  0
TEXT
  5
70
  8
0
 10
11.65548473701477
 20
48.70000076293945
 30
0.0
 40
2.450000762939453
  1
F
 41
0.9
  7
CADDY_VECTORFONT1P
 72
     1
 11
12.5
 21
48.70000076293945
 31
0.0
  0
LINE
  5
71
  8
0
  6
CADDY_SOLID
 10
410.0
 20
230.0
 30
0.0
 11
405.0
 21
230.0
 31
0.0
  0
LINE
  5
72
  8
0
  6
CADDY_SOLID
 10
410.0
 20
190.0
 30
0.0
 11
405.0
 21
190.0
 31
0.0
  0
LINE
  5
73
  8
0
  6
CADDY_SOLID
 10
410.0
 20
150.0
 30
0.0
 11
405.0
 21
150.0
 31
0.0
  0
LINE
  5
74
  8
0
  6
CADDY_SOLID
 10
405.0
 20
110.0
 30
0.0
 11
410.0
 21
110.0
 31
0.0
  0
LINE
  5
75
  8
0
  6
CADDY_SOLID
 10
405.0
 20
70.0
 30
0.0
 11
410.0
 21
70.0
 31
0.0
  0
TEXT
  5
76
  8
0
 10
406.397501373291
 20
248.6999969482422
 30
0.0
 40
2.449996948242188
  1
A
 41
0.9
  7
CADDY_VECTORFONT1P
 72
     1
 11
407.5
 21
248.6999969482422
 31
0.0
  0
TEXT
  5
77
  8
0
 10
406.5209812194824
 20
208.6999969482422
 30
0.0
 40
2.449996948242188
  1
B
 41
0.9
  7
CADDY_VECTORFONT1P
 72
     1
 11
407.5
 21
208.6999969482422
 31
0.0
  0
TEXT
  5
78
  8
0
 10
406.6554860519409
 20
168.6999969482422
 30
0.0
 40
2.449996948242188
  1
C
 41
0.9
  7
CADDY_VECTORFONT1P
 72
     1
 11
407.5
 21
168.6999969482422
 31
0.0
  0
TEXT
  5
79
  8
0
 10
406.5209812194824
 20
128.6999969482422
 30
0.0
 40
2.449996948242188
  1
D
 41
0.9
  7
CADDY_VECTORFONT1P
 72
     1
 11
407.5
 21
128.6999969482422
 31
0.0
  0
TEXT
  5
7A
  8
0
 10
406.6554834220887
 20
88.69999694824219
 30
0.0
 40
2.450004577636719
  1
E
 41
0.9
  7
CADDY_VECTORFONT1P
 72
     1
 11
407.5
 21
88.69999694824219
 31
0.0
  0
TEXT
  5
7B
  8
0
 10
406.6554847370148
 20
48.70000076293945
 30
0.0
 40
2.450000762939453
  1
F
 41
0.9
  7
CADDY_VECTORFONT1P
 72
     1
 11
407.5
 21
48.70000076293945
 31
0.0
  0
LINE
  5
7C
  8
0
  6
CADDY_SOLID
 10
15.0
 20
270.0
 30
0.0
 11
405.0
 21
270.0
 31
0.0
  0
LINE
  5
7D
  8
0
  6
CADDY_SOLID
 10
410.0
 20
10.0
 30
0.0
 11
10.0
 21
10.0
 31
0.0
  0
LINE
  5
7E
  8
0
  6
CADDY_SOLID
 10
10.0
 20
30.0
 30
0.0
 11
410.0
 21
30.0
 31
0.0
  0
LINE
  5
7F
  8
0
  6
CADDY_SOLID
 10
260.0
 20
20.0
 30
0.0
 11
410.0
 21
20.0
 31
0.0
  0
LINE
  5
80
  8
0
  6
CADDY_SOLID
 10
10.0
 20
30.0
 30
0.0
 11
15.0
 21
30.0
 31
0.0
  0
LINE
  5
81
  8
0
  6
CADDY_SOLID
 10
405.0
 20
30.0
 30
0.0
 11
410.0
 21
30.0
 31
0.0
  0
LINE
  5
82
  8
0
  6
CADDY_SOLID
 10
65.0
 20
30.0
 30
0.0
 11
65.0
 21
10.0
 31
0.0
  0
TEXT
  5
83
  8
0
 10
69.19999694824219
 20
14.19999980926514
 30
0.0
 40
2.449999809265137
  1
Kassepakker
 41
0.9
  7
CADDY_VECTORFONT1P
  0
TEXT
  5
84
  8
0
 10
69.19999694824219
 20
23.20000076293945
 30
0.0
 40
2.44999885559082
  1
MPN - GUIDED BY VISION
 41
0.9
  7
CADDY_VECTORFONT1P
  0
TEXT
  5
85
  8
0
 10
69.19999694824219
 20
18.70000076293945
 30
0.0
 40
2.44999885559082
  1

 41
0.9
  7
CADDY_VECTORFONT1P
  0
LINE
  5
86
  8
0
  6
CADDY_SOLID
 10
160.0
 20
30.0
 30
0.0
 11
160.0
 21
10.0
 31
0.0
  0
TEXT
  5
87
  8
0
 10
164.1999969482422
 20
23.20000076293945
 30
0.0
 40
2.44999885559082
  1
Nødstopskreds
 41
0.9
  7
CADDY_VECTORFONT1P
  0
TEXT
  5
88
  8
0
 10
164.1999969482422
 20
18.70000076293945
 30
0.0
 40
2.44999885559082
  1

 41
0.9
  7
CADDY_VECTORFONT1P
  0
TEXT
  5
89
  8
0
 10
164.1999969482422
 20
14.19999980926514
 30
0.0
 40
2.449999809265137
  1

 41
0.9
  7
CADDY_VECTORFONT1P
  0
LINE
  5
8A
  8
0
  6
CADDY_SOLID
 10
260.0
 20
30.0
 30
0.0
 11
260.0
 21
10.0
 31
0.0
  0
TEXT
  5
8B
  8
0
 10
261.2000122070312
 20
26.20000076293945
 30
0.0
 40
2.44999885559082
  1
Projekt:
 41
0.9
  7
CADDY_VECTORFONT1P
  0
TEXT
  5
8C
  8
0
 10
261.2000122070312
 20
16.20000076293945
 30
0.0
 40
2.44999885559082
  1
Dato:
 41
0.9
  7
CADDY_VECTORFONT1P
  0
LINE
  5
8D
  8
0
  6
CADDY_SOLID
 10
290.0
 20
30.0
 30
0.0
 11
290.0
 21
10.0
 31
0.0
  0
TEXT
  5
8E
  8
0
 10
291.2000122070312
 20
16.20000076293945
 30
0.0
 40
2.44999885559082
  1
Funkt.:
 41
0.9
  7
CADDY_VECTORFONT1P
  0
TEXT
  5
8F
  8
0
 10
291.2000122070312
 20
26.20000076293945
 30
0.0
 40
2.44999885559082
  1
Tegn. nr.:
 41
0.9
  7
CADDY_VECTORFONT1P
  0
TEXT
  5
90
  8
0
 10
276.1062470369339
 20
21.70000076293945
 30
0.0
 40
2.44999885559082
  1
CP6000
 41
0.9
  7
CADDY_VECTORFONT1P
 72
     2
 11
286.2999572753906
 21
21.70000076293945
 31
0.0
  0
TEXT
  5
91
  8
0
 10
269.9807535458565
 20
11.69999980926514
 30
0.0
 40
2.449999809265137
  1
31-05-2005
 41
0.9
  7
CADDY_VECTORFONT1P
 72
     2
 11
286.2999572753906
 21
11.69999980926514
 31
0.0
  0
LINE
  5
92
  8
0
  6
CADDY_SOLID
 10
320.0
 20
20.0
 30
0.0
 11
320.0
 21
10.0
 31
0.0
  0
TEXT
  5
93
  8
0
 10
321.2000122070312
 20
16.20000076293945
 30
0.0
 40
2.44999885559082
  1
Plac.:
 41
0.9
  7
CADDY_VECTORFONT1P
  0
TEXT
  5
94
  8
0
 10
314.9527328978539
 20
11.69999980926514
 30
0.0
 40
2.449999809265137
  1
=
 41
0.9
  7
CADDY_VECTORFONT1P
 72
     2
 11
316.2999877929688
 21
11.69999980926514
 31
0.0
  0
LINE
  5
95
  8
0
  6
CADDY_SOLID
 10
382.5
 20
20.0
 30
0.0
 11
382.5
 21
30.0
 31
0.0
  0
LINE
  5
96
  8
0
  6
CADDY_SOLID
 10
382.5
 20
10.0
 30
0.0
 11
382.5
 21
20.0
 31
0.0
  0
TEXT
  5
97
  8
0
 10
349.952763415432
 20
11.69999980926514
 30
0.0
 40
2.449999809265137
  1
+
 41
0.9
  7
CADDY_VECTORFONT1P
 72
     2
 11
351.3000183105469
 21
11.69999980926514
 31
0.0
  0
LINE
  5
98
  8
0
  6
CADDY_SOLID
 10
355.0
 20
10.0
 30
0.0
 11
355.0
 21
20.0
 31
0.0
  0
LINE
  5
99
  8
0
  6
CADDY_SOLID
 10
355.0
 20
20.0
 30
0.0
 11
355.0
 21
30.0
 31
0.0
  0
TEXT
  5
9A
  8
0
 10
356.2000122070312
 20
26.20000076293945
 30
0.0
 40
2.44999885559082
  1
Rev.:
 41
0.9
  7
CADDY_VECTORFONT1P
  0
LINE
  5
9B
  8
0
  6
CADDY_SOLID
 10
337.5
 20
20.0
 30
0.0
 11
337.5
 21
30.0
 31
0.0
  0
TEXT
  5
9C
  8
0
 10
333.5
 20
21.75
 30
0.0
 40
3.5
  1

 41
0.9
  7
CADDY_VECTORFONT1P
 72
     2
 11
333.5
 21
21.75
 31
0.0
  0
TEXT
  5
9D
  8
0
 10
338.7000122070312
 20
26.20000076293945
 30
0.0
 40
2.44999885559082
  1
Init.:
 41
0.9
  7
CADDY_VECTORFONT1P
  0
TEXT
  5
9E
  8
0
 10
351.3000183105469
 20
21.70000076293945
 30
0.0
 40
2.44999885559082
  1

 41
0.9
  7
CADDY_VECTORFONT1P
 72
     2
 11
351.3000183105469
 21
21.70000076293945
 31
0.0
  0
TEXT
  5
9F
  8
0
 10
378.8000183105469
 20
21.70000076293945
 30
0.0
 40
2.44999885559082
  1

 41
0.9
  7
CADDY_VECTORFONT1P
 72
     2
 11
378.8000183105469
 21
21.70000076293945
 31
0.0
  0
TEXT
  5
A0
  8
0
 10
401.2907
 20
21.75
 30
0.0
 40
3.5
  1
9
 41
0.9
  7
CADDY_VECTORFONT1P
 72
     2
 11
403.25
 21
21.75
 31
0.0
  0
TEXT
  5
A1
  8
0
 10
405.25
 20
21.75
 30
0.0
 40
3.5
  1

 41
0.9
  7
CADDY_VECTORFONT1P
  0
TEXT
  5
A2
  8
0
 10
383.7000122070312
 20
26.20000076293945
 30
0.0
 40
2.44999885559082
  1
Blad:
 41
0.9
  7
CADDY_VECTORFONT1P
  0
TEXT
  5
A3
  8
0
 10
404.1942434744835
 20
11.69999980926514
 30
0.0
 40
2.449999809265137
  1
11
 41
0.9
  7
CADDY_VECTORFONT1P
 72
     2
 11
406.3000183105469
 21
11.69999980926514
 31
0.0
  0
TEXT
  5
A4
  8
0
 10
383.7000122070312
 20
16.20000076293945
 30
0.0
 40
2.44999885559082
  1
Næste blad:
 41
0.9
  7
CADDY_VECTORFONT1P
  0
TEXT
  5
A5
  8
0
 10
356.2000122070312
 20
16.20000076293945
 30
0.0
 40
2.44999885559082
  1
Antal blade:
 41
0.9
  7
CADDY_VECTORFONT1P
  0
TEXT
  5
A6
  8
0
 10
375.7284535496712
 20
11.69999980926514
 30
0.0
 40
2.449999809265137
  1
32
 41
0.9
  7
CADDY_VECTORFONT1P
 72
     2
 11
378.8000183105469
 21
11.69999980926514
 31
0.0
  0
ENDBLK
  8
0
  0
BLOCK
  8
0
  2
BLK2
 70
     2
 10
0.0
 20
0.0
 30
0.0
  0
CIRCLE
  5
B3
  8
0
  6
CADDY_SOLID
 10
85.0
 20
92.5
 30
0.0
 40
0.75
  0
LINE
  5
B4
  8
0
  6
CADDY_SOLID
 10
85.0
 20
93.25
 30
0.0
 11
85.0
 21
95.0
 31
0.0
  0
LINE
  5
B5
  8
0
  6
CADDY_SOLID
 10
85.0
 20
90.0
 30
0.0
 11
85.0
 21
91.75
 31
0.0
  0
ATTDEF
  5
B8
  8
0
 10
63.24345402069092
 20
91.30000305175781
 30
0.0
 40
2.450004577636719
  1
-X10
 41
0.9
  7
CADDY_VECTORFONT1P
 72
     2
 11
80.04999542236328
 21
91.30000305175781
 31
0.0
  3
Produkt (-)
  2
$TAG160010
 70
     1
  0
ATTDEF
  5
BA
  8
0
 10
84.09999084472656
 20
94.19999694824219
 30
0.0
 40
2.450004577636719
  1
4
 50
90.0
 41
0.9
  7
CADDY_VECTORFONT1P
  3
Klemmenummer
  2
$TAG160400
 70
     0
  0
ATTDEF
  5
BC
  8
0
 10
87.59999084472656
 20
94.19999694824219
 30
0.0
 40
2.450004577636719
  1
122
 50
90.0
 41
0.9
  7
CADDY_VECTORFONT1P
  3
Sorteringsindeks
  2
$TAG160410
 70
     1
  0
ATTDEF
  5
BE
  8
0
 10
62.75173810195923
 20
87.80000305175781
 30
0.0
 40
2.450004577636719
  1

 41
0.9
  7
CADDY_VECTORFONT1P
 72
     2
 11
80.04999542236328
 21
87.80000305175781
 31
0.0
  3
Beskrivelse 00
  2
$TAG160030
 70
     1
  0
ATTDEF
  5
C0
  8
0
 10
62.50700553283691
 20
82.80000305175781
 30
0.0
 40
2.450004577636719
  1
AB1RR235U2GR
 41
0.9
  7
CADDY_VECTORFONT1P
 72
     2
 11
80.05001831054688
 21
82.80000305175781
 31
0.0
  3
Type
  2
$TAG160040
 70
     1
  0
ATTDEF
  5
C2
  8
0
 10
62.50699027404785
 20
98.30000305175781
 30
0.0
 40
2.450004577636719
  1
=
 41
0.9
  7
CADDY_VECTORFONT1P
 72
     2
 11
80.05000305175781
 21
98.30000305175781
 31
0.0
  3
Funktion (=)
  2
$TAG140020
 70
     1
  0
ATTDEF
  5
C4
  8
0
 10
62.50698264465332
 20
94.80000305175781
 30
0.0
 40
2.450004577636719
  1
+
 41
0.9
  7
CADDY_VECTORFONT1P
 72
     2
 11
80.04999542236328
 21
94.80000305175781
 31
0.0
  3
Placering (+)
  2
$TAG140050
 70
     1
  0
ENDBLK
  8
0
  0
BLOCK
  8
0
  2
BLK3
 70
     2
 10
0.0
 20
0.0
 30
0.0
  0
CIRCLE
  5
C9
  8
0
  6
CADDY_SOLID
 10
80.0
 20
92.5
 30
0.0
 40
0.75
  0
LINE
  5
CA
  8
0
  6
CADDY_SOLID
 10
80.0
 20
93.25
 30
0.0
 11
80.0
 21
95.0
 31
0.0
  0
LINE
  5
CB
  8
0
  6
CADDY_SOLID
 10
80.0
 20
90.0
 30
0.0
 11
80.0
 21
91.75
 31
0.0
  0
ATTDEF
  5
CE
  8
0
 10
58.24345402069092
 20
91.30000305175781
 30
0.0
 40
2.450004577636719
  1
-X10
 41
0.9
  7
CADDY_VECTORFONT1P
 72
     2
 11
75.04999542236328
 21
91.30000305175781
 31
0.0
  3
Produkt (-)
  2
$TAG160010
 70
     1
  0
ATTDEF
  5
D0
  8
0
 10
79.09999084472656
 20
94.19999694824219
 30
0.0
 40
2.450004577636719
  1
3
 50
90.0
 41
0.9
  7
CADDY_VECTORFONT1P
  3
Klemmenummer
  2
$TAG160400
 70
     0
  0
ATTDEF
  5
D2
  8
0
 10
82.59999084472656
 20
94.19999694824219
 30
0.0
 40
2.450004577636719
  1
123
 50
90.0
 41
0.9
  7
CADDY_VECTORFONT1P
  3
Sorteringsindeks
  2
$TAG160410
 70
     1
  0
ATTDEF
  5
D4
  8
0
 10
57.75173810195923
 20
87.80000305175781
 30
0.0
 40
2.450004577636719
  1

 41
0.9
  7
CADDY_VECTORFONT1P
 72
     2
 11
75.04999542236328
 21
87.80000305175781
 31
0.0
  3
Beskrivelse 00
  2
$TAG160030
 70
     1
  0
ATTDEF
  5
D6
  8
0
 10
57.50699790344238
 20
82.80000305175781
 30
0.0
 40
2.450004577636719
  1
AB1RR235U2GR
 41
0.9
  7
CADDY_VECTORFONT1P
 72
     2
 11
75.05001068115234
 21
82.80000305175781
 31
0.0
  3
Type
  2
$TAG160040
 70
     1
  0
ATTDEF
  5
D8
  8
0
 10
57.50699027404785
 20
98.30000305175781
 30
0.0
 40
2.450004577636719
  1
=
 41
0.9
  7
CADDY_VECTORFONT1P
 72
     2
 11
75.05000305175781
 21
98.30000305175781
 31
0.0
  3
Funktion (=)
  2
$TAG140020
 70
     1
  0
ATTDEF
  5
DA
  8
0
 10
57.50698264465332
 20
94.80000305175781
 30
0.0
 40
2.450004577636719
  1
+
 41
0.9
  7
CADDY_VECTORFONT1P
 72
     2
 11
75.04999542236328
 21
94.80000305175781
 31
0.0
  3
Placering (+)
  2
$TAG140050
 70
     1
  0
ENDBLK
  8
0
  0
BLOCK
  8
0
  2
BLK4
 70
     2
 10
0.0
 20
0.0
 30
0.0
  0
CIRCLE
  5
DF
  8
0
  6
CADDY_SOLID
 10
75.0
 20
92.5
 30
0.0
 40
0.75
  0
LINE
  5
E0
  8
0
  6
CADDY_SOLID
 10
75.0
 20
93.25
 30
0.0
 11
75.0
 21
95.0
 31
0.0
  0
LINE
  5
E1
  8
0
  6
CADDY_SOLID
 10
75.0
 20
90.0
 30
0.0
 11
75.0
 21
91.75
 31
0.0
  0
ATTDEF
  5
E4
  8
0
 10
53.24346165008545
 20
91.30000305175781
 30
0.0
 40
2.450004577636719
  1
-X10
 41
0.9
  7
CADDY_VECTORFONT1P
 72
     2
 11
70.05000305175781
 21
91.30000305175781
 31
0.0
  3
Produkt (-)
  2
$TAG160010
 70
     1
  0
ATTDEF
  5
E6
  8
0
 10
74.09999084472656
 20
94.19999694824219
 30
0.0
 40
2.450004577636719
  1
2
 50
90.0
 41
0.9
  7
CADDY_VECTORFONT1P
  3
Klemmenummer
  2
$TAG160400
 70
     0
  0
ATTDEF
  5
E8
  8
0
 10
77.59999084472656
 20
94.19999694824219
 30
0.0
 40
2.450004577636719
  1
124
 50
90.0
 41
0.9
  7
CADDY_VECTORFONT1P
  3
Sorteringsindeks
  2
$TAG160410
 70
     1
  0
ATTDEF
  5
EA
  8
0
 10
52.75173810195923
 20
87.80000305175781
 30
0.0
 40
2.450004577636719
  1

 41
0.9
  7
CADDY_VECTORFONT1P
 72
     2
 11
70.04999542236328
 21
87.80000305175781
 31
0.0
  3
Beskrivelse 00
  2
$TAG160030
 70
     1
  0
ATTDEF
  5
EC
  8
0
 10
52.50699027404785
 20
82.80000305175781
 30
0.0
 40
2.450004577636719
  1
AB1RR235U2GR
 41
0.9
  7
CADDY_VECTORFONT1P
 72
     2
 11
70.05000305175781
 21
82.80000305175781
 31
0.0
  3
Type
  2
$TAG160040
 70
     1
  0
ATTDEF
  5
EE
  8
0
 10
52.50699027404785
 20
98.30000305175781
 30
0.0
 40
2.450004577636719
  1
=
 41
0.9
  7
CADDY_VECTORFONT1P
 72
     2
 11
70.05000305175781
 21
98.30000305175781
 31
0.0
  3
Funktion (=)
  2
$TAG140020
 70
     1
  0
ATTDEF
  5
F0
  8
0
 10
52.50698264465332
 20
94.80000305175781
 30
0.0
 40
2.450004577636719
  1
+
 41
0.9
  7
CADDY_VECTORFONT1P
 72
     2
 11
70.04999542236328
 21
94.80000305175781
 31
0.0
  3
Placering (+)
  2
$TAG140050
 70
     1
  0
ENDBLK
  8
0
  0
BLOCK
  8
0
  2
BLK5
 70
     2
 10
0.0
 20
0.0
 30
0.0
  0
CIRCLE
  5
F5
  8
0
  6
CADDY_SOLID
 10
70.0
 20
92.5
 30
0.0
 40
0.75
  0
LINE
  5
F6
  8
0
  6
CADDY_SOLID
 10
70.0
 20
93.25
 30
0.0
 11
70.0
 21
95.0
 31
0.0
  0
LINE
  5
F7
  8
0
  6
CADDY_SOLID
 10
70.0
 20
90.0
 30
0.0
 11
70.0
 21
91.75
 31
0.0
  0
ATTDEF
  5
FA
  8
0
 10
48.24346165008545
 20
91.30000305175781
 30
0.0
 40
2.450004577636719
  1
X9
 41
0.9
  7
CADDY_VECTORFONT1P
 72
     2
 11
65.05000305175781
 21
91.30000305175781
 31
0.0
  3
Produkt (-)
  2
$TAG160010
 70
     0
  0
ATTDEF
  5
FC
  8
0
 10
69.09999084472656
 20
94.19999694824219
 30
0.0
 40
2.450004577636719
  1
1
 50
90.0
 41
0.9
  7
CADDY_VECTORFONT1P
  3
Klemmenummer
  2
$TAG160400
 70
     0
  0
ATTDEF
  5
FE
  8
0
 10
72.59999084472656
 20
94.19999694824219
 30
0.0
 40
2.450004577636719
  1
125
 50
90.0
 41
0.9
  7
CADDY_VECTORFONT1P
  3
Sorteringsindeks
  2
$TAG160410
 70
     1
  0
ATTDEF
  5
100
  8
0
 10
47.75173810195923
 20
87.80000305175781
 30
0.0
 40
2.450004577636719
  1

 41
0.9
  7
CADDY_VECTORFONT1P
 72
     2
 11
65.04999542236328
 21
87.80000305175781
 31
0.0
  3
Beskrivelse 00
  2
$TAG160030
 70
     1
  0
ATTDEF
  5
102
  8
0
 10
47.50698264465332
 20
82.80000305175781
 30
0.0
 40
2.450004577636719
  1
AB1RR235U2GR
 41
0.9
  7
CADDY_VECTORFONT1P
 72
     2
 11
65.04999542236328
 21
82.80000305175781
 31
0.0
  3
Type
  2
$TAG160040
 70
     1
  0
ATTDEF
  5
104
  8
0
 10
47.50699027404785
 20
98.30000305175781
 30
0.0
 40
2.450004577636719
  1
=
 41
0.9
  7
CADDY_VECTORFONT1P
 72
     2
 11
65.05000305175781
 21
98.30000305175781
 31
0.0
  3
Funktion (=)
  2
$TAG140020
 70
     1
  0
ATTDEF
  5
106
  8
0
 10
47.50699027404785
 20
94.80000305175781
 30
0.0
 40
2.450004577636719
  1
+
 41
0.9
  7
CADDY_VECTORFONT1P
 72
     2
 11
65.05000305175781
 21
94.80000305175781
 31
0.0
  3
Placering (+)
  2
$TAG140050
 70
     1
  0
ENDBLK
  8
0
  0
BLOCK
  8
0
  2
BLK6
 70
     2
 10
0.0
 20
0.0
 30
0.0
  0
LINE
  5
10B
  8
0
  6
CADDY_SOLID
 10
37.5
 20
235.0
 30
0.0
 11
39.75
 21
233.75
 31
0.0
  0
LINE
  5
10C
  8
0
  6
CADDY_SOLID
 10
37.5
 20
235.0
 30
0.0
 11
39.75
 21
236.25
 31
0.0
  0
LINE
  5
10D
  8
0
  6
CADDY_SOLID
 10
40.0
 20
235.0
 30
0.0
 11
37.5
 21
235.0
 31
0.0
  0
ATTDEF
  5
110
  8
0
 10
41.59999465942383
 20
235.9000091552734
 30
0.0
 40
2.449996948242188
  1
0811
 41
0.9
  7
CADDY_VECTORFONT1P
  3
Produkt (-)
  2
$TAG160010
 70
     0
  0
ATTDEF
  5
112
  8
0
 10
17.70179273223877
 20
233.9499969482422
 30
0.0
 40
2.449996948242188
  1
8.8
 41
0.9
  7
CADDY_VECTORFONT1P
 72
     2
 11
34.99999618530273
 21
233.9499969482422
 31
0.0
  3
Side/strømvej reference
  2
$TAG160500
 70
     0
  0
ATTDEF
  5
114
  8
0
 10
41.59999465942383
 20
242.9000091552734
 30
0.0
 40
2.449996948242188
  1
=
 41
0.9
  7
CADDY_VECTORFONT1P
  3
Funktion (=)
  2
$TAG140020
 70
     1
  0
ATTDEF
  5
116
  8
0
 10
41.59999465942383
 20
239.4000091552734
 30
0.0
 40
2.449996948242188
  1
+
 41
0.9
  7
CADDY_VECTORFONT1P
  3
Placering (+)
  2
$TAG140050
 70
     1
  0
ENDBLK
  8
0
  0
BLOCK
  8
0
  2
BLK7
 70
     2
 10
0.0
 20
0.0
 30
0.0
  0
LINE
  5
11B
  8
0
  6
CADDY_SOLID
 10
47.5
 20
240.0
 30
0.0
 11
49.75
 21
238.75
 31
0.0
  0
LINE
  5
11C
  8
0
  6
CADDY_SOLID
 10
47.5
 20
240.0
 30
0.0
 11
49.75
 21
241.25
 31
0.0
  0
LINE
  5
11D
  8
0
  6
CADDY_SOLID
 10
50.0
 20
240.0
 30
0.0
 11
47.5
 21
240.0
 31
0.0
  0
ATTDEF
  5
120
  8
0
 10
51.59999465942383
 20
240.9000091552734
 30
0.0
 40
2.449996948242188
  1
0810
 41
0.9
  7
CADDY_VECTORFONT1P
  3
Produkt (-)
  2
$TAG160010
 70
     0
  0
ATTDEF
  5
122
  8
0
 10
27.70179273223877
 20
238.9499969482422
 30
0.0
 40
2.449996948242188
  1
8.8
 41
0.9
  7
CADDY_VECTORFONT1P
 72
     2
 11
44.99999618530273
 21
238.9499969482422
 31
0.0
  3
Side/strømvej reference
  2
$TAG160500
 70
     0
  0
ATTDEF
  5
124
  8
0
 10
51.59999465942383
 20
247.9000091552734
 30
0.0
 40
2.449996948242188
  1
=
 41
0.9
  7
CADDY_VECTORFONT1P
  3
Funktion (=)
  2
$TAG140020
 70
     1
  0
ATTDEF
  5
126
  8
0
 10
51.59999465942383
 20
244.4000091552734
 30
0.0
 40
2.449996948242188
  1
+
 41
0.9
  7
CADDY_VECTORFONT1P
  3
Placering (+)
  2
$TAG140050
 70
     1
  0
ENDBLK
  8
0
  0
BLOCK
  8
0
  2
BLK8
 70
     2
 10
0.0
 20
0.0
 30
0.0
  0
LINE
  5
12B
  8
0
  6
CADDY_SOLID
 10
100.0
 20
60.0
 30
0.0
 11
101.0
 21
60.0
 31
0.0
  0
ATTDEF
  5
12E
  8
0
 10
76.693500025177
 20
58.80000686645508
 30
0.0
 40
2.450000762939453
  1
9B2
 41
0.9
  7
CADDY_VECTORFONT1P
 72
     2
 11
93.50001525878906
 21
58.80000686645508
 31
0.0
  3
Produkt (-)
  2
$TAG160010
 70
     0
  0
ATTDEF
  5
130
  8
0
 10
95.95702216644287
 20
51.80000686645508
 30
0.0
 40
2.450000762939453
  1

 41
0.9
  7
CADDY_VECTORFONT1P
 72
     2
 11
113.5000076293945
 21
51.80000686645508
 31
0.0
  3
Type
  2
$TAG160040
 70
     1
  0
ATTDEF
  5
132
  8
0
 10
96.20177724266051
 20
55.30000686645508
 30
0.0
 40
2.450000762939453
  1

 41
0.9
  7
CADDY_VECTORFONT1P
 72
     2
 11
113.5000076293945
 21
55.30000686645508
 31
0.0
  3
Beskrivelse 00
  2
$TAG160030
 70
     0
  0
CIRCLE
  5
133
  8
0
  6
CADDY_SOLID
 10
98.29998779296875
 20
60.0
 30
0.0
 40
1.700000762939453
  0
INSERT
  5
137
  8
0
 66
     1
  2
BLK9
 10
0.0
 20
0.0
 30
1.0
  0
ATTRIB
  5
13C
  8
0
 10
109.0500030517578
 20
64.39999389648438
 30
0.0
 40
2.450004577636719
  1
11
 50
90.0
 41
0.9
  7
CADDY_VECTORFONT1P
  2
$TAG175000_00
 70
     0
  0
ATTRIB
  5
13F
  8
0
 10
109.0500030517578
 20
53.32015072250366
 30
0.0
 40
2.450000762939453
  1
12
 50
90.0
 41
0.9
  7
CADDY_VECTORFONT1P
 72
     2
 11
109.0500030517578
 21
55.90000152587891
 31
0.0
  2
$TAG175000_01
 70
     0
  0
ATTRIB
  5
141
  8
0
 10
110.5999908447266
 20
46.73500823974609
 30
0.0
 40
2.450000762939453
  1

 50
90.0
 41
0.9
  7
CADDY_VECTORFONT1P
 72
     2
 11
110.5999908447266
 21
46.73500823974609
 31
0.0
  2
$TAG160500
 70
     0
  0
SEQEND
  5
13D
  8
0
  0
INSERT
  5
146
  8
0
 66
     1
  2
BLK10
 10
0.0
 20
0.0
 30
1.0
  0
ATTRIB
  5
14B
  8
0
 10
119.0500030517578
 20
64.39999389648438
 30
0.0
 40
2.450004577636719
  1
11
 50
90.0
 41
0.9
  7
CADDY_VECTORFONT1P
  2
$TAG175000_00
 70
     0
  0
ATTRIB
  5
14E
  8
0
 10
119.0500030517578
 20
53.32015072250366
 30
0.0
 40
2.450000762939453
  1
12
 50
90.0
 41
0.9
  7
CADDY_VECTORFONT1P
 72
     2
 11
119.0500030517578
 21
55.90000152587891
 31
0.0
  2
$TAG175000_01
 70
     0
  0
ATTRIB
  5
150
  8
0
 10
120.5999908447266
 20
46.73500823974609
 30
0.0
 40
2.450000762939453
  1

 50
90.0
 41
0.9
  7
CADDY_VECTORFONT1P
 72
     2
 11
120.5999908447266
 21
46.73500823974609
 31
0.0
  2
$TAG160500
 70
     0
  0
SEQEND
  5
14C
  8
0
  0
LINE
  5
152
  8
0
  6
CADDY_DASHDOT
 10
102.5
 20
60.0
 30
0.0
 11
120.0
 21
60.0
 31
0.0
  0
ATTDEF
  5
154
  8
0
 10
116.9000091552734
 20
60.89999771118164
 30
0.0
 40
2.450000762939453
  1
1
 41
0.9
  7
CADDY_VECTORFONT1P
  3
Tilslutningstekst 00
  2
$TAG175000_00
 70
     0
  0
ENDBLK
  8
0
  0
BLOCK
  8
0
  2
BLK9
 70
     2
 10
0.0
 20
0.0
 30
0.0
  0
LINE
  5
138
  8
0
  6
CADDY_SOLID
 10
110.0
 20
62.5
 30
0.0
 11
110.0
 21
65.0
 31
0.0
  0
LINE
  5
139
  8
0
  6
CADDY_SOLID
 10
110.0
 20
57.5
 30
0.0
 11
110.0
 21
55.0
 31
0.0
  0
LINE
  5
13A
  8
0
  6
CADDY_SOLID
 10
110.0
 20
62.5
 30
0.0
 11
112.5
 21
62.5
 31
0.0
  0
LINE
  5
13B
  8
0
  6
CADDY_SOLID
 10
110.0
 20
57.5
 30
0.0
 11
112.1838073730469
 21
63.5
 31
0.0
  0
ATTDEF
  5
13E
  8
0
 10
109.0500030517578
 20
64.39999389648438
 30
0.0
 40
2.450004577636719
  1
11
 50
90.0
 41
0.9
  7
CADDY_VECTORFONT1P
  3
Tilslutningstekst 00
  2
$TAG175000_00
 70
     0
  0
ATTDEF
  5
140
  8
0
 10
109.0500030517578
 20
32.96578938407897
 30
0.0
 40
2.450000762939453
  1
12
 50
90.0
 41
0.9
  7
CADDY_VECTORFONT1P
 72
     2
 11
109.0500030517578
 21
55.90000152587891
 31
0.0
  3
Tilslutningstekst 01
  2
$TAG175000_01
 70
     0
  0
ATTDEF
  5
142
  8
0
 10
110.5999908447266
 20
29.43677785301208
 30
0.0
 40
2.450000762939453
  1

 50
90.0
 41
0.9
  7
CADDY_VECTORFONT1P
 72
     2
 11
110.5999908447266
 21
46.73500823974609
 31
0.0
  3
Side/strømvej reference
  2
$TAG160500
 70
     0
  0
ENDBLK
  8
0
  0
BLOCK
  8
0
  2
BLK10
 70
     2
 10
0.0
 20
0.0
 30
0.0
  0
LINE
  5
147
  8
0
  6
CADDY_SOLID
 10
120.0
 20
62.5
 30
0.0
 11
120.0
 21
65.0
 31
0.0
  0
LINE
  5
148
  8
0
  6
CADDY_SOLID
 10
120.0
 20
57.5
 30
0.0
 11
120.0
 21
55.0
 31
0.0
  0
LINE
  5
149
  8
0
  6
CADDY_SOLID
 10
120.0
 20
62.5
 30
0.0
 11
122.5
 21
62.5
 31
0.0
  0
LINE
  5
14A
  8
0
  6
CADDY_SOLID
 10
120.0
 20
57.5
 30
0.0
 11
122.1838073730469
 21
63.5
 31
0.0
  0
ATTDEF
  5
14D
  8
0
 10
119.0500030517578
 20
64.39999389648438
 30
0.0
 40
2.450004577636719
  1
11
 50
90.0
 41
0.9
  7
CADDY_VECTORFONT1P
  3
Tilslutningstekst 00
  2
$TAG175000_00
 70
     0
  0
ATTDEF
  5
14F
  8
0
 10
119.0500030517578
 20
32.96578938407897
 30
0.0
 40
2.450000762939453
  1
12
 50
90.0
 41
0.9
  7
CADDY_VECTORFONT1P
 72
     2
 11
119.0500030517578
 21
55.90000152587891
 31
0.0
  3
Tilslutningstekst 01
  2
$TAG175000_01
 70
     0
  0
ATTDEF
  5
151
  8
0
 10
120.5999908447266
 20
29.43677785301208
 30
0.0
 40
2.450000762939453
  1

 50
90.0
 41
0.9
  7
CADDY_VECTORFONT1P
 72
     2
 11
120.5999908447266
 21
46.73500823974609
 31
0.0
  3
Side/strømvej reference
  2
$TAG160500
 70
     0
  0
ENDBLK
  8
0
  0
BLOCK
  8
0
  2
BLK11
 70
     2
 10
0.0
 20
0.0
 30
0.0
  0
CIRCLE
  5
159
  8
0
  6
CADDY_SOLID
 10
125.0
 20
92.5
 30
0.0
 40
0.75
  0
LINE
  5
15A
  8
0
  6
CADDY_SOLID
 10
125.0
 20
93.25
 30
0.0
 11
125.0
 21
95.0
 31
0.0
  0
LINE
  5
15B
  8
0
  6
CADDY_SOLID
 10
125.0
 20
90.0
 30
0.0
 11
125.0
 21
91.75
 31
0.0
  0
ATTDEF
  5
15E
  8
0
 10
103.2434540206909
 20
91.30000305175781
 30
0.0
 40
2.450004577636719
  1
-X10
 41
0.9
  7
CADDY_VECTORFONT1P
 72
     2
 11
120.0499954223633
 21
91.30000305175781
 31
0.0
  3
Produkt (-)
  2
$TAG160010
 70
     1
  0
ATTDEF
  5
160
  8
0
 10
124.0999908447266
 20
94.19999694824219
 30
0.0
 40
2.450004577636719
  1
8
 50
90.0
 41
0.9
  7
CADDY_VECTORFONT1P
  3
Klemmenummer
  2
$TAG160400
 70
     0
  0
ATTDEF
  5
162
  8
0
 10
127.5999908447266
 20
94.19999694824219
 30
0.0
 40
2.450004577636719
  1
122
 50
90.0
 41
0.9
  7
CADDY_VECTORFONT1P
  3
Sorteringsindeks
  2
$TAG160410
 70
     1
  0
ATTDEF
  5
164
  8
0
 10
102.7517381019592
 20
87.80000305175781
 30
0.0
 40
2.450004577636719
  1

 41
0.9
  7
CADDY_VECTORFONT1P
 72
     2
 11
120.0499954223633
 21
87.80000305175781
 31
0.0
  3
Beskrivelse 00
  2
$TAG160030
 70
     1
  0
ATTDEF
  5
166
  8
0
 10
102.5070055328369
 20
82.80000305175781
 30
0.0
 40
2.450004577636719
  1
AB1RR235U2GR
 41
0.9
  7
CADDY_VECTORFONT1P
 72
     2
 11
120.0500183105469
 21
82.80000305175781
 31
0.0
  3
Type
  2
$TAG160040
 70
     1
  0
ATTDEF
  5
168
  8
0
 10
102.5069902740479
 20
98.30000305175781
 30
0.0
 40
2.450004577636719
  1
=
 41
0.9
  7
CADDY_VECTORFONT1P
 72
     2
 11
120.0500030517578
 21
98.30000305175781
 31
0.0
  3
Funktion (=)
  2
$TAG140020
 70
     1
  0
ATTDEF
  5
16A
  8
0
 10
102.5069826446533
 20
94.80000305175781
 30
0.0
 40
2.450004577636719
  1
+
 41
0.9
  7
CADDY_VECTORFONT1P
 72
     2
 11
120.0499954223633
 21
94.80000305175781
 31
0.0
  3
Placering (+)
  2
$TAG140050
 70
     1
  0
ENDBLK
  8
0
  0
BLOCK
  8
0
  2
BLK12
 70
     2
 10
0.0
 20
0.0
 30
0.0
  0
CIRCLE
  5
16F
  8
0
  6
CADDY_SOLID
 10
120.0
 20
92.5
 30
0.0
 40
0.75
  0
LINE
  5
170
  8
0
  6
CADDY_SOLID
 10
120.0
 20
93.25
 30
0.0
 11
120.0
 21
95.0
 31
0.0
  0
LINE
  5
171
  8
0
  6
CADDY_SOLID
 10
120.0
 20
90.0
 30
0.0
 11
120.0
 21
91.75
 31
0.0
  0
ATTDEF
  5
174
  8
0
 10
98.24345402069092
 20
91.30000305175781
 30
0.0
 40
2.450004577636719
  1
-X10
 41
0.9
  7
CADDY_VECTORFONT1P
 72
     2
 11
115.0499954223633
 21
91.30000305175781
 31
0.0
  3
Produkt (-)
  2
$TAG160010
 70
     1
  0
ATTDEF
  5
176
  8
0
 10
119.0999908447266
 20
94.19999694824219
 30
0.0
 40
2.450004577636719
  1
7
 50
90.0
 41
0.9
  7
CADDY_VECTORFONT1P
  3
Klemmenummer
  2
$TAG160400
 70
     0
  0
ATTDEF
  5
178
  8
0
 10
122.5999908447266
 20
94.19999694824219
 30
0.0
 40
2.450004577636719
  1
123
 50
90.0
 41
0.9
  7
CADDY_VECTORFONT1P
  3
Sorteringsindeks
  2
$TAG160410
 70
     1
  0
ATTDEF
  5
17A
  8
0
 10
97.75173810195923
 20
87.80000305175781
 30
0.0
 40
2.450004577636719
  1

 41
0.9
  7
CADDY_VECTORFONT1P
 72
     2
 11
115.0499954223633
 21
87.80000305175781
 31
0.0
  3
Beskrivelse 00
  2
$TAG160030
 70
     1
  0
ATTDEF
  5
17C
  8
0
 10
97.50700553283691
 20
82.80000305175781
 30
0.0
 40
2.450004577636719
  1
AB1RR235U2GR
 41
0.9
  7
CADDY_VECTORFONT1P
 72
     2
 11
115.0500183105469
 21
82.80000305175781
 31
0.0
  3
Type
  2
$TAG160040
 70
     1
  0
ATTDEF
  5
17E
  8
0
 10
97.50699027404785
 20
98.30000305175781
 30
0.0
 40
2.450004577636719
  1
=
 41
0.9
  7
CADDY_VECTORFONT1P
 72
     2
 11
115.0500030517578
 21
98.30000305175781
 31
0.0
  3
Funktion (=)
  2
$TAG140020
 70
     1
  0
ATTDEF
  5
180
  8
0
 10
97.50698264465332
 20
94.80000305175781
 30
0.0
 40
2.450004577636719
  1
+
 41
0.9
  7
CADDY_VECTORFONT1P
 72
     2
 11
115.0499954223633
 21
94.80000305175781
 31
0.0
  3
Placering (+)
  2
$TAG140050
 70
     1
  0
ENDBLK
  8
0
  0
BLOCK
  8
0
  2
BLK13
 70
     2
 10
0.0
 20
0.0
 30
0.0
  0
CIRCLE
  5
185
  8
0
  6
CADDY_SOLID
 10
115.0
 20
92.5
 30
0.0
 40
0.75
  0
LINE
  5
186
  8
0
  6
CADDY_SOLID
 10
115.0
 20
93.25
 30
0.0
 11
115.0
 21
95.0
 31
0.0
  0
LINE
  5
187
  8
0
  6
CADDY_SOLID
 10
115.0
 20
90.0
 30
0.0
 11
115.0
 21
91.75
 31
0.0
  0
ATTDEF
  5
18A
  8
0
 10
93.24345402069092
 20
91.30000305175781
 30
0.0
 40
2.450004577636719
  1
-X10
 41
0.9
  7
CADDY_VECTORFONT1P
 72
     2
 11
110.0499954223633
 21
91.30000305175781
 31
0.0
  3
Produkt (-)
  2
$TAG160010
 70
     1
  0
ATTDEF
  5
18C
  8
0
 10
114.0999908447266
 20
94.19999694824219
 30
0.0
 40
2.450004577636719
  1
6
 50
90.0
 41
0.9
  7
CADDY_VECTORFONT1P
  3
Klemmenummer
  2
$TAG160400
 70
     0
  0
ATTDEF
  5
18E
  8
0
 10
117.5999908447266
 20
94.19999694824219
 30
0.0
 40
2.450004577636719
  1
124
 50
90.0
 41
0.9
  7
CADDY_VECTORFONT1P
  3
Sorteringsindeks
  2
$TAG160410
 70
     1
  0
ATTDEF
  5
190
  8
0
 10
92.75173810195923
 20
87.80000305175781
 30
0.0
 40
2.450004577636719
  1

 41
0.9
  7
CADDY_VECTORFONT1P
 72
     2
 11
110.0499954223633
 21
87.80000305175781
 31
0.0
  3
Beskrivelse 00
  2
$TAG160030
 70
     1
  0
ATTDEF
  5
192
  8
0
 10
92.50700553283691
 20
82.80000305175781
 30
0.0
 40
2.450004577636719
  1
AB1RR235U2GR
 41
0.9
  7
CADDY_VECTORFONT1P
 72
     2
 11
110.0500183105469
 21
82.80000305175781
 31
0.0
  3
Type
  2
$TAG160040
 70
     1
  0
ATTDEF
  5
194
  8
0
 10
92.50699027404785
 20
98.30000305175781
 30
0.0
 40
2.450004577636719
  1
=
 41
0.9
  7
CADDY_VECTORFONT1P
 72
     2
 11
110.0500030517578
 21
98.30000305175781
 31
0.0
  3
Funktion (=)
  2
$TAG140020
 70
     1
  0
ATTDEF
  5
196
  8
0
 10
92.50698264465332
 20
94.80000305175781
 30
0.0
 40
2.450004577636719
  1
+
 41
0.9
  7
CADDY_VECTORFONT1P
 72
     2
 11
110.0499954223633
 21
94.80000305175781
 31
0.0
  3
Placering (+)
  2
$TAG140050
 70
     1
  0
ENDBLK
  8
0
  0
BLOCK
  8
0
  2
BLK14
 70
     2
 10
0.0
 20
0.0
 30
0.0
  0
CIRCLE
  5
19B
  8
0
  6
CADDY_SOLID
 10
110.0
 20
92.5
 30
0.0
 40
0.75
  0
LINE
  5
19C
  8
0
  6
CADDY_SOLID
 10
110.0
 20
93.25
 30
0.0
 11
110.0
 21
95.0
 31
0.0
  0
LINE
  5
19D
  8
0
  6
CADDY_SOLID
 10
110.0
 20
90.0
 30
0.0
 11
110.0
 21
91.75
 31
0.0
  0
ATTDEF
  5
1A0
  8
0
 10
88.24345402069092
 20
91.30000305175781
 30
0.0
 40
2.450004577636719
  1
X9
 41
0.9
  7
CADDY_VECTORFONT1P
 72
     2
 11
105.0499954223633
 21
91.30000305175781
 31
0.0
  3
Produkt (-)
  2
$TAG160010
 70
     0
  0
ATTDEF
  5
1A2
  8
0
 10
109.0999908447266
 20
94.19999694824219
 30
0.0
 40
2.450004577636719
  1
5
 50
90.0
 41
0.9
  7
CADDY_VECTORFONT1P
  3
Klemmenummer
  2
$TAG160400
 70
     0
  0
ATTDEF
  5
1A4
  8
0
 10
112.5999908447266
 20
94.19999694824219
 30
0.0
 40
2.450004577636719
  1
125
 50
90.0
 41
0.9
  7
CADDY_VECTORFONT1P
  3
Sorteringsindeks
  2
$TAG160410
 70
     1
  0
ATTDEF
  5
1A6
  8
0
 10
87.75173810195923
 20
87.80000305175781
 30
0.0
 40
2.450004577636719
  1

 41
0.9
  7
CADDY_VECTORFONT1P
 72
     2
 11
105.0499954223633
 21
87.80000305175781
 31
0.0
  3
Beskrivelse 00
  2
$TAG160030
 70
     1
  0
ATTDEF
  5
1A8
  8
0
 10
87.50700553283691
 20
82.80000305175781
 30
0.0
 40
2.450004577636719
  1
AB1RR235U2GR
 41
0.9
  7
CADDY_VECTORFONT1P
 72
     2
 11
105.0500183105469
 21
82.80000305175781
 31
0.0
  3
Type
  2
$TAG160040
 70
     1
  0
ATTDEF
  5
1AA
  8
0
 10
87.50699027404785
 20
98.30000305175781
 30
0.0
 40
2.450004577636719
  1
=
 41
0.9
  7
CADDY_VECTORFONT1P
 72
     2
 11
105.0500030517578
 21
98.30000305175781
 31
0.0
  3
Funktion (=)
  2
$TAG140020
 70
     1
  0
ATTDEF
  5
1AC
  8
0
 10
87.50698264465332
 20
94.80000305175781
 30
0.0
 40
2.450004577636719
  1
+
 41
0.9
  7
CADDY_VECTORFONT1P
 72
     2
 11
105.0499954223633
 21
94.80000305175781
 31
0.0
  3
Placering (+)
  2
$TAG140050
 70
     1
  0
ENDBLK
  8
0
  0
BLOCK
  8
0
  2
BLK15
 70
     2
 10
0.0
 20
0.0
 30
0.0
  0
CIRCLE
  5
1B5
  8
0
  6
CADDY_SOLID
 10
165.0
 20
92.5
 30
0.0
 40
0.75
  0
LINE
  5
1B6
  8
0
  6
CADDY_SOLID
 10
165.0
 20
93.25
 30
0.0
 11
165.0
 21
95.0
 31
0.0
  0
LINE
  5
1B7
  8
0
  6
CADDY_SOLID
 10
165.0
 20
90.0
 30
0.0
 11
165.0
 21
91.75
 31
0.0
  0
ATTDEF
  5
1BA
  8
0
 10
143.2434616500855
 20
91.30000305175781
 30
0.0
 40
2.450004577636719
  1
-X10
 41
0.9
  7
CADDY_VECTORFONT1P
 72
     2
 11
160.0500030517578
 21
91.30000305175781
 31
0.0
  3
Produkt (-)
  2
$TAG160010
 70
     1
  0
ATTDEF
  5
1BC
  8
0
 10
164.0999908447266
 20
94.19999694824219
 30
0.0
 40
2.450004577636719
  1
12
 50
90.0
 41
0.9
  7
CADDY_VECTORFONT1P
  3
Klemmenummer
  2
$TAG160400
 70
     0
  0
ATTDEF
  5
1BE
  8
0
 10
167.5999908447266
 20
94.19999694824219
 30
0.0
 40
2.450004577636719
  1
122
 50
90.0
 41
0.9
  7
CADDY_VECTORFONT1P
  3
Sorteringsindeks
  2
$TAG160410
 70
     1
  0
ATTDEF
  5
1C0
  8
0
 10
142.7517457313538
 20
87.80000305175781
 30
0.0
 40
2.450004577636719
  1

 41
0.9
  7
CADDY_VECTORFONT1P
 72
     2
 11
160.0500030517578
 21
87.80000305175781
 31
0.0
  3
Beskrivelse 00
  2
$TAG160030
 70
     1
  0
ATTDEF
  5
1C2
  8
0
 10
142.5070055328369
 20
82.80000305175781
 30
0.0
 40
2.450004577636719
  1
AB1RR235U2GR
 41
0.9
  7
CADDY_VECTORFONT1P
 72
     2
 11
160.0500183105469
 21
82.80000305175781
 31
0.0
  3
Type
  2
$TAG160040
 70
     1
  0
ATTDEF
  5
1C4
  8
0
 10
142.5069902740478
 20
98.30000305175781
 30
0.0
 40
2.450004577636719
  1
=
 41
0.9
  7
CADDY_VECTORFONT1P
 72
     2
 11
160.0500030517578
 21
98.30000305175781
 31
0.0
  3
Funktion (=)
  2
$TAG140020
 70
     1
  0
ATTDEF
  5
1C6
  8
0
 10
142.5069750152588
 20
94.80000305175781
 30
0.0
 40
2.450004577636719
  1
+
 41
0.9
  7
CADDY_VECTORFONT1P
 72
     2
 11
160.0499877929688
 21
94.80000305175781
 31
0.0
  3
Placering (+)
  2
$TAG140050
 70
     1
  0
ENDBLK
  8
0
  0
BLOCK
  8
0
  2
BLK16
 70
     2
 10
0.0
 20
0.0
 30
0.0
  0
CIRCLE
  5
1CB
  8
0
  6
CADDY_SOLID
 10
160.0
 20
92.5
 30
0.0
 40
0.75
  0
LINE
  5
1CC
  8
0
  6
CADDY_SOLID
 10
160.0
 20
93.25
 30
0.0
 11
160.0
 21
95.0
 31
0.0
  0
LINE
  5
1CD
  8
0
  6
CADDY_SOLID
 10
160.0
 20
90.0
 30
0.0
 11
160.0
 21
91.75
 31
0.0
  0
ATTDEF
  5
1D0
  8
0
 10
138.2434616500855
 20
91.30000305175781
 30
0.0
 40
2.450004577636719
  1
-X10
 41
0.9
  7
CADDY_VECTORFONT1P
 72
     2
 11
155.0500030517578
 21
91.30000305175781
 31
0.0
  3
Produkt (-)
  2
$TAG160010
 70
     1
  0
ATTDEF
  5
1D2
  8
0
 10
159.0999908447266
 20
94.19999694824219
 30
0.0
 40
2.450004577636719
  1
11
 50
90.0
 41
0.9
  7
CADDY_VECTORFONT1P
  3
Klemmenummer
  2
$TAG160400
 70
     0
  0
ATTDEF
  5
1D4
  8
0
 10
162.5999908447266
 20
94.19999694824219
 30
0.0
 40
2.450004577636719
  1
123
 50
90.0
 41
0.9
  7
CADDY_VECTORFONT1P
  3
Sorteringsindeks
  2
$TAG160410
 70
     1
  0
ATTDEF
  5
1D6
  8
0
 10
137.7517457313538
 20
87.80000305175781
 30
0.0
 40
2.450004577636719
  1

 41
0.9
  7
CADDY_VECTORFONT1P
 72
     2
 11
155.0500030517578
 21
87.80000305175781
 31
0.0
  3
Beskrivelse 00
  2
$TAG160030
 70
     1
  0
ATTDEF
  5
1D8
  8
0
 10
137.5070055328369
 20
82.80000305175781
 30
0.0
 40
2.450004577636719
  1
AB1RR235U2GR
 41
0.9
  7
CADDY_VECTORFONT1P
 72
     2
 11
155.0500183105469
 21
82.80000305175781
 31
0.0
  3
Type
  2
$TAG160040
 70
     1
  0
ATTDEF
  5
1DA
  8
0
 10
137.5069902740478
 20
98.30000305175781
 30
0.0
 40
2.450004577636719
  1
=
 41
0.9
  7
CADDY_VECTORFONT1P
 72
     2
 11
155.0500030517578
 21
98.30000305175781
 31
0.0
  3
Funktion (=)
  2
$TAG140020
 70
     1
  0
ATTDEF
  5
1DC
  8
0
 10
137.5069750152588
 20
94.80000305175781
 30
0.0
 40
2.450004577636719
  1
+
 41
0.9
  7
CADDY_VECTORFONT1P
 72
     2
 11
155.0499877929688
 21
94.80000305175781
 31
0.0
  3
Placering (+)
  2
$TAG140050
 70
     1
  0
ENDBLK
  8
0
  0
BLOCK
  8
0
  2
BLK17
 70
     2
 10
0.0
 20
0.0
 30
0.0
  0
CIRCLE
  5
1E1
  8
0
  6
CADDY_SOLID
 10
155.0
 20
92.5
 30
0.0
 40
0.75
  0
LINE
  5
1E2
  8
0
  6
CADDY_SOLID
 10
155.0
 20
93.25
 30
0.0
 11
155.0
 21
95.0
 31
0.0
  0
LINE
  5
1E3
  8
0
  6
CADDY_SOLID
 10
155.0
 20
90.0
 30
0.0
 11
155.0
 21
91.75
 31
0.0
  0
ATTDEF
  5
1E6
  8
0
 10
133.2434616500855
 20
91.30000305175781
 30
0.0
 40
2.450004577636719
  1
-X10
 41
0.9
  7
CADDY_VECTORFONT1P
 72
     2
 11
150.0500030517578
 21
91.30000305175781
 31
0.0
  3
Produkt (-)
  2
$TAG160010
 70
     1
  0
ATTDEF
  5
1E8
  8
0
 10
154.0999908447266
 20
94.19999694824219
 30
0.0
 40
2.450004577636719
  1
10
 50
90.0
 41
0.9
  7
CADDY_VECTORFONT1P
  3
Klemmenummer
  2
$TAG160400
 70
     0
  0
ATTDEF
  5
1EA
  8
0
 10
157.5999908447266
 20
94.19999694824219
 30
0.0
 40
2.450004577636719
  1
124
 50
90.0
 41
0.9
  7
CADDY_VECTORFONT1P
  3
Sorteringsindeks
  2
$TAG160410
 70
     1
  0
ATTDEF
  5
1EC
  8
0
 10
132.7517457313538
 20
87.80000305175781
 30
0.0
 40
2.450004577636719
  1

 41
0.9
  7
CADDY_VECTORFONT1P
 72
     2
 11
150.0500030517578
 21
87.80000305175781
 31
0.0
  3
Beskrivelse 00
  2
$TAG160030
 70
     1
  0
ATTDEF
  5
1EE
  8
0
 10
132.507020791626
 20
82.80000305175781
 30
0.0
 40
2.450004577636719
  1
AB1RR235U2GR
 41
0.9
  7
CADDY_VECTORFONT1P
 72
     2
 11
150.0500335693359
 21
82.80000305175781
 31
0.0
  3
Type
  2
$TAG160040
 70
     1
  0
ATTDEF
  5
1F0
  8
0
 10
132.5069902740478
 20
98.30000305175781
 30
0.0
 40
2.450004577636719
  1
=
 41
0.9
  7
CADDY_VECTORFONT1P
 72
     2
 11
150.0500030517578
 21
98.30000305175781
 31
0.0
  3
Funktion (=)
  2
$TAG140020
 70
     1
  0
ATTDEF
  5
1F2
  8
0
 10
132.5069750152588
 20
94.80000305175781
 30
0.0
 40
2.450004577636719
  1
+
 41
0.9
  7
CADDY_VECTORFONT1P
 72
     2
 11
150.0499877929688
 21
94.80000305175781
 31
0.0
  3
Placering (+)
  2
$TAG140050
 70
     1
  0
ENDBLK
  8
0
  0
BLOCK
  8
0
  2
BLK18
 70
     2
 10
0.0
 20
0.0
 30
0.0
  0
CIRCLE
  5
1F7
  8
0
  6
CADDY_SOLID
 10
150.0
 20
92.5
 30
0.0
 40
0.75
  0
LINE
  5
1F8
  8
0
  6
CADDY_SOLID
 10
150.0
 20
93.25
 30
0.0
 11
150.0
 21
95.0
 31
0.0
  0
LINE
  5
1F9
  8
0
  6
CADDY_SOLID
 10
150.0
 20
90.0
 30
0.0
 11
150.0
 21
91.75
 31
0.0
  0
ATTDEF
  5
1FC
  8
0
 10
128.2434616500855
 20
91.30000305175781
 30
0.0
 40
2.450004577636719
  1
X9
 41
0.9
  7
CADDY_VECTORFONT1P
 72
     2
 11
145.0500030517578
 21
91.30000305175781
 31
0.0
  3
Produkt (-)
  2
$TAG160010
 70
     0
  0
ATTDEF
  5
1FE
  8
0
 10
149.0999908447266
 20
94.19999694824219
 30
0.0
 40
2.450004577636719
  1
9
 50
90.0
 41
0.9
  7
CADDY_VECTORFONT1P
  3
Klemmenummer
  2
$TAG160400
 70
     0
  0
ATTDEF
  5
200
  8
0
 10
152.5999908447266
 20
94.19999694824219
 30
0.0
 40
2.450004577636719
  1
125
 50
90.0
 41
0.9
  7
CADDY_VECTORFONT1P
  3
Sorteringsindeks
  2
$TAG160410
 70
     1
  0
ATTDEF
  5
202
  8
0
 10
127.7517457313538
 20
87.80000305175781
 30
0.0
 40
2.450004577636719
  1

 41
0.9
  7
CADDY_VECTORFONT1P
 72
     2
 11
145.0500030517578
 21
87.80000305175781
 31
0.0
  3
Beskrivelse 00
  2
$TAG160030
 70
     1
  0
ATTDEF
  5
204
  8
0
 10
127.5070055328369
 20
82.80000305175781
 30
0.0
 40
2.450004577636719
  1
AB1RR235U2GR
 41
0.9
  7
CADDY_VECTORFONT1P
 72
     2
 11
145.0500183105469
 21
82.80000305175781
 31
0.0
  3
Type
  2
$TAG160040
 70
     1
  0
ATTDEF
  5
206
  8
0
 10
127.5069902740479
 20
98.30000305175781
 30
0.0
 40
2.450004577636719
  1
=
 41
0.9
  7
CADDY_VECTORFONT1P
 72
     2
 11
145.0500030517578
 21
98.30000305175781
 31
0.0
  3
Funktion (=)
  2
$TAG140020
 70
     1
  0
ATTDEF
  5
208
  8
0
 10
127.5069750152588
 20
94.80000305175781
 30
0.0
 40
2.450004577636719
  1
+
 41
0.9
  7
CADDY_VECTORFONT1P
 72
     2
 11
145.0499877929688
 21
94.80000305175781
 31
0.0
  3
Placering (+)
  2
$TAG140050
 70
     1
  0
ENDBLK
  8
0
  0
BLOCK
  8
0
  2
BLK19
 70
     2
 10
0.0
 20
0.0
 30
0.0
  0
CIRCLE
  5
20D
  8
0
  6
CADDY_SOLID
 10
205.0
 20
92.5
 30
0.0
 40
0.75
  0
LINE
  5
20E
  8
0
  6
CADDY_SOLID
 10
205.0
 20
93.25
 30
0.0
 11
205.0
 21
95.0
 31
0.0
  0
LINE
  5
20F
  8
0
  6
CADDY_SOLID
 10
205.0
 20
90.0
 30
0.0
 11
205.0
 21
91.75
 31
0.0
  0
ATTDEF
  5
212
  8
0
 10
183.2434616500855
 20
91.30000305175781
 30
0.0
 40
2.450004577636719
  1
-X10
 41
0.9
  7
CADDY_VECTORFONT1P
 72
     2
 11
200.0500030517578
 21
91.30000305175781
 31
0.0
  3
Produkt (-)
  2
$TAG160010
 70
     1
  0
ATTDEF
  5
214
  8
0
 10
204.0999908447266
 20
94.19999694824219
 30
0.0
 40
2.450004577636719
  1
16
 50
90.0
 41
0.9
  7
CADDY_VECTORFONT1P
  3
Klemmenummer
  2
$TAG160400
 70
     0
  0
ATTDEF
  5
216
  8
0
 10
207.5999908447266
 20
94.19999694824219
 30
0.0
 40
2.450004577636719
  1
122
 50
90.0
 41
0.9
  7
CADDY_VECTORFONT1P
  3
Sorteringsindeks
  2
$TAG160410
 70
     1
  0
ATTDEF
  5
218
  8
0
 10
182.7517457313538
 20
87.80000305175781
 30
0.0
 40
2.450004577636719
  1

 41
0.9
  7
CADDY_VECTORFONT1P
 72
     2
 11
200.0500030517578
 21
87.80000305175781
 31
0.0
  3
Beskrivelse 00
  2
$TAG160030
 70
     1
  0
ATTDEF
  5
21A
  8
0
 10
182.5070055328369
 20
82.80000305175781
 30
0.0
 40
2.450004577636719
  1
AB1RR235U2GR
 41
0.9
  7
CADDY_VECTORFONT1P
 72
     2
 11
200.0500183105469
 21
82.80000305175781
 31
0.0
  3
Type
  2
$TAG160040
 70
     1
  0
ATTDEF
  5
21C
  8
0
 10
182.5069902740478
 20
98.30000305175781
 30
0.0
 40
2.450004577636719
  1
=
 41
0.9
  7
CADDY_VECTORFONT1P
 72
     2
 11
200.0500030517578
 21
98.30000305175781
 31
0.0
  3
Funktion (=)
  2
$TAG140020
 70
     1
  0
ATTDEF
  5
21E
  8
0
 10
182.5069750152588
 20
94.80000305175781
 30
0.0
 40
2.450004577636719
  1
+
 41
0.9
  7
CADDY_VECTORFONT1P
 72
     2
 11
200.0499877929688
 21
94.80000305175781
 31
0.0
  3
Placering (+)
  2
$TAG140050
 70
     1
  0
ENDBLK
  8
0
  0
BLOCK
  8
0
  2
BLK20
 70
     2
 10
0.0
 20
0.0
 30
0.0
  0
CIRCLE
  5
223
  8
0
  6
CADDY_SOLID
 10
200.0
 20
92.5
 30
0.0
 40
0.75
  0
LINE
  5
224
  8
0
  6
CADDY_SOLID
 10
200.0
 20
93.25
 30
0.0
 11
200.0
 21
95.0
 31
0.0
  0
LINE
  5
225
  8
0
  6
CADDY_SOLID
 10
200.0
 20
90.0
 30
0.0
 11
200.0
 21
91.75
 31
0.0
  0
ATTDEF
  5
228
  8
0
 10
178.2434616500855
 20
91.30000305175781
 30
0.0
 40
2.450004577636719
  1
-X10
 41
0.9
  7
CADDY_VECTORFONT1P
 72
     2
 11
195.0500030517578
 21
91.30000305175781
 31
0.0
  3
Produkt (-)
  2
$TAG160010
 70
     1
  0
ATTDEF
  5
22A
  8
0
 10
199.0999908447266
 20
94.19999694824219
 30
0.0
 40
2.450004577636719
  1
15
 50
90.0
 41
0.9
  7
CADDY_VECTORFONT1P
  3
Klemmenummer
  2
$TAG160400
 70
     0
  0
ATTDEF
  5
22C
  8
0
 10
202.5999908447266
 20
94.19999694824219
 30
0.0
 40
2.450004577636719
  1
123
 50
90.0
 41
0.9
  7
CADDY_VECTORFONT1P
  3
Sorteringsindeks
  2
$TAG160410
 70
     1
  0
ATTDEF
  5
22E
  8
0
 10
177.7517457313538
 20
87.80000305175781
 30
0.0
 40
2.450004577636719
  1

 41
0.9
  7
CADDY_VECTORFONT1P
 72
     2
 11
195.0500030517578
 21
87.80000305175781
 31
0.0
  3
Beskrivelse 00
  2
$TAG160030
 70
     1
  0
ATTDEF
  5
230
  8
0
 10
177.5070055328369
 20
82.80000305175781
 30
0.0
 40
2.450004577636719
  1
AB1RR235U2GR
 41
0.9
  7
CADDY_VECTORFONT1P
 72
     2
 11
195.0500183105469
 21
82.80000305175781
 31
0.0
  3
Type
  2
$TAG160040
 70
     1
  0
ATTDEF
  5
232
  8
0
 10
177.5069902740478
 20
98.30000305175781
 30
0.0
 40
2.450004577636719
  1
=
 41
0.9
  7
CADDY_VECTORFONT1P
 72
     2
 11
195.0500030517578
 21
98.30000305175781
 31
0.0
  3
Funktion (=)
  2
$TAG140020
 70
     1
  0
ATTDEF
  5
234
  8
0
 10
177.5069750152588
 20
94.80000305175781
 30
0.0
 40
2.450004577636719
  1
+
 41
0.9
  7
CADDY_VECTORFONT1P
 72
     2
 11
195.0499877929688
 21
94.80000305175781
 31
0.0
  3
Placering (+)
  2
$TAG140050
 70
     1
  0
ENDBLK
  8
0
  0
BLOCK
  8
0
  2
BLK21
 70
     2
 10
0.0
 20
0.0
 30
0.0
  0
CIRCLE
  5
239
  8
0
  6
CADDY_SOLID
 10
195.0
 20
92.5
 30
0.0
 40
0.75
  0
LINE
  5
23A
  8
0
  6
CADDY_SOLID
 10
195.0
 20
93.25
 30
0.0
 11
195.0
 21
95.0
 31
0.0
  0
LINE
  5
23B
  8
0
  6
CADDY_SOLID
 10
195.0
 20
90.0
 30
0.0
 11
195.0
 21
91.75
 31
0.0
  0
ATTDEF
  5
23E
  8
0
 10
173.2434616500855
 20
91.30000305175781
 30
0.0
 40
2.450004577636719
  1
-X10
 41
0.9
  7
CADDY_VECTORFONT1P
 72
     2
 11
190.0500030517578
 21
91.30000305175781
 31
0.0
  3
Produkt (-)
  2
$TAG160010
 70
     1
  0
ATTDEF
  5
240
  8
0
 10
194.0999908447266
 20
94.19999694824219
 30
0.0
 40
2.450004577636719
  1
14
 50
90.0
 41
0.9
  7
CADDY_VECTORFONT1P
  3
Klemmenummer
  2
$TAG160400
 70
     0
  0
ATTDEF
  5
242
  8
0
 10
197.5999908447266
 20
94.19999694824219
 30
0.0
 40
2.450004577636719
  1
124
 50
90.0
 41
0.9
  7
CADDY_VECTORFONT1P
  3
Sorteringsindeks
  2
$TAG160410
 70
     1
  0
ATTDEF
  5
244
  8
0
 10
172.7517457313538
 20
87.80000305175781
 30
0.0
 40
2.450004577636719
  1

 41
0.9
  7
CADDY_VECTORFONT1P
 72
     2
 11
190.0500030517578
 21
87.80000305175781
 31
0.0
  3
Beskrivelse 00
  2
$TAG160030
 70
     1
  0
ATTDEF
  5
246
  8
0
 10
172.5070055328369
 20
82.80000305175781
 30
0.0
 40
2.450004577636719
  1
AB1RR235U2GR
 41
0.9
  7
CADDY_VECTORFONT1P
 72
     2
 11
190.0500183105469
 21
82.80000305175781
 31
0.0
  3
Type
  2
$TAG160040
 70
     1
  0
ATTDEF
  5
248
  8
0
 10
172.5069902740478
 20
98.30000305175781
 30
0.0
 40
2.450004577636719
  1
=
 41
0.9
  7
CADDY_VECTORFONT1P
 72
     2
 11
190.0500030517578
 21
98.30000305175781
 31
0.0
  3
Funktion (=)
  2
$TAG140020
 70
     1
  0
ATTDEF
  5
24A
  8
0
 10
172.5069750152588
 20
94.80000305175781
 30
0.0
 40
2.450004577636719
  1
+
 41
0.9
  7
CADDY_VECTORFONT1P
 72
     2
 11
190.0499877929688
 21
94.80000305175781
 31
0.0
  3
Placering (+)
  2
$TAG140050
 70
     1
  0
ENDBLK
  8
0
  0
BLOCK
  8
0
  2
BLK22
 70
     2
 10
0.0
 20
0.0
 30
0.0
  0
CIRCLE
  5
24F
  8
0
  6
CADDY_SOLID
 10
190.0
 20
92.5
 30
0.0
 40
0.75
  0
LINE
  5
250
  8
0
  6
CADDY_SOLID
 10
190.0
 20
93.25
 30
0.0
 11
190.0
 21
95.0
 31
0.0
  0
LINE
  5
251
  8
0
  6
CADDY_SOLID
 10
190.0
 20
90.0
 30
0.0
 11
190.0
 21
91.75
 31
0.0
  0
ATTDEF
  5
254
  8
0
 10
168.2434616500855
 20
91.30000305175781
 30
0.0
 40
2.450004577636719
  1
X9
 41
0.9
  7
CADDY_VECTORFONT1P
 72
     2
 11
185.0500030517578
 21
91.30000305175781
 31
0.0
  3
Produkt (-)
  2
$TAG160010
 70
     0
  0
ATTDEF
  5
256
  8
0
 10
189.0999908447266
 20
94.19999694824219
 30
0.0
 40
2.450004577636719
  1
13
 50
90.0
 41
0.9
  7
CADDY_VECTORFONT1P
  3
Klemmenummer
  2
$TAG160400
 70
     0
  0
ATTDEF
  5
258
  8
0
 10
192.5999908447266
 20
94.19999694824219
 30
0.0
 40
2.450004577636719
  1
125
 50
90.0
 41
0.9
  7
CADDY_VECTORFONT1P
  3
Sorteringsindeks
  2
$TAG160410
 70
     1
  0
ATTDEF
  5
25A
  8
0
 10
167.7517457313538
 20
87.80000305175781
 30
0.0
 40
2.450004577636719
  1

 41
0.9
  7
CADDY_VECTORFONT1P
 72
     2
 11
185.0500030517578
 21
87.80000305175781
 31
0.0
  3
Beskrivelse 00
  2
$TAG160030
 70
     1
  0
ATTDEF
  5
25C
  8
0
 10
167.5070055328369
 20
82.80000305175781
 30
0.0
 40
2.450004577636719
  1
AB1RR235U2GR
 41
0.9
  7
CADDY_VECTORFONT1P
 72
     2
 11
185.0500183105469
 21
82.80000305175781
 31
0.0
  3
Type
  2
$TAG160040
 70
     1
  0
ATTDEF
  5
25E
  8
0
 10
167.5069902740478
 20
98.30000305175781
 30
0.0
 40
2.450004577636719
  1
=
 41
0.9
  7
CADDY_VECTORFONT1P
 72
     2
 11
185.0500030517578
 21
98.30000305175781
 31
0.0
  3
Funktion (=)
  2
$TAG140020
 70
     1
  0
ATTDEF
  5
260
  8
0
 10
167.5069750152588
 20
94.80000305175781
 30
0.0
 40
2.450004577636719
  1
+
 41
0.9
  7
CADDY_VECTORFONT1P
 72
     2
 11
185.0499877929688
 21
94.80000305175781
 31
0.0
  3
Placering (+)
  2
$TAG140050
 70
     1
  0
ENDBLK
  8
0
  0
BLOCK
  8
0
  2
BLK23
 70
     2
 10
0.0
 20
0.0
 30
0.0
  0
CIRCLE
  5
265
  8
0
  6
CADDY_SOLID
 10
245.0
 20
92.5
 30
0.0
 40
0.75
  0
LINE
  5
266
  8
0
  6
CADDY_SOLID
 10
245.0
 20
93.25
 30
0.0
 11
245.0
 21
95.0
 31
0.0
  0
LINE
  5
267
  8
0
  6
CADDY_SOLID
 10
245.0
 20
90.0
 30
0.0
 11
245.0
 21
91.75
 31
0.0
  0
ATTDEF
  5
26A
  8
0
 10
223.2434616500855
 20
91.30000305175781
 30
0.0
 40
2.450004577636719
  1
-X10
 41
0.9
  7
CADDY_VECTORFONT1P
 72
     2
 11
240.0500030517578
 21
91.30000305175781
 31
0.0
  3
Produkt (-)
  2
$TAG160010
 70
     1
  0
ATTDEF
  5
26C
  8
0
 10
244.0999908447266
 20
94.19999694824219
 30
0.0
 40
2.450004577636719
  1
20
 50
90.0
 41
0.9
  7
CADDY_VECTORFONT1P
  3
Klemmenummer
  2
$TAG160400
 70
     0
  0
ATTDEF
  5
26E
  8
0
 10
247.5999908447266
 20
94.19999694824219
 30
0.0
 40
2.450004577636719
  1
122
 50
90.0
 41
0.9
  7
CADDY_VECTORFONT1P
  3
Sorteringsindeks
  2
$TAG160410
 70
     1
  0
ATTDEF
  5
270
  8
0
 10
222.7517457313538
 20
87.80000305175781
 30
0.0
 40
2.450004577636719
  1

 41
0.9
  7
CADDY_VECTORFONT1P
 72
     2
 11
240.0500030517578
 21
87.80000305175781
 31
0.0
  3
Beskrivelse 00
  2
$TAG160030
 70
     1
  0
ATTDEF
  5
272
  8
0
 10
222.5070055328369
 20
82.80000305175781
 30
0.0
 40
2.450004577636719
  1
AB1RR235U2GR
 41
0.9
  7
CADDY_VECTORFONT1P
 72
     2
 11
240.0500183105469
 21
82.80000305175781
 31
0.0
  3
Type
  2
$TAG160040
 70
     1
  0
ATTDEF
  5
274
  8
0
 10
222.5069902740478
 20
98.30000305175781
 30
0.0
 40
2.450004577636719
  1
=
 41
0.9
  7
CADDY_VECTORFONT1P
 72
     2
 11
240.0500030517578
 21
98.30000305175781
 31
0.0
  3
Funktion (=)
  2
$TAG140020
 70
     1
  0
ATTDEF
  5
276
  8
0
 10
222.5069750152588
 20
94.80000305175781
 30
0.0
 40
2.450004577636719
  1
+
 41
0.9
  7
CADDY_VECTORFONT1P
 72
     2
 11
240.0499877929688
 21
94.80000305175781
 31
0.0
  3
Placering (+)
  2
$TAG140050
 70
     1
  0
ENDBLK
  8
0
  0
BLOCK
  8
0
  2
BLK24
 70
     2
 10
0.0
 20
0.0
 30
0.0
  0
CIRCLE
  5
27B
  8
0
  6
CADDY_SOLID
 10
240.0
 20
92.5
 30
0.0
 40
0.75
  0
LINE
  5
27C
  8
0
  6
CADDY_SOLID
 10
240.0
 20
93.25
 30
0.0
 11
240.0
 21
95.0
 31
0.0
  0
LINE
  5
27D
  8
0
  6
CADDY_SOLID
 10
240.0
 20
90.0
 30
0.0
 11
240.0
 21
91.75
 31
0.0
  0
ATTDEF
  5
280
  8
0
 10
218.2434616500855
 20
91.30000305175781
 30
0.0
 40
2.450004577636719
  1
-X10
 41
0.9
  7
CADDY_VECTORFONT1P
 72
     2
 11
235.0500030517578
 21
91.30000305175781
 31
0.0
  3
Produkt (-)
  2
$TAG160010
 70
     1
  0
ATTDEF
  5
282
  8
0
 10
239.0999908447266
 20
94.19999694824219
 30
0.0
 40
2.450004577636719
  1
19
 50
90.0
 41
0.9
  7
CADDY_VECTORFONT1P
  3
Klemmenummer
  2
$TAG160400
 70
     0
  0
ATTDEF
  5
284
  8
0
 10
242.5999908447266
 20
94.19999694824219
 30
0.0
 40
2.450004577636719
  1
123
 50
90.0
 41
0.9
  7
CADDY_VECTORFONT1P
  3
Sorteringsindeks
  2
$TAG160410
 70
     1
  0
ATTDEF
  5
286
  8
0
 10
217.7517457313538
 20
87.80000305175781
 30
0.0
 40
2.450004577636719
  1

 41
0.9
  7
CADDY_VECTORFONT1P
 72
     2
 11
235.0500030517578
 21
87.80000305175781
 31
0.0
  3
Beskrivelse 00
  2
$TAG160030
 70
     1
  0
ATTDEF
  5
288
  8
0
 10
217.5070055328369
 20
82.80000305175781
 30
0.0
 40
2.450004577636719
  1
AB1RR235U2GR
 41
0.9
  7
CADDY_VECTORFONT1P
 72
     2
 11
235.0500183105469
 21
82.80000305175781
 31
0.0
  3
Type
  2
$TAG160040
 70
     1
  0
ATTDEF
  5
28A
  8
0
 10
217.5069902740478
 20
98.30000305175781
 30
0.0
 40
2.450004577636719
  1
=
 41
0.9
  7
CADDY_VECTORFONT1P
 72
     2
 11
235.0500030517578
 21
98.30000305175781
 31
0.0
  3
Funktion (=)
  2
$TAG140020
 70
     1
  0
ATTDEF
  5
28C
  8
0
 10
217.5069750152588
 20
94.80000305175781
 30
0.0
 40
2.450004577636719
  1
+
 41
0.9
  7
CADDY_VECTORFONT1P
 72
     2
 11
235.0499877929688
 21
94.80000305175781
 31
0.0
  3
Placering (+)
  2
$TAG140050
 70
     1
  0
ENDBLK
  8
0
  0
BLOCK
  8
0
  2
BLK25
 70
     2
 10
0.0
 20
0.0
 30
0.0
  0
CIRCLE
  5
291
  8
0
  6
CADDY_SOLID
 10
235.0
 20
92.5
 30
0.0
 40
0.75
  0
LINE
  5
292
  8
0
  6
CADDY_SOLID
 10
235.0
 20
93.25
 30
0.0
 11
235.0
 21
95.0
 31
0.0
  0
LINE
  5
293
  8
0
  6
CADDY_SOLID
 10
235.0
 20
90.0
 30
0.0
 11
235.0
 21
91.75
 31
0.0
  0
ATTDEF
  5
296
  8
0
 10
213.2434616500855
 20
91.30000305175781
 30
0.0
 40
2.450004577636719
  1
-X10
 41
0.9
  7
CADDY_VECTORFONT1P
 72
     2
 11
230.0500030517578
 21
91.30000305175781
 31
0.0
  3
Produkt (-)
  2
$TAG160010
 70
     1
  0
ATTDEF
  5
298
  8
0
 10
234.0999908447266
 20
94.19999694824219
 30
0.0
 40
2.450004577636719
  1
18
 50
90.0
 41
0.9
  7
CADDY_VECTORFONT1P
  3
Klemmenummer
  2
$TAG160400
 70
     0
  0
ATTDEF
  5
29A
  8
0
 10
237.5999908447266
 20
94.19999694824219
 30
0.0
 40
2.450004577636719
  1
124
 50
90.0
 41
0.9
  7
CADDY_VECTORFONT1P
  3
Sorteringsindeks
  2
$TAG160410
 70
     1
  0
ATTDEF
  5
29C
  8
0
 10
212.7517457313538
 20
87.80000305175781
 30
0.0
 40
2.450004577636719
  1

 41
0.9
  7
CADDY_VECTORFONT1P
 72
     2
 11
230.0500030517578
 21
87.80000305175781
 31
0.0
  3
Beskrivelse 00
  2
$TAG160030
 70
     1
  0
ATTDEF
  5
29E
  8
0
 10
212.5070055328369
 20
82.80000305175781
 30
0.0
 40
2.450004577636719
  1
AB1RR235U2GR
 41
0.9
  7
CADDY_VECTORFONT1P
 72
     2
 11
230.0500183105469
 21
82.80000305175781
 31
0.0
  3
Type
  2
$TAG160040
 70
     1
  0
ATTDEF
  5
2A0
  8
0
 10
212.5069902740478
 20
98.30000305175781
 30
0.0
 40
2.450004577636719
  1
=
 41
0.9
  7
CADDY_VECTORFONT1P
 72
     2
 11
230.0500030517578
 21
98.30000305175781
 31
0.0
  3
Funktion (=)
  2
$TAG140020
 70
     1
  0
ATTDEF
  5
2A2
  8
0
 10
212.5069750152588
 20
94.80000305175781
 30
0.0
 40
2.450004577636719
  1
+
 41
0.9
  7
CADDY_VECTORFONT1P
 72
     2
 11
230.0499877929688
 21
94.80000305175781
 31
0.0
  3
Placering (+)
  2
$TAG140050
 70
     1
  0
ENDBLK
  8
0
  0
BLOCK
  8
0
  2
BLK26
 70
     2
 10
0.0
 20
0.0
 30
0.0
  0
CIRCLE
  5
2A7
  8
0
  6
CADDY_SOLID
 10
230.0
 20
92.5
 30
0.0
 40
0.75
  0
LINE
  5
2A8
  8
0
  6
CADDY_SOLID
 10
230.0
 20
93.25
 30
0.0
 11
230.0
 21
95.0
 31
0.0
  0
LINE
  5
2A9
  8
0
  6
CADDY_SOLID
 10
230.0
 20
90.0
 30
0.0
 11
230.0
 21
91.75
 31
0.0
  0
ATTDEF
  5
2AC
  8
0
 10
208.2434616500855
 20
91.30000305175781
 30
0.0
 40
2.450004577636719
  1
X9
 41
0.9
  7
CADDY_VECTORFONT1P
 72
     2
 11
225.0500030517578
 21
91.30000305175781
 31
0.0
  3
Produkt (-)
  2
$TAG160010
 70
     0
  0
ATTDEF
  5
2AE
  8
0
 10
229.0999908447266
 20
94.19999694824219
 30
0.0
 40
2.450004577636719
  1
17
 50
90.0
 41
0.9
  7
CADDY_VECTORFONT1P
  3
Klemmenummer
  2
$TAG160400
 70
     0
  0
ATTDEF
  5
2B0
  8
0
 10
232.5999908447266
 20
94.19999694824219
 30
0.0
 40
2.450004577636719
  1
125
 50
90.0
 41
0.9
  7
CADDY_VECTORFONT1P
  3
Sorteringsindeks
  2
$TAG160410
 70
     1
  0
ATTDEF
  5
2B2
  8
0
 10
207.7517457313538
 20
87.80000305175781
 30
0.0
 40
2.450004577636719
  1

 41
0.9
  7
CADDY_VECTORFONT1P
 72
     2
 11
225.0500030517578
 21
87.80000305175781
 31
0.0
  3
Beskrivelse 00
  2
$TAG160030
 70
     1
  0
ATTDEF
  5
2B4
  8
0
 10
207.5070055328369
 20
82.80000305175781
 30
0.0
 40
2.450004577636719
  1
AB1RR235U2GR
 41
0.9
  7
CADDY_VECTORFONT1P
 72
     2
 11
225.0500183105469
 21
82.80000305175781
 31
0.0
  3
Type
  2
$TAG160040
 70
     1
  0
ATTDEF
  5
2B6
  8
0
 10
207.5069902740478
 20
98.30000305175781
 30
0.0
 40
2.450004577636719
  1
=
 41
0.9
  7
CADDY_VECTORFONT1P
 72
     2
 11
225.0500030517578
 21
98.30000305175781
 31
0.0
  3
Funktion (=)
  2
$TAG140020
 70
     1
  0
ATTDEF
  5
2B8
  8
0
 10
207.5069750152588
 20
94.80000305175781
 30
0.0
 40
2.450004577636719
  1
+
 41
0.9
  7
CADDY_VECTORFONT1P
 72
     2
 11
225.0499877929688
 21
94.80000305175781
 31
0.0
  3
Placering (+)
  2
$TAG140050
 70
     1
  0
ENDBLK
  8
0
  0
BLOCK
  8
0
  2
BLK27
 70
     2
 10
0.0
 20
0.0
 30
0.0
  0
LINE
  5
2D7
  8
0
  6
CADDY_SOLID
 10
267.5
 20
240.0
 30
0.0
 11
265.25
 21
241.25
 31
0.0
  0
LINE
  5
2D8
  8
0
  6
CADDY_SOLID
 10
267.5
 20
240.0
 30
0.0
 11
265.25
 21
238.75
 31
0.0
  0
LINE
  5
2D9
  8
0
  6
CADDY_SOLID
 10
265.0
 20
240.0
 30
0.0
 11
267.5
 21
240.0
 31
0.0
  0
ATTDEF
  5
2DC
  8
0
 10
245.6935109344483
 20
240.9000091552734
 30
0.0
 40
2.449996948242188
  1
0910
 41
0.9
  7
CADDY_VECTORFONT1P
 72
     2
 11
262.5
 21
240.9000091552734
 31
0.0
  3
Produkt (-)
  2
$TAG160010
 70
     0
  0
ATTDEF
  5
2DE
  8
0
 10
269.6500244140625
 20
238.8499908447266
 30
0.0
 40
2.449996948242188
  1
11.1
 41
0.9
  7
CADDY_VECTORFONT1P
  3
Side/strømvej reference
  2
$TAG160500
 70
     0
  0
ENDBLK
  8
0
  0
BLOCK
  8
0
  2
BLK28
 70
     2
 10
0.0
 20
0.0
 30
0.0
  0
LINE
  5
2E3
  8
0
  6
CADDY_SOLID
 10
272.5
 20
235.0
 30
0.0
 11
270.25
 21
236.25
 31
0.0
  0
LINE
  5
2E4
  8
0
  6
CADDY_SOLID
 10
272.5
 20
235.0
 30
0.0
 11
270.25
 21
233.75
 31
0.0
  0
LINE
  5
2E5
  8
0
  6
CADDY_SOLID
 10
270.0
 20
235.0
 30
0.0
 11
272.5
 21
235.0
 31
0.0
  0
ATTDEF
  5
2E8
  8
0
 10
250.6935109344483
 20
235.9000091552734
 30
0.0
 40
2.449996948242188
  1
0911
 41
0.9
  7
CADDY_VECTORFONT1P
 72
     2
 11
267.5
 21
235.9000091552734
 31
0.0
  3
Produkt (-)
  2
$TAG160010
 70
     0
  0
ATTDEF
  5
2EA
  8
0
 10
274.6500244140625
 20
233.8499908447266
 30
0.0
 40
2.449996948242188
  1
11.2
 41
0.9
  7
CADDY_VECTORFONT1P
  3
Side/strømvej reference
  2
$TAG160500
 70
     0
  0
ENDBLK
  8
0
  0
BLOCK
  8
0
  2
BLK29
 70
     2
 10
0.0
 20
0.0
 30
0.0
  0
CIRCLE
  5
31B
  8
0
  6
CADDY_SOLID
 10
70.0
 20
197.5
 30
0.0
 40
0.75
  0
LINE
  5
31C
  8
0
  6
CADDY_SOLID
 10
70.0
 20
198.25
 30
0.0
 11
70.0
 21
200.0
 31
0.0
  0
LINE
  5
31D
  8
0
  6
CADDY_SOLID
 10
70.0
 20
195.0
 30
0.0
 11
70.0
 21
196.75
 31
0.0
  0
ATTDEF
  5
320
  8
0
 10
48.24351398620605
 20
196.3000030517578
 30
0.0
 40
2.449996948242188
  1
X9
 41
0.9
  7
CADDY_VECTORFONT1P
 72
     2
 11
65.05000305175781
 21
196.3000030517578
 31
0.0
  3
Produkt (-)
  2
$TAG160010
 70
     0
  0
ATTDEF
  5
322
  8
0
 10
69.09999084472656
 20
199.1999969482422
 30
0.0
 40
2.449996948242188
  1
1
 50
90.0
 41
0.9
  7
CADDY_VECTORFONT1P
  3
Klemmenummer
  2
$TAG160400
 70
     0
  0
ATTDEF
  5
324
  8
0
 10
72.59999084472656
 20
199.1999969482422
 30
0.0
 40
2.449996948242188
  1
125
 50
90.0
 41
0.9
  7
CADDY_VECTORFONT1P
  3
Sorteringsindeks
  2
$TAG160410
 70
     1
  0
ATTDEF
  5
326
  8
0
 10
47.75179196929932
 20
192.8000030517578
 30
0.0
 40
2.449996948242188
  1

 41
0.9
  7
CADDY_VECTORFONT1P
 72
     2
 11
65.04999542236328
 21
192.8000030517578
 31
0.0
  3
Beskrivelse 00
  2
$TAG160030
 70
     1
  0
ATTDEF
  5
328
  8
0
 10
47.50703727416992
 20
187.8000030517578
 30
0.0
 40
2.449996948242188
  1
AB1RR235U2GR
 41
0.9
  7
CADDY_VECTORFONT1P
 72
     2
 11
65.04999542236328
 21
187.8000030517578
 31
0.0
  3
Type
  2
$TAG160040
 70
     1
  0
ATTDEF
  5
32A
  8
0
 10
47.50704490356446
 20
203.3000030517578
 30
0.0
 40
2.449996948242188
  1
=
 41
0.9
  7
CADDY_VECTORFONT1P
 72
     2
 11
65.05000305175781
 21
203.3000030517578
 31
0.0
  3
Funktion (=)
  2
$TAG140020
 70
     1
  0
ATTDEF
  5
32C
  8
0
 10
47.50704490356446
 20
199.8000030517578
 30
0.0
 40
2.449996948242188
  1
+
 41
0.9
  7
CADDY_VECTORFONT1P
 72
     2
 11
65.05000305175781
 21
199.8000030517578
 31
0.0
  3
Placering (+)
  2
$TAG140050
 70
     1
  0
ENDBLK
  8
0
  0
BLOCK
  8
0
  2
BLK30
 70
     2
 10
0.0
 20
0.0
 30
0.0
  0
CIRCLE
  5
332
  8
0
  6
CADDY_SOLID
 10
80.0
 20
197.5
 30
0.0
 40
0.75
  0
LINE
  5
333
  8
0
  6
CADDY_SOLID
 10
80.0
 20
198.25
 30
0.0
 11
80.0
 21
200.0
 31
0.0
  0
LINE
  5
334
  8
0
  6
CADDY_SOLID
 10
80.0
 20
195.0
 30
0.0
 11
80.0
 21
196.75
 31
0.0
  0
ATTDEF
  5
337
  8
0
 10
58.24350635681152
 20
196.3000030517578
 30
0.0
 40
2.449996948242188
  1
-X10
 41
0.9
  7
CADDY_VECTORFONT1P
 72
     2
 11
75.04999542236328
 21
196.3000030517578
 31
0.0
  3
Produkt (-)
  2
$TAG160010
 70
     1
  0
ATTDEF
  5
339
  8
0
 10
79.09999084472656
 20
199.1999969482422
 30
0.0
 40
2.449996948242188
  1
2
 50
90.0
 41
0.9
  7
CADDY_VECTORFONT1P
  3
Klemmenummer
  2
$TAG160400
 70
     0
  0
ATTDEF
  5
33B
  8
0
 10
82.59999084472656
 20
199.1999969482422
 30
0.0
 40
2.449996948242188
  1
124
 50
90.0
 41
0.9
  7
CADDY_VECTORFONT1P
  3
Sorteringsindeks
  2
$TAG160410
 70
     1
  0
ATTDEF
  5
33D
  8
0
 10
57.75179196929932
 20
192.8000030517578
 30
0.0
 40
2.449996948242188
  1

 41
0.9
  7
CADDY_VECTORFONT1P
 72
     2
 11
75.04999542236328
 21
192.8000030517578
 31
0.0
  3
Beskrivelse 00
  2
$TAG160030
 70
     1
  0
ATTDEF
  5
33F
  8
0
 10
57.50705253295899
 20
187.8000030517578
 30
0.0
 40
2.449996948242188
  1
AB1RR235U2GR
 41
0.9
  7
CADDY_VECTORFONT1P
 72
     2
 11
75.05001068115234
 21
187.8000030517578
 31
0.0
  3
Type
  2
$TAG160040
 70
     1
  0
ATTDEF
  5
341
  8
0
 10
57.50704490356446
 20
203.3000030517578
 30
0.0
 40
2.449996948242188
  1
=
 41
0.9
  7
CADDY_VECTORFONT1P
 72
     2
 11
75.05000305175781
 21
203.3000030517578
 31
0.0
  3
Funktion (=)
  2
$TAG140020
 70
     1
  0
ATTDEF
  5
343
  8
0
 10
57.50703727416992
 20
199.8000030517578
 30
0.0
 40
2.449996948242188
  1
+
 41
0.9
  7
CADDY_VECTORFONT1P
 72
     2
 11
75.04999542236328
 21
199.8000030517578
 31
0.0
  3
Placering (+)
  2
$TAG140050
 70
     1
  0
ENDBLK
  8
0
  0
BLOCK
  8
0
  2
BLK31
 70
     2
 10
0.0
 20
0.0
 30
0.0
  0
CIRCLE
  5
349
  8
0
  6
CADDY_SOLID
 10
235.0
 20
197.5
 30
0.0
 40
0.75
  0
LINE
  5
34A
  8
0
  6
CADDY_SOLID
 10
235.0
 20
198.25
 30
0.0
 11
235.0
 21
200.0
 31
0.0
  0
LINE
  5
34B
  8
0
  6
CADDY_SOLID
 10
235.0
 20
195.0
 30
0.0
 11
235.0
 21
196.75
 31
0.0
  0
ATTDEF
  5
34E
  8
0
 10
213.2435139862061
 20
196.3000030517578
 30
0.0
 40
2.449996948242188
  1
-X10
 41
0.9
  7
CADDY_VECTORFONT1P
 72
     2
 11
230.0500030517578
 21
196.3000030517578
 31
0.0
  3
Produkt (-)
  2
$TAG160010
 70
     1
  0
ATTDEF
  5
350
  8
0
 10
234.0999908447266
 20
199.1999969482422
 30
0.0
 40
2.449996948242188
  1
3
 50
90.0
 41
0.9
  7
CADDY_VECTORFONT1P
  3
Klemmenummer
  2
$TAG160400
 70
     0
  0
ATTDEF
  5
352
  8
0
 10
237.5999908447266
 20
199.1999969482422
 30
0.0
 40
2.449996948242188
  1
130
 50
90.0
 41
0.9
  7
CADDY_VECTORFONT1P
  3
Sorteringsindeks
  2
$TAG160410
 70
     1
  0
ATTDEF
  5
354
  8
0
 10
212.7517995986939
 20
192.8000030517578
 30
0.0
 40
2.449996948242188
  1

 41
0.9
  7
CADDY_VECTORFONT1P
 72
     2
 11
230.0500030517578
 21
192.8000030517578
 31
0.0
  3
Beskrivelse 00
  2
$TAG160030
 70
     1
  0
ATTDEF
  5
356
  8
0
 10
212.5070601623535
 20
187.8000030517578
 30
0.0
 40
2.449996948242188
  1
AB1RR235U2GR
 41
0.9
  7
CADDY_VECTORFONT1P
 72
     2
 11
230.0500183105469
 21
187.8000030517578
 31
0.0
  3
Type
  2
$TAG160040
 70
     1
  0
ATTDEF
  5
358
  8
0
 10
212.5070449035645
 20
203.3000030517578
 30
0.0
 40
2.449996948242188
  1
=
 41
0.9
  7
CADDY_VECTORFONT1P
 72
     2
 11
230.0500030517578
 21
203.3000030517578
 31
0.0
  3
Funktion (=)
  2
$TAG140020
 70
     1
  0
ATTDEF
  5
35A
  8
0
 10
212.5070296447754
 20
199.8000030517578
 30
0.0
 40
2.449996948242188
  1
+
 41
0.9
  7
CADDY_VECTORFONT1P
 72
     2
 11
230.0499877929688
 21
199.8000030517578
 31
0.0
  3
Placering (+)
  2
$TAG140050
 70
     1
  0
ENDBLK
  8
0
  0
BLOCK
  8
0
  2
BLK32
 70
     2
 10
0.0
 20
0.0
 30
0.0
  0
CIRCLE
  5
361
  8
0
  6
CADDY_SOLID
 10
245.0
 20
197.5
 30
0.0
 40
0.75
  0
LINE
  5
362
  8
0
  6
CADDY_SOLID
 10
245.0
 20
198.25
 30
0.0
 11
245.0
 21
200.0
 31
0.0
  0
LINE
  5
363
  8
0
  6
CADDY_SOLID
 10
245.0
 20
195.0
 30
0.0
 11
245.0
 21
196.75
 31
0.0
  0
ATTDEF
  5
366
  8
0
 10
223.2435139862061
 20
196.3000030517578
 30
0.0
 40
2.449996948242188
  1
-X10
 41
0.9
  7
CADDY_VECTORFONT1P
 72
     2
 11
240.0500030517578
 21
196.3000030517578
 31
0.0
  3
Produkt (-)
  2
$TAG160010
 70
     1
  0
ATTDEF
  5
368
  8
0
 10
244.0999908447266
 20
199.1999969482422
 30
0.0
 40
2.449996948242188
  1
4
 50
90.0
 41
0.9
  7
CADDY_VECTORFONT1P
  3
Klemmenummer
  2
$TAG160400
 70
     0
  0
ATTDEF
  5
36A
  8
0
 10
247.5999908447266
 20
199.1999969482422
 30
0.0
 40
2.449996948242188
  1
122
 50
90.0
 41
0.9
  7
CADDY_VECTORFONT1P
  3
Sorteringsindeks
  2
$TAG160410
 70
     1
  0
ATTDEF
  5
36C
  8
0
 10
222.7517995986939
 20
192.8000030517578
 30
0.0
 40
2.449996948242188
  1

 41
0.9
  7
CADDY_VECTORFONT1P
 72
     2
 11
240.0500030517578
 21
192.8000030517578
 31
0.0
  3
Beskrivelse 00
  2
$TAG160030
 70
     1
  0
ATTDEF
  5
36E
  8
0
 10
222.5070601623535
 20
187.8000030517578
 30
0.0
 40
2.449996948242188
  1
AB1RR235U2GR
 41
0.9
  7
CADDY_VECTORFONT1P
 72
     2
 11
240.0500183105469
 21
187.8000030517578
 31
0.0
  3
Type
  2
$TAG160040
 70
     1
  0
ATTDEF
  5
370
  8
0
 10
222.5070449035645
 20
203.3000030517578
 30
0.0
 40
2.449996948242188
  1
=
 41
0.9
  7
CADDY_VECTORFONT1P
 72
     2
 11
240.0500030517578
 21
203.3000030517578
 31
0.0
  3
Funktion (=)
  2
$TAG140020
 70
     1
  0
ATTDEF
  5
372
  8
0
 10
222.5070296447754
 20
199.8000030517578
 30
0.0
 40
2.449996948242188
  1
+
 41
0.9
  7
CADDY_VECTORFONT1P
 72
     2
 11
240.0499877929688
 21
199.8000030517578
 31
0.0
  3
Placering (+)
  2
$TAG140050
 70
     1
  0
ENDBLK
  8
0
  0
BLOCK
  8
0
  2
BLK33
 70
     2
 10
0.0
 20
0.0
 30
0.0
  0
CIRCLE
  5
37C
  8
0
  6
CADDY_SOLID
 10
142.0
 20
61.0
 30
0.0
 40
1.0
  0
LINE
  5
37D
  8
0
  6
CADDY_SOLID
 10
141.0
 20
58.0
 30
0.0
 11
143.0
 21
58.0
 31
0.0
  0
LINE
  5
37E
  8
0
  6
CADDY_SOLID
 10
143.0
 20
58.0
 30
0.0
 11
142.4705810546875
 21
60.11764526367188
 31
0.0
  0
LINE
  5
37F
  8
0
  6
CADDY_SOLID
 10
141.0
 20
58.0
 30
0.0
 11
141.5294189453125
 21
60.11764526367188
 31
0.0
  0
LINE
  5
380
  8
0
  6
CADDY_SOLID
 10
150.0
 20
62.5
 30
0.0
 11
150.0
 21
65.0
 31
0.0
  0
LINE
  5
381
  8
0
  6
CADDY_SOLID
 10
150.0
 20
57.5
 30
0.0
 11
150.0
 21
55.0
 31
0.0
  0
LINE
  5
382
  8
0
  6
CADDY_SOLID
 10
142.5
 20
60.0
 30
0.0
 11
144.5
 21
60.0
 31
0.0
  0
LINE
  5
383
  8
0
  6
CADDY_SOLID
 10
146.5
 20
60.0
 30
0.0
 11
148.5566253662109
 21
60.0
 31
0.0
  0
LINE
  5
384
  8
0
  6
CADDY_SOLID
 10
143.5
 20
60.0
 30
0.0
 11
145.5
 21
60.0
 31
0.0
  0
LINE
  5
385
  8
0
  6
CADDY_SOLID
 10
150.0
 20
62.5
 30
0.0
 11
152.5
 21
62.5
 31
0.0
  0
LINE
  5
386
  8
0
  6
CADDY_SOLID
 10
150.0
 20
57.5
 30
0.0
 11
152.1838226318359
 21
63.5
 31
0.0
  0
LINE
  5
387
  8
0
  6
CADDY_SOLID
 10
149.5
 20
60.0
 30
0.0
 11
150.9099273681641
 21
60.0
 31
0.0
  0
TEXT
  5
388
  8
0
 10
133.2322533596039
 20
58.80000686645508
 30
0.0
 40
2.450000762939453
  1
9S4
 41
0.9
  7
CADDY_VECTORFONT1P
 72
     2
 11
138.5
 21
58.80000686645508
 31
0.0
  0
TEXT
  5
389
  8
0
 10
138.5
 20
51.80000686645508
 30
0.0
 40
2.450000762939453
  1

 41
0.9
  7
CADDY_VECTORFONT1P
 72
     2
 11
138.5
 21
51.80000686645508
 31
0.0
  0
TEXT
  5
38A
  8
0
 10
138.5
 20
55.30000686645508
 30
0.0
 40
2.450000762939453
  1

 41
0.9
  7
CADDY_VECTORFONT1P
 72
     2
 11
138.5
 21
55.30000686645508
 31
0.0
  0
ATTDEF
  5
38D
  8
0
 10
149.0500030517578
 20
64.39999389648438
 30
0.0
 40
2.450004577636719
  1

 50
90.0
 41
0.9
  7
CADDY_VECTORFONT1P
  3
Tilslutningstekst 00
  2
$TAG175000_00
 70
     0
  0
ATTDEF
  5
38F
  8
0
 10
149.0500030517578
 20
32.96579701347351
 30
0.0
 40
2.450000762939453
  1

 50
90.0
 41
0.9
  7
CADDY_VECTORFONT1P
 72
     2
 11
149.0500030517578
 21
55.90000915527344
 31
0.0
  3
Tilslutningstekst 01
  2
$TAG175000_01
 70
     0
  0
LINE
  5
390
  8
0
  6
CADDY_SOLID
 10
160.0
 20
62.5
 30
0.0
 11
160.0
 21
65.0
 31
0.0
  0
LINE
  5
391
  8
0
  6
CADDY_SOLID
 10
160.0
 20
57.5
 30
0.0
 11
160.0
 21
55.0
 31
0.0
  0
LINE
  5
392
  8
0
  6
CADDY_SOLID
 10
151.5
 20
60.0
 30
0.0
 11
153.5566253662109
 21
60.0
 31
0.0
  0
LINE
  5
393
  8
0
  6
CADDY_SOLID
 10
160.0
 20
62.5
 30
0.0
 11
162.5
 21
62.5
 31
0.0
  0
LINE
  5
394
  8
0
  6
CADDY_SOLID
 10
160.0
 20
57.5
 30
0.0
 11
162.1838226318359
 21
63.5
 31
0.0
  0
LINE
  5
395
  8
0
  6
CADDY_SOLID
 10
159.5
 20
60.0
 30
0.0
 11
160.9099273681641
 21
60.0
 31
0.0
  0
ATTDEF
  5
397
  8
0
 10
159.0500030517578
 20
64.39999389648438
 30
0.0
 40
2.450004577636719
  1

 50
90.0
 41
0.9
  7
CADDY_VECTORFONT1P
  3
Tilslutningstekst 00
  2
$TAG175000_00
 70
     0
  0
ATTDEF
  5
399
  8
0
 10
159.0500030517578
 20
32.96579701347351
 30
0.0
 40
2.450000762939453
  1

 50
90.0
 41
0.9
  7
CADDY_VECTORFONT1P
 72
     2
 11
159.0500030517578
 21
55.90000915527344
 31
0.0
  3
Tilslutningstekst 01
  2
$TAG175000_01
 70
     0
  0
LINE
  5
39A
  8
0
  6
CADDY_SOLID
 10
156.5
 20
60.0
 30
0.0
 11
158.5566253662109
 21
60.0
 31
0.0
  0
LINE
  5
39B
  8
0
  6
CADDY_SOLID
 10
154.0
 20
60.0
 30
0.0
 11
156.0566253662109
 21
60.0
 31
0.0
  0
TEXT
  5
39C
  8
0
 10
149.3999938964844
 20
65.60000610351562
 30
0.0
 40
2.099998474121094
  1
11
 50
90.0
 41
0.9
  7
CADDY_VECTORFONT1P
  0
TEXT
  5
39D
  8
0
 10
149.3999938964844
 20
55.60000610351562
 30
0.0
 40
2.100002288818359
  1
12
 50
90.0
 41
0.9
  7
CADDY_VECTORFONT1P
  0
LINE
  5
39E
  8
0
  6
CADDY_SOLID
 10
156.5
 20
60.0
 30
0.0
 11
158.5566253662109
 21
60.0
 31
0.0
  0
TEXT
  5
39F
  8
0
 10
159.3999938964844
 20
65.60000610351562
 30
0.0
 40
2.099998474121094
  1
11
 50
90.0
 41
0.9
  7
CADDY_VECTORFONT1P
  0
TEXT
  5
3A0
  8
0
 10
159.3999938964844
 20
55.60000610351562
 30
0.0
 40
2.100002288818359
  1
12
 50
90.0
 41
0.9
  7
CADDY_VECTORFONT1P
  0
ENDBLK
  8
0
  0
BLOCK
  8
0
  2
BLK34
 70
     2
 10
0.0
 20
0.0
 30
0.0
  0
LINE
  5
3A7
  8
0
  6
CADDY_SOLID
 10
60.0
 20
60.0
 30
0.0
 11
61.0
 21
60.0
 31
0.0
  0
ATTDEF
  5
3AA
  8
0
 10
36.69349621047973
 20
58.80000686645508
 30
0.0
 40
2.450000762939453
  1
9B1
 41
0.9
  7
CADDY_VECTORFONT1P
 72
     2
 11
53.5000114440918
 21
58.80000686645508
 31
0.0
  3
Produkt (-)
  2
$TAG160010
 70
     0
  0
ATTDEF
  5
3AC
  8
0
 10
55.95702216644287
 20
51.80000686645508
 30
0.0
 40
2.450000762939453
  1

 41
0.9
  7
CADDY_VECTORFONT1P
 72
     2
 11
73.50000762939453
 21
51.80000686645508
 31
0.0
  3
Type
  2
$TAG160040
 70
     1
  0
ATTDEF
  5
3AE
  8
0
 10
56.20177724266052
 20
55.30000686645508
 30
0.0
 40
2.450000762939453
  1

 41
0.9
  7
CADDY_VECTORFONT1P
 72
     2
 11
73.50000762939453
 21
55.30000686645508
 31
0.0
  3
Beskrivelse 00
  2
$TAG160030
 70
     0
  0
CIRCLE
  5
3AF
  8
0
  6
CADDY_SOLID
 10
58.29998779296875
 20
60.0
 30
0.0
 40
1.700000762939453
  0
INSERT
  5
3B3
  8
0
 66
     1
  2
BLK35
 10
0.0
 20
0.0
 30
1.0
  0
ATTRIB
  5
3B8
  8
0
 10
69.05000305175781
 20
64.39999389648438
 30
0.0
 40
2.450004577636719
  1
11
 50
90.0
 41
0.9
  7
CADDY_VECTORFONT1P
  2
$TAG175000_00
 70
     0
  0
ATTRIB
  5
3BB
  8
0
 10
69.05000305175781
 20
53.32015072250366
 30
0.0
 40
2.450000762939453
  1
12
 50
90.0
 41
0.9
  7
CADDY_VECTORFONT1P
 72
     2
 11
69.05000305175781
 21
55.90000152587891
 31
0.0
  2
$TAG175000_01
 70
     0
  0
ATTRIB
  5
3BD
  8
0
 10
70.59999084472656
 20
46.73500823974609
 30
0.0
 40
2.450000762939453
  1

 50
90.0
 41
0.9
  7
CADDY_VECTORFONT1P
 72
     2
 11
70.59999084472656
 21
46.73500823974609
 31
0.0
  2
$TAG160500
 70
     0
  0
SEQEND
  5
3B9
  8
0
  0
INSERT
  5
3C2
  8
0
 66
     1
  2
BLK36
 10
0.0
 20
0.0
 30
1.0
  0
ATTRIB
  5
3C7
  8
0
 10
79.05000305175781
 20
64.39999389648438
 30
0.0
 40
2.450004577636719
  1
11
 50
90.0
 41
0.9
  7
CADDY_VECTORFONT1P
  2
$TAG175000_00
 70
     0
  0
ATTRIB
  5
3CA
  8
0
 10
79.05000305175781
 20
53.32015072250366
 30
0.0
 40
2.450000762939453
  1
12
 50
90.0
 41
0.9
  7
CADDY_VECTORFONT1P
 72
     2
 11
79.05000305175781
 21
55.90000152587891
 31
0.0
  2
$TAG175000_01
 70
     0
  0
ATTRIB
  5
3CC
  8
0
 10
80.59999084472656
 20
46.73500823974609
 30
0.0
 40
2.450000762939453
  1

 50
90.0
 41
0.9
  7
CADDY_VECTORFONT1P
 72
     2
 11
80.59999084472656
 21
46.73500823974609
 31
0.0
  2
$TAG160500
 70
     0
  0
SEQEND
  5
3C8
  8
0
  0
LINE
  5
3CE
  8
0
  6
CADDY_DASHDOT
 10
62.5
 20
60.0
 30
0.0
 11
80.0
 21
60.0
 31
0.0
  0
ATTDEF
  5
3D0
  8
0
 10
76.90000915527344
 20
60.89999771118164
 30
0.0
 40
2.450000762939453
  1
1
 41
0.9
  7
CADDY_VECTORFONT1P
  3
Tilslutningstekst 00
  2
$TAG175000_00
 70
     0
  0
ENDBLK
  8
0
  0
BLOCK
  8
0
  2
BLK35
 70
     2
 10
0.0
 20
0.0
 30
0.0
  0
LINE
  5
3B4
  8
0
  6
CADDY_SOLID
 10
70.0
 20
62.5
 30
0.0
 11
70.0
 21
65.0
 31
0.0
  0
LINE
  5
3B5
  8
0
  6
CADDY_SOLID
 10
70.0
 20
57.5
 30
0.0
 11
70.0
 21
55.0
 31
0.0
  0
LINE
  5
3B6
  8
0
  6
CADDY_SOLID
 10
70.0
 20
62.5
 30
0.0
 11
72.5
 21
62.5
 31
0.0
  0
LINE
  5
3B7
  8
0
  6
CADDY_SOLID
 10
70.0
 20
57.5
 30
0.0
 11
72.18380737304688
 21
63.5
 31
0.0
  0
ATTDEF
  5
3BA
  8
0
 10
69.05000305175781
 20
64.39999389648438
 30
0.0
 40
2.450004577636719
  1
11
 50
90.0
 41
0.9
  7
CADDY_VECTORFONT1P
  3
Tilslutningstekst 00
  2
$TAG175000_00
 70
     0
  0
ATTDEF
  5
3BC
  8
0
 10
69.05000305175781
 20
32.96578938407897
 30
0.0
 40
2.450000762939453
  1
12
 50
90.0
 41
0.9
  7
CADDY_VECTORFONT1P
 72
     2
 11
69.05000305175781
 21
55.90000152587891
 31
0.0
  3
Tilslutningstekst 01
  2
$TAG175000_01
 70
     0
  0
ATTDEF
  5
3BE
  8
0
 10
70.59999084472656
 20
29.43677785301208
 30
0.0
 40
2.450000762939453
  1

 50
90.0
 41
0.9
  7
CADDY_VECTORFONT1P
 72
     2
 11
70.59999084472656
 21
46.73500823974609
 31
0.0
  3
Side/strømvej reference
  2
$TAG160500
 70
     0
  0
ENDBLK
  8
0
  0
BLOCK
  8
0
  2
BLK36
 70
     2
 10
0.0
 20
0.0
 30
0.0
  0
LINE
  5
3C3
  8
0
  6
CADDY_SOLID
 10
80.0
 20
62.5
 30
0.0
 11
80.0
 21
65.0
 31
0.0
  0
LINE
  5
3C4
  8
0
  6
CADDY_SOLID
 10
80.0
 20
57.5
 30
0.0
 11
80.0
 21
55.0
 31
0.0
  0
LINE
  5
3C5
  8
0
  6
CADDY_SOLID
 10
80.0
 20
62.5
 30
0.0
 11
82.5
 21
62.5
 31
0.0
  0
LINE
  5
3C6
  8
0
  6
CADDY_SOLID
 10
80.0
 20
57.5
 30
0.0
 11
82.18380737304688
 21
63.5
 31
0.0
  0
ATTDEF
  5
3C9
  8
0
 10
79.05000305175781
 20
64.39999389648438
 30
0.0
 40
2.450004577636719
  1
11
 50
90.0
 41
0.9
  7
CADDY_VECTORFONT1P
  3
Tilslutningstekst 00
  2
$TAG175000_00
 70
     0
  0
ATTDEF
  5
3CB
  8
0
 10
79.05000305175781
 20
32.96578938407897
 30
0.0
 40
2.450000762939453
  1
12
 50
90.0
 41
0.9
  7
CADDY_VECTORFONT1P
 72
     2
 11
79.05000305175781
 21
55.90000152587891
 31
0.0
  3
Tilslutningstekst 01
  2
$TAG175000_01
 70
     0
  0
ATTDEF
  5
3CD
  8
0
 10
80.59999084472656
 20
29.43677785301208
 30
0.0
 40
2.450000762939453
  1

 50
90.0
 41
0.9
  7
CADDY_VECTORFONT1P
 72
     2
 11
80.59999084472656
 21
46.73500823974609
 31
0.0
  3
Side/strømvej reference
  2
$TAG160500
 70
     0
  0
ENDBLK
  8
0
  0
BLOCK
  8
0
  2
BLK37
 70
     2
 10
0.0
 20
0.0
 30
0.0
  0
ATTDEF
  5
3DF
  8
0
 10
90.69999694824219
 20
75.69999694824219
 30
0.0
 40
2.450004577636719
  1
W0901
 41
0.9
  7
CADDY_VECTORFONT1P
  3
Produkt (-)
  2
$TAG160010
 70
     1
  0
ATTDEF
  5
3E1
  8
0
 10
90.69999694824219
 20
70.69999694824219
 30
0.0
 40
2.450004577636719
  1

 41
0.9
  7
CADDY_VECTORFONT1P
  3
Beskrivelse 00
  2
$TAG160030
 70
     1
  0
ATTDEF
  5
3E3
  8
0
 10
90.69999694824219
 20
65.69999694824219
 30
0.0
 40
2.450004577636719
  1

 41
0.9
  7
CADDY_VECTORFONT1P
  3
Kabeldimension
  2
$TAG160200
 70
     1
  0
ATTDEF
  5
3E5
  8
0
 10
90.69999694824219
 20
60.70000076293945
 30
0.0
 40
2.450000762939453
  1

 41
0.9
  7
CADDY_VECTORFONT1P
  3
Type
  2
$TAG160040
 70
     1
  0
ATTDEF
  5
3E7
  8
0
 10
90.69999694824219
 20
55.70000076293945
 30
0.0
 40
2.450000762939453
  1

 41
0.9
  7
CADDY_VECTORFONT1P
  3
Længde
  2
$TAG160101
 70
     1
  0
ATTDEF
  5
3E9
  8
0
 10
70.69999694824219
 20
75.69999694824219
 30
0.0
 40
2.450004577636719
  1
1
 41
0.9
  7
CADDY_VECTORFONT1P
  3
Kabelkorenummer
  2
$TAG160210
 70
     0
  0
ATTDEF
  5
3EB
  8
0
 10
70.69999694824219
 20
70.69999694824219
 30
0.0
 40
2.450004577636719
  1

 41
0.9
  7
CADDY_VECTORFONT1P
  3
Kabelkorefarve
  2
$TAG160220
 70
     1
  0
ATTDEF
  5
3ED
  8
0
 10
70.69999694824219
 20
65.69999694824219
 30
0.0
 40
2.450004577636719
  1

 41
0.9
  7
CADDY_VECTORFONT1P
  3
Kabelkoretværsnit
  2
$TAG160230
 70
     1
  0
LINE
  5
3EE
  8
0
  6
CADDY_SOLID
 10
70.0
 20
75.5
 30
0.0
 11
70.0
 21
74.5
 31
0.0
  0
ENDBLK
  8
0
  0
BLOCK
  8
0
  2
BLK38
 70
     2
 10
0.0
 20
0.0
 30
0.0
  0
ATTDEF
  5
3F5
  8
0
 10
90.69999694824219
 20
75.69999694824219
 30
0.0
 40
2.450004577636719
  1
W0901
 41
0.9
  7
CADDY_VECTORFONT1P
  3
Produkt (-)
  2
$TAG160010
 70
     1
  0
ATTDEF
  5
3F7
  8
0
 10
90.69999694824219
 20
70.69999694824219
 30
0.0
 40
2.450004577636719
  1

 41
0.9
  7
CADDY_VECTORFONT1P
  3
Beskrivelse 00
  2
$TAG160030
 70
     1
  0
ATTDEF
  5
3F9
  8
0
 10
90.69999694824219
 20
65.69999694824219
 30
0.0
 40
2.450004577636719
  1

 41
0.9
  7
CADDY_VECTORFONT1P
  3
Kabeldimension
  2
$TAG160200
 70
     1
  0
ATTDEF
  5
3FB
  8
0
 10
90.69999694824219
 20
60.70000076293945
 30
0.0
 40
2.450000762939453
  1

 41
0.9
  7
CADDY_VECTORFONT1P
  3
Type
  2
$TAG160040
 70
     1
  0
ATTDEF
  5
3FD
  8
0
 10
90.69999694824219
 20
55.70000076293945
 30
0.0
 40
2.450000762939453
  1

 41
0.9
  7
CADDY_VECTORFONT1P
  3
Længde
  2
$TAG160101
 70
     1
  0
ATTDEF
  5
3FF
  8
0
 10
75.69999694824219
 20
75.69999694824219
 30
0.0
 40
2.450004577636719
  1
2
 41
0.9
  7
CADDY_VECTORFONT1P
  3
Kabelkorenummer
  2
$TAG160210
 70
     0
  0
ATTDEF
  5
401
  8
0
 10
75.69999694824219
 20
70.69999694824219
 30
0.0
 40
2.450004577636719
  1

 41
0.9
  7
CADDY_VECTORFONT1P
  3
Kabelkorefarve
  2
$TAG160220
 70
     1
  0
ATTDEF
  5
403
  8
0
 10
75.69999694824219
 20
65.69999694824219
 30
0.0
 40
2.450004577636719
  1

 41
0.9
  7
CADDY_VECTORFONT1P
  3
Kabelkoretværsnit
  2
$TAG160230
 70
     1
  0
LINE
  5
404
  8
0
  6
CADDY_SOLID
 10
75.0
 20
75.5
 30
0.0
 11
75.0
 21
74.5
 31
0.0
  0
ENDBLK
  8
0
  0
BLOCK
  8
0
  2
BLK39
 70
     2
 10
0.0
 20
0.0
 30
0.0
  0
ATTDEF
  5
40B
  8
0
 10
90.69999694824219
 20
75.69999694824219
 30
0.0
 40
2.450004577636719
  1
W0901
 41
0.9
  7
CADDY_VECTORFONT1P
  3
Produkt (-)
  2
$TAG160010
 70
     1
  0
ATTDEF
  5
40D
  8
0
 10
90.69999694824219
 20
70.69999694824219
 30
0.0
 40
2.450004577636719
  1

 41
0.9
  7
CADDY_VECTORFONT1P
  3
Beskrivelse 00
  2
$TAG160030
 70
     1
  0
ATTDEF
  5
40F
  8
0
 10
90.69999694824219
 20
65.69999694824219
 30
0.0
 40
2.450004577636719
  1

 41
0.9
  7
CADDY_VECTORFONT1P
  3
Kabeldimension
  2
$TAG160200
 70
     1
  0
ATTDEF
  5
411
  8
0
 10
90.69999694824219
 20
60.70000076293945
 30
0.0
 40
2.450000762939453
  1

 41
0.9
  7
CADDY_VECTORFONT1P
  3
Type
  2
$TAG160040
 70
     1
  0
ATTDEF
  5
413
  8
0
 10
90.69999694824219
 20
55.70000076293945
 30
0.0
 40
2.450000762939453
  1

 41
0.9
  7
CADDY_VECTORFONT1P
  3
Længde
  2
$TAG160101
 70
     1
  0
ATTDEF
  5
415
  8
0
 10
80.69999694824219
 20
75.69999694824219
 30
0.0
 40
2.450004577636719
  1
3
 41
0.9
  7
CADDY_VECTORFONT1P
  3
Kabelkorenummer
  2
$TAG160210
 70
     0
  0
ATTDEF
  5
417
  8
0
 10
80.69999694824219
 20
70.69999694824219
 30
0.0
 40
2.450004577636719
  1

 41
0.9
  7
CADDY_VECTORFONT1P
  3
Kabelkorefarve
  2
$TAG160220
 70
     1
  0
ATTDEF
  5
419
  8
0
 10
80.69999694824219
 20
65.69999694824219
 30
0.0
 40
2.450004577636719
  1

 41
0.9
  7
CADDY_VECTORFONT1P
  3
Kabelkoretværsnit
  2
$TAG160230
 70
     1
  0
LINE
  5
41A
  8
0
  6
CADDY_SOLID
 10
80.0
 20
75.5
 30
0.0
 11
80.0
 21
74.5
 31
0.0
  0
ENDBLK
  8
0
  0
BLOCK
  8
0
  2
BLK40
 70
     2
 10
0.0
 20
0.0
 30
0.0
  0
ATTDEF
  5
421
  8
0
 10
90.69999694824219
 20
75.69999694824219
 30
0.0
 40
2.450004577636719
  1
W0901
 41
0.9
  7
CADDY_VECTORFONT1P
  3
Produkt (-)
  2
$TAG160010
 70
     0
  0
ATTDEF
  5
423
  8
0
 10
90.69999694824219
 20
70.69999694824219
 30
0.0
 40
2.450004577636719
  1

 41
0.9
  7
CADDY_VECTORFONT1P
  3
Beskrivelse 00
  2
$TAG160030
 70
     0
  0
ATTDEF
  5
425
  8
0
 10
90.69999694824219
 20
65.69999694824219
 30
0.0
 40
2.450004577636719
  1

 41
0.9
  7
CADDY_VECTORFONT1P
  3
Kabeldimension
  2
$TAG160200
 70
     0
  0
ATTDEF
  5
427
  8
0
 10
90.69999694824219
 20
60.70000076293945
 30
0.0
 40
2.450000762939453
  1

 41
0.9
  7
CADDY_VECTORFONT1P
  3
Type
  2
$TAG160040
 70
     1
  0
ATTDEF
  5
429
  8
0
 10
90.69999694824219
 20
55.70000076293945
 30
0.0
 40
2.450000762939453
  1

 41
0.9
  7
CADDY_VECTORFONT1P
  3
Længde
  2
$TAG160101
 70
     1
  0
ATTDEF
  5
42B
  8
0
 10
85.69999694824219
 20
75.69999694824219
 30
0.0
 40
2.450004577636719
  1
4
 41
0.9
  7
CADDY_VECTORFONT1P
  3
Kabelkorenummer
  2
$TAG160210
 70
     0
  0
ATTDEF
  5
42D
  8
0
 10
85.69999694824219
 20
70.69999694824219
 30
0.0
 40
2.450004577636719
  1

 41
0.9
  7
CADDY_VECTORFONT1P
  3
Kabelkorefarve
  2
$TAG160220
 70
     1
  0
ATTDEF
  5
42F
  8
0
 10
85.69999694824219
 20
65.69999694824219
 30
0.0
 40
2.450004577636719
  1

 41
0.9
  7
CADDY_VECTORFONT1P
  3
Kabelkoretværsnit
  2
$TAG160230
 70
     1
  0
LINE
  5
430
  8
0
  6
CADDY_SOLID
 10
85.0
 20
75.5
 30
0.0
 11
85.0
 21
74.5
 31
0.0
  0
ENDBLK
  8
0
  0
BLOCK
  8
0
  2
BLK41
 70
     2
 10
0.0
 20
0.0
 30
0.0
  0
ATTDEF
  5
440
  8
0
 10
130.6999969482422
 20
75.69999694824219
 30
0.0
 40
2.450004577636719
  1
W0902
 41
0.9
  7
CADDY_VECTORFONT1P
  3
Produkt (-)
  2
$TAG160010
 70
     1
  0
ATTDEF
  5
442
  8
0
 10
130.6999969482422
 20
70.69999694824219
 30
0.0
 40
2.450004577636719
  1

 41
0.9
  7
CADDY_VECTORFONT1P
  3
Beskrivelse 00
  2
$TAG160030
 70
     1
  0
ATTDEF
  5
444
  8
0
 10
130.6999969482422
 20
65.69999694824219
 30
0.0
 40
2.450004577636719
  1

 41
0.9
  7
CADDY_VECTORFONT1P
  3
Kabeldimension
  2
$TAG160200
 70
     1
  0
ATTDEF
  5
446
  8
0
 10
130.6999969482422
 20
60.70000076293945
 30
0.0
 40
2.450000762939453
  1

 41
0.9
  7
CADDY_VECTORFONT1P
  3
Type
  2
$TAG160040
 70
     1
  0
ATTDEF
  5
448
  8
0
 10
130.6999969482422
 20
55.70000076293945
 30
0.0
 40
2.450000762939453
  1

 41
0.9
  7
CADDY_VECTORFONT1P
  3
Længde
  2
$TAG160101
 70
     1
  0
ATTDEF
  5
44A
  8
0
 10
110.6999969482422
 20
75.69999694824219
 30
0.0
 40
2.450004577636719
  1
1
 41
0.9
  7
CADDY_VECTORFONT1P
  3
Kabelkorenummer
  2
$TAG160210
 70
     0
  0
ATTDEF
  5
44C
  8
0
 10
110.6999969482422
 20
70.69999694824219
 30
0.0
 40
2.450004577636719
  1

 41
0.9
  7
CADDY_VECTORFONT1P
  3
Kabelkorefarve
  2
$TAG160220
 70
     1
  0
ATTDEF
  5
44E
  8
0
 10
110.6999969482422
 20
65.69999694824219
 30
0.0
 40
2.450004577636719
  1

 41
0.9
  7
CADDY_VECTORFONT1P
  3
Kabelkoretværsnit
  2
$TAG160230
 70
     1
  0
LINE
  5
44F
  8
0
  6
CADDY_SOLID
 10
110.0
 20
75.5
 30
0.0
 11
110.0
 21
74.5
 31
0.0
  0
ENDBLK
  8
0
  0
BLOCK
  8
0
  2
BLK42
 70
     2
 10
0.0
 20
0.0
 30
0.0
  0
ATTDEF
  5
456
  8
0
 10
130.6999969482422
 20
75.69999694824219
 30
0.0
 40
2.450004577636719
  1
W0902
 41
0.9
  7
CADDY_VECTORFONT1P
  3
Produkt (-)
  2
$TAG160010
 70
     1
  0
ATTDEF
  5
458
  8
0
 10
130.6999969482422
 20
70.69999694824219
 30
0.0
 40
2.450004577636719
  1

 41
0.9
  7
CADDY_VECTORFONT1P
  3
Beskrivelse 00
  2
$TAG160030
 70
     1
  0
ATTDEF
  5
45A
  8
0
 10
130.6999969482422
 20
65.69999694824219
 30
0.0
 40
2.450004577636719
  1

 41
0.9
  7
CADDY_VECTORFONT1P
  3
Kabeldimension
  2
$TAG160200
 70
     1
  0
ATTDEF
  5
45C
  8
0
 10
130.6999969482422
 20
60.70000076293945
 30
0.0
 40
2.450000762939453
  1

 41
0.9
  7
CADDY_VECTORFONT1P
  3
Type
  2
$TAG160040
 70
     1
  0
ATTDEF
  5
45E
  8
0
 10
130.6999969482422
 20
55.70000076293945
 30
0.0
 40
2.450000762939453
  1

 41
0.9
  7
CADDY_VECTORFONT1P
  3
Længde
  2
$TAG160101
 70
     1
  0
ATTDEF
  5
460
  8
0
 10
115.6999969482422
 20
75.69999694824219
 30
0.0
 40
2.450004577636719
  1
2
 41
0.9
  7
CADDY_VECTORFONT1P
  3
Kabelkorenummer
  2
$TAG160210
 70
     0
  0
ATTDEF
  5
462
  8
0
 10
115.6999969482422
 20
70.69999694824219
 30
0.0
 40
2.450004577636719
  1

 41
0.9
  7
CADDY_VECTORFONT1P
  3
Kabelkorefarve
  2
$TAG160220
 70
     1
  0
ATTDEF
  5
464
  8
0
 10
115.6999969482422
 20
65.69999694824219
 30
0.0
 40
2.450004577636719
  1

 41
0.9
  7
CADDY_VECTORFONT1P
  3
Kabelkoretværsnit
  2
$TAG160230
 70
     1
  0
LINE
  5
465
  8
0
  6
CADDY_SOLID
 10
115.0
 20
75.5
 30
0.0
 11
115.0
 21
74.5
 31
0.0
  0
ENDBLK
  8
0
  0
BLOCK
  8
0
  2
BLK43
 70
     2
 10
0.0
 20
0.0
 30
0.0
  0
ATTDEF
  5
46C
  8
0
 10
130.6999969482422
 20
75.69999694824219
 30
0.0
 40
2.450004577636719
  1
W0902
 41
0.9
  7
CADDY_VECTORFONT1P
  3
Produkt (-)
  2
$TAG160010
 70
     1
  0
ATTDEF
  5
46E
  8
0
 10
130.6999969482422
 20
70.69999694824219
 30
0.0
 40
2.450004577636719
  1

 41
0.9
  7
CADDY_VECTORFONT1P
  3
Beskrivelse 00
  2
$TAG160030
 70
     1
  0
ATTDEF
  5
470
  8
0
 10
130.6999969482422
 20
65.69999694824219
 30
0.0
 40
2.450004577636719
  1

 41
0.9
  7
CADDY_VECTORFONT1P
  3
Kabeldimension
  2
$TAG160200
 70
     1
  0
ATTDEF
  5
472
  8
0
 10
130.6999969482422
 20
60.70000076293945
 30
0.0
 40
2.450000762939453
  1

 41
0.9
  7
CADDY_VECTORFONT1P
  3
Type
  2
$TAG160040
 70
     1
  0
ATTDEF
  5
474
  8
0
 10
130.6999969482422
 20
55.70000076293945
 30
0.0
 40
2.450000762939453
  1

 41
0.9
  7
CADDY_VECTORFONT1P
  3
Længde
  2
$TAG160101
 70
     1
  0
ATTDEF
  5
476
  8
0
 10
120.6999969482422
 20
75.69999694824219
 30
0.0
 40
2.450004577636719
  1
3
 41
0.9
  7
CADDY_VECTORFONT1P
  3
Kabelkorenummer
  2
$TAG160210
 70
     0
  0
ATTDEF
  5
478
  8
0
 10
120.6999969482422
 20
70.69999694824219
 30
0.0
 40
2.450004577636719
  1

 41
0.9
  7
CADDY_VECTORFONT1P
  3
Kabelkorefarve
  2
$TAG160220
 70
     1
  0
ATTDEF
  5
47A
  8
0
 10
120.6999969482422
 20
65.69999694824219
 30
0.0
 40
2.450004577636719
  1

 41
0.9
  7
CADDY_VECTORFONT1P
  3
Kabelkoretværsnit
  2
$TAG160230
 70
     1
  0
LINE
  5
47B
  8
0
  6
CADDY_SOLID
 10
120.0
 20
75.5
 30
0.0
 11
120.0
 21
74.5
 31
0.0
  0
ENDBLK
  8
0
  0
BLOCK
  8
0
  2
BLK44
 70
     2
 10
0.0
 20
0.0
 30
0.0
  0
ATTDEF
  5
482
  8
0
 10
130.6999969482422
 20
75.69999694824219
 30
0.0
 40
2.450004577636719
  1
W0902
 41
0.9
  7
CADDY_VECTORFONT1P
  3
Produkt (-)
  2
$TAG160010
 70
     0
  0
ATTDEF
  5
484
  8
0
 10
130.6999969482422
 20
70.69999694824219
 30
0.0
 40
2.450004577636719
  1

 41
0.9
  7
CADDY_VECTORFONT1P
  3
Beskrivelse 00
  2
$TAG160030
 70
     0
  0
ATTDEF
  5
486
  8
0
 10
130.6999969482422
 20
65.69999694824219
 30
0.0
 40
2.450004577636719
  1

 41
0.9
  7
CADDY_VECTORFONT1P
  3
Kabeldimension
  2
$TAG160200
 70
     0
  0
ATTDEF
  5
488
  8
0
 10
130.6999969482422
 20
60.70000076293945
 30
0.0
 40
2.450000762939453
  1

 41
0.9
  7
CADDY_VECTORFONT1P
  3
Type
  2
$TAG160040
 70
     1
  0
ATTDEF
  5
48A
  8
0
 10
130.6999969482422
 20
55.70000076293945
 30
0.0
 40
2.450000762939453
  1

 41
0.9
  7
CADDY_VECTORFONT1P
  3
Længde
  2
$TAG160101
 70
     1
  0
ATTDEF
  5
48C
  8
0
 10
125.6999969482422
 20
75.69999694824219
 30
0.0
 40
2.450004577636719
  1
4
 41
0.9
  7
CADDY_VECTORFONT1P
  3
Kabelkorenummer
  2
$TAG160210
 70
     0
  0
ATTDEF
  5
48E
  8
0
 10
125.6999969482422
 20
70.69999694824219
 30
0.0
 40
2.450004577636719
  1

 41
0.9
  7
CADDY_VECTORFONT1P
  3
Kabelkorefarve
  2
$TAG160220
 70
     1
  0
ATTDEF
  5
490
  8
0
 10
125.6999969482422
 20
65.69999694824219
 30
0.0
 40
2.450004577636719
  1

 41
0.9
  7
CADDY_VECTORFONT1P
  3
Kabelkoretværsnit
  2
$TAG160230
 70
     1
  0
LINE
  5
491
  8
0
  6
CADDY_SOLID
 10
125.0
 20
75.5
 30
0.0
 11
125.0
 21
74.5
 31
0.0
  0
ENDBLK
  8
0
  0
BLOCK
  8
0
  2
BLK45
 70
     2
 10
0.0
 20
0.0
 30
0.0
  0
ATTDEF
  5
4A1
  8
0
 10
170.6999969482422
 20
75.69999694824219
 30
0.0
 40
2.450004577636719
  1
W0903
 41
0.9
  7
CADDY_VECTORFONT1P
  3
Produkt (-)
  2
$TAG160010
 70
     1
  0
ATTDEF
  5
4A3
  8
0
 10
170.6999969482422
 20
70.69999694824219
 30
0.0
 40
2.450004577636719
  1

 41
0.9
  7
CADDY_VECTORFONT1P
  3
Beskrivelse 00
  2
$TAG160030
 70
     1
  0
ATTDEF
  5
4A5
  8
0
 10
170.6999969482422
 20
65.69999694824219
 30
0.0
 40
2.450004577636719
  1

 41
0.9
  7
CADDY_VECTORFONT1P
  3
Kabeldimension
  2
$TAG160200
 70
     1
  0
ATTDEF
  5
4A7
  8
0
 10
170.6999969482422
 20
60.70000076293945
 30
0.0
 40
2.450000762939453
  1

 41
0.9
  7
CADDY_VECTORFONT1P
  3
Type
  2
$TAG160040
 70
     1
  0
ATTDEF
  5
4A9
  8
0
 10
170.6999969482422
 20
55.70000076293945
 30
0.0
 40
2.450000762939453
  1

 41
0.9
  7
CADDY_VECTORFONT1P
  3
Længde
  2
$TAG160101
 70
     1
  0
ATTDEF
  5
4AB
  8
0
 10
150.6999969482422
 20
75.69999694824219
 30
0.0
 40
2.450004577636719
  1
1
 41
0.9
  7
CADDY_VECTORFONT1P
  3
Kabelkorenummer
  2
$TAG160210
 70
     0
  0
ATTDEF
  5
4AD
  8
0
 10
150.6999969482422
 20
70.69999694824219
 30
0.0
 40
2.450004577636719
  1

 41
0.9
  7
CADDY_VECTORFONT1P
  3
Kabelkorefarve
  2
$TAG160220
 70
     1
  0
ATTDEF
  5
4AF
  8
0
 10
150.6999969482422
 20
65.69999694824219
 30
0.0
 40
2.450004577636719
  1

 41
0.9
  7
CADDY_VECTORFONT1P
  3
Kabelkoretværsnit
  2
$TAG160230
 70
     1
  0
LINE
  5
4B0
  8
0
  6
CADDY_SOLID
 10
150.0
 20
75.5
 30
0.0
 11
150.0
 21
74.5
 31
0.0
  0
ENDBLK
  8
0
  0
BLOCK
  8
0
  2
BLK46
 70
     2
 10
0.0
 20
0.0
 30
0.0
  0
ATTDEF
  5
4B7
  8
0
 10
170.6999969482422
 20
75.69999694824219
 30
0.0
 40
2.450004577636719
  1
W0903
 41
0.9
  7
CADDY_VECTORFONT1P
  3
Produkt (-)
  2
$TAG160010
 70
     1
  0
ATTDEF
  5
4B9
  8
0
 10
170.6999969482422
 20
70.69999694824219
 30
0.0
 40
2.450004577636719
  1

 41
0.9
  7
CADDY_VECTORFONT1P
  3
Beskrivelse 00
  2
$TAG160030
 70
     1
  0
ATTDEF
  5
4BB
  8
0
 10
170.6999969482422
 20
65.69999694824219
 30
0.0
 40
2.450004577636719
  1

 41
0.9
  7
CADDY_VECTORFONT1P
  3
Kabeldimension
  2
$TAG160200
 70
     1
  0
ATTDEF
  5
4BD
  8
0
 10
170.6999969482422
 20
60.70000076293945
 30
0.0
 40
2.450000762939453
  1

 41
0.9
  7
CADDY_VECTORFONT1P
  3
Type
  2
$TAG160040
 70
     1
  0
ATTDEF
  5
4BF
  8
0
 10
170.6999969482422
 20
55.70000076293945
 30
0.0
 40
2.450000762939453
  1

 41
0.9
  7
CADDY_VECTORFONT1P
  3
Længde
  2
$TAG160101
 70
     1
  0
ATTDEF
  5
4C1
  8
0
 10
155.6999969482422
 20
75.69999694824219
 30
0.0
 40
2.450004577636719
  1
2
 41
0.9
  7
CADDY_VECTORFONT1P
  3
Kabelkorenummer
  2
$TAG160210
 70
     0
  0
ATTDEF
  5
4C3
  8
0
 10
155.6999969482422
 20
70.69999694824219
 30
0.0
 40
2.450004577636719
  1

 41
0.9
  7
CADDY_VECTORFONT1P
  3
Kabelkorefarve
  2
$TAG160220
 70
     1
  0
ATTDEF
  5
4C5
  8
0
 10
155.6999969482422
 20
65.69999694824219
 30
0.0
 40
2.450004577636719
  1

 41
0.9
  7
CADDY_VECTORFONT1P
  3
Kabelkoretværsnit
  2
$TAG160230
 70
     1
  0
LINE
  5
4C6
  8
0
  6
CADDY_SOLID
 10
155.0
 20
75.5
 30
0.0
 11
155.0
 21
74.5
 31
0.0
  0
ENDBLK
  8
0
  0
BLOCK
  8
0
  2
BLK47
 70
     2
 10
0.0
 20
0.0
 30
0.0
  0
ATTDEF
  5
4CD
  8
0
 10
170.6999969482422
 20
75.69999694824219
 30
0.0
 40
2.450004577636719
  1
W0903
 41
0.9
  7
CADDY_VECTORFONT1P
  3
Produkt (-)
  2
$TAG160010
 70
     1
  0
ATTDEF
  5
4CF
  8
0
 10
170.6999969482422
 20
70.69999694824219
 30
0.0
 40
2.450004577636719
  1

 41
0.9
  7
CADDY_VECTORFONT1P
  3
Beskrivelse 00
  2
$TAG160030
 70
     1
  0
ATTDEF
  5
4D1
  8
0
 10
170.6999969482422
 20
65.69999694824219
 30
0.0
 40
2.450004577636719
  1

 41
0.9
  7
CADDY_VECTORFONT1P
  3
Kabeldimension
  2
$TAG160200
 70
     1
  0
ATTDEF
  5
4D3
  8
0
 10
170.6999969482422
 20
60.70000076293945
 30
0.0
 40
2.450000762939453
  1

 41
0.9
  7
CADDY_VECTORFONT1P
  3
Type
  2
$TAG160040
 70
     1
  0
ATTDEF
  5
4D5
  8
0
 10
170.6999969482422
 20
55.70000076293945
 30
0.0
 40
2.450000762939453
  1

 41
0.9
  7
CADDY_VECTORFONT1P
  3
Længde
  2
$TAG160101
 70
     1
  0
ATTDEF
  5
4D7
  8
0
 10
160.6999969482422
 20
75.69999694824219
 30
0.0
 40
2.450004577636719
  1
3
 41
0.9
  7
CADDY_VECTORFONT1P
  3
Kabelkorenummer
  2
$TAG160210
 70
     0
  0
ATTDEF
  5
4D9
  8
0
 10
160.6999969482422
 20
70.69999694824219
 30
0.0
 40
2.450004577636719
  1

 41
0.9
  7
CADDY_VECTORFONT1P
  3
Kabelkorefarve
  2
$TAG160220
 70
     1
  0
ATTDEF
  5
4DB
  8
0
 10
160.6999969482422
 20
65.69999694824219
 30
0.0
 40
2.450004577636719
  1

 41
0.9
  7
CADDY_VECTORFONT1P
  3
Kabelkoretværsnit
  2
$TAG160230
 70
     1
  0
LINE
  5
4DC
  8
0
  6
CADDY_SOLID
 10
160.0
 20
75.5
 30
0.0
 11
160.0
 21
74.5
 31
0.0
  0
ENDBLK
  8
0
  0
BLOCK
  8
0
  2
BLK48
 70
     2
 10
0.0
 20
0.0
 30
0.0
  0
ATTDEF
  5
4E3
  8
0
 10
170.6999969482422
 20
75.69999694824219
 30
0.0
 40
2.450004577636719
  1
W0903
 41
0.9
  7
CADDY_VECTORFONT1P
  3
Produkt (-)
  2
$TAG160010
 70
     0
  0
ATTDEF
  5
4E5
  8
0
 10
170.6999969482422
 20
70.69999694824219
 30
0.0
 40
2.450004577636719
  1

 41
0.9
  7
CADDY_VECTORFONT1P
  3
Beskrivelse 00
  2
$TAG160030
 70
     0
  0
ATTDEF
  5
4E7
  8
0
 10
170.6999969482422
 20
65.69999694824219
 30
0.0
 40
2.450004577636719
  1

 41
0.9
  7
CADDY_VECTORFONT1P
  3
Kabeldimension
  2
$TAG160200
 70
     0
  0
ATTDEF
  5
4E9
  8
0
 10
170.6999969482422
 20
60.70000076293945
 30
0.0
 40
2.450000762939453
  1

 41
0.9
  7
CADDY_VECTORFONT1P
  3
Type
  2
$TAG160040
 70
     1
  0
ATTDEF
  5
4EB
  8
0
 10
170.6999969482422
 20
55.70000076293945
 30
0.0
 40
2.450000762939453
  1

 41
0.9
  7
CADDY_VECTORFONT1P
  3
Længde
  2
$TAG160101
 70
     1
  0
ATTDEF
  5
4ED
  8
0
 10
165.6999969482422
 20
75.69999694824219
 30
0.0
 40
2.450004577636719
  1
4
 41
0.9
  7
CADDY_VECTORFONT1P
  3
Kabelkorenummer
  2
$TAG160210
 70
     0
  0
ATTDEF
  5
4EF
  8
0
 10
165.6999969482422
 20
70.69999694824219
 30
0.0
 40
2.450004577636719
  1

 41
0.9
  7
CADDY_VECTORFONT1P
  3
Kabelkorefarve
  2
$TAG160220
 70
     1
  0
ATTDEF
  5
4F1
  8
0
 10
165.6999969482422
 20
65.69999694824219
 30
0.0
 40
2.450004577636719
  1

 41
0.9
  7
CADDY_VECTORFONT1P
  3
Kabelkoretværsnit
  2
$TAG160230
 70
     1
  0
LINE
  5
4F2
  8
0
  6
CADDY_SOLID
 10
165.0
 20
75.5
 30
0.0
 11
165.0
 21
74.5
 31
0.0
  0
ENDBLK
  8
0
  0
BLOCK
  8
0
  2
BLK49
 70
     2
 10
0.0
 20
0.0
 30
0.0
  0
ATTDEF
  5
502
  8
0
 10
255.6999969482422
 20
130.6999969482422
 30
0.0
 40
2.449996948242188
  1
W0900
 41
0.9
  7
CADDY_VECTORFONT1P
  3
Produkt (-)
  2
$TAG160010
 70
     1
  0
ATTDEF
  5
504
  8
0
 10
255.6999969482422
 20
125.6999969482422
 30
0.0
 40
2.449996948242188
  1

 41
0.9
  7
CADDY_VECTORFONT1P
  3
Beskrivelse 00
  2
$TAG160030
 70
     1
  0
ATTDEF
  5
506
  8
0
 10
255.6999969482422
 20
120.6999969482422
 30
0.0
 40
2.450004577636719
  1

 41
0.9
  7
CADDY_VECTORFONT1P
  3
Kabeldimension
  2
$TAG160200
 70
     1
  0
ATTDEF
  5
508
  8
0
 10
255.6999969482422
 20
115.6999969482422
 30
0.0
 40
2.450004577636719
  1

 41
0.9
  7
CADDY_VECTORFONT1P
  3
Type
  2
$TAG160040
 70
     1
  0
ATTDEF
  5
50A
  8
0
 10
255.6999969482422
 20
110.6999969482422
 30
0.0
 40
2.450004577636719
  1

 41
0.9
  7
CADDY_VECTORFONT1P
  3
Længde
  2
$TAG160101
 70
     1
  0
ATTDEF
  5
50C
  8
0
 10
70.69999694824219
 20
130.6999969482422
 30
0.0
 40
2.449996948242188
  1
1
 41
0.9
  7
CADDY_VECTORFONT1P
  3
Kabelkorenummer
  2
$TAG160210
 70
     0
  0
ATTDEF
  5
50E
  8
0
 10
70.69999694824219
 20
125.6999969482422
 30
0.0
 40
2.449996948242188
  1

 41
0.9
  7
CADDY_VECTORFONT1P
  3
Kabelkorefarve
  2
$TAG160220
 70
     1
  0
ATTDEF
  5
510
  8
0
 10
70.69999694824219
 20
120.6999969482422
 30
0.0
 40
2.450004577636719
  1

 41
0.9
  7
CADDY_VECTORFONT1P
  3
Kabelkoretværsnit
  2
$TAG160230
 70
     1
  0
LINE
  5
511
  8
0
  6
CADDY_SOLID
 10
70.0
 20
130.5
 30
0.0
 11
70.0
 21
129.5
 31
0.0
  0
ENDBLK
  8
0
  0
BLOCK
  8
0
  2
BLK50
 70
     2
 10
0.0
 20
0.0
 30
0.0
  0
ATTDEF
  5
518
  8
0
 10
255.6999969482422
 20
130.6999969482422
 30
0.0
 40
2.449996948242188
  1
W0900
 41
0.9
  7
CADDY_VECTORFONT1P
  3
Produkt (-)
  2
$TAG160010
 70
     1
  0
ATTDEF
  5
51A
  8
0
 10
255.6999969482422
 20
125.6999969482422
 30
0.0
 40
2.449996948242188
  1

 41
0.9
  7
CADDY_VECTORFONT1P
  3
Beskrivelse 00
  2
$TAG160030
 70
     1
  0
ATTDEF
  5
51C
  8
0
 10
255.6999969482422
 20
120.6999969482422
 30
0.0
 40
2.450004577636719
  1

 41
0.9
  7
CADDY_VECTORFONT1P
  3
Kabeldimension
  2
$TAG160200
 70
     1
  0
ATTDEF
  5
51E
  8
0
 10
255.6999969482422
 20
115.6999969482422
 30
0.0
 40
2.450004577636719
  1

 41
0.9
  7
CADDY_VECTORFONT1P
  3
Type
  2
$TAG160040
 70
     1
  0
ATTDEF
  5
520
  8
0
 10
255.6999969482422
 20
110.6999969482422
 30
0.0
 40
2.450004577636719
  1

 41
0.9
  7
CADDY_VECTORFONT1P
  3
Længde
  2
$TAG160101
 70
     1
  0
ATTDEF
  5
522
  8
0
 10
80.69999694824219
 20
130.6999969482422
 30
0.0
 40
2.449996948242188
  1
2
 41
0.9
  7
CADDY_VECTORFONT1P
  3
Kabelkorenummer
  2
$TAG160210
 70
     0
  0
ATTDEF
  5
524
  8
0
 10
80.69999694824219
 20
125.6999969482422
 30
0.0
 40
2.449996948242188
  1

 41
0.9
  7
CADDY_VECTORFONT1P
  3
Kabelkorefarve
  2
$TAG160220
 70
     1
  0
ATTDEF
  5
526
  8
0
 10
80.69999694824219
 20
120.6999969482422
 30
0.0
 40
2.450004577636719
  1

 41
0.9
  7
CADDY_VECTORFONT1P
  3
Kabelkoretværsnit
  2
$TAG160230
 70
     1
  0
LINE
  5
527
  8
0
  6
CADDY_SOLID
 10
80.0
 20
130.5
 30
0.0
 11
80.0
 21
129.5
 31
0.0
  0
ENDBLK
  8
0
  0
BLOCK
  8
0
  2
BLK51
 70
     2
 10
0.0
 20
0.0
 30
0.0
  0
ATTDEF
  5
52E
  8
0
 10
255.6999969482422
 20
130.6999969482422
 30
0.0
 40
2.449996948242188
  1
W0900
 41
0.9
  7
CADDY_VECTORFONT1P
  3
Produkt (-)
  2
$TAG160010
 70
     1
  0
ATTDEF
  5
530
  8
0
 10
255.6999969482422
 20
125.6999969482422
 30
0.0
 40
2.449996948242188
  1

 41
0.9
  7
CADDY_VECTORFONT1P
  3
Beskrivelse 00
  2
$TAG160030
 70
     1
  0
ATTDEF
  5
532
  8
0
 10
255.6999969482422
 20
120.6999969482422
 30
0.0
 40
2.450004577636719
  1

 41
0.9
  7
CADDY_VECTORFONT1P
  3
Kabeldimension
  2
$TAG160200
 70
     1
  0
ATTDEF
  5
534
  8
0
 10
255.6999969482422
 20
115.6999969482422
 30
0.0
 40
2.450004577636719
  1

 41
0.9
  7
CADDY_VECTORFONT1P
  3
Type
  2
$TAG160040
 70
     1
  0
ATTDEF
  5
536
  8
0
 10
255.6999969482422
 20
110.6999969482422
 30
0.0
 40
2.450004577636719
  1

 41
0.9
  7
CADDY_VECTORFONT1P
  3
Længde
  2
$TAG160101
 70
     1
  0
ATTDEF
  5
538
  8
0
 10
235.6999969482422
 20
130.6999969482422
 30
0.0
 40
2.449996948242188
  1
3
 41
0.9
  7
CADDY_VECTORFONT1P
  3
Kabelkorenummer
  2
$TAG160210
 70
     0
  0
ATTDEF
  5
53A
  8
0
 10
235.6999969482422
 20
125.6999969482422
 30
0.0
 40
2.449996948242188
  1

 41
0.9
  7
CADDY_VECTORFONT1P
  3
Kabelkorefarve
  2
$TAG160220
 70
     1
  0
ATTDEF
  5
53C
  8
0
 10
235.6999969482422
 20
120.6999969482422
 30
0.0
 40
2.450004577636719
  1

 41
0.9
  7
CADDY_VECTORFONT1P
  3
Kabelkoretværsnit
  2
$TAG160230
 70
     1
  0
LINE
  5
53D
  8
0
  6
CADDY_SOLID
 10
235.0
 20
130.5
 30
0.0
 11
235.0
 21
129.5
 31
0.0
  0
ENDBLK
  8
0
  0
BLOCK
  8
0
  2
BLK52
 70
     2
 10
0.0
 20
0.0
 30
0.0
  0
ATTDEF
  5
544
  8
0
 10
255.6999969482422
 20
130.6999969482422
 30
0.0
 40
2.449996948242188
  1
W0900
 41
0.9
  7
CADDY_VECTORFONT1P
  3
Produkt (-)
  2
$TAG160010
 70
     0
  0
ATTDEF
  5
546
  8
0
 10
255.6999969482422
 20
125.6999969482422
 30
0.0
 40
2.449996948242188
  1

 41
0.9
  7
CADDY_VECTORFONT1P
  3
Beskrivelse 00
  2
$TAG160030
 70
     0
  0
ATTDEF
  5
548
  8
0
 10
255.6999969482422
 20
120.6999969482422
 30
0.0
 40
2.450004577636719
  1

 41
0.9
  7
CADDY_VECTORFONT1P
  3
Kabeldimension
  2
$TAG160200
 70
     0
  0
ATTDEF
  5
54A
  8
0
 10
255.6999969482422
 20
115.6999969482422
 30
0.0
 40
2.450004577636719
  1

 41
0.9
  7
CADDY_VECTORFONT1P
  3
Type
  2
$TAG160040
 70
     1
  0
ATTDEF
  5
54C
  8
0
 10
255.6999969482422
 20
110.6999969482422
 30
0.0
 40
2.450004577636719
  1

 41
0.9
  7
CADDY_VECTORFONT1P
  3
Længde
  2
$TAG160101
 70
     1
  0
ATTDEF
  5
54E
  8
0
 10
245.6999969482422
 20
130.6999969482422
 30
0.0
 40
2.449996948242188
  1
4
 41
0.9
  7
CADDY_VECTORFONT1P
  3
Kabelkorenummer
  2
$TAG160210
 70
     0
  0
ATTDEF
  5
550
  8
0
 10
245.6999969482422
 20
125.6999969482422
 30
0.0
 40
2.449996948242188
  1

 41
0.9
  7
CADDY_VECTORFONT1P
  3
Kabelkorefarve
  2
$TAG160220
 70
     1
  0
ATTDEF
  5
552
  8
0
 10
245.6999969482422
 20
120.6999969482422
 30
0.0
 40
2.450004577636719
  1

 41
0.9
  7
CADDY_VECTORFONT1P
  3
Kabelkoretværsnit
  2
$TAG160230
 70
     1
  0
LINE
  5
553
  8
0
  6
CADDY_SOLID
 10
245.0
 20
130.5
 30
0.0
 11
245.0
 21
129.5
 31
0.0
  0
ENDBLK
  8
0
  0
ENDSEC
  0
SECTION
  2
ENTITIES
  0
INSERT
  5
43
  8
0
  2
BLK1
 10
0.0
 20
0.0
 30
1.0
  0
LINE
  5
AC
  8
0
  6
CADDY_SOLID
 10
405.0
 20
125.0
 30
0.0
 11
405.0
 21
100.0
 31
0.0
  0
LINE
  5
AD
  8
0
  6
CADDY_SOLID
 10
270.0
 20
120.0
 30
0.0
 11
370.0
 21
120.0
 31
0.0
  0
LINE
  5
AE
  8
0
  6
CADDY_SOLID
 10
270.0
 20
80.0
 30
0.0
 11
370.0
 21
80.0
 31
0.0
  0
INSERT
  5
B2
  8
0
 66
     1
  2
BLK2
 10
0.0
 20
0.0
 30
1.0
  0
ATTRIB
  5
B6
  8
0
 10
73.53420824813843
 20
91.30000305175781
 30
0.0
 40
2.450004577636719
  1
-X10
 41
0.9
  7
CADDY_VECTORFONT1P
 72
     2
 11
80.04999542236328
 21
91.30000305175781
 31
0.0
  2
$TAG160010
 70
     1
  0
ATTRIB
  5
B9
  8
0
 10
84.09999084472656
 20
94.19999694824219
 30
0.0
 40
2.450004577636719
  1
4
 50
90.0
 41
0.9
  7
CADDY_VECTORFONT1P
  2
$TAG160400
 70
     0
  0
ATTRIB
  5
BB
  8
0
 10
87.59999084472656
 20
94.19999694824219
 30
0.0
 40
2.450004577636719
  1
122
 50
90.0
 41
0.9
  7
CADDY_VECTORFONT1P
  2
$TAG160410
 70
     1
  0
ATTRIB
  5
BD
  8
0
 10
80.04999542236328
 20
87.80000305175781
 30
0.0
 40
2.450004577636719
  1

 41
0.9
  7
CADDY_VECTORFONT1P
 72
     2
 11
80.04999542236328
 21
87.80000305175781
 31
0.0
  2
$TAG160030
 70
     1
  0
ATTRIB
  5
BF
  8
0
 10
58.34175275039673
 20
82.80000305175781
 30
0.0
 40
2.450004577636719
  1
AB1RR235U2GR
 41
0.9
  7
CADDY_VECTORFONT1P
 72
     2
 11
80.05001831054688
 21
82.80000305175781
 31
0.0
  2
$TAG160040
 70
     1
  0
ATTRIB
  5
C1
  8
0
 10
78.70274553451539
 20
98.30000305175781
 30
0.0
 40
2.450004577636719
  1
=
 41
0.9
  7
CADDY_VECTORFONT1P
 72
     2
 11
80.05000305175781
 21
98.30000305175781
 31
0.0
  2
$TAG140020
 70
     1
  0
ATTRIB
  5
C3
  8
0
 10
78.70273790512086
 20
94.80000305175781
 30
0.0
 40
2.450004577636719
  1
+
 41
0.9
  7
CADDY_VECTORFONT1P
 72
     2
 11
80.04999542236328
 21
94.80000305175781
 31
0.0
  2
$TAG140050
 70
     1
  0
SEQEND
  5
B7
  8
0
  0
INSERT
  5
C8
  8
0
 66
     1
  2
BLK3
 10
0.0
 20
0.0
 30
1.0
  0
ATTRIB
  5
CC
  8
0
 10
68.53420824813843
 20
91.30000305175781
 30
0.0
 40
2.450004577636719
  1
-X10
 41
0.9
  7
CADDY_VECTORFONT1P
 72
     2
 11
75.04999542236328
 21
91.30000305175781
 31
0.0
  2
$TAG160010
 70
     1
  0
ATTRIB
  5
CF
  8
0
 10
79.09999084472656
 20
94.19999694824219
 30
0.0
 40
2.450004577636719
  1
3
 50
90.0
 41
0.9
  7
CADDY_VECTORFONT1P
  2
$TAG160400
 70
     0
  0
ATTRIB
  5
D1
  8
0
 10
82.59999084472656
 20
94.19999694824219
 30
0.0
 40
2.450004577636719
  1
123
 50
90.0
 41
0.9
  7
CADDY_VECTORFONT1P
  2
$TAG160410
 70
     1
  0
ATTRIB
  5
D3
  8
0
 10
75.04999542236328
 20
87.80000305175781
 30
0.0
 40
2.450004577636719
  1

 41
0.9
  7
CADDY_VECTORFONT1P
 72
     2
 11
75.04999542236328
 21
87.80000305175781
 31
0.0
  2
$TAG160030
 70
     1
  0
ATTRIB
  5
D5
  8
0
 10
53.3417451210022
 20
82.80000305175781
 30
0.0
 40
2.450004577636719
  1
AB1RR235U2GR
 41
0.9
  7
CADDY_VECTORFONT1P
 72
     2
 11
75.05001068115234
 21
82.80000305175781
 31
0.0
  2
$TAG160040
 70
     1
  0
ATTRIB
  5
D7
  8
0
 10
73.70274553451539
 20
98.30000305175781
 30
0.0
 40
2.450004577636719
  1
=
 41
0.9
  7
CADDY_VECTORFONT1P
 72
     2
 11
75.05000305175781
 21
98.30000305175781
 31
0.0
  2
$TAG140020
 70
     1
  0
ATTRIB
  5
D9
  8
0
 10
73.70273790512086
 20
94.80000305175781
 30
0.0
 40
2.450004577636719
  1
+
 41
0.9
  7
CADDY_VECTORFONT1P
 72
     2
 11
75.04999542236328
 21
94.80000305175781
 31
0.0
  2
$TAG140050
 70
     1
  0
SEQEND
  5
CD
  8
0
  0
INSERT
  5
DE
  8
0
 66
     1
  2
BLK4
 10
0.0
 20
0.0
 30
1.0
  0
ATTRIB
  5
E2
  8
0
 10
63.53421587753296
 20
91.30000305175781
 30
0.0
 40
2.450004577636719
  1
-X10
 41
0.9
  7
CADDY_VECTORFONT1P
 72
     2
 11
70.05000305175781
 21
91.30000305175781
 31
0.0
  2
$TAG160010
 70
     1
  0
ATTRIB
  5
E5
  8
0
 10
74.09999084472656
 20
94.19999694824219
 30
0.0
 40
2.450004577636719
  1
2
 50
90.0
 41
0.9
  7
CADDY_VECTORFONT1P
  2
$TAG160400
 70
     0
  0
ATTRIB
  5
E7
  8
0
 10
77.59999084472656
 20
94.19999694824219
 30
0.0
 40
2.450004577636719
  1
124
 50
90.0
 41
0.9
  7
CADDY_VECTORFONT1P
  2
$TAG160410
 70
     1
  0
ATTRIB
  5
E9
  8
0
 10
70.04999542236328
 20
87.80000305175781
 30
0.0
 40
2.450004577636719
  1

 41
0.9
  7
CADDY_VECTORFONT1P
 72
     2
 11
70.04999542236328
 21
87.80000305175781
 31
0.0
  2
$TAG160030
 70
     1
  0
ATTRIB
  5
EB
  8
0
 10
48.34173749160767
 20
82.80000305175781
 30
0.0
 40
2.450004577636719
  1
AB1RR235U2GR
 41
0.9
  7
CADDY_VECTORFONT1P
 72
     2
 11
70.05000305175781
 21
82.80000305175781
 31
0.0
  2
$TAG160040
 70
     1
  0
ATTRIB
  5
ED
  8
0
 10
68.70274553451539
 20
98.30000305175781
 30
0.0
 40
2.450004577636719
  1
=
 41
0.9
  7
CADDY_VECTORFONT1P
 72
     2
 11
70.05000305175781
 21
98.30000305175781
 31
0.0
  2
$TAG140020
 70
     1
  0
ATTRIB
  5
EF
  8
0
 10
68.70273790512086
 20
94.80000305175781
 30
0.0
 40
2.450004577636719
  1
+
 41
0.9
  7
CADDY_VECTORFONT1P
 72
     2
 11
70.04999542236328
 21
94.80000305175781
 31
0.0
  2
$TAG140050
 70
     1
  0
SEQEND
  5
E3
  8
0
  0
INSERT
  5
F4
  8
0
 66
     1
  2
BLK5
 10
0.0
 20
0.0
 30
1.0
  0
ATTRIB
  5
F8
  8
0
 10
61.47348636932373
 20
91.30000305175781
 30
0.0
 40
2.450004577636719
  1
X9
 41
0.9
  7
CADDY_VECTORFONT1P
 72
     2
 11
65.05000305175781
 21
91.30000305175781
 31
0.0
  2
$TAG160010
 70
     0
  0
ATTRIB
  5
FB
  8
0
 10
69.09999084472656
 20
94.19999694824219
 30
0.0
 40
2.450004577636719
  1
1
 50
90.0
 41
0.9
  7
CADDY_VECTORFONT1P
  2
$TAG160400
 70
     0
  0
ATTRIB
  5
FD
  8
0
 10
72.59999084472656
 20
94.19999694824219
 30
0.0
 40
2.450004577636719
  1
125
 50
90.0
 41
0.9
  7
CADDY_VECTORFONT1P
  2
$TAG160410
 70
     1
  0
ATTRIB
  5
FF
  8
0
 10
65.04999542236328
 20
87.80000305175781
 30
0.0
 40
2.450004577636719
  1

 41
0.9
  7
CADDY_VECTORFONT1P
 72
     2
 11
65.04999542236328
 21
87.80000305175781
 31
0.0
  2
$TAG160030
 70
     1
  0
ATTRIB
  5
101
  8
0
 10
43.34172986221314
 20
82.80000305175781
 30
0.0
 40
2.450004577636719
  1
AB1RR235U2GR
 41
0.9
  7
CADDY_VECTORFONT1P
 72
     2
 11
65.04999542236328
 21
82.80000305175781
 31
0.0
  2
$TAG160040
 70
     1
  0
ATTRIB
  5
103
  8
0
 10
63.70274553451538
 20
98.30000305175781
 30
0.0
 40
2.450004577636719
  1
=
 41
0.9
  7
CADDY_VECTORFONT1P
 72
     2
 11
65.05000305175781
 21
98.30000305175781
 31
0.0
  2
$TAG140020
 70
     1
  0
ATTRIB
  5
105
  8
0
 10
63.70274553451538
 20
94.80000305175781
 30
0.0
 40
2.450004577636719
  1
+
 41
0.9
  7
CADDY_VECTORFONT1P
 72
     2
 11
65.05000305175781
 21
94.80000305175781
 31
0.0
  2
$TAG140050
 70
     1
  0
SEQEND
  5
F9
  8
0
  0
INSERT
  5
10A
  8
0
 66
     1
  2
BLK6
 10
0.0
 20
0.0
 30
1.0
  0
ATTRIB
  5
10E
  8
0
 10
41.59999465942383
 20
235.9000091552734
 30
0.0
 40
2.449996948242188
  1
0811
 41
0.9
  7
CADDY_VECTORFONT1P
  2
$TAG160010
 70
     0
  0
ATTRIB
  5
111
  8
0
 10
31.1787359451294
 20
233.9499969482422
 30
0.0
 40
2.449996948242188
  1
8.8
 41
0.9
  7
CADDY_VECTORFONT1P
 72
     2
 11
34.99999618530273
 21
233.9499969482422
 31
0.0
  2
$TAG160500
 70
     0
  0
ATTRIB
  5
113
  8
0
 10
41.59999465942383
 20
242.9000091552734
 30
0.0
 40
2.449996948242188
  1
=
 41
0.9
  7
CADDY_VECTORFONT1P
  2
$TAG140020
 70
     1
  0
ATTRIB
  5
115
  8
0
 10
41.59999465942383
 20
239.4000091552734
 30
0.0
 40
2.449996948242188
  1
+
 41
0.9
  7
CADDY_VECTORFONT1P
  2
$TAG140050
 70
     1
  0
SEQEND
  5
10F
  8
0
  0
INSERT
  5
11A
  8
0
 66
     1
  2
BLK7
 10
0.0
 20
0.0
 30
1.0
  0
ATTRIB
  5
11E
  8
0
 10
51.59999465942383
 20
240.9000091552734
 30
0.0
 40
2.449996948242188
  1
0810
 41
0.9
  7
CADDY_VECTORFONT1P
  2
$TAG160010
 70
     0
  0
ATTRIB
  5
121
  8
0
 10
41.1787359451294
 20
238.9499969482422
 30
0.0
 40
2.449996948242188
  1
8.8
 41
0.9
  7
CADDY_VECTORFONT1P
 72
     2
 11
44.99999618530273
 21
238.9499969482422
 31
0.0
  2
$TAG160500
 70
     0
  0
ATTRIB
  5
123
  8
0
 10
51.59999465942383
 20
247.9000091552734
 30
0.0
 40
2.449996948242188
  1
=
 41
0.9
  7
CADDY_VECTORFONT1P
  2
$TAG140020
 70
     1
  0
ATTRIB
  5
125
  8
0
 10
51.59999465942383
 20
244.4000091552734
 30
0.0
 40
2.449996948242188
  1
+
 41
0.9
  7
CADDY_VECTORFONT1P
  2
$TAG140050
 70
     1
  0
SEQEND
  5
11F
  8
0
  0
INSERT
  5
12A
  8
0
 66
     1
  2
BLK8
 10
0.0
 20
0.0
 30
1.0
  0
ATTRIB
  5
12C
  8
0
 10
88.46820369186402
 20
58.80000686645508
 30
0.0
 40
2.450000762939453
  1
9B2
 41
0.9
  7
CADDY_VECTORFONT1P
 72
     2
 11
93.50001525878906
 21
58.80000686645508
 31
0.0
  2
$TAG160010
 70
     0
  0
ATTRIB
  5
12F
  8
0
 10
113.5000076293945
 20
51.80000686645508
 30
0.0
 40
2.450000762939453
  1

 41
0.9
  7
CADDY_VECTORFONT1P
 72
     2
 11
113.5000076293945
 21
51.80000686645508
 31
0.0
  2
$TAG160040
 70
     1
  0
ATTRIB
  5
131
  8
0
 10
113.5000076293945
 20
55.30000686645508
 30
0.0
 40
2.450000762939453
  1

 41
0.9
  7
CADDY_VECTORFONT1P
 72
     2
 11
113.5000076293945
 21
55.30000686645508
 31
0.0
  2
$TAG160030
 70
     0
  0
ATTRIB
  5
153
  8
0
 10
116.9000091552734
 20
60.89999771118164
 30
0.0
 40
2.450000762939453
  1
1
 41
0.9
  7
CADDY_VECTORFONT1P
  2
$TAG175000_00
 70
     0
  0
SEQEND
  5
12D
  8
0
  0
INSERT
  5
158
  8
0
 66
     1
  2
BLK11
 10
0.0
 20
0.0
 30
1.0
  0
ATTRIB
  5
15C
  8
0
 10
113.5342082481384
 20
91.30000305175781
 30
0.0
 40
2.450004577636719
  1
-X10
 41
0.9
  7
CADDY_VECTORFONT1P
 72
     2
 11
120.0499954223633
 21
91.30000305175781
 31
0.0
  2
$TAG160010
 70
     1
  0
ATTRIB
  5
15F
  8
0
 10
124.0999908447266
 20
94.19999694824219
 30
0.0
 40
2.450004577636719
  1
8
 50
90.0
 41
0.9
  7
CADDY_VECTORFONT1P
  2
$TAG160400
 70
     0
  0
ATTRIB
  5
161
  8
0
 10
127.5999908447266
 20
94.19999694824219
 30
0.0
 40
2.450004577636719
  1
122
 50
90.0
 41
0.9
  7
CADDY_VECTORFONT1P
  2
$TAG160410
 70
     1
  0
ATTRIB
  5
163
  8
0
 10
120.0499954223633
 20
87.80000305175781
 30
0.0
 40
2.450004577636719
  1

 41
0.9
  7
CADDY_VECTORFONT1P
 72
     2
 11
120.0499954223633
 21
87.80000305175781
 31
0.0
  2
$TAG160030
 70
     1
  0
ATTRIB
  5
165
  8
0
 10
98.34175275039672
 20
82.80000305175781
 30
0.0
 40
2.450004577636719
  1
AB1RR235U2GR
 41
0.9
  7
CADDY_VECTORFONT1P
 72
     2
 11
120.0500183105469
 21
82.80000305175781
 31
0.0
  2
$TAG160040
 70
     1
  0
ATTRIB
  5
167
  8
0
 10
118.7027455345154
 20
98.30000305175781
 30
0.0
 40
2.450004577636719
  1
=
 41
0.9
  7
CADDY_VECTORFONT1P
 72
     2
 11
120.0500030517578
 21
98.30000305175781
 31
0.0
  2
$TAG140020
 70
     1
  0
ATTRIB
  5
169
  8
0
 10
118.7027379051209
 20
94.80000305175781
 30
0.0
 40
2.450004577636719
  1
+
 41
0.9
  7
CADDY_VECTORFONT1P
 72
     2
 11
120.0499954223633
 21
94.80000305175781
 31
0.0
  2
$TAG140050
 70
     1
  0
SEQEND
  5
15D
  8
0
  0
INSERT
  5
16E
  8
0
 66
     1
  2
BLK12
 10
0.0
 20
0.0
 30
1.0
  0
ATTRIB
  5
172
  8
0
 10
108.5342082481384
 20
91.30000305175781
 30
0.0
 40
2.450004577636719
  1
-X10
 41
0.9
  7
CADDY_VECTORFONT1P
 72
     2
 11
115.0499954223633
 21
91.30000305175781
 31
0.0
  2
$TAG160010
 70
     1
  0
ATTRIB
  5
175
  8
0
 10
119.0999908447266
 20
94.19999694824219
 30
0.0
 40
2.450004577636719
  1
7
 50
90.0
 41
0.9
  7
CADDY_VECTORFONT1P
  2
$TAG160400
 70
     0
  0
ATTRIB
  5
177
  8
0
 10
122.5999908447266
 20
94.19999694824219
 30
0.0
 40
2.450004577636719
  1
123
 50
90.0
 41
0.9
  7
CADDY_VECTORFONT1P
  2
$TAG160410
 70
     1
  0
ATTRIB
  5
179
  8
0
 10
115.0499954223633
 20
87.80000305175781
 30
0.0
 40
2.450004577636719
  1

 41
0.9
  7
CADDY_VECTORFONT1P
 72
     2
 11
115.0499954223633
 21
87.80000305175781
 31
0.0
  2
$TAG160030
 70
     1
  0
ATTRIB
  5
17B
  8
0
 10
93.34175275039672
 20
82.80000305175781
 30
0.0
 40
2.450004577636719
  1
AB1RR235U2GR
 41
0.9
  7
CADDY_VECTORFONT1P
 72
     2
 11
115.0500183105469
 21
82.80000305175781
 31
0.0
  2
$TAG160040
 70
     1
  0
ATTRIB
  5
17D
  8
0
 10
113.7027455345154
 20
98.30000305175781
 30
0.0
 40
2.450004577636719
  1
=
 41
0.9
  7
CADDY_VECTORFONT1P
 72
     2
 11
115.0500030517578
 21
98.30000305175781
 31
0.0
  2
$TAG140020
 70
     1
  0
ATTRIB
  5
17F
  8
0
 10
113.7027379051209
 20
94.80000305175781
 30
0.0
 40
2.450004577636719
  1
+
 41
0.9
  7
CADDY_VECTORFONT1P
 72
     2
 11
115.0499954223633
 21
94.80000305175781
 31
0.0
  2
$TAG140050
 70
     1
  0
SEQEND
  5
173
  8
0
  0
INSERT
  5
184
  8
0
 66
     1
  2
BLK13
 10
0.0
 20
0.0
 30
1.0
  0
ATTRIB
  5
188
  8
0
 10
103.5342082481384
 20
91.30000305175781
 30
0.0
 40
2.450004577636719
  1
-X10
 41
0.9
  7
CADDY_VECTORFONT1P
 72
     2
 11
110.0499954223633
 21
91.30000305175781
 31
0.0
  2
$TAG160010
 70
     1
  0
ATTRIB
  5
18B
  8
0
 10
114.0999908447266
 20
94.19999694824219
 30
0.0
 40
2.450004577636719
  1
6
 50
90.0
 41
0.9
  7
CADDY_VECTORFONT1P
  2
$TAG160400
 70
     0
  0
ATTRIB
  5
18D
  8
0
 10
117.5999908447266
 20
94.19999694824219
 30
0.0
 40
2.450004577636719
  1
124
 50
90.0
 41
0.9
  7
CADDY_VECTORFONT1P
  2
$TAG160410
 70
     1
  0
ATTRIB
  5
18F
  8
0
 10
110.0499954223633
 20
87.80000305175781
 30
0.0
 40
2.450004577636719
  1

 41
0.9
  7
CADDY_VECTORFONT1P
 72
     2
 11
110.0499954223633
 21
87.80000305175781
 31
0.0
  2
$TAG160030
 70
     1
  0
ATTRIB
  5
191
  8
0
 10
88.34175275039672
 20
82.80000305175781
 30
0.0
 40
2.450004577636719
  1
AB1RR235U2GR
 41
0.9
  7
CADDY_VECTORFONT1P
 72
     2
 11
110.0500183105469
 21
82.80000305175781
 31
0.0
  2
$TAG160040
 70
     1
  0
ATTRIB
  5
193
  8
0
 10
108.7027455345154
 20
98.30000305175781
 30
0.0
 40
2.450004577636719
  1
=
 41
0.9
  7
CADDY_VECTORFONT1P
 72
     2
 11
110.0500030517578
 21
98.30000305175781
 31
0.0
  2
$TAG140020
 70
     1
  0
ATTRIB
  5
195
  8
0
 10
108.7027379051209
 20
94.80000305175781
 30
0.0
 40
2.450004577636719
  1
+
 41
0.9
  7
CADDY_VECTORFONT1P
 72
     2
 11
110.0499954223633
 21
94.80000305175781
 31
0.0
  2
$TAG140050
 70
     1
  0
SEQEND
  5
189
  8
0
  0
INSERT
  5
19A
  8
0
 66
     1
  2
BLK14
 10
0.0
 20
0.0
 30
1.0
  0
ATTRIB
  5
19E
  8
0
 10
101.4734787399292
 20
91.30000305175781
 30
0.0
 40
2.450004577636719
  1
X9
 41
0.9
  7
CADDY_VECTORFONT1P
 72
     2
 11
105.0499954223633
 21
91.30000305175781
 31
0.0
  2
$TAG160010
 70
     0
  0
ATTRIB
  5
1A1
  8
0
 10
109.0999908447266
 20
94.19999694824219
 30
0.0
 40
2.450004577636719
  1
5
 50
90.0
 41
0.9
  7
CADDY_VECTORFONT1P
  2
$TAG160400
 70
     0
  0
ATTRIB
  5
1A3
  8
0
 10
112.5999908447266
 20
94.19999694824219
 30
0.0
 40
2.450004577636719
  1
125
 50
90.0
 41
0.9
  7
CADDY_VECTORFONT1P
  2
$TAG160410
 70
     1
  0
ATTRIB
  5
1A5
  8
0
 10
105.0499954223633
 20
87.80000305175781
 30
0.0
 40
2.450004577636719
  1

 41
0.9
  7
CADDY_VECTORFONT1P
 72
     2
 11
105.0499954223633
 21
87.80000305175781
 31
0.0
  2
$TAG160030
 70
     1
  0
ATTRIB
  5
1A7
  8
0
 10
83.34175275039672
 20
82.80000305175781
 30
0.0
 40
2.450004577636719
  1
AB1RR235U2GR
 41
0.9
  7
CADDY_VECTORFONT1P
 72
     2
 11
105.0500183105469
 21
82.80000305175781
 31
0.0
  2
$TAG160040
 70
     1
  0
ATTRIB
  5
1A9
  8
0
 10
103.7027455345154
 20
98.30000305175781
 30
0.0
 40
2.450004577636719
  1
=
 41
0.9
  7
CADDY_VECTORFONT1P
 72
     2
 11
105.0500030517578
 21
98.30000305175781
 31
0.0
  2
$TAG140020
 70
     1
  0
ATTRIB
  5
1AB
  8
0
 10
103.7027379051209
 20
94.80000305175781
 30
0.0
 40
2.450004577636719
  1
+
 41
0.9
  7
CADDY_VECTORFONT1P
 72
     2
 11
105.0499954223633
 21
94.80000305175781
 31
0.0
  2
$TAG140050
 70
     1
  0
SEQEND
  5
19F
  8
0
  0
LINE
  5
1AD
  8
0
  6
CADDY_SOLID
 10
110.0
 20
55.0
 30
0.0
 11
110.0
 21
45.0
 31
0.0
  0
LINE
  5
1AE
  8
0
  6
CADDY_SOLID
 10
110.0
 20
45.0
 30
0.0
 11
115.0
 21
45.0
 31
0.0
  0
LINE
  5
1AF
  8
0
  6
CADDY_SOLID
 10
120.0
 20
55.0
 30
0.0
 11
120.0
 21
45.0
 31
0.0
  0
LINE
  5
1B0
  8
0
  6
CADDY_SOLID
 10
120.0
 20
45.0
 30
0.0
 11
125.0
 21
45.0
 31
0.0
  0
INSERT
  5
1B4
  8
0
 66
     1
  2
BLK15
 10
0.0
 20
0.0
 30
1.0
  0
ATTRIB
  5
1B8
  8
0
 10
153.534215877533
 20
91.30000305175781
 30
0.0
 40
2.450004577636719
  1
-X10
 41
0.9
  7
CADDY_VECTORFONT1P
 72
     2
 11
160.0500030517578
 21
91.30000305175781
 31
0.0
  2
$TAG160010
 70
     1
  0
ATTRIB
  5
1BB
  8
0
 10
164.0999908447266
 20
94.19999694824219
 30
0.0
 40
2.450004577636719
  1
12
 50
90.0
 41
0.9
  7
CADDY_VECTORFONT1P
  2
$TAG160400
 70
     0
  0
ATTRIB
  5
1BD
  8
0
 10
167.5999908447266
 20
94.19999694824219
 30
0.0
 40
2.450004577636719
  1
122
 50
90.0
 41
0.9
  7
CADDY_VECTORFONT1P
  2
$TAG160410
 70
     1
  0
ATTRIB
  5
1BF
  8
0
 10
160.0500030517578
 20
87.80000305175781
 30
0.0
 40
2.450004577636719
  1

 41
0.9
  7
CADDY_VECTORFONT1P
 72
     2
 11
160.0500030517578
 21
87.80000305175781
 31
0.0
  2
$TAG160030
 70
     1
  0
ATTRIB
  5
1C1
  8
0
 10
138.3417527503967
 20
82.80000305175781
 30
0.0
 40
2.450004577636719
  1
AB1RR235U2GR
 41
0.9
  7
CADDY_VECTORFONT1P
 72
     2
 11
160.0500183105469
 21
82.80000305175781
 31
0.0
  2
$TAG160040
 70
     1
  0
ATTRIB
  5
1C3
  8
0
 10
158.7027455345154
 20
98.30000305175781
 30
0.0
 40
2.450004577636719
  1
=
 41
0.9
  7
CADDY_VECTORFONT1P
 72
     2
 11
160.0500030517578
 21
98.30000305175781
 31
0.0
  2
$TAG140020
 70
     1
  0
ATTRIB
  5
1C5
  8
0
 10
158.7027302757263
 20
94.80000305175781
 30
0.0
 40
2.450004577636719
  1
+
 41
0.9
  7
CADDY_VECTORFONT1P
 72
     2
 11
160.0499877929688
 21
94.80000305175781
 31
0.0
  2
$TAG140050
 70
     1
  0
SEQEND
  5
1B9
  8
0
  0
INSERT
  5
1CA
  8
0
 66
     1
  2
BLK16
 10
0.0
 20
0.0
 30
1.0
  0
ATTRIB
  5
1CE
  8
0
 10
148.534215877533
 20
91.30000305175781
 30
0.0
 40
2.450004577636719
  1
-X10
 41
0.9
  7
CADDY_VECTORFONT1P
 72
     2
 11
155.0500030517578
 21
91.30000305175781
 31
0.0
  2
$TAG160010
 70
     1
  0
ATTRIB
  5
1D1
  8
0
 10
159.0999908447266
 20
94.19999694824219
 30
0.0
 40
2.450004577636719
  1
11
 50
90.0
 41
0.9
  7
CADDY_VECTORFONT1P
  2
$TAG160400
 70
     0
  0
ATTRIB
  5
1D3
  8
0
 10
162.5999908447266
 20
94.19999694824219
 30
0.0
 40
2.450004577636719
  1
123
 50
90.0
 41
0.9
  7
CADDY_VECTORFONT1P
  2
$TAG160410
 70
     1
  0
ATTRIB
  5
1D5
  8
0
 10
155.0500030517578
 20
87.80000305175781
 30
0.0
 40
2.450004577636719
  1

 41
0.9
  7
CADDY_VECTORFONT1P
 72
     2
 11
155.0500030517578
 21
87.80000305175781
 31
0.0
  2
$TAG160030
 70
     1
  0
ATTRIB
  5
1D7
  8
0
 10
133.3417527503967
 20
82.80000305175781
 30
0.0
 40
2.450004577636719
  1
AB1RR235U2GR
 41
0.9
  7
CADDY_VECTORFONT1P
 72
     2
 11
155.0500183105469
 21
82.80000305175781
 31
0.0
  2
$TAG160040
 70
     1
  0
ATTRIB
  5
1D9
  8
0
 10
153.7027455345154
 20
98.30000305175781
 30
0.0
 40
2.450004577636719
  1
=
 41
0.9
  7
CADDY_VECTORFONT1P
 72
     2
 11
155.0500030517578
 21
98.30000305175781
 31
0.0
  2
$TAG140020
 70
     1
  0
ATTRIB
  5
1DB
  8
0
 10
153.7027302757263
 20
94.80000305175781
 30
0.0
 40
2.450004577636719
  1
+
 41
0.9
  7
CADDY_VECTORFONT1P
 72
     2
 11
155.0499877929688
 21
94.80000305175781
 31
0.0
  2
$TAG140050
 70
     1
  0
SEQEND
  5
1CF
  8
0
  0
INSERT
  5
1E0
  8
0
 66
     1
  2
BLK17
 10
0.0
 20
0.0
 30
1.0
  0
ATTRIB
  5
1E4
  8
0
 10
143.534215877533
 20
91.30000305175781
 30
0.0
 40
2.450004577636719
  1
-X10
 41
0.9
  7
CADDY_VECTORFONT1P
 72
     2
 11
150.0500030517578
 21
91.30000305175781
 31
0.0
  2
$TAG160010
 70
     1
  0
ATTRIB
  5
1E7
  8
0
 10
154.0999908447266
 20
94.19999694824219
 30
0.0
 40
2.450004577636719
  1
10
 50
90.0
 41
0.9
  7
CADDY_VECTORFONT1P
  2
$TAG160400
 70
     0
  0
ATTRIB
  5
1E9
  8
0
 10
157.5999908447266
 20
94.19999694824219
 30
0.0
 40
2.450004577636719
  1
124
 50
90.0
 41
0.9
  7
CADDY_VECTORFONT1P
  2
$TAG160410
 70
     1
  0
ATTRIB
  5
1EB
  8
0
 10
150.0500030517578
 20
87.80000305175781
 30
0.0
 40
2.450004577636719
  1

 41
0.9
  7
CADDY_VECTORFONT1P
 72
     2
 11
150.0500030517578
 21
87.80000305175781
 31
0.0
  2
$TAG160030
 70
     1
  0
ATTRIB
  5
1ED
  8
0
 10
128.3417680091858
 20
82.80000305175781
 30
0.0
 40
2.450004577636719
  1
AB1RR235U2GR
 41
0.9
  7
CADDY_VECTORFONT1P
 72
     2
 11
150.0500335693359
 21
82.80000305175781
 31
0.0
  2
$TAG160040
 70
     1
  0
ATTRIB
  5
1EF
  8
0
 10
148.7027455345154
 20
98.30000305175781
 30
0.0
 40
2.450004577636719
  1
=
 41
0.9
  7
CADDY_VECTORFONT1P
 72
     2
 11
150.0500030517578
 21
98.30000305175781
 31
0.0
  2
$TAG140020
 70
     1
  0
ATTRIB
  5
1F1
  8
0
 10
148.7027302757263
 20
94.80000305175781
 30
0.0
 40
2.450004577636719
  1
+
 41
0.9
  7
CADDY_VECTORFONT1P
 72
     2
 11
150.0499877929688
 21
94.80000305175781
 31
0.0
  2
$TAG140050
 70
     1
  0
SEQEND
  5
1E5
  8
0
  0
INSERT
  5
1F6
  8
0
 66
     1
  2
BLK18
 10
0.0
 20
0.0
 30
1.0
  0
ATTRIB
  5
1FA
  8
0
 10
141.4734863693237
 20
91.30000305175781
 30
0.0
 40
2.450004577636719
  1
X9
 41
0.9
  7
CADDY_VECTORFONT1P
 72
     2
 11
145.0500030517578
 21
91.30000305175781
 31
0.0
  2
$TAG160010
 70
     0
  0
ATTRIB
  5
1FD
  8
0
 10
149.0999908447266
 20
94.19999694824219
 30
0.0
 40
2.450004577636719
  1
9
 50
90.0
 41
0.9
  7
CADDY_VECTORFONT1P
  2
$TAG160400
 70
     0
  0
ATTRIB
  5
1FF
  8
0
 10
152.5999908447266
 20
94.19999694824219
 30
0.0
 40
2.450004577636719
  1
125
 50
90.0
 41
0.9
  7
CADDY_VECTORFONT1P
  2
$TAG160410
 70
     1
  0
ATTRIB
  5
201
  8
0
 10
145.0500030517578
 20
87.80000305175781
 30
0.0
 40
2.450004577636719
  1

 41
0.9
  7
CADDY_VECTORFONT1P
 72
     2
 11
145.0500030517578
 21
87.80000305175781
 31
0.0
  2
$TAG160030
 70
     1
  0
ATTRIB
  5
203
  8
0
 10
123.3417527503967
 20
82.80000305175781
 30
0.0
 40
2.450004577636719
  1
AB1RR235U2GR
 41
0.9
  7
CADDY_VECTORFONT1P
 72
     2
 11
145.0500183105469
 21
82.80000305175781
 31
0.0
  2
$TAG160040
 70
     1
  0
ATTRIB
  5
205
  8
0
 10
143.7027455345154
 20
98.30000305175781
 30
0.0
 40
2.450004577636719
  1
=
 41
0.9
  7
CADDY_VECTORFONT1P
 72
     2
 11
145.0500030517578
 21
98.30000305175781
 31
0.0
  2
$TAG140020
 70
     1
  0
ATTRIB
  5
207
  8
0
 10
143.7027302757263
 20
94.80000305175781
 30
0.0
 40
2.450004577636719
  1
+
 41
0.9
  7
CADDY_VECTORFONT1P
 72
     2
 11
145.0499877929688
 21
94.80000305175781
 31
0.0
  2
$TAG140050
 70
     1
  0
SEQEND
  5
1FB
  8
0
  0
INSERT
  5
20C
  8
0
 66
     1
  2
BLK19
 10
0.0
 20
0.0
 30
1.0
  0
ATTRIB
  5
210
  8
0
 10
193.534215877533
 20
91.30000305175781
 30
0.0
 40
2.450004577636719
  1
-X10
 41
0.9
  7
CADDY_VECTORFONT1P
 72
     2
 11
200.0500030517578
 21
91.30000305175781
 31
0.0
  2
$TAG160010
 70
     1
  0
ATTRIB
  5
213
  8
0
 10
204.0999908447266
 20
94.19999694824219
 30
0.0
 40
2.450004577636719
  1
16
 50
90.0
 41
0.9
  7
CADDY_VECTORFONT1P
  2
$TAG160400
 70
     0
  0
ATTRIB
  5
215
  8
0
 10
207.5999908447266
 20
94.19999694824219
 30
0.0
 40
2.450004577636719
  1
122
 50
90.0
 41
0.9
  7
CADDY_VECTORFONT1P
  2
$TAG160410
 70
     1
  0
ATTRIB
  5
217
  8
0
 10
200.0500030517578
 20
87.80000305175781
 30
0.0
 40
2.450004577636719
  1

 41
0.9
  7
CADDY_VECTORFONT1P
 72
     2
 11
200.0500030517578
 21
87.80000305175781
 31
0.0
  2
$TAG160030
 70
     1
  0
ATTRIB
  5
219
  8
0
 10
178.3417527503967
 20
82.80000305175781
 30
0.0
 40
2.450004577636719
  1
AB1RR235U2GR
 41
0.9
  7
CADDY_VECTORFONT1P
 72
     2
 11
200.0500183105469
 21
82.80000305175781
 31
0.0
  2
$TAG160040
 70
     1
  0
ATTRIB
  5
21B
  8
0
 10
198.7027455345154
 20
98.30000305175781
 30
0.0
 40
2.450004577636719
  1
=
 41
0.9
  7
CADDY_VECTORFONT1P
 72
     2
 11
200.0500030517578
 21
98.30000305175781
 31
0.0
  2
$TAG140020
 70
     1
  0
ATTRIB
  5
21D
  8
0
 10
198.7027302757263
 20
94.80000305175781
 30
0.0
 40
2.450004577636719
  1
+
 41
0.9
  7
CADDY_VECTORFONT1P
 72
     2
 11
200.0499877929688
 21
94.80000305175781
 31
0.0
  2
$TAG140050
 70
     1
  0
SEQEND
  5
211
  8
0
  0
INSERT
  5
222
  8
0
 66
     1
  2
BLK20
 10
0.0
 20
0.0
 30
1.0
  0
ATTRIB
  5
226
  8
0
 10
188.534215877533
 20
91.30000305175781
 30
0.0
 40
2.450004577636719
  1
-X10
 41
0.9
  7
CADDY_VECTORFONT1P
 72
     2
 11
195.0500030517578
 21
91.30000305175781
 31
0.0
  2
$TAG160010
 70
     1
  0
ATTRIB
  5
229
  8
0
 10
199.0999908447266
 20
94.19999694824219
 30
0.0
 40
2.450004577636719
  1
15
 50
90.0
 41
0.9
  7
CADDY_VECTORFONT1P
  2
$TAG160400
 70
     0
  0
ATTRIB
  5
22B
  8
0
 10
202.5999908447266
 20
94.19999694824219
 30
0.0
 40
2.450004577636719
  1
123
 50
90.0
 41
0.9
  7
CADDY_VECTORFONT1P
  2
$TAG160410
 70
     1
  0
ATTRIB
  5
22D
  8
0
 10
195.0500030517578
 20
87.80000305175781
 30
0.0
 40
2.450004577636719
  1

 41
0.9
  7
CADDY_VECTORFONT1P
 72
     2
 11
195.0500030517578
 21
87.80000305175781
 31
0.0
  2
$TAG160030
 70
     1
  0
ATTRIB
  5
22F
  8
0
 10
173.3417527503967
 20
82.80000305175781
 30
0.0
 40
2.450004577636719
  1
AB1RR235U2GR
 41
0.9
  7
CADDY_VECTORFONT1P
 72
     2
 11
195.0500183105469
 21
82.80000305175781
 31
0.0
  2
$TAG160040
 70
     1
  0
ATTRIB
  5
231
  8
0
 10
193.7027455345154
 20
98.30000305175781
 30
0.0
 40
2.450004577636719
  1
=
 41
0.9
  7
CADDY_VECTORFONT1P
 72
     2
 11
195.0500030517578
 21
98.30000305175781
 31
0.0
  2
$TAG140020
 70
     1
  0
ATTRIB
  5
233
  8
0
 10
193.7027302757263
 20
94.80000305175781
 30
0.0
 40
2.450004577636719
  1
+
 41
0.9
  7
CADDY_VECTORFONT1P
 72
     2
 11
195.0499877929688
 21
94.80000305175781
 31
0.0
  2
$TAG140050
 70
     1
  0
SEQEND
  5
227
  8
0
  0
INSERT
  5
238
  8
0
 66
     1
  2
BLK21
 10
0.0
 20
0.0
 30
1.0
  0
ATTRIB
  5
23C
  8
0
 10
183.534215877533
 20
91.30000305175781
 30
0.0
 40
2.450004577636719
  1
-X10
 41
0.9
  7
CADDY_VECTORFONT1P
 72
     2
 11
190.0500030517578
 21
91.30000305175781
 31
0.0
  2
$TAG160010
 70
     1
  0
ATTRIB
  5
23F
  8
0
 10
194.0999908447266
 20
94.19999694824219
 30
0.0
 40
2.450004577636719
  1
14
 50
90.0
 41
0.9
  7
CADDY_VECTORFONT1P
  2
$TAG160400
 70
     0
  0
ATTRIB
  5
241
  8
0
 10
197.5999908447266
 20
94.19999694824219
 30
0.0
 40
2.450004577636719
  1
124
 50
90.0
 41
0.9
  7
CADDY_VECTORFONT1P
  2
$TAG160410
 70
     1
  0
ATTRIB
  5
243
  8
0
 10
190.0500030517578
 20
87.80000305175781
 30
0.0
 40
2.450004577636719
  1

 41
0.9
  7
CADDY_VECTORFONT1P
 72
     2
 11
190.0500030517578
 21
87.80000305175781
 31
0.0
  2
$TAG160030
 70
     1
  0
ATTRIB
  5
245
  8
0
 10
168.3417527503967
 20
82.80000305175781
 30
0.0
 40
2.450004577636719
  1
AB1RR235U2GR
 41
0.9
  7
CADDY_VECTORFONT1P
 72
     2
 11
190.0500183105469
 21
82.80000305175781
 31
0.0
  2
$TAG160040
 70
     1
  0
ATTRIB
  5
247
  8
0
 10
188.7027455345154
 20
98.30000305175781
 30
0.0
 40
2.450004577636719
  1
=
 41
0.9
  7
CADDY_VECTORFONT1P
 72
     2
 11
190.0500030517578
 21
98.30000305175781
 31
0.0
  2
$TAG140020
 70
     1
  0
ATTRIB
  5
249
  8
0
 10
188.7027302757263
 20
94.80000305175781
 30
0.0
 40
2.450004577636719
  1
+
 41
0.9
  7
CADDY_VECTORFONT1P
 72
     2
 11
190.0499877929688
 21
94.80000305175781
 31
0.0
  2
$TAG140050
 70
     1
  0
SEQEND
  5
23D
  8
0
  0
INSERT
  5
24E
  8
0
 66
     1
  2
BLK22
 10
0.0
 20
0.0
 30
1.0
  0
ATTRIB
  5
252
  8
0
 10
181.4734863693237
 20
91.30000305175781
 30
0.0
 40
2.450004577636719
  1
X9
 41
0.9
  7
CADDY_VECTORFONT1P
 72
     2
 11
185.0500030517578
 21
91.30000305175781
 31
0.0
  2
$TAG160010
 70
     0
  0
ATTRIB
  5
255
  8
0
 10
189.0999908447266
 20
94.19999694824219
 30
0.0
 40
2.450004577636719
  1
13
 50
90.0
 41
0.9
  7
CADDY_VECTORFONT1P
  2
$TAG160400
 70
     0
  0
ATTRIB
  5
257
  8
0
 10
192.5999908447266
 20
94.19999694824219
 30
0.0
 40
2.450004577636719
  1
125
 50
90.0
 41
0.9
  7
CADDY_VECTORFONT1P
  2
$TAG160410
 70
     1
  0
ATTRIB
  5
259
  8
0
 10
185.0500030517578
 20
87.80000305175781
 30
0.0
 40
2.450004577636719
  1

 41
0.9
  7
CADDY_VECTORFONT1P
 72
     2
 11
185.0500030517578
 21
87.80000305175781
 31
0.0
  2
$TAG160030
 70
     1
  0
ATTRIB
  5
25B
  8
0
 10
163.3417527503967
 20
82.80000305175781
 30
0.0
 40
2.450004577636719
  1
AB1RR235U2GR
 41
0.9
  7
CADDY_VECTORFONT1P
 72
     2
 11
185.0500183105469
 21
82.80000305175781
 31
0.0
  2
$TAG160040
 70
     1
  0
ATTRIB
  5
25D
  8
0
 10
183.7027455345154
 20
98.30000305175781
 30
0.0
 40
2.450004577636719
  1
=
 41
0.9
  7
CADDY_VECTORFONT1P
 72
     2
 11
185.0500030517578
 21
98.30000305175781
 31
0.0
  2
$TAG140020
 70
     1
  0
ATTRIB
  5
25F
  8
0
 10
183.7027302757263
 20
94.80000305175781
 30
0.0
 40
2.450004577636719
  1
+
 41
0.9
  7
CADDY_VECTORFONT1P
 72
     2
 11
185.0499877929688
 21
94.80000305175781
 31
0.0
  2
$TAG140050
 70
     1
  0
SEQEND
  5
253
  8
0
  0
INSERT
  5
264
  8
0
 66
     1
  2
BLK23
 10
0.0
 20
0.0
 30
1.0
  0
ATTRIB
  5
268
  8
0
 10
233.534215877533
 20
91.30000305175781
 30
0.0
 40
2.450004577636719
  1
-X10
 41
0.9
  7
CADDY_VECTORFONT1P
 72
     2
 11
240.0500030517578
 21
91.30000305175781
 31
0.0
  2
$TAG160010
 70
     1
  0
ATTRIB
  5
26B
  8
0
 10
244.0999908447266
 20
94.19999694824219
 30
0.0
 40
2.450004577636719
  1
20
 50
90.0
 41
0.9
  7
CADDY_VECTORFONT1P
  2
$TAG160400
 70
     0
  0
ATTRIB
  5
26D
  8
0
 10
247.5999908447266
 20
94.19999694824219
 30
0.0
 40
2.450004577636719
  1
122
 50
90.0
 41
0.9
  7
CADDY_VECTORFONT1P
  2
$TAG160410
 70
     1
  0
ATTRIB
  5
26F
  8
0
 10
240.0500030517578
 20
87.80000305175781
 30
0.0
 40
2.450004577636719
  1

 41
0.9
  7
CADDY_VECTORFONT1P
 72
     2
 11
240.0500030517578
 21
87.80000305175781
 31
0.0
  2
$TAG160030
 70
     1
  0
ATTRIB
  5
271
  8
0
 10
218.3417527503967
 20
82.80000305175781
 30
0.0
 40
2.450004577636719
  1
AB1RR235U2GR
 41
0.9
  7
CADDY_VECTORFONT1P
 72
     2
 11
240.0500183105469
 21
82.80000305175781
 31
0.0
  2
$TAG160040
 70
     1
  0
ATTRIB
  5
273
  8
0
 10
238.7027455345154
 20
98.30000305175781
 30
0.0
 40
2.450004577636719
  1
=
 41
0.9
  7
CADDY_VECTORFONT1P
 72
     2
 11
240.0500030517578
 21
98.30000305175781
 31
0.0
  2
$TAG140020
 70
     1
  0
ATTRIB
  5
275
  8
0
 10
238.7027302757263
 20
94.80000305175781
 30
0.0
 40
2.450004577636719
  1
+
 41
0.9
  7
CADDY_VECTORFONT1P
 72
     2
 11
240.0499877929688
 21
94.80000305175781
 31
0.0
  2
$TAG140050
 70
     1
  0
SEQEND
  5
269
  8
0
  0
INSERT
  5
27A
  8
0
 66
     1
  2
BLK24
 10
0.0
 20
0.0
 30
1.0
  0
ATTRIB
  5
27E
  8
0
 10
228.534215877533
 20
91.30000305175781
 30
0.0
 40
2.450004577636719
  1
-X10
 41
0.9
  7
CADDY_VECTORFONT1P
 72
     2
 11
235.0500030517578
 21
91.30000305175781
 31
0.0
  2
$TAG160010
 70
     1
  0
ATTRIB
  5
281
  8
0
 10
239.0999908447266
 20
94.19999694824219
 30
0.0
 40
2.450004577636719
  1
19
 50
90.0
 41
0.9
  7
CADDY_VECTORFONT1P
  2
$TAG160400
 70
     0
  0
ATTRIB
  5
283
  8
0
 10
242.5999908447266
 20
94.19999694824219
 30
0.0
 40
2.450004577636719
  1
123
 50
90.0
 41
0.9
  7
CADDY_VECTORFONT1P
  2
$TAG160410
 70
     1
  0
ATTRIB
  5
285
  8
0
 10
235.0500030517578
 20
87.80000305175781
 30
0.0
 40
2.450004577636719
  1

 41
0.9
  7
CADDY_VECTORFONT1P
 72
     2
 11
235.0500030517578
 21
87.80000305175781
 31
0.0
  2
$TAG160030
 70
     1
  0
ATTRIB
  5
287
  8
0
 10
213.3417527503967
 20
82.80000305175781
 30
0.0
 40
2.450004577636719
  1
AB1RR235U2GR
 41
0.9
  7
CADDY_VECTORFONT1P
 72
     2
 11
235.0500183105469
 21
82.80000305175781
 31
0.0
  2
$TAG160040
 70
     1
  0
ATTRIB
  5
289
  8
0
 10
233.7027455345154
 20
98.30000305175781
 30
0.0
 40
2.450004577636719
  1
=
 41
0.9
  7
CADDY_VECTORFONT1P
 72
     2
 11
235.0500030517578
 21
98.30000305175781
 31
0.0
  2
$TAG140020
 70
     1
  0
ATTRIB
  5
28B
  8
0
 10
233.7027302757263
 20
94.80000305175781
 30
0.0
 40
2.450004577636719
  1
+
 41
0.9
  7
CADDY_VECTORFONT1P
 72
     2
 11
235.0499877929688
 21
94.80000305175781
 31
0.0
  2
$TAG140050
 70
     1
  0
SEQEND
  5
27F
  8
0
  0
INSERT
  5
290
  8
0
 66
     1
  2
BLK25
 10
0.0
 20
0.0
 30
1.0
  0
ATTRIB
  5
294
  8
0
 10
223.534215877533
 20
91.30000305175781
 30
0.0
 40
2.450004577636719
  1
-X10
 41
0.9
  7
CADDY_VECTORFONT1P
 72
     2
 11
230.0500030517578
 21
91.30000305175781
 31
0.0
  2
$TAG160010
 70
     1
  0
ATTRIB
  5
297
  8
0
 10
234.0999908447266
 20
94.19999694824219
 30
0.0
 40
2.450004577636719
  1
18
 50
90.0
 41
0.9
  7
CADDY_VECTORFONT1P
  2
$TAG160400
 70
     0
  0
ATTRIB
  5
299
  8
0
 10
237.5999908447266
 20
94.19999694824219
 30
0.0
 40
2.450004577636719
  1
124
 50
90.0
 41
0.9
  7
CADDY_VECTORFONT1P
  2
$TAG160410
 70
     1
  0
ATTRIB
  5
29B
  8
0
 10
230.0500030517578
 20
87.80000305175781
 30
0.0
 40
2.450004577636719
  1

 41
0.9
  7
CADDY_VECTORFONT1P
 72
     2
 11
230.0500030517578
 21
87.80000305175781
 31
0.0
  2
$TAG160030
 70
     1
  0
ATTRIB
  5
29D
  8
0
 10
208.3417527503967
 20
82.80000305175781
 30
0.0
 40
2.450004577636719
  1
AB1RR235U2GR
 41
0.9
  7
CADDY_VECTORFONT1P
 72
     2
 11
230.0500183105469
 21
82.80000305175781
 31
0.0
  2
$TAG160040
 70
     1
  0
ATTRIB
  5
29F
  8
0
 10
228.7027455345154
 20
98.30000305175781
 30
0.0
 40
2.450004577636719
  1
=
 41
0.9
  7
CADDY_VECTORFONT1P
 72
     2
 11
230.0500030517578
 21
98.30000305175781
 31
0.0
  2
$TAG140020
 70
     1
  0
ATTRIB
  5
2A1
  8
0
 10
228.7027302757263
 20
94.80000305175781
 30
0.0
 40
2.450004577636719
  1
+
 41
0.9
  7
CADDY_VECTORFONT1P
 72
     2
 11
230.0499877929688
 21
94.80000305175781
 31
0.0
  2
$TAG140050
 70
     1
  0
SEQEND
  5
295
  8
0
  0
INSERT
  5
2A6
  8
0
 66
     1
  2
BLK26
 10
0.0
 20
0.0
 30
1.0
  0
ATTRIB
  5
2AA
  8
0
 10
221.4734863693237
 20
91.30000305175781
 30
0.0
 40
2.450004577636719
  1
X9
 41
0.9
  7
CADDY_VECTORFONT1P
 72
     2
 11
225.0500030517578
 21
91.30000305175781
 31
0.0
  2
$TAG160010
 70
     0
  0
ATTRIB
  5
2AD
  8
0
 10
229.0999908447266
 20
94.19999694824219
 30
0.0
 40
2.450004577636719
  1
17
 50
90.0
 41
0.9
  7
CADDY_VECTORFONT1P
  2
$TAG160400
 70
     0
  0
ATTRIB
  5
2AF
  8
0
 10
232.5999908447266
 20
94.19999694824219
 30
0.0
 40
2.450004577636719
  1
125
 50
90.0
 41
0.9
  7
CADDY_VECTORFONT1P
  2
$TAG160410
 70
     1
  0
ATTRIB
  5
2B1
  8
0
 10
225.0500030517578
 20
87.80000305175781
 30
0.0
 40
2.450004577636719
  1

 41
0.9
  7
CADDY_VECTORFONT1P
 72
     2
 11
225.0500030517578
 21
87.80000305175781
 31
0.0
  2
$TAG160030
 70
     1
  0
ATTRIB
  5
2B3
  8
0
 10
203.3417527503967
 20
82.80000305175781
 30
0.0
 40
2.450004577636719
  1
AB1RR235U2GR
 41
0.9
  7
CADDY_VECTORFONT1P
 72
     2
 11
225.0500183105469
 21
82.80000305175781
 31
0.0
  2
$TAG160040
 70
     1
  0
ATTRIB
  5
2B5
  8
0
 10
223.7027455345154
 20
98.30000305175781
 30
0.0
 40
2.450004577636719
  1
=
 41
0.9
  7
CADDY_VECTORFONT1P
 72
     2
 11
225.0500030517578
 21
98.30000305175781
 31
0.0
  2
$TAG140020
 70
     1
  0
ATTRIB
  5
2B7
  8
0
 10
223.7027302757263
 20
94.80000305175781
 30
0.0
 40
2.450004577636719
  1
+
 41
0.9
  7
CADDY_VECTORFONT1P
 72
     2
 11
225.0499877929688
 21
94.80000305175781
 31
0.0
  2
$TAG140050
 70
     1
  0
SEQEND
  5
2AB
  8
0
  0
LINE
  5
2B9
  8
0
  6
CADDY_DOT
 10
190.0
 20
90.0
 30
0.0
 11
190.0
 21
85.0
 31
0.0
  0
LINE
  5
2BA
  8
0
  6
CADDY_DOT
 10
190.0
 20
85.0
 30
0.0
 11
195.0
 21
85.0
 31
0.0
  0
LINE
  5
2BB
  8
0
  6
CADDY_DOT
 10
195.0
 20
85.0
 30
0.0
 11
195.0
 21
90.0
 31
0.0
  0
LINE
  5
2BC
  8
0
  6
CADDY_DOT
 10
200.0
 20
90.0
 30
0.0
 11
200.0
 21
85.0
 31
0.0
  0
LINE
  5
2BD
  8
0
  6
CADDY_DOT
 10
200.0
 20
85.0
 30
0.0
 11
205.0
 21
85.0
 31
0.0
  0
LINE
  5
2BE
  8
0
  6
CADDY_DOT
 10
205.0
 20
85.0
 30
0.0
 11
205.0
 21
90.0
 31
0.0
  0
LINE
  5
2BF
  8
0
  6
CADDY_DOT
 10
230.0
 20
90.0
 30
0.0
 11
230.0
 21
85.0
 31
0.0
  0
LINE
  5
2C0
  8
0
  6
CADDY_DOT
 10
230.0
 20
85.0
 30
0.0
 11
235.0
 21
85.0
 31
0.0
  0
LINE
  5
2C1
  8
0
  6
CADDY_DOT
 10
240.0
 20
90.0
 30
0.0
 11
240.0
 21
85.0
 31
0.0
  0
LINE
  5
2C2
  8
0
  6
CADDY_DOT
 10
240.0
 20
85.0
 30
0.0
 11
245.0
 21
85.0
 31
0.0
  0
LINE
  5
2C3
  8
0
  6
CADDY_SOLID
 10
75.0
 20
115.0
 30
0.0
 11
110.0
 21
115.0
 31
0.0
  0
TEXT
  5
2C4
  8
0
 10
89.9713375
 20
115.5
 30
0.0
 40
1.75
  1
0904
 41
0.9
  7
CADDY_VECTORFONT1P
 72
     1
 11
92.5
 21
115.5
 31
0.0
  0
LINE
  5
2C5
  8
0
  6
CADDY_SOLID
 10
85.0
 20
110.0
 30
0.0
 11
120.0
 21
110.0
 31
0.0
  0
TEXT
  5
2C6
  8
0
 10
100.0500875
 20
110.5
 30
0.0
 40
1.75
  1
0905
 41
0.9
  7
CADDY_VECTORFONT1P
 72
     1
 11
102.5
 21
110.5
 31
0.0
  0
LINE
  5
2C7
  8
0
  6
CADDY_SOLID
 10
115.0
 20
115.0
 30
0.0
 11
150.0
 21
115.0
 31
0.0
  0
TEXT
  5
2C8
  8
0
 10
130.0500875
 20
115.5
 30
0.0
 40
1.75
  1
0906
 41
0.9
  7
CADDY_VECTORFONT1P
 72
     1
 11
132.5
 21
115.5
 31
0.0
  0
LINE
  5
2C9
  8
0
  6
CADDY_SOLID
 10
125.0
 20
110.0
 30
0.0
 11
160.0
 21
110.0
 31
0.0
  0
TEXT
  5
2CA
  8
0
 10
140.047725
 20
110.5
 30
0.0
 40
1.75
  1
0907
 41
0.9
  7
CADDY_VECTORFONT1P
 72
     1
 11
142.5
 21
110.5
 31
0.0
  0
LINE
  5
2CB
  8
0
  6
CADDY_SOLID
 10
155.0
 20
115.0
 30
0.0
 11
190.0
 21
115.0
 31
0.0
  0
TEXT
  5
2CC
  8
0
 10
170.0500875
 20
115.5
 30
0.0
 40
1.75
  1
0908
 41
0.9
  7
CADDY_VECTORFONT1P
 72
     1
 11
172.5
 21
115.5
 31
0.0
  0
LINE
  5
2CD
  8
0
  6
CADDY_SOLID
 10
165.0
 20
110.0
 30
0.0
 11
200.0
 21
110.0
 31
0.0
  0
TEXT
  5
2CE
  8
0
 10
180.0500875
 20
110.5
 30
0.0
 40
1.75
  1
0909
 41
0.9
  7
CADDY_VECTORFONT1P
 72
     1
 11
182.5
 21
110.5
 31
0.0
  0
LINE
  5
2CF
  8
0
  6
CADDY_SOLID
 10
195.0
 20
115.0
 30
0.0
 11
230.0
 21
115.0
 31
0.0
  0
TEXT
  5
2D0
  8
0
 10
210.2257
 20
115.5
 30
0.0
 40
1.75
  1
0910
 41
0.9
  7
CADDY_VECTORFONT1P
 72
     1
 11
212.5
 21
115.5
 31
0.0
  0
LINE
  5
2D1
  8
0
  6
CADDY_SOLID
 10
205.0
 20
110.0
 30
0.0
 11
240.0
 21
110.0
 31
0.0
  0
TEXT
  5
2D2
  8
0
 10
220.400525
 20
110.5
 30
0.0
 40
1.75
  1
0911
 41
0.9
  7
CADDY_VECTORFONT1P
 72
     1
 11
222.5
 21
110.5
 31
0.0
  0
INSERT
  5
2D6
  8
0
 66
     1
  2
BLK27
 10
0.0
 20
0.0
 30
1.0
  0
ATTRIB
  5
2DA
  8
0
 10
256.4737425064087
 20
240.9000091552734
 30
0.0
 40
2.449996948242188
  1
0910
 41
0.9
  7
CADDY_VECTORFONT1P
 72
     2
 11
262.5
 21
240.9000091552734
 31
0.0
  2
$TAG160010
 70
     0
  0
ATTRIB
  5
2DD
  8
0
 10
269.6500244140625
 20
238.8499908447266
 30
0.0
 40
2.449996948242188
  1
11.1
 41
0.9
  7
CADDY_VECTORFONT1P
  2
$TAG160500
 70
     0
  0
SEQEND
  5
2DB
  8
0
  0
INSERT
  5
2E2
  8
0
 66
     1
  2
BLK28
 10
0.0
 20
0.0
 30
1.0
  0
ATTRIB
  5
2E6
  8
0
 10
261.9632518966675
 20
235.9000091552734
 30
0.0
 40
2.449996948242188
  1
0911
 41
0.9
  7
CADDY_VECTORFONT1P
 72
     2
 11
267.5
 21
235.9000091552734
 31
0.0
  2
$TAG160010
 70
     0
  0
ATTRIB
  5
2E9
  8
0
 10
274.6500244140625
 20
233.8499908447266
 30
0.0
 40
2.449996948242188
  1
11.2
 41
0.9
  7
CADDY_VECTORFONT1P
  2
$TAG160500
 70
     0
  0
SEQEND
  5
2E7
  8
0
  0
LINE
  5
2EB
  8
0
  6
CADDY_SOLID
 10
235.0
 20
85.0
 30
0.0
 11
235.0
 21
90.0
 31
0.0
  0
LINE
  5
2EC
  8
0
  6
CADDY_SOLID
 10
245.0
 20
85.0
 30
0.0
 11
245.0
 21
90.0
 31
0.0
  0
LINE
  5
2ED
  8
0
  6
CADDY_SOLID
 10
75.0
 20
95.0
 30
0.0
 11
75.0
 21
115.0
 31
0.0
  0
TEXT
  5
2EE
  8
0
 10
74.5
 20
102.4713375
 30
0.0
 40
1.75
  1
0904
 50
90.0
 41
0.9
  7
CADDY_VECTORFONT1P
 72
     1
 11
74.5
 21
105.0
 31
0.0
  0
LINE
  5
2EF
  8
0
  6
CADDY_SOLID
 10
85.0
 20
95.0
 30
0.0
 11
85.0
 21
110.0
 31
0.0
  0
TEXT
  5
2F0
  8
0
 10
84.5
 20
100.0500875
 30
0.0
 40
1.75
  1
0905
 50
90.0
 41
0.9
  7
CADDY_VECTORFONT1P
 72
     1
 11
84.5
 21
102.5
 31
0.0
  0
LINE
  5
2F1
  8
0
  6
CADDY_SOLID
 10
110.0
 20
95.0
 30
0.0
 11
110.0
 21
115.0
 31
0.0
  0
TEXT
  5
2F2
  8
0
 10
109.5
 20
102.4713375
 30
0.0
 40
1.75
  1
0904
 50
90.0
 41
0.9
  7
CADDY_VECTORFONT1P
 72
     1
 11
109.5
 21
105.0
 31
0.0
  0
LINE
  5
2F3
  8
0
  6
CADDY_SOLID
 10
115.0
 20
95.0
 30
0.0
 11
115.0
 21
115.0
 31
0.0
  0
TEXT
  5
2F4
  8
0
 10
114.5
 20
102.5500875
 30
0.0
 40
1.75
  1
0906
 50
90.0
 41
0.9
  7
CADDY_VECTORFONT1P
 72
     1
 11
114.5
 21
105.0
 31
0.0
  0
LINE
  5
2F5
  8
0
  6
CADDY_SOLID
 10
120.0
 20
95.0
 30
0.0
 11
120.0
 21
110.0
 31
0.0
  0
TEXT
  5
2F6
  8
0
 10
119.5
 20
100.0500875
 30
0.0
 40
1.75
  1
0905
 50
90.0
 41
0.9
  7
CADDY_VECTORFONT1P
 72
     1
 11
119.5
 21
102.5
 31
0.0
  0
LINE
  5
2F7
  8
0
  6
CADDY_SOLID
 10
125.0
 20
95.0
 30
0.0
 11
125.0
 21
110.0
 31
0.0
  0
TEXT
  5
2F8
  8
0
 10
124.5
 20
100.047725
 30
0.0
 40
1.75
  1
0907
 50
90.0
 41
0.9
  7
CADDY_VECTORFONT1P
 72
     1
 11
124.5
 21
102.5
 31
0.0
  0
LINE
  5
2F9
  8
0
  6
CADDY_SOLID
 10
150.0
 20
95.0
 30
0.0
 11
150.0
 21
115.0
 31
0.0
  0
TEXT
  5
2FA
  8
0
 10
149.5
 20
102.5500875
 30
0.0
 40
1.75
  1
0906
 50
90.0
 41
0.9
  7
CADDY_VECTORFONT1P
 72
     1
 11
149.5
 21
105.0
 31
0.0
  0
LINE
  5
2FB
  8
0
  6
CADDY_SOLID
 10
155.0
 20
95.0
 30
0.0
 11
155.0
 21
115.0
 31
0.0
  0
TEXT
  5
2FC
  8
0
 10
154.5
 20
102.5500875
 30
0.0
 40
1.75
  1
0908
 50
90.0
 41
0.9
  7
CADDY_VECTORFONT1P
 72
     1
 11
154.5
 21
105.0
 31
0.0
  0
LINE
  5
2FD
  8
0
  6
CADDY_SOLID
 10
160.0
 20
95.0
 30
0.0
 11
160.0
 21
110.0
 31
0.0
  0
TEXT
  5
2FE
  8
0
 10
159.5
 20
100.047725
 30
0.0
 40
1.75
  1
0907
 50
90.0
 41
0.9
  7
CADDY_VECTORFONT1P
 72
     1
 11
159.5
 21
102.5
 31
0.0
  0
LINE
  5
2FF
  8
0
  6
CADDY_SOLID
 10
165.0
 20
95.0
 30
0.0
 11
165.0
 21
110.0
 31
0.0
  0
TEXT
  5
300
  8
0
 10
164.5
 20
100.0500875
 30
0.0
 40
1.75
  1
0909
 50
90.0
 41
0.9
  7
CADDY_VECTORFONT1P
 72
     1
 11
164.5
 21
102.5
 31
0.0
  0
LINE
  5
301
  8
0
  6
CADDY_SOLID
 10
190.0
 20
95.0
 30
0.0
 11
190.0
 21
115.0
 31
0.0
  0
TEXT
  5
302
  8
0
 10
189.5
 20
102.5500875
 30
0.0
 40
1.75
  1
0908
 50
90.0
 41
0.9
  7
CADDY_VECTORFONT1P
 72
     1
 11
189.5
 21
105.0
 31
0.0
  0
LINE
  5
303
  8
0
  6
CADDY_SOLID
 10
195.0
 20
95.0
 30
0.0
 11
195.0
 21
115.0
 31
0.0
  0
TEXT
  5
304
  8
0
 10
194.5
 20
102.7257
 30
0.0
 40
1.75
  1
0910
 50
90.0
 41
0.9
  7
CADDY_VECTORFONT1P
 72
     1
 11
194.5
 21
105.0
 31
0.0
  0
LINE
  5
305
  8
0
  6
CADDY_SOLID
 10
200.0
 20
95.0
 30
0.0
 11
200.0
 21
110.0
 31
0.0
  0
TEXT
  5
306
  8
0
 10
199.5
 20
100.0500875
 30
0.0
 40
1.75
  1
0909
 50
90.0
 41
0.9
  7
CADDY_VECTORFONT1P
 72
     1
 11
199.5
 21
102.5
 31
0.0
  0
LINE
  5
307
  8
0
  6
CADDY_SOLID
 10
205.0
 20
95.0
 30
0.0
 11
205.0
 21
110.0
 31
0.0
  0
TEXT
  5
308
  8
0
 10
204.5
 20
100.400525
 30
0.0
 40
1.75
  1
0911
 50
90.0
 41
0.9
  7
CADDY_VECTORFONT1P
 72
     1
 11
204.5
 21
102.5
 31
0.0
  0
LINE
  5
309
  8
0
  6
CADDY_SOLID
 10
230.0
 20
95.0
 30
0.0
 11
230.0
 21
115.0
 31
0.0
  0
TEXT
  5
30A
  8
0
 10
229.5
 20
102.7257
 30
0.0
 40
1.75
  1
0910
 50
90.0
 41
0.9
  7
CADDY_VECTORFONT1P
 72
     1
 11
229.5
 21
105.0
 31
0.0
  0
LINE
  5
30B
  8
0
  6
CADDY_SOLID
 10
240.0
 20
95.0
 30
0.0
 11
240.0
 21
110.0
 31
0.0
  0
TEXT
  5
30C
  8
0
 10
239.5
 20
100.400525
 30
0.0
 40
1.75
  1
0911
 50
90.0
 41
0.9
  7
CADDY_VECTORFONT1P
 72
     1
 11
239.5
 21
102.5
 31
0.0
  0
LINE
  5
30D
  8
0
  6
CADDY_SOLID
 10
245.0
 20
235.0
 30
0.0
 11
270.0
 21
235.0
 31
0.0
  0
TEXT
  5
30E
  8
0
 10
255.400525
 20
235.5
 30
0.0
 40
1.75
  1
0911
 41
0.9
  7
CADDY_VECTORFONT1P
 72
     1
 11
257.5
 21
235.5
 31
0.0
  0
LINE
  5
30F
  8
0
  6
CADDY_SOLID
 10
235.0
 20
240.0
 30
0.0
 11
265.0
 21
240.0
 31
0.0
  0
TEXT
  5
310
  8
0
 10
247.7257
 20
240.5
 30
0.0
 40
1.75
  1
0910
 41
0.9
  7
CADDY_VECTORFONT1P
 72
     1
 11
250.0
 21
240.5
 31
0.0
  0
LINE
  5
311
  8
0
  6
CADDY_SOLID
 10
40.0
 20
235.0
 30
0.0
 11
70.0
 21
235.0
 31
0.0
  0
TEXT
  5
312
  8
0
 10
55.0
 20
235.5
 30
0.0
 40
1.75
  1

 41
0.9
  7
CADDY_VECTORFONT1P
 72
     1
 11
55.0
 21
235.5
 31
0.0
  0
LINE
  5
313
  8
0
  6
CADDY_SOLID
 10
50.0
 20
240.0
 30
0.0
 11
80.0
 21
240.0
 31
0.0
  0
TEXT
  5
314
  8
0
 10
65.0
 20
240.5
 30
0.0
 40
1.75
  1

 41
0.9
  7
CADDY_VECTORFONT1P
 72
     1
 11
65.0
 21
240.5
 31
0.0
  0
LINE
  5
315
  8
0
  6
CADDY_SOLID
 10
270.0
 20
120.0
 30
0.0
 11
50.0
 21
120.0
 31
0.0
  0
LINE
  5
316
  8
0
  6
CADDY_SOLID
 10
270.0
 20
80.0
 30
0.0
 11
50.0
 21
80.0
 31
0.0
  0
INSERT
  5
31A
  8
0
 66
     1
  2
BLK29
 10
0.0
 20
0.0
 30
1.0
  0
ATTRIB
  5
31E
  8
0
 10
61.47349750671387
 20
196.3000030517578
 30
0.0
 40
2.449996948242188
  1
X9
 41
0.9
  7
CADDY_VECTORFONT1P
 72
     2
 11
65.05000305175781
 21
196.3000030517578
 31
0.0
  2
$TAG160010
 70
     0
  0
ATTRIB
  5
321
  8
0
 10
69.09999084472656
 20
199.1999969482422
 30
0.0
 40
2.449996948242188
  1
1
 50
90.0
 41
0.9
  7
CADDY_VECTORFONT1P
  2
$TAG160400
 70
     0
  0
ATTRIB
  5
323
  8
0
 10
72.59999084472656
 20
199.1999969482422
 30
0.0
 40
2.449996948242188
  1
125
 50
90.0
 41
0.9
  7
CADDY_VECTORFONT1P
  2
$TAG160410
 70
     1
  0
ATTRIB
  5
325
  8
0
 10
65.04999542236328
 20
192.8000030517578
 30
0.0
 40
2.449996948242188
  1

 41
0.9
  7
CADDY_VECTORFONT1P
 72
     2
 11
65.04999542236328
 21
192.8000030517578
 31
0.0
  2
$TAG160030
 70
     1
  0
ATTRIB
  5
327
  8
0
 10
43.34179746246338
 20
187.8000030517578
 30
0.0
 40
2.449996948242188
  1
AB1RR235U2GR
 41
0.9
  7
CADDY_VECTORFONT1P
 72
     2
 11
65.04999542236328
 21
187.8000030517578
 31
0.0
  2
$TAG160040
 70
     1
  0
ATTRIB
  5
329
  8
0
 10
63.70274972991943
 20
203.3000030517578
 30
0.0
 40
2.449996948242188
  1
=
 41
0.9
  7
CADDY_VECTORFONT1P
 72
     2
 11
65.05000305175781
 21
203.3000030517578
 31
0.0
  2
$TAG140020
 70
     1
  0
ATTRIB
  5
32B
  8
0
 10
63.70274972991943
 20
199.8000030517578
 30
0.0
 40
2.449996948242188
  1
+
 41
0.9
  7
CADDY_VECTORFONT1P
 72
     2
 11
65.05000305175781
 21
199.8000030517578
 31
0.0
  2
$TAG140050
 70
     1
  0
SEQEND
  5
31F
  8
0
  0
LINE
  5
32D
  8
0
  6
CADDY_SOLID
 10
70.0
 20
200.0
 30
0.0
 11
70.0
 21
235.0
 31
0.0
  0
INSERT
  5
331
  8
0
 66
     1
  2
BLK30
 10
0.0
 20
0.0
 30
1.0
  0
ATTRIB
  5
335
  8
0
 10
68.53422853851319
 20
196.3000030517578
 30
0.0
 40
2.449996948242188
  1
-X10
 41
0.9
  7
CADDY_VECTORFONT1P
 72
     2
 11
75.04999542236328
 21
196.3000030517578
 31
0.0
  2
$TAG160010
 70
     1
  0
ATTRIB
  5
338
  8
0
 10
79.09999084472656
 20
199.1999969482422
 30
0.0
 40
2.449996948242188
  1
2
 50
90.0
 41
0.9
  7
CADDY_VECTORFONT1P
  2
$TAG160400
 70
     0
  0
ATTRIB
  5
33A
  8
0
 10
82.59999084472656
 20
199.1999969482422
 30
0.0
 40
2.449996948242188
  1
124
 50
90.0
 41
0.9
  7
CADDY_VECTORFONT1P
  2
$TAG160410
 70
     1
  0
ATTRIB
  5
33C
  8
0
 10
75.04999542236328
 20
192.8000030517578
 30
0.0
 40
2.449996948242188
  1

 41
0.9
  7
CADDY_VECTORFONT1P
 72
     2
 11
75.04999542236328
 21
192.8000030517578
 31
0.0
  2
$TAG160030
 70
     1
  0
ATTRIB
  5
33E
  8
0
 10
53.34181272125245
 20
187.8000030517578
 30
0.0
 40
2.449996948242188
  1
AB1RR235U2GR
 41
0.9
  7
CADDY_VECTORFONT1P
 72
     2
 11
75.05001068115234
 21
187.8000030517578
 31
0.0
  2
$TAG160040
 70
     1
  0
ATTRIB
  5
340
  8
0
 10
73.70274972991943
 20
203.3000030517578
 30
0.0
 40
2.449996948242188
  1
=
 41
0.9
  7
CADDY_VECTORFONT1P
 72
     2
 11
75.05000305175781
 21
203.3000030517578
 31
0.0
  2
$TAG140020
 70
     1
  0
ATTRIB
  5
342
  8
0
 10
73.7027421005249
 20
199.8000030517578
 30
0.0
 40
2.449996948242188
  1
+
 41
0.9
  7
CADDY_VECTORFONT1P
 72
     2
 11
75.04999542236328
 21
199.8000030517578
 31
0.0
  2
$TAG140050
 70
     1
  0
SEQEND
  5
336
  8
0
  0
LINE
  5
344
  8
0
  6
CADDY_SOLID
 10
80.0
 20
200.0
 30
0.0
 11
80.0
 21
240.0
 31
0.0
  0
INSERT
  5
348
  8
0
 66
     1
  2
BLK31
 10
0.0
 20
0.0
 30
1.0
  0
ATTRIB
  5
34C
  8
0
 10
223.5342361679077
 20
196.3000030517578
 30
0.0
 40
2.449996948242188
  1
-X10
 41
0.9
  7
CADDY_VECTORFONT1P
 72
     2
 11
230.0500030517578
 21
196.3000030517578
 31
0.0
  2
$TAG160010
 70
     1
  0
ATTRIB
  5
34F
  8
0
 10
234.0999908447266
 20
199.1999969482422
 30
0.0
 40
2.449996948242188
  1
3
 50
90.0
 41
0.9
  7
CADDY_VECTORFONT1P
  2
$TAG160400
 70
     0
  0
ATTRIB
  5
351
  8
0
 10
237.5999908447266
 20
199.1999969482422
 30
0.0
 40
2.449996948242188
  1
130
 50
90.0
 41
0.9
  7
CADDY_VECTORFONT1P
  2
$TAG160410
 70
     1
  0
ATTRIB
  5
353
  8
0
 10
230.0500030517578
 20
192.8000030517578
 30
0.0
 40
2.449996948242188
  1

 41
0.9
  7
CADDY_VECTORFONT1P
 72
     2
 11
230.0500030517578
 21
192.8000030517578
 31
0.0
  2
$TAG160030
 70
     1
  0
ATTRIB
  5
355
  8
0
 10
208.341820350647
 20
187.8000030517578
 30
0.0
 40
2.449996948242188
  1
AB1RR235U2GR
 41
0.9
  7
CADDY_VECTORFONT1P
 72
     2
 11
230.0500183105469
 21
187.8000030517578
 31
0.0
  2
$TAG160040
 70
     1
  0
ATTRIB
  5
357
  8
0
 10
228.7027497299194
 20
203.3000030517578
 30
0.0
 40
2.449996948242188
  1
=
 41
0.9
  7
CADDY_VECTORFONT1P
 72
     2
 11
230.0500030517578
 21
203.3000030517578
 31
0.0
  2
$TAG140020
 70
     1
  0
ATTRIB
  5
359
  8
0
 10
228.7027344711304
 20
199.8000030517578
 30
0.0
 40
2.449996948242188
  1
+
 41
0.9
  7
CADDY_VECTORFONT1P
 72
     2
 11
230.0499877929688
 21
199.8000030517578
 31
0.0
  2
$TAG140050
 70
     1
  0
SEQEND
  5
34D
  8
0
  0
LINE
  5
35B
  8
0
  6
CADDY_SOLID
 10
235.0
 20
200.0
 30
0.0
 11
235.0
 21
240.0
 31
0.0
  0
TEXT
  5
35C
  8
0
 10
234.5
 20
217.7257
 30
0.0
 40
1.75
  1
0910
 50
90.0
 41
0.9
  7
CADDY_VECTORFONT1P
 72
     1
 11
234.5
 21
220.0
 31
0.0
  0
INSERT
  5
360
  8
0
 66
     1
  2
BLK32
 10
0.0
 20
0.0
 30
1.0
  0
ATTRIB
  5
364
  8
0
 10
233.5342361679077
 20
196.3000030517578
 30
0.0
 40
2.449996948242188
  1
-X10
 41
0.9
  7
CADDY_VECTORFONT1P
 72
     2
 11
240.0500030517578
 21
196.3000030517578
 31
0.0
  2
$TAG160010
 70
     1
  0
ATTRIB
  5
367
  8
0
 10
244.0999908447266
 20
199.1999969482422
 30
0.0
 40
2.449996948242188
  1
4
 50
90.0
 41
0.9
  7
CADDY_VECTORFONT1P
  2
$TAG160400
 70
     0
  0
ATTRIB
  5
369
  8
0
 10
247.5999908447266
 20
199.1999969482422
 30
0.0
 40
2.449996948242188
  1
122
 50
90.0
 41
0.9
  7
CADDY_VECTORFONT1P
  2
$TAG160410
 70
     1
  0
ATTRIB
  5
36B
  8
0
 10
240.0500030517578
 20
192.8000030517578
 30
0.0
 40
2.449996948242188
  1

 41
0.9
  7
CADDY_VECTORFONT1P
 72
     2
 11
240.0500030517578
 21
192.8000030517578
 31
0.0
  2
$TAG160030
 70
     1
  0
ATTRIB
  5
36D
  8
0
 10
218.341820350647
 20
187.8000030517578
 30
0.0
 40
2.449996948242188
  1
AB1RR235U2GR
 41
0.9
  7
CADDY_VECTORFONT1P
 72
     2
 11
240.0500183105469
 21
187.8000030517578
 31
0.0
  2
$TAG160040
 70
     1
  0
ATTRIB
  5
36F
  8
0
 10
238.7027497299194
 20
203.3000030517578
 30
0.0
 40
2.449996948242188
  1
=
 41
0.9
  7
CADDY_VECTORFONT1P
 72
     2
 11
240.0500030517578
 21
203.3000030517578
 31
0.0
  2
$TAG140020
 70
     1
  0
ATTRIB
  5
371
  8
0
 10
238.7027344711304
 20
199.8000030517578
 30
0.0
 40
2.449996948242188
  1
+
 41
0.9
  7
CADDY_VECTORFONT1P
 72
     2
 11
240.0499877929688
 21
199.8000030517578
 31
0.0
  2
$TAG140050
 70
     1
  0
SEQEND
  5
365
  8
0
  0
LINE
  5
373
  8
0
  6
CADDY_SOLID
 10
245.0
 20
200.0
 30
0.0
 11
245.0
 21
235.0
 31
0.0
  0
TEXT
  5
374
  8
0
 10
244.5
 20
215.400525
 30
0.0
 40
1.75
  1
0911
 50
90.0
 41
0.9
  7
CADDY_VECTORFONT1P
 72
     1
 11
244.5
 21
217.5
 31
0.0
  0
TEXT
  5
375
  8
0
 10
128.5
 20
40.30000686645508
 30
0.0
 40
2.450000762939453
  1

 41
0.9
  7
CADDY_VECTORFONT1P
 72
     2
 11
128.5
 21
40.30000686645508
 31
0.0
  0
LINE
  5
376
  8
0
  6
CADDY_SOLID
 10
150.0
 20
45.0
 30
0.0
 11
155.0
 21
45.0
 31
0.0
  0
LINE
  5
377
  8
0
  6
CADDY_SOLID
 10
160.0
 20
45.0
 30
0.0
 11
165.0
 21
45.0
 31
0.0
  0
INSERT
  5
37B
  8
0
 66
     1
  2
BLK33
 10
0.0
 20
0.0
 30
1.0
  0
ATTRIB
  5
38B
  8
0
 10
149.0500030517578
 20
64.39999389648438
 30
0.0
 40
2.450004577636719
  1

 50
90.0
 41
0.9
  7
CADDY_VECTORFONT1P
  2
$TAG175000_00
 70
     0
  0
ATTRIB
  5
38E
  8
0
 10
149.0500030517578
 20
55.90000915527344
 30
0.0
 40
2.450000762939453
  1

 50
90.0
 41
0.9
  7
CADDY_VECTORFONT1P
 72
     2
 11
149.0500030517578
 21
55.90000915527344
 31
0.0
  2
$TAG175000_01
 70
     0
  0
ATTRIB
  5
396
  8
0
 10
159.0500030517578
 20
64.39999389648438
 30
0.0
 40
2.450004577636719
  1

 50
90.0
 41
0.9
  7
CADDY_VECTORFONT1P
  2
$TAG175000_00
 70
     0
  0
ATTRIB
  5
398
  8
0
 10
159.0500030517578
 20
55.90000915527344
 30
0.0
 40
2.450000762939453
  1

 50
90.0
 41
0.9
  7
CADDY_VECTORFONT1P
 72
     2
 11
159.0500030517578
 21
55.90000915527344
 31
0.0
  2
$TAG175000_01
 70
     0
  0
SEQEND
  5
38C
  8
0
  0
LINE
  5
3A1
  8
0
  6
CADDY_SOLID
 10
150.0
 20
45.0
 30
0.0
 11
150.0
 21
55.0
 31
0.0
  0
LINE
  5
3A2
  8
0
  6
CADDY_SOLID
 10
160.0
 20
45.0
 30
0.0
 11
160.0
 21
55.0
 31
0.0
  0
INSERT
  5
3A6
  8
0
 66
     1
  2
BLK34
 10
0.0
 20
0.0
 30
1.0
  0
ATTRIB
  5
3A8
  8
0
 10
48.94227502479553
 20
58.80000686645508
 30
0.0
 40
2.450000762939453
  1
9B1
 41
0.9
  7
CADDY_VECTORFONT1P
 72
     2
 11
53.5000114440918
 21
58.80000686645508
 31
0.0
  2
$TAG160010
 70
     0
  0
ATTRIB
  5
3AB
  8
0
 10
73.50000762939453
 20
51.80000686645508
 30
0.0
 40
2.450000762939453
  1

 41
0.9
  7
CADDY_VECTORFONT1P
 72
     2
 11
73.50000762939453
 21
51.80000686645508
 31
0.0
  2
$TAG160040
 70
     1
  0
ATTRIB
  5
3AD
  8
0
 10
73.50000762939453
 20
55.30000686645508
 30
0.0
 40
2.450000762939453
  1

 41
0.9
  7
CADDY_VECTORFONT1P
 72
     2
 11
73.50000762939453
 21
55.30000686645508
 31
0.0
  2
$TAG160030
 70
     0
  0
ATTRIB
  5
3CF
  8
0
 10
76.90000915527344
 20
60.89999771118164
 30
0.0
 40
2.450000762939453
  1
1
 41
0.9
  7
CADDY_VECTORFONT1P
  2
$TAG175000_00
 70
     0
  0
SEQEND
  5
3A9
  8
0
  0
LINE
  5
3D1
  8
0
  6
CADDY_SOLID
 10
70.0
 20
55.0
 30
0.0
 11
70.0
 21
45.0
 31
0.0
  0
LINE
  5
3D2
  8
0
  6
CADDY_SOLID
 10
70.0
 20
45.0
 30
0.0
 11
75.0
 21
45.0
 31
0.0
  0
LINE
  5
3D3
  8
0
  6
CADDY_SOLID
 10
80.0
 20
55.0
 30
0.0
 11
80.0
 21
45.0
 31
0.0
  0
LINE
  5
3D4
  8
0
  6
CADDY_SOLID
 10
80.0
 20
45.0
 30
0.0
 11
85.0
 21
45.0
 31
0.0
  0
TEXT
  5
3D5
  8
0
 10
88.49999237060547
 20
40.30000686645508
 30
0.0
 40
2.450000762939453
  1

 41
0.9
  7
CADDY_VECTORFONT1P
 72
     2
 11
88.49999237060547
 21
40.30000686645508
 31
0.0
  0
TEXT
  5
3D6
  8
0
 10
106.0999984741211
 20
37.29999542236328
 30
0.0
 40
2.100002288818359
  1
Lågekontakt 2
 41
0.9
  7
CADDY_VECTORFONT1P
  0
TEXT
  5
3D7
  8
0
 10
141.1000061035156
 20
37.79999542236328
 30
0.0
 40
2.100002288818359
  1
Lågekontakt ved bufferplads
 41
0.9
  7
CADDY_VECTORFONT1P
  0
TEXT
  5
3D8
  8
0
 10
66.0999984741211
 20
37.30001068115234
 30
0.0
 40
2.100002288818359
  1
Lågekontakt 1
 41
0.9
  7
CADDY_VECTORFONT1P
  0
INSERT
  5
3DC
  8
0
 66
     1
  2
BLK37
 10
0.0
 20
0.0
 30
1.0
  0
ATTRIB
  5
3DD
  8
0
 10
90.69999694824219
 20
75.69999694824219
 30
0.0
 40
2.450004577636719
  1
W0901
 41
0.9
  7
CADDY_VECTORFONT1P
  2
$TAG160010
 70
     1
  0
ATTRIB
  5
3E0
  8
0
 10
90.69999694824219
 20
70.69999694824219
 30
0.0
 40
2.450004577636719
  1

 41
0.9
  7
CADDY_VECTORFONT1P
  2
$TAG160030
 70
     1
  0
ATTRIB
  5
3E2
  8
0
 10
90.69999694824219
 20
65.69999694824219
 30
0.0
 40
2.450004577636719
  1

 41
0.9
  7
CADDY_VECTORFONT1P
  2
$TAG160200
 70
     1
  0
ATTRIB
  5
3E4
  8
0
 10
90.69999694824219
 20
60.70000076293945
 30
0.0
 40
2.450000762939453
  1

 41
0.9
  7
CADDY_VECTORFONT1P
  2
$TAG160040
 70
     1
  0
ATTRIB
  5
3E6
  8
0
 10
90.69999694824219
 20
55.70000076293945
 30
0.0
 40
2.450000762939453
  1

 41
0.9
  7
CADDY_VECTORFONT1P
  2
$TAG160101
 70
     1
  0
ATTRIB
  5
3E8
  8
0
 10
70.69999694824219
 20
75.69999694824219
 30
0.0
 40
2.450004577636719
  1
1
 41
0.9
  7
CADDY_VECTORFONT1P
  2
$TAG160210
 70
     0
  0
ATTRIB
  5
3EA
  8
0
 10
70.69999694824219
 20
70.69999694824219
 30
0.0
 40
2.450004577636719
  1

 41
0.9
  7
CADDY_VECTORFONT1P
  2
$TAG160220
 70
     1
  0
ATTRIB
  5
3EC
  8
0
 10
70.69999694824219
 20
65.69999694824219
 30
0.0
 40
2.450004577636719
  1

 41
0.9
  7
CADDY_VECTORFONT1P
  2
$TAG160230
 70
     1
  0
SEQEND
  5
3DE
  8
0
  0
INSERT
  5
3F2
  8
0
 66
     1
  2
BLK38
 10
0.0
 20
0.0
 30
1.0
  0
ATTRIB
  5
3F3
  8
0
 10
90.69999694824219
 20
75.69999694824219
 30
0.0
 40
2.450004577636719
  1
W0901
 41
0.9
  7
CADDY_VECTORFONT1P
  2
$TAG160010
 70
     1
  0
ATTRIB
  5
3F6
  8
0
 10
90.69999694824219
 20
70.69999694824219
 30
0.0
 40
2.450004577636719
  1

 41
0.9
  7
CADDY_VECTORFONT1P
  2
$TAG160030
 70
     1
  0
ATTRIB
  5
3F8
  8
0
 10
90.69999694824219
 20
65.69999694824219
 30
0.0
 40
2.450004577636719
  1

 41
0.9
  7
CADDY_VECTORFONT1P
  2
$TAG160200
 70
     1
  0
ATTRIB
  5
3FA
  8
0
 10
90.69999694824219
 20
60.70000076293945
 30
0.0
 40
2.450000762939453
  1

 41
0.9
  7
CADDY_VECTORFONT1P
  2
$TAG160040
 70
     1
  0
ATTRIB
  5
3FC
  8
0
 10
90.69999694824219
 20
55.70000076293945
 30
0.0
 40
2.450000762939453
  1

 41
0.9
  7
CADDY_VECTORFONT1P
  2
$TAG160101
 70
     1
  0
ATTRIB
  5
3FE
  8
0
 10
75.69999694824219
 20
75.69999694824219
 30
0.0
 40
2.450004577636719
  1
2
 41
0.9
  7
CADDY_VECTORFONT1P
  2
$TAG160210
 70
     0
  0
ATTRIB
  5
400
  8
0
 10
75.69999694824219
 20
70.69999694824219
 30
0.0
 40
2.450004577636719
  1

 41
0.9
  7
CADDY_VECTORFONT1P
  2
$TAG160220
 70
     1
  0
ATTRIB
  5
402
  8
0
 10
75.69999694824219
 20
65.69999694824219
 30
0.0
 40
2.450004577636719
  1

 41
0.9
  7
CADDY_VECTORFONT1P
  2
$TAG160230
 70
     1
  0
SEQEND
  5
3F4
  8
0
  0
INSERT
  5
408
  8
0
 66
     1
  2
BLK39
 10
0.0
 20
0.0
 30
1.0
  0
ATTRIB
  5
409
  8
0
 10
90.69999694824219
 20
75.69999694824219
 30
0.0
 40
2.450004577636719
  1
W0901
 41
0.9
  7
CADDY_VECTORFONT1P
  2
$TAG160010
 70
     1
  0
ATTRIB
  5
40C
  8
0
 10
90.69999694824219
 20
70.69999694824219
 30
0.0
 40
2.450004577636719
  1

 41
0.9
  7
CADDY_VECTORFONT1P
  2
$TAG160030
 70
     1
  0
ATTRIB
  5
40E
  8
0
 10
90.69999694824219
 20
65.69999694824219
 30
0.0
 40
2.450004577636719
  1

 41
0.9
  7
CADDY_VECTORFONT1P
  2
$TAG160200
 70
     1
  0
ATTRIB
  5
410
  8
0
 10
90.69999694824219
 20
60.70000076293945
 30
0.0
 40
2.450000762939453
  1

 41
0.9
  7
CADDY_VECTORFONT1P
  2
$TAG160040
 70
     1
  0
ATTRIB
  5
412
  8
0
 10
90.69999694824219
 20
55.70000076293945
 30
0.0
 40
2.450000762939453
  1

 41
0.9
  7
CADDY_VECTORFONT1P
  2
$TAG160101
 70
     1
  0
ATTRIB
  5
414
  8
0
 10
80.69999694824219
 20
75.69999694824219
 30
0.0
 40
2.450004577636719
  1
3
 41
0.9
  7
CADDY_VECTORFONT1P
  2
$TAG160210
 70
     0
  0
ATTRIB
  5
416
  8
0
 10
80.69999694824219
 20
70.69999694824219
 30
0.0
 40
2.450004577636719
  1

 41
0.9
  7
CADDY_VECTORFONT1P
  2
$TAG160220
 70
     1
  0
ATTRIB
  5
418
  8
0
 10
80.69999694824219
 20
65.69999694824219
 30
0.0
 40
2.450004577636719
  1

 41
0.9
  7
CADDY_VECTORFONT1P
  2
$TAG160230
 70
     1
  0
SEQEND
  5
40A
  8
0
  0
INSERT
  5
41E
  8
0
 66
     1
  2
BLK40
 10
0.0
 20
0.0
 30
1.0
  0
ATTRIB
  5
41F
  8
0
 10
90.69999694824219
 20
75.69999694824219
 30
0.0
 40
2.450004577636719
  1
W0901
 41
0.9
  7
CADDY_VECTORFONT1P
  2
$TAG160010
 70
     0
  0
ATTRIB
  5
422
  8
0
 10
90.69999694824219
 20
70.69999694824219
 30
0.0
 40
2.450004577636719
  1

 41
0.9
  7
CADDY_VECTORFONT1P
  2
$TAG160030
 70
     0
  0
ATTRIB
  5
424
  8
0
 10
90.69999694824219
 20
65.69999694824219
 30
0.0
 40
2.450004577636719
  1

 41
0.9
  7
CADDY_VECTORFONT1P
  2
$TAG160200
 70
     0
  0
ATTRIB
  5
426
  8
0
 10
90.69999694824219
 20
60.70000076293945
 30
0.0
 40
2.450000762939453
  1

 41
0.9
  7
CADDY_VECTORFONT1P
  2
$TAG160040
 70
     1
  0
ATTRIB
  5
428
  8
0
 10
90.69999694824219
 20
55.70000076293945
 30
0.0
 40
2.450000762939453
  1

 41
0.9
  7
CADDY_VECTORFONT1P
  2
$TAG160101
 70
     1
  0
ATTRIB
  5
42A
  8
0
 10
85.69999694824219
 20
75.69999694824219
 30
0.0
 40
2.450004577636719
  1
4
 41
0.9
  7
CADDY_VECTORFONT1P
  2
$TAG160210
 70
     0
  0
ATTRIB
  5
42C
  8
0
 10
85.69999694824219
 20
70.69999694824219
 30
0.0
 40
2.450004577636719
  1

 41
0.9
  7
CADDY_VECTORFONT1P
  2
$TAG160220
 70
     1
  0
ATTRIB
  5
42E
  8
0
 10
85.69999694824219
 20
65.69999694824219
 30
0.0
 40
2.450004577636719
  1

 41
0.9
  7
CADDY_VECTORFONT1P
  2
$TAG160230
 70
     1
  0
SEQEND
  5
420
  8
0
  0
LINE
  5
431
  8
0
  6
CADDY_SOLID
 10
65.0
 20
75.0
 30
0.0
 11
90.0
 21
75.0
 31
0.0
  0
LINE
  5
432
  8
0
  6
CADDY_SOLID
 10
80.0
 20
65.0
 30
0.0
 11
80.0
 21
74.5
 31
0.0
  0
LINE
  5
433
  8
0
  6
CADDY_SOLID
 10
80.0
 20
75.5
 30
0.0
 11
80.0
 21
90.0
 31
0.0
  0
LINE
  5
434
  8
0
  6
CADDY_SOLID
 10
70.0
 20
65.0
 30
0.0
 11
70.0
 21
74.5
 31
0.0
  0
LINE
  5
435
  8
0
  6
CADDY_SOLID
 10
70.0
 20
75.5
 30
0.0
 11
70.0
 21
90.0
 31
0.0
  0
LINE
  5
436
  8
0
  6
CADDY_SOLID
 10
75.0
 20
45.0
 30
0.0
 11
75.0
 21
74.5
 31
0.0
  0
LINE
  5
437
  8
0
  6
CADDY_SOLID
 10
75.0
 20
75.5
 30
0.0
 11
75.0
 21
90.0
 31
0.0
  0
LINE
  5
438
  8
0
  6
CADDY_SOLID
 10
85.0
 20
45.0
 30
0.0
 11
85.0
 21
74.5
 31
0.0
  0
LINE
  5
439
  8
0
  6
CADDY_SOLID
 10
85.0
 20
75.5
 30
0.0
 11
85.0
 21
90.0
 31
0.0
  0
INSERT
  5
43D
  8
0
 66
     1
  2
BLK41
 10
0.0
 20
0.0
 30
1.0
  0
ATTRIB
  5
43E
  8
0
 10
130.6999969482422
 20
75.69999694824219
 30
0.0
 40
2.450004577636719
  1
W0902
 41
0.9
  7
CADDY_VECTORFONT1P
  2
$TAG160010
 70
     1
  0
ATTRIB
  5
441
  8
0
 10
130.6999969482422
 20
70.69999694824219
 30
0.0
 40
2.450004577636719
  1

 41
0.9
  7
CADDY_VECTORFONT1P
  2
$TAG160030
 70
     1
  0
ATTRIB
  5
443
  8
0
 10
130.6999969482422
 20
65.69999694824219
 30
0.0
 40
2.450004577636719
  1

 41
0.9
  7
CADDY_VECTORFONT1P
  2
$TAG160200
 70
     1
  0
ATTRIB
  5
445
  8
0
 10
130.6999969482422
 20
60.70000076293945
 30
0.0
 40
2.450000762939453
  1

 41
0.9
  7
CADDY_VECTORFONT1P
  2
$TAG160040
 70
     1
  0
ATTRIB
  5
447
  8
0
 10
130.6999969482422
 20
55.70000076293945
 30
0.0
 40
2.450000762939453
  1

 41
0.9
  7
CADDY_VECTORFONT1P
  2
$TAG160101
 70
     1
  0
ATTRIB
  5
449
  8
0
 10
110.6999969482422
 20
75.69999694824219
 30
0.0
 40
2.450004577636719
  1
1
 41
0.9
  7
CADDY_VECTORFONT1P
  2
$TAG160210
 70
     0
  0
ATTRIB
  5
44B
  8
0
 10
110.6999969482422
 20
70.69999694824219
 30
0.0
 40
2.450004577636719
  1

 41
0.9
  7
CADDY_VECTORFONT1P
  2
$TAG160220
 70
     1
  0
ATTRIB
  5
44D
  8
0
 10
110.6999969482422
 20
65.69999694824219
 30
0.0
 40
2.450004577636719
  1

 41
0.9
  7
CADDY_VECTORFONT1P
  2
$TAG160230
 70
     1
  0
SEQEND
  5
43F
  8
0
  0
INSERT
  5
453
  8
0
 66
     1
  2
BLK42
 10
0.0
 20
0.0
 30
1.0
  0
ATTRIB
  5
454
  8
0
 10
130.6999969482422
 20
75.69999694824219
 30
0.0
 40
2.450004577636719
  1
W0902
 41
0.9
  7
CADDY_VECTORFONT1P
  2
$TAG160010
 70
     1
  0
ATTRIB
  5
457
  8
0
 10
130.6999969482422
 20
70.69999694824219
 30
0.0
 40
2.450004577636719
  1

 41
0.9
  7
CADDY_VECTORFONT1P
  2
$TAG160030
 70
     1
  0
ATTRIB
  5
459
  8
0
 10
130.6999969482422
 20
65.69999694824219
 30
0.0
 40
2.450004577636719
  1

 41
0.9
  7
CADDY_VECTORFONT1P
  2
$TAG160200
 70
     1
  0
ATTRIB
  5
45B
  8
0
 10
130.6999969482422
 20
60.70000076293945
 30
0.0
 40
2.450000762939453
  1

 41
0.9
  7
CADDY_VECTORFONT1P
  2
$TAG160040
 70
     1
  0
ATTRIB
  5
45D
  8
0
 10
130.6999969482422
 20
55.70000076293945
 30
0.0
 40
2.450000762939453
  1

 41
0.9
  7
CADDY_VECTORFONT1P
  2
$TAG160101
 70
     1
  0
ATTRIB
  5
45F
  8
0
 10
115.6999969482422
 20
75.69999694824219
 30
0.0
 40
2.450004577636719
  1
2
 41
0.9
  7
CADDY_VECTORFONT1P
  2
$TAG160210
 70
     0
  0
ATTRIB
  5
461
  8
0
 10
115.6999969482422
 20
70.69999694824219
 30
0.0
 40
2.450004577636719
  1

 41
0.9
  7
CADDY_VECTORFONT1P
  2
$TAG160220
 70
     1
  0
ATTRIB
  5
463
  8
0
 10
115.6999969482422
 20
65.69999694824219
 30
0.0
 40
2.450004577636719
  1

 41
0.9
  7
CADDY_VECTORFONT1P
  2
$TAG160230
 70
     1
  0
SEQEND
  5
455
  8
0
  0
INSERT
  5
469
  8
0
 66
     1
  2
BLK43
 10
0.0
 20
0.0
 30
1.0
  0
ATTRIB
  5
46A
  8
0
 10
130.6999969482422
 20
75.69999694824219
 30
0.0
 40
2.450004577636719
  1
W0902
 41
0.9
  7
CADDY_VECTORFONT1P
  2
$TAG160010
 70
     1
  0
ATTRIB
  5
46D
  8
0
 10
130.6999969482422
 20
70.69999694824219
 30
0.0
 40
2.450004577636719
  1

 41
0.9
  7
CADDY_VECTORFONT1P
  2
$TAG160030
 70
     1
  0
ATTRIB
  5
46F
  8
0
 10
130.6999969482422
 20
65.69999694824219
 30
0.0
 40
2.450004577636719
  1

 41
0.9
  7
CADDY_VECTORFONT1P
  2
$TAG160200
 70
     1
  0
ATTRIB
  5
471
  8
0
 10
130.6999969482422
 20
60.70000076293945
 30
0.0
 40
2.450000762939453
  1

 41
0.9
  7
CADDY_VECTORFONT1P
  2
$TAG160040
 70
     1
  0
ATTRIB
  5
473
  8
0
 10
130.6999969482422
 20
55.70000076293945
 30
0.0
 40
2.450000762939453
  1

 41
0.9
  7
CADDY_VECTORFONT1P
  2
$TAG160101
 70
     1
  0
ATTRIB
  5
475
  8
0
 10
120.6999969482422
 20
75.69999694824219
 30
0.0
 40
2.450004577636719
  1
3
 41
0.9
  7
CADDY_VECTORFONT1P
  2
$TAG160210
 70
     0
  0
ATTRIB
  5
477
  8
0
 10
120.6999969482422
 20
70.69999694824219
 30
0.0
 40
2.450004577636719
  1

 41
0.9
  7
CADDY_VECTORFONT1P
  2
$TAG160220
 70
     1
  0
ATTRIB
  5
479
  8
0
 10
120.6999969482422
 20
65.69999694824219
 30
0.0
 40
2.450004577636719
  1

 41
0.9
  7
CADDY_VECTORFONT1P
  2
$TAG160230
 70
     1
  0
SEQEND
  5
46B
  8
0
  0
INSERT
  5
47F
  8
0
 66
     1
  2
BLK44
 10
0.0
 20
0.0
 30
1.0
  0
ATTRIB
  5
480
  8
0
 10
130.6999969482422
 20
75.69999694824219
 30
0.0
 40
2.450004577636719
  1
W0902
 41
0.9
  7
CADDY_VECTORFONT1P
  2
$TAG160010
 70
     0
  0
ATTRIB
  5
483
  8
0
 10
130.6999969482422
 20
70.69999694824219
 30
0.0
 40
2.450004577636719
  1

 41
0.9
  7
CADDY_VECTORFONT1P
  2
$TAG160030
 70
     0
  0
ATTRIB
  5
485
  8
0
 10
130.6999969482422
 20
65.69999694824219
 30
0.0
 40
2.450004577636719
  1

 41
0.9
  7
CADDY_VECTORFONT1P
  2
$TAG160200
 70
     0
  0
ATTRIB
  5
487
  8
0
 10
130.6999969482422
 20
60.70000076293945
 30
0.0
 40
2.450000762939453
  1

 41
0.9
  7
CADDY_VECTORFONT1P
  2
$TAG160040
 70
     1
  0
ATTRIB
  5
489
  8
0
 10
130.6999969482422
 20
55.70000076293945
 30
0.0
 40
2.450000762939453
  1

 41
0.9
  7
CADDY_VECTORFONT1P
  2
$TAG160101
 70
     1
  0
ATTRIB
  5
48B
  8
0
 10
125.6999969482422
 20
75.69999694824219
 30
0.0
 40
2.450004577636719
  1
4
 41
0.9
  7
CADDY_VECTORFONT1P
  2
$TAG160210
 70
     0
  0
ATTRIB
  5
48D
  8
0
 10
125.6999969482422
 20
70.69999694824219
 30
0.0
 40
2.450004577636719
  1

 41
0.9
  7
CADDY_VECTORFONT1P
  2
$TAG160220
 70
     1
  0
ATTRIB
  5
48F
  8
0
 10
125.6999969482422
 20
65.69999694824219
 30
0.0
 40
2.450004577636719
  1

 41
0.9
  7
CADDY_VECTORFONT1P
  2
$TAG160230
 70
     1
  0
SEQEND
  5
481
  8
0
  0
LINE
  5
492
  8
0
  6
CADDY_SOLID
 10
105.0
 20
75.0
 30
0.0
 11
130.0
 21
75.0
 31
0.0
  0
LINE
  5
493
  8
0
  6
CADDY_SOLID
 10
110.0
 20
65.0
 30
0.0
 11
110.0
 21
74.5
 31
0.0
  0
LINE
  5
494
  8
0
  6
CADDY_SOLID
 10
110.0
 20
75.5
 30
0.0
 11
110.0
 21
90.0
 31
0.0
  0
LINE
  5
495
  8
0
  6
CADDY_SOLID
 10
115.0
 20
45.0
 30
0.0
 11
115.0
 21
74.5
 31
0.0
  0
LINE
  5
496
  8
0
  6
CADDY_SOLID
 10
115.0
 20
75.5
 30
0.0
 11
115.0
 21
90.0
 31
0.0
  0
LINE
  5
497
  8
0
  6
CADDY_SOLID
 10
120.0
 20
65.0
 30
0.0
 11
120.0
 21
74.5
 31
0.0
  0
LINE
  5
498
  8
0
  6
CADDY_SOLID
 10
120.0
 20
75.5
 30
0.0
 11
120.0
 21
90.0
 31
0.0
  0
LINE
  5
499
  8
0
  6
CADDY_SOLID
 10
125.0
 20
45.0
 30
0.0
 11
125.0
 21
74.5
 31
0.0
  0
LINE
  5
49A
  8
0
  6
CADDY_SOLID
 10
125.0
 20
75.5
 30
0.0
 11
125.0
 21
90.0
 31
0.0
  0
INSERT
  5
49E
  8
0
 66
     1
  2
BLK45
 10
0.0
 20
0.0
 30
1.0
  0
ATTRIB
  5
49F
  8
0
 10
170.6999969482422
 20
75.69999694824219
 30
0.0
 40
2.450004577636719
  1
W0903
 41
0.9
  7
CADDY_VECTORFONT1P
  2
$TAG160010
 70
     1
  0
ATTRIB
  5
4A2
  8
0
 10
170.6999969482422
 20
70.69999694824219
 30
0.0
 40
2.450004577636719
  1

 41
0.9
  7
CADDY_VECTORFONT1P
  2
$TAG160030
 70
     1
  0
ATTRIB
  5
4A4
  8
0
 10
170.6999969482422
 20
65.69999694824219
 30
0.0
 40
2.450004577636719
  1

 41
0.9
  7
CADDY_VECTORFONT1P
  2
$TAG160200
 70
     1
  0
ATTRIB
  5
4A6
  8
0
 10
170.6999969482422
 20
60.70000076293945
 30
0.0
 40
2.450000762939453
  1

 41
0.9
  7
CADDY_VECTORFONT1P
  2
$TAG160040
 70
     1
  0
ATTRIB
  5
4A8
  8
0
 10
170.6999969482422
 20
55.70000076293945
 30
0.0
 40
2.450000762939453
  1

 41
0.9
  7
CADDY_VECTORFONT1P
  2
$TAG160101
 70
     1
  0
ATTRIB
  5
4AA
  8
0
 10
150.6999969482422
 20
75.69999694824219
 30
0.0
 40
2.450004577636719
  1
1
 41
0.9
  7
CADDY_VECTORFONT1P
  2
$TAG160210
 70
     0
  0
ATTRIB
  5
4AC
  8
0
 10
150.6999969482422
 20
70.69999694824219
 30
0.0
 40
2.450004577636719
  1

 41
0.9
  7
CADDY_VECTORFONT1P
  2
$TAG160220
 70
     1
  0
ATTRIB
  5
4AE
  8
0
 10
150.6999969482422
 20
65.69999694824219
 30
0.0
 40
2.450004577636719
  1

 41
0.9
  7
CADDY_VECTORFONT1P
  2
$TAG160230
 70
     1
  0
SEQEND
  5
4A0
  8
0
  0
INSERT
  5
4B4
  8
0
 66
     1
  2
BLK46
 10
0.0
 20
0.0
 30
1.0
  0
ATTRIB
  5
4B5
  8
0
 10
170.6999969482422
 20
75.69999694824219
 30
0.0
 40
2.450004577636719
  1
W0903
 41
0.9
  7
CADDY_VECTORFONT1P
  2
$TAG160010
 70
     1
  0
ATTRIB
  5
4B8
  8
0
 10
170.6999969482422
 20
70.69999694824219
 30
0.0
 40
2.450004577636719
  1

 41
0.9
  7
CADDY_VECTORFONT1P
  2
$TAG160030
 70
     1
  0
ATTRIB
  5
4BA
  8
0
 10
170.6999969482422
 20
65.69999694824219
 30
0.0
 40
2.450004577636719
  1

 41
0.9
  7
CADDY_VECTORFONT1P
  2
$TAG160200
 70
     1
  0
ATTRIB
  5
4BC
  8
0
 10
170.6999969482422
 20
60.70000076293945
 30
0.0
 40
2.450000762939453
  1

 41
0.9
  7
CADDY_VECTORFONT1P
  2
$TAG160040
 70
     1
  0
ATTRIB
  5
4BE
  8
0
 10
170.6999969482422
 20
55.70000076293945
 30
0.0
 40
2.450000762939453
  1

 41
0.9
  7
CADDY_VECTORFONT1P
  2
$TAG160101
 70
     1
  0
ATTRIB
  5
4C0
  8
0
 10
155.6999969482422
 20
75.69999694824219
 30
0.0
 40
2.450004577636719
  1
2
 41
0.9
  7
CADDY_VECTORFONT1P
  2
$TAG160210
 70
     0
  0
ATTRIB
  5
4C2
  8
0
 10
155.6999969482422
 20
70.69999694824219
 30
0.0
 40
2.450004577636719
  1

 41
0.9
  7
CADDY_VECTORFONT1P
  2
$TAG160220
 70
     1
  0
ATTRIB
  5
4C4
  8
0
 10
155.6999969482422
 20
65.69999694824219
 30
0.0
 40
2.450004577636719
  1

 41
0.9
  7
CADDY_VECTORFONT1P
  2
$TAG160230
 70
     1
  0
SEQEND
  5
4B6
  8
0
  0
INSERT
  5
4CA
  8
0
 66
     1
  2
BLK47
 10
0.0
 20
0.0
 30
1.0
  0
ATTRIB
  5
4CB
  8
0
 10
170.6999969482422
 20
75.69999694824219
 30
0.0
 40
2.450004577636719
  1
W0903
 41
0.9
  7
CADDY_VECTORFONT1P
  2
$TAG160010
 70
     1
  0
ATTRIB
  5
4CE
  8
0
 10
170.6999969482422
 20
70.69999694824219
 30
0.0
 40
2.450004577636719
  1

 41
0.9
  7
CADDY_VECTORFONT1P
  2
$TAG160030
 70
     1
  0
ATTRIB
  5
4D0
  8
0
 10
170.6999969482422
 20
65.69999694824219
 30
0.0
 40
2.450004577636719
  1

 41
0.9
  7
CADDY_VECTORFONT1P
  2
$TAG160200
 70
     1
  0
ATTRIB
  5
4D2
  8
0
 10
170.6999969482422
 20
60.70000076293945
 30
0.0
 40
2.450000762939453
  1

 41
0.9
  7
CADDY_VECTORFONT1P
  2
$TAG160040
 70
     1
  0
ATTRIB
  5
4D4
  8
0
 10
170.6999969482422
 20
55.70000076293945
 30
0.0
 40
2.450000762939453
  1

 41
0.9
  7
CADDY_VECTORFONT1P
  2
$TAG160101
 70
     1
  0
ATTRIB
  5
4D6
  8
0
 10
160.6999969482422
 20
75.69999694824219
 30
0.0
 40
2.450004577636719
  1
3
 41
0.9
  7
CADDY_VECTORFONT1P
  2
$TAG160210
 70
     0
  0
ATTRIB
  5
4D8
  8
0
 10
160.6999969482422
 20
70.69999694824219
 30
0.0
 40
2.450004577636719
  1

 41
0.9
  7
CADDY_VECTORFONT1P
  2
$TAG160220
 70
     1
  0
ATTRIB
  5
4DA
  8
0
 10
160.6999969482422
 20
65.69999694824219
 30
0.0
 40
2.450004577636719
  1

 41
0.9
  7
CADDY_VECTORFONT1P
  2
$TAG160230
 70
     1
  0
SEQEND
  5
4CC
  8
0
  0
INSERT
  5
4E0
  8
0
 66
     1
  2
BLK48
 10
0.0
 20
0.0
 30
1.0
  0
ATTRIB
  5
4E1
  8
0
 10
170.6999969482422
 20
75.69999694824219
 30
0.0
 40
2.450004577636719
  1
W0903
 41
0.9
  7
CADDY_VECTORFONT1P
  2
$TAG160010
 70
     0
  0
ATTRIB
  5
4E4
  8
0
 10
170.6999969482422
 20
70.69999694824219
 30
0.0
 40
2.450004577636719
  1

 41
0.9
  7
CADDY_VECTORFONT1P
  2
$TAG160030
 70
     0
  0
ATTRIB
  5
4E6
  8
0
 10
170.6999969482422
 20
65.69999694824219
 30
0.0
 40
2.450004577636719
  1

 41
0.9
  7
CADDY_VECTORFONT1P
  2
$TAG160200
 70
     0
  0
ATTRIB
  5
4E8
  8
0
 10
170.6999969482422
 20
60.70000076293945
 30
0.0
 40
2.450000762939453
  1

 41
0.9
  7
CADDY_VECTORFONT1P
  2
$TAG160040
 70
     1
  0
ATTRIB
  5
4EA
  8
0
 10
170.6999969482422
 20
55.70000076293945
 30
0.0
 40
2.450000762939453
  1

 41
0.9
  7
CADDY_VECTORFONT1P
  2
$TAG160101
 70
     1
  0
ATTRIB
  5
4EC
  8
0
 10
165.6999969482422
 20
75.69999694824219
 30
0.0
 40
2.450004577636719
  1
4
 41
0.9
  7
CADDY_VECTORFONT1P
  2
$TAG160210
 70
     0
  0
ATTRIB
  5
4EE
  8
0
 10
165.6999969482422
 20
70.69999694824219
 30
0.0
 40
2.450004577636719
  1

 41
0.9
  7
CADDY_VECTORFONT1P
  2
$TAG160220
 70
     1
  0
ATTRIB
  5
4F0
  8
0
 10
165.6999969482422
 20
65.69999694824219
 30
0.0
 40
2.450004577636719
  1

 41
0.9
  7
CADDY_VECTORFONT1P
  2
$TAG160230
 70
     1
  0
SEQEND
  5
4E2
  8
0
  0
LINE
  5
4F3
  8
0
  6
CADDY_SOLID
 10
145.0
 20
75.0
 30
0.0
 11
170.0
 21
75.0
 31
0.0
  0
LINE
  5
4F4
  8
0
  6
CADDY_SOLID
 10
150.0
 20
65.0
 30
0.0
 11
150.0
 21
74.5
 31
0.0
  0
LINE
  5
4F5
  8
0
  6
CADDY_SOLID
 10
150.0
 20
75.5
 30
0.0
 11
150.0
 21
90.0
 31
0.0
  0
LINE
  5
4F6
  8
0
  6
CADDY_SOLID
 10
160.0
 20
65.0
 30
0.0
 11
160.0
 21
74.5
 31
0.0
  0
LINE
  5
4F7
  8
0
  6
CADDY_SOLID
 10
160.0
 20
75.5
 30
0.0
 11
160.0
 21
90.0
 31
0.0
  0
LINE
  5
4F8
  8
0
  6
CADDY_SOLID
 10
165.0
 20
45.0
 30
0.0
 11
165.0
 21
74.5
 31
0.0
  0
LINE
  5
4F9
  8
0
  6
CADDY_SOLID
 10
165.0
 20
75.5
 30
0.0
 11
165.0
 21
90.0
 31
0.0
  0
LINE
  5
4FA
  8
0
  6
CADDY_SOLID
 10
155.0
 20
45.0
 30
0.0
 11
155.0
 21
74.5
 31
0.0
  0
LINE
  5
4FB
  8
0
  6
CADDY_SOLID
 10
155.0
 20
75.5
 30
0.0
 11
155.0
 21
90.0
 31
0.0
  0
INSERT
  5
4FF
  8
0
 66
     1
  2
BLK49
 10
0.0
 20
0.0
 30
1.0
  0
ATTRIB
  5
500
  8
0
 10
255.6999969482422
 20
130.6999969482422
 30
0.0
 40
2.449996948242188
  1
W0900
 41
0.9
  7
CADDY_VECTORFONT1P
  2
$TAG160010
 70
     1
  0
ATTRIB
  5
503
  8
0
 10
255.6999969482422
 20
125.6999969482422
 30
0.0
 40
2.449996948242188
  1

 41
0.9
  7
CADDY_VECTORFONT1P
  2
$TAG160030
 70
     1
  0
ATTRIB
  5
505
  8
0
 10
255.6999969482422
 20
120.6999969482422
 30
0.0
 40
2.450004577636719
  1

 41
0.9
  7
CADDY_VECTORFONT1P
  2
$TAG160200
 70
     1
  0
ATTRIB
  5
507
  8
0
 10
255.6999969482422
 20
115.6999969482422
 30
0.0
 40
2.450004577636719
  1

 41
0.9
  7
CADDY_VECTORFONT1P
  2
$TAG160040
 70
     1
  0
ATTRIB
  5
509
  8
0
 10
255.6999969482422
 20
110.6999969482422
 30
0.0
 40
2.450004577636719
  1

 41
0.9
  7
CADDY_VECTORFONT1P
  2
$TAG160101
 70
     1
  0
ATTRIB
  5
50B
  8
0
 10
70.69999694824219
 20
130.6999969482422
 30
0.0
 40
2.449996948242188
  1
1
 41
0.9
  7
CADDY_VECTORFONT1P
  2
$TAG160210
 70
     0
  0
ATTRIB
  5
50D
  8
0
 10
70.69999694824219
 20
125.6999969482422
 30
0.0
 40
2.449996948242188
  1

 41
0.9
  7
CADDY_VECTORFONT1P
  2
$TAG160220
 70
     1
  0
ATTRIB
  5
50F
  8
0
 10
70.69999694824219
 20
120.6999969482422
 30
0.0
 40
2.450004577636719
  1

 41
0.9
  7
CADDY_VECTORFONT1P
  2
$TAG160230
 70
     1
  0
SEQEND
  5
501
  8
0
  0
INSERT
  5
515
  8
0
 66
     1
  2
BLK50
 10
0.0
 20
0.0
 30
1.0
  0
ATTRIB
  5
516
  8
0
 10
255.6999969482422
 20
130.6999969482422
 30
0.0
 40
2.449996948242188
  1
W0900
 41
0.9
  7
CADDY_VECTORFONT1P
  2
$TAG160010
 70
     1
  0
ATTRIB
  5
519
  8
0
 10
255.6999969482422
 20
125.6999969482422
 30
0.0
 40
2.449996948242188
  1

 41
0.9
  7
CADDY_VECTORFONT1P
  2
$TAG160030
 70
     1
  0
ATTRIB
  5
51B
  8
0
 10
255.6999969482422
 20
120.6999969482422
 30
0.0
 40
2.450004577636719
  1

 41
0.9
  7
CADDY_VECTORFONT1P
  2
$TAG160200
 70
     1
  0
ATTRIB
  5
51D
  8
0
 10
255.6999969482422
 20
115.6999969482422
 30
0.0
 40
2.450004577636719
  1

 41
0.9
  7
CADDY_VECTORFONT1P
  2
$TAG160040
 70
     1
  0
ATTRIB
  5
51F
  8
0
 10
255.6999969482422
 20
110.6999969482422
 30
0.0
 40
2.450004577636719
  1

 41
0.9
  7
CADDY_VECTORFONT1P
  2
$TAG160101
 70
     1
  0
ATTRIB
  5
521
  8
0
 10
80.69999694824219
 20
130.6999969482422
 30
0.0
 40
2.449996948242188
  1
2
 41
0.9
  7
CADDY_VECTORFONT1P
  2
$TAG160210
 70
     0
  0
ATTRIB
  5
523
  8
0
 10
80.69999694824219
 20
125.6999969482422
 30
0.0
 40
2.449996948242188
  1

 41
0.9
  7
CADDY_VECTORFONT1P
  2
$TAG160220
 70
     1
  0
ATTRIB
  5
525
  8
0
 10
80.69999694824219
 20
120.6999969482422
 30
0.0
 40
2.450004577636719
  1

 41
0.9
  7
CADDY_VECTORFONT1P
  2
$TAG160230
 70
     1
  0
SEQEND
  5
517
  8
0
  0
INSERT
  5
52B
  8
0
 66
     1
  2
BLK51
 10
0.0
 20
0.0
 30
1.0
  0
ATTRIB
  5
52C
  8
0
 10
255.6999969482422
 20
130.6999969482422
 30
0.0
 40
2.449996948242188
  1
W0900
 41
0.9
  7
CADDY_VECTORFONT1P
  2
$TAG160010
 70
     1
  0
ATTRIB
  5
52F
  8
0
 10
255.6999969482422
 20
125.6999969482422
 30
0.0
 40
2.449996948242188
  1

 41
0.9
  7
CADDY_VECTORFONT1P
  2
$TAG160030
 70
     1
  0
ATTRIB
  5
531
  8
0
 10
255.6999969482422
 20
120.6999969482422
 30
0.0
 40
2.450004577636719
  1

 41
0.9
  7
CADDY_VECTORFONT1P
  2
$TAG160200
 70
     1
  0
ATTRIB
  5
533
  8
0
 10
255.6999969482422
 20
115.6999969482422
 30
0.0
 40
2.450004577636719
  1

 41
0.9
  7
CADDY_VECTORFONT1P
  2
$TAG160040
 70
     1
  0
ATTRIB
  5
535
  8
0
 10
255.6999969482422
 20
110.6999969482422
 30
0.0
 40
2.450004577636719
  1

 41
0.9
  7
CADDY_VECTORFONT1P
  2
$TAG160101
 70
     1
  0
ATTRIB
  5
537
  8
0
 10
235.6999969482422
 20
130.6999969482422
 30
0.0
 40
2.449996948242188
  1
3
 41
0.9
  7
CADDY_VECTORFONT1P
  2
$TAG160210
 70
     0
  0
ATTRIB
  5
539
  8
0
 10
235.6999969482422
 20
125.6999969482422
 30
0.0
 40
2.449996948242188
  1

 41
0.9
  7
CADDY_VECTORFONT1P
  2
$TAG160220
 70
     1
  0
ATTRIB
  5
53B
  8
0
 10
235.6999969482422
 20
120.6999969482422
 30
0.0
 40
2.450004577636719
  1

 41
0.9
  7
CADDY_VECTORFONT1P
  2
$TAG160230
 70
     1
  0
SEQEND
  5
52D
  8
0
  0
INSERT
  5
541
  8
0
 66
     1
  2
BLK52
 10
0.0
 20
0.0
 30
1.0
  0
ATTRIB
  5
542
  8
0
 10
255.6999969482422
 20
130.6999969482422
 30
0.0
 40
2.449996948242188
  1
W0900
 41
0.9
  7
CADDY_VECTORFONT1P
  2
$TAG160010
 70
     0
  0
ATTRIB
  5
545
  8
0
 10
255.6999969482422
 20
125.6999969482422
 30
0.0
 40
2.449996948242188
  1

 41
0.9
  7
CADDY_VECTORFONT1P
  2
$TAG160030
 70
     0
  0
ATTRIB
  5
547
  8
0
 10
255.6999969482422
 20
120.6999969482422
 30
0.0
 40
2.450004577636719
  1

 41
0.9
  7
CADDY_VECTORFONT1P
  2
$TAG160200
 70
     0
  0
ATTRIB
  5
549
  8
0
 10
255.6999969482422
 20
115.6999969482422
 30
0.0
 40
2.450004577636719
  1

 41
0.9
  7
CADDY_VECTORFONT1P
  2
$TAG160040
 70
     1
  0
ATTRIB
  5
54B
  8
0
 10
255.6999969482422
 20
110.6999969482422
 30
0.0
 40
2.450004577636719
  1

 41
0.9
  7
CADDY_VECTORFONT1P
  2
$TAG160101
 70
     1
  0
ATTRIB
  5
54D
  8
0
 10
245.6999969482422
 20
130.6999969482422
 30
0.0
 40
2.449996948242188
  1
4
 41
0.9
  7
CADDY_VECTORFONT1P
  2
$TAG160210
 70
     0
  0
ATTRIB
  5
54F
  8
0
 10
245.6999969482422
 20
125.6999969482422
 30
0.0
 40
2.449996948242188
  1

 41
0.9
  7
CADDY_VECTORFONT1P
  2
$TAG160220
 70
     1
  0
ATTRIB
  5
551
  8
0
 10
245.6999969482422
 20
120.6999969482422
 30
0.0
 40
2.450004577636719
  1

 41
0.9
  7
CADDY_VECTORFONT1P
  2
$TAG160230
 70
     1
  0
SEQEND
  5
543
  8
0
  0
LINE
  5
554
  8
0
  6
CADDY_SOLID
 10
60.0
 20
130.0
 30
0.0
 11
255.0
 21
130.0
 31
0.0
  0
LINE
  5
555
  8
0
  6
CADDY_SOLID
 10
70.0
 20
95.0
 30
0.0
 11
70.0
 21
129.5
 31
0.0
  0
LINE
  5
556
  8
0
  6
CADDY_SOLID
 10
70.0
 20
130.5
 30
0.0
 11
70.0
 21
195.0
 31
0.0
  0
LINE
  5
557
  8
0
  6
CADDY_SOLID
 10
80.0
 20
95.0
 30
0.0
 11
80.0
 21
129.5
 31
0.0
  0
LINE
  5
558
  8
0
  6
CADDY_SOLID
 10
80.0
 20
130.5
 30
0.0
 11
80.0
 21
195.0
 31
0.0
  0
LINE
  5
559
  8
0
  6
CADDY_SOLID
 10
235.0
 20
95.0
 30
0.0
 11
235.0
 21
129.5
 31
0.0
  0
LINE
  5
55A
  8
0
  6
CADDY_SOLID
 10
235.0
 20
130.5
 30
0.0
 11
235.0
 21
195.0
 31
0.0
  0
LINE
  5
55B
  8
0
  6
CADDY_SOLID
 10
245.0
 20
95.0
 30
0.0
 11
245.0
 21
129.5
 31
0.0
  0
LINE
  5
55C
  8
0
  6
CADDY_SOLID
 10
245.0
 20
130.5
 30
0.0
 11
245.0
 21
195.0
 31
0.0
  0
TEXT
  5
55D
  8
0
 10
250.6000061035156
 20
125.5999984741211
 30
0.0
 40
2.099998474121094
  1
5x0,75jz
 41
0.9
  7
CADDY_VECTORFONT1P
  0
TEXT
  5
55E
  8
0
 10
170.6000061035156
 20
70.5999984741211
 30
0.0
 40
2.099998474121094
  1
5x0,75jz
 41
0.9
  7
CADDY_VECTORFONT1P
  0
TEXT
  5
55F
  8
0
 10
130.6000061035156
 20
70.5999984741211
 30
0.0
 40
2.099998474121094
  1
5x0,75jz
 41
0.9
  7
CADDY_VECTORFONT1P
  0
TEXT
  5
560
  8
0
 10
90.5999984741211
 20
70.5999984741211
 30
0.0
 40
2.099998474121094
  1
5x0,75jz
 41
0.9
  7
CADDY_VECTORFONT1P
  0
TEXT
  5
561
  8
0
 10
55.59999847412109
 20
110.5999984741211
 30
0.0
 40
2.099998474121094
  1
BOKS 9
 41
0.9
  7
CADDY_VECTORFONT1P
  0
LINE
  5
562
  8
0
  6
CADDY_SOLID
 10
50.0
 20
120.0
 30
0.0
 11
50.0
 21
80.0
 31
0.0
  0
ENDSEC
  0
EOF
