  0
SECTION
  2
HEADER
  9
$ACADVER
  1
AC1006
  9
$DWGCODEPAGE
  3
ansi_1252
  9
$INSBASE
 10
0.0
 20
0.0
 30
0.0
  9
$EXTMIN
 10
0.0
 20
0.0
  9
$EXTMAX
 10
420.0
 20
297.0
  9
$LIMMIN
 10
0.0
 20
0.0
  9
$LIMMAX
 10
420.0
 20
297.0
  9
$ORTHOMODE
 70
     0
  9
$REGENMODE
 70
     1
  9
$FILLMODE
 70
     1
  9
$QTEXTMODE
 70
     0
  9
$MIRRTEXT
 70
     1
  9
$DRAGMODE
 70
     2
  9
$LTSCALE
 40
1.0
  9
$OSMODE
 70
    37
  9
$ATTMODE
 70
     1
  9
$TEXTSIZE
 40
2.5
  9
$TRACEWID
 40
1.0
  9
$TEXTSTYLE
  7
STANDARD
  9
$CLAYER
  8
0
  9
$CELTYPE
  6
BYLAYER
  9
$CECOLOR
 62
   256
  9
$DIMSCALE
 40
1.0
  9
$DIMASZ
 40
2.5
  9
$DIMEXO
 40
0.625
  9
$DIMDLI
 40
3.75
  9
$DIMRND
 40
0.0
  9
$DIMDLE
 40
0.0
  9
$DIMEXE
 40
1.25
  9
$DIMTP
 40
0.0
  9
$DIMTM
 40
0.0
  9
$DIMTXT
 40
2.5
  9
$DIMCEN
 40
2.5
  9
$DIMTSZ
 40
0.0
  9
$DIMTOL
 70
     0
  9
$DIMLIM
 70
     0
  9
$DIMTIH
 70
     0
  9
$DIMTOH
 70
     0
  9
$DIMSE1
 70
     0
  9
$DIMSE2
 70
     0
  9
$DIMTAD
 70
     1
  9
$DIMZIN
 70
     8
  9
$DIMBLK
  1

  9
$DIMASO
 70
     1
  9
$DIMSHO
 70
     1
  9
$DIMPOST
  1

  9
$DIMAPOST
  1

  9
$DIMALT
 70
     0
  9
$DIMALTD
 70
     3
  9
$DIMALTF
 40
0.03937007874016
  9
$DIMLFAC
 40
1.0
  9
$DIMTOFL
 70
     1
  9
$DIMTVP
 40
0.0
  9
$DIMTIX
 70
     0
  9
$DIMSOXD
 70
     0
  9
$DIMSAH
 70
     0
  9
$DIMBLK1
  1

  9
$DIMBLK2
  1

  9
$LUNITS
 70
     2
  9
$LUPREC
 70
     4
  9
$SKETCHINC
 40
1.0
  9
$FILLETRAD
 40
10.0
  9
$AUNITS
 70
     0
  9
$AUPREC
 70
     0
  9
$MENU
  1
.
  9
$ELEVATION
 40
0.0
  9
$THICKNESS
 40
0.0
  9
$LIMCHECK
 70
     0
  9
$CHAMFERA
 40
10.0
  9
$CHAMFERB
 40
10.0
  9
$SKPOLY
 70
     0
  9
$TDCREATE
 40
2451930.666666667
  9
$TDUPDATE
 40
2460738.481266319
  9
$TDINDWG
 40
0.0000000116
  9
$TDUSRTIMER
 40
0.0000000116
  9
$USRTIMER
 70
     1
  9
$ANGBASE
 50
0.0
  9
$ANGDIR
 70
     0
  9
$PDMODE
 70
     0
  9
$PDSIZE
 40
0.0
  9
$PLINEWID
 40
0.0
  9
$COORDS
 70
     1
  9
$SPLFRAME
 70
     0
  9
$SPLINETYPE
 70
     6
  9
$SPLINESEGS
 70
     8
  9
$ATTDIA
 70
     0
  9
$ATTREQ
 70
     1
  9
$HANDLING
 70
     1
  9
$HANDSEED
  5
3BD
  9
$SURFTAB1
 70
     6
  9
$SURFTAB2
 70
     6
  9
$SURFTYPE
 70
     6
  9
$SURFU
 70
     6
  9
$SURFV
 70
     6
  9
$UCSNAME
  2

  9
$UCSORG
 10
0.0
 20
0.0
 30
0.0
  9
$UCSXDIR
 10
1.0
 20
0.0
 30
0.0
  9
$UCSYDIR
 10
0.0
 20
1.0
 30
0.0
  9
$USERI1
 70
     0
  9
$USERI2
 70
     0
  9
$USERI3
 70
     0
  9
$USERI4
 70
     0
  9
$USERI5
 70
     0
  9
$USERR1
 40
0.0
  9
$USERR2
 40
0.0
  9
$USERR3
 40
0.0
  9
$USERR4
 40
0.0
  9
$USERR5
 40
0.0
  9
$WORLDVIEW
 70
     1
  0
ENDSEC
  0
SECTION
  2
TABLES
  0
TABLE
  2
VPORT
 70
     1
  0
VPORT
  2
*ACTIVE
 70
     0
 10
0.0
 20
0.0
 11
1.0
 21
1.0
 12
210.0
 22
142.5
 13
0.0
 23
0.0
 14
10.0
 24
10.0
 15
10.0
 25
10.0
 16
0.0
 26
0.0
 36
1.0
 17
0.0
 27
0.0
 37
0.0
 40
270.3
 41
1.972972972850329
 42
50.0
 43
0.0
 44
0.0
 50
0.0
 51
0.0
 71
     0
 72
   100
 73
     1
 74
     3
 75
     0
 76
     0
 77
     0
 78
     0
  0
ENDTAB
  0
TABLE
  2
LTYPE
 70
     6
  0
LTYPE
  2
CONTINUOUS
 70
     0
  3
Solid line
 72
    65
 73
     0
 40
0.0
  0
LTYPE
  2
CADDY_SOLID
 70
     0
  3
____________
 72
    65
 73
     0
 40
0.0
  0
LTYPE
  2
CADDY_DOT
 70
     0
  3
. . . . . . 
 72
    65
 73
     2
 40
2.0
 49
0.5
 49
-1.5
  0
LTYPE
  2
CADDY_DASH
 70
     0
  3
_ _ _ _ _ _ 
 72
    65
 73
     2
 40
3.5
 49
2.0
 49
-1.5
  0
LTYPE
  2
CADDY_DASHDOT
 70
     0
  3
_ . _ . _ . 
 72
    65
 73
     4
 40
5.5
 49
0.5
 49
-1.5
 49
2.0
 49
-1.5
  0
LTYPE
  2
CADDY_DASHDOTDOT
 70
     0
  3
_ . . _ . . 
 72
    65
 73
     6
 40
7.5
 49
2.0
 49
-1.5
 49
0.5
 49
-1.5
 49
0.5
 49
-1.5
  0
ENDTAB
  0
TABLE
  2
LAYER
 70
     1
  0
LAYER
  2
0
 70
     0
 62
     7
  6
CONTINUOUS
  0
ENDTAB
  0
TABLE
  2
STYLE
 70
    17
  0
STYLE
  2
STANDARD
 70
     0
 40
0.0
 41
1.0
 50
0.0
 71
     0
 42
2.5
  3
txt
  4

  0
STYLE
  2
CADDY_VECTORFONT1P
 70
     0
 40
0.0
 41
0.9
 50
0.0
 71
     0
 42
0.2
  3
isocp___.ttf
  4

  0
STYLE
  2
CADDY_VECTORFONT1N
 70
     0
 40
0.0
 41
1.100000023841858
 50
0.0
 71
     0
 42
0.2
  3

  4

  0
STYLE
  2
CADDY_VECTORFONT2P
 70
     0
 40
0.0
 41
1.35
 50
0.0
 71
     0
 42
0.2
  3

  4

  0
STYLE
  2
CADDY_VECTORFONT2N
 70
     0
 40
0.0
 41
1.549999952316284
 50
0.0
 71
     0
 42
0.2
  3

  4

  0
STYLE
  2
CADDY_VECTORFONT3P
 70
     0
 40
0.0
 41
1.3
 50
0.0
 71
     0
 42
0.2
  3

  4

  0
STYLE
  2
CADDY_VECTORFONT3N
 70
     0
 40
0.0
 41
1.5
 50
0.0
 71
     0
 42
0.2
  3

  4

  0
STYLE
  2
CADDY_VECTORFONT4P
 70
     0
 40
0.0
 41
1.1
 50
0.0
 71
     0
 42
0.2
  3

  4

  0
STYLE
  2
CADDY_VECTORFONT4N
 70
     0
 40
0.0
 41
1.299999952316284
 50
0.0
 71
     0
 42
0.2
  3

  4

  0
STYLE
  2
CADDY_VECTORFONT5P
 70
     0
 40
0.0
 41
1.0
 50
0.0
 71
     0
 42
0.2
  3

  4

  0
STYLE
  2
CADDY_VECTORFONT5N
 70
     0
 40
0.0
 41
1.200000047683716
 50
0.0
 71
     0
 42
0.2
  3

  4

  0
STYLE
  2
CADDY_VECTORFONT6P
 70
     0
 40
0.0
 41
0.9
 50
0.0
 71
     0
 42
0.2
  3

  4

  0
STYLE
  2
CADDY_VECTORFONT6N
 70
     0
 40
0.0
 41
1.100000023841858
 50
0.0
 71
     0
 42
0.2
  3

  4

  0
STYLE
  2
CADDY_VECTORFONT7P
 70
     0
 40
0.0
 41
1.3
 50
0.0
 71
     0
 42
0.2
  3

  4

  0
STYLE
  2
CADDY_VECTORFONT7N
 70
     0
 40
0.0
 41
1.5
 50
0.0
 71
     0
 42
0.2
  3

  4

  0
STYLE
  2
CADDY_VECTORFONT8P
 70
     0
 40
0.0
 41
1.5
 50
0.0
 71
     0
 42
0.2
  3

  4

  0
STYLE
  2
CADDY_VECTORFONT8N
 70
     0
 40
0.0
 41
1.700000047683716
 50
0.0
 71
     0
 42
0.2
  3

  4

  0
ENDTAB
  0
TABLE
  2
VIEW
 70
     0
  0
ENDTAB
  0
TABLE
  2
UCS
 70
     0
  0
ENDTAB
  0
ENDSEC
  0
SECTION
  2
BLOCKS
  0
BLOCK
  8
0
  2
BLK1
 70
     0
 10
0.0
 20
0.0
 30
0.0
  0
LINE
  5
44
  8
0
  6
CADDY_SOLID
 10
10.0
 20
10.0
 30
0.0
 11
10.0
 21
275.0
 31
0.0
  0
LINE
  5
45
  8
0
  6
CADDY_SOLID
 10
10.0
 20
275.0
 30
0.0
 11
410.0
 21
275.0
 31
0.0
  0
LINE
  5
46
  8
0
  6
CADDY_SOLID
 10
410.0
 20
275.0
 30
0.0
 11
410.0
 21
10.0
 31
0.0
  0
LINE
  5
47
  8
0
  6
CADDY_SOLID
 10
50.0
 20
270.0
 30
0.0
 11
50.0
 21
275.0
 31
0.0
  0
TEXT
  5
48
  8
0
 10
29.14336390228272
 20
271.2000122070312
 30
0.0
 40
2.449981689453125
  1
0
 41
0.9
  7
CADDY_VECTORFONT1P
 72
     1
 11
30.0
 21
271.2000122070312
 31
0.0
  0
TEXT
  5
49
  8
0
 10
30.0
 20
265.2000122070312
 30
0.0
 40
2.449981689453125
  1

 41
0.9
  7
CADDY_VECTORFONT1P
 72
     1
 11
30.0
 21
265.2000122070312
 31
0.0
  0
LINE
  5
4A
  8
0
  6
CADDY_SOLID
 10
90.0
 20
270.0
 30
0.0
 11
90.0
 21
275.0
 31
0.0
  0
LINE
  5
4B
  8
0
  6
CADDY_SOLID
 10
130.0
 20
270.0
 30
0.0
 11
130.0
 21
275.0
 31
0.0
  0
LINE
  5
4C
  8
0
  6
CADDY_SOLID
 10
170.0
 20
270.0
 30
0.0
 11
170.0
 21
275.0
 31
0.0
  0
LINE
  5
4D
  8
0
  6
CADDY_SOLID
 10
210.0
 20
270.0
 30
0.0
 11
210.0
 21
275.0
 31
0.0
  0
LINE
  5
4E
  8
0
  6
CADDY_SOLID
 10
250.0
 20
270.0
 30
0.0
 11
250.0
 21
275.0
 31
0.0
  0
LINE
  5
4F
  8
0
  6
CADDY_SOLID
 10
290.0
 20
270.0
 30
0.0
 11
290.0
 21
275.0
 31
0.0
  0
LINE
  5
50
  8
0
  6
CADDY_SOLID
 10
330.0
 20
270.0
 30
0.0
 11
330.0
 21
275.0
 31
0.0
  0
LINE
  5
51
  8
0
  6
CADDY_SOLID
 10
370.0
 20
270.0
 30
0.0
 11
370.0
 21
275.0
 31
0.0
  0
TEXT
  5
52
  8
0
 10
69.38369947662353
 20
271.2000122070312
 30
0.0
 40
2.449981689453125
  1
1
 41
0.9
  7
CADDY_VECTORFONT1P
 72
     1
 11
69.99999237060547
 21
271.2000122070312
 31
0.0
  0
TEXT
  5
53
  8
0
 10
109.1610037704468
 20
271.2000122070312
 30
0.0
 40
2.449981689453125
  1
2
 41
0.9
  7
CADDY_VECTORFONT1P
 72
     1
 11
110.0
 21
271.2000122070312
 31
0.0
  0
TEXT
  5
54
  8
0
 10
149.1312364929199
 20
271.2000122070312
 30
0.0
 40
2.449981689453125
  1
3
 41
0.9
  7
CADDY_VECTORFONT1P
 72
     1
 11
150.0
 21
271.2000122070312
 31
0.0
  0
TEXT
  5
55
  8
0
 10
189.0364222015381
 20
271.2000122070312
 30
0.0
 40
2.449981689453125
  1
4
 41
0.9
  7
CADDY_VECTORFONT1P
 72
     1
 11
190.0
 21
271.2000122070312
 31
0.0
  0
TEXT
  5
56
  8
0
 10
229.1433639022827
 20
271.2000122070312
 30
0.0
 40
2.449981689453125
  1
5
 41
0.9
  7
CADDY_VECTORFONT1P
 72
     1
 11
230.0
 21
271.2000122070312
 31
0.0
  0
TEXT
  5
57
  8
0
 10
269.1433639022827
 20
271.2000122070312
 30
0.0
 40
2.449981689453125
  1
6
 41
0.9
  7
CADDY_VECTORFONT1P
 72
     1
 11
270.0
 21
271.2000122070312
 31
0.0
  0
TEXT
  5
58
  8
0
 10
309.140056427002
 20
271.2000122070312
 30
0.0
 40
2.449981689453125
  1
7
 41
0.9
  7
CADDY_VECTORFONT1P
 72
     1
 11
310.0
 21
271.2000122070312
 31
0.0
  0
TEXT
  5
59
  8
0
 10
349.1433639022827
 20
271.2000122070312
 30
0.0
 40
2.449981689453125
  1
8
 41
0.9
  7
CADDY_VECTORFONT1P
 72
     1
 11
350.0
 21
271.2000122070312
 31
0.0
  0
TEXT
  5
5A
  8
0
 10
389.1433639022827
 20
271.2000122070312
 30
0.0
 40
2.449981689453125
  1
9
 41
0.9
  7
CADDY_VECTORFONT1P
 72
     1
 11
390.0
 21
271.2000122070312
 31
0.0
  0
TEXT
  5
5B
  8
0
 10
70.0
 20
265.2000122070312
 30
0.0
 40
2.449981689453125
  1

 41
0.9
  7
CADDY_VECTORFONT1P
 72
     1
 11
70.0
 21
265.2000122070312
 31
0.0
  0
TEXT
  5
5C
  8
0
 10
110.0
 20
265.2000122070312
 30
0.0
 40
2.449981689453125
  1

 41
0.9
  7
CADDY_VECTORFONT1P
 72
     1
 11
110.0
 21
265.2000122070312
 31
0.0
  0
TEXT
  5
5D
  8
0
 10
150.0
 20
265.2000122070312
 30
0.0
 40
2.449981689453125
  1

 41
0.9
  7
CADDY_VECTORFONT1P
 72
     1
 11
150.0
 21
265.2000122070312
 31
0.0
  0
TEXT
  5
5E
  8
0
 10
190.0
 20
265.2000122070312
 30
0.0
 40
2.449981689453125
  1

 41
0.9
  7
CADDY_VECTORFONT1P
 72
     1
 11
190.0
 21
265.2000122070312
 31
0.0
  0
TEXT
  5
5F
  8
0
 10
230.0
 20
265.2000122070312
 30
0.0
 40
2.449981689453125
  1

 41
0.9
  7
CADDY_VECTORFONT1P
 72
     1
 11
230.0
 21
265.2000122070312
 31
0.0
  0
TEXT
  5
60
  8
0
 10
270.0000305175781
 20
265.2000122070312
 30
0.0
 40
2.449981689453125
  1

 41
0.9
  7
CADDY_VECTORFONT1P
 72
     1
 11
270.0000305175781
 21
265.2000122070312
 31
0.0
  0
TEXT
  5
61
  8
0
 10
310.0000305175781
 20
265.2000122070312
 30
0.0
 40
2.449981689453125
  1

 41
0.9
  7
CADDY_VECTORFONT1P
 72
     1
 11
310.0000305175781
 21
265.2000122070312
 31
0.0
  0
TEXT
  5
62
  8
0
 10
350.0000305175781
 20
265.2000122070312
 30
0.0
 40
2.449981689453125
  1

 41
0.9
  7
CADDY_VECTORFONT1P
 72
     1
 11
350.0000305175781
 21
265.2000122070312
 31
0.0
  0
TEXT
  5
63
  8
0
 10
390.0000305175781
 20
265.2000122070312
 30
0.0
 40
2.449981689453125
  1

 41
0.9
  7
CADDY_VECTORFONT1P
 72
     1
 11
390.0000305175781
 21
265.2000122070312
 31
0.0
  0
LINE
  5
64
  8
0
  6
CADDY_SOLID
 10
15.0
 20
270.0
 30
0.0
 11
15.0
 21
30.0
 31
0.0
  0
LINE
  5
65
  8
0
  6
CADDY_SOLID
 10
405.0
 20
270.0
 30
0.0
 11
405.0
 21
30.0
 31
0.0
  0
LINE
  5
66
  8
0
  6
CADDY_SOLID
 10
15.0
 20
230.0
 30
0.0
 11
10.0
 21
230.0
 31
0.0
  0
LINE
  5
67
  8
0
  6
CADDY_SOLID
 10
15.0
 20
190.0
 30
0.0
 11
10.0
 21
190.0
 31
0.0
  0
LINE
  5
68
  8
0
  6
CADDY_SOLID
 10
15.0
 20
150.0
 30
0.0
 11
10.0
 21
150.0
 31
0.0
  0
LINE
  5
69
  8
0
  6
CADDY_SOLID
 10
10.0
 20
110.0
 30
0.0
 11
15.0
 21
110.0
 31
0.0
  0
LINE
  5
6A
  8
0
  6
CADDY_SOLID
 10
10.0
 20
70.0
 30
0.0
 11
15.0
 21
70.0
 31
0.0
  0
TEXT
  5
6B
  8
0
 10
11.39750137329102
 20
248.6999969482422
 30
0.0
 40
2.449996948242188
  1
A
 41
0.9
  7
CADDY_VECTORFONT1P
 72
     1
 11
12.5
 21
248.6999969482422
 31
0.0
  0
TEXT
  5
6C
  8
0
 10
11.52098121948242
 20
208.6999969482422
 30
0.0
 40
2.449996948242188
  1
B
 41
0.9
  7
CADDY_VECTORFONT1P
 72
     1
 11
12.5
 21
208.6999969482422
 31
0.0
  0
TEXT
  5
6D
  8
0
 10
11.65548605194092
 20
168.6999969482422
 30
0.0
 40
2.449996948242188
  1
C
 41
0.9
  7
CADDY_VECTORFONT1P
 72
     1
 11
12.5
 21
168.6999969482422
 31
0.0
  0
TEXT
  5
6E
  8
0
 10
11.52098121948242
 20
128.6999969482422
 30
0.0
 40
2.449996948242188
  1
D
 41
0.9
  7
CADDY_VECTORFONT1P
 72
     1
 11
12.5
 21
128.6999969482422
 31
0.0
  0
TEXT
  5
6F
  8
0
 10
11.65548342208862
 20
88.69999694824219
 30
0.0
 40
2.450004577636719
  1
E
 41
0.9
  7
CADDY_VECTORFONT1P
 72
     1
 11
12.5
 21
88.69999694824219
 31
0.0
  0
TEXT
  5
70
  8
0
 10
11.65548473701477
 20
48.70000076293945
 30
0.0
 40
2.450000762939453
  1
F
 41
0.9
  7
CADDY_VECTORFONT1P
 72
     1
 11
12.5
 21
48.70000076293945
 31
0.0
  0
LINE
  5
71
  8
0
  6
CADDY_SOLID
 10
410.0
 20
230.0
 30
0.0
 11
405.0
 21
230.0
 31
0.0
  0
LINE
  5
72
  8
0
  6
CADDY_SOLID
 10
410.0
 20
190.0
 30
0.0
 11
405.0
 21
190.0
 31
0.0
  0
LINE
  5
73
  8
0
  6
CADDY_SOLID
 10
410.0
 20
150.0
 30
0.0
 11
405.0
 21
150.0
 31
0.0
  0
LINE
  5
74
  8
0
  6
CADDY_SOLID
 10
405.0
 20
110.0
 30
0.0
 11
410.0
 21
110.0
 31
0.0
  0
LINE
  5
75
  8
0
  6
CADDY_SOLID
 10
405.0
 20
70.0
 30
0.0
 11
410.0
 21
70.0
 31
0.0
  0
TEXT
  5
76
  8
0
 10
406.397501373291
 20
248.6999969482422
 30
0.0
 40
2.449996948242188
  1
A
 41
0.9
  7
CADDY_VECTORFONT1P
 72
     1
 11
407.5
 21
248.6999969482422
 31
0.0
  0
TEXT
  5
77
  8
0
 10
406.5209812194824
 20
208.6999969482422
 30
0.0
 40
2.449996948242188
  1
B
 41
0.9
  7
CADDY_VECTORFONT1P
 72
     1
 11
407.5
 21
208.6999969482422
 31
0.0
  0
TEXT
  5
78
  8
0
 10
406.6554860519409
 20
168.6999969482422
 30
0.0
 40
2.449996948242188
  1
C
 41
0.9
  7
CADDY_VECTORFONT1P
 72
     1
 11
407.5
 21
168.6999969482422
 31
0.0
  0
TEXT
  5
79
  8
0
 10
406.5209812194824
 20
128.6999969482422
 30
0.0
 40
2.449996948242188
  1
D
 41
0.9
  7
CADDY_VECTORFONT1P
 72
     1
 11
407.5
 21
128.6999969482422
 31
0.0
  0
TEXT
  5
7A
  8
0
 10
406.6554834220887
 20
88.69999694824219
 30
0.0
 40
2.450004577636719
  1
E
 41
0.9
  7
CADDY_VECTORFONT1P
 72
     1
 11
407.5
 21
88.69999694824219
 31
0.0
  0
TEXT
  5
7B
  8
0
 10
406.6554847370148
 20
48.70000076293945
 30
0.0
 40
2.450000762939453
  1
F
 41
0.9
  7
CADDY_VECTORFONT1P
 72
     1
 11
407.5
 21
48.70000076293945
 31
0.0
  0
LINE
  5
7C
  8
0
  6
CADDY_SOLID
 10
15.0
 20
270.0
 30
0.0
 11
405.0
 21
270.0
 31
0.0
  0
LINE
  5
7D
  8
0
  6
CADDY_SOLID
 10
410.0
 20
10.0
 30
0.0
 11
10.0
 21
10.0
 31
0.0
  0
LINE
  5
7E
  8
0
  6
CADDY_SOLID
 10
10.0
 20
30.0
 30
0.0
 11
410.0
 21
30.0
 31
0.0
  0
LINE
  5
7F
  8
0
  6
CADDY_SOLID
 10
260.0
 20
20.0
 30
0.0
 11
410.0
 21
20.0
 31
0.0
  0
LINE
  5
80
  8
0
  6
CADDY_SOLID
 10
10.0
 20
30.0
 30
0.0
 11
15.0
 21
30.0
 31
0.0
  0
LINE
  5
81
  8
0
  6
CADDY_SOLID
 10
405.0
 20
30.0
 30
0.0
 11
410.0
 21
30.0
 31
0.0
  0
LINE
  5
82
  8
0
  6
CADDY_SOLID
 10
65.0
 20
30.0
 30
0.0
 11
65.0
 21
10.0
 31
0.0
  0
TEXT
  5
83
  8
0
 10
69.19999694824219
 20
14.19999980926514
 30
0.0
 40
2.449999809265137
  1
Kassepakker
 41
0.9
  7
CADDY_VECTORFONT1P
  0
TEXT
  5
84
  8
0
 10
69.19999694824219
 20
23.20000076293945
 30
0.0
 40
2.44999885559082
  1
MPN - GUIDED BY VISION
 41
0.9
  7
CADDY_VECTORFONT1P
  0
TEXT
  5
85
  8
0
 10
69.19999694824219
 20
18.70000076293945
 30
0.0
 40
2.44999885559082
  1

 41
0.9
  7
CADDY_VECTORFONT1P
  0
LINE
  5
86
  8
0
  6
CADDY_SOLID
 10
160.0
 20
30.0
 30
0.0
 11
160.0
 21
10.0
 31
0.0
  0
TEXT
  5
87
  8
0
 10
164.1999969482422
 20
23.20000076293945
 30
0.0
 40
2.44999885559082
  1
Nødstopsrelæ
 41
0.9
  7
CADDY_VECTORFONT1P
  0
TEXT
  5
88
  8
0
 10
164.1999969482422
 20
18.70000076293945
 30
0.0
 40
2.44999885559082
  1

 41
0.9
  7
CADDY_VECTORFONT1P
  0
TEXT
  5
89
  8
0
 10
164.1999969482422
 20
14.19999980926514
 30
0.0
 40
2.449999809265137
  1

 41
0.9
  7
CADDY_VECTORFONT1P
  0
LINE
  5
8A
  8
0
  6
CADDY_SOLID
 10
260.0
 20
30.0
 30
0.0
 11
260.0
 21
10.0
 31
0.0
  0
TEXT
  5
8B
  8
0
 10
261.2000122070312
 20
26.20000076293945
 30
0.0
 40
2.44999885559082
  1
Projekt:
 41
0.9
  7
CADDY_VECTORFONT1P
  0
TEXT
  5
8C
  8
0
 10
261.2000122070312
 20
16.20000076293945
 30
0.0
 40
2.44999885559082
  1
Dato:
 41
0.9
  7
CADDY_VECTORFONT1P
  0
LINE
  5
8D
  8
0
  6
CADDY_SOLID
 10
290.0
 20
30.0
 30
0.0
 11
290.0
 21
10.0
 31
0.0
  0
TEXT
  5
8E
  8
0
 10
291.2000122070312
 20
16.20000076293945
 30
0.0
 40
2.44999885559082
  1
Funkt.:
 41
0.9
  7
CADDY_VECTORFONT1P
  0
TEXT
  5
8F
  8
0
 10
291.2000122070312
 20
26.20000076293945
 30
0.0
 40
2.44999885559082
  1
Tegn. nr.:
 41
0.9
  7
CADDY_VECTORFONT1P
  0
TEXT
  5
90
  8
0
 10
276.1062470369339
 20
21.70000076293945
 30
0.0
 40
2.44999885559082
  1
CP6000
 41
0.9
  7
CADDY_VECTORFONT1P
 72
     2
 11
286.2999572753906
 21
21.70000076293945
 31
0.0
  0
TEXT
  5
91
  8
0
 10
269.9807535458565
 20
11.69999980926514
 30
0.0
 40
2.449999809265137
  1
31-05-2005
 41
0.9
  7
CADDY_VECTORFONT1P
 72
     2
 11
286.2999572753906
 21
11.69999980926514
 31
0.0
  0
LINE
  5
92
  8
0
  6
CADDY_SOLID
 10
320.0
 20
20.0
 30
0.0
 11
320.0
 21
10.0
 31
0.0
  0
TEXT
  5
93
  8
0
 10
321.2000122070312
 20
16.20000076293945
 30
0.0
 40
2.44999885559082
  1
Plac.:
 41
0.9
  7
CADDY_VECTORFONT1P
  0
TEXT
  5
94
  8
0
 10
314.9527328978539
 20
11.69999980926514
 30
0.0
 40
2.449999809265137
  1
=
 41
0.9
  7
CADDY_VECTORFONT1P
 72
     2
 11
316.2999877929688
 21
11.69999980926514
 31
0.0
  0
LINE
  5
95
  8
0
  6
CADDY_SOLID
 10
382.5
 20
20.0
 30
0.0
 11
382.5
 21
30.0
 31
0.0
  0
LINE
  5
96
  8
0
  6
CADDY_SOLID
 10
382.5
 20
10.0
 30
0.0
 11
382.5
 21
20.0
 31
0.0
  0
TEXT
  5
97
  8
0
 10
349.952763415432
 20
11.69999980926514
 30
0.0
 40
2.449999809265137
  1
+
 41
0.9
  7
CADDY_VECTORFONT1P
 72
     2
 11
351.3000183105469
 21
11.69999980926514
 31
0.0
  0
LINE
  5
98
  8
0
  6
CADDY_SOLID
 10
355.0
 20
10.0
 30
0.0
 11
355.0
 21
20.0
 31
0.0
  0
LINE
  5
99
  8
0
  6
CADDY_SOLID
 10
355.0
 20
20.0
 30
0.0
 11
355.0
 21
30.0
 31
0.0
  0
TEXT
  5
9A
  8
0
 10
356.2000122070312
 20
26.20000076293945
 30
0.0
 40
2.44999885559082
  1
Rev.:
 41
0.9
  7
CADDY_VECTORFONT1P
  0
LINE
  5
9B
  8
0
  6
CADDY_SOLID
 10
337.5
 20
20.0
 30
0.0
 11
337.5
 21
30.0
 31
0.0
  0
TEXT
  5
9C
  8
0
 10
333.5
 20
21.75
 30
0.0
 40
3.5
  1

 41
0.9
  7
CADDY_VECTORFONT1P
 72
     2
 11
333.5
 21
21.75
 31
0.0
  0
TEXT
  5
9D
  8
0
 10
338.7000122070312
 20
26.20000076293945
 30
0.0
 40
2.44999885559082
  1
Init.:
 41
0.9
  7
CADDY_VECTORFONT1P
  0
TEXT
  5
9E
  8
0
 10
351.3000183105469
 20
21.70000076293945
 30
0.0
 40
2.44999885559082
  1

 41
0.9
  7
CADDY_VECTORFONT1P
 72
     2
 11
351.3000183105469
 21
21.70000076293945
 31
0.0
  0
TEXT
  5
9F
  8
0
 10
378.8000183105469
 20
21.70000076293945
 30
0.0
 40
2.44999885559082
  1

 41
0.9
  7
CADDY_VECTORFONT1P
 72
     2
 11
378.8000183105469
 21
21.70000076293945
 31
0.0
  0
TEXT
  5
A0
  8
0
 10
401.2907
 20
21.75
 30
0.0
 40
3.5
  1
8
 41
0.9
  7
CADDY_VECTORFONT1P
 72
     2
 11
403.25
 21
21.75
 31
0.0
  0
TEXT
  5
A1
  8
0
 10
405.25
 20
21.75
 30
0.0
 40
3.5
  1

 41
0.9
  7
CADDY_VECTORFONT1P
  0
TEXT
  5
A2
  8
0
 10
383.7000122070312
 20
26.20000076293945
 30
0.0
 40
2.44999885559082
  1
Blad:
 41
0.9
  7
CADDY_VECTORFONT1P
  0
TEXT
  5
A3
  8
0
 10
404.9285084173202
 20
11.69999980926514
 30
0.0
 40
2.449999809265137
  1
9
 41
0.9
  7
CADDY_VECTORFONT1P
 72
     2
 11
406.3000183105469
 21
11.69999980926514
 31
0.0
  0
TEXT
  5
A4
  8
0
 10
383.7000122070312
 20
16.20000076293945
 30
0.0
 40
2.44999885559082
  1
Næste blad:
 41
0.9
  7
CADDY_VECTORFONT1P
  0
TEXT
  5
A5
  8
0
 10
356.2000122070312
 20
16.20000076293945
 30
0.0
 40
2.44999885559082
  1
Antal blade:
 41
0.9
  7
CADDY_VECTORFONT1P
  0
TEXT
  5
A6
  8
0
 10
375.7284535496712
 20
11.69999980926514
 30
0.0
 40
2.449999809265137
  1
32
 41
0.9
  7
CADDY_VECTORFONT1P
 72
     2
 11
378.8000183105469
 21
11.69999980926514
 31
0.0
  0
ENDBLK
  8
0
  0
BLOCK
  8
0
  2
BLK2
 70
     2
 10
0.0
 20
0.0
 30
0.0
  0
LINE
  5
B0
  8
0
  6
CADDY_SOLID
 10
32.5
 20
250.0
 30
0.0
 11
30.25
 21
251.25
 31
0.0
  0
LINE
  5
B1
  8
0
  6
CADDY_SOLID
 10
32.5
 20
250.0
 30
0.0
 11
30.25
 21
248.75
 31
0.0
  0
ATTDEF
  5
B4
  8
0
 10
34.26500701904297
 20
250.9000091552734
 30
0.0
 40
2.449996948242188
  1
0708
 41
0.9
  7
CADDY_VECTORFONT1P
  3
Produkt (-)
  2
$TAG160010
 70
     0
  0
ATTDEF
  5
B6
  8
0
 10
10.48679448699951
 20
248.9499969482422
 30
0.0
 40
2.449996948242188
  1
7.7
 41
0.9
  7
CADDY_VECTORFONT1P
 72
     2
 11
27.78499794006348
 21
248.9499969482422
 31
0.0
  3
Side/strømvej reference
  2
$TAG160500
 70
     0
  0
ATTDEF
  5
B8
  8
0
 10
34.26500701904297
 20
257.9000244140625
 30
0.0
 40
2.449981689453125
  1
=
 41
0.9
  7
CADDY_VECTORFONT1P
  3
Funktion (=)
  2
$TAG140020
 70
     1
  0
ATTDEF
  5
BA
  8
0
 10
34.26500701904297
 20
254.4000091552734
 30
0.0
 40
2.449996948242188
  1
+
 41
0.9
  7
CADDY_VECTORFONT1P
  3
Placering (+)
  2
$TAG140050
 70
     1
  0
ENDBLK
  8
0
  0
BLOCK
  8
0
  2
BLK3
 70
     2
 10
0.0
 20
0.0
 30
0.0
  0
LINE
  5
BF
  8
0
  6
CADDY_SOLID
 10
382.5
 20
250.0
 30
0.0
 11
380.25
 21
251.25
 31
0.0
  0
LINE
  5
C0
  8
0
  6
CADDY_SOLID
 10
382.5
 20
250.0
 30
0.0
 11
380.25
 21
248.75
 31
0.0
  0
ATTDEF
  5
C3
  8
0
 10
360.9785756317139
 20
250.9000091552734
 30
0.0
 40
2.449996948242188
  1
0708
 41
0.9
  7
CADDY_VECTORFONT1P
 72
     2
 11
377.7850646972656
 21
250.9000091552734
 31
0.0
  3
Produkt (-)
  2
$TAG160010
 70
     0
  0
ATTDEF
  5
C5
  8
0
 10
383.3650207519531
 20
248.9499969482422
 30
0.0
 40
2.449996948242188
  1
11.0
 41
0.9
  7
CADDY_VECTORFONT1P
  3
Side/strømvej reference
  2
$TAG160500
 70
     0
  0
ATTDEF
  5
C7
  8
0
 10
360.2421547729492
 20
257.9000244140625
 30
0.0
 40
2.449981689453125
  1
=
 41
0.9
  7
CADDY_VECTORFONT1P
 72
     2
 11
377.7850036621094
 21
257.9000244140625
 31
0.0
  3
Funktion (=)
  2
$TAG140020
 70
     1
  0
ATTDEF
  5
C9
  8
0
 10
360.242045513916
 20
254.4000091552734
 30
0.0
 40
2.449996948242188
  1
+
 41
0.9
  7
CADDY_VECTORFONT1P
 72
     2
 11
377.7850036621094
 21
254.4000091552734
 31
0.0
  3
Placering (+)
  2
$TAG140050
 70
     1
  0
ENDBLK
  8
0
  0
BLOCK
  8
0
  2
BLK4
 70
     2
 10
0.0
 20
0.0
 30
0.0
  0
LINE
  5
D0
  8
0
  6
CADDY_SOLID
 10
37.5
 20
70.0
 30
0.0
 11
35.25
 21
71.25
 31
0.0
  0
LINE
  5
D1
  8
0
  6
CADDY_SOLID
 10
37.5
 20
70.0
 30
0.0
 11
35.25
 21
68.75
 31
0.0
  0
ATTDEF
  5
D4
  8
0
 10
39.26500701904297
 20
70.89999389648438
 30
0.0
 40
2.450004577636719
  1
0707
 41
0.9
  7
CADDY_VECTORFONT1P
  3
Produkt (-)
  2
$TAG160010
 70
     0
  0
ATTDEF
  5
D6
  8
0
 10
15.48673871231079
 20
68.94999694824219
 30
0.0
 40
2.450004577636719
  1
7.9
 41
0.9
  7
CADDY_VECTORFONT1P
 72
     2
 11
32.78499603271484
 21
68.94999694824219
 31
0.0
  3
Side/strømvej reference
  2
$TAG160500
 70
     0
  0
ATTDEF
  5
D8
  8
0
 10
39.26500701904297
 20
77.89999389648438
 30
0.0
 40
2.450004577636719
  1
=
 41
0.9
  7
CADDY_VECTORFONT1P
  3
Funktion (=)
  2
$TAG140020
 70
     1
  0
ATTDEF
  5
DA
  8
0
 10
39.26500701904297
 20
74.39999389648438
 30
0.0
 40
2.450004577636719
  1
+
 41
0.9
  7
CADDY_VECTORFONT1P
  3
Placering (+)
  2
$TAG140050
 70
     1
  0
ENDBLK
  8
0
  0
BLOCK
  8
0
  2
BLK5
 70
     2
 10
0.0
 20
0.0
 30
0.0
  0
LINE
  5
DF
  8
0
  6
CADDY_SOLID
 10
387.5
 20
70.0
 30
0.0
 11
385.25
 21
71.25
 31
0.0
  0
LINE
  5
E0
  8
0
  6
CADDY_SOLID
 10
387.5
 20
70.0
 30
0.0
 11
385.25
 21
68.75
 31
0.0
  0
ATTDEF
  5
E3
  8
0
 10
365.9785232955933
 20
70.89999389648438
 30
0.0
 40
2.450004577636719
  1
0707
 41
0.9
  7
CADDY_VECTORFONT1P
 72
     2
 11
382.7850646972656
 21
70.89999389648438
 31
0.0
  3
Produkt (-)
  2
$TAG160010
 70
     0
  0
ATTDEF
  5
E5
  8
0
 10
388.3650207519531
 20
68.94999694824219
 30
0.0
 40
2.450004577636719
  1
11.0
 41
0.9
  7
CADDY_VECTORFONT1P
  3
Side/strømvej reference
  2
$TAG160500
 70
     0
  0
ATTDEF
  5
E7
  8
0
 10
365.2419908843994
 20
77.89999389648438
 30
0.0
 40
2.450004577636719
  1
=
 41
0.9
  7
CADDY_VECTORFONT1P
 72
     2
 11
382.7850036621094
 21
77.89999389648438
 31
0.0
  3
Funktion (=)
  2
$TAG140020
 70
     1
  0
ATTDEF
  5
E9
  8
0
 10
365.2419908843994
 20
74.39999389648438
 30
0.0
 40
2.450004577636719
  1
+
 41
0.9
  7
CADDY_VECTORFONT1P
 72
     2
 11
382.7850036621094
 21
74.39999389648438
 31
0.0
  3
Placering (+)
  2
$TAG140050
 70
     1
  0
ENDBLK
  8
0
  0
BLOCK
  8
0
  2
BLK6
 70
     2
 10
0.0
 20
0.0
 30
0.0
  0
LINE
  5
F3
  8
0
  6
CADDY_SOLID
 10
150.0
 20
217.5
 30
0.0
 11
150.0
 21
220.0
 31
0.0
  0
LINE
  5
F4
  8
0
  6
CADDY_SOLID
 10
150.0
 20
212.5
 30
0.0
 11
150.0
 21
210.0
 31
0.0
  0
LINE
  5
F5
  8
0
  6
CADDY_SOLID
 10
150.0
 20
217.5
 30
0.0
 11
152.5
 21
217.5
 31
0.0
  0
LINE
  5
F6
  8
0
  6
CADDY_SOLID
 10
150.0
 20
212.5
 30
0.0
 11
152.1838073730469
 21
218.5
 31
0.0
  0
ATTDEF
  5
F9
  8
0
 10
127.1935414520264
 20
213.8000030517578
 30
0.0
 40
2.449996948242188
  1
K0804
 41
0.9
  7
CADDY_VECTORFONT1P
 72
     2
 11
144.0000305175781
 21
213.8000030517578
 31
0.0
  3
Produkt (-)
  2
$TAG160010
 70
     0
  0
ATTDEF
  5
FB
  8
0
 10
126.7018118057251
 20
210.3000030517578
 30
0.0
 40
2.449996948242188
  1
8.4
 41
0.9
  7
CADDY_VECTORFONT1P
 72
     2
 11
144.0000152587891
 21
210.3000030517578
 31
0.0
  3
Side/strømvej reference
  2
$TAG160500
 70
     0
  0
ATTDEF
  5
FD
  8
0
 10
149.0500030517578
 20
219.4000091552734
 30
0.0
 40
2.449996948242188
  1
21
 50
90.0
 41
0.9
  7
CADDY_VECTORFONT1P
  3
Tilslutningstekst 00
  2
$TAG175000_00
 70
     0
  0
ATTDEF
  5
FF
  8
0
 10
149.0500030517578
 20
187.9658327224732
 30
0.0
 40
2.449996948242188
  1
22
 50
90.0
 41
0.9
  7
CADDY_VECTORFONT1P
 72
     2
 11
149.0500030517578
 21
210.9000091552734
 31
0.0
  3
Tilslutningstekst 01
  2
$TAG175000_01
 70
     0
  0
ATTDEF
  5
101
  8
0
 10
126.4570571105957
 20
220.8000030517578
 30
0.0
 40
2.449996948242188
  1
=
 41
0.9
  7
CADDY_VECTORFONT1P
 72
     2
 11
144.0000152587891
 21
220.8000030517578
 31
0.0
  3
Funktion (=)
  2
$TAG140020
 70
     1
  0
ATTDEF
  5
103
  8
0
 10
126.4570418518067
 20
217.3000030517578
 30
0.0
 40
2.449996948242188
  1
+
 41
0.9
  7
CADDY_VECTORFONT1P
 72
     2
 11
144.0
 21
217.3000030517578
 31
0.0
  3
Placering (+)
  2
$TAG140050
 70
     1
  0
ENDBLK
  8
0
  0
BLOCK
  8
0
  2
BLK7
 70
     2
 10
0.0
 20
0.0
 30
0.0
  0
LINE
  5
108
  8
0
  6
CADDY_SOLID
 10
150.0
 20
192.5
 30
0.0
 11
150.0
 21
195.0
 31
0.0
  0
LINE
  5
109
  8
0
  6
CADDY_SOLID
 10
150.0
 20
187.5
 30
0.0
 11
150.0
 21
185.0
 31
0.0
  0
LINE
  5
10A
  8
0
  6
CADDY_SOLID
 10
150.0
 20
192.5
 30
0.0
 11
152.5
 21
192.5
 31
0.0
  0
LINE
  5
10B
  8
0
  6
CADDY_SOLID
 10
150.0
 20
187.5
 30
0.0
 11
152.1838073730469
 21
193.5
 31
0.0
  0
ATTDEF
  5
10E
  8
0
 10
127.1935414520264
 20
188.8000030517578
 30
0.0
 40
2.449996948242188
  1
K0805
 41
0.9
  7
CADDY_VECTORFONT1P
 72
     2
 11
144.0000305175781
 21
188.8000030517578
 31
0.0
  3
Produkt (-)
  2
$TAG160010
 70
     0
  0
ATTDEF
  5
110
  8
0
 10
126.7018118057251
 20
185.3000030517578
 30
0.0
 40
2.449996948242188
  1
8.5
 41
0.9
  7
CADDY_VECTORFONT1P
 72
     2
 11
144.0000152587891
 21
185.3000030517578
 31
0.0
  3
Side/strømvej reference
  2
$TAG160500
 70
     0
  0
ATTDEF
  5
112
  8
0
 10
149.0500030517578
 20
194.4000091552734
 30
0.0
 40
2.449996948242188
  1
21
 50
90.0
 41
0.9
  7
CADDY_VECTORFONT1P
  3
Tilslutningstekst 00
  2
$TAG175000_00
 70
     0
  0
ATTDEF
  5
114
  8
0
 10
149.0500030517578
 20
162.9658327224732
 30
0.0
 40
2.449996948242188
  1
22
 50
90.0
 41
0.9
  7
CADDY_VECTORFONT1P
 72
     2
 11
149.0500030517578
 21
185.9000091552734
 31
0.0
  3
Tilslutningstekst 01
  2
$TAG175000_01
 70
     0
  0
ATTDEF
  5
116
  8
0
 10
126.4570571105957
 20
195.8000030517578
 30
0.0
 40
2.449996948242188
  1
=
 41
0.9
  7
CADDY_VECTORFONT1P
 72
     2
 11
144.0000152587891
 21
195.8000030517578
 31
0.0
  3
Funktion (=)
  2
$TAG140020
 70
     1
  0
ATTDEF
  5
118
  8
0
 10
126.4570418518067
 20
192.3000030517578
 30
0.0
 40
2.449996948242188
  1
+
 41
0.9
  7
CADDY_VECTORFONT1P
 72
     2
 11
144.0
 21
192.3000030517578
 31
0.0
  3
Placering (+)
  2
$TAG140050
 70
     1
  0
ENDBLK
  8
0
  0
BLOCK
  8
0
  2
BLK8
 70
     2
 10
0.0
 20
0.0
 30
0.0
  0
LINE
  5
128
  8
0
  6
CADDY_SOLID
 10
372.5
 20
195.0
 30
0.0
 11
370.25
 21
196.25
 31
0.0
  0
LINE
  5
129
  8
0
  6
CADDY_SOLID
 10
372.5
 20
195.0
 30
0.0
 11
370.25
 21
193.75
 31
0.0
  0
LINE
  5
12A
  8
0
  6
CADDY_SOLID
 10
370.0
 20
195.0
 30
0.0
 11
372.5
 21
195.0
 31
0.0
  0
ATTDEF
  5
12D
  8
0
 10
350.6935109344482
 20
195.9000091552734
 30
0.0
 40
2.449996948242188
  1
0812
 41
0.9
  7
CADDY_VECTORFONT1P
 72
     2
 11
367.5
 21
195.9000091552734
 31
0.0
  3
Produkt (-)
  2
$TAG160010
 70
     0
  0
ATTDEF
  5
12F
  8
0
 10
374.6500244140625
 20
193.8499908447266
 30
0.0
 40
2.449996948242188
  1
11.2
 41
0.9
  7
CADDY_VECTORFONT1P
  3
Side/strømvej reference
  2
$TAG160500
 70
     0
  0
ENDBLK
  8
0
  0
BLOCK
  8
0
  2
BLK9
 70
     2
 10
0.0
 20
0.0
 30
0.0
  0
LINE
  5
134
  8
0
  6
CADDY_SOLID
 10
377.5
 20
105.0
 30
0.0
 11
375.25
 21
106.25
 31
0.0
  0
LINE
  5
135
  8
0
  6
CADDY_SOLID
 10
377.5
 20
105.0
 30
0.0
 11
375.25
 21
103.75
 31
0.0
  0
LINE
  5
136
  8
0
  6
CADDY_SOLID
 10
375.0
 20
105.0
 30
0.0
 11
377.5
 21
105.0
 31
0.0
  0
ATTDEF
  5
139
  8
0
 10
355.6934280807495
 20
105.8999938964844
 30
0.0
 40
2.450004577636719
  1
0813
 41
0.9
  7
CADDY_VECTORFONT1P
 72
     2
 11
372.4999694824219
 21
105.8999938964844
 31
0.0
  3
Produkt (-)
  2
$TAG160010
 70
     0
  0
ATTDEF
  5
13B
  8
0
 10
379.6500244140625
 20
103.8499908447266
 30
0.0
 40
2.450004577636719
  1
11.2
 41
0.9
  7
CADDY_VECTORFONT1P
  3
Side/strømvej reference
  2
$TAG160500
 70
     0
  0
ENDBLK
  8
0
  0
BLOCK
  8
0
  2
BLK10
 70
     2
 10
0.0
 20
0.0
 30
0.0
  0
LINE
  5
142
  8
0
  6
CADDY_SOLID
 10
357.5
 20
200.0
 30
0.0
 11
355.25
 21
201.25
 31
0.0
  0
LINE
  5
143
  8
0
  6
CADDY_SOLID
 10
357.5
 20
200.0
 30
0.0
 11
355.25
 21
198.75
 31
0.0
  0
LINE
  5
144
  8
0
  6
CADDY_SOLID
 10
355.0
 20
200.0
 30
0.0
 11
357.5
 21
200.0
 31
0.0
  0
ATTDEF
  5
147
  8
0
 10
335.6935109344482
 20
200.9000091552734
 30
0.0
 40
2.449996948242188
  1
0810
 41
0.9
  7
CADDY_VECTORFONT1P
 72
     2
 11
352.5
 21
200.9000091552734
 31
0.0
  3
Produkt (-)
  2
$TAG160010
 70
     0
  0
ATTDEF
  5
149
  8
0
 10
359.6500244140625
 20
198.8499908447266
 30
0.0
 40
2.449996948242188
  1
9.1
 41
0.9
  7
CADDY_VECTORFONT1P
  3
Side/strømvej reference
  2
$TAG160500
 70
     0
  0
ENDBLK
  8
0
  0
BLOCK
  8
0
  2
BLK11
 70
     2
 10
0.0
 20
0.0
 30
0.0
  0
LINE
  5
150
  8
0
  6
CADDY_SOLID
 10
357.5
 20
100.0
 30
0.0
 11
355.25
 21
101.25
 31
0.0
  0
LINE
  5
151
  8
0
  6
CADDY_SOLID
 10
357.5
 20
100.0
 30
0.0
 11
355.25
 21
98.75
 31
0.0
  0
LINE
  5
152
  8
0
  6
CADDY_SOLID
 10
355.0
 20
100.0
 30
0.0
 11
357.5
 21
100.0
 31
0.0
  0
ATTDEF
  5
155
  8
0
 10
335.6934585983277
 20
100.8999938964844
 30
0.0
 40
2.450004577636719
  1
0811
 41
0.9
  7
CADDY_VECTORFONT1P
 72
     2
 11
352.5
 21
100.8999938964844
 31
0.0
  3
Produkt (-)
  2
$TAG160010
 70
     0
  0
ATTDEF
  5
157
  8
0
 10
359.6500244140625
 20
98.84999084472656
 30
0.0
 40
2.450004577636719
  1
9.0
 41
0.9
  7
CADDY_VECTORFONT1P
  3
Side/strømvej reference
  2
$TAG160500
 70
     0
  0
ENDBLK
  8
0
  0
BLOCK
  8
0
  2
BLK12
 70
     2
 10
0.0
 20
0.0
 30
0.0
  0
LINE
  5
160
  8
0
  6
CADDY_SOLID
 10
195.0
 20
82.5
 30
0.0
 11
195.0
 21
87.5
 31
0.0
  0
LINE
  5
161
  8
0
  6
CADDY_SOLID
 10
195.0
 20
87.5
 30
0.0
 11
185.0
 21
87.5
 31
0.0
  0
LINE
  5
162
  8
0
  6
CADDY_SOLID
 10
185.0
 20
87.5
 30
0.0
 11
185.0
 21
82.5
 31
0.0
  0
LINE
  5
163
  8
0
  6
CADDY_SOLID
 10
185.0
 20
82.5
 30
0.0
 11
195.0
 21
82.5
 31
0.0
  0
LINE
  5
164
  8
0
  6
CADDY_SOLID
 10
190.0
 20
87.5
 30
0.0
 11
190.0
 21
90.0
 31
0.0
  0
LINE
  5
165
  8
0
  6
CADDY_SOLID
 10
190.0
 20
82.5
 30
0.0
 11
190.0
 21
80.0
 31
0.0
  0
ATTDEF
  5
168
  8
0
 10
165.6934891159058
 20
83.80000305175781
 30
0.0
 40
2.450004577636719
  1
K0804
 41
0.9
  7
CADDY_VECTORFONT1P
 72
     2
 11
182.5000305175781
 21
83.80000305175781
 31
0.0
  3
Produkt (-)
  2
$TAG160010
 70
     0
  0
ATTDEF
  5
16A
  8
0
 10
164.9570024810791
 20
76.80000305175781
 30
0.0
 40
2.450004577636719
  1

 41
0.9
  7
CADDY_VECTORFONT1P
 72
     2
 11
182.5000152587891
 21
76.80000305175781
 31
0.0
  3
Type
  2
$TAG160040
 70
     1
  0
ATTDEF
  5
16C
  8
0
 10
165.201757938385
 20
80.30000305175781
 30
0.0
 40
2.450004577636719
  1

 41
0.9
  7
CADDY_VECTORFONT1P
 72
     2
 11
182.5000152587891
 21
80.30000305175781
 31
0.0
  3
Beskrivelse 00
  2
$TAG160030
 70
     0
  0
ATTDEF
  5
16E
  8
0
 10
189.0500030517578
 20
88.39999389648438
 30
0.0
 40
2.450004577636719
  1
A1
 50
90.0
 41
0.9
  7
CADDY_VECTORFONT1P
  3
Tilslutningstekst 00
  2
$TAG175000_00
 70
     0
  0
ATTDEF
  5
170
  8
0
 10
189.0500030517578
 20
57.96576130447388
 30
0.0
 40
2.450004577636719
  1
A2
 50
90.0
 41
0.9
  7
CADDY_VECTORFONT1P
 72
     2
 11
189.0500030517578
 21
80.90000915527344
 31
0.0
  3
Tilslutningstekst 01
  2
$TAG175000_01
 70
     0
  0
ENDBLK
  8
0
  0
BLOCK
  8
0
  2
BLK13
 70
     2
 10
0.0
 20
0.0
 30
0.0
  0
LINE
  5
175
  8
0
  6
CADDY_SOLID
 10
215.0
 20
82.5
 30
0.0
 11
215.0
 21
87.5
 31
0.0
  0
LINE
  5
176
  8
0
  6
CADDY_SOLID
 10
215.0
 20
87.5
 30
0.0
 11
205.0
 21
87.5
 31
0.0
  0
LINE
  5
177
  8
0
  6
CADDY_SOLID
 10
205.0
 20
87.5
 30
0.0
 11
205.0
 21
82.5
 31
0.0
  0
LINE
  5
178
  8
0
  6
CADDY_SOLID
 10
205.0
 20
82.5
 30
0.0
 11
215.0
 21
82.5
 31
0.0
  0
LINE
  5
179
  8
0
  6
CADDY_SOLID
 10
210.0
 20
87.5
 30
0.0
 11
210.0
 21
90.0
 31
0.0
  0
LINE
  5
17A
  8
0
  6
CADDY_SOLID
 10
210.0
 20
82.5
 30
0.0
 11
210.0
 21
80.0
 31
0.0
  0
ATTDEF
  5
17D
  8
0
 10
185.6934891159058
 20
83.80000305175781
 30
0.0
 40
2.450004577636719
  1
K0805
 41
0.9
  7
CADDY_VECTORFONT1P
 72
     2
 11
202.5000305175781
 21
83.80000305175781
 31
0.0
  3
Produkt (-)
  2
$TAG160010
 70
     0
  0
ATTDEF
  5
17F
  8
0
 10
184.9570024810791
 20
76.80000305175781
 30
0.0
 40
2.450004577636719
  1

 41
0.9
  7
CADDY_VECTORFONT1P
 72
     2
 11
202.5000152587891
 21
76.80000305175781
 31
0.0
  3
Type
  2
$TAG160040
 70
     1
  0
ATTDEF
  5
181
  8
0
 10
185.201757938385
 20
80.30000305175781
 30
0.0
 40
2.450004577636719
  1

 41
0.9
  7
CADDY_VECTORFONT1P
 72
     2
 11
202.5000152587891
 21
80.30000305175781
 31
0.0
  3
Beskrivelse 00
  2
$TAG160030
 70
     0
  0
ATTDEF
  5
183
  8
0
 10
209.0500030517578
 20
88.39999389648438
 30
0.0
 40
2.450004577636719
  1
A1
 50
90.0
 41
0.9
  7
CADDY_VECTORFONT1P
  3
Tilslutningstekst 00
  2
$TAG175000_00
 70
     0
  0
ATTDEF
  5
185
  8
0
 10
209.0500030517578
 20
57.96576130447388
 30
0.0
 40
2.450004577636719
  1
A2
 50
90.0
 41
0.9
  7
CADDY_VECTORFONT1P
 72
     2
 11
209.0500030517578
 21
80.90000915527344
 31
0.0
  3
Tilslutningstekst 01
  2
$TAG175000_01
 70
     0
  0
ENDBLK
  8
0
  0
BLOCK
  8
0
  2
BLK14
 70
     2
 10
0.0
 20
0.0
 30
0.0
  0
LINE
  5
18D
  8
0
  6
CADDY_SOLID
 10
342.5
 20
95.0
 30
0.0
 11
340.25
 21
96.25
 31
0.0
  0
LINE
  5
18E
  8
0
  6
CADDY_SOLID
 10
342.5
 20
95.0
 30
0.0
 11
340.25
 21
93.75
 31
0.0
  0
LINE
  5
18F
  8
0
  6
CADDY_SOLID
 10
340.0
 20
95.0
 30
0.0
 11
342.5
 21
95.0
 31
0.0
  0
ATTDEF
  5
192
  8
0
 10
320.6934585983277
 20
95.89999389648438
 30
0.0
 40
2.450004577636719
  1
0809
 41
0.9
  7
CADDY_VECTORFONT1P
 72
     2
 11
337.5
 21
95.89999389648438
 31
0.0
  3
Produkt (-)
  2
$TAG160010
 70
     0
  0
ATTDEF
  5
194
  8
0
 10
344.6500244140625
 20
93.84999084472656
 30
0.0
 40
2.450004577636719
  1
11.4
 41
0.9
  7
CADDY_VECTORFONT1P
  3
Side/strømvej reference
  2
$TAG160500
 70
     0
  0
ENDBLK
  8
0
  0
BLOCK
  8
0
  2
BLK15
 70
     2
 10
0.0
 20
0.0
 30
0.0
  0
LINE
  5
199
  8
0
  6
CADDY_SOLID
 10
202.5
 20
240.0
 30
0.0
 11
200.25
 21
241.25
 31
0.0
  0
LINE
  5
19A
  8
0
  6
CADDY_SOLID
 10
202.5
 20
240.0
 30
0.0
 11
200.25
 21
238.75
 31
0.0
  0
LINE
  5
19B
  8
0
  6
CADDY_SOLID
 10
200.0
 20
240.0
 30
0.0
 11
202.5
 21
240.0
 31
0.0
  0
ATTDEF
  5
19E
  8
0
 10
180.6935414520264
 20
240.9000091552734
 30
0.0
 40
2.449996948242188
  1
0802
 41
0.9
  7
CADDY_VECTORFONT1P
 72
     2
 11
197.5000305175781
 21
240.9000091552734
 31
0.0
  3
Produkt (-)
  2
$TAG160010
 70
     0
  0
ATTDEF
  5
1A0
  8
0
 10
204.6500091552734
 20
238.8499908447266
 30
0.0
 40
2.449996948242188
  1
11.3
 41
0.9
  7
CADDY_VECTORFONT1P
  3
Side/strømvej reference
  2
$TAG160500
 70
     0
  0
ENDBLK
  8
0
  0
BLOCK
  8
0
  2
BLK16
 70
     2
 10
0.0
 20
0.0
 30
0.0
  0
LINE
  5
1A5
  8
0
  6
CADDY_SOLID
 10
202.5
 20
235.0
 30
0.0
 11
200.25
 21
236.25
 31
0.0
  0
LINE
  5
1A6
  8
0
  6
CADDY_SOLID
 10
202.5
 20
235.0
 30
0.0
 11
200.25
 21
233.75
 31
0.0
  0
LINE
  5
1A7
  8
0
  6
CADDY_SOLID
 10
200.0
 20
235.0
 30
0.0
 11
202.5
 21
235.0
 31
0.0
  0
ATTDEF
  5
1AA
  8
0
 10
180.6935261932373
 20
235.9000091552734
 30
0.0
 40
2.449996948242188
  1
0805
 41
0.9
  7
CADDY_VECTORFONT1P
 72
     2
 11
197.5000152587891
 21
235.9000091552734
 31
0.0
  3
Produkt (-)
  2
$TAG160010
 70
     0
  0
ATTDEF
  5
1AC
  8
0
 10
204.6500091552734
 20
233.8499908447266
 30
0.0
 40
2.449996948242188
  1
11.3
 41
0.9
  7
CADDY_VECTORFONT1P
  3
Side/strømvej reference
  2
$TAG160500
 70
     0
  0
ENDBLK
  8
0
  0
BLOCK
  8
0
  2
BLK17
 70
     2
 10
0.0
 20
0.0
 30
0.0
  0
CIRCLE
  5
1D5
  8
0
  6
CADDY_SOLID
 10
235.0
 20
127.5
 30
0.0
 40
0.75
  0
LINE
  5
1D6
  8
0
  6
CADDY_SOLID
 10
235.0
 20
128.25
 30
0.0
 11
235.0
 21
130.0
 31
0.0
  0
LINE
  5
1D7
  8
0
  6
CADDY_SOLID
 10
235.0
 20
125.0
 30
0.0
 11
235.0
 21
126.75
 31
0.0
  0
ATTDEF
  5
1DA
  8
0
 10
213.2435139862061
 20
126.3000030517578
 30
0.0
 40
2.449996948242188
  1
X12
 41
0.9
  7
CADDY_VECTORFONT1P
 72
     2
 11
230.0500030517578
 21
126.3000030517578
 31
0.0
  3
Produkt (-)
  2
$TAG160010
 70
     1
  0
ATTDEF
  5
1DC
  8
0
 10
234.0999908447266
 20
129.1999969482422
 30
0.0
 40
2.449996948242188
  1
2
 50
90.0
 41
0.9
  7
CADDY_VECTORFONT1P
  3
Klemmenummer
  2
$TAG160400
 70
     0
  0
ATTDEF
  5
1DE
  8
0
 10
237.5999908447266
 20
129.1999969482422
 30
0.0
 40
2.449996948242188
  1
207
 50
90.0
 41
0.9
  7
CADDY_VECTORFONT1P
  3
Sorteringsindeks
  2
$TAG160410
 70
     1
  0
ATTDEF
  5
1E0
  8
0
 10
212.7517457313538
 20
122.8000030517578
 30
0.0
 40
2.450004577636719
  1

 41
0.9
  7
CADDY_VECTORFONT1P
 72
     2
 11
230.0500030517578
 21
122.8000030517578
 31
0.0
  3
Beskrivelse 00
  2
$TAG160030
 70
     1
  0
ATTDEF
  5
1E2
  8
0
 10
212.5070055328369
 20
117.8000030517578
 30
0.0
 40
2.450004577636719
  1
AB1RR235U2GR
 41
0.9
  7
CADDY_VECTORFONT1P
 72
     2
 11
230.0500183105469
 21
117.8000030517578
 31
0.0
  3
Type
  2
$TAG160040
 70
     1
  0
ATTDEF
  5
1E4
  8
0
 10
212.5070449035645
 20
133.3000030517578
 30
0.0
 40
2.449996948242188
  1
=
 41
0.9
  7
CADDY_VECTORFONT1P
 72
     2
 11
230.0500030517578
 21
133.3000030517578
 31
0.0
  3
Funktion (=)
  2
$TAG140020
 70
     1
  0
ATTDEF
  5
1E6
  8
0
 10
212.5070296447754
 20
129.8000030517578
 30
0.0
 40
2.449996948242188
  1
+
 41
0.9
  7
CADDY_VECTORFONT1P
 72
     2
 11
230.0499877929688
 21
129.8000030517578
 31
0.0
  3
Placering (+)
  2
$TAG140050
 70
     1
  0
ENDBLK
  8
0
  0
BLOCK
  8
0
  2
BLK18
 70
     2
 10
0.0
 20
0.0
 30
0.0
  0
ATTDEF
  5
204
  8
0
 10
249.5017609901428
 20
94.69999694824219
 30
0.0
 40
2.450004577636719
  1

 41
0.9
  7
CADDY_VECTORFONT1P
 72
     2
 11
266.8000183105469
 21
94.69999694824219
 31
0.0
  3
Beskrivelse 00
  2
$TAG160030
 70
     0
  0
ATTDEF
  5
206
  8
0
 10
249.2570055328369
 20
91.19999694824219
 30
0.0
 40
2.450004577636719
  1

 41
0.9
  7
CADDY_VECTORFONT1P
 72
     2
 11
266.8000183105469
 21
91.19999694824219
 31
0.0
  3
Type
  2
$TAG160040
 70
     0
  0
TEXT
  5
207
  8
0
 10
265.7000122070312
 20
85.69999694824219
 30
0.0
 40
2.450004577636719
  1
Digital
 41
0.9
  7
CADDY_VECTORFONT1P
  0
TEXT
  5
208
  8
0
 10
265.7000122070312
 20
82.19999694824219
 30
0.0
 40
2.450004577636719
  1
Indgang
 41
0.9
  7
CADDY_VECTORFONT1P
  0
TEXT
  5
209
  8
0
 10
265.7000122070312
 20
78.69999694824219
 30
0.0
 40
2.450004577636719
  1

 41
0.9
  7
CADDY_VECTORFONT1P
  0
ATTDEF
  5
20B
  8
0
 10
264.9934463912964
 20
90.15000915527344
 30
0.0
 40
2.450004577636719
  1
D1307-A2
 41
0.9
  7
CADDY_VECTORFONT1P
 72
     2
 11
281.7999877929688
 21
90.15000915527344
 31
0.0
  3
Signaladresse
  2
$TAG175100
 70
     0
  0
ATTDEF
  5
20D
  8
0
 10
247.9851928276062
 20
84.14999389648438
 30
0.0
 40
2.450004577636719
  1

 41
0.9
  7
CADDY_VECTORFONT1P
 72
     2
 11
264.3000183105469
 21
84.14999389648438
 31
0.0
  3
Signalbeskrivelse
  2
$TAG175110
 70
     0
  0
ATTDEF
  5
20F
  8
0
 10
247.4934769088745
 20
81.14999389648438
 30
0.0
 40
2.450004577636719
  1

 41
0.9
  7
CADDY_VECTORFONT1P
 72
     2
 11
264.3000183105469
 21
81.14999389648438
 31
0.0
  3
Signalbemærkning
  2
$TAG175120
 70
     0
  0
ATTDEF
  5
211
  8
0
 10
247.0017609901428
 20
77.64999389648438
 30
0.0
 40
2.450004577636719
  1

 41
0.9
  7
CADDY_VECTORFONT1P
 72
     2
 11
264.3000183105469
 21
77.64999389648438
 31
0.0
  3
Side/strømvej reference
  2
$TAG160500
 70
     0
  0
INSERT
  5
215
  8
0
  2
BLK19
 10
0.0
 20
0.0
 30
1.0
  0
LINE
  5
21A
  8
0
  6
CADDY_SOLID
 10
265.0
 20
90.0
 30
0.0
 11
285.0
 21
90.0
 31
0.0
  0
LINE
  5
21B
  8
0
  6
CADDY_SOLID
 10
265.0
 20
85.0
 30
0.0
 11
285.0
 21
85.0
 31
0.0
  0
LINE
  5
21C
  8
0
  6
CADDY_SOLID
 10
281.0
 20
83.5
 30
0.0
 11
278.5
 21
81.0
 31
0.0
  0
LINE
  5
21D
  8
0
  6
CADDY_SOLID
 10
278.5
 20
81.0
 30
0.0
 11
283.5
 21
81.0
 31
0.0
  0
LINE
  5
21E
  8
0
  6
CADDY_SOLID
 10
283.5
 20
81.0
 30
0.0
 11
281.0
 21
83.5
 31
0.0
  0
LINE
  5
21F
  8
0
  6
CADDY_SOLID
 10
277.5
 20
90.0
 30
0.0
 11
277.5
 21
80.0
 31
0.0
  0
INSERT
  5
223
  8
0
  2
BLK20
 10
0.0
 20
0.0
 30
1.0
  0
ATTDEF
  5
226
  8
0
 10
269.0499877929688
 20
98.4000244140625
 30
0.0
 40
2.450004577636719
  1

 50
90.0
 41
0.9
  7
CADDY_VECTORFONT1P
  3
Tilslutningstekst 00
  2
$TAG175000_00
 70
     0
  0
ATTDEF
  5
228
  8
0
 10
244.1534500534058
 20
89.52500915527344
 30
0.0
 40
2.450004577636719
  1
#00000031
 41
0.9
  7
CADDY_VECTORFONT1P
 72
     2
 11
260.9599914550781
 21
89.52500915527344
 31
0.0
  3
Produkt (-)
  2
$TAG160010
 70
     1
  0
ENDBLK
  8
0
  0
BLOCK
  8
0
  2
BLK19
 70
     0
 10
0.0
 20
0.0
 30
0.0
  0
LINE
  5
216
  8
0
  6
CADDY_SOLID
 10
265.0
 20
80.0
 30
0.0
 11
285.0
 21
80.0
 31
0.0
  0
LINE
  5
217
  8
0
  6
CADDY_SOLID
 10
285.0
 20
80.0
 30
0.0
 11
285.0
 21
95.0
 31
0.0
  0
LINE
  5
218
  8
0
  6
CADDY_SOLID
 10
285.0
 20
95.0
 30
0.0
 11
265.0
 21
95.0
 31
0.0
  0
LINE
  5
219
  8
0
  6
CADDY_SOLID
 10
265.0
 20
95.0
 30
0.0
 11
265.0
 21
80.0
 31
0.0
  0
ENDBLK
  8
0
  0
BLOCK
  8
0
  2
BLK20
 70
     0
 10
0.0
 20
0.0
 30
0.0
  0
LINE
  5
224
  8
0
  6
CADDY_SOLID
 10
270.0
 20
100.0
 30
0.0
 11
270.0
 21
95.0
 31
0.0
  0
ENDBLK
  8
0
  0
BLOCK
  8
0
  2
BLK21
 70
     2
 10
0.0
 20
0.0
 30
0.0
  0
LINE
  5
22D
  8
0
  6
CADDY_SOLID
 10
235.0
 20
82.5
 30
0.0
 11
235.0
 21
87.5
 31
0.0
  0
LINE
  5
22E
  8
0
  6
CADDY_SOLID
 10
235.0
 20
87.5
 30
0.0
 11
225.0
 21
87.5
 31
0.0
  0
LINE
  5
22F
  8
0
  6
CADDY_SOLID
 10
225.0
 20
87.5
 30
0.0
 11
225.0
 21
82.5
 31
0.0
  0
LINE
  5
230
  8
0
  6
CADDY_SOLID
 10
225.0
 20
82.5
 30
0.0
 11
235.0
 21
82.5
 31
0.0
  0
LINE
  5
231
  8
0
  6
CADDY_SOLID
 10
230.0
 20
87.5
 30
0.0
 11
230.0
 21
90.0
 31
0.0
  0
LINE
  5
232
  8
0
  6
CADDY_SOLID
 10
230.0
 20
82.5
 30
0.0
 11
230.0
 21
80.0
 31
0.0
  0
LINE
  5
233
  8
0
  6
CADDY_SOLID
 10
238.0
 20
88.5
 30
0.0
 11
242.0
 21
88.5
 31
0.0
  0
LINE
  5
234
  8
0
  6
CADDY_SOLID
 10
242.0
 20
88.5
 30
0.0
 11
238.0
 21
81.5
 31
0.0
  0
LINE
  5
235
  8
0
  6
CADDY_SOLID
 10
242.0
 20
81.5
 30
0.0
 11
238.0
 21
88.5
 31
0.0
  0
LINE
  5
236
  8
0
  6
CADDY_SOLID
 10
238.0
 20
81.5
 30
0.0
 11
242.0
 21
81.5
 31
0.0
  0
LINE
  5
237
  8
0
  6
CADDY_SOLID
 10
235.0
 20
85.0
 30
0.0
 11
236.5
 21
85.0
 31
0.0
  0
LINE
  5
238
  8
0
  6
CADDY_SOLID
 10
237.5
 20
85.0
 30
0.0
 11
239.0
 21
85.0
 31
0.0
  0
ATTDEF
  5
23B
  8
0
 10
229.0999908447266
 20
88.40000915527344
 30
0.0
 40
2.450004577636719
  1

 50
90.0
 41
0.9
  7
CADDY_VECTORFONT1P
  3
Tilslutningstekst 00
  2
$TAG175000_00
 70
     0
  0
ATTDEF
  5
23D
  8
0
 10
229.0999908447266
 20
57.96576130447388
 30
0.0
 40
2.450004577636719
  1

 50
90.0
 41
0.9
  7
CADDY_VECTORFONT1P
 72
     2
 11
229.0999908447266
 21
80.90000915527344
 31
0.0
  3
Tilslutningstekst 01
  2
$TAG175000_01
 70
     0
  0
ATTDEF
  5
23F
  8
0
 10
206.3934708053589
 20
83.80000305175781
 30
0.0
 40
2.450004577636719
  1
Y0805
 41
0.9
  7
CADDY_VECTORFONT1P
 72
     2
 11
223.2000122070312
 21
83.80000305175781
 31
0.0
  3
Produkt (-)
  2
$TAG160010
 70
     0
  0
ATTDEF
  5
241
  8
0
 10
205.6569841705322
 20
76.80000305175781
 30
0.0
 40
2.450004577636719
  1

 41
0.9
  7
CADDY_VECTORFONT1P
 72
     2
 11
223.1999969482422
 21
76.80000305175781
 31
0.0
  3
Type
  2
$TAG160040
 70
     0
  0
ATTDEF
  5
243
  8
0
 10
205.9017396278381
 20
80.30000305175781
 30
0.0
 40
2.450004577636719
  1

 41
0.9
  7
CADDY_VECTORFONT1P
 72
     2
 11
223.1999969482422
 21
80.30000305175781
 31
0.0
  3
Beskrivelse 00
  2
$TAG160030
 70
     0
  0
ENDBLK
  8
0
  0
BLOCK
  8
0
  2
BLK22
 70
     2
 10
0.0
 20
0.0
 30
0.0
  0
LINE
  5
248
  8
0
  6
CADDY_SOLID
 10
235.0
 20
97.5
 30
0.0
 11
235.0
 21
107.5
 31
0.0
  0
LINE
  5
249
  8
0
  6
CADDY_SOLID
 10
234.25
 20
107.5
 30
0.0
 11
235.75
 21
107.5
 31
0.0
  0
LINE
  5
24A
  8
0
  6
CADDY_SOLID
 10
234.5
 20
103.5
 30
0.0
 11
234.5
 21
107.5
 31
0.0
  0
LINE
  5
24B
  8
0
  6
CADDY_SOLID
 10
235.5
 20
103.5
 30
0.0
 11
235.5
 21
107.5
 31
0.0
  0
LINE
  5
24C
  8
0
  6
CADDY_SOLID
 10
235.75
 20
103.5
 30
0.0
 11
235.75
 21
107.5
 31
0.0
  0
LINE
  5
24D
  8
0
  6
CADDY_SOLID
 10
235.25
 20
103.5
 30
0.0
 11
235.25
 21
107.5
 31
0.0
  0
LINE
  5
24E
  8
0
  6
CADDY_SOLID
 10
234.75
 20
103.5
 30
0.0
 11
234.75
 21
107.5
 31
0.0
  0
LINE
  5
24F
  8
0
  6
CADDY_SOLID
 10
234.25
 20
103.5
 30
0.0
 11
234.25
 21
107.5
 31
0.0
  0
POLYLINE
  5
250
  8
0
  6
CADDY_SOLID
 66
     1
 10
0.0
 20
0.0
 30
0.0
  0
VERTEX
  5
399
  8
0
  6
CADDY_SOLID
 10
237.0
 20
107.5
 30
0.0
  0
VERTEX
  5
39A
  8
0
  6
CADDY_SOLID
 10
236.9615705608065
 20
107.8901806440323
 30
0.0
  0
VERTEX
  5
39B
  8
0
  6
CADDY_SOLID
 10
236.8477590650226
 20
108.2653668647302
 30
0.0
  0
VERTEX
  5
39C
  8
0
  6
CADDY_SOLID
 10
236.6629392246051
 20
108.6111404660392
 30
0.0
  0
VERTEX
  5
39D
  8
0
  6
CADDY_SOLID
 10
236.4142135623731
 20
108.9142135623731
 30
0.0
  0
VERTEX
  5
39E
  8
0
  6
CADDY_SOLID
 10
236.1111404660392
 20
109.1629392246051
 30
0.0
  0
VERTEX
  5
39F
  8
0
  6
CADDY_SOLID
 10
235.7653668647302
 20
109.3477590650226
 30
0.0
  0
VERTEX
  5
3A0
  8
0
  6
CADDY_SOLID
 10
235.3901806440323
 20
109.4615705608065
 30
0.0
  0
VERTEX
  5
3A1
  8
0
  6
CADDY_SOLID
 10
235.0
 20
109.5
 30
0.0
  0
VERTEX
  5
3A2
  8
0
  6
CADDY_SOLID
 10
234.6098193559677
 20
109.4615705608065
 30
0.0
  0
VERTEX
  5
3A3
  8
0
  6
CADDY_SOLID
 10
234.2346331352698
 20
109.3477590650226
 30
0.0
  0
VERTEX
  5
3A4
  8
0
  6
CADDY_SOLID
 10
233.8888595339608
 20
109.1629392246051
 30
0.0
  0
VERTEX
  5
3A5
  8
0
  6
CADDY_SOLID
 10
233.5857864376269
 20
108.9142135623731
 30
0.0
  0
VERTEX
  5
3A6
  8
0
  6
CADDY_SOLID
 10
233.3370607753949
 20
108.6111404660392
 30
0.0
  0
VERTEX
  5
3A7
  8
0
  6
CADDY_SOLID
 10
233.1522409349774
 20
108.2653668647302
 30
0.0
  0
VERTEX
  5
3A8
  8
0
  6
CADDY_SOLID
 10
233.0384294391935
 20
107.8901806440323
 30
0.0
  0
VERTEX
  5
3A9
  8
0
  6
CADDY_SOLID
 10
233.0
 20
107.5
 30
0.0
  0
SEQEND
  5
3BB
  8
0
  6
CADDY_SOLID
  0
LINE
  5
251
  8
0
  6
CADDY_SOLID
 10
235.0
 20
109.5
 30
0.0
 11
235.0
 21
115.0
 31
0.0
  0
LINE
  5
252
  8
0
  6
CADDY_SOLID
 10
234.25
 20
103.5
 30
0.0
 11
235.75
 21
103.5
 31
0.0
  0
ATTDEF
  5
255
  8
0
 10
213.6934738571167
 20
106.3000030517578
 30
0.0
 40
2.450004577636719
  1
8X5.1
 41
0.9
  7
CADDY_VECTORFONT1P
 72
     2
 11
230.5000152587891
 21
106.3000030517578
 31
0.0
  3
Produkt (-)
  2
$TAG160010
 70
     1
  0
ATTDEF
  5
257
  8
0
 10
212.5569780670166
 20
99.30000305175781
 30
0.0
 40
2.450004577636719
  1

 41
0.9
  7
CADDY_VECTORFONT1P
 72
     2
 11
230.0999908447266
 21
99.30000305175781
 31
0.0
  3
Type
  2
$TAG160040
 70
     1
  0
ATTDEF
  5
259
  8
0
 10
212.8017335243225
 20
102.8000030517578
 30
0.0
 40
2.450004577636719
  1

 41
0.9
  7
CADDY_VECTORFONT1P
 72
     2
 11
230.0999908447266
 21
102.8000030517578
 31
0.0
  3
Beskrivelse 00
  2
$TAG160030
 70
     0
  0
ATTDEF
  5
25B
  8
0
 10
234.0500030517578
 20
110.3999938964844
 30
0.0
 40
2.450004577636719
  1

 50
90.0
 41
0.9
  7
CADDY_VECTORFONT1P
  3
Tilslutningstekst 00
  2
$TAG175000_00
 70
     0
  0
ATTDEF
  5
25D
  8
0
 10
234.0500030517578
 20
78.96576130447389
 30
0.0
 40
2.450004577636719
  1

 50
90.0
 41
0.9
  7
CADDY_VECTORFONT1P
 72
     2
 11
234.0500030517578
 21
101.9000091552734
 31
0.0
  3
Tilslutningstekst 01
  2
$TAG175000_01
 70
     0
  0
ENDBLK
  8
0
  0
BLOCK
  8
0
  2
BLK23
 70
     2
 10
0.0
 20
0.0
 30
0.0
  0
INSERT
  5
26E
  8
0
  2
BLK24
 10
0.0
 20
0.0
 30
1.0
  0
INSERT
  5
276
  8
0
  2
BLK25
 10
0.0
 20
0.0
 30
1.0
  0
INSERT
  5
27E
  8
0
  2
BLK26
 10
0.0
 20
0.0
 30
1.0
  0
INSERT
  5
286
  8
0
  2
BLK27
 10
0.0
 20
0.0
 30
1.0
  0
INSERT
  5
28E
  8
0
  2
BLK28
 10
0.0
 20
0.0
 30
1.0
  0
INSERT
  5
296
  8
0
  2
BLK29
 10
0.0
 20
0.0
 30
1.0
  0
TEXT
  5
29B
  8
0
 10
353.647827696991
 20
151.3999938964844
 30
0.0
 40
1.400009155273438
  1
1
 41
0.9
  7
CADDY_VECTORFONT1P
 72
     1
 11
354.0
 21
151.3999938964844
 31
0.0
  0
TEXT
  5
29C
  8
0
 10
353.5205668647766
 20
149.3999938964844
 30
0.0
 40
1.400009155273438
  1
2
 41
0.9
  7
CADDY_VECTORFONT1P
 72
     1
 11
354.0
 21
149.3999938964844
 31
0.0
  0
TEXT
  5
29D
  8
0
 10
353.5035567535401
 20
147.3999938964844
 30
0.0
 40
1.400009155273438
  1
3
 41
0.9
  7
CADDY_VECTORFONT1P
 72
     1
 11
354.0
 21
147.3999938964844
 31
0.0
  0
TEXT
  5
29E
  8
0
 10
353.449376399231
 20
145.3999938964844
 30
0.0
 40
1.400009155273438
  1
4
 41
0.9
  7
CADDY_VECTORFONT1P
 72
     1
 11
354.0
 21
145.3999938964844
 31
0.0
  0
TEXT
  5
29F
  8
0
 10
353.5104867988587
 20
143.3999938964844
 30
0.0
 40
1.400009155273438
  1
5
 41
0.9
  7
CADDY_VECTORFONT1P
 72
     1
 11
354.0
 21
143.3999938964844
 31
0.0
  0
TEXT
  5
2A0
  8
0
 10
353.5104867988587
 20
141.3999938964844
 30
0.0
 40
1.400009155273438
  1
6
 41
0.9
  7
CADDY_VECTORFONT1P
 72
     1
 11
354.0
 21
141.3999938964844
 31
0.0
  0
TEXT
  5
2A1
  8
0
 10
324.2999877929688
 20
135.7000122070312
 30
0.0
 40
2.449996948242188
  1
42
 50
90.0
 41
0.9
  7
CADDY_VECTORFONT1P
  0
TEXT
  5
2A2
  8
0
 10
124.3000030517578
 20
155.6999969482422
 30
0.0
 40
2.449996948242188
  1
41
 50
90.0
 41
0.9
  7
CADDY_VECTORFONT1P
  0
LINE
  5
2A3
  8
0
  6
CADDY_SOLID
 10
61.0
 20
155.0
 30
0.0
 11
374.0
 21
155.0
 31
0.0
  0
LINE
  5
2A4
  8
0
  6
CADDY_SOLID
 10
374.0
 20
140.0
 30
0.0
 11
374.0
 21
155.0
 31
0.0
  0
LINE
  5
2A5
  8
0
  6
CADDY_SOLID
 10
61.0
 20
140.0
 30
0.0
 11
374.0
 21
140.0
 31
0.0
  0
LINE
  5
2A6
  8
0
  6
CADDY_SOLID
 10
61.0
 20
155.0
 30
0.0
 11
61.0
 21
140.0
 31
0.0
  0
TEXT
  5
2A7
  8
0
 10
51.49473898468018
 20
146.4499969482422
 30
0.0
 40
2.449996948242188
  1
K1101
 41
0.9
  7
CADDY_VECTORFONT1P
 72
     2
 11
58.50001525878906
 21
146.4499969482422
 31
0.0
  0
TEXT
  5
2A8
  8
0
 10
44.63057490539551
 20
139.4499969482422
 30
0.0
 40
2.449996948242188
  1
G9SA-301
 41
0.9
  7
CADDY_VECTORFONT1P
 72
     2
 11
58.50000762939453
 21
139.4499969482422
 31
0.0
  0
TEXT
  5
2A9
  8
0
 10
37.06082314910888
 20
142.9499969482422
 30
0.0
 40
2.449996948242188
  1
NØDSTOPRELÆ
 41
0.9
  7
CADDY_VECTORFONT1P
 72
     2
 11
58.5000114440918
 21
142.9499969482422
 31
0.0
  0
TEXT
  5
2AA
  8
0
 10
358.6700570220947
 20
146.4499969482422
 30
0.0
 40
2.449996948242188
  1
G9SA-301
 41
0.9
 51
25.0
  7
CADDY_VECTORFONT1P
 72
     2
 11
372.5394897460938
 21
146.4499969482422
 31
0.0
  0
ATTDEF
  5
2AD
  8
0
 10
69.09999084472656
 20
115.4658174636841
 30
0.0
 40
2.449996948242188
  1
A2
 50
90.0
 41
0.9
  7
CADDY_VECTORFONT1P
 72
     2
 11
69.09999084472656
 21
138.3999938964844
 31
0.0
  3
Tilslutningstekst 01
  2
$TAG175000_01
 70
     0
  0
ATTDEF
  5
2AF
  8
0
 10
189.0999908447266
 20
114.9763233322144
 30
0.0
 40
2.449996948242188
  1
24
 50
90.0
 41
0.9
  7
CADDY_VECTORFONT1P
 72
     2
 11
189.0999908447266
 21
138.4000091552734
 31
0.0
  3
Tilslutningstekst 08
  2
$TAG175000_08
 70
     0
  0
ATTDEF
  5
2B1
  8
0
 10
269.0999755859375
 20
115.4680529785156
 30
0.0
 40
2.449996948242188
  1
34
 50
90.0
 41
0.9
  7
CADDY_VECTORFONT1P
 72
     2
 11
269.0999755859375
 21
138.4000244140625
 31
0.0
  3
Tilslutningstekst 10
  2
$TAG175000_10
 70
     0
  0
TEXT
  5
2B2
  8
0
 10
57.15275812225342
 20
153.4499969482422
 30
0.0
 40
2.449996948242188
  1
=
 41
0.9
  7
CADDY_VECTORFONT1P
 72
     2
 11
58.5000114440918
 21
153.4499969482422
 31
0.0
  0
TEXT
  5
2B3
  8
0
 10
57.15276193695068
 20
149.9499969482422
 30
0.0
 40
2.449996948242188
  1
+
 41
0.9
  7
CADDY_VECTORFONT1P
 72
     2
 11
58.50001525878906
 21
149.9499969482422
 31
0.0
  0
ENDBLK
  8
0
  0
BLOCK
  8
0
  2
BLK24
 70
     0
 10
0.0
 20
0.0
 30
0.0
  0
LINE
  5
26F
  8
0
  6
CADDY_SOLID
 10
352.0
 20
153.0
 30
0.0
 11
353.0
 21
153.0
 31
0.0
  0
LINE
  5
270
  8
0
  6
CADDY_SOLID
 10
353.0
 20
153.0
 30
0.0
 11
353.0
 21
151.0
 31
0.0
  0
LINE
  5
271
  8
0
  6
CADDY_SOLID
 10
353.0
 20
151.0
 30
0.0
 11
352.0
 21
151.0
 31
0.0
  0
LINE
  5
272
  8
0
  6
CADDY_SOLID
 10
352.0
 20
151.0
 30
0.0
 11
352.0
 21
153.0
 31
0.0
  0
ENDBLK
  8
0
  0
BLOCK
  8
0
  2
BLK25
 70
     0
 10
0.0
 20
0.0
 30
0.0
  0
LINE
  5
277
  8
0
  6
CADDY_SOLID
 10
352.0
 20
151.0
 30
0.0
 11
353.0
 21
151.0
 31
0.0
  0
LINE
  5
278
  8
0
  6
CADDY_SOLID
 10
353.0
 20
151.0
 30
0.0
 11
353.0
 21
149.0
 31
0.0
  0
LINE
  5
279
  8
0
  6
CADDY_SOLID
 10
353.0
 20
149.0
 30
0.0
 11
352.0
 21
149.0
 31
0.0
  0
LINE
  5
27A
  8
0
  6
CADDY_SOLID
 10
352.0
 20
149.0
 30
0.0
 11
352.0
 21
151.0
 31
0.0
  0
ENDBLK
  8
0
  0
BLOCK
  8
0
  2
BLK26
 70
     0
 10
0.0
 20
0.0
 30
0.0
  0
LINE
  5
27F
  8
0
  6
CADDY_SOLID
 10
352.0
 20
149.0
 30
0.0
 11
353.0
 21
149.0
 31
0.0
  0
LINE
  5
280
  8
0
  6
CADDY_SOLID
 10
353.0
 20
149.0
 30
0.0
 11
353.0
 21
147.0
 31
0.0
  0
LINE
  5
281
  8
0
  6
CADDY_SOLID
 10
353.0
 20
147.0
 30
0.0
 11
352.0
 21
147.0
 31
0.0
  0
LINE
  5
282
  8
0
  6
CADDY_SOLID
 10
352.0
 20
147.0
 30
0.0
 11
352.0
 21
149.0
 31
0.0
  0
ENDBLK
  8
0
  0
BLOCK
  8
0
  2
BLK27
 70
     0
 10
0.0
 20
0.0
 30
0.0
  0
LINE
  5
287
  8
0
  6
CADDY_SOLID
 10
352.0
 20
147.0
 30
0.0
 11
353.0
 21
147.0
 31
0.0
  0
LINE
  5
288
  8
0
  6
CADDY_SOLID
 10
353.0
 20
147.0
 30
0.0
 11
353.0
 21
145.0
 31
0.0
  0
LINE
  5
289
  8
0
  6
CADDY_SOLID
 10
353.0
 20
145.0
 30
0.0
 11
352.0
 21
145.0
 31
0.0
  0
LINE
  5
28A
  8
0
  6
CADDY_SOLID
 10
352.0
 20
145.0
 30
0.0
 11
352.0
 21
147.0
 31
0.0
  0
ENDBLK
  8
0
  0
BLOCK
  8
0
  2
BLK28
 70
     0
 10
0.0
 20
0.0
 30
0.0
  0
LINE
  5
28F
  8
0
  6
CADDY_SOLID
 10
352.0
 20
145.0
 30
0.0
 11
353.0
 21
145.0
 31
0.0
  0
LINE
  5
290
  8
0
  6
CADDY_SOLID
 10
353.0
 20
145.0
 30
0.0
 11
353.0
 21
143.0
 31
0.0
  0
LINE
  5
291
  8
0
  6
CADDY_SOLID
 10
353.0
 20
143.0
 30
0.0
 11
352.0
 21
143.0
 31
0.0
  0
LINE
  5
292
  8
0
  6
CADDY_SOLID
 10
352.0
 20
143.0
 30
0.0
 11
352.0
 21
145.0
 31
0.0
  0
ENDBLK
  8
0
  0
BLOCK
  8
0
  2
BLK29
 70
     0
 10
0.0
 20
0.0
 30
0.0
  0
LINE
  5
297
  8
0
  6
CADDY_SOLID
 10
352.0
 20
143.0
 30
0.0
 11
353.0
 21
143.0
 31
0.0
  0
LINE
  5
298
  8
0
  6
CADDY_SOLID
 10
353.0
 20
143.0
 30
0.0
 11
353.0
 21
141.0
 31
0.0
  0
LINE
  5
299
  8
0
  6
CADDY_SOLID
 10
353.0
 20
141.0
 30
0.0
 11
352.0
 21
141.0
 31
0.0
  0
LINE
  5
29A
  8
0
  6
CADDY_SOLID
 10
352.0
 20
141.0
 30
0.0
 11
352.0
 21
143.0
 31
0.0
  0
ENDBLK
  8
0
  0
BLOCK
  8
0
  2
BLK30
 70
     2
 10
0.0
 20
0.0
 30
0.0
  0
CIRCLE
  5
2D1
  8
0
  6
CADDY_SOLID
 10
230.0
 20
127.5
 30
0.0
 40
0.75
  0
LINE
  5
2D2
  8
0
  6
CADDY_SOLID
 10
230.0
 20
128.25
 30
0.0
 11
230.0
 21
130.0
 31
0.0
  0
LINE
  5
2D3
  8
0
  6
CADDY_SOLID
 10
230.0
 20
125.0
 30
0.0
 11
230.0
 21
126.75
 31
0.0
  0
ATTDEF
  5
2D6
  8
0
 10
208.2435139862061
 20
126.3000030517578
 30
0.0
 40
2.449996948242188
  1
X8
 41
0.9
  7
CADDY_VECTORFONT1P
 72
     2
 11
225.0500030517578
 21
126.3000030517578
 31
0.0
  3
Produkt (-)
  2
$TAG160010
 70
     0
  0
ATTDEF
  5
2D8
  8
0
 10
229.0999908447266
 20
129.1999969482422
 30
0.0
 40
2.449996948242188
  1
1
 50
90.0
 41
0.9
  7
CADDY_VECTORFONT1P
  3
Klemmenummer
  2
$TAG160400
 70
     0
  0
ATTDEF
  5
2DA
  8
0
 10
232.5999908447266
 20
129.1999969482422
 30
0.0
 40
2.449996948242188
  1
207
 50
90.0
 41
0.9
  7
CADDY_VECTORFONT1P
  3
Sorteringsindeks
  2
$TAG160410
 70
     1
  0
ATTDEF
  5
2DC
  8
0
 10
207.7517457313538
 20
122.8000030517578
 30
0.0
 40
2.450004577636719
  1

 41
0.9
  7
CADDY_VECTORFONT1P
 72
     2
 11
225.0500030517578
 21
122.8000030517578
 31
0.0
  3
Beskrivelse 00
  2
$TAG160030
 70
     1
  0
ATTDEF
  5
2DE
  8
0
 10
207.5070055328369
 20
117.8000030517578
 30
0.0
 40
2.450004577636719
  1
AB1RR235U2GR
 41
0.9
  7
CADDY_VECTORFONT1P
 72
     2
 11
225.0500183105469
 21
117.8000030517578
 31
0.0
  3
Type
  2
$TAG160040
 70
     1
  0
ATTDEF
  5
2E0
  8
0
 10
207.5070449035645
 20
133.3000030517578
 30
0.0
 40
2.449996948242188
  1
=
 41
0.9
  7
CADDY_VECTORFONT1P
 72
     2
 11
225.0500030517578
 21
133.3000030517578
 31
0.0
  3
Funktion (=)
  2
$TAG140020
 70
     1
  0
ATTDEF
  5
2E2
  8
0
 10
207.5070296447754
 20
129.8000030517578
 30
0.0
 40
2.449996948242188
  1
+
 41
0.9
  7
CADDY_VECTORFONT1P
 72
     2
 11
225.0499877929688
 21
129.8000030517578
 31
0.0
  3
Placering (+)
  2
$TAG140050
 70
     1
  0
ENDBLK
  8
0
  0
BLOCK
  8
0
  2
BLK31
 70
     2
 10
0.0
 20
0.0
 30
0.0
  0
LINE
  5
2E7
  8
0
  6
CADDY_SOLID
 10
230.0
 20
97.5
 30
0.0
 11
230.0
 21
107.5
 31
0.0
  0
LINE
  5
2E8
  8
0
  6
CADDY_SOLID
 10
229.25
 20
107.5
 30
0.0
 11
230.75
 21
107.5
 31
0.0
  0
LINE
  5
2E9
  8
0
  6
CADDY_SOLID
 10
229.5
 20
103.5
 30
0.0
 11
229.5
 21
107.5
 31
0.0
  0
LINE
  5
2EA
  8
0
  6
CADDY_SOLID
 10
230.5
 20
103.5
 30
0.0
 11
230.5
 21
107.5
 31
0.0
  0
LINE
  5
2EB
  8
0
  6
CADDY_SOLID
 10
230.75
 20
103.5
 30
0.0
 11
230.75
 21
107.5
 31
0.0
  0
LINE
  5
2EC
  8
0
  6
CADDY_SOLID
 10
230.25
 20
103.5
 30
0.0
 11
230.25
 21
107.5
 31
0.0
  0
LINE
  5
2ED
  8
0
  6
CADDY_SOLID
 10
229.75
 20
103.5
 30
0.0
 11
229.75
 21
107.5
 31
0.0
  0
LINE
  5
2EE
  8
0
  6
CADDY_SOLID
 10
229.25
 20
103.5
 30
0.0
 11
229.25
 21
107.5
 31
0.0
  0
POLYLINE
  5
2EF
  8
0
  6
CADDY_SOLID
 66
     1
 10
0.0
 20
0.0
 30
0.0
  0
VERTEX
  5
3AA
  8
0
  6
CADDY_SOLID
 10
232.0
 20
107.5
 30
0.0
  0
VERTEX
  5
3AB
  8
0
  6
CADDY_SOLID
 10
231.9615705608065
 20
107.8901806440323
 30
0.0
  0
VERTEX
  5
3AC
  8
0
  6
CADDY_SOLID
 10
231.8477590650226
 20
108.2653668647302
 30
0.0
  0
VERTEX
  5
3AD
  8
0
  6
CADDY_SOLID
 10
231.6629392246051
 20
108.6111404660392
 30
0.0
  0
VERTEX
  5
3AE
  8
0
  6
CADDY_SOLID
 10
231.4142135623731
 20
108.9142135623731
 30
0.0
  0
VERTEX
  5
3AF
  8
0
  6
CADDY_SOLID
 10
231.1111404660392
 20
109.1629392246051
 30
0.0
  0
VERTEX
  5
3B0
  8
0
  6
CADDY_SOLID
 10
230.7653668647302
 20
109.3477590650226
 30
0.0
  0
VERTEX
  5
3B1
  8
0
  6
CADDY_SOLID
 10
230.3901806440323
 20
109.4615705608065
 30
0.0
  0
VERTEX
  5
3B2
  8
0
  6
CADDY_SOLID
 10
230.0
 20
109.5
 30
0.0
  0
VERTEX
  5
3B3
  8
0
  6
CADDY_SOLID
 10
229.6098193559677
 20
109.4615705608065
 30
0.0
  0
VERTEX
  5
3B4
  8
0
  6
CADDY_SOLID
 10
229.2346331352698
 20
109.3477590650226
 30
0.0
  0
VERTEX
  5
3B5
  8
0
  6
CADDY_SOLID
 10
228.8888595339608
 20
109.1629392246051
 30
0.0
  0
VERTEX
  5
3B6
  8
0
  6
CADDY_SOLID
 10
228.5857864376269
 20
108.9142135623731
 30
0.0
  0
VERTEX
  5
3B7
  8
0
  6
CADDY_SOLID
 10
228.3370607753949
 20
108.6111404660392
 30
0.0
  0
VERTEX
  5
3B8
  8
0
  6
CADDY_SOLID
 10
228.1522409349774
 20
108.2653668647302
 30
0.0
  0
VERTEX
  5
3B9
  8
0
  6
CADDY_SOLID
 10
228.0384294391935
 20
107.8901806440323
 30
0.0
  0
VERTEX
  5
3BA
  8
0
  6
CADDY_SOLID
 10
228.0
 20
107.5
 30
0.0
  0
SEQEND
  5
3BC
  8
0
  6
CADDY_SOLID
  0
LINE
  5
2F0
  8
0
  6
CADDY_SOLID
 10
230.0
 20
109.5
 30
0.0
 11
230.0
 21
115.0
 31
0.0
  0
LINE
  5
2F1
  8
0
  6
CADDY_SOLID
 10
229.25
 20
103.5
 30
0.0
 11
230.75
 21
103.5
 31
0.0
  0
ATTDEF
  5
2F4
  8
0
 10
208.6934738571167
 20
106.3000030517578
 30
0.0
 40
2.450004577636719
  1
8X5.2
 41
0.9
  7
CADDY_VECTORFONT1P
 72
     2
 11
225.5000152587891
 21
106.3000030517578
 31
0.0
  3
Produkt (-)
  2
$TAG160010
 70
     1
  0
ATTDEF
  5
2F6
  8
0
 10
207.5569780670166
 20
99.30000305175781
 30
0.0
 40
2.450004577636719
  1

 41
0.9
  7
CADDY_VECTORFONT1P
 72
     2
 11
225.0999908447266
 21
99.30000305175781
 31
0.0
  3
Type
  2
$TAG160040
 70
     1
  0
ATTDEF
  5
2F8
  8
0
 10
207.8017335243225
 20
102.8000030517578
 30
0.0
 40
2.450004577636719
  1

 41
0.9
  7
CADDY_VECTORFONT1P
 72
     2
 11
225.0999908447266
 21
102.8000030517578
 31
0.0
  3
Beskrivelse 00
  2
$TAG160030
 70
     0
  0
ATTDEF
  5
2FA
  8
0
 10
229.0500030517578
 20
110.3999938964844
 30
0.0
 40
2.450004577636719
  1

 50
90.0
 41
0.9
  7
CADDY_VECTORFONT1P
  3
Tilslutningstekst 00
  2
$TAG175000_00
 70
     0
  0
ATTDEF
  5
2FC
  8
0
 10
229.0500030517578
 20
78.96576130447389
 30
0.0
 40
2.450004577636719
  1

 50
90.0
 41
0.9
  7
CADDY_VECTORFONT1P
 72
     2
 11
229.0500030517578
 21
101.9000091552734
 31
0.0
  3
Tilslutningstekst 01
  2
$TAG175000_01
 70
     0
  0
ENDBLK
  8
0
  0
BLOCK
  8
0
  2
BLK32
 70
     2
 10
0.0
 20
0.0
 30
0.0
  0
ATTDEF
  5
30A
  8
0
 10
240.6999969482422
 20
120.6999969482422
 30
0.0
 40
2.450004577636719
  1
W0805
 41
0.9
  7
CADDY_VECTORFONT1P
  3
Produkt (-)
  2
$TAG160010
 70
     0
  0
ATTDEF
  5
30C
  8
0
 10
240.6999969482422
 20
115.6999969482422
 30
0.0
 40
2.450004577636719
  1

 41
0.9
  7
CADDY_VECTORFONT1P
  3
Beskrivelse 00
  2
$TAG160030
 70
     1
  0
ATTDEF
  5
30E
  8
0
 10
240.6999969482422
 20
110.6999969482422
 30
0.0
 40
2.450004577636719
  1

 41
0.9
  7
CADDY_VECTORFONT1P
  3
Kabeldimension
  2
$TAG160200
 70
     1
  0
ATTDEF
  5
310
  8
0
 10
240.6999969482422
 20
105.6999969482422
 30
0.0
 40
2.450004577636719
  1

 41
0.9
  7
CADDY_VECTORFONT1P
  3
Type
  2
$TAG160040
 70
     1
  0
ATTDEF
  5
312
  8
0
 10
240.6999969482422
 20
100.6999969482422
 30
0.0
 40
2.450004577636719
  1

 41
0.9
  7
CADDY_VECTORFONT1P
  3
Længde
  2
$TAG160101
 70
     1
  0
ATTDEF
  5
314
  8
0
 10
230.6999969482422
 20
120.6999969482422
 30
0.0
 40
2.450004577636719
  1
1
 41
0.9
  7
CADDY_VECTORFONT1P
  3
Kabelkorenummer
  2
$TAG160210
 70
     0
  0
ATTDEF
  5
316
  8
0
 10
230.6999969482422
 20
115.6999969482422
 30
0.0
 40
2.450004577636719
  1

 41
0.9
  7
CADDY_VECTORFONT1P
  3
Kabelkorefarve
  2
$TAG160220
 70
     1
  0
ATTDEF
  5
318
  8
0
 10
230.6999969482422
 20
110.6999969482422
 30
0.0
 40
2.450004577636719
  1

 41
0.9
  7
CADDY_VECTORFONT1P
  3
Kabelkoretværsnit
  2
$TAG160230
 70
     1
  0
LINE
  5
319
  8
0
  6
CADDY_SOLID
 10
230.0
 20
120.5
 30
0.0
 11
230.0
 21
119.5
 31
0.0
  0
ENDBLK
  8
0
  0
BLOCK
  8
0
  2
BLK33
 70
     2
 10
0.0
 20
0.0
 30
0.0
  0
ATTDEF
  5
320
  8
0
 10
240.6999969482422
 20
120.6999969482422
 30
0.0
 40
2.450004577636719
  1
W0805
 41
0.9
  7
CADDY_VECTORFONT1P
  3
Produkt (-)
  2
$TAG160010
 70
     0
  0
ATTDEF
  5
322
  8
0
 10
240.6999969482422
 20
115.6999969482422
 30
0.0
 40
2.450004577636719
  1

 41
0.9
  7
CADDY_VECTORFONT1P
  3
Beskrivelse 00
  2
$TAG160030
 70
     0
  0
ATTDEF
  5
324
  8
0
 10
240.6999969482422
 20
110.6999969482422
 30
0.0
 40
2.450004577636719
  1

 41
0.9
  7
CADDY_VECTORFONT1P
  3
Kabeldimension
  2
$TAG160200
 70
     0
  0
ATTDEF
  5
326
  8
0
 10
240.6999969482422
 20
105.6999969482422
 30
0.0
 40
2.450004577636719
  1

 41
0.9
  7
CADDY_VECTORFONT1P
  3
Type
  2
$TAG160040
 70
     1
  0
ATTDEF
  5
328
  8
0
 10
240.6999969482422
 20
100.6999969482422
 30
0.0
 40
2.450004577636719
  1

 41
0.9
  7
CADDY_VECTORFONT1P
  3
Længde
  2
$TAG160101
 70
     1
  0
ATTDEF
  5
32A
  8
0
 10
235.6999969482422
 20
120.6999969482422
 30
0.0
 40
2.450004577636719
  1
2
 41
0.9
  7
CADDY_VECTORFONT1P
  3
Kabelkorenummer
  2
$TAG160210
 70
     0
  0
ATTDEF
  5
32C
  8
0
 10
235.6999969482422
 20
115.6999969482422
 30
0.0
 40
2.450004577636719
  1

 41
0.9
  7
CADDY_VECTORFONT1P
  3
Kabelkorefarve
  2
$TAG160220
 70
     1
  0
ATTDEF
  5
32E
  8
0
 10
235.6999969482422
 20
110.6999969482422
 30
0.0
 40
2.450004577636719
  1

 41
0.9
  7
CADDY_VECTORFONT1P
  3
Kabelkoretværsnit
  2
$TAG160230
 70
     1
  0
LINE
  5
32F
  8
0
  6
CADDY_SOLID
 10
235.0
 20
120.5
 30
0.0
 11
235.0
 21
119.5
 31
0.0
  0
ENDBLK
  8
0
  0
BLOCK
  8
0
  2
BLK34
 70
     0
 10
0.0
 20
0.0
 30
0.0
  0
TEXT
  5
339
  8
0
 10
190.6999969482422
 20
50.70000076293945
 30
0.0
 40
2.450000762939453
  1
8.3
 41
0.9
  7
CADDY_VECTORFONT1P
  0
TEXT
  5
33A
  8
0
 10
175.3000030517578
 20
50.70000076293945
 30
0.0
 40
2.450000762939453
  1
6.1
 41
0.9
  7
CADDY_VECTORFONT1P
  0
TEXT
  5
33B
  8
0
 10
177.120985798645
 20
55.70000076293945
 30
0.0
 40
2.450000762939453
  1
H
 41
0.9
  7
CADDY_VECTORFONT1P
 72
     1
 11
178.1000061035156
 21
55.70000076293945
 31
0.0
  0
TEXT
  5
33C
  8
0
 10
185.1709735916138
 20
55.70000076293945
 30
0.0
 40
2.450000762939453
  1
S
 41
0.9
  7
CADDY_VECTORFONT1P
 72
     1
 11
186.1499938964844
 21
55.70000076293945
 31
0.0
  0
TEXT
  5
33D
  8
0
 10
192.5209796951294
 20
55.70000076293945
 30
0.0
 40
2.450000762939453
  1
B
 41
0.9
  7
CADDY_VECTORFONT1P
 72
     1
 11
193.5
 21
55.70000076293945
 31
0.0
  0
LINE
  5
33E
  8
0
  6
CADDY_SOLID
 10
174.6000061035156
 20
55.0
 30
0.0
 11
197.0
 21
55.0
 31
0.0
  0
LINE
  5
33F
  8
0
  6
CADDY_SOLID
 10
190.0
 20
58.5
 30
0.0
 11
190.0
 21
40.0
 31
0.0
  0
LINE
  5
340
  8
0
  6
CADDY_SOLID
 10
182.3000030517578
 20
58.5
 30
0.0
 11
182.3000030517578
 21
40.0
 31
0.0
  0
ENDBLK
  8
0
  0
BLOCK
  8
0
  2
BLK35
 70
     0
 10
0.0
 20
0.0
 30
0.0
  0
TEXT
  5
345
  8
0
 10
210.6999969482422
 20
50.70000076293945
 30
0.0
 40
2.450000762939453
  1
8.3
 41
0.9
  7
CADDY_VECTORFONT1P
  0
TEXT
  5
346
  8
0
 10
195.3000030517578
 20
50.70000076293945
 30
0.0
 40
2.450000762939453
  1
6.1
 41
0.9
  7
CADDY_VECTORFONT1P
  0
TEXT
  5
347
  8
0
 10
197.120985798645
 20
55.70000076293945
 30
0.0
 40
2.450000762939453
  1
H
 41
0.9
  7
CADDY_VECTORFONT1P
 72
     1
 11
198.1000061035156
 21
55.70000076293945
 31
0.0
  0
TEXT
  5
348
  8
0
 10
205.1709735916138
 20
55.70000076293945
 30
0.0
 40
2.450000762939453
  1
S
 41
0.9
  7
CADDY_VECTORFONT1P
 72
     1
 11
206.1499938964844
 21
55.70000076293945
 31
0.0
  0
TEXT
  5
349
  8
0
 10
212.5209796951294
 20
55.70000076293945
 30
0.0
 40
2.450000762939453
  1
B
 41
0.9
  7
CADDY_VECTORFONT1P
 72
     1
 11
213.5
 21
55.70000076293945
 31
0.0
  0
LINE
  5
34A
  8
0
  6
CADDY_SOLID
 10
194.6000061035156
 20
55.0
 30
0.0
 11
217.0
 21
55.0
 31
0.0
  0
LINE
  5
34B
  8
0
  6
CADDY_SOLID
 10
210.0
 20
58.5
 30
0.0
 11
210.0
 21
40.0
 31
0.0
  0
LINE
  5
34C
  8
0
  6
CADDY_SOLID
 10
202.3000030517578
 20
58.5
 30
0.0
 11
202.3000030517578
 21
40.0
 31
0.0
  0
ENDBLK
  8
0
  0
ENDSEC
  0
SECTION
  2
ENTITIES
  0
INSERT
  5
43
  8
0
  2
BLK1
 10
0.0
 20
0.0
 30
1.0
  0
INSERT
  5
AF
  8
0
 66
     1
  2
BLK2
 10
0.0
 20
0.0
 30
1.0
  0
ATTRIB
  5
B2
  8
0
 10
34.26500701904297
 20
250.9000091552734
 30
0.0
 40
2.449996948242188
  1
0708
 41
0.9
  7
CADDY_VECTORFONT1P
  2
$TAG160010
 70
     0
  0
ATTRIB
  5
B5
  8
0
 10
23.95712270812988
 20
248.9499969482422
 30
0.0
 40
2.449996948242188
  1
7.7
 41
0.9
  7
CADDY_VECTORFONT1P
 72
     2
 11
27.78499794006348
 21
248.9499969482422
 31
0.0
  2
$TAG160500
 70
     0
  0
ATTRIB
  5
B7
  8
0
 10
34.26500701904297
 20
257.9000244140625
 30
0.0
 40
2.449981689453125
  1
=
 41
0.9
  7
CADDY_VECTORFONT1P
  2
$TAG140020
 70
     1
  0
ATTRIB
  5
B9
  8
0
 10
34.26500701904297
 20
254.4000091552734
 30
0.0
 40
2.449996948242188
  1
+
 41
0.9
  7
CADDY_VECTORFONT1P
  2
$TAG140050
 70
     1
  0
SEQEND
  5
B3
  8
0
  0
INSERT
  5
BE
  8
0
 66
     1
  2
BLK3
 10
0.0
 20
0.0
 30
1.0
  0
ATTRIB
  5
C1
  8
0
 10
371.2670928161621
 20
250.9000091552734
 30
0.0
 40
2.449996948242188
  1
0708
 41
0.9
  7
CADDY_VECTORFONT1P
 72
     2
 11
377.7850646972656
 21
250.9000091552734
 31
0.0
  2
$TAG160010
 70
     0
  0
ATTRIB
  5
C4
  8
0
 10
383.3650207519531
 20
248.9499969482422
 30
0.0
 40
2.449996948242188
  1
11.0
 41
0.9
  7
CADDY_VECTORFONT1P
  2
$TAG160500
 70
     0
  0
ATTRIB
  5
C6
  8
0
 10
376.4377587310791
 20
257.9000244140625
 30
0.0
 40
2.449981689453125
  1
=
 41
0.9
  7
CADDY_VECTORFONT1P
 72
     2
 11
377.7850036621094
 21
257.9000244140625
 31
0.0
  2
$TAG140020
 70
     1
  0
ATTRIB
  5
C8
  8
0
 10
376.437750340271
 20
254.4000091552734
 30
0.0
 40
2.449996948242188
  1
+
 41
0.9
  7
CADDY_VECTORFONT1P
 72
     2
 11
377.7850036621094
 21
254.4000091552734
 31
0.0
  2
$TAG140050
 70
     1
  0
SEQEND
  5
C2
  8
0
  0
LINE
  5
CA
  8
0
  6
CADDY_SOLID
 10
32.5
 20
250.0
 30
0.0
 11
70.0
 21
250.0
 31
0.0
  0
LINE
  5
CB
  8
0
  6
CADDY_SOLID
 10
70.0
 20
250.0
 30
0.0
 11
382.5
 21
250.0
 31
0.0
  0
INSERT
  5
CF
  8
0
 66
     1
  2
BLK4
 10
0.0
 20
0.0
 30
1.0
  0
ATTRIB
  5
D2
  8
0
 10
39.26500701904297
 20
70.89999389648438
 30
0.0
 40
2.450004577636719
  1
0707
 41
0.9
  7
CADDY_VECTORFONT1P
  2
$TAG160010
 70
     0
  0
ATTRIB
  5
D5
  8
0
 10
28.96372389297485
 20
68.94999694824219
 30
0.0
 40
2.450004577636719
  1
7.9
 41
0.9
  7
CADDY_VECTORFONT1P
 72
     2
 11
32.78499603271484
 21
68.94999694824219
 31
0.0
  2
$TAG160500
 70
     0
  0
ATTRIB
  5
D7
  8
0
 10
39.26500701904297
 20
77.89999389648438
 30
0.0
 40
2.450004577636719
  1
=
 41
0.9
  7
CADDY_VECTORFONT1P
  2
$TAG140020
 70
     1
  0
ATTRIB
  5
D9
  8
0
 10
39.26500701904297
 20
74.39999389648438
 30
0.0
 40
2.450004577636719
  1
+
 41
0.9
  7
CADDY_VECTORFONT1P
  2
$TAG140050
 70
     1
  0
SEQEND
  5
D3
  8
0
  0
INSERT
  5
DE
  8
0
 66
     1
  2
BLK5
 10
0.0
 20
0.0
 30
1.0
  0
ATTRIB
  5
E1
  8
0
 10
376.2604575065613
 20
70.89999389648438
 30
0.0
 40
2.450004577636719
  1
0707
 41
0.9
  7
CADDY_VECTORFONT1P
 72
     2
 11
382.7850646972656
 21
70.89999389648438
 31
0.0
  2
$TAG160010
 70
     0
  0
ATTRIB
  5
E4
  8
0
 10
388.3650207519531
 20
68.94999694824219
 30
0.0
 40
2.450004577636719
  1
11.0
 41
0.9
  7
CADDY_VECTORFONT1P
  2
$TAG160500
 70
     0
  0
ATTRIB
  5
E6
  8
0
 10
381.4377461448669
 20
77.89999389648438
 30
0.0
 40
2.450004577636719
  1
=
 41
0.9
  7
CADDY_VECTORFONT1P
 72
     2
 11
382.7850036621094
 21
77.89999389648438
 31
0.0
  2
$TAG140020
 70
     1
  0
ATTRIB
  5
E8
  8
0
 10
381.4377461448669
 20
74.39999389648438
 30
0.0
 40
2.450004577636719
  1
+
 41
0.9
  7
CADDY_VECTORFONT1P
 72
     2
 11
382.7850036621094
 21
74.39999389648438
 31
0.0
  2
$TAG140050
 70
     1
  0
SEQEND
  5
E2
  8
0
  0
LINE
  5
EA
  8
0
  6
CADDY_SOLID
 10
37.5
 20
70.0
 30
0.0
 11
70.0
 21
70.0
 31
0.0
  0
LINE
  5
EB
  8
0
  6
CADDY_SOLID
 10
70.0
 20
70.0
 30
0.0
 11
190.0
 21
70.0
 31
0.0
  0
LINE
  5
EC
  8
0
  6
CADDY_SOLID
 10
190.0
 20
70.0
 30
0.0
 11
210.0
 21
70.0
 31
0.0
  0
LINE
  5
ED
  8
0
  6
CADDY_SOLID
 10
210.0
 20
70.0
 30
0.0
 11
255.0
 21
70.0
 31
0.0
  0
LINE
  5
EE
  8
0
  6
CADDY_SOLID
 10
255.0
 20
70.0
 30
0.0
 11
387.5
 21
70.0
 31
0.0
  0
INSERT
  5
F2
  8
0
 66
     1
  2
BLK6
 10
0.0
 20
0.0
 30
1.0
  0
ATTRIB
  5
F7
  8
0
 10
135.3013163528443
 20
213.8000030517578
 30
0.0
 40
2.449996948242188
  1
K0804
 41
0.9
  7
CADDY_VECTORFONT1P
 72
     2
 11
144.0000305175781
 21
213.8000030517578
 31
0.0
  2
$TAG160010
 70
     0
  0
ATTRIB
  5
FA
  8
0
 10
139.9582552932739
 20
210.3000030517578
 30
0.0
 40
2.449996948242188
  1
8.4
 41
0.9
  7
CADDY_VECTORFONT1P
 72
     2
 11
144.0000152587891
 21
210.3000030517578
 31
0.0
  2
$TAG160500
 70
     0
  0
ATTRIB
  5
FC
  8
0
 10
149.0500030517578
 20
219.4000091552734
 30
0.0
 40
2.449996948242188
  1
21
 50
90.0
 41
0.9
  7
CADDY_VECTORFONT1P
  2
$TAG175000_00
 70
     0
  0
ATTRIB
  5
FE
  8
0
 10
149.0500030517578
 20
207.8284479812622
 30
0.0
 40
2.449996948242188
  1
22
 50
90.0
 41
0.9
  7
CADDY_VECTORFONT1P
 72
     2
 11
149.0500030517578
 21
210.9000091552734
 31
0.0
  2
$TAG175000_01
 70
     0
  0
ATTRIB
  5
100
  8
0
 10
142.6527619369507
 20
220.8000030517578
 30
0.0
 40
2.449996948242188
  1
=
 41
0.9
  7
CADDY_VECTORFONT1P
 72
     2
 11
144.0000152587891
 21
220.8000030517578
 31
0.0
  2
$TAG140020
 70
     1
  0
ATTRIB
  5
102
  8
0
 10
142.6527466781616
 20
217.3000030517578
 30
0.0
 40
2.449996948242188
  1
+
 41
0.9
  7
CADDY_VECTORFONT1P
 72
     2
 11
144.0
 21
217.3000030517578
 31
0.0
  2
$TAG140050
 70
     1
  0
SEQEND
  5
F8
  8
0
  0
INSERT
  5
107
  8
0
 66
     1
  2
BLK7
 10
0.0
 20
0.0
 30
1.0
  0
ATTRIB
  5
10C
  8
0
 10
135.521816078186
 20
188.8000030517578
 30
0.0
 40
2.449996948242188
  1
K0805
 41
0.9
  7
CADDY_VECTORFONT1P
 72
     2
 11
144.0000305175781
 21
188.8000030517578
 31
0.0
  2
$TAG160010
 70
     0
  0
ATTRIB
  5
10F
  8
0
 10
140.1787550186157
 20
185.3000030517578
 30
0.0
 40
2.449996948242188
  1
8.5
 41
0.9
  7
CADDY_VECTORFONT1P
 72
     2
 11
144.0000152587891
 21
185.3000030517578
 31
0.0
  2
$TAG160500
 70
     0
  0
ATTRIB
  5
111
  8
0
 10
149.0500030517578
 20
194.4000091552734
 30
0.0
 40
2.449996948242188
  1
21
 50
90.0
 41
0.9
  7
CADDY_VECTORFONT1P
  2
$TAG175000_00
 70
     0
  0
ATTRIB
  5
113
  8
0
 10
149.0500030517578
 20
182.8284479812622
 30
0.0
 40
2.449996948242188
  1
22
 50
90.0
 41
0.9
  7
CADDY_VECTORFONT1P
 72
     2
 11
149.0500030517578
 21
185.9000091552734
 31
0.0
  2
$TAG175000_01
 70
     0
  0
ATTRIB
  5
115
  8
0
 10
142.6527619369507
 20
195.8000030517578
 30
0.0
 40
2.449996948242188
  1
=
 41
0.9
  7
CADDY_VECTORFONT1P
 72
     2
 11
144.0000152587891
 21
195.8000030517578
 31
0.0
  2
$TAG140020
 70
     1
  0
ATTRIB
  5
117
  8
0
 10
142.6527466781616
 20
192.3000030517578
 30
0.0
 40
2.449996948242188
  1
+
 41
0.9
  7
CADDY_VECTORFONT1P
 72
     2
 11
144.0
 21
192.3000030517578
 31
0.0
  2
$TAG140050
 70
     1
  0
SEQEND
  5
10D
  8
0
  0
LINE
  5
119
  8
0
  6
CADDY_SOLID
 10
150.0
 20
155.0
 30
0.0
 11
150.0
 21
185.0
 31
0.0
  0
TEXT
  5
11A
  8
0
 10
149.5
 20
170.0
 30
0.0
 40
1.75
  1

 50
90.0
 41
0.9
  7
CADDY_VECTORFONT1P
 72
     1
 11
149.5
 21
170.0
 31
0.0
  0
LINE
  5
11B
  8
0
  6
CADDY_SOLID
 10
150.0
 20
195.0
 30
0.0
 11
150.0
 21
210.0
 31
0.0
  0
TEXT
  5
11C
  8
0
 10
149.5
 20
202.5
 30
0.0
 40
1.75
  1

 50
90.0
 41
0.9
  7
CADDY_VECTORFONT1P
 72
     1
 11
149.5
 21
202.5
 31
0.0
  0
CIRCLE
  5
11D
  8
0
 10
70.0
 20
250.0
 30
0.0
 40
0.8
  0
CIRCLE
  5
11E
  8
0
 10
70.0
 20
250.0
 30
0.0
 40
0.6
  0
CIRCLE
  5
11F
  8
0
 10
70.0
 20
250.0
 30
0.0
 40
0.4
  0
LINE
  5
120
  8
0
  6
CADDY_SOLID
 10
110.0
 20
155.0
 30
0.0
 11
110.0
 21
240.0
 31
0.0
  0
TEXT
  5
121
  8
0
 10
109.5
 20
197.5
 30
0.0
 40
1.75
  1

 50
90.0
 41
0.9
  7
CADDY_VECTORFONT1P
 72
     1
 11
109.5
 21
197.5
 31
0.0
  0
LINE
  5
122
  8
0
  6
CADDY_SOLID
 10
150.0
 20
220.0
 30
0.0
 11
150.0
 21
235.0
 31
0.0
  0
TEXT
  5
123
  8
0
 10
149.5
 20
225.0500875
 30
0.0
 40
1.75
  1
0805
 50
90.0
 41
0.9
  7
CADDY_VECTORFONT1P
 72
     1
 11
149.5
 21
227.5
 31
0.0
  0
INSERT
  5
127
  8
0
 66
     1
  2
BLK8
 10
0.0
 20
0.0
 30
1.0
  0
ATTRIB
  5
12B
  8
0
 10
361.4891774871826
 20
195.9000091552734
 30
0.0
 40
2.449996948242188
  1
0812
 41
0.9
  7
CADDY_VECTORFONT1P
 72
     2
 11
367.5
 21
195.9000091552734
 31
0.0
  2
$TAG160010
 70
     0
  0
ATTRIB
  5
12E
  8
0
 10
374.6500244140625
 20
193.8499908447266
 30
0.0
 40
2.449996948242188
  1
11.2
 41
0.9
  7
CADDY_VECTORFONT1P
  2
$TAG160500
 70
     0
  0
SEQEND
  5
12C
  8
0
  0
INSERT
  5
133
  8
0
 66
     1
  2
BLK9
 10
0.0
 20
0.0
 30
1.0
  0
ATTRIB
  5
137
  8
0
 10
366.4736932228088
 20
105.8999938964844
 30
0.0
 40
2.450004577636719
  1
0813
 41
0.9
  7
CADDY_VECTORFONT1P
 72
     2
 11
372.4999694824219
 21
105.8999938964844
 31
0.0
  2
$TAG160010
 70
     0
  0
ATTRIB
  5
13A
  8
0
 10
379.6500244140625
 20
103.8499908447266
 30
0.0
 40
2.450004577636719
  1
11.2
 41
0.9
  7
CADDY_VECTORFONT1P
  2
$TAG160500
 70
     0
  0
SEQEND
  5
138
  8
0
  0
LINE
  5
13C
  8
0
  6
CADDY_SOLID
 10
360.0
 20
105.0
 30
0.0
 11
375.0
 21
105.0
 31
0.0
  0
TEXT
  5
13D
  8
0
 10
367.5
 20
105.5
 30
0.0
 40
1.75
  1

 41
0.9
  7
CADDY_VECTORFONT1P
 72
     1
 11
367.5
 21
105.5
 31
0.0
  0
INSERT
  5
141
  8
0
 66
     1
  2
BLK10
 10
0.0
 20
0.0
 30
1.0
  0
ATTRIB
  5
145
  8
0
 10
346.4737425064087
 20
200.9000091552734
 30
0.0
 40
2.449996948242188
  1
0810
 41
0.9
  7
CADDY_VECTORFONT1P
 72
     2
 11
352.5
 21
200.9000091552734
 31
0.0
  2
$TAG160010
 70
     0
  0
ATTRIB
  5
148
  8
0
 10
359.6500244140625
 20
198.8499908447266
 30
0.0
 40
2.449996948242188
  1
9.1
 41
0.9
  7
CADDY_VECTORFONT1P
  2
$TAG160500
 70
     0
  0
SEQEND
  5
146
  8
0
  0
LINE
  5
14A
  8
0
  6
CADDY_SOLID
 10
340.0
 20
200.0
 30
0.0
 11
355.0
 21
200.0
 31
0.0
  0
TEXT
  5
14B
  8
0
 10
347.5
 20
200.5
 30
0.0
 40
1.75
  1

 41
0.9
  7
CADDY_VECTORFONT1P
 72
     1
 11
347.5
 21
200.5
 31
0.0
  0
INSERT
  5
14F
  8
0
 66
     1
  2
BLK11
 10
0.0
 20
0.0
 30
1.0
  0
ATTRIB
  5
153
  8
0
 10
346.9632346549988
 20
100.8999938964844
 30
0.0
 40
2.450004577636719
  1
0811
 41
0.9
  7
CADDY_VECTORFONT1P
 72
     2
 11
352.5
 21
100.8999938964844
 31
0.0
  2
$TAG160010
 70
     0
  0
ATTRIB
  5
156
  8
0
 10
359.6500244140625
 20
98.84999084472656
 30
0.0
 40
2.450004577636719
  1
9.0
 41
0.9
  7
CADDY_VECTORFONT1P
  2
$TAG160500
 70
     0
  0
SEQEND
  5
154
  8
0
  0
LINE
  5
158
  8
0
  6
CADDY_SOLID
 10
340.0
 20
100.0
 30
0.0
 11
355.0
 21
100.0
 31
0.0
  0
TEXT
  5
159
  8
0
 10
347.5
 20
100.5
 30
0.0
 40
1.75
  1

 41
0.9
  7
CADDY_VECTORFONT1P
 72
     1
 11
347.5
 21
100.5
 31
0.0
  0
LINE
  5
15A
  8
0
  6
CADDY_SOLID
 10
360.0
 20
195.0
 30
0.0
 11
370.0
 21
195.0
 31
0.0
  0
TEXT
  5
15B
  8
0
 10
365.0
 20
195.5
 30
0.0
 40
1.75
  1

 41
0.9
  7
CADDY_VECTORFONT1P
 72
     1
 11
365.0
 21
195.5
 31
0.0
  0
INSERT
  5
15F
  8
0
 66
     1
  2
BLK12
 10
0.0
 20
0.0
 30
1.0
  0
ATTRIB
  5
166
  8
0
 10
173.801289264679
 20
83.80000305175781
 30
0.0
 40
2.450004577636719
  1
K0804
 41
0.9
  7
CADDY_VECTORFONT1P
 72
     2
 11
182.5000305175781
 21
83.80000305175781
 31
0.0
  2
$TAG160010
 70
     0
  0
ATTRIB
  5
169
  8
0
 10
182.5000152587891
 20
76.80000305175781
 30
0.0
 40
2.450004577636719
  1

 41
0.9
  7
CADDY_VECTORFONT1P
 72
     2
 11
182.5000152587891
 21
76.80000305175781
 31
0.0
  2
$TAG160040
 70
     1
  0
ATTRIB
  5
16B
  8
0
 10
182.5000152587891
 20
80.30000305175781
 30
0.0
 40
2.450004577636719
  1

 41
0.9
  7
CADDY_VECTORFONT1P
 72
     2
 11
182.5000152587891
 21
80.30000305175781
 31
0.0
  2
$TAG160030
 70
     0
  0
ATTRIB
  5
16D
  8
0
 10
189.0500030517578
 20
88.39999389648438
 30
0.0
 40
2.450004577636719
  1
A1
 50
90.0
 41
0.9
  7
CADDY_VECTORFONT1P
  2
$TAG175000_00
 70
     0
  0
ATTRIB
  5
16F
  8
0
 10
189.0500030517578
 20
77.33892750167847
 30
0.0
 40
2.450004577636719
  1
A2
 50
90.0
 41
0.9
  7
CADDY_VECTORFONT1P
 72
     2
 11
189.0500030517578
 21
80.90000915527344
 31
0.0
  2
$TAG175000_01
 70
     0
  0
SEQEND
  5
167
  8
0
  0
INSERT
  5
174
  8
0
 66
     1
  2
BLK13
 10
0.0
 20
0.0
 30
1.0
  0
ATTRIB
  5
17B
  8
0
 10
194.0217896766663
 20
83.80000305175781
 30
0.0
 40
2.450004577636719
  1
K0805
 41
0.9
  7
CADDY_VECTORFONT1P
 72
     2
 11
202.5000305175781
 21
83.80000305175781
 31
0.0
  2
$TAG160010
 70
     0
  0
ATTRIB
  5
17E
  8
0
 10
202.5000152587891
 20
76.80000305175781
 30
0.0
 40
2.450004577636719
  1

 41
0.9
  7
CADDY_VECTORFONT1P
 72
     2
 11
202.5000152587891
 21
76.80000305175781
 31
0.0
  2
$TAG160040
 70
     1
  0
ATTRIB
  5
180
  8
0
 10
202.5000152587891
 20
80.30000305175781
 30
0.0
 40
2.450004577636719
  1

 41
0.9
  7
CADDY_VECTORFONT1P
 72
     2
 11
202.5000152587891
 21
80.30000305175781
 31
0.0
  2
$TAG160030
 70
     0
  0
ATTRIB
  5
182
  8
0
 10
209.0500030517578
 20
88.39999389648438
 30
0.0
 40
2.450004577636719
  1
A1
 50
90.0
 41
0.9
  7
CADDY_VECTORFONT1P
  2
$TAG175000_00
 70
     0
  0
ATTRIB
  5
184
  8
0
 10
209.0500030517578
 20
77.33892750167847
 30
0.0
 40
2.450004577636719
  1
A2
 50
90.0
 41
0.9
  7
CADDY_VECTORFONT1P
 72
     2
 11
209.0500030517578
 21
80.90000915527344
 31
0.0
  2
$TAG175000_01
 70
     0
  0
SEQEND
  5
17C
  8
0
  0
LINE
  5
186
  8
0
  6
CADDY_SOLID
 10
325.0
 20
95.0
 30
0.0
 11
340.0
 21
95.0
 31
0.0
  0
TEXT
  5
187
  8
0
 10
332.5
 20
95.5
 30
0.0
 40
1.75
  1

 41
0.9
  7
CADDY_VECTORFONT1P
 72
     1
 11
332.5
 21
95.5
 31
0.0
  0
LINE
  5
188
  8
0
  6
CADDY_SOLID
 10
325.0
 20
95.0
 30
0.0
 11
325.0
 21
140.0
 31
0.0
  0
INSERT
  5
18C
  8
0
 66
     1
  2
BLK14
 10
0.0
 20
0.0
 30
1.0
  0
ATTRIB
  5
190
  8
0
 10
330.9820078216553
 20
95.89999389648438
 30
0.0
 40
2.450004577636719
  1
0809
 41
0.9
  7
CADDY_VECTORFONT1P
 72
     2
 11
337.5
 21
95.89999389648438
 31
0.0
  2
$TAG160010
 70
     0
  0
ATTRIB
  5
193
  8
0
 10
344.6500244140625
 20
93.84999084472656
 30
0.0
 40
2.450004577636719
  1
11.4
 41
0.9
  7
CADDY_VECTORFONT1P
  2
$TAG160500
 70
     0
  0
SEQEND
  5
191
  8
0
  0
INSERT
  5
198
  8
0
 66
     1
  2
BLK15
 10
0.0
 20
0.0
 30
1.0
  0
ATTRIB
  5
19C
  8
0
 10
190.9974936172485
 20
240.9000091552734
 30
0.0
 40
2.449996948242188
  1
0802
 41
0.9
  7
CADDY_VECTORFONT1P
 72
     2
 11
197.5000305175781
 21
240.9000091552734
 31
0.0
  2
$TAG160010
 70
     0
  0
ATTRIB
  5
19F
  8
0
 10
204.6500091552734
 20
238.8499908447266
 30
0.0
 40
2.449996948242188
  1
11.3
 41
0.9
  7
CADDY_VECTORFONT1P
  2
$TAG160500
 70
     0
  0
SEQEND
  5
19D
  8
0
  0
INSERT
  5
1A4
  8
0
 66
     1
  2
BLK16
 10
0.0
 20
0.0
 30
1.0
  0
ATTRIB
  5
1A8
  8
0
 10
190.9820433776856
 20
235.9000091552734
 30
0.0
 40
2.449996948242188
  1
0805
 41
0.9
  7
CADDY_VECTORFONT1P
 72
     2
 11
197.5000152587891
 21
235.9000091552734
 31
0.0
  2
$TAG160010
 70
     0
  0
ATTRIB
  5
1AB
  8
0
 10
204.6500091552734
 20
233.8499908447266
 30
0.0
 40
2.449996948242188
  1
11.3
 41
0.9
  7
CADDY_VECTORFONT1P
  2
$TAG160500
 70
     0
  0
SEQEND
  5
1A9
  8
0
  0
LINE
  5
1AD
  8
0
  6
CADDY_SOLID
 10
150.0
 20
235.0
 30
0.0
 11
200.0
 21
235.0
 31
0.0
  0
TEXT
  5
1AE
  8
0
 10
172.5500875
 20
235.5
 30
0.0
 40
1.75
  1
0805
 41
0.9
  7
CADDY_VECTORFONT1P
 72
     1
 11
175.0
 21
235.5
 31
0.0
  0
LINE
  5
1AF
  8
0
  6
CADDY_SOLID
 10
110.0
 20
240.0
 30
0.0
 11
200.0
 21
240.0
 31
0.0
  0
TEXT
  5
1B0
  8
0
 10
145.0
 20
240.5
 30
0.0
 40
1.75
  1

 41
0.9
  7
CADDY_VECTORFONT1P
 72
     1
 11
145.0
 21
240.5
 31
0.0
  0
LINE
  5
1B1
  8
0
  6
CADDY_SOLID
 10
270.0
 20
140.0
 30
0.0
 11
270.0
 21
100.0
 31
0.0
  0
LINE
  5
1B2
  8
0
  6
CADDY_SOLID
 10
190.0
 20
100.0
 30
0.0
 11
210.0
 21
100.0
 31
0.0
  0
TEXT
  5
1B3
  8
0
 10
197.5500875
 20
100.5
 30
0.0
 40
1.75
  1
0806
 41
0.9
  7
CADDY_VECTORFONT1P
 72
     1
 11
200.0
 21
100.5
 31
0.0
  0
LINE
  5
1B4
  8
0
  6
CADDY_SOLID
 10
100.0
 20
155.0
 30
0.0
 11
100.0
 21
170.0
 31
0.0
  0
TEXT
  5
1B5
  8
0
 10
99.5
 20
162.5
 30
0.0
 40
1.75
  1

 50
90.0
 41
0.9
  7
CADDY_VECTORFONT1P
 72
     1
 11
99.5
 21
162.5
 31
0.0
  0
LINE
  5
1B6
  8
0
  6
CADDY_SOLID
 10
125.0
 20
155.0
 30
0.0
 11
125.0
 21
170.0
 31
0.0
  0
LINE
  5
1B7
  8
0
  6
CADDY_SOLID
 10
105.0
 20
170.0
 30
0.0
 11
115.0
 21
170.0
 31
0.0
  0
LINE
  5
1B8
  8
0
  6
CADDY_SOLID
 10
115.0
 20
170.0
 30
0.0
 11
125.0
 21
170.0
 31
0.0
  0
LINE
  5
1B9
  8
0
  6
CADDY_SOLID
 10
100.0
 20
170.0
 30
0.0
 11
105.0
 21
170.0
 31
0.0
  0
LINE
  5
1BA
  8
0
  6
CADDY_SOLID
 10
105.0
 20
170.0
 30
0.0
 11
115.0
 21
170.0
 31
0.0
  0
CIRCLE
  5
1BB
  8
0
 10
100.0
 20
170.0
 30
0.0
 40
0.8
  0
CIRCLE
  5
1BC
  8
0
 10
100.0
 20
170.0
 30
0.0
 40
0.6
  0
CIRCLE
  5
1BD
  8
0
 10
100.0
 20
170.0
 30
0.0
 40
0.4
  0
LINE
  5
1BE
  8
0
  6
CADDY_SOLID
 10
90.0
 20
155.0
 30
0.0
 11
90.0
 21
170.0
 31
0.0
  0
TEXT
  5
1BF
  8
0
 10
89.5
 20
162.5
 30
0.0
 40
1.75
  1

 50
90.0
 41
0.9
  7
CADDY_VECTORFONT1P
 72
     1
 11
89.5
 21
162.5
 31
0.0
  0
LINE
  5
1C0
  8
0
  6
CADDY_SOLID
 10
90.0
 20
170.0
 30
0.0
 11
100.0
 21
170.0
 31
0.0
  0
TEXT
  5
1C1
  8
0
 10
95.0
 20
170.5
 30
0.0
 40
1.75
  1

 41
0.9
  7
CADDY_VECTORFONT1P
 72
     1
 11
95.0
 21
170.5
 31
0.0
  0
CIRCLE
  5
1C2
  8
0
 10
90.0
 20
170.0
 30
0.0
 40
0.8
  0
CIRCLE
  5
1C3
  8
0
 10
90.0
 20
170.0
 30
0.0
 40
0.6
  0
CIRCLE
  5
1C4
  8
0
 10
90.0
 20
170.0
 30
0.0
 40
0.4
  0
CIRCLE
  5
1C5
  8
0
 10
190.0
 20
70.0
 30
0.0
 40
0.8
  0
CIRCLE
  5
1C6
  8
0
 10
190.0
 20
70.0
 30
0.0
 40
0.6
  0
CIRCLE
  5
1C7
  8
0
 10
190.0
 20
70.0
 30
0.0
 40
0.4
  0
CIRCLE
  5
1C8
  8
0
 10
210.0
 20
70.0
 30
0.0
 40
0.8
  0
CIRCLE
  5
1C9
  8
0
 10
210.0
 20
70.0
 30
0.0
 40
0.6
  0
CIRCLE
  5
1CA
  8
0
 10
210.0
 20
70.0
 30
0.0
 40
0.4
  0
LINE
  5
1CB
  8
0
  6
CADDY_SOLID
 10
190.0
 20
70.0
 30
0.0
 11
190.0
 21
80.0
 31
0.0
  0
TEXT
  5
1CC
  8
0
 10
189.5
 20
75.0
 30
0.0
 40
1.75
  1

 50
90.0
 41
0.9
  7
CADDY_VECTORFONT1P
 72
     1
 11
189.5
 21
75.0
 31
0.0
  0
LINE
  5
1CD
  8
0
  6
CADDY_SOLID
 10
210.0
 20
70.0
 30
0.0
 11
210.0
 21
80.0
 31
0.0
  0
TEXT
  5
1CE
  8
0
 10
209.5
 20
75.0
 30
0.0
 40
1.75
  1

 50
90.0
 41
0.9
  7
CADDY_VECTORFONT1P
 72
     1
 11
209.5
 21
75.0
 31
0.0
  0
LINE
  5
1CF
  8
0
  6
CADDY_SOLID
 10
260.0
 20
275.0
 30
0.0
 11
235.0
 21
275.0
 31
0.0
  0
TEXT
  5
1D0
  8
0
 10
247.5
 20
275.5
 30
0.0
 40
1.75
  1

 41
0.9
  7
CADDY_VECTORFONT1P
 72
     1
 11
247.5
 21
275.5
 31
0.0
  0
INSERT
  5
1D4
  8
0
 66
     1
  2
BLK17
 10
0.0
 20
0.0
 30
1.0
  0
ATTRIB
  5
1D8
  8
0
 10
225.2651590118408
 20
126.3000030517578
 30
0.0
 40
2.449996948242188
  1
X12
 41
0.9
  7
CADDY_VECTORFONT1P
 72
     2
 11
230.0500030517578
 21
126.3000030517578
 31
0.0
  2
$TAG160010
 70
     1
  0
ATTRIB
  5
1DB
  8
0
 10
234.0999908447266
 20
129.1999969482422
 30
0.0
 40
2.449996948242188
  1
2
 50
90.0
 41
0.9
  7
CADDY_VECTORFONT1P
  2
$TAG160400
 70
     0
  0
ATTRIB
  5
1DD
  8
0
 10
237.5999908447266
 20
129.1999969482422
 30
0.0
 40
2.449996948242188
  1
207
 50
90.0
 41
0.9
  7
CADDY_VECTORFONT1P
  2
$TAG160410
 70
     1
  0
ATTRIB
  5
1DF
  8
0
 10
230.0500030517578
 20
122.8000030517578
 30
0.0
 40
2.450004577636719
  1

 41
0.9
  7
CADDY_VECTORFONT1P
 72
     2
 11
230.0500030517578
 21
122.8000030517578
 31
0.0
  2
$TAG160030
 70
     1
  0
ATTRIB
  5
1E1
  8
0
 10
208.3417527503967
 20
117.8000030517578
 30
0.0
 40
2.450004577636719
  1
AB1RR235U2GR
 41
0.9
  7
CADDY_VECTORFONT1P
 72
     2
 11
230.0500183105469
 21
117.8000030517578
 31
0.0
  2
$TAG160040
 70
     1
  0
ATTRIB
  5
1E3
  8
0
 10
228.7027497299194
 20
133.3000030517578
 30
0.0
 40
2.449996948242188
  1
=
 41
0.9
  7
CADDY_VECTORFONT1P
 72
     2
 11
230.0500030517578
 21
133.3000030517578
 31
0.0
  2
$TAG140020
 70
     1
  0
ATTRIB
  5
1E5
  8
0
 10
228.7027344711304
 20
129.8000030517578
 30
0.0
 40
2.449996948242188
  1
+
 41
0.9
  7
CADDY_VECTORFONT1P
 72
     2
 11
230.0499877929688
 21
129.8000030517578
 31
0.0
  2
$TAG140050
 70
     1
  0
SEQEND
  5
1D9
  8
0
  0
LINE
  5
1E7
  8
0
  6
CADDY_SOLID
 10
210.0
 20
90.0
 30
0.0
 11
210.0
 21
100.0
 31
0.0
  0
TEXT
  5
1E8
  8
0
 10
209.5
 20
92.5500875
 30
0.0
 40
1.75
  1
0806
 50
90.0
 41
0.9
  7
CADDY_VECTORFONT1P
 72
     1
 11
209.5
 21
95.0
 31
0.0
  0
LINE
  5
1E9
  8
0
  6
CADDY_SOLID
 10
190.0
 20
125.0
 30
0.0
 11
190.0
 21
130.0
 31
0.0
  0
LINE
  5
1EA
  8
0
  6
CADDY_SOLID
 10
190.0
 20
90.0
 30
0.0
 11
190.0
 21
100.0
 31
0.0
  0
TEXT
  5
1EB
  8
0
 10
189.5
 20
92.5500875
 30
0.0
 40
1.75
  1
0806
 50
90.0
 41
0.9
  7
CADDY_VECTORFONT1P
 72
     1
 11
189.5
 21
95.0
 31
0.0
  0
CIRCLE
  5
1EC
  8
0
 10
190.0
 20
100.0
 30
0.0
 40
0.8
  0
CIRCLE
  5
1ED
  8
0
 10
190.0
 20
100.0
 30
0.0
 40
0.6
  0
CIRCLE
  5
1EE
  8
0
 10
190.0
 20
100.0
 30
0.0
 40
0.4
  0
LINE
  5
1EF
  8
0
  6
CADDY_SOLID
 10
70.0
 20
155.0
 30
0.0
 11
70.0
 21
170.0
 31
0.0
  0
LINE
  5
1F0
  8
0
  6
CADDY_SOLID
 10
70.0
 20
170.0
 30
0.0
 11
70.0
 21
250.0
 31
0.0
  0
CIRCLE
  5
1F1
  8
0
 10
70.0
 20
170.0
 30
0.0
 40
0.8
  0
CIRCLE
  5
1F2
  8
0
 10
70.0
 20
170.0
 30
0.0
 40
0.6
  0
CIRCLE
  5
1F3
  8
0
 10
70.0
 20
170.0
 30
0.0
 40
0.4
  0
LINE
  5
1F4
  8
0
  6
CADDY_SOLID
 10
70.0
 20
170.0
 30
0.0
 11
90.0
 21
170.0
 31
0.0
  0
TEXT
  5
1F5
  8
0
 10
75.0
 20
170.5
 30
0.0
 40
1.75
  1

 41
0.9
  7
CADDY_VECTORFONT1P
 72
     1
 11
75.0
 21
170.5
 31
0.0
  0
LINE
  5
1F6
  8
0
  6
CADDY_SOLID
 10
70.0
 20
140.0
 30
0.0
 11
70.0
 21
70.0
 31
0.0
  0
CIRCLE
  5
1F7
  8
0
 10
70.0
 20
70.0
 30
0.0
 40
0.8
  0
CIRCLE
  5
1F8
  8
0
 10
70.0
 20
70.0
 30
0.0
 40
0.6
  0
CIRCLE
  5
1F9
  8
0
 10
70.0
 20
70.0
 30
0.0
 40
0.4
  0
LINE
  5
1FA
  8
0
  6
CADDY_SOLID
 10
340.0
 20
155.0
 30
0.0
 11
340.0
 21
200.0
 31
0.0
  0
LINE
  5
1FB
  8
0
  6
CADDY_SOLID
 10
340.0
 20
100.0
 30
0.0
 11
340.0
 21
140.0
 31
0.0
  0
LINE
  5
1FC
  8
0
  6
CADDY_SOLID
 10
360.0
 20
105.0
 30
0.0
 11
360.0
 21
140.0
 31
0.0
  0
LINE
  5
1FD
  8
0
  6
CADDY_SOLID
 10
360.0
 20
155.0
 30
0.0
 11
360.0
 21
195.0
 31
0.0
  0
INSERT
  5
201
  8
0
 66
     1
  2
BLK18
 10
0.0
 20
0.0
 30
1.0
  0
ATTRIB
  5
202
  8
0
 10
266.8000183105469
 20
94.69999694824219
 30
0.0
 40
2.450004577636719
  1

 41
0.9
  7
CADDY_VECTORFONT1P
 72
     2
 11
266.8000183105469
 21
94.69999694824219
 31
0.0
  2
$TAG160030
 70
     0
  0
ATTRIB
  5
205
  8
0
 10
266.8000183105469
 20
91.19999694824219
 30
0.0
 40
2.450004577636719
  1

 41
0.9
  7
CADDY_VECTORFONT1P
 72
     2
 11
266.8000183105469
 21
91.19999694824219
 31
0.0
  2
$TAG160040
 70
     0
  0
ATTRIB
  5
20A
  8
0
 10
268.1929073692322
 20
90.15000915527344
 30
0.0
 40
2.450004577636719
  1
D1307-A2
 41
0.9
  7
CADDY_VECTORFONT1P
 72
     2
 11
281.7999877929688
 21
90.15000915527344
 31
0.0
  2
$TAG175100
 70
     0
  0
ATTRIB
  5
20C
  8
0
 10
264.3000183105469
 20
84.14999389648438
 30
0.0
 40
2.450004577636719
  1

 41
0.9
  7
CADDY_VECTORFONT1P
 72
     2
 11
264.3000183105469
 21
84.14999389648438
 31
0.0
  2
$TAG175110
 70
     0
  0
ATTRIB
  5
20E
  8
0
 10
264.3000183105469
 20
81.14999389648438
 30
0.0
 40
2.450004577636719
  1

 41
0.9
  7
CADDY_VECTORFONT1P
 72
     2
 11
264.3000183105469
 21
81.14999389648438
 31
0.0
  2
$TAG175120
 70
     0
  0
ATTRIB
  5
210
  8
0
 10
264.3000183105469
 20
77.64999389648438
 30
0.0
 40
2.450004577636719
  1

 41
0.9
  7
CADDY_VECTORFONT1P
 72
     2
 11
264.3000183105469
 21
77.64999389648438
 31
0.0
  2
$TAG160500
 70
     0
  0
ATTRIB
  5
225
  8
0
 10
269.0499877929688
 20
98.4000244140625
 30
0.0
 40
2.450004577636719
  1

 50
90.0
 41
0.9
  7
CADDY_VECTORFONT1P
  2
$TAG175000_00
 70
     0
  0
ATTRIB
  5
227
  8
0
 10
245.8645332504273
 20
89.52500915527344
 30
0.0
 40
2.450004577636719
  1
#00000031
 41
0.9
  7
CADDY_VECTORFONT1P
 72
     2
 11
260.9599914550781
 21
89.52500915527344
 31
0.0
  2
$TAG160010
 70
     1
  0
SEQEND
  5
203
  8
0
  0
INSERT
  5
22C
  8
0
 66
     1
  2
BLK21
 10
0.0
 20
0.0
 30
1.0
  0
ATTRIB
  5
239
  8
0
 10
229.0999908447266
 20
88.40000915527344
 30
0.0
 40
2.450004577636719
  1

 50
90.0
 41
0.9
  7
CADDY_VECTORFONT1P
  2
$TAG175000_00
 70
     0
  0
ATTRIB
  5
23C
  8
0
 10
229.0999908447266
 20
80.90000915527344
 30
0.0
 40
2.450004577636719
  1

 50
90.0
 41
0.9
  7
CADDY_VECTORFONT1P
 72
     2
 11
229.0999908447266
 21
80.90000915527344
 31
0.0
  2
$TAG175000_01
 70
     0
  0
ATTRIB
  5
23E
  8
0
 10
214.415275793457
 20
83.80000305175781
 30
0.0
 40
2.450004577636719
  1
Y0805
 41
0.9
  7
CADDY_VECTORFONT1P
 72
     2
 11
223.2000122070312
 21
83.80000305175781
 31
0.0
  2
$TAG160010
 70
     0
  0
ATTRIB
  5
240
  8
0
 10
223.1999969482422
 20
76.80000305175781
 30
0.0
 40
2.450004577636719
  1

 41
0.9
  7
CADDY_VECTORFONT1P
 72
     2
 11
223.1999969482422
 21
76.80000305175781
 31
0.0
  2
$TAG160040
 70
     0
  0
ATTRIB
  5
242
  8
0
 10
223.1999969482422
 20
80.30000305175781
 30
0.0
 40
2.450004577636719
  1

 41
0.9
  7
CADDY_VECTORFONT1P
 72
     2
 11
223.1999969482422
 21
80.30000305175781
 31
0.0
  2
$TAG160030
 70
     0
  0
SEQEND
  5
23A
  8
0
  0
INSERT
  5
247
  8
0
 66
     1
  2
BLK22
 10
0.0
 20
0.0
 30
1.0
  0
ATTRIB
  5
253
  8
0
 10
223.2477567085266
 20
106.3000030517578
 30
0.0
 40
2.450004577636719
  1
8X5.1
 41
0.9
  7
CADDY_VECTORFONT1P
 72
     2
 11
230.5000152587891
 21
106.3000030517578
 31
0.0
  2
$TAG160010
 70
     1
  0
ATTRIB
  5
256
  8
0
 10
230.0999908447266
 20
99.30000305175781
 30
0.0
 40
2.450004577636719
  1

 41
0.9
  7
CADDY_VECTORFONT1P
 72
     2
 11
230.0999908447266
 21
99.30000305175781
 31
0.0
  2
$TAG160040
 70
     1
  0
ATTRIB
  5
258
  8
0
 10
230.0999908447266
 20
102.8000030517578
 30
0.0
 40
2.450004577636719
  1

 41
0.9
  7
CADDY_VECTORFONT1P
 72
     2
 11
230.0999908447266
 21
102.8000030517578
 31
0.0
  2
$TAG160030
 70
     0
  0
ATTRIB
  5
25A
  8
0
 10
234.0500030517578
 20
110.3999938964844
 30
0.0
 40
2.450004577636719
  1

 50
90.0
 41
0.9
  7
CADDY_VECTORFONT1P
  2
$TAG175000_00
 70
     0
  0
ATTRIB
  5
25C
  8
0
 10
234.0500030517578
 20
101.9000091552734
 30
0.0
 40
2.450004577636719
  1

 50
90.0
 41
0.9
  7
CADDY_VECTORFONT1P
 72
     2
 11
234.0500030517578
 21
101.9000091552734
 31
0.0
  2
$TAG175000_01
 70
     0
  0
SEQEND
  5
254
  8
0
  0
ATTDEF
  5
25E
  8
0
 10
69.09999084472656
 20
155.9000091552734
 30
0.0
 40
2.449996948242188
  1
A1
 50
90.0
 41
0.9
  7
CADDY_VECTORFONT1P
  3
Tilslutningstekst 00
  2
$TAG175000_00
 70
     0
  0
ATTDEF
  5
25F
  8
0
 10
89.09999084472656
 20
155.9000091552734
 30
0.0
 40
2.449996948242188
  1
23
 50
90.0
 41
0.9
  7
CADDY_VECTORFONT1P
  3
Tilslutningstekst 03
  2
$TAG175000_03
 70
     0
  0
ATTDEF
  5
260
  8
0
 10
99.09999084472656
 20
155.9000091552734
 30
0.0
 40
2.449996948242188
  1
33
 50
90.0
 41
0.9
  7
CADDY_VECTORFONT1P
  3
Tilslutningstekst 04
  2
$TAG175000_04
 70
     0
  0
ATTDEF
  5
261
  8
0
 10
109.0999908447266
 20
155.9000091552734
 30
0.0
 40
2.449996948242188
  1
T31
 50
90.0
 41
0.9
  7
CADDY_VECTORFONT1P
  3
Tilslutningstekst 05
  2
$TAG175000_05
 70
     0
  0
ATTDEF
  5
262
  8
0
 10
149.0999908447266
 20
155.9000091552734
 30
0.0
 40
2.449996948242188
  1
T32
 50
90.0
 41
0.9
  7
CADDY_VECTORFONT1P
  3
Tilslutningstekst 07
  2
$TAG175000_07
 70
     0
  0
ATTDEF
  5
263
  8
0
 10
339.0999755859375
 20
155.9000244140625
 30
0.0
 40
2.449996948242188
  1
T11
 50
90.0
 41
0.9
  7
CADDY_VECTORFONT1P
  3
Tilslutningstekst 11
  2
$TAG175000_11
 70
     0
  0
ATTDEF
  5
264
  8
0
 10
339.0999755859375
 20
115.4834574417114
 30
0.0
 40
2.449996948242188
  1
T21
 50
90.0
 41
0.9
  7
CADDY_VECTORFONT1P
 72
     2
 11
339.0999755859375
 21
138.3999938964844
 31
0.0
  3
Tilslutningstekst 12
  2
$TAG175000_12
 70
     0
  0
ATTDEF
  5
265
  8
0
 10
359.0999755859375
 20
155.9000244140625
 30
0.0
 40
2.449996948242188
  1
T12
 50
90.0
 41
0.9
  7
CADDY_VECTORFONT1P
  3
Tilslutningstekst 13
  2
$TAG175000_13
 70
     0
  0
ATTDEF
  5
266
  8
0
 10
359.0999755859375
 20
115.2475227355957
 30
0.0
 40
2.449996948242188
  1
T22
 50
90.0
 41
0.9
  7
CADDY_VECTORFONT1P
 72
     2
 11
359.0999755859375
 21
138.3999938964844
 31
0.0
  3
Tilslutningstekst 14
  2
$TAG175000_14
 70
     0
  0
INSERT
  5
26A
  8
0
 66
     1
  2
BLK23
 10
0.0
 20
0.0
 30
1.0
  0
ATTRIB
  5
2AB
  8
0
 10
69.09999084472656
 20
134.8389233322144
 30
0.0
 40
2.449996948242188
  1
A2
 50
90.0
 41
0.9
  7
CADDY_VECTORFONT1P
 72
     2
 11
69.09999084472656
 21
138.3999938964844
 31
0.0
  2
$TAG175000_01
 70
     0
  0
ATTRIB
  5
2AE
  8
0
 10
189.0999908447266
 20
135.0925132751465
 30
0.0
 40
2.449996948242188
  1
24
 50
90.0
 41
0.9
  7
CADDY_VECTORFONT1P
 72
     2
 11
189.0999908447266
 21
138.4000091552734
 31
0.0
  2
$TAG175000_08
 70
     0
  0
ATTRIB
  5
2B0
  8
0
 10
269.0999755859375
 20
135.0925285339355
 30
0.0
 40
2.449996948242188
  1
34
 50
90.0
 41
0.9
  7
CADDY_VECTORFONT1P
 72
     2
 11
269.0999755859375
 21
138.4000244140625
 31
0.0
  2
$TAG175000_10
 70
     0
  0
SEQEND
  5
2AC
  8
0
  0
LINE
  5
2B4
  8
0
  6
CADDY_SOLID
 10
190.0
 20
100.0
 30
0.0
 11
190.0
 21
125.0
 31
0.0
  0
TEXT
  5
2B5
  8
0
 10
189.5
 20
112.5
 30
0.0
 40
1.75
  1

 50
90.0
 41
0.9
  7
CADDY_VECTORFONT1P
 72
     1
 11
189.5
 21
112.5
 31
0.0
  0
LINE
  5
2B6
  8
0
  6
CADDY_SOLID
 10
190.0
 20
125.0
 30
0.0
 11
190.0
 21
130.0
 31
0.0
  0
LINE
  5
2B7
  8
0
  6
CADDY_SOLID
 10
190.0
 20
130.0
 30
0.0
 11
230.0
 21
130.0
 31
0.0
  0
TEXT
  5
2B8
  8
0
 10
210.0
 20
130.5
 30
0.0
 40
1.75
  1

 41
0.9
  7
CADDY_VECTORFONT1P
 72
     1
 11
210.0
 21
130.5
 31
0.0
  0
LINE
  5
2B9
  8
0
  6
CADDY_SOLID
 10
230.0
 20
75.0
 30
0.0
 11
230.0
 21
80.0
 31
0.0
  0
LINE
  5
2BA
  8
0
  6
CADDY_SOLID
 10
230.0
 20
75.0
 30
0.0
 11
245.0
 21
75.0
 31
0.0
  0
LINE
  5
2BB
  8
0
  6
CADDY_SOLID
 10
245.0
 20
75.0
 30
0.0
 11
245.0
 21
95.0
 31
0.0
  0
LINE
  5
2BC
  8
0
  6
CADDY_SOLID
 10
245.0
 20
95.0
 30
0.0
 11
235.0
 21
95.0
 31
0.0
  0
LINE
  5
2BD
  8
0
  6
CADDY_SOLID
 10
235.0
 20
95.0
 30
0.0
 11
235.0
 21
100.0
 31
0.0
  0
LINE
  5
2BE
  8
0
  6
CADDY_SOLID
 10
235.0
 20
130.0
 30
0.0
 11
255.0
 21
130.0
 31
0.0
  0
TEXT
  5
2BF
  8
0
 10
245.0
 20
130.5
 30
0.0
 40
1.75
  1

 41
0.9
  7
CADDY_VECTORFONT1P
 72
     1
 11
245.0
 21
130.5
 31
0.0
  0
LINE
  5
2C0
  8
0
  6
CADDY_SOLID
 10
255.0
 20
130.0
 30
0.0
 11
255.0
 21
70.0
 31
0.0
  0
TEXT
  5
2C1
  8
0
 10
254.5
 20
100.0
 30
0.0
 40
1.75
  1

 50
90.0
 41
0.9
  7
CADDY_VECTORFONT1P
 72
     1
 11
254.5
 21
100.0
 31
0.0
  0
CIRCLE
  5
2C2
  8
0
 10
255.0
 20
70.0
 30
0.0
 40
0.8
  0
CIRCLE
  5
2C3
  8
0
 10
255.0
 20
70.0
 30
0.0
 40
0.6
  0
CIRCLE
  5
2C4
  8
0
 10
255.0
 20
70.0
 30
0.0
 40
0.4
  0
LINE
  5
2C5
  8
0
  6
CADDY_SOLID
 10
190.0
 20
130.0
 30
0.0
 11
190.0
 21
140.0
 31
0.0
  0
CIRCLE
  5
2C6
  8
0
 10
190.0
 20
130.0
 30
0.0
 40
0.8
  0
CIRCLE
  5
2C7
  8
0
 10
190.0
 20
130.0
 30
0.0
 40
0.6
  0
CIRCLE
  5
2C8
  8
0
 10
190.0
 20
130.0
 30
0.0
 40
0.4
  0
TEXT
  5
2C9
  8
0
 10
69.39999389648438
 20
220.6000061035156
 30
0.0
 40
2.099990844726562
  1
0708
 50
90.0
 41
0.9
  7
CADDY_VECTORFONT1P
  0
TEXT
  5
2CA
  8
0
 10
109.3999938964844
 20
220.6000061035156
 30
0.0
 40
2.099990844726562
  1
0802
 50
90.0
 41
0.9
  7
CADDY_VECTORFONT1P
  0
TEXT
  5
2CB
  8
0
 10
149.3999938964844
 20
170.6000061035156
 30
0.0
 40
2.099990844726562
  1
0803
 50
90.0
 41
0.9
  7
CADDY_VECTORFONT1P
  0
TEXT
  5
2CC
  8
0
 10
69.4000015258789
 20
100.5999984741211
 30
0.0
 40
2.099998474121094
  1
0707
 50
90.0
 41
0.9
  7
CADDY_VECTORFONT1P
  0
INSERT
  5
2D0
  8
0
 66
     1
  2
BLK30
 10
0.0
 20
0.0
 30
1.0
  0
ATTRIB
  5
2D4
  8
0
 10
221.4734975067139
 20
126.3000030517578
 30
0.0
 40
2.449996948242188
  1
X8
 41
0.9
  7
CADDY_VECTORFONT1P
 72
     2
 11
225.0500030517578
 21
126.3000030517578
 31
0.0
  2
$TAG160010
 70
     0
  0
ATTRIB
  5
2D7
  8
0
 10
229.0999908447266
 20
129.1999969482422
 30
0.0
 40
2.449996948242188
  1
1
 50
90.0
 41
0.9
  7
CADDY_VECTORFONT1P
  2
$TAG160400
 70
     0
  0
ATTRIB
  5
2D9
  8
0
 10
232.5999908447266
 20
129.1999969482422
 30
0.0
 40
2.449996948242188
  1
207
 50
90.0
 41
0.9
  7
CADDY_VECTORFONT1P
  2
$TAG160410
 70
     1
  0
ATTRIB
  5
2DB
  8
0
 10
225.0500030517578
 20
122.8000030517578
 30
0.0
 40
2.450004577636719
  1

 41
0.9
  7
CADDY_VECTORFONT1P
 72
     2
 11
225.0500030517578
 21
122.8000030517578
 31
0.0
  2
$TAG160030
 70
     1
  0
ATTRIB
  5
2DD
  8
0
 10
203.3417527503967
 20
117.8000030517578
 30
0.0
 40
2.450004577636719
  1
AB1RR235U2GR
 41
0.9
  7
CADDY_VECTORFONT1P
 72
     2
 11
225.0500183105469
 21
117.8000030517578
 31
0.0
  2
$TAG160040
 70
     1
  0
ATTRIB
  5
2DF
  8
0
 10
223.7027497299194
 20
133.3000030517578
 30
0.0
 40
2.449996948242188
  1
=
 41
0.9
  7
CADDY_VECTORFONT1P
 72
     2
 11
225.0500030517578
 21
133.3000030517578
 31
0.0
  2
$TAG140020
 70
     1
  0
ATTRIB
  5
2E1
  8
0
 10
223.7027344711304
 20
129.8000030517578
 30
0.0
 40
2.449996948242188
  1
+
 41
0.9
  7
CADDY_VECTORFONT1P
 72
     2
 11
225.0499877929688
 21
129.8000030517578
 31
0.0
  2
$TAG140050
 70
     1
  0
SEQEND
  5
2D5
  8
0
  0
INSERT
  5
2E6
  8
0
 66
     1
  2
BLK31
 10
0.0
 20
0.0
 30
1.0
  0
ATTRIB
  5
2F2
  8
0
 10
217.7736808227539
 20
106.3000030517578
 30
0.0
 40
2.450004577636719
  1
8X5.2
 41
0.9
  7
CADDY_VECTORFONT1P
 72
     2
 11
225.5000152587891
 21
106.3000030517578
 31
0.0
  2
$TAG160010
 70
     1
  0
ATTRIB
  5
2F5
  8
0
 10
225.0999908447266
 20
99.30000305175781
 30
0.0
 40
2.450004577636719
  1

 41
0.9
  7
CADDY_VECTORFONT1P
 72
     2
 11
225.0999908447266
 21
99.30000305175781
 31
0.0
  2
$TAG160040
 70
     1
  0
ATTRIB
  5
2F7
  8
0
 10
225.0999908447266
 20
102.8000030517578
 30
0.0
 40
2.450004577636719
  1

 41
0.9
  7
CADDY_VECTORFONT1P
 72
     2
 11
225.0999908447266
 21
102.8000030517578
 31
0.0
  2
$TAG160030
 70
     0
  0
ATTRIB
  5
2F9
  8
0
 10
229.0500030517578
 20
110.3999938964844
 30
0.0
 40
2.450004577636719
  1

 50
90.0
 41
0.9
  7
CADDY_VECTORFONT1P
  2
$TAG175000_00
 70
     0
  0
ATTRIB
  5
2FB
  8
0
 10
229.0500030517578
 20
101.9000091552734
 30
0.0
 40
2.450004577636719
  1

 50
90.0
 41
0.9
  7
CADDY_VECTORFONT1P
 72
     2
 11
229.0500030517578
 21
101.9000091552734
 31
0.0
  2
$TAG175000_01
 70
     0
  0
SEQEND
  5
2F3
  8
0
  0
LINE
  5
2FD
  8
0
  6
CADDY_SOLID
 10
230.0
 20
90.0
 30
0.0
 11
230.0
 21
100.0
 31
0.0
  0
TEXT
  5
2FE
  8
0
 10
269.3999938964844
 20
115.6000061035156
 30
0.0
 40
2.099998474121094
  1
0808
 50
90.0
 41
0.9
  7
CADDY_VECTORFONT1P
  0
TEXT
  5
2FF
  8
0
 10
339.3999938964844
 20
175.6000061035156
 30
0.0
 40
2.099990844726562
  1
0810
 50
90.0
 41
0.9
  7
CADDY_VECTORFONT1P
  0
TEXT
  5
300
  8
0
 10
324.3999938964844
 20
115.6000061035156
 30
0.0
 40
2.099998474121094
  1
0809
 50
90.0
 41
0.9
  7
CADDY_VECTORFONT1P
  0
TEXT
  5
301
  8
0
 10
339.3999938964844
 20
115.6000061035156
 30
0.0
 40
2.099998474121094
  1
0811
 50
90.0
 41
0.9
  7
CADDY_VECTORFONT1P
  0
TEXT
  5
302
  8
0
 10
359.3999938964844
 20
115.6000061035156
 30
0.0
 40
2.099998474121094
  1
0813
 50
90.0
 41
0.9
  7
CADDY_VECTORFONT1P
  0
TEXT
  5
303
  8
0
 10
359.3999938964844
 20
175.6000061035156
 30
0.0
 40
2.099990844726562
  1
0812
 50
90.0
 41
0.9
  7
CADDY_VECTORFONT1P
  0
INSERT
  5
307
  8
0
 66
     1
  2
BLK32
 10
0.0
 20
0.0
 30
1.0
  0
ATTRIB
  5
308
  8
0
 10
240.6999969482422
 20
120.6999969482422
 30
0.0
 40
2.450004577636719
  1
W0805
 41
0.9
  7
CADDY_VECTORFONT1P
  2
$TAG160010
 70
     0
  0
ATTRIB
  5
30B
  8
0
 10
240.6999969482422
 20
115.6999969482422
 30
0.0
 40
2.450004577636719
  1

 41
0.9
  7
CADDY_VECTORFONT1P
  2
$TAG160030
 70
     1
  0
ATTRIB
  5
30D
  8
0
 10
240.6999969482422
 20
110.6999969482422
 30
0.0
 40
2.450004577636719
  1

 41
0.9
  7
CADDY_VECTORFONT1P
  2
$TAG160200
 70
     1
  0
ATTRIB
  5
30F
  8
0
 10
240.6999969482422
 20
105.6999969482422
 30
0.0
 40
2.450004577636719
  1

 41
0.9
  7
CADDY_VECTORFONT1P
  2
$TAG160040
 70
     1
  0
ATTRIB
  5
311
  8
0
 10
240.6999969482422
 20
100.6999969482422
 30
0.0
 40
2.450004577636719
  1

 41
0.9
  7
CADDY_VECTORFONT1P
  2
$TAG160101
 70
     1
  0
ATTRIB
  5
313
  8
0
 10
230.6999969482422
 20
120.6999969482422
 30
0.0
 40
2.450004577636719
  1
1
 41
0.9
  7
CADDY_VECTORFONT1P
  2
$TAG160210
 70
     0
  0
ATTRIB
  5
315
  8
0
 10
230.6999969482422
 20
115.6999969482422
 30
0.0
 40
2.450004577636719
  1

 41
0.9
  7
CADDY_VECTORFONT1P
  2
$TAG160220
 70
     1
  0
ATTRIB
  5
317
  8
0
 10
230.6999969482422
 20
110.6999969482422
 30
0.0
 40
2.450004577636719
  1

 41
0.9
  7
CADDY_VECTORFONT1P
  2
$TAG160230
 70
     1
  0
SEQEND
  5
309
  8
0
  0
INSERT
  5
31D
  8
0
 66
     1
  2
BLK33
 10
0.0
 20
0.0
 30
1.0
  0
ATTRIB
  5
31E
  8
0
 10
240.6999969482422
 20
120.6999969482422
 30
0.0
 40
2.450004577636719
  1
W0805
 41
0.9
  7
CADDY_VECTORFONT1P
  2
$TAG160010
 70
     0
  0
ATTRIB
  5
321
  8
0
 10
240.6999969482422
 20
115.6999969482422
 30
0.0
 40
2.450004577636719
  1

 41
0.9
  7
CADDY_VECTORFONT1P
  2
$TAG160030
 70
     0
  0
ATTRIB
  5
323
  8
0
 10
240.6999969482422
 20
110.6999969482422
 30
0.0
 40
2.450004577636719
  1

 41
0.9
  7
CADDY_VECTORFONT1P
  2
$TAG160200
 70
     0
  0
ATTRIB
  5
325
  8
0
 10
240.6999969482422
 20
105.6999969482422
 30
0.0
 40
2.450004577636719
  1

 41
0.9
  7
CADDY_VECTORFONT1P
  2
$TAG160040
 70
     1
  0
ATTRIB
  5
327
  8
0
 10
240.6999969482422
 20
100.6999969482422
 30
0.0
 40
2.450004577636719
  1

 41
0.9
  7
CADDY_VECTORFONT1P
  2
$TAG160101
 70
     1
  0
ATTRIB
  5
329
  8
0
 10
235.6999969482422
 20
120.6999969482422
 30
0.0
 40
2.450004577636719
  1
2
 41
0.9
  7
CADDY_VECTORFONT1P
  2
$TAG160210
 70
     0
  0
ATTRIB
  5
32B
  8
0
 10
235.6999969482422
 20
115.6999969482422
 30
0.0
 40
2.450004577636719
  1

 41
0.9
  7
CADDY_VECTORFONT1P
  2
$TAG160220
 70
     1
  0
ATTRIB
  5
32D
  8
0
 10
235.6999969482422
 20
110.6999969482422
 30
0.0
 40
2.450004577636719
  1

 41
0.9
  7
CADDY_VECTORFONT1P
  2
$TAG160230
 70
     1
  0
SEQEND
  5
31F
  8
0
  0
LINE
  5
330
  8
0
  6
CADDY_SOLID
 10
225.0
 20
120.0
 30
0.0
 11
240.0
 21
120.0
 31
0.0
  0
LINE
  5
331
  8
0
  6
CADDY_SOLID
 10
230.0
 20
115.0
 30
0.0
 11
230.0
 21
119.5
 31
0.0
  0
LINE
  5
332
  8
0
  6
CADDY_SOLID
 10
230.0
 20
120.5
 30
0.0
 11
230.0
 21
125.0
 31
0.0
  0
LINE
  5
333
  8
0
  6
CADDY_SOLID
 10
235.0
 20
115.0
 30
0.0
 11
235.0
 21
119.5
 31
0.0
  0
LINE
  5
334
  8
0
  6
CADDY_SOLID
 10
235.0
 20
120.5
 30
0.0
 11
235.0
 21
125.0
 31
0.0
  0
INSERT
  5
338
  8
0
  2
BLK34
 10
0.0
 20
0.0
 30
1.0
  0
INSERT
  5
344
  8
0
  2
BLK35
 10
0.0
 20
0.0
 30
1.0
  0
ENDSEC
  0
EOF
