  0
SECTION
  2
HEADER
  9
$ACADVER
  1
AC1006
  9
$DWGCODEPAGE
  3
ansi_1252
  9
$INSBASE
 10
0.0
 20
0.0
 30
0.0
  9
$EXTMIN
 10
0.0
 20
0.0
  9
$EXTMAX
 10
420.0
 20
297.0
  9
$LIMMIN
 10
0.0
 20
0.0
  9
$LIMMAX
 10
420.0
 20
297.0
  9
$ORTHOMODE
 70
     0
  9
$REGENMODE
 70
     1
  9
$FILLMODE
 70
     1
  9
$QTEXTMODE
 70
     0
  9
$MIRRTEXT
 70
     1
  9
$DRAGMODE
 70
     2
  9
$LTSCALE
 40
1.0
  9
$OSMODE
 70
    37
  9
$ATTMODE
 70
     1
  9
$TEXTSIZE
 40
2.5
  9
$TRACEWID
 40
1.0
  9
$TEXTSTYLE
  7
STANDARD
  9
$CLAYER
  8
0
  9
$CELTYPE
  6
BYLAYER
  9
$CECOLOR
 62
   256
  9
$DIMSCALE
 40
1.0
  9
$DIMASZ
 40
2.5
  9
$DIMEXO
 40
0.625
  9
$DIMDLI
 40
3.75
  9
$DIMRND
 40
0.0
  9
$DIMDLE
 40
0.0
  9
$DIMEXE
 40
1.25
  9
$DIMTP
 40
0.0
  9
$DIMTM
 40
0.0
  9
$DIMTXT
 40
2.5
  9
$DIMCEN
 40
2.5
  9
$DIMTSZ
 40
0.0
  9
$DIMTOL
 70
     0
  9
$DIMLIM
 70
     0
  9
$DIMTIH
 70
     0
  9
$DIMTOH
 70
     0
  9
$DIMSE1
 70
     0
  9
$DIMSE2
 70
     0
  9
$DIMTAD
 70
     1
  9
$DIMZIN
 70
     8
  9
$DIMBLK
  1

  9
$DIMASO
 70
     1
  9
$DIMSHO
 70
     1
  9
$DIMPOST
  1

  9
$DIMAPOST
  1

  9
$DIMALT
 70
     0
  9
$DIMALTD
 70
     3
  9
$DIMALTF
 40
0.03937007874016
  9
$DIMLFAC
 40
1.0
  9
$DIMTOFL
 70
     1
  9
$DIMTVP
 40
0.0
  9
$DIMTIX
 70
     0
  9
$DIMSOXD
 70
     0
  9
$DIMSAH
 70
     0
  9
$DIMBLK1
  1

  9
$DIMBLK2
  1

  9
$LUNITS
 70
     2
  9
$LUPREC
 70
     4
  9
$SKETCHINC
 40
1.0
  9
$FILLETRAD
 40
10.0
  9
$AUNITS
 70
     0
  9
$AUPREC
 70
     0
  9
$MENU
  1
.
  9
$ELEVATION
 40
0.0
  9
$THICKNESS
 40
0.0
  9
$LIMCHECK
 70
     0
  9
$CHAMFERA
 40
10.0
  9
$CHAMFERB
 40
10.0
  9
$SKPOLY
 70
     0
  9
$TDCREATE
 40
2451930.666666667
  9
$TDUPDATE
 40
2460738.482560093
  9
$TDINDWG
 40
0.0000000116
  9
$TDUSRTIMER
 40
0.0000000116
  9
$USRTIMER
 70
     1
  9
$ANGBASE
 50
0.0
  9
$ANGDIR
 70
     0
  9
$PDMODE
 70
     0
  9
$PDSIZE
 40
0.0
  9
$PLINEWID
 40
0.0
  9
$COORDS
 70
     1
  9
$SPLFRAME
 70
     0
  9
$SPLINETYPE
 70
     6
  9
$SPLINESEGS
 70
     8
  9
$ATTDIA
 70
     0
  9
$ATTREQ
 70
     1
  9
$HANDLING
 70
     1
  9
$HANDSEED
  5
2A2
  9
$SURFTAB1
 70
     6
  9
$SURFTAB2
 70
     6
  9
$SURFTYPE
 70
     6
  9
$SURFU
 70
     6
  9
$SURFV
 70
     6
  9
$UCSNAME
  2

  9
$UCSORG
 10
0.0
 20
0.0
 30
0.0
  9
$UCSXDIR
 10
1.0
 20
0.0
 30
0.0
  9
$UCSYDIR
 10
0.0
 20
1.0
 30
0.0
  9
$USERI1
 70
     0
  9
$USERI2
 70
     0
  9
$USERI3
 70
     0
  9
$USERI4
 70
     0
  9
$USERI5
 70
     0
  9
$USERR1
 40
0.0
  9
$USERR2
 40
0.0
  9
$USERR3
 40
0.0
  9
$USERR4
 40
0.0
  9
$USERR5
 40
0.0
  9
$WORLDVIEW
 70
     1
  0
ENDSEC
  0
SECTION
  2
TABLES
  0
TABLE
  2
VPORT
 70
     1
  0
VPORT
  2
*ACTIVE
 70
     0
 10
0.0
 20
0.0
 11
1.0
 21
1.0
 12
210.0
 22
142.5
 13
0.0
 23
0.0
 14
10.0
 24
10.0
 15
10.0
 25
10.0
 16
0.0
 26
0.0
 36
1.0
 17
0.0
 27
0.0
 37
0.0
 40
270.3
 41
1.972972972850329
 42
50.0
 43
0.0
 44
0.0
 50
0.0
 51
0.0
 71
     0
 72
   100
 73
     1
 74
     3
 75
     0
 76
     0
 77
     0
 78
     0
  0
ENDTAB
  0
TABLE
  2
LTYPE
 70
     6
  0
LTYPE
  2
CONTINUOUS
 70
     0
  3
Solid line
 72
    65
 73
     0
 40
0.0
  0
LTYPE
  2
CADDY_SOLID
 70
     0
  3
____________
 72
    65
 73
     0
 40
0.0
  0
LTYPE
  2
CADDY_DOT
 70
     0
  3
. . . . . . 
 72
    65
 73
     2
 40
2.0
 49
0.5
 49
-1.5
  0
LTYPE
  2
CADDY_DASH
 70
     0
  3
_ _ _ _ _ _ 
 72
    65
 73
     2
 40
3.5
 49
2.0
 49
-1.5
  0
LTYPE
  2
CADDY_DASHDOT
 70
     0
  3
_ . _ . _ . 
 72
    65
 73
     4
 40
5.5
 49
0.5
 49
-1.5
 49
2.0
 49
-1.5
  0
LTYPE
  2
CADDY_DASHDOTDOT
 70
     0
  3
_ . . _ . . 
 72
    65
 73
     6
 40
7.5
 49
2.0
 49
-1.5
 49
0.5
 49
-1.5
 49
0.5
 49
-1.5
  0
ENDTAB
  0
TABLE
  2
LAYER
 70
     2
  0
LAYER
  2
0
 70
     0
 62
     7
  6
CONTINUOUS
  0
LAYER
  2
2
 70
     0
 62
     7
  6
CONTINUOUS
  0
ENDTAB
  0
TABLE
  2
STYLE
 70
    17
  0
STYLE
  2
STANDARD
 70
     0
 40
0.0
 41
1.0
 50
0.0
 71
     0
 42
2.5
  3
txt
  4

  0
STYLE
  2
CADDY_VECTORFONT1P
 70
     0
 40
0.0
 41
0.9
 50
0.0
 71
     0
 42
0.2
  3
isocp___.ttf
  4

  0
STYLE
  2
CADDY_VECTORFONT1N
 70
     0
 40
0.0
 41
1.100000023841858
 50
0.0
 71
     0
 42
0.2
  3

  4

  0
STYLE
  2
CADDY_VECTORFONT2P
 70
     0
 40
0.0
 41
1.35
 50
0.0
 71
     0
 42
0.2
  3

  4

  0
STYLE
  2
CADDY_VECTORFONT2N
 70
     0
 40
0.0
 41
1.549999952316284
 50
0.0
 71
     0
 42
0.2
  3

  4

  0
STYLE
  2
CADDY_VECTORFONT3P
 70
     0
 40
0.0
 41
1.3
 50
0.0
 71
     0
 42
0.2
  3

  4

  0
STYLE
  2
CADDY_VECTORFONT3N
 70
     0
 40
0.0
 41
1.5
 50
0.0
 71
     0
 42
0.2
  3

  4

  0
STYLE
  2
CADDY_VECTORFONT4P
 70
     0
 40
0.0
 41
1.1
 50
0.0
 71
     0
 42
0.2
  3

  4

  0
STYLE
  2
CADDY_VECTORFONT4N
 70
     0
 40
0.0
 41
1.299999952316284
 50
0.0
 71
     0
 42
0.2
  3

  4

  0
STYLE
  2
CADDY_VECTORFONT5P
 70
     0
 40
0.0
 41
1.0
 50
0.0
 71
     0
 42
0.2
  3

  4

  0
STYLE
  2
CADDY_VECTORFONT5N
 70
     0
 40
0.0
 41
1.200000047683716
 50
0.0
 71
     0
 42
0.2
  3

  4

  0
STYLE
  2
CADDY_VECTORFONT6P
 70
     0
 40
0.0
 41
0.9
 50
0.0
 71
     0
 42
0.2
  3

  4

  0
STYLE
  2
CADDY_VECTORFONT6N
 70
     0
 40
0.0
 41
1.100000023841858
 50
0.0
 71
     0
 42
0.2
  3

  4

  0
STYLE
  2
CADDY_VECTORFONT7P
 70
     0
 40
0.0
 41
1.3
 50
0.0
 71
     0
 42
0.2
  3

  4

  0
STYLE
  2
CADDY_VECTORFONT7N
 70
     0
 40
0.0
 41
1.5
 50
0.0
 71
     0
 42
0.2
  3

  4

  0
STYLE
  2
CADDY_VECTORFONT8P
 70
     0
 40
0.0
 41
1.5
 50
0.0
 71
     0
 42
0.2
  3

  4

  0
STYLE
  2
CADDY_VECTORFONT8N
 70
     0
 40
0.0
 41
1.700000047683716
 50
0.0
 71
     0
 42
0.2
  3

  4

  0
ENDTAB
  0
TABLE
  2
VIEW
 70
     0
  0
ENDTAB
  0
TABLE
  2
UCS
 70
     0
  0
ENDTAB
  0
ENDSEC
  0
SECTION
  2
BLOCKS
  0
BLOCK
  8
0
  2
BLK1
 70
     0
 10
0.0
 20
0.0
 30
0.0
  0
LINE
  5
44
  8
0
  6
CADDY_SOLID
 10
10.0
 20
10.0
 30
0.0
 11
10.0
 21
275.0
 31
0.0
  0
LINE
  5
45
  8
0
  6
CADDY_SOLID
 10
10.0
 20
275.0
 30
0.0
 11
410.0
 21
275.0
 31
0.0
  0
LINE
  5
46
  8
0
  6
CADDY_SOLID
 10
410.0
 20
275.0
 30
0.0
 11
410.0
 21
10.0
 31
0.0
  0
LINE
  5
47
  8
0
  6
CADDY_SOLID
 10
50.0
 20
270.0
 30
0.0
 11
50.0
 21
275.0
 31
0.0
  0
TEXT
  5
48
  8
0
 10
29.14336390228272
 20
271.2000122070312
 30
0.0
 40
2.449981689453125
  1
0
 41
0.9
  7
CADDY_VECTORFONT1P
 72
     1
 11
30.0
 21
271.2000122070312
 31
0.0
  0
TEXT
  5
49
  8
0
 10
30.0
 20
265.2000122070312
 30
0.0
 40
2.449981689453125
  1

 41
0.9
  7
CADDY_VECTORFONT1P
 72
     1
 11
30.0
 21
265.2000122070312
 31
0.0
  0
LINE
  5
4A
  8
0
  6
CADDY_SOLID
 10
90.0
 20
270.0
 30
0.0
 11
90.0
 21
275.0
 31
0.0
  0
LINE
  5
4B
  8
0
  6
CADDY_SOLID
 10
130.0
 20
270.0
 30
0.0
 11
130.0
 21
275.0
 31
0.0
  0
LINE
  5
4C
  8
0
  6
CADDY_SOLID
 10
170.0
 20
270.0
 30
0.0
 11
170.0
 21
275.0
 31
0.0
  0
LINE
  5
4D
  8
0
  6
CADDY_SOLID
 10
210.0
 20
270.0
 30
0.0
 11
210.0
 21
275.0
 31
0.0
  0
LINE
  5
4E
  8
0
  6
CADDY_SOLID
 10
250.0
 20
270.0
 30
0.0
 11
250.0
 21
275.0
 31
0.0
  0
LINE
  5
4F
  8
0
  6
CADDY_SOLID
 10
290.0
 20
270.0
 30
0.0
 11
290.0
 21
275.0
 31
0.0
  0
LINE
  5
50
  8
0
  6
CADDY_SOLID
 10
330.0
 20
270.0
 30
0.0
 11
330.0
 21
275.0
 31
0.0
  0
LINE
  5
51
  8
0
  6
CADDY_SOLID
 10
370.0
 20
270.0
 30
0.0
 11
370.0
 21
275.0
 31
0.0
  0
TEXT
  5
52
  8
0
 10
69.38369947662353
 20
271.2000122070312
 30
0.0
 40
2.449981689453125
  1
1
 41
0.9
  7
CADDY_VECTORFONT1P
 72
     1
 11
69.99999237060547
 21
271.2000122070312
 31
0.0
  0
TEXT
  5
53
  8
0
 10
109.1610037704468
 20
271.2000122070312
 30
0.0
 40
2.449981689453125
  1
2
 41
0.9
  7
CADDY_VECTORFONT1P
 72
     1
 11
110.0
 21
271.2000122070312
 31
0.0
  0
TEXT
  5
54
  8
0
 10
149.1312364929199
 20
271.2000122070312
 30
0.0
 40
2.449981689453125
  1
3
 41
0.9
  7
CADDY_VECTORFONT1P
 72
     1
 11
150.0
 21
271.2000122070312
 31
0.0
  0
TEXT
  5
55
  8
0
 10
189.0364222015381
 20
271.2000122070312
 30
0.0
 40
2.449981689453125
  1
4
 41
0.9
  7
CADDY_VECTORFONT1P
 72
     1
 11
190.0
 21
271.2000122070312
 31
0.0
  0
TEXT
  5
56
  8
0
 10
229.1433639022827
 20
271.2000122070312
 30
0.0
 40
2.449981689453125
  1
5
 41
0.9
  7
CADDY_VECTORFONT1P
 72
     1
 11
230.0
 21
271.2000122070312
 31
0.0
  0
TEXT
  5
57
  8
0
 10
269.1433639022827
 20
271.2000122070312
 30
0.0
 40
2.449981689453125
  1
6
 41
0.9
  7
CADDY_VECTORFONT1P
 72
     1
 11
270.0
 21
271.2000122070312
 31
0.0
  0
TEXT
  5
58
  8
0
 10
309.140056427002
 20
271.2000122070312
 30
0.0
 40
2.449981689453125
  1
7
 41
0.9
  7
CADDY_VECTORFONT1P
 72
     1
 11
310.0
 21
271.2000122070312
 31
0.0
  0
TEXT
  5
59
  8
0
 10
349.1433639022827
 20
271.2000122070312
 30
0.0
 40
2.449981689453125
  1
8
 41
0.9
  7
CADDY_VECTORFONT1P
 72
     1
 11
350.0
 21
271.2000122070312
 31
0.0
  0
TEXT
  5
5A
  8
0
 10
389.1433639022827
 20
271.2000122070312
 30
0.0
 40
2.449981689453125
  1
9
 41
0.9
  7
CADDY_VECTORFONT1P
 72
     1
 11
390.0
 21
271.2000122070312
 31
0.0
  0
TEXT
  5
5B
  8
0
 10
70.0
 20
265.2000122070312
 30
0.0
 40
2.449981689453125
  1

 41
0.9
  7
CADDY_VECTORFONT1P
 72
     1
 11
70.0
 21
265.2000122070312
 31
0.0
  0
TEXT
  5
5C
  8
0
 10
110.0
 20
265.2000122070312
 30
0.0
 40
2.449981689453125
  1

 41
0.9
  7
CADDY_VECTORFONT1P
 72
     1
 11
110.0
 21
265.2000122070312
 31
0.0
  0
TEXT
  5
5D
  8
0
 10
150.0
 20
265.2000122070312
 30
0.0
 40
2.449981689453125
  1

 41
0.9
  7
CADDY_VECTORFONT1P
 72
     1
 11
150.0
 21
265.2000122070312
 31
0.0
  0
TEXT
  5
5E
  8
0
 10
190.0
 20
265.2000122070312
 30
0.0
 40
2.449981689453125
  1

 41
0.9
  7
CADDY_VECTORFONT1P
 72
     1
 11
190.0
 21
265.2000122070312
 31
0.0
  0
TEXT
  5
5F
  8
0
 10
230.0
 20
265.2000122070312
 30
0.0
 40
2.449981689453125
  1

 41
0.9
  7
CADDY_VECTORFONT1P
 72
     1
 11
230.0
 21
265.2000122070312
 31
0.0
  0
TEXT
  5
60
  8
0
 10
270.0000305175781
 20
265.2000122070312
 30
0.0
 40
2.449981689453125
  1

 41
0.9
  7
CADDY_VECTORFONT1P
 72
     1
 11
270.0000305175781
 21
265.2000122070312
 31
0.0
  0
TEXT
  5
61
  8
0
 10
310.0000305175781
 20
265.2000122070312
 30
0.0
 40
2.449981689453125
  1

 41
0.9
  7
CADDY_VECTORFONT1P
 72
     1
 11
310.0000305175781
 21
265.2000122070312
 31
0.0
  0
TEXT
  5
62
  8
0
 10
350.0000305175781
 20
265.2000122070312
 30
0.0
 40
2.449981689453125
  1

 41
0.9
  7
CADDY_VECTORFONT1P
 72
     1
 11
350.0000305175781
 21
265.2000122070312
 31
0.0
  0
TEXT
  5
63
  8
0
 10
390.0000305175781
 20
265.2000122070312
 30
0.0
 40
2.449981689453125
  1

 41
0.9
  7
CADDY_VECTORFONT1P
 72
     1
 11
390.0000305175781
 21
265.2000122070312
 31
0.0
  0
LINE
  5
64
  8
0
  6
CADDY_SOLID
 10
15.0
 20
270.0
 30
0.0
 11
15.0
 21
30.0
 31
0.0
  0
LINE
  5
65
  8
0
  6
CADDY_SOLID
 10
405.0
 20
270.0
 30
0.0
 11
405.0
 21
30.0
 31
0.0
  0
LINE
  5
66
  8
0
  6
CADDY_SOLID
 10
15.0
 20
230.0
 30
0.0
 11
10.0
 21
230.0
 31
0.0
  0
LINE
  5
67
  8
0
  6
CADDY_SOLID
 10
15.0
 20
190.0
 30
0.0
 11
10.0
 21
190.0
 31
0.0
  0
LINE
  5
68
  8
0
  6
CADDY_SOLID
 10
15.0
 20
150.0
 30
0.0
 11
10.0
 21
150.0
 31
0.0
  0
LINE
  5
69
  8
0
  6
CADDY_SOLID
 10
10.0
 20
110.0
 30
0.0
 11
15.0
 21
110.0
 31
0.0
  0
LINE
  5
6A
  8
0
  6
CADDY_SOLID
 10
10.0
 20
70.0
 30
0.0
 11
15.0
 21
70.0
 31
0.0
  0
TEXT
  5
6B
  8
0
 10
11.39750137329102
 20
248.6999969482422
 30
0.0
 40
2.449996948242188
  1
A
 41
0.9
  7
CADDY_VECTORFONT1P
 72
     1
 11
12.5
 21
248.6999969482422
 31
0.0
  0
TEXT
  5
6C
  8
0
 10
11.52098121948242
 20
208.6999969482422
 30
0.0
 40
2.449996948242188
  1
B
 41
0.9
  7
CADDY_VECTORFONT1P
 72
     1
 11
12.5
 21
208.6999969482422
 31
0.0
  0
TEXT
  5
6D
  8
0
 10
11.65548605194092
 20
168.6999969482422
 30
0.0
 40
2.449996948242188
  1
C
 41
0.9
  7
CADDY_VECTORFONT1P
 72
     1
 11
12.5
 21
168.6999969482422
 31
0.0
  0
TEXT
  5
6E
  8
0
 10
11.52098121948242
 20
128.6999969482422
 30
0.0
 40
2.449996948242188
  1
D
 41
0.9
  7
CADDY_VECTORFONT1P
 72
     1
 11
12.5
 21
128.6999969482422
 31
0.0
  0
TEXT
  5
6F
  8
0
 10
11.65548342208862
 20
88.69999694824219
 30
0.0
 40
2.450004577636719
  1
E
 41
0.9
  7
CADDY_VECTORFONT1P
 72
     1
 11
12.5
 21
88.69999694824219
 31
0.0
  0
TEXT
  5
70
  8
0
 10
11.65548473701477
 20
48.70000076293945
 30
0.0
 40
2.450000762939453
  1
F
 41
0.9
  7
CADDY_VECTORFONT1P
 72
     1
 11
12.5
 21
48.70000076293945
 31
0.0
  0
LINE
  5
71
  8
0
  6
CADDY_SOLID
 10
410.0
 20
230.0
 30
0.0
 11
405.0
 21
230.0
 31
0.0
  0
LINE
  5
72
  8
0
  6
CADDY_SOLID
 10
410.0
 20
190.0
 30
0.0
 11
405.0
 21
190.0
 31
0.0
  0
LINE
  5
73
  8
0
  6
CADDY_SOLID
 10
410.0
 20
150.0
 30
0.0
 11
405.0
 21
150.0
 31
0.0
  0
LINE
  5
74
  8
0
  6
CADDY_SOLID
 10
405.0
 20
110.0
 30
0.0
 11
410.0
 21
110.0
 31
0.0
  0
LINE
  5
75
  8
0
  6
CADDY_SOLID
 10
405.0
 20
70.0
 30
0.0
 11
410.0
 21
70.0
 31
0.0
  0
TEXT
  5
76
  8
0
 10
406.397501373291
 20
248.6999969482422
 30
0.0
 40
2.449996948242188
  1
A
 41
0.9
  7
CADDY_VECTORFONT1P
 72
     1
 11
407.5
 21
248.6999969482422
 31
0.0
  0
TEXT
  5
77
  8
0
 10
406.5209812194824
 20
208.6999969482422
 30
0.0
 40
2.449996948242188
  1
B
 41
0.9
  7
CADDY_VECTORFONT1P
 72
     1
 11
407.5
 21
208.6999969482422
 31
0.0
  0
TEXT
  5
78
  8
0
 10
406.6554860519409
 20
168.6999969482422
 30
0.0
 40
2.449996948242188
  1
C
 41
0.9
  7
CADDY_VECTORFONT1P
 72
     1
 11
407.5
 21
168.6999969482422
 31
0.0
  0
TEXT
  5
79
  8
0
 10
406.5209812194824
 20
128.6999969482422
 30
0.0
 40
2.449996948242188
  1
D
 41
0.9
  7
CADDY_VECTORFONT1P
 72
     1
 11
407.5
 21
128.6999969482422
 31
0.0
  0
TEXT
  5
7A
  8
0
 10
406.6554834220887
 20
88.69999694824219
 30
0.0
 40
2.450004577636719
  1
E
 41
0.9
  7
CADDY_VECTORFONT1P
 72
     1
 11
407.5
 21
88.69999694824219
 31
0.0
  0
TEXT
  5
7B
  8
0
 10
406.6554847370148
 20
48.70000076293945
 30
0.0
 40
2.450000762939453
  1
F
 41
0.9
  7
CADDY_VECTORFONT1P
 72
     1
 11
407.5
 21
48.70000076293945
 31
0.0
  0
LINE
  5
7C
  8
0
  6
CADDY_SOLID
 10
15.0
 20
270.0
 30
0.0
 11
405.0
 21
270.0
 31
0.0
  0
LINE
  5
7D
  8
0
  6
CADDY_SOLID
 10
410.0
 20
10.0
 30
0.0
 11
10.0
 21
10.0
 31
0.0
  0
LINE
  5
7E
  8
0
  6
CADDY_SOLID
 10
10.0
 20
30.0
 30
0.0
 11
410.0
 21
30.0
 31
0.0
  0
LINE
  5
7F
  8
0
  6
CADDY_SOLID
 10
260.0
 20
20.0
 30
0.0
 11
410.0
 21
20.0
 31
0.0
  0
LINE
  5
80
  8
0
  6
CADDY_SOLID
 10
10.0
 20
30.0
 30
0.0
 11
15.0
 21
30.0
 31
0.0
  0
LINE
  5
81
  8
0
  6
CADDY_SOLID
 10
405.0
 20
30.0
 30
0.0
 11
410.0
 21
30.0
 31
0.0
  0
LINE
  5
82
  8
0
  6
CADDY_SOLID
 10
65.0
 20
30.0
 30
0.0
 11
65.0
 21
10.0
 31
0.0
  0
TEXT
  5
83
  8
0
 10
69.19999694824219
 20
14.19999980926514
 30
0.0
 40
2.449999809265137
  1
Kassepakker
 41
0.9
  7
CADDY_VECTORFONT1P
  0
TEXT
  5
84
  8
0
 10
69.19999694824219
 20
23.20000076293945
 30
0.0
 40
2.44999885559082
  1
MPN - GUIDED BY VISION
 41
0.9
  7
CADDY_VECTORFONT1P
  0
TEXT
  5
85
  8
0
 10
69.19999694824219
 20
18.70000076293945
 30
0.0
 40
2.44999885559082
  1

 41
0.9
  7
CADDY_VECTORFONT1P
  0
LINE
  5
86
  8
0
  6
CADDY_SOLID
 10
160.0
 20
30.0
 30
0.0
 11
160.0
 21
10.0
 31
0.0
  0
TEXT
  5
87
  8
0
 10
164.1999969482422
 20
23.20000076293945
 30
0.0
 40
2.44999885559082
  1
Signal udveksling
 41
0.9
  7
CADDY_VECTORFONT1P
  0
TEXT
  5
88
  8
0
 10
164.1999969482422
 20
18.70000076293945
 30
0.0
 40
2.44999885559082
  1

 41
0.9
  7
CADDY_VECTORFONT1P
  0
TEXT
  5
89
  8
0
 10
164.1999969482422
 20
14.19999980926514
 30
0.0
 40
2.449999809265137
  1

 41
0.9
  7
CADDY_VECTORFONT1P
  0
LINE
  5
8A
  8
0
  6
CADDY_SOLID
 10
260.0
 20
30.0
 30
0.0
 11
260.0
 21
10.0
 31
0.0
  0
TEXT
  5
8B
  8
0
 10
261.2000122070312
 20
26.20000076293945
 30
0.0
 40
2.44999885559082
  1
Projekt:
 41
0.9
  7
CADDY_VECTORFONT1P
  0
TEXT
  5
8C
  8
0
 10
261.2000122070312
 20
16.20000076293945
 30
0.0
 40
2.44999885559082
  1
Dato:
 41
0.9
  7
CADDY_VECTORFONT1P
  0
LINE
  5
8D
  8
0
  6
CADDY_SOLID
 10
290.0
 20
30.0
 30
0.0
 11
290.0
 21
10.0
 31
0.0
  0
TEXT
  5
8E
  8
0
 10
291.2000122070312
 20
16.20000076293945
 30
0.0
 40
2.44999885559082
  1
Funkt.:
 41
0.9
  7
CADDY_VECTORFONT1P
  0
TEXT
  5
8F
  8
0
 10
291.2000122070312
 20
26.20000076293945
 30
0.0
 40
2.44999885559082
  1
Tegn. nr.:
 41
0.9
  7
CADDY_VECTORFONT1P
  0
TEXT
  5
90
  8
0
 10
276.1062470369339
 20
21.70000076293945
 30
0.0
 40
2.44999885559082
  1
CP6000
 41
0.9
  7
CADDY_VECTORFONT1P
 72
     2
 11
286.2999572753906
 21
21.70000076293945
 31
0.0
  0
TEXT
  5
91
  8
0
 10
269.9807535458565
 20
11.69999980926514
 30
0.0
 40
2.449999809265137
  1
15-07-2005
 41
0.9
  7
CADDY_VECTORFONT1P
 72
     2
 11
286.2999572753906
 21
11.69999980926514
 31
0.0
  0
LINE
  5
92
  8
0
  6
CADDY_SOLID
 10
320.0
 20
20.0
 30
0.0
 11
320.0
 21
10.0
 31
0.0
  0
TEXT
  5
93
  8
0
 10
321.2000122070312
 20
16.20000076293945
 30
0.0
 40
2.44999885559082
  1
Plac.:
 41
0.9
  7
CADDY_VECTORFONT1P
  0
TEXT
  5
94
  8
0
 10
314.9527328978539
 20
11.69999980926514
 30
0.0
 40
2.449999809265137
  1
=
 41
0.9
  7
CADDY_VECTORFONT1P
 72
     2
 11
316.2999877929688
 21
11.69999980926514
 31
0.0
  0
LINE
  5
95
  8
0
  6
CADDY_SOLID
 10
382.5
 20
20.0
 30
0.0
 11
382.5
 21
30.0
 31
0.0
  0
LINE
  5
96
  8
0
  6
CADDY_SOLID
 10
382.5
 20
10.0
 30
0.0
 11
382.5
 21
20.0
 31
0.0
  0
TEXT
  5
97
  8
0
 10
349.952763415432
 20
11.69999980926514
 30
0.0
 40
2.449999809265137
  1
+
 41
0.9
  7
CADDY_VECTORFONT1P
 72
     2
 11
351.3000183105469
 21
11.69999980926514
 31
0.0
  0
LINE
  5
98
  8
0
  6
CADDY_SOLID
 10
355.0
 20
10.0
 30
0.0
 11
355.0
 21
20.0
 31
0.0
  0
LINE
  5
99
  8
0
  6
CADDY_SOLID
 10
355.0
 20
20.0
 30
0.0
 11
355.0
 21
30.0
 31
0.0
  0
TEXT
  5
9A
  8
0
 10
356.2000122070312
 20
26.20000076293945
 30
0.0
 40
2.44999885559082
  1
Rev.:
 41
0.9
  7
CADDY_VECTORFONT1P
  0
LINE
  5
9B
  8
0
  6
CADDY_SOLID
 10
337.5
 20
20.0
 30
0.0
 11
337.5
 21
30.0
 31
0.0
  0
TEXT
  5
9C
  8
0
 10
333.5
 20
21.75
 30
0.0
 40
3.5
  1

 41
0.9
  7
CADDY_VECTORFONT1P
 72
     2
 11
333.5
 21
21.75
 31
0.0
  0
TEXT
  5
9D
  8
0
 10
338.7000122070312
 20
26.20000076293945
 30
0.0
 40
2.44999885559082
  1
Init.:
 41
0.9
  7
CADDY_VECTORFONT1P
  0
TEXT
  5
9E
  8
0
 10
351.3000183105469
 20
21.70000076293945
 30
0.0
 40
2.44999885559082
  1

 41
0.9
  7
CADDY_VECTORFONT1P
 72
     2
 11
351.3000183105469
 21
21.70000076293945
 31
0.0
  0
TEXT
  5
9F
  8
0
 10
378.8000183105469
 20
21.70000076293945
 30
0.0
 40
2.44999885559082
  1

 41
0.9
  7
CADDY_VECTORFONT1P
 72
     2
 11
378.8000183105469
 21
21.70000076293945
 31
0.0
  0
TEXT
  5
A0
  8
0
 10
398.84
 20
21.75
 30
0.0
 40
3.5
  1
38
 41
0.9
  7
CADDY_VECTORFONT1P
 72
     2
 11
403.25
 21
21.75
 31
0.0
  0
TEXT
  5
A1
  8
0
 10
405.25
 20
21.75
 30
0.0
 40
3.5
  1

 41
0.9
  7
CADDY_VECTORFONT1P
  0
TEXT
  5
A2
  8
0
 10
383.7000122070312
 20
26.20000076293945
 30
0.0
 40
2.44999885559082
  1
Blad:
 41
0.9
  7
CADDY_VECTORFONT1P
  0
TEXT
  5
A3
  8
0
 10
406.3000183105469
 20
11.69999980926514
 30
0.0
 40
2.449999809265137
  1

 41
0.9
  7
CADDY_VECTORFONT1P
 72
     2
 11
406.3000183105469
 21
11.69999980926514
 31
0.0
  0
TEXT
  5
A4
  8
0
 10
383.7000122070312
 20
16.20000076293945
 30
0.0
 40
2.44999885559082
  1
Næste blad:
 41
0.9
  7
CADDY_VECTORFONT1P
  0
TEXT
  5
A5
  8
0
 10
356.2000122070312
 20
16.20000076293945
 30
0.0
 40
2.44999885559082
  1
Antal blade:
 41
0.9
  7
CADDY_VECTORFONT1P
  0
TEXT
  5
A6
  8
0
 10
375.7284535496712
 20
11.69999980926514
 30
0.0
 40
2.449999809265137
  1
32
 41
0.9
  7
CADDY_VECTORFONT1P
 72
     2
 11
378.8000183105469
 21
11.69999980926514
 31
0.0
  0
ENDBLK
  8
0
  0
BLOCK
  8
0
  2
BLK2
 70
     2
 10
0.0
 20
0.0
 30
0.0
  0
LINE
  5
B3
  8
0
  6
CADDY_SOLID
 10
27.5
 20
260.0
 30
0.0
 11
25.25
 21
261.25
 31
0.0
  0
LINE
  5
B4
  8
0
  6
CADDY_SOLID
 10
27.5
 20
260.0
 30
0.0
 11
25.25
 21
258.75
 31
0.0
  0
ATTDEF
  5
B7
  8
0
 10
29.26500701904297
 20
260.9000244140625
 30
0.0
 40
2.449981689453125
  1
0708
 41
0.9
  7
CADDY_VECTORFONT1P
  3
Produkt (-)
  2
$TAG160010
 70
     0
  0
ATTDEF
  5
B9
  8
0
 10
5.486902221679685
 20
258.9500122070312
 30
0.0
 40
2.449981689453125
  1
37.9
 41
0.9
  7
CADDY_VECTORFONT1P
 72
     2
 11
22.78499794006348
 21
258.9500122070312
 31
0.0
  3
Side/strømvej reference
  2
$TAG160500
 70
     0
  0
ATTDEF
  5
BB
  8
0
 10
29.26500701904297
 20
267.9000244140625
 30
0.0
 40
2.449981689453125
  1
=
 41
0.9
  7
CADDY_VECTORFONT1P
  3
Funktion (=)
  2
$TAG140020
 70
     1
  0
ATTDEF
  5
BD
  8
0
 10
29.26500701904297
 20
264.4000244140625
 30
0.0
 40
2.449981689453125
  1
+
 41
0.9
  7
CADDY_VECTORFONT1P
  3
Placering (+)
  2
$TAG140050
 70
     1
  0
ENDBLK
  8
0
  0
BLOCK
  8
0
  2
BLK3
 70
     2
 10
0.0
 20
0.0
 30
0.0
  0
LINE
  5
C2
  8
0
  6
CADDY_SOLID
 10
392.5
 20
260.0
 30
0.0
 11
390.25
 21
261.25
 31
0.0
  0
LINE
  5
C3
  8
0
  6
CADDY_SOLID
 10
392.5
 20
260.0
 30
0.0
 11
390.25
 21
258.75
 31
0.0
  0
ATTDEF
  5
C6
  8
0
 10
370.9786803039551
 20
260.9000244140625
 30
0.0
 40
2.449981689453125
  1
0708
 41
0.9
  7
CADDY_VECTORFONT1P
 72
     2
 11
387.7850646972656
 21
260.9000244140625
 31
0.0
  3
Produkt (-)
  2
$TAG160010
 70
     0
  0
ATTDEF
  5
C8
  8
0
 10
393.3650207519531
 20
258.9500122070312
 30
0.0
 40
2.449981689453125
  1

 41
0.9
  7
CADDY_VECTORFONT1P
  3
Side/strømvej reference
  2
$TAG160500
 70
     0
  0
ATTDEF
  5
CA
  8
0
 10
370.2421547729492
 20
267.9000244140625
 30
0.0
 40
2.449981689453125
  1
=
 41
0.9
  7
CADDY_VECTORFONT1P
 72
     2
 11
387.7850036621094
 21
267.9000244140625
 31
0.0
  3
Funktion (=)
  2
$TAG140020
 70
     1
  0
ATTDEF
  5
CC
  8
0
 10
370.2421547729492
 20
264.4000244140625
 30
0.0
 40
2.449981689453125
  1
+
 41
0.9
  7
CADDY_VECTORFONT1P
 72
     2
 11
387.7850036621094
 21
264.4000244140625
 31
0.0
  3
Placering (+)
  2
$TAG140050
 70
     1
  0
ENDBLK
  8
0
  0
BLOCK
  8
0
  2
BLK4
 70
     2
 10
0.0
 20
0.0
 30
0.0
  0
LINE
  5
DC
  8
0
  6
CADDY_SOLID
 10
150.0
 20
177.5
 30
0.0
 11
150.0
 21
180.0
 31
0.0
  0
LINE
  5
DD
  8
0
  6
CADDY_SOLID
 10
150.0
 20
172.5
 30
0.0
 11
150.0
 21
170.0
 31
0.0
  0
LINE
  5
DE
  8
0
  6
CADDY_SOLID
 10
150.0
 20
172.5
 30
0.0
 11
146.5849304199219
 21
178.4150695800781
 31
0.0
  0
ATTDEF
  5
E1
  8
0
 10
127.1935414520264
 20
173.8000030517578
 30
0.0
 40
2.449996948242188
  1
K3806
 41
0.9
  7
CADDY_VECTORFONT1P
 72
     2
 11
144.0000305175781
 21
173.8000030517578
 31
0.0
  3
Produkt (-)
  2
$TAG160010
 70
     0
  0
ATTDEF
  5
E3
  8
0
 10
126.7018118057251
 20
170.3000030517578
 30
0.0
 40
2.449996948242188
  1
38.6
 41
0.9
  7
CADDY_VECTORFONT1P
 72
     2
 11
144.0000152587891
 21
170.3000030517578
 31
0.0
  3
Side/strømvej reference
  2
$TAG160500
 70
     0
  0
ATTDEF
  5
E5
  8
0
 10
149.0500030517578
 20
179.3000030517578
 30
0.0
 40
2.449996948242188
  1
11
 50
90.0
 41
0.9
  7
CADDY_VECTORFONT1P
  3
Tilslutningstekst 00
  2
$TAG175000_00
 70
     0
  0
ATTDEF
  5
E7
  8
0
 10
149.0500030517578
 20
147.9658327224732
 30
0.0
 40
2.449996948242188
  1
14
 50
90.0
 41
0.9
  7
CADDY_VECTORFONT1P
 72
     2
 11
149.0500030517578
 21
170.9000091552734
 31
0.0
  3
Tilslutningstekst 01
  2
$TAG175000_01
 70
     0
  0
ENDBLK
  8
0
  0
BLOCK
  8
0
  2
BLK5
 70
     2
 10
0.0
 20
0.0
 30
0.0
  0
ATTDEF
  5
F5
  8
0
 10
95.69999694824219
 20
95.69999694824219
 30
0.0
 40
2.450004577636719
  1
W3801
 41
0.9
  7
CADDY_VECTORFONT1P
  3
Produkt (-)
  2
$TAG160010
 70
     0
  0
ATTDEF
  5
F7
  8
0
 10
95.69999694824219
 20
90.69999694824219
 30
0.0
 40
2.450004577636719
  1

 41
0.9
  7
CADDY_VECTORFONT1P
  3
Beskrivelse 00
  2
$TAG160030
 70
     1
  0
ATTDEF
  5
F9
  8
0
 10
95.69999694824219
 20
85.69999694824219
 30
0.0
 40
2.450004577636719
  1

 41
0.9
  7
CADDY_VECTORFONT1P
  3
Kabeldimension
  2
$TAG160200
 70
     1
  0
ATTDEF
  5
FB
  8
0
 10
95.69999694824219
 20
80.69999694824219
 30
0.0
 40
2.450004577636719
  1

 41
0.9
  7
CADDY_VECTORFONT1P
  3
Type
  2
$TAG160040
 70
     1
  0
ATTDEF
  5
FD
  8
0
 10
95.69999694824219
 20
75.69999694824219
 30
0.0
 40
2.450004577636719
  1

 41
0.9
  7
CADDY_VECTORFONT1P
  3
Længde
  2
$TAG160101
 70
     1
  0
ATTDEF
  5
FF
  8
0
 10
75.69999694824219
 20
95.69999694824219
 30
0.0
 40
2.450004577636719
  1
1
 41
0.9
  7
CADDY_VECTORFONT1P
  3
Kabelkorenummer
  2
$TAG160210
 70
     0
  0
ATTDEF
  5
101
  8
0
 10
75.69999694824219
 20
90.69999694824219
 30
0.0
 40
2.450004577636719
  1

 41
0.9
  7
CADDY_VECTORFONT1P
  3
Kabelkorefarve
  2
$TAG160220
 70
     1
  0
ATTDEF
  5
103
  8
0
 10
75.69999694824219
 20
85.69999694824219
 30
0.0
 40
2.450004577636719
  1

 41
0.9
  7
CADDY_VECTORFONT1P
  3
Kabelkoretværsnit
  2
$TAG160230
 70
     1
  0
LINE
  5
104
  8
0
  6
CADDY_SOLID
 10
75.0
 20
95.5
 30
0.0
 11
75.0
 21
94.5
 31
0.0
  0
ENDBLK
  8
0
  0
BLOCK
  8
0
  2
BLK6
 70
     2
 10
0.0
 20
0.0
 30
0.0
  0
ATTDEF
  5
10B
  8
0
 10
95.69999694824219
 20
95.69999694824219
 30
0.0
 40
2.450004577636719
  1
W3801
 41
0.9
  7
CADDY_VECTORFONT1P
  3
Produkt (-)
  2
$TAG160010
 70
     0
  0
ATTDEF
  5
10D
  8
0
 10
95.69999694824219
 20
90.69999694824219
 30
0.0
 40
2.450004577636719
  1

 41
0.9
  7
CADDY_VECTORFONT1P
  3
Beskrivelse 00
  2
$TAG160030
 70
     0
  0
ATTDEF
  5
10F
  8
0
 10
95.69999694824219
 20
85.69999694824219
 30
0.0
 40
2.450004577636719
  1

 41
0.9
  7
CADDY_VECTORFONT1P
  3
Kabeldimension
  2
$TAG160200
 70
     0
  0
ATTDEF
  5
111
  8
0
 10
95.69999694824219
 20
80.69999694824219
 30
0.0
 40
2.450004577636719
  1

 41
0.9
  7
CADDY_VECTORFONT1P
  3
Type
  2
$TAG160040
 70
     1
  0
ATTDEF
  5
113
  8
0
 10
95.69999694824219
 20
75.69999694824219
 30
0.0
 40
2.450004577636719
  1

 41
0.9
  7
CADDY_VECTORFONT1P
  3
Længde
  2
$TAG160101
 70
     1
  0
ATTDEF
  5
115
  8
0
 10
85.69999694824219
 20
95.69999694824219
 30
0.0
 40
2.450004577636719
  1
2
 41
0.9
  7
CADDY_VECTORFONT1P
  3
Kabelkorenummer
  2
$TAG160210
 70
     0
  0
ATTDEF
  5
117
  8
0
 10
85.69999694824219
 20
90.69999694824219
 30
0.0
 40
2.450004577636719
  1

 41
0.9
  7
CADDY_VECTORFONT1P
  3
Kabelkorefarve
  2
$TAG160220
 70
     1
  0
ATTDEF
  5
119
  8
0
 10
85.69999694824219
 20
85.69999694824219
 30
0.0
 40
2.450004577636719
  1

 41
0.9
  7
CADDY_VECTORFONT1P
  3
Kabelkoretværsnit
  2
$TAG160230
 70
     1
  0
LINE
  5
11A
  8
0
  6
CADDY_SOLID
 10
85.0
 20
95.5
 30
0.0
 11
85.0
 21
94.5
 31
0.0
  0
ENDBLK
  8
0
  0
BLOCK
  8
0
  2
BLK7
 70
     2
 10
0.0
 20
0.0
 30
0.0
  0
ATTDEF
  5
122
  8
0
 10
170.6999969482422
 20
95.69999694824219
 30
0.0
 40
2.450004577636719
  1
W3802
 41
0.9
  7
CADDY_VECTORFONT1P
  3
Produkt (-)
  2
$TAG160010
 70
     1
  0
ATTDEF
  5
124
  8
0
 10
170.6999969482422
 20
90.69999694824219
 30
0.0
 40
2.450004577636719
  1

 41
0.9
  7
CADDY_VECTORFONT1P
  3
Beskrivelse 00
  2
$TAG160030
 70
     1
  0
ATTDEF
  5
126
  8
0
 10
170.6999969482422
 20
85.69999694824219
 30
0.0
 40
2.450004577636719
  1

 41
0.9
  7
CADDY_VECTORFONT1P
  3
Kabeldimension
  2
$TAG160200
 70
     1
  0
ATTDEF
  5
128
  8
0
 10
170.6999969482422
 20
80.69999694824219
 30
0.0
 40
2.450004577636719
  1

 41
0.9
  7
CADDY_VECTORFONT1P
  3
Type
  2
$TAG160040
 70
     1
  0
ATTDEF
  5
12A
  8
0
 10
170.6999969482422
 20
75.69999694824219
 30
0.0
 40
2.450004577636719
  1

 41
0.9
  7
CADDY_VECTORFONT1P
  3
Længde
  2
$TAG160101
 70
     1
  0
ATTDEF
  5
12C
  8
0
 10
150.6999969482422
 20
95.69999694824219
 30
0.0
 40
2.450004577636719
  1
1
 41
0.9
  7
CADDY_VECTORFONT1P
  3
Kabelkorenummer
  2
$TAG160210
 70
     0
  0
ATTDEF
  5
12E
  8
0
 10
150.6999969482422
 20
90.69999694824219
 30
0.0
 40
2.450004577636719
  1

 41
0.9
  7
CADDY_VECTORFONT1P
  3
Kabelkorefarve
  2
$TAG160220
 70
     1
  0
ATTDEF
  5
130
  8
0
 10
150.6999969482422
 20
85.69999694824219
 30
0.0
 40
2.450004577636719
  1

 41
0.9
  7
CADDY_VECTORFONT1P
  3
Kabelkoretværsnit
  2
$TAG160230
 70
     1
  0
LINE
  5
131
  8
0
  6
CADDY_SOLID
 10
150.0
 20
95.5
 30
0.0
 11
150.0
 21
94.5
 31
0.0
  0
ENDBLK
  8
0
  0
BLOCK
  8
0
  2
BLK8
 70
     2
 10
0.0
 20
0.0
 30
0.0
  0
ATTDEF
  5
138
  8
0
 10
170.6999969482422
 20
95.69999694824219
 30
0.0
 40
2.450004577636719
  1
W3802
 41
0.9
  7
CADDY_VECTORFONT1P
  3
Produkt (-)
  2
$TAG160010
 70
     0
  0
ATTDEF
  5
13A
  8
0
 10
170.6999969482422
 20
90.69999694824219
 30
0.0
 40
2.450004577636719
  1

 41
0.9
  7
CADDY_VECTORFONT1P
  3
Beskrivelse 00
  2
$TAG160030
 70
     0
  0
ATTDEF
  5
13C
  8
0
 10
170.6999969482422
 20
85.69999694824219
 30
0.0
 40
2.450004577636719
  1

 41
0.9
  7
CADDY_VECTORFONT1P
  3
Kabeldimension
  2
$TAG160200
 70
     0
  0
ATTDEF
  5
13E
  8
0
 10
170.6999969482422
 20
80.69999694824219
 30
0.0
 40
2.450004577636719
  1

 41
0.9
  7
CADDY_VECTORFONT1P
  3
Type
  2
$TAG160040
 70
     1
  0
ATTDEF
  5
140
  8
0
 10
170.6999969482422
 20
75.69999694824219
 30
0.0
 40
2.450004577636719
  1

 41
0.9
  7
CADDY_VECTORFONT1P
  3
Længde
  2
$TAG160101
 70
     1
  0
ATTDEF
  5
142
  8
0
 10
160.6999969482422
 20
95.69999694824219
 30
0.0
 40
2.450004577636719
  1
2
 41
0.9
  7
CADDY_VECTORFONT1P
  3
Kabelkorenummer
  2
$TAG160210
 70
     0
  0
ATTDEF
  5
144
  8
0
 10
160.6999969482422
 20
90.69999694824219
 30
0.0
 40
2.450004577636719
  1

 41
0.9
  7
CADDY_VECTORFONT1P
  3
Kabelkorefarve
  2
$TAG160220
 70
     1
  0
ATTDEF
  5
146
  8
0
 10
160.6999969482422
 20
85.69999694824219
 30
0.0
 40
2.450004577636719
  1

 41
0.9
  7
CADDY_VECTORFONT1P
  3
Kabelkoretværsnit
  2
$TAG160230
 70
     1
  0
LINE
  5
147
  8
0
  6
CADDY_SOLID
 10
160.0
 20
95.5
 30
0.0
 11
160.0
 21
94.5
 31
0.0
  0
ENDBLK
  8
0
  0
BLOCK
  8
0
  2
BLK9
 70
     2
 10
0.0
 20
0.0
 30
0.0
  0
LINE
  5
14D
  8
0
  6
CADDY_SOLID
 10
275.0
 20
87.5
 30
0.0
 11
275.0
 21
92.5
 31
0.0
  0
LINE
  5
14E
  8
0
  6
CADDY_SOLID
 10
275.0
 20
92.5
 30
0.0
 11
265.0
 21
92.5
 31
0.0
  0
LINE
  5
14F
  8
0
  6
CADDY_SOLID
 10
265.0
 20
92.5
 30
0.0
 11
265.0
 21
87.5
 31
0.0
  0
LINE
  5
150
  8
0
  6
CADDY_SOLID
 10
265.0
 20
87.5
 30
0.0
 11
275.0
 21
87.5
 31
0.0
  0
LINE
  5
151
  8
0
  6
CADDY_SOLID
 10
270.0
 20
92.5
 30
0.0
 11
270.0
 21
95.0
 31
0.0
  0
LINE
  5
152
  8
0
  6
CADDY_SOLID
 10
270.0
 20
87.5
 30
0.0
 11
270.0
 21
85.0
 31
0.0
  0
ATTDEF
  5
155
  8
0
 10
245.6934585983277
 20
88.80000305175781
 30
0.0
 40
2.450004577636719
  1
K3806
 41
0.9
  7
CADDY_VECTORFONT1P
 72
     2
 11
262.5
 21
88.80000305175781
 31
0.0
  3
Produkt (-)
  2
$TAG160010
 70
     0
  0
ATTDEF
  5
157
  8
0
 10
244.9570177398681
 20
81.80000305175781
 30
0.0
 40
2.450004577636719
  1

 41
0.9
  7
CADDY_VECTORFONT1P
 72
     2
 11
262.5000305175781
 21
81.80000305175781
 31
0.0
  3
Type
  2
$TAG160040
 70
     1
  0
ATTDEF
  5
159
  8
0
 10
245.2017731971741
 20
85.30000305175781
 30
0.0
 40
2.450004577636719
  1

 41
0.9
  7
CADDY_VECTORFONT1P
 72
     2
 11
262.5000305175781
 21
85.30000305175781
 31
0.0
  3
Beskrivelse 00
  2
$TAG160030
 70
     0
  0
ATTDEF
  5
15B
  8
0
 10
269.0499877929688
 20
93.40000915527344
 30
0.0
 40
2.450004577636719
  1
A1
 50
90.0
 41
0.9
  7
CADDY_VECTORFONT1P
  3
Tilslutningstekst 00
  2
$TAG175000_00
 70
     0
  0
ATTDEF
  5
15D
  8
0
 10
269.0499877929688
 20
62.96577656326294
 30
0.0
 40
2.450004577636719
  1
A2
 50
90.0
 41
0.9
  7
CADDY_VECTORFONT1P
 72
     2
 11
269.0499877929688
 21
85.9000244140625
 31
0.0
  3
Tilslutningstekst 01
  2
$TAG175000_01
 70
     0
  0
ENDBLK
  8
0
  0
BLOCK
  8
0
  2
BLK10
 70
     2
 10
0.0
 20
0.0
 30
0.0
  0
LINE
  5
166
  8
0
  6
CADDY_SOLID
 10
230.0
 20
70.0
 30
0.0
 11
227.75
 21
71.25
 31
0.0
  0
LINE
  5
167
  8
0
  6
CADDY_SOLID
 10
230.0
 20
70.0
 30
0.0
 11
227.75
 21
68.75
 31
0.0
  0
ATTDEF
  5
16A
  8
0
 10
231.7649688720703
 20
70.90000915527344
 30
0.0
 40
2.450004577636719
  1
0707
 41
0.9
  7
CADDY_VECTORFONT1P
  3
Produkt (-)
  2
$TAG160010
 70
     0
  0
ATTDEF
  5
16C
  8
0
 10
207.9867463417053
 20
68.94999694824219
 30
0.0
 40
2.450004577636719
  1
37.8
 41
0.9
  7
CADDY_VECTORFONT1P
 72
     2
 11
225.2850036621094
 21
68.94999694824219
 31
0.0
  3
Side/strømvej reference
  2
$TAG160500
 70
     0
  0
ATTDEF
  5
16E
  8
0
 10
231.7649688720703
 20
77.90000915527344
 30
0.0
 40
2.450004577636719
  1
=
 41
0.9
  7
CADDY_VECTORFONT1P
  3
Funktion (=)
  2
$TAG140020
 70
     1
  0
ATTDEF
  5
170
  8
0
 10
231.7649688720703
 20
74.40000915527344
 30
0.0
 40
2.450004577636719
  1
+
 41
0.9
  7
CADDY_VECTORFONT1P
  3
Placering (+)
  2
$TAG140050
 70
     1
  0
ENDBLK
  8
0
  0
BLOCK
  8
0
  2
BLK11
 70
     2
 10
0.0
 20
0.0
 30
0.0
  0
LINE
  5
175
  8
0
  6
CADDY_SOLID
 10
315.0
 20
70.0
 30
0.0
 11
312.75
 21
71.25
 31
0.0
  0
LINE
  5
176
  8
0
  6
CADDY_SOLID
 10
315.0
 20
70.0
 30
0.0
 11
312.75
 21
68.75
 31
0.0
  0
ATTDEF
  5
179
  8
0
 10
293.4785232955933
 20
70.90000915527344
 30
0.0
 40
2.450004577636719
  1
0707
 41
0.9
  7
CADDY_VECTORFONT1P
 72
     2
 11
310.2850646972656
 21
70.90000915527344
 31
0.0
  3
Produkt (-)
  2
$TAG160010
 70
     0
  0
ATTDEF
  5
17B
  8
0
 10
315.8650207519531
 20
68.94999694824219
 30
0.0
 40
2.450004577636719
  1

 41
0.9
  7
CADDY_VECTORFONT1P
  3
Side/strømvej reference
  2
$TAG160500
 70
     0
  0
ATTDEF
  5
17D
  8
0
 10
292.7419908843994
 20
77.90000915527344
 30
0.0
 40
2.450004577636719
  1
=
 41
0.9
  7
CADDY_VECTORFONT1P
 72
     2
 11
310.2850036621094
 21
77.90000915527344
 31
0.0
  3
Funktion (=)
  2
$TAG140020
 70
     1
  0
ATTDEF
  5
17F
  8
0
 10
292.7419908843994
 20
74.40000915527344
 30
0.0
 40
2.450004577636719
  1
+
 41
0.9
  7
CADDY_VECTORFONT1P
 72
     2
 11
310.2850036621094
 21
74.40000915527344
 31
0.0
  3
Placering (+)
  2
$TAG140050
 70
     1
  0
ENDBLK
  8
0
  0
BLOCK
  8
0
  2
BLK12
 70
     2
 10
0.0
 20
0.0
 30
0.0
  0
ATTDEF
  5
193
  8
0
 10
89.50179196929932
 20
234.6999969482422
 30
0.0
 40
2.449996948242188
  1

 41
0.9
  7
CADDY_VECTORFONT1P
 72
     2
 11
106.7999954223633
 21
234.6999969482422
 31
0.0
  3
Beskrivelse 00
  2
$TAG160030
 70
     0
  0
ATTDEF
  5
195
  8
0
 10
89.25703727416993
 20
231.1999969482422
 30
0.0
 40
2.449996948242188
  1

 41
0.9
  7
CADDY_VECTORFONT1P
 72
     2
 11
106.7999954223633
 21
231.1999969482422
 31
0.0
  3
Type
  2
$TAG160040
 70
     0
  0
TEXT
  5
196
  8
0
 10
105.6999969482422
 20
225.6999969482422
 30
0.0
 40
2.449996948242188
  1
Digital
 41
0.9
  7
CADDY_VECTORFONT1P
  0
TEXT
  5
197
  8
0
 10
105.6999969482422
 20
222.1999969482422
 30
0.0
 40
2.449996948242188
  1
Indgang
 41
0.9
  7
CADDY_VECTORFONT1P
  0
TEXT
  5
198
  8
0
 10
105.6999969482422
 20
218.6999969482422
 30
0.0
 40
2.449996948242188
  1

 41
0.9
  7
CADDY_VECTORFONT1P
  0
ATTDEF
  5
19A
  8
0
 10
104.9935139862061
 20
230.1499938964844
 30
0.0
 40
2.449996948242188
  1
D1803-A2
 41
0.9
  7
CADDY_VECTORFONT1P
 72
     2
 11
121.8000030517578
 21
230.1499938964844
 31
0.0
  3
Signaladresse
  2
$TAG175100
 70
     0
  0
ATTDEF
  5
19C
  8
0
 10
87.98522074432373
 20
224.1499938964844
 30
0.0
 40
2.449996948242188
  1

 41
0.9
  7
CADDY_VECTORFONT1P
 72
     2
 11
104.2999954223633
 21
224.1499938964844
 31
0.0
  3
Signalbeskrivelse
  2
$TAG175110
 70
     0
  0
ATTDEF
  5
19E
  8
0
 10
87.49350635681152
 20
221.1499938964844
 30
0.0
 40
2.449996948242188
  1

 41
0.9
  7
CADDY_VECTORFONT1P
 72
     2
 11
104.2999954223633
 21
221.1499938964844
 31
0.0
  3
Signalbemærkning
  2
$TAG175120
 70
     0
  0
ATTDEF
  5
1A0
  8
0
 10
87.00179196929932
 20
217.6499938964844
 30
0.0
 40
2.449996948242188
  1

 41
0.9
  7
CADDY_VECTORFONT1P
 72
     2
 11
104.2999954223633
 21
217.6499938964844
 31
0.0
  3
Side/strømvej reference
  2
$TAG160500
 70
     0
  0
INSERT
  5
1A4
  8
0
  2
BLK13
 10
0.0
 20
0.0
 30
1.0
  0
LINE
  5
1A9
  8
0
  6
CADDY_SOLID
 10
105.0
 20
230.0
 30
0.0
 11
125.0
 21
230.0
 31
0.0
  0
LINE
  5
1AA
  8
0
  6
CADDY_SOLID
 10
105.0
 20
225.0
 30
0.0
 11
125.0
 21
225.0
 31
0.0
  0
LINE
  5
1AB
  8
0
  6
CADDY_SOLID
 10
121.0
 20
223.5
 30
0.0
 11
118.5
 21
221.0
 31
0.0
  0
LINE
  5
1AC
  8
0
  6
CADDY_SOLID
 10
118.5
 20
221.0
 30
0.0
 11
123.5
 21
221.0
 31
0.0
  0
LINE
  5
1AD
  8
0
  6
CADDY_SOLID
 10
123.5
 20
221.0
 30
0.0
 11
121.0
 21
223.5
 31
0.0
  0
LINE
  5
1AE
  8
0
  6
CADDY_SOLID
 10
117.5
 20
230.0
 30
0.0
 11
117.5
 21
220.0
 31
0.0
  0
INSERT
  5
1B2
  8
0
  2
BLK14
 10
0.0
 20
0.0
 30
1.0
  0
ATTDEF
  5
1B5
  8
0
 10
109.0500030517578
 20
238.3999938964844
 30
0.0
 40
2.449996948242188
  1

 50
90.0
 41
0.9
  7
CADDY_VECTORFONT1P
  3
Tilslutningstekst 00
  2
$TAG175000_00
 70
     0
  0
ATTDEF
  5
1B7
  8
0
 10
84.15352527770996
 20
229.5249938964844
 30
0.0
 40
2.449996948242188
  1
#00000031
 41
0.9
  7
CADDY_VECTORFONT1P
 72
     2
 11
100.9600143432617
 21
229.5249938964844
 31
0.0
  3
Produkt (-)
  2
$TAG160010
 70
     1
  0
ENDBLK
  8
0
  0
BLOCK
  8
0
  2
BLK13
 70
     0
 10
0.0
 20
0.0
 30
0.0
  0
LINE
  5
1A5
  8
0
  6
CADDY_SOLID
 10
105.0
 20
220.0
 30
0.0
 11
125.0
 21
220.0
 31
0.0
  0
LINE
  5
1A6
  8
0
  6
CADDY_SOLID
 10
125.0
 20
220.0
 30
0.0
 11
125.0
 21
235.0
 31
0.0
  0
LINE
  5
1A7
  8
0
  6
CADDY_SOLID
 10
125.0
 20
235.0
 30
0.0
 11
105.0
 21
235.0
 31
0.0
  0
LINE
  5
1A8
  8
0
  6
CADDY_SOLID
 10
105.0
 20
235.0
 30
0.0
 11
105.0
 21
220.0
 31
0.0
  0
ENDBLK
  8
0
  0
BLOCK
  8
0
  2
BLK14
 70
     0
 10
0.0
 20
0.0
 30
0.0
  0
LINE
  5
1B3
  8
0
  6
CADDY_SOLID
 10
110.0
 20
240.0
 30
0.0
 11
110.0
 21
235.0
 31
0.0
  0
ENDBLK
  8
0
  0
BLOCK
  8
0
  2
BLK15
 70
     2
 10
0.0
 20
0.0
 30
0.0
  0
INSERT
  5
1BF
  8
0
  2
BLK16
 10
0.0
 20
0.0
 30
1.0
  0
LINE
  5
1C4
  8
0
  6
CADDY_SOLID
 10
255.0
 20
230.0
 30
0.0
 11
275.0
 21
230.0
 31
0.0
  0
LINE
  5
1C5
  8
0
  6
CADDY_SOLID
 10
255.0
 20
235.0
 30
0.0
 11
275.0
 21
235.0
 31
0.0
  0
LINE
  5
1C6
  8
0
  6
CADDY_SOLID
 10
270.0
 20
225.0
 30
0.0
 11
270.0
 21
220.0
 31
0.0
  0
TEXT
  5
1C7
  8
0
 10
255.6999969482422
 20
235.6999969482422
 30
0.0
 40
2.449996948242188
  1
Digital
 41
0.9
  7
CADDY_VECTORFONT1P
  0
TEXT
  5
1C8
  8
0
 10
255.6999969482422
 20
232.1999969482422
 30
0.0
 40
2.449996948242188
  1
Udgang
 41
0.9
  7
CADDY_VECTORFONT1P
  0
LINE
  5
1C9
  8
0
  6
CADDY_SOLID
 10
267.5
 20
240.0
 30
0.0
 11
267.5
 21
230.0
 31
0.0
  0
LINE
  5
1CA
  8
0
  6
CADDY_SOLID
 10
271.0
 20
238.5
 30
0.0
 11
268.5
 21
236.0
 31
0.0
  0
LINE
  5
1CB
  8
0
  6
CADDY_SOLID
 10
268.5
 20
236.0
 30
0.0
 11
273.5
 21
236.0
 31
0.0
  0
LINE
  5
1CC
  8
0
  6
CADDY_SOLID
 10
273.5
 20
236.0
 30
0.0
 11
271.0
 21
238.5
 31
0.0
  0
ATTDEF
  5
1CF
  8
0
 10
269.0499877929688
 20
197.4763385910034
 30
0.0
 40
2.449996948242188
  1

 50
90.0
 41
0.9
  7
CADDY_VECTORFONT1P
 72
     2
 11
269.0499877929688
 21
220.9000244140625
 31
0.0
  3
Tilslutningstekst 00
  2
$TAG175000_00
 70
     0
  0
ATTDEF
  5
1D1
  8
0
 10
254.9934682098389
 20
226.1999969482422
 30
0.0
 40
2.449996948242188
  1
D1807-A3
 41
0.9
  7
CADDY_VECTORFONT1P
 72
     2
 11
271.7999572753906
 21
226.1999969482422
 31
0.0
  3
Signaladresse
  2
$TAG175100
 70
     0
  0
ATTDEF
  5
1D3
  8
0
 10
235.4852283737183
 20
223.6999969482422
 30
0.0
 40
2.449996948242188
  1

 41
0.9
  7
CADDY_VECTORFONT1P
 72
     2
 11
251.8000030517578
 21
223.6999969482422
 31
0.0
  3
Signalbeskrivelse
  2
$TAG175110
 70
     0
  0
ATTDEF
  5
1D5
  8
0
 10
234.9935139862061
 20
220.1999969482422
 30
0.0
 40
2.449996948242188
  1

 41
0.9
  7
CADDY_VECTORFONT1P
 72
     2
 11
251.8000030517578
 21
220.1999969482422
 31
0.0
  3
Signalbemærkning
  2
$TAG175120
 70
     0
  0
ATTDEF
  5
1D7
  8
0
 10
231.6535329071045
 20
230.5500030517578
 30
0.0
 40
2.449996948242188
  1
#00000033
 41
0.9
  7
CADDY_VECTORFONT1P
 72
     2
 11
248.4600219726562
 21
230.5500030517578
 31
0.0
  3
Produkt (-)
  2
$TAG160010
 70
     1
  0
ATTDEF
  5
1D9
  8
0
 10
231.1618032608032
 20
216.5500030517578
 30
0.0
 40
2.449996948242188
  1

 41
0.9
  7
CADDY_VECTORFONT1P
 72
     2
 11
248.4600067138672
 21
216.5500030517578
 31
0.0
  3
Side/strømvej reference
  2
$TAG160500
 70
     0
  0
ENDBLK
  8
0
  0
BLOCK
  8
0
  2
BLK16
 70
     0
 10
0.0
 20
0.0
 30
0.0
  0
LINE
  5
1C0
  8
0
  6
CADDY_SOLID
 10
255.0
 20
240.0
 30
0.0
 11
275.0
 21
240.0
 31
0.0
  0
LINE
  5
1C1
  8
0
  6
CADDY_SOLID
 10
275.0
 20
240.0
 30
0.0
 11
275.0
 21
225.0
 31
0.0
  0
LINE
  5
1C2
  8
0
  6
CADDY_SOLID
 10
275.0
 20
225.0
 30
0.0
 11
255.0
 21
225.0
 31
0.0
  0
LINE
  5
1C3
  8
0
  6
CADDY_SOLID
 10
255.0
 20
225.0
 30
0.0
 11
255.0
 21
240.0
 31
0.0
  0
ENDBLK
  8
0
  0
BLOCK
  8
0
  2
BLK17
 70
     2
 10
0.0
 20
0.0
 30
0.0
  0
CIRCLE
  5
1DE
  8
0
  6
CADDY_SOLID
 10
75.0
 20
117.5
 30
0.0
 40
0.75
  0
LINE
  5
1DF
  8
0
  6
CADDY_SOLID
 10
75.0
 20
118.25
 30
0.0
 11
75.0
 21
120.0
 31
0.0
  0
LINE
  5
1E0
  8
0
  6
CADDY_SOLID
 10
75.0
 20
115.0
 30
0.0
 11
75.0
 21
116.75
 31
0.0
  0
ATTDEF
  5
1E4
  8
2
 10
53.24345402069092
 20
116.3000030517578
 30
0.0
 40
2.450004577636719
  1
X38
 41
0.9
  7
CADDY_VECTORFONT1P
 72
     2
 11
70.04999542236328
 21
116.3000030517578
 31
0.0
  3
Produkt (-)
  2
$TAG160010
 70
     0
  0
ATTDEF
  5
1E6
  8
2
 10
74.09999084472656
 20
119.1999969482422
 30
0.0
 40
2.450004577636719
  1
1
 50
90.0
 41
0.9
  7
CADDY_VECTORFONT1P
  3
Klemmenummer
  2
$TAG160400
 70
     0
  0
ATTDEF
  5
1E8
  8
0
 10
77.59999084472656
 20
119.1999969482422
 30
0.0
 40
2.450004577636719
  1
1
 50
90.0
 41
0.9
  7
CADDY_VECTORFONT1P
  3
Sorteringsindeks
  2
$TAG160410
 70
     1
  0
ATTDEF
  5
1EA
  8
2
 10
52.75173810195923
 20
112.8000030517578
 30
0.0
 40
2.450004577636719
  1

 41
0.9
  7
CADDY_VECTORFONT1P
 72
     2
 11
70.04999542236328
 21
112.8000030517578
 31
0.0
  3
Beskrivelse 00
  2
$TAG160030
 70
     1
  0
ATTDEF
  5
1EC
  8
2
 10
52.50699027404785
 20
107.8000030517578
 30
0.0
 40
2.450004577636719
  1
AB1RR235U2GR
 41
0.9
  7
CADDY_VECTORFONT1P
 72
     2
 11
70.05000305175781
 21
107.8000030517578
 31
0.0
  3
Type
  2
$TAG160040
 70
     1
  0
ATTDEF
  5
1EE
  8
2
 10
52.50699027404785
 20
123.3000030517578
 30
0.0
 40
2.450004577636719
  1
=
 41
0.9
  7
CADDY_VECTORFONT1P
 72
     2
 11
70.05000305175781
 21
123.3000030517578
 31
0.0
  3
Funktion (=)
  2
$TAG140020
 70
     1
  0
ATTDEF
  5
1F0
  8
2
 10
52.50698264465332
 20
119.8000030517578
 30
0.0
 40
2.450004577636719
  1
+
 41
0.9
  7
CADDY_VECTORFONT1P
 72
     2
 11
70.04999542236328
 21
119.8000030517578
 31
0.0
  3
Placering (+)
  2
$TAG140050
 70
     1
  0
ENDBLK
  8
0
  0
BLOCK
  8
0
  2
BLK18
 70
     2
 10
0.0
 20
0.0
 30
0.0
  0
CIRCLE
  5
1FB
  8
0
  6
CADDY_SOLID
 10
150.0
 20
117.5
 30
0.0
 40
0.75
  0
LINE
  5
1FC
  8
0
  6
CADDY_SOLID
 10
150.0
 20
118.25
 30
0.0
 11
150.0
 21
120.0
 31
0.0
  0
LINE
  5
1FD
  8
0
  6
CADDY_SOLID
 10
150.0
 20
115.0
 30
0.0
 11
150.0
 21
116.75
 31
0.0
  0
ATTDEF
  5
200
  8
2
 10
128.2434616500855
 20
116.3000030517578
 30
0.0
 40
2.450004577636719
  1
X38
 41
0.9
  7
CADDY_VECTORFONT1P
 72
     2
 11
145.0500030517578
 21
116.3000030517578
 31
0.0
  3
Produkt (-)
  2
$TAG160010
 70
     0
  0
ATTDEF
  5
202
  8
2
 10
149.0999908447266
 20
119.1999969482422
 30
0.0
 40
2.450004577636719
  1
3
 50
90.0
 41
0.9
  7
CADDY_VECTORFONT1P
  3
Klemmenummer
  2
$TAG160400
 70
     0
  0
ATTDEF
  5
204
  8
0
 10
152.5999908447266
 20
119.1999969482422
 30
0.0
 40
2.450004577636719
  1
1
 50
90.0
 41
0.9
  7
CADDY_VECTORFONT1P
  3
Sorteringsindeks
  2
$TAG160410
 70
     1
  0
ATTDEF
  5
206
  8
2
 10
127.7517457313538
 20
112.8000030517578
 30
0.0
 40
2.450004577636719
  1

 41
0.9
  7
CADDY_VECTORFONT1P
 72
     2
 11
145.0500030517578
 21
112.8000030517578
 31
0.0
  3
Beskrivelse 00
  2
$TAG160030
 70
     1
  0
ATTDEF
  5
208
  8
2
 10
127.5070055328369
 20
107.8000030517578
 30
0.0
 40
2.450004577636719
  1
AB1RR235U2GR
 41
0.9
  7
CADDY_VECTORFONT1P
 72
     2
 11
145.0500183105469
 21
107.8000030517578
 31
0.0
  3
Type
  2
$TAG160040
 70
     1
  0
ATTDEF
  5
20A
  8
2
 10
127.5069902740479
 20
123.3000030517578
 30
0.0
 40
2.450004577636719
  1
=
 41
0.9
  7
CADDY_VECTORFONT1P
 72
     2
 11
145.0500030517578
 21
123.3000030517578
 31
0.0
  3
Funktion (=)
  2
$TAG140020
 70
     1
  0
ATTDEF
  5
20C
  8
2
 10
127.5069750152588
 20
119.8000030517578
 30
0.0
 40
2.450004577636719
  1
+
 41
0.9
  7
CADDY_VECTORFONT1P
 72
     2
 11
145.0499877929688
 21
119.8000030517578
 31
0.0
  3
Placering (+)
  2
$TAG140050
 70
     1
  0
ENDBLK
  8
0
  0
BLOCK
  8
0
  2
BLK19
 70
     2
 10
0.0
 20
0.0
 30
0.0
  0
CIRCLE
  5
216
  8
0
  6
CADDY_SOLID
 10
85.0
 20
117.5
 30
0.0
 40
0.75
  0
LINE
  5
217
  8
0
  6
CADDY_SOLID
 10
85.0
 20
118.25
 30
0.0
 11
85.0
 21
120.0
 31
0.0
  0
LINE
  5
218
  8
0
  6
CADDY_SOLID
 10
85.0
 20
115.0
 30
0.0
 11
85.0
 21
116.75
 31
0.0
  0
ATTDEF
  5
21B
  8
2
 10
63.24345402069092
 20
116.3000030517578
 30
0.0
 40
2.450004577636719
  1
X38
 41
0.9
  7
CADDY_VECTORFONT1P
 72
     2
 11
80.04999542236328
 21
116.3000030517578
 31
0.0
  3
Produkt (-)
  2
$TAG160010
 70
     1
  0
ATTDEF
  5
21D
  8
2
 10
84.09999084472656
 20
119.1999969482422
 30
0.0
 40
2.450004577636719
  1
2
 50
90.0
 41
0.9
  7
CADDY_VECTORFONT1P
  3
Klemmenummer
  2
$TAG160400
 70
     0
  0
ATTDEF
  5
21F
  8
0
 10
87.59999084472656
 20
119.1999969482422
 30
0.0
 40
2.450004577636719
  1
1
 50
90.0
 41
0.9
  7
CADDY_VECTORFONT1P
  3
Sorteringsindeks
  2
$TAG160410
 70
     1
  0
ATTDEF
  5
221
  8
2
 10
62.75173810195923
 20
112.8000030517578
 30
0.0
 40
2.450004577636719
  1

 41
0.9
  7
CADDY_VECTORFONT1P
 72
     2
 11
80.04999542236328
 21
112.8000030517578
 31
0.0
  3
Beskrivelse 00
  2
$TAG160030
 70
     1
  0
ATTDEF
  5
223
  8
2
 10
62.50700553283691
 20
107.8000030517578
 30
0.0
 40
2.450004577636719
  1
AB1RR235U2GR
 41
0.9
  7
CADDY_VECTORFONT1P
 72
     2
 11
80.05001831054688
 21
107.8000030517578
 31
0.0
  3
Type
  2
$TAG160040
 70
     1
  0
ATTDEF
  5
225
  8
2
 10
62.50699027404785
 20
123.3000030517578
 30
0.0
 40
2.450004577636719
  1
=
 41
0.9
  7
CADDY_VECTORFONT1P
 72
     2
 11
80.05000305175781
 21
123.3000030517578
 31
0.0
  3
Funktion (=)
  2
$TAG140020
 70
     1
  0
ATTDEF
  5
227
  8
2
 10
62.50698264465332
 20
119.8000030517578
 30
0.0
 40
2.450004577636719
  1
+
 41
0.9
  7
CADDY_VECTORFONT1P
 72
     2
 11
80.04999542236328
 21
119.8000030517578
 31
0.0
  3
Placering (+)
  2
$TAG140050
 70
     1
  0
ENDBLK
  8
0
  0
BLOCK
  8
0
  2
BLK20
 70
     2
 10
0.0
 20
0.0
 30
0.0
  0
CIRCLE
  5
232
  8
0
  6
CADDY_SOLID
 10
160.0
 20
117.5
 30
0.0
 40
0.75
  0
LINE
  5
233
  8
0
  6
CADDY_SOLID
 10
160.0
 20
118.25
 30
0.0
 11
160.0
 21
120.0
 31
0.0
  0
LINE
  5
234
  8
0
  6
CADDY_SOLID
 10
160.0
 20
115.0
 30
0.0
 11
160.0
 21
116.75
 31
0.0
  0
ATTDEF
  5
237
  8
2
 10
138.2434769088745
 20
116.3000030517578
 30
0.0
 40
2.450004577636719
  1
#00000081
 41
0.9
  7
CADDY_VECTORFONT1P
 72
     2
 11
155.0500183105469
 21
116.3000030517578
 31
0.0
  3
Produkt (-)
  2
$TAG160010
 70
     1
  0
ATTDEF
  5
239
  8
2
 10
159.0999908447266
 20
119.1999969482422
 30
0.0
 40
2.450004577636719
  1
4
 50
90.0
 41
0.9
  7
CADDY_VECTORFONT1P
  3
Klemmenummer
  2
$TAG160400
 70
     0
  0
ATTDEF
  5
23B
  8
0
 10
162.5999908447266
 20
119.1999969482422
 30
0.0
 40
2.450004577636719
  1
2
 50
90.0
 41
0.9
  7
CADDY_VECTORFONT1P
  3
Sorteringsindeks
  2
$TAG160410
 70
     1
  0
ATTDEF
  5
23D
  8
2
 10
137.7517457313538
 20
112.8000030517578
 30
0.0
 40
2.450004577636719
  1

 41
0.9
  7
CADDY_VECTORFONT1P
 72
     2
 11
155.0500030517578
 21
112.8000030517578
 31
0.0
  3
Beskrivelse 00
  2
$TAG160030
 70
     1
  0
ATTDEF
  5
23F
  8
2
 10
137.5070055328369
 20
107.8000030517578
 30
0.0
 40
2.450004577636719
  1
AB1RR235U2GR
 41
0.9
  7
CADDY_VECTORFONT1P
 72
     2
 11
155.0500183105469
 21
107.8000030517578
 31
0.0
  3
Type
  2
$TAG160040
 70
     1
  0
ATTDEF
  5
241
  8
2
 10
137.5069902740478
 20
123.3000030517578
 30
0.0
 40
2.450004577636719
  1
=
 41
0.9
  7
CADDY_VECTORFONT1P
 72
     2
 11
155.0500030517578
 21
123.3000030517578
 31
0.0
  3
Funktion (=)
  2
$TAG140020
 70
     1
  0
ATTDEF
  5
243
  8
2
 10
137.5069750152588
 20
119.8000030517578
 30
0.0
 40
2.450004577636719
  1
+
 41
0.9
  7
CADDY_VECTORFONT1P
 72
     2
 11
155.0499877929688
 21
119.8000030517578
 31
0.0
  3
Placering (+)
  2
$TAG140050
 70
     1
  0
ENDBLK
  8
0
  0
BLOCK
  8
0
  2
BLK21
 70
     0
 10
0.0
 20
0.0
 30
0.0
  0
TEXT
  5
251
  8
0
 10
263.0
 20
55.70000076293945
 30
0.0
 40
2.450000762939453
  1
38.3
 41
0.9
  7
CADDY_VECTORFONT1P
  0
TEXT
  5
252
  8
0
 10
265.1710041091919
 20
60.70000076293945
 30
0.0
 40
2.450000762939453
  1
S
 41
0.9
  7
CADDY_VECTORFONT1P
 72
     1
 11
266.1500244140625
 21
60.70000076293945
 31
0.0
  0
TEXT
  5
253
  8
0
 10
272.5209796951294
 20
60.70000076293945
 30
0.0
 40
2.450000762939453
  1
B
 41
0.9
  7
CADDY_VECTORFONT1P
 72
     1
 11
273.5
 21
60.70000076293945
 31
0.0
  0
LINE
  5
254
  8
0
  6
CADDY_SOLID
 10
262.2999877929688
 20
60.0
 30
0.0
 11
277.0
 21
60.0
 31
0.0
  0
LINE
  5
255
  8
0
  6
CADDY_SOLID
 10
270.0
 20
63.5
 30
0.0
 11
270.0
 21
45.0
 31
0.0
  0
ENDBLK
  8
0
  0
ENDSEC
  0
SECTION
  2
ENTITIES
  0
INSERT
  5
43
  8
0
  2
BLK1
 10
0.0
 20
0.0
 30
1.0
  0
TEXT
  5
AC
  8
0
 10
17.04999923706055
 20
259.7000122070312
 30
0.0
 40
2.449981689453125
  1

 41
0.9
  7
CADDY_VECTORFONT1P
 72
     2
 11
17.04999923706055
 21
259.7000122070312
 31
0.0
  0
TEXT
  5
AD
  8
0
 10
17.04999923706055
 20
259.7000122070312
 30
0.0
 40
2.449981689453125
  1

 41
0.9
  7
CADDY_VECTORFONT1P
 72
     2
 11
17.04999923706055
 21
259.7000122070312
 31
0.0
  0
TEXT
  5
AE
  8
0
 10
17.04999923706055
 20
259.7000122070312
 30
0.0
 40
2.449981689453125
  1

 41
0.9
  7
CADDY_VECTORFONT1P
 72
     2
 11
17.04999923706055
 21
259.7000122070312
 31
0.0
  0
INSERT
  5
B2
  8
0
 66
     1
  2
BLK2
 10
0.0
 20
0.0
 30
1.0
  0
ATTRIB
  5
B5
  8
0
 10
29.26500701904297
 20
260.9000244140625
 30
0.0
 40
2.449981689453125
  1
0708
 41
0.9
  7
CADDY_VECTORFONT1P
  2
$TAG160010
 70
     0
  0
ATTRIB
  5
B8
  8
0
 10
17.24828432006836
 20
258.9500122070312
 30
0.0
 40
2.449981689453125
  1
37.9
 41
0.9
  7
CADDY_VECTORFONT1P
 72
     2
 11
22.78499794006348
 21
258.9500122070312
 31
0.0
  2
$TAG160500
 70
     0
  0
ATTRIB
  5
BA
  8
0
 10
29.26500701904297
 20
267.9000244140625
 30
0.0
 40
2.449981689453125
  1
=
 41
0.9
  7
CADDY_VECTORFONT1P
  2
$TAG140020
 70
     1
  0
ATTRIB
  5
BC
  8
0
 10
29.26500701904297
 20
264.4000244140625
 30
0.0
 40
2.449981689453125
  1
+
 41
0.9
  7
CADDY_VECTORFONT1P
  2
$TAG140050
 70
     1
  0
SEQEND
  5
B6
  8
0
  0
INSERT
  5
C1
  8
0
 66
     1
  2
BLK3
 10
0.0
 20
0.0
 30
1.0
  0
ATTRIB
  5
C4
  8
0
 10
381.2671334106445
 20
260.9000244140625
 30
0.0
 40
2.449981689453125
  1
0708
 41
0.9
  7
CADDY_VECTORFONT1P
 72
     2
 11
387.7850646972656
 21
260.9000244140625
 31
0.0
  2
$TAG160010
 70
     0
  0
ATTRIB
  5
C7
  8
0
 10
393.3650207519531
 20
258.9500122070312
 30
0.0
 40
2.449981689453125
  1

 41
0.9
  7
CADDY_VECTORFONT1P
  2
$TAG160500
 70
     0
  0
ATTRIB
  5
C9
  8
0
 10
386.4377587310791
 20
267.9000244140625
 30
0.0
 40
2.449981689453125
  1
=
 41
0.9
  7
CADDY_VECTORFONT1P
 72
     2
 11
387.7850036621094
 21
267.9000244140625
 31
0.0
  2
$TAG140020
 70
     1
  0
ATTRIB
  5
CB
  8
0
 10
386.4377587310791
 20
264.4000244140625
 30
0.0
 40
2.449981689453125
  1
+
 41
0.9
  7
CADDY_VECTORFONT1P
 72
     2
 11
387.7850036621094
 21
264.4000244140625
 31
0.0
  2
$TAG140050
 70
     1
  0
SEQEND
  5
C5
  8
0
  0
LINE
  5
CD
  8
0
  6
CADDY_SOLID
 10
27.5
 20
260.0
 30
0.0
 11
75.0
 21
260.0
 31
0.0
  0
LINE
  5
CE
  8
0
  6
CADDY_SOLID
 10
270.0
 20
260.0
 30
0.0
 11
75.0
 21
260.0
 31
0.0
  0
LINE
  5
CF
  8
0
  6
CADDY_SOLID
 10
270.0
 20
260.0
 30
0.0
 11
392.5
 21
260.0
 31
0.0
  0
TEXT
  5
D0
  8
0
 10
142.1700425617218
 20
45.70000076293945
 30
0.0
 40
2.450000762939453
  1
Klar signal
 41
0.9
  7
CADDY_VECTORFONT1P
 72
     1
 11
150.0
 21
45.70000076293945
 31
0.0
  0
LINE
  5
D1
  8
0
  6
CADDY_SOLID
 10
110.0
 20
240.0
 30
0.0
 11
110.0
 21
250.0
 31
0.0
  0
TEXT
  5
D2
  8
0
 10
109.5
 20
242.71625
 30
0.0
 40
1.75
  1
3801
 50
90.0
 41
0.9
  7
CADDY_VECTORFONT1P
 72
     1
 11
109.5
 21
245.0
 31
0.0
  0
CIRCLE
  5
D3
  8
0
 10
75.0
 20
260.0
 30
0.0
 40
0.8
  0
CIRCLE
  5
D4
  8
0
 10
75.0
 20
260.0
 30
0.0
 40
0.6
  0
CIRCLE
  5
D5
  8
0
 10
75.0
 20
260.0
 30
0.0
 40
0.4
  0
LINE
  5
D6
  8
0
  6
CADDY_SOLID
 10
85.0
 20
250.0
 30
0.0
 11
110.0
 21
250.0
 31
0.0
  0
TEXT
  5
D7
  8
0
 10
95.21625
 20
250.5
 30
0.0
 40
1.75
  1
3801
 41
0.9
  7
CADDY_VECTORFONT1P
 72
     1
 11
97.5
 21
250.5
 31
0.0
  0
INSERT
  5
DB
  8
0
 66
     1
  2
BLK4
 10
0.0
 20
0.0
 30
1.0
  0
ATTRIB
  5
DF
  8
0
 10
135.521816078186
 20
173.8000030517578
 30
0.0
 40
2.449996948242188
  1
K3806
 41
0.9
  7
CADDY_VECTORFONT1P
 72
     2
 11
144.0000305175781
 21
173.8000030517578
 31
0.0
  2
$TAG160010
 70
     0
  0
ATTRIB
  5
E2
  8
0
 10
138.4632671554565
 20
170.3000030517578
 30
0.0
 40
2.449996948242188
  1
38.6
 41
0.9
  7
CADDY_VECTORFONT1P
 72
     2
 11
144.0000152587891
 21
170.3000030517578
 31
0.0
  2
$TAG160500
 70
     0
  0
ATTRIB
  5
E4
  8
0
 10
149.0500030517578
 20
179.3000030517578
 30
0.0
 40
2.449996948242188
  1
11
 50
90.0
 41
0.9
  7
CADDY_VECTORFONT1P
  2
$TAG175000_00
 70
     0
  0
ATTRIB
  5
E6
  8
0
 10
149.0500030517578
 20
168.0842276626587
 30
0.0
 40
2.449996948242188
  1
14
 50
90.0
 41
0.9
  7
CADDY_VECTORFONT1P
 72
     2
 11
149.0500030517578
 21
170.9000091552734
 31
0.0
  2
$TAG175000_01
 70
     0
  0
SEQEND
  5
E0
  8
0
  0
LINE
  5
E8
  8
0
  6
CADDY_SOLID
 10
150.0
 20
220.0
 30
0.0
 11
160.0
 21
220.0
 31
0.0
  0
TEXT
  5
E9
  8
0
 10
152.541425
 20
220.5
 30
0.0
 40
1.75
  1
3803
 41
0.9
  7
CADDY_VECTORFONT1P
 72
     1
 11
155.0
 21
220.5
 31
0.0
  0
LINE
  5
EA
  8
0
  6
CADDY_SOLID
 10
150.0
 20
180.0
 30
0.0
 11
150.0
 21
220.0
 31
0.0
  0
TEXT
  5
EB
  8
0
 10
149.5
 20
197.541425
 30
0.0
 40
1.75
  1
3803
 50
90.0
 41
0.9
  7
CADDY_VECTORFONT1P
 72
     1
 11
149.5
 21
200.0
 31
0.0
  0
TEXT
  5
EC
  8
0
 10
137.8559587182999
 20
40.70000076293945
 30
0.0
 40
2.450000762939453
  1
fra kassepakker
 41
0.9
  7
CADDY_VECTORFONT1P
 72
     1
 11
150.0
 21
40.70000076293945
 31
0.0
  0
TEXT
  5
ED
  8
0
 10
72.1700425617218
 20
45.70000076293945
 30
0.0
 40
2.450000762939453
  1
Klar signal
 41
0.9
  7
CADDY_VECTORFONT1P
 72
     1
 11
80.0
 21
45.70000076293945
 31
0.0
  0
TEXT
  5
EE
  8
0
 10
61.11527161922455
 20
40.70000076293945
 30
0.0
 40
2.450000762939453
  1
fra bånd før kassepakker
 41
0.9
  7
CADDY_VECTORFONT1P
 72
     1
 11
80.0
 21
40.70000076293945
 31
0.0
  0
INSERT
  5
F2
  8
0
 66
     1
  2
BLK5
 10
0.0
 20
0.0
 30
1.0
  0
ATTRIB
  5
F3
  8
0
 10
95.69999694824219
 20
95.69999694824219
 30
0.0
 40
2.450004577636719
  1
W3801
 41
0.9
  7
CADDY_VECTORFONT1P
  2
$TAG160010
 70
     0
  0
ATTRIB
  5
F6
  8
0
 10
95.69999694824219
 20
90.69999694824219
 30
0.0
 40
2.450004577636719
  1

 41
0.9
  7
CADDY_VECTORFONT1P
  2
$TAG160030
 70
     1
  0
ATTRIB
  5
F8
  8
0
 10
95.69999694824219
 20
85.69999694824219
 30
0.0
 40
2.450004577636719
  1

 41
0.9
  7
CADDY_VECTORFONT1P
  2
$TAG160200
 70
     1
  0
ATTRIB
  5
FA
  8
0
 10
95.69999694824219
 20
80.69999694824219
 30
0.0
 40
2.450004577636719
  1

 41
0.9
  7
CADDY_VECTORFONT1P
  2
$TAG160040
 70
     1
  0
ATTRIB
  5
FC
  8
0
 10
95.69999694824219
 20
75.69999694824219
 30
0.0
 40
2.450004577636719
  1

 41
0.9
  7
CADDY_VECTORFONT1P
  2
$TAG160101
 70
     1
  0
ATTRIB
  5
FE
  8
0
 10
75.69999694824219
 20
95.69999694824219
 30
0.0
 40
2.450004577636719
  1
1
 41
0.9
  7
CADDY_VECTORFONT1P
  2
$TAG160210
 70
     0
  0
ATTRIB
  5
100
  8
0
 10
75.69999694824219
 20
90.69999694824219
 30
0.0
 40
2.450004577636719
  1

 41
0.9
  7
CADDY_VECTORFONT1P
  2
$TAG160220
 70
     1
  0
ATTRIB
  5
102
  8
0
 10
75.69999694824219
 20
85.69999694824219
 30
0.0
 40
2.450004577636719
  1

 41
0.9
  7
CADDY_VECTORFONT1P
  2
$TAG160230
 70
     1
  0
SEQEND
  5
F4
  8
0
  0
INSERT
  5
108
  8
0
 66
     1
  2
BLK6
 10
0.0
 20
0.0
 30
1.0
  0
ATTRIB
  5
109
  8
0
 10
95.69999694824219
 20
95.69999694824219
 30
0.0
 40
2.450004577636719
  1
W3801
 41
0.9
  7
CADDY_VECTORFONT1P
  2
$TAG160010
 70
     0
  0
ATTRIB
  5
10C
  8
0
 10
95.69999694824219
 20
90.69999694824219
 30
0.0
 40
2.450004577636719
  1

 41
0.9
  7
CADDY_VECTORFONT1P
  2
$TAG160030
 70
     0
  0
ATTRIB
  5
10E
  8
0
 10
95.69999694824219
 20
85.69999694824219
 30
0.0
 40
2.450004577636719
  1

 41
0.9
  7
CADDY_VECTORFONT1P
  2
$TAG160200
 70
     0
  0
ATTRIB
  5
110
  8
0
 10
95.69999694824219
 20
80.69999694824219
 30
0.0
 40
2.450004577636719
  1

 41
0.9
  7
CADDY_VECTORFONT1P
  2
$TAG160040
 70
     1
  0
ATTRIB
  5
112
  8
0
 10
95.69999694824219
 20
75.69999694824219
 30
0.0
 40
2.450004577636719
  1

 41
0.9
  7
CADDY_VECTORFONT1P
  2
$TAG160101
 70
     1
  0
ATTRIB
  5
114
  8
0
 10
85.69999694824219
 20
95.69999694824219
 30
0.0
 40
2.450004577636719
  1
2
 41
0.9
  7
CADDY_VECTORFONT1P
  2
$TAG160210
 70
     0
  0
ATTRIB
  5
116
  8
0
 10
85.69999694824219
 20
90.69999694824219
 30
0.0
 40
2.450004577636719
  1

 41
0.9
  7
CADDY_VECTORFONT1P
  2
$TAG160220
 70
     1
  0
ATTRIB
  5
118
  8
0
 10
85.69999694824219
 20
85.69999694824219
 30
0.0
 40
2.450004577636719
  1

 41
0.9
  7
CADDY_VECTORFONT1P
  2
$TAG160230
 70
     1
  0
SEQEND
  5
10A
  8
0
  0
LINE
  5
11B
  8
0
  6
CADDY_SOLID
 10
65.0
 20
95.0
 30
0.0
 11
95.0
 21
95.0
 31
0.0
  0
INSERT
  5
11F
  8
0
 66
     1
  2
BLK7
 10
0.0
 20
0.0
 30
1.0
  0
ATTRIB
  5
120
  8
0
 10
170.6999969482422
 20
95.69999694824219
 30
0.0
 40
2.450004577636719
  1
W3802
 41
0.9
  7
CADDY_VECTORFONT1P
  2
$TAG160010
 70
     1
  0
ATTRIB
  5
123
  8
0
 10
170.6999969482422
 20
90.69999694824219
 30
0.0
 40
2.450004577636719
  1

 41
0.9
  7
CADDY_VECTORFONT1P
  2
$TAG160030
 70
     1
  0
ATTRIB
  5
125
  8
0
 10
170.6999969482422
 20
85.69999694824219
 30
0.0
 40
2.450004577636719
  1

 41
0.9
  7
CADDY_VECTORFONT1P
  2
$TAG160200
 70
     1
  0
ATTRIB
  5
127
  8
0
 10
170.6999969482422
 20
80.69999694824219
 30
0.0
 40
2.450004577636719
  1

 41
0.9
  7
CADDY_VECTORFONT1P
  2
$TAG160040
 70
     1
  0
ATTRIB
  5
129
  8
0
 10
170.6999969482422
 20
75.69999694824219
 30
0.0
 40
2.450004577636719
  1

 41
0.9
  7
CADDY_VECTORFONT1P
  2
$TAG160101
 70
     1
  0
ATTRIB
  5
12B
  8
0
 10
150.6999969482422
 20
95.69999694824219
 30
0.0
 40
2.450004577636719
  1
1
 41
0.9
  7
CADDY_VECTORFONT1P
  2
$TAG160210
 70
     0
  0
ATTRIB
  5
12D
  8
0
 10
150.6999969482422
 20
90.69999694824219
 30
0.0
 40
2.450004577636719
  1

 41
0.9
  7
CADDY_VECTORFONT1P
  2
$TAG160220
 70
     1
  0
ATTRIB
  5
12F
  8
0
 10
150.6999969482422
 20
85.69999694824219
 30
0.0
 40
2.450004577636719
  1

 41
0.9
  7
CADDY_VECTORFONT1P
  2
$TAG160230
 70
     1
  0
SEQEND
  5
121
  8
0
  0
INSERT
  5
135
  8
0
 66
     1
  2
BLK8
 10
0.0
 20
0.0
 30
1.0
  0
ATTRIB
  5
136
  8
0
 10
170.6999969482422
 20
95.69999694824219
 30
0.0
 40
2.450004577636719
  1
W3802
 41
0.9
  7
CADDY_VECTORFONT1P
  2
$TAG160010
 70
     0
  0
ATTRIB
  5
139
  8
0
 10
170.6999969482422
 20
90.69999694824219
 30
0.0
 40
2.450004577636719
  1

 41
0.9
  7
CADDY_VECTORFONT1P
  2
$TAG160030
 70
     0
  0
ATTRIB
  5
13B
  8
0
 10
170.6999969482422
 20
85.69999694824219
 30
0.0
 40
2.450004577636719
  1

 41
0.9
  7
CADDY_VECTORFONT1P
  2
$TAG160200
 70
     0
  0
ATTRIB
  5
13D
  8
0
 10
170.6999969482422
 20
80.69999694824219
 30
0.0
 40
2.450004577636719
  1

 41
0.9
  7
CADDY_VECTORFONT1P
  2
$TAG160040
 70
     1
  0
ATTRIB
  5
13F
  8
0
 10
170.6999969482422
 20
75.69999694824219
 30
0.0
 40
2.450004577636719
  1

 41
0.9
  7
CADDY_VECTORFONT1P
  2
$TAG160101
 70
     1
  0
ATTRIB
  5
141
  8
0
 10
160.6999969482422
 20
95.69999694824219
 30
0.0
 40
2.450004577636719
  1
2
 41
0.9
  7
CADDY_VECTORFONT1P
  2
$TAG160210
 70
     0
  0
ATTRIB
  5
143
  8
0
 10
160.6999969482422
 20
90.69999694824219
 30
0.0
 40
2.450004577636719
  1

 41
0.9
  7
CADDY_VECTORFONT1P
  2
$TAG160220
 70
     1
  0
ATTRIB
  5
145
  8
0
 10
160.6999969482422
 20
85.69999694824219
 30
0.0
 40
2.450004577636719
  1

 41
0.9
  7
CADDY_VECTORFONT1P
  2
$TAG160230
 70
     1
  0
SEQEND
  5
137
  8
0
  0
LINE
  5
148
  8
0
  6
CADDY_SOLID
 10
140.0
 20
95.0
 30
0.0
 11
170.0
 21
95.0
 31
0.0
  0
INSERT
  5
14C
  8
0
 66
     1
  2
BLK9
 10
0.0
 20
0.0
 30
1.0
  0
ATTRIB
  5
153
  8
0
 10
254.0217591590881
 20
88.80000305175781
 30
0.0
 40
2.450004577636719
  1
K3806
 41
0.9
  7
CADDY_VECTORFONT1P
 72
     2
 11
262.5
 21
88.80000305175781
 31
0.0
  2
$TAG160010
 70
     0
  0
ATTRIB
  5
156
  8
0
 10
262.5000305175781
 20
81.80000305175781
 30
0.0
 40
2.450004577636719
  1

 41
0.9
  7
CADDY_VECTORFONT1P
 72
     2
 11
262.5000305175781
 21
81.80000305175781
 31
0.0
  2
$TAG160040
 70
     1
  0
ATTRIB
  5
158
  8
0
 10
262.5000305175781
 20
85.30000305175781
 30
0.0
 40
2.450004577636719
  1

 41
0.9
  7
CADDY_VECTORFONT1P
 72
     2
 11
262.5000305175781
 21
85.30000305175781
 31
0.0
  2
$TAG160030
 70
     0
  0
ATTRIB
  5
15A
  8
0
 10
269.0499877929688
 20
93.40000915527344
 30
0.0
 40
2.450004577636719
  1
A1
 50
90.0
 41
0.9
  7
CADDY_VECTORFONT1P
  2
$TAG175000_00
 70
     0
  0
ATTRIB
  5
15C
  8
0
 10
269.0499877929688
 20
82.33894276046753
 30
0.0
 40
2.450004577636719
  1
A2
 50
90.0
 41
0.9
  7
CADDY_VECTORFONT1P
 72
     2
 11
269.0499877929688
 21
85.9000244140625
 31
0.0
  2
$TAG175000_01
 70
     0
  0
SEQEND
  5
154
  8
0
  0
LINE
  5
15E
  8
0
  6
CADDY_SOLID
 10
270.0
 20
70.0
 30
0.0
 11
270.0
 21
85.0
 31
0.0
  0
TEXT
  5
15F
  8
0
 10
269.5
 20
77.5
 30
0.0
 40
1.75
  1

 50
90.0
 41
0.9
  7
CADDY_VECTORFONT1P
 72
     1
 11
269.5
 21
77.5
 31
0.0
  0
LINE
  5
160
  8
0
  6
CADDY_SOLID
 10
270.0
 20
95.0
 30
0.0
 11
270.0
 21
220.0
 31
0.0
  0
TEXT
  5
161
  8
0
 10
269.5
 20
154.962675
 30
0.0
 40
1.75
  1
3804
 50
90.0
 41
0.9
  7
CADDY_VECTORFONT1P
 72
     1
 11
269.5
 21
157.5
 31
0.0
  0
INSERT
  5
165
  8
0
 66
     1
  2
BLK10
 10
0.0
 20
0.0
 30
1.0
  0
ATTRIB
  5
168
  8
0
 10
231.7649688720703
 20
70.90000915527344
 30
0.0
 40
2.450004577636719
  1
0707
 41
0.9
  7
CADDY_VECTORFONT1P
  2
$TAG160010
 70
     0
  0
ATTRIB
  5
16B
  8
0
 10
219.7482383171082
 20
68.94999694824219
 30
0.0
 40
2.450004577636719
  1
37.8
 41
0.9
  7
CADDY_VECTORFONT1P
 72
     2
 11
225.2850036621094
 21
68.94999694824219
 31
0.0
  2
$TAG160500
 70
     0
  0
ATTRIB
  5
16D
  8
0
 10
231.7649688720703
 20
77.90000915527344
 30
0.0
 40
2.450004577636719
  1
=
 41
0.9
  7
CADDY_VECTORFONT1P
  2
$TAG140020
 70
     1
  0
ATTRIB
  5
16F
  8
0
 10
231.7649688720703
 20
74.40000915527344
 30
0.0
 40
2.450004577636719
  1
+
 41
0.9
  7
CADDY_VECTORFONT1P
  2
$TAG140050
 70
     1
  0
SEQEND
  5
169
  8
0
  0
INSERT
  5
174
  8
0
 66
     1
  2
BLK11
 10
0.0
 20
0.0
 30
1.0
  0
ATTRIB
  5
177
  8
0
 10
303.7604575065613
 20
70.90000915527344
 30
0.0
 40
2.450004577636719
  1
0707
 41
0.9
  7
CADDY_VECTORFONT1P
 72
     2
 11
310.2850646972656
 21
70.90000915527344
 31
0.0
  2
$TAG160010
 70
     0
  0
ATTRIB
  5
17A
  8
0
 10
315.8650207519531
 20
68.94999694824219
 30
0.0
 40
2.450004577636719
  1

 41
0.9
  7
CADDY_VECTORFONT1P
  2
$TAG160500
 70
     0
  0
ATTRIB
  5
17C
  8
0
 10
308.9377461448669
 20
77.90000915527344
 30
0.0
 40
2.450004577636719
  1
=
 41
0.9
  7
CADDY_VECTORFONT1P
 72
     2
 11
310.2850036621094
 21
77.90000915527344
 31
0.0
  2
$TAG140020
 70
     1
  0
ATTRIB
  5
17E
  8
0
 10
308.9377461448669
 20
74.40000915527344
 30
0.0
 40
2.450004577636719
  1
+
 41
0.9
  7
CADDY_VECTORFONT1P
 72
     2
 11
310.2850036621094
 21
74.40000915527344
 31
0.0
  2
$TAG140050
 70
     1
  0
SEQEND
  5
178
  8
0
  0
CIRCLE
  5
180
  8
0
 10
270.0
 20
70.0
 30
0.0
 40
0.8
  0
CIRCLE
  5
181
  8
0
 10
270.0
 20
70.0
 30
0.0
 40
0.6
  0
CIRCLE
  5
182
  8
0
 10
270.0
 20
70.0
 30
0.0
 40
0.4
  0
LINE
  5
183
  8
0
  6
CADDY_SOLID
 10
230.0
 20
70.0
 30
0.0
 11
270.0
 21
70.0
 31
0.0
  0
TEXT
  5
184
  8
0
 10
292.5
 20
70.5
 30
0.0
 40
1.75
  1

 41
0.9
  7
CADDY_VECTORFONT1P
 72
     1
 11
292.5
 21
70.5
 31
0.0
  0
LINE
  5
185
  8
0
  6
CADDY_SOLID
 10
270.0
 20
70.0
 30
0.0
 11
315.0
 21
70.0
 31
0.0
  0
TEXT
  5
186
  8
0
 10
292.5
 20
70.5
 30
0.0
 40
1.75
  1

 41
0.9
  7
CADDY_VECTORFONT1P
 72
     1
 11
292.5
 21
70.5
 31
0.0
  0
LINE
  5
187
  8
0
  6
CADDY_SOLID
 10
75.0
 20
94.5
 30
0.0
 11
75.0
 21
80.0
 31
0.0
  0
LINE
  5
188
  8
0
  6
CADDY_SOLID
 10
85.0
 20
80.0
 30
0.0
 11
85.0
 21
94.5
 31
0.0
  0
TEXT
  5
189
  8
0
 10
94.29675684394836
 20
90.69999694824219
 30
0.0
 40
2.450004577636719
  1
4x1,5 jz
 41
0.9
  7
CADDY_VECTORFONT1P
 72
     1
 11
100.0
 21
90.69999694824219
 31
0.0
  0
TEXT
  5
18A
  8
0
 10
169.2967568439484
 20
90.69999694824219
 30
0.0
 40
2.450004577636719
  1
4x1,5 jz
 41
0.9
  7
CADDY_VECTORFONT1P
 72
     1
 11
175.0
 21
90.69999694824219
 31
0.0
  0
TEXT
  5
18B
  8
0
 10
262.1700425617218
 20
40.70000076293945
 30
0.0
 40
2.450000762939453
  1
Klar signal
 41
0.9
  7
CADDY_VECTORFONT1P
 72
     1
 11
270.0
 21
40.70000076293945
 31
0.0
  0
TEXT
  5
18C
  8
0
 10
257.8559587182999
 20
35.70000076293945
 30
0.0
 40
2.450000762939453
  1
fra kassepakker
 41
0.9
  7
CADDY_VECTORFONT1P
 72
     1
 11
270.0
 21
35.70000076293945
 31
0.0
  0
INSERT
  5
190
  8
0
 66
     1
  2
BLK12
 10
0.0
 20
0.0
 30
1.0
  0
ATTRIB
  5
191
  8
0
 10
106.7999954223633
 20
234.6999969482422
 30
0.0
 40
2.449996948242188
  1

 41
0.9
  7
CADDY_VECTORFONT1P
 72
     2
 11
106.7999954223633
 21
234.6999969482422
 31
0.0
  2
$TAG160030
 70
     0
  0
ATTRIB
  5
194
  8
0
 10
106.7999954223633
 20
231.1999969482422
 30
0.0
 40
2.449996948242188
  1

 41
0.9
  7
CADDY_VECTORFONT1P
 72
     2
 11
106.7999954223633
 21
231.1999969482422
 31
0.0
  2
$TAG160040
 70
     0
  0
ATTRIB
  5
199
  8
0
 10
108.1929650009155
 20
230.1499938964844
 30
0.0
 40
2.449996948242188
  1
D1803-A2
 41
0.9
  7
CADDY_VECTORFONT1P
 72
     2
 11
121.8000030517578
 21
230.1499938964844
 31
0.0
  2
$TAG175100
 70
     0
  0
ATTRIB
  5
19B
  8
0
 10
104.2999954223633
 20
224.1499938964844
 30
0.0
 40
2.449996948242188
  1

 41
0.9
  7
CADDY_VECTORFONT1P
 72
     2
 11
104.2999954223633
 21
224.1499938964844
 31
0.0
  2
$TAG175110
 70
     0
  0
ATTRIB
  5
19D
  8
0
 10
104.2999954223633
 20
221.1499938964844
 30
0.0
 40
2.449996948242188
  1

 41
0.9
  7
CADDY_VECTORFONT1P
 72
     2
 11
104.2999954223633
 21
221.1499938964844
 31
0.0
  2
$TAG175120
 70
     0
  0
ATTRIB
  5
19F
  8
0
 10
104.2999954223633
 20
217.6499938964844
 30
0.0
 40
2.449996948242188
  1

 41
0.9
  7
CADDY_VECTORFONT1P
 72
     2
 11
104.2999954223633
 21
217.6499938964844
 31
0.0
  2
$TAG160500
 70
     0
  0
ATTRIB
  5
1B4
  8
0
 10
109.0500030517578
 20
238.3999938964844
 30
0.0
 40
2.449996948242188
  1

 50
90.0
 41
0.9
  7
CADDY_VECTORFONT1P
  2
$TAG175000_00
 70
     0
  0
ATTRIB
  5
1B6
  8
0
 10
85.8646031463623
 20
229.5249938964844
 30
0.0
 40
2.449996948242188
  1
#00000031
 41
0.9
  7
CADDY_VECTORFONT1P
 72
     2
 11
100.9600143432617
 21
229.5249938964844
 31
0.0
  2
$TAG160010
 70
     1
  0
SEQEND
  5
192
  8
0
  0
INSERT
  5
1BB
  8
0
 66
     1
  2
BLK15
 10
0.0
 20
0.0
 30
1.0
  0
ATTRIB
  5
1CD
  8
0
 10
269.0499877929688
 20
220.9000244140625
 30
0.0
 40
2.449996948242188
  1

 50
90.0
 41
0.9
  7
CADDY_VECTORFONT1P
 72
     2
 11
269.0499877929688
 21
220.9000244140625
 31
0.0
  2
$TAG175000_00
 70
     0
  0
ATTRIB
  5
1D0
  8
0
 10
258.1774842437744
 20
226.1999969482422
 30
0.0
 40
2.449996948242188
  1
D1807-A3
 41
0.9
  7
CADDY_VECTORFONT1P
 72
     2
 11
271.7999572753906
 21
226.1999969482422
 31
0.0
  2
$TAG175100
 70
     0
  0
ATTRIB
  5
1D2
  8
0
 10
251.8000030517578
 20
223.6999969482422
 30
0.0
 40
2.449996948242188
  1

 41
0.9
  7
CADDY_VECTORFONT1P
 72
     2
 11
251.8000030517578
 21
223.6999969482422
 31
0.0
  2
$TAG175110
 70
     0
  0
ATTRIB
  5
1D4
  8
0
 10
251.8000030517578
 20
220.1999969482422
 30
0.0
 40
2.449996948242188
  1

 41
0.9
  7
CADDY_VECTORFONT1P
 72
     2
 11
251.8000030517578
 21
220.1999969482422
 31
0.0
  2
$TAG175120
 70
     0
  0
ATTRIB
  5
1D6
  8
0
 10
232.8751013854981
 20
230.5500030517578
 30
0.0
 40
2.449996948242188
  1
#00000033
 41
0.9
  7
CADDY_VECTORFONT1P
 72
     2
 11
248.4600219726562
 21
230.5500030517578
 31
0.0
  2
$TAG160010
 70
     1
  0
ATTRIB
  5
1D8
  8
0
 10
248.4600067138672
 20
216.5500030517578
 30
0.0
 40
2.449996948242188
  1

 41
0.9
  7
CADDY_VECTORFONT1P
 72
     2
 11
248.4600067138672
 21
216.5500030517578
 31
0.0
  2
$TAG160500
 70
     0
  0
SEQEND
  5
1CE
  8
0
  0
INSERT
  5
1DD
  8
0
 66
     1
  2
BLK17
 10
0.0
 20
0.0
 30
1.0
  0
ATTRIB
  5
1E2
  8
2
 10
64.75798553466797
 20
116.3000030517578
 30
0.0
 40
2.450004577636719
  1
X38
 41
0.9
  7
CADDY_VECTORFONT1P
 72
     2
 11
70.04999542236328
 21
116.3000030517578
 31
0.0
  2
$TAG160010
 70
     0
  0
ATTRIB
  5
1E5
  8
2
 10
74.09999084472656
 20
119.1999969482422
 30
0.0
 40
2.450004577636719
  1
1
 50
90.0
 41
0.9
  7
CADDY_VECTORFONT1P
  2
$TAG160400
 70
     0
  0
ATTRIB
  5
1E7
  8
0
 10
77.59999084472656
 20
119.1999969482422
 30
0.0
 40
2.450004577636719
  1
1
 50
90.0
 41
0.9
  7
CADDY_VECTORFONT1P
  2
$TAG160410
 70
     1
  0
ATTRIB
  5
1E9
  8
2
 10
70.04999542236328
 20
112.8000030517578
 30
0.0
 40
2.450004577636719
  1

 41
0.9
  7
CADDY_VECTORFONT1P
 72
     2
 11
70.04999542236328
 21
112.8000030517578
 31
0.0
  2
$TAG160030
 70
     1
  0
ATTRIB
  5
1EB
  8
2
 10
48.34173749160767
 20
107.8000030517578
 30
0.0
 40
2.450004577636719
  1
AB1RR235U2GR
 41
0.9
  7
CADDY_VECTORFONT1P
 72
     2
 11
70.05000305175781
 21
107.8000030517578
 31
0.0
  2
$TAG160040
 70
     1
  0
ATTRIB
  5
1ED
  8
2
 10
68.70274553451539
 20
123.3000030517578
 30
0.0
 40
2.450004577636719
  1
=
 41
0.9
  7
CADDY_VECTORFONT1P
 72
     2
 11
70.05000305175781
 21
123.3000030517578
 31
0.0
  2
$TAG140020
 70
     1
  0
ATTRIB
  5
1EF
  8
2
 10
68.70273790512086
 20
119.8000030517578
 30
0.0
 40
2.450004577636719
  1
+
 41
0.9
  7
CADDY_VECTORFONT1P
 72
     2
 11
70.04999542236328
 21
119.8000030517578
 31
0.0
  2
$TAG140050
 70
     1
  0
SEQEND
  5
1E3
  8
0
  0
LINE
  5
1F1
  8
0
  6
CADDY_SOLID
 10
75.0
 20
107.5
 30
0.0
 11
75.0
 21
115.0
 31
0.0
  0
TEXT
  5
1F2
  8
0
 10
74.5
 20
111.25
 30
0.0
 40
1.75
  1

 50
90.0
 41
0.9
  7
CADDY_VECTORFONT1P
 72
     1
 11
74.5
 21
111.25
 31
0.0
  0
LINE
  5
1F3
  8
0
  6
CADDY_SOLID
 10
75.0
 20
120.0
 30
0.0
 11
75.0
 21
260.0
 31
0.0
  0
TEXT
  5
1F4
  8
0
 10
74.5
 20
187.5500875
 30
0.0
 40
1.75
  1
0708
 50
90.0
 41
0.9
  7
CADDY_VECTORFONT1P
 72
     1
 11
74.5
 21
190.0
 31
0.0
  0
LINE
  5
1F5
  8
0
  6
CADDY_SOLID
 10
75.0
 20
95.5
 30
0.0
 11
75.0
 21
115.0
 31
0.0
  0
LINE
  5
1F6
  8
0
  6
CADDY_SOLID
 10
75.0
 20
120.0
 30
0.0
 11
75.0
 21
260.0
 31
0.0
  0
INSERT
  5
1FA
  8
0
 66
     1
  2
BLK18
 10
0.0
 20
0.0
 30
1.0
  0
ATTRIB
  5
1FE
  8
2
 10
139.7579931640625
 20
116.3000030517578
 30
0.0
 40
2.450004577636719
  1
X38
 41
0.9
  7
CADDY_VECTORFONT1P
 72
     2
 11
145.0500030517578
 21
116.3000030517578
 31
0.0
  2
$TAG160010
 70
     0
  0
ATTRIB
  5
201
  8
2
 10
149.0999908447266
 20
119.1999969482422
 30
0.0
 40
2.450004577636719
  1
3
 50
90.0
 41
0.9
  7
CADDY_VECTORFONT1P
  2
$TAG160400
 70
     0
  0
ATTRIB
  5
203
  8
0
 10
152.5999908447266
 20
119.1999969482422
 30
0.0
 40
2.450004577636719
  1
1
 50
90.0
 41
0.9
  7
CADDY_VECTORFONT1P
  2
$TAG160410
 70
     1
  0
ATTRIB
  5
205
  8
2
 10
145.0500030517578
 20
112.8000030517578
 30
0.0
 40
2.450004577636719
  1

 41
0.9
  7
CADDY_VECTORFONT1P
 72
     2
 11
145.0500030517578
 21
112.8000030517578
 31
0.0
  2
$TAG160030
 70
     1
  0
ATTRIB
  5
207
  8
2
 10
123.3417527503967
 20
107.8000030517578
 30
0.0
 40
2.450004577636719
  1
AB1RR235U2GR
 41
0.9
  7
CADDY_VECTORFONT1P
 72
     2
 11
145.0500183105469
 21
107.8000030517578
 31
0.0
  2
$TAG160040
 70
     1
  0
ATTRIB
  5
209
  8
2
 10
143.7027455345154
 20
123.3000030517578
 30
0.0
 40
2.450004577636719
  1
=
 41
0.9
  7
CADDY_VECTORFONT1P
 72
     2
 11
145.0500030517578
 21
123.3000030517578
 31
0.0
  2
$TAG140020
 70
     1
  0
ATTRIB
  5
20B
  8
2
 10
143.7027302757263
 20
119.8000030517578
 30
0.0
 40
2.450004577636719
  1
+
 41
0.9
  7
CADDY_VECTORFONT1P
 72
     2
 11
145.0499877929688
 21
119.8000030517578
 31
0.0
  2
$TAG140050
 70
     1
  0
SEQEND
  5
1FF
  8
0
  0
LINE
  5
20D
  8
0
  6
CADDY_SOLID
 10
150.0
 20
107.5
 30
0.0
 11
150.0
 21
115.0
 31
0.0
  0
TEXT
  5
20E
  8
0
 10
149.5
 20
111.25
 30
0.0
 40
1.75
  1

 50
90.0
 41
0.9
  7
CADDY_VECTORFONT1P
 72
     1
 11
149.5
 21
111.25
 31
0.0
  0
LINE
  5
20F
  8
0
  6
CADDY_SOLID
 10
150.0
 20
120.0
 30
0.0
 11
150.0
 21
170.0
 31
0.0
  0
TEXT
  5
210
  8
0
 10
149.5
 20
142.5469375
 30
0.0
 40
1.75
  1
3802
 50
90.0
 41
0.9
  7
CADDY_VECTORFONT1P
 72
     1
 11
149.5
 21
145.0
 31
0.0
  0
LINE
  5
211
  8
0
  6
CADDY_SOLID
 10
150.0
 20
120.0
 30
0.0
 11
150.0
 21
170.0
 31
0.0
  0
INSERT
  5
215
  8
0
 66
     1
  2
BLK19
 10
0.0
 20
0.0
 30
1.0
  0
ATTRIB
  5
219
  8
2
 10
74.75798553466797
 20
116.3000030517578
 30
0.0
 40
2.450004577636719
  1
X38
 41
0.9
  7
CADDY_VECTORFONT1P
 72
     2
 11
80.04999542236328
 21
116.3000030517578
 31
0.0
  2
$TAG160010
 70
     1
  0
ATTRIB
  5
21C
  8
2
 10
84.09999084472656
 20
119.1999969482422
 30
0.0
 40
2.450004577636719
  1
2
 50
90.0
 41
0.9
  7
CADDY_VECTORFONT1P
  2
$TAG160400
 70
     0
  0
ATTRIB
  5
21E
  8
0
 10
87.59999084472656
 20
119.1999969482422
 30
0.0
 40
2.450004577636719
  1
1
 50
90.0
 41
0.9
  7
CADDY_VECTORFONT1P
  2
$TAG160410
 70
     1
  0
ATTRIB
  5
220
  8
2
 10
80.04999542236328
 20
112.8000030517578
 30
0.0
 40
2.450004577636719
  1

 41
0.9
  7
CADDY_VECTORFONT1P
 72
     2
 11
80.04999542236328
 21
112.8000030517578
 31
0.0
  2
$TAG160030
 70
     1
  0
ATTRIB
  5
222
  8
2
 10
58.34175275039673
 20
107.8000030517578
 30
0.0
 40
2.450004577636719
  1
AB1RR235U2GR
 41
0.9
  7
CADDY_VECTORFONT1P
 72
     2
 11
80.05001831054688
 21
107.8000030517578
 31
0.0
  2
$TAG160040
 70
     1
  0
ATTRIB
  5
224
  8
2
 10
78.70274553451539
 20
123.3000030517578
 30
0.0
 40
2.450004577636719
  1
=
 41
0.9
  7
CADDY_VECTORFONT1P
 72
     2
 11
80.05000305175781
 21
123.3000030517578
 31
0.0
  2
$TAG140020
 70
     1
  0
ATTRIB
  5
226
  8
2
 10
78.70273790512086
 20
119.8000030517578
 30
0.0
 40
2.450004577636719
  1
+
 41
0.9
  7
CADDY_VECTORFONT1P
 72
     2
 11
80.04999542236328
 21
119.8000030517578
 31
0.0
  2
$TAG140050
 70
     1
  0
SEQEND
  5
21A
  8
0
  0
LINE
  5
228
  8
0
  6
CADDY_SOLID
 10
85.0
 20
107.5
 30
0.0
 11
85.0
 21
115.0
 31
0.0
  0
TEXT
  5
229
  8
0
 10
84.5
 20
111.25
 30
0.0
 40
1.75
  1

 50
90.0
 41
0.9
  7
CADDY_VECTORFONT1P
 72
     1
 11
84.5
 21
111.25
 31
0.0
  0
LINE
  5
22A
  8
0
  6
CADDY_SOLID
 10
85.0
 20
120.0
 30
0.0
 11
85.0
 21
250.0
 31
0.0
  0
TEXT
  5
22B
  8
0
 10
84.5
 20
182.71625
 30
0.0
 40
1.75
  1
3801
 50
90.0
 41
0.9
  7
CADDY_VECTORFONT1P
 72
     1
 11
84.5
 21
185.0
 31
0.0
  0
LINE
  5
22C
  8
0
  6
CADDY_SOLID
 10
85.0
 20
95.5
 30
0.0
 11
85.0
 21
115.0
 31
0.0
  0
LINE
  5
22D
  8
0
  6
CADDY_SOLID
 10
85.0
 20
120.0
 30
0.0
 11
85.0
 21
250.0
 31
0.0
  0
INSERT
  5
231
  8
0
 66
     1
  2
BLK20
 10
0.0
 20
0.0
 30
1.0
  0
ATTRIB
  5
235
  8
2
 10
139.954560105896
 20
116.3000030517578
 30
0.0
 40
2.450004577636719
  1
#00000081
 41
0.9
  7
CADDY_VECTORFONT1P
 72
     2
 11
155.0500183105469
 21
116.3000030517578
 31
0.0
  2
$TAG160010
 70
     1
  0
ATTRIB
  5
238
  8
2
 10
159.0999908447266
 20
119.1999969482422
 30
0.0
 40
2.450004577636719
  1
4
 50
90.0
 41
0.9
  7
CADDY_VECTORFONT1P
  2
$TAG160400
 70
     0
  0
ATTRIB
  5
23A
  8
0
 10
162.5999908447266
 20
119.1999969482422
 30
0.0
 40
2.450004577636719
  1
2
 50
90.0
 41
0.9
  7
CADDY_VECTORFONT1P
  2
$TAG160410
 70
     1
  0
ATTRIB
  5
23C
  8
2
 10
155.0500030517578
 20
112.8000030517578
 30
0.0
 40
2.450004577636719
  1

 41
0.9
  7
CADDY_VECTORFONT1P
 72
     2
 11
155.0500030517578
 21
112.8000030517578
 31
0.0
  2
$TAG160030
 70
     1
  0
ATTRIB
  5
23E
  8
2
 10
133.3417527503967
 20
107.8000030517578
 30
0.0
 40
2.450004577636719
  1
AB1RR235U2GR
 41
0.9
  7
CADDY_VECTORFONT1P
 72
     2
 11
155.0500183105469
 21
107.8000030517578
 31
0.0
  2
$TAG160040
 70
     1
  0
ATTRIB
  5
240
  8
2
 10
153.7027455345154
 20
123.3000030517578
 30
0.0
 40
2.450004577636719
  1
=
 41
0.9
  7
CADDY_VECTORFONT1P
 72
     2
 11
155.0500030517578
 21
123.3000030517578
 31
0.0
  2
$TAG140020
 70
     1
  0
ATTRIB
  5
242
  8
2
 10
153.7027302757263
 20
119.8000030517578
 30
0.0
 40
2.450004577636719
  1
+
 41
0.9
  7
CADDY_VECTORFONT1P
 72
     2
 11
155.0499877929688
 21
119.8000030517578
 31
0.0
  2
$TAG140050
 70
     1
  0
SEQEND
  5
236
  8
0
  0
LINE
  5
244
  8
0
  6
CADDY_SOLID
 10
160.0
 20
107.5
 30
0.0
 11
160.0
 21
115.0
 31
0.0
  0
TEXT
  5
245
  8
0
 10
159.5
 20
111.25
 30
0.0
 40
1.75
  1

 50
90.0
 41
0.9
  7
CADDY_VECTORFONT1P
 72
     1
 11
159.5
 21
111.25
 31
0.0
  0
LINE
  5
246
  8
0
  6
CADDY_SOLID
 10
160.0
 20
120.0
 30
0.0
 11
160.0
 21
220.0
 31
0.0
  0
TEXT
  5
247
  8
0
 10
159.5
 20
167.541425
 30
0.0
 40
1.75
  1
3803
 50
90.0
 41
0.9
  7
CADDY_VECTORFONT1P
 72
     1
 11
159.5
 21
170.0
 31
0.0
  0
LINE
  5
248
  8
0
  6
CADDY_SOLID
 10
160.0
 20
120.0
 30
0.0
 11
160.0
 21
220.0
 31
0.0
  0
LINE
  5
249
  8
0
  6
CADDY_SOLID
 10
150.0
 20
80.0
 30
0.0
 11
150.0
 21
94.5
 31
0.0
  0
LINE
  5
24A
  8
0
  6
CADDY_SOLID
 10
150.0
 20
95.5
 30
0.0
 11
150.0
 21
115.0
 31
0.0
  0
LINE
  5
24B
  8
0
  6
CADDY_SOLID
 10
160.0
 20
80.0
 30
0.0
 11
160.0
 21
94.5
 31
0.0
  0
LINE
  5
24C
  8
0
  6
CADDY_SOLID
 10
160.0
 20
95.5
 30
0.0
 11
160.0
 21
115.0
 31
0.0
  0
INSERT
  5
250
  8
0
  2
BLK21
 10
0.0
 20
0.0
 30
1.0
  0
ENDSEC
  0
EOF
