  0
SECTION
  2
HEADER
  9
$ACADVER
  1
AC1006
  9
$DWGCODEPAGE
  3
ansi_1252
  9
$INSBASE
 10
0.0
 20
0.0
 30
0.0
  9
$EXTMIN
 10
0.0
 20
0.0
  9
$EXTMAX
 10
420.0
 20
297.0
  9
$LIMMIN
 10
0.0
 20
0.0
  9
$LIMMAX
 10
420.0
 20
297.0
  9
$ORTHOMODE
 70
     0
  9
$REGENMODE
 70
     1
  9
$FILLMODE
 70
     1
  9
$QTEXTMODE
 70
     0
  9
$MIRRTEXT
 70
     1
  9
$DRAGMODE
 70
     2
  9
$LTSCALE
 40
1.0
  9
$OSMODE
 70
    37
  9
$ATTMODE
 70
     1
  9
$TEXTSIZE
 40
2.5
  9
$TRACEWID
 40
1.0
  9
$TEXTSTYLE
  7
STANDARD
  9
$CLAYER
  8
0
  9
$CELTYPE
  6
BYLAYER
  9
$CECOLOR
 62
   256
  9
$DIMSCALE
 40
1.0
  9
$DIMASZ
 40
2.5
  9
$DIMEXO
 40
0.625
  9
$DIMDLI
 40
3.75
  9
$DIMRND
 40
0.0
  9
$DIMDLE
 40
0.0
  9
$DIMEXE
 40
1.25
  9
$DIMTP
 40
0.0
  9
$DIMTM
 40
0.0
  9
$DIMTXT
 40
2.5
  9
$DIMCEN
 40
2.5
  9
$DIMTSZ
 40
0.0
  9
$DIMTOL
 70
     0
  9
$DIMLIM
 70
     0
  9
$DIMTIH
 70
     0
  9
$DIMTOH
 70
     0
  9
$DIMSE1
 70
     0
  9
$DIMSE2
 70
     0
  9
$DIMTAD
 70
     1
  9
$DIMZIN
 70
     8
  9
$DIMBLK
  1

  9
$DIMASO
 70
     1
  9
$DIMSHO
 70
     1
  9
$DIMPOST
  1

  9
$DIMAPOST
  1

  9
$DIMALT
 70
     0
  9
$DIMALTD
 70
     3
  9
$DIMALTF
 40
0.03937007874016
  9
$DIMLFAC
 40
1.0
  9
$DIMTOFL
 70
     1
  9
$DIMTVP
 40
0.0
  9
$DIMTIX
 70
     0
  9
$DIMSOXD
 70
     0
  9
$DIMSAH
 70
     0
  9
$DIMBLK1
  1

  9
$DIMBLK2
  1

  9
$LUNITS
 70
     2
  9
$LUPREC
 70
     4
  9
$SKETCHINC
 40
1.0
  9
$FILLETRAD
 40
10.0
  9
$AUNITS
 70
     0
  9
$AUPREC
 70
     0
  9
$MENU
  1
.
  9
$ELEVATION
 40
0.0
  9
$THICKNESS
 40
0.0
  9
$LIMCHECK
 70
     0
  9
$CHAMFERA
 40
10.0
  9
$CHAMFERB
 40
10.0
  9
$SKPOLY
 70
     0
  9
$TDCREATE
 40
2451930.666666667
  9
$TDUPDATE
 40
2460738.481551019
  9
$TDINDWG
 40
0.0000000116
  9
$TDUSRTIMER
 40
0.0000000116
  9
$USRTIMER
 70
     1
  9
$ANGBASE
 50
0.0
  9
$ANGDIR
 70
     0
  9
$PDMODE
 70
     0
  9
$PDSIZE
 40
0.0
  9
$PLINEWID
 40
0.0
  9
$COORDS
 70
     1
  9
$SPLFRAME
 70
     0
  9
$SPLINETYPE
 70
     6
  9
$SPLINESEGS
 70
     8
  9
$ATTDIA
 70
     0
  9
$ATTREQ
 70
     1
  9
$HANDLING
 70
     1
  9
$HANDSEED
  5
67B
  9
$SURFTAB1
 70
     6
  9
$SURFTAB2
 70
     6
  9
$SURFTYPE
 70
     6
  9
$SURFU
 70
     6
  9
$SURFV
 70
     6
  9
$UCSNAME
  2

  9
$UCSORG
 10
0.0
 20
0.0
 30
0.0
  9
$UCSXDIR
 10
1.0
 20
0.0
 30
0.0
  9
$UCSYDIR
 10
0.0
 20
1.0
 30
0.0
  9
$USERI1
 70
     0
  9
$USERI2
 70
     0
  9
$USERI3
 70
     0
  9
$USERI4
 70
     0
  9
$USERI5
 70
     0
  9
$USERR1
 40
0.0
  9
$USERR2
 40
0.0
  9
$USERR3
 40
0.0
  9
$USERR4
 40
0.0
  9
$USERR5
 40
0.0
  9
$WORLDVIEW
 70
     1
  0
ENDSEC
  0
SECTION
  2
TABLES
  0
TABLE
  2
VPORT
 70
     1
  0
VPORT
  2
*ACTIVE
 70
     0
 10
0.0
 20
0.0
 11
1.0
 21
1.0
 12
210.0
 22
142.5
 13
0.0
 23
0.0
 14
10.0
 24
10.0
 15
10.0
 25
10.0
 16
0.0
 26
0.0
 36
1.0
 17
0.0
 27
0.0
 37
0.0
 40
270.3
 41
1.972972972850329
 42
50.0
 43
0.0
 44
0.0
 50
0.0
 51
0.0
 71
     0
 72
   100
 73
     1
 74
     3
 75
     0
 76
     0
 77
     0
 78
     0
  0
ENDTAB
  0
TABLE
  2
LTYPE
 70
     6
  0
LTYPE
  2
CONTINUOUS
 70
     0
  3
Solid line
 72
    65
 73
     0
 40
0.0
  0
LTYPE
  2
CADDY_SOLID
 70
     0
  3
____________
 72
    65
 73
     0
 40
0.0
  0
LTYPE
  2
CADDY_DOT
 70
     0
  3
. . . . . . 
 72
    65
 73
     2
 40
2.0
 49
0.5
 49
-1.5
  0
LTYPE
  2
CADDY_DASH
 70
     0
  3
_ _ _ _ _ _ 
 72
    65
 73
     2
 40
3.5
 49
2.0
 49
-1.5
  0
LTYPE
  2
CADDY_DASHDOT
 70
     0
  3
_ . _ . _ . 
 72
    65
 73
     4
 40
5.5
 49
0.5
 49
-1.5
 49
2.0
 49
-1.5
  0
LTYPE
  2
CADDY_DASHDOTDOT
 70
     0
  3
_ . . _ . . 
 72
    65
 73
     6
 40
7.5
 49
2.0
 49
-1.5
 49
0.5
 49
-1.5
 49
0.5
 49
-1.5
  0
ENDTAB
  0
TABLE
  2
LAYER
 70
     1
  0
LAYER
  2
0
 70
     0
 62
     7
  6
CONTINUOUS
  0
ENDTAB
  0
TABLE
  2
STYLE
 70
    17
  0
STYLE
  2
STANDARD
 70
     0
 40
0.0
 41
1.0
 50
0.0
 71
     0
 42
2.5
  3
txt
  4

  0
STYLE
  2
CADDY_VECTORFONT1P
 70
     0
 40
0.0
 41
0.9
 50
0.0
 71
     0
 42
0.2
  3
isocp___.ttf
  4

  0
STYLE
  2
CADDY_VECTORFONT1N
 70
     0
 40
0.0
 41
1.100000023841858
 50
0.0
 71
     0
 42
0.2
  3

  4

  0
STYLE
  2
CADDY_VECTORFONT2P
 70
     0
 40
0.0
 41
1.35
 50
0.0
 71
     0
 42
0.2
  3

  4

  0
STYLE
  2
CADDY_VECTORFONT2N
 70
     0
 40
0.0
 41
1.549999952316284
 50
0.0
 71
     0
 42
0.2
  3

  4

  0
STYLE
  2
CADDY_VECTORFONT3P
 70
     0
 40
0.0
 41
1.3
 50
0.0
 71
     0
 42
0.2
  3

  4

  0
STYLE
  2
CADDY_VECTORFONT3N
 70
     0
 40
0.0
 41
1.5
 50
0.0
 71
     0
 42
0.2
  3

  4

  0
STYLE
  2
CADDY_VECTORFONT4P
 70
     0
 40
0.0
 41
1.1
 50
0.0
 71
     0
 42
0.2
  3

  4

  0
STYLE
  2
CADDY_VECTORFONT4N
 70
     0
 40
0.0
 41
1.299999952316284
 50
0.0
 71
     0
 42
0.2
  3

  4

  0
STYLE
  2
CADDY_VECTORFONT5P
 70
     0
 40
0.0
 41
1.0
 50
0.0
 71
     0
 42
0.2
  3

  4

  0
STYLE
  2
CADDY_VECTORFONT5N
 70
     0
 40
0.0
 41
1.200000047683716
 50
0.0
 71
     0
 42
0.2
  3

  4

  0
STYLE
  2
CADDY_VECTORFONT6P
 70
     0
 40
0.0
 41
0.9
 50
0.0
 71
     0
 42
0.2
  3

  4

  0
STYLE
  2
CADDY_VECTORFONT6N
 70
     0
 40
0.0
 41
1.100000023841858
 50
0.0
 71
     0
 42
0.2
  3

  4

  0
STYLE
  2
CADDY_VECTORFONT7P
 70
     0
 40
0.0
 41
1.3
 50
0.0
 71
     0
 42
0.2
  3

  4

  0
STYLE
  2
CADDY_VECTORFONT7N
 70
     0
 40
0.0
 41
1.5
 50
0.0
 71
     0
 42
0.2
  3

  4

  0
STYLE
  2
CADDY_VECTORFONT8P
 70
     0
 40
0.0
 41
1.5
 50
0.0
 71
     0
 42
0.2
  3

  4

  0
STYLE
  2
CADDY_VECTORFONT8N
 70
     0
 40
0.0
 41
1.700000047683716
 50
0.0
 71
     0
 42
0.2
  3

  4

  0
ENDTAB
  0
TABLE
  2
VIEW
 70
     0
  0
ENDTAB
  0
TABLE
  2
UCS
 70
     0
  0
ENDTAB
  0
ENDSEC
  0
SECTION
  2
BLOCKS
  0
BLOCK
  8
0
  2
BLK1
 70
     0
 10
0.0
 20
0.0
 30
0.0
  0
LINE
  5
44
  8
0
  6
CADDY_SOLID
 10
10.0
 20
10.0
 30
0.0
 11
10.0
 21
275.0
 31
0.0
  0
LINE
  5
45
  8
0
  6
CADDY_SOLID
 10
10.0
 20
275.0
 30
0.0
 11
410.0
 21
275.0
 31
0.0
  0
LINE
  5
46
  8
0
  6
CADDY_SOLID
 10
410.0
 20
275.0
 30
0.0
 11
410.0
 21
10.0
 31
0.0
  0
LINE
  5
47
  8
0
  6
CADDY_SOLID
 10
50.0
 20
270.0
 30
0.0
 11
50.0
 21
275.0
 31
0.0
  0
TEXT
  5
48
  8
0
 10
29.14336390228272
 20
271.2000122070312
 30
0.0
 40
2.449981689453125
  1
0
 41
0.9
  7
CADDY_VECTORFONT1P
 72
     1
 11
30.0
 21
271.2000122070312
 31
0.0
  0
TEXT
  5
49
  8
0
 10
30.0
 20
265.2000122070312
 30
0.0
 40
2.449981689453125
  1

 41
0.9
  7
CADDY_VECTORFONT1P
 72
     1
 11
30.0
 21
265.2000122070312
 31
0.0
  0
LINE
  5
4A
  8
0
  6
CADDY_SOLID
 10
90.0
 20
270.0
 30
0.0
 11
90.0
 21
275.0
 31
0.0
  0
LINE
  5
4B
  8
0
  6
CADDY_SOLID
 10
130.0
 20
270.0
 30
0.0
 11
130.0
 21
275.0
 31
0.0
  0
LINE
  5
4C
  8
0
  6
CADDY_SOLID
 10
170.0
 20
270.0
 30
0.0
 11
170.0
 21
275.0
 31
0.0
  0
LINE
  5
4D
  8
0
  6
CADDY_SOLID
 10
210.0
 20
270.0
 30
0.0
 11
210.0
 21
275.0
 31
0.0
  0
LINE
  5
4E
  8
0
  6
CADDY_SOLID
 10
250.0
 20
270.0
 30
0.0
 11
250.0
 21
275.0
 31
0.0
  0
LINE
  5
4F
  8
0
  6
CADDY_SOLID
 10
290.0
 20
270.0
 30
0.0
 11
290.0
 21
275.0
 31
0.0
  0
LINE
  5
50
  8
0
  6
CADDY_SOLID
 10
330.0
 20
270.0
 30
0.0
 11
330.0
 21
275.0
 31
0.0
  0
LINE
  5
51
  8
0
  6
CADDY_SOLID
 10
370.0
 20
270.0
 30
0.0
 11
370.0
 21
275.0
 31
0.0
  0
TEXT
  5
52
  8
0
 10
69.38369947662353
 20
271.2000122070312
 30
0.0
 40
2.449981689453125
  1
1
 41
0.9
  7
CADDY_VECTORFONT1P
 72
     1
 11
69.99999237060547
 21
271.2000122070312
 31
0.0
  0
TEXT
  5
53
  8
0
 10
109.1610037704468
 20
271.2000122070312
 30
0.0
 40
2.449981689453125
  1
2
 41
0.9
  7
CADDY_VECTORFONT1P
 72
     1
 11
110.0
 21
271.2000122070312
 31
0.0
  0
TEXT
  5
54
  8
0
 10
149.1312364929199
 20
271.2000122070312
 30
0.0
 40
2.449981689453125
  1
3
 41
0.9
  7
CADDY_VECTORFONT1P
 72
     1
 11
150.0
 21
271.2000122070312
 31
0.0
  0
TEXT
  5
55
  8
0
 10
189.0364222015381
 20
271.2000122070312
 30
0.0
 40
2.449981689453125
  1
4
 41
0.9
  7
CADDY_VECTORFONT1P
 72
     1
 11
190.0
 21
271.2000122070312
 31
0.0
  0
TEXT
  5
56
  8
0
 10
229.1433639022827
 20
271.2000122070312
 30
0.0
 40
2.449981689453125
  1
5
 41
0.9
  7
CADDY_VECTORFONT1P
 72
     1
 11
230.0
 21
271.2000122070312
 31
0.0
  0
TEXT
  5
57
  8
0
 10
269.1433639022827
 20
271.2000122070312
 30
0.0
 40
2.449981689453125
  1
6
 41
0.9
  7
CADDY_VECTORFONT1P
 72
     1
 11
270.0
 21
271.2000122070312
 31
0.0
  0
TEXT
  5
58
  8
0
 10
309.140056427002
 20
271.2000122070312
 30
0.0
 40
2.449981689453125
  1
7
 41
0.9
  7
CADDY_VECTORFONT1P
 72
     1
 11
310.0
 21
271.2000122070312
 31
0.0
  0
TEXT
  5
59
  8
0
 10
349.1433639022827
 20
271.2000122070312
 30
0.0
 40
2.449981689453125
  1
8
 41
0.9
  7
CADDY_VECTORFONT1P
 72
     1
 11
350.0
 21
271.2000122070312
 31
0.0
  0
TEXT
  5
5A
  8
0
 10
389.1433639022827
 20
271.2000122070312
 30
0.0
 40
2.449981689453125
  1
9
 41
0.9
  7
CADDY_VECTORFONT1P
 72
     1
 11
390.0
 21
271.2000122070312
 31
0.0
  0
TEXT
  5
5B
  8
0
 10
70.0
 20
265.2000122070312
 30
0.0
 40
2.449981689453125
  1

 41
0.9
  7
CADDY_VECTORFONT1P
 72
     1
 11
70.0
 21
265.2000122070312
 31
0.0
  0
TEXT
  5
5C
  8
0
 10
110.0
 20
265.2000122070312
 30
0.0
 40
2.449981689453125
  1

 41
0.9
  7
CADDY_VECTORFONT1P
 72
     1
 11
110.0
 21
265.2000122070312
 31
0.0
  0
TEXT
  5
5D
  8
0
 10
150.0
 20
265.2000122070312
 30
0.0
 40
2.449981689453125
  1

 41
0.9
  7
CADDY_VECTORFONT1P
 72
     1
 11
150.0
 21
265.2000122070312
 31
0.0
  0
TEXT
  5
5E
  8
0
 10
190.0
 20
265.2000122070312
 30
0.0
 40
2.449981689453125
  1

 41
0.9
  7
CADDY_VECTORFONT1P
 72
     1
 11
190.0
 21
265.2000122070312
 31
0.0
  0
TEXT
  5
5F
  8
0
 10
230.0
 20
265.2000122070312
 30
0.0
 40
2.449981689453125
  1

 41
0.9
  7
CADDY_VECTORFONT1P
 72
     1
 11
230.0
 21
265.2000122070312
 31
0.0
  0
TEXT
  5
60
  8
0
 10
270.0000305175781
 20
265.2000122070312
 30
0.0
 40
2.449981689453125
  1

 41
0.9
  7
CADDY_VECTORFONT1P
 72
     1
 11
270.0000305175781
 21
265.2000122070312
 31
0.0
  0
TEXT
  5
61
  8
0
 10
310.0000305175781
 20
265.2000122070312
 30
0.0
 40
2.449981689453125
  1

 41
0.9
  7
CADDY_VECTORFONT1P
 72
     1
 11
310.0000305175781
 21
265.2000122070312
 31
0.0
  0
TEXT
  5
62
  8
0
 10
350.0000305175781
 20
265.2000122070312
 30
0.0
 40
2.449981689453125
  1

 41
0.9
  7
CADDY_VECTORFONT1P
 72
     1
 11
350.0000305175781
 21
265.2000122070312
 31
0.0
  0
TEXT
  5
63
  8
0
 10
390.0000305175781
 20
265.2000122070312
 30
0.0
 40
2.449981689453125
  1

 41
0.9
  7
CADDY_VECTORFONT1P
 72
     1
 11
390.0000305175781
 21
265.2000122070312
 31
0.0
  0
LINE
  5
64
  8
0
  6
CADDY_SOLID
 10
15.0
 20
270.0
 30
0.0
 11
15.0
 21
30.0
 31
0.0
  0
LINE
  5
65
  8
0
  6
CADDY_SOLID
 10
405.0
 20
270.0
 30
0.0
 11
405.0
 21
30.0
 31
0.0
  0
LINE
  5
66
  8
0
  6
CADDY_SOLID
 10
15.0
 20
230.0
 30
0.0
 11
10.0
 21
230.0
 31
0.0
  0
LINE
  5
67
  8
0
  6
CADDY_SOLID
 10
15.0
 20
190.0
 30
0.0
 11
10.0
 21
190.0
 31
0.0
  0
LINE
  5
68
  8
0
  6
CADDY_SOLID
 10
15.0
 20
150.0
 30
0.0
 11
10.0
 21
150.0
 31
0.0
  0
LINE
  5
69
  8
0
  6
CADDY_SOLID
 10
10.0
 20
110.0
 30
0.0
 11
15.0
 21
110.0
 31
0.0
  0
LINE
  5
6A
  8
0
  6
CADDY_SOLID
 10
10.0
 20
70.0
 30
0.0
 11
15.0
 21
70.0
 31
0.0
  0
TEXT
  5
6B
  8
0
 10
11.39750137329102
 20
248.6999969482422
 30
0.0
 40
2.449996948242188
  1
A
 41
0.9
  7
CADDY_VECTORFONT1P
 72
     1
 11
12.5
 21
248.6999969482422
 31
0.0
  0
TEXT
  5
6C
  8
0
 10
11.52098121948242
 20
208.6999969482422
 30
0.0
 40
2.449996948242188
  1
B
 41
0.9
  7
CADDY_VECTORFONT1P
 72
     1
 11
12.5
 21
208.6999969482422
 31
0.0
  0
TEXT
  5
6D
  8
0
 10
11.65548605194092
 20
168.6999969482422
 30
0.0
 40
2.449996948242188
  1
C
 41
0.9
  7
CADDY_VECTORFONT1P
 72
     1
 11
12.5
 21
168.6999969482422
 31
0.0
  0
TEXT
  5
6E
  8
0
 10
11.52098121948242
 20
128.6999969482422
 30
0.0
 40
2.449996948242188
  1
D
 41
0.9
  7
CADDY_VECTORFONT1P
 72
     1
 11
12.5
 21
128.6999969482422
 31
0.0
  0
TEXT
  5
6F
  8
0
 10
11.65548342208862
 20
88.69999694824219
 30
0.0
 40
2.450004577636719
  1
E
 41
0.9
  7
CADDY_VECTORFONT1P
 72
     1
 11
12.5
 21
88.69999694824219
 31
0.0
  0
TEXT
  5
70
  8
0
 10
11.65548473701477
 20
48.70000076293945
 30
0.0
 40
2.450000762939453
  1
F
 41
0.9
  7
CADDY_VECTORFONT1P
 72
     1
 11
12.5
 21
48.70000076293945
 31
0.0
  0
LINE
  5
71
  8
0
  6
CADDY_SOLID
 10
410.0
 20
230.0
 30
0.0
 11
405.0
 21
230.0
 31
0.0
  0
LINE
  5
72
  8
0
  6
CADDY_SOLID
 10
410.0
 20
190.0
 30
0.0
 11
405.0
 21
190.0
 31
0.0
  0
LINE
  5
73
  8
0
  6
CADDY_SOLID
 10
410.0
 20
150.0
 30
0.0
 11
405.0
 21
150.0
 31
0.0
  0
LINE
  5
74
  8
0
  6
CADDY_SOLID
 10
405.0
 20
110.0
 30
0.0
 11
410.0
 21
110.0
 31
0.0
  0
LINE
  5
75
  8
0
  6
CADDY_SOLID
 10
405.0
 20
70.0
 30
0.0
 11
410.0
 21
70.0
 31
0.0
  0
TEXT
  5
76
  8
0
 10
406.397501373291
 20
248.6999969482422
 30
0.0
 40
2.449996948242188
  1
A
 41
0.9
  7
CADDY_VECTORFONT1P
 72
     1
 11
407.5
 21
248.6999969482422
 31
0.0
  0
TEXT
  5
77
  8
0
 10
406.5209812194824
 20
208.6999969482422
 30
0.0
 40
2.449996948242188
  1
B
 41
0.9
  7
CADDY_VECTORFONT1P
 72
     1
 11
407.5
 21
208.6999969482422
 31
0.0
  0
TEXT
  5
78
  8
0
 10
406.6554860519409
 20
168.6999969482422
 30
0.0
 40
2.449996948242188
  1
C
 41
0.9
  7
CADDY_VECTORFONT1P
 72
     1
 11
407.5
 21
168.6999969482422
 31
0.0
  0
TEXT
  5
79
  8
0
 10
406.5209812194824
 20
128.6999969482422
 30
0.0
 40
2.449996948242188
  1
D
 41
0.9
  7
CADDY_VECTORFONT1P
 72
     1
 11
407.5
 21
128.6999969482422
 31
0.0
  0
TEXT
  5
7A
  8
0
 10
406.6554834220887
 20
88.69999694824219
 30
0.0
 40
2.450004577636719
  1
E
 41
0.9
  7
CADDY_VECTORFONT1P
 72
     1
 11
407.5
 21
88.69999694824219
 31
0.0
  0
TEXT
  5
7B
  8
0
 10
406.6554847370148
 20
48.70000076293945
 30
0.0
 40
2.450000762939453
  1
F
 41
0.9
  7
CADDY_VECTORFONT1P
 72
     1
 11
407.5
 21
48.70000076293945
 31
0.0
  0
LINE
  5
7C
  8
0
  6
CADDY_SOLID
 10
15.0
 20
270.0
 30
0.0
 11
405.0
 21
270.0
 31
0.0
  0
LINE
  5
7D
  8
0
  6
CADDY_SOLID
 10
410.0
 20
10.0
 30
0.0
 11
10.0
 21
10.0
 31
0.0
  0
LINE
  5
7E
  8
0
  6
CADDY_SOLID
 10
10.0
 20
30.0
 30
0.0
 11
410.0
 21
30.0
 31
0.0
  0
LINE
  5
7F
  8
0
  6
CADDY_SOLID
 10
260.0
 20
20.0
 30
0.0
 11
410.0
 21
20.0
 31
0.0
  0
LINE
  5
80
  8
0
  6
CADDY_SOLID
 10
10.0
 20
30.0
 30
0.0
 11
15.0
 21
30.0
 31
0.0
  0
LINE
  5
81
  8
0
  6
CADDY_SOLID
 10
405.0
 20
30.0
 30
0.0
 11
410.0
 21
30.0
 31
0.0
  0
LINE
  5
82
  8
0
  6
CADDY_SOLID
 10
65.0
 20
30.0
 30
0.0
 11
65.0
 21
10.0
 31
0.0
  0
TEXT
  5
83
  8
0
 10
69.19999694824219
 20
14.19999980926514
 30
0.0
 40
2.449999809265137
  1
Kassepakker
 41
0.9
  7
CADDY_VECTORFONT1P
  0
TEXT
  5
84
  8
0
 10
69.19999694824219
 20
23.20000076293945
 30
0.0
 40
2.44999885559082
  1
MPN - GUIDED BY VISION
 41
0.9
  7
CADDY_VECTORFONT1P
  0
TEXT
  5
85
  8
0
 10
69.19999694824219
 20
18.70000076293945
 30
0.0
 40
2.44999885559082
  1

 41
0.9
  7
CADDY_VECTORFONT1P
  0
LINE
  5
86
  8
0
  6
CADDY_SOLID
 10
160.0
 20
30.0
 30
0.0
 11
160.0
 21
10.0
 31
0.0
  0
TEXT
  5
87
  8
0
 10
164.1999969482422
 20
23.20000076293945
 30
0.0
 40
2.44999885559082
  1
Advantys
 41
0.9
  7
CADDY_VECTORFONT1P
  0
TEXT
  5
88
  8
0
 10
164.1999969482422
 20
18.70000076293945
 30
0.0
 40
2.44999885559082
  1

 41
0.9
  7
CADDY_VECTORFONT1P
  0
TEXT
  5
89
  8
0
 10
164.1999969482422
 20
14.19999980926514
 30
0.0
 40
2.449999809265137
  1

 41
0.9
  7
CADDY_VECTORFONT1P
  0
LINE
  5
8A
  8
0
  6
CADDY_SOLID
 10
260.0
 20
30.0
 30
0.0
 11
260.0
 21
10.0
 31
0.0
  0
TEXT
  5
8B
  8
0
 10
261.2000122070312
 20
26.20000076293945
 30
0.0
 40
2.44999885559082
  1
Projekt:
 41
0.9
  7
CADDY_VECTORFONT1P
  0
TEXT
  5
8C
  8
0
 10
261.2000122070312
 20
16.20000076293945
 30
0.0
 40
2.44999885559082
  1
Dato:
 41
0.9
  7
CADDY_VECTORFONT1P
  0
LINE
  5
8D
  8
0
  6
CADDY_SOLID
 10
290.0
 20
30.0
 30
0.0
 11
290.0
 21
10.0
 31
0.0
  0
TEXT
  5
8E
  8
0
 10
291.2000122070312
 20
16.20000076293945
 30
0.0
 40
2.44999885559082
  1
Funkt.:
 41
0.9
  7
CADDY_VECTORFONT1P
  0
TEXT
  5
8F
  8
0
 10
291.2000122070312
 20
26.20000076293945
 30
0.0
 40
2.44999885559082
  1
Tegn. nr.:
 41
0.9
  7
CADDY_VECTORFONT1P
  0
TEXT
  5
90
  8
0
 10
276.1062470369339
 20
21.70000076293945
 30
0.0
 40
2.44999885559082
  1
CP6000
 41
0.9
  7
CADDY_VECTORFONT1P
 72
     2
 11
286.2999572753906
 21
21.70000076293945
 31
0.0
  0
TEXT
  5
91
  8
0
 10
270.4724379899978
 20
11.69999980926514
 30
0.0
 40
2.449999809265137
  1
17-10-2005
 41
0.9
  7
CADDY_VECTORFONT1P
 72
     2
 11
286.2999267578125
 21
11.69999980926514
 31
0.0
  0
LINE
  5
92
  8
0
  6
CADDY_SOLID
 10
320.0
 20
20.0
 30
0.0
 11
320.0
 21
10.0
 31
0.0
  0
TEXT
  5
93
  8
0
 10
321.2000122070312
 20
16.20000076293945
 30
0.0
 40
2.44999885559082
  1
Plac.:
 41
0.9
  7
CADDY_VECTORFONT1P
  0
TEXT
  5
94
  8
0
 10
314.9527328978539
 20
11.69999980926514
 30
0.0
 40
2.449999809265137
  1
=
 41
0.9
  7
CADDY_VECTORFONT1P
 72
     2
 11
316.2999877929688
 21
11.69999980926514
 31
0.0
  0
LINE
  5
95
  8
0
  6
CADDY_SOLID
 10
382.5
 20
20.0
 30
0.0
 11
382.5
 21
30.0
 31
0.0
  0
LINE
  5
96
  8
0
  6
CADDY_SOLID
 10
382.5
 20
10.0
 30
0.0
 11
382.5
 21
20.0
 31
0.0
  0
TEXT
  5
97
  8
0
 10
349.952763415432
 20
11.69999980926514
 30
0.0
 40
2.449999809265137
  1
+
 41
0.9
  7
CADDY_VECTORFONT1P
 72
     2
 11
351.3000183105469
 21
11.69999980926514
 31
0.0
  0
LINE
  5
98
  8
0
  6
CADDY_SOLID
 10
355.0
 20
10.0
 30
0.0
 11
355.0
 21
20.0
 31
0.0
  0
LINE
  5
99
  8
0
  6
CADDY_SOLID
 10
355.0
 20
20.0
 30
0.0
 11
355.0
 21
30.0
 31
0.0
  0
TEXT
  5
9A
  8
0
 10
356.2000122070312
 20
26.20000076293945
 30
0.0
 40
2.44999885559082
  1
Rev.:
 41
0.9
  7
CADDY_VECTORFONT1P
  0
LINE
  5
9B
  8
0
  6
CADDY_SOLID
 10
337.5
 20
20.0
 30
0.0
 11
337.5
 21
30.0
 31
0.0
  0
TEXT
  5
9C
  8
0
 10
333.5
 20
21.75
 30
0.0
 40
3.5
  1

 41
0.9
  7
CADDY_VECTORFONT1P
 72
     2
 11
333.5
 21
21.75
 31
0.0
  0
TEXT
  5
9D
  8
0
 10
338.7000122070312
 20
26.20000076293945
 30
0.0
 40
2.44999885559082
  1
Init.:
 41
0.9
  7
CADDY_VECTORFONT1P
  0
TEXT
  5
9E
  8
0
 10
351.3000183105469
 20
21.70000076293945
 30
0.0
 40
2.44999885559082
  1

 41
0.9
  7
CADDY_VECTORFONT1P
 72
     2
 11
351.3000183105469
 21
21.70000076293945
 31
0.0
  0
TEXT
  5
9F
  8
0
 10
378.8000183105469
 20
21.70000076293945
 30
0.0
 40
2.44999885559082
  1

 41
0.9
  7
CADDY_VECTORFONT1P
 72
     2
 11
378.8000183105469
 21
21.70000076293945
 31
0.0
  0
TEXT
  5
A0
  8
0
 10
399.54245
 20
21.75
 30
0.0
 40
3.5
  1
13
 41
0.9
  7
CADDY_VECTORFONT1P
 72
     2
 11
403.25
 21
21.75
 31
0.0
  0
TEXT
  5
A1
  8
0
 10
405.25
 20
21.75
 30
0.0
 40
3.5
  1

 41
0.9
  7
CADDY_VECTORFONT1P
  0
TEXT
  5
A2
  8
0
 10
383.7000122070312
 20
26.20000076293945
 30
0.0
 40
2.44999885559082
  1
Blad:
 41
0.9
  7
CADDY_VECTORFONT1P
  0
TEXT
  5
A3
  8
0
 10
403.7047335125923
 20
11.69999980926514
 30
0.0
 40
2.449999809265137
  1
18
 41
0.9
  7
CADDY_VECTORFONT1P
 72
     2
 11
406.3000183105469
 21
11.69999980926514
 31
0.0
  0
TEXT
  5
A4
  8
0
 10
383.7000122070312
 20
16.20000076293945
 30
0.0
 40
2.44999885559082
  1
Næste blad:
 41
0.9
  7
CADDY_VECTORFONT1P
  0
TEXT
  5
A5
  8
0
 10
356.2000122070312
 20
16.20000076293945
 30
0.0
 40
2.44999885559082
  1
Antal blade:
 41
0.9
  7
CADDY_VECTORFONT1P
  0
TEXT
  5
A6
  8
0
 10
375.7284535496712
 20
11.69999980926514
 30
0.0
 40
2.449999809265137
  1
32
 41
0.9
  7
CADDY_VECTORFONT1P
 72
     2
 11
378.8000183105469
 21
11.69999980926514
 31
0.0
  0
ENDBLK
  8
0
  0
BLOCK
  8
0
  2
BLK2
 70
     2
 10
0.0
 20
0.0
 30
0.0
  0
CIRCLE
  5
B0
  8
0
  6
CADDY_SOLID
 10
62.5
 20
90.0
 30
0.0
 40
0.75
  0
LINE
  5
B1
  8
0
  6
CADDY_SOLID
 10
61.75
 20
90.0
 30
0.0
 11
60.0
 21
90.0
 31
0.0
  0
LINE
  5
B2
  8
0
  6
CADDY_SOLID
 10
65.0
 20
90.0
 30
0.0
 11
63.25
 21
90.0
 31
0.0
  0
ATTDEF
  5
B5
  8
0
 10
43.34346393890381
 20
90.89999389648438
 30
0.0
 40
2.450004577636719
  1
-2E1
 41
0.9
  7
CADDY_VECTORFONT1P
 72
     2
 11
60.15000534057617
 21
90.89999389648438
 31
0.0
  3
Produkt (-)
  2
$TAG160010
 70
     1
  0
ATTDEF
  5
B7
  8
0
 10
64.14999389648438
 20
90.89999389648438
 30
0.0
 40
2.450004577636719
  1
1
 41
0.9
  7
CADDY_VECTORFONT1P
  3
Klemmenummer
  2
$TAG160400
 70
     1
  0
ATTDEF
  5
B9
  8
0
 10
64.14999389648438
 20
87.39999389648438
 30
0.0
 40
2.450004577636719
  1
1
 41
0.9
  7
CADDY_VECTORFONT1P
  3
Sorteringsindeks
  2
$TAG160410
 70
     1
  0
ATTDEF
  5
BB
  8
0
 10
42.85174802017212
 20
86.59999084472656
 30
0.0
 40
2.450004577636719
  1

 41
0.9
  7
CADDY_VECTORFONT1P
 72
     2
 11
60.15000534057617
 21
86.59999084472656
 31
0.0
  3
Beskrivelse 00
  2
$TAG160030
 70
     1
  0
ATTDEF
  5
BD
  8
0
 10
42.60698874816894
 20
81.59999084472656
 30
0.0
 40
2.450004577636719
  1
STBXTS2120
 41
0.9
  7
CADDY_VECTORFONT1P
 72
     2
 11
60.15000152587891
 21
81.59999084472656
 31
0.0
  3
Type
  2
$TAG160040
 70
     1
  0
ATTDEF
  5
BF
  8
0
 10
42.60699256286621
 20
97.89999389648438
 30
0.0
 40
2.450004577636719
  1
=
 41
0.9
  7
CADDY_VECTORFONT1P
 72
     2
 11
60.15000534057617
 21
97.89999389648438
 31
0.0
  3
Funktion (=)
  2
$TAG140020
 70
     1
  0
ATTDEF
  5
C1
  8
0
 10
42.60699637756348
 20
94.39999389648438
 30
0.0
 40
2.450004577636719
  1
+
 41
0.9
  7
CADDY_VECTORFONT1P
 72
     2
 11
60.15000915527344
 21
94.39999389648438
 31
0.0
  3
Placering (+)
  2
$TAG140050
 70
     1
  0
ENDBLK
  8
0
  0
BLOCK
  8
0
  2
BLK3
 70
     2
 10
0.0
 20
0.0
 30
0.0
  0
CIRCLE
  5
C6
  8
0
  6
CADDY_SOLID
 10
62.5
 20
85.0
 30
0.0
 40
0.75
  0
LINE
  5
C7
  8
0
  6
CADDY_SOLID
 10
61.75
 20
85.0
 30
0.0
 11
60.0
 21
85.0
 31
0.0
  0
LINE
  5
C8
  8
0
  6
CADDY_SOLID
 10
65.0
 20
85.0
 30
0.0
 11
63.25
 21
85.0
 31
0.0
  0
ATTDEF
  5
CB
  8
0
 10
43.34346393890381
 20
85.89999389648438
 30
0.0
 40
2.450004577636719
  1
-2E1
 41
0.9
  7
CADDY_VECTORFONT1P
 72
     2
 11
60.15000534057617
 21
85.89999389648438
 31
0.0
  3
Produkt (-)
  2
$TAG160010
 70
     1
  0
ATTDEF
  5
CD
  8
0
 10
64.14999389648438
 20
85.89999389648438
 30
0.0
 40
2.450004577636719
  1
2
 41
0.9
  7
CADDY_VECTORFONT1P
  3
Klemmenummer
  2
$TAG160400
 70
     1
  0
ATTDEF
  5
CF
  8
0
 10
64.14999389648438
 20
82.39999389648438
 30
0.0
 40
2.450004577636719
  1
2
 41
0.9
  7
CADDY_VECTORFONT1P
  3
Sorteringsindeks
  2
$TAG160410
 70
     1
  0
ATTDEF
  5
D1
  8
0
 10
42.85174802017212
 20
81.59999084472656
 30
0.0
 40
2.450004577636719
  1

 41
0.9
  7
CADDY_VECTORFONT1P
 72
     2
 11
60.15000534057617
 21
81.59999084472656
 31
0.0
  3
Beskrivelse 00
  2
$TAG160030
 70
     1
  0
ATTDEF
  5
D3
  8
0
 10
42.60699256286621
 20
76.59999084472656
 30
0.0
 40
2.450004577636719
  1

 41
0.9
  7
CADDY_VECTORFONT1P
 72
     2
 11
60.15000534057617
 21
76.59999084472656
 31
0.0
  3
Type
  2
$TAG160040
 70
     1
  0
ATTDEF
  5
D5
  8
0
 10
42.60699256286621
 20
92.89999389648438
 30
0.0
 40
2.450004577636719
  1
=
 41
0.9
  7
CADDY_VECTORFONT1P
 72
     2
 11
60.15000534057617
 21
92.89999389648438
 31
0.0
  3
Funktion (=)
  2
$TAG140020
 70
     1
  0
ATTDEF
  5
D7
  8
0
 10
42.60699637756348
 20
89.39999389648438
 30
0.0
 40
2.450004577636719
  1
+
 41
0.9
  7
CADDY_VECTORFONT1P
 72
     2
 11
60.15000915527344
 21
89.39999389648438
 31
0.0
  3
Placering (+)
  2
$TAG140050
 70
     1
  0
ENDBLK
  8
0
  0
BLOCK
  8
0
  2
BLK4
 70
     2
 10
0.0
 20
0.0
 30
0.0
  0
LINE
  5
DC
  8
0
  6
CADDY_SOLID
 10
70.0
 20
120.0
 30
0.0
 11
70.0
 21
225.0
 31
0.0
  0
TEXT
  5
DD
  8
0
 10
75.69999694824219
 20
220.6999969482422
 30
0.0
 40
2.449996948242188
  1
NIP2212
 41
0.9
  7
CADDY_VECTORFONT1P
  0
INSERT
  5
E1
  8
0
  2
BLK5
 10
0.0
 20
0.0
 30
1.0
  0
TEXT
  5
E6
  8
0
 10
80.69999694824219
 20
210.6999969482422
 30
0.0
 40
2.449996948242188
  1
RUN
 41
0.9
  7
CADDY_VECTORFONT1P
  0
TEXT
  5
E7
  8
0
 10
80.69999694824219
 20
205.6999969482422
 30
0.0
 40
2.449996948242188
  1
PWR
 41
0.9
  7
CADDY_VECTORFONT1P
  0
TEXT
  5
E8
  8
0
 10
80.69999694824219
 20
200.6999969482422
 30
0.0
 40
2.449996948242188
  1
ERR
 41
0.9
  7
CADDY_VECTORFONT1P
  0
TEXT
  5
E9
  8
0
 10
80.69999694824219
 20
195.6999969482422
 30
0.0
 40
2.449996948242188
  1
10T 
 41
0.9
  7
CADDY_VECTORFONT1P
  0
TEXT
  5
EA
  8
0
 10
80.69999694824219
 20
192.1999969482422
 30
0.0
 40
2.449996948242188
  1
ACT
 41
0.9
  7
CADDY_VECTORFONT1P
  0
INSERT
  5
EE
  8
0
  2
BLK6
 10
0.0
 20
0.0
 30
1.0
  0
INSERT
  5
F6
  8
0
  2
BLK7
 10
0.0
 20
0.0
 30
1.0
  0
INSERT
  5
FE
  8
0
  2
BLK8
 10
0.0
 20
0.0
 30
1.0
  0
TEXT
  5
103
  8
0
 10
80.69999694824219
 20
185.6999969482422
 30
0.0
 40
2.449996948242188
  1
LAN 
 41
0.9
  7
CADDY_VECTORFONT1P
  0
TEXT
  5
104
  8
0
 10
80.69999694824219
 20
182.1999969482422
 30
0.0
 40
2.449996948242188
  1
ST
 41
0.9
  7
CADDY_VECTORFONT1P
  0
TEXT
  5
105
  8
0
 10
80.69999694824219
 20
178.6999969482422
 30
0.0
 40
2.449996948242188
  1
TEST
 41
0.9
  7
CADDY_VECTORFONT1P
  0
INSERT
  5
109
  8
0
  2
BLK9
 10
0.0
 20
0.0
 30
1.0
  0
INSERT
  5
111
  8
0
  2
BLK10
 10
0.0
 20
0.0
 30
1.0
  0
INSERT
  5
119
  8
0
  2
BLK11
 10
0.0
 20
0.0
 30
1.0
  0
INSERT
  5
121
  8
0
  2
BLK12
 10
0.0
 20
0.0
 30
1.0
  0
POLYLINE
  5
126
  8
0
  6
CADDY_SOLID
 66
     1
 10
0.0
 20
0.0
 30
0.0
 70
     1
  0
VERTEX
  5
664
  8
0
  6
CADDY_SOLID
 10
55.0
 20
215.0
 30
0.0
  0
VERTEX
  5
665
  8
0
  6
CADDY_SOLID
 10
65.0
 20
205.0
 30
0.0
  0
VERTEX
  5
666
  8
0
  6
CADDY_SOLID
 10
65.0
 20
215.0
 30
0.0
  0
VERTEX
  5
667
  8
0
  6
CADDY_SOLID
 10
55.0
 20
205.0
 30
0.0
  0
SEQEND
  5
679
  8
0
  6
CADDY_SOLID
  0
INSERT
  5
127
  8
0
  2
*U106
 10
0.0
 20
0.0
 30
0.0
  0
POLYLINE
  5
128
  8
0
  6
CADDY_SOLID
 66
     1
 10
0.0
 20
0.0
 30
0.0
 70
     1
  0
VERTEX
  5
66B
  8
0
  6
CADDY_SOLID
 10
65.0
 20
215.0
 30
0.0
  0
VERTEX
  5
66C
  8
0
  6
CADDY_SOLID
 10
55.0
 20
215.0
 30
0.0
  0
VERTEX
  5
66D
  8
0
  6
CADDY_SOLID
 10
60.0
 20
210.0
 30
0.0
  0
VERTEX
  5
66E
  8
0
  6
CADDY_SOLID
 10
65.0
 20
205.0
 30
0.0
  0
VERTEX
  5
66F
  8
0
  6
CADDY_SOLID
 10
55.0
 20
205.0
 30
0.0
  0
SEQEND
  5
67A
  8
0
  6
CADDY_SOLID
  0
INSERT
  5
129
  8
0
  2
*U107
 10
0.0
 20
0.0
 30
0.0
  0
CIRCLE
  5
12A
  8
0
  6
CADDY_SOLID
 10
60.0
 20
180.0
 30
0.0
 40
5.0
  0
CIRCLE
  5
12B
  8
0
  6
CADDY_SOLID
 10
60.0
 20
150.0
 30
0.0
 40
5.0
  0
TEXT
  5
12C
  8
0
 10
50.70000076293945
 20
190.6999969482422
 30
0.0
 40
2.449996948242188
  1
ROLE NAME
 41
0.9
  7
CADDY_VECTORFONT1P
  0
TEXT
  5
12D
  8
0
 10
55.70000076293945
 20
165.6999969482422
 30
0.0
 40
2.449996948242188
  1
TENS
 41
0.9
  7
CADDY_VECTORFONT1P
  0
TEXT
  5
12E
  8
0
 10
55.70000076293945
 20
135.6999969482422
 30
0.0
 40
2.449996948242188
  1
ONES
 41
0.9
  7
CADDY_VECTORFONT1P
  0
TEXT
  5
12F
  8
0
 10
55.70000076293945
 20
95.69999694824219
 30
0.0
 40
2.450004577636719
  1
24VDC
 41
0.9
  7
CADDY_VECTORFONT1P
  0
TEXT
  5
130
  8
0
 10
65.69999694824219
 20
90.69999694824219
 30
0.0
 40
2.450004577636719
  1
+
 41
0.9
  7
CADDY_VECTORFONT1P
  0
TEXT
  5
131
  8
0
 10
65.69999694824219
 20
85.69999694824219
 30
0.0
 40
2.450004577636719
  1
-
 41
0.9
  7
CADDY_VECTORFONT1P
  0
TEXT
  5
132
  8
0
 10
73.19999694824219
 20
164.4499969482422
 30
0.0
 40
2.449996948242188
  1
ETHETNET
 41
0.9
  7
CADDY_VECTORFONT1P
  0
LINE
  5
133
  8
0
  6
CADDY_SOLID
 10
70.0
 20
170.0
 30
0.0
 11
90.0
 21
170.0
 31
0.0
  0
ATTDEF
  5
136
  8
0
 10
29.99351398620606
 20
150.6999969482422
 30
0.0
 40
2.449996948242188
  1
D1301
 41
0.9
  7
CADDY_VECTORFONT1P
 72
     2
 11
46.80000305175781
 21
150.6999969482422
 31
0.0
  3
Produkt (-)
  2
$TAG160010
 70
     0
  0
ATTDEF
  5
138
  8
0
 10
29.50179578399658
 20
147.1999969482422
 30
0.0
 40
2.449996948242188
  1

 41
0.9
  7
CADDY_VECTORFONT1P
 72
     2
 11
46.79999923706055
 21
147.1999969482422
 31
0.0
  3
Beskrivelse 00
  2
$TAG160030
 70
     0
  0
ATTDEF
  5
13A
  8
0
 10
29.25703727416992
 20
143.6999969482422
 30
0.0
 40
2.449996948242188
  1
STBNIP2212
 41
0.9
  7
CADDY_VECTORFONT1P
 72
     2
 11
46.79999542236328
 21
143.6999969482422
 31
0.0
  3
Type
  2
$TAG160040
 70
     1
  0
ATTDEF
  5
13C
  8
0
 10
29.25704108886719
 20
157.6999969482422
 30
0.0
 40
2.449996948242188
  1
=
 41
0.9
  7
CADDY_VECTORFONT1P
 72
     2
 11
46.79999923706055
 21
157.6999969482422
 31
0.0
  3
Funktion (=)
  2
$TAG140020
 70
     1
  0
ATTDEF
  5
13E
  8
0
 10
29.25704490356446
 20
154.1999969482422
 30
0.0
 40
2.449996948242188
  1
+
 41
0.9
  7
CADDY_VECTORFONT1P
 72
     2
 11
46.80000305175781
 21
154.1999969482422
 31
0.0
  3
Placering (+)
  2
$TAG140050
 70
     1
  0
ENDBLK
  8
0
  0
BLOCK
  8
0
  2
BLK5
 70
     0
 10
0.0
 20
0.0
 30
0.0
  0
LINE
  5
E2
  8
0
  6
CADDY_SOLID
 10
75.0
 20
210.0
 30
0.0
 11
80.0
 21
210.0
 31
0.0
  0
LINE
  5
E3
  8
0
  6
CADDY_SOLID
 10
80.0
 20
210.0
 30
0.0
 11
80.0
 21
215.0
 31
0.0
  0
LINE
  5
E4
  8
0
  6
CADDY_SOLID
 10
80.0
 20
215.0
 30
0.0
 11
75.0
 21
215.0
 31
0.0
  0
LINE
  5
E5
  8
0
  6
CADDY_SOLID
 10
75.0
 20
215.0
 30
0.0
 11
75.0
 21
210.0
 31
0.0
  0
ENDBLK
  8
0
  0
BLOCK
  8
0
  2
BLK6
 70
     0
 10
0.0
 20
0.0
 30
0.0
  0
LINE
  5
EF
  8
0
  6
CADDY_SOLID
 10
75.0
 20
205.0
 30
0.0
 11
80.0
 21
205.0
 31
0.0
  0
LINE
  5
F0
  8
0
  6
CADDY_SOLID
 10
80.0
 20
205.0
 30
0.0
 11
80.0
 21
210.0
 31
0.0
  0
LINE
  5
F1
  8
0
  6
CADDY_SOLID
 10
80.0
 20
210.0
 30
0.0
 11
75.0
 21
210.0
 31
0.0
  0
LINE
  5
F2
  8
0
  6
CADDY_SOLID
 10
75.0
 20
210.0
 30
0.0
 11
75.0
 21
205.0
 31
0.0
  0
ENDBLK
  8
0
  0
BLOCK
  8
0
  2
BLK7
 70
     0
 10
0.0
 20
0.0
 30
0.0
  0
LINE
  5
F7
  8
0
  6
CADDY_SOLID
 10
75.0
 20
200.0
 30
0.0
 11
80.0
 21
200.0
 31
0.0
  0
LINE
  5
F8
  8
0
  6
CADDY_SOLID
 10
80.0
 20
200.0
 30
0.0
 11
80.0
 21
205.0
 31
0.0
  0
LINE
  5
F9
  8
0
  6
CADDY_SOLID
 10
80.0
 20
205.0
 30
0.0
 11
75.0
 21
205.0
 31
0.0
  0
LINE
  5
FA
  8
0
  6
CADDY_SOLID
 10
75.0
 20
205.0
 30
0.0
 11
75.0
 21
200.0
 31
0.0
  0
ENDBLK
  8
0
  0
BLOCK
  8
0
  2
BLK8
 70
     0
 10
0.0
 20
0.0
 30
0.0
  0
LINE
  5
FF
  8
0
  6
CADDY_SOLID
 10
75.0
 20
195.0
 30
0.0
 11
80.0
 21
195.0
 31
0.0
  0
LINE
  5
100
  8
0
  6
CADDY_SOLID
 10
80.0
 20
195.0
 30
0.0
 11
80.0
 21
200.0
 31
0.0
  0
LINE
  5
101
  8
0
  6
CADDY_SOLID
 10
80.0
 20
200.0
 30
0.0
 11
75.0
 21
200.0
 31
0.0
  0
LINE
  5
102
  8
0
  6
CADDY_SOLID
 10
75.0
 20
200.0
 30
0.0
 11
75.0
 21
195.0
 31
0.0
  0
ENDBLK
  8
0
  0
BLOCK
  8
0
  2
BLK9
 70
     0
 10
0.0
 20
0.0
 30
0.0
  0
LINE
  5
10A
  8
0
  6
CADDY_SOLID
 10
75.0
 20
185.0
 30
0.0
 11
80.0
 21
185.0
 31
0.0
  0
LINE
  5
10B
  8
0
  6
CADDY_SOLID
 10
80.0
 20
185.0
 30
0.0
 11
80.0
 21
190.0
 31
0.0
  0
LINE
  5
10C
  8
0
  6
CADDY_SOLID
 10
80.0
 20
190.0
 30
0.0
 11
75.0
 21
190.0
 31
0.0
  0
LINE
  5
10D
  8
0
  6
CADDY_SOLID
 10
75.0
 20
190.0
 30
0.0
 11
75.0
 21
185.0
 31
0.0
  0
ENDBLK
  8
0
  0
BLOCK
  8
0
  2
BLK10
 70
     0
 10
0.0
 20
0.0
 30
0.0
  0
LINE
  5
112
  8
0
  6
CADDY_SOLID
 10
50.0
 20
75.0
 30
0.0
 11
70.0
 21
75.0
 31
0.0
  0
LINE
  5
113
  8
0
  6
CADDY_SOLID
 10
70.0
 20
75.0
 30
0.0
 11
70.0
 21
225.0
 31
0.0
  0
LINE
  5
114
  8
0
  6
CADDY_SOLID
 10
70.0
 20
225.0
 30
0.0
 11
50.0
 21
225.0
 31
0.0
  0
LINE
  5
115
  8
0
  6
CADDY_SOLID
 10
50.0
 20
225.0
 30
0.0
 11
50.0
 21
75.0
 31
0.0
  0
ENDBLK
  8
0
  0
BLOCK
  8
0
  2
BLK11
 70
     0
 10
0.0
 20
0.0
 30
0.0
  0
LINE
  5
11A
  8
0
  6
CADDY_SOLID
 10
70.0
 20
75.0
 30
0.0
 11
90.0
 21
75.0
 31
0.0
  0
LINE
  5
11B
  8
0
  6
CADDY_SOLID
 10
90.0
 20
75.0
 30
0.0
 11
90.0
 21
225.0
 31
0.0
  0
LINE
  5
11C
  8
0
  6
CADDY_SOLID
 10
90.0
 20
225.0
 30
0.0
 11
70.0
 21
225.0
 31
0.0
  0
LINE
  5
11D
  8
0
  6
CADDY_SOLID
 10
70.0
 20
225.0
 30
0.0
 11
70.0
 21
75.0
 31
0.0
  0
ENDBLK
  8
0
  0
BLOCK
  8
0
  2
BLK12
 70
     0
 10
0.0
 20
0.0
 30
0.0
  0
LINE
  5
122
  8
0
  6
CADDY_SOLID
 10
55.0
 20
215.0
 30
0.0
 11
65.0
 21
215.0
 31
0.0
  0
LINE
  5
123
  8
0
  6
CADDY_SOLID
 10
65.0
 20
215.0
 30
0.0
 11
65.0
 21
205.0
 31
0.0
  0
LINE
  5
124
  8
0
  6
CADDY_SOLID
 10
65.0
 20
205.0
 30
0.0
 11
55.0
 21
205.0
 31
0.0
  0
LINE
  5
125
  8
0
  6
CADDY_SOLID
 10
55.0
 20
205.0
 30
0.0
 11
55.0
 21
215.0
 31
0.0
  0
ENDBLK
  8
0
  0
BLOCK
  8
0
  2
BLK13
 70
     2
 10
0.0
 20
0.0
 30
0.0
  0
LINE
  5
143
  8
0
  6
CADDY_SOLID
 10
27.5
 20
260.0
 30
0.0
 11
25.25
 21
261.25
 31
0.0
  0
LINE
  5
144
  8
0
  6
CADDY_SOLID
 10
27.5
 20
260.0
 30
0.0
 11
25.25
 21
258.75
 31
0.0
  0
ATTDEF
  5
147
  8
0
 10
29.26500701904297
 20
260.9000244140625
 30
0.0
 40
2.449981689453125
  1
0708
 41
0.9
  7
CADDY_VECTORFONT1P
  3
Produkt (-)
  2
$TAG160010
 70
     0
  0
ATTDEF
  5
149
  8
0
 10
5.486902221679685
 20
258.9500122070312
 30
0.0
 40
2.449981689453125
  1
12.9
 41
0.9
  7
CADDY_VECTORFONT1P
 72
     2
 11
22.78499794006348
 21
258.9500122070312
 31
0.0
  3
Side/strømvej reference
  2
$TAG160500
 70
     0
  0
ATTDEF
  5
14B
  8
0
 10
29.26500701904297
 20
267.9000244140625
 30
0.0
 40
2.449981689453125
  1
=
 41
0.9
  7
CADDY_VECTORFONT1P
  3
Funktion (=)
  2
$TAG140020
 70
     1
  0
ATTDEF
  5
14D
  8
0
 10
29.26500701904297
 20
264.4000244140625
 30
0.0
 40
2.449981689453125
  1
+
 41
0.9
  7
CADDY_VECTORFONT1P
  3
Placering (+)
  2
$TAG140050
 70
     1
  0
ENDBLK
  8
0
  0
BLOCK
  8
0
  2
BLK14
 70
     2
 10
0.0
 20
0.0
 30
0.0
  0
LINE
  5
152
  8
0
  6
CADDY_SOLID
 10
392.5
 20
260.0
 30
0.0
 11
390.25
 21
261.25
 31
0.0
  0
LINE
  5
153
  8
0
  6
CADDY_SOLID
 10
392.5
 20
260.0
 30
0.0
 11
390.25
 21
258.75
 31
0.0
  0
ATTDEF
  5
156
  8
0
 10
370.9786803039551
 20
260.9000244140625
 30
0.0
 40
2.449981689453125
  1
0708
 41
0.9
  7
CADDY_VECTORFONT1P
 72
     2
 11
387.7850646972656
 21
260.9000244140625
 31
0.0
  3
Produkt (-)
  2
$TAG160010
 70
     0
  0
ATTDEF
  5
158
  8
0
 10
393.3650207519531
 20
258.9500122070312
 30
0.0
 40
2.449981689453125
  1
21.8
 41
0.9
  7
CADDY_VECTORFONT1P
  3
Side/strømvej reference
  2
$TAG160500
 70
     0
  0
ATTDEF
  5
15A
  8
0
 10
370.2421547729492
 20
267.9000244140625
 30
0.0
 40
2.449981689453125
  1
=
 41
0.9
  7
CADDY_VECTORFONT1P
 72
     2
 11
387.7850036621094
 21
267.9000244140625
 31
0.0
  3
Funktion (=)
  2
$TAG140020
 70
     1
  0
ATTDEF
  5
15C
  8
0
 10
370.2421547729492
 20
264.4000244140625
 30
0.0
 40
2.449981689453125
  1
+
 41
0.9
  7
CADDY_VECTORFONT1P
 72
     2
 11
387.7850036621094
 21
264.4000244140625
 31
0.0
  3
Placering (+)
  2
$TAG140050
 70
     1
  0
ENDBLK
  8
0
  0
BLOCK
  8
0
  2
BLK15
 70
     2
 10
0.0
 20
0.0
 30
0.0
  0
TEXT
  5
166
  8
0
 10
145.6999969482422
 20
220.6999969482422
 30
0.0
 40
2.449996948242188
  1
PDT3100
 41
0.9
  7
CADDY_VECTORFONT1P
  0
INSERT
  5
16A
  8
0
  2
BLK16
 10
0.0
 20
0.0
 30
1.0
  0
TEXT
  5
16F
  8
0
 10
150.6999969482422
 20
195.6999969482422
 30
0.0
 40
2.449996948242188
  1
IN
 41
0.9
  7
CADDY_VECTORFONT1P
  0
TEXT
  5
170
  8
0
 10
150.6999969482422
 20
190.6999969482422
 30
0.0
 40
2.449996948242188
  1
OUT
 41
0.9
  7
CADDY_VECTORFONT1P
  0
INSERT
  5
174
  8
0
  2
BLK17
 10
0.0
 20
0.0
 30
1.0
  0
INSERT
  5
17C
  8
0
  2
BLK18
 10
0.0
 20
0.0
 30
1.0
  0
TEXT
  5
181
  8
0
 10
145.6999969482422
 20
150.6999969482422
 30
0.0
 40
2.449996948242188
  1
INPUT
 41
0.9
  7
CADDY_VECTORFONT1P
  0
TEXT
  5
182
  8
0
 10
145.6999969482422
 20
110.6999969482422
 30
0.0
 40
2.450004577636719
  1
OUTPUT
 41
0.9
  7
CADDY_VECTORFONT1P
  0
TEXT
  5
183
  8
0
 10
150.6999969482422
 20
125.6999969482422
 30
0.0
 40
2.449996948242188
  1
DC
 41
0.9
  7
CADDY_VECTORFONT1P
  0
INSERT
  5
187
  8
0
  2
BLK19
 10
0.0
 20
0.0
 30
1.0
  0
INSERT
  5
18F
  8
0
  2
BLK20
 10
0.0
 20
0.0
 30
1.0
  0
LINE
  5
194
  8
0
  6
CADDY_SOLID
 10
145.0
 20
65.0
 30
0.0
 11
155.0
 21
65.0
 31
0.0
  0
CIRCLE
  5
195
  8
0
  6
CADDY_SOLID
 10
150.0
 20
70.0
 30
0.0
 40
5.0
  0
LINE
  5
196
  8
0
  6
CADDY_SOLID
 10
145.0
 20
65.0
 30
0.0
 11
155.0
 21
75.0
 31
0.0
  0
TEXT
  5
197
  8
0
 10
150.6999969482422
 20
65.69999694824219
 30
0.0
 40
2.450004577636719
  1
PE
 41
0.9
  7
CADDY_VECTORFONT1P
  0
LINE
  5
198
  8
0
  6
CADDY_SOLID
 10
140.0
 20
170.0
 30
0.0
 11
160.0
 21
170.0
 31
0.0
  0
ATTDEF
  5
19B
  8
0
 10
119.9935139862061
 20
145.6999969482422
 30
0.0
 40
2.449996948242188
  1
D1303
 41
0.9
  7
CADDY_VECTORFONT1P
 72
     2
 11
136.8000030517578
 21
145.6999969482422
 31
0.0
  3
Produkt (-)
  2
$TAG160010
 70
     0
  0
ATTDEF
  5
19D
  8
0
 10
119.5017995986939
 20
142.1999969482422
 30
0.0
 40
2.449996948242188
  1

 41
0.9
  7
CADDY_VECTORFONT1P
 72
     2
 11
136.8000030517578
 21
142.1999969482422
 31
0.0
  3
Beskrivelse 00
  2
$TAG160030
 70
     0
  0
ATTDEF
  5
19F
  8
0
 10
119.2570601623535
 20
138.6999969482422
 30
0.0
 40
2.449996948242188
  1
STBPDT3100
 41
0.9
  7
CADDY_VECTORFONT1P
 72
     2
 11
136.8000183105469
 21
138.6999969482422
 31
0.0
  3
Type
  2
$TAG160040
 70
     1
  0
ATTDEF
  5
1A1
  8
0
 10
119.2570449035645
 20
152.6999969482422
 30
0.0
 40
2.449996948242188
  1
=
 41
0.9
  7
CADDY_VECTORFONT1P
 72
     2
 11
136.8000030517578
 21
152.6999969482422
 31
0.0
  3
Funktion (=)
  2
$TAG140020
 70
     1
  0
ATTDEF
  5
1A3
  8
0
 10
119.2570296447754
 20
149.1999969482422
 30
0.0
 40
2.449996948242188
  1
+
 41
0.9
  7
CADDY_VECTORFONT1P
 72
     2
 11
136.7999877929688
 21
149.1999969482422
 31
0.0
  3
Placering (+)
  2
$TAG140050
 70
     1
  0
TEXT
  5
1A4
  8
0
 10
150.6999969482422
 20
140.6999969482422
 30
0.0
 40
2.449996948242188
  1
+
 41
0.9
  7
CADDY_VECTORFONT1P
  0
TEXT
  5
1A5
  8
0
 10
150.6999969482422
 20
100.6999969482422
 30
0.0
 40
2.450004577636719
  1
+
 41
0.9
  7
CADDY_VECTORFONT1P
  0
TEXT
  5
1A6
  8
0
 10
150.6999969482422
 20
135.6999969482422
 30
0.0
 40
2.449996948242188
  1
-
 41
0.9
  7
CADDY_VECTORFONT1P
  0
TEXT
  5
1A7
  8
0
 10
150.6999969482422
 20
95.69999694824219
 30
0.0
 40
2.450004577636719
  1
-
 41
0.9
  7
CADDY_VECTORFONT1P
  0
ENDBLK
  8
0
  0
BLOCK
  8
0
  2
BLK16
 70
     0
 10
0.0
 20
0.0
 30
0.0
  0
LINE
  5
16B
  8
0
  6
CADDY_SOLID
 10
145.0
 20
195.0
 30
0.0
 11
150.0
 21
195.0
 31
0.0
  0
LINE
  5
16C
  8
0
  6
CADDY_SOLID
 10
150.0
 20
195.0
 30
0.0
 11
150.0
 21
200.0
 31
0.0
  0
LINE
  5
16D
  8
0
  6
CADDY_SOLID
 10
150.0
 20
200.0
 30
0.0
 11
145.0
 21
200.0
 31
0.0
  0
LINE
  5
16E
  8
0
  6
CADDY_SOLID
 10
145.0
 20
200.0
 30
0.0
 11
145.0
 21
195.0
 31
0.0
  0
ENDBLK
  8
0
  0
BLOCK
  8
0
  2
BLK17
 70
     0
 10
0.0
 20
0.0
 30
0.0
  0
LINE
  5
175
  8
0
  6
CADDY_SOLID
 10
145.0
 20
190.0
 30
0.0
 11
150.0
 21
190.0
 31
0.0
  0
LINE
  5
176
  8
0
  6
CADDY_SOLID
 10
150.0
 20
190.0
 30
0.0
 11
150.0
 21
195.0
 31
0.0
  0
LINE
  5
177
  8
0
  6
CADDY_SOLID
 10
150.0
 20
195.0
 30
0.0
 11
145.0
 21
195.0
 31
0.0
  0
LINE
  5
178
  8
0
  6
CADDY_SOLID
 10
145.0
 20
195.0
 30
0.0
 11
145.0
 21
190.0
 31
0.0
  0
ENDBLK
  8
0
  0
BLOCK
  8
0
  2
BLK18
 70
     0
 10
0.0
 20
0.0
 30
0.0
  0
LINE
  5
17D
  8
0
  6
CADDY_SOLID
 10
140.0
 20
75.0
 30
0.0
 11
160.0
 21
75.0
 31
0.0
  0
LINE
  5
17E
  8
0
  6
CADDY_SOLID
 10
160.0
 20
75.0
 30
0.0
 11
160.0
 21
225.0
 31
0.0
  0
LINE
  5
17F
  8
0
  6
CADDY_SOLID
 10
160.0
 20
225.0
 30
0.0
 11
140.0
 21
225.0
 31
0.0
  0
LINE
  5
180
  8
0
  6
CADDY_SOLID
 10
140.0
 20
225.0
 30
0.0
 11
140.0
 21
75.0
 31
0.0
  0
ENDBLK
  8
0
  0
BLOCK
  8
0
  2
BLK19
 70
     0
 10
0.0
 20
0.0
 30
0.0
  0
LINE
  5
188
  8
0
  6
CADDY_SOLID
 10
145.0
 20
75.0
 30
0.0
 11
145.0
 21
75.0
 31
0.0
  0
LINE
  5
189
  8
0
  6
CADDY_SOLID
 10
145.0
 20
75.0
 30
0.0
 11
145.0
 21
65.0
 31
0.0
  0
LINE
  5
18A
  8
0
  6
CADDY_SOLID
 10
145.0
 20
65.0
 30
0.0
 11
145.0
 21
65.0
 31
0.0
  0
LINE
  5
18B
  8
0
  6
CADDY_SOLID
 10
145.0
 20
65.0
 30
0.0
 11
145.0
 21
75.0
 31
0.0
  0
ENDBLK
  8
0
  0
BLOCK
  8
0
  2
BLK20
 70
     0
 10
0.0
 20
0.0
 30
0.0
  0
LINE
  5
190
  8
0
  6
CADDY_SOLID
 10
155.0
 20
65.0
 30
0.0
 11
155.0
 21
65.0
 31
0.0
  0
LINE
  5
191
  8
0
  6
CADDY_SOLID
 10
155.0
 20
65.0
 30
0.0
 11
155.0
 21
75.0
 31
0.0
  0
LINE
  5
192
  8
0
  6
CADDY_SOLID
 10
155.0
 20
75.0
 30
0.0
 11
155.0
 21
75.0
 31
0.0
  0
LINE
  5
193
  8
0
  6
CADDY_SOLID
 10
155.0
 20
75.0
 30
0.0
 11
155.0
 21
65.0
 31
0.0
  0
ENDBLK
  8
0
  0
BLOCK
  8
0
  2
BLK21
 70
     2
 10
0.0
 20
0.0
 30
0.0
  0
LINE
  5
1AC
  8
0
  6
CADDY_SOLID
 10
27.5
 20
255.0
 30
0.0
 11
25.25
 21
256.25
 31
0.0
  0
LINE
  5
1AD
  8
0
  6
CADDY_SOLID
 10
27.5
 20
255.0
 30
0.0
 11
25.25
 21
253.75
 31
0.0
  0
ATTDEF
  5
1B0
  8
0
 10
29.26500701904297
 20
255.9000091552734
 30
0.0
 40
2.449996948242188
  1
0707
 41
0.9
  7
CADDY_VECTORFONT1P
  3
Produkt (-)
  2
$TAG160010
 70
     0
  0
ATTDEF
  5
1B2
  8
0
 10
5.486794486999514
 20
253.9499969482422
 30
0.0
 40
2.449996948242188
  1
12.9
 41
0.9
  7
CADDY_VECTORFONT1P
 72
     2
 11
22.78499794006348
 21
253.9499969482422
 31
0.0
  3
Side/strømvej reference
  2
$TAG160500
 70
     0
  0
ATTDEF
  5
1B4
  8
0
 10
29.26500701904297
 20
262.9000244140625
 30
0.0
 40
2.449981689453125
  1
=
 41
0.9
  7
CADDY_VECTORFONT1P
  3
Funktion (=)
  2
$TAG140020
 70
     1
  0
ATTDEF
  5
1B6
  8
0
 10
29.26500701904297
 20
259.4000244140625
 30
0.0
 40
2.449981689453125
  1
+
 41
0.9
  7
CADDY_VECTORFONT1P
  3
Placering (+)
  2
$TAG140050
 70
     1
  0
ENDBLK
  8
0
  0
BLOCK
  8
0
  2
BLK22
 70
     2
 10
0.0
 20
0.0
 30
0.0
  0
LINE
  5
1BB
  8
0
  6
CADDY_SOLID
 10
392.5
 20
255.0
 30
0.0
 11
390.25
 21
256.25
 31
0.0
  0
LINE
  5
1BC
  8
0
  6
CADDY_SOLID
 10
392.5
 20
255.0
 30
0.0
 11
390.25
 21
253.75
 31
0.0
  0
ATTDEF
  5
1BF
  8
0
 10
370.9785756317139
 20
255.9000091552734
 30
0.0
 40
2.449996948242188
  1
0707
 41
0.9
  7
CADDY_VECTORFONT1P
 72
     2
 11
387.7850646972656
 21
255.9000091552734
 31
0.0
  3
Produkt (-)
  2
$TAG160010
 70
     0
  0
ATTDEF
  5
1C1
  8
0
 10
393.3650207519531
 20
253.9499969482422
 30
0.0
 40
2.449996948242188
  1
21.8
 41
0.9
  7
CADDY_VECTORFONT1P
  3
Side/strømvej reference
  2
$TAG160500
 70
     0
  0
ATTDEF
  5
1C3
  8
0
 10
370.2421547729492
 20
262.9000244140625
 30
0.0
 40
2.449981689453125
  1
=
 41
0.9
  7
CADDY_VECTORFONT1P
 72
     2
 11
387.7850036621094
 21
262.9000244140625
 31
0.0
  3
Funktion (=)
  2
$TAG140020
 70
     1
  0
ATTDEF
  5
1C5
  8
0
 10
370.2421547729492
 20
259.4000244140625
 30
0.0
 40
2.449981689453125
  1
+
 41
0.9
  7
CADDY_VECTORFONT1P
 72
     2
 11
387.7850036621094
 21
259.4000244140625
 31
0.0
  3
Placering (+)
  2
$TAG140050
 70
     1
  0
ENDBLK
  8
0
  0
BLOCK
  8
0
  2
BLK23
 70
     2
 10
0.0
 20
0.0
 30
0.0
  0
CIRCLE
  5
1CD
  8
0
  6
CADDY_SOLID
 10
147.5
 20
140.0
 30
0.0
 40
0.75
  0
LINE
  5
1CE
  8
0
  6
CADDY_SOLID
 10
146.75
 20
140.0
 30
0.0
 11
145.0
 21
140.0
 31
0.0
  0
LINE
  5
1CF
  8
0
  6
CADDY_SOLID
 10
150.0
 20
140.0
 30
0.0
 11
148.25
 21
140.0
 31
0.0
  0
ATTDEF
  5
1D2
  8
0
 10
128.3435200897217
 20
140.9000091552734
 30
0.0
 40
2.449996948242188
  1
3U3
 41
0.9
  7
CADDY_VECTORFONT1P
 72
     2
 11
145.1500091552734
 21
140.9000091552734
 31
0.0
  3
Produkt (-)
  2
$TAG160010
 70
     0
  0
ATTDEF
  5
1D4
  8
0
 10
149.1500091552734
 20
140.9000091552734
 30
0.0
 40
2.449996948242188
  1
1
 41
0.9
  7
CADDY_VECTORFONT1P
  3
Klemmenummer
  2
$TAG160400
 70
     1
  0
ATTDEF
  5
1D6
  8
0
 10
149.1500091552734
 20
137.4000091552734
 30
0.0
 40
2.449996948242188
  1
1
 41
0.9
  7
CADDY_VECTORFONT1P
  3
Sorteringsindeks
  2
$TAG160410
 70
     1
  0
ATTDEF
  5
1D8
  8
0
 10
127.8518057022095
 20
136.5999908447266
 30
0.0
 40
2.449996948242188
  1

 41
0.9
  7
CADDY_VECTORFONT1P
 72
     2
 11
145.1500091552734
 21
136.5999908447266
 31
0.0
  3
Beskrivelse 00
  2
$TAG160030
 70
     1
  0
ATTDEF
  5
1DA
  8
0
 10
127.6070662658692
 20
131.5999908447266
 30
0.0
 40
2.449996948242188
  1
STBPDT3100
 41
0.9
  7
CADDY_VECTORFONT1P
 72
     2
 11
145.1500244140625
 21
131.5999908447266
 31
0.0
  3
Type
  2
$TAG160040
 70
     1
  0
ATTDEF
  5
1DC
  8
0
 10
127.6070510070801
 20
147.9000091552734
 30
0.0
 40
2.449996948242188
  1
=
 41
0.9
  7
CADDY_VECTORFONT1P
 72
     2
 11
145.1500091552734
 21
147.9000091552734
 31
0.0
  3
Funktion (=)
  2
$TAG140020
 70
     1
  0
ATTDEF
  5
1DE
  8
0
 10
127.607035748291
 20
144.4000091552734
 30
0.0
 40
2.449996948242188
  1
+
 41
0.9
  7
CADDY_VECTORFONT1P
 72
     2
 11
145.1499938964844
 21
144.4000091552734
 31
0.0
  3
Placering (+)
  2
$TAG140050
 70
     1
  0
ENDBLK
  8
0
  0
BLOCK
  8
0
  2
BLK24
 70
     2
 10
0.0
 20
0.0
 30
0.0
  0
CIRCLE
  5
1E3
  8
0
  6
CADDY_SOLID
 10
147.5
 20
135.0
 30
0.0
 40
0.75
  0
LINE
  5
1E4
  8
0
  6
CADDY_SOLID
 10
146.75
 20
135.0
 30
0.0
 11
145.0
 21
135.0
 31
0.0
  0
LINE
  5
1E5
  8
0
  6
CADDY_SOLID
 10
150.0
 20
135.0
 30
0.0
 11
148.25
 21
135.0
 31
0.0
  0
ATTDEF
  5
1E8
  8
0
 10
128.3435353485108
 20
135.9000091552734
 30
0.0
 40
2.449996948242188
  1
-2U2
 41
0.9
  7
CADDY_VECTORFONT1P
 72
     2
 11
145.1500244140625
 21
135.9000091552734
 31
0.0
  3
Produkt (-)
  2
$TAG160010
 70
     1
  0
ATTDEF
  5
1EA
  8
0
 10
149.1499938964844
 20
135.9000091552734
 30
0.0
 40
2.449996948242188
  1
2
 41
0.9
  7
CADDY_VECTORFONT1P
  3
Klemmenummer
  2
$TAG160400
 70
     1
  0
ATTDEF
  5
1EC
  8
0
 10
149.1499938964844
 20
132.4000091552734
 30
0.0
 40
2.449996948242188
  1
3
 41
0.9
  7
CADDY_VECTORFONT1P
  3
Sorteringsindeks
  2
$TAG160410
 70
     1
  0
ATTDEF
  5
1EE
  8
0
 10
127.8518057022095
 20
131.5999908447266
 30
0.0
 40
2.449996948242188
  1

 41
0.9
  7
CADDY_VECTORFONT1P
 72
     2
 11
145.1500091552734
 21
131.5999908447266
 31
0.0
  3
Beskrivelse 00
  2
$TAG160030
 70
     1
  0
ATTDEF
  5
1F0
  8
0
 10
127.6070510070801
 20
126.5999908447266
 30
0.0
 40
2.449996948242188
  1

 41
0.9
  7
CADDY_VECTORFONT1P
 72
     2
 11
145.1500091552734
 21
126.5999908447266
 31
0.0
  3
Type
  2
$TAG160040
 70
     1
  0
ATTDEF
  5
1F2
  8
0
 10
127.6070510070801
 20
142.9000091552734
 30
0.0
 40
2.449996948242188
  1
=
 41
0.9
  7
CADDY_VECTORFONT1P
 72
     2
 11
145.1500091552734
 21
142.9000091552734
 31
0.0
  3
Funktion (=)
  2
$TAG140020
 70
     1
  0
ATTDEF
  5
1F4
  8
0
 10
127.607035748291
 20
139.4000091552734
 30
0.0
 40
2.449996948242188
  1
+
 41
0.9
  7
CADDY_VECTORFONT1P
 72
     2
 11
145.1499938964844
 21
139.4000091552734
 31
0.0
  3
Placering (+)
  2
$TAG140050
 70
     1
  0
ENDBLK
  8
0
  0
BLOCK
  8
0
  2
BLK25
 70
     2
 10
0.0
 20
0.0
 30
0.0
  0
CIRCLE
  5
1F9
  8
0
  6
CADDY_SOLID
 10
147.5
 20
100.0
 30
0.0
 40
0.75
  0
LINE
  5
1FA
  8
0
  6
CADDY_SOLID
 10
146.75
 20
100.0
 30
0.0
 11
145.0
 21
100.0
 31
0.0
  0
LINE
  5
1FB
  8
0
  6
CADDY_SOLID
 10
150.0
 20
100.0
 30
0.0
 11
148.25
 21
100.0
 31
0.0
  0
ATTDEF
  5
1FE
  8
0
 10
128.3434830123902
 20
100.8999938964844
 30
0.0
 40
2.450004577636719
  1
-2U2
 41
0.9
  7
CADDY_VECTORFONT1P
 72
     2
 11
145.1500244140625
 21
100.8999938964844
 31
0.0
  3
Produkt (-)
  2
$TAG160010
 70
     1
  0
ATTDEF
  5
200
  8
0
 10
149.1500091552734
 20
100.8999938964844
 30
0.0
 40
2.450004577636719
  1
3
 41
0.9
  7
CADDY_VECTORFONT1P
  3
Klemmenummer
  2
$TAG160400
 70
     1
  0
ATTDEF
  5
202
  8
0
 10
149.1500091552734
 20
97.39999389648438
 30
0.0
 40
2.450004577636719
  1
4
 41
0.9
  7
CADDY_VECTORFONT1P
  3
Sorteringsindeks
  2
$TAG160410
 70
     1
  0
ATTDEF
  5
204
  8
0
 10
127.8517518348694
 20
96.59999084472656
 30
0.0
 40
2.450004577636719
  1

 41
0.9
  7
CADDY_VECTORFONT1P
 72
     2
 11
145.1500091552734
 21
96.59999084472656
 31
0.0
  3
Beskrivelse 00
  2
$TAG160030
 70
     1
  0
ATTDEF
  5
206
  8
0
 10
127.6070116363525
 20
91.59999084472656
 30
0.0
 40
2.450004577636719
  1
STBXTS2130
 41
0.9
  7
CADDY_VECTORFONT1P
 72
     2
 11
145.1500244140625
 21
91.59999084472656
 31
0.0
  3
Type
  2
$TAG160040
 70
     1
  0
ATTDEF
  5
208
  8
0
 10
127.6069963775635
 20
107.8999938964844
 30
0.0
 40
2.450004577636719
  1
=
 41
0.9
  7
CADDY_VECTORFONT1P
 72
     2
 11
145.1500091552734
 21
107.8999938964844
 31
0.0
  3
Funktion (=)
  2
$TAG140020
 70
     1
  0
ATTDEF
  5
20A
  8
0
 10
127.6069811187744
 20
104.3999938964844
 30
0.0
 40
2.450004577636719
  1
+
 41
0.9
  7
CADDY_VECTORFONT1P
 72
     2
 11
145.1499938964844
 21
104.3999938964844
 31
0.0
  3
Placering (+)
  2
$TAG140050
 70
     1
  0
ENDBLK
  8
0
  0
BLOCK
  8
0
  2
BLK26
 70
     2
 10
0.0
 20
0.0
 30
0.0
  0
CIRCLE
  5
20F
  8
0
  6
CADDY_SOLID
 10
147.5
 20
95.0
 30
0.0
 40
0.75
  0
LINE
  5
210
  8
0
  6
CADDY_SOLID
 10
146.75
 20
95.0
 30
0.0
 11
145.0
 21
95.0
 31
0.0
  0
LINE
  5
211
  8
0
  6
CADDY_SOLID
 10
150.0
 20
95.0
 30
0.0
 11
148.25
 21
95.0
 31
0.0
  0
ATTDEF
  5
214
  8
0
 10
128.3434830123902
 20
95.89999389648438
 30
0.0
 40
2.450004577636719
  1
-2U2
 41
0.9
  7
CADDY_VECTORFONT1P
 72
     2
 11
145.1500244140625
 21
95.89999389648438
 31
0.0
  3
Produkt (-)
  2
$TAG160010
 70
     1
  0
ATTDEF
  5
216
  8
0
 10
149.1499938964844
 20
95.89999389648438
 30
0.0
 40
2.450004577636719
  1
4
 41
0.9
  7
CADDY_VECTORFONT1P
  3
Klemmenummer
  2
$TAG160400
 70
     1
  0
ATTDEF
  5
218
  8
0
 10
149.1499938964844
 20
92.39999389648438
 30
0.0
 40
2.450004577636719
  1
5
 41
0.9
  7
CADDY_VECTORFONT1P
  3
Sorteringsindeks
  2
$TAG160410
 70
     1
  0
ATTDEF
  5
21A
  8
0
 10
127.8517518348694
 20
91.59999084472656
 30
0.0
 40
2.450004577636719
  1

 41
0.9
  7
CADDY_VECTORFONT1P
 72
     2
 11
145.1500091552734
 21
91.59999084472656
 31
0.0
  3
Beskrivelse 00
  2
$TAG160030
 70
     1
  0
ATTDEF
  5
21C
  8
0
 10
127.6069963775635
 20
86.59999084472656
 30
0.0
 40
2.450004577636719
  1

 41
0.9
  7
CADDY_VECTORFONT1P
 72
     2
 11
145.1500091552734
 21
86.59999084472656
 31
0.0
  3
Type
  2
$TAG160040
 70
     1
  0
ATTDEF
  5
21E
  8
0
 10
127.6069963775635
 20
102.8999938964844
 30
0.0
 40
2.450004577636719
  1
=
 41
0.9
  7
CADDY_VECTORFONT1P
 72
     2
 11
145.1500091552734
 21
102.8999938964844
 31
0.0
  3
Funktion (=)
  2
$TAG140020
 70
     1
  0
ATTDEF
  5
220
  8
0
 10
127.6069811187744
 20
99.39999389648438
 30
0.0
 40
2.450004577636719
  1
+
 41
0.9
  7
CADDY_VECTORFONT1P
 72
     2
 11
145.1499938964844
 21
99.39999389648438
 31
0.0
  3
Placering (+)
  2
$TAG140050
 70
     1
  0
ENDBLK
  8
0
  0
BLOCK
  8
0
  2
BLK27
 70
     2
 10
0.0
 20
0.0
 30
0.0
  0
LINE
  5
229
  8
0
  6
CADDY_SOLID
 10
62.5
 20
235.0
 30
0.0
 11
60.25
 21
236.25
 31
0.0
  0
LINE
  5
22A
  8
0
  6
CADDY_SOLID
 10
62.5
 20
235.0
 30
0.0
 11
60.25
 21
233.75
 31
0.0
  0
LINE
  5
22B
  8
0
  6
CADDY_SOLID
 10
60.0
 20
235.0
 30
0.0
 11
62.5
 21
235.0
 31
0.0
  0
ATTDEF
  5
22E
  8
0
 10
40.69351093444824
 20
235.9000091552734
 30
0.0
 40
2.449996948242188
  1
Ethernet
 41
0.9
  7
CADDY_VECTORFONT1P
 72
     2
 11
57.5
 21
235.9000091552734
 31
0.0
  3
Produkt (-)
  2
$TAG160010
 70
     0
  0
ATTDEF
  5
230
  8
0
 10
64.64999389648438
 20
233.8499908447266
 30
0.0
 40
2.449996948242188
  1

 41
0.9
  7
CADDY_VECTORFONT1P
  3
Side/strømvej reference
  2
$TAG160500
 70
     0
  0
ATTDEF
  5
232
  8
0
 10
39.95703803710938
 20
242.9000091552734
 30
0.0
 40
2.449996948242188
  1
=
 41
0.9
  7
CADDY_VECTORFONT1P
 72
     2
 11
57.49999618530273
 21
242.9000091552734
 31
0.0
  3
Funktion (=)
  2
$TAG140020
 70
     1
  0
ATTDEF
  5
234
  8
0
 10
39.95704185180664
 20
239.4000091552734
 30
0.0
 40
2.449996948242188
  1
+
 41
0.9
  7
CADDY_VECTORFONT1P
 72
     2
 11
57.5
 21
239.4000091552734
 31
0.0
  3
Placering (+)
  2
$TAG140050
 70
     1
  0
ENDBLK
  8
0
  0
BLOCK
  8
0
  2
BLK28
 70
     2
 10
0.0
 20
0.0
 30
0.0
  0
LINE
  5
24A
  8
0
  6
CADDY_SOLID
 10
27.5
 20
55.0
 30
0.0
 11
25.25
 21
56.25
 31
0.0
  0
LINE
  5
24B
  8
0
  6
CADDY_SOLID
 10
27.5
 20
55.0
 30
0.0
 11
25.25
 21
53.75
 31
0.0
  0
ATTDEF
  5
24E
  8
0
 10
29.26500701904297
 20
55.89999771118164
 30
0.0
 40
2.450000762939453
  1
PE
 41
0.9
  7
CADDY_VECTORFONT1P
  3
Produkt (-)
  2
$TAG160010
 70
     0
  0
ATTDEF
  5
250
  8
0
 10
5.486782812118527
 20
53.95000076293945
 30
0.0
 40
2.450000762939453
  1
12.9
 41
0.9
  7
CADDY_VECTORFONT1P
 72
     2
 11
22.78501319885254
 21
53.95000076293945
 31
0.0
  3
Side/strømvej reference
  2
$TAG160500
 70
     0
  0
ATTDEF
  5
252
  8
0
 10
29.26500701904297
 20
62.89999771118164
 30
0.0
 40
2.450000762939453
  1
=
 41
0.9
  7
CADDY_VECTORFONT1P
  3
Funktion (=)
  2
$TAG140020
 70
     1
  0
ATTDEF
  5
254
  8
0
 10
29.26500701904297
 20
59.39999771118164
 30
0.0
 40
2.450000762939453
  1
+
 41
0.9
  7
CADDY_VECTORFONT1P
  3
Placering (+)
  2
$TAG140050
 70
     1
  0
ENDBLK
  8
0
  0
BLOCK
  8
0
  2
BLK29
 70
     2
 10
0.0
 20
0.0
 30
0.0
  0
LINE
  5
259
  8
0
  6
CADDY_SOLID
 10
392.5
 20
55.0
 30
0.0
 11
390.25
 21
56.25
 31
0.0
  0
LINE
  5
25A
  8
0
  6
CADDY_SOLID
 10
392.5
 20
55.0
 30
0.0
 11
390.25
 21
53.75
 31
0.0
  0
ATTDEF
  5
25D
  8
0
 10
370.9785189460754
 20
55.89999771118164
 30
0.0
 40
2.450000762939453
  1
PE
 41
0.9
  7
CADDY_VECTORFONT1P
 72
     2
 11
387.7850341796875
 21
55.89999771118164
 31
0.0
  3
Produkt (-)
  2
$TAG160010
 70
     0
  0
ATTDEF
  5
25F
  8
0
 10
393.3650207519531
 20
53.95000076293945
 30
0.0
 40
2.450000762939453
  1
20.0
 41
0.9
  7
CADDY_VECTORFONT1P
  3
Side/strømvej reference
  2
$TAG160500
 70
     0
  0
ATTDEF
  5
261
  8
0
 10
370.2420181991577
 20
62.89999771118164
 30
0.0
 40
2.450000762939453
  1
=
 41
0.9
  7
CADDY_VECTORFONT1P
 72
     2
 11
387.7850036621094
 21
62.89999771118164
 31
0.0
  3
Funktion (=)
  2
$TAG140020
 70
     1
  0
ATTDEF
  5
263
  8
0
 10
370.2420181991577
 20
59.39999771118164
 30
0.0
 40
2.450000762939453
  1
+
 41
0.9
  7
CADDY_VECTORFONT1P
 72
     2
 11
387.7850036621094
 21
59.39999771118164
 31
0.0
  3
Placering (+)
  2
$TAG140050
 70
     1
  0
ENDBLK
  8
0
  0
BLOCK
  8
0
  2
BLK30
 70
     2
 10
0.0
 20
0.0
 30
0.0
  0
TEXT
  5
286
  8
0
 10
180.6999969482422
 20
220.6999969482422
 30
0.0
 40
2.449996948242188
  1
EHC3020
 41
0.9
  7
CADDY_VECTORFONT1P
  0
INSERT
  5
28A
  8
0
  2
BLK31
 10
0.0
 20
0.0
 30
1.0
  0
TEXT
  5
28F
  8
0
 10
200.6999969482422
 20
210.6999969482422
 30
0.0
 40
2.449996948242188
  1
RDY
 41
0.9
  7
CADDY_VECTORFONT1P
  0
TEXT
  5
290
  8
0
 10
200.6999969482422
 20
205.6999969482422
 30
0.0
 40
2.449996948242188
  1
FLT
 41
0.9
  7
CADDY_VECTORFONT1P
  0
INSERT
  5
294
  8
0
  2
BLK32
 10
0.0
 20
0.0
 30
1.0
  0
INSERT
  5
29C
  8
0
  2
BLK33
 10
0.0
 20
0.0
 30
1.0
  0
INSERT
  5
2A4
  8
0
  2
BLK34
 10
0.0
 20
0.0
 30
1.0
  0
INSERT
  5
2AC
  8
0
  2
BLK35
 10
0.0
 20
0.0
 30
1.0
  0
INSERT
  5
2B4
  8
0
  2
BLK36
 10
0.0
 20
0.0
 30
1.0
  0
INSERT
  5
2BC
  8
0
  2
BLK37
 10
0.0
 20
0.0
 30
1.0
  0
INSERT
  5
2C4
  8
0
  2
BLK38
 10
0.0
 20
0.0
 30
1.0
  0
TEXT
  5
2C9
  8
0
 10
200.6999969482422
 20
200.6999969482422
 30
0.0
 40
2.449996948242188
  1
OUT1
 41
0.9
  7
CADDY_VECTORFONT1P
  0
TEXT
  5
2CA
  8
0
 10
200.6999969482422
 20
195.6999969482422
 30
0.0
 40
2.449996948242188
  1
OUT2
 41
0.9
  7
CADDY_VECTORFONT1P
  0
TEXT
  5
2CB
  8
0
 10
200.6999969482422
 20
190.6999969482422
 30
0.0
 40
2.449996948242188
  1
IN A
 41
0.9
  7
CADDY_VECTORFONT1P
  0
TEXT
  5
2CC
  8
0
 10
200.6999969482422
 20
185.6999969482422
 30
0.0
 40
2.449996948242188
  1
IN B
 41
0.9
  7
CADDY_VECTORFONT1P
  0
TEXT
  5
2CD
  8
0
 10
200.6999969482422
 20
180.6999969482422
 30
0.0
 40
2.449996948242188
  1
RST
 41
0.9
  7
CADDY_VECTORFONT1P
  0
TEXT
  5
2CE
  8
0
 10
200.6999969482422
 20
175.6999969482422
 30
0.0
 40
2.449996948242188
  1
EN
 41
0.9
  7
CADDY_VECTORFONT1P
  0
LINE
  5
2CF
  8
0
  6
CADDY_SOLID
 10
170.0
 20
170.0
 30
0.0
 11
210.0
 21
170.0
 31
0.0
  0
ATTDEF
  5
2D2
  8
0
 10
149.5017995986939
 20
147.1999969482422
 30
0.0
 40
2.449996948242188
  1

 41
0.9
  7
CADDY_VECTORFONT1P
 72
     2
 11
166.8000030517578
 21
147.1999969482422
 31
0.0
  3
Beskrivelse 00
  2
$TAG160030
 70
     0
  0
ATTDEF
  5
2D4
  8
0
 10
149.2570449035645
 20
157.6999969482422
 30
0.0
 40
2.449996948242188
  1
=
 41
0.9
  7
CADDY_VECTORFONT1P
 72
     2
 11
166.8000030517578
 21
157.6999969482422
 31
0.0
  3
Funktion (=)
  2
$TAG140020
 70
     1
  0
INSERT
  5
2D8
  8
0
  2
BLK39
 10
0.0
 20
0.0
 30
1.0
  0
ATTDEF
  5
2DE
  8
0
 10
149.5017995986939
 20
147.1999969482422
 30
0.0
 40
2.449996948242188
  1

 41
0.9
  7
CADDY_VECTORFONT1P
 72
     2
 11
166.8000030517578
 21
147.1999969482422
 31
0.0
  3
Beskrivelse 00
  2
$TAG160030
 70
     0
  0
ATTDEF
  5
2E0
  8
0
 10
149.2570601623535
 20
143.6999969482422
 30
0.0
 40
2.449996948242188
  1
EHC3020
 41
0.9
  7
CADDY_VECTORFONT1P
 72
     2
 11
166.8000183105469
 21
143.6999969482422
 31
0.0
  3
Type
  2
$TAG160040
 70
     1
  0
ATTDEF
  5
2E2
  8
0
 10
149.2570449035645
 20
157.6999969482422
 30
0.0
 40
2.449996948242188
  1
=
 41
0.9
  7
CADDY_VECTORFONT1P
 72
     2
 11
166.8000030517578
 21
157.6999969482422
 31
0.0
  3
Funktion (=)
  2
$TAG140020
 70
     1
  0
LINE
  5
2E3
  8
0
  6
CADDY_SOLID
 10
180.0
 20
85.0
 30
0.0
 11
180.0
 21
130.0
 31
0.0
  0
LINE
  5
2E4
  8
0
  6
CADDY_SOLID
 10
180.0
 20
130.0
 30
0.0
 11
190.0
 21
130.0
 31
0.0
  0
LINE
  5
2E5
  8
0
  6
CADDY_SOLID
 10
190.0
 20
130.0
 30
0.0
 11
190.0
 21
85.0
 31
0.0
  0
LINE
  5
2E6
  8
0
  6
CADDY_SOLID
 10
190.0
 20
85.0
 30
0.0
 11
180.0
 21
85.0
 31
0.0
  0
TEXT
  5
2E7
  8
0
 10
175.6999969482422
 20
125.6999969482422
 30
0.0
 40
2.449996948242188
  1
1
 41
0.9
  7
CADDY_VECTORFONT1P
  0
TEXT
  5
2E8
  8
0
 10
175.6999969482422
 20
120.6999969482422
 30
0.0
 40
2.450004577636719
  1
3
 41
0.9
  7
CADDY_VECTORFONT1P
  0
TEXT
  5
2E9
  8
0
 10
175.6999969482422
 20
115.6999969482422
 30
0.0
 40
2.450004577636719
  1
5
 41
0.9
  7
CADDY_VECTORFONT1P
  0
TEXT
  5
2EA
  8
0
 10
175.6999969482422
 20
110.6999969482422
 30
0.0
 40
2.450004577636719
  1
7
 41
0.9
  7
CADDY_VECTORFONT1P
  0
TEXT
  5
2EB
  8
0
 10
175.6999969482422
 20
105.6999969482422
 30
0.0
 40
2.450004577636719
  1
9
 41
0.9
  7
CADDY_VECTORFONT1P
  0
TEXT
  5
2EC
  8
0
 10
175.6999969482422
 20
100.6999969482422
 30
0.0
 40
2.450004577636719
  1
11
 41
0.9
  7
CADDY_VECTORFONT1P
  0
TEXT
  5
2ED
  8
0
 10
175.6999969482422
 20
95.69999694824219
 30
0.0
 40
2.450004577636719
  1
13
 41
0.9
  7
CADDY_VECTORFONT1P
  0
TEXT
  5
2EE
  8
0
 10
175.6999969482422
 20
90.69999694824219
 30
0.0
 40
2.450004577636719
  1
15
 41
0.9
  7
CADDY_VECTORFONT1P
  0
TEXT
  5
2EF
  8
0
 10
175.6999969482422
 20
85.69999694824219
 30
0.0
 40
2.450004577636719
  1
17
 41
0.9
  7
CADDY_VECTORFONT1P
  0
TEXT
  5
2F0
  8
0
 10
190.6999969482422
 20
85.69999694824219
 30
0.0
 40
2.450004577636719
  1
18
 41
0.9
  7
CADDY_VECTORFONT1P
  0
TEXT
  5
2F1
  8
0
 10
190.6999969482422
 20
90.69999694824219
 30
0.0
 40
2.450004577636719
  1
16
 41
0.9
  7
CADDY_VECTORFONT1P
  0
TEXT
  5
2F2
  8
0
 10
190.6999969482422
 20
95.69999694824219
 30
0.0
 40
2.450004577636719
  1
14
 41
0.9
  7
CADDY_VECTORFONT1P
  0
TEXT
  5
2F3
  8
0
 10
190.6999969482422
 20
100.6999969482422
 30
0.0
 40
2.450004577636719
  1
12
 41
0.9
  7
CADDY_VECTORFONT1P
  0
TEXT
  5
2F4
  8
0
 10
190.6999969482422
 20
105.6999969482422
 30
0.0
 40
2.450004577636719
  1
10
 41
0.9
  7
CADDY_VECTORFONT1P
  0
TEXT
  5
2F5
  8
0
 10
190.6999969482422
 20
110.6999969482422
 30
0.0
 40
2.450004577636719
  1
8
 41
0.9
  7
CADDY_VECTORFONT1P
  0
TEXT
  5
2F6
  8
0
 10
190.6999969482422
 20
115.6999969482422
 30
0.0
 40
2.450004577636719
  1
6
 41
0.9
  7
CADDY_VECTORFONT1P
  0
TEXT
  5
2F7
  8
0
 10
190.6999969482422
 20
120.6999969482422
 30
0.0
 40
2.450004577636719
  1
4
 41
0.9
  7
CADDY_VECTORFONT1P
  0
TEXT
  5
2F8
  8
0
 10
190.6999969482422
 20
125.6999969482422
 30
0.0
 40
2.449996948242188
  1
2
 41
0.9
  7
CADDY_VECTORFONT1P
  0
CIRCLE
  5
2F9
  8
0
  6
CADDY_SOLID
 10
182.4000244140625
 20
126.8000183105469
 30
0.0
 40
1.0
  0
CIRCLE
  5
2FA
  8
0
  6
CADDY_SOLID
 10
182.4000244140625
 20
121.8000183105469
 30
0.0
 40
1.0
  0
CIRCLE
  5
2FB
  8
0
  6
CADDY_SOLID
 10
182.4000244140625
 20
116.8000183105469
 30
0.0
 40
1.0
  0
CIRCLE
  5
2FC
  8
0
  6
CADDY_SOLID
 10
182.4000244140625
 20
111.8000183105469
 30
0.0
 40
1.0
  0
CIRCLE
  5
2FD
  8
0
  6
CADDY_SOLID
 10
182.4000244140625
 20
106.8000183105469
 30
0.0
 40
1.0
  0
CIRCLE
  5
2FE
  8
0
  6
CADDY_SOLID
 10
182.4000244140625
 20
101.8000183105469
 30
0.0
 40
1.0
  0
CIRCLE
  5
2FF
  8
0
  6
CADDY_SOLID
 10
182.4000244140625
 20
96.80001831054688
 30
0.0
 40
1.0
  0
CIRCLE
  5
300
  8
0
  6
CADDY_SOLID
 10
182.4000244140625
 20
91.80001831054688
 30
0.0
 40
1.0
  0
CIRCLE
  5
301
  8
0
  6
CADDY_SOLID
 10
182.4000244140625
 20
86.80001831054688
 30
0.0
 40
1.0
  0
CIRCLE
  5
302
  8
0
  6
CADDY_SOLID
 10
187.4000244140625
 20
86.80001831054688
 30
0.0
 40
1.0
  0
CIRCLE
  5
303
  8
0
  6
CADDY_SOLID
 10
187.4000244140625
 20
91.80001831054688
 30
0.0
 40
1.0
  0
CIRCLE
  5
304
  8
0
  6
CADDY_SOLID
 10
187.4000244140625
 20
96.80001831054688
 30
0.0
 40
1.0
  0
CIRCLE
  5
305
  8
0
  6
CADDY_SOLID
 10
187.4000244140625
 20
101.8000183105469
 30
0.0
 40
1.0
  0
CIRCLE
  5
306
  8
0
  6
CADDY_SOLID
 10
187.4000244140625
 20
106.8000183105469
 30
0.0
 40
1.0
  0
CIRCLE
  5
307
  8
0
  6
CADDY_SOLID
 10
187.4000244140625
 20
111.8000183105469
 30
0.0
 40
1.0
  0
CIRCLE
  5
308
  8
0
  6
CADDY_SOLID
 10
187.4000244140625
 20
116.8000183105469
 30
0.0
 40
1.0
  0
CIRCLE
  5
309
  8
0
  6
CADDY_SOLID
 10
187.4000244140625
 20
121.8000183105469
 30
0.0
 40
1.0
  0
CIRCLE
  5
30A
  8
0
  6
CADDY_SOLID
 10
187.4000244140625
 20
126.8000183105469
 30
0.0
 40
1.0
  0
ATTDEF
  5
30C
  8
0
 10
175.7435139862061
 20
230.5500030517578
 30
0.0
 40
2.449996948242188
  1
D1304
 41
0.9
  7
CADDY_VECTORFONT1P
 72
     2
 11
192.5500030517578
 21
230.5500030517578
 31
0.0
  3
Produkt (-)
  2
$TAG160010
 70
     0
  0
ENDBLK
  8
0
  0
BLOCK
  8
0
  2
BLK31
 70
     0
 10
0.0
 20
0.0
 30
0.0
  0
LINE
  5
28B
  8
0
  6
CADDY_SOLID
 10
195.0
 20
210.0
 30
0.0
 11
200.0
 21
210.0
 31
0.0
  0
LINE
  5
28C
  8
0
  6
CADDY_SOLID
 10
200.0
 20
210.0
 30
0.0
 11
200.0
 21
215.0
 31
0.0
  0
LINE
  5
28D
  8
0
  6
CADDY_SOLID
 10
200.0
 20
215.0
 30
0.0
 11
195.0
 21
215.0
 31
0.0
  0
LINE
  5
28E
  8
0
  6
CADDY_SOLID
 10
195.0
 20
215.0
 30
0.0
 11
195.0
 21
210.0
 31
0.0
  0
ENDBLK
  8
0
  0
BLOCK
  8
0
  2
BLK32
 70
     0
 10
0.0
 20
0.0
 30
0.0
  0
LINE
  5
295
  8
0
  6
CADDY_SOLID
 10
195.0
 20
205.0
 30
0.0
 11
200.0
 21
205.0
 31
0.0
  0
LINE
  5
296
  8
0
  6
CADDY_SOLID
 10
200.0
 20
205.0
 30
0.0
 11
200.0
 21
210.0
 31
0.0
  0
LINE
  5
297
  8
0
  6
CADDY_SOLID
 10
200.0
 20
210.0
 30
0.0
 11
195.0
 21
210.0
 31
0.0
  0
LINE
  5
298
  8
0
  6
CADDY_SOLID
 10
195.0
 20
210.0
 30
0.0
 11
195.0
 21
205.0
 31
0.0
  0
ENDBLK
  8
0
  0
BLOCK
  8
0
  2
BLK33
 70
     0
 10
0.0
 20
0.0
 30
0.0
  0
LINE
  5
29D
  8
0
  6
CADDY_SOLID
 10
195.0
 20
200.0
 30
0.0
 11
200.0
 21
200.0
 31
0.0
  0
LINE
  5
29E
  8
0
  6
CADDY_SOLID
 10
200.0
 20
200.0
 30
0.0
 11
200.0
 21
205.0
 31
0.0
  0
LINE
  5
29F
  8
0
  6
CADDY_SOLID
 10
200.0
 20
205.0
 30
0.0
 11
195.0
 21
205.0
 31
0.0
  0
LINE
  5
2A0
  8
0
  6
CADDY_SOLID
 10
195.0
 20
205.0
 30
0.0
 11
195.0
 21
200.0
 31
0.0
  0
ENDBLK
  8
0
  0
BLOCK
  8
0
  2
BLK34
 70
     0
 10
0.0
 20
0.0
 30
0.0
  0
LINE
  5
2A5
  8
0
  6
CADDY_SOLID
 10
195.0
 20
195.0
 30
0.0
 11
200.0
 21
195.0
 31
0.0
  0
LINE
  5
2A6
  8
0
  6
CADDY_SOLID
 10
200.0
 20
195.0
 30
0.0
 11
200.0
 21
200.0
 31
0.0
  0
LINE
  5
2A7
  8
0
  6
CADDY_SOLID
 10
200.0
 20
200.0
 30
0.0
 11
195.0
 21
200.0
 31
0.0
  0
LINE
  5
2A8
  8
0
  6
CADDY_SOLID
 10
195.0
 20
200.0
 30
0.0
 11
195.0
 21
195.0
 31
0.0
  0
ENDBLK
  8
0
  0
BLOCK
  8
0
  2
BLK35
 70
     0
 10
0.0
 20
0.0
 30
0.0
  0
LINE
  5
2AD
  8
0
  6
CADDY_SOLID
 10
195.0
 20
190.0
 30
0.0
 11
200.0
 21
190.0
 31
0.0
  0
LINE
  5
2AE
  8
0
  6
CADDY_SOLID
 10
200.0
 20
190.0
 30
0.0
 11
200.0
 21
195.0
 31
0.0
  0
LINE
  5
2AF
  8
0
  6
CADDY_SOLID
 10
200.0
 20
195.0
 30
0.0
 11
195.0
 21
195.0
 31
0.0
  0
LINE
  5
2B0
  8
0
  6
CADDY_SOLID
 10
195.0
 20
195.0
 30
0.0
 11
195.0
 21
190.0
 31
0.0
  0
ENDBLK
  8
0
  0
BLOCK
  8
0
  2
BLK36
 70
     0
 10
0.0
 20
0.0
 30
0.0
  0
LINE
  5
2B5
  8
0
  6
CADDY_SOLID
 10
195.0
 20
185.0
 30
0.0
 11
200.0
 21
185.0
 31
0.0
  0
LINE
  5
2B6
  8
0
  6
CADDY_SOLID
 10
200.0
 20
185.0
 30
0.0
 11
200.0
 21
190.0
 31
0.0
  0
LINE
  5
2B7
  8
0
  6
CADDY_SOLID
 10
200.0
 20
190.0
 30
0.0
 11
195.0
 21
190.0
 31
0.0
  0
LINE
  5
2B8
  8
0
  6
CADDY_SOLID
 10
195.0
 20
190.0
 30
0.0
 11
195.0
 21
185.0
 31
0.0
  0
ENDBLK
  8
0
  0
BLOCK
  8
0
  2
BLK37
 70
     0
 10
0.0
 20
0.0
 30
0.0
  0
LINE
  5
2BD
  8
0
  6
CADDY_SOLID
 10
195.0
 20
180.0
 30
0.0
 11
200.0
 21
180.0
 31
0.0
  0
LINE
  5
2BE
  8
0
  6
CADDY_SOLID
 10
200.0
 20
180.0
 30
0.0
 11
200.0
 21
185.0
 31
0.0
  0
LINE
  5
2BF
  8
0
  6
CADDY_SOLID
 10
200.0
 20
185.0
 30
0.0
 11
195.0
 21
185.0
 31
0.0
  0
LINE
  5
2C0
  8
0
  6
CADDY_SOLID
 10
195.0
 20
185.0
 30
0.0
 11
195.0
 21
180.0
 31
0.0
  0
ENDBLK
  8
0
  0
BLOCK
  8
0
  2
BLK38
 70
     0
 10
0.0
 20
0.0
 30
0.0
  0
LINE
  5
2C5
  8
0
  6
CADDY_SOLID
 10
195.0
 20
175.0
 30
0.0
 11
200.0
 21
175.0
 31
0.0
  0
LINE
  5
2C6
  8
0
  6
CADDY_SOLID
 10
200.0
 20
175.0
 30
0.0
 11
200.0
 21
180.0
 31
0.0
  0
LINE
  5
2C7
  8
0
  6
CADDY_SOLID
 10
200.0
 20
180.0
 30
0.0
 11
195.0
 21
180.0
 31
0.0
  0
LINE
  5
2C8
  8
0
  6
CADDY_SOLID
 10
195.0
 20
180.0
 30
0.0
 11
195.0
 21
175.0
 31
0.0
  0
ENDBLK
  8
0
  0
BLOCK
  8
0
  2
BLK39
 70
     0
 10
0.0
 20
0.0
 30
0.0
  0
LINE
  5
2D9
  8
0
  6
CADDY_SOLID
 10
170.0
 20
75.0
 30
0.0
 11
210.0
 21
75.0
 31
0.0
  0
LINE
  5
2DA
  8
0
  6
CADDY_SOLID
 10
210.0
 20
75.0
 30
0.0
 11
210.0
 21
225.0
 31
0.0
  0
LINE
  5
2DB
  8
0
  6
CADDY_SOLID
 10
210.0
 20
225.0
 30
0.0
 11
170.0
 21
225.0
 31
0.0
  0
LINE
  5
2DC
  8
0
  6
CADDY_SOLID
 10
170.0
 20
225.0
 30
0.0
 11
170.0
 21
75.0
 31
0.0
  0
ENDBLK
  8
0
  0
BLOCK
  8
0
  2
BLK40
 70
     2
 10
0.0
 20
0.0
 30
0.0
  0
TEXT
  5
316
  8
0
 10
220.6999969482422
 20
220.6999969482422
 30
0.0
 40
2.449996948242188
  1
EHC3020
 41
0.9
  7
CADDY_VECTORFONT1P
  0
INSERT
  5
31A
  8
0
  2
BLK41
 10
0.0
 20
0.0
 30
1.0
  0
TEXT
  5
31F
  8
0
 10
240.6999969482422
 20
210.6999969482422
 30
0.0
 40
2.449996948242188
  1
RDY
 41
0.9
  7
CADDY_VECTORFONT1P
  0
TEXT
  5
320
  8
0
 10
240.6999969482422
 20
205.6999969482422
 30
0.0
 40
2.449996948242188
  1
FLT
 41
0.9
  7
CADDY_VECTORFONT1P
  0
INSERT
  5
324
  8
0
  2
BLK42
 10
0.0
 20
0.0
 30
1.0
  0
INSERT
  5
32C
  8
0
  2
BLK43
 10
0.0
 20
0.0
 30
1.0
  0
INSERT
  5
334
  8
0
  2
BLK44
 10
0.0
 20
0.0
 30
1.0
  0
INSERT
  5
33C
  8
0
  2
BLK45
 10
0.0
 20
0.0
 30
1.0
  0
INSERT
  5
344
  8
0
  2
BLK46
 10
0.0
 20
0.0
 30
1.0
  0
INSERT
  5
34C
  8
0
  2
BLK47
 10
0.0
 20
0.0
 30
1.0
  0
INSERT
  5
354
  8
0
  2
BLK48
 10
0.0
 20
0.0
 30
1.0
  0
TEXT
  5
359
  8
0
 10
240.6999969482422
 20
200.6999969482422
 30
0.0
 40
2.449996948242188
  1
OUT1
 41
0.9
  7
CADDY_VECTORFONT1P
  0
TEXT
  5
35A
  8
0
 10
240.6999969482422
 20
195.6999969482422
 30
0.0
 40
2.449996948242188
  1
OUT2
 41
0.9
  7
CADDY_VECTORFONT1P
  0
TEXT
  5
35B
  8
0
 10
240.6999969482422
 20
190.6999969482422
 30
0.0
 40
2.449996948242188
  1
IN A
 41
0.9
  7
CADDY_VECTORFONT1P
  0
TEXT
  5
35C
  8
0
 10
240.6999969482422
 20
185.6999969482422
 30
0.0
 40
2.449996948242188
  1
IN B
 41
0.9
  7
CADDY_VECTORFONT1P
  0
TEXT
  5
35D
  8
0
 10
240.6999969482422
 20
180.6999969482422
 30
0.0
 40
2.449996948242188
  1
RST
 41
0.9
  7
CADDY_VECTORFONT1P
  0
TEXT
  5
35E
  8
0
 10
240.6999969482422
 20
175.6999969482422
 30
0.0
 40
2.449996948242188
  1
EN
 41
0.9
  7
CADDY_VECTORFONT1P
  0
LINE
  5
35F
  8
0
  6
CADDY_SOLID
 10
210.0
 20
170.0
 30
0.0
 11
250.0
 21
170.0
 31
0.0
  0
ATTDEF
  5
362
  8
0
 10
189.5017995986939
 20
147.1999969482422
 30
0.0
 40
2.449996948242188
  1

 41
0.9
  7
CADDY_VECTORFONT1P
 72
     2
 11
206.8000030517578
 21
147.1999969482422
 31
0.0
  3
Beskrivelse 00
  2
$TAG160030
 70
     0
  0
ATTDEF
  5
364
  8
0
 10
189.2570449035645
 20
157.6999969482422
 30
0.0
 40
2.449996948242188
  1
=
 41
0.9
  7
CADDY_VECTORFONT1P
 72
     2
 11
206.8000030517578
 21
157.6999969482422
 31
0.0
  3
Funktion (=)
  2
$TAG140020
 70
     1
  0
INSERT
  5
368
  8
0
  2
BLK49
 10
0.0
 20
0.0
 30
1.0
  0
ATTDEF
  5
36E
  8
0
 10
189.5017995986939
 20
147.1999969482422
 30
0.0
 40
2.449996948242188
  1

 41
0.9
  7
CADDY_VECTORFONT1P
 72
     2
 11
206.8000030517578
 21
147.1999969482422
 31
0.0
  3
Beskrivelse 00
  2
$TAG160030
 70
     0
  0
ATTDEF
  5
370
  8
0
 10
189.2570601623535
 20
143.6999969482422
 30
0.0
 40
2.449996948242188
  1
EHC3020
 41
0.9
  7
CADDY_VECTORFONT1P
 72
     2
 11
206.8000183105469
 21
143.6999969482422
 31
0.0
  3
Type
  2
$TAG160040
 70
     1
  0
ATTDEF
  5
372
  8
0
 10
189.2570449035645
 20
157.6999969482422
 30
0.0
 40
2.449996948242188
  1
=
 41
0.9
  7
CADDY_VECTORFONT1P
 72
     2
 11
206.8000030517578
 21
157.6999969482422
 31
0.0
  3
Funktion (=)
  2
$TAG140020
 70
     1
  0
LINE
  5
373
  8
0
  6
CADDY_SOLID
 10
220.0
 20
85.0
 30
0.0
 11
220.0
 21
130.0
 31
0.0
  0
LINE
  5
374
  8
0
  6
CADDY_SOLID
 10
220.0
 20
130.0
 30
0.0
 11
230.0
 21
130.0
 31
0.0
  0
LINE
  5
375
  8
0
  6
CADDY_SOLID
 10
230.0
 20
130.0
 30
0.0
 11
230.0
 21
85.0
 31
0.0
  0
LINE
  5
376
  8
0
  6
CADDY_SOLID
 10
230.0
 20
85.0
 30
0.0
 11
220.0
 21
85.0
 31
0.0
  0
TEXT
  5
377
  8
0
 10
215.6999969482422
 20
125.6999969482422
 30
0.0
 40
2.449996948242188
  1
1
 41
0.9
  7
CADDY_VECTORFONT1P
  0
TEXT
  5
378
  8
0
 10
215.6999969482422
 20
120.6999969482422
 30
0.0
 40
2.450004577636719
  1
3
 41
0.9
  7
CADDY_VECTORFONT1P
  0
TEXT
  5
379
  8
0
 10
215.6999969482422
 20
115.6999969482422
 30
0.0
 40
2.450004577636719
  1
5
 41
0.9
  7
CADDY_VECTORFONT1P
  0
TEXT
  5
37A
  8
0
 10
215.6999969482422
 20
110.6999969482422
 30
0.0
 40
2.450004577636719
  1
7
 41
0.9
  7
CADDY_VECTORFONT1P
  0
TEXT
  5
37B
  8
0
 10
215.6999969482422
 20
105.6999969482422
 30
0.0
 40
2.450004577636719
  1
9
 41
0.9
  7
CADDY_VECTORFONT1P
  0
TEXT
  5
37C
  8
0
 10
215.6999969482422
 20
100.6999969482422
 30
0.0
 40
2.450004577636719
  1
11
 41
0.9
  7
CADDY_VECTORFONT1P
  0
TEXT
  5
37D
  8
0
 10
215.6999969482422
 20
95.69999694824219
 30
0.0
 40
2.450004577636719
  1
13
 41
0.9
  7
CADDY_VECTORFONT1P
  0
TEXT
  5
37E
  8
0
 10
215.6999969482422
 20
90.69999694824219
 30
0.0
 40
2.450004577636719
  1
15
 41
0.9
  7
CADDY_VECTORFONT1P
  0
TEXT
  5
37F
  8
0
 10
215.6999969482422
 20
85.69999694824219
 30
0.0
 40
2.450004577636719
  1
17
 41
0.9
  7
CADDY_VECTORFONT1P
  0
TEXT
  5
380
  8
0
 10
230.6999969482422
 20
85.69999694824219
 30
0.0
 40
2.450004577636719
  1
18
 41
0.9
  7
CADDY_VECTORFONT1P
  0
TEXT
  5
381
  8
0
 10
230.6999969482422
 20
90.69999694824219
 30
0.0
 40
2.450004577636719
  1
16
 41
0.9
  7
CADDY_VECTORFONT1P
  0
TEXT
  5
382
  8
0
 10
230.6999969482422
 20
95.69999694824219
 30
0.0
 40
2.450004577636719
  1
14
 41
0.9
  7
CADDY_VECTORFONT1P
  0
TEXT
  5
383
  8
0
 10
230.6999969482422
 20
100.6999969482422
 30
0.0
 40
2.450004577636719
  1
12
 41
0.9
  7
CADDY_VECTORFONT1P
  0
TEXT
  5
384
  8
0
 10
230.6999969482422
 20
105.6999969482422
 30
0.0
 40
2.450004577636719
  1
10
 41
0.9
  7
CADDY_VECTORFONT1P
  0
TEXT
  5
385
  8
0
 10
230.6999969482422
 20
110.6999969482422
 30
0.0
 40
2.450004577636719
  1
8
 41
0.9
  7
CADDY_VECTORFONT1P
  0
TEXT
  5
386
  8
0
 10
230.6999969482422
 20
115.6999969482422
 30
0.0
 40
2.450004577636719
  1
6
 41
0.9
  7
CADDY_VECTORFONT1P
  0
TEXT
  5
387
  8
0
 10
230.6999969482422
 20
120.6999969482422
 30
0.0
 40
2.450004577636719
  1
4
 41
0.9
  7
CADDY_VECTORFONT1P
  0
TEXT
  5
388
  8
0
 10
230.6999969482422
 20
125.6999969482422
 30
0.0
 40
2.449996948242188
  1
2
 41
0.9
  7
CADDY_VECTORFONT1P
  0
CIRCLE
  5
389
  8
0
  6
CADDY_SOLID
 10
222.4000244140625
 20
126.8000183105469
 30
0.0
 40
1.0
  0
CIRCLE
  5
38A
  8
0
  6
CADDY_SOLID
 10
222.4000244140625
 20
121.8000183105469
 30
0.0
 40
1.0
  0
CIRCLE
  5
38B
  8
0
  6
CADDY_SOLID
 10
222.4000244140625
 20
116.8000183105469
 30
0.0
 40
1.0
  0
CIRCLE
  5
38C
  8
0
  6
CADDY_SOLID
 10
222.4000244140625
 20
111.8000183105469
 30
0.0
 40
1.0
  0
CIRCLE
  5
38D
  8
0
  6
CADDY_SOLID
 10
222.4000244140625
 20
106.8000183105469
 30
0.0
 40
1.0
  0
CIRCLE
  5
38E
  8
0
  6
CADDY_SOLID
 10
222.4000244140625
 20
101.8000183105469
 30
0.0
 40
1.0
  0
CIRCLE
  5
38F
  8
0
  6
CADDY_SOLID
 10
222.4000244140625
 20
96.80001831054688
 30
0.0
 40
1.0
  0
CIRCLE
  5
390
  8
0
  6
CADDY_SOLID
 10
222.4000244140625
 20
91.80001831054688
 30
0.0
 40
1.0
  0
CIRCLE
  5
391
  8
0
  6
CADDY_SOLID
 10
222.4000244140625
 20
86.80001831054688
 30
0.0
 40
1.0
  0
CIRCLE
  5
392
  8
0
  6
CADDY_SOLID
 10
227.4000244140625
 20
86.80001831054688
 30
0.0
 40
1.0
  0
CIRCLE
  5
393
  8
0
  6
CADDY_SOLID
 10
227.4000244140625
 20
91.80001831054688
 30
0.0
 40
1.0
  0
CIRCLE
  5
394
  8
0
  6
CADDY_SOLID
 10
227.4000244140625
 20
96.80001831054688
 30
0.0
 40
1.0
  0
CIRCLE
  5
395
  8
0
  6
CADDY_SOLID
 10
227.4000244140625
 20
101.8000183105469
 30
0.0
 40
1.0
  0
CIRCLE
  5
396
  8
0
  6
CADDY_SOLID
 10
227.4000244140625
 20
106.8000183105469
 30
0.0
 40
1.0
  0
CIRCLE
  5
397
  8
0
  6
CADDY_SOLID
 10
227.4000244140625
 20
111.8000183105469
 30
0.0
 40
1.0
  0
CIRCLE
  5
398
  8
0
  6
CADDY_SOLID
 10
227.4000244140625
 20
116.8000183105469
 30
0.0
 40
1.0
  0
CIRCLE
  5
399
  8
0
  6
CADDY_SOLID
 10
227.4000244140625
 20
121.8000183105469
 30
0.0
 40
1.0
  0
CIRCLE
  5
39A
  8
0
  6
CADDY_SOLID
 10
227.4000244140625
 20
126.8000183105469
 30
0.0
 40
1.0
  0
ATTDEF
  5
39C
  8
0
 10
215.7435139862061
 20
230.5500030517578
 30
0.0
 40
2.449996948242188
  1
D1305
 41
0.9
  7
CADDY_VECTORFONT1P
 72
     2
 11
232.5500030517578
 21
230.5500030517578
 31
0.0
  3
Produkt (-)
  2
$TAG160010
 70
     0
  0
ENDBLK
  8
0
  0
BLOCK
  8
0
  2
BLK41
 70
     0
 10
0.0
 20
0.0
 30
0.0
  0
LINE
  5
31B
  8
0
  6
CADDY_SOLID
 10
235.0
 20
210.0
 30
0.0
 11
240.0
 21
210.0
 31
0.0
  0
LINE
  5
31C
  8
0
  6
CADDY_SOLID
 10
240.0
 20
210.0
 30
0.0
 11
240.0
 21
215.0
 31
0.0
  0
LINE
  5
31D
  8
0
  6
CADDY_SOLID
 10
240.0
 20
215.0
 30
0.0
 11
235.0
 21
215.0
 31
0.0
  0
LINE
  5
31E
  8
0
  6
CADDY_SOLID
 10
235.0
 20
215.0
 30
0.0
 11
235.0
 21
210.0
 31
0.0
  0
ENDBLK
  8
0
  0
BLOCK
  8
0
  2
BLK42
 70
     0
 10
0.0
 20
0.0
 30
0.0
  0
LINE
  5
325
  8
0
  6
CADDY_SOLID
 10
235.0
 20
205.0
 30
0.0
 11
240.0
 21
205.0
 31
0.0
  0
LINE
  5
326
  8
0
  6
CADDY_SOLID
 10
240.0
 20
205.0
 30
0.0
 11
240.0
 21
210.0
 31
0.0
  0
LINE
  5
327
  8
0
  6
CADDY_SOLID
 10
240.0
 20
210.0
 30
0.0
 11
235.0
 21
210.0
 31
0.0
  0
LINE
  5
328
  8
0
  6
CADDY_SOLID
 10
235.0
 20
210.0
 30
0.0
 11
235.0
 21
205.0
 31
0.0
  0
ENDBLK
  8
0
  0
BLOCK
  8
0
  2
BLK43
 70
     0
 10
0.0
 20
0.0
 30
0.0
  0
LINE
  5
32D
  8
0
  6
CADDY_SOLID
 10
235.0
 20
200.0
 30
0.0
 11
240.0
 21
200.0
 31
0.0
  0
LINE
  5
32E
  8
0
  6
CADDY_SOLID
 10
240.0
 20
200.0
 30
0.0
 11
240.0
 21
205.0
 31
0.0
  0
LINE
  5
32F
  8
0
  6
CADDY_SOLID
 10
240.0
 20
205.0
 30
0.0
 11
235.0
 21
205.0
 31
0.0
  0
LINE
  5
330
  8
0
  6
CADDY_SOLID
 10
235.0
 20
205.0
 30
0.0
 11
235.0
 21
200.0
 31
0.0
  0
ENDBLK
  8
0
  0
BLOCK
  8
0
  2
BLK44
 70
     0
 10
0.0
 20
0.0
 30
0.0
  0
LINE
  5
335
  8
0
  6
CADDY_SOLID
 10
235.0
 20
195.0
 30
0.0
 11
240.0
 21
195.0
 31
0.0
  0
LINE
  5
336
  8
0
  6
CADDY_SOLID
 10
240.0
 20
195.0
 30
0.0
 11
240.0
 21
200.0
 31
0.0
  0
LINE
  5
337
  8
0
  6
CADDY_SOLID
 10
240.0
 20
200.0
 30
0.0
 11
235.0
 21
200.0
 31
0.0
  0
LINE
  5
338
  8
0
  6
CADDY_SOLID
 10
235.0
 20
200.0
 30
0.0
 11
235.0
 21
195.0
 31
0.0
  0
ENDBLK
  8
0
  0
BLOCK
  8
0
  2
BLK45
 70
     0
 10
0.0
 20
0.0
 30
0.0
  0
LINE
  5
33D
  8
0
  6
CADDY_SOLID
 10
235.0
 20
190.0
 30
0.0
 11
240.0
 21
190.0
 31
0.0
  0
LINE
  5
33E
  8
0
  6
CADDY_SOLID
 10
240.0
 20
190.0
 30
0.0
 11
240.0
 21
195.0
 31
0.0
  0
LINE
  5
33F
  8
0
  6
CADDY_SOLID
 10
240.0
 20
195.0
 30
0.0
 11
235.0
 21
195.0
 31
0.0
  0
LINE
  5
340
  8
0
  6
CADDY_SOLID
 10
235.0
 20
195.0
 30
0.0
 11
235.0
 21
190.0
 31
0.0
  0
ENDBLK
  8
0
  0
BLOCK
  8
0
  2
BLK46
 70
     0
 10
0.0
 20
0.0
 30
0.0
  0
LINE
  5
345
  8
0
  6
CADDY_SOLID
 10
235.0
 20
185.0
 30
0.0
 11
240.0
 21
185.0
 31
0.0
  0
LINE
  5
346
  8
0
  6
CADDY_SOLID
 10
240.0
 20
185.0
 30
0.0
 11
240.0
 21
190.0
 31
0.0
  0
LINE
  5
347
  8
0
  6
CADDY_SOLID
 10
240.0
 20
190.0
 30
0.0
 11
235.0
 21
190.0
 31
0.0
  0
LINE
  5
348
  8
0
  6
CADDY_SOLID
 10
235.0
 20
190.0
 30
0.0
 11
235.0
 21
185.0
 31
0.0
  0
ENDBLK
  8
0
  0
BLOCK
  8
0
  2
BLK47
 70
     0
 10
0.0
 20
0.0
 30
0.0
  0
LINE
  5
34D
  8
0
  6
CADDY_SOLID
 10
235.0
 20
180.0
 30
0.0
 11
240.0
 21
180.0
 31
0.0
  0
LINE
  5
34E
  8
0
  6
CADDY_SOLID
 10
240.0
 20
180.0
 30
0.0
 11
240.0
 21
185.0
 31
0.0
  0
LINE
  5
34F
  8
0
  6
CADDY_SOLID
 10
240.0
 20
185.0
 30
0.0
 11
235.0
 21
185.0
 31
0.0
  0
LINE
  5
350
  8
0
  6
CADDY_SOLID
 10
235.0
 20
185.0
 30
0.0
 11
235.0
 21
180.0
 31
0.0
  0
ENDBLK
  8
0
  0
BLOCK
  8
0
  2
BLK48
 70
     0
 10
0.0
 20
0.0
 30
0.0
  0
LINE
  5
355
  8
0
  6
CADDY_SOLID
 10
235.0
 20
175.0
 30
0.0
 11
240.0
 21
175.0
 31
0.0
  0
LINE
  5
356
  8
0
  6
CADDY_SOLID
 10
240.0
 20
175.0
 30
0.0
 11
240.0
 21
180.0
 31
0.0
  0
LINE
  5
357
  8
0
  6
CADDY_SOLID
 10
240.0
 20
180.0
 30
0.0
 11
235.0
 21
180.0
 31
0.0
  0
LINE
  5
358
  8
0
  6
CADDY_SOLID
 10
235.0
 20
180.0
 30
0.0
 11
235.0
 21
175.0
 31
0.0
  0
ENDBLK
  8
0
  0
BLOCK
  8
0
  2
BLK49
 70
     0
 10
0.0
 20
0.0
 30
0.0
  0
LINE
  5
369
  8
0
  6
CADDY_SOLID
 10
210.0
 20
75.0
 30
0.0
 11
250.0
 21
75.0
 31
0.0
  0
LINE
  5
36A
  8
0
  6
CADDY_SOLID
 10
250.0
 20
75.0
 30
0.0
 11
250.0
 21
225.0
 31
0.0
  0
LINE
  5
36B
  8
0
  6
CADDY_SOLID
 10
250.0
 20
225.0
 30
0.0
 11
210.0
 21
225.0
 31
0.0
  0
LINE
  5
36C
  8
0
  6
CADDY_SOLID
 10
210.0
 20
225.0
 30
0.0
 11
210.0
 21
75.0
 31
0.0
  0
ENDBLK
  8
0
  0
BLOCK
  8
0
  2
BLK50
 70
     2
 10
0.0
 20
0.0
 30
0.0
  0
TEXT
  5
3A1
  8
0
 10
260.7000122070312
 20
220.6999969482422
 30
0.0
 40
2.449996948242188
  1
EHC3020
 41
0.9
  7
CADDY_VECTORFONT1P
  0
INSERT
  5
3A5
  8
0
  2
BLK51
 10
0.0
 20
0.0
 30
1.0
  0
TEXT
  5
3AA
  8
0
 10
280.7000122070312
 20
210.6999969482422
 30
0.0
 40
2.449996948242188
  1
RDY
 41
0.9
  7
CADDY_VECTORFONT1P
  0
TEXT
  5
3AB
  8
0
 10
280.7000122070312
 20
205.6999969482422
 30
0.0
 40
2.449996948242188
  1
FLT
 41
0.9
  7
CADDY_VECTORFONT1P
  0
INSERT
  5
3AF
  8
0
  2
BLK52
 10
0.0
 20
0.0
 30
1.0
  0
INSERT
  5
3B7
  8
0
  2
BLK53
 10
0.0
 20
0.0
 30
1.0
  0
INSERT
  5
3BF
  8
0
  2
BLK54
 10
0.0
 20
0.0
 30
1.0
  0
INSERT
  5
3C7
  8
0
  2
BLK55
 10
0.0
 20
0.0
 30
1.0
  0
INSERT
  5
3CF
  8
0
  2
BLK56
 10
0.0
 20
0.0
 30
1.0
  0
INSERT
  5
3D7
  8
0
  2
BLK57
 10
0.0
 20
0.0
 30
1.0
  0
INSERT
  5
3DF
  8
0
  2
BLK58
 10
0.0
 20
0.0
 30
1.0
  0
TEXT
  5
3E4
  8
0
 10
280.7000122070312
 20
200.6999969482422
 30
0.0
 40
2.449996948242188
  1
OUT1
 41
0.9
  7
CADDY_VECTORFONT1P
  0
TEXT
  5
3E5
  8
0
 10
280.7000122070312
 20
195.6999969482422
 30
0.0
 40
2.449996948242188
  1
OUT2
 41
0.9
  7
CADDY_VECTORFONT1P
  0
TEXT
  5
3E6
  8
0
 10
280.7000122070312
 20
190.6999969482422
 30
0.0
 40
2.449996948242188
  1
IN A
 41
0.9
  7
CADDY_VECTORFONT1P
  0
TEXT
  5
3E7
  8
0
 10
280.7000122070312
 20
185.6999969482422
 30
0.0
 40
2.449996948242188
  1
IN B
 41
0.9
  7
CADDY_VECTORFONT1P
  0
TEXT
  5
3E8
  8
0
 10
280.7000122070312
 20
180.6999969482422
 30
0.0
 40
2.449996948242188
  1
RST
 41
0.9
  7
CADDY_VECTORFONT1P
  0
TEXT
  5
3E9
  8
0
 10
280.7000122070312
 20
175.6999969482422
 30
0.0
 40
2.449996948242188
  1
EN
 41
0.9
  7
CADDY_VECTORFONT1P
  0
LINE
  5
3EA
  8
0
  6
CADDY_SOLID
 10
250.0
 20
170.0
 30
0.0
 11
290.0
 21
170.0
 31
0.0
  0
ATTDEF
  5
3ED
  8
0
 10
229.5017995986939
 20
147.1999969482422
 30
0.0
 40
2.449996948242188
  1

 41
0.9
  7
CADDY_VECTORFONT1P
 72
     2
 11
246.8000030517578
 21
147.1999969482422
 31
0.0
  3
Beskrivelse 00
  2
$TAG160030
 70
     0
  0
ATTDEF
  5
3EF
  8
0
 10
229.2570449035645
 20
157.6999969482422
 30
0.0
 40
2.449996948242188
  1
=
 41
0.9
  7
CADDY_VECTORFONT1P
 72
     2
 11
246.8000030517578
 21
157.6999969482422
 31
0.0
  3
Funktion (=)
  2
$TAG140020
 70
     1
  0
INSERT
  5
3F3
  8
0
  2
BLK59
 10
0.0
 20
0.0
 30
1.0
  0
ATTDEF
  5
3F9
  8
0
 10
229.5017995986939
 20
147.1999969482422
 30
0.0
 40
2.449996948242188
  1

 41
0.9
  7
CADDY_VECTORFONT1P
 72
     2
 11
246.8000030517578
 21
147.1999969482422
 31
0.0
  3
Beskrivelse 00
  2
$TAG160030
 70
     0
  0
ATTDEF
  5
3FB
  8
0
 10
229.2570601623535
 20
143.6999969482422
 30
0.0
 40
2.449996948242188
  1
EHC3020
 41
0.9
  7
CADDY_VECTORFONT1P
 72
     2
 11
246.8000183105469
 21
143.6999969482422
 31
0.0
  3
Type
  2
$TAG160040
 70
     1
  0
ATTDEF
  5
3FD
  8
0
 10
229.2570449035645
 20
157.6999969482422
 30
0.0
 40
2.449996948242188
  1
=
 41
0.9
  7
CADDY_VECTORFONT1P
 72
     2
 11
246.8000030517578
 21
157.6999969482422
 31
0.0
  3
Funktion (=)
  2
$TAG140020
 70
     1
  0
LINE
  5
3FE
  8
0
  6
CADDY_SOLID
 10
260.0
 20
85.0
 30
0.0
 11
260.0
 21
130.0
 31
0.0
  0
LINE
  5
3FF
  8
0
  6
CADDY_SOLID
 10
260.0
 20
130.0
 30
0.0
 11
270.0
 21
130.0
 31
0.0
  0
LINE
  5
400
  8
0
  6
CADDY_SOLID
 10
270.0
 20
130.0
 30
0.0
 11
270.0
 21
85.0
 31
0.0
  0
LINE
  5
401
  8
0
  6
CADDY_SOLID
 10
270.0
 20
85.0
 30
0.0
 11
260.0
 21
85.0
 31
0.0
  0
TEXT
  5
402
  8
0
 10
255.6999969482422
 20
125.6999969482422
 30
0.0
 40
2.449996948242188
  1
1
 41
0.9
  7
CADDY_VECTORFONT1P
  0
TEXT
  5
403
  8
0
 10
255.6999969482422
 20
120.6999969482422
 30
0.0
 40
2.450004577636719
  1
3
 41
0.9
  7
CADDY_VECTORFONT1P
  0
TEXT
  5
404
  8
0
 10
255.6999969482422
 20
115.6999969482422
 30
0.0
 40
2.450004577636719
  1
5
 41
0.9
  7
CADDY_VECTORFONT1P
  0
TEXT
  5
405
  8
0
 10
255.6999969482422
 20
110.6999969482422
 30
0.0
 40
2.450004577636719
  1
7
 41
0.9
  7
CADDY_VECTORFONT1P
  0
TEXT
  5
406
  8
0
 10
255.6999969482422
 20
105.6999969482422
 30
0.0
 40
2.450004577636719
  1
9
 41
0.9
  7
CADDY_VECTORFONT1P
  0
TEXT
  5
407
  8
0
 10
255.6999969482422
 20
100.6999969482422
 30
0.0
 40
2.450004577636719
  1
11
 41
0.9
  7
CADDY_VECTORFONT1P
  0
TEXT
  5
408
  8
0
 10
255.6999969482422
 20
95.69999694824219
 30
0.0
 40
2.450004577636719
  1
13
 41
0.9
  7
CADDY_VECTORFONT1P
  0
TEXT
  5
409
  8
0
 10
255.6999969482422
 20
90.69999694824219
 30
0.0
 40
2.450004577636719
  1
15
 41
0.9
  7
CADDY_VECTORFONT1P
  0
TEXT
  5
40A
  8
0
 10
255.6999969482422
 20
85.69999694824219
 30
0.0
 40
2.450004577636719
  1
17
 41
0.9
  7
CADDY_VECTORFONT1P
  0
TEXT
  5
40B
  8
0
 10
270.7000122070312
 20
85.69999694824219
 30
0.0
 40
2.450004577636719
  1
18
 41
0.9
  7
CADDY_VECTORFONT1P
  0
TEXT
  5
40C
  8
0
 10
270.7000122070312
 20
90.69999694824219
 30
0.0
 40
2.450004577636719
  1
16
 41
0.9
  7
CADDY_VECTORFONT1P
  0
TEXT
  5
40D
  8
0
 10
270.7000122070312
 20
95.69999694824219
 30
0.0
 40
2.450004577636719
  1
14
 41
0.9
  7
CADDY_VECTORFONT1P
  0
TEXT
  5
40E
  8
0
 10
270.7000122070312
 20
100.6999969482422
 30
0.0
 40
2.450004577636719
  1
12
 41
0.9
  7
CADDY_VECTORFONT1P
  0
TEXT
  5
40F
  8
0
 10
270.7000122070312
 20
105.6999969482422
 30
0.0
 40
2.450004577636719
  1
10
 41
0.9
  7
CADDY_VECTORFONT1P
  0
TEXT
  5
410
  8
0
 10
270.7000122070312
 20
110.6999969482422
 30
0.0
 40
2.450004577636719
  1
8
 41
0.9
  7
CADDY_VECTORFONT1P
  0
TEXT
  5
411
  8
0
 10
270.7000122070312
 20
115.6999969482422
 30
0.0
 40
2.450004577636719
  1
6
 41
0.9
  7
CADDY_VECTORFONT1P
  0
TEXT
  5
412
  8
0
 10
270.7000122070312
 20
120.6999969482422
 30
0.0
 40
2.450004577636719
  1
4
 41
0.9
  7
CADDY_VECTORFONT1P
  0
TEXT
  5
413
  8
0
 10
270.7000122070312
 20
125.6999969482422
 30
0.0
 40
2.449996948242188
  1
2
 41
0.9
  7
CADDY_VECTORFONT1P
  0
CIRCLE
  5
414
  8
0
  6
CADDY_SOLID
 10
262.4000244140625
 20
126.8000183105469
 30
0.0
 40
1.0
  0
CIRCLE
  5
415
  8
0
  6
CADDY_SOLID
 10
262.4000244140625
 20
121.8000183105469
 30
0.0
 40
1.0
  0
CIRCLE
  5
416
  8
0
  6
CADDY_SOLID
 10
262.4000244140625
 20
116.8000183105469
 30
0.0
 40
1.0
  0
CIRCLE
  5
417
  8
0
  6
CADDY_SOLID
 10
262.4000244140625
 20
111.8000183105469
 30
0.0
 40
1.0
  0
CIRCLE
  5
418
  8
0
  6
CADDY_SOLID
 10
262.4000244140625
 20
106.8000183105469
 30
0.0
 40
1.0
  0
CIRCLE
  5
419
  8
0
  6
CADDY_SOLID
 10
262.4000244140625
 20
101.8000183105469
 30
0.0
 40
1.0
  0
CIRCLE
  5
41A
  8
0
  6
CADDY_SOLID
 10
262.4000244140625
 20
96.80001831054688
 30
0.0
 40
1.0
  0
CIRCLE
  5
41B
  8
0
  6
CADDY_SOLID
 10
262.4000244140625
 20
91.80001831054688
 30
0.0
 40
1.0
  0
CIRCLE
  5
41C
  8
0
  6
CADDY_SOLID
 10
262.4000244140625
 20
86.80001831054688
 30
0.0
 40
1.0
  0
CIRCLE
  5
41D
  8
0
  6
CADDY_SOLID
 10
267.4000244140625
 20
86.80001831054688
 30
0.0
 40
1.0
  0
CIRCLE
  5
41E
  8
0
  6
CADDY_SOLID
 10
267.4000244140625
 20
91.80001831054688
 30
0.0
 40
1.0
  0
CIRCLE
  5
41F
  8
0
  6
CADDY_SOLID
 10
267.4000244140625
 20
96.80001831054688
 30
0.0
 40
1.0
  0
CIRCLE
  5
420
  8
0
  6
CADDY_SOLID
 10
267.4000244140625
 20
101.8000183105469
 30
0.0
 40
1.0
  0
CIRCLE
  5
421
  8
0
  6
CADDY_SOLID
 10
267.4000244140625
 20
106.8000183105469
 30
0.0
 40
1.0
  0
CIRCLE
  5
422
  8
0
  6
CADDY_SOLID
 10
267.4000244140625
 20
111.8000183105469
 30
0.0
 40
1.0
  0
CIRCLE
  5
423
  8
0
  6
CADDY_SOLID
 10
267.4000244140625
 20
116.8000183105469
 30
0.0
 40
1.0
  0
CIRCLE
  5
424
  8
0
  6
CADDY_SOLID
 10
267.4000244140625
 20
121.8000183105469
 30
0.0
 40
1.0
  0
CIRCLE
  5
425
  8
0
  6
CADDY_SOLID
 10
267.4000244140625
 20
126.8000183105469
 30
0.0
 40
1.0
  0
ATTDEF
  5
427
  8
0
 10
255.743498727417
 20
230.5500030517578
 30
0.0
 40
2.449996948242188
  1
D1306
 41
0.9
  7
CADDY_VECTORFONT1P
 72
     2
 11
272.5499877929688
 21
230.5500030517578
 31
0.0
  3
Produkt (-)
  2
$TAG160010
 70
     0
  0
ENDBLK
  8
0
  0
BLOCK
  8
0
  2
BLK51
 70
     0
 10
0.0
 20
0.0
 30
0.0
  0
LINE
  5
3A6
  8
0
  6
CADDY_SOLID
 10
275.0
 20
210.0
 30
0.0
 11
280.0
 21
210.0
 31
0.0
  0
LINE
  5
3A7
  8
0
  6
CADDY_SOLID
 10
280.0
 20
210.0
 30
0.0
 11
280.0
 21
215.0
 31
0.0
  0
LINE
  5
3A8
  8
0
  6
CADDY_SOLID
 10
280.0
 20
215.0
 30
0.0
 11
275.0
 21
215.0
 31
0.0
  0
LINE
  5
3A9
  8
0
  6
CADDY_SOLID
 10
275.0
 20
215.0
 30
0.0
 11
275.0
 21
210.0
 31
0.0
  0
ENDBLK
  8
0
  0
BLOCK
  8
0
  2
BLK52
 70
     0
 10
0.0
 20
0.0
 30
0.0
  0
LINE
  5
3B0
  8
0
  6
CADDY_SOLID
 10
275.0
 20
205.0
 30
0.0
 11
280.0
 21
205.0
 31
0.0
  0
LINE
  5
3B1
  8
0
  6
CADDY_SOLID
 10
280.0
 20
205.0
 30
0.0
 11
280.0
 21
210.0
 31
0.0
  0
LINE
  5
3B2
  8
0
  6
CADDY_SOLID
 10
280.0
 20
210.0
 30
0.0
 11
275.0
 21
210.0
 31
0.0
  0
LINE
  5
3B3
  8
0
  6
CADDY_SOLID
 10
275.0
 20
210.0
 30
0.0
 11
275.0
 21
205.0
 31
0.0
  0
ENDBLK
  8
0
  0
BLOCK
  8
0
  2
BLK53
 70
     0
 10
0.0
 20
0.0
 30
0.0
  0
LINE
  5
3B8
  8
0
  6
CADDY_SOLID
 10
275.0
 20
200.0
 30
0.0
 11
280.0
 21
200.0
 31
0.0
  0
LINE
  5
3B9
  8
0
  6
CADDY_SOLID
 10
280.0
 20
200.0
 30
0.0
 11
280.0
 21
205.0
 31
0.0
  0
LINE
  5
3BA
  8
0
  6
CADDY_SOLID
 10
280.0
 20
205.0
 30
0.0
 11
275.0
 21
205.0
 31
0.0
  0
LINE
  5
3BB
  8
0
  6
CADDY_SOLID
 10
275.0
 20
205.0
 30
0.0
 11
275.0
 21
200.0
 31
0.0
  0
ENDBLK
  8
0
  0
BLOCK
  8
0
  2
BLK54
 70
     0
 10
0.0
 20
0.0
 30
0.0
  0
LINE
  5
3C0
  8
0
  6
CADDY_SOLID
 10
275.0
 20
195.0
 30
0.0
 11
280.0
 21
195.0
 31
0.0
  0
LINE
  5
3C1
  8
0
  6
CADDY_SOLID
 10
280.0
 20
195.0
 30
0.0
 11
280.0
 21
200.0
 31
0.0
  0
LINE
  5
3C2
  8
0
  6
CADDY_SOLID
 10
280.0
 20
200.0
 30
0.0
 11
275.0
 21
200.0
 31
0.0
  0
LINE
  5
3C3
  8
0
  6
CADDY_SOLID
 10
275.0
 20
200.0
 30
0.0
 11
275.0
 21
195.0
 31
0.0
  0
ENDBLK
  8
0
  0
BLOCK
  8
0
  2
BLK55
 70
     0
 10
0.0
 20
0.0
 30
0.0
  0
LINE
  5
3C8
  8
0
  6
CADDY_SOLID
 10
275.0
 20
190.0
 30
0.0
 11
280.0
 21
190.0
 31
0.0
  0
LINE
  5
3C9
  8
0
  6
CADDY_SOLID
 10
280.0
 20
190.0
 30
0.0
 11
280.0
 21
195.0
 31
0.0
  0
LINE
  5
3CA
  8
0
  6
CADDY_SOLID
 10
280.0
 20
195.0
 30
0.0
 11
275.0
 21
195.0
 31
0.0
  0
LINE
  5
3CB
  8
0
  6
CADDY_SOLID
 10
275.0
 20
195.0
 30
0.0
 11
275.0
 21
190.0
 31
0.0
  0
ENDBLK
  8
0
  0
BLOCK
  8
0
  2
BLK56
 70
     0
 10
0.0
 20
0.0
 30
0.0
  0
LINE
  5
3D0
  8
0
  6
CADDY_SOLID
 10
275.0
 20
185.0
 30
0.0
 11
280.0
 21
185.0
 31
0.0
  0
LINE
  5
3D1
  8
0
  6
CADDY_SOLID
 10
280.0
 20
185.0
 30
0.0
 11
280.0
 21
190.0
 31
0.0
  0
LINE
  5
3D2
  8
0
  6
CADDY_SOLID
 10
280.0
 20
190.0
 30
0.0
 11
275.0
 21
190.0
 31
0.0
  0
LINE
  5
3D3
  8
0
  6
CADDY_SOLID
 10
275.0
 20
190.0
 30
0.0
 11
275.0
 21
185.0
 31
0.0
  0
ENDBLK
  8
0
  0
BLOCK
  8
0
  2
BLK57
 70
     0
 10
0.0
 20
0.0
 30
0.0
  0
LINE
  5
3D8
  8
0
  6
CADDY_SOLID
 10
275.0
 20
180.0
 30
0.0
 11
280.0
 21
180.0
 31
0.0
  0
LINE
  5
3D9
  8
0
  6
CADDY_SOLID
 10
280.0
 20
180.0
 30
0.0
 11
280.0
 21
185.0
 31
0.0
  0
LINE
  5
3DA
  8
0
  6
CADDY_SOLID
 10
280.0
 20
185.0
 30
0.0
 11
275.0
 21
185.0
 31
0.0
  0
LINE
  5
3DB
  8
0
  6
CADDY_SOLID
 10
275.0
 20
185.0
 30
0.0
 11
275.0
 21
180.0
 31
0.0
  0
ENDBLK
  8
0
  0
BLOCK
  8
0
  2
BLK58
 70
     0
 10
0.0
 20
0.0
 30
0.0
  0
LINE
  5
3E0
  8
0
  6
CADDY_SOLID
 10
275.0
 20
175.0
 30
0.0
 11
280.0
 21
175.0
 31
0.0
  0
LINE
  5
3E1
  8
0
  6
CADDY_SOLID
 10
280.0
 20
175.0
 30
0.0
 11
280.0
 21
180.0
 31
0.0
  0
LINE
  5
3E2
  8
0
  6
CADDY_SOLID
 10
280.0
 20
180.0
 30
0.0
 11
275.0
 21
180.0
 31
0.0
  0
LINE
  5
3E3
  8
0
  6
CADDY_SOLID
 10
275.0
 20
180.0
 30
0.0
 11
275.0
 21
175.0
 31
0.0
  0
ENDBLK
  8
0
  0
BLOCK
  8
0
  2
BLK59
 70
     0
 10
0.0
 20
0.0
 30
0.0
  0
LINE
  5
3F4
  8
0
  6
CADDY_SOLID
 10
250.0
 20
75.0
 30
0.0
 11
290.0
 21
75.0
 31
0.0
  0
LINE
  5
3F5
  8
0
  6
CADDY_SOLID
 10
290.0
 20
75.0
 30
0.0
 11
290.0
 21
225.0
 31
0.0
  0
LINE
  5
3F6
  8
0
  6
CADDY_SOLID
 10
290.0
 20
225.0
 30
0.0
 11
250.0
 21
225.0
 31
0.0
  0
LINE
  5
3F7
  8
0
  6
CADDY_SOLID
 10
250.0
 20
225.0
 30
0.0
 11
250.0
 21
75.0
 31
0.0
  0
ENDBLK
  8
0
  0
BLOCK
  8
0
  2
BLK60
 70
     2
 10
0.0
 20
0.0
 30
0.0
  0
ATTDEF
  5
440
  8
0
 10
272.9767904434204
 20
147.0500030517578
 30
0.0
 40
2.449996948242188
  1

 41
0.9
  7
CADDY_VECTORFONT1P
 72
     2
 11
290.2749938964844
 21
147.0500030517578
 31
0.0
  3
Beskrivelse 00
  2
$TAG160030
 70
     0
  0
ATTDEF
  5
442
  8
0
 10
294.993498727417
 20
230.6999969482422
 30
0.0
 40
2.449996948242188
  1
D1307
 41
0.9
  7
CADDY_VECTORFONT1P
 72
     2
 11
311.7999877929688
 21
230.6999969482422
 31
0.0
  3
Produkt (-)
  2
$TAG160010
 70
     0
  0
TEXT
  5
443
  8
0
 10
305.7000122070312
 20
220.6999969482422
 30
0.0
 40
2.449996948242188
  1
DDI3610
 41
0.9
  7
CADDY_VECTORFONT1P
  0
INSERT
  5
447
  8
0
  2
BLK61
 10
0.0
 20
0.0
 30
1.0
  0
TEXT
  5
44C
  8
0
 10
310.7000122070312
 20
210.6999969482422
 30
0.0
 40
2.449996948242188
  1
RDY
 41
0.9
  7
CADDY_VECTORFONT1P
  0
TEXT
  5
44D
  8
0
 10
310.7000122070312
 20
205.6999969482422
 30
0.0
 40
2.449996948242188
  1
ERR
 41
0.9
  7
CADDY_VECTORFONT1P
  0
INSERT
  5
451
  8
0
  2
BLK62
 10
0.0
 20
0.0
 30
1.0
  0
INSERT
  5
459
  8
0
  2
BLK63
 10
0.0
 20
0.0
 30
1.0
  0
INSERT
  5
461
  8
0
  2
BLK64
 10
0.0
 20
0.0
 30
1.0
  0
INSERT
  5
469
  8
0
  2
BLK65
 10
0.0
 20
0.0
 30
1.0
  0
INSERT
  5
471
  8
0
  2
BLK66
 10
0.0
 20
0.0
 30
1.0
  0
INSERT
  5
479
  8
0
  2
BLK67
 10
0.0
 20
0.0
 30
1.0
  0
INSERT
  5
481
  8
0
  2
BLK68
 10
0.0
 20
0.0
 30
1.0
  0
TEXT
  5
486
  8
0
 10
310.7000122070312
 20
200.6999969482422
 30
0.0
 40
2.449996948242188
  1
IN1
 41
0.9
  7
CADDY_VECTORFONT1P
  0
TEXT
  5
487
  8
0
 10
310.7000122070312
 20
195.6999969482422
 30
0.0
 40
2.449996948242188
  1
IN2
 41
0.9
  7
CADDY_VECTORFONT1P
  0
TEXT
  5
488
  8
0
 10
310.7000122070312
 20
190.6999969482422
 30
0.0
 40
2.449996948242188
  1
IN3
 41
0.9
  7
CADDY_VECTORFONT1P
  0
TEXT
  5
489
  8
0
 10
310.7000122070312
 20
185.6999969482422
 30
0.0
 40
2.449996948242188
  1
IN4
 41
0.9
  7
CADDY_VECTORFONT1P
  0
TEXT
  5
48A
  8
0
 10
310.7000122070312
 20
180.6999969482422
 30
0.0
 40
2.449996948242188
  1
IN5
 41
0.9
  7
CADDY_VECTORFONT1P
  0
TEXT
  5
48B
  8
0
 10
310.7000122070312
 20
175.6999969482422
 30
0.0
 40
2.449996948242188
  1
IN6
 41
0.9
  7
CADDY_VECTORFONT1P
  0
INSERT
  5
48F
  8
0
  2
BLK69
 10
0.0
 20
0.0
 30
1.0
  0
INSERT
  5
497
  8
0
  2
BLK70
 10
0.0
 20
0.0
 30
1.0
  0
INSERT
  5
49F
  8
0
  2
BLK71
 10
0.0
 20
0.0
 30
1.0
  0
INSERT
  5
4A7
  8
0
  2
BLK72
 10
0.0
 20
0.0
 30
1.0
  0
INSERT
  5
4AF
  8
0
  2
BLK73
 10
0.0
 20
0.0
 30
1.0
  0
INSERT
  5
4B7
  8
0
  2
BLK74
 10
0.0
 20
0.0
 30
1.0
  0
INSERT
  5
4BF
  8
0
  2
BLK75
 10
0.0
 20
0.0
 30
1.0
  0
TEXT
  5
4C4
  8
0
 10
300.7000122070312
 20
155.6999969482422
 30
0.0
 40
2.449996948242188
  1
1
 41
0.9
  7
CADDY_VECTORFONT1P
  0
TEXT
  5
4C5
  8
0
 10
300.7000122070312
 20
150.6999969482422
 30
0.0
 40
2.449996948242188
  1
2
 41
0.9
  7
CADDY_VECTORFONT1P
  0
TEXT
  5
4C6
  8
0
 10
300.7000122070312
 20
145.6999969482422
 30
0.0
 40
2.449996948242188
  1
3
 41
0.9
  7
CADDY_VECTORFONT1P
  0
TEXT
  5
4C7
  8
0
 10
300.7000122070312
 20
140.6999969482422
 30
0.0
 40
2.449996948242188
  1
4
 41
0.9
  7
CADDY_VECTORFONT1P
  0
TEXT
  5
4C8
  8
0
 10
300.7000122070312
 20
135.6999969482422
 30
0.0
 40
2.449996948242188
  1
5
 41
0.9
  7
CADDY_VECTORFONT1P
  0
TEXT
  5
4C9
  8
0
 10
300.7000122070312
 20
130.6999969482422
 30
0.0
 40
2.449996948242188
  1
6
 41
0.9
  7
CADDY_VECTORFONT1P
  0
TEXT
  5
4CA
  8
0
 10
306.446646926117
 20
160.6999969482422
 30
0.0
 40
2.449996948242188
  1
8(A)1
 41
0.9
  7
CADDY_VECTORFONT1P
 72
     1
 11
310.0
 21
160.6999969482422
 31
0.0
  0
INSERT
  5
4CE
  8
0
  2
BLK76
 10
0.0
 20
0.0
 30
1.0
  0
INSERT
  5
4D6
  8
0
  2
BLK77
 10
0.0
 20
0.0
 30
1.0
  0
INSERT
  5
4DE
  8
0
  2
BLK78
 10
0.0
 20
0.0
 30
1.0
  0
INSERT
  5
4E6
  8
0
  2
BLK79
 10
0.0
 20
0.0
 30
1.0
  0
INSERT
  5
4EE
  8
0
  2
BLK80
 10
0.0
 20
0.0
 30
1.0
  0
INSERT
  5
4F6
  8
0
  2
BLK81
 10
0.0
 20
0.0
 30
1.0
  0
TEXT
  5
4FB
  8
0
 10
300.7000122070312
 20
115.6999969482422
 30
0.0
 40
2.450004577636719
  1
1
 41
0.9
  7
CADDY_VECTORFONT1P
  0
TEXT
  5
4FC
  8
0
 10
300.7000122070312
 20
110.6999969482422
 30
0.0
 40
2.450004577636719
  1
2
 41
0.9
  7
CADDY_VECTORFONT1P
  0
TEXT
  5
4FD
  8
0
 10
300.7000122070312
 20
105.6999969482422
 30
0.0
 40
2.450004577636719
  1
3
 41
0.9
  7
CADDY_VECTORFONT1P
  0
TEXT
  5
4FE
  8
0
 10
300.7000122070312
 20
100.6999969482422
 30
0.0
 40
2.450004577636719
  1
4
 41
0.9
  7
CADDY_VECTORFONT1P
  0
TEXT
  5
4FF
  8
0
 10
300.7000122070312
 20
95.69999694824219
 30
0.0
 40
2.450004577636719
  1
5
 41
0.9
  7
CADDY_VECTORFONT1P
  0
TEXT
  5
500
  8
0
 10
300.7000122070312
 20
90.69999694824219
 30
0.0
 40
2.450004577636719
  1
6
 41
0.9
  7
CADDY_VECTORFONT1P
  0
TEXT
  5
501
  8
0
 10
306.5690441070557
 20
120.6999969482422
 30
0.0
 40
2.450004577636719
  1
8(B)1
 41
0.9
  7
CADDY_VECTORFONT1P
 72
     1
 11
310.0000305175781
 21
120.6999969482422
 31
0.0
  0
LINE
  5
502
  8
0
  6
CADDY_SOLID
 10
300.0
 20
170.0
 30
0.0
 11
320.0
 21
170.0
 31
0.0
  0
ATTDEF
  5
504
  8
0
 10
279.9935292449951
 20
147.1999969482422
 30
0.0
 40
2.449996948242188
  1

 41
0.9
  7
CADDY_VECTORFONT1P
 72
     2
 11
296.8000183105469
 21
147.1999969482422
 31
0.0
  3
Signaladresse
  2
$TAG175100
 70
     0
  0
ATTDEF
  5
506
  8
0
 10
280.4852436325073
 20
143.6999969482422
 30
0.0
 40
2.449996948242188
  1

 41
0.9
  7
CADDY_VECTORFONT1P
 72
     2
 11
296.8000183105469
 21
143.6999969482422
 31
0.0
  3
Signalbeskrivelse
  2
$TAG175110
 70
     0
  0
ATTDEF
  5
508
  8
0
 10
279.9935292449951
 20
140.6999969482422
 30
0.0
 40
2.449996948242188
  1

 41
0.9
  7
CADDY_VECTORFONT1P
 72
     2
 11
296.8000183105469
 21
140.6999969482422
 31
0.0
  3
Signalbemærkning
  2
$TAG175120
 70
     0
  0
ATTDEF
  5
50A
  8
0
 10
279.5017843399048
 20
137.1999969482422
 30
0.0
 40
2.449996948242188
  1
?
 41
0.9
  7
CADDY_VECTORFONT1P
 72
     2
 11
296.7999877929688
 21
137.1999969482422
 31
0.0
  3
Side/strømvej reference
  2
$TAG160500
 70
     0
  0
ATTDEF
  5
50C
  8
0
 10
279.2570296447754
 20
157.6999969482422
 30
0.0
 40
2.449996948242188
  1
=
 41
0.9
  7
CADDY_VECTORFONT1P
 72
     2
 11
296.7999877929688
 21
157.6999969482422
 31
0.0
  3
Funktion (=)
  2
$TAG140020
 70
     1
  0
ATTDEF
  5
50E
  8
0
 10
279.2570601623535
 20
154.1999969482422
 30
0.0
 40
2.449996948242188
  1
+
 41
0.9
  7
CADDY_VECTORFONT1P
 72
     2
 11
296.8000183105469
 21
154.1999969482422
 31
0.0
  3
Placering (+)
  2
$TAG140050
 70
     1
  0
ATTDEF
  5
510
  8
0
 10
271.4018087539673
 20
147.0500030517578
 30
0.0
 40
2.449996948242188
  1

 41
0.9
  7
CADDY_VECTORFONT1P
 72
     2
 11
288.7000122070312
 21
147.0500030517578
 31
0.0
  3
Beskrivelse 00
  2
$TAG160030
 70
     0
  0
ATTDEF
  5
512
  8
0
 10
271.1570540588379
 20
143.5500030517578
 30
0.0
 40
2.449996948242188
  1

 41
0.9
  7
CADDY_VECTORFONT1P
 72
     2
 11
288.7000122070312
 21
143.5500030517578
 31
0.0
  3
Type
  2
$TAG160040
 70
     1
  0
ENDBLK
  8
0
  0
BLOCK
  8
0
  2
BLK61
 70
     0
 10
0.0
 20
0.0
 30
0.0
  0
LINE
  5
448
  8
0
  6
CADDY_SOLID
 10
305.0
 20
210.0
 30
0.0
 11
310.0
 21
210.0
 31
0.0
  0
LINE
  5
449
  8
0
  6
CADDY_SOLID
 10
310.0
 20
210.0
 30
0.0
 11
310.0
 21
215.0
 31
0.0
  0
LINE
  5
44A
  8
0
  6
CADDY_SOLID
 10
310.0
 20
215.0
 30
0.0
 11
305.0
 21
215.0
 31
0.0
  0
LINE
  5
44B
  8
0
  6
CADDY_SOLID
 10
305.0
 20
215.0
 30
0.0
 11
305.0
 21
210.0
 31
0.0
  0
ENDBLK
  8
0
  0
BLOCK
  8
0
  2
BLK62
 70
     0
 10
0.0
 20
0.0
 30
0.0
  0
LINE
  5
452
  8
0
  6
CADDY_SOLID
 10
305.0
 20
205.0
 30
0.0
 11
310.0
 21
205.0
 31
0.0
  0
LINE
  5
453
  8
0
  6
CADDY_SOLID
 10
310.0
 20
205.0
 30
0.0
 11
310.0
 21
210.0
 31
0.0
  0
LINE
  5
454
  8
0
  6
CADDY_SOLID
 10
310.0
 20
210.0
 30
0.0
 11
305.0
 21
210.0
 31
0.0
  0
LINE
  5
455
  8
0
  6
CADDY_SOLID
 10
305.0
 20
210.0
 30
0.0
 11
305.0
 21
205.0
 31
0.0
  0
ENDBLK
  8
0
  0
BLOCK
  8
0
  2
BLK63
 70
     0
 10
0.0
 20
0.0
 30
0.0
  0
LINE
  5
45A
  8
0
  6
CADDY_SOLID
 10
305.0
 20
200.0
 30
0.0
 11
310.0
 21
200.0
 31
0.0
  0
LINE
  5
45B
  8
0
  6
CADDY_SOLID
 10
310.0
 20
200.0
 30
0.0
 11
310.0
 21
205.0
 31
0.0
  0
LINE
  5
45C
  8
0
  6
CADDY_SOLID
 10
310.0
 20
205.0
 30
0.0
 11
305.0
 21
205.0
 31
0.0
  0
LINE
  5
45D
  8
0
  6
CADDY_SOLID
 10
305.0
 20
205.0
 30
0.0
 11
305.0
 21
200.0
 31
0.0
  0
ENDBLK
  8
0
  0
BLOCK
  8
0
  2
BLK64
 70
     0
 10
0.0
 20
0.0
 30
0.0
  0
LINE
  5
462
  8
0
  6
CADDY_SOLID
 10
305.0
 20
195.0
 30
0.0
 11
310.0
 21
195.0
 31
0.0
  0
LINE
  5
463
  8
0
  6
CADDY_SOLID
 10
310.0
 20
195.0
 30
0.0
 11
310.0
 21
200.0
 31
0.0
  0
LINE
  5
464
  8
0
  6
CADDY_SOLID
 10
310.0
 20
200.0
 30
0.0
 11
305.0
 21
200.0
 31
0.0
  0
LINE
  5
465
  8
0
  6
CADDY_SOLID
 10
305.0
 20
200.0
 30
0.0
 11
305.0
 21
195.0
 31
0.0
  0
ENDBLK
  8
0
  0
BLOCK
  8
0
  2
BLK65
 70
     0
 10
0.0
 20
0.0
 30
0.0
  0
LINE
  5
46A
  8
0
  6
CADDY_SOLID
 10
305.0
 20
190.0
 30
0.0
 11
310.0
 21
190.0
 31
0.0
  0
LINE
  5
46B
  8
0
  6
CADDY_SOLID
 10
310.0
 20
190.0
 30
0.0
 11
310.0
 21
195.0
 31
0.0
  0
LINE
  5
46C
  8
0
  6
CADDY_SOLID
 10
310.0
 20
195.0
 30
0.0
 11
305.0
 21
195.0
 31
0.0
  0
LINE
  5
46D
  8
0
  6
CADDY_SOLID
 10
305.0
 20
195.0
 30
0.0
 11
305.0
 21
190.0
 31
0.0
  0
ENDBLK
  8
0
  0
BLOCK
  8
0
  2
BLK66
 70
     0
 10
0.0
 20
0.0
 30
0.0
  0
LINE
  5
472
  8
0
  6
CADDY_SOLID
 10
305.0
 20
185.0
 30
0.0
 11
310.0
 21
185.0
 31
0.0
  0
LINE
  5
473
  8
0
  6
CADDY_SOLID
 10
310.0
 20
185.0
 30
0.0
 11
310.0
 21
190.0
 31
0.0
  0
LINE
  5
474
  8
0
  6
CADDY_SOLID
 10
310.0
 20
190.0
 30
0.0
 11
305.0
 21
190.0
 31
0.0
  0
LINE
  5
475
  8
0
  6
CADDY_SOLID
 10
305.0
 20
190.0
 30
0.0
 11
305.0
 21
185.0
 31
0.0
  0
ENDBLK
  8
0
  0
BLOCK
  8
0
  2
BLK67
 70
     0
 10
0.0
 20
0.0
 30
0.0
  0
LINE
  5
47A
  8
0
  6
CADDY_SOLID
 10
305.0
 20
180.0
 30
0.0
 11
310.0
 21
180.0
 31
0.0
  0
LINE
  5
47B
  8
0
  6
CADDY_SOLID
 10
310.0
 20
180.0
 30
0.0
 11
310.0
 21
185.0
 31
0.0
  0
LINE
  5
47C
  8
0
  6
CADDY_SOLID
 10
310.0
 20
185.0
 30
0.0
 11
305.0
 21
185.0
 31
0.0
  0
LINE
  5
47D
  8
0
  6
CADDY_SOLID
 10
305.0
 20
185.0
 30
0.0
 11
305.0
 21
180.0
 31
0.0
  0
ENDBLK
  8
0
  0
BLOCK
  8
0
  2
BLK68
 70
     0
 10
0.0
 20
0.0
 30
0.0
  0
LINE
  5
482
  8
0
  6
CADDY_SOLID
 10
305.0
 20
175.0
 30
0.0
 11
310.0
 21
175.0
 31
0.0
  0
LINE
  5
483
  8
0
  6
CADDY_SOLID
 10
310.0
 20
175.0
 30
0.0
 11
310.0
 21
180.0
 31
0.0
  0
LINE
  5
484
  8
0
  6
CADDY_SOLID
 10
310.0
 20
180.0
 30
0.0
 11
305.0
 21
180.0
 31
0.0
  0
LINE
  5
485
  8
0
  6
CADDY_SOLID
 10
305.0
 20
180.0
 30
0.0
 11
305.0
 21
175.0
 31
0.0
  0
ENDBLK
  8
0
  0
BLOCK
  8
0
  2
BLK69
 70
     0
 10
0.0
 20
0.0
 30
0.0
  0
LINE
  5
490
  8
0
  6
CADDY_SOLID
 10
300.0
 20
75.0
 30
0.0
 11
320.0
 21
75.0
 31
0.0
  0
LINE
  5
491
  8
0
  6
CADDY_SOLID
 10
320.0
 20
75.0
 30
0.0
 11
320.0
 21
225.0
 31
0.0
  0
LINE
  5
492
  8
0
  6
CADDY_SOLID
 10
320.0
 20
225.0
 30
0.0
 11
300.0
 21
225.0
 31
0.0
  0
LINE
  5
493
  8
0
  6
CADDY_SOLID
 10
300.0
 20
225.0
 30
0.0
 11
300.0
 21
75.0
 31
0.0
  0
ENDBLK
  8
0
  0
BLOCK
  8
0
  2
BLK70
 70
     0
 10
0.0
 20
0.0
 30
0.0
  0
LINE
  5
498
  8
0
  6
CADDY_SOLID
 10
305.0
 20
155.0
 30
0.0
 11
315.0
 21
155.0
 31
0.0
  0
LINE
  5
499
  8
0
  6
CADDY_SOLID
 10
315.0
 20
155.0
 30
0.0
 11
315.0
 21
160.0
 31
0.0
  0
LINE
  5
49A
  8
0
  6
CADDY_SOLID
 10
315.0
 20
160.0
 30
0.0
 11
305.0
 21
160.0
 31
0.0
  0
LINE
  5
49B
  8
0
  6
CADDY_SOLID
 10
305.0
 20
160.0
 30
0.0
 11
305.0
 21
155.0
 31
0.0
  0
ENDBLK
  8
0
  0
BLOCK
  8
0
  2
BLK71
 70
     0
 10
0.0
 20
0.0
 30
0.0
  0
LINE
  5
4A0
  8
0
  6
CADDY_SOLID
 10
305.0
 20
150.0
 30
0.0
 11
315.0
 21
150.0
 31
0.0
  0
LINE
  5
4A1
  8
0
  6
CADDY_SOLID
 10
315.0
 20
150.0
 30
0.0
 11
315.0
 21
155.0
 31
0.0
  0
LINE
  5
4A2
  8
0
  6
CADDY_SOLID
 10
315.0
 20
155.0
 30
0.0
 11
305.0
 21
155.0
 31
0.0
  0
LINE
  5
4A3
  8
0
  6
CADDY_SOLID
 10
305.0
 20
155.0
 30
0.0
 11
305.0
 21
150.0
 31
0.0
  0
ENDBLK
  8
0
  0
BLOCK
  8
0
  2
BLK72
 70
     0
 10
0.0
 20
0.0
 30
0.0
  0
LINE
  5
4A8
  8
0
  6
CADDY_SOLID
 10
305.0
 20
145.0
 30
0.0
 11
315.0
 21
145.0
 31
0.0
  0
LINE
  5
4A9
  8
0
  6
CADDY_SOLID
 10
315.0
 20
145.0
 30
0.0
 11
315.0
 21
150.0
 31
0.0
  0
LINE
  5
4AA
  8
0
  6
CADDY_SOLID
 10
315.0
 20
150.0
 30
0.0
 11
305.0
 21
150.0
 31
0.0
  0
LINE
  5
4AB
  8
0
  6
CADDY_SOLID
 10
305.0
 20
150.0
 30
0.0
 11
305.0
 21
145.0
 31
0.0
  0
ENDBLK
  8
0
  0
BLOCK
  8
0
  2
BLK73
 70
     0
 10
0.0
 20
0.0
 30
0.0
  0
LINE
  5
4B0
  8
0
  6
CADDY_SOLID
 10
305.0
 20
140.0
 30
0.0
 11
315.0
 21
140.0
 31
0.0
  0
LINE
  5
4B1
  8
0
  6
CADDY_SOLID
 10
315.0
 20
140.0
 30
0.0
 11
315.0
 21
145.0
 31
0.0
  0
LINE
  5
4B2
  8
0
  6
CADDY_SOLID
 10
315.0
 20
145.0
 30
0.0
 11
305.0
 21
145.0
 31
0.0
  0
LINE
  5
4B3
  8
0
  6
CADDY_SOLID
 10
305.0
 20
145.0
 30
0.0
 11
305.0
 21
140.0
 31
0.0
  0
ENDBLK
  8
0
  0
BLOCK
  8
0
  2
BLK74
 70
     0
 10
0.0
 20
0.0
 30
0.0
  0
LINE
  5
4B8
  8
0
  6
CADDY_SOLID
 10
305.0
 20
135.0
 30
0.0
 11
315.0
 21
135.0
 31
0.0
  0
LINE
  5
4B9
  8
0
  6
CADDY_SOLID
 10
315.0
 20
135.0
 30
0.0
 11
315.0
 21
140.0
 31
0.0
  0
LINE
  5
4BA
  8
0
  6
CADDY_SOLID
 10
315.0
 20
140.0
 30
0.0
 11
305.0
 21
140.0
 31
0.0
  0
LINE
  5
4BB
  8
0
  6
CADDY_SOLID
 10
305.0
 20
140.0
 30
0.0
 11
305.0
 21
135.0
 31
0.0
  0
ENDBLK
  8
0
  0
BLOCK
  8
0
  2
BLK75
 70
     0
 10
0.0
 20
0.0
 30
0.0
  0
LINE
  5
4C0
  8
0
  6
CADDY_SOLID
 10
305.0
 20
130.0
 30
0.0
 11
315.0
 21
130.0
 31
0.0
  0
LINE
  5
4C1
  8
0
  6
CADDY_SOLID
 10
315.0
 20
130.0
 30
0.0
 11
315.0
 21
135.0
 31
0.0
  0
LINE
  5
4C2
  8
0
  6
CADDY_SOLID
 10
315.0
 20
135.0
 30
0.0
 11
305.0
 21
135.0
 31
0.0
  0
LINE
  5
4C3
  8
0
  6
CADDY_SOLID
 10
305.0
 20
135.0
 30
0.0
 11
305.0
 21
130.0
 31
0.0
  0
ENDBLK
  8
0
  0
BLOCK
  8
0
  2
BLK76
 70
     0
 10
0.0
 20
0.0
 30
0.0
  0
LINE
  5
4CF
  8
0
  6
CADDY_SOLID
 10
305.0
 20
115.0
 30
0.0
 11
315.0
 21
115.0
 31
0.0
  0
LINE
  5
4D0
  8
0
  6
CADDY_SOLID
 10
315.0
 20
115.0
 30
0.0
 11
315.0
 21
120.0
 31
0.0
  0
LINE
  5
4D1
  8
0
  6
CADDY_SOLID
 10
315.0
 20
120.0
 30
0.0
 11
305.0
 21
120.0
 31
0.0
  0
LINE
  5
4D2
  8
0
  6
CADDY_SOLID
 10
305.0
 20
120.0
 30
0.0
 11
305.0
 21
115.0
 31
0.0
  0
ENDBLK
  8
0
  0
BLOCK
  8
0
  2
BLK77
 70
     0
 10
0.0
 20
0.0
 30
0.0
  0
LINE
  5
4D7
  8
0
  6
CADDY_SOLID
 10
305.0
 20
110.0
 30
0.0
 11
315.0
 21
110.0
 31
0.0
  0
LINE
  5
4D8
  8
0
  6
CADDY_SOLID
 10
315.0
 20
110.0
 30
0.0
 11
315.0
 21
115.0
 31
0.0
  0
LINE
  5
4D9
  8
0
  6
CADDY_SOLID
 10
315.0
 20
115.0
 30
0.0
 11
305.0
 21
115.0
 31
0.0
  0
LINE
  5
4DA
  8
0
  6
CADDY_SOLID
 10
305.0
 20
115.0
 30
0.0
 11
305.0
 21
110.0
 31
0.0
  0
ENDBLK
  8
0
  0
BLOCK
  8
0
  2
BLK78
 70
     0
 10
0.0
 20
0.0
 30
0.0
  0
LINE
  5
4DF
  8
0
  6
CADDY_SOLID
 10
305.0
 20
105.0
 30
0.0
 11
315.0
 21
105.0
 31
0.0
  0
LINE
  5
4E0
  8
0
  6
CADDY_SOLID
 10
315.0
 20
105.0
 30
0.0
 11
315.0
 21
110.0
 31
0.0
  0
LINE
  5
4E1
  8
0
  6
CADDY_SOLID
 10
315.0
 20
110.0
 30
0.0
 11
305.0
 21
110.0
 31
0.0
  0
LINE
  5
4E2
  8
0
  6
CADDY_SOLID
 10
305.0
 20
110.0
 30
0.0
 11
305.0
 21
105.0
 31
0.0
  0
ENDBLK
  8
0
  0
BLOCK
  8
0
  2
BLK79
 70
     0
 10
0.0
 20
0.0
 30
0.0
  0
LINE
  5
4E7
  8
0
  6
CADDY_SOLID
 10
305.0
 20
100.0
 30
0.0
 11
315.0
 21
100.0
 31
0.0
  0
LINE
  5
4E8
  8
0
  6
CADDY_SOLID
 10
315.0
 20
100.0
 30
0.0
 11
315.0
 21
105.0
 31
0.0
  0
LINE
  5
4E9
  8
0
  6
CADDY_SOLID
 10
315.0
 20
105.0
 30
0.0
 11
305.0
 21
105.0
 31
0.0
  0
LINE
  5
4EA
  8
0
  6
CADDY_SOLID
 10
305.0
 20
105.0
 30
0.0
 11
305.0
 21
100.0
 31
0.0
  0
ENDBLK
  8
0
  0
BLOCK
  8
0
  2
BLK80
 70
     0
 10
0.0
 20
0.0
 30
0.0
  0
LINE
  5
4EF
  8
0
  6
CADDY_SOLID
 10
305.0
 20
95.0
 30
0.0
 11
315.0
 21
95.0
 31
0.0
  0
LINE
  5
4F0
  8
0
  6
CADDY_SOLID
 10
315.0
 20
95.0
 30
0.0
 11
315.0
 21
100.0
 31
0.0
  0
LINE
  5
4F1
  8
0
  6
CADDY_SOLID
 10
315.0
 20
100.0
 30
0.0
 11
305.0
 21
100.0
 31
0.0
  0
LINE
  5
4F2
  8
0
  6
CADDY_SOLID
 10
305.0
 20
100.0
 30
0.0
 11
305.0
 21
95.0
 31
0.0
  0
ENDBLK
  8
0
  0
BLOCK
  8
0
  2
BLK81
 70
     0
 10
0.0
 20
0.0
 30
0.0
  0
LINE
  5
4F7
  8
0
  6
CADDY_SOLID
 10
305.0
 20
90.0
 30
0.0
 11
315.0
 21
90.0
 31
0.0
  0
LINE
  5
4F8
  8
0
  6
CADDY_SOLID
 10
315.0
 20
90.0
 30
0.0
 11
315.0
 21
95.0
 31
0.0
  0
LINE
  5
4F9
  8
0
  6
CADDY_SOLID
 10
315.0
 20
95.0
 30
0.0
 11
305.0
 21
95.0
 31
0.0
  0
LINE
  5
4FA
  8
0
  6
CADDY_SOLID
 10
305.0
 20
95.0
 30
0.0
 11
305.0
 21
90.0
 31
0.0
  0
ENDBLK
  8
0
  0
BLOCK
  8
0
  2
BLK82
 70
     2
 10
0.0
 20
0.0
 30
0.0
  0
ATTDEF
  5
519
  8
0
 10
312.9767904434204
 20
147.0500030517578
 30
0.0
 40
2.449996948242188
  1

 41
0.9
  7
CADDY_VECTORFONT1P
 72
     2
 11
330.2749938964844
 21
147.0500030517578
 31
0.0
  3
Beskrivelse 00
  2
$TAG160030
 70
     0
  0
ATTDEF
  5
51B
  8
0
 10
334.993498727417
 20
230.6999969482422
 30
0.0
 40
2.449996948242188
  1
D1308
 41
0.9
  7
CADDY_VECTORFONT1P
 72
     2
 11
351.7999877929688
 21
230.6999969482422
 31
0.0
  3
Produkt (-)
  2
$TAG160010
 70
     0
  0
TEXT
  5
51C
  8
0
 10
345.7000122070312
 20
220.6999969482422
 30
0.0
 40
2.449996948242188
  1
DDI3610
 41
0.9
  7
CADDY_VECTORFONT1P
  0
INSERT
  5
520
  8
0
  2
BLK83
 10
0.0
 20
0.0
 30
1.0
  0
TEXT
  5
525
  8
0
 10
350.7000122070312
 20
210.6999969482422
 30
0.0
 40
2.449996948242188
  1
RDY
 41
0.9
  7
CADDY_VECTORFONT1P
  0
TEXT
  5
526
  8
0
 10
350.7000122070312
 20
205.6999969482422
 30
0.0
 40
2.449996948242188
  1
ERR
 41
0.9
  7
CADDY_VECTORFONT1P
  0
INSERT
  5
52A
  8
0
  2
BLK84
 10
0.0
 20
0.0
 30
1.0
  0
INSERT
  5
532
  8
0
  2
BLK85
 10
0.0
 20
0.0
 30
1.0
  0
INSERT
  5
53A
  8
0
  2
BLK86
 10
0.0
 20
0.0
 30
1.0
  0
INSERT
  5
542
  8
0
  2
BLK87
 10
0.0
 20
0.0
 30
1.0
  0
INSERT
  5
54A
  8
0
  2
BLK88
 10
0.0
 20
0.0
 30
1.0
  0
INSERT
  5
552
  8
0
  2
BLK89
 10
0.0
 20
0.0
 30
1.0
  0
INSERT
  5
55A
  8
0
  2
BLK90
 10
0.0
 20
0.0
 30
1.0
  0
TEXT
  5
55F
  8
0
 10
350.7000122070312
 20
200.6999969482422
 30
0.0
 40
2.449996948242188
  1
IN1
 41
0.9
  7
CADDY_VECTORFONT1P
  0
TEXT
  5
560
  8
0
 10
350.7000122070312
 20
195.6999969482422
 30
0.0
 40
2.449996948242188
  1
IN2
 41
0.9
  7
CADDY_VECTORFONT1P
  0
TEXT
  5
561
  8
0
 10
350.7000122070312
 20
190.6999969482422
 30
0.0
 40
2.449996948242188
  1
IN3
 41
0.9
  7
CADDY_VECTORFONT1P
  0
TEXT
  5
562
  8
0
 10
350.7000122070312
 20
185.6999969482422
 30
0.0
 40
2.449996948242188
  1
IN4
 41
0.9
  7
CADDY_VECTORFONT1P
  0
TEXT
  5
563
  8
0
 10
350.7000122070312
 20
180.6999969482422
 30
0.0
 40
2.449996948242188
  1
IN5
 41
0.9
  7
CADDY_VECTORFONT1P
  0
TEXT
  5
564
  8
0
 10
350.7000122070312
 20
175.6999969482422
 30
0.0
 40
2.449996948242188
  1
IN6
 41
0.9
  7
CADDY_VECTORFONT1P
  0
INSERT
  5
568
  8
0
  2
BLK91
 10
0.0
 20
0.0
 30
1.0
  0
INSERT
  5
570
  8
0
  2
BLK92
 10
0.0
 20
0.0
 30
1.0
  0
INSERT
  5
578
  8
0
  2
BLK93
 10
0.0
 20
0.0
 30
1.0
  0
INSERT
  5
580
  8
0
  2
BLK94
 10
0.0
 20
0.0
 30
1.0
  0
INSERT
  5
588
  8
0
  2
BLK95
 10
0.0
 20
0.0
 30
1.0
  0
INSERT
  5
590
  8
0
  2
BLK96
 10
0.0
 20
0.0
 30
1.0
  0
INSERT
  5
598
  8
0
  2
BLK97
 10
0.0
 20
0.0
 30
1.0
  0
TEXT
  5
59D
  8
0
 10
340.7000122070312
 20
155.6999969482422
 30
0.0
 40
2.449996948242188
  1
1
 41
0.9
  7
CADDY_VECTORFONT1P
  0
TEXT
  5
59E
  8
0
 10
340.7000122070312
 20
150.6999969482422
 30
0.0
 40
2.449996948242188
  1
2
 41
0.9
  7
CADDY_VECTORFONT1P
  0
TEXT
  5
59F
  8
0
 10
340.7000122070312
 20
145.6999969482422
 30
0.0
 40
2.449996948242188
  1
3
 41
0.9
  7
CADDY_VECTORFONT1P
  0
TEXT
  5
5A0
  8
0
 10
340.7000122070312
 20
140.6999969482422
 30
0.0
 40
2.449996948242188
  1
4
 41
0.9
  7
CADDY_VECTORFONT1P
  0
TEXT
  5
5A1
  8
0
 10
340.7000122070312
 20
135.6999969482422
 30
0.0
 40
2.449996948242188
  1
5
 41
0.9
  7
CADDY_VECTORFONT1P
  0
TEXT
  5
5A2
  8
0
 10
340.7000122070312
 20
130.6999969482422
 30
0.0
 40
2.449996948242188
  1
6
 41
0.9
  7
CADDY_VECTORFONT1P
  0
TEXT
  5
5A3
  8
0
 10
346.446646926117
 20
160.6999969482422
 30
0.0
 40
2.449996948242188
  1
8(A)1
 41
0.9
  7
CADDY_VECTORFONT1P
 72
     1
 11
350.0
 21
160.6999969482422
 31
0.0
  0
INSERT
  5
5A7
  8
0
  2
BLK98
 10
0.0
 20
0.0
 30
1.0
  0
INSERT
  5
5AF
  8
0
  2
BLK99
 10
0.0
 20
0.0
 30
1.0
  0
INSERT
  5
5B7
  8
0
  2
BLK100
 10
0.0
 20
0.0
 30
1.0
  0
INSERT
  5
5BF
  8
0
  2
BLK101
 10
0.0
 20
0.0
 30
1.0
  0
INSERT
  5
5C7
  8
0
  2
BLK102
 10
0.0
 20
0.0
 30
1.0
  0
INSERT
  5
5CF
  8
0
  2
BLK103
 10
0.0
 20
0.0
 30
1.0
  0
TEXT
  5
5D4
  8
0
 10
340.7000122070312
 20
115.6999969482422
 30
0.0
 40
2.450004577636719
  1
1
 41
0.9
  7
CADDY_VECTORFONT1P
  0
TEXT
  5
5D5
  8
0
 10
340.7000122070312
 20
110.6999969482422
 30
0.0
 40
2.450004577636719
  1
2
 41
0.9
  7
CADDY_VECTORFONT1P
  0
TEXT
  5
5D6
  8
0
 10
340.7000122070312
 20
105.6999969482422
 30
0.0
 40
2.450004577636719
  1
3
 41
0.9
  7
CADDY_VECTORFONT1P
  0
TEXT
  5
5D7
  8
0
 10
340.7000122070312
 20
100.6999969482422
 30
0.0
 40
2.450004577636719
  1
4
 41
0.9
  7
CADDY_VECTORFONT1P
  0
TEXT
  5
5D8
  8
0
 10
340.7000122070312
 20
95.69999694824219
 30
0.0
 40
2.450004577636719
  1
5
 41
0.9
  7
CADDY_VECTORFONT1P
  0
TEXT
  5
5D9
  8
0
 10
340.7000122070312
 20
90.69999694824219
 30
0.0
 40
2.450004577636719
  1
6
 41
0.9
  7
CADDY_VECTORFONT1P
  0
TEXT
  5
5DA
  8
0
 10
346.5690441070557
 20
120.6999969482422
 30
0.0
 40
2.450004577636719
  1
8(B)1
 41
0.9
  7
CADDY_VECTORFONT1P
 72
     1
 11
350.0000305175781
 21
120.6999969482422
 31
0.0
  0
LINE
  5
5DB
  8
0
  6
CADDY_SOLID
 10
340.0
 20
170.0
 30
0.0
 11
360.0
 21
170.0
 31
0.0
  0
ATTDEF
  5
5DD
  8
0
 10
319.9935292449951
 20
147.1999969482422
 30
0.0
 40
2.449996948242188
  1

 41
0.9
  7
CADDY_VECTORFONT1P
 72
     2
 11
336.8000183105469
 21
147.1999969482422
 31
0.0
  3
Signaladresse
  2
$TAG175100
 70
     0
  0
ATTDEF
  5
5DF
  8
0
 10
320.4852436325073
 20
143.6999969482422
 30
0.0
 40
2.449996948242188
  1

 41
0.9
  7
CADDY_VECTORFONT1P
 72
     2
 11
336.8000183105469
 21
143.6999969482422
 31
0.0
  3
Signalbeskrivelse
  2
$TAG175110
 70
     0
  0
ATTDEF
  5
5E1
  8
0
 10
319.9935292449951
 20
140.6999969482422
 30
0.0
 40
2.449996948242188
  1

 41
0.9
  7
CADDY_VECTORFONT1P
 72
     2
 11
336.8000183105469
 21
140.6999969482422
 31
0.0
  3
Signalbemærkning
  2
$TAG175120
 70
     0
  0
ATTDEF
  5
5E3
  8
0
 10
319.5017843399048
 20
137.1999969482422
 30
0.0
 40
2.449996948242188
  1
?
 41
0.9
  7
CADDY_VECTORFONT1P
 72
     2
 11
336.7999877929688
 21
137.1999969482422
 31
0.0
  3
Side/strømvej reference
  2
$TAG160500
 70
     0
  0
ATTDEF
  5
5E5
  8
0
 10
319.2570296447754
 20
157.6999969482422
 30
0.0
 40
2.449996948242188
  1
=
 41
0.9
  7
CADDY_VECTORFONT1P
 72
     2
 11
336.7999877929688
 21
157.6999969482422
 31
0.0
  3
Funktion (=)
  2
$TAG140020
 70
     1
  0
ATTDEF
  5
5E7
  8
0
 10
319.2570601623535
 20
154.1999969482422
 30
0.0
 40
2.449996948242188
  1
+
 41
0.9
  7
CADDY_VECTORFONT1P
 72
     2
 11
336.8000183105469
 21
154.1999969482422
 31
0.0
  3
Placering (+)
  2
$TAG140050
 70
     1
  0
ATTDEF
  5
5E9
  8
0
 10
311.4018087539673
 20
147.0500030517578
 30
0.0
 40
2.449996948242188
  1

 41
0.9
  7
CADDY_VECTORFONT1P
 72
     2
 11
328.7000122070312
 21
147.0500030517578
 31
0.0
  3
Beskrivelse 00
  2
$TAG160030
 70
     0
  0
ATTDEF
  5
5EB
  8
0
 10
311.1570540588379
 20
143.5500030517578
 30
0.0
 40
2.449996948242188
  1

 41
0.9
  7
CADDY_VECTORFONT1P
 72
     2
 11
328.7000122070312
 21
143.5500030517578
 31
0.0
  3
Type
  2
$TAG160040
 70
     1
  0
ENDBLK
  8
0
  0
BLOCK
  8
0
  2
BLK83
 70
     0
 10
0.0
 20
0.0
 30
0.0
  0
LINE
  5
521
  8
0
  6
CADDY_SOLID
 10
345.0
 20
210.0
 30
0.0
 11
350.0
 21
210.0
 31
0.0
  0
LINE
  5
522
  8
0
  6
CADDY_SOLID
 10
350.0
 20
210.0
 30
0.0
 11
350.0
 21
215.0
 31
0.0
  0
LINE
  5
523
  8
0
  6
CADDY_SOLID
 10
350.0
 20
215.0
 30
0.0
 11
345.0
 21
215.0
 31
0.0
  0
LINE
  5
524
  8
0
  6
CADDY_SOLID
 10
345.0
 20
215.0
 30
0.0
 11
345.0
 21
210.0
 31
0.0
  0
ENDBLK
  8
0
  0
BLOCK
  8
0
  2
BLK84
 70
     0
 10
0.0
 20
0.0
 30
0.0
  0
LINE
  5
52B
  8
0
  6
CADDY_SOLID
 10
345.0
 20
205.0
 30
0.0
 11
350.0
 21
205.0
 31
0.0
  0
LINE
  5
52C
  8
0
  6
CADDY_SOLID
 10
350.0
 20
205.0
 30
0.0
 11
350.0
 21
210.0
 31
0.0
  0
LINE
  5
52D
  8
0
  6
CADDY_SOLID
 10
350.0
 20
210.0
 30
0.0
 11
345.0
 21
210.0
 31
0.0
  0
LINE
  5
52E
  8
0
  6
CADDY_SOLID
 10
345.0
 20
210.0
 30
0.0
 11
345.0
 21
205.0
 31
0.0
  0
ENDBLK
  8
0
  0
BLOCK
  8
0
  2
BLK85
 70
     0
 10
0.0
 20
0.0
 30
0.0
  0
LINE
  5
533
  8
0
  6
CADDY_SOLID
 10
345.0
 20
200.0
 30
0.0
 11
350.0
 21
200.0
 31
0.0
  0
LINE
  5
534
  8
0
  6
CADDY_SOLID
 10
350.0
 20
200.0
 30
0.0
 11
350.0
 21
205.0
 31
0.0
  0
LINE
  5
535
  8
0
  6
CADDY_SOLID
 10
350.0
 20
205.0
 30
0.0
 11
345.0
 21
205.0
 31
0.0
  0
LINE
  5
536
  8
0
  6
CADDY_SOLID
 10
345.0
 20
205.0
 30
0.0
 11
345.0
 21
200.0
 31
0.0
  0
ENDBLK
  8
0
  0
BLOCK
  8
0
  2
BLK86
 70
     0
 10
0.0
 20
0.0
 30
0.0
  0
LINE
  5
53B
  8
0
  6
CADDY_SOLID
 10
345.0
 20
195.0
 30
0.0
 11
350.0
 21
195.0
 31
0.0
  0
LINE
  5
53C
  8
0
  6
CADDY_SOLID
 10
350.0
 20
195.0
 30
0.0
 11
350.0
 21
200.0
 31
0.0
  0
LINE
  5
53D
  8
0
  6
CADDY_SOLID
 10
350.0
 20
200.0
 30
0.0
 11
345.0
 21
200.0
 31
0.0
  0
LINE
  5
53E
  8
0
  6
CADDY_SOLID
 10
345.0
 20
200.0
 30
0.0
 11
345.0
 21
195.0
 31
0.0
  0
ENDBLK
  8
0
  0
BLOCK
  8
0
  2
BLK87
 70
     0
 10
0.0
 20
0.0
 30
0.0
  0
LINE
  5
543
  8
0
  6
CADDY_SOLID
 10
345.0
 20
190.0
 30
0.0
 11
350.0
 21
190.0
 31
0.0
  0
LINE
  5
544
  8
0
  6
CADDY_SOLID
 10
350.0
 20
190.0
 30
0.0
 11
350.0
 21
195.0
 31
0.0
  0
LINE
  5
545
  8
0
  6
CADDY_SOLID
 10
350.0
 20
195.0
 30
0.0
 11
345.0
 21
195.0
 31
0.0
  0
LINE
  5
546
  8
0
  6
CADDY_SOLID
 10
345.0
 20
195.0
 30
0.0
 11
345.0
 21
190.0
 31
0.0
  0
ENDBLK
  8
0
  0
BLOCK
  8
0
  2
BLK88
 70
     0
 10
0.0
 20
0.0
 30
0.0
  0
LINE
  5
54B
  8
0
  6
CADDY_SOLID
 10
345.0
 20
185.0
 30
0.0
 11
350.0
 21
185.0
 31
0.0
  0
LINE
  5
54C
  8
0
  6
CADDY_SOLID
 10
350.0
 20
185.0
 30
0.0
 11
350.0
 21
190.0
 31
0.0
  0
LINE
  5
54D
  8
0
  6
CADDY_SOLID
 10
350.0
 20
190.0
 30
0.0
 11
345.0
 21
190.0
 31
0.0
  0
LINE
  5
54E
  8
0
  6
CADDY_SOLID
 10
345.0
 20
190.0
 30
0.0
 11
345.0
 21
185.0
 31
0.0
  0
ENDBLK
  8
0
  0
BLOCK
  8
0
  2
BLK89
 70
     0
 10
0.0
 20
0.0
 30
0.0
  0
LINE
  5
553
  8
0
  6
CADDY_SOLID
 10
345.0
 20
180.0
 30
0.0
 11
350.0
 21
180.0
 31
0.0
  0
LINE
  5
554
  8
0
  6
CADDY_SOLID
 10
350.0
 20
180.0
 30
0.0
 11
350.0
 21
185.0
 31
0.0
  0
LINE
  5
555
  8
0
  6
CADDY_SOLID
 10
350.0
 20
185.0
 30
0.0
 11
345.0
 21
185.0
 31
0.0
  0
LINE
  5
556
  8
0
  6
CADDY_SOLID
 10
345.0
 20
185.0
 30
0.0
 11
345.0
 21
180.0
 31
0.0
  0
ENDBLK
  8
0
  0
BLOCK
  8
0
  2
BLK90
 70
     0
 10
0.0
 20
0.0
 30
0.0
  0
LINE
  5
55B
  8
0
  6
CADDY_SOLID
 10
345.0
 20
175.0
 30
0.0
 11
350.0
 21
175.0
 31
0.0
  0
LINE
  5
55C
  8
0
  6
CADDY_SOLID
 10
350.0
 20
175.0
 30
0.0
 11
350.0
 21
180.0
 31
0.0
  0
LINE
  5
55D
  8
0
  6
CADDY_SOLID
 10
350.0
 20
180.0
 30
0.0
 11
345.0
 21
180.0
 31
0.0
  0
LINE
  5
55E
  8
0
  6
CADDY_SOLID
 10
345.0
 20
180.0
 30
0.0
 11
345.0
 21
175.0
 31
0.0
  0
ENDBLK
  8
0
  0
BLOCK
  8
0
  2
BLK91
 70
     0
 10
0.0
 20
0.0
 30
0.0
  0
LINE
  5
569
  8
0
  6
CADDY_SOLID
 10
340.0
 20
75.0
 30
0.0
 11
360.0
 21
75.0
 31
0.0
  0
LINE
  5
56A
  8
0
  6
CADDY_SOLID
 10
360.0
 20
75.0
 30
0.0
 11
360.0
 21
225.0
 31
0.0
  0
LINE
  5
56B
  8
0
  6
CADDY_SOLID
 10
360.0
 20
225.0
 30
0.0
 11
340.0
 21
225.0
 31
0.0
  0
LINE
  5
56C
  8
0
  6
CADDY_SOLID
 10
340.0
 20
225.0
 30
0.0
 11
340.0
 21
75.0
 31
0.0
  0
ENDBLK
  8
0
  0
BLOCK
  8
0
  2
BLK92
 70
     0
 10
0.0
 20
0.0
 30
0.0
  0
LINE
  5
571
  8
0
  6
CADDY_SOLID
 10
345.0
 20
155.0
 30
0.0
 11
355.0
 21
155.0
 31
0.0
  0
LINE
  5
572
  8
0
  6
CADDY_SOLID
 10
355.0
 20
155.0
 30
0.0
 11
355.0
 21
160.0
 31
0.0
  0
LINE
  5
573
  8
0
  6
CADDY_SOLID
 10
355.0
 20
160.0
 30
0.0
 11
345.0
 21
160.0
 31
0.0
  0
LINE
  5
574
  8
0
  6
CADDY_SOLID
 10
345.0
 20
160.0
 30
0.0
 11
345.0
 21
155.0
 31
0.0
  0
ENDBLK
  8
0
  0
BLOCK
  8
0
  2
BLK93
 70
     0
 10
0.0
 20
0.0
 30
0.0
  0
LINE
  5
579
  8
0
  6
CADDY_SOLID
 10
345.0
 20
150.0
 30
0.0
 11
355.0
 21
150.0
 31
0.0
  0
LINE
  5
57A
  8
0
  6
CADDY_SOLID
 10
355.0
 20
150.0
 30
0.0
 11
355.0
 21
155.0
 31
0.0
  0
LINE
  5
57B
  8
0
  6
CADDY_SOLID
 10
355.0
 20
155.0
 30
0.0
 11
345.0
 21
155.0
 31
0.0
  0
LINE
  5
57C
  8
0
  6
CADDY_SOLID
 10
345.0
 20
155.0
 30
0.0
 11
345.0
 21
150.0
 31
0.0
  0
ENDBLK
  8
0
  0
BLOCK
  8
0
  2
BLK94
 70
     0
 10
0.0
 20
0.0
 30
0.0
  0
LINE
  5
581
  8
0
  6
CADDY_SOLID
 10
345.0
 20
145.0
 30
0.0
 11
355.0
 21
145.0
 31
0.0
  0
LINE
  5
582
  8
0
  6
CADDY_SOLID
 10
355.0
 20
145.0
 30
0.0
 11
355.0
 21
150.0
 31
0.0
  0
LINE
  5
583
  8
0
  6
CADDY_SOLID
 10
355.0
 20
150.0
 30
0.0
 11
345.0
 21
150.0
 31
0.0
  0
LINE
  5
584
  8
0
  6
CADDY_SOLID
 10
345.0
 20
150.0
 30
0.0
 11
345.0
 21
145.0
 31
0.0
  0
ENDBLK
  8
0
  0
BLOCK
  8
0
  2
BLK95
 70
     0
 10
0.0
 20
0.0
 30
0.0
  0
LINE
  5
589
  8
0
  6
CADDY_SOLID
 10
345.0
 20
140.0
 30
0.0
 11
355.0
 21
140.0
 31
0.0
  0
LINE
  5
58A
  8
0
  6
CADDY_SOLID
 10
355.0
 20
140.0
 30
0.0
 11
355.0
 21
145.0
 31
0.0
  0
LINE
  5
58B
  8
0
  6
CADDY_SOLID
 10
355.0
 20
145.0
 30
0.0
 11
345.0
 21
145.0
 31
0.0
  0
LINE
  5
58C
  8
0
  6
CADDY_SOLID
 10
345.0
 20
145.0
 30
0.0
 11
345.0
 21
140.0
 31
0.0
  0
ENDBLK
  8
0
  0
BLOCK
  8
0
  2
BLK96
 70
     0
 10
0.0
 20
0.0
 30
0.0
  0
LINE
  5
591
  8
0
  6
CADDY_SOLID
 10
345.0
 20
135.0
 30
0.0
 11
355.0
 21
135.0
 31
0.0
  0
LINE
  5
592
  8
0
  6
CADDY_SOLID
 10
355.0
 20
135.0
 30
0.0
 11
355.0
 21
140.0
 31
0.0
  0
LINE
  5
593
  8
0
  6
CADDY_SOLID
 10
355.0
 20
140.0
 30
0.0
 11
345.0
 21
140.0
 31
0.0
  0
LINE
  5
594
  8
0
  6
CADDY_SOLID
 10
345.0
 20
140.0
 30
0.0
 11
345.0
 21
135.0
 31
0.0
  0
ENDBLK
  8
0
  0
BLOCK
  8
0
  2
BLK97
 70
     0
 10
0.0
 20
0.0
 30
0.0
  0
LINE
  5
599
  8
0
  6
CADDY_SOLID
 10
345.0
 20
130.0
 30
0.0
 11
355.0
 21
130.0
 31
0.0
  0
LINE
  5
59A
  8
0
  6
CADDY_SOLID
 10
355.0
 20
130.0
 30
0.0
 11
355.0
 21
135.0
 31
0.0
  0
LINE
  5
59B
  8
0
  6
CADDY_SOLID
 10
355.0
 20
135.0
 30
0.0
 11
345.0
 21
135.0
 31
0.0
  0
LINE
  5
59C
  8
0
  6
CADDY_SOLID
 10
345.0
 20
135.0
 30
0.0
 11
345.0
 21
130.0
 31
0.0
  0
ENDBLK
  8
0
  0
BLOCK
  8
0
  2
BLK98
 70
     0
 10
0.0
 20
0.0
 30
0.0
  0
LINE
  5
5A8
  8
0
  6
CADDY_SOLID
 10
345.0
 20
115.0
 30
0.0
 11
355.0
 21
115.0
 31
0.0
  0
LINE
  5
5A9
  8
0
  6
CADDY_SOLID
 10
355.0
 20
115.0
 30
0.0
 11
355.0
 21
120.0
 31
0.0
  0
LINE
  5
5AA
  8
0
  6
CADDY_SOLID
 10
355.0
 20
120.0
 30
0.0
 11
345.0
 21
120.0
 31
0.0
  0
LINE
  5
5AB
  8
0
  6
CADDY_SOLID
 10
345.0
 20
120.0
 30
0.0
 11
345.0
 21
115.0
 31
0.0
  0
ENDBLK
  8
0
  0
BLOCK
  8
0
  2
BLK99
 70
     0
 10
0.0
 20
0.0
 30
0.0
  0
LINE
  5
5B0
  8
0
  6
CADDY_SOLID
 10
345.0
 20
110.0
 30
0.0
 11
355.0
 21
110.0
 31
0.0
  0
LINE
  5
5B1
  8
0
  6
CADDY_SOLID
 10
355.0
 20
110.0
 30
0.0
 11
355.0
 21
115.0
 31
0.0
  0
LINE
  5
5B2
  8
0
  6
CADDY_SOLID
 10
355.0
 20
115.0
 30
0.0
 11
345.0
 21
115.0
 31
0.0
  0
LINE
  5
5B3
  8
0
  6
CADDY_SOLID
 10
345.0
 20
115.0
 30
0.0
 11
345.0
 21
110.0
 31
0.0
  0
ENDBLK
  8
0
  0
BLOCK
  8
0
  2
BLK100
 70
     0
 10
0.0
 20
0.0
 30
0.0
  0
LINE
  5
5B8
  8
0
  6
CADDY_SOLID
 10
345.0
 20
105.0
 30
0.0
 11
355.0
 21
105.0
 31
0.0
  0
LINE
  5
5B9
  8
0
  6
CADDY_SOLID
 10
355.0
 20
105.0
 30
0.0
 11
355.0
 21
110.0
 31
0.0
  0
LINE
  5
5BA
  8
0
  6
CADDY_SOLID
 10
355.0
 20
110.0
 30
0.0
 11
345.0
 21
110.0
 31
0.0
  0
LINE
  5
5BB
  8
0
  6
CADDY_SOLID
 10
345.0
 20
110.0
 30
0.0
 11
345.0
 21
105.0
 31
0.0
  0
ENDBLK
  8
0
  0
BLOCK
  8
0
  2
BLK101
 70
     0
 10
0.0
 20
0.0
 30
0.0
  0
LINE
  5
5C0
  8
0
  6
CADDY_SOLID
 10
345.0
 20
100.0
 30
0.0
 11
355.0
 21
100.0
 31
0.0
  0
LINE
  5
5C1
  8
0
  6
CADDY_SOLID
 10
355.0
 20
100.0
 30
0.0
 11
355.0
 21
105.0
 31
0.0
  0
LINE
  5
5C2
  8
0
  6
CADDY_SOLID
 10
355.0
 20
105.0
 30
0.0
 11
345.0
 21
105.0
 31
0.0
  0
LINE
  5
5C3
  8
0
  6
CADDY_SOLID
 10
345.0
 20
105.0
 30
0.0
 11
345.0
 21
100.0
 31
0.0
  0
ENDBLK
  8
0
  0
BLOCK
  8
0
  2
BLK102
 70
     0
 10
0.0
 20
0.0
 30
0.0
  0
LINE
  5
5C8
  8
0
  6
CADDY_SOLID
 10
345.0
 20
95.0
 30
0.0
 11
355.0
 21
95.0
 31
0.0
  0
LINE
  5
5C9
  8
0
  6
CADDY_SOLID
 10
355.0
 20
95.0
 30
0.0
 11
355.0
 21
100.0
 31
0.0
  0
LINE
  5
5CA
  8
0
  6
CADDY_SOLID
 10
355.0
 20
100.0
 30
0.0
 11
345.0
 21
100.0
 31
0.0
  0
LINE
  5
5CB
  8
0
  6
CADDY_SOLID
 10
345.0
 20
100.0
 30
0.0
 11
345.0
 21
95.0
 31
0.0
  0
ENDBLK
  8
0
  0
BLOCK
  8
0
  2
BLK103
 70
     0
 10
0.0
 20
0.0
 30
0.0
  0
LINE
  5
5D0
  8
0
  6
CADDY_SOLID
 10
345.0
 20
90.0
 30
0.0
 11
355.0
 21
90.0
 31
0.0
  0
LINE
  5
5D1
  8
0
  6
CADDY_SOLID
 10
355.0
 20
90.0
 30
0.0
 11
355.0
 21
95.0
 31
0.0
  0
LINE
  5
5D2
  8
0
  6
CADDY_SOLID
 10
355.0
 20
95.0
 30
0.0
 11
345.0
 21
95.0
 31
0.0
  0
LINE
  5
5D3
  8
0
  6
CADDY_SOLID
 10
345.0
 20
95.0
 30
0.0
 11
345.0
 21
90.0
 31
0.0
  0
ENDBLK
  8
0
  0
BLOCK
  8
0
  2
BLK104
 70
     2
 10
0.0
 20
0.0
 30
0.0
  0
LINE
  5
5F0
  8
0
  6
CADDY_SOLID
 10
27.5
 20
250.0
 30
0.0
 11
25.25
 21
251.25
 31
0.0
  0
LINE
  5
5F1
  8
0
  6
CADDY_SOLID
 10
27.5
 20
250.0
 30
0.0
 11
25.25
 21
248.75
 31
0.0
  0
ATTDEF
  5
5F4
  8
0
 10
29.26499938964844
 20
250.8999938964844
 30
0.0
 40
2.449996948242188
  1
0710
 41
0.9
  7
CADDY_VECTORFONT1P
  3
Produkt (-)
  2
$TAG160010
 70
     0
  0
ATTDEF
  5
5F6
  8
0
 10
5.486794486999514
 20
248.9499969482422
 30
0.0
 40
2.449996948242188
  1

 41
0.9
  7
CADDY_VECTORFONT1P
 72
     2
 11
22.78499794006348
 21
248.9499969482422
 31
0.0
  3
Side/strømvej reference
  2
$TAG160500
 70
     0
  0
ATTDEF
  5
5F8
  8
0
 10
29.26499938964844
 20
257.9000244140625
 30
0.0
 40
2.449981689453125
  1
=
 41
0.9
  7
CADDY_VECTORFONT1P
  3
Funktion (=)
  2
$TAG140020
 70
     1
  0
ATTDEF
  5
5FA
  8
0
 10
29.26499938964844
 20
254.3999938964844
 30
0.0
 40
2.45001220703125
  1
+
 41
0.9
  7
CADDY_VECTORFONT1P
  3
Placering (+)
  2
$TAG140050
 70
     1
  0
ENDBLK
  8
0
  0
BLOCK
  8
0
  2
BLK105
 70
     2
 10
0.0
 20
0.0
 30
0.0
  0
LINE
  5
5FF
  8
0
  6
CADDY_SOLID
 10
392.5
 20
250.0
 30
0.0
 11
390.25
 21
251.25
 31
0.0
  0
LINE
  5
600
  8
0
  6
CADDY_SOLID
 10
392.5
 20
250.0
 30
0.0
 11
390.25
 21
248.75
 31
0.0
  0
ATTDEF
  5
603
  8
0
 10
370.9785451141357
 20
250.8999938964844
 30
0.0
 40
2.449996948242188
  1
0710
 41
0.9
  7
CADDY_VECTORFONT1P
 72
     2
 11
387.7850341796875
 21
250.8999938964844
 31
0.0
  3
Produkt (-)
  2
$TAG160010
 70
     0
  0
ATTDEF
  5
605
  8
0
 10
393.3650207519531
 20
248.9499969482422
 30
0.0
 40
2.449996948242188
  1

 41
0.9
  7
CADDY_VECTORFONT1P
  3
Side/strømvej reference
  2
$TAG160500
 70
     0
  0
ATTDEF
  5
607
  8
0
 10
370.2421547729492
 20
257.9000244140625
 30
0.0
 40
2.449981689453125
  1
=
 41
0.9
  7
CADDY_VECTORFONT1P
 72
     2
 11
387.7850036621094
 21
257.9000244140625
 31
0.0
  3
Funktion (=)
  2
$TAG140020
 70
     1
  0
ATTDEF
  5
609
  8
0
 10
370.2419362548828
 20
254.3999938964844
 30
0.0
 40
2.45001220703125
  1
+
 41
0.9
  7
CADDY_VECTORFONT1P
 72
     2
 11
387.7850036621094
 21
254.3999938964844
 31
0.0
  3
Placering (+)
  2
$TAG140050
 70
     1
  0
ENDBLK
  8
0
  0
BLOCK
  8
0
  2
*U106
 70
     1
 10
0.0
 20
0.0
 30
0.0
  0
SOLID
  5
669
  8
0
  6
CONTINUOUS
 10
55.0
 20
205.0
 30
0.0
 11
55.0
 21
215.0
 31
0.0
 12
60.0
 22
210.0
 32
0.0
 13
60.0
 23
210.0
 33
0.0
  0
SOLID
  5
66A
  8
0
  6
CONTINUOUS
 10
65.0
 20
205.0
 30
0.0
 11
60.0
 21
210.0
 31
0.0
 12
65.0
 22
215.0
 32
0.0
 13
65.0
 23
215.0
 33
0.0
  0
ENDBLK
  8
0
  0
BLOCK
  8
0
  2
*U107
 70
     1
 10
0.0
 20
0.0
 30
0.0
  0
SOLID
  5
671
  8
0
  6
CONTINUOUS
 10
60.0
 20
205.0
 30
0.0
 11
55.0
 21
205.0
 31
0.0
 12
60.0
 22
210.0
 32
0.0
 13
60.0
 23
210.0
 33
0.0
  0
SOLID
  5
672
  8
0
  6
CONTINUOUS
 10
60.0
 20
210.0
 30
0.0
 11
55.0
 21
215.0
 31
0.0
 12
60.0
 22
215.0
 32
0.0
 13
60.0
 23
215.0
 33
0.0
  0
SOLID
  5
673
  8
0
  6
CONTINUOUS
 10
60.0
 20
205.0
 30
0.0
 11
60.0
 21
210.0
 31
0.0
 12
65.0
 22
205.0
 32
0.0
 13
65.0
 23
205.0
 33
0.0
  0
SOLID
  5
674
  8
0
  6
CONTINUOUS
 10
60.0
 20
210.0
 30
0.0
 11
60.0
 21
215.0
 31
0.0
 12
65.0
 22
215.0
 32
0.0
 13
65.0
 23
215.0
 33
0.0
  0
ENDBLK
  8
0
  0
ENDSEC
  0
SECTION
  2
ENTITIES
  0
INSERT
  5
43
  8
0
  2
BLK1
 10
0.0
 20
0.0
 30
1.0
  0
INSERT
  5
AF
  8
0
 66
     1
  2
BLK2
 10
0.0
 20
0.0
 30
1.0
  0
ATTRIB
  5
B3
  8
0
 10
54.12152407684327
 20
90.89999389648438
 30
0.0
 40
2.450004577636719
  1
-2E1
 41
0.9
  7
CADDY_VECTORFONT1P
 72
     2
 11
60.15000534057617
 21
90.89999389648438
 31
0.0
  2
$TAG160010
 70
     1
  0
ATTRIB
  5
B6
  8
0
 10
64.14999389648438
 20
90.89999389648438
 30
0.0
 40
2.450004577636719
  1
1
 41
0.9
  7
CADDY_VECTORFONT1P
  2
$TAG160400
 70
     1
  0
ATTRIB
  5
B8
  8
0
 10
64.14999389648438
 20
87.39999389648438
 30
0.0
 40
2.450004577636719
  1
1
 41
0.9
  7
CADDY_VECTORFONT1P
  2
$TAG160410
 70
     1
  0
ATTRIB
  5
BA
  8
0
 10
60.15000534057617
 20
86.59999084472656
 30
0.0
 40
2.450004577636719
  1

 41
0.9
  7
CADDY_VECTORFONT1P
 72
     2
 11
60.15000534057617
 21
86.59999084472656
 31
0.0
  2
$TAG160030
 70
     1
  0
ATTRIB
  5
BC
  8
0
 10
42.11747783355713
 20
81.59999084472656
 30
0.0
 40
2.450004577636719
  1
STBXTS2120
 41
0.9
  7
CADDY_VECTORFONT1P
 72
     2
 11
60.15000152587891
 21
81.59999084472656
 31
0.0
  2
$TAG160040
 70
     1
  0
ATTRIB
  5
BE
  8
0
 10
58.80274782333374
 20
97.89999389648438
 30
0.0
 40
2.450004577636719
  1
=
 41
0.9
  7
CADDY_VECTORFONT1P
 72
     2
 11
60.15000534057617
 21
97.89999389648438
 31
0.0
  2
$TAG140020
 70
     1
  0
ATTRIB
  5
C0
  8
0
 10
58.802751638031
 20
94.39999389648438
 30
0.0
 40
2.450004577636719
  1
+
 41
0.9
  7
CADDY_VECTORFONT1P
 72
     2
 11
60.15000915527344
 21
94.39999389648438
 31
0.0
  2
$TAG140050
 70
     1
  0
SEQEND
  5
B4
  8
0
  0
INSERT
  5
C5
  8
0
 66
     1
  2
BLK3
 10
0.0
 20
0.0
 30
1.0
  0
ATTRIB
  5
C9
  8
0
 10
54.12152407684327
 20
85.89999389648438
 30
0.0
 40
2.450004577636719
  1
-2E1
 41
0.9
  7
CADDY_VECTORFONT1P
 72
     2
 11
60.15000534057617
 21
85.89999389648438
 31
0.0
  2
$TAG160010
 70
     1
  0
ATTRIB
  5
CC
  8
0
 10
64.14999389648438
 20
85.89999389648438
 30
0.0
 40
2.450004577636719
  1
2
 41
0.9
  7
CADDY_VECTORFONT1P
  2
$TAG160400
 70
     1
  0
ATTRIB
  5
CE
  8
0
 10
64.14999389648438
 20
82.39999389648438
 30
0.0
 40
2.450004577636719
  1
2
 41
0.9
  7
CADDY_VECTORFONT1P
  2
$TAG160410
 70
     1
  0
ATTRIB
  5
D0
  8
0
 10
60.15000534057617
 20
81.59999084472656
 30
0.0
 40
2.450004577636719
  1

 41
0.9
  7
CADDY_VECTORFONT1P
 72
     2
 11
60.15000534057617
 21
81.59999084472656
 31
0.0
  2
$TAG160030
 70
     1
  0
ATTRIB
  5
D2
  8
0
 10
60.15000534057617
 20
76.59999084472656
 30
0.0
 40
2.450004577636719
  1

 41
0.9
  7
CADDY_VECTORFONT1P
 72
     2
 11
60.15000534057617
 21
76.59999084472656
 31
0.0
  2
$TAG160040
 70
     1
  0
ATTRIB
  5
D4
  8
0
 10
58.80274782333374
 20
92.89999389648438
 30
0.0
 40
2.450004577636719
  1
=
 41
0.9
  7
CADDY_VECTORFONT1P
 72
     2
 11
60.15000534057617
 21
92.89999389648438
 31
0.0
  2
$TAG140020
 70
     1
  0
ATTRIB
  5
D6
  8
0
 10
58.802751638031
 20
89.39999389648438
 30
0.0
 40
2.450004577636719
  1
+
 41
0.9
  7
CADDY_VECTORFONT1P
 72
     2
 11
60.15000915527344
 21
89.39999389648438
 31
0.0
  2
$TAG140050
 70
     1
  0
SEQEND
  5
CA
  8
0
  0
INSERT
  5
DB
  8
0
 66
     1
  2
BLK4
 10
0.0
 20
0.0
 30
1.0
  0
ATTRIB
  5
134
  8
0
 10
39.30301239013672
 20
150.6999969482422
 30
0.0
 40
2.449996948242188
  1
D1301
 41
0.9
  7
CADDY_VECTORFONT1P
 72
     2
 11
46.80000305175781
 21
150.6999969482422
 31
0.0
  2
$TAG160010
 70
     0
  0
ATTRIB
  5
137
  8
0
 10
46.79999923706055
 20
147.1999969482422
 30
0.0
 40
2.449996948242188
  1

 41
0.9
  7
CADDY_VECTORFONT1P
 72
     2
 11
46.79999923706055
 21
147.1999969482422
 31
0.0
  2
$TAG160030
 70
     0
  0
ATTRIB
  5
139
  8
0
 10
30.25369603271485
 20
143.6999969482422
 30
0.0
 40
2.449996948242188
  1
STBNIP2212
 41
0.9
  7
CADDY_VECTORFONT1P
 72
     2
 11
46.79999542236328
 21
143.6999969482422
 31
0.0
  2
$TAG160040
 70
     1
  0
ATTRIB
  5
13B
  8
0
 10
45.45274591522217
 20
157.6999969482422
 30
0.0
 40
2.449996948242188
  1
=
 41
0.9
  7
CADDY_VECTORFONT1P
 72
     2
 11
46.79999923706055
 21
157.6999969482422
 31
0.0
  2
$TAG140020
 70
     1
  0
ATTRIB
  5
13D
  8
0
 10
45.45274972991943
 20
154.1999969482422
 30
0.0
 40
2.449996948242188
  1
+
 41
0.9
  7
CADDY_VECTORFONT1P
 72
     2
 11
46.80000305175781
 21
154.1999969482422
 31
0.0
  2
$TAG140050
 70
     1
  0
SEQEND
  5
135
  8
0
  0
INSERT
  5
142
  8
0
 66
     1
  2
BLK13
 10
0.0
 20
0.0
 30
1.0
  0
ATTRIB
  5
145
  8
0
 10
29.26500701904297
 20
260.9000244140625
 30
0.0
 40
2.449981689453125
  1
0708
 41
0.9
  7
CADDY_VECTORFONT1P
  2
$TAG160010
 70
     0
  0
ATTRIB
  5
148
  8
0
 10
17.7399956451416
 20
258.9500122070312
 30
0.0
 40
2.449981689453125
  1
12.9
 41
0.9
  7
CADDY_VECTORFONT1P
 72
     2
 11
22.78499794006348
 21
258.9500122070312
 31
0.0
  2
$TAG160500
 70
     0
  0
ATTRIB
  5
14A
  8
0
 10
29.26500701904297
 20
267.9000244140625
 30
0.0
 40
2.449981689453125
  1
=
 41
0.9
  7
CADDY_VECTORFONT1P
  2
$TAG140020
 70
     1
  0
ATTRIB
  5
14C
  8
0
 10
29.26500701904297
 20
264.4000244140625
 30
0.0
 40
2.449981689453125
  1
+
 41
0.9
  7
CADDY_VECTORFONT1P
  2
$TAG140050
 70
     1
  0
SEQEND
  5
146
  8
0
  0
INSERT
  5
151
  8
0
 66
     1
  2
BLK14
 10
0.0
 20
0.0
 30
1.0
  0
ATTRIB
  5
154
  8
0
 10
381.2671334106445
 20
260.9000244140625
 30
0.0
 40
2.449981689453125
  1
0708
 41
0.9
  7
CADDY_VECTORFONT1P
 72
     2
 11
387.7850646972656
 21
260.9000244140625
 31
0.0
  2
$TAG160010
 70
     0
  0
ATTRIB
  5
157
  8
0
 10
393.3650207519531
 20
258.9500122070312
 30
0.0
 40
2.449981689453125
  1
21.8
 41
0.9
  7
CADDY_VECTORFONT1P
  2
$TAG160500
 70
     0
  0
ATTRIB
  5
159
  8
0
 10
386.4377587310791
 20
267.9000244140625
 30
0.0
 40
2.449981689453125
  1
=
 41
0.9
  7
CADDY_VECTORFONT1P
 72
     2
 11
387.7850036621094
 21
267.9000244140625
 31
0.0
  2
$TAG140020
 70
     1
  0
ATTRIB
  5
15B
  8
0
 10
386.4377587310791
 20
264.4000244140625
 30
0.0
 40
2.449981689453125
  1
+
 41
0.9
  7
CADDY_VECTORFONT1P
 72
     2
 11
387.7850036621094
 21
264.4000244140625
 31
0.0
  2
$TAG140050
 70
     1
  0
SEQEND
  5
155
  8
0
  0
LINE
  5
15D
  8
0
  6
CADDY_SOLID
 10
27.5
 20
260.0
 30
0.0
 11
40.0
 21
260.0
 31
0.0
  0
LINE
  5
15E
  8
0
  6
CADDY_SOLID
 10
40.0
 20
260.0
 30
0.0
 11
115.0
 21
260.0
 31
0.0
  0
LINE
  5
15F
  8
0
  6
CADDY_SOLID
 10
115.0
 20
260.0
 30
0.0
 11
392.5
 21
260.0
 31
0.0
  0
LINE
  5
160
  8
0
  6
CADDY_SOLID
 10
40.0
 20
90.0
 30
0.0
 11
60.0
 21
90.0
 31
0.0
  0
TEXT
  5
161
  8
0
 10
47.5500875
 20
90.5
 30
0.0
 40
1.75
  1
0708
 41
0.9
  7
CADDY_VECTORFONT1P
 72
     1
 11
50.0
 21
90.5
 31
0.0
  0
INSERT
  5
165
  8
0
 66
     1
  2
BLK15
 10
0.0
 20
0.0
 30
1.0
  0
ATTRIB
  5
199
  8
0
 10
128.8135029998779
 20
145.6999969482422
 30
0.0
 40
2.449996948242188
  1
D1303
 41
0.9
  7
CADDY_VECTORFONT1P
 72
     2
 11
136.8000030517578
 21
145.6999969482422
 31
0.0
  2
$TAG160010
 70
     0
  0
ATTRIB
  5
19C
  8
0
 10
136.8000030517578
 20
142.1999969482422
 30
0.0
 40
2.449996948242188
  1

 41
0.9
  7
CADDY_VECTORFONT1P
 72
     2
 11
136.8000030517578
 21
142.1999969482422
 31
0.0
  2
$TAG160030
 70
     0
  0
ATTRIB
  5
19E
  8
0
 10
119.0123054672241
 20
138.6999969482422
 30
0.0
 40
2.449996948242188
  1
STBPDT3100
 41
0.9
  7
CADDY_VECTORFONT1P
 72
     2
 11
136.8000183105469
 21
138.6999969482422
 31
0.0
  2
$TAG160040
 70
     1
  0
ATTRIB
  5
1A0
  8
0
 10
135.4527497299194
 20
152.6999969482422
 30
0.0
 40
2.449996948242188
  1
=
 41
0.9
  7
CADDY_VECTORFONT1P
 72
     2
 11
136.8000030517578
 21
152.6999969482422
 31
0.0
  2
$TAG140020
 70
     1
  0
ATTRIB
  5
1A2
  8
0
 10
135.4527344711304
 20
149.1999969482422
 30
0.0
 40
2.449996948242188
  1
+
 41
0.9
  7
CADDY_VECTORFONT1P
 72
     2
 11
136.7999877929688
 21
149.1999969482422
 31
0.0
  2
$TAG140050
 70
     1
  0
SEQEND
  5
19A
  8
0
  0
INSERT
  5
1AB
  8
0
 66
     1
  2
BLK21
 10
0.0
 20
0.0
 30
1.0
  0
ATTRIB
  5
1AE
  8
0
 10
29.26500701904297
 20
255.9000091552734
 30
0.0
 40
2.449996948242188
  1
0707
 41
0.9
  7
CADDY_VECTORFONT1P
  2
$TAG160010
 70
     0
  0
ATTRIB
  5
1B1
  8
0
 10
17.73996422424316
 20
253.9499969482422
 30
0.0
 40
2.449996948242188
  1
12.9
 41
0.9
  7
CADDY_VECTORFONT1P
 72
     2
 11
22.78499794006348
 21
253.9499969482422
 31
0.0
  2
$TAG160500
 70
     0
  0
ATTRIB
  5
1B3
  8
0
 10
29.26500701904297
 20
262.9000244140625
 30
0.0
 40
2.449981689453125
  1
=
 41
0.9
  7
CADDY_VECTORFONT1P
  2
$TAG140020
 70
     1
  0
ATTRIB
  5
1B5
  8
0
 10
29.26500701904297
 20
259.4000244140625
 30
0.0
 40
2.449981689453125
  1
+
 41
0.9
  7
CADDY_VECTORFONT1P
  2
$TAG140050
 70
     1
  0
SEQEND
  5
1AF
  8
0
  0
INSERT
  5
1BA
  8
0
 66
     1
  2
BLK22
 10
0.0
 20
0.0
 30
1.0
  0
ATTRIB
  5
1BD
  8
0
 10
381.2604778244018
 20
255.9000091552734
 30
0.0
 40
2.449996948242188
  1
0707
 41
0.9
  7
CADDY_VECTORFONT1P
 72
     2
 11
387.7850646972656
 21
255.9000091552734
 31
0.0
  2
$TAG160010
 70
     0
  0
ATTRIB
  5
1C0
  8
0
 10
393.3650207519531
 20
253.9499969482422
 30
0.0
 40
2.449996948242188
  1
21.8
 41
0.9
  7
CADDY_VECTORFONT1P
  2
$TAG160500
 70
     0
  0
ATTRIB
  5
1C2
  8
0
 10
386.4377587310791
 20
262.9000244140625
 30
0.0
 40
2.449981689453125
  1
=
 41
0.9
  7
CADDY_VECTORFONT1P
 72
     2
 11
387.7850036621094
 21
262.9000244140625
 31
0.0
  2
$TAG140020
 70
     1
  0
ATTRIB
  5
1C4
  8
0
 10
386.4377587310791
 20
259.4000244140625
 30
0.0
 40
2.449981689453125
  1
+
 41
0.9
  7
CADDY_VECTORFONT1P
 72
     2
 11
387.7850036621094
 21
259.4000244140625
 31
0.0
  2
$TAG140050
 70
     1
  0
SEQEND
  5
1BE
  8
0
  0
LINE
  5
1C6
  8
0
  6
CADDY_SOLID
 10
27.5
 20
255.0
 30
0.0
 11
35.0
 21
255.0
 31
0.0
  0
LINE
  5
1C7
  8
0
  6
CADDY_SOLID
 10
35.0
 20
255.0
 30
0.0
 11
120.0
 21
255.0
 31
0.0
  0
LINE
  5
1C8
  8
0
  6
CADDY_SOLID
 10
120.0
 20
255.0
 30
0.0
 11
392.5
 21
255.0
 31
0.0
  0
INSERT
  5
1CC
  8
0
 66
     1
  2
BLK23
 10
0.0
 20
0.0
 30
1.0
  0
ATTRIB
  5
1D0
  8
0
 10
140.1027704421997
 20
140.9000091552734
 30
0.0
 40
2.449996948242188
  1
3U3
 41
0.9
  7
CADDY_VECTORFONT1P
 72
     2
 11
145.1500091552734
 21
140.9000091552734
 31
0.0
  2
$TAG160010
 70
     0
  0
ATTRIB
  5
1D3
  8
0
 10
149.1500091552734
 20
140.9000091552734
 30
0.0
 40
2.449996948242188
  1
1
 41
0.9
  7
CADDY_VECTORFONT1P
  2
$TAG160400
 70
     1
  0
ATTRIB
  5
1D5
  8
0
 10
149.1500091552734
 20
137.4000091552734
 30
0.0
 40
2.449996948242188
  1
1
 41
0.9
  7
CADDY_VECTORFONT1P
  2
$TAG160410
 70
     1
  0
ATTRIB
  5
1D7
  8
0
 10
145.1500091552734
 20
136.5999908447266
 30
0.0
 40
2.449996948242188
  1

 41
0.9
  7
CADDY_VECTORFONT1P
 72
     2
 11
145.1500091552734
 21
136.5999908447266
 31
0.0
  2
$TAG160030
 70
     1
  0
ATTRIB
  5
1D9
  8
0
 10
127.3623115707397
 20
131.5999908447266
 30
0.0
 40
2.449996948242188
  1
STBPDT3100
 41
0.9
  7
CADDY_VECTORFONT1P
 72
     2
 11
145.1500244140625
 21
131.5999908447266
 31
0.0
  2
$TAG160040
 70
     1
  0
ATTRIB
  5
1DB
  8
0
 10
143.8027558334351
 20
147.9000091552734
 30
0.0
 40
2.449996948242188
  1
=
 41
0.9
  7
CADDY_VECTORFONT1P
 72
     2
 11
145.1500091552734
 21
147.9000091552734
 31
0.0
  2
$TAG140020
 70
     1
  0
ATTRIB
  5
1DD
  8
0
 10
143.802740574646
 20
144.4000091552734
 30
0.0
 40
2.449996948242188
  1
+
 41
0.9
  7
CADDY_VECTORFONT1P
 72
     2
 11
145.1499938964844
 21
144.4000091552734
 31
0.0
  2
$TAG140050
 70
     1
  0
SEQEND
  5
1D1
  8
0
  0
INSERT
  5
1E2
  8
0
 66
     1
  2
BLK24
 10
0.0
 20
0.0
 30
1.0
  0
ATTRIB
  5
1E6
  8
0
 10
138.4027328186035
 20
135.9000091552734
 30
0.0
 40
2.449996948242188
  1
-2U2
 41
0.9
  7
CADDY_VECTORFONT1P
 72
     2
 11
145.1500244140625
 21
135.9000091552734
 31
0.0
  2
$TAG160010
 70
     1
  0
ATTRIB
  5
1E9
  8
0
 10
149.1499938964844
 20
135.9000091552734
 30
0.0
 40
2.449996948242188
  1
2
 41
0.9
  7
CADDY_VECTORFONT1P
  2
$TAG160400
 70
     1
  0
ATTRIB
  5
1EB
  8
0
 10
149.1499938964844
 20
132.4000091552734
 30
0.0
 40
2.449996948242188
  1
3
 41
0.9
  7
CADDY_VECTORFONT1P
  2
$TAG160410
 70
     1
  0
ATTRIB
  5
1ED
  8
0
 10
145.1500091552734
 20
131.5999908447266
 30
0.0
 40
2.449996948242188
  1

 41
0.9
  7
CADDY_VECTORFONT1P
 72
     2
 11
145.1500091552734
 21
131.5999908447266
 31
0.0
  2
$TAG160030
 70
     1
  0
ATTRIB
  5
1EF
  8
0
 10
145.1500091552734
 20
126.5999908447266
 30
0.0
 40
2.449996948242188
  1

 41
0.9
  7
CADDY_VECTORFONT1P
 72
     2
 11
145.1500091552734
 21
126.5999908447266
 31
0.0
  2
$TAG160040
 70
     1
  0
ATTRIB
  5
1F1
  8
0
 10
143.8027558334351
 20
142.9000091552734
 30
0.0
 40
2.449996948242188
  1
=
 41
0.9
  7
CADDY_VECTORFONT1P
 72
     2
 11
145.1500091552734
 21
142.9000091552734
 31
0.0
  2
$TAG140020
 70
     1
  0
ATTRIB
  5
1F3
  8
0
 10
143.802740574646
 20
139.4000091552734
 30
0.0
 40
2.449996948242188
  1
+
 41
0.9
  7
CADDY_VECTORFONT1P
 72
     2
 11
145.1499938964844
 21
139.4000091552734
 31
0.0
  2
$TAG140050
 70
     1
  0
SEQEND
  5
1E7
  8
0
  0
INSERT
  5
1F8
  8
0
 66
     1
  2
BLK25
 10
0.0
 20
0.0
 30
1.0
  0
ATTRIB
  5
1FC
  8
0
 10
138.402711807251
 20
100.8999938964844
 30
0.0
 40
2.450004577636719
  1
-2U2
 41
0.9
  7
CADDY_VECTORFONT1P
 72
     2
 11
145.1500244140625
 21
100.8999938964844
 31
0.0
  2
$TAG160010
 70
     1
  0
ATTRIB
  5
1FF
  8
0
 10
149.1500091552734
 20
100.8999938964844
 30
0.0
 40
2.450004577636719
  1
3
 41
0.9
  7
CADDY_VECTORFONT1P
  2
$TAG160400
 70
     1
  0
ATTRIB
  5
201
  8
0
 10
149.1500091552734
 20
97.39999389648438
 30
0.0
 40
2.450004577636719
  1
4
 41
0.9
  7
CADDY_VECTORFONT1P
  2
$TAG160410
 70
     1
  0
ATTRIB
  5
203
  8
0
 10
145.1500091552734
 20
96.59999084472656
 30
0.0
 40
2.450004577636719
  1

 41
0.9
  7
CADDY_VECTORFONT1P
 72
     2
 11
145.1500091552734
 21
96.59999084472656
 31
0.0
  2
$TAG160030
 70
     1
  0
ATTRIB
  5
205
  8
0
 10
127.1175007217407
 20
91.59999084472656
 30
0.0
 40
2.450004577636719
  1
STBXTS2130
 41
0.9
  7
CADDY_VECTORFONT1P
 72
     2
 11
145.1500244140625
 21
91.59999084472656
 31
0.0
  2
$TAG160040
 70
     1
  0
ATTRIB
  5
207
  8
0
 10
143.802751638031
 20
107.8999938964844
 30
0.0
 40
2.450004577636719
  1
=
 41
0.9
  7
CADDY_VECTORFONT1P
 72
     2
 11
145.1500091552734
 21
107.8999938964844
 31
0.0
  2
$TAG140020
 70
     1
  0
ATTRIB
  5
209
  8
0
 10
143.8027363792419
 20
104.3999938964844
 30
0.0
 40
2.450004577636719
  1
+
 41
0.9
  7
CADDY_VECTORFONT1P
 72
     2
 11
145.1499938964844
 21
104.3999938964844
 31
0.0
  2
$TAG140050
 70
     1
  0
SEQEND
  5
1FD
  8
0
  0
INSERT
  5
20E
  8
0
 66
     1
  2
BLK26
 10
0.0
 20
0.0
 30
1.0
  0
ATTRIB
  5
212
  8
0
 10
138.402711807251
 20
95.89999389648438
 30
0.0
 40
2.450004577636719
  1
-2U2
 41
0.9
  7
CADDY_VECTORFONT1P
 72
     2
 11
145.1500244140625
 21
95.89999389648438
 31
0.0
  2
$TAG160010
 70
     1
  0
ATTRIB
  5
215
  8
0
 10
149.1499938964844
 20
95.89999389648438
 30
0.0
 40
2.450004577636719
  1
4
 41
0.9
  7
CADDY_VECTORFONT1P
  2
$TAG160400
 70
     1
  0
ATTRIB
  5
217
  8
0
 10
149.1499938964844
 20
92.39999389648438
 30
0.0
 40
2.450004577636719
  1
5
 41
0.9
  7
CADDY_VECTORFONT1P
  2
$TAG160410
 70
     1
  0
ATTRIB
  5
219
  8
0
 10
145.1500091552734
 20
91.59999084472656
 30
0.0
 40
2.450004577636719
  1

 41
0.9
  7
CADDY_VECTORFONT1P
 72
     2
 11
145.1500091552734
 21
91.59999084472656
 31
0.0
  2
$TAG160030
 70
     1
  0
ATTRIB
  5
21B
  8
0
 10
145.1500091552734
 20
86.59999084472656
 30
0.0
 40
2.450004577636719
  1

 41
0.9
  7
CADDY_VECTORFONT1P
 72
     2
 11
145.1500091552734
 21
86.59999084472656
 31
0.0
  2
$TAG160040
 70
     1
  0
ATTRIB
  5
21D
  8
0
 10
143.802751638031
 20
102.8999938964844
 30
0.0
 40
2.450004577636719
  1
=
 41
0.9
  7
CADDY_VECTORFONT1P
 72
     2
 11
145.1500091552734
 21
102.8999938964844
 31
0.0
  2
$TAG140020
 70
     1
  0
ATTRIB
  5
21F
  8
0
 10
143.8027363792419
 20
99.39999389648438
 30
0.0
 40
2.450004577636719
  1
+
 41
0.9
  7
CADDY_VECTORFONT1P
 72
     2
 11
145.1499938964844
 21
99.39999389648438
 31
0.0
  2
$TAG140050
 70
     1
  0
SEQEND
  5
213
  8
0
  0
LINE
  5
221
  8
0
  6
CADDY_SOLID
 10
35.0
 20
85.0
 30
0.0
 11
60.0
 21
85.0
 31
0.0
  0
TEXT
  5
222
  8
0
 10
47.5
 20
85.5
 30
0.0
 40
1.75
  1

 41
0.9
  7
CADDY_VECTORFONT1P
 72
     1
 11
47.5
 21
85.5
 31
0.0
  0
LINE
  5
223
  8
0
  6
CADDY_SOLID
 10
60.0
 20
210.0
 30
0.0
 11
45.0
 21
210.0
 31
0.0
  0
LINE
  5
224
  8
0
  6
CADDY_SOLID
 10
45.0
 20
210.0
 30
0.0
 11
45.0
 21
235.0
 31
0.0
  0
INSERT
  5
228
  8
0
 66
     1
  2
BLK27
 10
0.0
 20
0.0
 30
1.0
  0
ATTRIB
  5
22C
  8
0
 10
44.87859572143554
 20
235.9000091552734
 30
0.0
 40
2.449996948242188
  1
Ethernet
 41
0.9
  7
CADDY_VECTORFONT1P
 72
     2
 11
57.5
 21
235.9000091552734
 31
0.0
  2
$TAG160010
 70
     0
  0
ATTRIB
  5
22F
  8
0
 10
64.64999389648438
 20
233.8499908447266
 30
0.0
 40
2.449996948242188
  1

 41
0.9
  7
CADDY_VECTORFONT1P
  2
$TAG160500
 70
     0
  0
ATTRIB
  5
231
  8
0
 10
56.15274286346435
 20
242.9000091552734
 30
0.0
 40
2.449996948242188
  1
=
 41
0.9
  7
CADDY_VECTORFONT1P
 72
     2
 11
57.49999618530273
 21
242.9000091552734
 31
0.0
  2
$TAG140020
 70
     1
  0
ATTRIB
  5
233
  8
0
 10
56.15274667816162
 20
239.4000091552734
 30
0.0
 40
2.449996948242188
  1
+
 41
0.9
  7
CADDY_VECTORFONT1P
 72
     2
 11
57.5
 21
239.4000091552734
 31
0.0
  2
$TAG140050
 70
     1
  0
SEQEND
  5
22D
  8
0
  0
TEXT
  5
235
  8
0
 10
175.6000061035156
 20
35.59999847412109
 30
0.0
 40
2.100002288818359
  1
W1804 langbufferskub
 41
0.9
  7
CADDY_VECTORFONT1P
  0
TEXT
  5
236
  8
0
 10
215.6000061035156
 20
35.59999847412109
 30
0.0
 40
2.100002288818359
  1
W2004 Bufferplads
 41
0.9
  7
CADDY_VECTORFONT1P
  0
TEXT
  5
237
  8
0
 10
260.6000061035156
 20
35.59999847412109
 30
0.0
 40
2.100002288818359
  1
W2404 Kasseløfter
 41
0.9
  7
CADDY_VECTORFONT1P
  0
TEXT
  5
238
  8
0
 10
305.6000061035156
 20
35.59999847412109
 30
0.0
 40
2.100002288818359
  1

 41
0.9
  7
CADDY_VECTORFONT1P
  0
TEXT
  5
239
  8
0
 10
130.6000061035156
 20
35.59999847412109
 30
0.0
 40
2.100002288818359
  1
FORSYNINGSKORT I/O
 41
0.9
  7
CADDY_VECTORFONT1P
  0
TEXT
  5
23A
  8
0
 10
60.59999847412109
 20
35.59999847412109
 30
0.0
 40
2.100002288818359
  1
ETHERNETKORT
 41
0.9
  7
CADDY_VECTORFONT1P
  0
LINE
  5
23B
  8
0
  6
CADDY_SOLID
 10
45.0
 20
235.0
 30
0.0
 11
60.0
 21
235.0
 31
0.0
  0
LINE
  5
23C
  8
0
  6
CADDY_SOLID
 10
35.0
 20
85.0
 30
0.0
 11
35.0
 21
255.0
 31
0.0
  0
TEXT
  5
23D
  8
0
 10
34.5
 20
170.0
 30
0.0
 40
1.75
  1

 50
90.0
 41
0.9
  7
CADDY_VECTORFONT1P
 72
     1
 11
34.5
 21
170.0
 31
0.0
  0
CIRCLE
  5
23E
  8
0
 10
35.0
 20
255.0
 30
0.0
 40
0.8
  0
CIRCLE
  5
23F
  8
0
 10
35.0
 20
255.0
 30
0.0
 40
0.6
  0
CIRCLE
  5
240
  8
0
 10
35.0
 20
255.0
 30
0.0
 40
0.4
  0
LINE
  5
241
  8
0
  6
CADDY_SOLID
 10
40.0
 20
90.0
 30
0.0
 11
40.0
 21
260.0
 31
0.0
  0
TEXT
  5
242
  8
0
 10
39.5
 20
172.5500875
 30
0.0
 40
1.75
  1
0708
 50
90.0
 41
0.9
  7
CADDY_VECTORFONT1P
 72
     1
 11
39.5
 21
175.0
 31
0.0
  0
CIRCLE
  5
243
  8
0
 10
40.0
 20
260.0
 30
0.0
 40
0.8
  0
CIRCLE
  5
244
  8
0
 10
40.0
 20
260.0
 30
0.0
 40
0.6
  0
CIRCLE
  5
245
  8
0
 10
40.0
 20
260.0
 30
0.0
 40
0.4
  0
INSERT
  5
249
  8
0
 66
     1
  2
BLK28
 10
0.0
 20
0.0
 30
1.0
  0
ATTRIB
  5
24C
  8
0
 10
29.26500701904297
 20
55.89999771118164
 30
0.0
 40
2.450000762939453
  1
PE
 41
0.9
  7
CADDY_VECTORFONT1P
  2
$TAG160010
 70
     0
  0
ATTRIB
  5
24F
  8
0
 10
17.73997162780762
 20
53.95000076293945
 30
0.0
 40
2.450000762939453
  1
12.9
 41
0.9
  7
CADDY_VECTORFONT1P
 72
     2
 11
22.78501319885254
 21
53.95000076293945
 31
0.0
  2
$TAG160500
 70
     0
  0
ATTRIB
  5
251
  8
0
 10
29.26500701904297
 20
62.89999771118164
 30
0.0
 40
2.450000762939453
  1
=
 41
0.9
  7
CADDY_VECTORFONT1P
  2
$TAG140020
 70
     1
  0
ATTRIB
  5
253
  8
0
 10
29.26500701904297
 20
59.39999771118164
 30
0.0
 40
2.450000762939453
  1
+
 41
0.9
  7
CADDY_VECTORFONT1P
  2
$TAG140050
 70
     1
  0
SEQEND
  5
24D
  8
0
  0
INSERT
  5
258
  8
0
 66
     1
  2
BLK29
 10
0.0
 20
0.0
 30
1.0
  0
ATTRIB
  5
25B
  8
0
 10
384.4775331497192
 20
55.89999771118164
 30
0.0
 40
2.450000762939453
  1
PE
 41
0.9
  7
CADDY_VECTORFONT1P
 72
     2
 11
387.7850341796875
 21
55.89999771118164
 31
0.0
  2
$TAG160010
 70
     0
  0
ATTRIB
  5
25E
  8
0
 10
393.3650207519531
 20
53.95000076293945
 30
0.0
 40
2.450000762939453
  1
20.0
 41
0.9
  7
CADDY_VECTORFONT1P
  2
$TAG160500
 70
     0
  0
ATTRIB
  5
260
  8
0
 10
386.4377482425689
 20
62.89999771118164
 30
0.0
 40
2.450000762939453
  1
=
 41
0.9
  7
CADDY_VECTORFONT1P
 72
     2
 11
387.7850036621094
 21
62.89999771118164
 31
0.0
  2
$TAG140020
 70
     1
  0
ATTRIB
  5
262
  8
0
 10
386.4377482425689
 20
59.39999771118164
 30
0.0
 40
2.450000762939453
  1
+
 41
0.9
  7
CADDY_VECTORFONT1P
 72
     2
 11
387.7850036621094
 21
59.39999771118164
 31
0.0
  2
$TAG140050
 70
     1
  0
SEQEND
  5
25C
  8
0
  0
LINE
  5
264
  8
0
  6
CADDY_SOLID
 10
27.5
 20
55.0
 30
0.0
 11
150.0
 21
55.0
 31
0.0
  0
LINE
  5
265
  8
0
  6
CADDY_SOLID
 10
150.0
 20
55.0
 30
0.0
 11
392.5
 21
55.0
 31
0.0
  0
LINE
  5
266
  8
0
  6
CADDY_SOLID
 10
150.0
 20
55.0
 30
0.0
 11
150.0
 21
65.0
 31
0.0
  0
CIRCLE
  5
267
  8
0
 10
150.0
 20
55.0
 30
0.0
 40
0.8
  0
CIRCLE
  5
268
  8
0
 10
150.0
 20
55.0
 30
0.0
 40
0.6
  0
CIRCLE
  5
269
  8
0
 10
150.0
 20
55.0
 30
0.0
 40
0.4
  0
CIRCLE
  5
26A
  8
0
 10
115.0
 20
260.0
 30
0.0
 40
0.8
  0
CIRCLE
  5
26B
  8
0
 10
115.0
 20
260.0
 30
0.0
 40
0.6
  0
CIRCLE
  5
26C
  8
0
 10
115.0
 20
260.0
 30
0.0
 40
0.4
  0
LINE
  5
26D
  8
0
  6
CADDY_SOLID
 10
115.0
 20
140.0
 30
0.0
 11
145.0
 21
140.0
 31
0.0
  0
TEXT
  5
26E
  8
0
 10
127.5500875
 20
140.5
 30
0.0
 40
1.75
  1
0708
 41
0.9
  7
CADDY_VECTORFONT1P
 72
     1
 11
130.0
 21
140.5
 31
0.0
  0
LINE
  5
26F
  8
0
  6
CADDY_SOLID
 10
115.0
 20
140.0
 30
0.0
 11
115.0
 21
260.0
 31
0.0
  0
TEXT
  5
270
  8
0
 10
114.5
 20
197.5500875
 30
0.0
 40
1.75
  1
0708
 50
90.0
 41
0.9
  7
CADDY_VECTORFONT1P
 72
     1
 11
114.5
 21
200.0
 31
0.0
  0
CIRCLE
  5
271
  8
0
 10
120.0
 20
255.0
 30
0.0
 40
0.8
  0
CIRCLE
  5
272
  8
0
 10
120.0
 20
255.0
 30
0.0
 40
0.6
  0
CIRCLE
  5
273
  8
0
 10
120.0
 20
255.0
 30
0.0
 40
0.4
  0
LINE
  5
274
  8
0
  6
CADDY_SOLID
 10
120.0
 20
135.0
 30
0.0
 11
145.0
 21
135.0
 31
0.0
  0
TEXT
  5
275
  8
0
 10
132.5
 20
135.5
 30
0.0
 40
1.75
  1

 41
0.9
  7
CADDY_VECTORFONT1P
 72
     1
 11
132.5
 21
135.5
 31
0.0
  0
LINE
  5
276
  8
0
  6
CADDY_SOLID
 10
120.0
 20
95.0
 30
0.0
 11
120.0
 21
135.0
 31
0.0
  0
TEXT
  5
277
  8
0
 10
119.5
 20
115.0
 30
0.0
 40
1.75
  1

 50
90.0
 41
0.9
  7
CADDY_VECTORFONT1P
 72
     1
 11
119.5
 21
115.0
 31
0.0
  0
LINE
  5
278
  8
0
  6
CADDY_SOLID
 10
120.0
 20
135.0
 30
0.0
 11
120.0
 21
255.0
 31
0.0
  0
TEXT
  5
279
  8
0
 10
119.5
 20
195.0
 30
0.0
 40
1.75
  1

 50
90.0
 41
0.9
  7
CADDY_VECTORFONT1P
 72
     1
 11
119.5
 21
195.0
 31
0.0
  0
CIRCLE
  5
27A
  8
0
 10
120.0
 20
135.0
 30
0.0
 40
0.8
  0
CIRCLE
  5
27B
  8
0
 10
120.0
 20
135.0
 30
0.0
 40
0.6
  0
CIRCLE
  5
27C
  8
0
 10
120.0
 20
135.0
 30
0.0
 40
0.4
  0
LINE
  5
27D
  8
0
  6
CADDY_SOLID
 10
120.0
 20
95.0
 30
0.0
 11
145.0
 21
95.0
 31
0.0
  0
TEXT
  5
27E
  8
0
 10
132.5
 20
95.5
 30
0.0
 40
1.75
  1

 41
0.9
  7
CADDY_VECTORFONT1P
 72
     1
 11
132.5
 21
95.5
 31
0.0
  0
TEXT
  5
27F
  8
0
 10
330.2749938964844
 20
147.0500030517578
 30
0.0
 40
2.449996948242188
  1

 41
0.9
  7
CADDY_VECTORFONT1P
 72
     2
 11
330.2749938964844
 21
147.0500030517578
 31
0.0
  0
TEXT
  5
280
  8
0
 10
328.7000122070312
 20
147.0500030517578
 30
0.0
 40
2.449996948242188
  1

 41
0.9
  7
CADDY_VECTORFONT1P
 72
     2
 11
328.7000122070312
 21
147.0500030517578
 31
0.0
  0
TEXT
  5
281
  8
0
 10
328.7000122070312
 20
143.5500030517578
 30
0.0
 40
2.449996948242188
  1

 41
0.9
  7
CADDY_VECTORFONT1P
 72
     2
 11
328.7000122070312
 21
143.5500030517578
 31
0.0
  0
INSERT
  5
285
  8
0
 66
     1
  2
BLK30
 10
0.0
 20
0.0
 30
1.0
  0
ATTRIB
  5
2D0
  8
0
 10
166.8000030517578
 20
147.1999969482422
 30
0.0
 40
2.449996948242188
  1

 41
0.9
  7
CADDY_VECTORFONT1P
 72
     2
 11
166.8000030517578
 21
147.1999969482422
 31
0.0
  2
$TAG160030
 70
     0
  0
ATTRIB
  5
2D3
  8
0
 10
165.4527497299194
 20
157.6999969482422
 30
0.0
 40
2.449996948242188
  1
=
 41
0.9
  7
CADDY_VECTORFONT1P
 72
     2
 11
166.8000030517578
 21
157.6999969482422
 31
0.0
  2
$TAG140020
 70
     1
  0
ATTRIB
  5
2DD
  8
0
 10
166.8000030517578
 20
147.1999969482422
 30
0.0
 40
2.449996948242188
  1

 41
0.9
  7
CADDY_VECTORFONT1P
 72
     2
 11
166.8000030517578
 21
147.1999969482422
 31
0.0
  2
$TAG160030
 70
     0
  0
ATTRIB
  5
2DF
  8
0
 10
154.8908281448364
 20
143.6999969482422
 30
0.0
 40
2.449996948242188
  1
EHC3020
 41
0.9
  7
CADDY_VECTORFONT1P
 72
     2
 11
166.8000183105469
 21
143.6999969482422
 31
0.0
  2
$TAG160040
 70
     1
  0
ATTRIB
  5
2E1
  8
0
 10
165.4527497299194
 20
157.6999969482422
 30
0.0
 40
2.449996948242188
  1
=
 41
0.9
  7
CADDY_VECTORFONT1P
 72
     2
 11
166.8000030517578
 21
157.6999969482422
 31
0.0
  2
$TAG140020
 70
     1
  0
ATTRIB
  5
30B
  8
0
 10
184.3430032745361
 20
230.5500030517578
 30
0.0
 40
2.449996948242188
  1
D1304
 41
0.9
  7
CADDY_VECTORFONT1P
 72
     2
 11
192.5500030517578
 21
230.5500030517578
 31
0.0
  2
$TAG160010
 70
     0
  0
SEQEND
  5
2D1
  8
0
  0
LINE
  5
30D
  8
0
  6
CADDY_SOLID
 10
187.5
 20
127.0
 30
0.0
 11
187.5
 21
125.0
 31
0.0
  0
LINE
  5
30E
  8
0
  6
CADDY_SOLID
 10
187.5
 20
119.5
 30
0.0
 11
187.5
 21
121.0
 31
0.0
  0
LINE
  5
30F
  8
0
  6
CADDY_SOLID
 10
187.5
 20
119.5
 30
0.0
 11
204.0
 21
119.5
 31
0.0
  0
LINE
  5
310
  8
0
  6
CADDY_SOLID
 10
204.0
 20
119.5
 30
0.0
 11
204.0
 21
125.0
 31
0.0
  0
TEXT
  5
311
  8
0
 10
195.7225652587891
 20
120.0
 30
0.0
 40
1.75
  1
1306
 41
0.9
  7
CADDY_VECTORFONT1P
 72
     1
 11
198.0000152587891
 21
120.0
 31
0.0
  0
INSERT
  5
315
  8
0
 66
     1
  2
BLK40
 10
0.0
 20
0.0
 30
1.0
  0
ATTRIB
  5
360
  8
0
 10
206.8000030517578
 20
147.1999969482422
 30
0.0
 40
2.449996948242188
  1

 41
0.9
  7
CADDY_VECTORFONT1P
 72
     2
 11
206.8000030517578
 21
147.1999969482422
 31
0.0
  2
$TAG160030
 70
     0
  0
ATTRIB
  5
363
  8
0
 10
205.4527497299194
 20
157.6999969482422
 30
0.0
 40
2.449996948242188
  1
=
 41
0.9
  7
CADDY_VECTORFONT1P
 72
     2
 11
206.8000030517578
 21
157.6999969482422
 31
0.0
  2
$TAG140020
 70
     1
  0
ATTRIB
  5
36D
  8
0
 10
206.8000030517578
 20
147.1999969482422
 30
0.0
 40
2.449996948242188
  1

 41
0.9
  7
CADDY_VECTORFONT1P
 72
     2
 11
206.8000030517578
 21
147.1999969482422
 31
0.0
  2
$TAG160030
 70
     0
  0
ATTRIB
  5
36F
  8
0
 10
194.8908281448364
 20
143.6999969482422
 30
0.0
 40
2.449996948242188
  1
EHC3020
 41
0.9
  7
CADDY_VECTORFONT1P
 72
     2
 11
206.8000183105469
 21
143.6999969482422
 31
0.0
  2
$TAG160040
 70
     1
  0
ATTRIB
  5
371
  8
0
 10
205.4527497299194
 20
157.6999969482422
 30
0.0
 40
2.449996948242188
  1
=
 41
0.9
  7
CADDY_VECTORFONT1P
 72
     2
 11
206.8000030517578
 21
157.6999969482422
 31
0.0
  2
$TAG140020
 70
     1
  0
ATTRIB
  5
39B
  8
0
 10
224.5635029998779
 20
230.5500030517578
 30
0.0
 40
2.449996948242188
  1
D1305
 41
0.9
  7
CADDY_VECTORFONT1P
 72
     2
 11
232.5500030517578
 21
230.5500030517578
 31
0.0
  2
$TAG160010
 70
     0
  0
SEQEND
  5
361
  8
0
  0
INSERT
  5
3A0
  8
0
 66
     1
  2
BLK50
 10
0.0
 20
0.0
 30
1.0
  0
ATTRIB
  5
3EB
  8
0
 10
246.8000030517578
 20
147.1999969482422
 30
0.0
 40
2.449996948242188
  1

 41
0.9
  7
CADDY_VECTORFONT1P
 72
     2
 11
246.8000030517578
 21
147.1999969482422
 31
0.0
  2
$TAG160030
 70
     0
  0
ATTRIB
  5
3EE
  8
0
 10
245.4527497299194
 20
157.6999969482422
 30
0.0
 40
2.449996948242188
  1
=
 41
0.9
  7
CADDY_VECTORFONT1P
 72
     2
 11
246.8000030517578
 21
157.6999969482422
 31
0.0
  2
$TAG140020
 70
     1
  0
ATTRIB
  5
3F8
  8
0
 10
246.8000030517578
 20
147.1999969482422
 30
0.0
 40
2.449996948242188
  1

 41
0.9
  7
CADDY_VECTORFONT1P
 72
     2
 11
246.8000030517578
 21
147.1999969482422
 31
0.0
  2
$TAG160030
 70
     0
  0
ATTRIB
  5
3FA
  8
0
 10
234.8908281448364
 20
143.6999969482422
 30
0.0
 40
2.449996948242188
  1
EHC3020
 41
0.9
  7
CADDY_VECTORFONT1P
 72
     2
 11
246.8000183105469
 21
143.6999969482422
 31
0.0
  2
$TAG160040
 70
     1
  0
ATTRIB
  5
3FC
  8
0
 10
245.4527497299194
 20
157.6999969482422
 30
0.0
 40
2.449996948242188
  1
=
 41
0.9
  7
CADDY_VECTORFONT1P
 72
     2
 11
246.8000030517578
 21
157.6999969482422
 31
0.0
  2
$TAG140020
 70
     1
  0
ATTRIB
  5
426
  8
0
 10
264.5634877410889
 20
230.5500030517578
 30
0.0
 40
2.449996948242188
  1
D1306
 41
0.9
  7
CADDY_VECTORFONT1P
 72
     2
 11
272.5499877929688
 21
230.5500030517578
 31
0.0
  2
$TAG160010
 70
     0
  0
SEQEND
  5
3EC
  8
0
  0
TEXT
  5
428
  8
0
 10
290.2749938964844
 20
147.0500030517578
 30
0.0
 40
2.449996948242188
  1

 41
0.9
  7
CADDY_VECTORFONT1P
 72
     2
 11
290.2749938964844
 21
147.0500030517578
 31
0.0
  0
LINE
  5
429
  8
0
  6
CADDY_SOLID
 10
227.5
 20
127.0
 30
0.0
 11
227.5
 21
125.0
 31
0.0
  0
LINE
  5
42A
  8
0
  6
CADDY_SOLID
 10
227.5
 20
119.5
 30
0.0
 11
227.5
 21
121.0
 31
0.0
  0
LINE
  5
42B
  8
0
  6
CADDY_SOLID
 10
227.5
 20
119.5
 30
0.0
 11
244.0
 21
119.5
 31
0.0
  0
LINE
  5
42C
  8
0
  6
CADDY_SOLID
 10
244.0
 20
119.5
 30
0.0
 11
244.0
 21
125.0
 31
0.0
  0
LINE
  5
42D
  8
0
  6
CADDY_SOLID
 10
227.5
 20
125.0
 30
0.0
 11
244.0
 21
125.0
 31
0.0
  0
LINE
  5
42E
  8
0
  6
CADDY_SOLID
 10
244.0
 20
125.0
 30
0.0
 11
244.5
 21
125.0
 31
0.0
  0
LINE
  5
42F
  8
0
  6
CADDY_SOLID
 10
267.5
 20
127.0
 30
0.0
 11
267.5
 21
125.0
 31
0.0
  0
LINE
  5
430
  8
0
  6
CADDY_SOLID
 10
267.5
 20
119.5
 30
0.0
 11
267.5
 21
121.0
 31
0.0
  0
LINE
  5
431
  8
0
  6
CADDY_SOLID
 10
267.5
 20
119.5
 30
0.0
 11
284.0
 21
119.5
 31
0.0
  0
LINE
  5
432
  8
0
  6
CADDY_SOLID
 10
284.0
 20
119.5
 30
0.0
 11
284.0
 21
125.0
 31
0.0
  0
LINE
  5
433
  8
0
  6
CADDY_SOLID
 10
267.5
 20
125.0
 30
0.0
 11
284.0
 21
125.0
 31
0.0
  0
LINE
  5
434
  8
0
  6
CADDY_SOLID
 10
284.0
 20
125.0
 30
0.0
 11
284.5
 21
125.0
 31
0.0
  0
TEXT
  5
435
  8
0
 10
235.7202027587891
 20
120.0
 30
0.0
 40
1.75
  1
1307
 41
0.9
  7
CADDY_VECTORFONT1P
 72
     1
 11
238.0000152587891
 21
120.0
 31
0.0
  0
TEXT
  5
436
  8
0
 10
276.22255
 20
120.0
 30
0.0
 40
1.75
  1
1308
 41
0.9
  7
CADDY_VECTORFONT1P
 72
     1
 11
278.5
 21
120.0
 31
0.0
  0
LINE
  5
437
  8
0
  6
CADDY_SOLID
 10
187.5
 20
125.0
 30
0.0
 11
204.0
 21
125.0
 31
0.0
  0
LINE
  5
438
  8
0
  6
CADDY_SOLID
 10
204.0
 20
125.0
 30
0.0
 11
204.5
 21
125.0
 31
0.0
  0
TEXT
  5
439
  8
0
 10
295.2749938964844
 20
142.0500030517578
 30
0.0
 40
2.449996948242188
  1

 41
0.9
  7
CADDY_VECTORFONT1P
 72
     2
 11
295.2749938964844
 21
142.0500030517578
 31
0.0
  0
INSERT
  5
43D
  8
0
 66
     1
  2
BLK60
 10
0.0
 20
0.0
 30
1.0
  0
ATTRIB
  5
43E
  8
0
 10
290.2749938964844
 20
147.0500030517578
 30
0.0
 40
2.449996948242188
  1

 41
0.9
  7
CADDY_VECTORFONT1P
 72
     2
 11
290.2749938964844
 21
147.0500030517578
 31
0.0
  2
$TAG160030
 70
     0
  0
ATTRIB
  5
441
  8
0
 10
303.8068727493286
 20
230.6999969482422
 30
0.0
 40
2.449996948242188
  1
D1307
 41
0.9
  7
CADDY_VECTORFONT1P
 72
     2
 11
311.7999877929688
 21
230.6999969482422
 31
0.0
  2
$TAG160010
 70
     0
  0
ATTRIB
  5
503
  8
0
 10
296.8000183105469
 20
147.1999969482422
 30
0.0
 40
2.449996948242188
  1

 41
0.9
  7
CADDY_VECTORFONT1P
 72
     2
 11
296.8000183105469
 21
147.1999969482422
 31
0.0
  2
$TAG175100
 70
     0
  0
ATTRIB
  5
505
  8
0
 10
296.8000183105469
 20
143.6999969482422
 30
0.0
 40
2.449996948242188
  1

 41
0.9
  7
CADDY_VECTORFONT1P
 72
     2
 11
296.8000183105469
 21
143.6999969482422
 31
0.0
  2
$TAG175110
 70
     0
  0
ATTRIB
  5
507
  8
0
 10
296.8000183105469
 20
140.6999969482422
 30
0.0
 40
2.449996948242188
  1

 41
0.9
  7
CADDY_VECTORFONT1P
 72
     2
 11
296.8000183105469
 21
140.6999969482422
 31
0.0
  2
$TAG175120
 70
     0
  0
ATTRIB
  5
509
  8
0
 10
295.4284795013428
 20
137.1999969482422
 30
0.0
 40
2.449996948242188
  1
?
 41
0.9
  7
CADDY_VECTORFONT1P
 72
     2
 11
296.7999877929688
 21
137.1999969482422
 31
0.0
  2
$TAG160500
 70
     0
  0
ATTRIB
  5
50B
  8
0
 10
295.4527344711304
 20
157.6999969482422
 30
0.0
 40
2.449996948242188
  1
=
 41
0.9
  7
CADDY_VECTORFONT1P
 72
     2
 11
296.7999877929688
 21
157.6999969482422
 31
0.0
  2
$TAG140020
 70
     1
  0
ATTRIB
  5
50D
  8
0
 10
295.4527649887085
 20
154.1999969482422
 30
0.0
 40
2.449996948242188
  1
+
 41
0.9
  7
CADDY_VECTORFONT1P
 72
     2
 11
296.8000183105469
 21
154.1999969482422
 31
0.0
  2
$TAG140050
 70
     1
  0
ATTRIB
  5
50F
  8
0
 10
288.7000122070312
 20
147.0500030517578
 30
0.0
 40
2.449996948242188
  1

 41
0.9
  7
CADDY_VECTORFONT1P
 72
     2
 11
288.7000122070312
 21
147.0500030517578
 31
0.0
  2
$TAG160030
 70
     0
  0
ATTRIB
  5
511
  8
0
 10
288.7000122070312
 20
143.5500030517578
 30
0.0
 40
2.449996948242188
  1

 41
0.9
  7
CADDY_VECTORFONT1P
 72
     2
 11
288.7000122070312
 21
143.5500030517578
 31
0.0
  2
$TAG160040
 70
     1
  0
SEQEND
  5
43F
  8
0
  0
INSERT
  5
516
  8
0
 66
     1
  2
BLK82
 10
0.0
 20
0.0
 30
1.0
  0
ATTRIB
  5
517
  8
0
 10
330.2749938964844
 20
147.0500030517578
 30
0.0
 40
2.449996948242188
  1

 41
0.9
  7
CADDY_VECTORFONT1P
 72
     2
 11
330.2749938964844
 21
147.0500030517578
 31
0.0
  2
$TAG160030
 70
     0
  0
ATTRIB
  5
51A
  8
0
 10
343.8134877410889
 20
230.6999969482422
 30
0.0
 40
2.449996948242188
  1
D1308
 41
0.9
  7
CADDY_VECTORFONT1P
 72
     2
 11
351.7999877929688
 21
230.6999969482422
 31
0.0
  2
$TAG160010
 70
     0
  0
ATTRIB
  5
5DC
  8
0
 10
336.8000183105469
 20
147.1999969482422
 30
0.0
 40
2.449996948242188
  1

 41
0.9
  7
CADDY_VECTORFONT1P
 72
     2
 11
336.8000183105469
 21
147.1999969482422
 31
0.0
  2
$TAG175100
 70
     0
  0
ATTRIB
  5
5DE
  8
0
 10
336.8000183105469
 20
143.6999969482422
 30
0.0
 40
2.449996948242188
  1

 41
0.9
  7
CADDY_VECTORFONT1P
 72
     2
 11
336.8000183105469
 21
143.6999969482422
 31
0.0
  2
$TAG175110
 70
     0
  0
ATTRIB
  5
5E0
  8
0
 10
336.8000183105469
 20
140.6999969482422
 30
0.0
 40
2.449996948242188
  1

 41
0.9
  7
CADDY_VECTORFONT1P
 72
     2
 11
336.8000183105469
 21
140.6999969482422
 31
0.0
  2
$TAG175120
 70
     0
  0
ATTRIB
  5
5E2
  8
0
 10
335.4284795013428
 20
137.1999969482422
 30
0.0
 40
2.449996948242188
  1
?
 41
0.9
  7
CADDY_VECTORFONT1P
 72
     2
 11
336.7999877929688
 21
137.1999969482422
 31
0.0
  2
$TAG160500
 70
     0
  0
ATTRIB
  5
5E4
  8
0
 10
335.4527344711304
 20
157.6999969482422
 30
0.0
 40
2.449996948242188
  1
=
 41
0.9
  7
CADDY_VECTORFONT1P
 72
     2
 11
336.7999877929688
 21
157.6999969482422
 31
0.0
  2
$TAG140020
 70
     1
  0
ATTRIB
  5
5E6
  8
0
 10
335.4527649887085
 20
154.1999969482422
 30
0.0
 40
2.449996948242188
  1
+
 41
0.9
  7
CADDY_VECTORFONT1P
 72
     2
 11
336.8000183105469
 21
154.1999969482422
 31
0.0
  2
$TAG140050
 70
     1
  0
ATTRIB
  5
5E8
  8
0
 10
328.7000122070312
 20
147.0500030517578
 30
0.0
 40
2.449996948242188
  1

 41
0.9
  7
CADDY_VECTORFONT1P
 72
     2
 11
328.7000122070312
 21
147.0500030517578
 31
0.0
  2
$TAG160030
 70
     0
  0
ATTRIB
  5
5EA
  8
0
 10
328.7000122070312
 20
143.5500030517578
 30
0.0
 40
2.449996948242188
  1

 41
0.9
  7
CADDY_VECTORFONT1P
 72
     2
 11
328.7000122070312
 21
143.5500030517578
 31
0.0
  2
$TAG160040
 70
     1
  0
SEQEND
  5
518
  8
0
  0
INSERT
  5
5EF
  8
0
 66
     1
  2
BLK104
 10
0.0
 20
0.0
 30
1.0
  0
ATTRIB
  5
5F2
  8
0
 10
29.26499938964844
 20
250.8999938964844
 30
0.0
 40
2.449996948242188
  1
0710
 41
0.9
  7
CADDY_VECTORFONT1P
  2
$TAG160010
 70
     0
  0
ATTRIB
  5
5F5
  8
0
 10
22.78499794006348
 20
248.9499969482422
 30
0.0
 40
2.449996948242188
  1

 41
0.9
  7
CADDY_VECTORFONT1P
 72
     2
 11
22.78499794006348
 21
248.9499969482422
 31
0.0
  2
$TAG160500
 70
     0
  0
ATTRIB
  5
5F7
  8
0
 10
29.26499938964844
 20
257.9000244140625
 30
0.0
 40
2.449981689453125
  1
=
 41
0.9
  7
CADDY_VECTORFONT1P
  2
$TAG140020
 70
     1
  0
ATTRIB
  5
5F9
  8
0
 10
29.26499938964844
 20
254.3999938964844
 30
0.0
 40
2.45001220703125
  1
+
 41
0.9
  7
CADDY_VECTORFONT1P
  2
$TAG140050
 70
     1
  0
SEQEND
  5
5F3
  8
0
  0
INSERT
  5
5FE
  8
0
 66
     1
  2
BLK105
 10
0.0
 20
0.0
 30
1.0
  0
ATTRIB
  5
601
  8
0
 10
381.7587766860962
 20
250.8999938964844
 30
0.0
 40
2.449996948242188
  1
0710
 41
0.9
  7
CADDY_VECTORFONT1P
 72
     2
 11
387.7850341796875
 21
250.8999938964844
 31
0.0
  2
$TAG160010
 70
     0
  0
ATTRIB
  5
604
  8
0
 10
393.3650207519531
 20
248.9499969482422
 30
0.0
 40
2.449996948242188
  1

 41
0.9
  7
CADDY_VECTORFONT1P
  2
$TAG160500
 70
     0
  0
ATTRIB
  5
606
  8
0
 10
386.4377587310791
 20
257.9000244140625
 30
0.0
 40
2.449981689453125
  1
=
 41
0.9
  7
CADDY_VECTORFONT1P
 72
     2
 11
387.7850036621094
 21
257.9000244140625
 31
0.0
  2
$TAG140020
 70
     1
  0
ATTRIB
  5
608
  8
0
 10
386.4377419494629
 20
254.3999938964844
 30
0.0
 40
2.45001220703125
  1
+
 41
0.9
  7
CADDY_VECTORFONT1P
 72
     2
 11
387.7850036621094
 21
254.3999938964844
 31
0.0
  2
$TAG140050
 70
     1
  0
SEQEND
  5
602
  8
0
  0
LINE
  5
60A
  8
0
  6
CADDY_SOLID
 10
27.5
 20
250.0
 30
0.0
 11
110.0
 21
250.0
 31
0.0
  0
LINE
  5
60B
  8
0
  6
CADDY_SOLID
 10
110.0
 20
250.0
 30
0.0
 11
392.5
 21
250.0
 31
0.0
  0
LINE
  5
60C
  8
0
  6
CADDY_SOLID
 10
110.0
 20
250.0
 30
0.0
 11
110.0
 21
100.0
 31
0.0
  0
TEXT
  5
60D
  8
0
 10
109.5
 20
172.7257
 30
0.0
 40
1.75
  1
0710
 50
90.0
 41
0.9
  7
CADDY_VECTORFONT1P
 72
     1
 11
109.5
 21
175.0
 31
0.0
  0
CIRCLE
  5
60E
  8
0
 10
110.0
 20
250.0
 30
0.0
 40
0.8
  0
CIRCLE
  5
60F
  8
0
 10
110.0
 20
250.0
 30
0.0
 40
0.6
  0
CIRCLE
  5
610
  8
0
 10
110.0
 20
250.0
 30
0.0
 40
0.4
  0
LINE
  5
611
  8
0
  6
CADDY_SOLID
 10
110.0
 20
100.0
 30
0.0
 11
145.0
 21
100.0
 31
0.0
  0
TEXT
  5
612
  8
0
 10
125.2257
 20
100.5
 30
0.0
 40
1.75
  1
0710
 41
0.9
  7
CADDY_VECTORFONT1P
 72
     1
 11
127.5
 21
100.5
 31
0.0
  0
TEXT
  5
613
  8
0
 10
305.7000122070312
 20
70.69999694824219
 30
0.0
 40
2.450004577636719
  1
Digital in
 41
0.9
  7
CADDY_VECTORFONT1P
  0
TEXT
  5
614
  8
0
 10
345.7000122070312
 20
70.69999694824219
 30
0.0
 40
2.450004577636719
  1
Digital in
 41
0.9
  7
CADDY_VECTORFONT1P
  0
TEXT
  5
615
  8
0
 10
180.6999969482422
 20
70.69999694824219
 30
0.0
 40
2.450004577636719
  1
Hurtigtæller
 41
0.9
  7
CADDY_VECTORFONT1P
  0
TEXT
  5
616
  8
0
 10
220.6999969482422
 20
70.69999694824219
 30
0.0
 40
2.450004577636719
  1
Hurtigtæller
 41
0.9
  7
CADDY_VECTORFONT1P
  0
TEXT
  5
617
  8
0
 10
255.6999969482422
 20
70.69999694824219
 30
0.0
 40
2.450004577636719
  1
Hurtigtæller
 41
0.9
  7
CADDY_VECTORFONT1P
  0
ENDSEC
  0
EOF
