  0
SECTION
  2
HEADER
  9
$ACADVER
  1
AC1006
  9
$DWGCODEPAGE
  3
ansi_1252
  9
$INSBASE
 10
0.0
 20
0.0
 30
0.0
  9
$EXTMIN
 10
0.0
 20
0.0
  9
$EXTMAX
 10
420.0
 20
297.0
  9
$LIMMIN
 10
0.0
 20
0.0
  9
$LIMMAX
 10
420.0
 20
297.0
  9
$ORTHOMODE
 70
     0
  9
$REGENMODE
 70
     1
  9
$FILLMODE
 70
     1
  9
$QTEXTMODE
 70
     0
  9
$MIRRTEXT
 70
     1
  9
$DRAGMODE
 70
     2
  9
$LTSCALE
 40
1.0
  9
$OSMODE
 70
    37
  9
$ATTMODE
 70
     1
  9
$TEXTSIZE
 40
2.5
  9
$TRACEWID
 40
1.0
  9
$TEXTSTYLE
  7
STANDARD
  9
$CLAYER
  8
0
  9
$CELTYPE
  6
BYLAYER
  9
$CECOLOR
 62
   256
  9
$DIMSCALE
 40
1.0
  9
$DIMASZ
 40
2.5
  9
$DIMEXO
 40
0.625
  9
$DIMDLI
 40
3.75
  9
$DIMRND
 40
0.0
  9
$DIMDLE
 40
0.0
  9
$DIMEXE
 40
1.25
  9
$DIMTP
 40
0.0
  9
$DIMTM
 40
0.0
  9
$DIMTXT
 40
2.5
  9
$DIMCEN
 40
2.5
  9
$DIMTSZ
 40
0.0
  9
$DIMTOL
 70
     0
  9
$DIMLIM
 70
     0
  9
$DIMTIH
 70
     0
  9
$DIMTOH
 70
     0
  9
$DIMSE1
 70
     0
  9
$DIMSE2
 70
     0
  9
$DIMTAD
 70
     1
  9
$DIMZIN
 70
     8
  9
$DIMBLK
  1

  9
$DIMASO
 70
     1
  9
$DIMSHO
 70
     1
  9
$DIMPOST
  1

  9
$DIMAPOST
  1

  9
$DIMALT
 70
     0
  9
$DIMALTD
 70
     3
  9
$DIMALTF
 40
0.03937007874016
  9
$DIMLFAC
 40
1.0
  9
$DIMTOFL
 70
     1
  9
$DIMTVP
 40
0.0
  9
$DIMTIX
 70
     0
  9
$DIMSOXD
 70
     0
  9
$DIMSAH
 70
     0
  9
$DIMBLK1
  1

  9
$DIMBLK2
  1

  9
$LUNITS
 70
     2
  9
$LUPREC
 70
     4
  9
$SKETCHINC
 40
1.0
  9
$FILLETRAD
 40
10.0
  9
$AUNITS
 70
     0
  9
$AUPREC
 70
     0
  9
$MENU
  1
.
  9
$ELEVATION
 40
0.0
  9
$THICKNESS
 40
0.0
  9
$LIMCHECK
 70
     0
  9
$CHAMFERA
 40
10.0
  9
$CHAMFERB
 40
10.0
  9
$SKPOLY
 70
     0
  9
$TDCREATE
 40
2451930.666666667
  9
$TDUPDATE
 40
2460738.521411366
  9
$TDINDWG
 40
0.0000000116
  9
$TDUSRTIMER
 40
0.0000000116
  9
$USRTIMER
 70
     1
  9
$ANGBASE
 50
0.0
  9
$ANGDIR
 70
     0
  9
$PDMODE
 70
     0
  9
$PDSIZE
 40
0.0
  9
$PLINEWID
 40
0.0
  9
$COORDS
 70
     1
  9
$SPLFRAME
 70
     0
  9
$SPLINETYPE
 70
     6
  9
$SPLINESEGS
 70
     8
  9
$ATTDIA
 70
     0
  9
$ATTREQ
 70
     1
  9
$HANDLING
 70
     1
  9
$HANDSEED
  5
228
  9
$SURFTAB1
 70
     6
  9
$SURFTAB2
 70
     6
  9
$SURFTYPE
 70
     6
  9
$SURFU
 70
     6
  9
$SURFV
 70
     6
  9
$UCSNAME
  2

  9
$UCSORG
 10
0.0
 20
0.0
 30
0.0
  9
$UCSXDIR
 10
1.0
 20
0.0
 30
0.0
  9
$UCSYDIR
 10
0.0
 20
1.0
 30
0.0
  9
$USERI1
 70
     0
  9
$USERI2
 70
     0
  9
$USERI3
 70
     0
  9
$USERI4
 70
     0
  9
$USERI5
 70
     0
  9
$USERR1
 40
0.0
  9
$USERR2
 40
0.0
  9
$USERR3
 40
0.0
  9
$USERR4
 40
0.0
  9
$USERR5
 40
0.0
  9
$WORLDVIEW
 70
     1
  0
ENDSEC
  0
SECTION
  2
TABLES
  0
TABLE
  2
VPORT
 70
     1
  0
VPORT
  2
*ACTIVE
 70
     0
 10
0.0
 20
0.0
 11
1.0
 21
1.0
 12
210.0
 22
142.5
 13
0.0
 23
0.0
 14
10.0
 24
10.0
 15
10.0
 25
10.0
 16
0.0
 26
0.0
 36
1.0
 17
0.0
 27
0.0
 37
0.0
 40
270.3
 41
1.972972972850329
 42
50.0
 43
0.0
 44
0.0
 50
0.0
 51
0.0
 71
     0
 72
   100
 73
     1
 74
     3
 75
     0
 76
     0
 77
     0
 78
     0
  0
ENDTAB
  0
TABLE
  2
LTYPE
 70
     6
  0
LTYPE
  2
CONTINUOUS
 70
     0
  3
Solid line
 72
    65
 73
     0
 40
0.0
  0
LTYPE
  2
CADDY_SOLID
 70
     0
  3
____________
 72
    65
 73
     0
 40
0.0
  0
LTYPE
  2
CADDY_DOT
 70
     0
  3
. . . . . . 
 72
    65
 73
     2
 40
2.0
 49
0.5
 49
-1.5
  0
LTYPE
  2
CADDY_DASH
 70
     0
  3
_ _ _ _ _ _ 
 72
    65
 73
     2
 40
3.5
 49
2.0
 49
-1.5
  0
LTYPE
  2
CADDY_DASHDOT
 70
     0
  3
_ . _ . _ . 
 72
    65
 73
     4
 40
5.5
 49
0.5
 49
-1.5
 49
2.0
 49
-1.5
  0
LTYPE
  2
CADDY_DASHDOTDOT
 70
     0
  3
_ . . _ . . 
 72
    65
 73
     6
 40
7.5
 49
2.0
 49
-1.5
 49
0.5
 49
-1.5
 49
0.5
 49
-1.5
  0
ENDTAB
  0
TABLE
  2
LAYER
 70
     1
  0
LAYER
  2
0
 70
     0
 62
     7
  6
CONTINUOUS
  0
ENDTAB
  0
TABLE
  2
STYLE
 70
    17
  0
STYLE
  2
STANDARD
 70
     0
 40
0.0
 41
1.0
 50
0.0
 71
     0
 42
2.5
  3
txt
  4

  0
STYLE
  2
CADDY_VECTORFONT1P
 70
     0
 40
0.0
 41
0.9
 50
0.0
 71
     0
 42
0.2
  3
isocp___.ttf
  4

  0
STYLE
  2
CADDY_VECTORFONT1N
 70
     0
 40
0.0
 41
1.100000023841858
 50
0.0
 71
     0
 42
0.2
  3

  4

  0
STYLE
  2
CADDY_VECTORFONT2P
 70
     0
 40
0.0
 41
1.35
 50
0.0
 71
     0
 42
0.2
  3

  4

  0
STYLE
  2
CADDY_VECTORFONT2N
 70
     0
 40
0.0
 41
1.549999952316284
 50
0.0
 71
     0
 42
0.2
  3

  4

  0
STYLE
  2
CADDY_VECTORFONT3P
 70
     0
 40
0.0
 41
1.3
 50
0.0
 71
     0
 42
0.2
  3

  4

  0
STYLE
  2
CADDY_VECTORFONT3N
 70
     0
 40
0.0
 41
1.5
 50
0.0
 71
     0
 42
0.2
  3

  4

  0
STYLE
  2
CADDY_VECTORFONT4P
 70
     0
 40
0.0
 41
1.1
 50
0.0
 71
     0
 42
0.2
  3

  4

  0
STYLE
  2
CADDY_VECTORFONT4N
 70
     0
 40
0.0
 41
1.299999952316284
 50
0.0
 71
     0
 42
0.2
  3

  4

  0
STYLE
  2
CADDY_VECTORFONT5P
 70
     0
 40
0.0
 41
1.0
 50
0.0
 71
     0
 42
0.2
  3

  4

  0
STYLE
  2
CADDY_VECTORFONT5N
 70
     0
 40
0.0
 41
1.200000047683716
 50
0.0
 71
     0
 42
0.2
  3

  4

  0
STYLE
  2
CADDY_VECTORFONT6P
 70
     0
 40
0.0
 41
0.9
 50
0.0
 71
     0
 42
0.2
  3

  4

  0
STYLE
  2
CADDY_VECTORFONT6N
 70
     0
 40
0.0
 41
1.100000023841858
 50
0.0
 71
     0
 42
0.2
  3

  4

  0
STYLE
  2
CADDY_VECTORFONT7P
 70
     0
 40
0.0
 41
1.3
 50
0.0
 71
     0
 42
0.2
  3

  4

  0
STYLE
  2
CADDY_VECTORFONT7N
 70
     0
 40
0.0
 41
1.5
 50
0.0
 71
     0
 42
0.2
  3

  4

  0
STYLE
  2
CADDY_VECTORFONT8P
 70
     0
 40
0.0
 41
1.5
 50
0.0
 71
     0
 42
0.2
  3

  4

  0
STYLE
  2
CADDY_VECTORFONT8N
 70
     0
 40
0.0
 41
1.700000047683716
 50
0.0
 71
     0
 42
0.2
  3

  4

  0
ENDTAB
  0
TABLE
  2
VIEW
 70
     0
  0
ENDTAB
  0
TABLE
  2
UCS
 70
     0
  0
ENDTAB
  0
ENDSEC
  0
SECTION
  2
BLOCKS
  0
BLOCK
  8
0
  2
BLK1
 70
     0
 10
0.0
 20
0.0
 30
0.0
  0
LINE
  5
44
  8
0
  6
CADDY_SOLID
 10
10.0
 20
10.0
 30
0.0
 11
10.0
 21
275.0
 31
0.0
  0
LINE
  5
45
  8
0
  6
CADDY_SOLID
 10
10.0
 20
275.0
 30
0.0
 11
410.0
 21
275.0
 31
0.0
  0
LINE
  5
46
  8
0
  6
CADDY_SOLID
 10
410.0
 20
275.0
 30
0.0
 11
410.0
 21
10.0
 31
0.0
  0
LINE
  5
47
  8
0
  6
CADDY_SOLID
 10
50.0
 20
270.0
 30
0.0
 11
50.0
 21
275.0
 31
0.0
  0
TEXT
  5
48
  8
0
 10
29.14336390228272
 20
271.2000122070312
 30
0.0
 40
2.449981689453125
  1
0
 41
0.9
  7
CADDY_VECTORFONT1P
 72
     1
 11
30.0
 21
271.2000122070312
 31
0.0
  0
TEXT
  5
49
  8
0
 10
30.0
 20
265.2000122070312
 30
0.0
 40
2.449981689453125
  1

 41
0.9
  7
CADDY_VECTORFONT1P
 72
     1
 11
30.0
 21
265.2000122070312
 31
0.0
  0
LINE
  5
4A
  8
0
  6
CADDY_SOLID
 10
90.0
 20
270.0
 30
0.0
 11
90.0
 21
275.0
 31
0.0
  0
LINE
  5
4B
  8
0
  6
CADDY_SOLID
 10
130.0
 20
270.0
 30
0.0
 11
130.0
 21
275.0
 31
0.0
  0
LINE
  5
4C
  8
0
  6
CADDY_SOLID
 10
170.0
 20
270.0
 30
0.0
 11
170.0
 21
275.0
 31
0.0
  0
LINE
  5
4D
  8
0
  6
CADDY_SOLID
 10
210.0
 20
270.0
 30
0.0
 11
210.0
 21
275.0
 31
0.0
  0
LINE
  5
4E
  8
0
  6
CADDY_SOLID
 10
250.0
 20
270.0
 30
0.0
 11
250.0
 21
275.0
 31
0.0
  0
LINE
  5
4F
  8
0
  6
CADDY_SOLID
 10
290.0
 20
270.0
 30
0.0
 11
290.0
 21
275.0
 31
0.0
  0
LINE
  5
50
  8
0
  6
CADDY_SOLID
 10
330.0
 20
270.0
 30
0.0
 11
330.0
 21
275.0
 31
0.0
  0
LINE
  5
51
  8
0
  6
CADDY_SOLID
 10
370.0
 20
270.0
 30
0.0
 11
370.0
 21
275.0
 31
0.0
  0
TEXT
  5
52
  8
0
 10
69.38369947662353
 20
271.2000122070312
 30
0.0
 40
2.449981689453125
  1
1
 41
0.9
  7
CADDY_VECTORFONT1P
 72
     1
 11
69.99999237060547
 21
271.2000122070312
 31
0.0
  0
TEXT
  5
53
  8
0
 10
109.1610037704468
 20
271.2000122070312
 30
0.0
 40
2.449981689453125
  1
2
 41
0.9
  7
CADDY_VECTORFONT1P
 72
     1
 11
110.0
 21
271.2000122070312
 31
0.0
  0
TEXT
  5
54
  8
0
 10
149.1312364929199
 20
271.2000122070312
 30
0.0
 40
2.449981689453125
  1
3
 41
0.9
  7
CADDY_VECTORFONT1P
 72
     1
 11
150.0
 21
271.2000122070312
 31
0.0
  0
TEXT
  5
55
  8
0
 10
189.0364222015381
 20
271.2000122070312
 30
0.0
 40
2.449981689453125
  1
4
 41
0.9
  7
CADDY_VECTORFONT1P
 72
     1
 11
190.0
 21
271.2000122070312
 31
0.0
  0
TEXT
  5
56
  8
0
 10
229.1433639022827
 20
271.2000122070312
 30
0.0
 40
2.449981689453125
  1
5
 41
0.9
  7
CADDY_VECTORFONT1P
 72
     1
 11
230.0
 21
271.2000122070312
 31
0.0
  0
TEXT
  5
57
  8
0
 10
269.1433639022827
 20
271.2000122070312
 30
0.0
 40
2.449981689453125
  1
6
 41
0.9
  7
CADDY_VECTORFONT1P
 72
     1
 11
270.0
 21
271.2000122070312
 31
0.0
  0
TEXT
  5
58
  8
0
 10
309.140056427002
 20
271.2000122070312
 30
0.0
 40
2.449981689453125
  1
7
 41
0.9
  7
CADDY_VECTORFONT1P
 72
     1
 11
310.0
 21
271.2000122070312
 31
0.0
  0
TEXT
  5
59
  8
0
 10
349.1433639022827
 20
271.2000122070312
 30
0.0
 40
2.449981689453125
  1
8
 41
0.9
  7
CADDY_VECTORFONT1P
 72
     1
 11
350.0
 21
271.2000122070312
 31
0.0
  0
TEXT
  5
5A
  8
0
 10
389.1433639022827
 20
271.2000122070312
 30
0.0
 40
2.449981689453125
  1
9
 41
0.9
  7
CADDY_VECTORFONT1P
 72
     1
 11
390.0
 21
271.2000122070312
 31
0.0
  0
TEXT
  5
5B
  8
0
 10
70.0
 20
265.2000122070312
 30
0.0
 40
2.449981689453125
  1

 41
0.9
  7
CADDY_VECTORFONT1P
 72
     1
 11
70.0
 21
265.2000122070312
 31
0.0
  0
TEXT
  5
5C
  8
0
 10
110.0
 20
265.2000122070312
 30
0.0
 40
2.449981689453125
  1

 41
0.9
  7
CADDY_VECTORFONT1P
 72
     1
 11
110.0
 21
265.2000122070312
 31
0.0
  0
TEXT
  5
5D
  8
0
 10
150.0
 20
265.2000122070312
 30
0.0
 40
2.449981689453125
  1

 41
0.9
  7
CADDY_VECTORFONT1P
 72
     1
 11
150.0
 21
265.2000122070312
 31
0.0
  0
TEXT
  5
5E
  8
0
 10
190.0
 20
265.2000122070312
 30
0.0
 40
2.449981689453125
  1

 41
0.9
  7
CADDY_VECTORFONT1P
 72
     1
 11
190.0
 21
265.2000122070312
 31
0.0
  0
TEXT
  5
5F
  8
0
 10
230.0
 20
265.2000122070312
 30
0.0
 40
2.449981689453125
  1

 41
0.9
  7
CADDY_VECTORFONT1P
 72
     1
 11
230.0
 21
265.2000122070312
 31
0.0
  0
TEXT
  5
60
  8
0
 10
270.0000305175781
 20
265.2000122070312
 30
0.0
 40
2.449981689453125
  1

 41
0.9
  7
CADDY_VECTORFONT1P
 72
     1
 11
270.0000305175781
 21
265.2000122070312
 31
0.0
  0
TEXT
  5
61
  8
0
 10
310.0000305175781
 20
265.2000122070312
 30
0.0
 40
2.449981689453125
  1

 41
0.9
  7
CADDY_VECTORFONT1P
 72
     1
 11
310.0000305175781
 21
265.2000122070312
 31
0.0
  0
TEXT
  5
62
  8
0
 10
350.0000305175781
 20
265.2000122070312
 30
0.0
 40
2.449981689453125
  1

 41
0.9
  7
CADDY_VECTORFONT1P
 72
     1
 11
350.0000305175781
 21
265.2000122070312
 31
0.0
  0
TEXT
  5
63
  8
0
 10
390.0000305175781
 20
265.2000122070312
 30
0.0
 40
2.449981689453125
  1

 41
0.9
  7
CADDY_VECTORFONT1P
 72
     1
 11
390.0000305175781
 21
265.2000122070312
 31
0.0
  0
LINE
  5
64
  8
0
  6
CADDY_SOLID
 10
15.0
 20
270.0
 30
0.0
 11
15.0
 21
30.0
 31
0.0
  0
LINE
  5
65
  8
0
  6
CADDY_SOLID
 10
405.0
 20
270.0
 30
0.0
 11
405.0
 21
30.0
 31
0.0
  0
LINE
  5
66
  8
0
  6
CADDY_SOLID
 10
15.0
 20
230.0
 30
0.0
 11
10.0
 21
230.0
 31
0.0
  0
LINE
  5
67
  8
0
  6
CADDY_SOLID
 10
15.0
 20
190.0
 30
0.0
 11
10.0
 21
190.0
 31
0.0
  0
LINE
  5
68
  8
0
  6
CADDY_SOLID
 10
15.0
 20
150.0
 30
0.0
 11
10.0
 21
150.0
 31
0.0
  0
LINE
  5
69
  8
0
  6
CADDY_SOLID
 10
10.0
 20
110.0
 30
0.0
 11
15.0
 21
110.0
 31
0.0
  0
LINE
  5
6A
  8
0
  6
CADDY_SOLID
 10
10.0
 20
70.0
 30
0.0
 11
15.0
 21
70.0
 31
0.0
  0
TEXT
  5
6B
  8
0
 10
11.39750137329102
 20
248.6999969482422
 30
0.0
 40
2.449996948242188
  1
A
 41
0.9
  7
CADDY_VECTORFONT1P
 72
     1
 11
12.5
 21
248.6999969482422
 31
0.0
  0
TEXT
  5
6C
  8
0
 10
11.52098121948242
 20
208.6999969482422
 30
0.0
 40
2.449996948242188
  1
B
 41
0.9
  7
CADDY_VECTORFONT1P
 72
     1
 11
12.5
 21
208.6999969482422
 31
0.0
  0
TEXT
  5
6D
  8
0
 10
11.65548605194092
 20
168.6999969482422
 30
0.0
 40
2.449996948242188
  1
C
 41
0.9
  7
CADDY_VECTORFONT1P
 72
     1
 11
12.5
 21
168.6999969482422
 31
0.0
  0
TEXT
  5
6E
  8
0
 10
11.52098121948242
 20
128.6999969482422
 30
0.0
 40
2.449996948242188
  1
D
 41
0.9
  7
CADDY_VECTORFONT1P
 72
     1
 11
12.5
 21
128.6999969482422
 31
0.0
  0
TEXT
  5
6F
  8
0
 10
11.65548342208862
 20
88.69999694824219
 30
0.0
 40
2.450004577636719
  1
E
 41
0.9
  7
CADDY_VECTORFONT1P
 72
     1
 11
12.5
 21
88.69999694824219
 31
0.0
  0
TEXT
  5
70
  8
0
 10
11.65548473701477
 20
48.70000076293945
 30
0.0
 40
2.450000762939453
  1
F
 41
0.9
  7
CADDY_VECTORFONT1P
 72
     1
 11
12.5
 21
48.70000076293945
 31
0.0
  0
LINE
  5
71
  8
0
  6
CADDY_SOLID
 10
410.0
 20
230.0
 30
0.0
 11
405.0
 21
230.0
 31
0.0
  0
LINE
  5
72
  8
0
  6
CADDY_SOLID
 10
410.0
 20
190.0
 30
0.0
 11
405.0
 21
190.0
 31
0.0
  0
LINE
  5
73
  8
0
  6
CADDY_SOLID
 10
410.0
 20
150.0
 30
0.0
 11
405.0
 21
150.0
 31
0.0
  0
LINE
  5
74
  8
0
  6
CADDY_SOLID
 10
405.0
 20
110.0
 30
0.0
 11
410.0
 21
110.0
 31
0.0
  0
LINE
  5
75
  8
0
  6
CADDY_SOLID
 10
405.0
 20
70.0
 30
0.0
 11
410.0
 21
70.0
 31
0.0
  0
TEXT
  5
76
  8
0
 10
406.397501373291
 20
248.6999969482422
 30
0.0
 40
2.449996948242188
  1
A
 41
0.9
  7
CADDY_VECTORFONT1P
 72
     1
 11
407.5
 21
248.6999969482422
 31
0.0
  0
TEXT
  5
77
  8
0
 10
406.5209812194824
 20
208.6999969482422
 30
0.0
 40
2.449996948242188
  1
B
 41
0.9
  7
CADDY_VECTORFONT1P
 72
     1
 11
407.5
 21
208.6999969482422
 31
0.0
  0
TEXT
  5
78
  8
0
 10
406.6554860519409
 20
168.6999969482422
 30
0.0
 40
2.449996948242188
  1
C
 41
0.9
  7
CADDY_VECTORFONT1P
 72
     1
 11
407.5
 21
168.6999969482422
 31
0.0
  0
TEXT
  5
79
  8
0
 10
406.5209812194824
 20
128.6999969482422
 30
0.0
 40
2.449996948242188
  1
D
 41
0.9
  7
CADDY_VECTORFONT1P
 72
     1
 11
407.5
 21
128.6999969482422
 31
0.0
  0
TEXT
  5
7A
  8
0
 10
406.6554834220887
 20
88.69999694824219
 30
0.0
 40
2.450004577636719
  1
E
 41
0.9
  7
CADDY_VECTORFONT1P
 72
     1
 11
407.5
 21
88.69999694824219
 31
0.0
  0
TEXT
  5
7B
  8
0
 10
406.6554847370148
 20
48.70000076293945
 30
0.0
 40
2.450000762939453
  1
F
 41
0.9
  7
CADDY_VECTORFONT1P
 72
     1
 11
407.5
 21
48.70000076293945
 31
0.0
  0
LINE
  5
7C
  8
0
  6
CADDY_SOLID
 10
15.0
 20
270.0
 30
0.0
 11
405.0
 21
270.0
 31
0.0
  0
LINE
  5
7D
  8
0
  6
CADDY_SOLID
 10
410.0
 20
10.0
 30
0.0
 11
10.0
 21
10.0
 31
0.0
  0
LINE
  5
7E
  8
0
  6
CADDY_SOLID
 10
10.0
 20
30.0
 30
0.0
 11
410.0
 21
30.0
 31
0.0
  0
LINE
  5
7F
  8
0
  6
CADDY_SOLID
 10
260.0
 20
20.0
 30
0.0
 11
410.0
 21
20.0
 31
0.0
  0
LINE
  5
80
  8
0
  6
CADDY_SOLID
 10
10.0
 20
30.0
 30
0.0
 11
15.0
 21
30.0
 31
0.0
  0
LINE
  5
81
  8
0
  6
CADDY_SOLID
 10
405.0
 20
30.0
 30
0.0
 11
410.0
 21
30.0
 31
0.0
  0
LINE
  5
82
  8
0
  6
CADDY_SOLID
 10
65.0
 20
30.0
 30
0.0
 11
65.0
 21
10.0
 31
0.0
  0
TEXT
  5
83
  8
0
 10
69.19999694824219
 20
14.19999980926514
 30
0.0
 40
2.449999809265137
  1
Kassepakker
 41
0.9
  7
CADDY_VECTORFONT1P
  0
TEXT
  5
84
  8
0
 10
69.19999694824219
 20
23.20000076293945
 30
0.0
 40
2.44999885559082
  1
MPN - GUIDED BY VISION
 41
0.9
  7
CADDY_VECTORFONT1P
  0
TEXT
  5
85
  8
0
 10
69.19999694824219
 20
18.70000076293945
 30
0.0
 40
2.44999885559082
  1

 41
0.9
  7
CADDY_VECTORFONT1P
  0
LINE
  5
86
  8
0
  6
CADDY_SOLID
 10
160.0
 20
30.0
 30
0.0
 11
160.0
 21
10.0
 31
0.0
  0
TEXT
  5
87
  8
0
 10
164.1999969482422
 20
23.20000076293945
 30
0.0
 40
2.44999885559082
  1

 41
0.9
  7
CADDY_VECTORFONT1P
  0
TEXT
  5
88
  8
0
 10
164.1999969482422
 20
18.70000076293945
 30
0.0
 40
2.44999885559082
  1

 41
0.9
  7
CADDY_VECTORFONT1P
  0
TEXT
  5
89
  8
0
 10
164.1999969482422
 20
14.19999980926514
 30
0.0
 40
2.449999809265137
  1

 41
0.9
  7
CADDY_VECTORFONT1P
  0
LINE
  5
8A
  8
0
  6
CADDY_SOLID
 10
260.0
 20
30.0
 30
0.0
 11
260.0
 21
10.0
 31
0.0
  0
TEXT
  5
8B
  8
0
 10
261.2000122070312
 20
26.20000076293945
 30
0.0
 40
2.44999885559082
  1
Projekt:
 41
0.9
  7
CADDY_VECTORFONT1P
  0
TEXT
  5
8C
  8
0
 10
261.2000122070312
 20
16.20000076293945
 30
0.0
 40
2.44999885559082
  1
Dato:
 41
0.9
  7
CADDY_VECTORFONT1P
  0
LINE
  5
8D
  8
0
  6
CADDY_SOLID
 10
290.0
 20
30.0
 30
0.0
 11
290.0
 21
10.0
 31
0.0
  0
TEXT
  5
8E
  8
0
 10
291.2000122070312
 20
16.20000076293945
 30
0.0
 40
2.44999885559082
  1
Funkt.:
 41
0.9
  7
CADDY_VECTORFONT1P
  0
TEXT
  5
8F
  8
0
 10
291.2000122070312
 20
26.20000076293945
 30
0.0
 40
2.44999885559082
  1
Tegn. nr.:
 41
0.9
  7
CADDY_VECTORFONT1P
  0
TEXT
  5
90
  8
0
 10
276.1062470369339
 20
21.70000076293945
 30
0.0
 40
2.44999885559082
  1
CP6000
 41
0.9
  7
CADDY_VECTORFONT1P
 72
     2
 11
286.2999572753906
 21
21.70000076293945
 31
0.0
  0
TEXT
  5
91
  8
0
 10
269.7359985649109
 20
11.69999980926514
 30
0.0
 40
2.449999809265137
  1
14-02-2006
 41
0.9
  7
CADDY_VECTORFONT1P
 72
     2
 11
286.2999572753906
 21
11.69999980926514
 31
0.0
  0
LINE
  5
92
  8
0
  6
CADDY_SOLID
 10
320.0
 20
20.0
 30
0.0
 11
320.0
 21
10.0
 31
0.0
  0
TEXT
  5
93
  8
0
 10
321.2000122070312
 20
16.20000076293945
 30
0.0
 40
2.44999885559082
  1
Plac.:
 41
0.9
  7
CADDY_VECTORFONT1P
  0
TEXT
  5
94
  8
0
 10
314.9527328978539
 20
11.69999980926514
 30
0.0
 40
2.449999809265137
  1
=
 41
0.9
  7
CADDY_VECTORFONT1P
 72
     2
 11
316.2999877929688
 21
11.69999980926514
 31
0.0
  0
LINE
  5
95
  8
0
  6
CADDY_SOLID
 10
382.5
 20
20.0
 30
0.0
 11
382.5
 21
30.0
 31
0.0
  0
LINE
  5
96
  8
0
  6
CADDY_SOLID
 10
382.5
 20
10.0
 30
0.0
 11
382.5
 21
20.0
 31
0.0
  0
TEXT
  5
97
  8
0
 10
349.952763415432
 20
11.69999980926514
 30
0.0
 40
2.449999809265137
  1
+
 41
0.9
  7
CADDY_VECTORFONT1P
 72
     2
 11
351.3000183105469
 21
11.69999980926514
 31
0.0
  0
LINE
  5
98
  8
0
  6
CADDY_SOLID
 10
355.0
 20
10.0
 30
0.0
 11
355.0
 21
20.0
 31
0.0
  0
LINE
  5
99
  8
0
  6
CADDY_SOLID
 10
355.0
 20
20.0
 30
0.0
 11
355.0
 21
30.0
 31
0.0
  0
TEXT
  5
9A
  8
0
 10
356.2000122070312
 20
26.20000076293945
 30
0.0
 40
2.44999885559082
  1
Rev.:
 41
0.9
  7
CADDY_VECTORFONT1P
  0
LINE
  5
9B
  8
0
  6
CADDY_SOLID
 10
337.5
 20
20.0
 30
0.0
 11
337.5
 21
30.0
 31
0.0
  0
TEXT
  5
9C
  8
0
 10
333.5
 20
21.75
 30
0.0
 40
3.5
  1

 41
0.9
  7
CADDY_VECTORFONT1P
 72
     2
 11
333.5
 21
21.75
 31
0.0
  0
TEXT
  5
9D
  8
0
 10
338.7000122070312
 20
26.20000076293945
 30
0.0
 40
2.44999885559082
  1
Init.:
 41
0.9
  7
CADDY_VECTORFONT1P
  0
TEXT
  5
9E
  8
0
 10
351.3000183105469
 20
21.70000076293945
 30
0.0
 40
2.44999885559082
  1

 41
0.9
  7
CADDY_VECTORFONT1P
 72
     2
 11
351.3000183105469
 21
21.70000076293945
 31
0.0
  0
TEXT
  5
9F
  8
0
 10
378.8000183105469
 20
21.70000076293945
 30
0.0
 40
2.44999885559082
  1

 41
0.9
  7
CADDY_VECTORFONT1P
 72
     2
 11
378.8000183105469
 21
21.70000076293945
 31
0.0
  0
TEXT
  5
A0
  8
0
 10
401.2907
 20
21.75
 30
0.0
 40
3.5
  1
3
 41
0.9
  7
CADDY_VECTORFONT1P
 72
     2
 11
403.25
 21
21.75
 31
0.0
  0
TEXT
  5
A1
  8
0
 10
405.25
 20
21.75
 30
0.0
 40
3.5
  1
C
 41
0.9
  7
CADDY_VECTORFONT1P
  0
TEXT
  5
A2
  8
0
 10
383.7000122070312
 20
26.20000076293945
 30
0.0
 40
2.44999885559082
  1
Blad:
 41
0.9
  7
CADDY_VECTORFONT1P
  0
TEXT
  5
A3
  8
0
 10
404.7080084344864
 20
11.69999980926514
 30
0.0
 40
2.449999809265137
  1
4
 41
0.9
  7
CADDY_VECTORFONT1P
 72
     2
 11
406.3000183105469
 21
11.69999980926514
 31
0.0
  0
TEXT
  5
A4
  8
0
 10
383.7000122070312
 20
16.20000076293945
 30
0.0
 40
2.44999885559082
  1
Næste blad:
 41
0.9
  7
CADDY_VECTORFONT1P
  0
TEXT
  5
A5
  8
0
 10
356.2000122070312
 20
16.20000076293945
 30
0.0
 40
2.44999885559082
  1
Antal blade:
 41
0.9
  7
CADDY_VECTORFONT1P
  0
TEXT
  5
A6
  8
0
 10
375.7284535496712
 20
11.69999980926514
 30
0.0
 40
2.449999809265137
  1
32
 41
0.9
  7
CADDY_VECTORFONT1P
 72
     2
 11
378.8000183105469
 21
11.69999980926514
 31
0.0
  0
ENDBLK
  8
0
  0
BLOCK
  8
0
  2
BLK2
 70
     2
 10
0.0
 20
0.0
 30
0.0
  0
ATTDEF
  5
B4
  8
0
 10
27.75704108886719
 20
172.2499847412109
 30
0.0
 40
2.449996948242188
  1

 41
0.9
  7
CADDY_VECTORFONT1P
 72
     2
 11
45.29999923706055
 21
172.2499847412109
 31
0.0
  3
Type
  2
$TAG160040
 70
     0
  0
CIRCLE
  5
B5
  8
0
  6
CADDY_SOLID
 10
55.79998779296875
 20
179.0
 30
0.0
 40
2.200000762939453
  0
LINE
  5
B6
  8
0
  6
CADDY_SOLID
 10
53.10000610351562
 20
176.4000244140625
 30
0.0
 11
58.0
 21
181.2999877929688
 31
0.0
  0
ATTDEF
  5
B8
  8
0
 10
38.09351627502441
 20
184.5500030517578
 30
0.0
 40
2.449996948242188
  1
X19
 41
0.9
  7
CADDY_VECTORFONT1P
 72
     2
 11
54.90000534057617
 21
184.5500030517578
 31
0.0
  3
Produkt (-)
  2
$TAG160010
 70
     0
  0
ATTDEF
  5
BA
  8
0
 10
32.35705100708008
 20
183.0500030517578
 30
0.0
 40
2.449996948242188
  1
+
 41
0.9
  7
CADDY_VECTORFONT1P
 72
     2
 11
49.90000915527344
 21
183.0500030517578
 31
0.0
  3
Placering (+)
  2
$TAG140050
 70
     1
  0
ATTDEF
  5
BC
  8
0
 10
35.7487554763794
 20
172.7499847412109
 30
0.0
 40
2.449996948242188
  1
9
 41
0.9
  7
CADDY_VECTORFONT1P
 72
     2
 11
52.79999923706055
 21
172.7499847412109
 31
0.0
  3
Sorteringsindeks
  2
$TAG160410
 70
     1
  0
ATTDEF
  5
BE
  8
0
 10
27.75704108886719
 20
171.8249969482422
 30
0.0
 40
2.449996948242188
  1

 41
0.9
  7
CADDY_VECTORFONT1P
 72
     2
 11
45.29999923706055
 21
171.8249969482422
 31
0.0
  3
Type
  2
$TAG160040
 70
     0
  0
ATTDEF
  5
C0
  8
0
 10
36.91704856567383
 20
169.1125030517578
 30
0.0
 40
2.449996948242188
  1
1
 41
0.9
  7
CADDY_VECTORFONT1P
 72
     2
 11
54.46000671386719
 21
169.1125030517578
 31
0.0
  3
Klemmenummer
  2
$TAG160400
 70
     0
  0
ATTDEF
  5
C2
  8
0
 10
37.35704719238282
 20
191.5500030517578
 30
0.0
 40
2.449996948242188
  1
=
 41
0.9
  7
CADDY_VECTORFONT1P
 72
     2
 11
54.90000534057617
 21
191.5500030517578
 31
0.0
  3
Funktion (=)
  2
$TAG140020
 70
     1
  0
ENDBLK
  8
0
  0
BLOCK
  8
0
  2
BLK3
 70
     2
 10
0.0
 20
0.0
 30
0.0
  0
ATTDEF
  5
C9
  8
0
 10
37.75704108886719
 20
172.2499847412109
 30
0.0
 40
2.449996948242188
  1

 41
0.9
  7
CADDY_VECTORFONT1P
 72
     2
 11
55.29999923706055
 21
172.2499847412109
 31
0.0
  3
Type
  2
$TAG160040
 70
     0
  0
CIRCLE
  5
CA
  8
0
  6
CADDY_SOLID
 10
65.79998779296875
 20
179.0
 30
0.0
 40
2.200000762939453
  0
LINE
  5
CB
  8
0
  6
CADDY_SOLID
 10
63.10000610351562
 20
176.4000244140625
 30
0.0
 11
68.0
 21
181.2999877929688
 31
0.0
  0
ATTDEF
  5
CD
  8
0
 10
48.09351246032715
 20
184.5500030517578
 30
0.0
 40
2.449996948242188
  1
#00000031
 41
0.9
  7
CADDY_VECTORFONT1P
 72
     2
 11
64.9000015258789
 21
184.5500030517578
 31
0.0
  3
Produkt (-)
  2
$TAG160010
 70
     1
  0
ATTDEF
  5
CF
  8
0
 10
42.35705100708008
 20
183.0500030517578
 30
0.0
 40
2.449996948242188
  1
+
 41
0.9
  7
CADDY_VECTORFONT1P
 72
     2
 11
59.90000915527344
 21
183.0500030517578
 31
0.0
  3
Placering (+)
  2
$TAG140050
 70
     1
  0
ATTDEF
  5
D1
  8
0
 10
45.7487554763794
 20
172.7499847412109
 30
0.0
 40
2.449996948242188
  1
10
 41
0.9
  7
CADDY_VECTORFONT1P
 72
     2
 11
62.79999923706055
 21
172.7499847412109
 31
0.0
  3
Sorteringsindeks
  2
$TAG160410
 70
     1
  0
ATTDEF
  5
D3
  8
0
 10
37.75704108886719
 20
171.8249969482422
 30
0.0
 40
2.449996948242188
  1

 41
0.9
  7
CADDY_VECTORFONT1P
 72
     2
 11
55.29999923706055
 21
171.8249969482422
 31
0.0
  3
Type
  2
$TAG160040
 70
     0
  0
ATTDEF
  5
D5
  8
0
 10
46.91704856567383
 20
169.1125030517578
 30
0.0
 40
2.449996948242188
  1
2
 41
0.9
  7
CADDY_VECTORFONT1P
 72
     2
 11
64.46000671386719
 21
169.1125030517578
 31
0.0
  3
Klemmenummer
  2
$TAG160400
 70
     0
  0
ATTDEF
  5
D7
  8
0
 10
47.35705100708008
 20
191.5500030517578
 30
0.0
 40
2.449996948242188
  1
=
 41
0.9
  7
CADDY_VECTORFONT1P
 72
     2
 11
64.90000915527344
 21
191.5500030517578
 31
0.0
  3
Funktion (=)
  2
$TAG140020
 70
     1
  0
ENDBLK
  8
0
  0
BLOCK
  8
0
  2
BLK4
 70
     2
 10
0.0
 20
0.0
 30
0.0
  0
ATTDEF
  5
DE
  8
0
 10
47.75703727416992
 20
172.2499847412109
 30
0.0
 40
2.449996948242188
  1

 41
0.9
  7
CADDY_VECTORFONT1P
 72
     2
 11
65.29999542236328
 21
172.2499847412109
 31
0.0
  3
Type
  2
$TAG160040
 70
     0
  0
CIRCLE
  5
DF
  8
0
  6
CADDY_SOLID
 10
75.79998779296875
 20
179.0
 30
0.0
 40
2.200000762939453
  0
LINE
  5
E0
  8
0
  6
CADDY_SOLID
 10
73.10000610351562
 20
176.4000244140625
 30
0.0
 11
78.0
 21
181.2999877929688
 31
0.0
  0
ATTDEF
  5
E2
  8
0
 10
58.09351246032715
 20
184.5500030517578
 30
0.0
 40
2.449996948242188
  1
X22
 41
0.9
  7
CADDY_VECTORFONT1P
 72
     2
 11
74.9000015258789
 21
184.5500030517578
 31
0.0
  3
Produkt (-)
  2
$TAG160010
 70
     1
  0
ATTDEF
  5
E4
  8
0
 10
52.35704337768555
 20
183.0500030517578
 30
0.0
 40
2.449996948242188
  1
+
 41
0.9
  7
CADDY_VECTORFONT1P
 72
     2
 11
69.9000015258789
 21
183.0500030517578
 31
0.0
  3
Placering (+)
  2
$TAG140050
 70
     1
  0
ATTDEF
  5
E6
  8
0
 10
55.74875166168214
 20
172.7499847412109
 30
0.0
 40
2.449996948242188
  1
11
 41
0.9
  7
CADDY_VECTORFONT1P
 72
     2
 11
72.79999542236328
 21
172.7499847412109
 31
0.0
  3
Sorteringsindeks
  2
$TAG160410
 70
     1
  0
ATTDEF
  5
E8
  8
0
 10
47.75703727416992
 20
171.8249969482422
 30
0.0
 40
2.449996948242188
  1

 41
0.9
  7
CADDY_VECTORFONT1P
 72
     2
 11
65.29999542236328
 21
171.8249969482422
 31
0.0
  3
Type
  2
$TAG160040
 70
     0
  0
ATTDEF
  5
EA
  8
0
 10
56.91704856567383
 20
169.1125030517578
 30
0.0
 40
2.449996948242188
  1
3
 41
0.9
  7
CADDY_VECTORFONT1P
 72
     2
 11
74.46000671386719
 21
169.1125030517578
 31
0.0
  3
Klemmenummer
  2
$TAG160400
 70
     0
  0
ATTDEF
  5
EC
  8
0
 10
57.35705100708008
 20
191.5500030517578
 30
0.0
 40
2.449996948242188
  1
=
 41
0.9
  7
CADDY_VECTORFONT1P
 72
     2
 11
74.90000915527344
 21
191.5500030517578
 31
0.0
  3
Funktion (=)
  2
$TAG140020
 70
     1
  0
ENDBLK
  8
0
  0
BLOCK
  8
0
  2
BLK5
 70
     2
 10
0.0
 20
0.0
 30
0.0
  0
ATTDEF
  5
F3
  8
0
 10
57.75703727416992
 20
172.2499847412109
 30
0.0
 40
2.449996948242188
  1

 41
0.9
  7
CADDY_VECTORFONT1P
 72
     2
 11
75.29999542236328
 21
172.2499847412109
 31
0.0
  3
Type
  2
$TAG160040
 70
     0
  0
CIRCLE
  5
F4
  8
0
  6
CADDY_SOLID
 10
85.79998779296875
 20
179.0
 30
0.0
 40
2.200000762939453
  0
LINE
  5
F5
  8
0
  6
CADDY_SOLID
 10
83.10000610351562
 20
176.4000244140625
 30
0.0
 11
88.0
 21
181.2999877929688
 31
0.0
  0
ATTDEF
  5
F7
  8
0
 10
68.09351246032715
 20
184.5500030517578
 30
0.0
 40
2.449996948242188
  1
X16
 41
0.9
  7
CADDY_VECTORFONT1P
 72
     2
 11
84.9000015258789
 21
184.5500030517578
 31
0.0
  3
Produkt (-)
  2
$TAG160010
 70
     1
  0
ATTDEF
  5
F9
  8
0
 10
62.35704337768555
 20
183.0500030517578
 30
0.0
 40
2.449996948242188
  1
+
 41
0.9
  7
CADDY_VECTORFONT1P
 72
     2
 11
79.9000015258789
 21
183.0500030517578
 31
0.0
  3
Placering (+)
  2
$TAG140050
 70
     1
  0
ATTDEF
  5
FB
  8
0
 10
65.74875166168214
 20
172.7499847412109
 30
0.0
 40
2.449996948242188
  1
12
 41
0.9
  7
CADDY_VECTORFONT1P
 72
     2
 11
82.79999542236328
 21
172.7499847412109
 31
0.0
  3
Sorteringsindeks
  2
$TAG160410
 70
     1
  0
ATTDEF
  5
FD
  8
0
 10
57.75703727416992
 20
171.8249969482422
 30
0.0
 40
2.449996948242188
  1

 41
0.9
  7
CADDY_VECTORFONT1P
 72
     2
 11
75.29999542236328
 21
171.8249969482422
 31
0.0
  3
Type
  2
$TAG160040
 70
     0
  0
ATTDEF
  5
FF
  8
0
 10
66.9170409362793
 20
169.1125030517578
 30
0.0
 40
2.449996948242188
  1
4
 41
0.9
  7
CADDY_VECTORFONT1P
 72
     2
 11
84.45999908447266
 21
169.1125030517578
 31
0.0
  3
Klemmenummer
  2
$TAG160400
 70
     0
  0
ATTDEF
  5
101
  8
0
 10
67.35705100708009
 20
191.5500030517578
 30
0.0
 40
2.449996948242188
  1
=
 41
0.9
  7
CADDY_VECTORFONT1P
 72
     2
 11
84.90000915527344
 21
191.5500030517578
 31
0.0
  3
Funktion (=)
  2
$TAG140020
 70
     1
  0
ENDBLK
  8
0
  0
BLOCK
  8
0
  2
BLK6
 70
     2
 10
0.0
 20
0.0
 30
0.0
  0
ATTDEF
  5
108
  8
0
 10
67.75703727416993
 20
172.2499847412109
 30
0.0
 40
2.449996948242188
  1

 41
0.9
  7
CADDY_VECTORFONT1P
 72
     2
 11
85.29999542236328
 21
172.2499847412109
 31
0.0
  3
Type
  2
$TAG160040
 70
     0
  0
CIRCLE
  5
109
  8
0
  6
CADDY_SOLID
 10
95.79998779296875
 20
179.0
 30
0.0
 40
2.200000762939453
  0
LINE
  5
10A
  8
0
  6
CADDY_SOLID
 10
93.10000610351562
 20
176.4000244140625
 30
0.0
 11
98.0
 21
181.2999877929688
 31
0.0
  0
ATTDEF
  5
10C
  8
0
 10
78.09351246032715
 20
184.5500030517578
 30
0.0
 40
2.449996948242188
  1
X16
 41
0.9
  7
CADDY_VECTORFONT1P
 72
     2
 11
94.9000015258789
 21
184.5500030517578
 31
0.0
  3
Produkt (-)
  2
$TAG160010
 70
     1
  0
ATTDEF
  5
10E
  8
0
 10
72.35704337768556
 20
183.0500030517578
 30
0.0
 40
2.449996948242188
  1
+
 41
0.9
  7
CADDY_VECTORFONT1P
 72
     2
 11
89.9000015258789
 21
183.0500030517578
 31
0.0
  3
Placering (+)
  2
$TAG140050
 70
     1
  0
ATTDEF
  5
110
  8
0
 10
75.74875929107667
 20
172.7499847412109
 30
0.0
 40
2.449996948242188
  1
13
 41
0.9
  7
CADDY_VECTORFONT1P
 72
     2
 11
92.80000305175781
 21
172.7499847412109
 31
0.0
  3
Sorteringsindeks
  2
$TAG160410
 70
     1
  0
ATTDEF
  5
112
  8
0
 10
67.75703727416993
 20
171.8249969482422
 30
0.0
 40
2.449996948242188
  1

 41
0.9
  7
CADDY_VECTORFONT1P
 72
     2
 11
85.29999542236328
 21
171.8249969482422
 31
0.0
  3
Type
  2
$TAG160040
 70
     0
  0
ATTDEF
  5
114
  8
0
 10
76.91704856567384
 20
169.1125030517578
 30
0.0
 40
2.449996948242188
  1
5
 41
0.9
  7
CADDY_VECTORFONT1P
 72
     2
 11
94.46000671386719
 21
169.1125030517578
 31
0.0
  3
Klemmenummer
  2
$TAG160400
 70
     0
  0
ATTDEF
  5
116
  8
0
 10
77.35705100708009
 20
191.5500030517578
 30
0.0
 40
2.449996948242188
  1
=
 41
0.9
  7
CADDY_VECTORFONT1P
 72
     2
 11
94.90000915527344
 21
191.5500030517578
 31
0.0
  3
Funktion (=)
  2
$TAG140020
 70
     1
  0
ENDBLK
  8
0
  0
BLOCK
  8
0
  2
BLK7
 70
     2
 10
0.0
 20
0.0
 30
0.0
  0
ATTDEF
  5
11D
  8
0
 10
77.75703727416993
 20
172.2499847412109
 30
0.0
 40
2.449996948242188
  1

 41
0.9
  7
CADDY_VECTORFONT1P
 72
     2
 11
95.29999542236328
 21
172.2499847412109
 31
0.0
  3
Type
  2
$TAG160040
 70
     0
  0
CIRCLE
  5
11E
  8
0
  6
CADDY_SOLID
 10
105.7999877929688
 20
179.0
 30
0.0
 40
2.200000762939453
  0
LINE
  5
11F
  8
0
  6
CADDY_SOLID
 10
103.1000061035156
 20
176.4000244140625
 30
0.0
 11
108.0
 21
181.2999877929688
 31
0.0
  0
ATTDEF
  5
121
  8
0
 10
88.09352008972168
 20
184.5500030517578
 30
0.0
 40
2.449996948242188
  1
X23
 41
0.9
  7
CADDY_VECTORFONT1P
 72
     2
 11
104.9000091552734
 21
184.5500030517578
 31
0.0
  3
Produkt (-)
  2
$TAG160010
 70
     1
  0
ATTDEF
  5
123
  8
0
 10
82.35704337768556
 20
183.0500030517578
 30
0.0
 40
2.449996948242188
  1
+
 41
0.9
  7
CADDY_VECTORFONT1P
 72
     2
 11
99.9000015258789
 21
183.0500030517578
 31
0.0
  3
Placering (+)
  2
$TAG140050
 70
     1
  0
ATTDEF
  5
125
  8
0
 10
85.74875166168214
 20
172.7499847412109
 30
0.0
 40
2.449996948242188
  1
14
 41
0.9
  7
CADDY_VECTORFONT1P
 72
     2
 11
102.7999954223633
 21
172.7499847412109
 31
0.0
  3
Sorteringsindeks
  2
$TAG160410
 70
     1
  0
ATTDEF
  5
127
  8
0
 10
77.75703727416993
 20
171.8249969482422
 30
0.0
 40
2.449996948242188
  1

 41
0.9
  7
CADDY_VECTORFONT1P
 72
     2
 11
95.29999542236328
 21
171.8249969482422
 31
0.0
  3
Type
  2
$TAG160040
 70
     0
  0
ATTDEF
  5
129
  8
0
 10
86.9170409362793
 20
169.1125030517578
 30
0.0
 40
2.449996948242188
  1
6
 41
0.9
  7
CADDY_VECTORFONT1P
 72
     2
 11
104.4599990844727
 21
169.1125030517578
 31
0.0
  3
Klemmenummer
  2
$TAG160400
 70
     0
  0
ATTDEF
  5
12B
  8
0
 10
87.35705100708009
 20
191.5500030517578
 30
0.0
 40
2.449996948242188
  1
=
 41
0.9
  7
CADDY_VECTORFONT1P
 72
     2
 11
104.9000091552734
 21
191.5500030517578
 31
0.0
  3
Funktion (=)
  2
$TAG140020
 70
     1
  0
ENDBLK
  8
0
  0
BLOCK
  8
0
  2
BLK8
 70
     2
 10
0.0
 20
0.0
 30
0.0
  0
ATTDEF
  5
132
  8
0
 10
87.75703727416993
 20
172.2499847412109
 30
0.0
 40
2.449996948242188
  1

 41
0.9
  7
CADDY_VECTORFONT1P
 72
     2
 11
105.2999954223633
 21
172.2499847412109
 31
0.0
  3
Type
  2
$TAG160040
 70
     0
  0
CIRCLE
  5
133
  8
0
  6
CADDY_SOLID
 10
115.7999877929688
 20
179.0
 30
0.0
 40
2.200000762939453
  0
LINE
  5
134
  8
0
  6
CADDY_SOLID
 10
113.1000061035156
 20
176.4000244140625
 30
0.0
 11
118.0
 21
181.2999877929688
 31
0.0
  0
ATTDEF
  5
136
  8
0
 10
98.09351246032715
 20
184.5500030517578
 30
0.0
 40
2.449996948242188
  1
X16
 41
0.9
  7
CADDY_VECTORFONT1P
 72
     2
 11
114.9000015258789
 21
184.5500030517578
 31
0.0
  3
Produkt (-)
  2
$TAG160010
 70
     1
  0
ATTDEF
  5
138
  8
0
 10
92.35704337768556
 20
183.0500030517578
 30
0.0
 40
2.449996948242188
  1
+
 41
0.9
  7
CADDY_VECTORFONT1P
 72
     2
 11
109.9000015258789
 21
183.0500030517578
 31
0.0
  3
Placering (+)
  2
$TAG140050
 70
     1
  0
ATTDEF
  5
13A
  8
0
 10
95.74875929107667
 20
172.7499847412109
 30
0.0
 40
2.449996948242188
  1
15
 41
0.9
  7
CADDY_VECTORFONT1P
 72
     2
 11
112.8000030517578
 21
172.7499847412109
 31
0.0
  3
Sorteringsindeks
  2
$TAG160410
 70
     1
  0
ATTDEF
  5
13C
  8
0
 10
87.75703727416993
 20
171.8249969482422
 30
0.0
 40
2.449996948242188
  1

 41
0.9
  7
CADDY_VECTORFONT1P
 72
     2
 11
105.2999954223633
 21
171.8249969482422
 31
0.0
  3
Type
  2
$TAG160040
 70
     0
  0
ATTDEF
  5
13E
  8
0
 10
96.9170409362793
 20
169.1125030517578
 30
0.0
 40
2.449996948242188
  1
7
 41
0.9
  7
CADDY_VECTORFONT1P
 72
     2
 11
114.4599990844727
 21
169.1125030517578
 31
0.0
  3
Klemmenummer
  2
$TAG160400
 70
     0
  0
ATTDEF
  5
140
  8
0
 10
97.35705100708009
 20
191.5500030517578
 30
0.0
 40
2.449996948242188
  1
=
 41
0.9
  7
CADDY_VECTORFONT1P
 72
     2
 11
114.9000091552734
 21
191.5500030517578
 31
0.0
  3
Funktion (=)
  2
$TAG140020
 70
     1
  0
ENDBLK
  8
0
  0
BLOCK
  8
0
  2
BLK9
 70
     2
 10
0.0
 20
0.0
 30
0.0
  0
ATTDEF
  5
147
  8
0
 10
97.75703727416993
 20
172.2499847412109
 30
0.0
 40
2.449996948242188
  1

 41
0.9
  7
CADDY_VECTORFONT1P
 72
     2
 11
115.2999954223633
 21
172.2499847412109
 31
0.0
  3
Type
  2
$TAG160040
 70
     0
  0
CIRCLE
  5
148
  8
0
  6
CADDY_SOLID
 10
125.7999877929688
 20
179.0
 30
0.0
 40
2.200000762939453
  0
LINE
  5
149
  8
0
  6
CADDY_SOLID
 10
123.1000061035156
 20
176.4000244140625
 30
0.0
 11
128.0
 21
181.2999877929688
 31
0.0
  0
ATTDEF
  5
14B
  8
0
 10
108.0935124603271
 20
184.5500030517578
 30
0.0
 40
2.449996948242188
  1
X16
 41
0.9
  7
CADDY_VECTORFONT1P
 72
     2
 11
124.9000015258789
 21
184.5500030517578
 31
0.0
  3
Produkt (-)
  2
$TAG160010
 70
     1
  0
ATTDEF
  5
14D
  8
0
 10
102.3570433776856
 20
183.0500030517578
 30
0.0
 40
2.449996948242188
  1
+
 41
0.9
  7
CADDY_VECTORFONT1P
 72
     2
 11
119.9000015258789
 21
183.0500030517578
 31
0.0
  3
Placering (+)
  2
$TAG140050
 70
     1
  0
ATTDEF
  5
14F
  8
0
 10
105.7487516616821
 20
172.7499847412109
 30
0.0
 40
2.449996948242188
  1
16
 41
0.9
  7
CADDY_VECTORFONT1P
 72
     2
 11
122.7999954223633
 21
172.7499847412109
 31
0.0
  3
Sorteringsindeks
  2
$TAG160410
 70
     1
  0
ATTDEF
  5
151
  8
0
 10
97.75703727416993
 20
171.8249969482422
 30
0.0
 40
2.449996948242188
  1

 41
0.9
  7
CADDY_VECTORFONT1P
 72
     2
 11
115.2999954223633
 21
171.8249969482422
 31
0.0
  3
Type
  2
$TAG160040
 70
     0
  0
ATTDEF
  5
153
  8
0
 10
106.9170409362793
 20
169.1125030517578
 30
0.0
 40
2.449996948242188
  1
8
 41
0.9
  7
CADDY_VECTORFONT1P
 72
     2
 11
124.4599990844727
 21
169.1125030517578
 31
0.0
  3
Klemmenummer
  2
$TAG160400
 70
     0
  0
ATTDEF
  5
155
  8
0
 10
107.3570510070801
 20
191.5500030517578
 30
0.0
 40
2.449996948242188
  1
=
 41
0.9
  7
CADDY_VECTORFONT1P
 72
     2
 11
124.9000091552734
 21
191.5500030517578
 31
0.0
  3
Funktion (=)
  2
$TAG140020
 70
     1
  0
ENDBLK
  8
0
  0
BLOCK
  8
0
  2
BLK10
 70
     2
 10
0.0
 20
0.0
 30
0.0
  0
ATTDEF
  5
16A
  8
0
 10
107.7570372741699
 20
172.2499847412109
 30
0.0
 40
2.449996948242188
  1

 41
0.9
  7
CADDY_VECTORFONT1P
 72
     2
 11
125.2999954223633
 21
172.2499847412109
 31
0.0
  3
Type
  2
$TAG160040
 70
     0
  0
CIRCLE
  5
16B
  8
0
  6
CADDY_SOLID
 10
135.7999877929688
 20
179.0
 30
0.0
 40
2.200000762939453
  0
LINE
  5
16C
  8
0
  6
CADDY_SOLID
 10
133.1000061035156
 20
176.4000244140625
 30
0.0
 11
138.0
 21
181.2999877929688
 31
0.0
  0
ATTDEF
  5
16E
  8
0
 10
118.0935353485107
 20
184.5500030517578
 30
0.0
 40
2.449996948242188
  1
X27
 41
0.9
  7
CADDY_VECTORFONT1P
 72
     2
 11
134.9000244140625
 21
184.5500030517578
 31
0.0
  3
Produkt (-)
  2
$TAG160010
 70
     1
  0
ATTDEF
  5
170
  8
0
 10
112.357035748291
 20
183.0500030517578
 30
0.0
 40
2.449996948242188
  1
+
 41
0.9
  7
CADDY_VECTORFONT1P
 72
     2
 11
129.8999938964844
 21
183.0500030517578
 31
0.0
  3
Placering (+)
  2
$TAG140050
 70
     1
  0
ATTDEF
  5
172
  8
0
 10
115.7487592910767
 20
172.7499847412109
 30
0.0
 40
2.449996948242188
  1
17
 41
0.9
  7
CADDY_VECTORFONT1P
 72
     2
 11
132.8000030517578
 21
172.7499847412109
 31
0.0
  3
Sorteringsindeks
  2
$TAG160410
 70
     1
  0
ATTDEF
  5
174
  8
0
 10
107.7570372741699
 20
171.8249969482422
 30
0.0
 40
2.449996948242188
  1

 41
0.9
  7
CADDY_VECTORFONT1P
 72
     2
 11
125.2999954223633
 21
171.8249969482422
 31
0.0
  3
Type
  2
$TAG160040
 70
     0
  0
ATTDEF
  5
176
  8
0
 10
116.9170485656738
 20
169.1125030517578
 30
0.0
 40
2.449996948242188
  1
9
 41
0.9
  7
CADDY_VECTORFONT1P
 72
     2
 11
134.4600067138672
 21
169.1125030517578
 31
0.0
  3
Klemmenummer
  2
$TAG160400
 70
     0
  0
ATTDEF
  5
178
  8
0
 10
117.3570510070801
 20
191.5500030517578
 30
0.0
 40
2.449996948242188
  1
=
 41
0.9
  7
CADDY_VECTORFONT1P
 72
     2
 11
134.9000091552734
 21
191.5500030517578
 31
0.0
  3
Funktion (=)
  2
$TAG140020
 70
     1
  0
ENDBLK
  8
0
  0
BLOCK
  8
0
  2
BLK11
 70
     2
 10
0.0
 20
0.0
 30
0.0
  0
ATTDEF
  5
17F
  8
0
 10
117.7570449035645
 20
172.2499847412109
 30
0.0
 40
2.449996948242188
  1

 41
0.9
  7
CADDY_VECTORFONT1P
 72
     2
 11
135.3000030517578
 21
172.2499847412109
 31
0.0
  3
Type
  2
$TAG160040
 70
     0
  0
CIRCLE
  5
180
  8
0
  6
CADDY_SOLID
 10
145.7999877929688
 20
179.0
 30
0.0
 40
2.200000762939453
  0
LINE
  5
181
  8
0
  6
CADDY_SOLID
 10
143.1000061035156
 20
176.4000244140625
 30
0.0
 11
148.0
 21
181.2999877929688
 31
0.0
  0
ATTDEF
  5
183
  8
0
 10
128.0935200897217
 20
184.5500030517578
 30
0.0
 40
2.449996948242188
  1
X16
 41
0.9
  7
CADDY_VECTORFONT1P
 72
     2
 11
144.9000091552734
 21
184.5500030517578
 31
0.0
  3
Produkt (-)
  2
$TAG160010
 70
     1
  0
ATTDEF
  5
185
  8
0
 10
122.357035748291
 20
183.0500030517578
 30
0.0
 40
2.449996948242188
  1
+
 41
0.9
  7
CADDY_VECTORFONT1P
 72
     2
 11
139.8999938964844
 21
183.0500030517578
 31
0.0
  3
Placering (+)
  2
$TAG140050
 70
     1
  0
ATTDEF
  5
187
  8
0
 10
125.7487592910767
 20
172.7499847412109
 30
0.0
 40
2.449996948242188
  1
18
 41
0.9
  7
CADDY_VECTORFONT1P
 72
     2
 11
142.8000030517578
 21
172.7499847412109
 31
0.0
  3
Sorteringsindeks
  2
$TAG160410
 70
     1
  0
ATTDEF
  5
189
  8
0
 10
117.7570449035645
 20
171.8249969482422
 30
0.0
 40
2.449996948242188
  1

 41
0.9
  7
CADDY_VECTORFONT1P
 72
     2
 11
135.3000030517578
 21
171.8249969482422
 31
0.0
  3
Type
  2
$TAG160040
 70
     0
  0
ATTDEF
  5
18B
  8
0
 10
126.9170485656738
 20
169.1125030517578
 30
0.0
 40
2.449996948242188
  1
10
 41
0.9
  7
CADDY_VECTORFONT1P
 72
     2
 11
144.4600067138672
 21
169.1125030517578
 31
0.0
  3
Klemmenummer
  2
$TAG160400
 70
     0
  0
ATTDEF
  5
18D
  8
0
 10
127.3570510070801
 20
191.5500030517578
 30
0.0
 40
2.449996948242188
  1
=
 41
0.9
  7
CADDY_VECTORFONT1P
 72
     2
 11
144.9000091552734
 21
191.5500030517578
 31
0.0
  3
Funktion (=)
  2
$TAG140020
 70
     1
  0
ENDBLK
  8
0
  0
BLOCK
  8
0
  2
BLK12
 70
     2
 10
0.0
 20
0.0
 30
0.0
  0
ATTDEF
  5
194
  8
0
 10
127.7570449035645
 20
172.2499847412109
 30
0.0
 40
2.449996948242188
  1

 41
0.9
  7
CADDY_VECTORFONT1P
 72
     2
 11
145.3000030517578
 21
172.2499847412109
 31
0.0
  3
Type
  2
$TAG160040
 70
     0
  0
CIRCLE
  5
195
  8
0
  6
CADDY_SOLID
 10
155.7999877929688
 20
179.0
 30
0.0
 40
2.200000762939453
  0
LINE
  5
196
  8
0
  6
CADDY_SOLID
 10
153.1000061035156
 20
176.4000244140625
 30
0.0
 11
158.0
 21
181.2999877929688
 31
0.0
  0
ATTDEF
  5
198
  8
0
 10
138.0935200897217
 20
184.5500030517578
 30
0.0
 40
2.449996948242188
  1
12
 41
0.9
  7
CADDY_VECTORFONT1P
 72
     2
 11
154.9000091552734
 21
184.5500030517578
 31
0.0
  3
Produkt (-)
  2
$TAG160010
 70
     1
  0
ATTDEF
  5
19A
  8
0
 10
132.357035748291
 20
183.0500030517578
 30
0.0
 40
2.449996948242188
  1
+
 41
0.9
  7
CADDY_VECTORFONT1P
 72
     2
 11
149.8999938964844
 21
183.0500030517578
 31
0.0
  3
Placering (+)
  2
$TAG140050
 70
     1
  0
ATTDEF
  5
19C
  8
0
 10
135.7487592910767
 20
172.7499847412109
 30
0.0
 40
2.449996948242188
  1
19
 41
0.9
  7
CADDY_VECTORFONT1P
 72
     2
 11
152.8000030517578
 21
172.7499847412109
 31
0.0
  3
Sorteringsindeks
  2
$TAG160410
 70
     1
  0
ATTDEF
  5
19E
  8
0
 10
127.7570449035645
 20
171.8249969482422
 30
0.0
 40
2.449996948242188
  1

 41
0.9
  7
CADDY_VECTORFONT1P
 72
     2
 11
145.3000030517578
 21
171.8249969482422
 31
0.0
  3
Type
  2
$TAG160040
 70
     0
  0
ATTDEF
  5
1A0
  8
0
 10
136.9170333068848
 20
169.1125030517578
 30
0.0
 40
2.449996948242188
  1
11
 41
0.9
  7
CADDY_VECTORFONT1P
 72
     2
 11
154.4599914550781
 21
169.1125030517578
 31
0.0
  3
Klemmenummer
  2
$TAG160400
 70
     0
  0
ATTDEF
  5
1A2
  8
0
 10
137.3570510070801
 20
191.5500030517578
 30
0.0
 40
2.449996948242188
  1
=
 41
0.9
  7
CADDY_VECTORFONT1P
 72
     2
 11
154.9000091552734
 21
191.5500030517578
 31
0.0
  3
Funktion (=)
  2
$TAG140020
 70
     1
  0
ENDBLK
  8
0
  0
BLOCK
  8
0
  2
BLK13
 70
     2
 10
0.0
 20
0.0
 30
0.0
  0
ATTDEF
  5
1A9
  8
0
 10
137.7570449035645
 20
172.2499847412109
 30
0.0
 40
2.449996948242188
  1

 41
0.9
  7
CADDY_VECTORFONT1P
 72
     2
 11
155.3000030517578
 21
172.2499847412109
 31
0.0
  3
Type
  2
$TAG160040
 70
     0
  0
CIRCLE
  5
1AA
  8
0
  6
CADDY_SOLID
 10
165.7999877929688
 20
179.0
 30
0.0
 40
2.200000762939453
  0
LINE
  5
1AB
  8
0
  6
CADDY_SOLID
 10
163.1000061035156
 20
176.4000244140625
 30
0.0
 11
168.0
 21
181.2999877929688
 31
0.0
  0
ATTDEF
  5
1AD
  8
0
 10
148.0935200897217
 20
184.5500030517578
 30
0.0
 40
2.449996948242188
  1
X12
 41
0.9
  7
CADDY_VECTORFONT1P
 72
     2
 11
164.9000091552734
 21
184.5500030517578
 31
0.0
  3
Produkt (-)
  2
$TAG160010
 70
     1
  0
ATTDEF
  5
1AF
  8
0
 10
142.357035748291
 20
183.0500030517578
 30
0.0
 40
2.449996948242188
  1
+
 41
0.9
  7
CADDY_VECTORFONT1P
 72
     2
 11
159.8999938964844
 21
183.0500030517578
 31
0.0
  3
Placering (+)
  2
$TAG140050
 70
     1
  0
ATTDEF
  5
1B1
  8
0
 10
145.7487592910767
 20
172.7499847412109
 30
0.0
 40
2.449996948242188
  1
20
 41
0.9
  7
CADDY_VECTORFONT1P
 72
     2
 11
162.8000030517578
 21
172.7499847412109
 31
0.0
  3
Sorteringsindeks
  2
$TAG160410
 70
     1
  0
ATTDEF
  5
1B3
  8
0
 10
137.7570449035645
 20
171.8249969482422
 30
0.0
 40
2.449996948242188
  1

 41
0.9
  7
CADDY_VECTORFONT1P
 72
     2
 11
155.3000030517578
 21
171.8249969482422
 31
0.0
  3
Type
  2
$TAG160040
 70
     0
  0
ATTDEF
  5
1B5
  8
0
 10
146.9170485656738
 20
169.1125030517578
 30
0.0
 40
2.449996948242188
  1
12
 41
0.9
  7
CADDY_VECTORFONT1P
 72
     2
 11
164.4600067138672
 21
169.1125030517578
 31
0.0
  3
Klemmenummer
  2
$TAG160400
 70
     0
  0
ATTDEF
  5
1B7
  8
0
 10
147.3570510070801
 20
191.5500030517578
 30
0.0
 40
2.449996948242188
  1
=
 41
0.9
  7
CADDY_VECTORFONT1P
 72
     2
 11
164.9000091552734
 21
191.5500030517578
 31
0.0
  3
Funktion (=)
  2
$TAG140020
 70
     1
  0
ENDBLK
  8
0
  0
ENDSEC
  0
SECTION
  2
ENTITIES
  0
INSERT
  5
43
  8
0
  2
BLK1
 10
0.0
 20
0.0
 30
1.0
  0
TEXT
  5
AC
  8
0
 10
173.1000061035156
 20
256.0
 30
0.0
 40
3.5
  1
Encoder
 41
0.9
  7
CADDY_VECTORFONT1P
  0
TEXT
  5
AD
  8
0
 10
53.55275201873779
 20
191.5500030517578
 30
0.0
 40
2.449996948242188
  1
=
 41
0.9
  7
CADDY_VECTORFONT1P
 72
     2
 11
54.90000534057617
 21
191.5500030517578
 31
0.0
  0
INSERT
  5
B1
  8
0
 66
     1
  2
BLK2
 10
0.0
 20
0.0
 30
1.0
  0
ATTRIB
  5
B2
  8
0
 10
45.29999923706055
 20
172.2499847412109
 30
0.0
 40
2.449996948242188
  1

 41
0.9
  7
CADDY_VECTORFONT1P
 72
     2
 11
45.29999923706055
 21
172.2499847412109
 31
0.0
  2
$TAG160040
 70
     0
  0
ATTRIB
  5
B7
  8
0
 10
50.09972631988526
 20
184.5500030517578
 30
0.0
 40
2.449996948242188
  1
X19
 41
0.9
  7
CADDY_VECTORFONT1P
 72
     2
 11
54.90000534057617
 21
184.5500030517578
 31
0.0
  2
$TAG160010
 70
     0
  0
ATTRIB
  5
B9
  8
0
 10
48.55275583343506
 20
183.0500030517578
 30
0.0
 40
2.449996948242188
  1
+
 41
0.9
  7
CADDY_VECTORFONT1P
 72
     2
 11
49.90000915527344
 21
183.0500030517578
 31
0.0
  2
$TAG140050
 70
     1
  0
ATTRIB
  5
BB
  8
0
 10
51.42849094543457
 20
172.7499847412109
 30
0.0
 40
2.449996948242188
  1
9
 41
0.9
  7
CADDY_VECTORFONT1P
 72
     2
 11
52.79999923706055
 21
172.7499847412109
 31
0.0
  2
$TAG160410
 70
     1
  0
ATTRIB
  5
BD
  8
0
 10
45.29999923706055
 20
171.8249969482422
 30
0.0
 40
2.449996948242188
  1

 41
0.9
  7
CADDY_VECTORFONT1P
 72
     2
 11
45.29999923706055
 21
171.8249969482422
 31
0.0
  2
$TAG160040
 70
     0
  0
ATTRIB
  5
BF
  8
0
 10
53.5780078125
 20
169.1125030517578
 30
0.0
 40
2.449996948242188
  1
1
 41
0.9
  7
CADDY_VECTORFONT1P
 72
     2
 11
54.46000671386719
 21
169.1125030517578
 31
0.0
  2
$TAG160400
 70
     0
  0
ATTRIB
  5
C1
  8
0
 10
53.55275201873779
 20
191.5500030517578
 30
0.0
 40
2.449996948242188
  1
=
 41
0.9
  7
CADDY_VECTORFONT1P
 72
     2
 11
54.90000534057617
 21
191.5500030517578
 31
0.0
  2
$TAG140020
 70
     1
  0
SEQEND
  5
B3
  8
0
  0
INSERT
  5
C6
  8
0
 66
     1
  2
BLK3
 10
0.0
 20
0.0
 30
1.0
  0
ATTRIB
  5
C7
  8
0
 10
55.29999923706055
 20
172.2499847412109
 30
0.0
 40
2.449996948242188
  1

 41
0.9
  7
CADDY_VECTORFONT1P
 72
     2
 11
55.29999923706055
 21
172.2499847412109
 31
0.0
  2
$TAG160040
 70
     0
  0
ATTRIB
  5
CC
  8
0
 10
49.80459032897949
 20
184.5500030517578
 30
0.0
 40
2.449996948242188
  1
#00000031
 41
0.9
  7
CADDY_VECTORFONT1P
 72
     2
 11
64.9000015258789
 21
184.5500030517578
 31
0.0
  2
$TAG160010
 70
     1
  0
ATTRIB
  5
CE
  8
0
 10
58.55275583343506
 20
183.0500030517578
 30
0.0
 40
2.449996948242188
  1
+
 41
0.9
  7
CADDY_VECTORFONT1P
 72
     2
 11
59.90000915527344
 21
183.0500030517578
 31
0.0
  2
$TAG140050
 70
     1
  0
ATTRIB
  5
D0
  8
0
 10
60.2047174697876
 20
172.7499847412109
 30
0.0
 40
2.449996948242188
  1
10
 41
0.9
  7
CADDY_VECTORFONT1P
 72
     2
 11
62.79999923706055
 21
172.7499847412109
 31
0.0
  2
$TAG160410
 70
     1
  0
ATTRIB
  5
D2
  8
0
 10
55.29999923706055
 20
171.8249969482422
 30
0.0
 40
2.449996948242188
  1

 41
0.9
  7
CADDY_VECTORFONT1P
 72
     2
 11
55.29999923706055
 21
171.8249969482422
 31
0.0
  2
$TAG160040
 70
     0
  0
ATTRIB
  5
D4
  8
0
 10
63.10393340301513
 20
169.1125030517578
 30
0.0
 40
2.449996948242188
  1
2
 41
0.9
  7
CADDY_VECTORFONT1P
 72
     2
 11
64.46000671386719
 21
169.1125030517578
 31
0.0
  2
$TAG160400
 70
     0
  0
ATTRIB
  5
D6
  8
0
 10
63.55275583343506
 20
191.5500030517578
 30
0.0
 40
2.449996948242188
  1
=
 41
0.9
  7
CADDY_VECTORFONT1P
 72
     2
 11
64.90000915527344
 21
191.5500030517578
 31
0.0
  2
$TAG140020
 70
     1
  0
SEQEND
  5
C8
  8
0
  0
INSERT
  5
DB
  8
0
 66
     1
  2
BLK4
 10
0.0
 20
0.0
 30
1.0
  0
ATTRIB
  5
DC
  8
0
 10
65.29999542236328
 20
172.2499847412109
 30
0.0
 40
2.449996948242188
  1

 41
0.9
  7
CADDY_VECTORFONT1P
 72
     2
 11
65.29999542236328
 21
172.2499847412109
 31
0.0
  2
$TAG160040
 70
     0
  0
ATTRIB
  5
E1
  8
0
 10
69.62344309844971
 20
184.5500030517578
 30
0.0
 40
2.449996948242188
  1
X22
 41
0.9
  7
CADDY_VECTORFONT1P
 72
     2
 11
74.9000015258789
 21
184.5500030517578
 31
0.0
  2
$TAG160010
 70
     1
  0
ATTRIB
  5
E3
  8
0
 10
68.55274820404053
 20
183.0500030517578
 30
0.0
 40
2.449996948242188
  1
+
 41
0.9
  7
CADDY_VECTORFONT1P
 72
     2
 11
69.9000015258789
 21
183.0500030517578
 31
0.0
  2
$TAG140050
 70
     1
  0
ATTRIB
  5
E5
  8
0
 10
70.69422304534912
 20
172.7499847412109
 30
0.0
 40
2.449996948242188
  1
11
 41
0.9
  7
CADDY_VECTORFONT1P
 72
     2
 11
72.79999542236328
 21
172.7499847412109
 31
0.0
  2
$TAG160410
 70
     1
  0
ATTRIB
  5
E7
  8
0
 10
65.29999542236328
 20
171.8249969482422
 30
0.0
 40
2.449996948242188
  1

 41
0.9
  7
CADDY_VECTORFONT1P
 72
     2
 11
65.29999542236328
 21
171.8249969482422
 31
0.0
  2
$TAG160040
 70
     0
  0
ATTRIB
  5
E9
  8
0
 10
73.08849842224122
 20
169.1125030517578
 30
0.0
 40
2.449996948242188
  1
3
 41
0.9
  7
CADDY_VECTORFONT1P
 72
     2
 11
74.46000671386719
 21
169.1125030517578
 31
0.0
  2
$TAG160400
 70
     0
  0
ATTRIB
  5
EB
  8
0
 10
73.55275583343506
 20
191.5500030517578
 30
0.0
 40
2.449996948242188
  1
=
 41
0.9
  7
CADDY_VECTORFONT1P
 72
     2
 11
74.90000915527344
 21
191.5500030517578
 31
0.0
  2
$TAG140020
 70
     1
  0
SEQEND
  5
DD
  8
0
  0
INSERT
  5
F0
  8
0
 66
     1
  2
BLK5
 10
0.0
 20
0.0
 30
1.0
  0
ATTRIB
  5
F1
  8
0
 10
75.29999542236328
 20
172.2499847412109
 30
0.0
 40
2.449996948242188
  1

 41
0.9
  7
CADDY_VECTORFONT1P
 72
     2
 11
75.29999542236328
 21
172.2499847412109
 31
0.0
  2
$TAG160040
 70
     0
  0
ATTRIB
  5
F6
  8
0
 10
80.09972250518798
 20
184.5500030517578
 30
0.0
 40
2.449996948242188
  1
X16
 41
0.9
  7
CADDY_VECTORFONT1P
 72
     2
 11
84.9000015258789
 21
184.5500030517578
 31
0.0
  2
$TAG160010
 70
     1
  0
ATTRIB
  5
F8
  8
0
 10
78.55274820404053
 20
183.0500030517578
 30
0.0
 40
2.449996948242188
  1
+
 41
0.9
  7
CADDY_VECTORFONT1P
 72
     2
 11
79.9000015258789
 21
183.0500030517578
 31
0.0
  2
$TAG140050
 70
     1
  0
ATTRIB
  5
FA
  8
0
 10
80.22014863586426
 20
172.7499847412109
 30
0.0
 40
2.449996948242188
  1
12
 41
0.9
  7
CADDY_VECTORFONT1P
 72
     2
 11
82.79999542236328
 21
172.7499847412109
 31
0.0
  2
$TAG160410
 70
     1
  0
ATTRIB
  5
FC
  8
0
 10
75.29999542236328
 20
171.8249969482422
 30
0.0
 40
2.449996948242188
  1

 41
0.9
  7
CADDY_VECTORFONT1P
 72
     2
 11
75.29999542236328
 21
171.8249969482422
 31
0.0
  2
$TAG160040
 70
     0
  0
ATTRIB
  5
FE
  8
0
 10
82.86799106750489
 20
169.1125030517578
 30
0.0
 40
2.449996948242188
  1
4
 41
0.9
  7
CADDY_VECTORFONT1P
 72
     2
 11
84.45999908447266
 21
169.1125030517578
 31
0.0
  2
$TAG160400
 70
     0
  0
ATTRIB
  5
100
  8
0
 10
83.55275583343506
 20
191.5500030517578
 30
0.0
 40
2.449996948242188
  1
=
 41
0.9
  7
CADDY_VECTORFONT1P
 72
     2
 11
84.90000915527344
 21
191.5500030517578
 31
0.0
  2
$TAG140020
 70
     1
  0
SEQEND
  5
F2
  8
0
  0
INSERT
  5
105
  8
0
 66
     1
  2
BLK6
 10
0.0
 20
0.0
 30
1.0
  0
ATTRIB
  5
106
  8
0
 10
85.29999542236328
 20
172.2499847412109
 30
0.0
 40
2.449996948242188
  1

 41
0.9
  7
CADDY_VECTORFONT1P
 72
     2
 11
85.29999542236328
 21
172.2499847412109
 31
0.0
  2
$TAG160040
 70
     0
  0
ATTRIB
  5
10B
  8
0
 10
90.09972250518798
 20
184.5500030517578
 30
0.0
 40
2.449996948242188
  1
X16
 41
0.9
  7
CADDY_VECTORFONT1P
 72
     2
 11
94.9000015258789
 21
184.5500030517578
 31
0.0
  2
$TAG160010
 70
     1
  0
ATTRIB
  5
10D
  8
0
 10
88.55274820404053
 20
183.0500030517578
 30
0.0
 40
2.449996948242188
  1
+
 41
0.9
  7
CADDY_VECTORFONT1P
 72
     2
 11
89.9000015258789
 21
183.0500030517578
 31
0.0
  2
$TAG140050
 70
     1
  0
ATTRIB
  5
10F
  8
0
 10
90.20472128448486
 20
172.7499847412109
 30
0.0
 40
2.449996948242188
  1
13
 41
0.9
  7
CADDY_VECTORFONT1P
 72
     2
 11
92.80000305175781
 21
172.7499847412109
 31
0.0
  2
$TAG160410
 70
     1
  0
ATTRIB
  5
111
  8
0
 10
85.29999542236328
 20
171.8249969482422
 30
0.0
 40
2.449996948242188
  1

 41
0.9
  7
CADDY_VECTORFONT1P
 72
     2
 11
85.29999542236328
 21
171.8249969482422
 31
0.0
  2
$TAG160040
 70
     0
  0
ATTRIB
  5
113
  8
0
 10
93.08849842224122
 20
169.1125030517578
 30
0.0
 40
2.449996948242188
  1
5
 41
0.9
  7
CADDY_VECTORFONT1P
 72
     2
 11
94.46000671386719
 21
169.1125030517578
 31
0.0
  2
$TAG160400
 70
     0
  0
ATTRIB
  5
115
  8
0
 10
93.55275583343506
 20
191.5500030517578
 30
0.0
 40
2.449996948242188
  1
=
 41
0.9
  7
CADDY_VECTORFONT1P
 72
     2
 11
94.90000915527344
 21
191.5500030517578
 31
0.0
  2
$TAG140020
 70
     1
  0
SEQEND
  5
107
  8
0
  0
INSERT
  5
11A
  8
0
 66
     1
  2
BLK7
 10
0.0
 20
0.0
 30
1.0
  0
ATTRIB
  5
11B
  8
0
 10
95.29999542236328
 20
172.2499847412109
 30
0.0
 40
2.449996948242188
  1

 41
0.9
  7
CADDY_VECTORFONT1P
 72
     2
 11
95.29999542236328
 21
172.2499847412109
 31
0.0
  2
$TAG160040
 70
     0
  0
ATTRIB
  5
120
  8
0
 10
99.60801574707031
 20
184.5500030517578
 30
0.0
 40
2.449996948242188
  1
X23
 41
0.9
  7
CADDY_VECTORFONT1P
 72
     2
 11
104.9000091552734
 21
184.5500030517578
 31
0.0
  2
$TAG160010
 70
     1
  0
ATTRIB
  5
122
  8
0
 10
98.55274820404053
 20
183.0500030517578
 30
0.0
 40
2.449996948242188
  1
+
 41
0.9
  7
CADDY_VECTORFONT1P
 72
     2
 11
99.9000015258789
 21
183.0500030517578
 31
0.0
  2
$TAG140050
 70
     1
  0
ATTRIB
  5
124
  8
0
 10
99.98421392974853
 20
172.7499847412109
 30
0.0
 40
2.449996948242188
  1
14
 41
0.9
  7
CADDY_VECTORFONT1P
 72
     2
 11
102.7999954223633
 21
172.7499847412109
 31
0.0
  2
$TAG160410
 70
     1
  0
ATTRIB
  5
126
  8
0
 10
95.29999542236328
 20
171.8249969482422
 30
0.0
 40
2.449996948242188
  1

 41
0.9
  7
CADDY_VECTORFONT1P
 72
     2
 11
95.29999542236328
 21
171.8249969482422
 31
0.0
  2
$TAG160040
 70
     0
  0
ATTRIB
  5
128
  8
0
 10
103.0884907928467
 20
169.1125030517578
 30
0.0
 40
2.449996948242188
  1
6
 41
0.9
  7
CADDY_VECTORFONT1P
 72
     2
 11
104.4599990844727
 21
169.1125030517578
 31
0.0
  2
$TAG160400
 70
     0
  0
ATTRIB
  5
12A
  8
0
 10
103.5527558334351
 20
191.5500030517578
 30
0.0
 40
2.449996948242188
  1
=
 41
0.9
  7
CADDY_VECTORFONT1P
 72
     2
 11
104.9000091552734
 21
191.5500030517578
 31
0.0
  2
$TAG140020
 70
     1
  0
SEQEND
  5
11C
  8
0
  0
INSERT
  5
12F
  8
0
 66
     1
  2
BLK8
 10
0.0
 20
0.0
 30
1.0
  0
ATTRIB
  5
130
  8
0
 10
105.2999954223633
 20
172.2499847412109
 30
0.0
 40
2.449996948242188
  1

 41
0.9
  7
CADDY_VECTORFONT1P
 72
     2
 11
105.2999954223633
 21
172.2499847412109
 31
0.0
  2
$TAG160040
 70
     0
  0
ATTRIB
  5
135
  8
0
 10
110.099722505188
 20
184.5500030517578
 30
0.0
 40
2.449996948242188
  1
X16
 41
0.9
  7
CADDY_VECTORFONT1P
 72
     2
 11
114.9000015258789
 21
184.5500030517578
 31
0.0
  2
$TAG160010
 70
     1
  0
ATTRIB
  5
137
  8
0
 10
108.5527482040405
 20
183.0500030517578
 30
0.0
 40
2.449996948242188
  1
+
 41
0.9
  7
CADDY_VECTORFONT1P
 72
     2
 11
109.9000015258789
 21
183.0500030517578
 31
0.0
  2
$TAG140050
 70
     1
  0
ATTRIB
  5
139
  8
0
 10
110.2047212844849
 20
172.7499847412109
 30
0.0
 40
2.449996948242188
  1
15
 41
0.9
  7
CADDY_VECTORFONT1P
 72
     2
 11
112.8000030517578
 21
172.7499847412109
 31
0.0
  2
$TAG160410
 70
     1
  0
ATTRIB
  5
13B
  8
0
 10
105.2999954223633
 20
171.8249969482422
 30
0.0
 40
2.449996948242188
  1

 41
0.9
  7
CADDY_VECTORFONT1P
 72
     2
 11
105.2999954223633
 21
171.8249969482422
 31
0.0
  2
$TAG160040
 70
     0
  0
ATTRIB
  5
13D
  8
0
 10
113.0818758010864
 20
169.1125030517578
 30
0.0
 40
2.449996948242188
  1
7
 41
0.9
  7
CADDY_VECTORFONT1P
 72
     2
 11
114.4599990844727
 21
169.1125030517578
 31
0.0
  2
$TAG160400
 70
     0
  0
ATTRIB
  5
13F
  8
0
 10
113.5527558334351
 20
191.5500030517578
 30
0.0
 40
2.449996948242188
  1
=
 41
0.9
  7
CADDY_VECTORFONT1P
 72
     2
 11
114.9000091552734
 21
191.5500030517578
 31
0.0
  2
$TAG140020
 70
     1
  0
SEQEND
  5
131
  8
0
  0
INSERT
  5
144
  8
0
 66
     1
  2
BLK9
 10
0.0
 20
0.0
 30
1.0
  0
ATTRIB
  5
145
  8
0
 10
115.2999954223633
 20
172.2499847412109
 30
0.0
 40
2.449996948242188
  1

 41
0.9
  7
CADDY_VECTORFONT1P
 72
     2
 11
115.2999954223633
 21
172.2499847412109
 31
0.0
  2
$TAG160040
 70
     0
  0
ATTRIB
  5
14A
  8
0
 10
120.099722505188
 20
184.5500030517578
 30
0.0
 40
2.449996948242188
  1
X16
 41
0.9
  7
CADDY_VECTORFONT1P
 72
     2
 11
124.9000015258789
 21
184.5500030517578
 31
0.0
  2
$TAG160010
 70
     1
  0
ATTRIB
  5
14C
  8
0
 10
118.5527482040405
 20
183.0500030517578
 30
0.0
 40
2.449996948242188
  1
+
 41
0.9
  7
CADDY_VECTORFONT1P
 72
     2
 11
119.9000015258789
 21
183.0500030517578
 31
0.0
  2
$TAG140050
 70
     1
  0
ATTRIB
  5
14E
  8
0
 10
120.2047136550903
 20
172.7499847412109
 30
0.0
 40
2.449996948242188
  1
16
 41
0.9
  7
CADDY_VECTORFONT1P
 72
     2
 11
122.7999954223633
 21
172.7499847412109
 31
0.0
  2
$TAG160410
 70
     1
  0
ATTRIB
  5
150
  8
0
 10
115.2999954223633
 20
171.8249969482422
 30
0.0
 40
2.449996948242188
  1

 41
0.9
  7
CADDY_VECTORFONT1P
 72
     2
 11
115.2999954223633
 21
171.8249969482422
 31
0.0
  2
$TAG160040
 70
     0
  0
ATTRIB
  5
152
  8
0
 10
123.0884907928467
 20
169.1125030517578
 30
0.0
 40
2.449996948242188
  1
8
 41
0.9
  7
CADDY_VECTORFONT1P
 72
     2
 11
124.4599990844727
 21
169.1125030517578
 31
0.0
  2
$TAG160400
 70
     0
  0
ATTRIB
  5
154
  8
0
 10
123.5527558334351
 20
191.5500030517578
 30
0.0
 40
2.449996948242188
  1
=
 41
0.9
  7
CADDY_VECTORFONT1P
 72
     2
 11
124.9000091552734
 21
191.5500030517578
 31
0.0
  2
$TAG140020
 70
     1
  0
SEQEND
  5
146
  8
0
  0
LINE
  5
156
  8
0
  6
CADDY_SOLID
 10
56.0
 20
181.0
 30
0.0
 11
56.0
 21
208.0
 31
0.0
  0
TEXT
  5
157
  8
0
 10
63.55275583343506
 20
191.5500030517578
 30
0.0
 40
2.449996948242188
  1
=
 41
0.9
  7
CADDY_VECTORFONT1P
 72
     2
 11
64.90000915527344
 21
191.5500030517578
 31
0.0
  0
LINE
  5
158
  8
0
  6
CADDY_SOLID
 10
66.0
 20
181.0
 30
0.0
 11
66.0
 21
208.0
 31
0.0
  0
TEXT
  5
159
  8
0
 10
73.55275583343506
 20
191.5500030517578
 30
0.0
 40
2.449996948242188
  1
=
 41
0.9
  7
CADDY_VECTORFONT1P
 72
     2
 11
74.90000915527344
 21
191.5500030517578
 31
0.0
  0
LINE
  5
15A
  8
0
  6
CADDY_SOLID
 10
76.0
 20
181.0
 30
0.0
 11
76.0
 21
208.0
 31
0.0
  0
TEXT
  5
15B
  8
0
 10
83.55275583343506
 20
191.5500030517578
 30
0.0
 40
2.449996948242188
  1
=
 41
0.9
  7
CADDY_VECTORFONT1P
 72
     2
 11
84.90000915527344
 21
191.5500030517578
 31
0.0
  0
LINE
  5
15C
  8
0
  6
CADDY_SOLID
 10
86.0
 20
181.0
 30
0.0
 11
86.0
 21
208.0
 31
0.0
  0
TEXT
  5
15D
  8
0
 10
108.5527558334351
 20
191.5500030517578
 30
0.0
 40
2.449996948242188
  1
=
 41
0.9
  7
CADDY_VECTORFONT1P
 72
     2
 11
109.9000091552734
 21
191.5500030517578
 31
0.0
  0
TEXT
  5
15E
  8
0
 10
103.5527558334351
 20
191.5500030517578
 30
0.0
 40
2.449996948242188
  1
=
 41
0.9
  7
CADDY_VECTORFONT1P
 72
     2
 11
104.9000091552734
 21
191.5500030517578
 31
0.0
  0
LINE
  5
15F
  8
0
  6
CADDY_SOLID
 10
106.0
 20
181.0
 30
0.0
 11
106.0
 21
208.0
 31
0.0
  0
TEXT
  5
160
  8
0
 10
113.5527558334351
 20
191.5500030517578
 30
0.0
 40
2.449996948242188
  1
=
 41
0.9
  7
CADDY_VECTORFONT1P
 72
     2
 11
114.9000091552734
 21
191.5500030517578
 31
0.0
  0
LINE
  5
161
  8
0
  6
CADDY_SOLID
 10
116.0
 20
181.0
 30
0.0
 11
116.0
 21
208.0
 31
0.0
  0
TEXT
  5
162
  8
0
 10
123.5527558334351
 20
191.5500030517578
 30
0.0
 40
2.449996948242188
  1
=
 41
0.9
  7
CADDY_VECTORFONT1P
 72
     2
 11
124.9000091552734
 21
191.5500030517578
 31
0.0
  0
LINE
  5
163
  8
0
  6
CADDY_SOLID
 10
126.0
 20
181.0
 30
0.0
 11
126.0
 21
208.0
 31
0.0
  0
INSERT
  5
167
  8
0
 66
     1
  2
BLK10
 10
0.0
 20
0.0
 30
1.0
  0
ATTRIB
  5
168
  8
0
 10
125.2999954223633
 20
172.2499847412109
 30
0.0
 40
2.449996948242188
  1

 41
0.9
  7
CADDY_VECTORFONT1P
 72
     2
 11
125.2999954223633
 21
172.2499847412109
 31
0.0
  2
$TAG160040
 70
     0
  0
ATTRIB
  5
16D
  8
0
 10
129.6014160140991
 20
184.5500030517578
 30
0.0
 40
2.449996948242188
  1
X27
 41
0.9
  7
CADDY_VECTORFONT1P
 72
     2
 11
134.9000244140625
 21
184.5500030517578
 31
0.0
  2
$TAG160010
 70
     1
  0
ATTRIB
  5
16F
  8
0
 10
128.552740574646
 20
183.0500030517578
 30
0.0
 40
2.449996948242188
  1
+
 41
0.9
  7
CADDY_VECTORFONT1P
 72
     2
 11
129.8999938964844
 21
183.0500030517578
 31
0.0
  2
$TAG140050
 70
     1
  0
ATTRIB
  5
171
  8
0
 10
130.1981062927246
 20
172.7499847412109
 30
0.0
 40
2.449996948242188
  1
17
 41
0.9
  7
CADDY_VECTORFONT1P
 72
     2
 11
132.8000030517578
 21
172.7499847412109
 31
0.0
  2
$TAG160410
 70
     1
  0
ATTRIB
  5
173
  8
0
 10
125.2999954223633
 20
171.8249969482422
 30
0.0
 40
2.449996948242188
  1

 41
0.9
  7
CADDY_VECTORFONT1P
 72
     2
 11
125.2999954223633
 21
171.8249969482422
 31
0.0
  2
$TAG160040
 70
     0
  0
ATTRIB
  5
175
  8
0
 10
133.0884984222412
 20
169.1125030517578
 30
0.0
 40
2.449996948242188
  1
9
 41
0.9
  7
CADDY_VECTORFONT1P
 72
     2
 11
134.4600067138672
 21
169.1125030517578
 31
0.0
  2
$TAG160400
 70
     0
  0
ATTRIB
  5
177
  8
0
 10
133.5527558334351
 20
191.5500030517578
 30
0.0
 40
2.449996948242188
  1
=
 41
0.9
  7
CADDY_VECTORFONT1P
 72
     2
 11
134.9000091552734
 21
191.5500030517578
 31
0.0
  2
$TAG140020
 70
     1
  0
SEQEND
  5
169
  8
0
  0
INSERT
  5
17C
  8
0
 66
     1
  2
BLK11
 10
0.0
 20
0.0
 30
1.0
  0
ATTRIB
  5
17D
  8
0
 10
135.3000030517578
 20
172.2499847412109
 30
0.0
 40
2.449996948242188
  1

 41
0.9
  7
CADDY_VECTORFONT1P
 72
     2
 11
135.3000030517578
 21
172.2499847412109
 31
0.0
  2
$TAG160040
 70
     0
  0
ATTRIB
  5
182
  8
0
 10
140.0997301345825
 20
184.5500030517578
 30
0.0
 40
2.449996948242188
  1
X16
 41
0.9
  7
CADDY_VECTORFONT1P
 72
     2
 11
144.9000091552734
 21
184.5500030517578
 31
0.0
  2
$TAG160010
 70
     1
  0
ATTRIB
  5
184
  8
0
 10
138.552740574646
 20
183.0500030517578
 30
0.0
 40
2.449996948242188
  1
+
 41
0.9
  7
CADDY_VECTORFONT1P
 72
     2
 11
139.8999938964844
 21
183.0500030517578
 31
0.0
  2
$TAG140050
 70
     1
  0
ATTRIB
  5
186
  8
0
 10
140.2047212844849
 20
172.7499847412109
 30
0.0
 40
2.449996948242188
  1
18
 41
0.9
  7
CADDY_VECTORFONT1P
 72
     2
 11
142.8000030517578
 21
172.7499847412109
 31
0.0
  2
$TAG160410
 70
     1
  0
ATTRIB
  5
188
  8
0
 10
135.3000030517578
 20
171.8249969482422
 30
0.0
 40
2.449996948242188
  1

 41
0.9
  7
CADDY_VECTORFONT1P
 72
     2
 11
135.3000030517578
 21
171.8249969482422
 31
0.0
  2
$TAG160040
 70
     0
  0
ATTRIB
  5
18A
  8
0
 10
141.8647249465942
 20
169.1125030517578
 30
0.0
 40
2.449996948242188
  1
10
 41
0.9
  7
CADDY_VECTORFONT1P
 72
     2
 11
144.4600067138672
 21
169.1125030517578
 31
0.0
  2
$TAG160400
 70
     0
  0
ATTRIB
  5
18C
  8
0
 10
143.5527558334351
 20
191.5500030517578
 30
0.0
 40
2.449996948242188
  1
=
 41
0.9
  7
CADDY_VECTORFONT1P
 72
     2
 11
144.9000091552734
 21
191.5500030517578
 31
0.0
  2
$TAG140020
 70
     1
  0
SEQEND
  5
17E
  8
0
  0
INSERT
  5
191
  8
0
 66
     1
  2
BLK12
 10
0.0
 20
0.0
 30
1.0
  0
ATTRIB
  5
192
  8
0
 10
145.3000030517578
 20
172.2499847412109
 30
0.0
 40
2.449996948242188
  1

 41
0.9
  7
CADDY_VECTORFONT1P
 72
     2
 11
145.3000030517578
 21
172.2499847412109
 31
0.0
  2
$TAG160040
 70
     0
  0
ATTRIB
  5
197
  8
0
 10
152.3201623687744
 20
184.5500030517578
 30
0.0
 40
2.449996948242188
  1
12
 41
0.9
  7
CADDY_VECTORFONT1P
 72
     2
 11
154.9000091552734
 21
184.5500030517578
 31
0.0
  2
$TAG160010
 70
     1
  0
ATTRIB
  5
199
  8
0
 10
148.552740574646
 20
183.0500030517578
 30
0.0
 40
2.449996948242188
  1
+
 41
0.9
  7
CADDY_VECTORFONT1P
 72
     2
 11
149.8999938964844
 21
183.0500030517578
 31
0.0
  2
$TAG140050
 70
     1
  0
ATTRIB
  5
19B
  8
0
 10
150.2047212844849
 20
172.7499847412109
 30
0.0
 40
2.449996948242188
  1
19
 41
0.9
  7
CADDY_VECTORFONT1P
 72
     2
 11
152.8000030517578
 21
172.7499847412109
 31
0.0
  2
$TAG160410
 70
     1
  0
ATTRIB
  5
19D
  8
0
 10
145.3000030517578
 20
171.8249969482422
 30
0.0
 40
2.449996948242188
  1

 41
0.9
  7
CADDY_VECTORFONT1P
 72
     2
 11
145.3000030517578
 21
171.8249969482422
 31
0.0
  2
$TAG160040
 70
     0
  0
ATTRIB
  5
19F
  8
0
 10
152.354219078064
 20
169.1125030517578
 30
0.0
 40
2.449996948242188
  1
11
 41
0.9
  7
CADDY_VECTORFONT1P
 72
     2
 11
154.4599914550781
 21
169.1125030517578
 31
0.0
  2
$TAG160400
 70
     0
  0
ATTRIB
  5
1A1
  8
0
 10
153.5527558334351
 20
191.5500030517578
 30
0.0
 40
2.449996948242188
  1
=
 41
0.9
  7
CADDY_VECTORFONT1P
 72
     2
 11
154.9000091552734
 21
191.5500030517578
 31
0.0
  2
$TAG140020
 70
     1
  0
SEQEND
  5
193
  8
0
  0
INSERT
  5
1A6
  8
0
 66
     1
  2
BLK13
 10
0.0
 20
0.0
 30
1.0
  0
ATTRIB
  5
1A7
  8
0
 10
155.3000030517578
 20
172.2499847412109
 30
0.0
 40
2.449996948242188
  1

 41
0.9
  7
CADDY_VECTORFONT1P
 72
     2
 11
155.3000030517578
 21
172.2499847412109
 31
0.0
  2
$TAG160040
 70
     0
  0
ATTRIB
  5
1AC
  8
0
 10
160.1151651153564
 20
184.5500030517578
 30
0.0
 40
2.449996948242188
  1
X12
 41
0.9
  7
CADDY_VECTORFONT1P
 72
     2
 11
164.9000091552734
 21
184.5500030517578
 31
0.0
  2
$TAG160010
 70
     1
  0
ATTRIB
  5
1AE
  8
0
 10
158.552740574646
 20
183.0500030517578
 30
0.0
 40
2.449996948242188
  1
+
 41
0.9
  7
CADDY_VECTORFONT1P
 72
     2
 11
159.8999938964844
 21
183.0500030517578
 31
0.0
  2
$TAG140050
 70
     1
  0
ATTRIB
  5
1B0
  8
0
 10
159.7130068969726
 20
172.7499847412109
 30
0.0
 40
2.449996948242188
  1
20
 41
0.9
  7
CADDY_VECTORFONT1P
 72
     2
 11
162.8000030517578
 21
172.7499847412109
 31
0.0
  2
$TAG160410
 70
     1
  0
ATTRIB
  5
1B2
  8
0
 10
155.3000030517578
 20
171.8249969482422
 30
0.0
 40
2.449996948242188
  1

 41
0.9
  7
CADDY_VECTORFONT1P
 72
     2
 11
155.3000030517578
 21
171.8249969482422
 31
0.0
  2
$TAG160040
 70
     0
  0
ATTRIB
  5
1B4
  8
0
 10
161.8801599273682
 20
169.1125030517578
 30
0.0
 40
2.449996948242188
  1
12
 41
0.9
  7
CADDY_VECTORFONT1P
 72
     2
 11
164.4600067138672
 21
169.1125030517578
 31
0.0
  2
$TAG160400
 70
     0
  0
ATTRIB
  5
1B6
  8
0
 10
163.5527558334351
 20
191.5500030517578
 30
0.0
 40
2.449996948242188
  1
=
 41
0.9
  7
CADDY_VECTORFONT1P
 72
     2
 11
164.9000091552734
 21
191.5500030517578
 31
0.0
  2
$TAG140020
 70
     1
  0
SEQEND
  5
1A8
  8
0
  0
TEXT
  5
1B8
  8
0
 10
133.5527558334351
 20
191.5500030517578
 30
0.0
 40
2.449996948242188
  1
=
 41
0.9
  7
CADDY_VECTORFONT1P
 72
     2
 11
134.9000091552734
 21
191.5500030517578
 31
0.0
  0
TEXT
  5
1B9
  8
0
 10
143.5527558334351
 20
191.5500030517578
 30
0.0
 40
2.449996948242188
  1
=
 41
0.9
  7
CADDY_VECTORFONT1P
 72
     2
 11
144.9000091552734
 21
191.5500030517578
 31
0.0
  0
LINE
  5
1BA
  8
0
  6
CADDY_SOLID
 10
146.0
 20
181.0
 30
0.0
 11
146.0
 21
208.0
 31
0.0
  0
TEXT
  5
1BB
  8
0
 10
153.5527558334351
 20
191.5500030517578
 30
0.0
 40
2.449996948242188
  1
=
 41
0.9
  7
CADDY_VECTORFONT1P
 72
     2
 11
154.9000091552734
 21
191.5500030517578
 31
0.0
  0
LINE
  5
1BC
  8
0
  6
CADDY_SOLID
 10
156.0
 20
181.0
 30
0.0
 11
156.0
 21
208.0
 31
0.0
  0
TEXT
  5
1BD
  8
0
 10
163.5527558334351
 20
191.5500030517578
 30
0.0
 40
2.449996948242188
  1
=
 41
0.9
  7
CADDY_VECTORFONT1P
 72
     2
 11
164.9000091552734
 21
191.5500030517578
 31
0.0
  0
LINE
  5
1BE
  8
0
  6
CADDY_SOLID
 10
166.0
 20
181.0
 30
0.0
 11
166.0
 21
208.0
 31
0.0
  0
TEXT
  5
1BF
  8
0
 10
173.1000061035156
 20
251.0
 30
0.0
 40
3.5
  1
BOKS 1
 41
0.9
  7
CADDY_VECTORFONT1P
  0
TEXT
  5
1C0
  8
0
 10
168.1000061035156
 20
241.0
 30
0.0
 40
3.5
  1
16 POL STIK 
 41
0.9
  7
CADDY_VECTORFONT1P
  0
TEXT
  5
1C1
  8
0
 10
198.1000061035156
 20
236.0
 30
0.0
 40
3.5
  1
W1901
 41
0.9
  7
CADDY_VECTORFONT1P
  0
LINE
  5
1C2
  8
0
  6
CADDY_SOLID
 10
96.0
 20
181.0
 30
0.0
 11
96.0
 21
208.0
 31
0.0
  0
LINE
  5
1C3
  8
0
  6
CADDY_SOLID
 10
136.0
 20
181.0
 30
0.0
 11
136.0
 21
208.0
 31
0.0
  0
TEXT
  5
1C4
  8
0
 10
54.19999694824219
 20
93.0999984741211
 30
0.0
 40
2.799995422363281
  1
Encoder
 50
90.0
 41
0.9
  7
CADDY_VECTORFONT1P
  0
TEXT
  5
1C5
  8
0
 10
64.19999694824219
 20
93.0999984741211
 30
0.0
 40
2.799995422363281
  1
Encoder
 50
90.0
 41
0.9
  7
CADDY_VECTORFONT1P
  0
TEXT
  5
1C6
  8
0
 10
74.19999694824219
 20
93.0999984741211
 30
0.0
 40
2.799995422363281
  1
Encoder
 50
90.0
 41
0.9
  7
CADDY_VECTORFONT1P
  0
TEXT
  5
1C7
  8
0
 10
84.19999694824219
 20
93.0999984741211
 30
0.0
 40
2.799995422363281
  1
Encoder
 50
90.0
 41
0.9
  7
CADDY_VECTORFONT1P
  0
TEXT
  5
1C8
  8
0
 10
94.19999694824219
 20
93.0999984741211
 30
0.0
 40
2.799995422363281
  1
Encoder
 50
90.0
 41
0.9
  7
CADDY_VECTORFONT1P
  0
TEXT
  5
1C9
  8
0
 10
104.1999969482422
 20
93.0999984741211
 30
0.0
 40
2.799995422363281
  1
Encoder
 50
90.0
 41
0.9
  7
CADDY_VECTORFONT1P
  0
TEXT
  5
1CA
  8
0
 10
114.1999969482422
 20
93.0999984741211
 30
0.0
 40
2.799995422363281
  1
Encoder
 50
90.0
 41
0.9
  7
CADDY_VECTORFONT1P
  0
TEXT
  5
1CB
  8
0
 10
124.1999969482422
 20
93.0999984741211
 30
0.0
 40
2.799995422363281
  1
Encoder
 50
90.0
 41
0.9
  7
CADDY_VECTORFONT1P
  0
TEXT
  5
1CC
  8
0
 10
134.1999969482422
 20
93.10000610351562
 30
0.0
 40
2.799995422363281
  1
Encoder
 50
90.0
 41
0.9
  7
CADDY_VECTORFONT1P
  0
TEXT
  5
1CD
  8
0
 10
144.1999969482422
 20
93.10000610351562
 30
0.0
 40
2.799995422363281
  1
Encoder
 50
90.0
 41
0.9
  7
CADDY_VECTORFONT1P
  0
TEXT
  5
1CE
  8
0
 10
154.1999969482422
 20
93.10000610351562
 30
0.0
 40
2.799995422363281
  1
Encoder
 50
90.0
 41
0.9
  7
CADDY_VECTORFONT1P
  0
TEXT
  5
1CF
  8
0
 10
164.1999969482422
 20
93.10000610351562
 30
0.0
 40
2.799995422363281
  1
Encoder
 50
90.0
 41
0.9
  7
CADDY_VECTORFONT1P
  0
TEXT
  5
1D0
  8
0
 10
54.19999694824219
 20
113.0999984741211
 30
0.0
 40
2.799995422363281
  1
Langbufferskub-motor
 50
90.0
 41
0.9
  7
CADDY_VECTORFONT1P
  0
TEXT
  5
1D1
  8
0
 10
64.19999694824219
 20
113.0999984741211
 30
0.0
 40
2.799995422363281
  1
Langbufferskub-motor
 50
90.0
 41
0.9
  7
CADDY_VECTORFONT1P
  0
TEXT
  5
1D2
  8
0
 10
74.19999694824219
 20
113.0999984741211
 30
0.0
 40
2.799995422363281
  1
Langbufferskub-motor
 50
90.0
 41
0.9
  7
CADDY_VECTORFONT1P
  0
TEXT
  5
1D3
  8
0
 10
84.19999694824219
 20
113.0999984741211
 30
0.0
 40
2.799995422363281
  1
Langbufferskub-motor
 50
90.0
 41
0.9
  7
CADDY_VECTORFONT1P
  0
TEXT
  5
1D4
  8
0
 10
94.19999694824219
 20
113.0999984741211
 30
0.0
 40
2.799995422363281
  1
Buffermotor
 50
90.0
 41
0.9
  7
CADDY_VECTORFONT1P
  0
TEXT
  5
1D5
  8
0
 10
104.1999969482422
 20
113.0999984741211
 30
0.0
 40
2.799995422363281
  1
Buffermotor
 50
90.0
 41
0.9
  7
CADDY_VECTORFONT1P
  0
TEXT
  5
1D6
  8
0
 10
114.1999969482422
 20
113.0999984741211
 30
0.0
 40
2.799995422363281
  1
Buffermotor
 50
90.0
 41
0.9
  7
CADDY_VECTORFONT1P
  0
TEXT
  5
1D7
  8
0
 10
134.1999969482422
 20
113.1000061035156
 30
0.0
 40
2.799995422363281
  1
Kasseløfter-motor
 50
90.0
 41
0.9
  7
CADDY_VECTORFONT1P
  0
TEXT
  5
1D8
  8
0
 10
124.1999969482422
 20
113.0999984741211
 30
0.0
 40
2.799995422363281
  1
Buffermotor
 50
90.0
 41
0.9
  7
CADDY_VECTORFONT1P
  0
TEXT
  5
1D9
  8
0
 10
144.1999969482422
 20
113.1000061035156
 30
0.0
 40
2.799995422363281
  1
Kasseløfter-motor
 50
90.0
 41
0.9
  7
CADDY_VECTORFONT1P
  0
TEXT
  5
1DA
  8
0
 10
154.1999969482422
 20
113.1000061035156
 30
0.0
 40
2.799995422363281
  1
Kasseløfter-motor
 50
90.0
 41
0.9
  7
CADDY_VECTORFONT1P
  0
TEXT
  5
1DB
  8
0
 10
164.1999969482422
 20
113.1000061035156
 30
0.0
 40
2.799995422363281
  1
Kasseløfter-motor
 50
90.0
 41
0.9
  7
CADDY_VECTORFONT1P
  0
ENDSEC
  0
EOF
