  0
SECTION
  2
HEADER
  9
$ACADVER
  1
AC1006
  9
$DWGCODEPAGE
  3
ansi_1252
  9
$INSBASE
 10
0.0
 20
0.0
 30
0.0
  9
$EXTMIN
 10
0.0
 20
0.0
  9
$EXTMAX
 10
420.0
 20
297.0
  9
$LIMMIN
 10
0.0
 20
0.0
  9
$LIMMAX
 10
420.0
 20
297.0
  9
$ORTHOMODE
 70
     0
  9
$REGENMODE
 70
     1
  9
$FILLMODE
 70
     1
  9
$QTEXTMODE
 70
     0
  9
$MIRRTEXT
 70
     1
  9
$DRAGMODE
 70
     2
  9
$LTSCALE
 40
1.0
  9
$OSMODE
 70
    37
  9
$ATTMODE
 70
     1
  9
$TEXTSIZE
 40
2.5
  9
$TRACEWID
 40
1.0
  9
$TEXTSTYLE
  7
STANDARD
  9
$CLAYER
  8
0
  9
$CELTYPE
  6
BYLAYER
  9
$CECOLOR
 62
   256
  9
$DIMSCALE
 40
1.0
  9
$DIMASZ
 40
2.5
  9
$DIMEXO
 40
0.625
  9
$DIMDLI
 40
3.75
  9
$DIMRND
 40
0.0
  9
$DIMDLE
 40
0.0
  9
$DIMEXE
 40
1.25
  9
$DIMTP
 40
0.0
  9
$DIMTM
 40
0.0
  9
$DIMTXT
 40
2.5
  9
$DIMCEN
 40
2.5
  9
$DIMTSZ
 40
0.0
  9
$DIMTOL
 70
     0
  9
$DIMLIM
 70
     0
  9
$DIMTIH
 70
     0
  9
$DIMTOH
 70
     0
  9
$DIMSE1
 70
     0
  9
$DIMSE2
 70
     0
  9
$DIMTAD
 70
     1
  9
$DIMZIN
 70
     8
  9
$DIMBLK
  1

  9
$DIMASO
 70
     1
  9
$DIMSHO
 70
     1
  9
$DIMPOST
  1

  9
$DIMAPOST
  1

  9
$DIMALT
 70
     0
  9
$DIMALTD
 70
     3
  9
$DIMALTF
 40
0.03937007874016
  9
$DIMLFAC
 40
1.0
  9
$DIMTOFL
 70
     1
  9
$DIMTVP
 40
0.0
  9
$DIMTIX
 70
     0
  9
$DIMSOXD
 70
     0
  9
$DIMSAH
 70
     0
  9
$DIMBLK1
  1

  9
$DIMBLK2
  1

  9
$LUNITS
 70
     2
  9
$LUPREC
 70
     4
  9
$SKETCHINC
 40
1.0
  9
$FILLETRAD
 40
10.0
  9
$AUNITS
 70
     0
  9
$AUPREC
 70
     0
  9
$MENU
  1
.
  9
$ELEVATION
 40
0.0
  9
$THICKNESS
 40
0.0
  9
$LIMCHECK
 70
     0
  9
$CHAMFERA
 40
10.0
  9
$CHAMFERB
 40
10.0
  9
$SKPOLY
 70
     0
  9
$TDCREATE
 40
2451930.666666667
  9
$TDUPDATE
 40
2460738.482376354
  9
$TDINDWG
 40
0.0000000116
  9
$TDUSRTIMER
 40
0.0000000116
  9
$USRTIMER
 70
     1
  9
$ANGBASE
 50
0.0
  9
$ANGDIR
 70
     0
  9
$PDMODE
 70
     0
  9
$PDSIZE
 40
0.0
  9
$PLINEWID
 40
0.0
  9
$COORDS
 70
     1
  9
$SPLFRAME
 70
     0
  9
$SPLINETYPE
 70
     6
  9
$SPLINESEGS
 70
     8
  9
$ATTDIA
 70
     0
  9
$ATTREQ
 70
     1
  9
$HANDLING
 70
     1
  9
$HANDSEED
  5
45C
  9
$SURFTAB1
 70
     6
  9
$SURFTAB2
 70
     6
  9
$SURFTYPE
 70
     6
  9
$SURFU
 70
     6
  9
$SURFV
 70
     6
  9
$UCSNAME
  2

  9
$UCSORG
 10
0.0
 20
0.0
 30
0.0
  9
$UCSXDIR
 10
1.0
 20
0.0
 30
0.0
  9
$UCSYDIR
 10
0.0
 20
1.0
 30
0.0
  9
$USERI1
 70
     0
  9
$USERI2
 70
     0
  9
$USERI3
 70
     0
  9
$USERI4
 70
     0
  9
$USERI5
 70
     0
  9
$USERR1
 40
0.0
  9
$USERR2
 40
0.0
  9
$USERR3
 40
0.0
  9
$USERR4
 40
0.0
  9
$USERR5
 40
0.0
  9
$WORLDVIEW
 70
     1
  0
ENDSEC
  0
SECTION
  2
TABLES
  0
TABLE
  2
VPORT
 70
     1
  0
VPORT
  2
*ACTIVE
 70
     0
 10
0.0
 20
0.0
 11
1.0
 21
1.0
 12
210.0
 22
142.5
 13
0.0
 23
0.0
 14
10.0
 24
10.0
 15
10.0
 25
10.0
 16
0.0
 26
0.0
 36
1.0
 17
0.0
 27
0.0
 37
0.0
 40
270.3
 41
1.972972972850329
 42
50.0
 43
0.0
 44
0.0
 50
0.0
 51
0.0
 71
     0
 72
   100
 73
     1
 74
     3
 75
     0
 76
     0
 77
     0
 78
     0
  0
ENDTAB
  0
TABLE
  2
LTYPE
 70
     6
  0
LTYPE
  2
CONTINUOUS
 70
     0
  3
Solid line
 72
    65
 73
     0
 40
0.0
  0
LTYPE
  2
CADDY_SOLID
 70
     0
  3
____________
 72
    65
 73
     0
 40
0.0
  0
LTYPE
  2
CADDY_DOT
 70
     0
  3
. . . . . . 
 72
    65
 73
     2
 40
2.0
 49
0.5
 49
-1.5
  0
LTYPE
  2
CADDY_DASH
 70
     0
  3
_ _ _ _ _ _ 
 72
    65
 73
     2
 40
3.5
 49
2.0
 49
-1.5
  0
LTYPE
  2
CADDY_DASHDOT
 70
     0
  3
_ . _ . _ . 
 72
    65
 73
     4
 40
5.5
 49
0.5
 49
-1.5
 49
2.0
 49
-1.5
  0
LTYPE
  2
CADDY_DASHDOTDOT
 70
     0
  3
_ . . _ . . 
 72
    65
 73
     6
 40
7.5
 49
2.0
 49
-1.5
 49
0.5
 49
-1.5
 49
0.5
 49
-1.5
  0
ENDTAB
  0
TABLE
  2
LAYER
 70
     2
  0
LAYER
  2
0
 70
     0
 62
     7
  6
CONTINUOUS
  0
LAYER
  2
2
 70
     0
 62
     7
  6
CONTINUOUS
  0
ENDTAB
  0
TABLE
  2
STYLE
 70
    17
  0
STYLE
  2
STANDARD
 70
     0
 40
0.0
 41
1.0
 50
0.0
 71
     0
 42
2.5
  3
txt
  4

  0
STYLE
  2
CADDY_VECTORFONT1P
 70
     0
 40
0.0
 41
0.9
 50
0.0
 71
     0
 42
0.2
  3
isocp___.ttf
  4

  0
STYLE
  2
CADDY_VECTORFONT1N
 70
     0
 40
0.0
 41
1.100000023841858
 50
0.0
 71
     0
 42
0.2
  3

  4

  0
STYLE
  2
CADDY_VECTORFONT2P
 70
     0
 40
0.0
 41
1.35
 50
0.0
 71
     0
 42
0.2
  3

  4

  0
STYLE
  2
CADDY_VECTORFONT2N
 70
     0
 40
0.0
 41
1.549999952316284
 50
0.0
 71
     0
 42
0.2
  3

  4

  0
STYLE
  2
CADDY_VECTORFONT3P
 70
     0
 40
0.0
 41
1.3
 50
0.0
 71
     0
 42
0.2
  3

  4

  0
STYLE
  2
CADDY_VECTORFONT3N
 70
     0
 40
0.0
 41
1.5
 50
0.0
 71
     0
 42
0.2
  3

  4

  0
STYLE
  2
CADDY_VECTORFONT4P
 70
     0
 40
0.0
 41
1.1
 50
0.0
 71
     0
 42
0.2
  3

  4

  0
STYLE
  2
CADDY_VECTORFONT4N
 70
     0
 40
0.0
 41
1.299999952316284
 50
0.0
 71
     0
 42
0.2
  3

  4

  0
STYLE
  2
CADDY_VECTORFONT5P
 70
     0
 40
0.0
 41
1.0
 50
0.0
 71
     0
 42
0.2
  3

  4

  0
STYLE
  2
CADDY_VECTORFONT5N
 70
     0
 40
0.0
 41
1.200000047683716
 50
0.0
 71
     0
 42
0.2
  3

  4

  0
STYLE
  2
CADDY_VECTORFONT6P
 70
     0
 40
0.0
 41
0.9
 50
0.0
 71
     0
 42
0.2
  3

  4

  0
STYLE
  2
CADDY_VECTORFONT6N
 70
     0
 40
0.0
 41
1.100000023841858
 50
0.0
 71
     0
 42
0.2
  3

  4

  0
STYLE
  2
CADDY_VECTORFONT7P
 70
     0
 40
0.0
 41
1.3
 50
0.0
 71
     0
 42
0.2
  3

  4

  0
STYLE
  2
CADDY_VECTORFONT7N
 70
     0
 40
0.0
 41
1.5
 50
0.0
 71
     0
 42
0.2
  3

  4

  0
STYLE
  2
CADDY_VECTORFONT8P
 70
     0
 40
0.0
 41
1.5
 50
0.0
 71
     0
 42
0.2
  3

  4

  0
STYLE
  2
CADDY_VECTORFONT8N
 70
     0
 40
0.0
 41
1.700000047683716
 50
0.0
 71
     0
 42
0.2
  3

  4

  0
ENDTAB
  0
TABLE
  2
VIEW
 70
     0
  0
ENDTAB
  0
TABLE
  2
UCS
 70
     0
  0
ENDTAB
  0
ENDSEC
  0
SECTION
  2
BLOCKS
  0
BLOCK
  8
0
  2
BLK1
 70
     0
 10
0.0
 20
0.0
 30
0.0
  0
LINE
  5
44
  8
0
  6
CADDY_SOLID
 10
10.0
 20
10.0
 30
0.0
 11
10.0
 21
275.0
 31
0.0
  0
LINE
  5
45
  8
0
  6
CADDY_SOLID
 10
10.0
 20
275.0
 30
0.0
 11
410.0
 21
275.0
 31
0.0
  0
LINE
  5
46
  8
0
  6
CADDY_SOLID
 10
410.0
 20
275.0
 30
0.0
 11
410.0
 21
10.0
 31
0.0
  0
LINE
  5
47
  8
0
  6
CADDY_SOLID
 10
50.0
 20
270.0
 30
0.0
 11
50.0
 21
275.0
 31
0.0
  0
TEXT
  5
48
  8
0
 10
29.14336390228272
 20
271.2000122070312
 30
0.0
 40
2.449981689453125
  1
0
 41
0.9
  7
CADDY_VECTORFONT1P
 72
     1
 11
30.0
 21
271.2000122070312
 31
0.0
  0
TEXT
  5
49
  8
0
 10
30.0
 20
265.2000122070312
 30
0.0
 40
2.449981689453125
  1

 41
0.9
  7
CADDY_VECTORFONT1P
 72
     1
 11
30.0
 21
265.2000122070312
 31
0.0
  0
LINE
  5
4A
  8
0
  6
CADDY_SOLID
 10
90.0
 20
270.0
 30
0.0
 11
90.0
 21
275.0
 31
0.0
  0
LINE
  5
4B
  8
0
  6
CADDY_SOLID
 10
130.0
 20
270.0
 30
0.0
 11
130.0
 21
275.0
 31
0.0
  0
LINE
  5
4C
  8
0
  6
CADDY_SOLID
 10
170.0
 20
270.0
 30
0.0
 11
170.0
 21
275.0
 31
0.0
  0
LINE
  5
4D
  8
0
  6
CADDY_SOLID
 10
210.0
 20
270.0
 30
0.0
 11
210.0
 21
275.0
 31
0.0
  0
LINE
  5
4E
  8
0
  6
CADDY_SOLID
 10
250.0
 20
270.0
 30
0.0
 11
250.0
 21
275.0
 31
0.0
  0
LINE
  5
4F
  8
0
  6
CADDY_SOLID
 10
290.0
 20
270.0
 30
0.0
 11
290.0
 21
275.0
 31
0.0
  0
LINE
  5
50
  8
0
  6
CADDY_SOLID
 10
330.0
 20
270.0
 30
0.0
 11
330.0
 21
275.0
 31
0.0
  0
LINE
  5
51
  8
0
  6
CADDY_SOLID
 10
370.0
 20
270.0
 30
0.0
 11
370.0
 21
275.0
 31
0.0
  0
TEXT
  5
52
  8
0
 10
69.38369947662353
 20
271.2000122070312
 30
0.0
 40
2.449981689453125
  1
1
 41
0.9
  7
CADDY_VECTORFONT1P
 72
     1
 11
69.99999237060547
 21
271.2000122070312
 31
0.0
  0
TEXT
  5
53
  8
0
 10
109.1610037704468
 20
271.2000122070312
 30
0.0
 40
2.449981689453125
  1
2
 41
0.9
  7
CADDY_VECTORFONT1P
 72
     1
 11
110.0
 21
271.2000122070312
 31
0.0
  0
TEXT
  5
54
  8
0
 10
149.1312364929199
 20
271.2000122070312
 30
0.0
 40
2.449981689453125
  1
3
 41
0.9
  7
CADDY_VECTORFONT1P
 72
     1
 11
150.0
 21
271.2000122070312
 31
0.0
  0
TEXT
  5
55
  8
0
 10
189.0364222015381
 20
271.2000122070312
 30
0.0
 40
2.449981689453125
  1
4
 41
0.9
  7
CADDY_VECTORFONT1P
 72
     1
 11
190.0
 21
271.2000122070312
 31
0.0
  0
TEXT
  5
56
  8
0
 10
229.1433639022827
 20
271.2000122070312
 30
0.0
 40
2.449981689453125
  1
5
 41
0.9
  7
CADDY_VECTORFONT1P
 72
     1
 11
230.0
 21
271.2000122070312
 31
0.0
  0
TEXT
  5
57
  8
0
 10
269.1433639022827
 20
271.2000122070312
 30
0.0
 40
2.449981689453125
  1
6
 41
0.9
  7
CADDY_VECTORFONT1P
 72
     1
 11
270.0
 21
271.2000122070312
 31
0.0
  0
TEXT
  5
58
  8
0
 10
309.140056427002
 20
271.2000122070312
 30
0.0
 40
2.449981689453125
  1
7
 41
0.9
  7
CADDY_VECTORFONT1P
 72
     1
 11
310.0
 21
271.2000122070312
 31
0.0
  0
TEXT
  5
59
  8
0
 10
349.1433639022827
 20
271.2000122070312
 30
0.0
 40
2.449981689453125
  1
8
 41
0.9
  7
CADDY_VECTORFONT1P
 72
     1
 11
350.0
 21
271.2000122070312
 31
0.0
  0
TEXT
  5
5A
  8
0
 10
389.1433639022827
 20
271.2000122070312
 30
0.0
 40
2.449981689453125
  1
9
 41
0.9
  7
CADDY_VECTORFONT1P
 72
     1
 11
390.0
 21
271.2000122070312
 31
0.0
  0
TEXT
  5
5B
  8
0
 10
70.0
 20
265.2000122070312
 30
0.0
 40
2.449981689453125
  1

 41
0.9
  7
CADDY_VECTORFONT1P
 72
     1
 11
70.0
 21
265.2000122070312
 31
0.0
  0
TEXT
  5
5C
  8
0
 10
110.0
 20
265.2000122070312
 30
0.0
 40
2.449981689453125
  1

 41
0.9
  7
CADDY_VECTORFONT1P
 72
     1
 11
110.0
 21
265.2000122070312
 31
0.0
  0
TEXT
  5
5D
  8
0
 10
150.0
 20
265.2000122070312
 30
0.0
 40
2.449981689453125
  1

 41
0.9
  7
CADDY_VECTORFONT1P
 72
     1
 11
150.0
 21
265.2000122070312
 31
0.0
  0
TEXT
  5
5E
  8
0
 10
190.0
 20
265.2000122070312
 30
0.0
 40
2.449981689453125
  1

 41
0.9
  7
CADDY_VECTORFONT1P
 72
     1
 11
190.0
 21
265.2000122070312
 31
0.0
  0
TEXT
  5
5F
  8
0
 10
230.0
 20
265.2000122070312
 30
0.0
 40
2.449981689453125
  1

 41
0.9
  7
CADDY_VECTORFONT1P
 72
     1
 11
230.0
 21
265.2000122070312
 31
0.0
  0
TEXT
  5
60
  8
0
 10
270.0000305175781
 20
265.2000122070312
 30
0.0
 40
2.449981689453125
  1

 41
0.9
  7
CADDY_VECTORFONT1P
 72
     1
 11
270.0000305175781
 21
265.2000122070312
 31
0.0
  0
TEXT
  5
61
  8
0
 10
310.0000305175781
 20
265.2000122070312
 30
0.0
 40
2.449981689453125
  1

 41
0.9
  7
CADDY_VECTORFONT1P
 72
     1
 11
310.0000305175781
 21
265.2000122070312
 31
0.0
  0
TEXT
  5
62
  8
0
 10
350.0000305175781
 20
265.2000122070312
 30
0.0
 40
2.449981689453125
  1

 41
0.9
  7
CADDY_VECTORFONT1P
 72
     1
 11
350.0000305175781
 21
265.2000122070312
 31
0.0
  0
TEXT
  5
63
  8
0
 10
390.0000305175781
 20
265.2000122070312
 30
0.0
 40
2.449981689453125
  1

 41
0.9
  7
CADDY_VECTORFONT1P
 72
     1
 11
390.0000305175781
 21
265.2000122070312
 31
0.0
  0
LINE
  5
64
  8
0
  6
CADDY_SOLID
 10
15.0
 20
270.0
 30
0.0
 11
15.0
 21
30.0
 31
0.0
  0
LINE
  5
65
  8
0
  6
CADDY_SOLID
 10
405.0
 20
270.0
 30
0.0
 11
405.0
 21
30.0
 31
0.0
  0
LINE
  5
66
  8
0
  6
CADDY_SOLID
 10
15.0
 20
230.0
 30
0.0
 11
10.0
 21
230.0
 31
0.0
  0
LINE
  5
67
  8
0
  6
CADDY_SOLID
 10
15.0
 20
190.0
 30
0.0
 11
10.0
 21
190.0
 31
0.0
  0
LINE
  5
68
  8
0
  6
CADDY_SOLID
 10
15.0
 20
150.0
 30
0.0
 11
10.0
 21
150.0
 31
0.0
  0
LINE
  5
69
  8
0
  6
CADDY_SOLID
 10
10.0
 20
110.0
 30
0.0
 11
15.0
 21
110.0
 31
0.0
  0
LINE
  5
6A
  8
0
  6
CADDY_SOLID
 10
10.0
 20
70.0
 30
0.0
 11
15.0
 21
70.0
 31
0.0
  0
TEXT
  5
6B
  8
0
 10
11.39750137329102
 20
248.6999969482422
 30
0.0
 40
2.449996948242188
  1
A
 41
0.9
  7
CADDY_VECTORFONT1P
 72
     1
 11
12.5
 21
248.6999969482422
 31
0.0
  0
TEXT
  5
6C
  8
0
 10
11.52098121948242
 20
208.6999969482422
 30
0.0
 40
2.449996948242188
  1
B
 41
0.9
  7
CADDY_VECTORFONT1P
 72
     1
 11
12.5
 21
208.6999969482422
 31
0.0
  0
TEXT
  5
6D
  8
0
 10
11.65548605194092
 20
168.6999969482422
 30
0.0
 40
2.449996948242188
  1
C
 41
0.9
  7
CADDY_VECTORFONT1P
 72
     1
 11
12.5
 21
168.6999969482422
 31
0.0
  0
TEXT
  5
6E
  8
0
 10
11.52098121948242
 20
128.6999969482422
 30
0.0
 40
2.449996948242188
  1
D
 41
0.9
  7
CADDY_VECTORFONT1P
 72
     1
 11
12.5
 21
128.6999969482422
 31
0.0
  0
TEXT
  5
6F
  8
0
 10
11.65548342208862
 20
88.69999694824219
 30
0.0
 40
2.450004577636719
  1
E
 41
0.9
  7
CADDY_VECTORFONT1P
 72
     1
 11
12.5
 21
88.69999694824219
 31
0.0
  0
TEXT
  5
70
  8
0
 10
11.65548473701477
 20
48.70000076293945
 30
0.0
 40
2.450000762939453
  1
F
 41
0.9
  7
CADDY_VECTORFONT1P
 72
     1
 11
12.5
 21
48.70000076293945
 31
0.0
  0
LINE
  5
71
  8
0
  6
CADDY_SOLID
 10
410.0
 20
230.0
 30
0.0
 11
405.0
 21
230.0
 31
0.0
  0
LINE
  5
72
  8
0
  6
CADDY_SOLID
 10
410.0
 20
190.0
 30
0.0
 11
405.0
 21
190.0
 31
0.0
  0
LINE
  5
73
  8
0
  6
CADDY_SOLID
 10
410.0
 20
150.0
 30
0.0
 11
405.0
 21
150.0
 31
0.0
  0
LINE
  5
74
  8
0
  6
CADDY_SOLID
 10
405.0
 20
110.0
 30
0.0
 11
410.0
 21
110.0
 31
0.0
  0
LINE
  5
75
  8
0
  6
CADDY_SOLID
 10
405.0
 20
70.0
 30
0.0
 11
410.0
 21
70.0
 31
0.0
  0
TEXT
  5
76
  8
0
 10
406.397501373291
 20
248.6999969482422
 30
0.0
 40
2.449996948242188
  1
A
 41
0.9
  7
CADDY_VECTORFONT1P
 72
     1
 11
407.5
 21
248.6999969482422
 31
0.0
  0
TEXT
  5
77
  8
0
 10
406.5209812194824
 20
208.6999969482422
 30
0.0
 40
2.449996948242188
  1
B
 41
0.9
  7
CADDY_VECTORFONT1P
 72
     1
 11
407.5
 21
208.6999969482422
 31
0.0
  0
TEXT
  5
78
  8
0
 10
406.6554860519409
 20
168.6999969482422
 30
0.0
 40
2.449996948242188
  1
C
 41
0.9
  7
CADDY_VECTORFONT1P
 72
     1
 11
407.5
 21
168.6999969482422
 31
0.0
  0
TEXT
  5
79
  8
0
 10
406.5209812194824
 20
128.6999969482422
 30
0.0
 40
2.449996948242188
  1
D
 41
0.9
  7
CADDY_VECTORFONT1P
 72
     1
 11
407.5
 21
128.6999969482422
 31
0.0
  0
TEXT
  5
7A
  8
0
 10
406.6554834220887
 20
88.69999694824219
 30
0.0
 40
2.450004577636719
  1
E
 41
0.9
  7
CADDY_VECTORFONT1P
 72
     1
 11
407.5
 21
88.69999694824219
 31
0.0
  0
TEXT
  5
7B
  8
0
 10
406.6554847370148
 20
48.70000076293945
 30
0.0
 40
2.450000762939453
  1
F
 41
0.9
  7
CADDY_VECTORFONT1P
 72
     1
 11
407.5
 21
48.70000076293945
 31
0.0
  0
LINE
  5
7C
  8
0
  6
CADDY_SOLID
 10
15.0
 20
270.0
 30
0.0
 11
405.0
 21
270.0
 31
0.0
  0
LINE
  5
7D
  8
0
  6
CADDY_SOLID
 10
410.0
 20
10.0
 30
0.0
 11
10.0
 21
10.0
 31
0.0
  0
LINE
  5
7E
  8
0
  6
CADDY_SOLID
 10
10.0
 20
30.0
 30
0.0
 11
410.0
 21
30.0
 31
0.0
  0
LINE
  5
7F
  8
0
  6
CADDY_SOLID
 10
260.0
 20
20.0
 30
0.0
 11
410.0
 21
20.0
 31
0.0
  0
LINE
  5
80
  8
0
  6
CADDY_SOLID
 10
10.0
 20
30.0
 30
0.0
 11
15.0
 21
30.0
 31
0.0
  0
LINE
  5
81
  8
0
  6
CADDY_SOLID
 10
405.0
 20
30.0
 30
0.0
 11
410.0
 21
30.0
 31
0.0
  0
LINE
  5
82
  8
0
  6
CADDY_SOLID
 10
65.0
 20
30.0
 30
0.0
 11
65.0
 21
10.0
 31
0.0
  0
TEXT
  5
83
  8
0
 10
69.19999694824219
 20
14.19999980926514
 30
0.0
 40
2.449999809265137
  1
Kassepakker
 41
0.9
  7
CADDY_VECTORFONT1P
  0
TEXT
  5
84
  8
0
 10
69.19999694824219
 20
23.20000076293945
 30
0.0
 40
2.44999885559082
  1
MPN - GUIDED BY VISION
 41
0.9
  7
CADDY_VECTORFONT1P
  0
TEXT
  5
85
  8
0
 10
69.19999694824219
 20
18.70000076293945
 30
0.0
 40
2.44999885559082
  1

 41
0.9
  7
CADDY_VECTORFONT1P
  0
LINE
  5
86
  8
0
  6
CADDY_SOLID
 10
160.0
 20
30.0
 30
0.0
 11
160.0
 21
10.0
 31
0.0
  0
TEXT
  5
87
  8
0
 10
164.1999969482422
 20
23.20000076293945
 30
0.0
 40
2.44999885559082
  1
Kasseløfter
 41
0.9
  7
CADDY_VECTORFONT1P
  0
TEXT
  5
88
  8
0
 10
164.1999969482422
 20
18.70000076293945
 30
0.0
 40
2.44999885559082
  1
Vibrator
 41
0.9
  7
CADDY_VECTORFONT1P
  0
TEXT
  5
89
  8
0
 10
164.1999969482422
 20
14.19999980926514
 30
0.0
 40
2.449999809265137
  1

 41
0.9
  7
CADDY_VECTORFONT1P
  0
LINE
  5
8A
  8
0
  6
CADDY_SOLID
 10
260.0
 20
30.0
 30
0.0
 11
260.0
 21
10.0
 31
0.0
  0
TEXT
  5
8B
  8
0
 10
261.2000122070312
 20
26.20000076293945
 30
0.0
 40
2.44999885559082
  1
Projekt:
 41
0.9
  7
CADDY_VECTORFONT1P
  0
TEXT
  5
8C
  8
0
 10
261.2000122070312
 20
16.20000076293945
 30
0.0
 40
2.44999885559082
  1
Dato:
 41
0.9
  7
CADDY_VECTORFONT1P
  0
LINE
  5
8D
  8
0
  6
CADDY_SOLID
 10
290.0
 20
30.0
 30
0.0
 11
290.0
 21
10.0
 31
0.0
  0
TEXT
  5
8E
  8
0
 10
291.2000122070312
 20
16.20000076293945
 30
0.0
 40
2.44999885559082
  1
Funkt.:
 41
0.9
  7
CADDY_VECTORFONT1P
  0
TEXT
  5
8F
  8
0
 10
291.2000122070312
 20
26.20000076293945
 30
0.0
 40
2.44999885559082
  1
Tegn. nr.:
 41
0.9
  7
CADDY_VECTORFONT1P
  0
TEXT
  5
90
  8
0
 10
276.1062470369339
 20
21.70000076293945
 30
0.0
 40
2.44999885559082
  1
CP6000
 41
0.9
  7
CADDY_VECTORFONT1P
 72
     2
 11
286.2999572753906
 21
21.70000076293945
 31
0.0
  0
TEXT
  5
91
  8
0
 10
269.7359680473328
 20
11.69999980926514
 30
0.0
 40
2.449999809265137
  1
24-10-2005
 41
0.9
  7
CADDY_VECTORFONT1P
 72
     2
 11
286.2999267578125
 21
11.69999980926514
 31
0.0
  0
LINE
  5
92
  8
0
  6
CADDY_SOLID
 10
320.0
 20
20.0
 30
0.0
 11
320.0
 21
10.0
 31
0.0
  0
TEXT
  5
93
  8
0
 10
321.2000122070312
 20
16.20000076293945
 30
0.0
 40
2.44999885559082
  1
Plac.:
 41
0.9
  7
CADDY_VECTORFONT1P
  0
TEXT
  5
94
  8
0
 10
314.9527328978539
 20
11.69999980926514
 30
0.0
 40
2.449999809265137
  1
=
 41
0.9
  7
CADDY_VECTORFONT1P
 72
     2
 11
316.2999877929688
 21
11.69999980926514
 31
0.0
  0
LINE
  5
95
  8
0
  6
CADDY_SOLID
 10
382.5
 20
20.0
 30
0.0
 11
382.5
 21
30.0
 31
0.0
  0
LINE
  5
96
  8
0
  6
CADDY_SOLID
 10
382.5
 20
10.0
 30
0.0
 11
382.5
 21
20.0
 31
0.0
  0
TEXT
  5
97
  8
0
 10
349.952763415432
 20
11.69999980926514
 30
0.0
 40
2.449999809265137
  1
+
 41
0.9
  7
CADDY_VECTORFONT1P
 72
     2
 11
351.3000183105469
 21
11.69999980926514
 31
0.0
  0
LINE
  5
98
  8
0
  6
CADDY_SOLID
 10
355.0
 20
10.0
 30
0.0
 11
355.0
 21
20.0
 31
0.0
  0
LINE
  5
99
  8
0
  6
CADDY_SOLID
 10
355.0
 20
20.0
 30
0.0
 11
355.0
 21
30.0
 31
0.0
  0
TEXT
  5
9A
  8
0
 10
356.2000122070312
 20
26.20000076293945
 30
0.0
 40
2.44999885559082
  1
Rev.:
 41
0.9
  7
CADDY_VECTORFONT1P
  0
LINE
  5
9B
  8
0
  6
CADDY_SOLID
 10
337.5
 20
20.0
 30
0.0
 11
337.5
 21
30.0
 31
0.0
  0
TEXT
  5
9C
  8
0
 10
333.5
 20
21.75
 30
0.0
 40
3.5
  1

 41
0.9
  7
CADDY_VECTORFONT1P
 72
     2
 11
333.5
 21
21.75
 31
0.0
  0
TEXT
  5
9D
  8
0
 10
338.7000122070312
 20
26.20000076293945
 30
0.0
 40
2.44999885559082
  1
Init.:
 41
0.9
  7
CADDY_VECTORFONT1P
  0
TEXT
  5
9E
  8
0
 10
351.3000183105469
 20
21.70000076293945
 30
0.0
 40
2.44999885559082
  1

 41
0.9
  7
CADDY_VECTORFONT1P
 72
     2
 11
351.3000183105469
 21
21.70000076293945
 31
0.0
  0
TEXT
  5
9F
  8
0
 10
378.8000183105469
 20
21.70000076293945
 30
0.0
 40
2.44999885559082
  1

 41
0.9
  7
CADDY_VECTORFONT1P
 72
     2
 11
378.8000183105469
 21
21.70000076293945
 31
0.0
  0
TEXT
  5
A0
  8
0
 10
398.84
 20
21.75
 30
0.0
 40
3.5
  1
36
 41
0.9
  7
CADDY_VECTORFONT1P
 72
     2
 11
403.25
 21
21.75
 31
0.0
  0
TEXT
  5
A1
  8
0
 10
405.25
 20
21.75
 30
0.0
 40
3.5
  1

 41
0.9
  7
CADDY_VECTORFONT1P
  0
TEXT
  5
A2
  8
0
 10
383.7000122070312
 20
26.20000076293945
 30
0.0
 40
2.44999885559082
  1
Blad:
 41
0.9
  7
CADDY_VECTORFONT1P
  0
TEXT
  5
A3
  8
0
 10
403.2064035513878
 20
11.69999980926514
 30
0.0
 40
2.449999809265137
  1
37
 41
0.9
  7
CADDY_VECTORFONT1P
 72
     2
 11
406.3000183105469
 21
11.69999980926514
 31
0.0
  0
TEXT
  5
A4
  8
0
 10
383.7000122070312
 20
16.20000076293945
 30
0.0
 40
2.44999885559082
  1
Næste blad:
 41
0.9
  7
CADDY_VECTORFONT1P
  0
TEXT
  5
A5
  8
0
 10
356.2000122070312
 20
16.20000076293945
 30
0.0
 40
2.44999885559082
  1
Antal blade:
 41
0.9
  7
CADDY_VECTORFONT1P
  0
TEXT
  5
A6
  8
0
 10
375.7284535496712
 20
11.69999980926514
 30
0.0
 40
2.449999809265137
  1
32
 41
0.9
  7
CADDY_VECTORFONT1P
 72
     2
 11
378.8000183105469
 21
11.69999980926514
 31
0.0
  0
ENDBLK
  8
0
  0
BLOCK
  8
0
  2
BLK2
 70
     2
 10
0.0
 20
0.0
 30
0.0
  0
CIRCLE
  5
B1
  8
0
  6
CADDY_SOLID
 10
70.0
 20
102.5
 30
0.0
 40
0.75
  0
LINE
  5
B2
  8
0
  6
CADDY_SOLID
 10
70.0
 20
103.25
 30
0.0
 11
70.0
 21
105.0
 31
0.0
  0
LINE
  5
B3
  8
0
  6
CADDY_SOLID
 10
70.0
 20
100.0
 30
0.0
 11
70.0
 21
101.75
 31
0.0
  0
ATTDEF
  5
B7
  8
2
 10
48.24345402069092
 20
101.3000030517578
 30
0.0
 40
2.450004577636719
  1
-X20
 41
0.9
  7
CADDY_VECTORFONT1P
 72
     2
 11
65.04999542236328
 21
101.3000030517578
 31
0.0
  3
Produkt (-)
  2
$TAG160010
 70
     1
  0
ATTDEF
  5
B9
  8
2
 10
69.09999084472656
 20
104.1999969482422
 30
0.0
 40
2.450004577636719
  1
8V2
 50
90.0
 41
0.9
  7
CADDY_VECTORFONT1P
  3
Klemmenummer
  2
$TAG160400
 70
     0
  0
ATTDEF
  5
BB
  8
0
 10
72.59999084472656
 20
104.1999969482422
 30
0.0
 40
2.450004577636719
  1
2
 50
90.0
 41
0.9
  7
CADDY_VECTORFONT1P
  3
Sorteringsindeks
  2
$TAG160410
 70
     1
  0
ATTDEF
  5
BD
  8
2
 10
47.75173810195923
 20
97.80000305175781
 30
0.0
 40
2.450004577636719
  1

 41
0.9
  7
CADDY_VECTORFONT1P
 72
     2
 11
65.04999542236328
 21
97.80000305175781
 31
0.0
  3
Beskrivelse 00
  2
$TAG160030
 70
     1
  0
ATTDEF
  5
BF
  8
2
 10
47.50698264465332
 20
92.80000305175781
 30
0.0
 40
2.450004577636719
  1
AB1RR235U2GR
 41
0.9
  7
CADDY_VECTORFONT1P
 72
     2
 11
65.04999542236328
 21
92.80000305175781
 31
0.0
  3
Type
  2
$TAG160040
 70
     1
  0
ATTDEF
  5
C1
  8
2
 10
47.50699027404785
 20
108.3000030517578
 30
0.0
 40
2.450004577636719
  1
=
 41
0.9
  7
CADDY_VECTORFONT1P
 72
     2
 11
65.05000305175781
 21
108.3000030517578
 31
0.0
  3
Funktion (=)
  2
$TAG140020
 70
     1
  0
ATTDEF
  5
C3
  8
2
 10
47.50699027404785
 20
104.8000030517578
 30
0.0
 40
2.450004577636719
  1
+
 41
0.9
  7
CADDY_VECTORFONT1P
 72
     2
 11
65.05000305175781
 21
104.8000030517578
 31
0.0
  3
Placering (+)
  2
$TAG140050
 70
     1
  0
ENDBLK
  8
0
  0
BLOCK
  8
0
  2
BLK3
 70
     2
 10
0.0
 20
0.0
 30
0.0
  0
CIRCLE
  5
C8
  8
0
  6
CADDY_SOLID
 10
75.0
 20
102.5
 30
0.0
 40
0.75
  0
LINE
  5
C9
  8
0
  6
CADDY_SOLID
 10
75.0
 20
103.25
 30
0.0
 11
75.0
 21
105.0
 31
0.0
  0
LINE
  5
CA
  8
0
  6
CADDY_SOLID
 10
75.0
 20
100.0
 30
0.0
 11
75.0
 21
101.75
 31
0.0
  0
ATTDEF
  5
CD
  8
2
 10
53.24346165008545
 20
101.3000030517578
 30
0.0
 40
2.450004577636719
  1
-X20
 41
0.9
  7
CADDY_VECTORFONT1P
 72
     2
 11
70.05000305175781
 21
101.3000030517578
 31
0.0
  3
Produkt (-)
  2
$TAG160010
 70
     1
  0
ATTDEF
  5
CF
  8
2
 10
74.09999084472656
 20
104.1999969482422
 30
0.0
 40
2.450004577636719
  1
8W2
 50
90.0
 41
0.9
  7
CADDY_VECTORFONT1P
  3
Klemmenummer
  2
$TAG160400
 70
     0
  0
ATTDEF
  5
D1
  8
0
 10
77.59999084472656
 20
104.1999969482422
 30
0.0
 40
2.450004577636719
  1
3
 50
90.0
 41
0.9
  7
CADDY_VECTORFONT1P
  3
Sorteringsindeks
  2
$TAG160410
 70
     1
  0
ATTDEF
  5
D3
  8
2
 10
52.75173810195923
 20
97.80000305175781
 30
0.0
 40
2.450004577636719
  1

 41
0.9
  7
CADDY_VECTORFONT1P
 72
     2
 11
70.04999542236328
 21
97.80000305175781
 31
0.0
  3
Beskrivelse 00
  2
$TAG160030
 70
     1
  0
ATTDEF
  5
D5
  8
2
 10
52.50699027404785
 20
92.80000305175781
 30
0.0
 40
2.450004577636719
  1
AB1RR235U2GR
 41
0.9
  7
CADDY_VECTORFONT1P
 72
     2
 11
70.05000305175781
 21
92.80000305175781
 31
0.0
  3
Type
  2
$TAG160040
 70
     1
  0
ATTDEF
  5
D7
  8
2
 10
52.50699027404785
 20
108.3000030517578
 30
0.0
 40
2.450004577636719
  1
=
 41
0.9
  7
CADDY_VECTORFONT1P
 72
     2
 11
70.05000305175781
 21
108.3000030517578
 31
0.0
  3
Funktion (=)
  2
$TAG140020
 70
     1
  0
ATTDEF
  5
D9
  8
2
 10
52.50698264465332
 20
104.8000030517578
 30
0.0
 40
2.450004577636719
  1
+
 41
0.9
  7
CADDY_VECTORFONT1P
 72
     2
 11
70.04999542236328
 21
104.8000030517578
 31
0.0
  3
Placering (+)
  2
$TAG140050
 70
     1
  0
ENDBLK
  8
0
  0
BLOCK
  8
0
  2
BLK4
 70
     2
 10
0.0
 20
0.0
 30
0.0
  0
CIRCLE
  5
DE
  8
0
  6
CADDY_SOLID
 10
65.0
 20
102.5
 30
0.0
 40
0.75
  0
LINE
  5
DF
  8
0
  6
CADDY_SOLID
 10
65.0
 20
103.25
 30
0.0
 11
65.0
 21
105.0
 31
0.0
  0
LINE
  5
E0
  8
0
  6
CADDY_SOLID
 10
65.0
 20
100.0
 30
0.0
 11
65.0
 21
101.75
 31
0.0
  0
ATTDEF
  5
E3
  8
2
 10
43.24345783538818
 20
101.3000030517578
 30
0.0
 40
2.450004577636719
  1
X36
 41
0.9
  7
CADDY_VECTORFONT1P
 72
     2
 11
60.04999923706055
 21
101.3000030517578
 31
0.0
  3
Produkt (-)
  2
$TAG160010
 70
     0
  0
ATTDEF
  5
E5
  8
2
 10
64.09999084472656
 20
104.1999969482422
 30
0.0
 40
2.450004577636719
  1
8U2
 50
90.0
 41
0.9
  7
CADDY_VECTORFONT1P
  3
Klemmenummer
  2
$TAG160400
 70
     0
  0
ATTDEF
  5
E7
  8
0
 10
67.59999084472656
 20
104.1999969482422
 30
0.0
 40
2.450004577636719
  1
1
 50
90.0
 41
0.9
  7
CADDY_VECTORFONT1P
  3
Sorteringsindeks
  2
$TAG160410
 70
     1
  0
ATTDEF
  5
E9
  8
2
 10
42.75174191665649
 20
97.80000305175781
 30
0.0
 40
2.450004577636719
  1

 41
0.9
  7
CADDY_VECTORFONT1P
 72
     2
 11
60.04999923706055
 21
97.80000305175781
 31
0.0
  3
Beskrivelse 00
  2
$TAG160030
 70
     1
  0
ATTDEF
  5
EB
  8
2
 10
42.50698264465332
 20
92.80000305175781
 30
0.0
 40
2.450004577636719
  1
AB1RR235U2GR
 41
0.9
  7
CADDY_VECTORFONT1P
 72
     2
 11
60.04999542236328
 21
92.80000305175781
 31
0.0
  3
Type
  2
$TAG160040
 70
     1
  0
ATTDEF
  5
ED
  8
2
 10
42.50698645935059
 20
108.3000030517578
 30
0.0
 40
2.450004577636719
  1
=
 41
0.9
  7
CADDY_VECTORFONT1P
 72
     2
 11
60.04999923706055
 21
108.3000030517578
 31
0.0
  3
Funktion (=)
  2
$TAG140020
 70
     1
  0
ATTDEF
  5
EF
  8
2
 10
42.50699027404785
 20
104.8000030517578
 30
0.0
 40
2.450004577636719
  1
+
 41
0.9
  7
CADDY_VECTORFONT1P
 72
     2
 11
60.05000305175781
 21
104.8000030517578
 31
0.0
  3
Placering (+)
  2
$TAG140050
 70
     1
  0
ENDBLK
  8
0
  0
BLOCK
  8
0
  2
BLK5
 70
     2
 10
0.0
 20
0.0
 30
0.0
  0
LINE
  5
F4
  8
0
  6
CADDY_SOLID
 10
64.13397216796875
 20
226.5
 30
0.0
 11
62.40191650390625
 21
225.5
 31
0.0
  0
LINE
  5
F5
  8
0
  6
CADDY_SOLID
 10
62.40191650390625
 20
225.5
 30
0.0
 11
61.40191650390625
 21
227.2320556640625
 31
0.0
  0
LINE
  5
F6
  8
0
  6
CADDY_SOLID
 10
61.40191650390625
 20
227.2320556640625
 30
0.0
 11
63.13397216796875
 21
228.2320556640625
 31
0.0
  0
LINE
  5
F7
  8
0
  6
CADDY_SOLID
 10
69.13397216796875
 20
226.5
 30
0.0
 11
67.40191650390625
 21
225.5
 31
0.0
  0
LINE
  5
F8
  8
0
  6
CADDY_SOLID
 10
67.40191650390625
 20
225.5
 30
0.0
 11
66.40191650390625
 21
227.2320556640625
 31
0.0
  0
LINE
  5
F9
  8
0
  6
CADDY_SOLID
 10
66.40191650390625
 20
227.2320556640625
 30
0.0
 11
68.13397216796875
 21
228.2320556640625
 31
0.0
  0
LINE
  5
FA
  8
0
  6
CADDY_SOLID
 10
74.13397216796875
 20
226.5
 30
0.0
 11
72.40191650390625
 21
225.5
 31
0.0
  0
LINE
  5
FB
  8
0
  6
CADDY_SOLID
 10
72.40191650390625
 20
225.5
 30
0.0
 11
71.40191650390625
 21
227.2320556640625
 31
0.0
  0
LINE
  5
FC
  8
0
  6
CADDY_SOLID
 10
71.40191650390625
 20
227.2320556640625
 30
0.0
 11
73.13397216796875
 21
228.2320556640625
 31
0.0
  0
LINE
  5
FD
  8
0
  6
CADDY_SOLID
 10
63.9393310546875
 20
228.9393310546875
 30
0.0
 11
66.0606689453125
 21
231.0606689453125
 31
0.0
  0
LINE
  5
FE
  8
0
  6
CADDY_SOLID
 10
63.9393310546875
 20
231.0606689453125
 30
0.0
 11
66.0606689453125
 21
228.9393310546875
 31
0.0
  0
LINE
  5
FF
  8
0
  6
CADDY_SOLID
 10
62.83493041992188
 20
225.75
 30
0.0
 11
61.83493041992188
 21
227.4820556640625
 31
0.0
  0
LINE
  5
100
  8
0
  6
CADDY_SOLID
 10
63.2679443359375
 20
226.0
 30
0.0
 11
62.2679443359375
 21
227.7320556640625
 31
0.0
  0
LINE
  5
101
  8
0
  6
CADDY_SOLID
 10
63.70095825195312
 20
226.25
 30
0.0
 11
62.70095825195312
 21
227.9820556640625
 31
0.0
  0
LINE
  5
102
  8
0
  6
CADDY_SOLID
 10
62.61843872070312
 20
225.625
 30
0.0
 11
61.61843872070312
 21
227.3570556640625
 31
0.0
  0
LINE
  5
103
  8
0
  6
CADDY_SOLID
 10
63.05145263671875
 20
225.875
 30
0.0
 11
62.05145263671875
 21
227.6070556640625
 31
0.0
  0
LINE
  5
104
  8
0
  6
CADDY_SOLID
 10
63.48446655273438
 20
226.125
 30
0.0
 11
62.48446655273438
 21
227.8570556640625
 31
0.0
  0
LINE
  5
105
  8
0
  6
CADDY_SOLID
 10
63.91748046875
 20
226.375
 30
0.0
 11
62.91748046875
 21
228.1070556640625
 31
0.0
  0
LINE
  5
106
  8
0
  6
CADDY_SOLID
 10
62.488525390625
 20
225.5499877929688
 30
0.0
 11
61.488525390625
 21
227.2820434570312
 31
0.0
  0
LINE
  5
107
  8
0
  6
CADDY_SOLID
 10
62.70501708984375
 20
225.6749877929688
 30
0.0
 11
61.70501708984375
 21
227.4070434570312
 31
0.0
  0
LINE
  5
108
  8
0
  6
CADDY_SOLID
 10
62.92153930664062
 20
225.7999877929688
 30
0.0
 11
61.92153930664062
 21
227.5320434570312
 31
0.0
  0
LINE
  5
109
  8
0
  6
CADDY_SOLID
 10
63.1380615234375
 20
225.9249877929688
 30
0.0
 11
62.1380615234375
 21
227.6570434570312
 31
0.0
  0
LINE
  5
10A
  8
0
  6
CADDY_SOLID
 10
63.35455322265625
 20
226.0499877929688
 30
0.0
 11
62.35455322265625
 21
227.7820434570312
 31
0.0
  0
LINE
  5
10B
  8
0
  6
CADDY_SOLID
 10
63.571044921875
 20
226.1749877929688
 30
0.0
 11
62.571044921875
 21
227.9070434570312
 31
0.0
  0
LINE
  5
10C
  8
0
  6
CADDY_SOLID
 10
63.78756713867188
 20
226.2999877929688
 30
0.0
 11
62.78756713867188
 21
228.0320434570312
 31
0.0
  0
LINE
  5
10D
  8
0
  6
CADDY_SOLID
 10
64.00408935546875
 20
226.4249877929688
 30
0.0
 11
63.00408935546875
 21
228.1570434570312
 31
0.0
  0
LINE
  5
10E
  8
0
  6
CADDY_SOLID
 10
68.9393310546875
 20
228.9393310546875
 30
0.0
 11
71.0606689453125
 21
231.0606689453125
 31
0.0
  0
LINE
  5
10F
  8
0
  6
CADDY_SOLID
 10
68.9393310546875
 20
231.0606689453125
 30
0.0
 11
71.0606689453125
 21
228.9393310546875
 31
0.0
  0
LINE
  5
110
  8
0
  6
CADDY_SOLID
 10
67.83493041992188
 20
225.75
 30
0.0
 11
66.83493041992188
 21
227.4820556640625
 31
0.0
  0
LINE
  5
111
  8
0
  6
CADDY_SOLID
 10
68.2679443359375
 20
226.0
 30
0.0
 11
67.2679443359375
 21
227.7320556640625
 31
0.0
  0
LINE
  5
112
  8
0
  6
CADDY_SOLID
 10
68.70095825195312
 20
226.25
 30
0.0
 11
67.70095825195312
 21
227.9820556640625
 31
0.0
  0
LINE
  5
113
  8
0
  6
CADDY_SOLID
 10
67.61843872070312
 20
225.625
 30
0.0
 11
66.61843872070312
 21
227.3570556640625
 31
0.0
  0
LINE
  5
114
  8
0
  6
CADDY_SOLID
 10
68.05145263671875
 20
225.875
 30
0.0
 11
67.05145263671875
 21
227.6070556640625
 31
0.0
  0
LINE
  5
115
  8
0
  6
CADDY_SOLID
 10
68.48446655273438
 20
226.125
 30
0.0
 11
67.48446655273438
 21
227.8570556640625
 31
0.0
  0
LINE
  5
116
  8
0
  6
CADDY_SOLID
 10
68.91748046875
 20
226.375
 30
0.0
 11
67.91748046875
 21
228.1070556640625
 31
0.0
  0
LINE
  5
117
  8
0
  6
CADDY_SOLID
 10
67.488525390625
 20
225.5499877929688
 30
0.0
 11
66.488525390625
 21
227.2820434570312
 31
0.0
  0
LINE
  5
118
  8
0
  6
CADDY_SOLID
 10
67.70501708984375
 20
225.6749877929688
 30
0.0
 11
66.70501708984375
 21
227.4070434570312
 31
0.0
  0
LINE
  5
119
  8
0
  6
CADDY_SOLID
 10
67.92153930664062
 20
225.7999877929688
 30
0.0
 11
66.92153930664062
 21
227.5320434570312
 31
0.0
  0
LINE
  5
11A
  8
0
  6
CADDY_SOLID
 10
68.1380615234375
 20
225.9249877929688
 30
0.0
 11
67.1380615234375
 21
227.6570434570312
 31
0.0
  0
LINE
  5
11B
  8
0
  6
CADDY_SOLID
 10
68.35455322265625
 20
226.0499877929688
 30
0.0
 11
67.35455322265625
 21
227.7820434570312
 31
0.0
  0
LINE
  5
11C
  8
0
  6
CADDY_SOLID
 10
68.571044921875
 20
226.1749877929688
 30
0.0
 11
67.571044921875
 21
227.9070434570312
 31
0.0
  0
LINE
  5
11D
  8
0
  6
CADDY_SOLID
 10
68.78756713867188
 20
226.2999877929688
 30
0.0
 11
67.78756713867188
 21
228.0320434570312
 31
0.0
  0
LINE
  5
11E
  8
0
  6
CADDY_SOLID
 10
69.00408935546875
 20
226.4249877929688
 30
0.0
 11
68.00408935546875
 21
228.1570434570312
 31
0.0
  0
LINE
  5
11F
  8
0
  6
CADDY_SOLID
 10
73.9393310546875
 20
228.9393310546875
 30
0.0
 11
76.0606689453125
 21
231.0606689453125
 31
0.0
  0
LINE
  5
120
  8
0
  6
CADDY_SOLID
 10
73.9393310546875
 20
231.0606689453125
 30
0.0
 11
76.0606689453125
 21
228.9393310546875
 31
0.0
  0
LINE
  5
121
  8
0
  6
CADDY_SOLID
 10
72.83493041992188
 20
225.75
 30
0.0
 11
71.83493041992188
 21
227.4820556640625
 31
0.0
  0
LINE
  5
122
  8
0
  6
CADDY_SOLID
 10
73.2679443359375
 20
226.0
 30
0.0
 11
72.2679443359375
 21
227.7320556640625
 31
0.0
  0
LINE
  5
123
  8
0
  6
CADDY_SOLID
 10
73.70095825195312
 20
226.25
 30
0.0
 11
72.70095825195312
 21
227.9820556640625
 31
0.0
  0
LINE
  5
124
  8
0
  6
CADDY_SOLID
 10
72.61843872070312
 20
225.625
 30
0.0
 11
71.61843872070312
 21
227.3570556640625
 31
0.0
  0
LINE
  5
125
  8
0
  6
CADDY_SOLID
 10
73.05145263671875
 20
225.875
 30
0.0
 11
72.05145263671875
 21
227.6070556640625
 31
0.0
  0
LINE
  5
126
  8
0
  6
CADDY_SOLID
 10
73.48446655273438
 20
226.125
 30
0.0
 11
72.48446655273438
 21
227.8570556640625
 31
0.0
  0
LINE
  5
127
  8
0
  6
CADDY_SOLID
 10
73.91748046875
 20
226.375
 30
0.0
 11
72.91748046875
 21
228.1070556640625
 31
0.0
  0
LINE
  5
128
  8
0
  6
CADDY_SOLID
 10
72.488525390625
 20
225.5499877929688
 30
0.0
 11
71.488525390625
 21
227.2820434570312
 31
0.0
  0
LINE
  5
129
  8
0
  6
CADDY_SOLID
 10
72.70501708984375
 20
225.6749877929688
 30
0.0
 11
71.70501708984375
 21
227.4070434570312
 31
0.0
  0
LINE
  5
12A
  8
0
  6
CADDY_SOLID
 10
72.92153930664062
 20
225.7999877929688
 30
0.0
 11
71.92153930664062
 21
227.5320434570312
 31
0.0
  0
LINE
  5
12B
  8
0
  6
CADDY_SOLID
 10
73.1380615234375
 20
225.9249877929688
 30
0.0
 11
72.1380615234375
 21
227.6570434570312
 31
0.0
  0
LINE
  5
12C
  8
0
  6
CADDY_SOLID
 10
73.35455322265625
 20
226.0499877929688
 30
0.0
 11
72.35455322265625
 21
227.7820434570312
 31
0.0
  0
LINE
  5
12D
  8
0
  6
CADDY_SOLID
 10
73.571044921875
 20
226.1749877929688
 30
0.0
 11
72.571044921875
 21
227.9070434570312
 31
0.0
  0
LINE
  5
12E
  8
0
  6
CADDY_SOLID
 10
73.78756713867188
 20
226.2999877929688
 30
0.0
 11
72.78756713867188
 21
228.0320434570312
 31
0.0
  0
LINE
  5
12F
  8
0
  6
CADDY_SOLID
 10
74.00408935546875
 20
226.4249877929688
 30
0.0
 11
73.00408935546875
 21
228.1570434570312
 31
0.0
  0
LINE
  5
130
  8
0
  6
CADDY_SOLID
 10
65.0
 20
230.0
 30
0.0
 11
65.0
 21
235.0
 31
0.0
  0
LINE
  5
131
  8
0
  6
CADDY_SOLID
 10
65.0
 20
225.0
 30
0.0
 11
65.0
 21
220.0
 31
0.0
  0
LINE
  5
132
  8
0
  6
CADDY_SOLID
 10
65.0
 20
225.0
 30
0.0
 11
61.58493041992188
 21
230.9150695800781
 31
0.0
  0
LINE
  5
133
  8
0
  6
CADDY_SOLID
 10
70.0
 20
230.0
 30
0.0
 11
70.0
 21
235.0
 31
0.0
  0
LINE
  5
134
  8
0
  6
CADDY_SOLID
 10
70.0
 20
225.0
 30
0.0
 11
70.0
 21
220.0
 31
0.0
  0
LINE
  5
135
  8
0
  6
CADDY_SOLID
 10
70.0
 20
225.0
 30
0.0
 11
66.58493041992188
 21
230.9150695800781
 31
0.0
  0
LINE
  5
136
  8
0
  6
CADDY_SOLID
 10
75.0
 20
230.0
 30
0.0
 11
75.0
 21
235.0
 31
0.0
  0
LINE
  5
137
  8
0
  6
CADDY_SOLID
 10
75.0
 20
225.0
 30
0.0
 11
75.0
 21
220.0
 31
0.0
  0
LINE
  5
138
  8
0
  6
CADDY_SOLID
 10
75.0
 20
225.0
 30
0.0
 11
71.58493041992188
 21
230.9150695800781
 31
0.0
  0
LINE
  5
139
  8
0
  6
CADDY_SOLID
 10
57.5
 20
230.0
 30
0.0
 11
52.5
 21
230.0
 31
0.0
  0
LINE
  5
13A
  8
0
  6
CADDY_SOLID
 10
57.5
 20
225.0
 30
0.0
 11
57.5
 21
230.0
 31
0.0
  0
LINE
  5
13B
  8
0
  6
CADDY_SOLID
 10
52.5
 20
225.0
 30
0.0
 11
57.5
 21
225.0
 31
0.0
  0
LINE
  5
13C
  8
0
  6
CADDY_SOLID
 10
52.5
 20
230.0
 30
0.0
 11
52.5
 21
225.0
 31
0.0
  0
LINE
  5
13D
  8
0
  6
CADDY_SOLID
 10
53.0
 20
227.5
 30
0.0
 11
57.0
 21
227.5
 31
0.0
  0
LINE
  5
13E
  8
0
  6
CADDY_SOLID
 10
55.0
 20
225.5
 30
0.0
 11
55.0
 21
230.0
 31
0.0
  0
LINE
  5
13F
  8
0
  6
CADDY_SOLID
 10
55.0
 20
225.5
 30
0.0
 11
55.0
 21
223.5
 31
0.0
  0
LINE
  5
140
  8
0
  6
CADDY_SOLID
 10
51.0
 20
227.5
 30
0.0
 11
53.0
 21
227.5
 31
0.0
  0
LINE
  5
141
  8
0
  6
CADDY_SOLID
 10
48.0
 20
227.5
 30
0.0
 11
50.0
 21
227.5
 31
0.0
  0
LINE
  5
142
  8
0
  6
CADDY_SOLID
 10
45.0
 20
227.5
 30
0.0
 11
47.0
 21
227.5
 31
0.0
  0
LINE
  5
143
  8
0
  6
CADDY_SOLID
 10
45.0
 20
228.75
 30
0.0
 11
45.0
 21
226.25
 31
0.0
  0
LINE
  5
144
  8
0
  6
CADDY_SOLID
 10
57.0
 20
227.5
 30
0.0
 11
59.0
 21
227.5
 31
0.0
  0
LINE
  5
145
  8
0
  6
CADDY_SOLID
 10
60.0
 20
227.5
 30
0.0
 11
62.0
 21
227.5
 31
0.0
  0
LINE
  5
146
  8
0
  6
CADDY_SOLID
 10
63.0
 20
227.5
 30
0.0
 11
64.5
 21
227.5
 31
0.0
  0
LINE
  5
147
  8
0
  6
CADDY_SOLID
 10
65.5
 20
227.5
 30
0.0
 11
68.0
 21
227.5
 31
0.0
  0
LINE
  5
148
  8
0
  6
CADDY_SOLID
 10
68.5
 20
227.5
 30
0.0
 11
69.5
 21
227.5
 31
0.0
  0
LINE
  5
149
  8
0
  6
CADDY_SOLID
 10
55.0
 20
222.5
 30
0.0
 11
55.0
 21
220.5
 31
0.0
  0
LINE
  5
14A
  8
0
  6
CADDY_SOLID
 10
55.0
 20
219.5
 30
0.0
 11
55.0
 21
217.5
 31
0.0
  0
LINE
  5
14B
  8
0
  6
CADDY_SOLID
 10
55.0
 20
217.5
 30
0.0
 11
57.0
 21
217.5
 31
0.0
  0
LINE
  5
14C
  8
0
  6
CADDY_SOLID
 10
58.0
 20
217.5
 30
0.0
 11
60.0
 21
217.5
 31
0.0
  0
LINE
  5
14D
  8
0
  6
CADDY_SOLID
 10
58.0
 20
212.5
 30
0.0
 11
60.0
 21
212.5
 31
0.0
  0
LINE
  5
14E
  8
0
  6
CADDY_SOLID
 10
55.0
 20
212.5
 30
0.0
 11
57.0
 21
212.5
 31
0.0
  0
LINE
  5
14F
  8
0
  6
CADDY_SOLID
 10
55.0
 20
213.5
 30
0.0
 11
55.0
 21
212.5
 31
0.0
  0
LINE
  5
150
  8
0
  6
CADDY_SOLID
 10
55.0
 20
216.5
 30
0.0
 11
55.0
 21
214.5
 31
0.0
  0
LINE
  5
151
  8
0
  6
CADDY_SOLID
 10
60.0
 20
220.0
 30
0.0
 11
60.0
 21
210.0
 31
0.0
  0
LINE
  5
152
  8
0
  6
CADDY_SOLID
 10
80.0
 20
220.0
 30
0.0
 11
60.0
 21
220.0
 31
0.0
  0
LINE
  5
153
  8
0
  6
CADDY_SOLID
 10
65.0
 20
218.75
 30
0.0
 11
67.5
 21
218.75
 31
0.0
  0
LINE
  5
154
  8
0
  6
CADDY_SOLID
 10
67.5
 20
218.75
 30
0.0
 11
67.5
 21
216.25
 31
0.0
  0
LINE
  5
155
  8
0
  6
CADDY_SOLID
 10
67.5
 20
216.25
 30
0.0
 11
65.0
 21
216.25
 31
0.0
  0
LINE
  5
156
  8
0
  6
CADDY_SOLID
 10
65.0
 20
215.0
 30
0.0
 11
65.0
 21
216.25
 31
0.0
  0
LINE
  5
157
  8
0
  6
CADDY_SOLID
 10
70.0
 20
215.0
 30
0.0
 11
70.0
 21
216.25
 31
0.0
  0
LINE
  5
158
  8
0
  6
CADDY_SOLID
 10
72.5
 20
216.25
 30
0.0
 11
70.0
 21
216.25
 31
0.0
  0
LINE
  5
159
  8
0
  6
CADDY_SOLID
 10
72.5
 20
218.75
 30
0.0
 11
72.5
 21
216.25
 31
0.0
  0
LINE
  5
15A
  8
0
  6
CADDY_SOLID
 10
70.0
 20
218.75
 30
0.0
 11
72.5
 21
218.75
 31
0.0
  0
LINE
  5
15B
  8
0
  6
CADDY_SOLID
 10
75.0
 20
218.75
 30
0.0
 11
77.5
 21
218.75
 31
0.0
  0
LINE
  5
15C
  8
0
  6
CADDY_SOLID
 10
77.5
 20
218.75
 30
0.0
 11
77.5
 21
216.25
 31
0.0
  0
LINE
  5
15D
  8
0
  6
CADDY_SOLID
 10
77.5
 20
216.25
 30
0.0
 11
75.0
 21
216.25
 31
0.0
  0
LINE
  5
15E
  8
0
  6
CADDY_SOLID
 10
75.0
 20
215.0
 30
0.0
 11
75.0
 21
216.25
 31
0.0
  0
LINE
  5
15F
  8
0
  6
CADDY_SOLID
 10
80.0
 20
220.0
 30
0.0
 11
80.0
 21
210.0
 31
0.0
  0
LINE
  5
160
  8
0
  6
CADDY_SOLID
 10
80.0
 20
215.0
 30
0.0
 11
60.0
 21
215.0
 31
0.0
  0
LINE
  5
161
  8
0
  6
CADDY_SOLID
 10
60.0
 20
210.0
 30
0.0
 11
80.0
 21
210.0
 31
0.0
  0
LINE
  5
162
  8
0
  6
CADDY_SOLID
 10
75.0
 20
210.0
 30
0.0
 11
75.0
 21
205.0
 31
0.0
  0
LINE
  5
163
  8
0
  6
CADDY_SOLID
 10
70.0
 20
210.0
 30
0.0
 11
70.0
 21
205.0
 31
0.0
  0
LINE
  5
164
  8
0
  6
CADDY_SOLID
 10
65.0
 20
210.0
 30
0.0
 11
65.0
 21
205.0
 31
0.0
  0
LINE
  5
165
  8
0
  6
CADDY_SOLID
 10
64.800048828125
 20
211.2000122070312
 30
0.0
 11
65.45654296875
 21
213.6499938964844
 31
0.0
  0
LINE
  5
166
  8
0
  6
CADDY_SOLID
 10
67.4033203125
 20
212.4249877929688
 30
0.0
 11
66.062744140625
 21
213.2999877929688
 31
0.0
  0
LINE
  5
167
  8
0
  6
CADDY_SOLID
 10
65.59384155273438
 20
211.5499877929688
 30
0.0
 11
67.4033203125
 21
212.4249877929688
 31
0.0
  0
LINE
  5
168
  8
0
  6
CADDY_SOLID
 10
69.800048828125
 20
211.2000122070312
 30
0.0
 11
70.45654296875
 21
213.6499938964844
 31
0.0
  0
LINE
  5
169
  8
0
  6
CADDY_SOLID
 10
72.4033203125
 20
212.4249877929688
 30
0.0
 11
71.062744140625
 21
213.2999877929688
 31
0.0
  0
LINE
  5
16A
  8
0
  6
CADDY_SOLID
 10
70.59384155273438
 20
211.5499877929688
 30
0.0
 11
72.4033203125
 21
212.4249877929688
 31
0.0
  0
LINE
  5
16B
  8
0
  6
CADDY_SOLID
 10
74.800048828125
 20
211.2000122070312
 30
0.0
 11
75.45654296875
 21
213.6499938964844
 31
0.0
  0
LINE
  5
16C
  8
0
  6
CADDY_SOLID
 10
77.4033203125
 20
212.4249877929688
 30
0.0
 11
76.062744140625
 21
213.2999877929688
 31
0.0
  0
LINE
  5
16D
  8
0
  6
CADDY_SOLID
 10
75.59384155273438
 20
211.5499877929688
 30
0.0
 11
77.4033203125
 21
212.4249877929688
 31
0.0
  0
LINE
  5
16E
  8
0
  6
CADDY_SOLID
 10
65.0
 20
218.75
 30
0.0
 11
65.0
 21
220.0
 31
0.0
  0
LINE
  5
16F
  8
0
  6
CADDY_SOLID
 10
70.0
 20
218.75
 30
0.0
 11
70.0
 21
220.0
 31
0.0
  0
LINE
  5
170
  8
0
  6
CADDY_SOLID
 10
75.0
 20
218.75
 30
0.0
 11
75.0
 21
220.0
 31
0.0
  0
LINE
  5
171
  8
0
  6
CADDY_SOLID
 10
72.0
 20
227.5
 30
0.0
 11
70.5
 21
227.5
 31
0.0
  0
ATTDEF
  5
174
  8
0
 10
35.69352237854004
 20
213.8000030517578
 30
0.0
 40
2.449996948242188
  1
F3601
 41
0.9
  7
CADDY_VECTORFONT1P
 72
     2
 11
52.5000114440918
 21
213.8000030517578
 31
0.0
  3
Produkt (-)
  2
$TAG160010
 70
     0
  0
ATTDEF
  5
176
  8
0
 10
34.95705329589844
 20
206.8000030517578
 30
0.0
 40
2.449996948242188
  1
LUCA1XBL;LUFC00;LUB12;LU9BN11C
 41
0.9
  7
CADDY_VECTORFONT1P
 72
     2
 11
52.5000114440918
 21
206.8000030517578
 31
0.0
  3
Type
  2
$TAG160040
 70
     1
  0
ATTDEF
  5
178
  8
0
 10
35.20180799102783
 20
210.3000030517578
 30
0.0
 40
2.449996948242188
  1
0,76A
 41
0.9
  7
CADDY_VECTORFONT1P
 72
     2
 11
52.5000114440918
 21
210.3000030517578
 31
0.0
  3
Beskrivelse 00
  2
$TAG160030
 70
     0
  0
ATTDEF
  5
17A
  8
0
 10
64.05000305175781
 20
231.9000091552734
 30
0.0
 40
2.449996948242188
  1
1
 50
90.0
 41
0.9
  7
CADDY_VECTORFONT1P
  3
Tilslutningstekst 00
  2
$TAG175000_00
 70
     0
  0
ATTDEF
  5
17C
  8
0
 10
64.05000305175781
 20
185.4658327224732
 30
0.0
 40
2.449996948242188
  1

 50
90.0
 41
0.9
  7
CADDY_VECTORFONT1P
 72
     2
 11
64.05000305175781
 21
208.4000091552734
 31
0.0
  3
Tilslutningstekst 01
  2
$TAG175000_01
 70
     0
  0
ATTDEF
  5
17E
  8
0
 10
69.05000305175781
 20
231.9000091552734
 30
0.0
 40
2.449996948242188
  1
3
 50
90.0
 41
0.9
  7
CADDY_VECTORFONT1P
  3
Tilslutningstekst 02
  2
$TAG175000_02
 70
     0
  0
ATTDEF
  5
180
  8
0
 10
69.05000305175781
 20
184.9763080734253
 30
0.0
 40
2.449996948242188
  1

 50
90.0
 41
0.9
  7
CADDY_VECTORFONT1P
 72
     2
 11
69.05000305175781
 21
208.3999938964844
 31
0.0
  3
Tilslutningstekst 03
  2
$TAG175000_03
 70
     0
  0
ATTDEF
  5
182
  8
0
 10
74.05000305175781
 20
231.9000091552734
 30
0.0
 40
2.449996948242188
  1
5
 50
90.0
 41
0.9
  7
CADDY_VECTORFONT1P
  3
Tilslutningstekst 04
  2
$TAG175000_04
 70
     0
  0
ATTDEF
  5
184
  8
0
 10
74.05000305175781
 20
184.9763080734253
 30
0.0
 40
2.449996948242188
  1

 50
90.0
 41
0.9
  7
CADDY_VECTORFONT1P
 72
     2
 11
74.05000305175781
 21
208.3999938964844
 31
0.0
  3
Tilslutningstekst 05
  2
$TAG175000_05
 70
     0
  0
ATTDEF
  5
186
  8
0
 10
34.95705329589844
 20
220.8000030517578
 30
0.0
 40
2.449996948242188
  1
=
 41
0.9
  7
CADDY_VECTORFONT1P
 72
     2
 11
52.5000114440918
 21
220.8000030517578
 31
0.0
  3
Funktion (=)
  2
$TAG140020
 70
     1
  0
ATTDEF
  5
188
  8
0
 10
34.95705711059571
 20
217.3000030517578
 30
0.0
 40
2.449996948242188
  1
+
 41
0.9
  7
CADDY_VECTORFONT1P
 72
     2
 11
52.50001525878906
 21
217.3000030517578
 31
0.0
  3
Placering (+)
  2
$TAG140050
 70
     1
  0
ENDBLK
  8
0
  0
BLOCK
  8
0
  2
BLK6
 70
     2
 10
0.0
 20
0.0
 30
0.0
  0
LINE
  5
190
  8
0
  6
CADDY_SOLID
 10
75.0
 20
202.5
 30
0.0
 11
75.0
 21
205.0
 31
0.0
  0
LINE
  5
191
  8
0
  6
CADDY_SOLID
 10
75.0
 20
197.5
 30
0.0
 11
75.0
 21
195.0
 31
0.0
  0
LINE
  5
192
  8
0
  6
CADDY_SOLID
 10
75.0
 20
197.5
 30
0.0
 11
71.58493041992188
 21
203.4150695800781
 31
0.0
  0
LINE
  5
193
  8
0
  6
CADDY_SOLID
 10
70.0
 20
202.5
 30
0.0
 11
70.0
 21
205.0
 31
0.0
  0
LINE
  5
194
  8
0
  6
CADDY_SOLID
 10
70.0
 20
197.5
 30
0.0
 11
70.0
 21
195.0
 31
0.0
  0
LINE
  5
195
  8
0
  6
CADDY_SOLID
 10
70.0
 20
197.5
 30
0.0
 11
66.58493041992188
 21
203.4150695800781
 31
0.0
  0
LINE
  5
196
  8
0
  6
CADDY_SOLID
 10
65.0
 20
202.5
 30
0.0
 11
65.0
 21
205.0
 31
0.0
  0
LINE
  5
197
  8
0
  6
CADDY_SOLID
 10
65.0
 20
197.5
 30
0.0
 11
65.0
 21
195.0
 31
0.0
  0
LINE
  5
198
  8
0
  6
CADDY_SOLID
 10
65.0
 20
197.5
 30
0.0
 11
61.58493041992188
 21
203.4150695800781
 31
0.0
  0
POLYLINE
  5
199
  8
0
  6
CADDY_SOLID
 66
     1
 10
0.0
 20
0.0
 30
0.0
  0
VERTEX
  5
40D
  8
0
  6
CADDY_SOLID
 10
70.0
 20
205.0
 30
0.0
  0
VERTEX
  5
40E
  8
0
  6
CADDY_SOLID
 10
69.75613709747984
 20
204.975981600504
 30
0.0
  0
VERTEX
  5
40F
  8
0
  6
CADDY_SOLID
 10
69.52164570954363
 20
204.9048494156391
 30
0.0
  0
VERTEX
  5
410
  8
0
  6
CADDY_SOLID
 10
69.3055372087255
 20
204.7893370153782
 30
0.0
  0
VERTEX
  5
411
  8
0
  6
CADDY_SOLID
 10
69.11611652351682
 20
204.6338834764832
 30
0.0
  0
VERTEX
  5
412
  8
0
  6
CADDY_SOLID
 10
68.96066298462182
 20
204.4444627912745
 30
0.0
  0
VERTEX
  5
413
  8
0
  6
CADDY_SOLID
 10
68.8451505843609
 20
204.2283542904564
 30
0.0
  0
VERTEX
  5
414
  8
0
  6
CADDY_SOLID
 10
68.77401839949596
 20
203.9938629025202
 30
0.0
  0
VERTEX
  5
415
  8
0
  6
CADDY_SOLID
 10
68.75
 20
203.75
 30
0.0
  0
VERTEX
  5
416
  8
0
  6
CADDY_SOLID
 10
68.77401839949596
 20
203.5061370974798
 30
0.0
  0
VERTEX
  5
417
  8
0
  6
CADDY_SOLID
 10
68.8451505843609
 20
203.2716457095436
 30
0.0
  0
VERTEX
  5
418
  8
0
  6
CADDY_SOLID
 10
68.96066298462182
 20
203.0555372087255
 30
0.0
  0
VERTEX
  5
419
  8
0
  6
CADDY_SOLID
 10
69.11611652351682
 20
202.8661165235168
 30
0.0
  0
VERTEX
  5
41A
  8
0
  6
CADDY_SOLID
 10
69.3055372087255
 20
202.7106629846218
 30
0.0
  0
VERTEX
  5
41B
  8
0
  6
CADDY_SOLID
 10
69.52164570954363
 20
202.5951505843609
 30
0.0
  0
VERTEX
  5
41C
  8
0
  6
CADDY_SOLID
 10
69.75613709747984
 20
202.524018399496
 30
0.0
  0
VERTEX
  5
41D
  8
0
  6
CADDY_SOLID
 10
70.0
 20
202.5
 30
0.0
  0
SEQEND
  5
457
  8
0
  6
CADDY_SOLID
  0
POLYLINE
  5
19A
  8
0
  6
CADDY_SOLID
 66
     1
 10
0.0
 20
0.0
 30
0.0
  0
VERTEX
  5
41E
  8
0
  6
CADDY_SOLID
 10
75.0
 20
205.0
 30
0.0
  0
VERTEX
  5
41F
  8
0
  6
CADDY_SOLID
 10
74.75613709747984
 20
204.975981600504
 30
0.0
  0
VERTEX
  5
420
  8
0
  6
CADDY_SOLID
 10
74.52164570954363
 20
204.9048494156391
 30
0.0
  0
VERTEX
  5
421
  8
0
  6
CADDY_SOLID
 10
74.3055372087255
 20
204.7893370153782
 30
0.0
  0
VERTEX
  5
422
  8
0
  6
CADDY_SOLID
 10
74.11611652351682
 20
204.6338834764832
 30
0.0
  0
VERTEX
  5
423
  8
0
  6
CADDY_SOLID
 10
73.96066298462182
 20
204.4444627912745
 30
0.0
  0
VERTEX
  5
424
  8
0
  6
CADDY_SOLID
 10
73.8451505843609
 20
204.2283542904564
 30
0.0
  0
VERTEX
  5
425
  8
0
  6
CADDY_SOLID
 10
73.77401839949596
 20
203.9938629025202
 30
0.0
  0
VERTEX
  5
426
  8
0
  6
CADDY_SOLID
 10
73.75
 20
203.75
 30
0.0
  0
VERTEX
  5
427
  8
0
  6
CADDY_SOLID
 10
73.77401839949596
 20
203.5061370974798
 30
0.0
  0
VERTEX
  5
428
  8
0
  6
CADDY_SOLID
 10
73.8451505843609
 20
203.2716457095436
 30
0.0
  0
VERTEX
  5
429
  8
0
  6
CADDY_SOLID
 10
73.96066298462182
 20
203.0555372087255
 30
0.0
  0
VERTEX
  5
42A
  8
0
  6
CADDY_SOLID
 10
74.11611652351682
 20
202.8661165235168
 30
0.0
  0
VERTEX
  5
42B
  8
0
  6
CADDY_SOLID
 10
74.3055372087255
 20
202.7106629846218
 30
0.0
  0
VERTEX
  5
42C
  8
0
  6
CADDY_SOLID
 10
74.52164570954363
 20
202.5951505843609
 30
0.0
  0
VERTEX
  5
42D
  8
0
  6
CADDY_SOLID
 10
74.75613709747984
 20
202.524018399496
 30
0.0
  0
VERTEX
  5
42E
  8
0
  6
CADDY_SOLID
 10
75.0
 20
202.5
 30
0.0
  0
SEQEND
  5
458
  8
0
  6
CADDY_SOLID
  0
POLYLINE
  5
19B
  8
0
  6
CADDY_SOLID
 66
     1
 10
0.0
 20
0.0
 30
0.0
  0
VERTEX
  5
42F
  8
0
  6
CADDY_SOLID
 10
65.0
 20
205.0
 30
0.0
  0
VERTEX
  5
430
  8
0
  6
CADDY_SOLID
 10
64.75613709747984
 20
204.975981600504
 30
0.0
  0
VERTEX
  5
431
  8
0
  6
CADDY_SOLID
 10
64.52164570954363
 20
204.9048494156391
 30
0.0
  0
VERTEX
  5
432
  8
0
  6
CADDY_SOLID
 10
64.3055372087255
 20
204.7893370153782
 30
0.0
  0
VERTEX
  5
433
  8
0
  6
CADDY_SOLID
 10
64.11611652351682
 20
204.6338834764832
 30
0.0
  0
VERTEX
  5
434
  8
0
  6
CADDY_SOLID
 10
63.96066298462182
 20
204.4444627912745
 30
0.0
  0
VERTEX
  5
435
  8
0
  6
CADDY_SOLID
 10
63.84515058436089
 20
204.2283542904564
 30
0.0
  0
VERTEX
  5
436
  8
0
  6
CADDY_SOLID
 10
63.77401839949597
 20
203.9938629025202
 30
0.0
  0
VERTEX
  5
437
  8
0
  6
CADDY_SOLID
 10
63.75
 20
203.75
 30
0.0
  0
VERTEX
  5
438
  8
0
  6
CADDY_SOLID
 10
63.77401839949597
 20
203.5061370974798
 30
0.0
  0
VERTEX
  5
439
  8
0
  6
CADDY_SOLID
 10
63.84515058436089
 20
203.2716457095436
 30
0.0
  0
VERTEX
  5
43A
  8
0
  6
CADDY_SOLID
 10
63.96066298462182
 20
203.0555372087255
 30
0.0
  0
VERTEX
  5
43B
  8
0
  6
CADDY_SOLID
 10
64.11611652351682
 20
202.8661165235168
 30
0.0
  0
VERTEX
  5
43C
  8
0
  6
CADDY_SOLID
 10
64.3055372087255
 20
202.7106629846218
 30
0.0
  0
VERTEX
  5
43D
  8
0
  6
CADDY_SOLID
 10
64.52164570954363
 20
202.5951505843609
 30
0.0
  0
VERTEX
  5
43E
  8
0
  6
CADDY_SOLID
 10
64.75613709747984
 20
202.524018399496
 30
0.0
  0
VERTEX
  5
43F
  8
0
  6
CADDY_SOLID
 10
65.0
 20
202.5
 30
0.0
  0
SEQEND
  5
459
  8
0
  6
CADDY_SOLID
  0
LINE
  5
19C
  8
0
  6
CADDY_SOLID
 10
63.556640625
 20
200.0
 30
0.0
 11
65.0
 21
200.0
 31
0.0
  0
LINE
  5
19D
  8
0
  6
CADDY_SOLID
 10
66.0
 20
200.0
 30
0.0
 11
68.0
 21
200.0
 31
0.0
  0
LINE
  5
19E
  8
0
  6
CADDY_SOLID
 10
69.0
 20
200.0
 30
0.0
 11
71.0
 21
200.0
 31
0.0
  0
LINE
  5
19F
  8
0
  6
CADDY_SOLID
 10
72.0
 20
200.0
 30
0.0
 11
73.556640625
 21
200.0
 31
0.0
  0
ATTDEF
  5
1A2
  8
0
 10
42.19352237854004
 20
198.8000030517578
 30
0.0
 40
2.449996948242188
  1
27F1.2
 41
0.9
  7
CADDY_VECTORFONT1P
 72
     2
 11
59.0000114440918
 21
198.8000030517578
 31
0.0
  3
Produkt (-)
  2
$TAG160010
 70
     1
  0
ATTDEF
  5
1A4
  8
0
 10
41.70180799102783
 20
195.3000030517578
 30
0.0
 40
2.449996948242188
  1

 41
0.9
  7
CADDY_VECTORFONT1P
 72
     2
 11
59.0000114440918
 21
195.3000030517578
 31
0.0
  3
Side/strømvej reference
  2
$TAG160500
 70
     0
  0
ATTDEF
  5
1A6
  8
0
 10
64.05000305175781
 20
205.9000091552734
 30
0.0
 40
2.449996948242188
  1

 50
90.0
 41
0.9
  7
CADDY_VECTORFONT1P
  3
Tilslutningstekst 00
  2
$TAG175000_00
 70
     0
  0
ATTDEF
  5
1A8
  8
0
 10
64.05000305175781
 20
172.9658327224732
 30
0.0
 40
2.449996948242188
  1
2
 50
90.0
 41
0.9
  7
CADDY_VECTORFONT1P
 72
     2
 11
64.05000305175781
 21
195.9000091552734
 31
0.0
  3
Tilslutningstekst 01
  2
$TAG175000_01
 70
     0
  0
ATTDEF
  5
1AA
  8
0
 10
69.05000305175781
 20
205.9000091552734
 30
0.0
 40
2.449996948242188
  1

 50
90.0
 41
0.9
  7
CADDY_VECTORFONT1P
  3
Tilslutningstekst 02
  2
$TAG175000_02
 70
     0
  0
ATTDEF
  5
1AC
  8
0
 10
69.05000305175781
 20
172.4763080734253
 30
0.0
 40
2.449996948242188
  1
4
 50
90.0
 41
0.9
  7
CADDY_VECTORFONT1P
 72
     2
 11
69.05000305175781
 21
195.8999938964844
 31
0.0
  3
Tilslutningstekst 03
  2
$TAG175000_03
 70
     0
  0
ATTDEF
  5
1AE
  8
0
 10
74.05000305175781
 20
205.9000091552734
 30
0.0
 40
2.449996948242188
  1

 50
90.0
 41
0.9
  7
CADDY_VECTORFONT1P
  3
Tilslutningstekst 04
  2
$TAG175000_04
 70
     0
  0
ATTDEF
  5
1B0
  8
0
 10
74.05000305175781
 20
172.4763080734253
 30
0.0
 40
2.449996948242188
  1
6
 50
90.0
 41
0.9
  7
CADDY_VECTORFONT1P
 72
     2
 11
74.05000305175781
 21
195.8999938964844
 31
0.0
  3
Tilslutningstekst 05
  2
$TAG175000_05
 70
     0
  0
ATTDEF
  5
1B2
  8
0
 10
41.45705329589844
 20
205.8000030517578
 30
0.0
 40
2.449996948242188
  1
=
 41
0.9
  7
CADDY_VECTORFONT1P
 72
     2
 11
59.0000114440918
 21
205.8000030517578
 31
0.0
  3
Funktion (=)
  2
$TAG140020
 70
     1
  0
ATTDEF
  5
1B4
  8
0
 10
41.45705711059571
 20
202.3000030517578
 30
0.0
 40
2.449996948242188
  1
+
 41
0.9
  7
CADDY_VECTORFONT1P
 72
     2
 11
59.00001525878906
 21
202.3000030517578
 31
0.0
  3
Placering (+)
  2
$TAG140050
 70
     1
  0
ATTDEF
  5
1B6
  8
0
 10
31.50179578399658
 20
197.5574798583984
 30
0.0
 40
2.449996948242188
  1

 41
0.9
  7
CADDY_VECTORFONT1P
 72
     2
 11
48.79999923706055
 21
197.5574798583984
 31
0.0
  3
Beskrivelse 00
  2
$TAG160030
 70
     0
  0
ATTDEF
  5
1B8
  8
0
 10
31.25704108886719
 20
194.0574798583984
 30
0.0
 40
2.449996948242188
  1

 41
0.9
  7
CADDY_VECTORFONT1P
 72
     2
 11
48.79999923706055
 21
194.0574798583984
 31
0.0
  3
Type
  2
$TAG160040
 70
     1
  0
ENDBLK
  8
0
  0
BLOCK
  8
0
  2
BLK7
 70
     2
 10
0.0
 20
0.0
 30
0.0
  0
CIRCLE
  5
1BD
  8
0
  6
CADDY_SOLID
 10
80.0
 20
102.5
 30
0.0
 40
0.75
  0
LINE
  5
1BE
  8
0
  6
CADDY_SOLID
 10
80.0
 20
103.25
 30
0.0
 11
80.0
 21
105.0
 31
0.0
  0
LINE
  5
1BF
  8
0
  6
CADDY_SOLID
 10
80.0
 20
100.0
 30
0.0
 11
80.0
 21
101.75
 31
0.0
  0
ATTDEF
  5
1C2
  8
2
 10
58.24345402069092
 20
101.3000030517578
 30
0.0
 40
2.450004577636719
  1
-X20
 41
0.9
  7
CADDY_VECTORFONT1P
 72
     2
 11
75.04999542236328
 21
101.3000030517578
 31
0.0
  3
Produkt (-)
  2
$TAG160010
 70
     1
  0
ATTDEF
  5
1C4
  8
2
 10
79.09999084472656
 20
104.1999969482422
 30
0.0
 40
2.450004577636719
  1
PE
 50
90.0
 41
0.9
  7
CADDY_VECTORFONT1P
  3
Klemmenummer
  2
$TAG160400
 70
     0
  0
ATTDEF
  5
1C6
  8
0
 10
82.59999084472656
 20
104.1999969482422
 30
0.0
 40
2.450004577636719
  1
5
 50
90.0
 41
0.9
  7
CADDY_VECTORFONT1P
  3
Sorteringsindeks
  2
$TAG160410
 70
     1
  0
ATTDEF
  5
1C8
  8
2
 10
57.75173810195923
 20
97.80000305175781
 30
0.0
 40
2.450004577636719
  1

 41
0.9
  7
CADDY_VECTORFONT1P
 72
     2
 11
75.04999542236328
 21
97.80000305175781
 31
0.0
  3
Beskrivelse 00
  2
$TAG160030
 70
     1
  0
ATTDEF
  5
1CA
  8
2
 10
57.50699790344238
 20
92.80000305175781
 30
0.0
 40
2.450004577636719
  1
AB1RRTP235U2
 41
0.9
  7
CADDY_VECTORFONT1P
 72
     2
 11
75.05001068115234
 21
92.80000305175781
 31
0.0
  3
Type
  2
$TAG160040
 70
     1
  0
ATTDEF
  5
1CC
  8
2
 10
57.50699027404785
 20
108.3000030517578
 30
0.0
 40
2.450004577636719
  1
=
 41
0.9
  7
CADDY_VECTORFONT1P
 72
     2
 11
75.05000305175781
 21
108.3000030517578
 31
0.0
  3
Funktion (=)
  2
$TAG140020
 70
     1
  0
ATTDEF
  5
1CE
  8
2
 10
57.50698264465332
 20
104.8000030517578
 30
0.0
 40
2.450004577636719
  1
+
 41
0.9
  7
CADDY_VECTORFONT1P
 72
     2
 11
75.04999542236328
 21
104.8000030517578
 31
0.0
  3
Placering (+)
  2
$TAG140050
 70
     1
  0
ENDBLK
  8
0
  0
BLOCK
  8
0
  2
BLK8
 70
     2
 10
0.0
 20
0.0
 30
0.0
  0
LINE
  5
1D4
  8
0
  6
CADDY_SOLID
 10
65.0
 20
75.59016418457031
 30
0.0
 11
65.0
 21
80.0
 31
0.0
  0
LINE
  5
1D5
  8
0
  6
CADDY_SOLID
 10
75.0
 20
75.59016418457031
 30
0.0
 11
75.0
 21
80.0
 31
0.0
  0
CIRCLE
  5
1D6
  8
0
  6
CADDY_SOLID
 10
70.0
 20
70.0
 30
0.0
 40
7.5
  0
LINE
  5
1D7
  8
0
  6
CADDY_SOLID
 10
80.0
 20
80.0
 30
0.0
 11
80.0
 21
72.5
 31
0.0
  0
LINE
  5
1D8
  8
0
  6
CADDY_SOLID
 10
77.07107543945312
 20
72.5
 30
0.0
 11
80.0
 21
72.5
 31
0.0
  0
LINE
  5
1D9
  8
0
  6
CADDY_SOLID
 10
66.86248779296875
 20
69.9324951171875
 30
0.0
 11
67.38751220703125
 21
69.9324951171875
 31
0.0
  0
LINE
  5
1DA
  8
0
  6
CADDY_SOLID
 10
67.38751220703125
 20
69.9324951171875
 30
0.0
 11
67.47500610351562
 21
69.91499328613281
 31
0.0
  0
LINE
  5
1DB
  8
0
  6
CADDY_SOLID
 10
67.47500610351562
 20
69.91499328613281
 30
0.0
 11
67.5625
 21
69.89750671386719
 31
0.0
  0
LINE
  5
1DC
  8
0
  6
CADDY_SOLID
 10
67.5625
 20
69.89750671386719
 30
0.0
 11
67.64999389648438
 21
69.86250305175781
 31
0.0
  0
LINE
  5
1DD
  8
0
  6
CADDY_SOLID
 10
67.64999389648438
 20
69.86250305175781
 30
0.0
 11
67.73748779296875
 21
69.79249572753906
 31
0.0
  0
LINE
  5
1DE
  8
0
  6
CADDY_SOLID
 10
67.73748779296875
 20
69.79249572753906
 30
0.0
 11
67.82501220703125
 21
69.6875
 31
0.0
  0
LINE
  5
1DF
  8
0
  6
CADDY_SOLID
 10
67.82501220703125
 20
69.6875
 30
0.0
 11
67.87750244140625
 21
69.58250427246094
 31
0.0
  0
LINE
  5
1E0
  8
0
  6
CADDY_SOLID
 10
67.87750244140625
 20
69.58250427246094
 30
0.0
 11
67.89501953125
 21
69.4949951171875
 31
0.0
  0
LINE
  5
1E1
  8
0
  6
CADDY_SOLID
 10
67.89501953125
 20
69.4949951171875
 30
0.0
 11
67.91250610351562
 21
69.40750122070312
 31
0.0
  0
LINE
  5
1E2
  8
0
  6
CADDY_SOLID
 10
67.91250610351562
 20
69.40750122070312
 30
0.0
 11
67.91250610351562
 21
69.32000732421875
 31
0.0
  0
LINE
  5
1E3
  8
0
  6
CADDY_SOLID
 10
67.91250610351562
 20
69.32000732421875
 30
0.0
 11
67.89501953125
 21
69.23249816894531
 31
0.0
  0
LINE
  5
1E4
  8
0
  6
CADDY_SOLID
 10
67.89501953125
 20
69.23249816894531
 30
0.0
 11
67.87750244140625
 21
69.14500427246094
 31
0.0
  0
LINE
  5
1E5
  8
0
  6
CADDY_SOLID
 10
67.87750244140625
 20
69.14500427246094
 30
0.0
 11
67.82501220703125
 21
69.03999328613281
 31
0.0
  0
LINE
  5
1E6
  8
0
  6
CADDY_SOLID
 10
67.82501220703125
 20
69.03999328613281
 30
0.0
 11
67.73748779296875
 21
68.93499755859375
 31
0.0
  0
LINE
  5
1E7
  8
0
  6
CADDY_SOLID
 10
67.73748779296875
 20
68.93499755859375
 30
0.0
 11
67.64999389648438
 21
68.88250732421875
 31
0.0
  0
LINE
  5
1E8
  8
0
  6
CADDY_SOLID
 10
67.64999389648438
 20
68.88250732421875
 30
0.0
 11
67.5625
 21
68.83000183105469
 31
0.0
  0
LINE
  5
1E9
  8
0
  6
CADDY_SOLID
 10
67.5625
 20
68.83000183105469
 30
0.0
 11
67.47500610351562
 21
68.8125
 31
0.0
  0
LINE
  5
1EA
  8
0
  6
CADDY_SOLID
 10
67.47500610351562
 20
68.8125
 30
0.0
 11
67.38751220703125
 21
68.79499816894531
 31
0.0
  0
LINE
  5
1EB
  8
0
  6
CADDY_SOLID
 10
67.38751220703125
 20
68.79499816894531
 30
0.0
 11
67.21249389648438
 21
68.79499816894531
 31
0.0
  0
LINE
  5
1EC
  8
0
  6
CADDY_SOLID
 10
67.21249389648438
 20
68.79499816894531
 30
0.0
 11
67.38751220703125
 21
68.79499816894531
 31
0.0
  0
LINE
  5
1ED
  8
0
  6
CADDY_SOLID
 10
67.38751220703125
 20
68.79499816894531
 30
0.0
 11
67.47500610351562
 21
68.77749633789062
 31
0.0
  0
LINE
  5
1EE
  8
0
  6
CADDY_SOLID
 10
67.47500610351562
 20
68.77749633789062
 30
0.0
 11
67.5625
 21
68.75999450683594
 31
0.0
  0
LINE
  5
1EF
  8
0
  6
CADDY_SOLID
 10
67.5625
 20
68.75999450683594
 30
0.0
 11
67.64999389648438
 21
68.70750427246094
 31
0.0
  0
LINE
  5
1F0
  8
0
  6
CADDY_SOLID
 10
67.64999389648438
 20
68.70750427246094
 30
0.0
 11
67.73748779296875
 21
68.65499877929688
 31
0.0
  0
LINE
  5
1F1
  8
0
  6
CADDY_SOLID
 10
67.73748779296875
 20
68.65499877929688
 30
0.0
 11
67.82501220703125
 21
68.55000305175781
 31
0.0
  0
LINE
  5
1F2
  8
0
  6
CADDY_SOLID
 10
67.82501220703125
 20
68.55000305175781
 30
0.0
 11
67.87750244140625
 21
68.44500732421875
 31
0.0
  0
LINE
  5
1F3
  8
0
  6
CADDY_SOLID
 10
67.87750244140625
 20
68.44500732421875
 30
0.0
 11
67.89501953125
 21
68.35749816894531
 31
0.0
  0
LINE
  5
1F4
  8
0
  6
CADDY_SOLID
 10
67.89501953125
 20
68.35749816894531
 30
0.0
 11
67.91250610351562
 21
68.27000427246094
 31
0.0
  0
LINE
  5
1F5
  8
0
  6
CADDY_SOLID
 10
67.91250610351562
 20
68.27000427246094
 30
0.0
 11
67.91250610351562
 21
68.00750732421875
 31
0.0
  0
LINE
  5
1F6
  8
0
  6
CADDY_SOLID
 10
67.91250610351562
 20
68.00750732421875
 30
0.0
 11
67.89501953125
 21
67.91999816894531
 31
0.0
  0
LINE
  5
1F7
  8
0
  6
CADDY_SOLID
 10
67.89501953125
 20
67.91999816894531
 30
0.0
 11
67.87750244140625
 21
67.83250427246094
 31
0.0
  0
LINE
  5
1F8
  8
0
  6
CADDY_SOLID
 10
67.87750244140625
 20
67.83250427246094
 30
0.0
 11
67.82501220703125
 21
67.72749328613281
 31
0.0
  0
LINE
  5
1F9
  8
0
  6
CADDY_SOLID
 10
67.82501220703125
 20
67.72749328613281
 30
0.0
 11
67.73748779296875
 21
67.62249755859375
 31
0.0
  0
LINE
  5
1FA
  8
0
  6
CADDY_SOLID
 10
67.73748779296875
 20
67.62249755859375
 30
0.0
 11
67.64999389648438
 21
67.57000732421875
 31
0.0
  0
LINE
  5
1FB
  8
0
  6
CADDY_SOLID
 10
67.64999389648438
 20
67.57000732421875
 30
0.0
 11
67.5625
 21
67.51750183105469
 31
0.0
  0
LINE
  5
1FC
  8
0
  6
CADDY_SOLID
 10
67.5625
 20
67.51750183105469
 30
0.0
 11
67.47500610351562
 21
67.5
 31
0.0
  0
LINE
  5
1FD
  8
0
  6
CADDY_SOLID
 10
67.47500610351562
 20
67.5
 30
0.0
 11
67.38751220703125
 21
67.48249816894531
 31
0.0
  0
LINE
  5
1FE
  8
0
  6
CADDY_SOLID
 10
67.38751220703125
 20
67.48249816894531
 30
0.0
 11
66.86248779296875
 21
67.48249816894531
 31
0.0
  0
LINE
  5
1FF
  8
0
  6
CADDY_SOLID
 10
69.29998779296875
 20
71.19999694824219
 30
0.0
 11
69.29998779296875
 21
73.64999389648438
 31
0.0
  0
LINE
  5
200
  8
0
  6
CADDY_SOLID
 10
69.29998779296875
 20
73.64999389648438
 30
0.0
 11
70.0
 21
72.25
 31
0.0
  0
LINE
  5
201
  8
0
  6
CADDY_SOLID
 10
70.0
 20
72.25
 30
0.0
 11
70.70001220703125
 21
73.64999389648438
 31
0.0
  0
LINE
  5
202
  8
0
  6
CADDY_SOLID
 10
70.70001220703125
 20
73.64999389648438
 30
0.0
 11
70.70001220703125
 21
71.19999694824219
 31
0.0
  0
POLYLINE
  5
203
  8
0
  6
CADDY_SOLID
 66
     1
 10
0.0
 20
0.0
 30
0.0
  0
VERTEX
  5
440
  8
0
  6
CADDY_SOLID
 10
71.06481935257266
 20
69.03504945511172
 30
0.0
  0
VERTEX
  5
441
  8
0
  6
CADDY_SOLID
 10
70.88494852694407
 20
69.18379035591298
 30
0.0
  0
VERTEX
  5
442
  8
0
  6
CADDY_SOLID
 10
70.68034705097277
 20
69.29610956848963
 30
0.0
  0
VERTEX
  5
443
  8
0
  6
CADDY_SOLID
 10
70.45829404288209
 20
69.3680111058957
 30
0.0
  0
VERTEX
  5
444
  8
0
  6
CADDY_SOLID
 10
70.2266894950356
 20
69.39693692308909
 30
0.0
  0
VERTEX
  5
445
  8
0
  6
CADDY_SOLID
 10
69.99377321546424
 20
69.38185792464385
 30
0.0
  0
VERTEX
  5
446
  8
0
  6
CADDY_SOLID
 10
69.76783167975229
 20
69.32331057693617
 30
0.0
  0
VERTEX
  5
447
  8
0
  6
CADDY_SOLID
 10
69.55690322262932
 20
69.22337782224984
 30
0.0
  0
VERTEX
  5
448
  8
0
  6
CADDY_SOLID
 10
69.36849205768313
 20
69.08561497382146
 30
0.0
  0
VERTEX
  5
449
  8
0
  6
CADDY_SOLID
 10
69.20930129953075
 20
68.91492322826137
 30
0.0
  0
VERTEX
  5
44A
  8
0
  6
CADDY_SOLID
 10
69.0849944867325
 20
68.71737529540604
 30
0.0
  0
VERTEX
  5
44B
  8
0
  6
CADDY_SOLID
 10
68.99999408976193
 20
68.4999993491785
 30
0.0
  0
SEQEND
  5
45A
  8
0
  6
CADDY_SOLID
  0
POLYLINE
  5
204
  8
0
  6
CADDY_SOLID
 66
     1
 10
0.0
 20
0.0
 30
0.0
  0
VERTEX
  5
44C
  8
0
  6
CADDY_SOLID
 10
72.1148071122711
 20
67.9850463700836
 30
0.0
  0
VERTEX
  5
44D
  8
0
  6
CADDY_SOLID
 10
72.30964112235876
 20
67.82630354550521
 30
0.0
  0
VERTEX
  5
44E
  8
0
  6
CADDY_SOLID
 10
72.53252998622092
 20
67.71019958257457
 30
0.0
  0
VERTEX
  5
44F
  8
0
  6
CADDY_SOLID
 10
72.77428019165113
 20
67.64152342938867
 30
0.0
  0
VERTEX
  5
450
  8
0
  6
CADDY_SOLID
 10
73.02492025139772
 20
67.62310777593326
 30
0.0
  0
VERTEX
  5
451
  8
0
  6
CADDY_SOLID
 10
73.27411199778024
 20
67.65571221392551
 30
0.0
  0
VERTEX
  5
452
  8
0
  6
CADDY_SOLID
 10
73.5115770017986
 20
67.7379919058824
 30
0.0
  0
VERTEX
  5
453
  8
0
  6
CADDY_SOLID
 10
73.72752052819675
 20
67.86655305572438
 30
0.0
  0
VERTEX
  5
454
  8
0
  6
CADDY_SOLID
 10
73.91303553957745
 20
68.0360928929143
 30
0.0
  0
VERTEX
  5
455
  8
0
  6
CADDY_SOLID
 10
74.06047008558274
 20
68.23961839619626
 30
0.0
  0
VERTEX
  5
456
  8
0
  6
CADDY_SOLID
 10
74.16374292341357
 20
68.4687347352215
 30
0.0
  0
SEQEND
  5
45B
  8
0
  6
CADDY_SOLID
  0
LINE
  5
205
  8
0
  6
CADDY_SOLID
 10
71.0648193359375
 20
69.03504943847656
 30
0.0
 11
72.11480712890625
 21
67.98504638671875
 31
0.0
  0
LINE
  5
206
  8
0
  6
CADDY_SOLID
 10
70.0
 20
77.5
 30
0.0
 11
70.0
 21
80.0
 31
0.0
  0
ATTDEF
  5
209
  8
0
 10
43.19347004241943
 20
68.80000305175781
 30
0.0
 40
2.450004577636719
  1
M3601
 41
0.9
  7
CADDY_VECTORFONT1P
 72
     2
 11
60.0000114440918
 21
68.80000305175781
 31
0.0
  3
Produkt (-)
  2
$TAG160010
 70
     0
  0
ATTDEF
  5
20B
  8
0
 10
42.45702598114013
 20
61.80000686645508
 30
0.0
 40
2.450000762939453
  1

 41
0.9
  7
CADDY_VECTORFONT1P
 72
     2
 11
60.0000114440918
 21
61.80000686645508
 31
0.0
  3
Type
  2
$TAG160040
 70
     1
  0
ATTDEF
  5
20D
  8
0
 10
42.70175412368774
 20
65.30000305175781
 30
0.0
 40
2.450004577636719
  1

 41
0.9
  7
CADDY_VECTORFONT1P
 72
     2
 11
60.0000114440918
 21
65.30000305175781
 31
0.0
  3
Beskrivelse 00
  2
$TAG160030
 70
     0
  0
ATTDEF
  5
20F
  8
0
 10
64.09999084472656
 20
78.39999389648438
 30
0.0
 40
2.450004577636719
  1
U1
 50
90.0
 41
0.9
  7
CADDY_VECTORFONT1P
  3
Tilslutningstekst 00
  2
$TAG175000_00
 70
     0
  0
ATTDEF
  5
211
  8
0
 10
69.09999084472656
 20
78.39999389648438
 30
0.0
 40
2.450004577636719
  1
V1
 50
90.0
 41
0.9
  7
CADDY_VECTORFONT1P
  3
Tilslutningstekst 01
  2
$TAG175000_01
 70
     0
  0
ATTDEF
  5
213
  8
0
 10
74.09999084472656
 20
78.39999389648438
 30
0.0
 40
2.450004577636719
  1
W1
 50
90.0
 41
0.9
  7
CADDY_VECTORFONT1P
  3
Tilslutningstekst 02
  2
$TAG175000_02
 70
     0
  0
ATTDEF
  5
215
  8
0
 10
79.09999084472656
 20
78.39999389648438
 30
0.0
 40
2.450004577636719
  1

 50
90.0
 41
0.9
  7
CADDY_VECTORFONT1P
  3
Tilslutningstekst 03
  2
$TAG175000_03
 70
     0
  0
ENDBLK
  8
0
  0
BLOCK
  8
0
  2
BLK9
 70
     2
 10
0.0
 20
0.0
 30
0.0
  0
ATTDEF
  5
21C
  8
0
 10
90.69999694824219
 20
85.69999694824219
 30
0.0
 40
2.450004577636719
  1
W3601
 41
0.9
  7
CADDY_VECTORFONT1P
  3
Produkt (-)
  2
$TAG160010
 70
     1
  0
ATTDEF
  5
21E
  8
0
 10
90.69999694824219
 20
80.69999694824219
 30
0.0
 40
2.450004577636719
  1

 41
0.9
  7
CADDY_VECTORFONT1P
  3
Beskrivelse 00
  2
$TAG160030
 70
     1
  0
ATTDEF
  5
220
  8
0
 10
90.69999694824219
 20
75.69999694824219
 30
0.0
 40
2.450004577636719
  1

 41
0.9
  7
CADDY_VECTORFONT1P
  3
Kabeldimension
  2
$TAG160200
 70
     1
  0
ATTDEF
  5
222
  8
0
 10
90.69999694824219
 20
70.69999694824219
 30
0.0
 40
2.450004577636719
  1

 41
0.9
  7
CADDY_VECTORFONT1P
  3
Type
  2
$TAG160040
 70
     1
  0
ATTDEF
  5
224
  8
0
 10
90.69999694824219
 20
65.69999694824219
 30
0.0
 40
2.450004577636719
  1

 41
0.9
  7
CADDY_VECTORFONT1P
  3
Længde
  2
$TAG160101
 70
     1
  0
ATTDEF
  5
226
  8
0
 10
65.69999694824219
 20
85.69999694824219
 30
0.0
 40
2.450004577636719
  1
1
 41
0.9
  7
CADDY_VECTORFONT1P
  3
Kabelkorenummer
  2
$TAG160210
 70
     0
  0
ATTDEF
  5
228
  8
0
 10
65.69999694824219
 20
80.69999694824219
 30
0.0
 40
2.450004577636719
  1

 41
0.9
  7
CADDY_VECTORFONT1P
  3
Kabelkorefarve
  2
$TAG160220
 70
     1
  0
ATTDEF
  5
22A
  8
0
 10
65.69999694824219
 20
75.69999694824219
 30
0.0
 40
2.450004577636719
  1

 41
0.9
  7
CADDY_VECTORFONT1P
  3
Kabelkoretværsnit
  2
$TAG160230
 70
     1
  0
LINE
  5
22B
  8
0
  6
CADDY_SOLID
 10
65.0
 20
85.5
 30
0.0
 11
65.0
 21
84.5
 31
0.0
  0
ENDBLK
  8
0
  0
BLOCK
  8
0
  2
BLK10
 70
     2
 10
0.0
 20
0.0
 30
0.0
  0
ATTDEF
  5
232
  8
0
 10
90.69999694824219
 20
85.69999694824219
 30
0.0
 40
2.450004577636719
  1
W3601
 41
0.9
  7
CADDY_VECTORFONT1P
  3
Produkt (-)
  2
$TAG160010
 70
     1
  0
ATTDEF
  5
234
  8
0
 10
90.69999694824219
 20
80.69999694824219
 30
0.0
 40
2.450004577636719
  1

 41
0.9
  7
CADDY_VECTORFONT1P
  3
Beskrivelse 00
  2
$TAG160030
 70
     1
  0
ATTDEF
  5
236
  8
0
 10
90.69999694824219
 20
75.69999694824219
 30
0.0
 40
2.450004577636719
  1

 41
0.9
  7
CADDY_VECTORFONT1P
  3
Kabeldimension
  2
$TAG160200
 70
     1
  0
ATTDEF
  5
238
  8
0
 10
90.69999694824219
 20
70.69999694824219
 30
0.0
 40
2.450004577636719
  1

 41
0.9
  7
CADDY_VECTORFONT1P
  3
Type
  2
$TAG160040
 70
     1
  0
ATTDEF
  5
23A
  8
0
 10
90.69999694824219
 20
65.69999694824219
 30
0.0
 40
2.450004577636719
  1

 41
0.9
  7
CADDY_VECTORFONT1P
  3
Længde
  2
$TAG160101
 70
     1
  0
ATTDEF
  5
23C
  8
0
 10
70.69999694824219
 20
85.69999694824219
 30
0.0
 40
2.450004577636719
  1
2
 41
0.9
  7
CADDY_VECTORFONT1P
  3
Kabelkorenummer
  2
$TAG160210
 70
     0
  0
ATTDEF
  5
23E
  8
0
 10
70.69999694824219
 20
80.69999694824219
 30
0.0
 40
2.450004577636719
  1

 41
0.9
  7
CADDY_VECTORFONT1P
  3
Kabelkorefarve
  2
$TAG160220
 70
     1
  0
ATTDEF
  5
240
  8
0
 10
70.69999694824219
 20
75.69999694824219
 30
0.0
 40
2.450004577636719
  1

 41
0.9
  7
CADDY_VECTORFONT1P
  3
Kabelkoretværsnit
  2
$TAG160230
 70
     1
  0
LINE
  5
241
  8
0
  6
CADDY_SOLID
 10
70.0
 20
85.5
 30
0.0
 11
70.0
 21
84.5
 31
0.0
  0
ENDBLK
  8
0
  0
BLOCK
  8
0
  2
BLK11
 70
     2
 10
0.0
 20
0.0
 30
0.0
  0
ATTDEF
  5
248
  8
0
 10
90.69999694824219
 20
85.69999694824219
 30
0.0
 40
2.450004577636719
  1
W3601
 41
0.9
  7
CADDY_VECTORFONT1P
  3
Produkt (-)
  2
$TAG160010
 70
     1
  0
ATTDEF
  5
24A
  8
0
 10
90.69999694824219
 20
80.69999694824219
 30
0.0
 40
2.450004577636719
  1

 41
0.9
  7
CADDY_VECTORFONT1P
  3
Beskrivelse 00
  2
$TAG160030
 70
     1
  0
ATTDEF
  5
24C
  8
0
 10
90.69999694824219
 20
75.69999694824219
 30
0.0
 40
2.450004577636719
  1

 41
0.9
  7
CADDY_VECTORFONT1P
  3
Kabeldimension
  2
$TAG160200
 70
     1
  0
ATTDEF
  5
24E
  8
0
 10
90.69999694824219
 20
70.69999694824219
 30
0.0
 40
2.450004577636719
  1

 41
0.9
  7
CADDY_VECTORFONT1P
  3
Type
  2
$TAG160040
 70
     1
  0
ATTDEF
  5
250
  8
0
 10
90.69999694824219
 20
65.69999694824219
 30
0.0
 40
2.450004577636719
  1

 41
0.9
  7
CADDY_VECTORFONT1P
  3
Længde
  2
$TAG160101
 70
     1
  0
ATTDEF
  5
252
  8
0
 10
75.69999694824219
 20
85.69999694824219
 30
0.0
 40
2.450004577636719
  1
3
 41
0.9
  7
CADDY_VECTORFONT1P
  3
Kabelkorenummer
  2
$TAG160210
 70
     0
  0
ATTDEF
  5
254
  8
0
 10
75.69999694824219
 20
80.69999694824219
 30
0.0
 40
2.450004577636719
  1

 41
0.9
  7
CADDY_VECTORFONT1P
  3
Kabelkorefarve
  2
$TAG160220
 70
     1
  0
ATTDEF
  5
256
  8
0
 10
75.69999694824219
 20
75.69999694824219
 30
0.0
 40
2.450004577636719
  1

 41
0.9
  7
CADDY_VECTORFONT1P
  3
Kabelkoretværsnit
  2
$TAG160230
 70
     1
  0
LINE
  5
257
  8
0
  6
CADDY_SOLID
 10
75.0
 20
85.5
 30
0.0
 11
75.0
 21
84.5
 31
0.0
  0
ENDBLK
  8
0
  0
BLOCK
  8
0
  2
BLK12
 70
     2
 10
0.0
 20
0.0
 30
0.0
  0
ATTDEF
  5
25E
  8
0
 10
90.69999694824219
 20
85.69999694824219
 30
0.0
 40
2.450004577636719
  1
W3601
 41
0.9
  7
CADDY_VECTORFONT1P
  3
Produkt (-)
  2
$TAG160010
 70
     0
  0
ATTDEF
  5
260
  8
0
 10
90.69999694824219
 20
80.69999694824219
 30
0.0
 40
2.450004577636719
  1

 41
0.9
  7
CADDY_VECTORFONT1P
  3
Beskrivelse 00
  2
$TAG160030
 70
     1
  0
ATTDEF
  5
262
  8
0
 10
90.69999694824219
 20
75.69999694824219
 30
0.0
 40
2.450004577636719
  1

 41
0.9
  7
CADDY_VECTORFONT1P
  3
Kabeldimension
  2
$TAG160200
 70
     1
  0
ATTDEF
  5
264
  8
0
 10
90.69999694824219
 20
70.69999694824219
 30
0.0
 40
2.450004577636719
  1

 41
0.9
  7
CADDY_VECTORFONT1P
  3
Type
  2
$TAG160040
 70
     1
  0
ATTDEF
  5
266
  8
0
 10
90.69999694824219
 20
65.69999694824219
 30
0.0
 40
2.450004577636719
  1

 41
0.9
  7
CADDY_VECTORFONT1P
  3
Længde
  2
$TAG160101
 70
     1
  0
ATTDEF
  5
268
  8
0
 10
80.69999694824219
 20
85.69999694824219
 30
0.0
 40
2.450004577636719
  1
PE
 41
0.9
  7
CADDY_VECTORFONT1P
  3
Kabelkorenummer
  2
$TAG160210
 70
     0
  0
ATTDEF
  5
26A
  8
0
 10
80.69999694824219
 20
80.69999694824219
 30
0.0
 40
2.450004577636719
  1

 41
0.9
  7
CADDY_VECTORFONT1P
  3
Kabelkorefarve
  2
$TAG160220
 70
     1
  0
ATTDEF
  5
26C
  8
0
 10
80.69999694824219
 20
75.69999694824219
 30
0.0
 40
2.450004577636719
  1

 41
0.9
  7
CADDY_VECTORFONT1P
  3
Kabelkoretværsnit
  2
$TAG160230
 70
     1
  0
LINE
  5
26D
  8
0
  6
CADDY_SOLID
 10
80.0
 20
85.5
 30
0.0
 11
80.0
 21
84.5
 31
0.0
  0
ENDBLK
  8
0
  0
BLOCK
  8
0
  2
BLK13
 70
     2
 10
0.0
 20
0.0
 30
0.0
  0
LINE
  5
281
  8
0
  6
CADDY_SOLID
 10
97.5
 20
195.0
 30
0.0
 11
99.75
 21
193.75
 31
0.0
  0
LINE
  5
282
  8
0
  6
CADDY_SOLID
 10
97.5
 20
195.0
 30
0.0
 11
99.75
 21
196.25
 31
0.0
  0
LINE
  5
283
  8
0
  6
CADDY_SOLID
 10
100.0
 20
195.0
 30
0.0
 11
97.5
 21
195.0
 31
0.0
  0
ATTDEF
  5
286
  8
0
 10
101.5999908447266
 20
195.9000091552734
 30
0.0
 40
2.449996948242188
  1
0707
 41
0.9
  7
CADDY_VECTORFONT1P
  3
Produkt (-)
  2
$TAG160010
 70
     0
  0
ATTDEF
  5
288
  8
0
 10
77.7018118057251
 20
193.9499969482422
 30
0.0
 40
2.449996948242188
  1
37.3
 41
0.9
  7
CADDY_VECTORFONT1P
 72
     2
 11
95.00001525878906
 21
193.9499969482422
 31
0.0
  3
Side/strømvej reference
  2
$TAG160500
 70
     0
  0
ATTDEF
  5
28A
  8
0
 10
101.5999908447266
 20
202.9000091552734
 30
0.0
 40
2.449996948242188
  1
=
 41
0.9
  7
CADDY_VECTORFONT1P
  3
Funktion (=)
  2
$TAG140020
 70
     1
  0
ATTDEF
  5
28C
  8
0
 10
101.5999908447266
 20
199.4000091552734
 30
0.0
 40
2.449996948242188
  1
+
 41
0.9
  7
CADDY_VECTORFONT1P
  3
Placering (+)
  2
$TAG140050
 70
     1
  0
ENDBLK
  8
0
  0
BLOCK
  8
0
  2
BLK14
 70
     2
 10
0.0
 20
0.0
 30
0.0
  0
LINE
  5
297
  8
0
  6
CADDY_SOLID
 10
30.0
 20
260.0
 30
0.0
 11
27.75
 21
261.25
 31
0.0
  0
LINE
  5
298
  8
0
  6
CADDY_SOLID
 10
30.0
 20
260.0
 30
0.0
 11
27.75
 21
258.75
 31
0.0
  0
ATTDEF
  5
29B
  8
0
 10
31.76500701904297
 20
260.9000244140625
 30
0.0
 40
2.449981689453125
  1
3L1
 41
0.9
  7
CADDY_VECTORFONT1P
  3
Produkt (-)
  2
$TAG160010
 70
     0
  0
ATTDEF
  5
29D
  8
0
 10
7.986917480468747
 20
258.9500122070312
 30
0.0
 40
2.449981689453125
  1
34.0
 41
0.9
  7
CADDY_VECTORFONT1P
 72
     2
 11
25.28501319885254
 21
258.9500122070312
 31
0.0
  3
Side/strømvej reference
  2
$TAG160500
 70
     0
  0
ATTDEF
  5
29F
  8
0
 10
31.76500701904297
 20
267.9000244140625
 30
0.0
 40
2.449981689453125
  1
=
 41
0.9
  7
CADDY_VECTORFONT1P
  3
Funktion (=)
  2
$TAG140020
 70
     1
  0
ATTDEF
  5
2A1
  8
0
 10
31.76500701904297
 20
264.4000244140625
 30
0.0
 40
2.449981689453125
  1
+
 41
0.9
  7
CADDY_VECTORFONT1P
  3
Placering (+)
  2
$TAG140050
 70
     1
  0
ENDBLK
  8
0
  0
BLOCK
  8
0
  2
BLK15
 70
     2
 10
0.0
 20
0.0
 30
0.0
  0
LINE
  5
2A6
  8
0
  6
CADDY_SOLID
 10
115.0
 20
260.0
 30
0.0
 11
112.75
 21
261.25
 31
0.0
  0
LINE
  5
2A7
  8
0
  6
CADDY_SOLID
 10
115.0
 20
260.0
 30
0.0
 11
112.75
 21
258.75
 31
0.0
  0
ATTDEF
  5
2AA
  8
0
 10
93.47861926879882
 20
260.9000244140625
 30
0.0
 40
2.449981689453125
  1
3L1
 41
0.9
  7
CADDY_VECTORFONT1P
 72
     2
 11
110.2850036621094
 21
260.9000244140625
 31
0.0
  3
Produkt (-)
  2
$TAG160010
 70
     0
  0
ATTDEF
  5
2AC
  8
0
 10
115.8650131225586
 20
258.9500122070312
 30
0.0
 40
2.449981689453125
  1

 41
0.9
  7
CADDY_VECTORFONT1P
  3
Side/strømvej reference
  2
$TAG160500
 70
     0
  0
ATTDEF
  5
2AE
  8
0
 10
92.74217003173828
 20
267.9000244140625
 30
0.0
 40
2.449981689453125
  1
=
 41
0.9
  7
CADDY_VECTORFONT1P
 72
     2
 11
110.2850189208984
 21
267.9000244140625
 31
0.0
  3
Funktion (=)
  2
$TAG140020
 70
     1
  0
ATTDEF
  5
2B0
  8
0
 10
92.74216240234375
 20
264.4000244140625
 30
0.0
 40
2.449981689453125
  1
+
 41
0.9
  7
CADDY_VECTORFONT1P
 72
     2
 11
110.2850112915039
 21
264.4000244140625
 31
0.0
  3
Placering (+)
  2
$TAG140050
 70
     1
  0
ENDBLK
  8
0
  0
BLOCK
  8
0
  2
BLK16
 70
     2
 10
0.0
 20
0.0
 30
0.0
  0
LINE
  5
2B5
  8
0
  6
CADDY_SOLID
 10
30.0
 20
255.0
 30
0.0
 11
27.75
 21
256.25
 31
0.0
  0
LINE
  5
2B6
  8
0
  6
CADDY_SOLID
 10
30.0
 20
255.0
 30
0.0
 11
27.75
 21
253.75
 31
0.0
  0
ATTDEF
  5
2B9
  8
0
 10
31.76500701904297
 20
255.9000091552734
 30
0.0
 40
2.449996948242188
  1
3L2
 41
0.9
  7
CADDY_VECTORFONT1P
  3
Produkt (-)
  2
$TAG160010
 70
     0
  0
ATTDEF
  5
2BB
  8
0
 10
7.986809745788577
 20
253.9499969482422
 30
0.0
 40
2.449996948242188
  1
33.2
 41
0.9
  7
CADDY_VECTORFONT1P
 72
     2
 11
25.28501319885254
 21
253.9499969482422
 31
0.0
  3
Side/strømvej reference
  2
$TAG160500
 70
     0
  0
ATTDEF
  5
2BD
  8
0
 10
31.76500701904297
 20
262.9000244140625
 30
0.0
 40
2.449981689453125
  1
=
 41
0.9
  7
CADDY_VECTORFONT1P
  3
Funktion (=)
  2
$TAG140020
 70
     1
  0
ATTDEF
  5
2BF
  8
0
 10
31.76500701904297
 20
259.4000244140625
 30
0.0
 40
2.449981689453125
  1
+
 41
0.9
  7
CADDY_VECTORFONT1P
  3
Placering (+)
  2
$TAG140050
 70
     1
  0
ENDBLK
  8
0
  0
BLOCK
  8
0
  2
BLK17
 70
     2
 10
0.0
 20
0.0
 30
0.0
  0
LINE
  5
2C4
  8
0
  6
CADDY_SOLID
 10
115.0
 20
255.0
 30
0.0
 11
112.75
 21
256.25
 31
0.0
  0
LINE
  5
2C5
  8
0
  6
CADDY_SOLID
 10
115.0
 20
255.0
 30
0.0
 11
112.75
 21
253.75
 31
0.0
  0
ATTDEF
  5
2C8
  8
0
 10
93.47852222595215
 20
255.9000091552734
 30
0.0
 40
2.449996948242188
  1
3L2
 41
0.9
  7
CADDY_VECTORFONT1P
 72
     2
 11
110.2850112915039
 21
255.9000091552734
 31
0.0
  3
Produkt (-)
  2
$TAG160010
 70
     0
  0
ATTDEF
  5
2CA
  8
0
 10
115.8650131225586
 20
253.9499969482422
 30
0.0
 40
2.449996948242188
  1

 41
0.9
  7
CADDY_VECTORFONT1P
  3
Side/strømvej reference
  2
$TAG160500
 70
     0
  0
ATTDEF
  5
2CC
  8
0
 10
92.74217003173828
 20
262.9000244140625
 30
0.0
 40
2.449981689453125
  1
=
 41
0.9
  7
CADDY_VECTORFONT1P
 72
     2
 11
110.2850189208984
 21
262.9000244140625
 31
0.0
  3
Funktion (=)
  2
$TAG140020
 70
     1
  0
ATTDEF
  5
2CE
  8
0
 10
92.74216240234375
 20
259.4000244140625
 30
0.0
 40
2.449981689453125
  1
+
 41
0.9
  7
CADDY_VECTORFONT1P
 72
     2
 11
110.2850112915039
 21
259.4000244140625
 31
0.0
  3
Placering (+)
  2
$TAG140050
 70
     1
  0
ENDBLK
  8
0
  0
BLOCK
  8
0
  2
BLK18
 70
     2
 10
0.0
 20
0.0
 30
0.0
  0
LINE
  5
2D5
  8
0
  6
CADDY_SOLID
 10
30.0
 20
250.0
 30
0.0
 11
27.75
 21
251.25
 31
0.0
  0
LINE
  5
2D6
  8
0
  6
CADDY_SOLID
 10
30.0
 20
250.0
 30
0.0
 11
27.75
 21
248.75
 31
0.0
  0
ATTDEF
  5
2D9
  8
0
 10
31.76500701904297
 20
250.9000091552734
 30
0.0
 40
2.449996948242188
  1
3L3
 41
0.9
  7
CADDY_VECTORFONT1P
  3
Produkt (-)
  2
$TAG160010
 70
     0
  0
ATTDEF
  5
2DB
  8
0
 10
7.986809745788577
 20
248.9499969482422
 30
0.0
 40
2.449996948242188
  1
33.2
 41
0.9
  7
CADDY_VECTORFONT1P
 72
     2
 11
25.28501319885254
 21
248.9499969482422
 31
0.0
  3
Side/strømvej reference
  2
$TAG160500
 70
     0
  0
ATTDEF
  5
2DD
  8
0
 10
31.76500701904297
 20
257.9000244140625
 30
0.0
 40
2.449981689453125
  1
=
 41
0.9
  7
CADDY_VECTORFONT1P
  3
Funktion (=)
  2
$TAG140020
 70
     1
  0
ATTDEF
  5
2DF
  8
0
 10
31.76500701904297
 20
254.4000091552734
 30
0.0
 40
2.449996948242188
  1
+
 41
0.9
  7
CADDY_VECTORFONT1P
  3
Placering (+)
  2
$TAG140050
 70
     1
  0
ENDBLK
  8
0
  0
BLOCK
  8
0
  2
BLK19
 70
     2
 10
0.0
 20
0.0
 30
0.0
  0
LINE
  5
2E4
  8
0
  6
CADDY_SOLID
 10
115.0
 20
250.0
 30
0.0
 11
112.75
 21
251.25
 31
0.0
  0
LINE
  5
2E5
  8
0
  6
CADDY_SOLID
 10
115.0
 20
250.0
 30
0.0
 11
112.75
 21
248.75
 31
0.0
  0
ATTDEF
  5
2E8
  8
0
 10
93.47852222595215
 20
250.9000091552734
 30
0.0
 40
2.449996948242188
  1
3L3
 41
0.9
  7
CADDY_VECTORFONT1P
 72
     2
 11
110.2850112915039
 21
250.9000091552734
 31
0.0
  3
Produkt (-)
  2
$TAG160010
 70
     0
  0
ATTDEF
  5
2EA
  8
0
 10
115.8650131225586
 20
248.9499969482422
 30
0.0
 40
2.449996948242188
  1

 41
0.9
  7
CADDY_VECTORFONT1P
  3
Side/strømvej reference
  2
$TAG160500
 70
     0
  0
ATTDEF
  5
2EC
  8
0
 10
92.74217003173828
 20
257.9000244140625
 30
0.0
 40
2.449981689453125
  1
=
 41
0.9
  7
CADDY_VECTORFONT1P
 72
     2
 11
110.2850189208984
 21
257.9000244140625
 31
0.0
  3
Funktion (=)
  2
$TAG140020
 70
     1
  0
ATTDEF
  5
2EE
  8
0
 10
92.74205314331056
 20
254.4000091552734
 30
0.0
 40
2.449996948242188
  1
+
 41
0.9
  7
CADDY_VECTORFONT1P
 72
     2
 11
110.2850112915039
 21
254.4000091552734
 31
0.0
  3
Placering (+)
  2
$TAG140050
 70
     1
  0
ENDBLK
  8
0
  0
BLOCK
  8
0
  2
BLK20
 70
     2
 10
0.0
 20
0.0
 30
0.0
  0
CIRCLE
  5
305
  8
0
  6
CADDY_SOLID
 10
70.0
 20
137.5
 30
0.0
 40
0.75
  0
LINE
  5
306
  8
0
  6
CADDY_SOLID
 10
70.0
 20
138.25
 30
0.0
 11
70.0
 21
140.0
 31
0.0
  0
LINE
  5
307
  8
0
  6
CADDY_SOLID
 10
70.0
 20
135.0
 30
0.0
 11
70.0
 21
136.75
 31
0.0
  0
ATTDEF
  5
30A
  8
2
 10
48.24350635681152
 20
136.3000030517578
 30
0.0
 40
2.449996948242188
  1
-X20
 41
0.9
  7
CADDY_VECTORFONT1P
 72
     2
 11
65.04999542236328
 21
136.3000030517578
 31
0.0
  3
Produkt (-)
  2
$TAG160010
 70
     1
  0
ATTDEF
  5
30C
  8
2
 10
69.09999084472656
 20
139.1999969482422
 30
0.0
 40
2.449996948242188
  1
8V2
 50
90.0
 41
0.9
  7
CADDY_VECTORFONT1P
  3
Klemmenummer
  2
$TAG160400
 70
     0
  0
ATTDEF
  5
30E
  8
0
 10
72.59999084472656
 20
139.1999969482422
 30
0.0
 40
2.449996948242188
  1
2
 50
90.0
 41
0.9
  7
CADDY_VECTORFONT1P
  3
Sorteringsindeks
  2
$TAG160410
 70
     1
  0
ATTDEF
  5
310
  8
2
 10
47.75179196929932
 20
132.8000030517578
 30
0.0
 40
2.449996948242188
  1

 41
0.9
  7
CADDY_VECTORFONT1P
 72
     2
 11
65.04999542236328
 21
132.8000030517578
 31
0.0
  3
Beskrivelse 00
  2
$TAG160030
 70
     1
  0
ATTDEF
  5
312
  8
2
 10
47.50703727416992
 20
127.8000030517578
 30
0.0
 40
2.449996948242188
  1
AB1RR235U2GR
 41
0.9
  7
CADDY_VECTORFONT1P
 72
     2
 11
65.04999542236328
 21
127.8000030517578
 31
0.0
  3
Type
  2
$TAG160040
 70
     1
  0
ATTDEF
  5
314
  8
2
 10
47.50704490356446
 20
143.3000030517578
 30
0.0
 40
2.449996948242188
  1
=
 41
0.9
  7
CADDY_VECTORFONT1P
 72
     2
 11
65.05000305175781
 21
143.3000030517578
 31
0.0
  3
Funktion (=)
  2
$TAG140020
 70
     1
  0
ATTDEF
  5
316
  8
2
 10
47.50704490356446
 20
139.8000030517578
 30
0.0
 40
2.449996948242188
  1
+
 41
0.9
  7
CADDY_VECTORFONT1P
 72
     2
 11
65.05000305175781
 21
139.8000030517578
 31
0.0
  3
Placering (+)
  2
$TAG140050
 70
     1
  0
ENDBLK
  8
0
  0
BLOCK
  8
0
  2
BLK21
 70
     2
 10
0.0
 20
0.0
 30
0.0
  0
CIRCLE
  5
31B
  8
0
  6
CADDY_SOLID
 10
75.0
 20
137.5
 30
0.0
 40
0.75
  0
LINE
  5
31C
  8
0
  6
CADDY_SOLID
 10
75.0
 20
138.25
 30
0.0
 11
75.0
 21
140.0
 31
0.0
  0
LINE
  5
31D
  8
0
  6
CADDY_SOLID
 10
75.0
 20
135.0
 30
0.0
 11
75.0
 21
136.75
 31
0.0
  0
ATTDEF
  5
320
  8
2
 10
53.24351398620605
 20
136.3000030517578
 30
0.0
 40
2.449996948242188
  1
-X20
 41
0.9
  7
CADDY_VECTORFONT1P
 72
     2
 11
70.05000305175781
 21
136.3000030517578
 31
0.0
  3
Produkt (-)
  2
$TAG160010
 70
     1
  0
ATTDEF
  5
322
  8
2
 10
74.09999084472656
 20
139.1999969482422
 30
0.0
 40
2.449996948242188
  1
8W2
 50
90.0
 41
0.9
  7
CADDY_VECTORFONT1P
  3
Klemmenummer
  2
$TAG160400
 70
     0
  0
ATTDEF
  5
324
  8
0
 10
77.59999084472656
 20
139.1999969482422
 30
0.0
 40
2.449996948242188
  1
3
 50
90.0
 41
0.9
  7
CADDY_VECTORFONT1P
  3
Sorteringsindeks
  2
$TAG160410
 70
     1
  0
ATTDEF
  5
326
  8
2
 10
52.75179196929932
 20
132.8000030517578
 30
0.0
 40
2.449996948242188
  1

 41
0.9
  7
CADDY_VECTORFONT1P
 72
     2
 11
70.04999542236328
 21
132.8000030517578
 31
0.0
  3
Beskrivelse 00
  2
$TAG160030
 70
     1
  0
ATTDEF
  5
328
  8
2
 10
52.50704490356446
 20
127.8000030517578
 30
0.0
 40
2.449996948242188
  1
AB1RR235U2GR
 41
0.9
  7
CADDY_VECTORFONT1P
 72
     2
 11
70.05000305175781
 21
127.8000030517578
 31
0.0
  3
Type
  2
$TAG160040
 70
     1
  0
ATTDEF
  5
32A
  8
2
 10
52.50704490356446
 20
143.3000030517578
 30
0.0
 40
2.449996948242188
  1
=
 41
0.9
  7
CADDY_VECTORFONT1P
 72
     2
 11
70.05000305175781
 21
143.3000030517578
 31
0.0
  3
Funktion (=)
  2
$TAG140020
 70
     1
  0
ATTDEF
  5
32C
  8
2
 10
52.50703727416992
 20
139.8000030517578
 30
0.0
 40
2.449996948242188
  1
+
 41
0.9
  7
CADDY_VECTORFONT1P
 72
     2
 11
70.04999542236328
 21
139.8000030517578
 31
0.0
  3
Placering (+)
  2
$TAG140050
 70
     1
  0
ENDBLK
  8
0
  0
BLOCK
  8
0
  2
BLK22
 70
     2
 10
0.0
 20
0.0
 30
0.0
  0
CIRCLE
  5
331
  8
0
  6
CADDY_SOLID
 10
65.0
 20
137.5
 30
0.0
 40
0.75
  0
LINE
  5
332
  8
0
  6
CADDY_SOLID
 10
65.0
 20
138.25
 30
0.0
 11
65.0
 21
140.0
 31
0.0
  0
LINE
  5
333
  8
0
  6
CADDY_SOLID
 10
65.0
 20
135.0
 30
0.0
 11
65.0
 21
136.75
 31
0.0
  0
ATTDEF
  5
336
  8
2
 10
43.24351017150879
 20
136.3000030517578
 30
0.0
 40
2.449996948242188
  1
X36
 41
0.9
  7
CADDY_VECTORFONT1P
 72
     2
 11
60.04999923706055
 21
136.3000030517578
 31
0.0
  3
Produkt (-)
  2
$TAG160010
 70
     0
  0
ATTDEF
  5
338
  8
2
 10
64.09999084472656
 20
139.1999969482422
 30
0.0
 40
2.449996948242188
  1
8U2
 50
90.0
 41
0.9
  7
CADDY_VECTORFONT1P
  3
Klemmenummer
  2
$TAG160400
 70
     0
  0
ATTDEF
  5
33A
  8
0
 10
67.59999084472656
 20
139.1999969482422
 30
0.0
 40
2.449996948242188
  1
1
 50
90.0
 41
0.9
  7
CADDY_VECTORFONT1P
  3
Sorteringsindeks
  2
$TAG160410
 70
     1
  0
ATTDEF
  5
33C
  8
2
 10
42.75179578399658
 20
132.8000030517578
 30
0.0
 40
2.449996948242188
  1

 41
0.9
  7
CADDY_VECTORFONT1P
 72
     2
 11
60.04999923706055
 21
132.8000030517578
 31
0.0
  3
Beskrivelse 00
  2
$TAG160030
 70
     1
  0
ATTDEF
  5
33E
  8
2
 10
42.50703727416992
 20
127.8000030517578
 30
0.0
 40
2.449996948242188
  1
AB1RR235U2GR
 41
0.9
  7
CADDY_VECTORFONT1P
 72
     2
 11
60.04999542236328
 21
127.8000030517578
 31
0.0
  3
Type
  2
$TAG160040
 70
     1
  0
ATTDEF
  5
340
  8
2
 10
42.50704108886719
 20
143.3000030517578
 30
0.0
 40
2.449996948242188
  1
=
 41
0.9
  7
CADDY_VECTORFONT1P
 72
     2
 11
60.04999923706055
 21
143.3000030517578
 31
0.0
  3
Funktion (=)
  2
$TAG140020
 70
     1
  0
ATTDEF
  5
342
  8
2
 10
42.50704490356446
 20
139.8000030517578
 30
0.0
 40
2.449996948242188
  1
+
 41
0.9
  7
CADDY_VECTORFONT1P
 72
     2
 11
60.05000305175781
 21
139.8000030517578
 31
0.0
  3
Placering (+)
  2
$TAG140050
 70
     1
  0
ENDBLK
  8
0
  0
BLOCK
  8
0
  2
BLK23
 70
     2
 10
0.0
 20
0.0
 30
0.0
  0
CIRCLE
  5
347
  8
0
  6
CADDY_SOLID
 10
80.0
 20
137.5
 30
0.0
 40
0.75
  0
LINE
  5
348
  8
0
  6
CADDY_SOLID
 10
80.0
 20
138.25
 30
0.0
 11
80.0
 21
140.0
 31
0.0
  0
LINE
  5
349
  8
0
  6
CADDY_SOLID
 10
80.0
 20
135.0
 30
0.0
 11
80.0
 21
136.75
 31
0.0
  0
ATTDEF
  5
34C
  8
2
 10
58.24350635681152
 20
136.3000030517578
 30
0.0
 40
2.449996948242188
  1
-X20
 41
0.9
  7
CADDY_VECTORFONT1P
 72
     2
 11
75.04999542236328
 21
136.3000030517578
 31
0.0
  3
Produkt (-)
  2
$TAG160010
 70
     1
  0
ATTDEF
  5
34E
  8
2
 10
79.09999084472656
 20
139.1999969482422
 30
0.0
 40
2.449996948242188
  1
PE
 50
90.0
 41
0.9
  7
CADDY_VECTORFONT1P
  3
Klemmenummer
  2
$TAG160400
 70
     0
  0
ATTDEF
  5
350
  8
0
 10
82.59999084472656
 20
139.1999969482422
 30
0.0
 40
2.449996948242188
  1
5
 50
90.0
 41
0.9
  7
CADDY_VECTORFONT1P
  3
Sorteringsindeks
  2
$TAG160410
 70
     1
  0
ATTDEF
  5
352
  8
2
 10
57.75179196929932
 20
132.8000030517578
 30
0.0
 40
2.449996948242188
  1

 41
0.9
  7
CADDY_VECTORFONT1P
 72
     2
 11
75.04999542236328
 21
132.8000030517578
 31
0.0
  3
Beskrivelse 00
  2
$TAG160030
 70
     1
  0
ATTDEF
  5
354
  8
2
 10
57.50705253295899
 20
127.8000030517578
 30
0.0
 40
2.449996948242188
  1
AB1RRTP235U2
 41
0.9
  7
CADDY_VECTORFONT1P
 72
     2
 11
75.05001068115234
 21
127.8000030517578
 31
0.0
  3
Type
  2
$TAG160040
 70
     1
  0
ATTDEF
  5
356
  8
2
 10
57.50704490356446
 20
143.3000030517578
 30
0.0
 40
2.449996948242188
  1
=
 41
0.9
  7
CADDY_VECTORFONT1P
 72
     2
 11
75.05000305175781
 21
143.3000030517578
 31
0.0
  3
Funktion (=)
  2
$TAG140020
 70
     1
  0
ATTDEF
  5
358
  8
2
 10
57.50703727416992
 20
139.8000030517578
 30
0.0
 40
2.449996948242188
  1
+
 41
0.9
  7
CADDY_VECTORFONT1P
 72
     2
 11
75.04999542236328
 21
139.8000030517578
 31
0.0
  3
Placering (+)
  2
$TAG140050
 70
     1
  0
ENDBLK
  8
0
  0
BLOCK
  8
0
  2
BLK24
 70
     2
 10
0.0
 20
0.0
 30
0.0
  0
ATTDEF
  5
365
  8
0
 10
90.69999694824219
 20
130.6999969482422
 30
0.0
 40
2.449996948242188
  1
W3601.1
 41
0.9
  7
CADDY_VECTORFONT1P
  3
Produkt (-)
  2
$TAG160010
 70
     1
  0
ATTDEF
  5
367
  8
0
 10
90.69999694824219
 20
125.6999969482422
 30
0.0
 40
2.449996948242188
  1

 41
0.9
  7
CADDY_VECTORFONT1P
  3
Beskrivelse 00
  2
$TAG160030
 70
     1
  0
ATTDEF
  5
369
  8
0
 10
90.69999694824219
 20
120.6999969482422
 30
0.0
 40
2.450004577636719
  1

 41
0.9
  7
CADDY_VECTORFONT1P
  3
Kabeldimension
  2
$TAG160200
 70
     1
  0
ATTDEF
  5
36B
  8
0
 10
90.69999694824219
 20
115.6999969482422
 30
0.0
 40
2.450004577636719
  1

 41
0.9
  7
CADDY_VECTORFONT1P
  3
Type
  2
$TAG160040
 70
     1
  0
ATTDEF
  5
36D
  8
0
 10
90.69999694824219
 20
110.6999969482422
 30
0.0
 40
2.450004577636719
  1

 41
0.9
  7
CADDY_VECTORFONT1P
  3
Længde
  2
$TAG160101
 70
     1
  0
ATTDEF
  5
36F
  8
0
 10
65.69999694824219
 20
130.6999969482422
 30
0.0
 40
2.449996948242188
  1
1
 41
0.9
  7
CADDY_VECTORFONT1P
  3
Kabelkorenummer
  2
$TAG160210
 70
     0
  0
ATTDEF
  5
371
  8
0
 10
65.69999694824219
 20
125.6999969482422
 30
0.0
 40
2.449996948242188
  1

 41
0.9
  7
CADDY_VECTORFONT1P
  3
Kabelkorefarve
  2
$TAG160220
 70
     1
  0
ATTDEF
  5
373
  8
0
 10
65.69999694824219
 20
120.6999969482422
 30
0.0
 40
2.450004577636719
  1

 41
0.9
  7
CADDY_VECTORFONT1P
  3
Kabelkoretværsnit
  2
$TAG160230
 70
     1
  0
LINE
  5
374
  8
0
  6
CADDY_SOLID
 10
65.0
 20
130.5
 30
0.0
 11
65.0
 21
129.5
 31
0.0
  0
ENDBLK
  8
0
  0
BLOCK
  8
0
  2
BLK25
 70
     2
 10
0.0
 20
0.0
 30
0.0
  0
ATTDEF
  5
37B
  8
0
 10
90.69999694824219
 20
130.6999969482422
 30
0.0
 40
2.449996948242188
  1
W3601.1
 41
0.9
  7
CADDY_VECTORFONT1P
  3
Produkt (-)
  2
$TAG160010
 70
     1
  0
ATTDEF
  5
37D
  8
0
 10
90.69999694824219
 20
125.6999969482422
 30
0.0
 40
2.449996948242188
  1

 41
0.9
  7
CADDY_VECTORFONT1P
  3
Beskrivelse 00
  2
$TAG160030
 70
     1
  0
ATTDEF
  5
37F
  8
0
 10
90.69999694824219
 20
120.6999969482422
 30
0.0
 40
2.450004577636719
  1

 41
0.9
  7
CADDY_VECTORFONT1P
  3
Kabeldimension
  2
$TAG160200
 70
     1
  0
ATTDEF
  5
381
  8
0
 10
90.69999694824219
 20
115.6999969482422
 30
0.0
 40
2.450004577636719
  1

 41
0.9
  7
CADDY_VECTORFONT1P
  3
Type
  2
$TAG160040
 70
     1
  0
ATTDEF
  5
383
  8
0
 10
90.69999694824219
 20
110.6999969482422
 30
0.0
 40
2.450004577636719
  1

 41
0.9
  7
CADDY_VECTORFONT1P
  3
Længde
  2
$TAG160101
 70
     1
  0
ATTDEF
  5
385
  8
0
 10
70.69999694824219
 20
130.6999969482422
 30
0.0
 40
2.449996948242188
  1
2
 41
0.9
  7
CADDY_VECTORFONT1P
  3
Kabelkorenummer
  2
$TAG160210
 70
     0
  0
ATTDEF
  5
387
  8
0
 10
70.69999694824219
 20
125.6999969482422
 30
0.0
 40
2.449996948242188
  1

 41
0.9
  7
CADDY_VECTORFONT1P
  3
Kabelkorefarve
  2
$TAG160220
 70
     1
  0
ATTDEF
  5
389
  8
0
 10
70.69999694824219
 20
120.6999969482422
 30
0.0
 40
2.450004577636719
  1

 41
0.9
  7
CADDY_VECTORFONT1P
  3
Kabelkoretværsnit
  2
$TAG160230
 70
     1
  0
LINE
  5
38A
  8
0
  6
CADDY_SOLID
 10
70.0
 20
130.5
 30
0.0
 11
70.0
 21
129.5
 31
0.0
  0
ENDBLK
  8
0
  0
BLOCK
  8
0
  2
BLK26
 70
     2
 10
0.0
 20
0.0
 30
0.0
  0
ATTDEF
  5
391
  8
0
 10
90.69999694824219
 20
130.6999969482422
 30
0.0
 40
2.449996948242188
  1
W3601.1
 41
0.9
  7
CADDY_VECTORFONT1P
  3
Produkt (-)
  2
$TAG160010
 70
     1
  0
ATTDEF
  5
393
  8
0
 10
90.69999694824219
 20
125.6999969482422
 30
0.0
 40
2.449996948242188
  1

 41
0.9
  7
CADDY_VECTORFONT1P
  3
Beskrivelse 00
  2
$TAG160030
 70
     1
  0
ATTDEF
  5
395
  8
0
 10
90.69999694824219
 20
120.6999969482422
 30
0.0
 40
2.450004577636719
  1

 41
0.9
  7
CADDY_VECTORFONT1P
  3
Kabeldimension
  2
$TAG160200
 70
     1
  0
ATTDEF
  5
397
  8
0
 10
90.69999694824219
 20
115.6999969482422
 30
0.0
 40
2.450004577636719
  1

 41
0.9
  7
CADDY_VECTORFONT1P
  3
Type
  2
$TAG160040
 70
     1
  0
ATTDEF
  5
399
  8
0
 10
90.69999694824219
 20
110.6999969482422
 30
0.0
 40
2.450004577636719
  1

 41
0.9
  7
CADDY_VECTORFONT1P
  3
Længde
  2
$TAG160101
 70
     1
  0
ATTDEF
  5
39B
  8
0
 10
75.69999694824219
 20
130.6999969482422
 30
0.0
 40
2.449996948242188
  1
3
 41
0.9
  7
CADDY_VECTORFONT1P
  3
Kabelkorenummer
  2
$TAG160210
 70
     0
  0
ATTDEF
  5
39D
  8
0
 10
75.69999694824219
 20
125.6999969482422
 30
0.0
 40
2.449996948242188
  1

 41
0.9
  7
CADDY_VECTORFONT1P
  3
Kabelkorefarve
  2
$TAG160220
 70
     1
  0
ATTDEF
  5
39F
  8
0
 10
75.69999694824219
 20
120.6999969482422
 30
0.0
 40
2.450004577636719
  1

 41
0.9
  7
CADDY_VECTORFONT1P
  3
Kabelkoretværsnit
  2
$TAG160230
 70
     1
  0
LINE
  5
3A0
  8
0
  6
CADDY_SOLID
 10
75.0
 20
130.5
 30
0.0
 11
75.0
 21
129.5
 31
0.0
  0
ENDBLK
  8
0
  0
BLOCK
  8
0
  2
BLK27
 70
     2
 10
0.0
 20
0.0
 30
0.0
  0
ATTDEF
  5
3A7
  8
0
 10
90.69999694824219
 20
130.6999969482422
 30
0.0
 40
2.449996948242188
  1
W3601.1
 41
0.9
  7
CADDY_VECTORFONT1P
  3
Produkt (-)
  2
$TAG160010
 70
     0
  0
ATTDEF
  5
3A9
  8
0
 10
90.69999694824219
 20
125.6999969482422
 30
0.0
 40
2.449996948242188
  1

 41
0.9
  7
CADDY_VECTORFONT1P
  3
Beskrivelse 00
  2
$TAG160030
 70
     0
  0
ATTDEF
  5
3AB
  8
0
 10
90.69999694824219
 20
120.6999969482422
 30
0.0
 40
2.450004577636719
  1

 41
0.9
  7
CADDY_VECTORFONT1P
  3
Kabeldimension
  2
$TAG160200
 70
     0
  0
ATTDEF
  5
3AD
  8
0
 10
90.69999694824219
 20
115.6999969482422
 30
0.0
 40
2.450004577636719
  1

 41
0.9
  7
CADDY_VECTORFONT1P
  3
Type
  2
$TAG160040
 70
     1
  0
ATTDEF
  5
3AF
  8
0
 10
90.69999694824219
 20
110.6999969482422
 30
0.0
 40
2.450004577636719
  1

 41
0.9
  7
CADDY_VECTORFONT1P
  3
Længde
  2
$TAG160101
 70
     1
  0
ATTDEF
  5
3B1
  8
0
 10
80.69999694824219
 20
130.6999969482422
 30
0.0
 40
2.449996948242188
  1
gn/yl
 41
0.9
  7
CADDY_VECTORFONT1P
  3
Kabelkorenummer
  2
$TAG160210
 70
     0
  0
ATTDEF
  5
3B3
  8
0
 10
80.69999694824219
 20
125.6999969482422
 30
0.0
 40
2.449996948242188
  1

 41
0.9
  7
CADDY_VECTORFONT1P
  3
Kabelkorefarve
  2
$TAG160220
 70
     1
  0
ATTDEF
  5
3B5
  8
0
 10
80.69999694824219
 20
120.6999969482422
 30
0.0
 40
2.450004577636719
  1

 41
0.9
  7
CADDY_VECTORFONT1P
  3
Kabelkoretværsnit
  2
$TAG160230
 70
     1
  0
LINE
  5
3B6
  8
0
  6
CADDY_SOLID
 10
80.0
 20
130.5
 30
0.0
 11
80.0
 21
129.5
 31
0.0
  0
ENDBLK
  8
0
  0
ENDSEC
  0
SECTION
  2
ENTITIES
  0
INSERT
  5
43
  8
0
  2
BLK1
 10
0.0
 20
0.0
 30
1.0
  0
TEXT
  5
AC
  8
0
 10
17.04999923706055
 20
259.7000122070312
 30
0.0
 40
2.449981689453125
  1

 41
0.9
  7
CADDY_VECTORFONT1P
 72
     2
 11
17.04999923706055
 21
259.7000122070312
 31
0.0
  0
INSERT
  5
B0
  8
0
 66
     1
  2
BLK2
 10
0.0
 20
0.0
 30
1.0
  0
ATTRIB
  5
B5
  8
2
 10
58.04249232940674
 20
101.3000030517578
 30
0.0
 40
2.450004577636719
  1
-X20
 41
0.9
  7
CADDY_VECTORFONT1P
 72
     2
 11
65.04999542236328
 21
101.3000030517578
 31
0.0
  2
$TAG160010
 70
     1
  0
ATTRIB
  5
B8
  8
2
 10
69.09999084472656
 20
104.1999969482422
 30
0.0
 40
2.450004577636719
  1
8V2
 50
90.0
 41
0.9
  7
CADDY_VECTORFONT1P
  2
$TAG160400
 70
     0
  0
ATTRIB
  5
BA
  8
0
 10
72.59999084472656
 20
104.1999969482422
 30
0.0
 40
2.450004577636719
  1
2
 50
90.0
 41
0.9
  7
CADDY_VECTORFONT1P
  2
$TAG160410
 70
     1
  0
ATTRIB
  5
BC
  8
2
 10
65.04999542236328
 20
97.80000305175781
 30
0.0
 40
2.450004577636719
  1

 41
0.9
  7
CADDY_VECTORFONT1P
 72
     2
 11
65.04999542236328
 21
97.80000305175781
 31
0.0
  2
$TAG160030
 70
     1
  0
ATTRIB
  5
BE
  8
2
 10
43.34172986221314
 20
92.80000305175781
 30
0.0
 40
2.450004577636719
  1
AB1RR235U2GR
 41
0.9
  7
CADDY_VECTORFONT1P
 72
     2
 11
65.04999542236328
 21
92.80000305175781
 31
0.0
  2
$TAG160040
 70
     1
  0
ATTRIB
  5
C0
  8
2
 10
63.70274553451538
 20
108.3000030517578
 30
0.0
 40
2.450004577636719
  1
=
 41
0.9
  7
CADDY_VECTORFONT1P
 72
     2
 11
65.05000305175781
 21
108.3000030517578
 31
0.0
  2
$TAG140020
 70
     1
  0
ATTRIB
  5
C2
  8
2
 10
63.70274553451538
 20
104.8000030517578
 30
0.0
 40
2.450004577636719
  1
+
 41
0.9
  7
CADDY_VECTORFONT1P
 72
     2
 11
65.05000305175781
 21
104.8000030517578
 31
0.0
  2
$TAG140050
 70
     1
  0
SEQEND
  5
B6
  8
0
  0
INSERT
  5
C7
  8
0
 66
     1
  2
BLK3
 10
0.0
 20
0.0
 30
1.0
  0
ATTRIB
  5
CB
  8
2
 10
63.04249995880127
 20
101.3000030517578
 30
0.0
 40
2.450004577636719
  1
-X20
 41
0.9
  7
CADDY_VECTORFONT1P
 72
     2
 11
70.05000305175781
 21
101.3000030517578
 31
0.0
  2
$TAG160010
 70
     1
  0
ATTRIB
  5
CE
  8
2
 10
74.09999084472656
 20
104.1999969482422
 30
0.0
 40
2.450004577636719
  1
8W2
 50
90.0
 41
0.9
  7
CADDY_VECTORFONT1P
  2
$TAG160400
 70
     0
  0
ATTRIB
  5
D0
  8
0
 10
77.59999084472656
 20
104.1999969482422
 30
0.0
 40
2.450004577636719
  1
3
 50
90.0
 41
0.9
  7
CADDY_VECTORFONT1P
  2
$TAG160410
 70
     1
  0
ATTRIB
  5
D2
  8
2
 10
70.04999542236328
 20
97.80000305175781
 30
0.0
 40
2.450004577636719
  1

 41
0.9
  7
CADDY_VECTORFONT1P
 72
     2
 11
70.04999542236328
 21
97.80000305175781
 31
0.0
  2
$TAG160030
 70
     1
  0
ATTRIB
  5
D4
  8
2
 10
48.34173749160767
 20
92.80000305175781
 30
0.0
 40
2.450004577636719
  1
AB1RR235U2GR
 41
0.9
  7
CADDY_VECTORFONT1P
 72
     2
 11
70.05000305175781
 21
92.80000305175781
 31
0.0
  2
$TAG160040
 70
     1
  0
ATTRIB
  5
D6
  8
2
 10
68.70274553451539
 20
108.3000030517578
 30
0.0
 40
2.450004577636719
  1
=
 41
0.9
  7
CADDY_VECTORFONT1P
 72
     2
 11
70.05000305175781
 21
108.3000030517578
 31
0.0
  2
$TAG140020
 70
     1
  0
ATTRIB
  5
D8
  8
2
 10
68.70273790512086
 20
104.8000030517578
 30
0.0
 40
2.450004577636719
  1
+
 41
0.9
  7
CADDY_VECTORFONT1P
 72
     2
 11
70.04999542236328
 21
104.8000030517578
 31
0.0
  2
$TAG140050
 70
     1
  0
SEQEND
  5
CC
  8
0
  0
INSERT
  5
DD
  8
0
 66
     1
  2
BLK4
 10
0.0
 20
0.0
 30
1.0
  0
ATTRIB
  5
E1
  8
2
 10
54.75798934936523
 20
101.3000030517578
 30
0.0
 40
2.450004577636719
  1
X36
 41
0.9
  7
CADDY_VECTORFONT1P
 72
     2
 11
60.04999923706055
 21
101.3000030517578
 31
0.0
  2
$TAG160010
 70
     0
  0
ATTRIB
  5
E4
  8
2
 10
64.09999084472656
 20
104.1999969482422
 30
0.0
 40
2.450004577636719
  1
8U2
 50
90.0
 41
0.9
  7
CADDY_VECTORFONT1P
  2
$TAG160400
 70
     0
  0
ATTRIB
  5
E6
  8
0
 10
67.59999084472656
 20
104.1999969482422
 30
0.0
 40
2.450004577636719
  1
1
 50
90.0
 41
0.9
  7
CADDY_VECTORFONT1P
  2
$TAG160410
 70
     1
  0
ATTRIB
  5
E8
  8
2
 10
60.04999923706055
 20
97.80000305175781
 30
0.0
 40
2.450004577636719
  1

 41
0.9
  7
CADDY_VECTORFONT1P
 72
     2
 11
60.04999923706055
 21
97.80000305175781
 31
0.0
  2
$TAG160030
 70
     1
  0
ATTRIB
  5
EA
  8
2
 10
38.34172986221314
 20
92.80000305175781
 30
0.0
 40
2.450004577636719
  1
AB1RR235U2GR
 41
0.9
  7
CADDY_VECTORFONT1P
 72
     2
 11
60.04999542236328
 21
92.80000305175781
 31
0.0
  2
$TAG160040
 70
     1
  0
ATTRIB
  5
EC
  8
2
 10
58.70274171981811
 20
108.3000030517578
 30
0.0
 40
2.450004577636719
  1
=
 41
0.9
  7
CADDY_VECTORFONT1P
 72
     2
 11
60.04999923706055
 21
108.3000030517578
 31
0.0
  2
$TAG140020
 70
     1
  0
ATTRIB
  5
EE
  8
2
 10
58.70274553451538
 20
104.8000030517578
 30
0.0
 40
2.450004577636719
  1
+
 41
0.9
  7
CADDY_VECTORFONT1P
 72
     2
 11
60.05000305175781
 21
104.8000030517578
 31
0.0
  2
$TAG140050
 70
     1
  0
SEQEND
  5
E2
  8
0
  0
INSERT
  5
F3
  8
0
 66
     1
  2
BLK5
 10
0.0
 20
0.0
 30
1.0
  0
ATTRIB
  5
172
  8
0
 10
44.75606109008789
 20
213.8000030517578
 30
0.0
 40
2.449996948242188
  1
F3601
 41
0.9
  7
CADDY_VECTORFONT1P
 72
     2
 11
52.5000114440918
 21
213.8000030517578
 31
0.0
  2
$TAG160010
 70
     0
  0
ATTRIB
  5
175
  8
0
 10
3.006643093872057
 20
206.8000030517578
 30
0.0
 40
2.449996948242188
  1
LUCA1XBL;LUFC00;LUB12;LU9BN11C
 41
0.9
  7
CADDY_VECTORFONT1P
 72
     2
 11
52.5000114440918
 21
206.8000030517578
 31
0.0
  2
$TAG160040
 70
     1
  0
ATTRIB
  5
177
  8
0
 10
44.6347862411499
 20
210.3000030517578
 30
0.0
 40
2.449996948242188
  1
0,76A
 41
0.9
  7
CADDY_VECTORFONT1P
 72
     2
 11
52.5000114440918
 21
210.3000030517578
 31
0.0
  2
$TAG160030
 70
     0
  0
ATTRIB
  5
179
  8
0
 10
64.05000305175781
 20
231.9000091552734
 30
0.0
 40
2.449996948242188
  1
1
 50
90.0
 41
0.9
  7
CADDY_VECTORFONT1P
  2
$TAG175000_00
 70
     0
  0
ATTRIB
  5
17B
  8
0
 10
64.05000305175781
 20
208.4000091552734
 30
0.0
 40
2.449996948242188
  1

 50
90.0
 41
0.9
  7
CADDY_VECTORFONT1P
 72
     2
 11
64.05000305175781
 21
208.4000091552734
 31
0.0
  2
$TAG175000_01
 70
     0
  0
ATTRIB
  5
17D
  8
0
 10
69.05000305175781
 20
231.9000091552734
 30
0.0
 40
2.449996948242188
  1
3
 50
90.0
 41
0.9
  7
CADDY_VECTORFONT1P
  2
$TAG175000_02
 70
     0
  0
ATTRIB
  5
17F
  8
0
 10
69.05000305175781
 20
208.3999938964844
 30
0.0
 40
2.449996948242188
  1

 50
90.0
 41
0.9
  7
CADDY_VECTORFONT1P
 72
     2
 11
69.05000305175781
 21
208.3999938964844
 31
0.0
  2
$TAG175000_03
 70
     0
  0
ATTRIB
  5
181
  8
0
 10
74.05000305175781
 20
231.9000091552734
 30
0.0
 40
2.449996948242188
  1
5
 50
90.0
 41
0.9
  7
CADDY_VECTORFONT1P
  2
$TAG175000_04
 70
     0
  0
ATTRIB
  5
183
  8
0
 10
74.05000305175781
 20
208.3999938964844
 30
0.0
 40
2.449996948242188
  1

 50
90.0
 41
0.9
  7
CADDY_VECTORFONT1P
 72
     2
 11
74.05000305175781
 21
208.3999938964844
 31
0.0
  2
$TAG175000_05
 70
     0
  0
ATTRIB
  5
185
  8
0
 10
51.15275812225342
 20
220.8000030517578
 30
0.0
 40
2.449996948242188
  1
=
 41
0.9
  7
CADDY_VECTORFONT1P
 72
     2
 11
52.5000114440918
 21
220.8000030517578
 31
0.0
  2
$TAG140020
 70
     1
  0
ATTRIB
  5
187
  8
0
 10
51.15276193695068
 20
217.3000030517578
 30
0.0
 40
2.449996948242188
  1
+
 41
0.9
  7
CADDY_VECTORFONT1P
 72
     2
 11
52.50001525878906
 21
217.3000030517578
 31
0.0
  2
$TAG140050
 70
     1
  0
SEQEND
  5
173
  8
0
  0
LINE
  5
189
  8
0
  6
CADDY_SOLID
 10
65.0
 20
205.0
 30
0.0
 11
65.0
 21
205.0
 31
0.0
  0
LINE
  5
18A
  8
0
  6
CADDY_SOLID
 10
70.0
 20
205.0
 30
0.0
 11
70.0
 21
205.0
 31
0.0
  0
LINE
  5
18B
  8
0
  6
CADDY_SOLID
 10
75.0
 20
205.0
 30
0.0
 11
75.0
 21
205.0
 31
0.0
  0
INSERT
  5
18F
  8
0
 66
     1
  2
BLK6
 10
0.0
 20
0.0
 30
1.0
  0
ATTRIB
  5
1A0
  8
0
 10
50.53943698272705
 20
198.8000030517578
 30
0.0
 40
2.449996948242188
  1
27F1.2
 41
0.9
  7
CADDY_VECTORFONT1P
 72
     2
 11
59.0000114440918
 21
198.8000030517578
 31
0.0
  2
$TAG160010
 70
     1
  0
ATTRIB
  5
1A3
  8
0
 10
59.0000114440918
 20
195.3000030517578
 30
0.0
 40
2.449996948242188
  1

 41
0.9
  7
CADDY_VECTORFONT1P
 72
     2
 11
59.0000114440918
 21
195.3000030517578
 31
0.0
  2
$TAG160500
 70
     0
  0
ATTRIB
  5
1A5
  8
0
 10
64.05000305175781
 20
205.9000091552734
 30
0.0
 40
2.449996948242188
  1

 50
90.0
 41
0.9
  7
CADDY_VECTORFONT1P
  2
$TAG175000_00
 70
     0
  0
ATTRIB
  5
1A7
  8
0
 10
64.05000305175781
 20
194.5439358444214
 30
0.0
 40
2.449996948242188
  1
2
 50
90.0
 41
0.9
  7
CADDY_VECTORFONT1P
 72
     2
 11
64.05000305175781
 21
195.9000091552734
 31
0.0
  2
$TAG175000_01
 70
     0
  0
ATTRIB
  5
1A9
  8
0
 10
69.05000305175781
 20
205.9000091552734
 30
0.0
 40
2.449996948242188
  1

 50
90.0
 41
0.9
  7
CADDY_VECTORFONT1P
  2
$TAG175000_02
 70
     0
  0
ATTRIB
  5
1AB
  8
0
 10
69.05000305175781
 20
194.3079858795166
 30
0.0
 40
2.449996948242188
  1
4
 50
90.0
 41
0.9
  7
CADDY_VECTORFONT1P
 72
     2
 11
69.05000305175781
 21
195.8999938964844
 31
0.0
  2
$TAG175000_03
 70
     0
  0
ATTRIB
  5
1AD
  8
0
 10
74.05000305175781
 20
205.9000091552734
 30
0.0
 40
2.449996948242188
  1

 50
90.0
 41
0.9
  7
CADDY_VECTORFONT1P
  2
$TAG175000_04
 70
     0
  0
ATTRIB
  5
1AF
  8
0
 10
74.05000305175781
 20
194.5284856048584
 30
0.0
 40
2.449996948242188
  1
6
 50
90.0
 41
0.9
  7
CADDY_VECTORFONT1P
 72
     2
 11
74.05000305175781
 21
195.8999938964844
 31
0.0
  2
$TAG175000_05
 70
     0
  0
ATTRIB
  5
1B1
  8
0
 10
57.65275812225342
 20
205.8000030517578
 30
0.0
 40
2.449996948242188
  1
=
 41
0.9
  7
CADDY_VECTORFONT1P
 72
     2
 11
59.0000114440918
 21
205.8000030517578
 31
0.0
  2
$TAG140020
 70
     1
  0
ATTRIB
  5
1B3
  8
0
 10
57.65276193695068
 20
202.3000030517578
 30
0.0
 40
2.449996948242188
  1
+
 41
0.9
  7
CADDY_VECTORFONT1P
 72
     2
 11
59.00001525878906
 21
202.3000030517578
 31
0.0
  2
$TAG140050
 70
     1
  0
ATTRIB
  5
1B5
  8
0
 10
48.79999923706055
 20
197.5574798583984
 30
0.0
 40
2.449996948242188
  1

 41
0.9
  7
CADDY_VECTORFONT1P
 72
     2
 11
48.79999923706055
 21
197.5574798583984
 31
0.0
  2
$TAG160030
 70
     0
  0
ATTRIB
  5
1B7
  8
0
 10
48.79999923706055
 20
194.0574798583984
 30
0.0
 40
2.449996948242188
  1

 41
0.9
  7
CADDY_VECTORFONT1P
 72
     2
 11
48.79999923706055
 21
194.0574798583984
 31
0.0
  2
$TAG160040
 70
     1
  0
SEQEND
  5
1A1
  8
0
  0
INSERT
  5
1BC
  8
0
 66
     1
  2
BLK7
 10
0.0
 20
0.0
 30
1.0
  0
ATTRIB
  5
1C0
  8
2
 10
68.04249232940674
 20
101.3000030517578
 30
0.0
 40
2.450004577636719
  1
-X20
 41
0.9
  7
CADDY_VECTORFONT1P
 72
     2
 11
75.04999542236328
 21
101.3000030517578
 31
0.0
  2
$TAG160010
 70
     1
  0
ATTRIB
  5
1C3
  8
2
 10
79.09999084472656
 20
104.1999969482422
 30
0.0
 40
2.450004577636719
  1
PE
 50
90.0
 41
0.9
  7
CADDY_VECTORFONT1P
  2
$TAG160400
 70
     0
  0
ATTRIB
  5
1C5
  8
0
 10
82.59999084472656
 20
104.1999969482422
 30
0.0
 40
2.450004577636719
  1
5
 50
90.0
 41
0.9
  7
CADDY_VECTORFONT1P
  2
$TAG160410
 70
     1
  0
ATTRIB
  5
1C7
  8
2
 10
75.04999542236328
 20
97.80000305175781
 30
0.0
 40
2.450004577636719
  1

 41
0.9
  7
CADDY_VECTORFONT1P
 72
     2
 11
75.04999542236328
 21
97.80000305175781
 31
0.0
  2
$TAG160030
 70
     1
  0
ATTRIB
  5
1C9
  8
2
 10
53.35718014984131
 20
92.80000305175781
 30
0.0
 40
2.450004577636719
  1
AB1RRTP235U2
 41
0.9
  7
CADDY_VECTORFONT1P
 72
     2
 11
75.05001068115234
 21
92.80000305175781
 31
0.0
  2
$TAG160040
 70
     1
  0
ATTRIB
  5
1CB
  8
2
 10
73.70274553451539
 20
108.3000030517578
 30
0.0
 40
2.450004577636719
  1
=
 41
0.9
  7
CADDY_VECTORFONT1P
 72
     2
 11
75.05000305175781
 21
108.3000030517578
 31
0.0
  2
$TAG140020
 70
     1
  0
ATTRIB
  5
1CD
  8
2
 10
73.70273790512086
 20
104.8000030517578
 30
0.0
 40
2.450004577636719
  1
+
 41
0.9
  7
CADDY_VECTORFONT1P
 72
     2
 11
75.04999542236328
 21
104.8000030517578
 31
0.0
  2
$TAG140050
 70
     1
  0
SEQEND
  5
1C1
  8
0
  0
TEXT
  5
1CF
  8
0
 10
58.84820902729034
 20
45.70000076293945
 30
0.0
 40
2.450000762939453
  1
På Kasseløfter
 41
0.9
  7
CADDY_VECTORFONT1P
 72
     1
 11
70.0
 21
45.70000076293945
 31
0.0
  0
INSERT
  5
1D3
  8
0
 66
     1
  2
BLK8
 10
0.0
 20
0.0
 30
1.0
  0
ATTRIB
  5
207
  8
0
 10
51.76652606048584
 20
68.80000305175781
 30
0.0
 40
2.450004577636719
  1
M3601
 41
0.9
  7
CADDY_VECTORFONT1P
 72
     2
 11
60.0000114440918
 21
68.80000305175781
 31
0.0
  2
$TAG160010
 70
     0
  0
ATTRIB
  5
20A
  8
0
 10
60.0000114440918
 20
61.80000686645508
 30
0.0
 40
2.450000762939453
  1

 41
0.9
  7
CADDY_VECTORFONT1P
 72
     2
 11
60.0000114440918
 21
61.80000686645508
 31
0.0
  2
$TAG160040
 70
     1
  0
ATTRIB
  5
20C
  8
0
 10
60.0000114440918
 20
65.30000305175781
 30
0.0
 40
2.450004577636719
  1

 41
0.9
  7
CADDY_VECTORFONT1P
 72
     2
 11
60.0000114440918
 21
65.30000305175781
 31
0.0
  2
$TAG160030
 70
     0
  0
ATTRIB
  5
20E
  8
0
 10
64.09999084472656
 20
78.39999389648438
 30
0.0
 40
2.450004577636719
  1
U1
 50
90.0
 41
0.9
  7
CADDY_VECTORFONT1P
  2
$TAG175000_00
 70
     0
  0
ATTRIB
  5
210
  8
0
 10
69.09999084472656
 20
78.39999389648438
 30
0.0
 40
2.450004577636719
  1
V1
 50
90.0
 41
0.9
  7
CADDY_VECTORFONT1P
  2
$TAG175000_01
 70
     0
  0
ATTRIB
  5
212
  8
0
 10
74.09999084472656
 20
78.39999389648438
 30
0.0
 40
2.450004577636719
  1
W1
 50
90.0
 41
0.9
  7
CADDY_VECTORFONT1P
  2
$TAG175000_02
 70
     0
  0
ATTRIB
  5
214
  8
0
 10
79.09999084472656
 20
78.39999389648438
 30
0.0
 40
2.450004577636719
  1

 50
90.0
 41
0.9
  7
CADDY_VECTORFONT1P
  2
$TAG175000_03
 70
     0
  0
SEQEND
  5
208
  8
0
  0
INSERT
  5
219
  8
0
 66
     1
  2
BLK9
 10
0.0
 20
0.0
 30
1.0
  0
ATTRIB
  5
21A
  8
0
 10
90.69999694824219
 20
85.69999694824219
 30
0.0
 40
2.450004577636719
  1
W3601
 41
0.9
  7
CADDY_VECTORFONT1P
  2
$TAG160010
 70
     1
  0
ATTRIB
  5
21D
  8
0
 10
90.69999694824219
 20
80.69999694824219
 30
0.0
 40
2.450004577636719
  1

 41
0.9
  7
CADDY_VECTORFONT1P
  2
$TAG160030
 70
     1
  0
ATTRIB
  5
21F
  8
0
 10
90.69999694824219
 20
75.69999694824219
 30
0.0
 40
2.450004577636719
  1

 41
0.9
  7
CADDY_VECTORFONT1P
  2
$TAG160200
 70
     1
  0
ATTRIB
  5
221
  8
0
 10
90.69999694824219
 20
70.69999694824219
 30
0.0
 40
2.450004577636719
  1

 41
0.9
  7
CADDY_VECTORFONT1P
  2
$TAG160040
 70
     1
  0
ATTRIB
  5
223
  8
0
 10
90.69999694824219
 20
65.69999694824219
 30
0.0
 40
2.450004577636719
  1

 41
0.9
  7
CADDY_VECTORFONT1P
  2
$TAG160101
 70
     1
  0
ATTRIB
  5
225
  8
0
 10
65.69999694824219
 20
85.69999694824219
 30
0.0
 40
2.450004577636719
  1
1
 41
0.9
  7
CADDY_VECTORFONT1P
  2
$TAG160210
 70
     0
  0
ATTRIB
  5
227
  8
0
 10
65.69999694824219
 20
80.69999694824219
 30
0.0
 40
2.450004577636719
  1

 41
0.9
  7
CADDY_VECTORFONT1P
  2
$TAG160220
 70
     1
  0
ATTRIB
  5
229
  8
0
 10
65.69999694824219
 20
75.69999694824219
 30
0.0
 40
2.450004577636719
  1

 41
0.9
  7
CADDY_VECTORFONT1P
  2
$TAG160230
 70
     1
  0
SEQEND
  5
21B
  8
0
  0
INSERT
  5
22F
  8
0
 66
     1
  2
BLK10
 10
0.0
 20
0.0
 30
1.0
  0
ATTRIB
  5
230
  8
0
 10
90.69999694824219
 20
85.69999694824219
 30
0.0
 40
2.450004577636719
  1
W3601
 41
0.9
  7
CADDY_VECTORFONT1P
  2
$TAG160010
 70
     1
  0
ATTRIB
  5
233
  8
0
 10
90.69999694824219
 20
80.69999694824219
 30
0.0
 40
2.450004577636719
  1

 41
0.9
  7
CADDY_VECTORFONT1P
  2
$TAG160030
 70
     1
  0
ATTRIB
  5
235
  8
0
 10
90.69999694824219
 20
75.69999694824219
 30
0.0
 40
2.450004577636719
  1

 41
0.9
  7
CADDY_VECTORFONT1P
  2
$TAG160200
 70
     1
  0
ATTRIB
  5
237
  8
0
 10
90.69999694824219
 20
70.69999694824219
 30
0.0
 40
2.450004577636719
  1

 41
0.9
  7
CADDY_VECTORFONT1P
  2
$TAG160040
 70
     1
  0
ATTRIB
  5
239
  8
0
 10
90.69999694824219
 20
65.69999694824219
 30
0.0
 40
2.450004577636719
  1

 41
0.9
  7
CADDY_VECTORFONT1P
  2
$TAG160101
 70
     1
  0
ATTRIB
  5
23B
  8
0
 10
70.69999694824219
 20
85.69999694824219
 30
0.0
 40
2.450004577636719
  1
2
 41
0.9
  7
CADDY_VECTORFONT1P
  2
$TAG160210
 70
     0
  0
ATTRIB
  5
23D
  8
0
 10
70.69999694824219
 20
80.69999694824219
 30
0.0
 40
2.450004577636719
  1

 41
0.9
  7
CADDY_VECTORFONT1P
  2
$TAG160220
 70
     1
  0
ATTRIB
  5
23F
  8
0
 10
70.69999694824219
 20
75.69999694824219
 30
0.0
 40
2.450004577636719
  1

 41
0.9
  7
CADDY_VECTORFONT1P
  2
$TAG160230
 70
     1
  0
SEQEND
  5
231
  8
0
  0
INSERT
  5
245
  8
0
 66
     1
  2
BLK11
 10
0.0
 20
0.0
 30
1.0
  0
ATTRIB
  5
246
  8
0
 10
90.69999694824219
 20
85.69999694824219
 30
0.0
 40
2.450004577636719
  1
W3601
 41
0.9
  7
CADDY_VECTORFONT1P
  2
$TAG160010
 70
     1
  0
ATTRIB
  5
249
  8
0
 10
90.69999694824219
 20
80.69999694824219
 30
0.0
 40
2.450004577636719
  1

 41
0.9
  7
CADDY_VECTORFONT1P
  2
$TAG160030
 70
     1
  0
ATTRIB
  5
24B
  8
0
 10
90.69999694824219
 20
75.69999694824219
 30
0.0
 40
2.450004577636719
  1

 41
0.9
  7
CADDY_VECTORFONT1P
  2
$TAG160200
 70
     1
  0
ATTRIB
  5
24D
  8
0
 10
90.69999694824219
 20
70.69999694824219
 30
0.0
 40
2.450004577636719
  1

 41
0.9
  7
CADDY_VECTORFONT1P
  2
$TAG160040
 70
     1
  0
ATTRIB
  5
24F
  8
0
 10
90.69999694824219
 20
65.69999694824219
 30
0.0
 40
2.450004577636719
  1

 41
0.9
  7
CADDY_VECTORFONT1P
  2
$TAG160101
 70
     1
  0
ATTRIB
  5
251
  8
0
 10
75.69999694824219
 20
85.69999694824219
 30
0.0
 40
2.450004577636719
  1
3
 41
0.9
  7
CADDY_VECTORFONT1P
  2
$TAG160210
 70
     0
  0
ATTRIB
  5
253
  8
0
 10
75.69999694824219
 20
80.69999694824219
 30
0.0
 40
2.450004577636719
  1

 41
0.9
  7
CADDY_VECTORFONT1P
  2
$TAG160220
 70
     1
  0
ATTRIB
  5
255
  8
0
 10
75.69999694824219
 20
75.69999694824219
 30
0.0
 40
2.450004577636719
  1

 41
0.9
  7
CADDY_VECTORFONT1P
  2
$TAG160230
 70
     1
  0
SEQEND
  5
247
  8
0
  0
INSERT
  5
25B
  8
0
 66
     1
  2
BLK12
 10
0.0
 20
0.0
 30
1.0
  0
ATTRIB
  5
25C
  8
0
 10
90.69999694824219
 20
85.69999694824219
 30
0.0
 40
2.450004577636719
  1
W3601
 41
0.9
  7
CADDY_VECTORFONT1P
  2
$TAG160010
 70
     0
  0
ATTRIB
  5
25F
  8
0
 10
90.69999694824219
 20
80.69999694824219
 30
0.0
 40
2.450004577636719
  1

 41
0.9
  7
CADDY_VECTORFONT1P
  2
$TAG160030
 70
     1
  0
ATTRIB
  5
261
  8
0
 10
90.69999694824219
 20
75.69999694824219
 30
0.0
 40
2.450004577636719
  1

 41
0.9
  7
CADDY_VECTORFONT1P
  2
$TAG160200
 70
     1
  0
ATTRIB
  5
263
  8
0
 10
90.69999694824219
 20
70.69999694824219
 30
0.0
 40
2.450004577636719
  1

 41
0.9
  7
CADDY_VECTORFONT1P
  2
$TAG160040
 70
     1
  0
ATTRIB
  5
265
  8
0
 10
90.69999694824219
 20
65.69999694824219
 30
0.0
 40
2.450004577636719
  1

 41
0.9
  7
CADDY_VECTORFONT1P
  2
$TAG160101
 70
     1
  0
ATTRIB
  5
267
  8
0
 10
80.69999694824219
 20
85.69999694824219
 30
0.0
 40
2.450004577636719
  1
PE
 41
0.9
  7
CADDY_VECTORFONT1P
  2
$TAG160210
 70
     0
  0
ATTRIB
  5
269
  8
0
 10
80.69999694824219
 20
80.69999694824219
 30
0.0
 40
2.450004577636719
  1

 41
0.9
  7
CADDY_VECTORFONT1P
  2
$TAG160220
 70
     1
  0
ATTRIB
  5
26B
  8
0
 10
80.69999694824219
 20
75.69999694824219
 30
0.0
 40
2.450004577636719
  1

 41
0.9
  7
CADDY_VECTORFONT1P
  2
$TAG160230
 70
     1
  0
SEQEND
  5
25D
  8
0
  0
LINE
  5
26E
  8
0
  6
CADDY_SOLID
 10
55.0
 20
85.0
 30
0.0
 11
90.0
 21
85.0
 31
0.0
  0
LINE
  5
26F
  8
0
  6
CADDY_DASHDOTDOT
 10
80.0
 20
80.0
 30
0.0
 11
80.0
 21
84.5
 31
0.0
  0
LINE
  5
270
  8
0
  6
CADDY_DASHDOTDOT
 10
75.0
 20
80.0
 30
0.0
 11
75.0
 21
84.5
 31
0.0
  0
LINE
  5
271
  8
0
  6
CADDY_DASHDOTDOT
 10
70.0
 20
80.0
 30
0.0
 11
70.0
 21
84.5
 31
0.0
  0
LINE
  5
272
  8
0
  6
CADDY_DASHDOTDOT
 10
65.0
 20
80.0
 30
0.0
 11
65.0
 21
84.5
 31
0.0
  0
LINE
  5
273
  8
0
  6
CADDY_SOLID
 10
65.0
 20
235.0
 30
0.0
 11
65.0
 21
260.0
 31
0.0
  0
TEXT
  5
274
  8
0
 10
64.5
 20
245.047725
 30
0.0
 40
1.75
  1
0607
 50
90.0
 41
0.9
  7
CADDY_VECTORFONT1P
 72
     1
 11
64.5
 21
247.5
 31
0.0
  0
LINE
  5
275
  8
0
  6
CADDY_SOLID
 10
70.0
 20
235.0
 30
0.0
 11
70.0
 21
255.0
 31
0.0
  0
TEXT
  5
276
  8
0
 10
69.5
 20
242.5500875
 30
0.0
 40
1.75
  1
0608
 50
90.0
 41
0.9
  7
CADDY_VECTORFONT1P
 72
     1
 11
69.5
 21
245.0
 31
0.0
  0
LINE
  5
277
  8
0
  6
CADDY_SOLID
 10
75.0
 20
235.0
 30
0.0
 11
75.0
 21
250.0
 31
0.0
  0
TEXT
  5
278
  8
0
 10
74.5
 20
240.0500875
 30
0.0
 40
1.75
  1
0609
 50
90.0
 41
0.9
  7
CADDY_VECTORFONT1P
 72
     1
 11
74.5
 21
242.5
 31
0.0
  0
LINE
  5
279
  8
0
  6
CADDY_SOLID
 10
80.0
 20
85.0
 30
0.0
 11
80.0
 21
100.0
 31
0.0
  0
LINE
  5
27A
  8
0
  6
CADDY_SOLID
 10
65.0
 20
85.5
 30
0.0
 11
65.0
 21
100.0
 31
0.0
  0
LINE
  5
27B
  8
0
  6
CADDY_SOLID
 10
70.0
 20
85.5
 30
0.0
 11
70.0
 21
100.0
 31
0.0
  0
LINE
  5
27C
  8
0
  6
CADDY_SOLID
 10
75.0
 20
85.5
 30
0.0
 11
75.0
 21
100.0
 31
0.0
  0
INSERT
  5
280
  8
0
 66
     1
  2
BLK13
 10
0.0
 20
0.0
 30
1.0
  0
ATTRIB
  5
284
  8
0
 10
101.5999908447266
 20
195.9000091552734
 30
0.0
 40
2.449996948242188
  1
0707
 41
0.9
  7
CADDY_VECTORFONT1P
  2
$TAG160010
 70
     0
  0
ATTRIB
  5
287
  8
0
 10
89.46326715545655
 20
193.9499969482422
 30
0.0
 40
2.449996948242188
  1
37.3
 41
0.9
  7
CADDY_VECTORFONT1P
 72
     2
 11
95.00001525878906
 21
193.9499969482422
 31
0.0
  2
$TAG160500
 70
     0
  0
ATTRIB
  5
289
  8
0
 10
101.5999908447266
 20
202.9000091552734
 30
0.0
 40
2.449996948242188
  1
=
 41
0.9
  7
CADDY_VECTORFONT1P
  2
$TAG140020
 70
     1
  0
ATTRIB
  5
28B
  8
0
 10
101.5999908447266
 20
199.4000091552734
 30
0.0
 40
2.449996948242188
  1
+
 41
0.9
  7
CADDY_VECTORFONT1P
  2
$TAG140050
 70
     1
  0
SEQEND
  5
285
  8
0
  0
LINE
  5
28D
  8
0
  6
CADDY_SOLID
 10
100.0
 20
195.0
 30
0.0
 11
110.0
 21
195.0
 31
0.0
  0
LINE
  5
28E
  8
0
  6
CADDY_SOLID
 10
110.0
 20
195.0
 30
0.0
 11
110.0
 21
215.0
 31
0.0
  0
LINE
  5
28F
  8
0
  6
CADDY_SOLID
 10
110.0
 20
215.0
 30
0.0
 11
80.0
 21
215.0
 31
0.0
  0
TEXT
  5
290
  8
0
 10
63.74992555370331
 20
50.70000076293945
 30
0.0
 40
2.450000762939453
  1
Vibrator
 41
0.9
  7
CADDY_VECTORFONT1P
 72
     1
 11
70.0
 21
50.70000076293945
 31
0.0
  0
TEXT
  5
291
  8
0
 10
17.04999923706055
 20
259.7000122070312
 30
0.0
 40
2.449981689453125
  1

 41
0.9
  7
CADDY_VECTORFONT1P
 72
     2
 11
17.04999923706055
 21
259.7000122070312
 31
0.0
  0
TEXT
  5
292
  8
0
 10
22.04999923706055
 20
259.7000122070312
 30
0.0
 40
2.449981689453125
  1

 41
0.9
  7
CADDY_VECTORFONT1P
 72
     2
 11
22.04999923706055
 21
259.7000122070312
 31
0.0
  0
INSERT
  5
296
  8
0
 66
     1
  2
BLK14
 10
0.0
 20
0.0
 30
1.0
  0
ATTRIB
  5
299
  8
0
 10
31.76500701904297
 20
260.9000244140625
 30
0.0
 40
2.449981689453125
  1
3L1
 41
0.9
  7
CADDY_VECTORFONT1P
  2
$TAG160010
 70
     0
  0
ATTRIB
  5
29C
  8
0
 10
19.50354640808105
 20
258.9500122070312
 30
0.0
 40
2.449981689453125
  1
34.0
 41
0.9
  7
CADDY_VECTORFONT1P
 72
     2
 11
25.28501319885254
 21
258.9500122070312
 31
0.0
  2
$TAG160500
 70
     0
  0
ATTRIB
  5
29E
  8
0
 10
31.76500701904297
 20
267.9000244140625
 30
0.0
 40
2.449981689453125
  1
=
 41
0.9
  7
CADDY_VECTORFONT1P
  2
$TAG140020
 70
     1
  0
ATTRIB
  5
2A0
  8
0
 10
31.76500701904297
 20
264.4000244140625
 30
0.0
 40
2.449981689453125
  1
+
 41
0.9
  7
CADDY_VECTORFONT1P
  2
$TAG140050
 70
     1
  0
SEQEND
  5
29A
  8
0
  0
INSERT
  5
2A5
  8
0
 66
     1
  2
BLK15
 10
0.0
 20
0.0
 30
1.0
  0
ATTRIB
  5
2A8
  8
0
 10
105.9720558959961
 20
260.9000244140625
 30
0.0
 40
2.449981689453125
  1
3L1
 41
0.9
  7
CADDY_VECTORFONT1P
 72
     2
 11
110.2850036621094
 21
260.9000244140625
 31
0.0
  2
$TAG160010
 70
     0
  0
ATTRIB
  5
2AB
  8
0
 10
115.8650131225586
 20
258.9500122070312
 30
0.0
 40
2.449981689453125
  1

 41
0.9
  7
CADDY_VECTORFONT1P
  2
$TAG160500
 70
     0
  0
ATTRIB
  5
2AD
  8
0
 10
108.9377739898682
 20
267.9000244140625
 30
0.0
 40
2.449981689453125
  1
=
 41
0.9
  7
CADDY_VECTORFONT1P
 72
     2
 11
110.2850189208984
 21
267.9000244140625
 31
0.0
  2
$TAG140020
 70
     1
  0
ATTRIB
  5
2AF
  8
0
 10
108.9377663604736
 20
264.4000244140625
 30
0.0
 40
2.449981689453125
  1
+
 41
0.9
  7
CADDY_VECTORFONT1P
 72
     2
 11
110.2850112915039
 21
264.4000244140625
 31
0.0
  2
$TAG140050
 70
     1
  0
SEQEND
  5
2A9
  8
0
  0
INSERT
  5
2B4
  8
0
 66
     1
  2
BLK16
 10
0.0
 20
0.0
 30
1.0
  0
ATTRIB
  5
2B7
  8
0
 10
31.76500701904297
 20
255.9000091552734
 30
0.0
 40
2.449996948242188
  1
3L2
 41
0.9
  7
CADDY_VECTORFONT1P
  2
$TAG160010
 70
     0
  0
ATTRIB
  5
2BA
  8
0
 10
19.76370007629394
 20
253.9499969482422
 30
0.0
 40
2.449996948242188
  1
33.2
 41
0.9
  7
CADDY_VECTORFONT1P
 72
     2
 11
25.28501319885254
 21
253.9499969482422
 31
0.0
  2
$TAG160500
 70
     0
  0
ATTRIB
  5
2BC
  8
0
 10
31.76500701904297
 20
262.9000244140625
 30
0.0
 40
2.449981689453125
  1
=
 41
0.9
  7
CADDY_VECTORFONT1P
  2
$TAG140020
 70
     1
  0
ATTRIB
  5
2BE
  8
0
 10
31.76500701904297
 20
259.4000244140625
 30
0.0
 40
2.449981689453125
  1
+
 41
0.9
  7
CADDY_VECTORFONT1P
  2
$TAG140050
 70
     1
  0
SEQEND
  5
2B8
  8
0
  0
INSERT
  5
2C3
  8
0
 66
     1
  2
BLK17
 10
0.0
 20
0.0
 30
1.0
  0
ATTRIB
  5
2C6
  8
0
 10
105.4979622543335
 20
255.9000091552734
 30
0.0
 40
2.449996948242188
  1
3L2
 41
0.9
  7
CADDY_VECTORFONT1P
 72
     2
 11
110.2850112915039
 21
255.9000091552734
 31
0.0
  2
$TAG160010
 70
     0
  0
ATTRIB
  5
2C9
  8
0
 10
115.8650131225586
 20
253.9499969482422
 30
0.0
 40
2.449996948242188
  1

 41
0.9
  7
CADDY_VECTORFONT1P
  2
$TAG160500
 70
     0
  0
ATTRIB
  5
2CB
  8
0
 10
108.9377739898682
 20
262.9000244140625
 30
0.0
 40
2.449981689453125
  1
=
 41
0.9
  7
CADDY_VECTORFONT1P
 72
     2
 11
110.2850189208984
 21
262.9000244140625
 31
0.0
  2
$TAG140020
 70
     1
  0
ATTRIB
  5
2CD
  8
0
 10
108.9377663604736
 20
259.4000244140625
 30
0.0
 40
2.449981689453125
  1
+
 41
0.9
  7
CADDY_VECTORFONT1P
 72
     2
 11
110.2850112915039
 21
259.4000244140625
 31
0.0
  2
$TAG140050
 70
     1
  0
SEQEND
  5
2C7
  8
0
  0
LINE
  5
2CF
  8
0
  6
CADDY_SOLID
 10
30.0
 20
255.0
 30
0.0
 11
70.0
 21
255.0
 31
0.0
  0
LINE
  5
2D0
  8
0
  6
CADDY_SOLID
 10
70.0
 20
255.0
 30
0.0
 11
115.0
 21
255.0
 31
0.0
  0
INSERT
  5
2D4
  8
0
 66
     1
  2
BLK18
 10
0.0
 20
0.0
 30
1.0
  0
ATTRIB
  5
2D7
  8
0
 10
31.76500701904297
 20
250.9000091552734
 30
0.0
 40
2.449996948242188
  1
3L3
 41
0.9
  7
CADDY_VECTORFONT1P
  2
$TAG160010
 70
     0
  0
ATTRIB
  5
2DA
  8
0
 10
19.76370007629394
 20
248.9499969482422
 30
0.0
 40
2.449996948242188
  1
33.2
 41
0.9
  7
CADDY_VECTORFONT1P
 72
     2
 11
25.28501319885254
 21
248.9499969482422
 31
0.0
  2
$TAG160500
 70
     0
  0
ATTRIB
  5
2DC
  8
0
 10
31.76500701904297
 20
257.9000244140625
 30
0.0
 40
2.449981689453125
  1
=
 41
0.9
  7
CADDY_VECTORFONT1P
  2
$TAG140020
 70
     1
  0
ATTRIB
  5
2DE
  8
0
 10
31.76500701904297
 20
254.4000091552734
 30
0.0
 40
2.449996948242188
  1
+
 41
0.9
  7
CADDY_VECTORFONT1P
  2
$TAG140050
 70
     1
  0
SEQEND
  5
2D8
  8
0
  0
INSERT
  5
2E3
  8
0
 66
     1
  2
BLK19
 10
0.0
 20
0.0
 30
1.0
  0
ATTRIB
  5
2E6
  8
0
 10
105.4825272735596
 20
250.9000091552734
 30
0.0
 40
2.449996948242188
  1
3L3
 41
0.9
  7
CADDY_VECTORFONT1P
 72
     2
 11
110.2850112915039
 21
250.9000091552734
 31
0.0
  2
$TAG160010
 70
     0
  0
ATTRIB
  5
2E9
  8
0
 10
115.8650131225586
 20
248.9499969482422
 30
0.0
 40
2.449996948242188
  1

 41
0.9
  7
CADDY_VECTORFONT1P
  2
$TAG160500
 70
     0
  0
ATTRIB
  5
2EB
  8
0
 10
108.9377739898682
 20
257.9000244140625
 30
0.0
 40
2.449981689453125
  1
=
 41
0.9
  7
CADDY_VECTORFONT1P
 72
     2
 11
110.2850189208984
 21
257.9000244140625
 31
0.0
  2
$TAG140020
 70
     1
  0
ATTRIB
  5
2ED
  8
0
 10
108.9377579696655
 20
254.4000091552734
 30
0.0
 40
2.449996948242188
  1
+
 41
0.9
  7
CADDY_VECTORFONT1P
 72
     2
 11
110.2850112915039
 21
254.4000091552734
 31
0.0
  2
$TAG140050
 70
     1
  0
SEQEND
  5
2E7
  8
0
  0
LINE
  5
2EF
  8
0
  6
CADDY_SOLID
 10
30.0
 20
250.0
 30
0.0
 11
75.0
 21
250.0
 31
0.0
  0
LINE
  5
2F0
  8
0
  6
CADDY_SOLID
 10
75.0
 20
250.0
 30
0.0
 11
115.0
 21
250.0
 31
0.0
  0
CIRCLE
  5
2F1
  8
0
 10
65.0
 20
260.0
 30
0.0
 40
0.8
  0
CIRCLE
  5
2F2
  8
0
 10
65.0
 20
260.0
 30
0.0
 40
0.6
  0
CIRCLE
  5
2F3
  8
0
 10
65.0
 20
260.0
 30
0.0
 40
0.4
  0
LINE
  5
2F4
  8
0
  6
CADDY_SOLID
 10
30.0
 20
260.0
 30
0.0
 11
65.0
 21
260.0
 31
0.0
  0
TEXT
  5
2F5
  8
0
 10
45.047725
 20
260.5
 30
0.0
 40
1.75
  1
0607
 41
0.9
  7
CADDY_VECTORFONT1P
 72
     1
 11
47.5
 21
260.5
 31
0.0
  0
LINE
  5
2F6
  8
0
  6
CADDY_SOLID
 10
65.0
 20
260.0
 30
0.0
 11
115.0
 21
260.0
 31
0.0
  0
TEXT
  5
2F7
  8
0
 10
87.547725
 20
260.5
 30
0.0
 40
1.75
  1
0607
 41
0.9
  7
CADDY_VECTORFONT1P
 72
     1
 11
90.0
 21
260.5
 31
0.0
  0
CIRCLE
  5
2F8
  8
0
 10
70.0
 20
255.0
 30
0.0
 40
0.8
  0
CIRCLE
  5
2F9
  8
0
 10
70.0
 20
255.0
 30
0.0
 40
0.6
  0
CIRCLE
  5
2FA
  8
0
 10
70.0
 20
255.0
 30
0.0
 40
0.4
  0
CIRCLE
  5
2FB
  8
0
 10
75.0
 20
250.0
 30
0.0
 40
0.8
  0
CIRCLE
  5
2FC
  8
0
 10
75.0
 20
250.0
 30
0.0
 40
0.6
  0
CIRCLE
  5
2FD
  8
0
 10
75.0
 20
250.0
 30
0.0
 40
0.4
  0
LINE
  5
2FE
  8
0
  6
CADDY_SOLID
 10
30.0
 20
120.0
 30
0.0
 11
110.0
 21
120.0
 31
0.0
  0
LINE
  5
2FF
  8
0
  6
CADDY_SOLID
 10
30.0
 20
95.0
 30
0.0
 11
110.0
 21
95.0
 31
0.0
  0
TEXT
  5
300
  8
0
 10
84.29675684394836
 20
80.69999694824219
 30
0.0
 40
2.450004577636719
  1
4x1,5 jz
 41
0.9
  7
CADDY_VECTORFONT1P
 72
     1
 11
90.0
 21
80.69999694824219
 31
0.0
  0
INSERT
  5
304
  8
0
 66
     1
  2
BLK20
 10
0.0
 20
0.0
 30
1.0
  0
ATTRIB
  5
308
  8
2
 10
58.04251415100098
 20
136.3000030517578
 30
0.0
 40
2.449996948242188
  1
-X20
 41
0.9
  7
CADDY_VECTORFONT1P
 72
     2
 11
65.04999542236328
 21
136.3000030517578
 31
0.0
  2
$TAG160010
 70
     1
  0
ATTRIB
  5
30B
  8
2
 10
69.09999084472656
 20
139.1999969482422
 30
0.0
 40
2.449996948242188
  1
8V2
 50
90.0
 41
0.9
  7
CADDY_VECTORFONT1P
  2
$TAG160400
 70
     0
  0
ATTRIB
  5
30D
  8
0
 10
72.59999084472656
 20
139.1999969482422
 30
0.0
 40
2.449996948242188
  1
2
 50
90.0
 41
0.9
  7
CADDY_VECTORFONT1P
  2
$TAG160410
 70
     1
  0
ATTRIB
  5
30F
  8
2
 10
65.04999542236328
 20
132.8000030517578
 30
0.0
 40
2.449996948242188
  1

 41
0.9
  7
CADDY_VECTORFONT1P
 72
     2
 11
65.04999542236328
 21
132.8000030517578
 31
0.0
  2
$TAG160030
 70
     1
  0
ATTRIB
  5
311
  8
2
 10
43.34179746246338
 20
127.8000030517578
 30
0.0
 40
2.449996948242188
  1
AB1RR235U2GR
 41
0.9
  7
CADDY_VECTORFONT1P
 72
     2
 11
65.04999542236328
 21
127.8000030517578
 31
0.0
  2
$TAG160040
 70
     1
  0
ATTRIB
  5
313
  8
2
 10
63.70274972991943
 20
143.3000030517578
 30
0.0
 40
2.449996948242188
  1
=
 41
0.9
  7
CADDY_VECTORFONT1P
 72
     2
 11
65.05000305175781
 21
143.3000030517578
 31
0.0
  2
$TAG140020
 70
     1
  0
ATTRIB
  5
315
  8
2
 10
63.70274972991943
 20
139.8000030517578
 30
0.0
 40
2.449996948242188
  1
+
 41
0.9
  7
CADDY_VECTORFONT1P
 72
     2
 11
65.05000305175781
 21
139.8000030517578
 31
0.0
  2
$TAG140050
 70
     1
  0
SEQEND
  5
309
  8
0
  0
INSERT
  5
31A
  8
0
 66
     1
  2
BLK21
 10
0.0
 20
0.0
 30
1.0
  0
ATTRIB
  5
31E
  8
2
 10
63.04252178039551
 20
136.3000030517578
 30
0.0
 40
2.449996948242188
  1
-X20
 41
0.9
  7
CADDY_VECTORFONT1P
 72
     2
 11
70.05000305175781
 21
136.3000030517578
 31
0.0
  2
$TAG160010
 70
     1
  0
ATTRIB
  5
321
  8
2
 10
74.09999084472656
 20
139.1999969482422
 30
0.0
 40
2.449996948242188
  1
8W2
 50
90.0
 41
0.9
  7
CADDY_VECTORFONT1P
  2
$TAG160400
 70
     0
  0
ATTRIB
  5
323
  8
0
 10
77.59999084472656
 20
139.1999969482422
 30
0.0
 40
2.449996948242188
  1
3
 50
90.0
 41
0.9
  7
CADDY_VECTORFONT1P
  2
$TAG160410
 70
     1
  0
ATTRIB
  5
325
  8
2
 10
70.04999542236328
 20
132.8000030517578
 30
0.0
 40
2.449996948242188
  1

 41
0.9
  7
CADDY_VECTORFONT1P
 72
     2
 11
70.04999542236328
 21
132.8000030517578
 31
0.0
  2
$TAG160030
 70
     1
  0
ATTRIB
  5
327
  8
2
 10
48.34180509185791
 20
127.8000030517578
 30
0.0
 40
2.449996948242188
  1
AB1RR235U2GR
 41
0.9
  7
CADDY_VECTORFONT1P
 72
     2
 11
70.05000305175781
 21
127.8000030517578
 31
0.0
  2
$TAG160040
 70
     1
  0
ATTRIB
  5
329
  8
2
 10
68.70274972991943
 20
143.3000030517578
 30
0.0
 40
2.449996948242188
  1
=
 41
0.9
  7
CADDY_VECTORFONT1P
 72
     2
 11
70.05000305175781
 21
143.3000030517578
 31
0.0
  2
$TAG140020
 70
     1
  0
ATTRIB
  5
32B
  8
2
 10
68.7027421005249
 20
139.8000030517578
 30
0.0
 40
2.449996948242188
  1
+
 41
0.9
  7
CADDY_VECTORFONT1P
 72
     2
 11
70.04999542236328
 21
139.8000030517578
 31
0.0
  2
$TAG140050
 70
     1
  0
SEQEND
  5
31F
  8
0
  0
INSERT
  5
330
  8
0
 66
     1
  2
BLK22
 10
0.0
 20
0.0
 30
1.0
  0
ATTRIB
  5
334
  8
2
 10
54.75800582885742
 20
136.3000030517578
 30
0.0
 40
2.449996948242188
  1
X36
 41
0.9
  7
CADDY_VECTORFONT1P
 72
     2
 11
60.04999923706055
 21
136.3000030517578
 31
0.0
  2
$TAG160010
 70
     0
  0
ATTRIB
  5
337
  8
2
 10
64.09999084472656
 20
139.1999969482422
 30
0.0
 40
2.449996948242188
  1
8U2
 50
90.0
 41
0.9
  7
CADDY_VECTORFONT1P
  2
$TAG160400
 70
     0
  0
ATTRIB
  5
339
  8
0
 10
67.59999084472656
 20
139.1999969482422
 30
0.0
 40
2.449996948242188
  1
1
 50
90.0
 41
0.9
  7
CADDY_VECTORFONT1P
  2
$TAG160410
 70
     1
  0
ATTRIB
  5
33B
  8
2
 10
60.04999923706055
 20
132.8000030517578
 30
0.0
 40
2.449996948242188
  1

 41
0.9
  7
CADDY_VECTORFONT1P
 72
     2
 11
60.04999923706055
 21
132.8000030517578
 31
0.0
  2
$TAG160030
 70
     1
  0
ATTRIB
  5
33D
  8
2
 10
38.34179746246338
 20
127.8000030517578
 30
0.0
 40
2.449996948242188
  1
AB1RR235U2GR
 41
0.9
  7
CADDY_VECTORFONT1P
 72
     2
 11
60.04999542236328
 21
127.8000030517578
 31
0.0
  2
$TAG160040
 70
     1
  0
ATTRIB
  5
33F
  8
2
 10
58.70274591522217
 20
143.3000030517578
 30
0.0
 40
2.449996948242188
  1
=
 41
0.9
  7
CADDY_VECTORFONT1P
 72
     2
 11
60.04999923706055
 21
143.3000030517578
 31
0.0
  2
$TAG140020
 70
     1
  0
ATTRIB
  5
341
  8
2
 10
58.70274972991943
 20
139.8000030517578
 30
0.0
 40
2.449996948242188
  1
+
 41
0.9
  7
CADDY_VECTORFONT1P
 72
     2
 11
60.05000305175781
 21
139.8000030517578
 31
0.0
  2
$TAG140050
 70
     1
  0
SEQEND
  5
335
  8
0
  0
INSERT
  5
346
  8
0
 66
     1
  2
BLK23
 10
0.0
 20
0.0
 30
1.0
  0
ATTRIB
  5
34A
  8
2
 10
68.04251415100097
 20
136.3000030517578
 30
0.0
 40
2.449996948242188
  1
-X20
 41
0.9
  7
CADDY_VECTORFONT1P
 72
     2
 11
75.04999542236328
 21
136.3000030517578
 31
0.0
  2
$TAG160010
 70
     1
  0
ATTRIB
  5
34D
  8
2
 10
79.09999084472656
 20
139.1999969482422
 30
0.0
 40
2.449996948242188
  1
PE
 50
90.0
 41
0.9
  7
CADDY_VECTORFONT1P
  2
$TAG160400
 70
     0
  0
ATTRIB
  5
34F
  8
0
 10
82.59999084472656
 20
139.1999969482422
 30
0.0
 40
2.449996948242188
  1
5
 50
90.0
 41
0.9
  7
CADDY_VECTORFONT1P
  2
$TAG160410
 70
     1
  0
ATTRIB
  5
351
  8
2
 10
75.04999542236328
 20
132.8000030517578
 30
0.0
 40
2.449996948242188
  1

 41
0.9
  7
CADDY_VECTORFONT1P
 72
     2
 11
75.04999542236328
 21
132.8000030517578
 31
0.0
  2
$TAG160030
 70
     1
  0
ATTRIB
  5
353
  8
2
 10
53.35724770202637
 20
127.8000030517578
 30
0.0
 40
2.449996948242188
  1
AB1RRTP235U2
 41
0.9
  7
CADDY_VECTORFONT1P
 72
     2
 11
75.05001068115234
 21
127.8000030517578
 31
0.0
  2
$TAG160040
 70
     1
  0
ATTRIB
  5
355
  8
2
 10
73.70274972991943
 20
143.3000030517578
 30
0.0
 40
2.449996948242188
  1
=
 41
0.9
  7
CADDY_VECTORFONT1P
 72
     2
 11
75.05000305175781
 21
143.3000030517578
 31
0.0
  2
$TAG140020
 70
     1
  0
ATTRIB
  5
357
  8
2
 10
73.7027421005249
 20
139.8000030517578
 30
0.0
 40
2.449996948242188
  1
+
 41
0.9
  7
CADDY_VECTORFONT1P
 72
     2
 11
75.04999542236328
 21
139.8000030517578
 31
0.0
  2
$TAG140050
 70
     1
  0
SEQEND
  5
34B
  8
0
  0
LINE
  5
359
  8
0
  6
CADDY_SOLID
 10
75.0
 20
140.0
 30
0.0
 11
75.0
 21
195.0
 31
0.0
  0
TEXT
  5
35A
  8
0
 10
74.5
 20
165.041425
 30
0.0
 40
1.75
  1
3603
 50
90.0
 41
0.9
  7
CADDY_VECTORFONT1P
 72
     1
 11
74.5
 21
167.5
 31
0.0
  0
LINE
  5
35B
  8
0
  6
CADDY_SOLID
 10
65.0
 20
140.0
 30
0.0
 11
65.0
 21
195.0
 31
0.0
  0
TEXT
  5
35C
  8
0
 10
64.5
 20
165.21625
 30
0.0
 40
1.75
  1
3601
 50
90.0
 41
0.9
  7
CADDY_VECTORFONT1P
 72
     1
 11
64.5
 21
167.5
 31
0.0
  0
LINE
  5
35D
  8
0
  6
CADDY_SOLID
 10
70.0
 20
140.0
 30
0.0
 11
70.0
 21
195.0
 31
0.0
  0
TEXT
  5
35E
  8
0
 10
69.5
 20
165.0469375
 30
0.0
 40
1.75
  1
3602
 50
90.0
 41
0.9
  7
CADDY_VECTORFONT1P
 72
     1
 11
69.5
 21
167.5
 31
0.0
  0
INSERT
  5
362
  8
0
 66
     1
  2
BLK24
 10
0.0
 20
0.0
 30
1.0
  0
ATTRIB
  5
363
  8
0
 10
90.69999694824219
 20
130.6999969482422
 30
0.0
 40
2.449996948242188
  1
W3601.1
 41
0.9
  7
CADDY_VECTORFONT1P
  2
$TAG160010
 70
     1
  0
ATTRIB
  5
366
  8
0
 10
90.69999694824219
 20
125.6999969482422
 30
0.0
 40
2.449996948242188
  1

 41
0.9
  7
CADDY_VECTORFONT1P
  2
$TAG160030
 70
     1
  0
ATTRIB
  5
368
  8
0
 10
90.69999694824219
 20
120.6999969482422
 30
0.0
 40
2.450004577636719
  1

 41
0.9
  7
CADDY_VECTORFONT1P
  2
$TAG160200
 70
     1
  0
ATTRIB
  5
36A
  8
0
 10
90.69999694824219
 20
115.6999969482422
 30
0.0
 40
2.450004577636719
  1

 41
0.9
  7
CADDY_VECTORFONT1P
  2
$TAG160040
 70
     1
  0
ATTRIB
  5
36C
  8
0
 10
90.69999694824219
 20
110.6999969482422
 30
0.0
 40
2.450004577636719
  1

 41
0.9
  7
CADDY_VECTORFONT1P
  2
$TAG160101
 70
     1
  0
ATTRIB
  5
36E
  8
0
 10
65.69999694824219
 20
130.6999969482422
 30
0.0
 40
2.449996948242188
  1
1
 41
0.9
  7
CADDY_VECTORFONT1P
  2
$TAG160210
 70
     0
  0
ATTRIB
  5
370
  8
0
 10
65.69999694824219
 20
125.6999969482422
 30
0.0
 40
2.449996948242188
  1

 41
0.9
  7
CADDY_VECTORFONT1P
  2
$TAG160220
 70
     1
  0
ATTRIB
  5
372
  8
0
 10
65.69999694824219
 20
120.6999969482422
 30
0.0
 40
2.450004577636719
  1

 41
0.9
  7
CADDY_VECTORFONT1P
  2
$TAG160230
 70
     1
  0
SEQEND
  5
364
  8
0
  0
INSERT
  5
378
  8
0
 66
     1
  2
BLK25
 10
0.0
 20
0.0
 30
1.0
  0
ATTRIB
  5
379
  8
0
 10
90.69999694824219
 20
130.6999969482422
 30
0.0
 40
2.449996948242188
  1
W3601.1
 41
0.9
  7
CADDY_VECTORFONT1P
  2
$TAG160010
 70
     1
  0
ATTRIB
  5
37C
  8
0
 10
90.69999694824219
 20
125.6999969482422
 30
0.0
 40
2.449996948242188
  1

 41
0.9
  7
CADDY_VECTORFONT1P
  2
$TAG160030
 70
     1
  0
ATTRIB
  5
37E
  8
0
 10
90.69999694824219
 20
120.6999969482422
 30
0.0
 40
2.450004577636719
  1

 41
0.9
  7
CADDY_VECTORFONT1P
  2
$TAG160200
 70
     1
  0
ATTRIB
  5
380
  8
0
 10
90.69999694824219
 20
115.6999969482422
 30
0.0
 40
2.450004577636719
  1

 41
0.9
  7
CADDY_VECTORFONT1P
  2
$TAG160040
 70
     1
  0
ATTRIB
  5
382
  8
0
 10
90.69999694824219
 20
110.6999969482422
 30
0.0
 40
2.450004577636719
  1

 41
0.9
  7
CADDY_VECTORFONT1P
  2
$TAG160101
 70
     1
  0
ATTRIB
  5
384
  8
0
 10
70.69999694824219
 20
130.6999969482422
 30
0.0
 40
2.449996948242188
  1
2
 41
0.9
  7
CADDY_VECTORFONT1P
  2
$TAG160210
 70
     0
  0
ATTRIB
  5
386
  8
0
 10
70.69999694824219
 20
125.6999969482422
 30
0.0
 40
2.449996948242188
  1

 41
0.9
  7
CADDY_VECTORFONT1P
  2
$TAG160220
 70
     1
  0
ATTRIB
  5
388
  8
0
 10
70.69999694824219
 20
120.6999969482422
 30
0.0
 40
2.450004577636719
  1

 41
0.9
  7
CADDY_VECTORFONT1P
  2
$TAG160230
 70
     1
  0
SEQEND
  5
37A
  8
0
  0
INSERT
  5
38E
  8
0
 66
     1
  2
BLK26
 10
0.0
 20
0.0
 30
1.0
  0
ATTRIB
  5
38F
  8
0
 10
90.69999694824219
 20
130.6999969482422
 30
0.0
 40
2.449996948242188
  1
W3601.1
 41
0.9
  7
CADDY_VECTORFONT1P
  2
$TAG160010
 70
     1
  0
ATTRIB
  5
392
  8
0
 10
90.69999694824219
 20
125.6999969482422
 30
0.0
 40
2.449996948242188
  1

 41
0.9
  7
CADDY_VECTORFONT1P
  2
$TAG160030
 70
     1
  0
ATTRIB
  5
394
  8
0
 10
90.69999694824219
 20
120.6999969482422
 30
0.0
 40
2.450004577636719
  1

 41
0.9
  7
CADDY_VECTORFONT1P
  2
$TAG160200
 70
     1
  0
ATTRIB
  5
396
  8
0
 10
90.69999694824219
 20
115.6999969482422
 30
0.0
 40
2.450004577636719
  1

 41
0.9
  7
CADDY_VECTORFONT1P
  2
$TAG160040
 70
     1
  0
ATTRIB
  5
398
  8
0
 10
90.69999694824219
 20
110.6999969482422
 30
0.0
 40
2.450004577636719
  1

 41
0.9
  7
CADDY_VECTORFONT1P
  2
$TAG160101
 70
     1
  0
ATTRIB
  5
39A
  8
0
 10
75.69999694824219
 20
130.6999969482422
 30
0.0
 40
2.449996948242188
  1
3
 41
0.9
  7
CADDY_VECTORFONT1P
  2
$TAG160210
 70
     0
  0
ATTRIB
  5
39C
  8
0
 10
75.69999694824219
 20
125.6999969482422
 30
0.0
 40
2.449996948242188
  1

 41
0.9
  7
CADDY_VECTORFONT1P
  2
$TAG160220
 70
     1
  0
ATTRIB
  5
39E
  8
0
 10
75.69999694824219
 20
120.6999969482422
 30
0.0
 40
2.450004577636719
  1

 41
0.9
  7
CADDY_VECTORFONT1P
  2
$TAG160230
 70
     1
  0
SEQEND
  5
390
  8
0
  0
INSERT
  5
3A4
  8
0
 66
     1
  2
BLK27
 10
0.0
 20
0.0
 30
1.0
  0
ATTRIB
  5
3A5
  8
0
 10
90.69999694824219
 20
130.6999969482422
 30
0.0
 40
2.449996948242188
  1
W3601.1
 41
0.9
  7
CADDY_VECTORFONT1P
  2
$TAG160010
 70
     0
  0
ATTRIB
  5
3A8
  8
0
 10
90.69999694824219
 20
125.6999969482422
 30
0.0
 40
2.449996948242188
  1

 41
0.9
  7
CADDY_VECTORFONT1P
  2
$TAG160030
 70
     0
  0
ATTRIB
  5
3AA
  8
0
 10
90.69999694824219
 20
120.6999969482422
 30
0.0
 40
2.450004577636719
  1

 41
0.9
  7
CADDY_VECTORFONT1P
  2
$TAG160200
 70
     0
  0
ATTRIB
  5
3AC
  8
0
 10
90.69999694824219
 20
115.6999969482422
 30
0.0
 40
2.450004577636719
  1

 41
0.9
  7
CADDY_VECTORFONT1P
  2
$TAG160040
 70
     1
  0
ATTRIB
  5
3AE
  8
0
 10
90.69999694824219
 20
110.6999969482422
 30
0.0
 40
2.450004577636719
  1

 41
0.9
  7
CADDY_VECTORFONT1P
  2
$TAG160101
 70
     1
  0
ATTRIB
  5
3B0
  8
0
 10
80.69999694824219
 20
130.6999969482422
 30
0.0
 40
2.449996948242188
  1
gn/yl
 41
0.9
  7
CADDY_VECTORFONT1P
  2
$TAG160210
 70
     0
  0
ATTRIB
  5
3B2
  8
0
 10
80.69999694824219
 20
125.6999969482422
 30
0.0
 40
2.449996948242188
  1

 41
0.9
  7
CADDY_VECTORFONT1P
  2
$TAG160220
 70
     1
  0
ATTRIB
  5
3B4
  8
0
 10
80.69999694824219
 20
120.6999969482422
 30
0.0
 40
2.450004577636719
  1

 41
0.9
  7
CADDY_VECTORFONT1P
  2
$TAG160230
 70
     1
  0
SEQEND
  5
3A6
  8
0
  0
LINE
  5
3B7
  8
0
  6
CADDY_SOLID
 10
55.0
 20
130.0
 30
0.0
 11
90.0
 21
130.0
 31
0.0
  0
LINE
  5
3B8
  8
0
  6
CADDY_SOLID
 10
75.0
 20
105.0
 30
0.0
 11
75.0
 21
129.5
 31
0.0
  0
LINE
  5
3B9
  8
0
  6
CADDY_SOLID
 10
75.0
 20
130.5
 30
0.0
 11
75.0
 21
135.0
 31
0.0
  0
LINE
  5
3BA
  8
0
  6
CADDY_SOLID
 10
70.0
 20
105.0
 30
0.0
 11
70.0
 21
129.5
 31
0.0
  0
LINE
  5
3BB
  8
0
  6
CADDY_SOLID
 10
70.0
 20
130.5
 30
0.0
 11
70.0
 21
135.0
 31
0.0
  0
LINE
  5
3BC
  8
0
  6
CADDY_SOLID
 10
80.0
 20
105.0
 30
0.0
 11
80.0
 21
129.5
 31
0.0
  0
LINE
  5
3BD
  8
0
  6
CADDY_SOLID
 10
80.0
 20
130.5
 30
0.0
 11
80.0
 21
135.0
 31
0.0
  0
TEXT
  5
3BE
  8
0
 10
89.29677460403443
 20
125.6999969482422
 30
0.0
 40
2.449996948242188
  1
4x1,5 jz
 41
0.9
  7
CADDY_VECTORFONT1P
 72
     1
 11
95.0
 21
125.6999969482422
 31
0.0
  0
LINE
  5
3BF
  8
0
  6
CADDY_SOLID
 10
65.0
 20
105.0
 30
0.0
 11
65.0
 21
129.5
 31
0.0
  0
LINE
  5
3C0
  8
0
  6
CADDY_SOLID
 10
65.0
 20
130.5
 30
0.0
 11
65.0
 21
135.0
 31
0.0
  0
ENDSEC
  0
EOF
