999
dxfrw 0.6.3
  0
SECTION
  2
HEADER
  9
$ACADVER
  1
AC1021
  9
$DWGCODEPAGE
  3
ANSI_1252
  9
$INSBASE
 10
0
 20
0
 30
0
  9
$EXTMIN
 10
-151.2101179275778
 20
-17.36035008535001
 30
0
  9
$EXTMAX
 10
410
 20
331.577779286618
 30
0
  9
$LIMMIN
 10
0
 20
0
  9
$LIMMAX
 10
420
 20
297
  9
$ORTHOMODE
 70
    0
  9
$REGENMODE
 70
    1
  9
$FILLMODE
 70
    1
  9
$QTEXTMODE
 70
    0
  9
$MIRRTEXT
 70
    1
  9
$LTSCALE
 40
1
  9
$ATTMODE
 70
    1
  9
$TEXTSIZE
 40
2.5
  9
$TRACEWID
 40
1
  9
$TEXTSTYLE
  7
Standard
  9
$CLAYER
  8
0
  9
$CELTYPE
  6
ByLayer
  9
$CECOLOR
 62
  256
  9
$CELTSCALE
 40
1
  9
$DISPSILH
 70
    0
  9
$DIMSCALE
 40
1
  9
$DIMASZ
 40
2.5
  9
$DIMEXO
 40
0.625
  9
$DIMDLI
 40
3.75
  9
$DIMRND
 40
0
  9
$DIMDLE
 40
0
  9
$DIMEXE
 40
1.25
  9
$DIMTP
 40
0
  9
$DIMTM
 40
0
  9
$DIMTXT
 40
2.5
  9
$DIMCEN
 40
2.5
  9
$DIMTSZ
 40
0
  9
$DIMTOL
 70
    0
  9
$DIMLIM
 70
    0
  9
$DIMTIH
 70
    0
  9
$DIMTOH
 70
    0
  9
$DIMSE1
 70
    0
  9
$DIMSE2
 70
    0
  9
$DIMTAD
 70
    1
  9
$DIMZIN
 70
    8
  9
$DIMBLK
  1

  9
$DIMASO
 70
    1
  9
$DIMSHO
 70
    1
  9
$DIMPOST
  1

  9
$DIMAPOST
  1

  9
$DIMALT
 70
    0
  9
$DIMALTD
 70
    3
  9
$DIMALTF
 40
0.03937007874016
  9
$DIMLFAC
 40
1
  9
$DIMTOFL
 70
    1
  9
$DIMTVP
 40
0
  9
$DIMTIX
 70
    0
  9
$DIMSOXD
 70
    0
  9
$DIMSAH
 70
    0
  9
$DIMBLK1
  1

  9
$DIMBLK2
  1

  9
$DIMSTYLE
  2
ISO-25
  9
$DIMCLRD
 70
    0
  9
$DIMCLRE
 70
    0
  9
$DIMCLRT
 70
    0
  9
$DIMTFAC
 40
1
  9
$DIMGAP
 40
0.625
  9
$DIMJUST
 70
    0
  9
$DIMSD1
 70
    0
  9
$DIMSD2
 70
    0
  9
$DIMTOLJ
 70
    0
  9
$DIMTZIN
 70
    8
  9
$DIMALTZ
 70
    0
  9
$DIMALTTZ
 70
    0
  9
$DIMUPT
 70
    0
  9
$DIMDEC
 70
    2
  9
$DIMTDEC
 70
    2
  9
$DIMALTU
 70
    2
  9
$DIMALTTD
 70
    3
  9
$DIMTXSTY
  7
Standard
  9
$DIMAUNIT
 70
    0
  9
$DIMADEC
 70
    0
  9
$DIMALTRND
 40
0
  9
$DIMAZIN
 70
    0
  9
$DIMDSEP
 70
   44
  9
$DIMATFIT
 70
    3
  9
$DIMFRAC
 70
    0
  9
$DIMLDRBLK
  1

  9
$DIMLUNIT
 70
    2
  9
$DIMLWD
 70
   -2
  9
$DIMLWE
 70
   -2
  9
$DIMTMOVE
 70
    0
  9
$DIMFXL
 40
1
  9
$DIMFXLON
 70
    0
  9
$DIMJOGANG
 40
0.7854
  9
$DIMTFILL
 70
    0
  9
$DIMTFILLCLR
 70
    0
  9
$DIMARCSYM
 70
    0
  9
$DIMLTYPE
  6

  9
$DIMLTEX1
  6

  9
$DIMLTEX2
  6

  9
$LUNITS
 70
    2
  9
$LUPREC
 70
    4
  9
$SKETCHINC
 40
1
  9
$FILLETRAD
 40
10
  9
$AUNITS
 70
    0
  9
$AUPREC
 70
    0
  9
$MENU
  1
.
  9
$ELEVATION
 40
0
  9
$PELEVATION
 40
0
  9
$THICKNESS
 40
0
  9
$LIMCHECK
 70
    0
  9
$CHAMFERA
 40
10
  9
$CHAMFERB
 40
10
  9
$CHAMFERC
 40
20
  9
$CHAMFERD
 40
0
  9
$SKPOLY
 70
    0
  9
$USRTIMER
 70
    1
  9
$ANGBASE
 50
0
  9
$ANGDIR
 70
    0
  9
$PDMODE
 70
    0
  9
$PDSIZE
 40
0
  9
$PLINEWID
 40
0
  9
$SPLFRAME
 70
    0
  9
$SPLINETYPE
 70
    6
  9
$SPLINESEGS
 70
    8
  9
$HANDSEED
  5
20000
  9
$SURFTAB1
 70
    6
  9
$SURFTAB2
 70
    6
  9
$SURFTYPE
 70
    6
  9
$SURFU
 70
    6
  9
$SURFV
 70
    6
  9
$UCSBASE
  2

  9
$UCSNAME
  2

  9
$UCSORG
 10
0
 20
0
 30
0
  9
$UCSXDIR
 10
1
 20
0
 30
0
  9
$UCSYDIR
 10
0
 20
1
 30
0
  9
$UCSORTHOREF
  2

  9
$UCSORTHOVIEW
 70
    0
  9
$UCSORGTOP
 10
0
 20
0
 30
0
  9
$UCSORGBOTTOM
 10
0
 20
0
 30
0
  9
$UCSORGLEFT
 10
0
 20
0
 30
0
  9
$UCSORGRIGHT
 10
0
 20
0
 30
0
  9
$UCSORGFRONT
 10
0
 20
0
 30
0
  9
$UCSORGBACK
 10
0
 20
0
 30
0
  9
$PUCSBASE
  2

  9
$PUCSNAME
  2

  9
$PUCSORG
 10
0
 20
0
 30
0
  9
$PUCSXDIR
 10
1
 20
0
 30
0
  9
$PUCSYDIR
 10
0
 20
1
 30
0
  9
$PUCSORTHOREF
  2

  9
$PUCSORTHOVIEW
 70
    0
  9
$PUCSORGTOP
 10
0
 20
0
 30
0
  9
$PUCSORGBOTTOM
 10
0
 20
0
 30
0
  9
$PUCSORGLEFT
 10
0
 20
0
 30
0
  9
$PUCSORGRIGHT
 10
0
 20
0
 30
0
  9
$PUCSORGFRONT
 10
0
 20
0
 30
0
  9
$PUCSORGBACK
 10
0
 20
0
 30
0
  9
$USERI1
 70
    0
  9
$USERI2
 70
    0
  9
$USERI3
 70
    0
  9
$USERI4
 70
    0
  9
$USERI5
 70
    0
  9
$USERR1
 40
0
  9
$USERR2
 40
0
  9
$USERR3
 40
0
  9
$USERR4
 40
0
  9
$USERR5
 40
0
  9
$WORLDVIEW
 70
    1
  9
$SHADEDGE
 70
    3
  9
$SHADEDIF
 70
   70
  9
$TILEMODE
 70
    1
  9
$MAXACTVP
 70
   64
  9
$PINSBASE
 10
0
 20
0
 30
0
  9
$PLIMCHECK
 70
    0
  9
$PEXTMIN
 10
1e+20
 20
1e+20
 30
1e+20
  9
$PEXTMAX
 10
-1e+20
 20
-1e+20
 30
-1e+20
  9
$GRIDMODE
 70
    0
  9
$SNAPSTYLE
 70
    0
  9
$PLIMMIN
 10
0
 20
0
  9
$PLIMMAX
 10
420
 20
297
  9
$UNITMODE
 70
    0
  9
$VISRETAIN
 70
    1
  9
$PLINEGEN
 70
    0
  9
$PSLTSCALE
 70
    1
  9
$TREEDEPTH
 70
 3020
  9
$CMLSTYLE
  2
Standard
  9
$CMLJUST
 70
    0
  9
$CMLSCALE
 40
20
  9
$PROXYGRAPHICS
 70
    1
  9
$MEASUREMENT
 70
    1
  9
$CELWEIGHT
370
   -1
  9
$ENDCAPS
280
    0
  9
$JOINSTYLE
280
    0
  9
$LWDISPLAY
290
    0
  9
$INSUNITS
 70
    4
  9
$HYPERLINKBASE
  1

  9
$STYLESHEET
  1

  9
$XEDIT
290
    1
  9
$CEPSNTYPE
380
    0
  9
$PSTYLEMODE
290
    1
  9
$EXTNAMES
290
    1
  9
$PSVPSCALE
 40
0
  9
$OLESTARTUP
290
    0
  9
$SORTENTS
280
  127
  9
$INDEXCTL
280
    0
  9
$HIDETEXT
280
    1
  9
$XCLIPFRAME
290
    0
  9
$HALOGAP
280
    0
  9
$OBSCOLOR
 70
  257
  9
$OBSLTYPE
280
    0
  9
$INTERSECTIONDISPLAY
280
    0
  9
$INTERSECTIONCOLOR
 70
  257
  9
$DIMASSOC
280
    2
  9
$PROJECTNAME
  1

  9
$CAMERADISPLAY
290
    0
  9
$LENSLENGTH
 40
50
  9
$CAMERAHEIGHT
 40
0
  9
$STEPSPERSEC
 40
2
  9
$STEPSIZE
 40
50
  9
$3DDWFPREC
 40
2
  9
$PSOLWIDTH
 40
5
  9
$PSOLHEIGHT
 40
80
  9
$LOFTANG1
 40
1.570796326794897
  9
$LOFTANG2
 40
1.570796326794897
  9
$LOFTMAG1
 40
0
  9
$LOFTMAG2
 40
0
  9
$LOFTPARAM
 70
    7
  9
$LOFTNORMALS
280
    1
  9
$LATITUDE
 40
1
  9
$LONGITUDE
 40
1
  9
$NORTHDIRECTION
 40
0
  9
$TIMEZONE
 70
-8000
  9
$LIGHTGLYPHDISPLAY
280
    1
  9
$TILEMODELIGHTSYNCH
280
    1
  9
$SOLIDHIST
280
    1
  9
$SHOWHIST
280
    1
  9
$DWFFRAME
280
    2
  9
$DGNFRAME
280
    0
  9
$REALWORLDSCALE
290
    1
  9
$INTERFERECOLOR
 62
    1
  9
$CSHADOW
280
    0
  9
$SHADOWPLANELOCATION
 40
0
  0
ENDSEC
  0
SECTION
  2
CLASSES
  0
ENDSEC
  0
SECTION
  2
TABLES
  0
TABLE
  2
VPORT
  5
8
330
0
100
AcDbSymbolTable
 70
    1
  0
VPORT
  5
31
330
2
100
AcDbSymbolTableRecord
100
AcDbViewportTableRecord
  2
*ACTIVE
 70
    0
 10
0
 20
0
 11
1
 21
1
 12
214.4383730403101
 22
124.0787405842783
 13
0
 23
0
 14
10
 24
10
 15
10
 25
10
 16
0
 26
0
 36
1
 17
0
 27
0
 37
0
 40
283.3920548306571
 41
1.655080213903743
 42
50
 43
0
 44
0
 50
0
 51
0
 71
    0
 72
  100
 73
    1
 74
    3
 75
    0
 76
    0
 77
    0
 78
    0
281
    0
 65
    1
110
0
120
0
130
0
111
1
121
0
131
0
112
0
122
1
132
0
 79
    0
146
0
348
10020
 60
    7
 61
    5
292
1
282
    1
141
0
142
0
 63
  250
421
3358443
  0
ENDTAB
  0
TABLE
  2
LTYPE
  5
5
330
0
100
AcDbSymbolTable
 70
    4
  0
LTYPE
  5
14
330
5
100
AcDbSymbolTableRecord
100
AcDbLinetypeTableRecord
  2
ByBlock
 70
    0
  3

 72
   65
 73
    0
 40
0
  0
LTYPE
  5
15
330
5
100
AcDbSymbolTableRecord
100
AcDbLinetypeTableRecord
  2
ByLayer
 70
    0
  3

 72
   65
 73
    0
 40
0
  0
LTYPE
  5
16
330
5
100
AcDbSymbolTableRecord
100
AcDbLinetypeTableRecord
  2
Continuous
 70
    0
  3
Solid line
 72
   65
 73
    0
 40
0
  0
LTYPE
  5
32
330
5
100
AcDbSymbolTableRecord
100
AcDbLinetypeTableRecord
  2
DOT
 70
    0
  3
Dot . . . . . . . . . . . . . . . . . . . . . .
 72
   65
 73
    2
 40
6.35
 49
0
 74
    0
 49
-6.35
 74
    0
  0
LTYPE
  5
33
330
5
100
AcDbSymbolTableRecord
100
AcDbLinetypeTableRecord
  2
DOTTINY
 70
    0
  3
Dot (.15x) .....................................
 72
   65
 73
    2
 40
0.9525
 49
0
 74
    0
 49
-0.9525
 74
    0
  0
LTYPE
  5
34
330
5
100
AcDbSymbolTableRecord
100
AcDbLinetypeTableRecord
  2
DOT2
 70
    0
  3
Dot (.5x) .....................................
 72
   65
 73
    2
 40
3.175
 49
0
 74
    0
 49
-3.175
 74
    0
  0
LTYPE
  5
35
330
5
100
AcDbSymbolTableRecord
100
AcDbLinetypeTableRecord
  2
DOTX2
 70
    0
  3
Dot (2x) .  .  .  .  .  .  .  .  .  .  .  .  .
 72
   65
 73
    2
 40
12.7
 49
0
 74
    0
 49
-12.7
 74
    0
  0
LTYPE
  5
36
330
5
100
AcDbSymbolTableRecord
100
AcDbLinetypeTableRecord
  2
DASHED
 70
    0
  3
Dashed _ _ _ _ _ _ _ _ _ _ _ _ _ _ _ _ _
 72
   65
 73
    2
 40
19.05
 49
12.7
 74
    0
 49
-6.35
 74
    0
  0
LTYPE
  5
37
330
5
100
AcDbSymbolTableRecord
100
AcDbLinetypeTableRecord
  2
DASHEDTINY
 70
    0
  3
Dashed (.15x) _ _ _ _ _ _ _ _ _ _ _ _ _ _ _ _ _
 72
   65
 73
    2
 40
2.8575
 49
1.905
 74
    0
 49
-0.9525
 74
    0
  0
LTYPE
  5
38
330
5
100
AcDbSymbolTableRecord
100
AcDbLinetypeTableRecord
  2
DASHED2
 70
    0
  3
Dashed (.5x) _ _ _ _ _ _ _ _ _ _ _ _ _ _ _ _ _
 72
   65
 73
    2
 40
9.524999999999999
 49
6.35
 74
    0
 49
-3.175
 74
    0
  0
LTYPE
  5
39
330
5
100
AcDbSymbolTableRecord
100
AcDbLinetypeTableRecord
  2
DASHEDX2
 70
    0
  3
Dashed (2x) ____  ____  ____  ____  ____  ___
 72
   65
 73
    2
 40
38.09999999999999
 49
25.4
 74
    0
 49
-12.7
 74
    0
  0
LTYPE
  5
3A
330
5
100
AcDbSymbolTableRecord
100
AcDbLinetypeTableRecord
  2
DASHDOT
 70
    0
  3
Dash dot __ . __ . __ . __ . __ . __ . __ . __
 72
   65
 73
    4
 40
25.4
 49
12.7
 74
    0
 49
-6.35
 74
    0
 49
0
 74
    0
 49
-6.35
 74
    0
  0
LTYPE
  5
3B
330
5
100
AcDbSymbolTableRecord
100
AcDbLinetypeTableRecord
  2
DASHDOTTINY
 70
    0
  3
Dash dot (.15x) _._._._._._._._._._._._._._._.
 72
   65
 73
    4
 40
3.81
 49
1.905
 74
    0
 49
-0.9525
 74
    0
 49
0
 74
    0
 49
-0.9525
 74
    0
  0
LTYPE
  5
3C
330
5
100
AcDbSymbolTableRecord
100
AcDbLinetypeTableRecord
  2
DASHDOT2
 70
    0
  3
Dash dot (.5x) _._._._._._._._._._._._._._._.
 72
   65
 73
    4
 40
12.7
 49
6.35
 74
    0
 49
-3.175
 74
    0
 49
0
 74
    0
 49
-3.175
 74
    0
  0
LTYPE
  5
3D
330
5
100
AcDbSymbolTableRecord
100
AcDbLinetypeTableRecord
  2
DASHDOTX2
 70
    0
  3
Dash dot (2x) ____  .  ____  .  ____  .  ___
 72
   65
 73
    4
 40
50.8
 49
25.4
 74
    0
 49
-12.7
 74
    0
 49
0
 74
    0
 49
-12.7
 74
    0
  0
LTYPE
  5
3E
330
5
100
AcDbSymbolTableRecord
100
AcDbLinetypeTableRecord
  2
DIVIDE
 70
    0
  3
Divide ____ . . ____ . . ____ . . ____ . . ____
 72
   65
 73
    6
 40
31.75
 49
12.7
 74
    0
 49
-6.35
 74
    0
 49
0
 74
    0
 49
-6.35
 74
    0
 49
0
 74
    0
 49
-6.35
 74
    0
  0
LTYPE
  5
3F
330
5
100
AcDbSymbolTableRecord
100
AcDbLinetypeTableRecord
  2
DIVIDETINY
 70
    0
  3
Divide (.15x) __..__..__..__..__..__..__..__.._
 72
   65
 73
    6
 40
4.7625
 49
1.905
 74
    0
 49
-0.9525
 74
    0
 49
0
 74
    0
 49
-0.9525
 74
    0
 49
0
 74
    0
 49
-0.9525
 74
    0
  0
LTYPE
  5
40
330
5
100
AcDbSymbolTableRecord
100
AcDbLinetypeTableRecord
  2
DIVIDE2
 70
    0
  3
Divide (.5x) __..__..__..__..__..__..__..__.._
 72
   65
 73
    6
 40
15.875
 49
6.35
 74
    0
 49
-3.175
 74
    0
 49
0
 74
    0
 49
-3.175
 74
    0
 49
0
 74
    0
 49
-3.175
 74
    0
  0
LTYPE
  5
41
330
5
100
AcDbSymbolTableRecord
100
AcDbLinetypeTableRecord
  2
DIVIDEX2
 70
    0
  3
Divide (2x) ________  .  .  ________  .  .  _
 72
   65
 73
    6
 40
63.5
 49
25.4
 74
    0
 49
-12.7
 74
    0
 49
0
 74
    0
 49
-12.7
 74
    0
 49
0
 74
    0
 49
-12.7
 74
    0
  0
LTYPE
  5
42
330
5
100
AcDbSymbolTableRecord
100
AcDbLinetypeTableRecord
  2
BORDER
 70
    0
  3
Border __ __ . __ __ . __ __ . __ __ . __ __ .
 72
   65
 73
    6
 40
44.45
 49
12.7
 74
    0
 49
-6.35
 74
    0
 49
12.7
 74
    0
 49
-6.35
 74
    0
 49
0
 74
    0
 49
-6.35
 74
    0
  0
LTYPE
  5
43
330
5
100
AcDbSymbolTableRecord
100
AcDbLinetypeTableRecord
  2
BORDERTINY
 70
    0
  3
Border (.15x) __.__.__.__.__.__.__.__.__.__.__.
 72
   65
 73
    6
 40
6.6675
 49
1.905
 74
    0
 49
-0.9525
 74
    0
 49
1.905
 74
    0
 49
-0.9525
 74
    0
 49
0
 74
    0
 49
-0.9525
 74
    0
  0
LTYPE
  5
44
330
5
100
AcDbSymbolTableRecord
100
AcDbLinetypeTableRecord
  2
BORDER2
 70
    0
  3
Border (.5x) __.__.__.__.__.__.__.__.__.__.__.
 72
   65
 73
    6
 40
22.225
 49
6.35
 74
    0
 49
-3.175
 74
    0
 49
6.35
 74
    0
 49
-3.175
 74
    0
 49
0
 74
    0
 49
-3.175
 74
    0
  0
LTYPE
  5
45
330
5
100
AcDbSymbolTableRecord
100
AcDbLinetypeTableRecord
  2
BORDERX2
 70
    0
  3
Border (2x) ____  ____  .  ____  ____  .  ___
 72
   65
 73
    6
 40
88.89999999999999
 49
25.4
 74
    0
 49
-12.7
 74
    0
 49
25.4
 74
    0
 49
-12.7
 74
    0
 49
0
 74
    0
 49
-12.7
 74
    0
  0
LTYPE
  5
46
330
5
100
AcDbSymbolTableRecord
100
AcDbLinetypeTableRecord
  2
CENTER
 70
    0
  3
Center ____ _ ____ _ ____ _ ____ _ ____ _ ____
 72
   65
 73
    4
 40
50.8
 49
31.75
 74
    0
 49
-6.35
 74
    0
 49
6.35
 74
    0
 49
-6.35
 74
    0
  0
LTYPE
  5
47
330
5
100
AcDbSymbolTableRecord
100
AcDbLinetypeTableRecord
  2
CENTERTINY
 70
    0
  3
Center (.15x) ___ _ ___ _ ___ _ ___ _ ___ _ ___
 72
   65
 73
    4
 40
7.619999999999999
 49
4.7625
 74
    0
 49
-0.9525
 74
    0
 49
0.9525
 74
    0
 49
-0.9525
 74
    0
  0
LTYPE
  5
48
330
5
100
AcDbSymbolTableRecord
100
AcDbLinetypeTableRecord
  2
CENTER2
 70
    0
  3
Center (.5x) ___ _ ___ _ ___ _ ___ _ ___ _ ___
 72
   65
 73
    4
 40
28.575
 49
19.05
 74
    0
 49
-3.175
 74
    0
 49
3.175
 74
    0
 49
-3.175
 74
    0
  0
LTYPE
  5
49
330
5
100
AcDbSymbolTableRecord
100
AcDbLinetypeTableRecord
  2
CENTERX2
 70
    0
  3
Center (2x) ________  __  ________  __  _____
 72
   65
 73
    4
 40
101.6
 49
63.5
 74
    0
 49
-12.7
 74
    0
 49
12.7
 74
    0
 49
-12.7
 74
    0
  0
ENDTAB
  0
TABLE
  2
LAYER
  5
2
330
0
100
AcDbSymbolTable
 70
    1
  0
LAYER
  5
10
330
2
100
AcDbSymbolTableRecord
100
AcDbLayerTableRecord
  2
0
 70
    0
 62
    7
  6
CONTINUOUS
370
   -3
390
F
  0
LAYER
  5
4A
330
2
100
AcDbSymbolTableRecord
100
AcDbLayerTableRecord
  2
2
 70
    0
 62
    7
  6
CONTINUOUS
370
   -3
390
F
  0
ENDTAB
  0
TABLE
  2
STYLE
  5
3
330
0
100
AcDbSymbolTable
 70
    3
  0
STYLE
  5
4B
330
2
100
AcDbSymbolTableRecord
100
AcDbTextStyleTableRecord
  2
Caddy_Vectorfont1p
 70
    0
 40
0
 41
1
 50
0
 71
    0
 42
1
  3
Caddy_Vectorfont1p
  4

  0
STYLE
  5
4C
330
2
100
AcDbSymbolTableRecord
100
AcDbTextStyleTableRecord
  2
standard
 70
    0
 40
0
 41
1
 50
0
 71
    0
 42
1
  3
standard
  4

  0
ENDTAB
  0
TABLE
  2
VIEW
  5
6
330
0
100
AcDbSymbolTable
 70
    0
  0
ENDTAB
  0
TABLE
  2
UCS
  5
7
330
0
100
AcDbSymbolTable
 70
    0
  0
ENDTAB
  0
TABLE
  2
APPID
  5
9
330
0
100
AcDbSymbolTable
 70
    1
  0
APPID
  5
12
330
9
100
AcDbSymbolTableRecord
100
AcDbRegAppTableRecord
  2
ACAD
 70
    0
  0
APPID
  5
4D
330
9
100
AcDbSymbolTableRecord
100
AcDbRegAppTableRecord
  2
LibreCad
 70
    0
  0
ENDTAB
  0
TABLE
  2
DIMSTYLE
  5
A
330
0
100
AcDbSymbolTable
 70
    1
100
AcDbDimStyleTable
 71
    1
  0
DIMSTYLE
105
4E
330
A
100
AcDbSymbolTableRecord
100
AcDbDimStyleTableRecord
  2
Standard
 70
    0
 40
1
 41
2.5
 42
0.625
 43
0.38
 44
1.25
 45
0
 46
0
 47
0
 48
0
 49
1
140
2.5
141
0.09
142
0
143
25.4
144
1
145
0
146
1
147
0.625
148
0
 71
    0
 72
    0
 73
    0
 74
    1
 75
    0
 76
    0
 77
    0
 78
    8
 79
    0
170
    0
171
    2
172
    0
173
    0
174
    0
175
    0
176
    0
177
    0
178
    0
179
    0
271
    2
272
    4
273
    2
274
    2
275
    0
276
    0
277
    2
278
   44
279
    0
280
    0
281
    0
282
    0
283
    1
284
    0
285
    0
286
    0
288
    0
289
    3
340
4C
  0
ENDTAB
  0
TABLE
  2
BLOCK_RECORD
  5
1
330
0
100
AcDbSymbolTable
 70
    2
  0
BLOCK_RECORD
  5
1F
330
1
100
AcDbSymbolTableRecord
100
AcDbBlockTableRecord
  2
*Model_Space
 70
    0
280
    1
281
    0
  0
BLOCK_RECORD
  5
1E
330
1
100
AcDbSymbolTableRecord
100
AcDbBlockTableRecord
  2
*Paper_Space
 70
    0
280
    1
281
    0
  0
BLOCK_RECORD
  5
4F
330
1
100
AcDbSymbolTableRecord
100
AcDbBlockTableRecord
  2
Blk1
 70
    0
280
    1
281
    0
  0
BLOCK_RECORD
  5
52
330
1
100
AcDbSymbolTableRecord
100
AcDbBlockTableRecord
  2
Blk2
 70
    0
280
    1
281
    0
  0
BLOCK_RECORD
  5
55
330
1
100
AcDbSymbolTableRecord
100
AcDbBlockTableRecord
  2
Blk3
 70
    0
280
    1
281
    0
  0
BLOCK_RECORD
  5
58
330
1
100
AcDbSymbolTableRecord
100
AcDbBlockTableRecord
  2
Blk4
 70
    0
280
    1
281
    0
  0
BLOCK_RECORD
  5
5B
330
1
100
AcDbSymbolTableRecord
100
AcDbBlockTableRecord
  2
Blk5
 70
    0
280
    1
281
    0
  0
BLOCK_RECORD
  5
5E
330
1
100
AcDbSymbolTableRecord
100
AcDbBlockTableRecord
  2
Blk6
 70
    0
280
    1
281
    0
  0
BLOCK_RECORD
  5
61
330
1
100
AcDbSymbolTableRecord
100
AcDbBlockTableRecord
  2
Blk7
 70
    0
280
    1
281
    0
  0
BLOCK_RECORD
  5
64
330
1
100
AcDbSymbolTableRecord
100
AcDbBlockTableRecord
  2
Blk8
 70
    0
280
    1
281
    0
  0
BLOCK_RECORD
  5
67
330
1
100
AcDbSymbolTableRecord
100
AcDbBlockTableRecord
  2
Blk9
 70
    0
280
    1
281
    0
  0
BLOCK_RECORD
  5
6A
330
1
100
AcDbSymbolTableRecord
100
AcDbBlockTableRecord
  2
Blk10
 70
    0
280
    1
281
    0
  0
BLOCK_RECORD
  5
6D
330
1
100
AcDbSymbolTableRecord
100
AcDbBlockTableRecord
  2
Blk11
 70
    0
280
    1
281
    0
  0
BLOCK_RECORD
  5
70
330
1
100
AcDbSymbolTableRecord
100
AcDbBlockTableRecord
  2
Blk12
 70
    0
280
    1
281
    0
  0
BLOCK_RECORD
  5
73
330
1
100
AcDbSymbolTableRecord
100
AcDbBlockTableRecord
  2
Blk13
 70
    0
280
    1
281
    0
  0
BLOCK_RECORD
  5
76
330
1
100
AcDbSymbolTableRecord
100
AcDbBlockTableRecord
  2
Blk14
 70
    0
280
    1
281
    0
  0
BLOCK_RECORD
  5
79
330
1
100
AcDbSymbolTableRecord
100
AcDbBlockTableRecord
  2
Blk15
 70
    0
280
    1
281
    0
  0
BLOCK_RECORD
  5
7C
330
1
100
AcDbSymbolTableRecord
100
AcDbBlockTableRecord
  2
Blk16
 70
    0
280
    1
281
    0
  0
BLOCK_RECORD
  5
7F
330
1
100
AcDbSymbolTableRecord
100
AcDbBlockTableRecord
  2
Blk17
 70
    0
280
    1
281
    0
  0
BLOCK_RECORD
  5
82
330
1
100
AcDbSymbolTableRecord
100
AcDbBlockTableRecord
  2
Blk18
 70
    0
280
    1
281
    0
  0
BLOCK_RECORD
  5
85
330
1
100
AcDbSymbolTableRecord
100
AcDbBlockTableRecord
  2
Blk19
 70
    0
280
    1
281
    0
  0
BLOCK_RECORD
  5
88
330
1
100
AcDbSymbolTableRecord
100
AcDbBlockTableRecord
  2
Blk20
 70
    0
280
    1
281
    0
  0
BLOCK_RECORD
  5
8B
330
1
100
AcDbSymbolTableRecord
100
AcDbBlockTableRecord
  2
Blk21
 70
    0
280
    1
281
    0
  0
BLOCK_RECORD
  5
8E
330
1
100
AcDbSymbolTableRecord
100
AcDbBlockTableRecord
  2
Blk22
 70
    0
280
    1
281
    0
  0
BLOCK_RECORD
  5
91
330
1
100
AcDbSymbolTableRecord
100
AcDbBlockTableRecord
  2
Blk23
 70
    0
280
    1
281
    0
  0
BLOCK_RECORD
  5
94
330
1
100
AcDbSymbolTableRecord
100
AcDbBlockTableRecord
  2
Blk24
 70
    0
280
    1
281
    0
  0
BLOCK_RECORD
  5
97
330
1
100
AcDbSymbolTableRecord
100
AcDbBlockTableRecord
  2
Blk25
 70
    0
280
    1
281
    0
  0
BLOCK_RECORD
  5
9A
330
1
100
AcDbSymbolTableRecord
100
AcDbBlockTableRecord
  2
Blk26
 70
    0
280
    1
281
    0
  0
BLOCK_RECORD
  5
9D
330
1
100
AcDbSymbolTableRecord
100
AcDbBlockTableRecord
  2
Blk27
 70
    0
280
    1
281
    0
  0
BLOCK_RECORD
  5
A0
330
1
100
AcDbSymbolTableRecord
100
AcDbBlockTableRecord
  2
Blk28
 70
    0
280
    1
281
    0
  0
BLOCK_RECORD
  5
A3
330
1
100
AcDbSymbolTableRecord
100
AcDbBlockTableRecord
  2
Blk29
 70
    0
280
    1
281
    0
  0
BLOCK_RECORD
  5
A6
330
1
100
AcDbSymbolTableRecord
100
AcDbBlockTableRecord
  2
Blk30
 70
    0
280
    1
281
    0
  0
BLOCK_RECORD
  5
A9
330
1
100
AcDbSymbolTableRecord
100
AcDbBlockTableRecord
  2
Blk31
 70
    0
280
    1
281
    0
  0
BLOCK_RECORD
  5
AC
330
1
100
AcDbSymbolTableRecord
100
AcDbBlockTableRecord
  2
Blk32
 70
    0
280
    1
281
    0
  0
BLOCK_RECORD
  5
AF
330
1
100
AcDbSymbolTableRecord
100
AcDbBlockTableRecord
  2
Blk33
 70
    0
280
    1
281
    0
  0
BLOCK_RECORD
  5
B2
330
1
100
AcDbSymbolTableRecord
100
AcDbBlockTableRecord
  2
Blk34
 70
    0
280
    1
281
    0
  0
BLOCK_RECORD
  5
B5
330
1
100
AcDbSymbolTableRecord
100
AcDbBlockTableRecord
  2
Blk35
 70
    0
280
    1
281
    0
  0
BLOCK_RECORD
  5
B8
330
1
100
AcDbSymbolTableRecord
100
AcDbBlockTableRecord
  2
Blk36
 70
    0
280
    1
281
    0
  0
BLOCK_RECORD
  5
BB
330
1
100
AcDbSymbolTableRecord
100
AcDbBlockTableRecord
  2
Blk37
 70
    0
280
    1
281
    0
  0
BLOCK_RECORD
  5
BE
330
1
100
AcDbSymbolTableRecord
100
AcDbBlockTableRecord
  2
RJ45Jack
 70
    0
280
    1
281
    0
  0
ENDTAB
  0
ENDSEC
  0
SECTION
  2
BLOCKS
  0
BLOCK
  5
20
330
1F
100
AcDbEntity
  8
0
100
AcDbBlockBegin
  2
*Model_Space
 70
    0
 10
0
 20
0
 30
0
  3
*Model_Space
  1

  0
ENDBLK
  5
21
330
1F
100
AcDbEntity
  8
0
100
AcDbBlockEnd
  0
BLOCK
  5
1C
330
1B
100
AcDbEntity
  8
0
100
AcDbBlockBegin
  2
*Paper_Space
 70
    0
 10
0
 20
0
 30
0
  3
*Paper_Space
  1

  0
ENDBLK
  5
1D
330
1F
100
AcDbEntity
  8
0
100
AcDbBlockEnd
  0
BLOCK
  5
50
330
4F
100
AcDbEntity
  8
0
100
AcDbBlockBegin
  2
Blk1
 70
    0
 10
0
 20
0
  3
Blk1
  1

  0
LINE
  5
C1
100
AcDbEntity
  8
0
  6
CONTINUOUS
 62
  256
370
   50
100
AcDbLine
 10
10
 20
10
 11
10
 21
275
  0
LINE
  5
C2
100
AcDbEntity
  8
0
  6
CONTINUOUS
 62
  256
370
   50
100
AcDbLine
 10
10
 20
275
 11
410
 21
275
  0
LINE
  5
C3
100
AcDbEntity
  8
0
  6
CONTINUOUS
 62
  256
370
   50
100
AcDbLine
 10
410
 20
275
 11
410
 21
10
  0
LINE
  5
C4
100
AcDbEntity
  8
0
  6
CONTINUOUS
 62
  256
370
   25
100
AcDbLine
 10
50
 20
270
 11
50
 21
275
  0
TEXT
  5
C5
100
AcDbEntity
  8
0
  6
ByLayer
 62
  256
370
   25
100
AcDbText
 10
30
 20
271.2000122070312
 30
0
 40
2.449981689453125
  1
0
 50
0
 41
0.9
 51
0
  7
Caddy_Vectorfont1p
 71
    0
 72
    1
 11
30
 21
271.2000122070312
 31
0
210
0
220
0
230
1
100
AcDbText
  0
LINE
  5
C6
100
AcDbEntity
  8
0
  6
CONTINUOUS
 62
  256
370
   25
100
AcDbLine
 10
90
 20
270
 11
90
 21
275
  0
LINE
  5
C7
100
AcDbEntity
  8
0
  6
CONTINUOUS
 62
  256
370
   25
100
AcDbLine
 10
130
 20
270
 11
130
 21
275
  0
LINE
  5
C8
100
AcDbEntity
  8
0
  6
CONTINUOUS
 62
  256
370
   25
100
AcDbLine
 10
170
 20
270
 11
170
 21
275
  0
LINE
  5
C9
100
AcDbEntity
  8
0
  6
CONTINUOUS
 62
  256
370
   25
100
AcDbLine
 10
210
 20
270
 11
210
 21
275
  0
LINE
  5
CA
100
AcDbEntity
  8
0
  6
CONTINUOUS
 62
  256
370
   25
100
AcDbLine
 10
250
 20
270
 11
250
 21
275
  0
LINE
  5
CB
100
AcDbEntity
  8
0
  6
CONTINUOUS
 62
  256
370
   25
100
AcDbLine
 10
290
 20
270
 11
290
 21
275
  0
LINE
  5
CC
100
AcDbEntity
  8
0
  6
CONTINUOUS
 62
  256
370
   25
100
AcDbLine
 10
330
 20
270
 11
330
 21
275
  0
LINE
  5
CD
100
AcDbEntity
  8
0
  6
CONTINUOUS
 62
  256
370
   25
100
AcDbLine
 10
370
 20
270
 11
370
 21
275
  0
TEXT
  5
CE
100
AcDbEntity
  8
0
  6
ByLayer
 62
  256
370
   25
100
AcDbText
 10
69.99999237060547
 20
271.2000122070312
 30
0
 40
2.449981689453125
  1
1
 50
0
 41
0.9
 51
0
  7
Caddy_Vectorfont1p
 71
    0
 72
    1
 11
69.99999237060547
 21
271.2000122070312
 31
0
210
0
220
0
230
1
100
AcDbText
  0
TEXT
  5
CF
100
AcDbEntity
  8
0
  6
ByLayer
 62
  256
370
   25
100
AcDbText
 10
110
 20
271.2000122070312
 30
0
 40
2.449981689453125
  1
2
 50
0
 41
0.9
 51
0
  7
Caddy_Vectorfont1p
 71
    0
 72
    1
 11
110
 21
271.2000122070312
 31
0
210
0
220
0
230
1
100
AcDbText
  0
TEXT
  5
D0
100
AcDbEntity
  8
0
  6
ByLayer
 62
  256
370
   25
100
AcDbText
 10
150
 20
271.2000122070312
 30
0
 40
2.449981689453125
  1
3
 50
0
 41
0.9
 51
0
  7
Caddy_Vectorfont1p
 71
    0
 72
    1
 11
150
 21
271.2000122070312
 31
0
210
0
220
0
230
1
100
AcDbText
  0
TEXT
  5
D1
100
AcDbEntity
  8
0
  6
ByLayer
 62
  256
370
   25
100
AcDbText
 10
190
 20
271.2000122070312
 30
0
 40
2.449981689453125
  1
4
 50
0
 41
0.9
 51
0
  7
Caddy_Vectorfont1p
 71
    0
 72
    1
 11
190
 21
271.2000122070312
 31
0
210
0
220
0
230
1
100
AcDbText
  0
TEXT
  5
D2
100
AcDbEntity
  8
0
  6
ByLayer
 62
  256
370
   25
100
AcDbText
 10
230
 20
271.2000122070312
 30
0
 40
2.449981689453125
  1
5
 50
0
 41
0.9
 51
0
  7
Caddy_Vectorfont1p
 71
    0
 72
    1
 11
230
 21
271.2000122070312
 31
0
210
0
220
0
230
1
100
AcDbText
  0
TEXT
  5
D3
100
AcDbEntity
  8
0
  6
ByLayer
 62
  256
370
   25
100
AcDbText
 10
270
 20
271.2000122070312
 30
0
 40
2.449981689453125
  1
6
 50
0
 41
0.9
 51
0
  7
Caddy_Vectorfont1p
 71
    0
 72
    1
 11
270
 21
271.2000122070312
 31
0
210
0
220
0
230
1
100
AcDbText
  0
TEXT
  5
D4
100
AcDbEntity
  8
0
  6
ByLayer
 62
  256
370
   25
100
AcDbText
 10
310
 20
271.2000122070312
 30
0
 40
2.449981689453125
  1
7
 50
0
 41
0.9
 51
0
  7
Caddy_Vectorfont1p
 71
    0
 72
    1
 11
310
 21
271.2000122070312
 31
0
210
0
220
0
230
1
100
AcDbText
  0
TEXT
  5
D5
100
AcDbEntity
  8
0
  6
ByLayer
 62
  256
370
   25
100
AcDbText
 10
350
 20
271.2000122070312
 30
0
 40
2.449981689453125
  1
8
 50
0
 41
0.9
 51
0
  7
Caddy_Vectorfont1p
 71
    0
 72
    1
 11
350
 21
271.2000122070312
 31
0
210
0
220
0
230
1
100
AcDbText
  0
TEXT
  5
D6
100
AcDbEntity
  8
0
  6
ByLayer
 62
  256
370
   25
100
AcDbText
 10
390
 20
271.2000122070312
 30
0
 40
2.449981689453125
  1
9
 50
0
 41
0.9
 51
0
  7
Caddy_Vectorfont1p
 71
    0
 72
    1
 11
390
 21
271.2000122070312
 31
0
210
0
220
0
230
1
100
AcDbText
  0
LINE
  5
D7
100
AcDbEntity
  8
0
  6
CONTINUOUS
 62
  256
370
   25
100
AcDbLine
 10
15
 20
270
 11
15
 21
30
  0
LINE
  5
D8
100
AcDbEntity
  8
0
  6
CONTINUOUS
 62
  256
370
   25
100
AcDbLine
 10
405
 20
270
 11
405
 21
30
  0
LINE
  5
D9
100
AcDbEntity
  8
0
  6
CONTINUOUS
 62
  256
370
   25
100
AcDbLine
 10
15
 20
230
 11
10
 21
230
  0
LINE
  5
DA
100
AcDbEntity
  8
0
  6
CONTINUOUS
 62
  256
370
   25
100
AcDbLine
 10
15
 20
190
 11
10
 21
190
  0
LINE
  5
DB
100
AcDbEntity
  8
0
  6
CONTINUOUS
 62
  256
370
   25
100
AcDbLine
 10
15
 20
150
 11
10
 21
150
  0
LINE
  5
DC
100
AcDbEntity
  8
0
  6
CONTINUOUS
 62
  256
370
   25
100
AcDbLine
 10
10
 20
110
 11
15
 21
110
  0
LINE
  5
DD
100
AcDbEntity
  8
0
  6
CONTINUOUS
 62
  256
370
   25
100
AcDbLine
 10
10
 20
70
 11
15
 21
70
  0
TEXT
  5
DE
100
AcDbEntity
  8
0
  6
ByLayer
 62
  256
370
   25
100
AcDbText
 10
12.5
 20
248.6999969482422
 30
0
 40
2.449996948242188
  1
A
 50
0
 41
0.9
 51
0
  7
Caddy_Vectorfont1p
 71
    0
 72
    1
 11
12.5
 21
248.6999969482422
 31
0
210
0
220
0
230
1
100
AcDbText
  0
TEXT
  5
DF
100
AcDbEntity
  8
0
  6
ByLayer
 62
  256
370
   25
100
AcDbText
 10
12.5
 20
208.6999969482422
 30
0
 40
2.449996948242188
  1
B
 50
0
 41
0.9
 51
0
  7
Caddy_Vectorfont1p
 71
    0
 72
    1
 11
12.5
 21
208.6999969482422
 31
0
210
0
220
0
230
1
100
AcDbText
  0
TEXT
  5
E0
100
AcDbEntity
  8
0
  6
ByLayer
 62
  256
370
   25
100
AcDbText
 10
12.5
 20
168.6999969482422
 30
0
 40
2.449996948242188
  1
C
 50
0
 41
0.9
 51
0
  7
Caddy_Vectorfont1p
 71
    0
 72
    1
 11
12.5
 21
168.6999969482422
 31
0
210
0
220
0
230
1
100
AcDbText
  0
TEXT
  5
E1
100
AcDbEntity
  8
0
  6
ByLayer
 62
  256
370
   25
100
AcDbText
 10
12.5
 20
128.6999969482422
 30
0
 40
2.449996948242188
  1
D
 50
0
 41
0.9
 51
0
  7
Caddy_Vectorfont1p
 71
    0
 72
    1
 11
12.5
 21
128.6999969482422
 31
0
210
0
220
0
230
1
100
AcDbText
  0
TEXT
  5
E2
100
AcDbEntity
  8
0
  6
ByLayer
 62
  256
370
   25
100
AcDbText
 10
12.5
 20
88.69999694824219
 30
0
 40
2.450004577636719
  1
E
 50
0
 41
0.9
 51
0
  7
Caddy_Vectorfont1p
 71
    0
 72
    1
 11
12.5
 21
88.69999694824219
 31
0
210
0
220
0
230
1
100
AcDbText
  0
TEXT
  5
E3
100
AcDbEntity
  8
0
  6
ByLayer
 62
  256
370
   25
100
AcDbText
 10
12.5
 20
48.70000076293945
 30
0
 40
2.450000762939453
  1
F
 50
0
 41
0.9
 51
0
  7
Caddy_Vectorfont1p
 71
    0
 72
    1
 11
12.5
 21
48.70000076293945
 31
0
210
0
220
0
230
1
100
AcDbText
  0
LINE
  5
E4
100
AcDbEntity
  8
0
  6
CONTINUOUS
 62
  256
370
   25
100
AcDbLine
 10
410
 20
230
 11
405
 21
230
  0
LINE
  5
E5
100
AcDbEntity
  8
0
  6
CONTINUOUS
 62
  256
370
   25
100
AcDbLine
 10
410
 20
190
 11
405
 21
190
  0
LINE
  5
E6
100
AcDbEntity
  8
0
  6
CONTINUOUS
 62
  256
370
   25
100
AcDbLine
 10
410
 20
150
 11
405
 21
150
  0
LINE
  5
E7
100
AcDbEntity
  8
0
  6
CONTINUOUS
 62
  256
370
   25
100
AcDbLine
 10
405
 20
110
 11
410
 21
110
  0
LINE
  5
E8
100
AcDbEntity
  8
0
  6
CONTINUOUS
 62
  256
370
   25
100
AcDbLine
 10
405
 20
70
 11
410
 21
70
  0
TEXT
  5
E9
100
AcDbEntity
  8
0
  6
ByLayer
 62
  256
370
   25
100
AcDbText
 10
407.5
 20
248.6999969482422
 30
0
 40
2.449996948242188
  1
A
 50
0
 41
0.9
 51
0
  7
Caddy_Vectorfont1p
 71
    0
 72
    1
 11
407.5
 21
248.6999969482422
 31
0
210
0
220
0
230
1
100
AcDbText
  0
TEXT
  5
EA
100
AcDbEntity
  8
0
  6
ByLayer
 62
  256
370
   25
100
AcDbText
 10
407.5
 20
208.6999969482422
 30
0
 40
2.449996948242188
  1
B
 50
0
 41
0.9
 51
0
  7
Caddy_Vectorfont1p
 71
    0
 72
    1
 11
407.5
 21
208.6999969482422
 31
0
210
0
220
0
230
1
100
AcDbText
  0
TEXT
  5
EB
100
AcDbEntity
  8
0
  6
ByLayer
 62
  256
370
   25
100
AcDbText
 10
407.5
 20
168.6999969482422
 30
0
 40
2.449996948242188
  1
C
 50
0
 41
0.9
 51
0
  7
Caddy_Vectorfont1p
 71
    0
 72
    1
 11
407.5
 21
168.6999969482422
 31
0
210
0
220
0
230
1
100
AcDbText
  0
TEXT
  5
EC
100
AcDbEntity
  8
0
  6
ByLayer
 62
  256
370
   25
100
AcDbText
 10
407.5
 20
128.6999969482422
 30
0
 40
2.449996948242188
  1
D
 50
0
 41
0.9
 51
0
  7
Caddy_Vectorfont1p
 71
    0
 72
    1
 11
407.5
 21
128.6999969482422
 31
0
210
0
220
0
230
1
100
AcDbText
  0
TEXT
  5
ED
100
AcDbEntity
  8
0
  6
ByLayer
 62
  256
370
   25
100
AcDbText
 10
407.5
 20
88.69999694824219
 30
0
 40
2.450004577636719
  1
E
 50
0
 41
0.9
 51
0
  7
Caddy_Vectorfont1p
 71
    0
 72
    1
 11
407.5
 21
88.69999694824219
 31
0
210
0
220
0
230
1
100
AcDbText
  0
TEXT
  5
EE
100
AcDbEntity
  8
0
  6
ByLayer
 62
  256
370
   25
100
AcDbText
 10
407.5
 20
48.70000076293945
 30
0
 40
2.450000762939453
  1
F
 50
0
 41
0.9
 51
0
  7
Caddy_Vectorfont1p
 71
    0
 72
    1
 11
407.5
 21
48.70000076293945
 31
0
210
0
220
0
230
1
100
AcDbText
  0
LINE
  5
EF
100
AcDbEntity
  8
0
  6
CONTINUOUS
 62
  256
370
   25
100
AcDbLine
 10
15
 20
270
 11
405
 21
270
  0
LINE
  5
F0
100
AcDbEntity
  8
0
  6
CONTINUOUS
 62
  256
370
   50
100
AcDbLine
 10
410
 20
10
 11
10
 21
10
  0
LINE
  5
F1
100
AcDbEntity
  8
0
  6
CONTINUOUS
 62
  256
370
   50
100
AcDbLine
 10
10
 20
30
 11
410
 21
30
  0
LINE
  5
F2
100
AcDbEntity
  8
0
  6
CONTINUOUS
 62
  256
370
   25
100
AcDbLine
 10
260
 20
20
 11
410
 21
20
  0
LINE
  5
F3
100
AcDbEntity
  8
0
  6
CONTINUOUS
 62
  256
370
   25
100
AcDbLine
 10
10
 20
30
 11
15
 21
30
  0
LINE
  5
F4
100
AcDbEntity
  8
0
  6
CONTINUOUS
 62
  256
370
   25
100
AcDbLine
 10
405
 20
30
 11
410
 21
30
  0
LINE
  5
F5
100
AcDbEntity
  8
0
  6
CONTINUOUS
 62
  256
370
   50
100
AcDbLine
 10
65
 20
30
 11
65
 21
10
  0
TEXT
  5
F6
100
AcDbEntity
  8
0
  6
ByLayer
 62
  256
370
   25
100
AcDbText
 10
69.19999694824219
 20
14.19999980926514
 30
0
 40
2.449999809265137
  1
Kassepakker
 50
0
 41
0.9
 51
0
  7
Caddy_Vectorfont1p
 71
    0
210
0
220
0
230
1
100
AcDbText
  0
TEXT
  5
F7
100
AcDbEntity
  8
0
  6
ByLayer
 62
  256
370
   25
100
AcDbText
 10
69.19999694824219
 20
23.20000076293945
 30
0
 40
2.44999885559082
  1
MPN - GUIDED BY VISION
 50
0
 41
0.9
 51
0
  7
Caddy_Vectorfont1p
 71
    0
210
0
220
0
230
1
100
AcDbText
  0
TEXT
  5
F8
100
AcDbEntity
  8
0
  6
ByLayer
 62
  256
370
   25
100
AcDbText
 10
69.19999694824219
 20
18.70000076293945
 30
0
 40
2.44999885559082
  1
Søris
 50
0
 41
0.9
 51
0
  7
Caddy_Vectorfont1p
 71
    0
210
0
220
0
230
1
100
AcDbText
  0
LINE
  5
F9
100
AcDbEntity
  8
0
  6
CONTINUOUS
 62
  256
370
   50
100
AcDbLine
 10
160
 20
30
 11
160
 21
10
  0
LINE
  5
FA
100
AcDbEntity
  8
0
  6
CONTINUOUS
 62
  256
370
   50
100
AcDbLine
 10
260
 20
30
 11
260
 21
10
  0
TEXT
  5
FB
100
AcDbEntity
  8
0
  6
ByLayer
 62
  256
370
   25
100
AcDbText
 10
261.2000122070312
 20
26.20000076293945
 30
0
 40
2.44999885559082
  1
Projekt:
 50
0
 41
0.9
 51
0
  7
Caddy_Vectorfont1p
 71
    0
210
0
220
0
230
1
100
AcDbText
  0
TEXT
  5
FC
100
AcDbEntity
  8
0
  6
ByLayer
 62
  256
370
   25
100
AcDbText
 10
261.2000122070312
 20
16.20000076293945
 30
0
 40
2.44999885559082
  1
Dato:
 50
0
 41
0.9
 51
0
  7
Caddy_Vectorfont1p
 71
    0
210
0
220
0
230
1
100
AcDbText
  0
LINE
  5
FD
100
AcDbEntity
  8
0
  6
CONTINUOUS
 62
  256
370
   25
100
AcDbLine
 10
290
 20
30
 11
290
 21
10
  0
TEXT
  5
FE
100
AcDbEntity
  8
0
  6
ByLayer
 62
  256
370
   25
100
AcDbText
 10
291.2000122070312
 20
16.20000076293945
 30
0
 40
2.44999885559082
  1
Funkt.:
 50
0
 41
0.9
 51
0
  7
Caddy_Vectorfont1p
 71
    0
210
0
220
0
230
1
100
AcDbText
  0
TEXT
  5
FF
100
AcDbEntity
  8
0
  6
ByLayer
 62
  256
370
   25
100
AcDbText
 10
291.2000122070312
 20
26.20000076293945
 30
0
 40
2.44999885559082
  1
Tegn. nr.:
 50
0
 41
0.9
 51
0
  7
Caddy_Vectorfont1p
 71
    0
210
0
220
0
230
1
100
AcDbText
  0
LINE
  5
100
100
AcDbEntity
  8
0
  6
CONTINUOUS
 62
  256
370
   25
100
AcDbLine
 10
320
 20
20
 11
320
 21
10
  0
TEXT
  5
101
100
AcDbEntity
  8
0
  6
ByLayer
 62
  256
370
   25
100
AcDbText
 10
321.2000122070312
 20
16.20000076293945
 30
0
 40
2.44999885559082
  1
Plac.:
 50
0
 41
0.9
 51
0
  7
Caddy_Vectorfont1p
 71
    0
210
0
220
0
230
1
100
AcDbText
  0
TEXT
  5
102
100
AcDbEntity
  8
0
  6
ByLayer
 62
  256
370
   25
100
AcDbText
 10
316.2999877929688
 20
11.69999980926514
 30
0
 40
2.449999809265137
  1
=
 50
0
 41
0.9
 51
0
  7
Caddy_Vectorfont1p
 71
    0
 72
    2
 11
316.2999877929688
 21
11.69999980926514
 31
0
210
0
220
0
230
1
100
AcDbText
  0
LINE
  5
103
100
AcDbEntity
  8
0
  6
CONTINUOUS
 62
  256
370
   25
100
AcDbLine
 10
382.5
 20
20
 11
382.5
 21
30
  0
LINE
  5
104
100
AcDbEntity
  8
0
  6
CONTINUOUS
 62
  256
370
   25
100
AcDbLine
 10
382.5
 20
10
 11
382.5
 21
20
  0
TEXT
  5
105
100
AcDbEntity
  8
0
  6
ByLayer
 62
  256
370
   25
100
AcDbText
 10
351.3000183105469
 20
11.69999980926514
 30
0
 40
2.449999809265137
  1
+
 50
0
 41
0.9
 51
0
  7
Caddy_Vectorfont1p
 71
    0
 72
    2
 11
351.3000183105469
 21
11.69999980926514
 31
0
210
0
220
0
230
1
100
AcDbText
  0
LINE
  5
106
100
AcDbEntity
  8
0
  6
CONTINUOUS
 62
  256
370
   25
100
AcDbLine
 10
355
 20
10
 11
355
 21
20
  0
LINE
  5
107
100
AcDbEntity
  8
0
  6
CONTINUOUS
 62
  256
370
   25
100
AcDbLine
 10
355
 20
20
 11
355
 21
30
  0
TEXT
  5
108
100
AcDbEntity
  8
0
  6
ByLayer
 62
  256
370
   25
100
AcDbText
 10
356.2000122070312
 20
26.20000076293945
 30
0
 40
2.44999885559082
  1
Rev.:
 50
0
 41
0.9
 51
0
  7
Caddy_Vectorfont1p
 71
    0
210
0
220
0
230
1
100
AcDbText
  0
LINE
  5
109
100
AcDbEntity
  8
0
  6
CONTINUOUS
 62
  256
370
   25
100
AcDbLine
 10
337.5
 20
20
 11
337.5
 21
30
  0
TEXT
  5
10A
100
AcDbEntity
  8
0
  6
ByLayer
 62
  256
370
   25
100
AcDbText
 10
338.7000122070312
 20
26.20000076293945
 30
0
 40
2.44999885559082
  1
Init.:
 50
0
 41
0.9
 51
0
  7
Caddy_Vectorfont1p
 71
    0
210
0
220
0
230
1
100
AcDbText
  0
TEXT
  5
10B
100
AcDbEntity
  8
0
  6
ByLayer
 62
  256
370
   35
100
AcDbText
 10
403.25
 20
21.75
 30
0
 40
3.5
  1
38
 50
0
 41
0.9
 51
0
  7
Caddy_Vectorfont1p
 71
    0
 72
    2
 11
403.25
 21
21.75
 31
0
210
0
220
0
230
1
100
AcDbText
  0
TEXT
  5
10C
100
AcDbEntity
  8
0
  6
ByLayer
 62
  256
370
   25
100
AcDbText
 10
383.7000122070312
 20
26.20000076293945
 30
0
 40
2.44999885559082
  1
Blad:
 50
0
 41
0.9
 51
0
  7
Caddy_Vectorfont1p
 71
    0
210
0
220
0
230
1
100
AcDbText
  0
TEXT
  5
10D
100
AcDbEntity
  8
0
  6
ByLayer
 62
  256
370
   25
100
AcDbText
 10
383.7000122070312
 20
16.20000076293945
 30
0
 40
2.44999885559082
  1
Næste blad:
 50
0
 41
0.9
 51
0
  7
Caddy_Vectorfont1p
 71
    0
210
0
220
0
230
1
100
AcDbText
  0
TEXT
  5
10E
100
AcDbEntity
  8
0
  6
ByLayer
 62
  256
370
   25
100
AcDbText
 10
356.2000122070312
 20
16.20000076293945
 30
0
 40
2.44999885559082
  1
Antal blade:
 50
0
 41
0.9
 51
0
  7
Caddy_Vectorfont1p
 71
    0
210
0
220
0
230
1
100
AcDbText
  0
TEXT
  5
10F
100
AcDbEntity
  8
0
  6
ByLayer
 62
  256
370
   25
100
AcDbText
 10
378.8000183105469
 20
11.69999980926514
 30
0
 40
2.449999809265137
  1
31
 50
0
 41
0.9
 51
0
  7
Caddy_Vectorfont1p
 71
    0
 72
    2
 11
378.8000183105469
 21
11.69999980926514
 31
0
210
0
220
0
230
1
100
AcDbText
  0
IMAGE
  5
112
100
AcDbEntity
  8
0
  6
ByLayer
 62
  256
370
   -1
100
AcDbRasterImage
 10
12
 20
15
 30
0
 11
0.04549509366636931
 21
0
 31
0
 12
0
 22
0.04843339589486619
 32
0
 13
1121
 23
234
340
110
 70
    1
280
    0
281
   50
282
   50
283
    0
360
111
  0
TEXT
  5
113
100
AcDbEntity
  8
0
  6
ByLayer
 62
  256
370
   25
100
AcDbText
 10
286.2999877929688
 20
21.70000076293945
 30
0
 40
2.45
  1
CP-servo
 50
0
 41
0.9
 51
0
  7
standard
 71
    0
 72
    2
 11
286.2999877929688
 21
21.70000076293945
 31
0
210
0
220
0
230
1
100
AcDbText
  0
TEXT
  5
114
100
AcDbEntity
  8
0
  6
ByLayer
 62
  256
370
   25
100
AcDbText
 10
286.2999572753906
 20
11.69999980926514
 30
0
 40
2.45
  1
2025
 50
0
 41
0.9
 51
0
  7
standard
 71
    0
 72
    2
 11
286.2999572753906
 21
11.69999980926514
 31
0
210
0
220
0
230
1
100
AcDbText
  0
TEXT
  5
115
100
AcDbEntity
  8
0
  6
ByLayer
 62
  256
370
   25
100
AcDbText
 10
164.1999969482422
 20
23.20000076293945
 30
0
 40
2.45
  1
Bufferplads - Frekvensomformer
 50
0
 41
0.9
 51
0
  7
standard
 71
    0
210
0
220
0
230
1
100
AcDbText
  0
ENDBLK
  5
51
330
4F
100
AcDbEntity
  8
0
100
AcDbBlockEnd
  0
BLOCK
  5
53
330
52
100
AcDbEntity
  8
0
100
AcDbBlockBegin
  2
Blk2
 70
    0
 10
0
 20
0
  3
Blk2
  1

  0
LINE
  5
116
100
AcDbEntity
  8
0
  6
CONTINUOUS
 62
  256
370
   25
100
AcDbLine
 10
27.5
 20
260
 11
25.25
 21
261.25
  0
LINE
  5
117
100
AcDbEntity
  8
0
  6
CONTINUOUS
 62
  256
370
   25
100
AcDbLine
 10
27.5
 20
260
 11
25.25
 21
258.75
  0
ENDBLK
  5
54
330
52
100
AcDbEntity
  8
0
100
AcDbBlockEnd
  0
BLOCK
  5
56
330
55
100
AcDbEntity
  8
0
100
AcDbBlockBegin
  2
Blk3
 70
    0
 10
0
 20
0
  3
Blk3
  1

  0
LINE
  5
118
100
AcDbEntity
  8
0
  6
CONTINUOUS
 62
  256
370
   25
100
AcDbLine
 10
392.5
 20
260
 11
390.25
 21
261.25
  0
LINE
  5
119
100
AcDbEntity
  8
0
  6
CONTINUOUS
 62
  256
370
   25
100
AcDbLine
 10
392.5
 20
260
 11
390.25
 21
258.75
  0
ENDBLK
  5
57
330
55
100
AcDbEntity
  8
0
100
AcDbBlockEnd
  0
BLOCK
  5
59
330
58
100
AcDbEntity
  8
0
100
AcDbBlockBegin
  2
Blk4
 70
    0
 10
0
 20
0
  3
Blk4
  1

  0
LINE
  5
11A
100
AcDbEntity
  8
0
  6
CONTINUOUS
 62
  256
370
   25
100
AcDbLine
 10
150
 20
192.5
 11
150
 21
195
  0
LINE
  5
11B
100
AcDbEntity
  8
0
  6
CONTINUOUS
 62
  256
370
   25
100
AcDbLine
 10
150
 20
187.5
 11
150
 21
185
  0
LINE
  5
11C
100
AcDbEntity
  8
0
  6
CONTINUOUS
 62
  256
370
   25
100
AcDbLine
 10
150
 20
187.5
 11
146.5849304199219
 21
193.4150695800781
  0
ENDBLK
  5
5A
330
58
100
AcDbEntity
  8
0
100
AcDbBlockEnd
  0
BLOCK
  5
5C
330
5B
100
AcDbEntity
  8
0
100
AcDbBlockBegin
  2
Blk5
 70
    0
 10
0
 20
0
  3
Blk5
  1

  0
LINE
  5
11D
100
AcDbEntity
  8
0
  6
CONTINUOUS
 62
  256
370
   25
100
AcDbLine
 10
275
 20
87.5
 11
275
 21
92.5
  0
LINE
  5
11E
100
AcDbEntity
  8
0
  6
CONTINUOUS
 62
  256
370
   25
100
AcDbLine
 10
275
 20
92.5
 11
265
 21
92.5
  0
LINE
  5
11F
100
AcDbEntity
  8
0
  6
CONTINUOUS
 62
  256
370
   25
100
AcDbLine
 10
265
 20
92.5
 11
265
 21
87.5
  0
LINE
  5
120
100
AcDbEntity
  8
0
  6
CONTINUOUS
 62
  256
370
   25
100
AcDbLine
 10
265
 20
87.5
 11
275
 21
87.5
  0
LINE
  5
121
100
AcDbEntity
  8
0
  6
CONTINUOUS
 62
  256
370
   25
100
AcDbLine
 10
270
 20
92.5
 11
270
 21
95
  0
LINE
  5
122
100
AcDbEntity
  8
0
  6
CONTINUOUS
 62
  256
370
   25
100
AcDbLine
 10
270
 20
87.5
 11
270
 21
85
  0
ENDBLK
  5
5D
330
5B
100
AcDbEntity
  8
0
100
AcDbBlockEnd
  0
BLOCK
  5
5F
330
5E
100
AcDbEntity
  8
0
100
AcDbBlockBegin
  2
Blk6
 70
    0
 10
0
 20
0
  3
Blk6
  1

  0
TEXT
  5
123
100
AcDbEntity
  8
0
  6
ByLayer
 62
  256
370
   25
100
AcDbText
 10
65.69999694824219
 20
230.6999969482422
 30
0
 40
2.449996948242188
  1
Digital
 50
0
 41
0.9
 51
0
  7
Caddy_Vectorfont1p
 71
    0
210
0
220
0
230
1
100
AcDbText
  0
TEXT
  5
124
100
AcDbEntity
  8
0
  6
ByLayer
 62
  256
370
   25
100
AcDbText
 10
65.69999694824219
 20
227.1999969482422
 30
0
 40
2.449996948242188
  1
Indgang
 50
0
 41
0.9
 51
0
  7
Caddy_Vectorfont1p
 71
    0
210
0
220
0
230
1
100
AcDbText
  0
INSERT
  5
125
100
AcDbEntity
  8
0
  6
ByLayer
 62
  256
370
   -1
100
AcDbBlockReference
  2
Blk7
 10
0
 20
0
 30
0
 41
1
 42
1
 43
0
 50
0
 70
    1
 71
    1
 44
0
 45
0
  0
LINE
  5
126
100
AcDbEntity
  8
0
  6
CONTINUOUS
 62
  256
370
   25
100
AcDbLine
 10
65
 20
235
 11
85
 21
235
  0
LINE
  5
127
100
AcDbEntity
  8
0
  6
CONTINUOUS
 62
  256
370
   25
100
AcDbLine
 10
65
 20
230
 11
85
 21
230
  0
LINE
  5
128
100
AcDbEntity
  8
0
  6
CONTINUOUS
 62
  256
370
   25
100
AcDbLine
 10
81
 20
228.5
 11
78.5
 21
226
  0
LINE
  5
129
100
AcDbEntity
  8
0
  6
CONTINUOUS
 62
  256
370
   25
100
AcDbLine
 10
78.5
 20
226
 11
83.5
 21
226
  0
LINE
  5
12A
100
AcDbEntity
  8
0
  6
CONTINUOUS
 62
  256
370
   25
100
AcDbLine
 10
83.5
 20
226
 11
81
 21
228.5
  0
LINE
  5
12B
100
AcDbEntity
  8
0
  6
CONTINUOUS
 62
  256
370
   25
100
AcDbLine
 10
77.5
 20
235
 11
77.5
 21
225
  0
INSERT
  5
12C
100
AcDbEntity
  8
0
  6
ByLayer
 62
  256
370
   -1
100
AcDbBlockReference
  2
Blk8
 10
0
 20
0
 30
0
 41
1
 42
1
 43
0
 50
0
 70
    1
 71
    1
 44
0
 45
0
  0
ENDBLK
  5
60
330
5E
100
AcDbEntity
  8
0
100
AcDbBlockEnd
  0
BLOCK
  5
62
330
61
100
AcDbEntity
  8
0
100
AcDbBlockBegin
  2
Blk7
 70
    0
 10
0
 20
0
  3
Blk7
  1

  0
LINE
  5
12D
100
AcDbEntity
  8
0
  6
CONTINUOUS
 62
  256
370
   25
100
AcDbLine
 10
65
 20
225
 11
85
 21
225
  0
LINE
  5
12E
100
AcDbEntity
  8
0
  6
CONTINUOUS
 62
  256
370
   25
100
AcDbLine
 10
85
 20
225
 11
85
 21
240
  0
LINE
  5
12F
100
AcDbEntity
  8
0
  6
CONTINUOUS
 62
  256
370
   25
100
AcDbLine
 10
85
 20
240
 11
65
 21
240
  0
LINE
  5
130
100
AcDbEntity
  8
0
  6
CONTINUOUS
 62
  256
370
   25
100
AcDbLine
 10
65
 20
240
 11
65
 21
225
  0
ENDBLK
  5
63
330
61
100
AcDbEntity
  8
0
100
AcDbBlockEnd
  0
BLOCK
  5
65
330
64
100
AcDbEntity
  8
0
100
AcDbBlockBegin
  2
Blk8
 70
    0
 10
0
 20
0
  3
Blk8
  1

  0
LINE
  5
131
100
AcDbEntity
  8
0
  6
CONTINUOUS
 62
  256
370
   25
100
AcDbLine
 10
70
 20
245
 11
70
 21
240
  0
ENDBLK
  5
66
330
64
100
AcDbEntity
  8
0
100
AcDbBlockEnd
  0
BLOCK
  5
68
330
67
100
AcDbEntity
  8
0
100
AcDbBlockBegin
  2
Blk9
 70
    0
 10
0
 20
0
  3
Blk9
  1

  0
INSERT
  5
132
100
AcDbEntity
  8
0
  6
ByLayer
 62
  256
370
   -1
100
AcDbBlockReference
  2
Blk10
 10
0
 20
0
 30
0
 41
1
 42
1
 43
0
 50
0
 70
    1
 71
    1
 44
0
 45
0
  0
LINE
  5
133
100
AcDbEntity
  8
0
  6
CONTINUOUS
 62
  256
370
   25
100
AcDbLine
 10
255
 20
230
 11
275
 21
230
  0
LINE
  5
134
100
AcDbEntity
  8
0
  6
CONTINUOUS
 62
  256
370
   25
100
AcDbLine
 10
255
 20
235
 11
275
 21
235
  0
LINE
  5
135
100
AcDbEntity
  8
0
  6
CONTINUOUS
 62
  256
370
   25
100
AcDbLine
 10
270
 20
225
 11
270
 21
220
  0
TEXT
  5
136
100
AcDbEntity
  8
0
  6
ByLayer
 62
  256
370
   25
100
AcDbText
 10
255.6999969482422
 20
235.6999969482422
 30
0
 40
2.449996948242188
  1
Digital
 50
0
 41
0.9
 51
0
  7
Caddy_Vectorfont1p
 71
    0
210
0
220
0
230
1
100
AcDbText
  0
TEXT
  5
137
100
AcDbEntity
  8
0
  6
ByLayer
 62
  256
370
   25
100
AcDbText
 10
255.6999969482422
 20
232.1999969482422
 30
0
 40
2.449996948242188
  1
Udgang
 50
0
 41
0.9
 51
0
  7
Caddy_Vectorfont1p
 71
    0
210
0
220
0
230
1
100
AcDbText
  0
LINE
  5
138
100
AcDbEntity
  8
0
  6
CONTINUOUS
 62
  256
370
   25
100
AcDbLine
 10
267.5
 20
240
 11
267.5
 21
230
  0
LINE
  5
139
100
AcDbEntity
  8
0
  6
CONTINUOUS
 62
  256
370
   25
100
AcDbLine
 10
271
 20
238.5
 11
268.5
 21
236
  0
LINE
  5
13A
100
AcDbEntity
  8
0
  6
CONTINUOUS
 62
  256
370
   25
100
AcDbLine
 10
268.5
 20
236
 11
273.5
 21
236
  0
LINE
  5
13B
100
AcDbEntity
  8
0
  6
CONTINUOUS
 62
  256
370
   25
100
AcDbLine
 10
273.5
 20
236
 11
271
 21
238.5
  0
ENDBLK
  5
69
330
67
100
AcDbEntity
  8
0
100
AcDbBlockEnd
  0
BLOCK
  5
6B
330
6A
100
AcDbEntity
  8
0
100
AcDbBlockBegin
  2
Blk10
 70
    0
 10
0
 20
0
  3
Blk10
  1

  0
LINE
  5
13C
100
AcDbEntity
  8
0
  6
CONTINUOUS
 62
  256
370
   25
100
AcDbLine
 10
255
 20
240
 11
275
 21
240
  0
LINE
  5
13D
100
AcDbEntity
  8
0
  6
CONTINUOUS
 62
  256
370
   25
100
AcDbLine
 10
275
 20
240
 11
275
 21
225
  0
LINE
  5
13E
100
AcDbEntity
  8
0
  6
CONTINUOUS
 62
  256
370
   25
100
AcDbLine
 10
275
 20
225
 11
255
 21
225
  0
LINE
  5
13F
100
AcDbEntity
  8
0
  6
CONTINUOUS
 62
  256
370
   25
100
AcDbLine
 10
255
 20
225
 11
255
 21
240
  0
ENDBLK
  5
6C
330
6A
100
AcDbEntity
  8
0
100
AcDbBlockEnd
  0
BLOCK
  5
6E
330
6D
100
AcDbEntity
  8
0
100
AcDbBlockBegin
  2
Blk11
 70
    0
 10
0
 20
0
  3
Blk11
  1

  0
CIRCLE
  5
140
100
AcDbEntity
  8
0
  6
CONTINUOUS
 62
  256
370
   25
100
AcDbCircle
 10
55
 20
117.5
 40
0.75
  0
LINE
  5
141
100
AcDbEntity
  8
0
  6
CONTINUOUS
 62
  256
370
   25
100
AcDbLine
 10
55
 20
118.25
 11
55
 21
120
  0
LINE
  5
142
100
AcDbEntity
  8
0
  6
CONTINUOUS
 62
  256
370
   25
100
AcDbLine
 10
55
 20
115
 11
55
 21
116.75
  0
ENDBLK
  5
6F
330
6D
100
AcDbEntity
  8
0
100
AcDbBlockEnd
  0
BLOCK
  5
71
330
70
100
AcDbEntity
  8
0
100
AcDbBlockBegin
  2
Blk12
 70
    0
 10
0
 20
0
  3
Blk12
  1

  0
CIRCLE
  5
143
100
AcDbEntity
  8
0
  6
CONTINUOUS
 62
  256
370
   25
100
AcDbCircle
 10
150
 20
117.5
 40
0.75
  0
LINE
  5
144
100
AcDbEntity
  8
0
  6
CONTINUOUS
 62
  256
370
   25
100
AcDbLine
 10
150
 20
118.25
 11
150
 21
120
  0
LINE
  5
145
100
AcDbEntity
  8
0
  6
CONTINUOUS
 62
  256
370
   25
100
AcDbLine
 10
150
 20
115
 11
150
 21
116.75
  0
ENDBLK
  5
72
330
70
100
AcDbEntity
  8
0
100
AcDbBlockEnd
  0
BLOCK
  5
74
330
73
100
AcDbEntity
  8
0
100
AcDbBlockBegin
  2
Blk13
 70
    0
 10
0
 20
0
  3
Blk13
  1

  0
CIRCLE
  5
146
100
AcDbEntity
  8
0
  6
CONTINUOUS
 62
  256
370
   25
100
AcDbCircle
 10
60
 20
117.5
 40
0.75
  0
LINE
  5
147
100
AcDbEntity
  8
0
  6
CONTINUOUS
 62
  256
370
   25
100
AcDbLine
 10
60
 20
118.25
 11
60
 21
120
  0
LINE
  5
148
100
AcDbEntity
  8
0
  6
CONTINUOUS
 62
  256
370
   25
100
AcDbLine
 10
60
 20
115
 11
60
 21
116.75
  0
ENDBLK
  5
75
330
73
100
AcDbEntity
  8
0
100
AcDbBlockEnd
  0
BLOCK
  5
77
330
76
100
AcDbEntity
  8
0
100
AcDbBlockBegin
  2
Blk14
 70
    0
 10
0
 20
0
  3
Blk14
  1

  0
CIRCLE
  5
149
100
AcDbEntity
  8
0
  6
CONTINUOUS
 62
  256
370
   25
100
AcDbCircle
 10
155
 20
117.5
 40
0.75
  0
LINE
  5
14A
100
AcDbEntity
  8
0
  6
CONTINUOUS
 62
  256
370
   25
100
AcDbLine
 10
155
 20
118.25
 11
155
 21
120
  0
LINE
  5
14B
100
AcDbEntity
  8
0
  6
CONTINUOUS
 62
  256
370
   25
100
AcDbLine
 10
155
 20
115
 11
155
 21
116.75
  0
ENDBLK
  5
78
330
76
100
AcDbEntity
  8
0
100
AcDbBlockEnd
  0
BLOCK
  5
7A
330
79
100
AcDbEntity
  8
0
100
AcDbBlockBegin
  2
Blk15
 70
    0
 10
0
 20
0
  3
Blk15
  1

  0
LINE
  5
14C
100
AcDbEntity
  8
0
  6
CONTINUOUS
 62
  256
370
   25
100
AcDbLine
 10
342.5
 20
70
 11
340.25
 21
71.25
  0
LINE
  5
14D
100
AcDbEntity
  8
0
  6
CONTINUOUS
 62
  256
370
   25
100
AcDbLine
 10
342.5
 20
70
 11
340.25
 21
68.75
  0
LINE
  5
14E
100
AcDbEntity
  8
0
  6
CONTINUOUS
 62
  256
370
   25
100
AcDbLine
 10
340
 20
70
 11
342.5
 21
70
  0
ENDBLK
  5
7B
330
79
100
AcDbEntity
  8
0
100
AcDbBlockEnd
  0
BLOCK
  5
7D
330
7C
100
AcDbEntity
  8
0
100
AcDbBlockBegin
  2
Blk16
 70
    0
 10
0
 20
0
  3
Blk16
  1

  0
LINE
  5
14F
100
AcDbEntity
  8
0
  6
CONTINUOUS
 62
  256
370
   25
100
AcDbLine
 10
252.5
 20
70
 11
254.75
 21
68.75
  0
LINE
  5
150
100
AcDbEntity
  8
0
  6
CONTINUOUS
 62
  256
370
   25
100
AcDbLine
 10
252.5
 20
70
 11
254.75
 21
71.25
  0
LINE
  5
151
100
AcDbEntity
  8
0
  6
CONTINUOUS
 62
  256
370
   25
100
AcDbLine
 10
255
 20
70
 11
252.5
 21
70
  0
ENDBLK
  5
7E
330
7C
100
AcDbEntity
  8
0
100
AcDbBlockEnd
  0
BLOCK
  5
80
330
7F
100
AcDbEntity
  8
0
100
AcDbBlockBegin
  2
Blk17
 70
    0
 10
0
 20
0
  3
Blk17
  1

  0
LINE
  5
152
100
AcDbEntity
  8
0
  6
CONTINUOUS
 62
  256
370
   25
100
AcDbLine
 10
315
 20
87.5
 11
315
 21
92.5
  0
LINE
  5
153
100
AcDbEntity
  8
0
  6
CONTINUOUS
 62
  256
370
   25
100
AcDbLine
 10
315
 20
92.5
 11
305
 21
92.5
  0
LINE
  5
154
100
AcDbEntity
  8
0
  6
CONTINUOUS
 62
  256
370
   25
100
AcDbLine
 10
305
 20
92.5
 11
305
 21
87.5
  0
LINE
  5
155
100
AcDbEntity
  8
0
  6
CONTINUOUS
 62
  256
370
   25
100
AcDbLine
 10
305
 20
87.5
 11
315
 21
87.5
  0
LINE
  5
156
100
AcDbEntity
  8
0
  6
CONTINUOUS
 62
  256
370
   25
100
AcDbLine
 10
310
 20
92.5
 11
310
 21
95
  0
LINE
  5
157
100
AcDbEntity
  8
0
  6
CONTINUOUS
 62
  256
370
   25
100
AcDbLine
 10
310
 20
87.5
 11
310
 21
85
  0
ENDBLK
  5
81
330
7F
100
AcDbEntity
  8
0
100
AcDbBlockEnd
  0
BLOCK
  5
83
330
82
100
AcDbEntity
  8
0
100
AcDbBlockBegin
  2
Blk18
 70
    0
 10
0
 20
0
  3
Blk18
  1

  0
INSERT
  5
158
100
AcDbEntity
  8
0
  6
ByLayer
 62
  256
370
   -1
100
AcDbBlockReference
  2
Blk19
 10
0
 20
0
 30
0
 41
1
 42
1
 43
0
 50
0
 70
    1
 71
    1
 44
0
 45
0
  0
LINE
  5
159
100
AcDbEntity
  8
0
  6
CONTINUOUS
 62
  256
370
   25
100
AcDbLine
 10
295
 20
230
 11
315
 21
230
  0
LINE
  5
15A
100
AcDbEntity
  8
0
  6
CONTINUOUS
 62
  256
370
   25
100
AcDbLine
 10
295
 20
235
 11
315
 21
235
  0
LINE
  5
15B
100
AcDbEntity
  8
0
  6
CONTINUOUS
 62
  256
370
   25
100
AcDbLine
 10
310
 20
225
 11
310
 21
220
  0
TEXT
  5
15C
100
AcDbEntity
  8
0
  6
ByLayer
 62
  256
370
   25
100
AcDbText
 10
295.7000122070312
 20
235.6999969482422
 30
0
 40
2.449996948242188
  1
Digital
 50
0
 41
0.9
 51
0
  7
Caddy_Vectorfont1p
 71
    0
210
0
220
0
230
1
100
AcDbText
  0
TEXT
  5
15D
100
AcDbEntity
  8
0
  6
ByLayer
 62
  256
370
   25
100
AcDbText
 10
295.7000122070312
 20
232.1999969482422
 30
0
 40
2.449996948242188
  1
Udgang
 50
0
 41
0.9
 51
0
  7
Caddy_Vectorfont1p
 71
    0
210
0
220
0
230
1
100
AcDbText
  0
LINE
  5
15E
100
AcDbEntity
  8
0
  6
CONTINUOUS
 62
  256
370
   25
100
AcDbLine
 10
307.5
 20
240
 11
307.5
 21
230
  0
LINE
  5
15F
100
AcDbEntity
  8
0
  6
CONTINUOUS
 62
  256
370
   25
100
AcDbLine
 10
311
 20
238.5
 11
308.5
 21
236
  0
LINE
  5
160
100
AcDbEntity
  8
0
  6
CONTINUOUS
 62
  256
370
   25
100
AcDbLine
 10
308.5
 20
236
 11
313.5
 21
236
  0
LINE
  5
161
100
AcDbEntity
  8
0
  6
CONTINUOUS
 62
  256
370
   25
100
AcDbLine
 10
313.5
 20
236
 11
311
 21
238.5
  0
ENDBLK
  5
84
330
82
100
AcDbEntity
  8
0
100
AcDbBlockEnd
  0
BLOCK
  5
86
330
85
100
AcDbEntity
  8
0
100
AcDbBlockBegin
  2
Blk19
 70
    0
 10
0
 20
0
  3
Blk19
  1

  0
LINE
  5
162
100
AcDbEntity
  8
0
  6
CONTINUOUS
 62
  256
370
   25
100
AcDbLine
 10
295
 20
240
 11
315
 21
240
  0
LINE
  5
163
100
AcDbEntity
  8
0
  6
CONTINUOUS
 62
  256
370
   25
100
AcDbLine
 10
315
 20
240
 11
315
 21
225
  0
LINE
  5
164
100
AcDbEntity
  8
0
  6
CONTINUOUS
 62
  256
370
   25
100
AcDbLine
 10
315
 20
225
 11
295
 21
225
  0
LINE
  5
165
100
AcDbEntity
  8
0
  6
CONTINUOUS
 62
  256
370
   25
100
AcDbLine
 10
295
 20
225
 11
295
 21
240
  0
ENDBLK
  5
87
330
85
100
AcDbEntity
  8
0
100
AcDbBlockEnd
  0
BLOCK
  5
89
330
88
100
AcDbEntity
  8
0
100
AcDbBlockBegin
  2
Blk20
 70
    0
 10
0
 20
0
  3
Blk20
  1

  0
TEXT
  5
166
100
AcDbEntity
  8
0
  6
ByLayer
 62
  256
370
   25
100
AcDbText
 10
105.6999969482422
 20
230.6999969482422
 30
0
 40
2.449996948242188
  1
Digital
 50
0
 41
0.9
 51
0
  7
Caddy_Vectorfont1p
 71
    0
210
0
220
0
230
1
100
AcDbText
  0
TEXT
  5
167
100
AcDbEntity
  8
0
  6
ByLayer
 62
  256
370
   25
100
AcDbText
 10
105.6999969482422
 20
227.1999969482422
 30
0
 40
2.449996948242188
  1
Indgang
 50
0
 41
0.9
 51
0
  7
Caddy_Vectorfont1p
 71
    0
210
0
220
0
230
1
100
AcDbText
  0
INSERT
  5
168
100
AcDbEntity
  8
0
  6
ByLayer
 62
  256
370
   -1
100
AcDbBlockReference
  2
Blk21
 10
0
 20
0
 30
0
 41
1
 42
1
 43
0
 50
0
 70
    1
 71
    1
 44
0
 45
0
  0
LINE
  5
169
100
AcDbEntity
  8
0
  6
CONTINUOUS
 62
  256
370
   25
100
AcDbLine
 10
105
 20
235
 11
125
 21
235
  0
LINE
  5
16A
100
AcDbEntity
  8
0
  6
CONTINUOUS
 62
  256
370
   25
100
AcDbLine
 10
105
 20
230
 11
125
 21
230
  0
LINE
  5
16B
100
AcDbEntity
  8
0
  6
CONTINUOUS
 62
  256
370
   25
100
AcDbLine
 10
121
 20
228.5
 11
118.5
 21
226
  0
LINE
  5
16C
100
AcDbEntity
  8
0
  6
CONTINUOUS
 62
  256
370
   25
100
AcDbLine
 10
118.5
 20
226
 11
123.5
 21
226
  0
LINE
  5
16D
100
AcDbEntity
  8
0
  6
CONTINUOUS
 62
  256
370
   25
100
AcDbLine
 10
123.5
 20
226
 11
121
 21
228.5
  0
LINE
  5
16E
100
AcDbEntity
  8
0
  6
CONTINUOUS
 62
  256
370
   25
100
AcDbLine
 10
117.5
 20
235
 11
117.5
 21
225
  0
INSERT
  5
16F
100
AcDbEntity
  8
0
  6
ByLayer
 62
  256
370
   -1
100
AcDbBlockReference
  2
Blk22
 10
0
 20
0
 30
0
 41
1
 42
1
 43
0
 50
0
 70
    1
 71
    1
 44
0
 45
0
  0
ENDBLK
  5
8A
330
88
100
AcDbEntity
  8
0
100
AcDbBlockEnd
  0
BLOCK
  5
8C
330
8B
100
AcDbEntity
  8
0
100
AcDbBlockBegin
  2
Blk21
 70
    0
 10
0
 20
0
  3
Blk21
  1

  0
LINE
  5
170
100
AcDbEntity
  8
0
  6
CONTINUOUS
 62
  256
370
   25
100
AcDbLine
 10
105
 20
225
 11
125
 21
225
  0
LINE
  5
171
100
AcDbEntity
  8
0
  6
CONTINUOUS
 62
  256
370
   25
100
AcDbLine
 10
125
 20
225
 11
125
 21
240
  0
LINE
  5
172
100
AcDbEntity
  8
0
  6
CONTINUOUS
 62
  256
370
   25
100
AcDbLine
 10
125
 20
240
 11
105
 21
240
  0
LINE
  5
173
100
AcDbEntity
  8
0
  6
CONTINUOUS
 62
  256
370
   25
100
AcDbLine
 10
105
 20
240
 11
105
 21
225
  0
ENDBLK
  5
8D
330
8B
100
AcDbEntity
  8
0
100
AcDbBlockEnd
  0
BLOCK
  5
8F
330
8E
100
AcDbEntity
  8
0
100
AcDbBlockBegin
  2
Blk22
 70
    0
 10
0
 20
0
  3
Blk22
  1

  0
LINE
  5
174
100
AcDbEntity
  8
0
  6
CONTINUOUS
 62
  256
370
   25
100
AcDbLine
 10
110
 20
245
 11
110
 21
240
  0
ENDBLK
  5
90
330
8E
100
AcDbEntity
  8
0
100
AcDbBlockEnd
  0
BLOCK
  5
92
330
91
100
AcDbEntity
  8
0
100
AcDbBlockBegin
  2
Blk23
 70
    0
 10
0
 20
0
  3
Blk23
  1

  0
CIRCLE
  5
175
100
AcDbEntity
  8
0
  6
CONTINUOUS
 62
  256
370
   25
100
AcDbCircle
 10
95
 20
117.5
 40
0.75
  0
LINE
  5
176
100
AcDbEntity
  8
0
  6
CONTINUOUS
 62
  256
370
   25
100
AcDbLine
 10
95
 20
118.25
 11
95
 21
120
  0
LINE
  5
177
100
AcDbEntity
  8
0
  6
CONTINUOUS
 62
  256
370
   25
100
AcDbLine
 10
95
 20
115
 11
95
 21
116.75
  0
ENDBLK
  5
93
330
91
100
AcDbEntity
  8
0
100
AcDbBlockEnd
  0
BLOCK
  5
95
330
94
100
AcDbEntity
  8
0
100
AcDbBlockBegin
  2
Blk24
 70
    0
 10
0
 20
0
  3
Blk24
  1

  0
CIRCLE
  5
178
100
AcDbEntity
  8
0
  6
CONTINUOUS
 62
  256
370
   25
100
AcDbCircle
 10
100
 20
117.5
 40
0.75
  0
LINE
  5
179
100
AcDbEntity
  8
0
  6
CONTINUOUS
 62
  256
370
   25
100
AcDbLine
 10
100
 20
118.25
 11
100
 21
120
  0
LINE
  5
17A
100
AcDbEntity
  8
0
  6
CONTINUOUS
 62
  256
370
   25
100
AcDbLine
 10
100
 20
115
 11
100
 21
116.75
  0
ENDBLK
  5
96
330
94
100
AcDbEntity
  8
0
100
AcDbBlockEnd
  0
BLOCK
  5
98
330
97
100
AcDbEntity
  8
0
100
AcDbBlockBegin
  2
Blk25
 70
    0
 10
0
 20
0
  3
Blk25
  1

  0
LINE
  5
17B
100
AcDbEntity
  8
0
  6
CONTINUOUS
 62
  256
370
   25
100
AcDbLine
 10
190
 20
192.5
 11
190
 21
195
  0
LINE
  5
17C
100
AcDbEntity
  8
0
  6
CONTINUOUS
 62
  256
370
   25
100
AcDbLine
 10
190
 20
187.5
 11
190
 21
185
  0
LINE
  5
17D
100
AcDbEntity
  8
0
  6
CONTINUOUS
 62
  256
370
   25
100
AcDbLine
 10
190
 20
187.5
 11
186.5849304199219
 21
193.4150695800781
  0
ENDBLK
  5
99
330
97
100
AcDbEntity
  8
0
100
AcDbBlockEnd
  0
BLOCK
  5
9B
330
9A
100
AcDbEntity
  8
0
100
AcDbBlockBegin
  2
Blk26
 70
    0
 10
0
 20
0
  3
Blk26
  1

  0
CIRCLE
  5
17E
100
AcDbEntity
  8
0
  6
CONTINUOUS
 62
  256
370
   25
100
AcDbCircle
 10
190
 20
117.5
 40
0.75
  0
LINE
  5
17F
100
AcDbEntity
  8
0
  6
CONTINUOUS
 62
  256
370
   25
100
AcDbLine
 10
190
 20
118.25
 11
190
 21
120
  0
LINE
  5
180
100
AcDbEntity
  8
0
  6
CONTINUOUS
 62
  256
370
   25
100
AcDbLine
 10
190
 20
115
 11
190
 21
116.75
  0
ENDBLK
  5
9C
330
9A
100
AcDbEntity
  8
0
100
AcDbBlockEnd
  0
BLOCK
  5
9E
330
9D
100
AcDbEntity
  8
0
100
AcDbBlockBegin
  2
Blk27
 70
    0
 10
0
 20
0
  3
Blk27
  1

  0
CIRCLE
  5
181
100
AcDbEntity
  8
0
  6
CONTINUOUS
 62
  256
370
   25
100
AcDbCircle
 10
195
 20
117.5
 40
0.75
  0
LINE
  5
182
100
AcDbEntity
  8
0
  6
CONTINUOUS
 62
  256
370
   25
100
AcDbLine
 10
195
 20
118.25
 11
195
 21
120
  0
LINE
  5
183
100
AcDbEntity
  8
0
  6
CONTINUOUS
 62
  256
370
   25
100
AcDbLine
 10
195
 20
115
 11
195
 21
116.75
  0
ENDBLK
  5
9F
330
9D
100
AcDbEntity
  8
0
100
AcDbBlockEnd
  0
BLOCK
  5
A1
330
A0
100
AcDbEntity
  8
0
100
AcDbBlockBegin
  2
Blk28
 70
    0
 10
0
 20
0
  3
Blk28
  1

  0
LINE
  5
184
100
AcDbEntity
  8
0
  6
CONTINUOUS
 62
  256
370
   25
100
AcDbLine
 10
55
 20
105.5
 11
55
 21
104.5
  0
ENDBLK
  5
A2
330
A0
100
AcDbEntity
  8
0
100
AcDbBlockEnd
  0
BLOCK
  5
A4
330
A3
100
AcDbEntity
  8
0
100
AcDbBlockBegin
  2
Blk29
 70
    0
 10
0
 20
0
  3
Blk29
  1

  0
LINE
  5
185
100
AcDbEntity
  8
0
  6
CONTINUOUS
 62
  256
370
   25
100
AcDbLine
 10
60
 20
105.5
 11
60
 21
104.5
  0
ENDBLK
  5
A5
330
A3
100
AcDbEntity
  8
0
100
AcDbBlockEnd
  0
BLOCK
  5
A7
330
A6
100
AcDbEntity
  8
0
100
AcDbBlockBegin
  2
Blk30
 70
    0
 10
0
 20
0
  3
Blk30
  1

  0
LINE
  5
186
100
AcDbEntity
  8
0
  6
CONTINUOUS
 62
  256
370
   25
100
AcDbLine
 10
95
 20
105.5
 11
95
 21
104.5
  0
ENDBLK
  5
A8
330
A6
100
AcDbEntity
  8
0
100
AcDbBlockEnd
  0
BLOCK
  5
AA
330
A9
100
AcDbEntity
  8
0
100
AcDbBlockBegin
  2
Blk31
 70
    0
 10
0
 20
0
  3
Blk31
  1

  0
LINE
  5
187
100
AcDbEntity
  8
0
  6
CONTINUOUS
 62
  256
370
   25
100
AcDbLine
 10
100
 20
105.5
 11
100
 21
104.5
  0
ENDBLK
  5
AB
330
A9
100
AcDbEntity
  8
0
100
AcDbBlockEnd
  0
BLOCK
  5
AD
330
AC
100
AcDbEntity
  8
0
100
AcDbBlockBegin
  2
Blk32
 70
    0
 10
0
 20
0
  3
Blk32
  1

  0
LINE
  5
188
100
AcDbEntity
  8
0
  6
CONTINUOUS
 62
  256
370
   25
100
AcDbLine
 10
150
 20
105.5
 11
150
 21
104.5
  0
ENDBLK
  5
AE
330
AC
100
AcDbEntity
  8
0
100
AcDbBlockEnd
  0
BLOCK
  5
B0
330
AF
100
AcDbEntity
  8
0
100
AcDbBlockBegin
  2
Blk33
 70
    0
 10
0
 20
0
  3
Blk33
  1

  0
LINE
  5
189
100
AcDbEntity
  8
0
  6
CONTINUOUS
 62
  256
370
   25
100
AcDbLine
 10
155
 20
105.5
 11
155
 21
104.5
  0
ENDBLK
  5
B1
330
AF
100
AcDbEntity
  8
0
100
AcDbBlockEnd
  0
BLOCK
  5
B3
330
B2
100
AcDbEntity
  8
0
100
AcDbBlockBegin
  2
Blk34
 70
    0
 10
0
 20
0
  3
Blk34
  1

  0
LINE
  5
18A
100
AcDbEntity
  8
0
  6
CONTINUOUS
 62
  256
370
   25
100
AcDbLine
 10
190
 20
105.5
 11
190
 21
104.5
  0
ENDBLK
  5
B4
330
B2
100
AcDbEntity
  8
0
100
AcDbBlockEnd
  0
BLOCK
  5
B6
330
B5
100
AcDbEntity
  8
0
100
AcDbBlockBegin
  2
Blk35
 70
    0
 10
0
 20
0
  3
Blk35
  1

  0
LINE
  5
18B
100
AcDbEntity
  8
0
  6
CONTINUOUS
 62
  256
370
   25
100
AcDbLine
 10
195
 20
105.5
 11
195
 21
104.5
  0
ENDBLK
  5
B7
330
B5
100
AcDbEntity
  8
0
100
AcDbBlockEnd
  0
BLOCK
  5
B9
330
B8
100
AcDbEntity
  8
0
100
AcDbBlockBegin
  2
Blk36
 70
    0
 10
0
 20
0
  3
Blk36
  1

  0
TEXT
  5
18C
100
AcDbEntity
  8
0
  6
ByLayer
 62
  256
370
   25
100
AcDbText
 10
263
 20
55.70000076293945
 30
0
 40
2.450000762939453
  1
38.3
 50
0
 41
0.9
 51
0
  7
Caddy_Vectorfont1p
 71
    0
210
0
220
0
230
1
100
AcDbText
  0
TEXT
  5
18D
100
AcDbEntity
  8
0
  6
ByLayer
 62
  256
370
   25
100
AcDbText
 10
266.1500244140625
 20
60.70000076293945
 30
0
 40
2.450000762939453
  1
S
 50
0
 41
0.9
 51
0
  7
Caddy_Vectorfont1p
 71
    0
 72
    1
 11
266.1500244140625
 21
60.70000076293945
 31
0
210
0
220
0
230
1
100
AcDbText
  0
TEXT
  5
18E
100
AcDbEntity
  8
0
  6
ByLayer
 62
  256
370
   25
100
AcDbText
 10
273.5
 20
60.70000076293945
 30
0
 40
2.450000762939453
  1
B
 50
0
 41
0.9
 51
0
  7
Caddy_Vectorfont1p
 71
    0
 72
    1
 11
273.5
 21
60.70000076293945
 31
0
210
0
220
0
230
1
100
AcDbText
  0
LINE
  5
18F
100
AcDbEntity
  8
0
  6
CONTINUOUS
 62
  256
370
   25
100
AcDbLine
 10
262.2999877929688
 20
60
 11
277
 21
60
  0
LINE
  5
190
100
AcDbEntity
  8
0
  6
CONTINUOUS
 62
  256
370
   25
100
AcDbLine
 10
270
 20
63.5
 11
270
 21
45
  0
ENDBLK
  5
BA
330
B8
100
AcDbEntity
  8
0
100
AcDbBlockEnd
  0
BLOCK
  5
BC
330
BB
100
AcDbEntity
  8
0
100
AcDbBlockBegin
  2
Blk37
 70
    0
 10
0
 20
0
  3
Blk37
  1

  0
TEXT
  5
191
100
AcDbEntity
  8
0
  6
ByLayer
 62
  256
370
   25
100
AcDbText
 10
303
 20
55.70000076293945
 30
0
 40
2.450000762939453
  1
38.4
 50
0
 41
0.9
 51
0
  7
Caddy_Vectorfont1p
 71
    0
210
0
220
0
230
1
100
AcDbText
  0
TEXT
  5
192
100
AcDbEntity
  8
0
  6
ByLayer
 62
  256
370
   25
100
AcDbText
 10
306.1500244140625
 20
60.70000076293945
 30
0
 40
2.450000762939453
  1
S
 50
0
 41
0.9
 51
0
  7
Caddy_Vectorfont1p
 71
    0
 72
    1
 11
306.1500244140625
 21
60.70000076293945
 31
0
210
0
220
0
230
1
100
AcDbText
  0
TEXT
  5
193
100
AcDbEntity
  8
0
  6
ByLayer
 62
  256
370
   25
100
AcDbText
 10
313.5
 20
60.70000076293945
 30
0
 40
2.450000762939453
  1
B
 50
0
 41
0.9
 51
0
  7
Caddy_Vectorfont1p
 71
    0
 72
    1
 11
313.5
 21
60.70000076293945
 31
0
210
0
220
0
230
1
100
AcDbText
  0
LINE
  5
194
100
AcDbEntity
  8
0
  6
CONTINUOUS
 62
  256
370
   25
100
AcDbLine
 10
302.2999877929688
 20
60
 11
317
 21
60
  0
LINE
  5
195
100
AcDbEntity
  8
0
  6
CONTINUOUS
 62
  256
370
   25
100
AcDbLine
 10
310
 20
63.5
 11
310
 21
45
  0
ENDBLK
  5
BD
330
BB
100
AcDbEntity
  8
0
100
AcDbBlockEnd
  0
BLOCK
  5
BF
330
BE
100
AcDbEntity
  8
0
100
AcDbBlockBegin
  2
RJ45Jack
 70
    0
 10
0
 20
0
  3
RJ45Jack
  1

  0
LINE
  5
196
100
AcDbEntity
  8
0
  6
ByLayer
 62
  256
370
   -1
100
AcDbLine
 10
0
 20
-6.604
 11
0
 21
6.604
  0
LINE
  5
197
100
AcDbEntity
  8
0
  6
ByLayer
 62
  256
370
   -1
100
AcDbLine
 10
0
 20
-6.604
 11
15.748
 21
-6.604
  0
LINE
  5
198
100
AcDbEntity
  8
0
  6
ByLayer
 62
  256
370
   -1
100
AcDbLine
 10
15.748
 20
-6.604
 11
15.748
 21
6.604
  0
LINE
  5
199
100
AcDbEntity
  8
0
  6
ByLayer
 62
  256
370
   -1
100
AcDbLine
 10
15.748
 20
6.604
 11
0
 21
6.604
  0
LINE
  5
19A
100
AcDbEntity
  8
0
  6
ByLayer
 62
  256
370
   -1
100
AcDbLine
 10
1.905000000000002
 20
3.4163
 11
13.843
 21
3.4163
  0
LINE
  5
19B
100
AcDbEntity
  8
0
  6
ByLayer
 62
  256
370
   -1
100
AcDbLine
 10
1.905000000000002
 20
3.4163
 11
1.905000000000002
 21
-3.4163
  0
LINE
  5
19C
100
AcDbEntity
  8
0
  6
ByLayer
 62
  256
370
   -1
100
AcDbLine
 10
13.843
 20
3.4163
 11
13.843
 21
-3.4163
  0
LINE
  5
19D
100
AcDbEntity
  8
0
  6
ByLayer
 62
  256
370
   -1
100
AcDbLine
 10
10.9982
 20
-3.4163
 11
10.9982
 21
-5.0927
  0
LINE
  5
19E
100
AcDbEntity
  8
0
  6
ByLayer
 62
  256
370
   -1
100
AcDbLine
 10
10.9982
 20
-3.4163
 11
13.843
 21
-3.4163
  0
LINE
  5
19F
100
AcDbEntity
  8
0
  6
ByLayer
 62
  256
370
   -1
100
AcDbLine
 10
1.905000000000002
 20
-3.4163
 11
4.7498
 21
-3.4163
  0
LINE
  5
1A0
100
AcDbEntity
  8
0
  6
ByLayer
 62
  256
370
   -1
100
AcDbLine
 10
4.7498
 20
-3.4163
 11
4.7498
 21
-5.0927
  0
LINE
  5
1A1
100
AcDbEntity
  8
0
  6
ByLayer
 62
  256
370
   -1
100
AcDbLine
 10
5.842
 20
-6.438899999999999
 11
9.906000000000001
 21
-6.438899999999999
  0
LINE
  5
1A2
100
AcDbEntity
  8
0
  6
ByLayer
 62
  256
370
   -1
100
AcDbLine
 10
4.7498
 20
-5.0927
 11
5.842
 21
-5.0927
  0
LINE
  5
1A3
100
AcDbEntity
  8
0
  6
ByLayer
 62
  256
370
   -1
100
AcDbLine
 10
9.906000000000001
 20
-5.0927
 11
10.9982
 21
-5.0927
  0
LINE
  5
1A4
100
AcDbEntity
  8
0
  6
ByLayer
 62
  256
370
   -1
100
AcDbLine
 10
9.906000000000001
 20
-5.0927
 11
9.906000000000001
 21
-6.438899999999999
  0
LINE
  5
1A5
100
AcDbEntity
  8
0
  6
ByLayer
 62
  256
370
   -1
100
AcDbLine
 10
5.842
 20
-5.0927
 11
5.842
 21
-6.438899999999999
  0
ENDBLK
  5
C0
330
BE
100
AcDbEntity
  8
0
100
AcDbBlockEnd
  0
ENDSEC
  0
SECTION
  2
ENTITIES
  0
INSERT
  5
1A6
100
AcDbEntity
  8
0
  6
ByLayer
 62
  256
370
   -1
100
AcDbBlockReference
  2
Blk1
 10
0
 20
0
 30
0
 41
1
 42
1
 43
0
 50
0
 70
    1
 71
    1
 44
0
 45
0
  0
INSERT
  5
1A7
100
AcDbEntity
  8
0
  6
ByLayer
 62
  256
370
   -1
100
AcDbBlockReference
  2
Blk2
 10
0
 20
0
 30
0
 41
1
 42
1
 43
0
 50
0
 70
    1
 71
    1
 44
0
 45
0
  0
INSERT
  5
1A8
100
AcDbEntity
  8
0
  6
ByLayer
 62
  256
370
   -1
100
AcDbBlockReference
  2
Blk3
 10
0
 20
0
 30
0
 41
1
 42
1
 43
0
 50
0
 70
    1
 71
    1
 44
0
 45
0
  0
LINE
  5
1A9
100
AcDbEntity
  8
0
  6
CONTINUOUS
 62
  256
370
   25
100
AcDbLine
 10
270
 20
260
 11
392.5
 21
260
  0
LINE
  5
1AA
100
AcDbEntity
  8
0
  6
CONTINUOUS
 62
  256
370
   25
100
AcDbLine
 10
27.5
 20
260
 11
55
 21
260
  0
LINE
  5
1AB
100
AcDbEntity
  8
0
  6
CONTINUOUS
 62
  256
370
   25
100
AcDbLine
 10
55
 20
260
 11
75
 21
260
  0
LINE
  5
1AC
100
AcDbEntity
  8
0
  6
CONTINUOUS
 62
  256
370
   25
100
AcDbLine
 10
75
 20
260
 11
95
 21
260
  0
LINE
  5
1AD
100
AcDbEntity
  8
0
  6
CONTINUOUS
 62
  256
370
   25
100
AcDbLine
 10
95
 20
260
 11
270
 21
260
  0
LINE
  5
1AE
100
AcDbEntity
  8
0
  6
CONTINUOUS
 62
  256
370
   25
100
AcDbLine
 10
55
 20
260
 11
55
 21
260
  0
CIRCLE
  5
1AF
100
AcDbEntity
  8
0
  6
ByLayer
 62
  256
370
   40
100
AcDbCircle
 10
55
 20
260
 40
0.8
  0
CIRCLE
  5
1B0
100
AcDbEntity
  8
0
  6
ByLayer
 62
  256
370
   40
100
AcDbCircle
 10
55
 20
260
 40
0.6
  0
CIRCLE
  5
1B1
100
AcDbEntity
  8
0
  6
ByLayer
 62
  256
370
   40
100
AcDbCircle
 10
55
 20
260
 40
0.4
  0
CIRCLE
  5
1B2
100
AcDbEntity
  8
0
  6
ByLayer
 62
  256
370
   40
100
AcDbCircle
 10
95
 20
260
 40
0.8
  0
CIRCLE
  5
1B3
100
AcDbEntity
  8
0
  6
ByLayer
 62
  256
370
   40
100
AcDbCircle
 10
95
 20
260
 40
0.6
  0
CIRCLE
  5
1B4
100
AcDbEntity
  8
0
  6
ByLayer
 62
  256
370
   40
100
AcDbCircle
 10
95
 20
260
 40
0.4
  0
MTEXT
  5
1B5
100
AcDbEntity
  8
0
  6
ByLayer
 62
  256
370
   -1
100
AcDbMText
 10
29.10927388048574
 20
264.087749783202
 30
0
 40
2
 41
5.555555555555555
 71
    1
 72
    1
  1
0707
  7
standard
210
0
220
0
230
1
 50
0
 73
    2
 44
1
  0
MTEXT
  5
1B6
100
AcDbEntity
  8
0
  6
ByLayer
 62
  256
370
   -1
100
AcDbMText
 10
380.6184735268012
 20
264.9492919391978
 30
0
 40
2
 41
5.555555555555555
 71
    1
 72
    1
  1
0707
  7
standard
210
0
220
0
230
1
 50
0
 73
    2
 44
1
  0
MTEXT
  5
1B7
100
AcDbEntity
  8
0
  6
ByLayer
 62
  256
370
   -1
100
AcDbMText
 10
226.04415210977
 20
331.577779286618
 30
0
 40
2
 41
4.666666666666667
 71
    1
 72
    1
  1
22.9
  7
standard
210
0
220
0
230
1
 50
0
 73
    2
 44
1
  0
MTEXT
  5
1B8
100
AcDbEntity
  8
0
  6
ByLayer
 62
  256
370
   -1
100
AcDbMText
 10
396.1987279189547
 20
260.9313224949565
 30
0
 40
2
 41
4.666666666666667
 71
    1
 72
    1
  1
22.9
  7
standard
210
0
220
0
230
1
 50
0
 73
    2
 44
1
  0
INSERT
  5
1B9
100
AcDbEntity
  8
0
  6
ByLayer
 62
  256
370
   -1
100
AcDbBlockReference
  2
Blk2
 10
-176.4601179275778
 20
-119.9463534522149
 30
0
 41
1
 42
1
 43
0
 50
0
 70
    1
 71
    1
 44
0
 45
0
  0
MTEXT
  5
1BA
100
AcDbEntity
  8
0
  6
ByLayer
 62
  256
370
   -1
100
AcDbMText
 10
18.41249251476508
 20
260.9313224949565
 30
0
 40
2
 41
4.888888888888889
 71
    1
 72
    1
  1
24.9
  7
standard
210
0
220
0
230
1
 50
0
 73
    2
 44
1
  0
LINE
  5
1BB
100
AcDbEntity
  8
0
  6
ByLayer
 62
  256
370
   -1
100
AcDbLine
 10
273.5396345286901
 20
260.185731110754
 11
272.2473212946963
 21
163.2622385612182
  0
LWPOLYLINE
  5
1BC
100
AcDbEntity
  8
0
  6
ByLayer
 62
  256
370
   -1
100
AcDbPolyline
 90
    4
 70
    1
 43
0
 10
241.2318036788448
 20
162.8314674832202
 10
375.2016089362032
 20
162.8314674832202
 10
375.2016089362032
 20
66.3387460116823
 10
241.2318036788448
 20
66.3387460116823
  0
MTEXT
  5
1BD
100
AcDbEntity
  8
0
  6
ByLayer
 62
  256
370
   -1
100
AcDbMText
 10
266.3703815927148
 20
210.1205724978678
 30
0
 40
2
 41
5.555555555555555
 71
    1
 72
    1
  1
0707
  7
standard
210
0
220
0
230
1
 50
90
 73
    2
 44
1
  0
MTEXT
  5
1BE
100
AcDbEntity
  8
0
  6
ByLayer
 62
  256
370
   -1
100
AcDbMText
 10
257.7549600327561
 20
152.8280191241421
 30
0
 40
3
 41
7.000000000000558
 71
    1
 72
    1
  1
GND
  7
standard
210
0
220
0
230
1
 50
90
 73
    2
 44
1
  0
MTEXT
  5
1BF
100
AcDbEntity
  8
0
  6
ByLayer
 62
  256
370
   -1
100
AcDbMText
 10
270.5396345286901
 20
149.7442547459241
 30
0
 40
3
 41
9.333333333333519
 71
    1
 72
    1
  1
0VDC
  7
standard
210
0
220
0
230
1
 50
90
 73
    2
 44
1
  0
MTEXT
  5
1C0
100
AcDbEntity
  8
0
  6
ByLayer
 62
  256
370
   -1
100
AcDbMText
 10
292.9397305845828
 20
147.4929616112697
 30
0
 40
3
 41
12.00000000000018
 71
    1
 72
    1
  1
24VDC
  7
standard
210
0
220
0
230
1
 50
90
 73
    2
 44
1
  0
INSERT
  5
1C1
100
AcDbEntity
  8
0
  6
ByLayer
 62
  256
370
   -1
100
AcDbBlockReference
  2
RJ45Jack
 10
350.2168864123229
 20
151.2006483772759
 30
0
 41
1
 42
1
 43
0
 50
0
 70
    1
 71
    1
 44
0
 45
0
  0
MTEXT
  5
1C2
100
AcDbEntity
  8
0
  6
ByLayer
 62
  256
370
   -1
100
AcDbMText
 10
302.1243810665436
 20
71.41228538253202
 30
0
 40
3
 41
7.000000000000558
 71
    1
 72
    1
  1
GND
  7
standard
210
0
220
0
230
1
 50
90
 73
    2
 44
1
  0
LWPOLYLINE
  5
1C3
100
AcDbEntity
  8
0
  6
ByLayer
 62
  256
370
   -1
100
AcDbPolyline
 90
    4
 70
    1
 43
0
 10
241.2318036788448
 20
90.46192637956679
 10
310.1551761585147
 20
90.46192637956679
 10
310.1551761585147
 20
66.3387460116823
 10
241.2318036788448
 20
66.3387460116823
  0
LWPOLYLINE
  5
1C4
100
AcDbEntity
  8
0
  6
ByLayer
 62
  256
370
   -1
100
AcDbPolyline
 90
    4
 70
    1
 43
0
 10
310.1551761585147
 20
90.46192637956679
 10
376.0631510921991
 20
90.03115530156886
 10
375.6323800142012
 20
65.90797493368439
 10
310.1551761585147
 20
66.3387460116823
  0
MTEXT
  5
1C5
100
AcDbEntity
  8
0
  6
ByLayer
 62
  256
370
   -1
100
AcDbMText
 10
252.1549360187829
 20
71.84305646052997
 30
0
 40
3
 41
4
 71
    1
 72
    1
  1
T+
  7
standard
210
0
220
0
230
1
 50
90
 73
    2
 44
1
  0
MTEXT
  5
1C6
100
AcDbEntity
  8
0
  6
ByLayer
 62
  256
370
   -1
100
AcDbMText
 10
264.2165262027251
 20
71.41228538253202
 30
0
 40
3
 41
4
 71
    1
 72
    1
  1
T-
  7
standard
210
0
220
0
230
1
 50
90
 73
    2
 44
1
  0
MTEXT
  5
1C7
100
AcDbEntity
  8
0
  6
ByLayer
 62
  256
370
   -1
100
AcDbMText
 10
277.1396585426633
 20
71.41228538253202
 30
0
 40
3
 41
11.33333333333352
 71
    1
 72
    1
  1
R+/D+
  7
standard
210
0
220
0
230
1
 50
90
 73
    2
 44
1
  0
MTEXT
  5
1C8
100
AcDbEntity
  8
0
  6
ByLayer
 62
  256
370
   -1
100
AcDbMText
 10
288.7704776486075
 20
71.41228538253202
 30
0
 40
3
 41
11.33333333333352
 71
    1
 72
    1
  1
R-/D-
  7
standard
210
0
220
0
230
1
 50
90
 73
    2
 44
1
  0
MTEXT
  5
1C9
100
AcDbEntity
  8
0
  6
ByLayer
 62
  256
370
   -1
100
AcDbMText
 10
366.7400427662341
 20
69.68920107054028
 30
0
 40
3
 41
7.000000000000558
 71
    1
 72
    1
  1
GND
  7
standard
210
0
220
0
230
1
 50
90
 73
    2
 44
1
  0
MTEXT
  5
1CA
100
AcDbEntity
  8
0
  6
ByLayer
 62
  256
370
   -1
100
AcDbMText
 10
316.7705977184734
 20
70.11997214853822
 30
0
 40
3
 41
4
 71
    1
 72
    1
  1
T+
  7
standard
210
0
220
0
230
1
 50
90
 73
    2
 44
1
  0
MTEXT
  5
1CB
100
AcDbEntity
  8
0
  6
ByLayer
 62
  256
370
   -1
100
AcDbMText
 10
328.8321879024156
 20
69.68920107054028
 30
0
 40
3
 41
4
 71
    1
 72
    1
  1
T-
  7
standard
210
0
220
0
230
1
 50
90
 73
    2
 44
1
  0
MTEXT
  5
1CC
100
AcDbEntity
  8
0
  6
ByLayer
 62
  256
370
   -1
100
AcDbMText
 10
341.7553202423538
 20
69.68920107054028
 30
0
 40
3
 41
11.33333333333352
 71
    1
 72
    1
  1
R+/D+
  7
standard
210
0
220
0
230
1
 50
90
 73
    2
 44
1
  0
MTEXT
  5
1CD
100
AcDbEntity
  8
0
  6
ByLayer
 62
  256
370
   -1
100
AcDbMText
 10
353.3861393482981
 20
69.68920107054028
 30
0
 40
3
 41
11.33333333333352
 71
    1
 72
    1
  1
R-/D-
  7
standard
210
0
220
0
230
1
 50
90
 73
    2
 44
1
  0
LINE
  5
1CE
100
AcDbEntity
  8
0
  6
ByLayer
 62
  256
370
   -1
100
AcDbLine
 10
95.39424693364045
 20
259.7038229939733
 11
95.56960400520964
 21
212.3574136702915
  0
MTEXT
  5
1CF
100
AcDbEntity
  8
0
  6
ByLayer
 62
  256
370
   -1
100
AcDbMText
 10
95.39424693364045
 20
208.6749151673385
 30
0
 40
2
 41
2
 71
    1
 72
    1
  1
17
  7
standard
210
0
220
0
230
1
 50
0
 73
    2
 44
1
  0
LINE
  5
1D0
100
AcDbEntity
  8
0
  6
ByLayer
 62
  256
370
   -1
100
AcDbLine
 10
255.0164781747788
 20
241.6625747568427
 11
296.8795221666421
 21
241.992758765485
  0
LINE
  5
1D1
100
AcDbEntity
  8
0
  6
ByLayer
 62
  256
370
   -1
100
AcDbLine
 10
296.8795221666421
 20
241.992758765485
 11
295.0781884285869
 21
163.2622385612182
  0
MTEXT
  5
1D2
100
AcDbEntity
  8
0
  6
ByLayer
 62
  256
370
   -1
100
AcDbMText
 10
246.2903927756725
 20
242.8389372190432
 30
0
 40
2
 41
4.66666666666679
 71
    1
 72
    1
  1
22.5
  7
standard
210
0
220
0
230
1
 50
0
 73
    2
 44
1
  0
MTEXT
  5
1D3
100
AcDbEntity
  8
0
  6
ByLayer
 62
  256
370
   -1
100
AcDbMText
 10
285.9213319514827
 20
246.7158769210246
 30
0
 40
2
 41
5.555555555555555
 71
    1
 72
    1
  1
0708
  7
standard
210
0
220
0
230
1
 50
0
 73
    2
 44
1
  0
LINE
  5
1D4
100
AcDbEntity
  8
0
  6
ByLayer
 62
  256
370
   -1
100
AcDbLine
 10
28.10442756424432
 20
250.9564995500099
 11
69.96747155610761
 21
251.2866835586521
  0
LINE
  5
1D5
100
AcDbEntity
  8
0
  6
ByLayer
 62
  256
370
   -1
100
AcDbLine
 10
69.96747155610761
 20
251.2866835586521
 11
69.96747155610761
 21
212.0066995271531
  0
MTEXT
  5
1D6
100
AcDbEntity
  8
0
  6
ByLayer
 62
  256
370
   -1
100
AcDbMText
 10
59.00928134094828
 20
256.0098017141918
 30
0
 40
2
 41
5.55555555555568
 71
    1
 72
    1
  1
0706
  7
standard
210
0
220
0
230
1
 50
0
 73
    2
 44
1
  0
MTEXT
  5
1D7
100
AcDbEntity
  8
0
  6
ByLayer
 62
  256
370
   -1
100
AcDbMText
 10
19.37834216513808
 20
252.1328620122104
 30
0
 40
2
 41
4.888888888888889
 71
    1
 72
    1
  1
24.2
  7
standard
210
0
220
0
230
1
 50
0
 73
    2
 44
1
  0
LWPOLYLINE
  5
1D8
100
AcDbEntity
  8
0
  6
ByLayer
 62
  256
370
   -1
100
AcDbPolyline
 90
    4
 70
    1
 43
0
 10
72.59782762964549
 20
225.3338369664117
 10
65.40818769530863
 20
225.3338369664117
 10
65.40818769530863
 20
242.8695441233309
 10
72.59782762964549
 20
242.8695441233309
  0
CIRCLE
  5
1D9
100
AcDbEntity
  8
0
  6
ByLayer
 62
  256
370
   40
100
AcDbCircle
 10
70.08070815495051
 20
212.3028765331798
 40
0.8
  0
CIRCLE
  5
1DA
100
AcDbEntity
  8
0
  6
ByLayer
 62
  256
370
   40
100
AcDbCircle
 10
70.08070815495051
 20
212.3028765331798
 40
0.4
  0
CIRCLE
  5
1DB
100
AcDbEntity
  8
0
  6
ByLayer
 62
  256
370
   40
100
AcDbCircle
 10
95.50748353248335
 20
212.8289477478874
 40
0.8
  0
CIRCLE
  5
1DC
100
AcDbEntity
  8
0
  6
ByLayer
 62
  256
370
   40
100
AcDbCircle
 10
95.50748353248335
 20
212.8289477478874
 40
0.4
  0
MTEXT
  5
1DD
100
AcDbEntity
  8
0
  6
ByLayer
 62
  256
370
   -1
100
AcDbMText
 10
66.98640133943134
 20
215.3384838869678
 30
0
 40
2
 41
5.777777777778025
 71
    1
 72
    1
  1
3403
  7
standard
210
0
220
0
230
1
 50
90
 73
    2
 44
1
  0
MTEXT
  5
1DE
100
AcDbEntity
  8
0
  6
ByLayer
 62
  256
370
   -1
100
AcDbMText
 10
68.73997205512327
 20
208.6749151673385
 30
0
 40
2
 41
2.000000000000124
 71
    1
 72
    1
  1
16
  7
standard
210
0
220
0
230
1
 50
0
 73
    2
 44
1
  0
MTEXT
  5
1DF
100
AcDbEntity
  8
0
  6
ByLayer
 62
  256
370
   -1
100
AcDbMText
 10
56.99104825998741
 20
219.3716965330592
 30
0
 40
2
 41
4.444444444444445
 71
    1
 72
    1
  1
X22
  7
standard
210
0
220
0
230
1
 50
0
 73
    2
 44
1
  0
LINE
  5
1E0
100
AcDbEntity
  8
0
  6
ByLayer
 62
  256
370
   -1
100
AcDbLine
 10
28.45514170738271
 20
191.685809359623
 11
70.318185699246
 21
192.0159933682652
  0
LINE
  5
1E1
100
AcDbEntity
  8
0
  6
ByLayer
 62
  256
370
   -1
100
AcDbLine
 10
70.318185699246
 20
192.0159933682652
 11
70.318185699246
 21
152.7360093367662
  0
CIRCLE
  5
1E2
100
AcDbEntity
  8
0
  6
ByLayer
 62
  256
370
   40
100
AcDbCircle
 10
70.4314222980889
 20
153.0321863427929
 40
0.8
  0
CIRCLE
  5
1E3
100
AcDbEntity
  8
0
  6
ByLayer
 62
  256
370
   40
100
AcDbCircle
 10
70.4314222980889
 20
153.0321863427929
 40
0.4
  0
LINE
  5
1E4
100
AcDbEntity
  8
0
  6
ByLayer
 62
  256
370
   -1
100
AcDbLine
 10
28.75855973734749
 20
169.0442169927011
 11
89.43210650028792
 21
168.6935028495627
  0
LINE
  5
1E5
100
AcDbEntity
  8
0
  6
ByLayer
 62
  256
370
   -1
100
AcDbLine
 10
45.06676739328234
 20
168.5181457779935
 11
45.06676739328234
 21
153.7881517661814
  0
MTEXT
  5
1E6
100
AcDbEntity
  8
0
  6
ByLayer
 62
  256
370
   -1
100
AcDbMText
 10
72.24711348650712
 20
157.2952931975652
 30
0
 40
2
 41
1.111111111111111
 71
    1
 72
    1
  1
N
  7
standard
210
0
220
0
230
1
 50
0
 73
    2
 44
1
  0
MTEXT
  5
1E7
100
AcDbEntity
  8
0
  6
ByLayer
 62
  256
370
   -1
100
AcDbMText
 10
93.46531914637934
 20
170.0963594221163
 30
0
 40
2
 41
4.666666666666915
 71
    1
 72
    1
  1
36.0
  7
standard
210
0
220
0
230
1
 50
0
 73
    2
 44
1
  0
MTEXT
  5
1E8
100
AcDbEntity
  8
0
  6
ByLayer
 62
  256
370
   -1
100
AcDbMText
 10
23.67320466184093
 20
169.921002350547
 30
0
 40
2
 41
4.666666666666915
 71
    1
 72
    1
  1
33.2
  7
standard
210
0
220
0
230
1
 50
0
 73
    2
 44
1
  0
MTEXT
  5
1E9
100
AcDbEntity
  8
0
  6
ByLayer
 62
  256
370
   -1
100
AcDbMText
 10
23.32249051870255
 20
193.0681357976804
 30
0
 40
2
 41
4.444444444444445
 71
    1
 72
    1
  1
24.1
  7
standard
210
0
220
0
230
1
 50
0
 73
    2
 44
1
  0
MTEXT
  5
1EA
100
AcDbEntity
  8
0
  6
ByLayer
 62
  256
370
   -1
100
AcDbMText
 10
52.60712147075761
 20
195.6984918712183
 30
0
 40
2
 41
5.777777777777903
 71
    1
 72
    1
  1
0504
  7
standard
210
0
220
0
230
1
 50
0
 73
    2
 44
1
  0
LINE
  5
1EB
100
AcDbEntity
  8
0
  6
ByLayer
 62
  256
370
   -1
100
AcDbLine
 10
29.28463095205506
 20
135.9017304661238
 11
89.43210650028792
 21
135.7263733945546
  0
LINE
  5
1EC
100
AcDbEntity
  8
0
  6
ByLayer
 62
  256
370
   -1
100
AcDbLine
 10
51.20426489820407
 20
139.2335148259384
 11
58.04319068940255
 21
130.9917324621864
  0
LINE
  5
1ED
100
AcDbEntity
  8
0
  6
ByLayer
 62
  256
370
   -1
100
AcDbLine
 10
58.04319068940255
 20
130.9917324621864
 11
58.21854776097175
 21
91.71174843068741
  0
LINE
  5
1EE
100
AcDbEntity
  8
0
  6
ByLayer
 62
  256
370
   -1
100
AcDbLine
 10
78.38461099142883
 20
139.4088718975077
 11
85.5742509257657
 21
131.517803676894
  0
LINE
  5
1EF
100
AcDbEntity
  8
0
  6
ByLayer
 62
  256
370
   -1
100
AcDbLine
 10
85.5742509257657
 20
131.517803676894
 11
85.74960799733489
 21
91.71174843068741
  0
MTEXT
  5
1F0
100
AcDbEntity
  8
0
  6
ByLayer
 62
  256
370
   -1
100
AcDbMText
 10
55.31755534103968
 20
89.50317871302681
 30
0
 40
2
 41
0.8888888888888888
 71
    1
 72
    1
  1
7
  7
standard
210
0
220
0
230
1
 50
0
 73
    2
 44
1
  0
MTEXT
  5
1F1
100
AcDbEntity
  8
0
  6
ByLayer
 62
  256
370
   -1
100
AcDbMText
 10
85.74960799733489
 20
89.32782164145762
 30
0
 40
2
 41
0.8888888888888888
 71
    1
 72
    1
  1
8
  7
standard
210
0
220
0
230
1
 50
0
 73
    2
 44
1
  0
MTEXT
  5
1F2
100
AcDbEntity
  8
0
  6
ByLayer
 62
  256
370
   -1
100
AcDbMText
 10
45.41748153642074
 20
100.8303161522854
 30
0
 40
2
 41
4.444444444444445
 71
    1
 72
    1
  1
X22
  7
standard
210
0
220
0
230
1
 50
0
 73
    2
 44
1
  0
MTEXT
  5
1F3
100
AcDbEntity
  8
0
  6
ByLayer
 62
  256
370
   -1
100
AcDbMText
 10
19.11392080104194
 20
137.1292299671081
 30
0
 40
2
 41
6.888888888889014
 71
    1
 72
    1
  1
F3401
  7
standard
210
0
220
0
230
1
 50
0
 73
    2
 44
1
  0
MTEXT
  5
1F4
100
AcDbEntity
  8
0
  6
ByLayer
 62
  256
370
   -1
100
AcDbMText
 10
49.97676539721974
 20
129.7642329612021
 30
0
 40
2
 41
0.8888888888888888
 71
    1
 72
    1
  1
2
  7
standard
210
0
220
0
230
1
 50
0
 73
    2
 44
1
  0
MTEXT
  5
1F5
100
AcDbEntity
  8
0
  6
ByLayer
 62
  256
370
   -1
100
AcDbMText
 10
79.61211049241318
 20
129.4135188180637
 30
0
 40
2
 41
1.111111111111111
 71
    1
 72
    1
  1
N
  7
standard
210
0
220
0
230
1
 50
0
 73
    2
 44
1
  0
MTEXT
  5
1F6
100
AcDbEntity
  8
0
  6
ByLayer
 62
  256
370
   -1
100
AcDbMText
 10
40.68284060405256
 20
157.119936125996
 30
0
 40
2
 41
0.4444444444444444
 71
    1
 72
    1
  1
1
  7
standard
210
0
220
0
230
1
 50
0
 73
    2
 44
1
  0
MTEXT
  5
1F7
100
AcDbEntity
  8
0
  6
ByLayer
 62
  256
370
   -1
100
AcDbMText
 10
73.12389884435306
 20
-15.36035008535001
 30
0
 40
2
 41
0.8888888888888888
 71
    1
 72
    1
  1
8
  7
standard
210
0
220
0
230
1
 50
0
 73
    2
 44
1
  0
MTEXT
  5
1F8
100
AcDbEntity
  8
0
  6
ByLayer
 62
  256
370
   -1
100
AcDbMText
 10
100.6549590807162
 20
-15.18499301378081
 30
0
 40
2
 41
0.8888888888888888
 71
    1
 72
    1
  1
8
  7
standard
210
0
220
0
230
1
 50
0
 73
    2
 44
1
  0
MTEXT
  5
1F9
100
AcDbEntity
  8
0
  6
ByLayer
 62
  256
370
   -1
100
AcDbMText
 10
54.36069218644951
 20
110.6503121601601
 30
0
 40
2
 41
5.333333333333457
 71
    1
 72
    1
  1
3401
  7
standard
210
0
220
0
230
1
 50
90
 73
    2
 44
1
  0
MTEXT
  5
1FA
100
AcDbEntity
  8
0
  6
ByLayer
 62
  256
370
   -1
100
AcDbMText
 10
81.89175242281266
 20
110.8256692317293
 30
0
 40
2
 41
5.777777777777902
 71
    1
 72
    1
  1
3402
  7
standard
210
0
220
0
230
1
 50
90
 73
    2
 44
1
  0
MTEXT
  5
1FB
100
AcDbEntity
  8
0
  6
ByLayer
 62
  256
370
   -1
100
AcDbMText
 10
303.5829461493982
 20
118.3460956776393
 30
0
 40
4
 41
21.22222137421387
 71
    1
 72
    1
  1
SW3404\P\PMOXA
  7
standard
210
0
220
0
230
1
 50
0
 73
    2
 44
1
  0
LINE
  5
1FC
100
AcDbEntity
  8
0
  6
ByLayer
 62
  256
370
   -1
100
AcDbLine
 10
253.8404769205084
 20
61.75522050454159
 11
254.2193433039718
 21
44.70623324868655
  0
LINE
  5
1FD
100
AcDbEntity
  8
0
  6
ByLayer
 62
  256
370
   -1
100
AcDbLine
 10
265.9642011913386
 20
62.13408688800504
 11
266.343067574802
 21
45.08509963215
  0
LINE
  5
1FE
100
AcDbEntity
  8
0
  6
ByLayer
 62
  256
370
   -1
100
AcDbLine
 10
279.2245246125592
 20
61.37635412107814
 11
279.6033909960227
 21
44.32736686522311
  0
LINE
  5
1FF
100
AcDbEntity
  8
0
  6
ByLayer
 62
  256
370
   -1
100
AcDbLine
 10
290.969382499926
 20
62.13408688800504
 11
291.3482488833895
 21
45.08509963215
  0
LINE
  5
200
100
AcDbEntity
  8
0
  6
ByLayer
 62
  256
370
   -1
100
AcDbLine
 10
304.2297059211467
 20
62.13408688800504
 11
304.6085723046101
 21
45.08509963215
  0
MTEXT
  5
201
100
AcDbEntity
  8
0
  6
ByLayer
 62
  256
370
   -1
100
AcDbMText
 10
317.9579730033872
 20
54.01036261717478
 30
0
 40
4
 41
17.66666666666691
 71
    1
 72
    1
  1
W3404
  7
standard
210
0
220
0
230
1
 50
0
 73
    2
 44
1
  0
LINE
  5
202
100
AcDbEntity
  8
0
  6
ByLayer
 62
  256
370
   -1
100
AcDbLine
 10
249.6729467024105
 20
54.93562560219958
 11
308.0183697557811
 21
53.79902645180924
  0
MTEXT
  5
203
100
AcDbEntity
  8
0
  6
ByLayer
 62
  256
370
   -1
100
AcDbMText
 10
272.6944577322893
 20
38.23457366210042
 30
0
 40
3
 41
12.33333269732689
 71
    1
 72
    1
  1
SERVO
  7
standard
210
0
220
0
230
1
 50
0
 73
    2
 44
1
  0
ENDSEC
  0
SECTION
  2
OBJECTS
  0
DICTIONARY
  5
C
330
0
100
AcDbDictionary
281
    1
  3
ACAD_GROUP
350
D
  3
ACAD_IMAGE_DICT
350
204
  0
DICTIONARY
  5
D
330
C
100
AcDbDictionary
281
    1
  0
IMAGEDEF_REACTOR
  5
111
330
112
100
AcDbRasterImageDefReactor
 90
    2
330
112
  0
DICTIONARY
  5
204
330
C
100
AcDbDictionary
281
    1
  3
SignalUdveksling - 0038 - Kredsskema - 0038 - Image1
350
110
  0
IMAGEDEF
  5
110
102
{ACAD_REACTORS
330
111
102
}
100
AcDbRasterImageDef
 90
    0
  1
SignalUdveksling - 0038 - Kredsskema - 0038 - Image1.bmp
 10
1121
 20
234
 11
1
 21
1
280
    1
281
    0
  0
PLOTSETTINGS
  5
205
100
AcDbPlotSettings
  6
1x1
 40
0
 41
0
 42
0
 43
0
  0
ENDSEC
  0
EOF
