999
dxfrw 0.6.3
  0
SECTION
  2
HEADER
  9
$ACADVER
  1
AC1021
  9
$DWGCODEPAGE
  3
ANSI_1252
  9
$INSBASE
 10
0
 20
0
 30
0
  9
$EXTMIN
 10
31.69613689672207
 20
100
 30
0
  9
$EXTMAX
 10
405
 20
244.3030464140997
 30
0
  9
$LIMMIN
 10
0
 20
0
  9
$LIMMAX
 10
420
 20
297
  9
$ORTHOMODE
 70
    0
  9
$REGENMODE
 70
    1
  9
$FILLMODE
 70
    1
  9
$QTEXTMODE
 70
    0
  9
$MIRRTEXT
 70
    1
  9
$LTSCALE
 40
1
  9
$ATTMODE
 70
    1
  9
$TEXTSIZE
 40
2.5
  9
$TRACEWID
 40
1
  9
$TEXTSTYLE
  7
Standard
  9
$CLAYER
  8
0
  9
$CELTYPE
  6
ByLayer
  9
$CECOLOR
 62
  256
  9
$CELTSCALE
 40
1
  9
$DISPSILH
 70
    0
  9
$DIMSCALE
 40
1
  9
$DIMASZ
 40
2.5
  9
$DIMEXO
 40
0.625
  9
$DIMDLI
 40
3.75
  9
$DIMRND
 40
0
  9
$DIMDLE
 40
0
  9
$DIMEXE
 40
1.25
  9
$DIMTP
 40
0
  9
$DIMTM
 40
0
  9
$DIMTXT
 40
2.5
  9
$DIMCEN
 40
2.5
  9
$DIMTSZ
 40
0
  9
$DIMTOL
 70
    0
  9
$DIMLIM
 70
    0
  9
$DIMTIH
 70
    0
  9
$DIMTOH
 70
    0
  9
$DIMSE1
 70
    0
  9
$DIMSE2
 70
    0
  9
$DIMTAD
 70
    1
  9
$DIMZIN
 70
    8
  9
$DIMBLK
  1

  9
$DIMASO
 70
    1
  9
$DIMSHO
 70
    1
  9
$DIMPOST
  1

  9
$DIMAPOST
  1

  9
$DIMALT
 70
    0
  9
$DIMALTD
 70
    3
  9
$DIMALTF
 40
0.03937007874016
  9
$DIMLFAC
 40
1
  9
$DIMTOFL
 70
    1
  9
$DIMTVP
 40
0
  9
$DIMTIX
 70
    0
  9
$DIMSOXD
 70
    0
  9
$DIMSAH
 70
    0
  9
$DIMBLK1
  1

  9
$DIMBLK2
  1

  9
$DIMSTYLE
  2
ISO-25
  9
$DIMCLRD
 70
    0
  9
$DIMCLRE
 70
    0
  9
$DIMCLRT
 70
    0
  9
$DIMTFAC
 40
1
  9
$DIMGAP
 40
0.625
  9
$DIMJUST
 70
    0
  9
$DIMSD1
 70
    0
  9
$DIMSD2
 70
    0
  9
$DIMTOLJ
 70
    0
  9
$DIMTZIN
 70
    8
  9
$DIMALTZ
 70
    0
  9
$DIMALTTZ
 70
    0
  9
$DIMUPT
 70
    0
  9
$DIMDEC
 70
    2
  9
$DIMTDEC
 70
    2
  9
$DIMALTU
 70
    2
  9
$DIMALTTD
 70
    3
  9
$DIMTXSTY
  7
Standard
  9
$DIMAUNIT
 70
    0
  9
$DIMADEC
 70
    0
  9
$DIMALTRND
 40
0
  9
$DIMAZIN
 70
    0
  9
$DIMDSEP
 70
   44
  9
$DIMATFIT
 70
    3
  9
$DIMFRAC
 70
    0
  9
$DIMLDRBLK
  1

  9
$DIMLUNIT
 70
    2
  9
$DIMLWD
 70
   -2
  9
$DIMLWE
 70
   -2
  9
$DIMTMOVE
 70
    0
  9
$DIMFXL
 40
1
  9
$DIMFXLON
 70
    0
  9
$DIMJOGANG
 40
0.7854
  9
$DIMTFILL
 70
    0
  9
$DIMTFILLCLR
 70
    0
  9
$DIMARCSYM
 70
    0
  9
$DIMLTYPE
  6

  9
$DIMLTEX1
  6

  9
$DIMLTEX2
  6

  9
$LUNITS
 70
    2
  9
$LUPREC
 70
    4
  9
$SKETCHINC
 40
1
  9
$FILLETRAD
 40
10
  9
$AUNITS
 70
    0
  9
$AUPREC
 70
    0
  9
$MENU
  1
.
  9
$ELEVATION
 40
0
  9
$PELEVATION
 40
0
  9
$THICKNESS
 40
0
  9
$LIMCHECK
 70
    0
  9
$CHAMFERA
 40
10
  9
$CHAMFERB
 40
10
  9
$CHAMFERC
 40
20
  9
$CHAMFERD
 40
0
  9
$SKPOLY
 70
    0
  9
$USRTIMER
 70
    1
  9
$ANGBASE
 50
0
  9
$ANGDIR
 70
    0
  9
$PDMODE
 70
    0
  9
$PDSIZE
 40
0
  9
$PLINEWID
 40
0
  9
$SPLFRAME
 70
    0
  9
$SPLINETYPE
 70
    6
  9
$SPLINESEGS
 70
    8
  9
$HANDSEED
  5
20000
  9
$SURFTAB1
 70
    6
  9
$SURFTAB2
 70
    6
  9
$SURFTYPE
 70
    6
  9
$SURFU
 70
    6
  9
$SURFV
 70
    6
  9
$UCSBASE
  2

  9
$UCSNAME
  2

  9
$UCSORG
 10
0
 20
0
 30
0
  9
$UCSXDIR
 10
1
 20
0
 30
0
  9
$UCSYDIR
 10
0
 20
1
 30
0
  9
$UCSORTHOREF
  2

  9
$UCSORTHOVIEW
 70
    0
  9
$UCSORGTOP
 10
0
 20
0
 30
0
  9
$UCSORGBOTTOM
 10
0
 20
0
 30
0
  9
$UCSORGLEFT
 10
0
 20
0
 30
0
  9
$UCSORGRIGHT
 10
0
 20
0
 30
0
  9
$UCSORGFRONT
 10
0
 20
0
 30
0
  9
$UCSORGBACK
 10
0
 20
0
 30
0
  9
$PUCSBASE
  2

  9
$PUCSNAME
  2

  9
$PUCSORG
 10
0
 20
0
 30
0
  9
$PUCSXDIR
 10
1
 20
0
 30
0
  9
$PUCSYDIR
 10
0
 20
1
 30
0
  9
$PUCSORTHOREF
  2

  9
$PUCSORTHOVIEW
 70
    0
  9
$PUCSORGTOP
 10
0
 20
0
 30
0
  9
$PUCSORGBOTTOM
 10
0
 20
0
 30
0
  9
$PUCSORGLEFT
 10
0
 20
0
 30
0
  9
$PUCSORGRIGHT
 10
0
 20
0
 30
0
  9
$PUCSORGFRONT
 10
0
 20
0
 30
0
  9
$PUCSORGBACK
 10
0
 20
0
 30
0
  9
$USERI1
 70
    0
  9
$USERI2
 70
    0
  9
$USERI3
 70
    0
  9
$USERI4
 70
    0
  9
$USERI5
 70
    0
  9
$USERR1
 40
0
  9
$USERR2
 40
0
  9
$USERR3
 40
0
  9
$USERR4
 40
0
  9
$USERR5
 40
0
  9
$WORLDVIEW
 70
    1
  9
$SHADEDGE
 70
    3
  9
$SHADEDIF
 70
   70
  9
$TILEMODE
 70
    1
  9
$MAXACTVP
 70
   64
  9
$PINSBASE
 10
0
 20
0
 30
0
  9
$PLIMCHECK
 70
    0
  9
$PEXTMIN
 10
1e+20
 20
1e+20
 30
1e+20
  9
$PEXTMAX
 10
-1e+20
 20
-1e+20
 30
-1e+20
  9
$GRIDMODE
 70
    0
  9
$SNAPSTYLE
 70
    0
  9
$PLIMMIN
 10
0
 20
0
  9
$PLIMMAX
 10
420
 20
297
  9
$UNITMODE
 70
    0
  9
$VISRETAIN
 70
    1
  9
$PLINEGEN
 70
    0
  9
$PSLTSCALE
 70
    1
  9
$TREEDEPTH
 70
 3020
  9
$CMLSTYLE
  2
Standard
  9
$CMLJUST
 70
    0
  9
$CMLSCALE
 40
20
  9
$PROXYGRAPHICS
 70
    1
  9
$MEASUREMENT
 70
    1
  9
$CELWEIGHT
370
   -1
  9
$ENDCAPS
280
    0
  9
$JOINSTYLE
280
    0
  9
$LWDISPLAY
290
    0
  9
$INSUNITS
 70
    4
  9
$HYPERLINKBASE
  1

  9
$STYLESHEET
  1

  9
$XEDIT
290
    1
  9
$CEPSNTYPE
380
    0
  9
$PSTYLEMODE
290
    1
  9
$EXTNAMES
290
    1
  9
$PSVPSCALE
 40
0
  9
$OLESTARTUP
290
    0
  9
$SORTENTS
280
  127
  9
$INDEXCTL
280
    0
  9
$HIDETEXT
280
    1
  9
$XCLIPFRAME
290
    0
  9
$HALOGAP
280
    0
  9
$OBSCOLOR
 70
  257
  9
$OBSLTYPE
280
    0
  9
$INTERSECTIONDISPLAY
280
    0
  9
$INTERSECTIONCOLOR
 70
  257
  9
$DIMASSOC
280
    1
  9
$PROJECTNAME
  1

  9
$CAMERADISPLAY
290
    0
  9
$LENSLENGTH
 40
50
  9
$CAMERAHEIGHT
 40
0
  9
$STEPSPERSEC
 40
2
  9
$STEPSIZE
 40
50
  9
$3DDWFPREC
 40
2
  9
$PSOLWIDTH
 40
5
  9
$PSOLHEIGHT
 40
80
  9
$LOFTANG1
 40
1.570796326794897
  9
$LOFTANG2
 40
1.570796326794897
  9
$LOFTMAG1
 40
0
  9
$LOFTMAG2
 40
0
  9
$LOFTPARAM
 70
    7
  9
$LOFTNORMALS
280
    1
  9
$LATITUDE
 40
1
  9
$LONGITUDE
 40
1
  9
$NORTHDIRECTION
 40
0
  9
$TIMEZONE
 70
-8000
  9
$LIGHTGLYPHDISPLAY
280
    1
  9
$TILEMODELIGHTSYNCH
280
    1
  9
$SOLIDHIST
280
    1
  9
$SHOWHIST
280
    1
  9
$DWFFRAME
280
    2
  9
$DGNFRAME
280
    0
  9
$REALWORLDSCALE
290
    1
  9
$INTERFERECOLOR
 62
    1
  9
$CSHADOW
280
    0
  9
$SHADOWPLANELOCATION
 40
0
  0
ENDSEC
  0
SECTION
  2
CLASSES
  0
ENDSEC
  0
SECTION
  2
TABLES
  0
TABLE
  2
VPORT
  5
8
330
0
100
AcDbSymbolTable
 70
    1
  0
VPORT
  5
31
330
2
100
AcDbSymbolTableRecord
100
AcDbViewportTableRecord
  2
*ACTIVE
 70
    0
 10
0
 20
0
 11
1
 21
1
 12
168.1876264082316
 22
72.4058627234495
 13
0
 23
0
 14
10
 24
10
 15
10
 25
10
 16
0
 26
0
 36
1
 17
0
 27
0
 37
0
 40
148.1794399921757
 41
1.665775401069519
 42
50
 43
0
 44
0
 50
0
 51
0
 71
    0
 72
  100
 73
    1
 74
    3
 75
    0
 76
    0
 77
    0
 78
    0
281
    0
 65
    1
110
0
120
0
130
0
111
1
121
0
131
0
112
0
122
1
132
0
 79
    0
146
0
348
10020
 60
    7
 61
    5
292
1
282
    1
141
0
142
0
 63
  250
421
3358443
  0
ENDTAB
  0
TABLE
  2
LTYPE
  5
5
330
0
100
AcDbSymbolTable
 70
    4
  0
LTYPE
  5
14
330
5
100
AcDbSymbolTableRecord
100
AcDbLinetypeTableRecord
  2
ByBlock
 70
    0
  3

 72
   65
 73
    0
 40
0
  0
LTYPE
  5
15
330
5
100
AcDbSymbolTableRecord
100
AcDbLinetypeTableRecord
  2
ByLayer
 70
    0
  3

 72
   65
 73
    0
 40
0
  0
LTYPE
  5
16
330
5
100
AcDbSymbolTableRecord
100
AcDbLinetypeTableRecord
  2
Continuous
 70
    0
  3
Solid line
 72
   65
 73
    0
 40
0
  0
LTYPE
  5
32
330
5
100
AcDbSymbolTableRecord
100
AcDbLinetypeTableRecord
  2
DOT
 70
    0
  3
Dot . . . . . . . . . . . . . . . . . . . . . .
 72
   65
 73
    2
 40
6.35
 49
0
 74
    0
 49
-6.35
 74
    0
  0
LTYPE
  5
33
330
5
100
AcDbSymbolTableRecord
100
AcDbLinetypeTableRecord
  2
DOTTINY
 70
    0
  3
Dot (.15x) .....................................
 72
   65
 73
    2
 40
0.9525
 49
0
 74
    0
 49
-0.9525
 74
    0
  0
LTYPE
  5
34
330
5
100
AcDbSymbolTableRecord
100
AcDbLinetypeTableRecord
  2
DOT2
 70
    0
  3
Dot (.5x) .....................................
 72
   65
 73
    2
 40
3.175
 49
0
 74
    0
 49
-3.175
 74
    0
  0
LTYPE
  5
35
330
5
100
AcDbSymbolTableRecord
100
AcDbLinetypeTableRecord
  2
DOTX2
 70
    0
  3
Dot (2x) .  .  .  .  .  .  .  .  .  .  .  .  .
 72
   65
 73
    2
 40
12.7
 49
0
 74
    0
 49
-12.7
 74
    0
  0
LTYPE
  5
36
330
5
100
AcDbSymbolTableRecord
100
AcDbLinetypeTableRecord
  2
DASHED
 70
    0
  3
Dashed _ _ _ _ _ _ _ _ _ _ _ _ _ _ _ _ _
 72
   65
 73
    2
 40
19.05
 49
12.7
 74
    0
 49
-6.35
 74
    0
  0
LTYPE
  5
37
330
5
100
AcDbSymbolTableRecord
100
AcDbLinetypeTableRecord
  2
DASHEDTINY
 70
    0
  3
Dashed (.15x) _ _ _ _ _ _ _ _ _ _ _ _ _ _ _ _ _
 72
   65
 73
    2
 40
2.8575
 49
1.905
 74
    0
 49
-0.9525
 74
    0
  0
LTYPE
  5
38
330
5
100
AcDbSymbolTableRecord
100
AcDbLinetypeTableRecord
  2
DASHED2
 70
    0
  3
Dashed (.5x) _ _ _ _ _ _ _ _ _ _ _ _ _ _ _ _ _
 72
   65
 73
    2
 40
9.524999999999999
 49
6.35
 74
    0
 49
-3.175
 74
    0
  0
LTYPE
  5
39
330
5
100
AcDbSymbolTableRecord
100
AcDbLinetypeTableRecord
  2
DASHEDX2
 70
    0
  3
Dashed (2x) ____  ____  ____  ____  ____  ___
 72
   65
 73
    2
 40
38.09999999999999
 49
25.4
 74
    0
 49
-12.7
 74
    0
  0
LTYPE
  5
3A
330
5
100
AcDbSymbolTableRecord
100
AcDbLinetypeTableRecord
  2
DASHDOT
 70
    0
  3
Dash dot __ . __ . __ . __ . __ . __ . __ . __
 72
   65
 73
    4
 40
25.4
 49
12.7
 74
    0
 49
-6.35
 74
    0
 49
0
 74
    0
 49
-6.35
 74
    0
  0
LTYPE
  5
3B
330
5
100
AcDbSymbolTableRecord
100
AcDbLinetypeTableRecord
  2
DASHDOTTINY
 70
    0
  3
Dash dot (.15x) _._._._._._._._._._._._._._._.
 72
   65
 73
    4
 40
3.81
 49
1.905
 74
    0
 49
-0.9525
 74
    0
 49
0
 74
    0
 49
-0.9525
 74
    0
  0
LTYPE
  5
3C
330
5
100
AcDbSymbolTableRecord
100
AcDbLinetypeTableRecord
  2
DASHDOT2
 70
    0
  3
Dash dot (.5x) _._._._._._._._._._._._._._._.
 72
   65
 73
    4
 40
12.7
 49
6.35
 74
    0
 49
-3.175
 74
    0
 49
0
 74
    0
 49
-3.175
 74
    0
  0
LTYPE
  5
3D
330
5
100
AcDbSymbolTableRecord
100
AcDbLinetypeTableRecord
  2
DASHDOTX2
 70
    0
  3
Dash dot (2x) ____  .  ____  .  ____  .  ___
 72
   65
 73
    4
 40
50.8
 49
25.4
 74
    0
 49
-12.7
 74
    0
 49
0
 74
    0
 49
-12.7
 74
    0
  0
LTYPE
  5
3E
330
5
100
AcDbSymbolTableRecord
100
AcDbLinetypeTableRecord
  2
DIVIDE
 70
    0
  3
Divide ____ . . ____ . . ____ . . ____ . . ____
 72
   65
 73
    6
 40
31.75
 49
12.7
 74
    0
 49
-6.35
 74
    0
 49
0
 74
    0
 49
-6.35
 74
    0
 49
0
 74
    0
 49
-6.35
 74
    0
  0
LTYPE
  5
3F
330
5
100
AcDbSymbolTableRecord
100
AcDbLinetypeTableRecord
  2
DIVIDETINY
 70
    0
  3
Divide (.15x) __..__..__..__..__..__..__..__.._
 72
   65
 73
    6
 40
4.7625
 49
1.905
 74
    0
 49
-0.9525
 74
    0
 49
0
 74
    0
 49
-0.9525
 74
    0
 49
0
 74
    0
 49
-0.9525
 74
    0
  0
LTYPE
  5
40
330
5
100
AcDbSymbolTableRecord
100
AcDbLinetypeTableRecord
  2
DIVIDE2
 70
    0
  3
Divide (.5x) __..__..__..__..__..__..__..__.._
 72
   65
 73
    6
 40
15.875
 49
6.35
 74
    0
 49
-3.175
 74
    0
 49
0
 74
    0
 49
-3.175
 74
    0
 49
0
 74
    0
 49
-3.175
 74
    0
  0
LTYPE
  5
41
330
5
100
AcDbSymbolTableRecord
100
AcDbLinetypeTableRecord
  2
DIVIDEX2
 70
    0
  3
Divide (2x) ________  .  .  ________  .  .  _
 72
   65
 73
    6
 40
63.5
 49
25.4
 74
    0
 49
-12.7
 74
    0
 49
0
 74
    0
 49
-12.7
 74
    0
 49
0
 74
    0
 49
-12.7
 74
    0
  0
LTYPE
  5
42
330
5
100
AcDbSymbolTableRecord
100
AcDbLinetypeTableRecord
  2
BORDER
 70
    0
  3
Border __ __ . __ __ . __ __ . __ __ . __ __ .
 72
   65
 73
    6
 40
44.45
 49
12.7
 74
    0
 49
-6.35
 74
    0
 49
12.7
 74
    0
 49
-6.35
 74
    0
 49
0
 74
    0
 49
-6.35
 74
    0
  0
LTYPE
  5
43
330
5
100
AcDbSymbolTableRecord
100
AcDbLinetypeTableRecord
  2
BORDERTINY
 70
    0
  3
Border (.15x) __.__.__.__.__.__.__.__.__.__.__.
 72
   65
 73
    6
 40
6.6675
 49
1.905
 74
    0
 49
-0.9525
 74
    0
 49
1.905
 74
    0
 49
-0.9525
 74
    0
 49
0
 74
    0
 49
-0.9525
 74
    0
  0
LTYPE
  5
44
330
5
100
AcDbSymbolTableRecord
100
AcDbLinetypeTableRecord
  2
BORDER2
 70
    0
  3
Border (.5x) __.__.__.__.__.__.__.__.__.__.__.
 72
   65
 73
    6
 40
22.225
 49
6.35
 74
    0
 49
-3.175
 74
    0
 49
6.35
 74
    0
 49
-3.175
 74
    0
 49
0
 74
    0
 49
-3.175
 74
    0
  0
LTYPE
  5
45
330
5
100
AcDbSymbolTableRecord
100
AcDbLinetypeTableRecord
  2
BORDERX2
 70
    0
  3
Border (2x) ____  ____  .  ____  ____  .  ___
 72
   65
 73
    6
 40
88.89999999999999
 49
25.4
 74
    0
 49
-12.7
 74
    0
 49
25.4
 74
    0
 49
-12.7
 74
    0
 49
0
 74
    0
 49
-12.7
 74
    0
  0
LTYPE
  5
46
330
5
100
AcDbSymbolTableRecord
100
AcDbLinetypeTableRecord
  2
CENTER
 70
    0
  3
Center ____ _ ____ _ ____ _ ____ _ ____ _ ____
 72
   65
 73
    4
 40
50.8
 49
31.75
 74
    0
 49
-6.35
 74
    0
 49
6.35
 74
    0
 49
-6.35
 74
    0
  0
LTYPE
  5
47
330
5
100
AcDbSymbolTableRecord
100
AcDbLinetypeTableRecord
  2
CENTERTINY
 70
    0
  3
Center (.15x) ___ _ ___ _ ___ _ ___ _ ___ _ ___
 72
   65
 73
    4
 40
7.619999999999999
 49
4.7625
 74
    0
 49
-0.9525
 74
    0
 49
0.9525
 74
    0
 49
-0.9525
 74
    0
  0
LTYPE
  5
48
330
5
100
AcDbSymbolTableRecord
100
AcDbLinetypeTableRecord
  2
CENTER2
 70
    0
  3
Center (.5x) ___ _ ___ _ ___ _ ___ _ ___ _ ___
 72
   65
 73
    4
 40
28.575
 49
19.05
 74
    0
 49
-3.175
 74
    0
 49
3.175
 74
    0
 49
-3.175
 74
    0
  0
LTYPE
  5
49
330
5
100
AcDbSymbolTableRecord
100
AcDbLinetypeTableRecord
  2
CENTERX2
 70
    0
  3
Center (2x) ________  __  ________  __  _____
 72
   65
 73
    4
 40
101.6
 49
63.5
 74
    0
 49
-12.7
 74
    0
 49
12.7
 74
    0
 49
-12.7
 74
    0
  0
ENDTAB
  0
TABLE
  2
LAYER
  5
2
330
0
100
AcDbSymbolTable
 70
    1
  0
LAYER
  5
10
330
2
100
AcDbSymbolTableRecord
100
AcDbLayerTableRecord
  2
0
 70
    0
 62
    7
  6
CONTINUOUS
370
   -3
390
F
  0
ENDTAB
  0
TABLE
  2
STYLE
  5
3
330
0
100
AcDbSymbolTable
 70
    3
  0
STYLE
  5
4A
330
2
100
AcDbSymbolTableRecord
100
AcDbTextStyleTableRecord
  2
Standard
 70
    0
 40
0
 41
1
 50
0
 71
    0
 42
1
  3
Standard
  4

  0
STYLE
  5
4B
330
2
100
AcDbSymbolTableRecord
100
AcDbTextStyleTableRecord
  2
standard
 70
    0
 40
0
 41
1
 50
0
 71
    0
 42
1
  3
standard
  4

  0
STYLE
  5
4C
330
2
100
AcDbSymbolTableRecord
100
AcDbTextStyleTableRecord
  2
Caddy_Vectorfont1p
 70
    0
 40
0
 41
1
 50
0
 71
    0
 42
1
  3
Caddy_Vectorfont1p
  4

  0
ENDTAB
  0
TABLE
  2
VIEW
  5
6
330
0
100
AcDbSymbolTable
 70
    0
  0
ENDTAB
  0
TABLE
  2
UCS
  5
7
330
0
100
AcDbSymbolTable
 70
    0
  0
ENDTAB
  0
TABLE
  2
APPID
  5
9
330
0
100
AcDbSymbolTable
 70
    1
  0
APPID
  5
12
330
9
100
AcDbSymbolTableRecord
100
AcDbRegAppTableRecord
  2
ACAD
 70
    0
  0
APPID
  5
4D
330
9
100
AcDbSymbolTableRecord
100
AcDbRegAppTableRecord
  2
LibreCad
 70
    0
  0
ENDTAB
  0
TABLE
  2
DIMSTYLE
  5
A
330
0
100
AcDbSymbolTable
 70
    1
100
AcDbDimStyleTable
 71
    1
  0
DIMSTYLE
105
4E
330
A
100
AcDbSymbolTableRecord
100
AcDbDimStyleTableRecord
  2
Standard
 70
    0
 40
1
 41
2.5
 42
0.625
 43
0.38
 44
1.25
 45
0
 46
0
 47
0
 48
0
 49
1
140
2.5
141
0.09
142
0
143
25.4
144
1
145
0
146
1
147
0.625
148
0
 71
    0
 72
    0
 73
    0
 74
    1
 75
    0
 76
    0
 77
    0
 78
    8
 79
    0
170
    0
171
    2
172
    0
173
    0
174
    0
175
    0
176
    0
177
    0
178
    0
179
    0
271
    2
272
    4
273
    2
274
    2
275
    0
276
    0
277
    2
278
   44
279
    0
280
    0
281
    0
282
    0
283
    1
284
    0
285
    0
286
    0
288
    0
289
    3
340
4B
  0
ENDTAB
  0
TABLE
  2
BLOCK_RECORD
  5
1
330
0
100
AcDbSymbolTable
 70
    2
  0
BLOCK_RECORD
  5
1F
330
1
100
AcDbSymbolTableRecord
100
AcDbBlockTableRecord
  2
*Model_Space
 70
    0
280
    1
281
    0
  0
BLOCK_RECORD
  5
1E
330
1
100
AcDbSymbolTableRecord
100
AcDbBlockTableRecord
  2
*Paper_Space
 70
    0
280
    1
281
    0
  0
BLOCK_RECORD
  5
4F
330
1
100
AcDbSymbolTableRecord
100
AcDbBlockTableRecord
  2
Blk1
 70
    0
280
    1
281
    0
  0
BLOCK_RECORD
  5
52
330
1
100
AcDbSymbolTableRecord
100
AcDbBlockTableRecord
  2
Blk2
 70
    0
280
    1
281
    0
  0
BLOCK_RECORD
  5
55
330
1
100
AcDbSymbolTableRecord
100
AcDbBlockTableRecord
  2
Blk3
 70
    0
280
    1
281
    0
  0
BLOCK_RECORD
  5
58
330
1
100
AcDbSymbolTableRecord
100
AcDbBlockTableRecord
  2
Blk4
 70
    0
280
    1
281
    0
  0
BLOCK_RECORD
  5
5B
330
1
100
AcDbSymbolTableRecord
100
AcDbBlockTableRecord
  2
Blk5
 70
    0
280
    1
281
    0
  0
BLOCK_RECORD
  5
5E
330
1
100
AcDbSymbolTableRecord
100
AcDbBlockTableRecord
  2
Blk6
 70
    0
280
    1
281
    0
  0
BLOCK_RECORD
  5
61
330
1
100
AcDbSymbolTableRecord
100
AcDbBlockTableRecord
  2
Blk7
 70
    0
280
    1
281
    0
  0
BLOCK_RECORD
  5
64
330
1
100
AcDbSymbolTableRecord
100
AcDbBlockTableRecord
  2
Blk8
 70
    0
280
    1
281
    0
  0
BLOCK_RECORD
  5
67
330
1
100
AcDbSymbolTableRecord
100
AcDbBlockTableRecord
  2
Blk9
 70
    0
280
    1
281
    0
  0
BLOCK_RECORD
  5
6A
330
1
100
AcDbSymbolTableRecord
100
AcDbBlockTableRecord
  2
Blk10
 70
    0
280
    1
281
    0
  0
BLOCK_RECORD
  5
6D
330
1
100
AcDbSymbolTableRecord
100
AcDbBlockTableRecord
  2
Blk11
 70
    0
280
    1
281
    0
  0
BLOCK_RECORD
  5
70
330
1
100
AcDbSymbolTableRecord
100
AcDbBlockTableRecord
  2
Blk12
 70
    0
280
    1
281
    0
  0
BLOCK_RECORD
  5
73
330
1
100
AcDbSymbolTableRecord
100
AcDbBlockTableRecord
  2
Blk13
 70
    0
280
    1
281
    0
  0
BLOCK_RECORD
  5
76
330
1
100
AcDbSymbolTableRecord
100
AcDbBlockTableRecord
  2
Blk14
 70
    0
280
    1
281
    0
  0
BLOCK_RECORD
  5
79
330
1
100
AcDbSymbolTableRecord
100
AcDbBlockTableRecord
  2
Blk15
 70
    0
280
    1
281
    0
  0
BLOCK_RECORD
  5
7C
330
1
100
AcDbSymbolTableRecord
100
AcDbBlockTableRecord
  2
Blk16
 70
    0
280
    1
281
    0
  0
BLOCK_RECORD
  5
7F
330
1
100
AcDbSymbolTableRecord
100
AcDbBlockTableRecord
  2
Blk17
 70
    0
280
    1
281
    0
  0
BLOCK_RECORD
  5
82
330
1
100
AcDbSymbolTableRecord
100
AcDbBlockTableRecord
  2
Blk18
 70
    0
280
    1
281
    0
  0
BLOCK_RECORD
  5
85
330
1
100
AcDbSymbolTableRecord
100
AcDbBlockTableRecord
  2
Blk19
 70
    0
280
    1
281
    0
  0
BLOCK_RECORD
  5
88
330
1
100
AcDbSymbolTableRecord
100
AcDbBlockTableRecord
  2
Blk20
 70
    0
280
    1
281
    0
  0
BLOCK_RECORD
  5
8B
330
1
100
AcDbSymbolTableRecord
100
AcDbBlockTableRecord
  2
Blk21
 70
    0
280
    1
281
    0
  0
BLOCK_RECORD
  5
8E
330
1
100
AcDbSymbolTableRecord
100
AcDbBlockTableRecord
  2
Blk22
 70
    0
280
    1
281
    0
  0
BLOCK_RECORD
  5
91
330
1
100
AcDbSymbolTableRecord
100
AcDbBlockTableRecord
  2
Blk23
 70
    0
280
    1
281
    0
  0
BLOCK_RECORD
  5
94
330
1
100
AcDbSymbolTableRecord
100
AcDbBlockTableRecord
  2
Blk24
 70
    0
280
    1
281
    0
  0
BLOCK_RECORD
  5
97
330
1
100
AcDbSymbolTableRecord
100
AcDbBlockTableRecord
  2
Blk25
 70
    0
280
    1
281
    0
  0
BLOCK_RECORD
  5
9A
330
1
100
AcDbSymbolTableRecord
100
AcDbBlockTableRecord
  2
Blk26
 70
    0
280
    1
281
    0
  0
BLOCK_RECORD
  5
9D
330
1
100
AcDbSymbolTableRecord
100
AcDbBlockTableRecord
  2
Blk27
 70
    0
280
    1
281
    0
  0
BLOCK_RECORD
  5
A0
330
1
100
AcDbSymbolTableRecord
100
AcDbBlockTableRecord
  2
Blk28
 70
    0
280
    1
281
    0
  0
BLOCK_RECORD
  5
A3
330
1
100
AcDbSymbolTableRecord
100
AcDbBlockTableRecord
  2
Blk29
 70
    0
280
    1
281
    0
  0
BLOCK_RECORD
  5
A6
330
1
100
AcDbSymbolTableRecord
100
AcDbBlockTableRecord
  2
Blk30
 70
    0
280
    1
281
    0
  0
BLOCK_RECORD
  5
A9
330
1
100
AcDbSymbolTableRecord
100
AcDbBlockTableRecord
  2
Blk31
 70
    0
280
    1
281
    0
  0
BLOCK_RECORD
  5
AC
330
1
100
AcDbSymbolTableRecord
100
AcDbBlockTableRecord
  2
Blk32
 70
    0
280
    1
281
    0
  0
BLOCK_RECORD
  5
AF
330
1
100
AcDbSymbolTableRecord
100
AcDbBlockTableRecord
  2
Blk33
 70
    0
280
    1
281
    0
  0
BLOCK_RECORD
  5
B2
330
1
100
AcDbSymbolTableRecord
100
AcDbBlockTableRecord
  2
Blk34
 70
    0
280
    1
281
    0
  0
BLOCK_RECORD
  5
B5
330
1
100
AcDbSymbolTableRecord
100
AcDbBlockTableRecord
  2
Blk35
 70
    0
280
    1
281
    0
  0
BLOCK_RECORD
  5
B8
330
1
100
AcDbSymbolTableRecord
100
AcDbBlockTableRecord
  2
Blk36
 70
    0
280
    1
281
    0
  0
BLOCK_RECORD
  5
BB
330
1
100
AcDbSymbolTableRecord
100
AcDbBlockTableRecord
  2
Blk37
 70
    0
280
    1
281
    0
  0
BLOCK_RECORD
  5
BE
330
1
100
AcDbSymbolTableRecord
100
AcDbBlockTableRecord
  2
Blk38
 70
    0
280
    1
281
    0
  0
BLOCK_RECORD
  5
C1
330
1
100
AcDbSymbolTableRecord
100
AcDbBlockTableRecord
  2
Blk39
 70
    0
280
    1
281
    0
  0
BLOCK_RECORD
  5
C4
330
1
100
AcDbSymbolTableRecord
100
AcDbBlockTableRecord
  2
Blk40
 70
    0
280
    1
281
    0
  0
BLOCK_RECORD
  5
C7
330
1
100
AcDbSymbolTableRecord
100
AcDbBlockTableRecord
  2
Blk41
 70
    0
280
    1
281
    0
  0
BLOCK_RECORD
  5
CA
330
1
100
AcDbSymbolTableRecord
100
AcDbBlockTableRecord
  2
Blk42
 70
    0
280
    1
281
    0
  0
BLOCK_RECORD
  5
CD
330
1
100
AcDbSymbolTableRecord
100
AcDbBlockTableRecord
  2
Blk43
 70
    0
280
    1
281
    0
  0
BLOCK_RECORD
  5
D0
330
1
100
AcDbSymbolTableRecord
100
AcDbBlockTableRecord
  2
Blk44
 70
    0
280
    1
281
    0
  0
ENDTAB
  0
ENDSEC
  0
SECTION
  2
BLOCKS
  0
BLOCK
  5
20
330
1F
100
AcDbEntity
  8
0
100
AcDbBlockBegin
  2
*Model_Space
 70
    0
 10
0
 20
0
 30
0
  3
*Model_Space
  1

  0
ENDBLK
  5
21
330
1F
100
AcDbEntity
  8
0
100
AcDbBlockEnd
  0
BLOCK
  5
1C
330
1B
100
AcDbEntity
  8
0
100
AcDbBlockBegin
  2
*Paper_Space
 70
    0
 10
0
 20
0
 30
0
  3
*Paper_Space
  1

  0
ENDBLK
  5
1D
330
1F
100
AcDbEntity
  8
0
100
AcDbBlockEnd
  0
BLOCK
  5
50
330
4F
100
AcDbEntity
  8
0
100
AcDbBlockBegin
  2
Blk1
 70
    0
 10
0
 20
0
  3
Blk1
  1

  0
LINE
  5
D3
100
AcDbEntity
  8
0
  6
CONTINUOUS
 62
  256
370
   50
100
AcDbLine
 10
10
 20
10
 11
10
 21
275
  0
LINE
  5
D4
100
AcDbEntity
  8
0
  6
CONTINUOUS
 62
  256
370
   50
100
AcDbLine
 10
10
 20
275
 11
410
 21
275
  0
LINE
  5
D5
100
AcDbEntity
  8
0
  6
CONTINUOUS
 62
  256
370
   50
100
AcDbLine
 10
410
 20
275
 11
410
 21
10
  0
LINE
  5
D6
100
AcDbEntity
  8
0
  6
CONTINUOUS
 62
  256
370
   25
100
AcDbLine
 10
50
 20
270
 11
50
 21
275
  0
TEXT
  5
D7
100
AcDbEntity
  8
0
  6
ByLayer
 62
  256
370
   25
100
AcDbText
 10
30
 20
271.2000122070312
 30
0
 40
2.449981689453125
  1
0
 50
0
 41
0.9
 51
0
  7
Caddy_Vectorfont1p
 71
    0
 72
    1
 11
30
 21
271.2000122070312
 31
0
210
0
220
0
230
1
100
AcDbText
  0
LINE
  5
D8
100
AcDbEntity
  8
0
  6
CONTINUOUS
 62
  256
370
   25
100
AcDbLine
 10
90
 20
270
 11
90
 21
275
  0
LINE
  5
D9
100
AcDbEntity
  8
0
  6
CONTINUOUS
 62
  256
370
   25
100
AcDbLine
 10
130
 20
270
 11
130
 21
275
  0
LINE
  5
DA
100
AcDbEntity
  8
0
  6
CONTINUOUS
 62
  256
370
   25
100
AcDbLine
 10
170
 20
270
 11
170
 21
275
  0
LINE
  5
DB
100
AcDbEntity
  8
0
  6
CONTINUOUS
 62
  256
370
   25
100
AcDbLine
 10
210
 20
270
 11
210
 21
275
  0
LINE
  5
DC
100
AcDbEntity
  8
0
  6
CONTINUOUS
 62
  256
370
   25
100
AcDbLine
 10
250
 20
270
 11
250
 21
275
  0
LINE
  5
DD
100
AcDbEntity
  8
0
  6
CONTINUOUS
 62
  256
370
   25
100
AcDbLine
 10
290
 20
270
 11
290
 21
275
  0
LINE
  5
DE
100
AcDbEntity
  8
0
  6
CONTINUOUS
 62
  256
370
   25
100
AcDbLine
 10
330
 20
270
 11
330
 21
275
  0
LINE
  5
DF
100
AcDbEntity
  8
0
  6
CONTINUOUS
 62
  256
370
   25
100
AcDbLine
 10
370
 20
270
 11
370
 21
275
  0
TEXT
  5
E0
100
AcDbEntity
  8
0
  6
ByLayer
 62
  256
370
   25
100
AcDbText
 10
69.99999237060547
 20
271.2000122070312
 30
0
 40
2.449981689453125
  1
1
 50
0
 41
0.9
 51
0
  7
Caddy_Vectorfont1p
 71
    0
 72
    1
 11
69.99999237060547
 21
271.2000122070312
 31
0
210
0
220
0
230
1
100
AcDbText
  0
TEXT
  5
E1
100
AcDbEntity
  8
0
  6
ByLayer
 62
  256
370
   25
100
AcDbText
 10
110
 20
271.2000122070312
 30
0
 40
2.449981689453125
  1
2
 50
0
 41
0.9
 51
0
  7
Caddy_Vectorfont1p
 71
    0
 72
    1
 11
110
 21
271.2000122070312
 31
0
210
0
220
0
230
1
100
AcDbText
  0
TEXT
  5
E2
100
AcDbEntity
  8
0
  6
ByLayer
 62
  256
370
   25
100
AcDbText
 10
150
 20
271.2000122070312
 30
0
 40
2.449981689453125
  1
3
 50
0
 41
0.9
 51
0
  7
Caddy_Vectorfont1p
 71
    0
 72
    1
 11
150
 21
271.2000122070312
 31
0
210
0
220
0
230
1
100
AcDbText
  0
TEXT
  5
E3
100
AcDbEntity
  8
0
  6
ByLayer
 62
  256
370
   25
100
AcDbText
 10
190
 20
271.2000122070312
 30
0
 40
2.449981689453125
  1
4
 50
0
 41
0.9
 51
0
  7
Caddy_Vectorfont1p
 71
    0
 72
    1
 11
190
 21
271.2000122070312
 31
0
210
0
220
0
230
1
100
AcDbText
  0
TEXT
  5
E4
100
AcDbEntity
  8
0
  6
ByLayer
 62
  256
370
   25
100
AcDbText
 10
230
 20
271.2000122070312
 30
0
 40
2.449981689453125
  1
5
 50
0
 41
0.9
 51
0
  7
Caddy_Vectorfont1p
 71
    0
 72
    1
 11
230
 21
271.2000122070312
 31
0
210
0
220
0
230
1
100
AcDbText
  0
TEXT
  5
E5
100
AcDbEntity
  8
0
  6
ByLayer
 62
  256
370
   25
100
AcDbText
 10
270
 20
271.2000122070312
 30
0
 40
2.449981689453125
  1
6
 50
0
 41
0.9
 51
0
  7
Caddy_Vectorfont1p
 71
    0
 72
    1
 11
270
 21
271.2000122070312
 31
0
210
0
220
0
230
1
100
AcDbText
  0
TEXT
  5
E6
100
AcDbEntity
  8
0
  6
ByLayer
 62
  256
370
   25
100
AcDbText
 10
310
 20
271.2000122070312
 30
0
 40
2.449981689453125
  1
7
 50
0
 41
0.9
 51
0
  7
Caddy_Vectorfont1p
 71
    0
 72
    1
 11
310
 21
271.2000122070312
 31
0
210
0
220
0
230
1
100
AcDbText
  0
TEXT
  5
E7
100
AcDbEntity
  8
0
  6
ByLayer
 62
  256
370
   25
100
AcDbText
 10
350
 20
271.2000122070312
 30
0
 40
2.449981689453125
  1
8
 50
0
 41
0.9
 51
0
  7
Caddy_Vectorfont1p
 71
    0
 72
    1
 11
350
 21
271.2000122070312
 31
0
210
0
220
0
230
1
100
AcDbText
  0
TEXT
  5
E8
100
AcDbEntity
  8
0
  6
ByLayer
 62
  256
370
   25
100
AcDbText
 10
390
 20
271.2000122070312
 30
0
 40
2.449981689453125
  1
9
 50
0
 41
0.9
 51
0
  7
Caddy_Vectorfont1p
 71
    0
 72
    1
 11
390
 21
271.2000122070312
 31
0
210
0
220
0
230
1
100
AcDbText
  0
LINE
  5
E9
100
AcDbEntity
  8
0
  6
CONTINUOUS
 62
  256
370
   25
100
AcDbLine
 10
15
 20
270
 11
15
 21
30
  0
LINE
  5
EA
100
AcDbEntity
  8
0
  6
CONTINUOUS
 62
  256
370
   25
100
AcDbLine
 10
405
 20
270
 11
405
 21
30
  0
LINE
  5
EB
100
AcDbEntity
  8
0
  6
CONTINUOUS
 62
  256
370
   25
100
AcDbLine
 10
15
 20
230
 11
10
 21
230
  0
LINE
  5
EC
100
AcDbEntity
  8
0
  6
CONTINUOUS
 62
  256
370
   25
100
AcDbLine
 10
15
 20
190
 11
10
 21
190
  0
LINE
  5
ED
100
AcDbEntity
  8
0
  6
CONTINUOUS
 62
  256
370
   25
100
AcDbLine
 10
15
 20
150
 11
10
 21
150
  0
LINE
  5
EE
100
AcDbEntity
  8
0
  6
CONTINUOUS
 62
  256
370
   25
100
AcDbLine
 10
10
 20
110
 11
15
 21
110
  0
LINE
  5
EF
100
AcDbEntity
  8
0
  6
CONTINUOUS
 62
  256
370
   25
100
AcDbLine
 10
10
 20
70
 11
15
 21
70
  0
TEXT
  5
F0
100
AcDbEntity
  8
0
  6
ByLayer
 62
  256
370
   25
100
AcDbText
 10
12.5
 20
248.6999969482422
 30
0
 40
2.449996948242188
  1
A
 50
0
 41
0.9
 51
0
  7
Caddy_Vectorfont1p
 71
    0
 72
    1
 11
12.5
 21
248.6999969482422
 31
0
210
0
220
0
230
1
100
AcDbText
  0
TEXT
  5
F1
100
AcDbEntity
  8
0
  6
ByLayer
 62
  256
370
   25
100
AcDbText
 10
12.5
 20
208.6999969482422
 30
0
 40
2.449996948242188
  1
B
 50
0
 41
0.9
 51
0
  7
Caddy_Vectorfont1p
 71
    0
 72
    1
 11
12.5
 21
208.6999969482422
 31
0
210
0
220
0
230
1
100
AcDbText
  0
TEXT
  5
F2
100
AcDbEntity
  8
0
  6
ByLayer
 62
  256
370
   25
100
AcDbText
 10
12.5
 20
168.6999969482422
 30
0
 40
2.449996948242188
  1
C
 50
0
 41
0.9
 51
0
  7
Caddy_Vectorfont1p
 71
    0
 72
    1
 11
12.5
 21
168.6999969482422
 31
0
210
0
220
0
230
1
100
AcDbText
  0
TEXT
  5
F3
100
AcDbEntity
  8
0
  6
ByLayer
 62
  256
370
   25
100
AcDbText
 10
12.5
 20
128.6999969482422
 30
0
 40
2.449996948242188
  1
D
 50
0
 41
0.9
 51
0
  7
Caddy_Vectorfont1p
 71
    0
 72
    1
 11
12.5
 21
128.6999969482422
 31
0
210
0
220
0
230
1
100
AcDbText
  0
TEXT
  5
F4
100
AcDbEntity
  8
0
  6
ByLayer
 62
  256
370
   25
100
AcDbText
 10
12.5
 20
88.69999694824219
 30
0
 40
2.450004577636719
  1
E
 50
0
 41
0.9
 51
0
  7
Caddy_Vectorfont1p
 71
    0
 72
    1
 11
12.5
 21
88.69999694824219
 31
0
210
0
220
0
230
1
100
AcDbText
  0
TEXT
  5
F5
100
AcDbEntity
  8
0
  6
ByLayer
 62
  256
370
   25
100
AcDbText
 10
12.5
 20
48.70000076293945
 30
0
 40
2.450000762939453
  1
F
 50
0
 41
0.9
 51
0
  7
Caddy_Vectorfont1p
 71
    0
 72
    1
 11
12.5
 21
48.70000076293945
 31
0
210
0
220
0
230
1
100
AcDbText
  0
LINE
  5
F6
100
AcDbEntity
  8
0
  6
CONTINUOUS
 62
  256
370
   25
100
AcDbLine
 10
410
 20
230
 11
405
 21
230
  0
LINE
  5
F7
100
AcDbEntity
  8
0
  6
CONTINUOUS
 62
  256
370
   25
100
AcDbLine
 10
410
 20
190
 11
405
 21
190
  0
LINE
  5
F8
100
AcDbEntity
  8
0
  6
CONTINUOUS
 62
  256
370
   25
100
AcDbLine
 10
410
 20
150
 11
405
 21
150
  0
LINE
  5
F9
100
AcDbEntity
  8
0
  6
CONTINUOUS
 62
  256
370
   25
100
AcDbLine
 10
405
 20
110
 11
410
 21
110
  0
LINE
  5
FA
100
AcDbEntity
  8
0
  6
CONTINUOUS
 62
  256
370
   25
100
AcDbLine
 10
405
 20
70
 11
410
 21
70
  0
TEXT
  5
FB
100
AcDbEntity
  8
0
  6
ByLayer
 62
  256
370
   25
100
AcDbText
 10
407.5
 20
248.6999969482422
 30
0
 40
2.449996948242188
  1
A
 50
0
 41
0.9
 51
0
  7
Caddy_Vectorfont1p
 71
    0
 72
    1
 11
407.5
 21
248.6999969482422
 31
0
210
0
220
0
230
1
100
AcDbText
  0
TEXT
  5
FC
100
AcDbEntity
  8
0
  6
ByLayer
 62
  256
370
   25
100
AcDbText
 10
407.5
 20
208.6999969482422
 30
0
 40
2.449996948242188
  1
B
 50
0
 41
0.9
 51
0
  7
Caddy_Vectorfont1p
 71
    0
 72
    1
 11
407.5
 21
208.6999969482422
 31
0
210
0
220
0
230
1
100
AcDbText
  0
TEXT
  5
FD
100
AcDbEntity
  8
0
  6
ByLayer
 62
  256
370
   25
100
AcDbText
 10
407.5
 20
168.6999969482422
 30
0
 40
2.449996948242188
  1
C
 50
0
 41
0.9
 51
0
  7
Caddy_Vectorfont1p
 71
    0
 72
    1
 11
407.5
 21
168.6999969482422
 31
0
210
0
220
0
230
1
100
AcDbText
  0
TEXT
  5
FE
100
AcDbEntity
  8
0
  6
ByLayer
 62
  256
370
   25
100
AcDbText
 10
407.5
 20
128.6999969482422
 30
0
 40
2.449996948242188
  1
D
 50
0
 41
0.9
 51
0
  7
Caddy_Vectorfont1p
 71
    0
 72
    1
 11
407.5
 21
128.6999969482422
 31
0
210
0
220
0
230
1
100
AcDbText
  0
TEXT
  5
FF
100
AcDbEntity
  8
0
  6
ByLayer
 62
  256
370
   25
100
AcDbText
 10
407.5
 20
88.69999694824219
 30
0
 40
2.450004577636719
  1
E
 50
0
 41
0.9
 51
0
  7
Caddy_Vectorfont1p
 71
    0
 72
    1
 11
407.5
 21
88.69999694824219
 31
0
210
0
220
0
230
1
100
AcDbText
  0
TEXT
  5
100
100
AcDbEntity
  8
0
  6
ByLayer
 62
  256
370
   25
100
AcDbText
 10
407.5
 20
48.70000076293945
 30
0
 40
2.450000762939453
  1
F
 50
0
 41
0.9
 51
0
  7
Caddy_Vectorfont1p
 71
    0
 72
    1
 11
407.5
 21
48.70000076293945
 31
0
210
0
220
0
230
1
100
AcDbText
  0
LINE
  5
101
100
AcDbEntity
  8
0
  6
CONTINUOUS
 62
  256
370
   25
100
AcDbLine
 10
15
 20
270
 11
405
 21
270
  0
LINE
  5
102
100
AcDbEntity
  8
0
  6
CONTINUOUS
 62
  256
370
   50
100
AcDbLine
 10
410
 20
10
 11
10
 21
10
  0
LINE
  5
103
100
AcDbEntity
  8
0
  6
CONTINUOUS
 62
  256
370
   50
100
AcDbLine
 10
10
 20
30
 11
410
 21
30
  0
LINE
  5
104
100
AcDbEntity
  8
0
  6
CONTINUOUS
 62
  256
370
   25
100
AcDbLine
 10
260
 20
20
 11
410
 21
20
  0
LINE
  5
105
100
AcDbEntity
  8
0
  6
CONTINUOUS
 62
  256
370
   25
100
AcDbLine
 10
10
 20
30
 11
15
 21
30
  0
LINE
  5
106
100
AcDbEntity
  8
0
  6
CONTINUOUS
 62
  256
370
   25
100
AcDbLine
 10
405
 20
30
 11
410
 21
30
  0
LINE
  5
107
100
AcDbEntity
  8
0
  6
CONTINUOUS
 62
  256
370
   50
100
AcDbLine
 10
65
 20
30
 11
65
 21
10
  0
TEXT
  5
108
100
AcDbEntity
  8
0
  6
ByLayer
 62
  256
370
   25
100
AcDbText
 10
69.19999694824219
 20
14.19999980926514
 30
0
 40
2.449999809265137
  1
Kassepakker
 50
0
 41
0.9
 51
0
  7
Caddy_Vectorfont1p
 71
    0
210
0
220
0
230
1
100
AcDbText
  0
TEXT
  5
109
100
AcDbEntity
  8
0
  6
ByLayer
 62
  256
370
   25
100
AcDbText
 10
69.19999694824219
 20
23.20000076293945
 30
0
 40
2.44999885559082
  1
MPN - GUIDED BY VISION
 50
0
 41
0.9
 51
0
  7
Caddy_Vectorfont1p
 71
    0
210
0
220
0
230
1
100
AcDbText
  0
TEXT
  5
10A
100
AcDbEntity
  8
0
  6
ByLayer
 62
  256
370
   25
100
AcDbText
 10
69.19999694824219
 20
18.70000076293945
 30
0
 40
2.44999885559082
  1
Søris
 50
0
 41
0.9
 51
0
  7
Caddy_Vectorfont1p
 71
    0
210
0
220
0
230
1
100
AcDbText
  0
LINE
  5
10B
100
AcDbEntity
  8
0
  6
CONTINUOUS
 62
  256
370
   50
100
AcDbLine
 10
160
 20
30
 11
160
 21
10
  0
TEXT
  5
10C
100
AcDbEntity
  8
0
  6
ByLayer
 62
  256
370
   25
100
AcDbText
 10
164.1999969482422
 20
23.20000076293945
 30
0
 40
2.44999885559082
  1
Nødstopskreds
 50
0
 41
0.9
 51
0
  7
Caddy_Vectorfont1p
 71
    0
210
0
220
0
230
1
100
AcDbText
  0
LINE
  5
10D
100
AcDbEntity
  8
0
  6
CONTINUOUS
 62
  256
370
   50
100
AcDbLine
 10
260
 20
30
 11
260
 21
10
  0
TEXT
  5
10E
100
AcDbEntity
  8
0
  6
ByLayer
 62
  256
370
   25
100
AcDbText
 10
261.2000122070312
 20
26.20000076293945
 30
0
 40
2.44999885559082
  1
Projekt:
 50
0
 41
0.9
 51
0
  7
Caddy_Vectorfont1p
 71
    0
210
0
220
0
230
1
100
AcDbText
  0
TEXT
  5
10F
100
AcDbEntity
  8
0
  6
ByLayer
 62
  256
370
   25
100
AcDbText
 10
261.2000122070312
 20
16.20000076293945
 30
0
 40
2.44999885559082
  1
Dato:
 50
0
 41
0.9
 51
0
  7
Caddy_Vectorfont1p
 71
    0
210
0
220
0
230
1
100
AcDbText
  0
LINE
  5
110
100
AcDbEntity
  8
0
  6
CONTINUOUS
 62
  256
370
   25
100
AcDbLine
 10
290
 20
30
 11
290
 21
10
  0
TEXT
  5
111
100
AcDbEntity
  8
0
  6
ByLayer
 62
  256
370
   25
100
AcDbText
 10
291.2000122070312
 20
16.20000076293945
 30
0
 40
2.44999885559082
  1
Funkt.:
 50
0
 41
0.9
 51
0
  7
Caddy_Vectorfont1p
 71
    0
210
0
220
0
230
1
100
AcDbText
  0
TEXT
  5
112
100
AcDbEntity
  8
0
  6
ByLayer
 62
  256
370
   25
100
AcDbText
 10
291.2000122070312
 20
26.20000076293945
 30
0
 40
2.44999885559082
  1
Tegn. nr.:
 50
0
 41
0.9
 51
0
  7
Caddy_Vectorfont1p
 71
    0
210
0
220
0
230
1
100
AcDbText
  0
LINE
  5
113
100
AcDbEntity
  8
0
  6
CONTINUOUS
 62
  256
370
   25
100
AcDbLine
 10
320
 20
20
 11
320
 21
10
  0
TEXT
  5
114
100
AcDbEntity
  8
0
  6
ByLayer
 62
  256
370
   25
100
AcDbText
 10
321.2000122070312
 20
16.20000076293945
 30
0
 40
2.44999885559082
  1
Plac.:
 50
0
 41
0.9
 51
0
  7
Caddy_Vectorfont1p
 71
    0
210
0
220
0
230
1
100
AcDbText
  0
TEXT
  5
115
100
AcDbEntity
  8
0
  6
ByLayer
 62
  256
370
   25
100
AcDbText
 10
316.2999877929688
 20
11.69999980926514
 30
0
 40
2.449999809265137
  1
=
 50
0
 41
0.9
 51
0
  7
Caddy_Vectorfont1p
 71
    0
 72
    2
 11
316.2999877929688
 21
11.69999980926514
 31
0
210
0
220
0
230
1
100
AcDbText
  0
LINE
  5
116
100
AcDbEntity
  8
0
  6
CONTINUOUS
 62
  256
370
   25
100
AcDbLine
 10
382.5
 20
20
 11
382.5
 21
30
  0
LINE
  5
117
100
AcDbEntity
  8
0
  6
CONTINUOUS
 62
  256
370
   25
100
AcDbLine
 10
382.5
 20
10
 11
382.5
 21
20
  0
TEXT
  5
118
100
AcDbEntity
  8
0
  6
ByLayer
 62
  256
370
   25
100
AcDbText
 10
351.3000183105469
 20
11.69999980926514
 30
0
 40
2.449999809265137
  1
+
 50
0
 41
0.9
 51
0
  7
Caddy_Vectorfont1p
 71
    0
 72
    2
 11
351.3000183105469
 21
11.69999980926514
 31
0
210
0
220
0
230
1
100
AcDbText
  0
LINE
  5
119
100
AcDbEntity
  8
0
  6
CONTINUOUS
 62
  256
370
   25
100
AcDbLine
 10
355
 20
10
 11
355
 21
20
  0
LINE
  5
11A
100
AcDbEntity
  8
0
  6
CONTINUOUS
 62
  256
370
   25
100
AcDbLine
 10
355
 20
20
 11
355
 21
30
  0
TEXT
  5
11B
100
AcDbEntity
  8
0
  6
ByLayer
 62
  256
370
   25
100
AcDbText
 10
356.2000122070312
 20
26.20000076293945
 30
0
 40
2.44999885559082
  1
Rev.:
 50
0
 41
0.9
 51
0
  7
Caddy_Vectorfont1p
 71
    0
210
0
220
0
230
1
100
AcDbText
  0
LINE
  5
11C
100
AcDbEntity
  8
0
  6
CONTINUOUS
 62
  256
370
   25
100
AcDbLine
 10
337.5
 20
20
 11
337.5
 21
30
  0
TEXT
  5
11D
100
AcDbEntity
  8
0
  6
ByLayer
 62
  256
370
   25
100
AcDbText
 10
338.7000122070312
 20
26.20000076293945
 30
0
 40
2.44999885559082
  1
Init.:
 50
0
 41
0.9
 51
0
  7
Caddy_Vectorfont1p
 71
    0
210
0
220
0
230
1
100
AcDbText
  0
TEXT
  5
11E
100
AcDbEntity
  8
0
  6
ByLayer
 62
  256
370
   35
100
AcDbText
 10
403.25
 20
21.75
 30
0
 40
3.5
  1
9
 50
0
 41
0.9
 51
0
  7
Caddy_Vectorfont1p
 71
    0
 72
    2
 11
403.25
 21
21.75
 31
0
210
0
220
0
230
1
100
AcDbText
  0
TEXT
  5
11F
100
AcDbEntity
  8
0
  6
ByLayer
 62
  256
370
   25
100
AcDbText
 10
383.7000122070312
 20
26.20000076293945
 30
0
 40
2.44999885559082
  1
Blad:
 50
0
 41
0.9
 51
0
  7
Caddy_Vectorfont1p
 71
    0
210
0
220
0
230
1
100
AcDbText
  0
TEXT
  5
120
100
AcDbEntity
  8
0
  6
ByLayer
 62
  256
370
   25
100
AcDbText
 10
406.3000183105469
 20
11.69999980926514
 30
0
 40
2.449999809265137
  1
11
 50
0
 41
0.9
 51
0
  7
Caddy_Vectorfont1p
 71
    0
 72
    2
 11
406.3000183105469
 21
11.69999980926514
 31
0
210
0
220
0
230
1
100
AcDbText
  0
TEXT
  5
121
100
AcDbEntity
  8
0
  6
ByLayer
 62
  256
370
   25
100
AcDbText
 10
383.7000122070312
 20
16.20000076293945
 30
0
 40
2.44999885559082
  1
Næste blad:
 50
0
 41
0.9
 51
0
  7
Caddy_Vectorfont1p
 71
    0
210
0
220
0
230
1
100
AcDbText
  0
TEXT
  5
122
100
AcDbEntity
  8
0
  6
ByLayer
 62
  256
370
   25
100
AcDbText
 10
356.2000122070312
 20
16.20000076293945
 30
0
 40
2.44999885559082
  1
Antal blade:
 50
0
 41
0.9
 51
0
  7
Caddy_Vectorfont1p
 71
    0
210
0
220
0
230
1
100
AcDbText
  0
TEXT
  5
123
100
AcDbEntity
  8
0
  6
ByLayer
 62
  256
370
   25
100
AcDbText
 10
378.8000183105469
 20
11.69999980926514
 30
0
 40
2.449999809265137
  1
31
 50
0
 41
0.9
 51
0
  7
Caddy_Vectorfont1p
 71
    0
 72
    2
 11
378.8000183105469
 21
11.69999980926514
 31
0
210
0
220
0
230
1
100
AcDbText
  0
IMAGE
  5
126
100
AcDbEntity
  8
0
  6
ByLayer
 62
  256
370
   -1
100
AcDbRasterImage
 10
12
 20
15
 30
0
 11
0.04549509366636931
 21
0
 31
0
 12
0
 22
0.04843339589486619
 32
0
 13
1121
 23
234
340
124
 70
    1
280
    0
281
   50
282
   50
283
    0
360
125
  0
TEXT
  5
127
100
AcDbEntity
  8
0
  6
ByLayer
 62
  256
370
   25
100
AcDbText
 10
286.2999877929688
 20
21.70000076293945
 30
0
 40
2.45
  1
CP_servo
 50
0
 41
0.9
 51
0
  7
standard
 71
    0
 72
    2
 11
286.2999877929688
 21
21.70000076293945
 31
0
210
0
220
0
230
1
100
AcDbText
  0
TEXT
  5
128
100
AcDbEntity
  8
0
  6
ByLayer
 62
  256
370
   25
100
AcDbText
 10
286.2999572753906
 20
11.69999980926514
 30
0
 40
2.45
  1
2025
 50
0
 41
0.9
 51
0
  7
standard
 71
    0
 72
    2
 11
286.2999572753906
 21
11.69999980926514
 31
0
210
0
220
0
230
1
100
AcDbText
  0
ENDBLK
  5
51
330
4F
100
AcDbEntity
  8
0
100
AcDbBlockEnd
  0
BLOCK
  5
53
330
52
100
AcDbEntity
  8
0
100
AcDbBlockBegin
  2
Blk2
 70
    0
 10
0
 20
0
  3
Blk2
  1

  0
CIRCLE
  5
129
100
AcDbEntity
  8
0
  6
CONTINUOUS
 62
  256
370
   25
100
AcDbCircle
 10
85
 20
162.5
 40
0.75
  0
LINE
  5
12A
100
AcDbEntity
  8
0
  6
CONTINUOUS
 62
  256
370
   25
100
AcDbLine
 10
85
 20
163.25
 11
85
 21
165
  0
LINE
  5
12B
100
AcDbEntity
  8
0
  6
CONTINUOUS
 62
  256
370
   25
100
AcDbLine
 10
85
 20
160
 11
85
 21
161.75
  0
ENDBLK
  5
54
330
52
100
AcDbEntity
  8
0
100
AcDbBlockEnd
  0
BLOCK
  5
56
330
55
100
AcDbEntity
  8
0
100
AcDbBlockBegin
  2
Blk3
 70
    0
 10
0
 20
0
  3
Blk3
  1

  0
CIRCLE
  5
12C
100
AcDbEntity
  8
0
  6
CONTINUOUS
 62
  256
370
   25
100
AcDbCircle
 10
80
 20
162.5
 40
0.75
  0
LINE
  5
12D
100
AcDbEntity
  8
0
  6
CONTINUOUS
 62
  256
370
   25
100
AcDbLine
 10
80
 20
163.25
 11
80
 21
165
  0
LINE
  5
12E
100
AcDbEntity
  8
0
  6
CONTINUOUS
 62
  256
370
   25
100
AcDbLine
 10
80
 20
160
 11
80
 21
161.75
  0
ENDBLK
  5
57
330
55
100
AcDbEntity
  8
0
100
AcDbBlockEnd
  0
BLOCK
  5
59
330
58
100
AcDbEntity
  8
0
100
AcDbBlockBegin
  2
Blk4
 70
    0
 10
0
 20
0
  3
Blk4
  1

  0
CIRCLE
  5
12F
100
AcDbEntity
  8
0
  6
CONTINUOUS
 62
  256
370
   25
100
AcDbCircle
 10
75
 20
162.5
 40
0.75
  0
LINE
  5
130
100
AcDbEntity
  8
0
  6
CONTINUOUS
 62
  256
370
   25
100
AcDbLine
 10
75
 20
163.25
 11
75
 21
165
  0
LINE
  5
131
100
AcDbEntity
  8
0
  6
CONTINUOUS
 62
  256
370
   25
100
AcDbLine
 10
75
 20
160
 11
75
 21
161.75
  0
ENDBLK
  5
5A
330
58
100
AcDbEntity
  8
0
100
AcDbBlockEnd
  0
BLOCK
  5
5C
330
5B
100
AcDbEntity
  8
0
100
AcDbBlockBegin
  2
Blk5
 70
    0
 10
0
 20
0
  3
Blk5
  1

  0
CIRCLE
  5
132
100
AcDbEntity
  8
0
  6
CONTINUOUS
 62
  256
370
   25
100
AcDbCircle
 10
70
 20
162.5
 40
0.75
  0
LINE
  5
133
100
AcDbEntity
  8
0
  6
CONTINUOUS
 62
  256
370
   25
100
AcDbLine
 10
70
 20
163.25
 11
70
 21
165
  0
LINE
  5
134
100
AcDbEntity
  8
0
  6
CONTINUOUS
 62
  256
370
   25
100
AcDbLine
 10
70
 20
160
 11
70
 21
161.75
  0
ENDBLK
  5
5D
330
5B
100
AcDbEntity
  8
0
100
AcDbBlockEnd
  0
BLOCK
  5
5F
330
5E
100
AcDbEntity
  8
0
100
AcDbBlockBegin
  2
Blk6
 70
    0
 10
0
 20
0
  3
Blk6
  1

  0
LINE
  5
135
100
AcDbEntity
  8
0
  6
CONTINUOUS
 62
  256
370
   25
100
AcDbLine
 10
37.5
 20
235
 11
39.75
 21
233.75
  0
LINE
  5
136
100
AcDbEntity
  8
0
  6
CONTINUOUS
 62
  256
370
   25
100
AcDbLine
 10
37.5
 20
235
 11
39.75
 21
236.25
  0
LINE
  5
137
100
AcDbEntity
  8
0
  6
CONTINUOUS
 62
  256
370
   25
100
AcDbLine
 10
40
 20
235
 11
37.5
 21
235
  0
ENDBLK
  5
60
330
5E
100
AcDbEntity
  8
0
100
AcDbBlockEnd
  0
BLOCK
  5
62
330
61
100
AcDbEntity
  8
0
100
AcDbBlockBegin
  2
Blk7
 70
    0
 10
0
 20
0
  3
Blk7
  1

  0
LINE
  5
138
100
AcDbEntity
  8
0
  6
CONTINUOUS
 62
  256
370
   25
100
AcDbLine
 10
47.5
 20
240
 11
49.75
 21
238.75
  0
LINE
  5
139
100
AcDbEntity
  8
0
  6
CONTINUOUS
 62
  256
370
   25
100
AcDbLine
 10
47.5
 20
240
 11
49.75
 21
241.25
  0
LINE
  5
13A
100
AcDbEntity
  8
0
  6
CONTINUOUS
 62
  256
370
   25
100
AcDbLine
 10
50
 20
240
 11
47.5
 21
240
  0
ENDBLK
  5
63
330
61
100
AcDbEntity
  8
0
100
AcDbBlockEnd
  0
BLOCK
  5
65
330
64
100
AcDbEntity
  8
0
100
AcDbBlockBegin
  2
Blk8
 70
    0
 10
0
 20
0
  3
Blk8
  1

  0
LINE
  5
13B
100
AcDbEntity
  8
0
  6
CONTINUOUS
 62
  256
370
   25
100
AcDbLine
 10
100
 20
130
 11
101
 21
130
  0
CIRCLE
  5
13C
100
AcDbEntity
  8
0
  6
CONTINUOUS
 62
  256
370
   25
100
AcDbCircle
 10
98.29998779296875
 20
130
 40
1.700000762939453
  0
INSERT
  5
13D
100
AcDbEntity
  8
0
  6
ByLayer
 62
  256
370
   -1
100
AcDbBlockReference
  2
Blk9
 10
0
 20
0
 30
0
 41
1
 42
1
 43
0
 50
0
 70
    1
 71
    1
 44
0
 45
0
  0
INSERT
  5
13E
100
AcDbEntity
  8
0
  6
ByLayer
 62
  256
370
   -1
100
AcDbBlockReference
  2
Blk10
 10
0
 20
0
 30
0
 41
1
 42
1
 43
0
 50
0
 70
    1
 71
    1
 44
0
 45
0
  0
LINE
  5
13F
100
AcDbEntity
  8
0
  6
CONTINUOUS
 62
  256
370
   25
100
AcDbLine
 10
102.5
 20
130
 11
120
 21
130
  0
ENDBLK
  5
66
330
64
100
AcDbEntity
  8
0
100
AcDbBlockEnd
  0
BLOCK
  5
68
330
67
100
AcDbEntity
  8
0
100
AcDbBlockBegin
  2
Blk9
 70
    0
 10
0
 20
0
  3
Blk9
  1

  0
LINE
  5
140
100
AcDbEntity
  8
0
  6
CONTINUOUS
 62
  256
370
   25
100
AcDbLine
 10
110
 20
132.5
 11
110
 21
135
  0
LINE
  5
141
100
AcDbEntity
  8
0
  6
CONTINUOUS
 62
  256
370
   25
100
AcDbLine
 10
110
 20
127.5
 11
110
 21
125
  0
LINE
  5
142
100
AcDbEntity
  8
0
  6
CONTINUOUS
 62
  256
370
   25
100
AcDbLine
 10
110
 20
132.5
 11
112.5
 21
132.5
  0
LINE
  5
143
100
AcDbEntity
  8
0
  6
CONTINUOUS
 62
  256
370
   25
100
AcDbLine
 10
110
 20
127.5
 11
112.1838073730469
 21
133.5
  0
ENDBLK
  5
69
330
67
100
AcDbEntity
  8
0
100
AcDbBlockEnd
  0
BLOCK
  5
6B
330
6A
100
AcDbEntity
  8
0
100
AcDbBlockBegin
  2
Blk10
 70
    0
 10
0
 20
0
  3
Blk10
  1

  0
LINE
  5
144
100
AcDbEntity
  8
0
  6
CONTINUOUS
 62
  256
370
   25
100
AcDbLine
 10
120
 20
132.5
 11
120
 21
135
  0
LINE
  5
145
100
AcDbEntity
  8
0
  6
CONTINUOUS
 62
  256
370
   25
100
AcDbLine
 10
120
 20
127.5
 11
120
 21
125
  0
LINE
  5
146
100
AcDbEntity
  8
0
  6
CONTINUOUS
 62
  256
370
   25
100
AcDbLine
 10
120
 20
132.5
 11
122.5
 21
132.5
  0
LINE
  5
147
100
AcDbEntity
  8
0
  6
CONTINUOUS
 62
  256
370
   25
100
AcDbLine
 10
120
 20
127.5
 11
122.1838073730469
 21
133.5
  0
ENDBLK
  5
6C
330
6A
100
AcDbEntity
  8
0
100
AcDbBlockEnd
  0
BLOCK
  5
6E
330
6D
100
AcDbEntity
  8
0
100
AcDbBlockBegin
  2
Blk11
 70
    0
 10
0
 20
0
  3
Blk11
  1

  0
CIRCLE
  5
148
100
AcDbEntity
  8
0
  6
CONTINUOUS
 62
  256
370
   25
100
AcDbCircle
 10
125
 20
162.5
 40
0.75
  0
LINE
  5
149
100
AcDbEntity
  8
0
  6
CONTINUOUS
 62
  256
370
   25
100
AcDbLine
 10
125
 20
163.25
 11
125
 21
165
  0
LINE
  5
14A
100
AcDbEntity
  8
0
  6
CONTINUOUS
 62
  256
370
   25
100
AcDbLine
 10
125
 20
160
 11
125
 21
161.75
  0
ENDBLK
  5
6F
330
6D
100
AcDbEntity
  8
0
100
AcDbBlockEnd
  0
BLOCK
  5
71
330
70
100
AcDbEntity
  8
0
100
AcDbBlockBegin
  2
Blk12
 70
    0
 10
0
 20
0
  3
Blk12
  1

  0
CIRCLE
  5
14B
100
AcDbEntity
  8
0
  6
CONTINUOUS
 62
  256
370
   25
100
AcDbCircle
 10
120
 20
162.5
 40
0.75
  0
LINE
  5
14C
100
AcDbEntity
  8
0
  6
CONTINUOUS
 62
  256
370
   25
100
AcDbLine
 10
120
 20
163.25
 11
120
 21
165
  0
LINE
  5
14D
100
AcDbEntity
  8
0
  6
CONTINUOUS
 62
  256
370
   25
100
AcDbLine
 10
120
 20
160
 11
120
 21
161.75
  0
ENDBLK
  5
72
330
70
100
AcDbEntity
  8
0
100
AcDbBlockEnd
  0
BLOCK
  5
74
330
73
100
AcDbEntity
  8
0
100
AcDbBlockBegin
  2
Blk13
 70
    0
 10
0
 20
0
  3
Blk13
  1

  0
CIRCLE
  5
14E
100
AcDbEntity
  8
0
  6
CONTINUOUS
 62
  256
370
   25
100
AcDbCircle
 10
115
 20
162.5
 40
0.75
  0
LINE
  5
14F
100
AcDbEntity
  8
0
  6
CONTINUOUS
 62
  256
370
   25
100
AcDbLine
 10
115
 20
163.25
 11
115
 21
165
  0
LINE
  5
150
100
AcDbEntity
  8
0
  6
CONTINUOUS
 62
  256
370
   25
100
AcDbLine
 10
115
 20
160
 11
115
 21
161.75
  0
ENDBLK
  5
75
330
73
100
AcDbEntity
  8
0
100
AcDbBlockEnd
  0
BLOCK
  5
77
330
76
100
AcDbEntity
  8
0
100
AcDbBlockBegin
  2
Blk14
 70
    0
 10
0
 20
0
  3
Blk14
  1

  0
CIRCLE
  5
151
100
AcDbEntity
  8
0
  6
CONTINUOUS
 62
  256
370
   25
100
AcDbCircle
 10
110
 20
162.5
 40
0.75
  0
LINE
  5
152
100
AcDbEntity
  8
0
  6
CONTINUOUS
 62
  256
370
   25
100
AcDbLine
 10
110
 20
163.25
 11
110
 21
165
  0
LINE
  5
153
100
AcDbEntity
  8
0
  6
CONTINUOUS
 62
  256
370
   25
100
AcDbLine
 10
110
 20
160
 11
110
 21
161.75
  0
ENDBLK
  5
78
330
76
100
AcDbEntity
  8
0
100
AcDbBlockEnd
  0
BLOCK
  5
7A
330
79
100
AcDbEntity
  8
0
100
AcDbBlockBegin
  2
Blk15
 70
    0
 10
0
 20
0
  3
Blk15
  1

  0
CIRCLE
  5
154
100
AcDbEntity
  8
0
  6
CONTINUOUS
 62
  256
370
   25
100
AcDbCircle
 10
165
 20
162.5
 40
0.75
  0
LINE
  5
155
100
AcDbEntity
  8
0
  6
CONTINUOUS
 62
  256
370
   25
100
AcDbLine
 10
165
 20
163.25
 11
165
 21
165
  0
LINE
  5
156
100
AcDbEntity
  8
0
  6
CONTINUOUS
 62
  256
370
   25
100
AcDbLine
 10
165
 20
160
 11
165
 21
161.75
  0
ENDBLK
  5
7B
330
79
100
AcDbEntity
  8
0
100
AcDbBlockEnd
  0
BLOCK
  5
7D
330
7C
100
AcDbEntity
  8
0
100
AcDbBlockBegin
  2
Blk16
 70
    0
 10
0
 20
0
  3
Blk16
  1

  0
CIRCLE
  5
157
100
AcDbEntity
  8
0
  6
CONTINUOUS
 62
  256
370
   25
100
AcDbCircle
 10
160
 20
162.5
 40
0.75
  0
LINE
  5
158
100
AcDbEntity
  8
0
  6
CONTINUOUS
 62
  256
370
   25
100
AcDbLine
 10
160
 20
163.25
 11
160
 21
165
  0
LINE
  5
159
100
AcDbEntity
  8
0
  6
CONTINUOUS
 62
  256
370
   25
100
AcDbLine
 10
160
 20
160
 11
160
 21
161.75
  0
ENDBLK
  5
7E
330
7C
100
AcDbEntity
  8
0
100
AcDbBlockEnd
  0
BLOCK
  5
80
330
7F
100
AcDbEntity
  8
0
100
AcDbBlockBegin
  2
Blk17
 70
    0
 10
0
 20
0
  3
Blk17
  1

  0
CIRCLE
  5
15A
100
AcDbEntity
  8
0
  6
CONTINUOUS
 62
  256
370
   25
100
AcDbCircle
 10
155
 20
162.5
 40
0.75
  0
LINE
  5
15B
100
AcDbEntity
  8
0
  6
CONTINUOUS
 62
  256
370
   25
100
AcDbLine
 10
155
 20
163.25
 11
155
 21
165
  0
LINE
  5
15C
100
AcDbEntity
  8
0
  6
CONTINUOUS
 62
  256
370
   25
100
AcDbLine
 10
155
 20
160
 11
155
 21
161.75
  0
ENDBLK
  5
81
330
7F
100
AcDbEntity
  8
0
100
AcDbBlockEnd
  0
BLOCK
  5
83
330
82
100
AcDbEntity
  8
0
100
AcDbBlockBegin
  2
Blk18
 70
    0
 10
0
 20
0
  3
Blk18
  1

  0
CIRCLE
  5
15D
100
AcDbEntity
  8
0
  6
CONTINUOUS
 62
  256
370
   25
100
AcDbCircle
 10
150
 20
162.5
 40
0.75
  0
LINE
  5
15E
100
AcDbEntity
  8
0
  6
CONTINUOUS
 62
  256
370
   25
100
AcDbLine
 10
150
 20
163.25
 11
150
 21
165
  0
LINE
  5
15F
100
AcDbEntity
  8
0
  6
CONTINUOUS
 62
  256
370
   25
100
AcDbLine
 10
150
 20
160
 11
150
 21
161.75
  0
ENDBLK
  5
84
330
82
100
AcDbEntity
  8
0
100
AcDbBlockEnd
  0
BLOCK
  5
86
330
85
100
AcDbEntity
  8
0
100
AcDbBlockBegin
  2
Blk19
 70
    0
 10
0
 20
0
  3
Blk19
  1

  0
CIRCLE
  5
160
100
AcDbEntity
  8
0
  6
CONTINUOUS
 62
  256
370
   25
100
AcDbCircle
 10
205
 20
162.5
 40
0.75
  0
LINE
  5
161
100
AcDbEntity
  8
0
  6
CONTINUOUS
 62
  256
370
   25
100
AcDbLine
 10
205
 20
163.25
 11
205
 21
165
  0
LINE
  5
162
100
AcDbEntity
  8
0
  6
CONTINUOUS
 62
  256
370
   25
100
AcDbLine
 10
205
 20
160
 11
205
 21
161.75
  0
ENDBLK
  5
87
330
85
100
AcDbEntity
  8
0
100
AcDbBlockEnd
  0
BLOCK
  5
89
330
88
100
AcDbEntity
  8
0
100
AcDbBlockBegin
  2
Blk20
 70
    0
 10
0
 20
0
  3
Blk20
  1

  0
CIRCLE
  5
163
100
AcDbEntity
  8
0
  6
CONTINUOUS
 62
  256
370
   25
100
AcDbCircle
 10
200
 20
162.5
 40
0.75
  0
LINE
  5
164
100
AcDbEntity
  8
0
  6
CONTINUOUS
 62
  256
370
   25
100
AcDbLine
 10
200
 20
163.25
 11
200
 21
165
  0
LINE
  5
165
100
AcDbEntity
  8
0
  6
CONTINUOUS
 62
  256
370
   25
100
AcDbLine
 10
200
 20
160
 11
200
 21
161.75
  0
ENDBLK
  5
8A
330
88
100
AcDbEntity
  8
0
100
AcDbBlockEnd
  0
BLOCK
  5
8C
330
8B
100
AcDbEntity
  8
0
100
AcDbBlockBegin
  2
Blk21
 70
    0
 10
0
 20
0
  3
Blk21
  1

  0
CIRCLE
  5
166
100
AcDbEntity
  8
0
  6
CONTINUOUS
 62
  256
370
   25
100
AcDbCircle
 10
195
 20
162.5
 40
0.75
  0
LINE
  5
167
100
AcDbEntity
  8
0
  6
CONTINUOUS
 62
  256
370
   25
100
AcDbLine
 10
195
 20
163.25
 11
195
 21
165
  0
LINE
  5
168
100
AcDbEntity
  8
0
  6
CONTINUOUS
 62
  256
370
   25
100
AcDbLine
 10
195
 20
160
 11
195
 21
161.75
  0
ENDBLK
  5
8D
330
8B
100
AcDbEntity
  8
0
100
AcDbBlockEnd
  0
BLOCK
  5
8F
330
8E
100
AcDbEntity
  8
0
100
AcDbBlockBegin
  2
Blk22
 70
    0
 10
0
 20
0
  3
Blk22
  1

  0
CIRCLE
  5
169
100
AcDbEntity
  8
0
  6
CONTINUOUS
 62
  256
370
   25
100
AcDbCircle
 10
190
 20
162.5
 40
0.75
  0
LINE
  5
16A
100
AcDbEntity
  8
0
  6
CONTINUOUS
 62
  256
370
   25
100
AcDbLine
 10
190
 20
163.25
 11
190
 21
165
  0
LINE
  5
16B
100
AcDbEntity
  8
0
  6
CONTINUOUS
 62
  256
370
   25
100
AcDbLine
 10
190
 20
160
 11
190
 21
161.75
  0
ENDBLK
  5
90
330
8E
100
AcDbEntity
  8
0
100
AcDbBlockEnd
  0
BLOCK
  5
92
330
91
100
AcDbEntity
  8
0
100
AcDbBlockBegin
  2
Blk23
 70
    0
 10
0
 20
0
  3
Blk23
  1

  0
CIRCLE
  5
16C
100
AcDbEntity
  8
0
  6
CONTINUOUS
 62
  256
370
   25
100
AcDbCircle
 10
245
 20
162.5
 40
0.75
  0
LINE
  5
16D
100
AcDbEntity
  8
0
  6
CONTINUOUS
 62
  256
370
   25
100
AcDbLine
 10
245
 20
163.25
 11
245
 21
165
  0
LINE
  5
16E
100
AcDbEntity
  8
0
  6
CONTINUOUS
 62
  256
370
   25
100
AcDbLine
 10
245
 20
160
 11
245
 21
161.75
  0
ENDBLK
  5
93
330
91
100
AcDbEntity
  8
0
100
AcDbBlockEnd
  0
BLOCK
  5
95
330
94
100
AcDbEntity
  8
0
100
AcDbBlockBegin
  2
Blk24
 70
    0
 10
0
 20
0
  3
Blk24
  1

  0
CIRCLE
  5
16F
100
AcDbEntity
  8
0
  6
CONTINUOUS
 62
  256
370
   25
100
AcDbCircle
 10
240
 20
162.5
 40
0.75
  0
LINE
  5
170
100
AcDbEntity
  8
0
  6
CONTINUOUS
 62
  256
370
   25
100
AcDbLine
 10
240
 20
163.25
 11
240
 21
165
  0
LINE
  5
171
100
AcDbEntity
  8
0
  6
CONTINUOUS
 62
  256
370
   25
100
AcDbLine
 10
240
 20
160
 11
240
 21
161.75
  0
ENDBLK
  5
96
330
94
100
AcDbEntity
  8
0
100
AcDbBlockEnd
  0
BLOCK
  5
98
330
97
100
AcDbEntity
  8
0
100
AcDbBlockBegin
  2
Blk25
 70
    0
 10
0
 20
0
  3
Blk25
  1

  0
CIRCLE
  5
172
100
AcDbEntity
  8
0
  6
CONTINUOUS
 62
  256
370
   25
100
AcDbCircle
 10
235
 20
162.5
 40
0.75
  0
LINE
  5
173
100
AcDbEntity
  8
0
  6
CONTINUOUS
 62
  256
370
   25
100
AcDbLine
 10
235
 20
163.25
 11
235
 21
165
  0
LINE
  5
174
100
AcDbEntity
  8
0
  6
CONTINUOUS
 62
  256
370
   25
100
AcDbLine
 10
235
 20
160
 11
235
 21
161.75
  0
ENDBLK
  5
99
330
97
100
AcDbEntity
  8
0
100
AcDbBlockEnd
  0
BLOCK
  5
9B
330
9A
100
AcDbEntity
  8
0
100
AcDbBlockBegin
  2
Blk26
 70
    0
 10
0
 20
0
  3
Blk26
  1

  0
CIRCLE
  5
175
100
AcDbEntity
  8
0
  6
CONTINUOUS
 62
  256
370
   25
100
AcDbCircle
 10
230
 20
162.5
 40
0.75
  0
LINE
  5
176
100
AcDbEntity
  8
0
  6
CONTINUOUS
 62
  256
370
   25
100
AcDbLine
 10
230
 20
163.25
 11
230
 21
165
  0
LINE
  5
177
100
AcDbEntity
  8
0
  6
CONTINUOUS
 62
  256
370
   25
100
AcDbLine
 10
230
 20
160
 11
230
 21
161.75
  0
ENDBLK
  5
9C
330
9A
100
AcDbEntity
  8
0
100
AcDbBlockEnd
  0
BLOCK
  5
9E
330
9D
100
AcDbEntity
  8
0
100
AcDbBlockBegin
  2
Blk27
 70
    0
 10
0
 20
0
  3
Blk27
  1

  0
LINE
  5
178
100
AcDbEntity
  8
0
  6
CONTINUOUS
 62
  256
370
   25
100
AcDbLine
 10
267.5
 20
240
 11
265.25
 21
241.25
  0
LINE
  5
179
100
AcDbEntity
  8
0
  6
CONTINUOUS
 62
  256
370
   25
100
AcDbLine
 10
267.5
 20
240
 11
265.25
 21
238.75
  0
LINE
  5
17A
100
AcDbEntity
  8
0
  6
CONTINUOUS
 62
  256
370
   25
100
AcDbLine
 10
265
 20
240
 11
267.5
 21
240
  0
ENDBLK
  5
9F
330
9D
100
AcDbEntity
  8
0
100
AcDbBlockEnd
  0
BLOCK
  5
A1
330
A0
100
AcDbEntity
  8
0
100
AcDbBlockBegin
  2
Blk28
 70
    0
 10
0
 20
0
  3
Blk28
  1

  0
LINE
  5
17B
100
AcDbEntity
  8
0
  6
CONTINUOUS
 62
  256
370
   25
100
AcDbLine
 10
272.5
 20
235
 11
270.25
 21
236.25
  0
LINE
  5
17C
100
AcDbEntity
  8
0
  6
CONTINUOUS
 62
  256
370
   25
100
AcDbLine
 10
272.5
 20
235
 11
270.25
 21
233.75
  0
LINE
  5
17D
100
AcDbEntity
  8
0
  6
CONTINUOUS
 62
  256
370
   25
100
AcDbLine
 10
270
 20
235
 11
272.5
 21
235
  0
ENDBLK
  5
A2
330
A0
100
AcDbEntity
  8
0
100
AcDbBlockEnd
  0
BLOCK
  5
A4
330
A3
100
AcDbEntity
  8
0
100
AcDbBlockBegin
  2
Blk29
 70
    0
 10
0
 20
0
  3
Blk29
  1

  0
CIRCLE
  5
17E
100
AcDbEntity
  8
0
  6
CONTINUOUS
 62
  256
370
   25
100
AcDbCircle
 10
142
 20
131
 40
1
  0
LINE
  5
17F
100
AcDbEntity
  8
0
  6
CONTINUOUS
 62
  256
370
   25
100
AcDbLine
 10
141
 20
128
 11
143
 21
128
  0
LINE
  5
180
100
AcDbEntity
  8
0
  6
CONTINUOUS
 62
  256
370
   25
100
AcDbLine
 10
143
 20
128
 11
142.4705810546875
 21
130.1176452636719
  0
LINE
  5
181
100
AcDbEntity
  8
0
  6
CONTINUOUS
 62
  256
370
   25
100
AcDbLine
 10
141
 20
128
 11
141.5294189453125
 21
130.1176452636719
  0
LINE
  5
182
100
AcDbEntity
  8
0
  6
CONTINUOUS
 62
  256
370
   25
100
AcDbLine
 10
150
 20
132.5
 11
150
 21
135
  0
LINE
  5
183
100
AcDbEntity
  8
0
  6
CONTINUOUS
 62
  256
370
   25
100
AcDbLine
 10
150
 20
127.5
 11
150
 21
125
  0
LINE
  5
184
100
AcDbEntity
  8
0
  6
CONTINUOUS
 62
  256
370
   25
100
AcDbLine
 10
142.5
 20
130
 11
144.5
 21
130
  0
LINE
  5
185
100
AcDbEntity
  8
0
  6
CONTINUOUS
 62
  256
370
   25
100
AcDbLine
 10
146.5
 20
130
 11
148.5566253662109
 21
130
  0
LINE
  5
186
100
AcDbEntity
  8
0
  6
CONTINUOUS
 62
  256
370
   25
100
AcDbLine
 10
143.5
 20
130
 11
145.5
 21
130
  0
LINE
  5
187
100
AcDbEntity
  8
0
  6
CONTINUOUS
 62
  256
370
   25
100
AcDbLine
 10
150
 20
132.5
 11
152.5
 21
132.5
  0
LINE
  5
188
100
AcDbEntity
  8
0
  6
CONTINUOUS
 62
  256
370
   25
100
AcDbLine
 10
150
 20
127.5
 11
152.1838226318359
 21
133.5
  0
LINE
  5
189
100
AcDbEntity
  8
0
  6
CONTINUOUS
 62
  256
370
   25
100
AcDbLine
 10
149.5
 20
130
 11
150.9099273681641
 21
130
  0
TEXT
  5
18A
100
AcDbEntity
  8
0
  6
ByLayer
 62
  256
370
   25
100
AcDbText
 10
138.5
 20
128.8000030517578
 30
0
 40
2.449996948242188
  1
9S4
 50
0
 41
0.9
 51
0
  7
Caddy_Vectorfont1p
 71
    0
 72
    2
 11
138.5
 21
128.8000030517578
 31
0
210
0
220
0
230
1
100
AcDbText
  0
LINE
  5
18B
100
AcDbEntity
  8
0
  6
CONTINUOUS
 62
  256
370
   25
100
AcDbLine
 10
160
 20
132.5
 11
160
 21
135
  0
LINE
  5
18C
100
AcDbEntity
  8
0
  6
CONTINUOUS
 62
  256
370
   25
100
AcDbLine
 10
160
 20
127.5
 11
160
 21
125
  0
LINE
  5
18D
100
AcDbEntity
  8
0
  6
CONTINUOUS
 62
  256
370
   25
100
AcDbLine
 10
151.5
 20
130
 11
153.5566253662109
 21
130
  0
LINE
  5
18E
100
AcDbEntity
  8
0
  6
CONTINUOUS
 62
  256
370
   25
100
AcDbLine
 10
160
 20
132.5
 11
162.5
 21
132.5
  0
LINE
  5
18F
100
AcDbEntity
  8
0
  6
CONTINUOUS
 62
  256
370
   25
100
AcDbLine
 10
160
 20
127.5
 11
162.1838226318359
 21
133.5
  0
LINE
  5
190
100
AcDbEntity
  8
0
  6
CONTINUOUS
 62
  256
370
   25
100
AcDbLine
 10
159.5
 20
130
 11
160.9099273681641
 21
130
  0
LINE
  5
191
100
AcDbEntity
  8
0
  6
CONTINUOUS
 62
  256
370
   25
100
AcDbLine
 10
156.5
 20
130
 11
158.5566253662109
 21
130
  0
LINE
  5
192
100
AcDbEntity
  8
0
  6
CONTINUOUS
 62
  256
370
   25
100
AcDbLine
 10
154
 20
130
 11
156.0566253662109
 21
130
  0
TEXT
  5
193
100
AcDbEntity
  8
0
  6
ByLayer
 62
  256
370
   25
100
AcDbText
 10
149.3999938964844
 20
135.6000061035156
 30
0
 40
2.099990844726562
  1
11
 50
90
 41
0.9
 51
0
  7
Caddy_Vectorfont1p
 71
    0
210
0
220
0
230
1
100
AcDbText
  0
TEXT
  5
194
100
AcDbEntity
  8
0
  6
ByLayer
 62
  256
370
   25
100
AcDbText
 10
149.3999938964844
 20
125.6000061035156
 30
0
 40
2.099998474121094
  1
12
 50
90
 41
0.9
 51
0
  7
Caddy_Vectorfont1p
 71
    0
210
0
220
0
230
1
100
AcDbText
  0
LINE
  5
195
100
AcDbEntity
  8
0
  6
CONTINUOUS
 62
  256
370
   25
100
AcDbLine
 10
156.5
 20
130
 11
158.5566253662109
 21
130
  0
TEXT
  5
196
100
AcDbEntity
  8
0
  6
ByLayer
 62
  256
370
   25
100
AcDbText
 10
159.3999938964844
 20
135.6000061035156
 30
0
 40
2.099990844726562
  1
11
 50
90
 41
0.9
 51
0
  7
Caddy_Vectorfont1p
 71
    0
210
0
220
0
230
1
100
AcDbText
  0
TEXT
  5
197
100
AcDbEntity
  8
0
  6
ByLayer
 62
  256
370
   25
100
AcDbText
 10
159.3999938964844
 20
125.6000061035156
 30
0
 40
2.099998474121094
  1
12
 50
90
 41
0.9
 51
0
  7
Caddy_Vectorfont1p
 71
    0
210
0
220
0
230
1
100
AcDbText
  0
ENDBLK
  5
A5
330
A3
100
AcDbEntity
  8
0
100
AcDbBlockEnd
  0
BLOCK
  5
A7
330
A6
100
AcDbEntity
  8
0
100
AcDbBlockBegin
  2
Blk30
 70
    0
 10
0
 20
0
  3
Blk30
  1

  0
LINE
  5
198
100
AcDbEntity
  8
0
  6
CONTINUOUS
 62
  256
370
   25
100
AcDbLine
 10
60
 20
130
 11
61
 21
130
  0
CIRCLE
  5
199
100
AcDbEntity
  8
0
  6
CONTINUOUS
 62
  256
370
   25
100
AcDbCircle
 10
58.29998779296875
 20
130
 40
1.700000762939453
  0
INSERT
  5
19A
100
AcDbEntity
  8
0
  6
ByLayer
 62
  256
370
   -1
100
AcDbBlockReference
  2
Blk31
 10
0
 20
0
 30
0
 41
1
 42
1
 43
0
 50
0
 70
    1
 71
    1
 44
0
 45
0
  0
INSERT
  5
19B
100
AcDbEntity
  8
0
  6
ByLayer
 62
  256
370
   -1
100
AcDbBlockReference
  2
Blk32
 10
0
 20
0
 30
0
 41
1
 42
1
 43
0
 50
0
 70
    1
 71
    1
 44
0
 45
0
  0
LINE
  5
19C
100
AcDbEntity
  8
0
  6
CONTINUOUS
 62
  256
370
   25
100
AcDbLine
 10
62.5
 20
130
 11
80
 21
130
  0
ENDBLK
  5
A8
330
A6
100
AcDbEntity
  8
0
100
AcDbBlockEnd
  0
BLOCK
  5
AA
330
A9
100
AcDbEntity
  8
0
100
AcDbBlockBegin
  2
Blk31
 70
    0
 10
0
 20
0
  3
Blk31
  1

  0
LINE
  5
19D
100
AcDbEntity
  8
0
  6
CONTINUOUS
 62
  256
370
   25
100
AcDbLine
 10
70
 20
132.5
 11
70
 21
135
  0
LINE
  5
19E
100
AcDbEntity
  8
0
  6
CONTINUOUS
 62
  256
370
   25
100
AcDbLine
 10
70
 20
127.5
 11
70
 21
125
  0
LINE
  5
19F
100
AcDbEntity
  8
0
  6
CONTINUOUS
 62
  256
370
   25
100
AcDbLine
 10
70
 20
132.5
 11
72.5
 21
132.5
  0
LINE
  5
1A0
100
AcDbEntity
  8
0
  6
CONTINUOUS
 62
  256
370
   25
100
AcDbLine
 10
70
 20
127.5
 11
72.18380737304688
 21
133.5
  0
ENDBLK
  5
AB
330
A9
100
AcDbEntity
  8
0
100
AcDbBlockEnd
  0
BLOCK
  5
AD
330
AC
100
AcDbEntity
  8
0
100
AcDbBlockBegin
  2
Blk32
 70
    0
 10
0
 20
0
  3
Blk32
  1

  0
LINE
  5
1A1
100
AcDbEntity
  8
0
  6
CONTINUOUS
 62
  256
370
   25
100
AcDbLine
 10
80
 20
132.5
 11
80
 21
135
  0
LINE
  5
1A2
100
AcDbEntity
  8
0
  6
CONTINUOUS
 62
  256
370
   25
100
AcDbLine
 10
80
 20
127.5
 11
80
 21
125
  0
LINE
  5
1A3
100
AcDbEntity
  8
0
  6
CONTINUOUS
 62
  256
370
   25
100
AcDbLine
 10
80
 20
132.5
 11
82.5
 21
132.5
  0
LINE
  5
1A4
100
AcDbEntity
  8
0
  6
CONTINUOUS
 62
  256
370
   25
100
AcDbLine
 10
80
 20
127.5
 11
82.18380737304688
 21
133.5
  0
ENDBLK
  5
AE
330
AC
100
AcDbEntity
  8
0
100
AcDbBlockEnd
  0
BLOCK
  5
B0
330
AF
100
AcDbEntity
  8
0
100
AcDbBlockBegin
  2
Blk33
 70
    0
 10
0
 20
0
  3
Blk33
  1

  0
LINE
  5
1A5
100
AcDbEntity
  8
0
  6
CONTINUOUS
 62
  256
370
   25
100
AcDbLine
 10
70
 20
145.5
 11
70
 21
144.5
  0
ENDBLK
  5
B1
330
AF
100
AcDbEntity
  8
0
100
AcDbBlockEnd
  0
BLOCK
  5
B3
330
B2
100
AcDbEntity
  8
0
100
AcDbBlockBegin
  2
Blk34
 70
    0
 10
0
 20
0
  3
Blk34
  1

  0
LINE
  5
1A6
100
AcDbEntity
  8
0
  6
CONTINUOUS
 62
  256
370
   25
100
AcDbLine
 10
75
 20
145.5
 11
75
 21
144.5
  0
ENDBLK
  5
B4
330
B2
100
AcDbEntity
  8
0
100
AcDbBlockEnd
  0
BLOCK
  5
B6
330
B5
100
AcDbEntity
  8
0
100
AcDbBlockBegin
  2
Blk35
 70
    0
 10
0
 20
0
  3
Blk35
  1

  0
LINE
  5
1A7
100
AcDbEntity
  8
0
  6
CONTINUOUS
 62
  256
370
   25
100
AcDbLine
 10
80
 20
145.5
 11
80
 21
144.5
  0
ENDBLK
  5
B7
330
B5
100
AcDbEntity
  8
0
100
AcDbBlockEnd
  0
BLOCK
  5
B9
330
B8
100
AcDbEntity
  8
0
100
AcDbBlockBegin
  2
Blk36
 70
    0
 10
0
 20
0
  3
Blk36
  1

  0
LINE
  5
1A8
100
AcDbEntity
  8
0
  6
CONTINUOUS
 62
  256
370
   25
100
AcDbLine
 10
85
 20
145.5
 11
85
 21
144.5
  0
ENDBLK
  5
BA
330
B8
100
AcDbEntity
  8
0
100
AcDbBlockEnd
  0
BLOCK
  5
BC
330
BB
100
AcDbEntity
  8
0
100
AcDbBlockBegin
  2
Blk37
 70
    0
 10
0
 20
0
  3
Blk37
  1

  0
LINE
  5
1A9
100
AcDbEntity
  8
0
  6
CONTINUOUS
 62
  256
370
   25
100
AcDbLine
 10
110
 20
145.5
 11
110
 21
144.5
  0
ENDBLK
  5
BD
330
BB
100
AcDbEntity
  8
0
100
AcDbBlockEnd
  0
BLOCK
  5
BF
330
BE
100
AcDbEntity
  8
0
100
AcDbBlockBegin
  2
Blk38
 70
    0
 10
0
 20
0
  3
Blk38
  1

  0
LINE
  5
1AA
100
AcDbEntity
  8
0
  6
CONTINUOUS
 62
  256
370
   25
100
AcDbLine
 10
115
 20
145.5
 11
115
 21
144.5
  0
ENDBLK
  5
C0
330
BE
100
AcDbEntity
  8
0
100
AcDbBlockEnd
  0
BLOCK
  5
C2
330
C1
100
AcDbEntity
  8
0
100
AcDbBlockBegin
  2
Blk39
 70
    0
 10
0
 20
0
  3
Blk39
  1

  0
LINE
  5
1AB
100
AcDbEntity
  8
0
  6
CONTINUOUS
 62
  256
370
   25
100
AcDbLine
 10
120
 20
145.5
 11
120
 21
144.5
  0
ENDBLK
  5
C3
330
C1
100
AcDbEntity
  8
0
100
AcDbBlockEnd
  0
BLOCK
  5
C5
330
C4
100
AcDbEntity
  8
0
100
AcDbBlockBegin
  2
Blk40
 70
    0
 10
0
 20
0
  3
Blk40
  1

  0
LINE
  5
1AC
100
AcDbEntity
  8
0
  6
CONTINUOUS
 62
  256
370
   25
100
AcDbLine
 10
125
 20
145.5
 11
125
 21
144.5
  0
ENDBLK
  5
C6
330
C4
100
AcDbEntity
  8
0
100
AcDbBlockEnd
  0
BLOCK
  5
C8
330
C7
100
AcDbEntity
  8
0
100
AcDbBlockBegin
  2
Blk41
 70
    0
 10
0
 20
0
  3
Blk41
  1

  0
LINE
  5
1AD
100
AcDbEntity
  8
0
  6
CONTINUOUS
 62
  256
370
   25
100
AcDbLine
 10
150
 20
145.5
 11
150
 21
144.5
  0
ENDBLK
  5
C9
330
C7
100
AcDbEntity
  8
0
100
AcDbBlockEnd
  0
BLOCK
  5
CB
330
CA
100
AcDbEntity
  8
0
100
AcDbBlockBegin
  2
Blk42
 70
    0
 10
0
 20
0
  3
Blk42
  1

  0
LINE
  5
1AE
100
AcDbEntity
  8
0
  6
CONTINUOUS
 62
  256
370
   25
100
AcDbLine
 10
155
 20
145.5
 11
155
 21
144.5
  0
ENDBLK
  5
CC
330
CA
100
AcDbEntity
  8
0
100
AcDbBlockEnd
  0
BLOCK
  5
CE
330
CD
100
AcDbEntity
  8
0
100
AcDbBlockBegin
  2
Blk43
 70
    0
 10
0
 20
0
  3
Blk43
  1

  0
LINE
  5
1AF
100
AcDbEntity
  8
0
  6
CONTINUOUS
 62
  256
370
   25
100
AcDbLine
 10
160
 20
145.5
 11
160
 21
144.5
  0
ENDBLK
  5
CF
330
CD
100
AcDbEntity
  8
0
100
AcDbBlockEnd
  0
BLOCK
  5
D1
330
D0
100
AcDbEntity
  8
0
100
AcDbBlockBegin
  2
Blk44
 70
    0
 10
0
 20
0
  3
Blk44
  1

  0
LINE
  5
1B0
100
AcDbEntity
  8
0
  6
CONTINUOUS
 62
  256
370
   25
100
AcDbLine
 10
165
 20
145.5
 11
165
 21
144.5
  0
ENDBLK
  5
D2
330
D0
100
AcDbEntity
  8
0
100
AcDbBlockEnd
  0
ENDSEC
  0
SECTION
  2
ENTITIES
  0
INSERT
  5
1B1
100
AcDbEntity
  8
0
  6
ByLayer
 62
  256
370
   -1
100
AcDbBlockReference
  2
Blk1
 10
0
 20
0
 30
0
 41
1
 42
1
 43
0
 50
0
 70
    1
 71
    1
 44
0
 45
0
  0
LINE
  5
1B2
100
AcDbEntity
  8
0
  6
CONTINUOUS
 62
  256
370
   25
100
AcDbLine
 10
405
 20
125
 11
405
 21
100
  0
INSERT
  5
1B3
100
AcDbEntity
  8
0
  6
ByLayer
 62
  256
370
   -1
100
AcDbBlockReference
  2
Blk2
 10
0
 20
0
 30
0
 41
1
 42
1
 43
0
 50
0
 70
    1
 71
    1
 44
0
 45
0
  0
INSERT
  5
1B4
100
AcDbEntity
  8
0
  6
ByLayer
 62
  256
370
   -1
100
AcDbBlockReference
  2
Blk3
 10
0
 20
0
 30
0
 41
1
 42
1
 43
0
 50
0
 70
    1
 71
    1
 44
0
 45
0
  0
INSERT
  5
1B5
100
AcDbEntity
  8
0
  6
ByLayer
 62
  256
370
   -1
100
AcDbBlockReference
  2
Blk4
 10
0
 20
0
 30
0
 41
1
 42
1
 43
0
 50
0
 70
    1
 71
    1
 44
0
 45
0
  0
INSERT
  5
1B6
100
AcDbEntity
  8
0
  6
ByLayer
 62
  256
370
   -1
100
AcDbBlockReference
  2
Blk5
 10
0
 20
0
 30
0
 41
1
 42
1
 43
0
 50
0
 70
    1
 71
    1
 44
0
 45
0
  0
INSERT
  5
1B7
100
AcDbEntity
  8
0
  6
ByLayer
 62
  256
370
   -1
100
AcDbBlockReference
  2
Blk6
 10
0
 20
0
 30
0
 41
1
 42
1
 43
0
 50
0
 70
    1
 71
    1
 44
0
 45
0
  0
INSERT
  5
1B8
100
AcDbEntity
  8
0
  6
ByLayer
 62
  256
370
   -1
100
AcDbBlockReference
  2
Blk7
 10
0
 20
0
 30
0
 41
1
 42
1
 43
0
 50
0
 70
    1
 71
    1
 44
0
 45
0
  0
INSERT
  5
1B9
100
AcDbEntity
  8
0
  6
ByLayer
 62
  256
370
   -1
100
AcDbBlockReference
  2
Blk8
 10
0
 20
0
 30
0
 41
1
 42
1
 43
0
 50
0
 70
    1
 71
    1
 44
0
 45
0
  0
INSERT
  5
1BA
100
AcDbEntity
  8
0
  6
ByLayer
 62
  256
370
   -1
100
AcDbBlockReference
  2
Blk11
 10
0
 20
0
 30
0
 41
1
 42
1
 43
0
 50
0
 70
    1
 71
    1
 44
0
 45
0
  0
INSERT
  5
1BB
100
AcDbEntity
  8
0
  6
ByLayer
 62
  256
370
   -1
100
AcDbBlockReference
  2
Blk12
 10
0
 20
0
 30
0
 41
1
 42
1
 43
0
 50
0
 70
    1
 71
    1
 44
0
 45
0
  0
INSERT
  5
1BC
100
AcDbEntity
  8
0
  6
ByLayer
 62
  256
370
   -1
100
AcDbBlockReference
  2
Blk13
 10
0
 20
0
 30
0
 41
1
 42
1
 43
0
 50
0
 70
    1
 71
    1
 44
0
 45
0
  0
INSERT
  5
1BD
100
AcDbEntity
  8
0
  6
ByLayer
 62
  256
370
   -1
100
AcDbBlockReference
  2
Blk14
 10
0
 20
0
 30
0
 41
1
 42
1
 43
0
 50
0
 70
    1
 71
    1
 44
0
 45
0
  0
LINE
  5
1BE
100
AcDbEntity
  8
0
  6
CONTINUOUS
 62
  256
370
   25
100
AcDbLine
 10
110
 20
125
 11
110
 21
115
  0
LINE
  5
1BF
100
AcDbEntity
  8
0
  6
CONTINUOUS
 62
  256
370
   25
100
AcDbLine
 10
110
 20
115
 11
115
 21
115
  0
LINE
  5
1C0
100
AcDbEntity
  8
0
  6
CONTINUOUS
 62
  256
370
   25
100
AcDbLine
 10
120
 20
125
 11
120
 21
115
  0
LINE
  5
1C1
100
AcDbEntity
  8
0
  6
CONTINUOUS
 62
  256
370
   25
100
AcDbLine
 10
120
 20
115
 11
125
 21
115
  0
INSERT
  5
1C2
100
AcDbEntity
  8
0
  6
ByLayer
 62
  256
370
   -1
100
AcDbBlockReference
  2
Blk15
 10
0
 20
0
 30
0
 41
1
 42
1
 43
0
 50
0
 70
    1
 71
    1
 44
0
 45
0
  0
INSERT
  5
1C3
100
AcDbEntity
  8
0
  6
ByLayer
 62
  256
370
   -1
100
AcDbBlockReference
  2
Blk16
 10
0
 20
0
 30
0
 41
1
 42
1
 43
0
 50
0
 70
    1
 71
    1
 44
0
 45
0
  0
INSERT
  5
1C4
100
AcDbEntity
  8
0
  6
ByLayer
 62
  256
370
   -1
100
AcDbBlockReference
  2
Blk17
 10
0
 20
0
 30
0
 41
1
 42
1
 43
0
 50
0
 70
    1
 71
    1
 44
0
 45
0
  0
INSERT
  5
1C5
100
AcDbEntity
  8
0
  6
ByLayer
 62
  256
370
   -1
100
AcDbBlockReference
  2
Blk18
 10
0
 20
0
 30
0
 41
1
 42
1
 43
0
 50
0
 70
    1
 71
    1
 44
0
 45
0
  0
INSERT
  5
1C6
100
AcDbEntity
  8
0
  6
ByLayer
 62
  256
370
   -1
100
AcDbBlockReference
  2
Blk19
 10
0
 20
0
 30
0
 41
1
 42
1
 43
0
 50
0
 70
    1
 71
    1
 44
0
 45
0
  0
INSERT
  5
1C7
100
AcDbEntity
  8
0
  6
ByLayer
 62
  256
370
   -1
100
AcDbBlockReference
  2
Blk20
 10
0
 20
0
 30
0
 41
1
 42
1
 43
0
 50
0
 70
    1
 71
    1
 44
0
 45
0
  0
INSERT
  5
1C8
100
AcDbEntity
  8
0
  6
ByLayer
 62
  256
370
   -1
100
AcDbBlockReference
  2
Blk21
 10
0
 20
0
 30
0
 41
1
 42
1
 43
0
 50
0
 70
    1
 71
    1
 44
0
 45
0
  0
INSERT
  5
1C9
100
AcDbEntity
  8
0
  6
ByLayer
 62
  256
370
   -1
100
AcDbBlockReference
  2
Blk22
 10
0
 20
0
 30
0
 41
1
 42
1
 43
0
 50
0
 70
    1
 71
    1
 44
0
 45
0
  0
INSERT
  5
1CA
100
AcDbEntity
  8
0
  6
ByLayer
 62
  256
370
   -1
100
AcDbBlockReference
  2
Blk23
 10
0
 20
0
 30
0
 41
1
 42
1
 43
0
 50
0
 70
    1
 71
    1
 44
0
 45
0
  0
INSERT
  5
1CB
100
AcDbEntity
  8
0
  6
ByLayer
 62
  256
370
   -1
100
AcDbBlockReference
  2
Blk24
 10
0
 20
0
 30
0
 41
1
 42
1
 43
0
 50
0
 70
    1
 71
    1
 44
0
 45
0
  0
INSERT
  5
1CC
100
AcDbEntity
  8
0
  6
ByLayer
 62
  256
370
   -1
100
AcDbBlockReference
  2
Blk25
 10
0
 20
0
 30
0
 41
1
 42
1
 43
0
 50
0
 70
    1
 71
    1
 44
0
 45
0
  0
INSERT
  5
1CD
100
AcDbEntity
  8
0
  6
ByLayer
 62
  256
370
   -1
100
AcDbBlockReference
  2
Blk26
 10
0
 20
0
 30
0
 41
1
 42
1
 43
0
 50
0
 70
    1
 71
    1
 44
0
 45
0
  0
LINE
  5
1CE
100
AcDbEntity
  8
0
  6
CONTINUOUS
 62
  256
370
   25
100
AcDbLine
 10
190
 20
160
 11
190
 21
155
  0
LINE
  5
1CF
100
AcDbEntity
  8
0
  6
CONTINUOUS
 62
  256
370
   25
100
AcDbLine
 10
190
 20
155
 11
195
 21
155
  0
LINE
  5
1D0
100
AcDbEntity
  8
0
  6
CONTINUOUS
 62
  256
370
   25
100
AcDbLine
 10
195
 20
155
 11
195
 21
160
  0
LINE
  5
1D1
100
AcDbEntity
  8
0
  6
CONTINUOUS
 62
  256
370
   25
100
AcDbLine
 10
200
 20
160
 11
200
 21
155
  0
LINE
  5
1D2
100
AcDbEntity
  8
0
  6
CONTINUOUS
 62
  256
370
   25
100
AcDbLine
 10
200
 20
155
 11
205
 21
155
  0
LINE
  5
1D3
100
AcDbEntity
  8
0
  6
CONTINUOUS
 62
  256
370
   25
100
AcDbLine
 10
205
 20
155
 11
205
 21
160
  0
LINE
  5
1D4
100
AcDbEntity
  8
0
  6
CONTINUOUS
 62
  256
370
   25
100
AcDbLine
 10
230
 20
160
 11
230
 21
155
  0
LINE
  5
1D5
100
AcDbEntity
  8
0
  6
CONTINUOUS
 62
  256
370
   25
100
AcDbLine
 10
230
 20
155
 11
235
 21
155
  0
LINE
  5
1D6
100
AcDbEntity
  8
0
  6
CONTINUOUS
 62
  256
370
   25
100
AcDbLine
 10
240
 20
160
 11
240
 21
155
  0
LINE
  5
1D7
100
AcDbEntity
  8
0
  6
CONTINUOUS
 62
  256
370
   25
100
AcDbLine
 10
240
 20
155
 11
245
 21
155
  0
LINE
  5
1D8
100
AcDbEntity
  8
0
  6
CONTINUOUS
 62
  256
370
   25
100
AcDbLine
 10
75
 20
185
 11
110
 21
185
  0
TEXT
  5
1D9
100
AcDbEntity
  8
0
  6
ByLayer
 62
  256
370
   25
100
AcDbText
 10
92.5
 20
185.5
 30
0
 40
1.75
  1
0904
 50
0
 41
0.9
 51
0
  7
Caddy_Vectorfont1p
 71
    0
 72
    1
 11
92.5
 21
185.5
 31
0
210
0
220
0
230
1
100
AcDbText
  0
LINE
  5
1DA
100
AcDbEntity
  8
0
  6
CONTINUOUS
 62
  256
370
   25
100
AcDbLine
 10
85
 20
180
 11
120
 21
180
  0
TEXT
  5
1DB
100
AcDbEntity
  8
0
  6
ByLayer
 62
  256
370
   25
100
AcDbText
 10
102.5
 20
180.5
 30
0
 40
1.75
  1
0905
 50
0
 41
0.9
 51
0
  7
Caddy_Vectorfont1p
 71
    0
 72
    1
 11
102.5
 21
180.5
 31
0
210
0
220
0
230
1
100
AcDbText
  0
LINE
  5
1DC
100
AcDbEntity
  8
0
  6
CONTINUOUS
 62
  256
370
   25
100
AcDbLine
 10
115
 20
185
 11
150
 21
185
  0
TEXT
  5
1DD
100
AcDbEntity
  8
0
  6
ByLayer
 62
  256
370
   25
100
AcDbText
 10
132.5
 20
185.5
 30
0
 40
1.75
  1
0906
 50
0
 41
0.9
 51
0
  7
Caddy_Vectorfont1p
 71
    0
 72
    1
 11
132.5
 21
185.5
 31
0
210
0
220
0
230
1
100
AcDbText
  0
LINE
  5
1DE
100
AcDbEntity
  8
0
  6
CONTINUOUS
 62
  256
370
   25
100
AcDbLine
 10
125
 20
180
 11
160
 21
180
  0
TEXT
  5
1DF
100
AcDbEntity
  8
0
  6
ByLayer
 62
  256
370
   25
100
AcDbText
 10
142.5
 20
180.5
 30
0
 40
1.75
  1
0907
 50
0
 41
0.9
 51
0
  7
Caddy_Vectorfont1p
 71
    0
 72
    1
 11
142.5
 21
180.5
 31
0
210
0
220
0
230
1
100
AcDbText
  0
LINE
  5
1E0
100
AcDbEntity
  8
0
  6
CONTINUOUS
 62
  256
370
   25
100
AcDbLine
 10
155
 20
185
 11
190
 21
185
  0
TEXT
  5
1E1
100
AcDbEntity
  8
0
  6
ByLayer
 62
  256
370
   25
100
AcDbText
 10
172.5
 20
185.5
 30
0
 40
1.75
  1
0908
 50
0
 41
0.9
 51
0
  7
Caddy_Vectorfont1p
 71
    0
 72
    1
 11
172.5
 21
185.5
 31
0
210
0
220
0
230
1
100
AcDbText
  0
LINE
  5
1E2
100
AcDbEntity
  8
0
  6
CONTINUOUS
 62
  256
370
   25
100
AcDbLine
 10
165
 20
180
 11
200
 21
180
  0
TEXT
  5
1E3
100
AcDbEntity
  8
0
  6
ByLayer
 62
  256
370
   25
100
AcDbText
 10
182.5
 20
180.5
 30
0
 40
1.75
  1
0909
 50
0
 41
0.9
 51
0
  7
Caddy_Vectorfont1p
 71
    0
 72
    1
 11
182.5
 21
180.5
 31
0
210
0
220
0
230
1
100
AcDbText
  0
LINE
  5
1E4
100
AcDbEntity
  8
0
  6
CONTINUOUS
 62
  256
370
   25
100
AcDbLine
 10
195
 20
185
 11
230
 21
185
  0
TEXT
  5
1E5
100
AcDbEntity
  8
0
  6
ByLayer
 62
  256
370
   25
100
AcDbText
 10
212.5
 20
185.5
 30
0
 40
1.75
  1
0910
 50
0
 41
0.9
 51
0
  7
Caddy_Vectorfont1p
 71
    0
 72
    1
 11
212.5
 21
185.5
 31
0
210
0
220
0
230
1
100
AcDbText
  0
LINE
  5
1E6
100
AcDbEntity
  8
0
  6
CONTINUOUS
 62
  256
370
   25
100
AcDbLine
 10
205
 20
180
 11
240
 21
180
  0
TEXT
  5
1E7
100
AcDbEntity
  8
0
  6
ByLayer
 62
  256
370
   25
100
AcDbText
 10
222.5
 20
180.5
 30
0
 40
1.75
  1
0911
 50
0
 41
0.9
 51
0
  7
Caddy_Vectorfont1p
 71
    0
 72
    1
 11
222.5
 21
180.5
 31
0
210
0
220
0
230
1
100
AcDbText
  0
INSERT
  5
1E8
100
AcDbEntity
  8
0
  6
ByLayer
 62
  256
370
   -1
100
AcDbBlockReference
  2
Blk27
 10
0
 20
0
 30
0
 41
1
 42
1
 43
0
 50
0
 70
    1
 71
    1
 44
0
 45
0
  0
INSERT
  5
1E9
100
AcDbEntity
  8
0
  6
ByLayer
 62
  256
370
   -1
100
AcDbBlockReference
  2
Blk28
 10
0
 20
0
 30
0
 41
1
 42
1
 43
0
 50
0
 70
    1
 71
    1
 44
0
 45
0
  0
LINE
  5
1EA
100
AcDbEntity
  8
0
  6
CONTINUOUS
 62
  256
370
   25
100
AcDbLine
 10
235
 20
155
 11
235
 21
160
  0
LINE
  5
1EB
100
AcDbEntity
  8
0
  6
CONTINUOUS
 62
  256
370
   25
100
AcDbLine
 10
245
 20
155
 11
245
 21
160
  0
LINE
  5
1EC
100
AcDbEntity
  8
0
  6
CONTINUOUS
 62
  256
370
   25
100
AcDbLine
 10
75
 20
165
 11
75
 21
185
  0
TEXT
  5
1ED
100
AcDbEntity
  8
0
  6
ByLayer
 62
  256
370
   25
100
AcDbText
 10
74.5
 20
175
 30
0
 40
1.75
  1
0904
 50
90
 41
0.9
 51
0
  7
Caddy_Vectorfont1p
 71
    0
 72
    1
 11
74.5
 21
175
 31
0
210
0
220
0
230
1
100
AcDbText
  0
LINE
  5
1EE
100
AcDbEntity
  8
0
  6
CONTINUOUS
 62
  256
370
   25
100
AcDbLine
 10
85
 20
165
 11
85
 21
180
  0
TEXT
  5
1EF
100
AcDbEntity
  8
0
  6
ByLayer
 62
  256
370
   25
100
AcDbText
 10
84.5
 20
172.5
 30
0
 40
1.75
  1
0905
 50
90
 41
0.9
 51
0
  7
Caddy_Vectorfont1p
 71
    0
 72
    1
 11
84.5
 21
172.5
 31
0
210
0
220
0
230
1
100
AcDbText
  0
LINE
  5
1F0
100
AcDbEntity
  8
0
  6
CONTINUOUS
 62
  256
370
   25
100
AcDbLine
 10
110
 20
165
 11
110
 21
185
  0
TEXT
  5
1F1
100
AcDbEntity
  8
0
  6
ByLayer
 62
  256
370
   25
100
AcDbText
 10
109.5
 20
175
 30
0
 40
1.75
  1
0904
 50
90
 41
0.9
 51
0
  7
Caddy_Vectorfont1p
 71
    0
 72
    1
 11
109.5
 21
175
 31
0
210
0
220
0
230
1
100
AcDbText
  0
LINE
  5
1F2
100
AcDbEntity
  8
0
  6
CONTINUOUS
 62
  256
370
   25
100
AcDbLine
 10
115
 20
165
 11
115
 21
185
  0
TEXT
  5
1F3
100
AcDbEntity
  8
0
  6
ByLayer
 62
  256
370
   25
100
AcDbText
 10
114.5
 20
175
 30
0
 40
1.75
  1
0906
 50
90
 41
0.9
 51
0
  7
Caddy_Vectorfont1p
 71
    0
 72
    1
 11
114.5
 21
175
 31
0
210
0
220
0
230
1
100
AcDbText
  0
LINE
  5
1F4
100
AcDbEntity
  8
0
  6
CONTINUOUS
 62
  256
370
   25
100
AcDbLine
 10
120
 20
165
 11
120
 21
180
  0
TEXT
  5
1F5
100
AcDbEntity
  8
0
  6
ByLayer
 62
  256
370
   25
100
AcDbText
 10
119.5
 20
172.5
 30
0
 40
1.75
  1
0905
 50
90
 41
0.9
 51
0
  7
Caddy_Vectorfont1p
 71
    0
 72
    1
 11
119.5
 21
172.5
 31
0
210
0
220
0
230
1
100
AcDbText
  0
LINE
  5
1F6
100
AcDbEntity
  8
0
  6
CONTINUOUS
 62
  256
370
   25
100
AcDbLine
 10
125
 20
165
 11
125
 21
180
  0
TEXT
  5
1F7
100
AcDbEntity
  8
0
  6
ByLayer
 62
  256
370
   25
100
AcDbText
 10
124.5
 20
172.5
 30
0
 40
1.75
  1
0907
 50
90
 41
0.9
 51
0
  7
Caddy_Vectorfont1p
 71
    0
 72
    1
 11
124.5
 21
172.5
 31
0
210
0
220
0
230
1
100
AcDbText
  0
LINE
  5
1F8
100
AcDbEntity
  8
0
  6
CONTINUOUS
 62
  256
370
   25
100
AcDbLine
 10
150
 20
165
 11
150
 21
185
  0
TEXT
  5
1F9
100
AcDbEntity
  8
0
  6
ByLayer
 62
  256
370
   25
100
AcDbText
 10
149.5
 20
175
 30
0
 40
1.75
  1
0906
 50
90
 41
0.9
 51
0
  7
Caddy_Vectorfont1p
 71
    0
 72
    1
 11
149.5
 21
175
 31
0
210
0
220
0
230
1
100
AcDbText
  0
LINE
  5
1FA
100
AcDbEntity
  8
0
  6
CONTINUOUS
 62
  256
370
   25
100
AcDbLine
 10
155
 20
165
 11
155
 21
185
  0
TEXT
  5
1FB
100
AcDbEntity
  8
0
  6
ByLayer
 62
  256
370
   25
100
AcDbText
 10
154.5
 20
175
 30
0
 40
1.75
  1
0908
 50
90
 41
0.9
 51
0
  7
Caddy_Vectorfont1p
 71
    0
 72
    1
 11
154.5
 21
175
 31
0
210
0
220
0
230
1
100
AcDbText
  0
LINE
  5
1FC
100
AcDbEntity
  8
0
  6
CONTINUOUS
 62
  256
370
   25
100
AcDbLine
 10
160
 20
165
 11
160
 21
180
  0
TEXT
  5
1FD
100
AcDbEntity
  8
0
  6
ByLayer
 62
  256
370
   25
100
AcDbText
 10
159.5
 20
172.5
 30
0
 40
1.75
  1
0907
 50
90
 41
0.9
 51
0
  7
Caddy_Vectorfont1p
 71
    0
 72
    1
 11
159.5
 21
172.5
 31
0
210
0
220
0
230
1
100
AcDbText
  0
LINE
  5
1FE
100
AcDbEntity
  8
0
  6
CONTINUOUS
 62
  256
370
   25
100
AcDbLine
 10
165
 20
165
 11
165
 21
180
  0
TEXT
  5
1FF
100
AcDbEntity
  8
0
  6
ByLayer
 62
  256
370
   25
100
AcDbText
 10
164.5
 20
172.5
 30
0
 40
1.75
  1
0909
 50
90
 41
0.9
 51
0
  7
Caddy_Vectorfont1p
 71
    0
 72
    1
 11
164.5
 21
172.5
 31
0
210
0
220
0
230
1
100
AcDbText
  0
LINE
  5
200
100
AcDbEntity
  8
0
  6
CONTINUOUS
 62
  256
370
   25
100
AcDbLine
 10
190
 20
165
 11
190
 21
185
  0
TEXT
  5
201
100
AcDbEntity
  8
0
  6
ByLayer
 62
  256
370
   25
100
AcDbText
 10
189.5
 20
175
 30
0
 40
1.75
  1
0908
 50
90
 41
0.9
 51
0
  7
Caddy_Vectorfont1p
 71
    0
 72
    1
 11
189.5
 21
175
 31
0
210
0
220
0
230
1
100
AcDbText
  0
LINE
  5
202
100
AcDbEntity
  8
0
  6
CONTINUOUS
 62
  256
370
   25
100
AcDbLine
 10
195
 20
165
 11
195
 21
185
  0
TEXT
  5
203
100
AcDbEntity
  8
0
  6
ByLayer
 62
  256
370
   25
100
AcDbText
 10
194.5
 20
175
 30
0
 40
1.75
  1
0910
 50
90
 41
0.9
 51
0
  7
Caddy_Vectorfont1p
 71
    0
 72
    1
 11
194.5
 21
175
 31
0
210
0
220
0
230
1
100
AcDbText
  0
LINE
  5
204
100
AcDbEntity
  8
0
  6
CONTINUOUS
 62
  256
370
   25
100
AcDbLine
 10
200
 20
165
 11
200
 21
180
  0
TEXT
  5
205
100
AcDbEntity
  8
0
  6
ByLayer
 62
  256
370
   25
100
AcDbText
 10
199.5
 20
172.5
 30
0
 40
1.75
  1
0909
 50
90
 41
0.9
 51
0
  7
Caddy_Vectorfont1p
 71
    0
 72
    1
 11
199.5
 21
172.5
 31
0
210
0
220
0
230
1
100
AcDbText
  0
LINE
  5
206
100
AcDbEntity
  8
0
  6
CONTINUOUS
 62
  256
370
   25
100
AcDbLine
 10
205
 20
165
 11
205
 21
180
  0
TEXT
  5
207
100
AcDbEntity
  8
0
  6
ByLayer
 62
  256
370
   25
100
AcDbText
 10
204.5
 20
172.5
 30
0
 40
1.75
  1
0911
 50
90
 41
0.9
 51
0
  7
Caddy_Vectorfont1p
 71
    0
 72
    1
 11
204.5
 21
172.5
 31
0
210
0
220
0
230
1
100
AcDbText
  0
LINE
  5
208
100
AcDbEntity
  8
0
  6
CONTINUOUS
 62
  256
370
   25
100
AcDbLine
 10
230
 20
165
 11
230
 21
185
  0
TEXT
  5
209
100
AcDbEntity
  8
0
  6
ByLayer
 62
  256
370
   25
100
AcDbText
 10
229.5
 20
175
 30
0
 40
1.75
  1
0910
 50
90
 41
0.9
 51
0
  7
Caddy_Vectorfont1p
 71
    0
 72
    1
 11
229.5
 21
175
 31
0
210
0
220
0
230
1
100
AcDbText
  0
LINE
  5
20A
100
AcDbEntity
  8
0
  6
CONTINUOUS
 62
  256
370
   25
100
AcDbLine
 10
240
 20
165
 11
240
 21
180
  0
TEXT
  5
20B
100
AcDbEntity
  8
0
  6
ByLayer
 62
  256
370
   25
100
AcDbText
 10
239.5
 20
172.5
 30
0
 40
1.75
  1
0911
 50
90
 41
0.9
 51
0
  7
Caddy_Vectorfont1p
 71
    0
 72
    1
 11
239.5
 21
172.5
 31
0
210
0
220
0
230
1
100
AcDbText
  0
LINE
  5
20C
100
AcDbEntity
  8
0
  6
CONTINUOUS
 62
  256
370
   25
100
AcDbLine
 10
245
 20
235
 11
270
 21
235
  0
LINE
  5
20D
100
AcDbEntity
  8
0
  6
CONTINUOUS
 62
  256
370
   25
100
AcDbLine
 10
235
 20
240
 11
265
 21
240
  0
LINE
  5
20E
100
AcDbEntity
  8
0
  6
CONTINUOUS
 62
  256
370
   25
100
AcDbLine
 10
40
 20
235
 11
70
 21
235
  0
LINE
  5
20F
100
AcDbEntity
  8
0
  6
CONTINUOUS
 62
  256
370
   25
100
AcDbLine
 10
50
 20
240
 11
80
 21
240
  0
LINE
  5
210
100
AcDbEntity
  8
0
  6
CONTINUOUS
 62
  256
370
   25
100
AcDbLine
 10
150
 20
115
 11
155
 21
115
  0
LINE
  5
211
100
AcDbEntity
  8
0
  6
CONTINUOUS
 62
  256
370
   25
100
AcDbLine
 10
160
 20
115
 11
165
 21
115
  0
INSERT
  5
212
100
AcDbEntity
  8
0
  6
ByLayer
 62
  256
370
   -1
100
AcDbBlockReference
  2
Blk29
 10
0
 20
0
 30
0
 41
1
 42
1
 43
0
 50
0
 70
    1
 71
    1
 44
0
 45
0
  0
LINE
  5
213
100
AcDbEntity
  8
0
  6
CONTINUOUS
 62
  256
370
   25
100
AcDbLine
 10
150
 20
115
 11
150
 21
125
  0
LINE
  5
214
100
AcDbEntity
  8
0
  6
CONTINUOUS
 62
  256
370
   25
100
AcDbLine
 10
160
 20
115
 11
160
 21
125
  0
INSERT
  5
215
100
AcDbEntity
  8
0
  6
ByLayer
 62
  256
370
   -1
100
AcDbBlockReference
  2
Blk30
 10
0
 20
0
 30
0
 41
1
 42
1
 43
0
 50
0
 70
    1
 71
    1
 44
0
 45
0
  0
LINE
  5
216
100
AcDbEntity
  8
0
  6
CONTINUOUS
 62
  256
370
   25
100
AcDbLine
 10
70
 20
125
 11
70
 21
115
  0
LINE
  5
217
100
AcDbEntity
  8
0
  6
CONTINUOUS
 62
  256
370
   25
100
AcDbLine
 10
70
 20
115
 11
75
 21
115
  0
LINE
  5
218
100
AcDbEntity
  8
0
  6
CONTINUOUS
 62
  256
370
   25
100
AcDbLine
 10
80
 20
125
 11
80
 21
115
  0
LINE
  5
219
100
AcDbEntity
  8
0
  6
CONTINUOUS
 62
  256
370
   25
100
AcDbLine
 10
80
 20
115
 11
85
 21
115
  0
TEXT
  5
21A
100
AcDbEntity
  8
0
  6
ByLayer
 62
  256
370
   25
100
AcDbText
 10
106.0999984741211
 20
107.2999954223633
 30
0
 40
2.099998474121094
  1
Lågekontakt 2
 50
0
 41
0.9
 51
0
  7
Caddy_Vectorfont1p
 71
    0
210
0
220
0
230
1
100
AcDbText
  0
TEXT
  5
21B
100
AcDbEntity
  8
0
  6
ByLayer
 62
  256
370
   25
100
AcDbText
 10
141.1000061035156
 20
107.7999954223633
 30
0
 40
2.099998474121094
  1
Lågekontakt ved bufferplads
 50
0
 41
0.9
 51
0
  7
Caddy_Vectorfont1p
 71
    0
210
0
220
0
230
1
100
AcDbText
  0
TEXT
  5
21C
100
AcDbEntity
  8
0
  6
ByLayer
 62
  256
370
   25
100
AcDbText
 10
66.09999847412109
 20
107.3000106811523
 30
0
 40
2.099998474121094
  1
Lågekontakt 1
 50
0
 41
0.9
 51
0
  7
Caddy_Vectorfont1p
 71
    0
210
0
220
0
230
1
100
AcDbText
  0
INSERT
  5
21D
100
AcDbEntity
  8
0
  6
ByLayer
 62
  256
370
   -1
100
AcDbBlockReference
  2
Blk33
 10
0
 20
0
 30
0
 41
1
 42
1
 43
0
 50
0
 70
    1
 71
    1
 44
0
 45
0
  0
INSERT
  5
21E
100
AcDbEntity
  8
0
  6
ByLayer
 62
  256
370
   -1
100
AcDbBlockReference
  2
Blk34
 10
0
 20
0
 30
0
 41
1
 42
1
 43
0
 50
0
 70
    1
 71
    1
 44
0
 45
0
  0
INSERT
  5
21F
100
AcDbEntity
  8
0
  6
ByLayer
 62
  256
370
   -1
100
AcDbBlockReference
  2
Blk35
 10
0
 20
0
 30
0
 41
1
 42
1
 43
0
 50
0
 70
    1
 71
    1
 44
0
 45
0
  0
INSERT
  5
220
100
AcDbEntity
  8
0
  6
ByLayer
 62
  256
370
   -1
100
AcDbBlockReference
  2
Blk36
 10
0
 20
0
 30
0
 41
1
 42
1
 43
0
 50
0
 70
    1
 71
    1
 44
0
 45
0
  0
LINE
  5
221
100
AcDbEntity
  8
0
  6
CONTINUOUS
 62
  256
370
   25
100
AcDbLine
 10
65
 20
145
 11
90
 21
145
  0
LINE
  5
222
100
AcDbEntity
  8
0
  6
CONTINUOUS
 62
  256
370
   25
100
AcDbLine
 10
80
 20
135
 11
80
 21
144.5
  0
LINE
  5
223
100
AcDbEntity
  8
0
  6
CONTINUOUS
 62
  256
370
   25
100
AcDbLine
 10
80
 20
145.5
 11
80
 21
160
  0
LINE
  5
224
100
AcDbEntity
  8
0
  6
CONTINUOUS
 62
  256
370
   25
100
AcDbLine
 10
70
 20
135
 11
70
 21
144.5
  0
LINE
  5
225
100
AcDbEntity
  8
0
  6
CONTINUOUS
 62
  256
370
   25
100
AcDbLine
 10
70
 20
145.5
 11
70
 21
160
  0
LINE
  5
226
100
AcDbEntity
  8
0
  6
CONTINUOUS
 62
  256
370
   25
100
AcDbLine
 10
75
 20
115
 11
75
 21
144.5
  0
LINE
  5
227
100
AcDbEntity
  8
0
  6
CONTINUOUS
 62
  256
370
   25
100
AcDbLine
 10
75
 20
145.5
 11
75
 21
160
  0
LINE
  5
228
100
AcDbEntity
  8
0
  6
CONTINUOUS
 62
  256
370
   25
100
AcDbLine
 10
85
 20
115
 11
85
 21
144.5
  0
LINE
  5
229
100
AcDbEntity
  8
0
  6
CONTINUOUS
 62
  256
370
   25
100
AcDbLine
 10
85
 20
145.5
 11
85
 21
160
  0
INSERT
  5
22A
100
AcDbEntity
  8
0
  6
ByLayer
 62
  256
370
   -1
100
AcDbBlockReference
  2
Blk37
 10
0
 20
0
 30
0
 41
1
 42
1
 43
0
 50
0
 70
    1
 71
    1
 44
0
 45
0
  0
INSERT
  5
22B
100
AcDbEntity
  8
0
  6
ByLayer
 62
  256
370
   -1
100
AcDbBlockReference
  2
Blk38
 10
0
 20
0
 30
0
 41
1
 42
1
 43
0
 50
0
 70
    1
 71
    1
 44
0
 45
0
  0
INSERT
  5
22C
100
AcDbEntity
  8
0
  6
ByLayer
 62
  256
370
   -1
100
AcDbBlockReference
  2
Blk39
 10
0
 20
0
 30
0
 41
1
 42
1
 43
0
 50
0
 70
    1
 71
    1
 44
0
 45
0
  0
INSERT
  5
22D
100
AcDbEntity
  8
0
  6
ByLayer
 62
  256
370
   -1
100
AcDbBlockReference
  2
Blk40
 10
0
 20
0
 30
0
 41
1
 42
1
 43
0
 50
0
 70
    1
 71
    1
 44
0
 45
0
  0
LINE
  5
22E
100
AcDbEntity
  8
0
  6
CONTINUOUS
 62
  256
370
   25
100
AcDbLine
 10
105
 20
145
 11
130
 21
145
  0
LINE
  5
22F
100
AcDbEntity
  8
0
  6
CONTINUOUS
 62
  256
370
   25
100
AcDbLine
 10
110
 20
135
 11
110
 21
144.5
  0
LINE
  5
230
100
AcDbEntity
  8
0
  6
CONTINUOUS
 62
  256
370
   25
100
AcDbLine
 10
110
 20
145.5
 11
110
 21
160
  0
LINE
  5
231
100
AcDbEntity
  8
0
  6
CONTINUOUS
 62
  256
370
   25
100
AcDbLine
 10
115
 20
115
 11
115
 21
144.5
  0
LINE
  5
232
100
AcDbEntity
  8
0
  6
CONTINUOUS
 62
  256
370
   25
100
AcDbLine
 10
115
 20
145.5
 11
115
 21
160
  0
LINE
  5
233
100
AcDbEntity
  8
0
  6
CONTINUOUS
 62
  256
370
   25
100
AcDbLine
 10
120
 20
135
 11
120
 21
144.5
  0
LINE
  5
234
100
AcDbEntity
  8
0
  6
CONTINUOUS
 62
  256
370
   25
100
AcDbLine
 10
120
 20
145.5
 11
120
 21
160
  0
LINE
  5
235
100
AcDbEntity
  8
0
  6
CONTINUOUS
 62
  256
370
   25
100
AcDbLine
 10
125
 20
115
 11
125
 21
144.5
  0
LINE
  5
236
100
AcDbEntity
  8
0
  6
CONTINUOUS
 62
  256
370
   25
100
AcDbLine
 10
125
 20
145.5
 11
125
 21
160
  0
INSERT
  5
237
100
AcDbEntity
  8
0
  6
ByLayer
 62
  256
370
   -1
100
AcDbBlockReference
  2
Blk41
 10
0
 20
0
 30
0
 41
1
 42
1
 43
0
 50
0
 70
    1
 71
    1
 44
0
 45
0
  0
INSERT
  5
238
100
AcDbEntity
  8
0
  6
ByLayer
 62
  256
370
   -1
100
AcDbBlockReference
  2
Blk42
 10
0
 20
0
 30
0
 41
1
 42
1
 43
0
 50
0
 70
    1
 71
    1
 44
0
 45
0
  0
INSERT
  5
239
100
AcDbEntity
  8
0
  6
ByLayer
 62
  256
370
   -1
100
AcDbBlockReference
  2
Blk43
 10
0
 20
0
 30
0
 41
1
 42
1
 43
0
 50
0
 70
    1
 71
    1
 44
0
 45
0
  0
INSERT
  5
23A
100
AcDbEntity
  8
0
  6
ByLayer
 62
  256
370
   -1
100
AcDbBlockReference
  2
Blk44
 10
0
 20
0
 30
0
 41
1
 42
1
 43
0
 50
0
 70
    1
 71
    1
 44
0
 45
0
  0
LINE
  5
23B
100
AcDbEntity
  8
0
  6
CONTINUOUS
 62
  256
370
   25
100
AcDbLine
 10
145
 20
145
 11
170
 21
145
  0
LINE
  5
23C
100
AcDbEntity
  8
0
  6
CONTINUOUS
 62
  256
370
   25
100
AcDbLine
 10
150
 20
135
 11
150
 21
144.5
  0
LINE
  5
23D
100
AcDbEntity
  8
0
  6
CONTINUOUS
 62
  256
370
   25
100
AcDbLine
 10
150
 20
145.5
 11
150
 21
160
  0
LINE
  5
23E
100
AcDbEntity
  8
0
  6
CONTINUOUS
 62
  256
370
   25
100
AcDbLine
 10
160
 20
135
 11
160
 21
144.5
  0
LINE
  5
23F
100
AcDbEntity
  8
0
  6
CONTINUOUS
 62
  256
370
   25
100
AcDbLine
 10
160
 20
145.5
 11
160
 21
160
  0
LINE
  5
240
100
AcDbEntity
  8
0
  6
CONTINUOUS
 62
  256
370
   25
100
AcDbLine
 10
165
 20
115
 11
165
 21
144.5
  0
LINE
  5
241
100
AcDbEntity
  8
0
  6
CONTINUOUS
 62
  256
370
   25
100
AcDbLine
 10
165
 20
145.5
 11
165
 21
160
  0
LINE
  5
242
100
AcDbEntity
  8
0
  6
CONTINUOUS
 62
  256
370
   25
100
AcDbLine
 10
155
 20
115
 11
155
 21
144.5
  0
LINE
  5
243
100
AcDbEntity
  8
0
  6
CONTINUOUS
 62
  256
370
   25
100
AcDbLine
 10
155
 20
145.5
 11
155
 21
160
  0
TEXT
  5
244
100
AcDbEntity
  8
0
  6
ByLayer
 62
  256
370
   25
100
AcDbText
 10
170.6000061035156
 20
140.6000061035156
 30
0
 40
2.099990844726562
  1
5x0,75jz
 50
0
 41
0.9
 51
0
  7
Caddy_Vectorfont1p
 71
    0
210
0
220
0
230
1
100
AcDbText
  0
TEXT
  5
245
100
AcDbEntity
  8
0
  6
ByLayer
 62
  256
370
   25
100
AcDbText
 10
130.6000061035156
 20
140.6000061035156
 30
0
 40
2.099990844726562
  1
5x0,75jz
 50
0
 41
0.9
 51
0
  7
Caddy_Vectorfont1p
 71
    0
210
0
220
0
230
1
100
AcDbText
  0
TEXT
  5
246
100
AcDbEntity
  8
0
  6
ByLayer
 62
  256
370
   25
100
AcDbText
 10
90.59999847412109
 20
140.6000061035156
 30
0
 40
2.099990844726562
  1
5x0,75jz
 50
0
 41
0.9
 51
0
  7
Caddy_Vectorfont1p
 71
    0
210
0
220
0
230
1
100
AcDbText
  0
TEXT
  5
247
100
AcDbEntity
  8
0
  6
ByLayer
 62
  256
370
   25
100
AcDbText
 10
55.59999847412109
 20
180.6000061035156
 30
0
 40
2.099990844726562
  1
BOKS 9
 50
0
 41
0.9
 51
0
  7
Caddy_Vectorfont1p
 71
    0
210
0
220
0
230
1
100
AcDbText
  0
LINE
  5
248
100
AcDbEntity
  8
0
  6
CONTINUOUS
 62
  256
370
   25
100
AcDbLine
 10
70
 20
165
 11
70
 21
235
  0
LINE
  5
249
100
AcDbEntity
  8
0
  6
CONTINUOUS
 62
  256
370
   25
100
AcDbLine
 10
80
 20
165
 11
80
 21
240
  0
LINE
  5
24A
100
AcDbEntity
  8
0
  6
CONTINUOUS
 62
  256
370
   25
100
AcDbLine
 10
235
 20
165
 11
235
 21
240
  0
LINE
  5
24B
100
AcDbEntity
  8
0
  6
CONTINUOUS
 62
  256
370
   25
100
AcDbLine
 10
245
 20
165
 11
245
 21
235
  0
MTEXT
  5
24C
100
AcDbEntity
  8
0
  6
ByLayer
 62
  256
370
   -1
100
AcDbMText
 10
55.66634042486814
 20
243.6640523935509
 30
0
 40
2
 41
5.111111111111111
 71
    1
 72
    1
  1
0810
  7
standard
210
0
220
0
230
1
 50
0
 73
    2
 44
1
  0
MTEXT
  5
24D
100
AcDbEntity
  8
0
  6
ByLayer
 62
  256
370
   -1
100
AcDbMText
 10
41.20497796573869
 20
241.0887412706923
 30
0
 40
2
 41
3.111111111111112
 71
    1
 72
    1
  1
8.8
  7
standard
210
0
220
0
230
1
 50
0
 73
    2
 44
1
  0
MTEXT
  5
24E
100
AcDbEntity
  8
0
  6
ByLayer
 62
  256
370
   -1
100
AcDbMText
 10
31.69613689672207
 20
235.7400181693704
 30
0
 40
2
 41
3.111111111111112
 71
    1
 72
    1
  1
8.8
  7
standard
210
0
220
0
230
1
 50
0
 73
    2
 44
1
  0
MTEXT
  5
24F
100
AcDbEntity
  8
0
  6
ByLayer
 62
  256
370
   -1
100
AcDbMText
 10
54.87393700245008
 20
237.91912758102
 30
0
 40
2
 41
4.666666666666667
 71
    1
 72
    1
  1
0811
  7
standard
210
0
220
0
230
1
 50
0
 73
    2
 44
1
  0
MTEXT
  5
250
100
AcDbEntity
  8
0
  6
ByLayer
 62
  256
370
   -1
100
AcDbMText
 10
57.84544983651778
 20
162.8389033069096
 30
0
 40
2
 41
2.888888888888889
 71
    1
 72
    1
  1
X9
  7
standard
210
0
220
0
230
1
 50
0
 73
    2
 44
1
  0
TEXT
  5
251
100
AcDbEntity
  8
0
  6
ByLayer
 62
  256
370
   25
100
AcDbText
 10
68.75507518746912
 20
167.670268342633
 30
0
 40
1.75
  1
1
 50
90
 41
0.9
 51
0
  7
standard
 71
    0
 72
    1
 11
68.75507518746912
 21
167.670268342633
 31
0
210
0
220
0
230
1
100
AcDbText
  0
TEXT
  5
252
100
AcDbEntity
  8
0
  6
ByLayer
 62
  256
370
   25
100
AcDbText
 10
74.69810085560451
 20
167.670268342633
 30
0
 40
1.75
  1
2
 50
90
 41
0.9
 51
0
  7
standard
 71
    0
 72
    1
 11
74.69810085560451
 21
167.670268342633
 31
0
210
0
220
0
230
1
100
AcDbText
  0
TEXT
  5
253
100
AcDbEntity
  8
0
  6
ByLayer
 62
  256
370
   25
100
AcDbText
 10
79.25442053450831
 20
167.4721674870285
 30
0
 40
1.75
  1
3
 50
90
 41
0.9
 51
0
  7
standard
 71
    0
 72
    1
 11
79.25442053450831
 21
167.4721674870285
 31
0
210
0
220
0
230
1
100
AcDbText
  0
TEXT
  5
254
100
AcDbEntity
  8
0
  6
ByLayer
 62
  256
370
   25
100
AcDbText
 10
84.80124449143467
 20
166.4816632090059
 30
0
 40
1.75
  1
4
 50
90
 41
0.9
 51
0
  7
standard
 71
    0
 72
    1
 11
84.80124449143467
 21
166.4816632090059
 31
0
210
0
220
0
230
1
100
AcDbText
  0
TEXT
  5
255
100
AcDbEntity
  8
0
  6
ByLayer
 62
  256
370
   25
100
AcDbText
 10
72.71709229955938
 20
147.8601827821817
 30
0
 40
1.75
  1
1
 50
90
 41
0.9
 51
0
  7
standard
 71
    0
 72
    1
 11
72.71709229955938
 21
147.8601827821817
 31
0
210
0
220
0
230
1
100
AcDbText
  0
TEXT
  5
256
100
AcDbEntity
  8
0
  6
ByLayer
 62
  256
370
   25
100
AcDbText
 10
77.4715128340677
 20
148.2563844933908
 30
0
 40
1.75
  1
2
 50
90
 41
0.9
 51
0
  7
standard
 71
    0
 72
    1
 11
77.4715128340677
 21
148.2563844933908
 31
0
210
0
220
0
230
1
100
AcDbText
  0
TEXT
  5
257
100
AcDbEntity
  8
0
  6
ByLayer
 62
  256
370
   25
100
AcDbText
 10
82.62213507978504
 20
148.2563844933908
 30
0
 40
1.75
  1
3
 50
90
 41
0.9
 51
0
  7
standard
 71
    0
 72
    1
 11
82.62213507978504
 21
148.2563844933908
 31
0
210
0
220
0
230
1
100
AcDbText
  0
TEXT
  5
258
100
AcDbEntity
  8
0
  6
ByLayer
 62
  256
370
   25
100
AcDbText
 10
88.36705989231591
 20
148.2563844933908
 30
0
 40
1.75
  1
4
 50
90
 41
0.9
 51
0
  7
standard
 71
    0
 72
    1
 11
88.36705989231591
 21
148.2563844933908
 31
0
210
0
220
0
230
1
100
AcDbText
  0
TEXT
  5
259
100
AcDbEntity
  8
0
  6
ByLayer
 62
  256
370
   25
100
AcDbText
 10
91.85245504974696
 20
144.7437512390988
 30
0
 40
2.09999
  1
W0901
 50
0
 41
0.9
 51
0
  7
standard
 71
    0
210
0
220
0
230
1
100
AcDbText
  0
TEXT
  5
25A
100
AcDbEntity
  8
0
  6
ByLayer
 62
  256
370
   25
100
AcDbText
 10
113.7239694096935
 20
146.4734767929501
 30
0
 40
1.75
  1
1
 50
90
 41
0.9
 51
0
  7
standard
 71
    0
 72
    1
 11
113.7239694096935
 21
146.4734767929501
 31
0
210
0
220
0
230
1
100
AcDbText
  0
TEXT
  5
25B
100
AcDbEntity
  8
0
  6
ByLayer
 62
  256
370
   25
100
AcDbText
 10
153.1460396749916
 20
147.0677793597637
 30
0
 40
1.75
  1
1
 50
90
 41
0.9
 51
0
  7
standard
 71
    0
 72
    1
 11
153.1460396749916
 21
147.0677793597637
 31
0
210
0
220
0
230
1
100
AcDbText
  0
TEXT
  5
25C
100
AcDbEntity
  8
0
  6
ByLayer
 62
  256
370
   25
100
AcDbText
 10
68.3588734762601
 20
124.8804835320582
 30
0
 40
1.75
  1
12
 50
90
 41
0.9
 51
0
  7
standard
 71
    0
 72
    1
 11
68.3588734762601
 21
124.8804835320582
 31
0
210
0
220
0
230
1
100
AcDbText
  0
TEXT
  5
25D
100
AcDbEntity
  8
0
  6
ByLayer
 62
  256
370
   25
100
AcDbText
 10
68.95317604307364
 20
135.1817280234929
 30
0
 40
1.75
  1
11
 50
90
 41
0.9
 51
0
  7
standard
 71
    0
 72
    1
 11
68.95317604307364
 21
135.1817280234929
 31
0
210
0
220
0
230
1
100
AcDbText
  0
TEXT
  5
25E
100
AcDbEntity
  8
0
  6
ByLayer
 62
  256
370
   25
100
AcDbText
 10
79.0563196789038
 20
136.1722323015155
 30
0
 40
1.75
  1
11
 50
90
 41
0.9
 51
0
  7
standard
 71
    0
 72
    1
 11
79.0563196789038
 21
136.1722323015155
 31
0
210
0
220
0
230
1
100
AcDbText
  0
TEXT
  5
25F
100
AcDbEntity
  8
0
  6
ByLayer
 62
  256
370
   25
100
AcDbText
 10
79.0563196789038
 20
124.8804835320582
 30
0
 40
1.75
  1
12
 50
90
 41
0.9
 51
0
  7
standard
 71
    0
 72
    1
 11
79.0563196789038
 21
124.8804835320582
 31
0
210
0
220
0
230
1
100
AcDbText
  0
TEXT
  5
260
100
AcDbEntity
  8
0
  6
ByLayer
 62
  256
370
   25
100
AcDbText
 10
108.5733471639762
 20
126.0690886656853
 30
0
 40
1.75
  1
12
 50
90
 41
0.9
 51
0
  7
standard
 71
    0
 72
    1
 11
108.5733471639762
 21
126.0690886656853
 31
0
210
0
220
0
230
1
100
AcDbText
  0
TEXT
  5
261
100
AcDbEntity
  8
0
  6
ByLayer
 62
  256
370
   25
100
AcDbText
 10
108.5733471639762
 20
134.3893246010748
 30
0
 40
1.75
  1
11
 50
90
 41
0.9
 51
0
  7
standard
 71
    0
 72
    1
 11
108.5733471639762
 21
134.3893246010748
 31
0
210
0
220
0
230
1
100
AcDbText
  0
TEXT
  5
262
100
AcDbEntity
  8
0
  6
ByLayer
 62
  256
370
   25
100
AcDbText
 10
119.0726925110154
 20
134.3893246010748
 30
0
 40
1.75
  1
11
 50
90
 41
0.9
 51
0
  7
standard
 71
    0
 72
    1
 11
119.0726925110154
 21
134.3893246010748
 31
0
210
0
220
0
230
1
100
AcDbText
  0
TEXT
  5
263
100
AcDbEntity
  8
0
  6
ByLayer
 62
  256
370
   25
100
AcDbText
 10
118.8745916554109
 20
125.8709878100808
 30
0
 40
1.75
  1
12
 50
90
 41
0.9
 51
0
  7
standard
 71
    0
 72
    1
 11
118.8745916554109
 21
125.8709878100808
 31
0
210
0
220
0
230
1
100
AcDbText
  0
TEXT
  5
264
100
AcDbEntity
  8
0
  6
ByLayer
 62
  256
370
   25
100
AcDbText
 10
119.0726925110154
 20
146.6715776485546
 30
0
 40
1.75
  1
2
 50
90
 41
0.9
 51
0
  7
standard
 71
    0
 72
    1
 11
119.0726925110154
 21
146.6715776485546
 31
0
210
0
220
0
230
1
100
AcDbText
  0
TEXT
  5
265
100
AcDbEntity
  8
0
  6
ByLayer
 62
  256
370
   25
100
AcDbText
 10
124.0252139011282
 20
146.8696785041591
 30
0
 40
1.75
  1
3
 50
90
 41
0.9
 51
0
  7
standard
 71
    0
 72
    1
 11
124.0252139011282
 21
146.8696785041591
 31
0
210
0
220
0
230
1
100
AcDbText
  0
TEXT
  5
266
100
AcDbEntity
  8
0
  6
ByLayer
 62
  256
370
   25
100
AcDbText
 10
128.3834327244275
 20
147.4639810709727
 30
0
 40
1.75
  1
4
 50
90
 41
0.9
 51
0
  7
standard
 71
    0
 72
    1
 11
128.3834327244275
 21
147.4639810709727
 31
0
210
0
220
0
230
1
100
AcDbText
  0
TEXT
  5
267
100
AcDbEntity
  8
0
  6
ByLayer
 62
  256
370
   25
100
AcDbText
 10
158.296661920709
 20
147.2658802153682
 30
0
 40
1.75
  1
2
 50
90
 41
0.9
 51
0
  7
standard
 71
    0
 72
    1
 11
158.296661920709
 21
147.2658802153682
 31
0
210
0
220
0
230
1
100
AcDbText
  0
TEXT
  5
268
100
AcDbEntity
  8
0
  6
ByLayer
 62
  256
370
   25
100
AcDbText
 10
163.6453850220308
 20
147.2658802153682
 30
0
 40
1.75
  1
3
 50
90
 41
0.9
 51
0
  7
standard
 71
    0
 72
    1
 11
163.6453850220308
 21
147.2658802153682
 31
0
210
0
220
0
230
1
100
AcDbText
  0
TEXT
  5
269
100
AcDbEntity
  8
0
  6
ByLayer
 62
  256
370
   25
100
AcDbText
 10
169.1922089789572
 20
147.2658802153682
 30
0
 40
1.75
  1
4
 50
90
 41
0.9
 51
0
  7
standard
 71
    0
 72
    1
 11
169.1922089789572
 21
147.2658802153682
 31
0
210
0
220
0
230
1
100
AcDbText
  0
TEXT
  5
26A
100
AcDbEntity
  8
0
  6
ByLayer
 62
  256
370
   25
100
AcDbText
 10
108.3752463083717
 20
165.4911589309834
 30
0
 40
1.75
  1
5
 50
90
 41
0.9
 51
0
  7
standard
 71
    0
 72
    1
 11
108.3752463083717
 21
165.4911589309834
 31
0
210
0
220
0
230
1
100
AcDbText
  0
TEXT
  5
26B
100
AcDbEntity
  8
0
  6
ByLayer
 62
  256
370
   25
100
AcDbText
 10
114.1201711209026
 20
165.4911589309834
 30
0
 40
1.75
  1
6
 50
90
 41
0.9
 51
0
  7
standard
 71
    0
 72
    1
 11
114.1201711209026
 21
165.4911589309834
 31
0
210
0
220
0
230
1
100
AcDbText
  0
TEXT
  5
26C
100
AcDbEntity
  8
0
  6
ByLayer
 62
  256
370
   25
100
AcDbText
 10
119.0726925110154
 20
165.4911589309834
 30
0
 40
1.75
  1
7
 50
90
 41
0.9
 51
0
  7
standard
 71
    0
 72
    1
 11
119.0726925110154
 21
165.4911589309834
 31
0
210
0
220
0
230
1
100
AcDbText
  0
TEXT
  5
26D
100
AcDbEntity
  8
0
  6
ByLayer
 62
  256
370
   25
100
AcDbText
 10
124.2233147567327
 20
165.4911589309834
 30
0
 40
1.75
  1
8
 50
90
 41
0.9
 51
0
  7
standard
 71
    0
 72
    1
 11
124.2233147567327
 21
165.4911589309834
 31
0
210
0
220
0
230
1
100
AcDbText
  0
TEXT
  5
26E
100
AcDbEntity
  8
0
  6
ByLayer
 62
  256
370
   25
100
AcDbText
 10
148.9859217072969
 20
165.8873606421924
 30
0
 40
1.75
  1
9
 50
90
 41
0.9
 51
0
  7
standard
 71
    0
 72
    1
 11
148.9859217072969
 21
165.8873606421924
 31
0
210
0
220
0
230
1
100
AcDbText
  0
TEXT
  5
26F
100
AcDbEntity
  8
0
  6
ByLayer
 62
  256
370
   25
100
AcDbText
 10
154.5327456642232
 20
165.8873606421924
 30
0
 40
1.75
  1
10
 50
90
 41
0.9
 51
0
  7
standard
 71
    0
 72
    1
 11
154.5327456642232
 21
165.8873606421924
 31
0
210
0
220
0
230
1
100
AcDbText
  0
TEXT
  5
270
100
AcDbEntity
  8
0
  6
ByLayer
 62
  256
370
   25
100
AcDbText
 10
159.485267054336
 20
165.4911589309834
 30
0
 40
1.75
  1
11
 50
90
 41
0.9
 51
0
  7
standard
 71
    0
 72
    1
 11
159.485267054336
 21
165.4911589309834
 31
0
210
0
220
0
230
1
100
AcDbText
  0
MTEXT
  5
271
100
AcDbEntity
  8
0
  6
ByLayer
 62
  256
370
   -1
100
AcDbMText
 10
100.2390329358836
 20
163.8294075849322
 30
0
 40
2
 41
2.888888888888889
 71
    1
 72
    1
  1
X9
  7
standard
210
0
220
0
230
1
 50
0
 73
    2
 44
1
  0
MTEXT
  5
272
100
AcDbEntity
  8
0
  6
ByLayer
 62
  256
370
   -1
100
AcDbMText
 10
142.2364143240403
 20
163.4332058737232
 30
0
 40
2
 41
2.888888888888889
 71
    1
 72
    1
  1
X9
  7
standard
210
0
220
0
230
1
 50
0
 73
    2
 44
1
  0
TEXT
  5
273
100
AcDbEntity
  8
0
  6
ByLayer
 62
  256
370
   25
100
AcDbText
 10
132.2650295930676
 20
144.9418520947033
 30
0
 40
2.09999
  1
W0902
 50
0
 41
0.9
 51
0
  7
standard
 71
    0
210
0
220
0
230
1
100
AcDbText
  0
TEXT
  5
274
100
AcDbEntity
  8
0
  6
ByLayer
 62
  256
370
   25
100
AcDbText
 10
172.0833015695747
 20
145.1399529503078
 30
0
 40
2.09999
  1
W0903
 50
0
 41
0.9
 51
0
  7
standard
 71
    0
210
0
220
0
230
1
100
AcDbText
  0
MTEXT
  5
275
100
AcDbEntity
  8
0
  6
ByLayer
 62
  256
370
   -1
100
AcDbMText
 10
51.50622245717337
 20
131.3408672657921
 30
0
 40
2
 41
3.777777777778025
 71
    1
 72
    1
  1
9B1
  7
standard
210
0
220
0
230
1
 50
0
 73
    2
 44
1
  0
MTEXT
  5
276
100
AcDbEntity
  8
0
  6
ByLayer
 62
  256
370
   -1
100
AcDbMText
 10
91.12639357807596
 20
131.1427664101876
 30
0
 40
2
 41
4.22222222222247
 71
    1
 72
    1
  1
9B2
  7
standard
210
0
220
0
230
1
 50
0
 73
    2
 44
1
  0
TEXT
  5
277
100
AcDbEntity
  8
0
  6
ByLayer
 62
  256
370
   25
100
AcDbText
 10
164.0415867332399
 20
165.4911589309834
 30
0
 40
1.75
  1
12
 50
90
 41
0.9
 51
0
  7
standard
 71
    0
 72
    1
 11
164.0415867332399
 21
165.4911589309834
 31
0
210
0
220
0
230
1
100
AcDbText
  0
TEXT
  5
278
100
AcDbEntity
  8
0
  6
ByLayer
 62
  256
370
   25
100
AcDbText
 10
188.2098911169905
 20
165.2930580753788
 30
0
 40
1.75
  1
13
 50
90
 41
0.9
 51
0
  7
standard
 71
    0
 72
    1
 11
188.2098911169905
 21
165.2930580753788
 31
0
210
0
220
0
230
1
100
AcDbText
  0
TEXT
  5
279
100
AcDbEntity
  8
0
  6
ByLayer
 62
  256
370
   25
100
AcDbText
 10
194.3510176407304
 20
165.2930580753788
 30
0
 40
1.75
  1
14
 50
90
 41
0.9
 51
0
  7
standard
 71
    0
 72
    1
 11
194.3510176407304
 21
165.2930580753788
 31
0
210
0
220
0
230
1
100
AcDbText
  0
TEXT
  5
27A
100
AcDbEntity
  8
0
  6
ByLayer
 62
  256
370
   25
100
AcDbText
 10
199.8978415976567
 20
165.2930580753788
 30
0
 40
1.75
  1
15
 50
90
 41
0.9
 51
0
  7
standard
 71
    0
 72
    1
 11
199.8978415976567
 21
165.2930580753788
 31
0
210
0
220
0
230
1
100
AcDbText
  0
TEXT
  5
27B
100
AcDbEntity
  8
0
  6
ByLayer
 62
  256
370
   25
100
AcDbText
 10
204.4541612765605
 20
165.2930580753788
 30
0
 40
1.75
  1
16
 50
90
 41
0.9
 51
0
  7
standard
 71
    0
 72
    1
 11
204.4541612765605
 21
165.2930580753788
 31
0
210
0
220
0
230
1
100
AcDbText
  0
TEXT
  5
27C
100
AcDbEntity
  8
0
  6
ByLayer
 62
  256
370
   25
100
AcDbText
 10
228.8205665159156
 20
165.0949572197743
 30
0
 40
1.75
  1
17
 50
90
 41
0.9
 51
0
  7
standard
 71
    0
 72
    1
 11
228.8205665159156
 21
165.0949572197743
 31
0
210
0
220
0
230
1
100
AcDbText
  0
TEXT
  5
27D
100
AcDbEntity
  8
0
  6
ByLayer
 62
  256
370
   25
100
AcDbText
 10
235.15979389526
 20
165.4911589309833
 30
0
 40
1.75
  1
18
 50
90
 41
0.9
 51
0
  7
standard
 71
    0
 72
    1
 11
235.15979389526
 21
165.4911589309833
 31
0
210
0
220
0
230
1
100
AcDbText
  0
TEXT
  5
27E
100
AcDbEntity
  8
0
  6
ByLayer
 62
  256
370
   25
100
AcDbText
 10
240.1123152853728
 20
165.4911589309833
 30
0
 40
1.75
  1
19
 50
90
 41
0.9
 51
0
  7
standard
 71
    0
 72
    1
 11
240.1123152853728
 21
165.4911589309833
 31
0
210
0
220
0
230
1
100
AcDbText
  0
TEXT
  5
27F
100
AcDbEntity
  8
0
  6
ByLayer
 62
  256
370
   25
100
AcDbText
 10
244.8667358198811
 20
165.8873606421924
 30
0
 40
1.75
  1
20
 50
90
 41
0.9
 51
0
  7
standard
 71
    0
 72
    1
 11
244.8667358198811
 21
165.8873606421924
 31
0
210
0
220
0
230
1
100
AcDbText
  0
MTEXT
  5
280
100
AcDbEntity
  8
0
  6
ByLayer
 62
  256
370
   -1
100
AcDbMText
 10
181.4603837337339
 20
163.2351050181186
 30
0
 40
2
 41
2.888888888888889
 71
    1
 72
    1
  1
X9
  7
standard
210
0
220
0
230
1
 50
0
 73
    2
 44
1
  0
MTEXT
  5
281
100
AcDbEntity
  8
0
  6
ByLayer
 62
  256
370
   -1
100
AcDbMText
 10
222.071059132659
 20
163.6313067293277
 30
0
 40
2
 41
2.888888888888889
 71
    1
 72
    1
  1
X9
  7
standard
210
0
220
0
230
1
 50
0
 73
    2
 44
1
  0
TEXT
  5
282
100
AcDbEntity
  8
0
  6
ByLayer
 62
  256
370
   25
100
AcDbText
 10
272.5245592481674
 20
239.185331868823
 30
0
 40
1.75
  1
11.1
 50
0
 41
0.9
 51
0
  7
standard
 71
    0
 72
    1
 11
272.5245592481674
 21
239.185331868823
 31
0
210
0
220
0
230
1
100
AcDbText
  0
TEXT
  5
283
100
AcDbEntity
  8
0
  6
ByLayer
 62
  256
370
   25
100
AcDbText
 10
277.0808789270712
 20
233.8366087675011
 30
0
 40
1.75
  1
11.2
 50
0
 41
0.9
 51
0
  7
standard
 71
    0
 72
    1
 11
277.0808789270712
 21
233.8366087675011
 31
0
210
0
220
0
230
1
100
AcDbText
  0
TEXT
  5
284
100
AcDbEntity
  8
0
  6
ByLayer
 62
  256
370
   25
100
AcDbText
 10
258.063196789038
 20
242.5530464140997
 30
0
 40
1.75
  1
0912
 50
0
 41
0.9
 51
0
  7
standard
 71
    0
 72
    1
 11
258.063196789038
 21
242.5530464140997
 31
0
210
0
220
0
230
1
100
AcDbText
  0
TEXT
  5
285
100
AcDbEntity
  8
0
  6
ByLayer
 62
  256
370
   25
100
AcDbText
 10
260.2423062006876
 20
236.0157181791508
 30
0
 40
1.75
  1
0913
 50
0
 41
0.9
 51
0
  7
Standard
 71
    0
 72
    1
 11
260.2423062006876
 21
236.0157181791508
 31
0
210
0
220
0
230
1
100
AcDbText
  0
ENDSEC
  0
SECTION
  2
OBJECTS
  0
DICTIONARY
  5
C
330
0
100
AcDbDictionary
281
    1
  3
ACAD_GROUP
350
D
  3
ACAD_IMAGE_DICT
350
286
  0
DICTIONARY
  5
D
330
C
100
AcDbDictionary
281
    1
  0
IMAGEDEF_REACTOR
  5
125
330
126
100
AcDbRasterImageDefReactor
 90
    2
330
126
  0
DICTIONARY
  5
286
330
C
100
AcDbDictionary
281
    1
  3
nødstopskreds - 0009 - Kredsskema - 0009 - Image1
350
124
  0
IMAGEDEF
  5
124
102
{ACAD_REACTORS
330
125
102
}
100
AcDbRasterImageDef
 90
    0
  1
nødstopskreds - 0009 - Kredsskema - 0009 - Image1.bmp
 10
1121
 20
234
 11
1
 21
1
280
    1
281
    0
  0
PLOTSETTINGS
  5
287
100
AcDbPlotSettings
  6
1x1
 40
0
 41
0
 42
0
 43
0
  0
ENDSEC
  0
EOF
