999
dxfrw 0.6.3
  0
SECTION
  2
HEADER
  9
$ACADVER
  1
AC1021
  9
$DWGCODEPAGE
  3
ANSI_1252
  9
$INSBASE
 10
0
 20
0
 30
0
  9
$EXTMIN
 10
20.3806045746767
 20
22.20000076293945
 30
0
  9
$EXTMAX
 10
399.4959599171418
 20
263.7219584437489
 30
0
  9
$LIMMIN
 10
0
 20
0
  9
$LIMMAX
 10
420
 20
297
  9
$ORTHOMODE
 70
    0
  9
$REGENMODE
 70
    1
  9
$FILLMODE
 70
    1
  9
$QTEXTMODE
 70
    0
  9
$MIRRTEXT
 70
    1
  9
$LTSCALE
 40
1
  9
$ATTMODE
 70
    1
  9
$TEXTSIZE
 40
2.5
  9
$TRACEWID
 40
1
  9
$TEXTSTYLE
  7
Standard
  9
$CLAYER
  8
0
  9
$CELTYPE
  6
ByLayer
  9
$CECOLOR
 62
  256
  9
$CELTSCALE
 40
1
  9
$DISPSILH
 70
    0
  9
$DIMSCALE
 40
1
  9
$DIMASZ
 40
2.5
  9
$DIMEXO
 40
0.625
  9
$DIMDLI
 40
3.75
  9
$DIMRND
 40
0
  9
$DIMDLE
 40
0
  9
$DIMEXE
 40
1.25
  9
$DIMTP
 40
0
  9
$DIMTM
 40
0
  9
$DIMTXT
 40
2.5
  9
$DIMCEN
 40
2.5
  9
$DIMTSZ
 40
0
  9
$DIMTOL
 70
    0
  9
$DIMLIM
 70
    0
  9
$DIMTIH
 70
    0
  9
$DIMTOH
 70
    0
  9
$DIMSE1
 70
    0
  9
$DIMSE2
 70
    0
  9
$DIMTAD
 70
    1
  9
$DIMZIN
 70
    8
  9
$DIMBLK
  1

  9
$DIMASO
 70
    1
  9
$DIMSHO
 70
    1
  9
$DIMPOST
  1

  9
$DIMAPOST
  1

  9
$DIMALT
 70
    0
  9
$DIMALTD
 70
    3
  9
$DIMALTF
 40
0.03937007874016
  9
$DIMLFAC
 40
1
  9
$DIMTOFL
 70
    1
  9
$DIMTVP
 40
0
  9
$DIMTIX
 70
    0
  9
$DIMSOXD
 70
    0
  9
$DIMSAH
 70
    0
  9
$DIMBLK1
  1

  9
$DIMBLK2
  1

  9
$DIMSTYLE
  2
ISO-25
  9
$DIMCLRD
 70
    0
  9
$DIMCLRE
 70
    0
  9
$DIMCLRT
 70
    0
  9
$DIMTFAC
 40
1
  9
$DIMGAP
 40
0.625
  9
$DIMJUST
 70
    0
  9
$DIMSD1
 70
    0
  9
$DIMSD2
 70
    0
  9
$DIMTOLJ
 70
    0
  9
$DIMTZIN
 70
    8
  9
$DIMALTZ
 70
    0
  9
$DIMALTTZ
 70
    0
  9
$DIMUPT
 70
    0
  9
$DIMDEC
 70
    2
  9
$DIMTDEC
 70
    2
  9
$DIMALTU
 70
    2
  9
$DIMALTTD
 70
    3
  9
$DIMTXSTY
  7
Standard
  9
$DIMAUNIT
 70
    0
  9
$DIMADEC
 70
    0
  9
$DIMALTRND
 40
0
  9
$DIMAZIN
 70
    0
  9
$DIMDSEP
 70
   44
  9
$DIMATFIT
 70
    3
  9
$DIMFRAC
 70
    0
  9
$DIMLDRBLK
  1

  9
$DIMLUNIT
 70
    2
  9
$DIMLWD
 70
   -2
  9
$DIMLWE
 70
   -2
  9
$DIMTMOVE
 70
    0
  9
$DIMFXL
 40
1
  9
$DIMFXLON
 70
    0
  9
$DIMJOGANG
 40
0.7854
  9
$DIMTFILL
 70
    0
  9
$DIMTFILLCLR
 70
    0
  9
$DIMARCSYM
 70
    0
  9
$DIMLTYPE
  6

  9
$DIMLTEX1
  6

  9
$DIMLTEX2
  6

  9
$LUNITS
 70
    2
  9
$LUPREC
 70
    4
  9
$SKETCHINC
 40
1
  9
$FILLETRAD
 40
10
  9
$AUNITS
 70
    0
  9
$AUPREC
 70
    0
  9
$MENU
  1
.
  9
$ELEVATION
 40
0
  9
$PELEVATION
 40
0
  9
$THICKNESS
 40
0
  9
$LIMCHECK
 70
    0
  9
$CHAMFERA
 40
10
  9
$CHAMFERB
 40
10
  9
$CHAMFERC
 40
20
  9
$CHAMFERD
 40
0
  9
$SKPOLY
 70
    0
  9
$USRTIMER
 70
    1
  9
$ANGBASE
 50
0
  9
$ANGDIR
 70
    0
  9
$PDMODE
 70
    0
  9
$PDSIZE
 40
0
  9
$PLINEWID
 40
0
  9
$SPLFRAME
 70
    0
  9
$SPLINETYPE
 70
    6
  9
$SPLINESEGS
 70
    8
  9
$HANDSEED
  5
20000
  9
$SURFTAB1
 70
    6
  9
$SURFTAB2
 70
    6
  9
$SURFTYPE
 70
    6
  9
$SURFU
 70
    6
  9
$SURFV
 70
    6
  9
$UCSBASE
  2

  9
$UCSNAME
  2

  9
$UCSORG
 10
0
 20
0
 30
0
  9
$UCSXDIR
 10
1
 20
0
 30
0
  9
$UCSYDIR
 10
0
 20
1
 30
0
  9
$UCSORTHOREF
  2

  9
$UCSORTHOVIEW
 70
    0
  9
$UCSORGTOP
 10
0
 20
0
 30
0
  9
$UCSORGBOTTOM
 10
0
 20
0
 30
0
  9
$UCSORGLEFT
 10
0
 20
0
 30
0
  9
$UCSORGRIGHT
 10
0
 20
0
 30
0
  9
$UCSORGFRONT
 10
0
 20
0
 30
0
  9
$UCSORGBACK
 10
0
 20
0
 30
0
  9
$PUCSBASE
  2

  9
$PUCSNAME
  2

  9
$PUCSORG
 10
0
 20
0
 30
0
  9
$PUCSXDIR
 10
1
 20
0
 30
0
  9
$PUCSYDIR
 10
0
 20
1
 30
0
  9
$PUCSORTHOREF
  2

  9
$PUCSORTHOVIEW
 70
    0
  9
$PUCSORGTOP
 10
0
 20
0
 30
0
  9
$PUCSORGBOTTOM
 10
0
 20
0
 30
0
  9
$PUCSORGLEFT
 10
0
 20
0
 30
0
  9
$PUCSORGRIGHT
 10
0
 20
0
 30
0
  9
$PUCSORGFRONT
 10
0
 20
0
 30
0
  9
$PUCSORGBACK
 10
0
 20
0
 30
0
  9
$USERI1
 70
    0
  9
$USERI2
 70
    0
  9
$USERI3
 70
    0
  9
$USERI4
 70
    0
  9
$USERI5
 70
    0
  9
$USERR1
 40
0
  9
$USERR2
 40
0
  9
$USERR3
 40
0
  9
$USERR4
 40
0
  9
$USERR5
 40
0
  9
$WORLDVIEW
 70
    1
  9
$SHADEDGE
 70
    3
  9
$SHADEDIF
 70
   70
  9
$TILEMODE
 70
    1
  9
$MAXACTVP
 70
   64
  9
$PINSBASE
 10
0
 20
0
 30
0
  9
$PLIMCHECK
 70
    0
  9
$PEXTMIN
 10
1e+20
 20
1e+20
 30
1e+20
  9
$PEXTMAX
 10
-1e+20
 20
-1e+20
 30
-1e+20
  9
$GRIDMODE
 70
    0
  9
$SNAPSTYLE
 70
    0
  9
$PLIMMIN
 10
0
 20
0
  9
$PLIMMAX
 10
420
 20
297
  9
$UNITMODE
 70
    0
  9
$VISRETAIN
 70
    1
  9
$PLINEGEN
 70
    0
  9
$PSLTSCALE
 70
    1
  9
$TREEDEPTH
 70
 3020
  9
$CMLSTYLE
  2
Standard
  9
$CMLJUST
 70
    0
  9
$CMLSCALE
 40
20
  9
$PROXYGRAPHICS
 70
    1
  9
$MEASUREMENT
 70
    1
  9
$CELWEIGHT
370
   -1
  9
$ENDCAPS
280
    0
  9
$JOINSTYLE
280
    0
  9
$LWDISPLAY
290
    0
  9
$INSUNITS
 70
    4
  9
$HYPERLINKBASE
  1

  9
$STYLESHEET
  1

  9
$XEDIT
290
    1
  9
$CEPSNTYPE
380
    0
  9
$PSTYLEMODE
290
    1
  9
$EXTNAMES
290
    1
  9
$PSVPSCALE
 40
0
  9
$OLESTARTUP
290
    0
  9
$SORTENTS
280
  127
  9
$INDEXCTL
280
    0
  9
$HIDETEXT
280
    1
  9
$XCLIPFRAME
290
    0
  9
$HALOGAP
280
    0
  9
$OBSCOLOR
 70
  257
  9
$OBSLTYPE
280
    0
  9
$INTERSECTIONDISPLAY
280
    0
  9
$INTERSECTIONCOLOR
 70
  257
  9
$DIMASSOC
280
    1
  9
$PROJECTNAME
  1

  9
$CAMERADISPLAY
290
    0
  9
$LENSLENGTH
 40
50
  9
$CAMERAHEIGHT
 40
0
  9
$STEPSPERSEC
 40
2
  9
$STEPSIZE
 40
50
  9
$3DDWFPREC
 40
2
  9
$PSOLWIDTH
 40
5
  9
$PSOLHEIGHT
 40
80
  9
$LOFTANG1
 40
1.570796326794897
  9
$LOFTANG2
 40
1.570796326794897
  9
$LOFTMAG1
 40
0
  9
$LOFTMAG2
 40
0
  9
$LOFTPARAM
 70
    7
  9
$LOFTNORMALS
280
    1
  9
$LATITUDE
 40
1
  9
$LONGITUDE
 40
1
  9
$NORTHDIRECTION
 40
0
  9
$TIMEZONE
 70
-8000
  9
$LIGHTGLYPHDISPLAY
280
    1
  9
$TILEMODELIGHTSYNCH
280
    1
  9
$SOLIDHIST
280
    1
  9
$SHOWHIST
280
    1
  9
$DWFFRAME
280
    2
  9
$DGNFRAME
280
    0
  9
$REALWORLDSCALE
290
    1
  9
$INTERFERECOLOR
 62
    1
  9
$CSHADOW
280
    0
  9
$SHADOWPLANELOCATION
 40
0
  0
ENDSEC
  0
SECTION
  2
CLASSES
  0
ENDSEC
  0
SECTION
  2
TABLES
  0
TABLE
  2
VPORT
  5
8
330
0
100
AcDbSymbolTable
 70
    1
  0
VPORT
  5
31
330
2
100
AcDbSymbolTableRecord
100
AcDbViewportTableRecord
  2
*ACTIVE
 70
    0
 10
0
 20
0
 11
1
 21
1
 12
225.1074450009557
 22
142.4802139345514
 13
0
 23
0
 14
10
 24
10
 15
10
 25
10
 16
0
 26
0
 36
1
 17
0
 27
0
 37
0
 40
281.572523178453
 41
1.665775401069519
 42
50
 43
0
 44
0
 50
0
 51
0
 71
    0
 72
  100
 73
    1
 74
    3
 75
    0
 76
    0
 77
    0
 78
    0
281
    0
 65
    1
110
0
120
0
130
0
111
1
121
0
131
0
112
0
122
1
132
0
 79
    0
146
0
348
10020
 60
    7
 61
    5
292
1
282
    1
141
0
142
0
 63
  250
421
3358443
  0
ENDTAB
  0
TABLE
  2
LTYPE
  5
5
330
0
100
AcDbSymbolTable
 70
    4
  0
LTYPE
  5
14
330
5
100
AcDbSymbolTableRecord
100
AcDbLinetypeTableRecord
  2
ByBlock
 70
    0
  3

 72
   65
 73
    0
 40
0
  0
LTYPE
  5
15
330
5
100
AcDbSymbolTableRecord
100
AcDbLinetypeTableRecord
  2
ByLayer
 70
    0
  3

 72
   65
 73
    0
 40
0
  0
LTYPE
  5
16
330
5
100
AcDbSymbolTableRecord
100
AcDbLinetypeTableRecord
  2
Continuous
 70
    0
  3
Solid line
 72
   65
 73
    0
 40
0
  0
LTYPE
  5
32
330
5
100
AcDbSymbolTableRecord
100
AcDbLinetypeTableRecord
  2
DOT
 70
    0
  3
Dot . . . . . . . . . . . . . . . . . . . . . .
 72
   65
 73
    2
 40
6.35
 49
0
 74
    0
 49
-6.35
 74
    0
  0
LTYPE
  5
33
330
5
100
AcDbSymbolTableRecord
100
AcDbLinetypeTableRecord
  2
DOTTINY
 70
    0
  3
Dot (.15x) .....................................
 72
   65
 73
    2
 40
0.9525
 49
0
 74
    0
 49
-0.9525
 74
    0
  0
LTYPE
  5
34
330
5
100
AcDbSymbolTableRecord
100
AcDbLinetypeTableRecord
  2
DOT2
 70
    0
  3
Dot (.5x) .....................................
 72
   65
 73
    2
 40
3.175
 49
0
 74
    0
 49
-3.175
 74
    0
  0
LTYPE
  5
35
330
5
100
AcDbSymbolTableRecord
100
AcDbLinetypeTableRecord
  2
DOTX2
 70
    0
  3
Dot (2x) .  .  .  .  .  .  .  .  .  .  .  .  .
 72
   65
 73
    2
 40
12.7
 49
0
 74
    0
 49
-12.7
 74
    0
  0
LTYPE
  5
36
330
5
100
AcDbSymbolTableRecord
100
AcDbLinetypeTableRecord
  2
DASHED
 70
    0
  3
Dashed _ _ _ _ _ _ _ _ _ _ _ _ _ _ _ _ _
 72
   65
 73
    2
 40
19.05
 49
12.7
 74
    0
 49
-6.35
 74
    0
  0
LTYPE
  5
37
330
5
100
AcDbSymbolTableRecord
100
AcDbLinetypeTableRecord
  2
DASHEDTINY
 70
    0
  3
Dashed (.15x) _ _ _ _ _ _ _ _ _ _ _ _ _ _ _ _ _
 72
   65
 73
    2
 40
2.8575
 49
1.905
 74
    0
 49
-0.9525
 74
    0
  0
LTYPE
  5
38
330
5
100
AcDbSymbolTableRecord
100
AcDbLinetypeTableRecord
  2
DASHED2
 70
    0
  3
Dashed (.5x) _ _ _ _ _ _ _ _ _ _ _ _ _ _ _ _ _
 72
   65
 73
    2
 40
9.524999999999999
 49
6.35
 74
    0
 49
-3.175
 74
    0
  0
LTYPE
  5
39
330
5
100
AcDbSymbolTableRecord
100
AcDbLinetypeTableRecord
  2
DASHEDX2
 70
    0
  3
Dashed (2x) ____  ____  ____  ____  ____  ___
 72
   65
 73
    2
 40
38.09999999999999
 49
25.4
 74
    0
 49
-12.7
 74
    0
  0
LTYPE
  5
3A
330
5
100
AcDbSymbolTableRecord
100
AcDbLinetypeTableRecord
  2
DASHDOT
 70
    0
  3
Dash dot __ . __ . __ . __ . __ . __ . __ . __
 72
   65
 73
    4
 40
25.4
 49
12.7
 74
    0
 49
-6.35
 74
    0
 49
0
 74
    0
 49
-6.35
 74
    0
  0
LTYPE
  5
3B
330
5
100
AcDbSymbolTableRecord
100
AcDbLinetypeTableRecord
  2
DASHDOTTINY
 70
    0
  3
Dash dot (.15x) _._._._._._._._._._._._._._._.
 72
   65
 73
    4
 40
3.81
 49
1.905
 74
    0
 49
-0.9525
 74
    0
 49
0
 74
    0
 49
-0.9525
 74
    0
  0
LTYPE
  5
3C
330
5
100
AcDbSymbolTableRecord
100
AcDbLinetypeTableRecord
  2
DASHDOT2
 70
    0
  3
Dash dot (.5x) _._._._._._._._._._._._._._._.
 72
   65
 73
    4
 40
12.7
 49
6.35
 74
    0
 49
-3.175
 74
    0
 49
0
 74
    0
 49
-3.175
 74
    0
  0
LTYPE
  5
3D
330
5
100
AcDbSymbolTableRecord
100
AcDbLinetypeTableRecord
  2
DASHDOTX2
 70
    0
  3
Dash dot (2x) ____  .  ____  .  ____  .  ___
 72
   65
 73
    4
 40
50.8
 49
25.4
 74
    0
 49
-12.7
 74
    0
 49
0
 74
    0
 49
-12.7
 74
    0
  0
LTYPE
  5
3E
330
5
100
AcDbSymbolTableRecord
100
AcDbLinetypeTableRecord
  2
DIVIDE
 70
    0
  3
Divide ____ . . ____ . . ____ . . ____ . . ____
 72
   65
 73
    6
 40
31.75
 49
12.7
 74
    0
 49
-6.35
 74
    0
 49
0
 74
    0
 49
-6.35
 74
    0
 49
0
 74
    0
 49
-6.35
 74
    0
  0
LTYPE
  5
3F
330
5
100
AcDbSymbolTableRecord
100
AcDbLinetypeTableRecord
  2
DIVIDETINY
 70
    0
  3
Divide (.15x) __..__..__..__..__..__..__..__.._
 72
   65
 73
    6
 40
4.7625
 49
1.905
 74
    0
 49
-0.9525
 74
    0
 49
0
 74
    0
 49
-0.9525
 74
    0
 49
0
 74
    0
 49
-0.9525
 74
    0
  0
LTYPE
  5
40
330
5
100
AcDbSymbolTableRecord
100
AcDbLinetypeTableRecord
  2
DIVIDE2
 70
    0
  3
Divide (.5x) __..__..__..__..__..__..__..__.._
 72
   65
 73
    6
 40
15.875
 49
6.35
 74
    0
 49
-3.175
 74
    0
 49
0
 74
    0
 49
-3.175
 74
    0
 49
0
 74
    0
 49
-3.175
 74
    0
  0
LTYPE
  5
41
330
5
100
AcDbSymbolTableRecord
100
AcDbLinetypeTableRecord
  2
DIVIDEX2
 70
    0
  3
Divide (2x) ________  .  .  ________  .  .  _
 72
   65
 73
    6
 40
63.5
 49
25.4
 74
    0
 49
-12.7
 74
    0
 49
0
 74
    0
 49
-12.7
 74
    0
 49
0
 74
    0
 49
-12.7
 74
    0
  0
LTYPE
  5
42
330
5
100
AcDbSymbolTableRecord
100
AcDbLinetypeTableRecord
  2
BORDER
 70
    0
  3
Border __ __ . __ __ . __ __ . __ __ . __ __ .
 72
   65
 73
    6
 40
44.45
 49
12.7
 74
    0
 49
-6.35
 74
    0
 49
12.7
 74
    0
 49
-6.35
 74
    0
 49
0
 74
    0
 49
-6.35
 74
    0
  0
LTYPE
  5
43
330
5
100
AcDbSymbolTableRecord
100
AcDbLinetypeTableRecord
  2
BORDERTINY
 70
    0
  3
Border (.15x) __.__.__.__.__.__.__.__.__.__.__.
 72
   65
 73
    6
 40
6.6675
 49
1.905
 74
    0
 49
-0.9525
 74
    0
 49
1.905
 74
    0
 49
-0.9525
 74
    0
 49
0
 74
    0
 49
-0.9525
 74
    0
  0
LTYPE
  5
44
330
5
100
AcDbSymbolTableRecord
100
AcDbLinetypeTableRecord
  2
BORDER2
 70
    0
  3
Border (.5x) __.__.__.__.__.__.__.__.__.__.__.
 72
   65
 73
    6
 40
22.225
 49
6.35
 74
    0
 49
-3.175
 74
    0
 49
6.35
 74
    0
 49
-3.175
 74
    0
 49
0
 74
    0
 49
-3.175
 74
    0
  0
LTYPE
  5
45
330
5
100
AcDbSymbolTableRecord
100
AcDbLinetypeTableRecord
  2
BORDERX2
 70
    0
  3
Border (2x) ____  ____  .  ____  ____  .  ___
 72
   65
 73
    6
 40
88.89999999999999
 49
25.4
 74
    0
 49
-12.7
 74
    0
 49
25.4
 74
    0
 49
-12.7
 74
    0
 49
0
 74
    0
 49
-12.7
 74
    0
  0
LTYPE
  5
46
330
5
100
AcDbSymbolTableRecord
100
AcDbLinetypeTableRecord
  2
CENTER
 70
    0
  3
Center ____ _ ____ _ ____ _ ____ _ ____ _ ____
 72
   65
 73
    4
 40
50.8
 49
31.75
 74
    0
 49
-6.35
 74
    0
 49
6.35
 74
    0
 49
-6.35
 74
    0
  0
LTYPE
  5
47
330
5
100
AcDbSymbolTableRecord
100
AcDbLinetypeTableRecord
  2
CENTERTINY
 70
    0
  3
Center (.15x) ___ _ ___ _ ___ _ ___ _ ___ _ ___
 72
   65
 73
    4
 40
7.619999999999999
 49
4.7625
 74
    0
 49
-0.9525
 74
    0
 49
0.9525
 74
    0
 49
-0.9525
 74
    0
  0
LTYPE
  5
48
330
5
100
AcDbSymbolTableRecord
100
AcDbLinetypeTableRecord
  2
CENTER2
 70
    0
  3
Center (.5x) ___ _ ___ _ ___ _ ___ _ ___ _ ___
 72
   65
 73
    4
 40
28.575
 49
19.05
 74
    0
 49
-3.175
 74
    0
 49
3.175
 74
    0
 49
-3.175
 74
    0
  0
LTYPE
  5
49
330
5
100
AcDbSymbolTableRecord
100
AcDbLinetypeTableRecord
  2
CENTERX2
 70
    0
  3
Center (2x) ________  __  ________  __  _____
 72
   65
 73
    4
 40
101.6
 49
63.5
 74
    0
 49
-12.7
 74
    0
 49
12.7
 74
    0
 49
-12.7
 74
    0
  0
ENDTAB
  0
TABLE
  2
LAYER
  5
2
330
0
100
AcDbSymbolTable
 70
    1
  0
LAYER
  5
10
330
2
100
AcDbSymbolTableRecord
100
AcDbLayerTableRecord
  2
0
 70
    0
 62
    7
  6
CONTINUOUS
370
   -3
390
F
  0
ENDTAB
  0
TABLE
  2
STYLE
  5
3
330
0
100
AcDbSymbolTable
 70
    3
  0
STYLE
  5
4A
330
2
100
AcDbSymbolTableRecord
100
AcDbTextStyleTableRecord
  2
standard
 70
    0
 40
0
 41
1
 50
0
 71
    0
 42
1
  3
standard
  4

  0
STYLE
  5
4B
330
2
100
AcDbSymbolTableRecord
100
AcDbTextStyleTableRecord
  2
Caddy_Vectorfont1p
 70
    0
 40
0
 41
1
 50
0
 71
    0
 42
1
  3
Caddy_Vectorfont1p
  4

  0
ENDTAB
  0
TABLE
  2
VIEW
  5
6
330
0
100
AcDbSymbolTable
 70
    0
  0
ENDTAB
  0
TABLE
  2
UCS
  5
7
330
0
100
AcDbSymbolTable
 70
    0
  0
ENDTAB
  0
TABLE
  2
APPID
  5
9
330
0
100
AcDbSymbolTable
 70
    1
  0
APPID
  5
12
330
9
100
AcDbSymbolTableRecord
100
AcDbRegAppTableRecord
  2
ACAD
 70
    0
  0
APPID
  5
4C
330
9
100
AcDbSymbolTableRecord
100
AcDbRegAppTableRecord
  2
LibreCad
 70
    0
  0
ENDTAB
  0
TABLE
  2
DIMSTYLE
  5
A
330
0
100
AcDbSymbolTable
 70
    1
100
AcDbDimStyleTable
 71
    1
  0
DIMSTYLE
105
4D
330
A
100
AcDbSymbolTableRecord
100
AcDbDimStyleTableRecord
  2
Standard
 70
    0
 40
1
 41
2.5
 42
0.625
 43
0.38
 44
1.25
 45
0
 46
0
 47
0
 48
0
 49
1
140
2.5
141
0.09
142
0
143
25.4
144
1
145
0
146
1
147
0.625
148
0
 71
    0
 72
    0
 73
    0
 74
    1
 75
    0
 76
    0
 77
    0
 78
    8
 79
    0
170
    0
171
    2
172
    0
173
    0
174
    0
175
    0
176
    0
177
    0
178
    0
179
    0
271
    2
272
    4
273
    2
274
    2
275
    0
276
    0
277
    2
278
   44
279
    0
280
    0
281
    0
282
    0
283
    1
284
    0
285
    0
286
    0
288
    0
289
    3
340
4A
  0
ENDTAB
  0
TABLE
  2
BLOCK_RECORD
  5
1
330
0
100
AcDbSymbolTable
 70
    2
  0
BLOCK_RECORD
  5
1F
330
1
100
AcDbSymbolTableRecord
100
AcDbBlockTableRecord
  2
*Model_Space
 70
    0
280
    1
281
    0
  0
BLOCK_RECORD
  5
1E
330
1
100
AcDbSymbolTableRecord
100
AcDbBlockTableRecord
  2
*Paper_Space
 70
    0
280
    1
281
    0
  0
BLOCK_RECORD
  5
4E
330
1
100
AcDbSymbolTableRecord
100
AcDbBlockTableRecord
  2
Blk1
 70
    0
280
    1
281
    0
  0
BLOCK_RECORD
  5
51
330
1
100
AcDbSymbolTableRecord
100
AcDbBlockTableRecord
  2
Blk2
 70
    0
280
    1
281
    0
  0
BLOCK_RECORD
  5
54
330
1
100
AcDbSymbolTableRecord
100
AcDbBlockTableRecord
  2
Blk3
 70
    0
280
    1
281
    0
  0
BLOCK_RECORD
  5
57
330
1
100
AcDbSymbolTableRecord
100
AcDbBlockTableRecord
  2
Blk4
 70
    0
280
    1
281
    0
  0
BLOCK_RECORD
  5
5A
330
1
100
AcDbSymbolTableRecord
100
AcDbBlockTableRecord
  2
Blk5
 70
    0
280
    1
281
    0
  0
BLOCK_RECORD
  5
5D
330
1
100
AcDbSymbolTableRecord
100
AcDbBlockTableRecord
  2
Blk6
 70
    0
280
    1
281
    0
  0
BLOCK_RECORD
  5
60
330
1
100
AcDbSymbolTableRecord
100
AcDbBlockTableRecord
  2
Blk7
 70
    0
280
    1
281
    0
  0
BLOCK_RECORD
  5
63
330
1
100
AcDbSymbolTableRecord
100
AcDbBlockTableRecord
  2
Blk8
 70
    0
280
    1
281
    0
  0
BLOCK_RECORD
  5
66
330
1
100
AcDbSymbolTableRecord
100
AcDbBlockTableRecord
  2
Blk9
 70
    0
280
    1
281
    0
  0
BLOCK_RECORD
  5
69
330
1
100
AcDbSymbolTableRecord
100
AcDbBlockTableRecord
  2
Blk10
 70
    0
280
    1
281
    0
  0
BLOCK_RECORD
  5
6C
330
1
100
AcDbSymbolTableRecord
100
AcDbBlockTableRecord
  2
Blk11
 70
    0
280
    1
281
    0
  0
BLOCK_RECORD
  5
6F
330
1
100
AcDbSymbolTableRecord
100
AcDbBlockTableRecord
  2
Blk12
 70
    0
280
    1
281
    0
  0
BLOCK_RECORD
  5
72
330
1
100
AcDbSymbolTableRecord
100
AcDbBlockTableRecord
  2
Blk13
 70
    0
280
    1
281
    0
  0
BLOCK_RECORD
  5
75
330
1
100
AcDbSymbolTableRecord
100
AcDbBlockTableRecord
  2
Blk14
 70
    0
280
    1
281
    0
  0
BLOCK_RECORD
  5
78
330
1
100
AcDbSymbolTableRecord
100
AcDbBlockTableRecord
  2
Blk15
 70
    0
280
    1
281
    0
  0
BLOCK_RECORD
  5
7B
330
1
100
AcDbSymbolTableRecord
100
AcDbBlockTableRecord
  2
Blk16
 70
    0
280
    1
281
    0
  0
BLOCK_RECORD
  5
7E
330
1
100
AcDbSymbolTableRecord
100
AcDbBlockTableRecord
  2
Blk17
 70
    0
280
    1
281
    0
  0
ENDTAB
  0
ENDSEC
  0
SECTION
  2
BLOCKS
  0
BLOCK
  5
20
330
1F
100
AcDbEntity
  8
0
100
AcDbBlockBegin
  2
*Model_Space
 70
    0
 10
0
 20
0
 30
0
  3
*Model_Space
  1

  0
ENDBLK
  5
21
330
1F
100
AcDbEntity
  8
0
100
AcDbBlockEnd
  0
BLOCK
  5
1C
330
1B
100
AcDbEntity
  8
0
100
AcDbBlockBegin
  2
*Paper_Space
 70
    0
 10
0
 20
0
 30
0
  3
*Paper_Space
  1

  0
ENDBLK
  5
1D
330
1F
100
AcDbEntity
  8
0
100
AcDbBlockEnd
  0
BLOCK
  5
4F
330
4E
100
AcDbEntity
  8
0
100
AcDbBlockBegin
  2
Blk1
 70
    0
 10
0
 20
0
  3
Blk1
  1

  0
LINE
  5
81
100
AcDbEntity
  8
0
  6
CONTINUOUS
 62
  256
370
   50
100
AcDbLine
 10
10
 20
10
 11
10
 21
275
  0
LINE
  5
82
100
AcDbEntity
  8
0
  6
CONTINUOUS
 62
  256
370
   50
100
AcDbLine
 10
10
 20
275
 11
410
 21
275
  0
LINE
  5
83
100
AcDbEntity
  8
0
  6
CONTINUOUS
 62
  256
370
   50
100
AcDbLine
 10
410
 20
275
 11
410
 21
10
  0
LINE
  5
84
100
AcDbEntity
  8
0
  6
CONTINUOUS
 62
  256
370
   25
100
AcDbLine
 10
50
 20
270
 11
50
 21
275
  0
TEXT
  5
85
100
AcDbEntity
  8
0
  6
ByLayer
 62
  256
370
   25
100
AcDbText
 10
30
 20
271.2000122070312
 30
0
 40
2.449981689453125
  1
0
 50
0
 41
0.9
 51
0
  7
Caddy_Vectorfont1p
 71
    0
 72
    1
 11
30
 21
271.2000122070312
 31
0
210
0
220
0
230
1
100
AcDbText
  0
LINE
  5
86
100
AcDbEntity
  8
0
  6
CONTINUOUS
 62
  256
370
   25
100
AcDbLine
 10
90
 20
270
 11
90
 21
275
  0
LINE
  5
87
100
AcDbEntity
  8
0
  6
CONTINUOUS
 62
  256
370
   25
100
AcDbLine
 10
130
 20
270
 11
130
 21
275
  0
LINE
  5
88
100
AcDbEntity
  8
0
  6
CONTINUOUS
 62
  256
370
   25
100
AcDbLine
 10
170
 20
270
 11
170
 21
275
  0
LINE
  5
89
100
AcDbEntity
  8
0
  6
CONTINUOUS
 62
  256
370
   25
100
AcDbLine
 10
210
 20
270
 11
210
 21
275
  0
LINE
  5
8A
100
AcDbEntity
  8
0
  6
CONTINUOUS
 62
  256
370
   25
100
AcDbLine
 10
250
 20
270
 11
250
 21
275
  0
LINE
  5
8B
100
AcDbEntity
  8
0
  6
CONTINUOUS
 62
  256
370
   25
100
AcDbLine
 10
290
 20
270
 11
290
 21
275
  0
LINE
  5
8C
100
AcDbEntity
  8
0
  6
CONTINUOUS
 62
  256
370
   25
100
AcDbLine
 10
330
 20
270
 11
330
 21
275
  0
LINE
  5
8D
100
AcDbEntity
  8
0
  6
CONTINUOUS
 62
  256
370
   25
100
AcDbLine
 10
370
 20
270
 11
370
 21
275
  0
TEXT
  5
8E
100
AcDbEntity
  8
0
  6
ByLayer
 62
  256
370
   25
100
AcDbText
 10
69.99999237060547
 20
271.2000122070312
 30
0
 40
2.449981689453125
  1
1
 50
0
 41
0.9
 51
0
  7
Caddy_Vectorfont1p
 71
    0
 72
    1
 11
69.99999237060547
 21
271.2000122070312
 31
0
210
0
220
0
230
1
100
AcDbText
  0
TEXT
  5
8F
100
AcDbEntity
  8
0
  6
ByLayer
 62
  256
370
   25
100
AcDbText
 10
110
 20
271.2000122070312
 30
0
 40
2.449981689453125
  1
2
 50
0
 41
0.9
 51
0
  7
Caddy_Vectorfont1p
 71
    0
 72
    1
 11
110
 21
271.2000122070312
 31
0
210
0
220
0
230
1
100
AcDbText
  0
TEXT
  5
90
100
AcDbEntity
  8
0
  6
ByLayer
 62
  256
370
   25
100
AcDbText
 10
150
 20
271.2000122070312
 30
0
 40
2.449981689453125
  1
3
 50
0
 41
0.9
 51
0
  7
Caddy_Vectorfont1p
 71
    0
 72
    1
 11
150
 21
271.2000122070312
 31
0
210
0
220
0
230
1
100
AcDbText
  0
TEXT
  5
91
100
AcDbEntity
  8
0
  6
ByLayer
 62
  256
370
   25
100
AcDbText
 10
190
 20
271.2000122070312
 30
0
 40
2.449981689453125
  1
4
 50
0
 41
0.9
 51
0
  7
Caddy_Vectorfont1p
 71
    0
 72
    1
 11
190
 21
271.2000122070312
 31
0
210
0
220
0
230
1
100
AcDbText
  0
TEXT
  5
92
100
AcDbEntity
  8
0
  6
ByLayer
 62
  256
370
   25
100
AcDbText
 10
230
 20
271.2000122070312
 30
0
 40
2.449981689453125
  1
5
 50
0
 41
0.9
 51
0
  7
Caddy_Vectorfont1p
 71
    0
 72
    1
 11
230
 21
271.2000122070312
 31
0
210
0
220
0
230
1
100
AcDbText
  0
TEXT
  5
93
100
AcDbEntity
  8
0
  6
ByLayer
 62
  256
370
   25
100
AcDbText
 10
270
 20
271.2000122070312
 30
0
 40
2.449981689453125
  1
6
 50
0
 41
0.9
 51
0
  7
Caddy_Vectorfont1p
 71
    0
 72
    1
 11
270
 21
271.2000122070312
 31
0
210
0
220
0
230
1
100
AcDbText
  0
TEXT
  5
94
100
AcDbEntity
  8
0
  6
ByLayer
 62
  256
370
   25
100
AcDbText
 10
310
 20
271.2000122070312
 30
0
 40
2.449981689453125
  1
7
 50
0
 41
0.9
 51
0
  7
Caddy_Vectorfont1p
 71
    0
 72
    1
 11
310
 21
271.2000122070312
 31
0
210
0
220
0
230
1
100
AcDbText
  0
TEXT
  5
95
100
AcDbEntity
  8
0
  6
ByLayer
 62
  256
370
   25
100
AcDbText
 10
350
 20
271.2000122070312
 30
0
 40
2.449981689453125
  1
8
 50
0
 41
0.9
 51
0
  7
Caddy_Vectorfont1p
 71
    0
 72
    1
 11
350
 21
271.2000122070312
 31
0
210
0
220
0
230
1
100
AcDbText
  0
TEXT
  5
96
100
AcDbEntity
  8
0
  6
ByLayer
 62
  256
370
   25
100
AcDbText
 10
390
 20
271.2000122070312
 30
0
 40
2.449981689453125
  1
9
 50
0
 41
0.9
 51
0
  7
Caddy_Vectorfont1p
 71
    0
 72
    1
 11
390
 21
271.2000122070312
 31
0
210
0
220
0
230
1
100
AcDbText
  0
LINE
  5
97
100
AcDbEntity
  8
0
  6
CONTINUOUS
 62
  256
370
   25
100
AcDbLine
 10
15
 20
270
 11
15
 21
30
  0
LINE
  5
98
100
AcDbEntity
  8
0
  6
CONTINUOUS
 62
  256
370
   25
100
AcDbLine
 10
405
 20
270
 11
405
 21
30
  0
LINE
  5
99
100
AcDbEntity
  8
0
  6
CONTINUOUS
 62
  256
370
   25
100
AcDbLine
 10
15
 20
230
 11
10
 21
230
  0
LINE
  5
9A
100
AcDbEntity
  8
0
  6
CONTINUOUS
 62
  256
370
   25
100
AcDbLine
 10
15
 20
190
 11
10
 21
190
  0
LINE
  5
9B
100
AcDbEntity
  8
0
  6
CONTINUOUS
 62
  256
370
   25
100
AcDbLine
 10
15
 20
150
 11
10
 21
150
  0
LINE
  5
9C
100
AcDbEntity
  8
0
  6
CONTINUOUS
 62
  256
370
   25
100
AcDbLine
 10
10
 20
110
 11
15
 21
110
  0
LINE
  5
9D
100
AcDbEntity
  8
0
  6
CONTINUOUS
 62
  256
370
   25
100
AcDbLine
 10
10
 20
70
 11
15
 21
70
  0
TEXT
  5
9E
100
AcDbEntity
  8
0
  6
ByLayer
 62
  256
370
   25
100
AcDbText
 10
12.5
 20
248.6999969482422
 30
0
 40
2.449996948242188
  1
A
 50
0
 41
0.9
 51
0
  7
Caddy_Vectorfont1p
 71
    0
 72
    1
 11
12.5
 21
248.6999969482422
 31
0
210
0
220
0
230
1
100
AcDbText
  0
TEXT
  5
9F
100
AcDbEntity
  8
0
  6
ByLayer
 62
  256
370
   25
100
AcDbText
 10
12.5
 20
208.6999969482422
 30
0
 40
2.449996948242188
  1
B
 50
0
 41
0.9
 51
0
  7
Caddy_Vectorfont1p
 71
    0
 72
    1
 11
12.5
 21
208.6999969482422
 31
0
210
0
220
0
230
1
100
AcDbText
  0
TEXT
  5
A0
100
AcDbEntity
  8
0
  6
ByLayer
 62
  256
370
   25
100
AcDbText
 10
12.5
 20
168.6999969482422
 30
0
 40
2.449996948242188
  1
C
 50
0
 41
0.9
 51
0
  7
Caddy_Vectorfont1p
 71
    0
 72
    1
 11
12.5
 21
168.6999969482422
 31
0
210
0
220
0
230
1
100
AcDbText
  0
TEXT
  5
A1
100
AcDbEntity
  8
0
  6
ByLayer
 62
  256
370
   25
100
AcDbText
 10
12.5
 20
128.6999969482422
 30
0
 40
2.449996948242188
  1
D
 50
0
 41
0.9
 51
0
  7
Caddy_Vectorfont1p
 71
    0
 72
    1
 11
12.5
 21
128.6999969482422
 31
0
210
0
220
0
230
1
100
AcDbText
  0
TEXT
  5
A2
100
AcDbEntity
  8
0
  6
ByLayer
 62
  256
370
   25
100
AcDbText
 10
12.5
 20
88.69999694824219
 30
0
 40
2.450004577636719
  1
E
 50
0
 41
0.9
 51
0
  7
Caddy_Vectorfont1p
 71
    0
 72
    1
 11
12.5
 21
88.69999694824219
 31
0
210
0
220
0
230
1
100
AcDbText
  0
TEXT
  5
A3
100
AcDbEntity
  8
0
  6
ByLayer
 62
  256
370
   25
100
AcDbText
 10
12.5
 20
48.70000076293945
 30
0
 40
2.450000762939453
  1
F
 50
0
 41
0.9
 51
0
  7
Caddy_Vectorfont1p
 71
    0
 72
    1
 11
12.5
 21
48.70000076293945
 31
0
210
0
220
0
230
1
100
AcDbText
  0
LINE
  5
A4
100
AcDbEntity
  8
0
  6
CONTINUOUS
 62
  256
370
   25
100
AcDbLine
 10
410
 20
230
 11
405
 21
230
  0
LINE
  5
A5
100
AcDbEntity
  8
0
  6
CONTINUOUS
 62
  256
370
   25
100
AcDbLine
 10
410
 20
190
 11
405
 21
190
  0
LINE
  5
A6
100
AcDbEntity
  8
0
  6
CONTINUOUS
 62
  256
370
   25
100
AcDbLine
 10
410
 20
150
 11
405
 21
150
  0
LINE
  5
A7
100
AcDbEntity
  8
0
  6
CONTINUOUS
 62
  256
370
   25
100
AcDbLine
 10
405
 20
110
 11
410
 21
110
  0
LINE
  5
A8
100
AcDbEntity
  8
0
  6
CONTINUOUS
 62
  256
370
   25
100
AcDbLine
 10
405
 20
70
 11
410
 21
70
  0
TEXT
  5
A9
100
AcDbEntity
  8
0
  6
ByLayer
 62
  256
370
   25
100
AcDbText
 10
407.5
 20
248.6999969482422
 30
0
 40
2.449996948242188
  1
A
 50
0
 41
0.9
 51
0
  7
Caddy_Vectorfont1p
 71
    0
 72
    1
 11
407.5
 21
248.6999969482422
 31
0
210
0
220
0
230
1
100
AcDbText
  0
TEXT
  5
AA
100
AcDbEntity
  8
0
  6
ByLayer
 62
  256
370
   25
100
AcDbText
 10
407.5
 20
208.6999969482422
 30
0
 40
2.449996948242188
  1
B
 50
0
 41
0.9
 51
0
  7
Caddy_Vectorfont1p
 71
    0
 72
    1
 11
407.5
 21
208.6999969482422
 31
0
210
0
220
0
230
1
100
AcDbText
  0
TEXT
  5
AB
100
AcDbEntity
  8
0
  6
ByLayer
 62
  256
370
   25
100
AcDbText
 10
407.5
 20
168.6999969482422
 30
0
 40
2.449996948242188
  1
C
 50
0
 41
0.9
 51
0
  7
Caddy_Vectorfont1p
 71
    0
 72
    1
 11
407.5
 21
168.6999969482422
 31
0
210
0
220
0
230
1
100
AcDbText
  0
TEXT
  5
AC
100
AcDbEntity
  8
0
  6
ByLayer
 62
  256
370
   25
100
AcDbText
 10
407.5
 20
128.6999969482422
 30
0
 40
2.449996948242188
  1
D
 50
0
 41
0.9
 51
0
  7
Caddy_Vectorfont1p
 71
    0
 72
    1
 11
407.5
 21
128.6999969482422
 31
0
210
0
220
0
230
1
100
AcDbText
  0
TEXT
  5
AD
100
AcDbEntity
  8
0
  6
ByLayer
 62
  256
370
   25
100
AcDbText
 10
407.5
 20
88.69999694824219
 30
0
 40
2.450004577636719
  1
E
 50
0
 41
0.9
 51
0
  7
Caddy_Vectorfont1p
 71
    0
 72
    1
 11
407.5
 21
88.69999694824219
 31
0
210
0
220
0
230
1
100
AcDbText
  0
TEXT
  5
AE
100
AcDbEntity
  8
0
  6
ByLayer
 62
  256
370
   25
100
AcDbText
 10
407.5
 20
48.70000076293945
 30
0
 40
2.450000762939453
  1
F
 50
0
 41
0.9
 51
0
  7
Caddy_Vectorfont1p
 71
    0
 72
    1
 11
407.5
 21
48.70000076293945
 31
0
210
0
220
0
230
1
100
AcDbText
  0
LINE
  5
AF
100
AcDbEntity
  8
0
  6
CONTINUOUS
 62
  256
370
   25
100
AcDbLine
 10
15
 20
270
 11
405
 21
270
  0
LINE
  5
B0
100
AcDbEntity
  8
0
  6
CONTINUOUS
 62
  256
370
   50
100
AcDbLine
 10
410
 20
10
 11
10
 21
10
  0
LINE
  5
B1
100
AcDbEntity
  8
0
  6
CONTINUOUS
 62
  256
370
   50
100
AcDbLine
 10
10
 20
30
 11
410
 21
30
  0
LINE
  5
B2
100
AcDbEntity
  8
0
  6
CONTINUOUS
 62
  256
370
   25
100
AcDbLine
 10
260
 20
20
 11
410
 21
20
  0
LINE
  5
B3
100
AcDbEntity
  8
0
  6
CONTINUOUS
 62
  256
370
   25
100
AcDbLine
 10
10
 20
30
 11
15
 21
30
  0
LINE
  5
B4
100
AcDbEntity
  8
0
  6
CONTINUOUS
 62
  256
370
   25
100
AcDbLine
 10
405
 20
30
 11
410
 21
30
  0
LINE
  5
B5
100
AcDbEntity
  8
0
  6
CONTINUOUS
 62
  256
370
   50
100
AcDbLine
 10
65
 20
30
 11
65
 21
10
  0
TEXT
  5
B6
100
AcDbEntity
  8
0
  6
ByLayer
 62
  256
370
   25
100
AcDbText
 10
69.19999694824219
 20
14.19999980926514
 30
0
 40
2.449999809265137
  1
Kassepakker
 50
0
 41
0.9
 51
0
  7
Caddy_Vectorfont1p
 71
    0
210
0
220
0
230
1
100
AcDbText
  0
TEXT
  5
B7
100
AcDbEntity
  8
0
  6
ByLayer
 62
  256
370
   25
100
AcDbText
 10
69.19999694824219
 20
23.20000076293945
 30
0
 40
2.44999885559082
  1
MPN - GUIDED BY VISION
 50
0
 41
0.9
 51
0
  7
Caddy_Vectorfont1p
 71
    0
210
0
220
0
230
1
100
AcDbText
  0
TEXT
  5
B8
100
AcDbEntity
  8
0
  6
ByLayer
 62
  256
370
   25
100
AcDbText
 10
69.19999694824219
 20
18.70000076293945
 30
0
 40
2.44999885559082
  1
Søris
 50
0
 41
0.9
 51
0
  7
Caddy_Vectorfont1p
 71
    0
210
0
220
0
230
1
100
AcDbText
  0
LINE
  5
B9
100
AcDbEntity
  8
0
  6
CONTINUOUS
 62
  256
370
   50
100
AcDbLine
 10
160
 20
30
 11
160
 21
10
  0
TEXT
  5
BA
100
AcDbEntity
  8
0
  6
ByLayer
 62
  256
370
   25
100
AcDbText
 10
164.1999969482422
 20
23.20000076293945
 30
0
 40
2.44999885559082
  1
Sikkerhedskreds
 50
0
 41
0.9
 51
0
  7
Caddy_Vectorfont1p
 71
    0
210
0
220
0
230
1
100
AcDbText
  0
LINE
  5
BB
100
AcDbEntity
  8
0
  6
CONTINUOUS
 62
  256
370
   50
100
AcDbLine
 10
260
 20
30
 11
260
 21
10
  0
TEXT
  5
BC
100
AcDbEntity
  8
0
  6
ByLayer
 62
  256
370
   25
100
AcDbText
 10
261.2000122070312
 20
26.20000076293945
 30
0
 40
2.44999885559082
  1
Projekt:
 50
0
 41
0.9
 51
0
  7
Caddy_Vectorfont1p
 71
    0
210
0
220
0
230
1
100
AcDbText
  0
TEXT
  5
BD
100
AcDbEntity
  8
0
  6
ByLayer
 62
  256
370
   25
100
AcDbText
 10
261.2000122070312
 20
16.20000076293945
 30
0
 40
2.44999885559082
  1
Dato:
 50
0
 41
0.9
 51
0
  7
Caddy_Vectorfont1p
 71
    0
210
0
220
0
230
1
100
AcDbText
  0
LINE
  5
BE
100
AcDbEntity
  8
0
  6
CONTINUOUS
 62
  256
370
   25
100
AcDbLine
 10
290
 20
30
 11
290
 21
10
  0
TEXT
  5
BF
100
AcDbEntity
  8
0
  6
ByLayer
 62
  256
370
   25
100
AcDbText
 10
291.2000122070312
 20
16.20000076293945
 30
0
 40
2.44999885559082
  1
Funkt.:
 50
0
 41
0.9
 51
0
  7
Caddy_Vectorfont1p
 71
    0
210
0
220
0
230
1
100
AcDbText
  0
TEXT
  5
C0
100
AcDbEntity
  8
0
  6
ByLayer
 62
  256
370
   25
100
AcDbText
 10
291.2000122070312
 20
26.20000076293945
 30
0
 40
2.44999885559082
  1
Tegn. nr.:
 50
0
 41
0.9
 51
0
  7
Caddy_Vectorfont1p
 71
    0
210
0
220
0
230
1
100
AcDbText
  0
LINE
  5
C1
100
AcDbEntity
  8
0
  6
CONTINUOUS
 62
  256
370
   25
100
AcDbLine
 10
320
 20
20
 11
320
 21
10
  0
TEXT
  5
C2
100
AcDbEntity
  8
0
  6
ByLayer
 62
  256
370
   25
100
AcDbText
 10
321.2000122070312
 20
16.20000076293945
 30
0
 40
2.44999885559082
  1
Plac.:
 50
0
 41
0.9
 51
0
  7
Caddy_Vectorfont1p
 71
    0
210
0
220
0
230
1
100
AcDbText
  0
TEXT
  5
C3
100
AcDbEntity
  8
0
  6
ByLayer
 62
  256
370
   25
100
AcDbText
 10
316.2999877929688
 20
11.69999980926514
 30
0
 40
2.449999809265137
  1
=
 50
0
 41
0.9
 51
0
  7
Caddy_Vectorfont1p
 71
    0
 72
    2
 11
316.2999877929688
 21
11.69999980926514
 31
0
210
0
220
0
230
1
100
AcDbText
  0
LINE
  5
C4
100
AcDbEntity
  8
0
  6
CONTINUOUS
 62
  256
370
   25
100
AcDbLine
 10
382.5
 20
20
 11
382.5
 21
30
  0
LINE
  5
C5
100
AcDbEntity
  8
0
  6
CONTINUOUS
 62
  256
370
   25
100
AcDbLine
 10
382.5
 20
10
 11
382.5
 21
20
  0
TEXT
  5
C6
100
AcDbEntity
  8
0
  6
ByLayer
 62
  256
370
   25
100
AcDbText
 10
351.3000183105469
 20
11.69999980926514
 30
0
 40
2.449999809265137
  1
+
 50
0
 41
0.9
 51
0
  7
Caddy_Vectorfont1p
 71
    0
 72
    2
 11
351.3000183105469
 21
11.69999980926514
 31
0
210
0
220
0
230
1
100
AcDbText
  0
LINE
  5
C7
100
AcDbEntity
  8
0
  6
CONTINUOUS
 62
  256
370
   25
100
AcDbLine
 10
355
 20
10
 11
355
 21
20
  0
LINE
  5
C8
100
AcDbEntity
  8
0
  6
CONTINUOUS
 62
  256
370
   25
100
AcDbLine
 10
355
 20
20
 11
355
 21
30
  0
TEXT
  5
C9
100
AcDbEntity
  8
0
  6
ByLayer
 62
  256
370
   25
100
AcDbText
 10
356.2000122070312
 20
26.20000076293945
 30
0
 40
2.44999885559082
  1
Rev.:
 50
0
 41
0.9
 51
0
  7
Caddy_Vectorfont1p
 71
    0
210
0
220
0
230
1
100
AcDbText
  0
LINE
  5
CA
100
AcDbEntity
  8
0
  6
CONTINUOUS
 62
  256
370
   25
100
AcDbLine
 10
337.5
 20
20
 11
337.5
 21
30
  0
TEXT
  5
CB
100
AcDbEntity
  8
0
  6
ByLayer
 62
  256
370
   25
100
AcDbText
 10
338.7000122070312
 20
26.20000076293945
 30
0
 40
2.44999885559082
  1
Init.:
 50
0
 41
0.9
 51
0
  7
Caddy_Vectorfont1p
 71
    0
210
0
220
0
230
1
100
AcDbText
  0
TEXT
  5
CC
100
AcDbEntity
  8
0
  6
ByLayer
 62
  256
370
   35
100
AcDbText
 10
403.25
 20
21.75
 30
0
 40
3.5
  1
6
 50
0
 41
0.9
 51
0
  7
Caddy_Vectorfont1p
 71
    0
 72
    2
 11
403.25
 21
21.75
 31
0
210
0
220
0
230
1
100
AcDbText
  0
TEXT
  5
CD
100
AcDbEntity
  8
0
  6
ByLayer
 62
  256
370
   25
100
AcDbText
 10
383.7000122070312
 20
26.20000076293945
 30
0
 40
2.44999885559082
  1
Blad:
 50
0
 41
0.9
 51
0
  7
Caddy_Vectorfont1p
 71
    0
210
0
220
0
230
1
100
AcDbText
  0
TEXT
  5
CE
100
AcDbEntity
  8
0
  6
ByLayer
 62
  256
370
   25
100
AcDbText
 10
406.3000183105469
 20
11.69999980926514
 30
0
 40
2.449999809265137
  1
7
 50
0
 41
0.9
 51
0
  7
Caddy_Vectorfont1p
 71
    0
 72
    2
 11
406.3000183105469
 21
11.69999980926514
 31
0
210
0
220
0
230
1
100
AcDbText
  0
TEXT
  5
CF
100
AcDbEntity
  8
0
  6
ByLayer
 62
  256
370
   25
100
AcDbText
 10
383.7000122070312
 20
16.20000076293945
 30
0
 40
2.44999885559082
  1
Næste blad:
 50
0
 41
0.9
 51
0
  7
Caddy_Vectorfont1p
 71
    0
210
0
220
0
230
1
100
AcDbText
  0
TEXT
  5
D0
100
AcDbEntity
  8
0
  6
ByLayer
 62
  256
370
   25
100
AcDbText
 10
356.2000122070312
 20
16.20000076293945
 30
0
 40
2.44999885559082
  1
Antal blade:
 50
0
 41
0.9
 51
0
  7
Caddy_Vectorfont1p
 71
    0
210
0
220
0
230
1
100
AcDbText
  0
TEXT
  5
D1
100
AcDbEntity
  8
0
  6
ByLayer
 62
  256
370
   25
100
AcDbText
 10
378.8000183105469
 20
11.69999980926514
 30
0
 40
2.449999809265137
  1
31
 50
0
 41
0.9
 51
0
  7
Caddy_Vectorfont1p
 71
    0
 72
    2
 11
378.8000183105469
 21
11.69999980926514
 31
0
210
0
220
0
230
1
100
AcDbText
  0
IMAGE
  5
D4
100
AcDbEntity
  8
0
  6
ByLayer
 62
  256
370
   -1
100
AcDbRasterImage
 10
12
 20
15
 30
0
 11
0.04549509366636931
 21
0
 31
0
 12
0
 22
0.04843339589486619
 32
0
 13
1121
 23
234
340
D2
 70
    1
280
    0
281
   50
282
   50
283
    0
360
D3
  0
TEXT
  5
D5
100
AcDbEntity
  8
0
  6
ByLayer
 62
  256
370
   25
100
AcDbText
 10
286.2999877929688
 20
21.70000076293945
 30
0
 40
2.45
  1
CP_servo
 50
0
 41
0.9
 51
0
  7
standard
 71
    0
 72
    2
 11
286.2999877929688
 21
21.70000076293945
 31
0
210
0
220
0
230
1
100
AcDbText
  0
TEXT
  5
D6
100
AcDbEntity
  8
0
  6
ByLayer
 62
  256
370
   25
100
AcDbText
 10
286.2999572753906
 20
11.69999980926514
 30
0
 40
2.45
  1
2025
 50
0
 41
0.9
 51
0
  7
standard
 71
    0
 72
    2
 11
286.2999572753906
 21
11.69999980926514
 31
0
210
0
220
0
230
1
100
AcDbText
  0
ENDBLK
  5
50
330
4E
100
AcDbEntity
  8
0
100
AcDbBlockEnd
  0
BLOCK
  5
52
330
51
100
AcDbEntity
  8
0
100
AcDbBlockBegin
  2
Blk2
 70
    0
 10
0
 20
0
  3
Blk2
  1

  0
LINE
  5
D7
100
AcDbEntity
  8
0
  6
CONTINUOUS
 62
  256
370
   25
100
AcDbLine
 10
27.5
 20
260
 11
25.25
 21
261.25
  0
LINE
  5
D8
100
AcDbEntity
  8
0
  6
CONTINUOUS
 62
  256
370
   25
100
AcDbLine
 10
27.5
 20
260
 11
25.25
 21
258.75
  0
ENDBLK
  5
53
330
51
100
AcDbEntity
  8
0
100
AcDbBlockEnd
  0
BLOCK
  5
55
330
54
100
AcDbEntity
  8
0
100
AcDbBlockBegin
  2
Blk3
 70
    0
 10
0
 20
0
  3
Blk3
  1

  0
LINE
  5
D9
100
AcDbEntity
  8
0
  6
CONTINUOUS
 62
  256
370
   25
100
AcDbLine
 10
392.5
 20
260
 11
390.25
 21
261.25
  0
LINE
  5
DA
100
AcDbEntity
  8
0
  6
CONTINUOUS
 62
  256
370
   25
100
AcDbLine
 10
392.5
 20
260
 11
390.25
 21
258.75
  0
ENDBLK
  5
56
330
54
100
AcDbEntity
  8
0
100
AcDbBlockEnd
  0
BLOCK
  5
58
330
57
100
AcDbEntity
  8
0
100
AcDbBlockBegin
  2
Blk4
 70
    0
 10
0
 20
0
  3
Blk4
  1

  0
LINE
  5
DB
100
AcDbEntity
  8
0
  6
CONTINUOUS
 62
  256
370
   25
100
AcDbLine
 10
27.5
 20
255
 11
25.25
 21
256.25
  0
LINE
  5
DC
100
AcDbEntity
  8
0
  6
CONTINUOUS
 62
  256
370
   25
100
AcDbLine
 10
27.5
 20
255
 11
25.25
 21
253.75
  0
ENDBLK
  5
59
330
57
100
AcDbEntity
  8
0
100
AcDbBlockEnd
  0
BLOCK
  5
5B
330
5A
100
AcDbEntity
  8
0
100
AcDbBlockBegin
  2
Blk5
 70
    0
 10
0
 20
0
  3
Blk5
  1

  0
LINE
  5
DD
100
AcDbEntity
  8
0
  6
CONTINUOUS
 62
  256
370
   25
100
AcDbLine
 10
392.5
 20
255
 11
390.25
 21
256.25
  0
LINE
  5
DE
100
AcDbEntity
  8
0
  6
CONTINUOUS
 62
  256
370
   25
100
AcDbLine
 10
392.5
 20
255
 11
390.25
 21
253.75
  0
ENDBLK
  5
5C
330
5A
100
AcDbEntity
  8
0
100
AcDbBlockEnd
  0
BLOCK
  5
5E
330
5D
100
AcDbEntity
  8
0
100
AcDbBlockBegin
  2
Blk6
 70
    0
 10
0
 20
0
  3
Blk6
  1

  0
LINE
  5
DF
100
AcDbEntity
  8
0
  6
CONTINUOUS
 62
  256
370
   25
100
AcDbLine
 10
27.5
 20
250
 11
25.25
 21
251.25
  0
LINE
  5
E0
100
AcDbEntity
  8
0
  6
CONTINUOUS
 62
  256
370
   25
100
AcDbLine
 10
27.5
 20
250
 11
25.25
 21
248.75
  0
ENDBLK
  5
5F
330
5D
100
AcDbEntity
  8
0
100
AcDbBlockEnd
  0
BLOCK
  5
61
330
60
100
AcDbEntity
  8
0
100
AcDbBlockBegin
  2
Blk7
 70
    0
 10
0
 20
0
  3
Blk7
  1

  0
LINE
  5
E1
100
AcDbEntity
  8
0
  6
CONTINUOUS
 62
  256
370
   25
100
AcDbLine
 10
392.5
 20
250
 11
390.25
 21
251.25
  0
LINE
  5
E2
100
AcDbEntity
  8
0
  6
CONTINUOUS
 62
  256
370
   25
100
AcDbLine
 10
392.5
 20
250
 11
390.25
 21
248.75
  0
ENDBLK
  5
62
330
60
100
AcDbEntity
  8
0
100
AcDbBlockEnd
  0
BLOCK
  5
64
330
63
100
AcDbEntity
  8
0
100
AcDbBlockBegin
  2
Blk8
 70
    0
 10
0
 20
0
  3
Blk8
  1

  0
LINE
  5
E3
100
AcDbEntity
  8
0
  6
CONTINUOUS
 62
  256
370
   25
100
AcDbLine
 10
27.5
 20
245
 11
25.25
 21
246.25
  0
LINE
  5
E4
100
AcDbEntity
  8
0
  6
CONTINUOUS
 62
  256
370
   25
100
AcDbLine
 10
27.5
 20
245
 11
25.25
 21
243.75
  0
ENDBLK
  5
65
330
63
100
AcDbEntity
  8
0
100
AcDbBlockEnd
  0
BLOCK
  5
67
330
66
100
AcDbEntity
  8
0
100
AcDbBlockBegin
  2
Blk9
 70
    0
 10
0
 20
0
  3
Blk9
  1

  0
LINE
  5
E5
100
AcDbEntity
  8
0
  6
CONTINUOUS
 62
  256
370
   25
100
AcDbLine
 10
392.5
 20
245
 11
390.25
 21
246.25
  0
LINE
  5
E6
100
AcDbEntity
  8
0
  6
CONTINUOUS
 62
  256
370
   25
100
AcDbLine
 10
392.5
 20
245
 11
390.25
 21
243.75
  0
ENDBLK
  5
68
330
66
100
AcDbEntity
  8
0
100
AcDbBlockEnd
  0
BLOCK
  5
6A
330
69
100
AcDbEntity
  8
0
100
AcDbBlockBegin
  2
Blk10
 70
    0
 10
0
 20
0
  3
Blk10
  1

  0
LINE
  5
E7
100
AcDbEntity
  8
0
  6
CONTINUOUS
 62
  256
370
   25
100
AcDbLine
 10
75
 20
187.5
 11
75
 21
190
  0
LINE
  5
E8
100
AcDbEntity
  8
0
  6
CONTINUOUS
 62
  256
370
   25
100
AcDbLine
 10
75
 20
182.5
 11
75
 21
180
  0
LINE
  5
E9
100
AcDbEntity
  8
0
  6
CONTINUOUS
 62
  256
370
   25
100
AcDbLine
 10
75
 20
182.5
 11
71.58493041992188
 21
188.4150695800781
  0
LINE
  5
EA
100
AcDbEntity
  8
0
  6
CONTINUOUS
 62
  256
370
   25
100
AcDbLine
 10
70
 20
187.5
 11
70
 21
190
  0
LINE
  5
EB
100
AcDbEntity
  8
0
  6
CONTINUOUS
 62
  256
370
   25
100
AcDbLine
 10
70
 20
182.5
 11
70
 21
180
  0
LINE
  5
EC
100
AcDbEntity
  8
0
  6
CONTINUOUS
 62
  256
370
   25
100
AcDbLine
 10
70
 20
182.5
 11
66.58493041992188
 21
188.4150695800781
  0
LINE
  5
ED
100
AcDbEntity
  8
0
  6
CONTINUOUS
 62
  256
370
   25
100
AcDbLine
 10
65
 20
187.5
 11
65
 21
190
  0
LINE
  5
EE
100
AcDbEntity
  8
0
  6
CONTINUOUS
 62
  256
370
   25
100
AcDbLine
 10
65
 20
182.5
 11
65
 21
180
  0
LINE
  5
EF
100
AcDbEntity
  8
0
  6
CONTINUOUS
 62
  256
370
   25
100
AcDbLine
 10
65
 20
182.5
 11
61.58493041992188
 21
188.4150695800781
  0
ELLIPSE
  5
F0
100
AcDbEntity
  8
0
  6
CONTINUOUS
 62
  256
370
   25
100
AcDbEllipse
 10
70
 20
188.75
 30
0
 11
1.25
 21
0
 31
0
 40
1
 41
1.570796326794897
 42
4.71238898038469
  0
ELLIPSE
  5
F1
100
AcDbEntity
  8
0
  6
CONTINUOUS
 62
  256
370
   25
100
AcDbEllipse
 10
75
 20
188.75
 30
0
 11
1.25
 21
0
 31
0
 40
1
 41
1.570796326794897
 42
4.71238898038469
  0
ELLIPSE
  5
F2
100
AcDbEntity
  8
0
  6
CONTINUOUS
 62
  256
370
   25
100
AcDbEllipse
 10
65
 20
188.75
 30
0
 11
1.25
 21
0
 31
0
 40
1
 41
1.570796326794897
 42
4.71238898038469
  0
LINE
  5
F3
100
AcDbEntity
  8
0
  6
CONTINUOUS
 62
  256
370
   25
100
AcDbLine
 10
63.556640625
 20
185
 11
65
 21
185
  0
LINE
  5
F4
100
AcDbEntity
  8
0
  6
CONTINUOUS
 62
  256
370
   25
100
AcDbLine
 10
66
 20
185
 11
68
 21
185
  0
LINE
  5
F5
100
AcDbEntity
  8
0
  6
CONTINUOUS
 62
  256
370
   25
100
AcDbLine
 10
69
 20
185
 11
71
 21
185
  0
LINE
  5
F6
100
AcDbEntity
  8
0
  6
CONTINUOUS
 62
  256
370
   25
100
AcDbLine
 10
72
 20
185
 11
73.556640625
 21
185
  0
ENDBLK
  5
6B
330
69
100
AcDbEntity
  8
0
100
AcDbBlockEnd
  0
BLOCK
  5
6D
330
6C
100
AcDbEntity
  8
0
100
AcDbBlockBegin
  2
Blk11
 70
    0
 10
0
 20
0
  3
Blk11
  1

  0
LINE
  5
F7
100
AcDbEntity
  8
0
  6
CONTINUOUS
 62
  256
370
   25
100
AcDbLine
 10
75
 20
147.5
 11
75
 21
150
  0
LINE
  5
F8
100
AcDbEntity
  8
0
  6
CONTINUOUS
 62
  256
370
   25
100
AcDbLine
 10
75
 20
142.5
 11
75
 21
140
  0
LINE
  5
F9
100
AcDbEntity
  8
0
  6
CONTINUOUS
 62
  256
370
   25
100
AcDbLine
 10
75
 20
142.5
 11
71.58493041992188
 21
148.4150695800781
  0
LINE
  5
FA
100
AcDbEntity
  8
0
  6
CONTINUOUS
 62
  256
370
   25
100
AcDbLine
 10
70
 20
147.5
 11
70
 21
150
  0
LINE
  5
FB
100
AcDbEntity
  8
0
  6
CONTINUOUS
 62
  256
370
   25
100
AcDbLine
 10
70
 20
142.5
 11
70
 21
140
  0
LINE
  5
FC
100
AcDbEntity
  8
0
  6
CONTINUOUS
 62
  256
370
   25
100
AcDbLine
 10
70
 20
142.5
 11
66.58493041992188
 21
148.4150695800781
  0
LINE
  5
FD
100
AcDbEntity
  8
0
  6
CONTINUOUS
 62
  256
370
   25
100
AcDbLine
 10
65
 20
147.5
 11
65
 21
150
  0
LINE
  5
FE
100
AcDbEntity
  8
0
  6
CONTINUOUS
 62
  256
370
   25
100
AcDbLine
 10
65
 20
142.5
 11
65
 21
140
  0
LINE
  5
FF
100
AcDbEntity
  8
0
  6
CONTINUOUS
 62
  256
370
   25
100
AcDbLine
 10
65
 20
142.5
 11
61.58493041992188
 21
148.4150695800781
  0
ELLIPSE
  5
100
100
AcDbEntity
  8
0
  6
CONTINUOUS
 62
  256
370
   25
100
AcDbEllipse
 10
70
 20
148.75
 30
0
 11
1.25
 21
0
 31
0
 40
1
 41
1.570796326794897
 42
4.71238898038469
  0
ELLIPSE
  5
101
100
AcDbEntity
  8
0
  6
CONTINUOUS
 62
  256
370
   25
100
AcDbEllipse
 10
75
 20
148.75
 30
0
 11
1.25
 21
0
 31
0
 40
1
 41
1.570796326794897
 42
4.71238898038469
  0
ELLIPSE
  5
102
100
AcDbEntity
  8
0
  6
CONTINUOUS
 62
  256
370
   25
100
AcDbEllipse
 10
65
 20
148.75
 30
0
 11
1.25
 21
0
 31
0
 40
1
 41
1.570796326794897
 42
4.71238898038469
  0
LINE
  5
103
100
AcDbEntity
  8
0
  6
CONTINUOUS
 62
  256
370
   25
100
AcDbLine
 10
63.556640625
 20
145
 11
65
 21
145
  0
LINE
  5
104
100
AcDbEntity
  8
0
  6
CONTINUOUS
 62
  256
370
   25
100
AcDbLine
 10
66
 20
145
 11
68
 21
145
  0
LINE
  5
105
100
AcDbEntity
  8
0
  6
CONTINUOUS
 62
  256
370
   25
100
AcDbLine
 10
69
 20
145
 11
71
 21
145
  0
LINE
  5
106
100
AcDbEntity
  8
0
  6
CONTINUOUS
 62
  256
370
   25
100
AcDbLine
 10
72
 20
145
 11
73.556640625
 21
145
  0
ENDBLK
  5
6E
330
6C
100
AcDbEntity
  8
0
100
AcDbBlockEnd
  0
BLOCK
  5
70
330
6F
100
AcDbEntity
  8
0
100
AcDbBlockBegin
  2
Blk12
 70
    0
 10
0
 20
0
  3
Blk12
  1

  0
LINE
  5
107
100
AcDbEntity
  8
0
  6
CONTINUOUS
 62
  256
370
   25
100
AcDbLine
 10
122.5
 20
110
 11
120.25
 21
111.25
  0
LINE
  5
108
100
AcDbEntity
  8
0
  6
CONTINUOUS
 62
  256
370
   25
100
AcDbLine
 10
122.5
 20
110
 11
120.25
 21
108.75
  0
LINE
  5
109
100
AcDbEntity
  8
0
  6
CONTINUOUS
 62
  256
370
   25
100
AcDbLine
 10
120
 20
110
 11
122.5
 21
110
  0
ENDBLK
  5
71
330
6F
100
AcDbEntity
  8
0
100
AcDbBlockEnd
  0
BLOCK
  5
73
330
72
100
AcDbEntity
  8
0
100
AcDbBlockBegin
  2
Blk13
 70
    0
 10
0
 20
0
  3
Blk13
  1

  0
LINE
  5
10A
100
AcDbEntity
  8
0
  6
CONTINUOUS
 62
  256
370
   25
100
AcDbLine
 10
122.5
 20
100
 11
120.25
 21
101.25
  0
LINE
  5
10B
100
AcDbEntity
  8
0
  6
CONTINUOUS
 62
  256
370
   25
100
AcDbLine
 10
122.5
 20
100
 11
120.25
 21
98.75
  0
LINE
  5
10C
100
AcDbEntity
  8
0
  6
CONTINUOUS
 62
  256
370
   25
100
AcDbLine
 10
120
 20
100
 11
122.5
 21
100
  0
ENDBLK
  5
74
330
72
100
AcDbEntity
  8
0
100
AcDbBlockEnd
  0
BLOCK
  5
76
330
75
100
AcDbEntity
  8
0
100
AcDbBlockBegin
  2
Blk14
 70
    0
 10
0
 20
0
  3
Blk14
  1

  0
LINE
  5
10D
100
AcDbEntity
  8
0
  6
CONTINUOUS
 62
  256
370
   25
100
AcDbLine
 10
27.5
 20
80
 11
25.25
 21
81.25
  0
LINE
  5
10E
100
AcDbEntity
  8
0
  6
CONTINUOUS
 62
  256
370
   25
100
AcDbLine
 10
27.5
 20
80
 11
25.25
 21
78.75
  0
ENDBLK
  5
77
330
75
100
AcDbEntity
  8
0
100
AcDbBlockEnd
  0
BLOCK
  5
79
330
78
100
AcDbEntity
  8
0
100
AcDbBlockBegin
  2
Blk15
 70
    0
 10
0
 20
0
  3
Blk15
  1

  0
LINE
  5
10F
100
AcDbEntity
  8
0
  6
CONTINUOUS
 62
  256
370
   25
100
AcDbLine
 10
392.5
 20
80
 11
390.25
 21
81.25
  0
LINE
  5
110
100
AcDbEntity
  8
0
  6
CONTINUOUS
 62
  256
370
   25
100
AcDbLine
 10
392.5
 20
80
 11
390.25
 21
78.75
  0
ENDBLK
  5
7A
330
78
100
AcDbEntity
  8
0
100
AcDbBlockEnd
  0
BLOCK
  5
7C
330
7B
100
AcDbEntity
  8
0
100
AcDbBlockBegin
  2
Blk16
 70
    0
 10
0
 20
0
  3
Blk16
  1

  0
LINE
  5
111
100
AcDbEntity
  8
0
  6
CONTINUOUS
 62
  256
370
   25
100
AcDbLine
 10
65
 20
217.5
 11
65
 21
220
  0
LINE
  5
112
100
AcDbEntity
  8
0
  6
CONTINUOUS
 62
  256
370
   25
100
AcDbLine
 10
65
 20
212.5
 11
65
 21
210
  0
LINE
  5
113
100
AcDbEntity
  8
0
  6
CONTINUOUS
 62
  256
370
   25
100
AcDbLine
 10
65
 20
212.5
 11
61.58493041992188
 21
218.4150695800781
  0
LINE
  5
114
100
AcDbEntity
  8
0
  6
CONTINUOUS
 62
  256
370
   25
100
AcDbLine
 10
64.13397216796875
 20
214
 11
62.40191650390625
 21
213
  0
LINE
  5
115
100
AcDbEntity
  8
0
  6
CONTINUOUS
 62
  256
370
   25
100
AcDbLine
 10
62.40191650390625
 20
213
 11
61.40191650390625
 21
214.7320556640625
  0
LINE
  5
116
100
AcDbEntity
  8
0
  6
CONTINUOUS
 62
  256
370
   25
100
AcDbLine
 10
61.40191650390625
 20
214.7320556640625
 11
63.13397216796875
 21
215.7320556640625
  0
LINE
  5
117
100
AcDbEntity
  8
0
  6
CONTINUOUS
 62
  256
370
   25
100
AcDbLine
 10
62.83493041992188
 20
213.25
 11
61.83493041992188
 21
214.9820556640625
  0
LINE
  5
118
100
AcDbEntity
  8
0
  6
CONTINUOUS
 62
  256
370
   25
100
AcDbLine
 10
63.2679443359375
 20
213.5
 11
62.2679443359375
 21
215.2320556640625
  0
LINE
  5
119
100
AcDbEntity
  8
0
  6
CONTINUOUS
 62
  256
370
   25
100
AcDbLine
 10
63.70095825195312
 20
213.75
 11
62.70095825195312
 21
215.4820556640625
  0
LINE
  5
11A
100
AcDbEntity
  8
0
  6
CONTINUOUS
 62
  256
370
   25
100
AcDbLine
 10
62.61843872070312
 20
213.125
 11
61.61843872070312
 21
214.8570556640625
  0
LINE
  5
11B
100
AcDbEntity
  8
0
  6
CONTINUOUS
 62
  256
370
   25
100
AcDbLine
 10
63.05145263671875
 20
213.375
 11
62.05145263671875
 21
215.1070556640625
  0
LINE
  5
11C
100
AcDbEntity
  8
0
  6
CONTINUOUS
 62
  256
370
   25
100
AcDbLine
 10
63.48446655273438
 20
213.625
 11
62.48446655273438
 21
215.3570556640625
  0
LINE
  5
11D
100
AcDbEntity
  8
0
  6
CONTINUOUS
 62
  256
370
   25
100
AcDbLine
 10
63.91746520996094
 20
213.875
 11
62.91746520996094
 21
215.6070556640625
  0
LINE
  5
11E
100
AcDbEntity
  8
0
  6
CONTINUOUS
 62
  256
370
   25
100
AcDbLine
 10
62.488525390625
 20
213.0500030517578
 11
61.488525390625
 21
214.7820434570312
  0
LINE
  5
11F
100
AcDbEntity
  8
0
  6
CONTINUOUS
 62
  256
370
   25
100
AcDbLine
 10
62.70503234863281
 20
213.1750030517578
 11
61.70503234863281
 21
214.9070434570312
  0
LINE
  5
120
100
AcDbEntity
  8
0
  6
CONTINUOUS
 62
  256
370
   25
100
AcDbLine
 10
62.92153930664062
 20
213.3000030517578
 11
61.92153930664062
 21
215.0320434570312
  0
LINE
  5
121
100
AcDbEntity
  8
0
  6
CONTINUOUS
 62
  256
370
   25
100
AcDbLine
 10
63.13804626464844
 20
213.4250030517578
 11
62.13804626464844
 21
215.1570434570312
  0
LINE
  5
122
100
AcDbEntity
  8
0
  6
CONTINUOUS
 62
  256
370
   25
100
AcDbLine
 10
63.35455322265625
 20
213.5500030517578
 11
62.35455322265625
 21
215.2820434570312
  0
LINE
  5
123
100
AcDbEntity
  8
0
  6
CONTINUOUS
 62
  256
370
   25
100
AcDbLine
 10
63.57106018066406
 20
213.6750030517578
 11
62.57106018066406
 21
215.4070434570312
  0
LINE
  5
124
100
AcDbEntity
  8
0
  6
CONTINUOUS
 62
  256
370
   25
100
AcDbLine
 10
63.78756713867188
 20
213.8000030517578
 11
62.78756713867188
 21
215.5320434570312
  0
LINE
  5
125
100
AcDbEntity
  8
0
  6
CONTINUOUS
 62
  256
370
   25
100
AcDbLine
 10
64.00407409667969
 20
213.9250030517578
 11
63.00407409667969
 21
215.6570434570312
  0
LINE
  5
126
100
AcDbEntity
  8
0
  6
CONTINUOUS
 62
  256
370
   25
100
AcDbLine
 10
70
 20
217.5
 11
70
 21
220
  0
LINE
  5
127
100
AcDbEntity
  8
0
  6
CONTINUOUS
 62
  256
370
   25
100
AcDbLine
 10
70
 20
212.5
 11
66.58493041992188
 21
218.4150695800781
  0
LINE
  5
128
100
AcDbEntity
  8
0
  6
CONTINUOUS
 62
  256
370
   25
100
AcDbLine
 10
70
 20
212.5
 11
70
 21
210
  0
LINE
  5
129
100
AcDbEntity
  8
0
  6
CONTINUOUS
 62
  256
370
   25
100
AcDbLine
 10
68.2679443359375
 20
213.5
 11
67.2679443359375
 21
215.2320556640625
  0
LINE
  5
12A
100
AcDbEntity
  8
0
  6
CONTINUOUS
 62
  256
370
   25
100
AcDbLine
 10
69.13397216796875
 20
214
 11
67.40191650390625
 21
213
  0
LINE
  5
12B
100
AcDbEntity
  8
0
  6
CONTINUOUS
 62
  256
370
   25
100
AcDbLine
 10
67.40191650390625
 20
213
 11
66.40191650390625
 21
214.7320556640625
  0
LINE
  5
12C
100
AcDbEntity
  8
0
  6
CONTINUOUS
 62
  256
370
   25
100
AcDbLine
 10
66.40191650390625
 20
214.7320556640625
 11
68.13397216796875
 21
215.7320556640625
  0
LINE
  5
12D
100
AcDbEntity
  8
0
  6
CONTINUOUS
 62
  256
370
   25
100
AcDbLine
 10
67.83493041992188
 20
213.25
 11
66.83493041992188
 21
214.9820556640625
  0
LINE
  5
12E
100
AcDbEntity
  8
0
  6
CONTINUOUS
 62
  256
370
   25
100
AcDbLine
 10
68.70095825195312
 20
213.75
 11
67.70095825195312
 21
215.4820556640625
  0
LINE
  5
12F
100
AcDbEntity
  8
0
  6
CONTINUOUS
 62
  256
370
   25
100
AcDbLine
 10
67.61843872070312
 20
213.125
 11
66.61843872070312
 21
214.8570556640625
  0
LINE
  5
130
100
AcDbEntity
  8
0
  6
CONTINUOUS
 62
  256
370
   25
100
AcDbLine
 10
68.05145263671875
 20
213.375
 11
67.05145263671875
 21
215.1070556640625
  0
LINE
  5
131
100
AcDbEntity
  8
0
  6
CONTINUOUS
 62
  256
370
   25
100
AcDbLine
 10
68.48446655273438
 20
213.625
 11
67.48446655273438
 21
215.3570556640625
  0
LINE
  5
132
100
AcDbEntity
  8
0
  6
CONTINUOUS
 62
  256
370
   25
100
AcDbLine
 10
68.91746520996094
 20
213.875
 11
67.91746520996094
 21
215.6070556640625
  0
LINE
  5
133
100
AcDbEntity
  8
0
  6
CONTINUOUS
 62
  256
370
   25
100
AcDbLine
 10
67.488525390625
 20
213.0500030517578
 11
66.488525390625
 21
214.7820434570312
  0
LINE
  5
134
100
AcDbEntity
  8
0
  6
CONTINUOUS
 62
  256
370
   25
100
AcDbLine
 10
67.70503234863281
 20
213.1750030517578
 11
66.70503234863281
 21
214.9070434570312
  0
LINE
  5
135
100
AcDbEntity
  8
0
  6
CONTINUOUS
 62
  256
370
   25
100
AcDbLine
 10
67.92153930664062
 20
213.3000030517578
 11
66.92153930664062
 21
215.0320434570312
  0
LINE
  5
136
100
AcDbEntity
  8
0
  6
CONTINUOUS
 62
  256
370
   25
100
AcDbLine
 10
68.13804626464844
 20
213.4250030517578
 11
67.13804626464844
 21
215.1570434570312
  0
LINE
  5
137
100
AcDbEntity
  8
0
  6
CONTINUOUS
 62
  256
370
   25
100
AcDbLine
 10
68.35455322265625
 20
213.5500030517578
 11
67.35455322265625
 21
215.2820434570312
  0
LINE
  5
138
100
AcDbEntity
  8
0
  6
CONTINUOUS
 62
  256
370
   25
100
AcDbLine
 10
68.57106018066406
 20
213.6750030517578
 11
67.57106018066406
 21
215.4070434570312
  0
LINE
  5
139
100
AcDbEntity
  8
0
  6
CONTINUOUS
 62
  256
370
   25
100
AcDbLine
 10
68.78756713867188
 20
213.8000030517578
 11
67.78756713867188
 21
215.5320434570312
  0
LINE
  5
13A
100
AcDbEntity
  8
0
  6
CONTINUOUS
 62
  256
370
   25
100
AcDbLine
 10
69.00407409667969
 20
213.9250030517578
 11
68.00407409667969
 21
215.6570434570312
  0
LINE
  5
13B
100
AcDbEntity
  8
0
  6
CONTINUOUS
 62
  256
370
   25
100
AcDbLine
 10
75
 20
217.5
 11
75
 21
220
  0
LINE
  5
13C
100
AcDbEntity
  8
0
  6
CONTINUOUS
 62
  256
370
   25
100
AcDbLine
 10
75
 20
212.5
 11
75
 21
210
  0
LINE
  5
13D
100
AcDbEntity
  8
0
  6
CONTINUOUS
 62
  256
370
   25
100
AcDbLine
 10
75
 20
212.5
 11
71.58493041992188
 21
218.4150695800781
  0
LINE
  5
13E
100
AcDbEntity
  8
0
  6
CONTINUOUS
 62
  256
370
   25
100
AcDbLine
 10
74.13397216796875
 20
214
 11
72.40191650390625
 21
213
  0
LINE
  5
13F
100
AcDbEntity
  8
0
  6
CONTINUOUS
 62
  256
370
   25
100
AcDbLine
 10
72.40191650390625
 20
213
 11
71.40191650390625
 21
214.7320556640625
  0
LINE
  5
140
100
AcDbEntity
  8
0
  6
CONTINUOUS
 62
  256
370
   25
100
AcDbLine
 10
71.40191650390625
 20
214.7320556640625
 11
73.13397216796875
 21
215.7320556640625
  0
LINE
  5
141
100
AcDbEntity
  8
0
  6
CONTINUOUS
 62
  256
370
   25
100
AcDbLine
 10
72.83493041992188
 20
213.25
 11
71.83493041992188
 21
214.9820556640625
  0
LINE
  5
142
100
AcDbEntity
  8
0
  6
CONTINUOUS
 62
  256
370
   25
100
AcDbLine
 10
73.70095825195312
 20
213.75
 11
72.70095825195312
 21
215.4820556640625
  0
LINE
  5
143
100
AcDbEntity
  8
0
  6
CONTINUOUS
 62
  256
370
   25
100
AcDbLine
 10
72.61843872070312
 20
213.125
 11
71.61843872070312
 21
214.8570556640625
  0
LINE
  5
144
100
AcDbEntity
  8
0
  6
CONTINUOUS
 62
  256
370
   25
100
AcDbLine
 10
73.05145263671875
 20
213.375
 11
72.05145263671875
 21
215.1070556640625
  0
LINE
  5
145
100
AcDbEntity
  8
0
  6
CONTINUOUS
 62
  256
370
   25
100
AcDbLine
 10
73.48446655273438
 20
213.625
 11
72.48446655273438
 21
215.3570556640625
  0
LINE
  5
146
100
AcDbEntity
  8
0
  6
CONTINUOUS
 62
  256
370
   25
100
AcDbLine
 10
73.91746520996094
 20
213.875
 11
72.91746520996094
 21
215.6070556640625
  0
LINE
  5
147
100
AcDbEntity
  8
0
  6
CONTINUOUS
 62
  256
370
   25
100
AcDbLine
 10
72.488525390625
 20
213.0500030517578
 11
71.488525390625
 21
214.7820434570312
  0
LINE
  5
148
100
AcDbEntity
  8
0
  6
CONTINUOUS
 62
  256
370
   25
100
AcDbLine
 10
72.70503234863281
 20
213.1750030517578
 11
71.70503234863281
 21
214.9070434570312
  0
LINE
  5
149
100
AcDbEntity
  8
0
  6
CONTINUOUS
 62
  256
370
   25
100
AcDbLine
 10
72.92153930664062
 20
213.3000030517578
 11
71.92153930664062
 21
215.0320434570312
  0
LINE
  5
14A
100
AcDbEntity
  8
0
  6
CONTINUOUS
 62
  256
370
   25
100
AcDbLine
 10
73.13804626464844
 20
213.4250030517578
 11
72.13804626464844
 21
215.1570434570312
  0
LINE
  5
14B
100
AcDbEntity
  8
0
  6
CONTINUOUS
 62
  256
370
   25
100
AcDbLine
 10
73.35455322265625
 20
213.5500030517578
 11
72.35455322265625
 21
215.2820434570312
  0
LINE
  5
14C
100
AcDbEntity
  8
0
  6
CONTINUOUS
 62
  256
370
   25
100
AcDbLine
 10
73.57106018066406
 20
213.6750030517578
 11
72.57106018066406
 21
215.4070434570312
  0
LINE
  5
14D
100
AcDbEntity
  8
0
  6
CONTINUOUS
 62
  256
370
   25
100
AcDbLine
 10
73.78756713867188
 20
213.8000030517578
 11
72.78756713867188
 21
215.5320434570312
  0
LINE
  5
14E
100
AcDbEntity
  8
0
  6
CONTINUOUS
 62
  256
370
   25
100
AcDbLine
 10
74.00407409667969
 20
213.9250030517578
 11
73.00407409667969
 21
215.6570434570312
  0
LINE
  5
14F
100
AcDbEntity
  8
0
  6
CONTINUOUS
 62
  256
370
   25
100
AcDbLine
 10
63.5
 20
215
 11
64.5
 21
215
  0
LINE
  5
150
100
AcDbEntity
  8
0
  6
CONTINUOUS
 62
  256
370
   25
100
AcDbLine
 10
69.5
 20
215
 11
65.5
 21
215
  0
LINE
  5
151
100
AcDbEntity
  8
0
  6
CONTINUOUS
 62
  256
370
   25
100
AcDbLine
 10
70.5
 20
215
 11
72
 21
215
  0
LINE
  5
152
100
AcDbEntity
  8
0
  6
CONTINUOUS
 62
  256
370
   25
100
AcDbLine
 10
73.2679443359375
 20
213.5
 11
72.2679443359375
 21
215.2320556640625
  0
ENDBLK
  5
7D
330
7B
100
AcDbEntity
  8
0
100
AcDbBlockEnd
  0
BLOCK
  5
7F
330
7E
100
AcDbEntity
  8
0
100
AcDbBlockBegin
  2
Blk17
 70
    0
 10
0
 20
0
  3
Blk17
  1

  0
LINE
  5
153
100
AcDbEntity
  8
0
  6
CONTINUOUS
 62
  256
370
   25
100
AcDbLine
 10
122.5
 20
105
 11
120.25
 21
106.25
  0
LINE
  5
154
100
AcDbEntity
  8
0
  6
CONTINUOUS
 62
  256
370
   25
100
AcDbLine
 10
122.5
 20
105
 11
120.25
 21
103.75
  0
LINE
  5
155
100
AcDbEntity
  8
0
  6
CONTINUOUS
 62
  256
370
   25
100
AcDbLine
 10
120
 20
105
 11
122.5
 21
105
  0
ENDBLK
  5
80
330
7E
100
AcDbEntity
  8
0
100
AcDbBlockEnd
  0
ENDSEC
  0
SECTION
  2
ENTITIES
  0
INSERT
  5
156
100
AcDbEntity
  8
0
  6
ByLayer
 62
  256
370
   -1
100
AcDbBlockReference
  2
Blk1
 10
0
 20
0
 30
0
 41
1
 42
1
 43
0
 50
0
 70
    1
 71
    1
 44
0
 45
0
  0
INSERT
  5
157
100
AcDbEntity
  8
0
  6
ByLayer
 62
  256
370
   -1
100
AcDbBlockReference
  2
Blk2
 10
0
 20
0
 30
0
 41
1
 42
1
 43
0
 50
0
 70
    1
 71
    1
 44
0
 45
0
  0
INSERT
  5
158
100
AcDbEntity
  8
0
  6
ByLayer
 62
  256
370
   -1
100
AcDbBlockReference
  2
Blk3
 10
0
 20
0
 30
0
 41
1
 42
1
 43
0
 50
0
 70
    1
 71
    1
 44
0
 45
0
  0
LINE
  5
159
100
AcDbEntity
  8
0
  6
CONTINUOUS
 62
  256
370
   25
100
AcDbLine
 10
27.5
 20
260
 11
65
 21
260
  0
LINE
  5
15A
100
AcDbEntity
  8
0
  6
CONTINUOUS
 62
  256
370
   25
100
AcDbLine
 10
65
 20
260
 11
392.5
 21
260
  0
INSERT
  5
15B
100
AcDbEntity
  8
0
  6
ByLayer
 62
  256
370
   -1
100
AcDbBlockReference
  2
Blk4
 10
0
 20
0
 30
0
 41
1
 42
1
 43
0
 50
0
 70
    1
 71
    1
 44
0
 45
0
  0
INSERT
  5
15C
100
AcDbEntity
  8
0
  6
ByLayer
 62
  256
370
   -1
100
AcDbBlockReference
  2
Blk5
 10
0
 20
0
 30
0
 41
1
 42
1
 43
0
 50
0
 70
    1
 71
    1
 44
0
 45
0
  0
LINE
  5
15D
100
AcDbEntity
  8
0
  6
CONTINUOUS
 62
  256
370
   25
100
AcDbLine
 10
27.5
 20
255
 11
70
 21
255
  0
LINE
  5
15E
100
AcDbEntity
  8
0
  6
CONTINUOUS
 62
  256
370
   25
100
AcDbLine
 10
70
 20
255
 11
392.5
 21
255
  0
INSERT
  5
15F
100
AcDbEntity
  8
0
  6
ByLayer
 62
  256
370
   -1
100
AcDbBlockReference
  2
Blk6
 10
0
 20
0
 30
0
 41
1
 42
1
 43
0
 50
0
 70
    1
 71
    1
 44
0
 45
0
  0
INSERT
  5
160
100
AcDbEntity
  8
0
  6
ByLayer
 62
  256
370
   -1
100
AcDbBlockReference
  2
Blk7
 10
0
 20
0
 30
0
 41
1
 42
1
 43
0
 50
0
 70
    1
 71
    1
 44
0
 45
0
  0
LINE
  5
161
100
AcDbEntity
  8
0
  6
CONTINUOUS
 62
  256
370
   25
100
AcDbLine
 10
27.5
 20
250
 11
75
 21
250
  0
LINE
  5
162
100
AcDbEntity
  8
0
  6
CONTINUOUS
 62
  256
370
   25
100
AcDbLine
 10
75
 20
250
 11
392.5
 21
250
  0
INSERT
  5
163
100
AcDbEntity
  8
0
  6
ByLayer
 62
  256
370
   -1
100
AcDbBlockReference
  2
Blk8
 10
0
 20
0
 30
0
 41
1
 42
1
 43
0
 50
0
 70
    1
 71
    1
 44
0
 45
0
  0
INSERT
  5
164
100
AcDbEntity
  8
0
  6
ByLayer
 62
  256
370
   -1
100
AcDbBlockReference
  2
Blk9
 10
0
 20
0
 30
0
 41
1
 42
1
 43
0
 50
0
 70
    1
 71
    1
 44
0
 45
0
  0
LINE
  5
165
100
AcDbEntity
  8
0
  6
CONTINUOUS
 62
  256
370
   25
100
AcDbLine
 10
27.5
 20
245
 11
392.5
 21
245
  0
INSERT
  5
166
100
AcDbEntity
  8
0
  6
ByLayer
 62
  256
370
   -1
100
AcDbBlockReference
  2
Blk10
 10
0
 20
0
 30
0
 41
1
 42
1
 43
0
 50
0
 70
    1
 71
    1
 44
0
 45
0
  0
INSERT
  5
167
100
AcDbEntity
  8
0
  6
ByLayer
 62
  256
370
   -1
100
AcDbBlockReference
  2
Blk11
 10
0
 20
0
 30
0
 41
1
 42
1
 43
0
 50
0
 70
    1
 71
    1
 44
0
 45
0
  0
TEXT
  5
168
100
AcDbEntity
  8
0
  6
ByLayer
 62
  256
370
   25
100
AcDbText
 10
300
 20
25.70000076293945
 30
0
 40
2.44999885559082
  1
PALLEBANE IND
 50
0
 41
0.9
 51
0
  7
Caddy_Vectorfont1p
 71
    0
 72
    1
 11
300
 21
25.70000076293945
 31
0
210
0
220
0
230
1
100
AcDbText
  0
TEXT
  5
169
100
AcDbEntity
  8
0
  6
ByLayer
 62
  256
370
   25
100
AcDbText
 10
300
 20
22.20000076293945
 30
0
 40
2.44999885559082
  1
SEKTION 1
 50
0
 41
0.9
 51
0
  7
Caddy_Vectorfont1p
 71
    0
 72
    1
 11
300
 21
22.20000076293945
 31
0
210
0
220
0
230
1
100
AcDbText
  0
CIRCLE
  5
16A
100
AcDbEntity
  8
0
  6
ByLayer
 62
  256
370
   40
100
AcDbCircle
 10
65
 20
260
 40
0.8
  0
CIRCLE
  5
16B
100
AcDbEntity
  8
0
  6
ByLayer
 62
  256
370
   40
100
AcDbCircle
 10
65
 20
260
 40
0.6
  0
CIRCLE
  5
16C
100
AcDbEntity
  8
0
  6
ByLayer
 62
  256
370
   40
100
AcDbCircle
 10
65
 20
260
 40
0.4
  0
INSERT
  5
16D
100
AcDbEntity
  8
0
  6
ByLayer
 62
  256
370
   -1
100
AcDbBlockReference
  2
Blk12
 10
0
 20
0
 30
0
 41
1
 42
1
 43
0
 50
0
 70
    1
 71
    1
 44
0
 45
0
  0
INSERT
  5
16E
100
AcDbEntity
  8
0
  6
ByLayer
 62
  256
370
   -1
100
AcDbBlockReference
  2
Blk13
 10
0
 20
0
 30
0
 41
1
 42
1
 43
0
 50
0
 70
    1
 71
    1
 44
0
 45
0
  0
LINE
  5
16F
100
AcDbEntity
  8
0
  6
CONTINUOUS
 62
  256
370
   25
100
AcDbLine
 10
65
 20
110
 11
120
 21
110
  0
TEXT
  5
170
100
AcDbEntity
  8
0
  6
ByLayer
 62
  256
370
   25
100
AcDbText
 10
92.5
 20
110.5
 30
0
 40
1.75
  1
0607
 50
0
 41
0.9
 51
0
  7
Caddy_Vectorfont1p
 71
    0
 72
    1
 11
92.5
 21
110.5
 31
0
210
0
220
0
230
1
100
AcDbText
  0
LINE
  5
171
100
AcDbEntity
  8
0
  6
CONTINUOUS
 62
  256
370
   25
100
AcDbLine
 10
70
 20
105
 11
120
 21
105
  0
TEXT
  5
172
100
AcDbEntity
  8
0
  6
ByLayer
 62
  256
370
   25
100
AcDbText
 10
95
 20
105.5
 30
0
 40
1.75
  1
0608
 50
0
 41
0.9
 51
0
  7
Caddy_Vectorfont1p
 71
    0
 72
    1
 11
95
 21
105.5
 31
0
210
0
220
0
230
1
100
AcDbText
  0
LINE
  5
173
100
AcDbEntity
  8
0
  6
CONTINUOUS
 62
  256
370
   25
100
AcDbLine
 10
75
 20
100
 11
120
 21
100
  0
TEXT
  5
174
100
AcDbEntity
  8
0
  6
ByLayer
 62
  256
370
   25
100
AcDbText
 10
97.5
 20
100.5
 30
0
 40
1.75
  1
0609
 50
0
 41
0.9
 51
0
  7
Caddy_Vectorfont1p
 71
    0
 72
    1
 11
97.5
 21
100.5
 31
0
210
0
220
0
230
1
100
AcDbText
  0
LINE
  5
175
100
AcDbEntity
  8
0
  6
CONTINUOUS
 62
  256
370
   25
100
AcDbLine
 10
27.5
 20
80
 11
392.5
 21
80
  0
INSERT
  5
176
100
AcDbEntity
  8
0
  6
ByLayer
 62
  256
370
   -1
100
AcDbBlockReference
  2
Blk14
 10
0
 20
0
 30
0
 41
1
 42
1
 43
0
 50
0
 70
    1
 71
    1
 44
0
 45
0
  0
INSERT
  5
177
100
AcDbEntity
  8
0
  6
ByLayer
 62
  256
370
   -1
100
AcDbBlockReference
  2
Blk15
 10
0
 20
0
 30
0
 41
1
 42
1
 43
0
 50
0
 70
    1
 71
    1
 44
0
 45
0
  0
INSERT
  5
178
100
AcDbEntity
  8
0
  6
ByLayer
 62
  256
370
   -1
100
AcDbBlockReference
  2
Blk16
 10
0
 20
0
 30
0
 41
1
 42
1
 43
0
 50
0
 70
    1
 71
    1
 44
0
 45
0
  0
LINE
  5
179
100
AcDbEntity
  8
0
  6
CONTINUOUS
 62
  256
370
   25
100
AcDbLine
 10
65
 20
220
 11
65
 21
260
  0
TEXT
  5
17A
100
AcDbEntity
  8
0
  6
ByLayer
 62
  256
370
   25
100
AcDbText
 10
64.5
 20
240
 30
0
 40
1.75
  1
0505
 50
90
 41
0.9
 51
0
  7
Caddy_Vectorfont1p
 71
    0
 72
    1
 11
64.5
 21
240
 31
0
210
0
220
0
230
1
100
AcDbText
  0
LINE
  5
17B
100
AcDbEntity
  8
0
  6
CONTINUOUS
 62
  256
370
   25
100
AcDbLine
 10
70
 20
220
 11
70
 21
255
  0
TEXT
  5
17C
100
AcDbEntity
  8
0
  6
ByLayer
 62
  256
370
   25
100
AcDbText
 10
69.5
 20
237.5
 30
0
 40
1.75
  1
0506
 50
90
 41
0.9
 51
0
  7
Caddy_Vectorfont1p
 71
    0
 72
    1
 11
69.5
 21
237.5
 31
0
210
0
220
0
230
1
100
AcDbText
  0
CIRCLE
  5
17D
100
AcDbEntity
  8
0
  6
ByLayer
 62
  256
370
   40
100
AcDbCircle
 10
70
 20
255
 40
0.8
  0
CIRCLE
  5
17E
100
AcDbEntity
  8
0
  6
ByLayer
 62
  256
370
   40
100
AcDbCircle
 10
70
 20
255
 40
0.6
  0
CIRCLE
  5
17F
100
AcDbEntity
  8
0
  6
ByLayer
 62
  256
370
   40
100
AcDbCircle
 10
70
 20
255
 40
0.4
  0
LINE
  5
180
100
AcDbEntity
  8
0
  6
CONTINUOUS
 62
  256
370
   25
100
AcDbLine
 10
75
 20
220
 11
75
 21
250
  0
CIRCLE
  5
181
100
AcDbEntity
  8
0
  6
ByLayer
 62
  256
370
   40
100
AcDbCircle
 10
75
 20
250
 40
0.8
  0
CIRCLE
  5
182
100
AcDbEntity
  8
0
  6
ByLayer
 62
  256
370
   40
100
AcDbCircle
 10
75
 20
250
 40
0.6
  0
CIRCLE
  5
183
100
AcDbEntity
  8
0
  6
ByLayer
 62
  256
370
   40
100
AcDbCircle
 10
75
 20
250
 40
0.4
  0
LINE
  5
184
100
AcDbEntity
  8
0
  6
CONTINUOUS
 62
  256
370
   25
100
AcDbLine
 10
65
 20
190
 11
65
 21
210
  0
TEXT
  5
185
100
AcDbEntity
  8
0
  6
ByLayer
 62
  256
370
   25
100
AcDbText
 10
64.5
 20
200
 30
0
 40
1.75
  1
0601
 50
90
 41
0.9
 51
0
  7
Caddy_Vectorfont1p
 71
    0
 72
    1
 11
64.5
 21
200
 31
0
210
0
220
0
230
1
100
AcDbText
  0
LINE
  5
186
100
AcDbEntity
  8
0
  6
CONTINUOUS
 62
  256
370
   25
100
AcDbLine
 10
70
 20
190
 11
70
 21
210
  0
TEXT
  5
187
100
AcDbEntity
  8
0
  6
ByLayer
 62
  256
370
   25
100
AcDbText
 10
69.5
 20
200
 30
0
 40
1.75
  1
0602
 50
90
 41
0.9
 51
0
  7
Caddy_Vectorfont1p
 71
    0
 72
    1
 11
69.5
 21
200
 31
0
210
0
220
0
230
1
100
AcDbText
  0
LINE
  5
188
100
AcDbEntity
  8
0
  6
CONTINUOUS
 62
  256
370
   25
100
AcDbLine
 10
75
 20
190
 11
75
 21
210
  0
TEXT
  5
189
100
AcDbEntity
  8
0
  6
ByLayer
 62
  256
370
   25
100
AcDbText
 10
74.5
 20
200
 30
0
 40
1.75
  1
0603
 50
90
 41
0.9
 51
0
  7
Caddy_Vectorfont1p
 71
    0
 72
    1
 11
74.5
 21
200
 31
0
210
0
220
0
230
1
100
AcDbText
  0
LINE
  5
18A
100
AcDbEntity
  8
0
  6
CONTINUOUS
 62
  256
370
   25
100
AcDbLine
 10
65
 20
150
 11
65
 21
180
  0
TEXT
  5
18B
100
AcDbEntity
  8
0
  6
ByLayer
 62
  256
370
   25
100
AcDbText
 10
64.5
 20
165
 30
0
 40
1.75
  1
0604
 50
90
 41
0.9
 51
0
  7
Caddy_Vectorfont1p
 71
    0
 72
    1
 11
64.5
 21
165
 31
0
210
0
220
0
230
1
100
AcDbText
  0
LINE
  5
18C
100
AcDbEntity
  8
0
  6
CONTINUOUS
 62
  256
370
   25
100
AcDbLine
 10
70
 20
150
 11
70
 21
180
  0
TEXT
  5
18D
100
AcDbEntity
  8
0
  6
ByLayer
 62
  256
370
   25
100
AcDbText
 10
69.5
 20
165
 30
0
 40
1.75
  1
0605
 50
90
 41
0.9
 51
0
  7
Caddy_Vectorfont1p
 71
    0
 72
    1
 11
69.5
 21
165
 31
0
210
0
220
0
230
1
100
AcDbText
  0
LINE
  5
18E
100
AcDbEntity
  8
0
  6
CONTINUOUS
 62
  256
370
   25
100
AcDbLine
 10
75
 20
150
 11
75
 21
180
  0
TEXT
  5
18F
100
AcDbEntity
  8
0
  6
ByLayer
 62
  256
370
   25
100
AcDbText
 10
74.5
 20
165
 30
0
 40
1.75
  1
0606
 50
90
 41
0.9
 51
0
  7
Caddy_Vectorfont1p
 71
    0
 72
    1
 11
74.5
 21
165
 31
0
210
0
220
0
230
1
100
AcDbText
  0
LINE
  5
190
100
AcDbEntity
  8
0
  6
CONTINUOUS
 62
  256
370
   25
100
AcDbLine
 10
65
 20
110
 11
65
 21
140
  0
TEXT
  5
191
100
AcDbEntity
  8
0
  6
ByLayer
 62
  256
370
   25
100
AcDbText
 10
64.5
 20
125
 30
0
 40
1.75
  1
0607
 50
90
 41
0.9
 51
0
  7
Caddy_Vectorfont1p
 71
    0
 72
    1
 11
64.5
 21
125
 31
0
210
0
220
0
230
1
100
AcDbText
  0
LINE
  5
192
100
AcDbEntity
  8
0
  6
CONTINUOUS
 62
  256
370
   25
100
AcDbLine
 10
70
 20
105
 11
70
 21
140
  0
TEXT
  5
193
100
AcDbEntity
  8
0
  6
ByLayer
 62
  256
370
   25
100
AcDbText
 10
69.5
 20
122.5
 30
0
 40
1.75
  1
0608
 50
90
 41
0.9
 51
0
  7
Caddy_Vectorfont1p
 71
    0
 72
    1
 11
69.5
 21
122.5
 31
0
210
0
220
0
230
1
100
AcDbText
  0
LINE
  5
194
100
AcDbEntity
  8
0
  6
CONTINUOUS
 62
  256
370
   25
100
AcDbLine
 10
75
 20
100
 11
75
 21
140
  0
TEXT
  5
195
100
AcDbEntity
  8
0
  6
ByLayer
 62
  256
370
   25
100
AcDbText
 10
74.5
 20
120
 30
0
 40
1.75
  1
0609
 50
90
 41
0.9
 51
0
  7
Caddy_Vectorfont1p
 71
    0
 72
    1
 11
74.5
 21
120
 31
0
210
0
220
0
230
1
100
AcDbText
  0
INSERT
  5
196
100
AcDbEntity
  8
0
  6
ByLayer
 62
  256
370
   -1
100
AcDbBlockReference
  2
Blk17
 10
0
 20
0
 30
0
 41
1
 42
1
 43
0
 50
0
 70
    1
 71
    1
 44
0
 45
0
  0
MTEXT
  5
197
100
AcDbEntity
  8
0
  6
ByLayer
 62
  256
370
   -1
100
AcDbMText
 10
113.5490826303416
 20
113.3958450019606
 30
0
 40
2
 41
3.55555555555568
 71
    1
 72
    1
  1
3L1
  7
standard
210
0
220
0
230
1
 50
0
 73
    2
 44
1
  0
MTEXT
  5
198
100
AcDbEntity
  8
0
  6
ByLayer
 62
  256
370
   -1
100
AcDbMText
 10
50.56841736573918
 20
148.3340242728349
 30
0
 40
2
 41
7.333333333333456
 71
    1
 72
    1
  1
K0805\P8.5
  7
standard
210
0
220
0
230
1
 50
0
 73
    2
 44
1
  0
MTEXT
  5
199
100
AcDbEntity
  8
0
  6
ByLayer
 62
  256
370
   -1
100
AcDbMText
 10
113.8555578871037
 20
108.1857656370056
 30
0
 40
2
 41
4.000000000000124
 71
    1
 72
    1
  1
3L2
  7
standard
210
0
220
0
230
1
 50
0
 73
    2
 44
1
  0
MTEXT
  5
19A
100
AcDbEntity
  8
0
  6
ByLayer
 62
  256
370
   -1
100
AcDbMText
 10
113.8555578871037
 20
103.4353991571938
 30
0
 40
2
 41
4.000000000000248
 71
    1
 72
    1
  1
3L3
  7
standard
210
0
220
0
230
1
 50
0
 73
    2
 44
1
  0
MTEXT
  5
19B
100
AcDbEntity
  8
0
  6
ByLayer
 62
  256
370
   -1
100
AcDbMText
 10
124.5821918737756
 20
110.9440429478641
 30
0
 40
2
 41
4.666666666666666
 71
    1
 72
    1
  1
22.0
  7
standard
210
0
220
0
230
1
 50
0
 73
    2
 44
1
  0
MTEXT
  5
19C
100
AcDbEntity
  8
0
  6
ByLayer
 62
  256
370
   -1
100
AcDbMText
 10
124.7354295021566
 20
105.8872012112902
 30
0
 40
2
 41
4.888888888888889
 71
    1
 72
    1
  1
24.0
  7
standard
210
0
220
0
230
1
 50
0
 73
    2
 44
1
  0
MTEXT
  5
19D
100
AcDbEntity
  8
0
  6
ByLayer
 62
  256
370
   -1
100
AcDbMText
 10
125.0419047589187
 20
100.5238842179542
 30
0
 40
2
 41
2.444444444444568
 71
    1
 72
    1
  1
32
  7
standard
210
0
220
0
230
1
 50
0
 73
    2
 44
1
  0
MTEXT
  5
19E
100
AcDbEntity
  8
0
  6
ByLayer
 62
  256
370
   -1
100
AcDbMText
 10
61.60152660917318
 20
140.3656675970215
 30
0
 40
2
 41
0.8888888888888888
 71
    1
 72
    1
  1
2
  7
standard
210
0
220
0
230
1
 50
90
 73
    2
 44
1
  0
TEXT
  5
19F
100
AcDbEntity
  8
0
  6
ByLayer
 62
  256
370
   25
100
AcDbText
 10
74.5
 20
235
 30
0
 40
1.75
  1
0507
 50
90
 41
0.9
 51
0
  7
standard
 71
    0
 72
    1
 11
74.5
 21
235
 31
0
210
0
220
0
230
1
100
AcDbText
  0
MTEXT
  5
1A0
100
AcDbEntity
  8
0
  6
ByLayer
 62
  256
370
   -1
100
AcDbMText
 10
62.36771475107832
 20
191.5470354762848
 30
0
 40
2
 41
0.4444444444444444
 71
    1
 72
    1
  1
1
  7
standard
210
0
220
0
230
1
 50
90
 73
    2
 44
1
  0
MTEXT
  5
1A1
100
AcDbEntity
  8
0
  6
ByLayer
 62
  256
370
   -1
100
AcDbMText
 10
67.27131885927122
 20
191.7002731046658
 30
0
 40
2
 41
0.8888888888890129
 71
    1
 72
    1
  1
3
  7
standard
210
0
220
0
230
1
 50
90
 73
    2
 44
1
  0
MTEXT
  5
1A2
100
AcDbEntity
  8
0
  6
ByLayer
 62
  256
370
   -1
100
AcDbMText
 10
72.32816059584513
 20
192.1599859898089
 30
0
 40
2
 41
0.8888888888890129
 71
    1
 72
    1
  1
5
  7
standard
210
0
220
0
230
1
 50
90
 73
    2
 44
1
  0
MTEXT
  5
1A3
100
AcDbEntity
  8
0
  6
ByLayer
 62
  256
370
   -1
100
AcDbMText
 10
61.90800186593524
 20
181.1268767463749
 30
0
 40
2
 41
0.8888888888888888
 71
    1
 72
    1
  1
2
  7
standard
210
0
220
0
230
1
 50
90
 73
    2
 44
1
  0
MTEXT
  5
1A4
100
AcDbEntity
  8
0
  6
ByLayer
 62
  256
370
   -1
100
AcDbMText
 10
66.96484360250916
 20
180.9736391179939
 30
0
 40
2
 41
1.111111111111111
 71
    1
 72
    1
  1
4
  7
standard
210
0
220
0
230
1
 50
90
 73
    2
 44
1
  0
MTEXT
  5
1A5
100
AcDbEntity
  8
0
  6
ByLayer
 62
  256
370
   -1
100
AcDbMText
 10
72.32816059584513
 20
180.8204014896128
 30
0
 40
2
 41
0.8888888888890129
 71
    1
 72
    1
  1
6
  7
standard
210
0
220
0
230
1
 50
90
 73
    2
 44
1
  0
MTEXT
  5
1A6
100
AcDbEntity
  8
0
  6
ByLayer
 62
  256
370
   -1
100
AcDbMText
 10
51.94755602116843
 20
190.3211344492366
 30
0
 40
2
 41
7.333333333333456
 71
    1
 72
    1
  1
K0805\P8.4
  7
standard
210
0
220
0
230
1
 50
0
 73
    2
 44
1
  0
MTEXT
  5
1A7
100
AcDbEntity
  8
0
  6
ByLayer
 62
  256
370
   -1
100
AcDbMText
 10
61.75476423755421
 20
153.8505788945519
 30
0
 40
2
 41
0.4444444444444444
 71
    1
 72
    1
  1
1
  7
standard
210
0
220
0
230
1
 50
90
 73
    2
 44
1
  0
MTEXT
  5
1A8
100
AcDbEntity
  8
0
  6
ByLayer
 62
  256
370
   -1
100
AcDbMText
 10
67.11808123089018
 20
153.5441036377899
 30
0
 40
2
 41
0.8888888888890129
 71
    1
 72
    1
  1
3
  7
standard
210
0
220
0
230
1
 50
90
 73
    2
 44
1
  0
MTEXT
  5
1A9
100
AcDbEntity
  8
0
  6
ByLayer
 62
  256
370
   -1
100
AcDbMText
 10
72.32816059584513
 20
153.0843907526468
 30
0
 40
2
 41
0.8888888888890129
 71
    1
 72
    1
  1
5
  7
standard
210
0
220
0
230
1
 50
90
 73
    2
 44
1
  0
MTEXT
  5
1AA
100
AcDbEntity
  8
0
  6
ByLayer
 62
  256
370
   -1
100
AcDbMText
 10
67.11808123089018
 20
140.2124299686405
 30
0
 40
2
 41
1.111111111111111
 71
    1
 72
    1
  1
4
  7
standard
210
0
220
0
230
1
 50
90
 73
    2
 44
1
  0
MTEXT
  5
1AB
100
AcDbEntity
  8
0
  6
ByLayer
 62
  256
370
   -1
100
AcDbMText
 10
72.1749229674641
 20
140.2124299686405
 30
0
 40
2
 41
0.8888888888890129
 71
    1
 72
    1
  1
6
  7
standard
210
0
220
0
230
1
 50
90
 73
    2
 44
1
  0
MTEXT
  5
1AC
100
AcDbEntity
  8
0
  6
ByLayer
 62
  256
370
   -1
100
AcDbMText
 10
51.18136787926329
 20
219.2830462132508
 30
0
 40
2
 41
6.66666666666679
 71
    1
 72
    1
  1
F0601\P16A
  7
standard
210
0
220
0
230
1
 50
0
 73
    2
 44
1
  0
MTEXT
  5
1AD
100
AcDbEntity
  8
0
  6
ByLayer
 62
  256
370
   -1
100
AcDbMText
 10
20.3806045746767
 20
261.1169187612714
 30
0
 40
2
 41
3.111111111111235
 71
    1
 72
    1
  1
5.9
  7
standard
210
0
220
0
230
1
 50
0
 73
    2
 44
1
  0
MTEXT
  5
1AE
100
AcDbEntity
  8
0
  6
ByLayer
 62
  256
370
   -1
100
AcDbMText
 10
20.84031745981978
 20
255.9068393963165
 30
0
 40
2
 41
3.111111111111235
 71
    1
 72
    1
  1
5.9
  7
standard
210
0
220
0
230
1
 50
0
 73
    2
 44
1
  0
MTEXT
  5
1AF
100
AcDbEntity
  8
0
  6
ByLayer
 62
  256
370
   -1
100
AcDbMText
 10
20.53384220305773
 20
250.2370471462184
 30
0
 40
2
 41
3.111111111111235
 71
    1
 72
    1
  1
5.9
  7
standard
210
0
220
0
230
1
 50
0
 73
    2
 44
1
  0
MTEXT
  5
1B0
100
AcDbEntity
  8
0
  6
ByLayer
 62
  256
370
   -1
100
AcDbMText
 10
20.53384220305773
 20
245.4866806664066
 30
0
 40
2
 41
3.111111111111235
 71
    1
 72
    1
  1
5.9
  7
standard
210
0
220
0
230
1
 50
0
 73
    2
 44
1
  0
MTEXT
  5
1B1
100
AcDbEntity
  8
0
  6
ByLayer
 62
  256
370
   -1
100
AcDbMText
 10
29.26838702077631
 20
263.7219584437489
 30
0
 40
2
 41
3.555555555555555
 71
    1
 72
    1
  1
2L1
  7
standard
210
0
220
0
230
1
 50
0
 73
    2
 44
1
  0
MTEXT
  5
1B2
100
AcDbEntity
  8
0
  6
ByLayer
 62
  256
370
   -1
100
AcDbMText
 10
29.88133753430042
 20
258.0521661936509
 30
0
 40
2
 41
4
 71
    1
 72
    1
  1
2L2
  7
standard
210
0
220
0
230
1
 50
0
 73
    2
 44
1
  0
MTEXT
  5
1B3
100
AcDbEntity
  8
0
  6
ByLayer
 62
  256
370
   -1
100
AcDbMText
 10
30.34105041944351
 20
253.45503734222
 30
0
 40
2
 41
4.000000000000123
 71
    1
 72
    1
  1
2L3
  7
standard
210
0
220
0
230
1
 50
0
 73
    2
 44
1
  0
MTEXT
  5
1B4
100
AcDbEntity
  8
0
  6
ByLayer
 62
  256
370
   -1
100
AcDbMText
 10
30.18781279106248
 20
248.2449579772651
 30
0
 40
2
 41
1.111111111111111
 71
    1
 72
    1
  1
N
  7
standard
210
0
220
0
230
1
 50
0
 73
    2
 44
1
  0
MTEXT
  5
1B5
100
AcDbEntity
  8
0
  6
ByLayer
 62
  256
370
   -1
100
AcDbMText
 10
179.2880252058025
 20
263.1090079302248
 30
0
 40
2
 41
5.555555555555804
 71
    1
 72
    1
  1
0505
  7
standard
210
0
220
0
230
1
 50
0
 73
    2
 44
1
  0
MTEXT
  5
1B6
100
AcDbEntity
  8
0
  6
ByLayer
 62
  256
370
   -1
100
AcDbMText
 10
179.2880252058025
 20
258.0521661936509
 30
0
 40
2
 41
5.555555555555804
 71
    1
 72
    1
  1
0506
  7
standard
210
0
220
0
230
1
 50
0
 73
    2
 44
1
  0
MTEXT
  5
1B7
100
AcDbEntity
  8
0
  6
ByLayer
 62
  256
370
   -1
100
AcDbMText
 10
179.5945004625646
 20
252.9953244570769
 30
0
 40
2
 41
5.555555555555681
 71
    1
 72
    1
  1
0507
  7
standard
210
0
220
0
230
1
 50
0
 73
    2
 44
1
  0
MTEXT
  5
1B8
100
AcDbEntity
  8
0
  6
ByLayer
 62
  256
370
   -1
100
AcDbMText
 10
179.7477380909456
 20
248.091720348884
 30
0
 40
2
 41
5.555555555555681
 71
    1
 72
    1
  1
0508
  7
standard
210
0
220
0
230
1
 50
0
 73
    2
 44
1
  0
MTEXT
  5
1B9
100
AcDbEntity
  8
0
  6
ByLayer
 62
  256
370
   -1
100
AcDbMText
 10
394.4336554527656
 20
260.0442553626042
 30
0
 40
2
 41
3.111111111111111
 71
    1
 72
    1
  1
7.0
  7
standard
210
0
220
0
230
1
 50
0
 73
    2
 44
1
  0
MTEXT
  5
1BA
100
AcDbEntity
  8
0
  6
ByLayer
 62
  256
370
   -1
100
AcDbMText
 10
395.0466059662897
 20
255.1406512544113
 30
0
 40
2
 41
3.111111111111111
 71
    1
 72
    1
  1
7.0
  7
standard
210
0
220
0
230
1
 50
0
 73
    2
 44
1
  0
MTEXT
  5
1BB
100
AcDbEntity
  8
0
  6
ByLayer
 62
  256
370
   -1
100
AcDbMText
 10
395.0466059662897
 20
250.0838095178374
 30
0
 40
2
 41
3.111111111111111
 71
    1
 72
    1
  1
7.0
  7
standard
210
0
220
0
230
1
 50
0
 73
    2
 44
1
  0
MTEXT
  5
1BC
100
AcDbEntity
  8
0
  6
ByLayer
 62
  256
370
   -1
100
AcDbMText
 10
395.0466059662897
 20
245.1802054096445
 30
0
 40
2
 41
3.111111111111111
 71
    1
 72
    1
  1
7.0
  7
standard
210
0
220
0
230
1
 50
0
 73
    2
 44
1
  0
MTEXT
  5
1BD
100
AcDbEntity
  8
0
  6
ByLayer
 62
  256
370
   -1
100
AcDbMText
 10
384.9329224931419
 20
262.8025326734627
 30
0
 40
2
 41
3.555555555555555
 71
    1
 72
    1
  1
2L1
  7
standard
210
0
220
0
230
1
 50
0
 73
    2
 44
1
  0
MTEXT
  5
1BE
100
AcDbEntity
  8
0
  6
ByLayer
 62
  256
370
   -1
100
AcDbMText
 10
385.239397749904
 20
257.7456909368888
 30
0
 40
2
 41
4
 71
    1
 72
    1
  1
2L2
  7
standard
210
0
220
0
230
1
 50
0
 73
    2
 44
1
  0
MTEXT
  5
1BF
100
AcDbEntity
  8
0
  6
ByLayer
 62
  256
370
   -1
100
AcDbMText
 10
384.9329224931419
 20
253.148562085458
 30
0
 40
2
 41
4.000000000000123
 71
    1
 72
    1
  1
2L3
  7
standard
210
0
220
0
230
1
 50
0
 73
    2
 44
1
  0
MTEXT
  5
1C0
100
AcDbEntity
  8
0
  6
ByLayer
 62
  256
370
   -1
100
AcDbMText
 10
384.6264472363798
 20
248.2449579772651
 30
0
 40
2
 41
1.111111111111111
 71
    1
 72
    1
  1
N
  7
standard
210
0
220
0
230
1
 50
0
 73
    2
 44
1
  0
MTEXT
  5
1C1
100
AcDbEntity
  8
0
  6
ByLayer
 62
  256
370
   -1
100
AcDbMText
 10
31.2440099248818
 20
83.94474955721255
 30
0
 40
2
 41
2.666666666666667
 71
    1
 72
    1
  1
PE
  7
standard
210
0
220
0
230
1
 50
0
 73
    2
 44
1
  0
MTEXT
  5
1C2
100
AcDbEntity
  8
0
  6
ByLayer
 62
  256
370
   -1
100
AcDbMText
 10
396.3848488060306
 20
80.18041101204606
 30
0
 40
2
 41
3.111111111111111
 71
    1
 72
    1
  1
7.0
  7
standard
210
0
220
0
230
1
 50
0
 73
    2
 44
1
  0
ENDSEC
  0
SECTION
  2
OBJECTS
  0
DICTIONARY
  5
C
330
0
100
AcDbDictionary
281
    1
  3
ACAD_GROUP
350
D
  3
ACAD_IMAGE_DICT
350
1C3
  0
DICTIONARY
  5
D
330
C
100
AcDbDictionary
281
    1
  0
IMAGEDEF_REACTOR
  5
D3
330
D4
100
AcDbRasterImageDefReactor
 90
    2
330
D4
  0
DICTIONARY
  5
1C3
330
C
100
AcDbDictionary
281
    1
  3
sikkerhedskreds - 0006 - Kredsskema - 0006 - Image1
350
D2
  0
IMAGEDEF
  5
D2
102
{ACAD_REACTORS
330
D3
102
}
100
AcDbRasterImageDef
 90
    0
  1
sikkerhedskreds - 0006 - Kredsskema - 0006 - Image1.bmp
 10
1121
 20
234
 11
1
 21
1
280
    1
281
    0
  0
PLOTSETTINGS
  5
1C4
100
AcDbPlotSettings
  6
1x1
 40
0
 41
0
 42
0
 43
0
  0
ENDSEC
  0
EOF
