/* XPM */
static char * small_down_xpm[] = {
"17 14 21 1",
" 	c None",
".	c #9D9D9D",
"+	c #979797",
"@	c #919191",
"#	c #818181",
"$	c #7B7B7B",
"%	c #4F4F4F",
"&	c #4E4E4E",
"*	c #474747",
"=	c #3B3B3B",
"-	c #3A3A3A",
";	c #0F0F0F",
">	c #0E0E0E",
",	c #0D0D0D",
"'	c #0C0C0C",
")	c #0B0B0B",
"!	c #090909",
"~	c #080808",
"{	c #070707",
"]	c #060606",
"^	c #040404",
"                 ",
" $.+@@@@@@@@@#=, ",
"  -&&%%%%%%%*;!  ",
"  >>;;;;;;;;'{^  ",
"   >;;;;;;;,~^   ",
"   ,,>;;;;;)]    ",
"    ',;;;;,~^    ",
"     >;;;;)]     ",
"     ,,>>'{^     ",
"      ',,~^      ",
"       ,)]       ",
"       ){^       ",
"        ]        ",
"                 "};
