/* XPM */
static char * small_prev_xpm[] = {
"14 17 31 1",
" 	c None",
".	c #AEAEAE",
"+	c #A9A9A9",
"@	c #A8A8A8",
"#	c #A1A1A1",
"$	c #A0A0A0",
"%	c #8C8C8C",
"&	c #878787",
"*	c #868686",
"=	c #808080",
"-	c #7E7E7E",
";	c #585858",
">	c #4C4C4C",
",	c #474747",
"'	c #454545",
")	c #373737",
"!	c #303030",
"~	c #2F2F2F",
"{	c #242424",
"]	c #181818",
"^	c #161616",
"/	c #0F0F0F",
"(	c #0E0E0E",
"_	c #0D0D0D",
":	c #0C0C0C",
"<	c #0B0B0B",
"[	c #0A0A0A",
"}	c #090909",
"|	c #080808",
"1	c #070707",
"2	c #060606",
"              ",
"            > ",
"          .&( ",
"        .#*~} ",
"       +%;!_| ",
"     .#-']/_| ",
"    @%;!]//_| ",
"  @$=']////_| ",
" ,,){^/////_| ",
"  }}:(/////_| ",
"    }<_(///_| ",
"     ||[_(/_| ",
"       1|:(_| ",
"         }<<1 ",
"          |12 ",
"            2 ",
"              "};
