/* XPM */
static char * small_up_xpm[] = {
"17 14 32 1",
" 	c None",
".	c #9D9D9D",
"+	c #9A9A9A",
"@	c #929292",
"#	c #898989",
"$	c #878787",
"%	c #868686",
"&	c #848484",
"*	c #818181",
"=	c #7A7A7A",
"-	c #767676",
";	c #707070",
">	c #525252",
",	c #4F4F4F",
"'	c #4E4E4E",
")	c #454545",
"!	c #323232",
"~	c #2E2E2E",
"{	c #1B1B1B",
"]	c #1A1A1A",
"^	c #181818",
"/	c #121212",
"(	c #111111",
"_	c #0F0F0F",
":	c #0E0E0E",
"<	c #0D0D0D",
"[	c #0C0C0C",
"}	c #0B0B0B",
"|	c #0A0A0A",
"1	c #070707",
"2	c #050505",
"3	c #040404",
"                 ",
"        %        ",
"       .=:       ",
"       #>:       ",
"      +-!_:      ",
"     @*){]_<     ",
"     *'^_(_<     ",
"    $;~___/_:    ",
"    &'^___(]_<   ",
"   +-~_____(_[   ",
"  @*)^______/:[  ",
"  ,_[}}}}}}}}}|  ",
" :|2333333333321 ",
"                 "};
