/* XPM */
static char * small_next_xpm[] = {
"14 17 34 1",
" 	c None",
".	c #979797",
"+	c #8B8B8B",
"@	c #7B7B7B",
"#	c #5A5A5A",
"$	c #595959",
"%	c #585858",
"&	c #545454",
"*	c #4C4C4C",
"=	c #484848",
"-	c #474747",
";	c #454545",
">	c #414141",
",	c #353535",
"'	c #333333",
")	c #323232",
"!	c #313131",
"~	c #303030",
"{	c #2F2F2F",
"]	c #292929",
"^	c #1B1B1B",
"/	c #1A1A1A",
"(	c #111111",
"_	c #0F0F0F",
":	c #0E0E0E",
"<	c #0D0D0D",
"[	c #0C0C0C",
"}	c #0B0B0B",
"|	c #0A0A0A",
"1	c #090909",
"2	c #080808",
"3	c #070707",
"4	c #060606",
"5	c #040404",
"              ",
" .            ",
" +@=          ",
" #%'!         ",
" -,/~*$       ",
" -!(^{;&=     ",
" -!__(^{'!    ",
" -!____(/{>]  ",
" -!______:[|1 ",
" -!_____[255  ",
" -!___<}35    ",
" -!__[255     ",
" -]<}35       ",
" )<355        ",
" <45          ",
" 1            ",
"              "};
